<?xml version="1.0" encoding="UTF-8" standalone="no"?>
<!DOCTYPE svg PUBLIC "-//W3C//DTD SVG 1.1//EN"
 "http://www.w3.org/Graphics/SVG/1.1/DTD/svg11.dtd">
<!-- Generated by graphviz version 7.0.2 (20221119.0110)
 -->
<!-- Title: C:/Users/juanh/OneDrive/Escritorio/Sistemas Embebidos/Proyecto final/LAL Control MbedOS/src/Port/machine_state_pattern/Alarm.cpp Pages: 1 -->
<svg width="1694pt" height="511pt"
 viewBox="0.00 0.00 1694.00 511.00" xmlns="http://www.w3.org/2000/svg" xmlns:xlink="http://www.w3.org/1999/xlink">
<g id="graph0" class="graph" transform="scale(1 1) rotate(0) translate(4 507)">
<title>C:/Users/juanh/OneDrive/Escritorio/Sistemas Embebidos/Proyecto final/LAL Control MbedOS/src/Port/machine_state_pattern/Alarm.cpp</title>
<!-- Node1 -->
<g id="node1" class="node">
<title>Node1</title>
<g id="a_node1"><a xlink:title="Implementación de Alarm_state.h.">
<polygon fill="#999999" stroke="#666666" points="162,-503 0,-503 0,-440 162,-440 162,-503"/>
<text text-anchor="start" x="8" y="-491" font-family="Helvetica,sans-Serif" font-size="10.00">C:/Users/juanh/OneDrive</text>
<text text-anchor="start" x="8" y="-480" font-family="Helvetica,sans-Serif" font-size="10.00">/Escritorio/Sistemas Embebidos</text>
<text text-anchor="start" x="8" y="-469" font-family="Helvetica,sans-Serif" font-size="10.00">/Proyecto final/LAL Control</text>
<text text-anchor="start" x="8" y="-458" font-family="Helvetica,sans-Serif" font-size="10.00"> MbedOS/src/Port/machine_state</text>
<text text-anchor="middle" x="81" y="-447" font-family="Helvetica,sans-Serif" font-size="10.00">_pattern/Alarm.cpp</text>
</a>
</g>
</g>
<!-- Node2 -->
<g id="node2" class="node">
<title>Node2</title>
<g id="a_node2"><a xlink:href="_alarm__state_8h.html" target="_top" xlink:title="Clase de estado de control del motor.">
<polygon fill="white" stroke="#666666" points="139.5,-404 22.5,-404 22.5,-363 139.5,-363 139.5,-404"/>
<text text-anchor="start" x="30.5" y="-392" font-family="Helvetica,sans-Serif" font-size="10.00">machine_state_pattern</text>
<text text-anchor="start" x="30.5" y="-381" font-family="Helvetica,sans-Serif" font-size="10.00">/machine_states/Alarm</text>
<text text-anchor="middle" x="81" y="-370" font-family="Helvetica,sans-Serif" font-size="10.00">_state.h</text>
</a>
</g>
</g>
<!-- Node1&#45;&gt;Node2 -->
<g id="edge1" class="edge">
<title>Node1&#45;&gt;Node2</title>
<path fill="none" stroke="#63b8ff" d="M81,-439.94C81,-432.11 81,-423.69 81,-415.83"/>
<polygon fill="#63b8ff" stroke="#63b8ff" points="84.5,-416 81,-406 77.5,-416 84.5,-416"/>
</g>
<!-- Node3 -->
<g id="node3" class="node">
<title>Node3</title>
<g id="a_node3"><a xlink:href="_control__system_8h_source.html" target="_top" xlink:title=" ">
<polygon fill="white" stroke="#666666" points="881.5,-327 788.5,-327 788.5,-308 881.5,-308 881.5,-327"/>
<text text-anchor="middle" x="835" y="-315" font-family="Helvetica,sans-Serif" font-size="10.00">Control_system.h</text>
</a>
</g>
</g>
<!-- Node2&#45;&gt;Node3 -->
<g id="edge2" class="edge">
<title>Node2&#45;&gt;Node3</title>
<path fill="none" stroke="#63b8ff" d="M139.85,-377.5C280.93,-365.53 637.07,-335.3 777.14,-323.41"/>
<polygon fill="#63b8ff" stroke="#63b8ff" points="777.25,-326.91 786.92,-322.58 776.66,-319.94 777.25,-326.91"/>
</g>
<!-- Node8 -->
<g id="node8" class="node">
<title>Node8</title>
<g id="a_node8"><a xlink:href="_abstract__state_8h.html" target="_top" xlink:title="Clase de estado abstracta.">
<polygon fill="white" stroke="#666666" points="246,-41 118,-41 118,0 246,0 246,-41"/>
<text text-anchor="start" x="126" y="-29" font-family="Helvetica,sans-Serif" font-size="10.00">machine_state_pattern</text>
<text text-anchor="start" x="126" y="-18" font-family="Helvetica,sans-Serif" font-size="10.00">/machine_states/Abstract</text>
<text text-anchor="middle" x="182" y="-7" font-family="Helvetica,sans-Serif" font-size="10.00">_state.h</text>
</a>
</g>
</g>
<!-- Node2&#45;&gt;Node8 -->
<g id="edge60" class="edge">
<title>Node2&#45;&gt;Node8</title>
<path fill="none" stroke="#63b8ff" d="M60.9,-362.92C38.69,-339.08 6,-296.53 6,-252.5 6,-252.5 6,-252.5 6,-173.5 6,-129.79 -3.58,-110.07 25,-77 45.62,-53.14 77.16,-39.54 106.59,-31.79"/>
<polygon fill="#63b8ff" stroke="#63b8ff" points="107.36,-35.2 116.26,-29.45 105.72,-28.39 107.36,-35.2"/>
</g>
<!-- Node34 -->
<g id="node34" class="node">
<title>Node34</title>
<g id="a_node34"><a xlink:href="_idle__state_8h.html" target="_top" xlink:title="Clase de estado de reposo.">
<polygon fill="white" stroke="#666666" points="244,-195 128,-195 128,-154 244,-154 244,-195"/>
<text text-anchor="start" x="136" y="-183" font-family="Helvetica,sans-Serif" font-size="10.00">machine_state_pattern</text>
<text text-anchor="start" x="136" y="-172" font-family="Helvetica,sans-Serif" font-size="10.00">/machine_states/Idle</text>
<text text-anchor="middle" x="186" y="-161" font-family="Helvetica,sans-Serif" font-size="10.00">_state.h</text>
</a>
</g>
</g>
<!-- Node2&#45;&gt;Node34 -->
<g id="edge61" class="edge">
<title>Node2&#45;&gt;Node34</title>
<path fill="none" stroke="#63b8ff" d="M86.89,-362.65C102.26,-326.1 141.65,-247.97 166.07,-205.12"/>
<polygon fill="#63b8ff" stroke="#63b8ff" points="169.03,-207 171.03,-196.6 162.98,-203.49 169.03,-207"/>
</g>
<!-- Node35 -->
<g id="node35" class="node">
<title>Node35</title>
<g id="a_node35"><a xlink:href="_check__instruction__state_8h_source.html" target="_top" xlink:title=" ">
<polygon fill="white" stroke="#666666" points="153.5,-118 34.5,-118 34.5,-77 153.5,-77 153.5,-118"/>
<text text-anchor="start" x="42.5" y="-106" font-family="Helvetica,sans-Serif" font-size="10.00">machine_state_pattern</text>
<text text-anchor="start" x="42.5" y="-95" font-family="Helvetica,sans-Serif" font-size="10.00">/machine_states/Check</text>
<text text-anchor="middle" x="94" y="-84" font-family="Helvetica,sans-Serif" font-size="10.00">_instruction_state.h</text>
</a>
</g>
</g>
<!-- Node2&#45;&gt;Node35 -->
<g id="edge62" class="edge">
<title>Node2&#45;&gt;Node35</title>
<path fill="none" stroke="#63b8ff" d="M78.25,-362.53C76.63,-313.75 82.13,-188.23 88.17,-129.57"/>
<polygon fill="#63b8ff" stroke="#63b8ff" points="91.61,-130.28 89.25,-119.95 84.65,-129.5 91.61,-130.28"/>
</g>
<!-- Node4 -->
<g id="node4" class="node">
<title>Node4</title>
<g id="a_node4"><a xlink:href="_subject_8h.html" target="_top" xlink:title=" ">
<polygon fill="white" stroke="#666666" points="1536,-189.5 1408,-189.5 1408,-159.5 1536,-159.5 1536,-189.5"/>
<text text-anchor="start" x="1416" y="-177.5" font-family="Helvetica,sans-Serif" font-size="10.00">observer_pattern/subjects</text>
<text text-anchor="middle" x="1472" y="-166.5" font-family="Helvetica,sans-Serif" font-size="10.00">/Subject.h</text>
</a>
</g>
</g>
<!-- Node3&#45;&gt;Node4 -->
<g id="edge3" class="edge">
<title>Node3&#45;&gt;Node4</title>
<path fill="none" stroke="#63b8ff" d="M881.98,-316.88C1024.09,-317.54 1442.19,-315.71 1483,-272 1500.74,-253 1493.13,-221.9 1484.26,-200.16"/>
<polygon fill="#63b8ff" stroke="#63b8ff" points="1487.52,-198.85 1480.26,-191.13 1481.12,-201.69 1487.52,-198.85"/>
</g>
<!-- Node7 -->
<g id="node7" class="node">
<title>Node7</title>
<g id="a_node7"><a xlink:href="_machine_8h.html" target="_top" xlink:title="Clase de máquina abstracta.">
<polygon fill="white" stroke="#666666" points="364,-112.5 248,-112.5 248,-82.5 364,-82.5 364,-112.5"/>
<text text-anchor="start" x="256" y="-100.5" font-family="Helvetica,sans-Serif" font-size="10.00">machine_state_pattern</text>
<text text-anchor="middle" x="306" y="-89.5" font-family="Helvetica,sans-Serif" font-size="10.00">/Machine.h</text>
</a>
</g>
</g>
<!-- Node3&#45;&gt;Node7 -->
<g id="edge6" class="edge">
<title>Node3&#45;&gt;Node7</title>
<path fill="none" stroke="#63b8ff" d="M788.25,-315.86C729.94,-313.59 628.16,-304.76 548,-272 457.91,-235.19 369.45,-158.69 328.94,-120.78"/>
<polygon fill="#63b8ff" stroke="#63b8ff" points="331.36,-118.25 321.69,-113.92 326.55,-123.33 331.36,-118.25"/>
</g>
<!-- Node9 -->
<g id="node9" class="node">
<title>Node9</title>
<g id="a_node9"><a xlink:href="_display_8h.html" target="_top" xlink:title="Controlador de LCD hd44780 por interfaz I2C.">
<polygon fill="white" stroke="#666666" points="673,-261 585,-261 585,-242 673,-242 673,-261"/>
<text text-anchor="middle" x="629" y="-249" font-family="Helvetica,sans-Serif" font-size="10.00">drivers/Display.h</text>
</a>
</g>
</g>
<!-- Node3&#45;&gt;Node9 -->
<g id="edge8" class="edge">
<title>Node3&#45;&gt;Node9</title>
<path fill="none" stroke="#63b8ff" d="M801.67,-307.52C770.53,-298.97 722.86,-285.44 682,-272 675.74,-269.94 669.1,-267.62 662.73,-265.31"/>
<polygon fill="#63b8ff" stroke="#63b8ff" points="664.37,-262.18 653.78,-262.01 661.96,-268.75 664.37,-262.18"/>
</g>
<!-- Node19 -->
<g id="node19" class="node">
<title>Node19</title>
<g id="a_node19"><a xlink:href="user__messages_8h.html" target="_top" xlink:title="Archivo para la configuración de interfaz con el usuario.">
<polygon fill="white" stroke="#666666" points="1372,-261 1278,-261 1278,-242 1372,-242 1372,-261"/>
<text text-anchor="middle" x="1325" y="-249" font-family="Helvetica,sans-Serif" font-size="10.00">user_messages.h</text>
</a>
</g>
</g>
<!-- Node3&#45;&gt;Node19 -->
<g id="edge21" class="edge">
<title>Node3&#45;&gt;Node19</title>
<path fill="none" stroke="#63b8ff" d="M881.81,-315.26C961.99,-312.36 1130.36,-302.8 1269,-272 1276.7,-270.29 1284.8,-267.86 1292.38,-265.29"/>
<polygon fill="#63b8ff" stroke="#63b8ff" points="1293.33,-268.66 1301.57,-262 1290.98,-262.07 1293.33,-268.66"/>
</g>
<!-- Node20 -->
<g id="node20" class="node">
<title>Node20</title>
<g id="a_node20"><a xlink:href="_system__observer_8h.html" target="_top" xlink:title="Clase observador del sistema de control.">
<polygon fill="white" stroke="#666666" points="1662,-266.5 1530,-266.5 1530,-236.5 1662,-236.5 1662,-266.5"/>
<text text-anchor="start" x="1538" y="-254.5" font-family="Helvetica,sans-Serif" font-size="10.00">observer_pattern/observers</text>
<text text-anchor="middle" x="1596" y="-243.5" font-family="Helvetica,sans-Serif" font-size="10.00">/System_observer.h</text>
</a>
</g>
</g>
<!-- Node3&#45;&gt;Node20 -->
<g id="edge22" class="edge">
<title>Node3&#45;&gt;Node20</title>
<path fill="none" stroke="#63b8ff" d="M881.82,-316.18C991.72,-314.81 1273.95,-307.74 1507,-272 1512.12,-271.22 1517.39,-270.26 1522.69,-269.2"/>
<polygon fill="#63b8ff" stroke="#63b8ff" points="1523.04,-272.71 1532.11,-267.22 1521.6,-265.86 1523.04,-272.71"/>
</g>
<!-- Node22 -->
<g id="node22" class="node">
<title>Node22</title>
<g id="a_node22"><a xlink:href="_temperature__sensor_8h.html" target="_top" xlink:title="Controlador para sensor de temperatura DS18B20.">
<polygon fill="white" stroke="#666666" points="1259.5,-266.5 1158.5,-266.5 1158.5,-236.5 1259.5,-236.5 1259.5,-266.5"/>
<text text-anchor="start" x="1166.5" y="-254.5" font-family="Helvetica,sans-Serif" font-size="10.00">drivers/Temperature</text>
<text text-anchor="middle" x="1209" y="-243.5" font-family="Helvetica,sans-Serif" font-size="10.00">_sensor.h</text>
</a>
</g>
</g>
<!-- Node3&#45;&gt;Node22 -->
<g id="edge27" class="edge">
<title>Node3&#45;&gt;Node22</title>
<path fill="none" stroke="#63b8ff" d="M881.92,-312.52C943.89,-306.65 1056.16,-293.95 1150,-272 1152.43,-271.43 1154.91,-270.81 1157.4,-270.14"/>
<polygon fill="#63b8ff" stroke="#63b8ff" points="1158.23,-273.54 1166.87,-267.41 1156.29,-266.81 1158.23,-273.54"/>
</g>
<!-- Node25 -->
<g id="node25" class="node">
<title>Node25</title>
<g id="a_node25"><a xlink:href="_moisture__sensor_8h.html" target="_top" xlink:title="Controlador de sensor de humedad analógico.">
<polygon fill="white" stroke="#666666" points="610,-107 482,-107 482,-88 610,-88 610,-107"/>
<text text-anchor="middle" x="546" y="-95" font-family="Helvetica,sans-Serif" font-size="10.00">drivers/Moisture_sensor.h</text>
</a>
</g>
</g>
<!-- Node3&#45;&gt;Node25 -->
<g id="edge30" class="edge">
<title>Node3&#45;&gt;Node25</title>
<path fill="none" stroke="#63b8ff" d="M788.03,-314.75C721.62,-311.26 605.09,-301.06 576,-272 534.78,-230.82 538.31,-154.79 542.8,-118.63"/>
<polygon fill="#63b8ff" stroke="#63b8ff" points="546.26,-119.14 544.21,-108.74 539.33,-118.15 546.26,-119.14"/>
</g>
<!-- Node26 -->
<g id="node26" class="node">
<title>Node26</title>
<g id="a_node26"><a xlink:href="types_8h.html" target="_top" xlink:title="Archivo de definición de tipos de dato.">
<polygon fill="white" stroke="#666666" points="1065.5,-184 1016.5,-184 1016.5,-165 1065.5,-165 1065.5,-184"/>
<text text-anchor="middle" x="1041" y="-172" font-family="Helvetica,sans-Serif" font-size="10.00">types.h</text>
</a>
</g>
</g>
<!-- Node3&#45;&gt;Node26 -->
<g id="edge32" class="edge">
<title>Node3&#45;&gt;Node26</title>
<path fill="none" stroke="#63b8ff" d="M881.74,-314.7C917.92,-310.99 967.21,-300.54 1000,-272 1022.73,-252.22 1033.2,-217.68 1037.77,-195.73"/>
<polygon fill="#63b8ff" stroke="#63b8ff" points="1041.2,-196.43 1039.55,-185.96 1034.32,-195.17 1041.2,-196.43"/>
</g>
<!-- Node27 -->
<g id="node27" class="node">
<title>Node27</title>
<g id="a_node27"><a xlink:href="_buzzer_8h.html" target="_top" xlink:title="Controlador de Buzzer de 12 milimetros sin oscilador.">
<polygon fill="white" stroke="#666666" points="777,-261 691,-261 691,-242 777,-242 777,-261"/>
<text text-anchor="middle" x="734" y="-249" font-family="Helvetica,sans-Serif" font-size="10.00">drivers/Buzzer.h</text>
</a>
</g>
</g>
<!-- Node3&#45;&gt;Node27 -->
<g id="edge33" class="edge">
<title>Node3&#45;&gt;Node27</title>
<path fill="none" stroke="#63b8ff" d="M820.96,-307.6C804.52,-297.19 777.07,-279.79 757.4,-267.33"/>
<polygon fill="#63b8ff" stroke="#63b8ff" points="759.52,-264.53 749.2,-262.13 755.78,-270.44 759.52,-264.53"/>
</g>
<!-- Node29 -->
<g id="node29" class="node">
<title>Node29</title>
<g id="a_node29"><a xlink:href="_motor_8h.html" target="_top" xlink:title="Controlador de motor de 220 VAC.">
<polygon fill="white" stroke="#666666" points="875,-261 795,-261 795,-242 875,-242 875,-261"/>
<text text-anchor="middle" x="835" y="-249" font-family="Helvetica,sans-Serif" font-size="10.00">drivers/Motor.h</text>
</a>
</g>
</g>
<!-- Node3&#45;&gt;Node29 -->
<g id="edge36" class="edge">
<title>Node3&#45;&gt;Node29</title>
<path fill="none" stroke="#63b8ff" d="M835,-307.6C835,-298.62 835,-284.45 835,-272.72"/>
<polygon fill="#63b8ff" stroke="#63b8ff" points="838.5,-272.84 835,-262.84 831.5,-272.84 838.5,-272.84"/>
</g>
<!-- Node30 -->
<g id="node30" class="node">
<title>Node30</title>
<g id="a_node30"><a xlink:href="_dual___l_e_d_8h.html" target="_top" xlink:title="Controlador de LED RG con PWM.">
<polygon fill="white" stroke="#666666" points="1140.5,-261 1047.5,-261 1047.5,-242 1140.5,-242 1140.5,-261"/>
<text text-anchor="middle" x="1094" y="-249" font-family="Helvetica,sans-Serif" font-size="10.00">drivers/Dual_led.h</text>
</a>
</g>
</g>
<!-- Node3&#45;&gt;Node30 -->
<g id="edge39" class="edge">
<title>Node3&#45;&gt;Node30</title>
<path fill="none" stroke="#63b8ff" d="M880.1,-307.55C920.42,-299.27 980.98,-286.13 1033,-272 1040.8,-269.88 1049.1,-267.39 1056.97,-264.91"/>
<polygon fill="#63b8ff" stroke="#63b8ff" points="1057.84,-268.31 1066.29,-261.92 1055.7,-261.65 1057.84,-268.31"/>
</g>
<!-- Node31 -->
<g id="node31" class="node">
<title>Node31</title>
<g id="a_node31"><a xlink:href="_digital__dual___l_e_d_8h_source.html" target="_top" xlink:title=" ">
<polygon fill="white" stroke="#666666" points="991,-266.5 893,-266.5 893,-236.5 991,-236.5 991,-266.5"/>
<text text-anchor="start" x="901" y="-254.5" font-family="Helvetica,sans-Serif" font-size="10.00">drivers/Digital_dual</text>
<text text-anchor="middle" x="942" y="-243.5" font-family="Helvetica,sans-Serif" font-size="10.00">_led.h</text>
</a>
</g>
</g>
<!-- Node3&#45;&gt;Node31 -->
<g id="edge43" class="edge">
<title>Node3&#45;&gt;Node31</title>
<path fill="none" stroke="#63b8ff" d="M849.88,-307.6C864.84,-298.65 888.44,-284.54 908,-272.84"/>
<polygon fill="#63b8ff" stroke="#63b8ff" points="909.71,-275.89 916.5,-267.75 906.12,-269.88 909.71,-275.89"/>
</g>
<!-- Node32 -->
<g id="node32" class="node">
<title>Node32</title>
<g id="a_node32"><a xlink:href="_cooler_8h.html" target="_top" xlink:title="Controlador de ventilador de 12 volts y 5 milímteros.">
<polygon fill="white" stroke="#666666" points="1473.5,-261 1390.5,-261 1390.5,-242 1473.5,-242 1473.5,-261"/>
<text text-anchor="middle" x="1432" y="-249" font-family="Helvetica,sans-Serif" font-size="10.00">drivers/Cooler.h</text>
</a>
</g>
</g>
<!-- Node3&#45;&gt;Node32 -->
<g id="edge46" class="edge">
<title>Node3&#45;&gt;Node32</title>
<path fill="none" stroke="#63b8ff" d="M881.69,-317.12C976.87,-317.41 1199.68,-313.17 1381,-272 1388.04,-270.4 1395.4,-268.03 1402.27,-265.49"/>
<polygon fill="#63b8ff" stroke="#63b8ff" points="1403.12,-268.91 1411.14,-261.99 1400.55,-262.4 1403.12,-268.91"/>
</g>
<!-- Node33 -->
<g id="node33" class="node">
<title>Node33</title>
<g id="a_node33"><a xlink:href="_shutdown__state_8h.html" target="_top" xlink:title="Clase de estado de apagado del sistema.">
<polygon fill="white" stroke="#666666" points="434,-272 300,-272 300,-231 434,-231 434,-272"/>
<text text-anchor="start" x="308" y="-260" font-family="Helvetica,sans-Serif" font-size="10.00">machine_state_pattern</text>
<text text-anchor="start" x="308" y="-249" font-family="Helvetica,sans-Serif" font-size="10.00">/machine_states/Shutdown</text>
<text text-anchor="middle" x="367" y="-238" font-family="Helvetica,sans-Serif" font-size="10.00">_state.h</text>
</a>
</g>
</g>
<!-- Node3&#45;&gt;Node33 -->
<g id="edge49" class="edge">
<title>Node3&#45;&gt;Node33</title>
<path fill="none" stroke="#63b8ff" d="M788.17,-312C718.4,-304.6 583.66,-288.99 470,-272 462.02,-270.81 453.72,-269.5 445.46,-268.14"/>
<polygon fill="#63b8ff" stroke="#63b8ff" points="446.18,-264.71 435.74,-266.51 445.02,-271.61 446.18,-264.71"/>
</g>
<!-- Node5 -->
<g id="node5" class="node">
<title>Node5</title>
<g id="a_node5"><a xlink:href="_subject__interface_8h.html" target="_top" xlink:title="Clase para interfaz para implementar el sujeto.">
<polygon fill="white" stroke="#666666" points="1684,-112.5 1556,-112.5 1556,-82.5 1684,-82.5 1684,-112.5"/>
<text text-anchor="start" x="1564" y="-100.5" font-family="Helvetica,sans-Serif" font-size="10.00">observer_pattern/subjects</text>
<text text-anchor="middle" x="1620" y="-89.5" font-family="Helvetica,sans-Serif" font-size="10.00">/Subject_interface.h</text>
</a>
</g>
</g>
<!-- Node4&#45;&gt;Node5 -->
<g id="edge4" class="edge">
<title>Node4&#45;&gt;Node5</title>
<path fill="none" stroke="#63b8ff" d="M1500.54,-159.04C1523.57,-147.37 1556.2,-130.83 1581.54,-117.99"/>
<polygon fill="#63b8ff" stroke="#63b8ff" points="1582.86,-121.24 1590.2,-113.6 1579.7,-115 1582.86,-121.24"/>
</g>
<!-- Node6 -->
<g id="node6" class="node">
<title>Node6</title>
<g id="a_node6"><a xlink:href="_observer__interface_8h.html" target="_top" xlink:title="Clase para interfaz para implementar el observador.">
<polygon fill="white" stroke="#666666" points="1538,-112.5 1406,-112.5 1406,-82.5 1538,-82.5 1538,-112.5"/>
<text text-anchor="start" x="1414" y="-100.5" font-family="Helvetica,sans-Serif" font-size="10.00">observer_pattern/observers</text>
<text text-anchor="middle" x="1472" y="-89.5" font-family="Helvetica,sans-Serif" font-size="10.00">/Observer_interface.h</text>
</a>
</g>
</g>
<!-- Node4&#45;&gt;Node6 -->
<g id="edge5" class="edge">
<title>Node4&#45;&gt;Node6</title>
<path fill="none" stroke="#63b8ff" d="M1472,-159.04C1472,-149.18 1472,-135.86 1472,-124.22"/>
<polygon fill="#63b8ff" stroke="#63b8ff" points="1475.5,-124.43 1472,-114.43 1468.5,-124.43 1475.5,-124.43"/>
</g>
<!-- Node7&#45;&gt;Node8 -->
<g id="edge7" class="edge">
<title>Node7&#45;&gt;Node8</title>
<path fill="none" stroke="#63b8ff" d="M282.09,-82.04C265.79,-72.18 243.75,-58.85 224.51,-47.21"/>
<polygon fill="#63b8ff" stroke="#63b8ff" points="226.4,-44.27 216.04,-42.09 222.78,-50.26 226.4,-44.27"/>
</g>
<!-- Node10 -->
<g id="node10" class="node">
<title>Node10</title>
<g id="a_node10"><a xlink:href="display__settings_8h.html" target="_top" xlink:title="Archivo de configuración de la pantalla.">
<polygon fill="white" stroke="#666666" points="883.5,-107 788.5,-107 788.5,-88 883.5,-88 883.5,-107"/>
<text text-anchor="middle" x="836" y="-95" font-family="Helvetica,sans-Serif" font-size="10.00">display_settings.h</text>
</a>
</g>
</g>
<!-- Node9&#45;&gt;Node10 -->
<g id="edge9" class="edge">
<title>Node9&#45;&gt;Node10</title>
<path fill="none" stroke="#63b8ff" d="M642.82,-241.53C659.26,-230.76 687.46,-212.03 711,-195 748.88,-167.6 791.75,-133.89 816.16,-114.43"/>
<polygon fill="#63b8ff" stroke="#63b8ff" points="818.33,-117.18 823.96,-108.2 813.96,-111.71 818.33,-117.18"/>
</g>
<!-- Node11 -->
<g id="node11" class="node">
<title>Node11</title>
<g id="a_node11"><a xlink:href="hd44780___i2_cexp_8h.html" target="_top" xlink:title="Adaptación de la biblioteca TextLCD de MbedOS 5. Permite utilizar un LCD hd44780 con un expansor de p...">
<polygon fill="white" stroke="#666666" points="702,-184 574,-184 574,-165 702,-165 702,-184"/>
<text text-anchor="middle" x="638" y="-172" font-family="Helvetica,sans-Serif" font-size="10.00">drivers/hd44780_I2Cexp.h</text>
</a>
</g>
</g>
<!-- Node9&#45;&gt;Node11 -->
<g id="edge10" class="edge">
<title>Node9&#45;&gt;Node11</title>
<path fill="none" stroke="#63b8ff" d="M630.07,-241.6C631.42,-230.33 633.79,-210.55 635.59,-195.56"/>
<polygon fill="#63b8ff" stroke="#63b8ff" points="639.04,-196.23 636.75,-185.89 632.09,-195.4 639.04,-196.23"/>
</g>
<!-- Node11&#45;&gt;Node10 -->
<g id="edge20" class="edge">
<title>Node11&#45;&gt;Node10</title>
<path fill="none" stroke="#63b8ff" d="M661.49,-164.6C696.32,-151.41 761.86,-126.58 801.95,-111.4"/>
<polygon fill="#63b8ff" stroke="#63b8ff" points="803.01,-114.74 811.12,-107.92 800.53,-108.19 803.01,-114.74"/>
</g>
<!-- Node12 -->
<g id="node12" class="node">
<title>Node12</title>
<g id="a_node12"><a xlink:title=" ">
<polygon fill="#e0e0e0" stroke="#999999" points="955.5,-30 906.5,-30 906.5,-11 955.5,-11 955.5,-30"/>
<text text-anchor="middle" x="931" y="-18" font-family="Helvetica,sans-Serif" font-size="10.00">mbed.h</text>
</a>
</g>
</g>
<!-- Node11&#45;&gt;Node12 -->
<g id="edge11" class="edge">
<title>Node11&#45;&gt;Node12</title>
<path fill="none" stroke="#63b8ff" d="M636.81,-164.58C634.83,-145.59 633.16,-100.97 657,-77 690.01,-43.81 828.87,-29.12 895.3,-23.9"/>
<polygon fill="#63b8ff" stroke="#63b8ff" points="895.23,-27.42 904.93,-23.18 894.7,-20.44 895.23,-27.42"/>
</g>
<!-- Node13 -->
<g id="node13" class="node">
<title>Node13</title>
<g id="a_node13"><a xlink:title=" ">
<polygon fill="#e0e0e0" stroke="#999999" points="399,-30 351,-30 351,-11 399,-11 399,-30"/>
<text text-anchor="middle" x="375" y="-18" font-family="Helvetica,sans-Serif" font-size="10.00">stdlib.h</text>
</a>
</g>
</g>
<!-- Node11&#45;&gt;Node13 -->
<g id="edge12" class="edge">
<title>Node11&#45;&gt;Node13</title>
<path fill="none" stroke="#63b8ff" d="M573.65,-164.6C515.3,-155.34 434.88,-139.23 411,-118 388.88,-98.33 380.32,-63.76 377.02,-41.77"/>
<polygon fill="#63b8ff" stroke="#63b8ff" points="380.52,-41.49 375.82,-32 373.57,-42.35 380.52,-41.49"/>
</g>
<!-- Node14 -->
<g id="node14" class="node">
<title>Node14</title>
<g id="a_node14"><a xlink:href="hd44780__instruction__set_8h.html" target="_top" xlink:title="Set de instrucciones del LCD HD44780.">
<polygon fill="white" stroke="#666666" points="770,-112.5 666,-112.5 666,-82.5 770,-82.5 770,-112.5"/>
<text text-anchor="start" x="674" y="-100.5" font-family="Helvetica,sans-Serif" font-size="10.00">hd44780_instruction</text>
<text text-anchor="middle" x="718" y="-89.5" font-family="Helvetica,sans-Serif" font-size="10.00">_set.h</text>
</a>
</g>
</g>
<!-- Node11&#45;&gt;Node14 -->
<g id="edge13" class="edge">
<title>Node11&#45;&gt;Node14</title>
<path fill="none" stroke="#63b8ff" d="M647.49,-164.6C659.02,-153.8 678.86,-135.2 694.56,-120.47"/>
<polygon fill="#63b8ff" stroke="#63b8ff" points="696.78,-123.19 701.68,-113.8 691.99,-118.09 696.78,-123.19"/>
</g>
<!-- Node15 -->
<g id="node15" class="node">
<title>Node15</title>
<g id="a_node15"><a xlink:href="utils_8h_source.html" target="_top" xlink:title=" ">
<polygon fill="white" stroke="#666666" points="463.5,-107 420.5,-107 420.5,-88 463.5,-88 463.5,-107"/>
<text text-anchor="middle" x="442" y="-95" font-family="Helvetica,sans-Serif" font-size="10.00">utils.h</text>
</a>
</g>
</g>
<!-- Node11&#45;&gt;Node15 -->
<g id="edge15" class="edge">
<title>Node11&#45;&gt;Node15</title>
<path fill="none" stroke="#63b8ff" d="M603.58,-164.51C569.55,-155.02 516.42,-138.6 473,-118 470.14,-116.64 467.21,-115.07 464.36,-113.43"/>
<polygon fill="#63b8ff" stroke="#63b8ff" points="466.21,-110.46 455.87,-108.17 462.53,-116.41 466.21,-110.46"/>
</g>
<!-- Node14&#45;&gt;Node12 -->
<g id="edge14" class="edge">
<title>Node14&#45;&gt;Node12</title>
<path fill="none" stroke="#63b8ff" d="M759.07,-82.04C798.68,-68.09 858,-47.2 895.59,-33.97"/>
<polygon fill="#63b8ff" stroke="#63b8ff" points="896.35,-37.41 904.62,-30.79 894.02,-30.81 896.35,-37.41"/>
</g>
<!-- Node15&#45;&gt;Node13 -->
<g id="edge18" class="edge">
<title>Node15&#45;&gt;Node13</title>
<path fill="none" stroke="#63b8ff" d="M434.05,-87.6C423.37,-75.65 404.17,-54.15 390.56,-38.92"/>
<polygon fill="#63b8ff" stroke="#63b8ff" points="393.22,-36.64 383.95,-31.52 388,-41.3 393.22,-36.64"/>
</g>
<!-- Node16 -->
<g id="node16" class="node">
<title>Node16</title>
<g id="a_node16"><a xlink:title=" ">
<polygon fill="#e0e0e0" stroke="#999999" points="531.5,-30 484.5,-30 484.5,-11 531.5,-11 531.5,-30"/>
<text text-anchor="middle" x="508" y="-18" font-family="Helvetica,sans-Serif" font-size="10.00">math.h</text>
</a>
</g>
</g>
<!-- Node15&#45;&gt;Node16 -->
<g id="edge16" class="edge">
<title>Node15&#45;&gt;Node16</title>
<path fill="none" stroke="#63b8ff" d="M449.83,-87.6C460.35,-75.65 479.27,-54.15 492.67,-38.92"/>
<polygon fill="#63b8ff" stroke="#63b8ff" points="495.2,-41.34 499.18,-31.52 489.95,-36.72 495.2,-41.34"/>
</g>
<!-- Node17 -->
<g id="node17" class="node">
<title>Node17</title>
<g id="a_node17"><a xlink:title=" ">
<polygon fill="#e0e0e0" stroke="#999999" points="596,-30 550,-30 550,-11 596,-11 596,-30"/>
<text text-anchor="middle" x="573" y="-18" font-family="Helvetica,sans-Serif" font-size="10.00">stdio.h</text>
</a>
</g>
</g>
<!-- Node15&#45;&gt;Node17 -->
<g id="edge17" class="edge">
<title>Node15&#45;&gt;Node17</title>
<path fill="none" stroke="#63b8ff" d="M455.76,-87.56C461.1,-84.17 467.29,-80.33 473,-77 502.21,-59.99 510.55,-57.6 540,-41 542.73,-39.46 545.58,-37.83 548.4,-36.18"/>
<polygon fill="#63b8ff" stroke="#63b8ff" points="550.14,-39.22 556.99,-31.13 546.59,-33.19 550.14,-39.22"/>
</g>
<!-- Node18 -->
<g id="node18" class="node">
<title>Node18</title>
<g id="a_node18"><a xlink:title=" ">
<polygon fill="#e0e0e0" stroke="#999999" points="466.5,-30 417.5,-30 417.5,-11 466.5,-11 466.5,-30"/>
<text text-anchor="middle" x="442" y="-18" font-family="Helvetica,sans-Serif" font-size="10.00">string.h</text>
</a>
</g>
</g>
<!-- Node15&#45;&gt;Node18 -->
<g id="edge19" class="edge">
<title>Node15&#45;&gt;Node18</title>
<path fill="none" stroke="#63b8ff" d="M442,-87.6C442,-76.33 442,-56.55 442,-41.56"/>
<polygon fill="#63b8ff" stroke="#63b8ff" points="445.5,-41.9 442,-31.9 438.5,-41.9 445.5,-41.9"/>
</g>
<!-- Node20&#45;&gt;Node3 -->
<g id="edge26" class="edge">
<title>Node20&#45;&gt;Node3</title>
<path fill="none" stroke="#63b8ff" d="M1551.34,-266.91C1542.67,-268.88 1533.62,-270.68 1525,-272 1293.22,-307.54 1012.81,-314.73 893.32,-316.16"/>
<polygon fill="#63b8ff" stroke="#63b8ff" points="893.4,-312.66 883.44,-316.26 893.48,-319.65 893.4,-312.66"/>
</g>
<!-- Node21 -->
<g id="node21" class="node">
<title>Node21</title>
<g id="a_node21"><a xlink:href="_observer_8h.html" target="_top" xlink:title="Clase observador.">
<polygon fill="white" stroke="#666666" points="1686,-189.5 1554,-189.5 1554,-159.5 1686,-159.5 1686,-189.5"/>
<text text-anchor="start" x="1562" y="-177.5" font-family="Helvetica,sans-Serif" font-size="10.00">observer_pattern/observers</text>
<text text-anchor="middle" x="1620" y="-166.5" font-family="Helvetica,sans-Serif" font-size="10.00">/Observer.h</text>
</a>
</g>
</g>
<!-- Node20&#45;&gt;Node21 -->
<g id="edge23" class="edge">
<title>Node20&#45;&gt;Node21</title>
<path fill="none" stroke="#63b8ff" d="M1600.63,-236.04C1603.81,-226.08 1608.14,-212.58 1611.89,-200.85"/>
<polygon fill="#63b8ff" stroke="#63b8ff" points="1615.21,-201.95 1614.93,-191.36 1608.54,-199.82 1615.21,-201.95"/>
</g>
<!-- Node21&#45;&gt;Node5 -->
<g id="edge24" class="edge">
<title>Node21&#45;&gt;Node5</title>
<path fill="none" stroke="#63b8ff" d="M1620,-159.04C1620,-149.18 1620,-135.86 1620,-124.22"/>
<polygon fill="#63b8ff" stroke="#63b8ff" points="1623.5,-124.43 1620,-114.43 1616.5,-124.43 1623.5,-124.43"/>
</g>
<!-- Node21&#45;&gt;Node6 -->
<g id="edge25" class="edge">
<title>Node21&#45;&gt;Node6</title>
<path fill="none" stroke="#63b8ff" d="M1591.46,-159.04C1568.43,-147.37 1535.8,-130.83 1510.46,-117.99"/>
<polygon fill="#63b8ff" stroke="#63b8ff" points="1512.3,-115 1501.8,-113.6 1509.14,-121.24 1512.3,-115"/>
</g>
<!-- Node23 -->
<g id="node23" class="node">
<title>Node23</title>
<g id="a_node23"><a xlink:href="system__settings_8h.html" target="_top" xlink:title="Archivo para la definición de constantes del sistema.">
<polygon fill="white" stroke="#666666" points="1328.5,-184 1231.5,-184 1231.5,-165 1328.5,-165 1328.5,-184"/>
<text text-anchor="middle" x="1280" y="-172" font-family="Helvetica,sans-Serif" font-size="10.00">system_settings.h</text>
</a>
</g>
</g>
<!-- Node22&#45;&gt;Node23 -->
<g id="edge28" class="edge">
<title>Node22&#45;&gt;Node23</title>
<path fill="none" stroke="#63b8ff" d="M1222.69,-236.04C1234.48,-223.59 1251.5,-205.61 1263.93,-192.47"/>
<polygon fill="#63b8ff" stroke="#63b8ff" points="1266.31,-195.05 1270.64,-185.39 1261.22,-190.24 1266.31,-195.05"/>
</g>
<!-- Node24 -->
<g id="node24" class="node">
<title>Node24</title>
<g id="a_node24"><a xlink:title=" ">
<polygon fill="#e0e0e0" stroke="#999999" points="1213.5,-184 1154.5,-184 1154.5,-165 1213.5,-165 1213.5,-184"/>
<text text-anchor="middle" x="1184" y="-172" font-family="Helvetica,sans-Serif" font-size="10.00">DS1820.h</text>
</a>
</g>
</g>
<!-- Node22&#45;&gt;Node24 -->
<g id="edge29" class="edge">
<title>Node22&#45;&gt;Node24</title>
<path fill="none" stroke="#63b8ff" d="M1204.18,-236.04C1200.31,-224.43 1194.83,-208 1190.56,-195.19"/>
<polygon fill="#63b8ff" stroke="#63b8ff" points="1193.89,-194.1 1187.41,-185.72 1187.25,-196.32 1193.89,-194.1"/>
</g>
<!-- Node25&#45;&gt;Node12 -->
<g id="edge31" class="edge">
<title>Node25&#45;&gt;Node12</title>
<path fill="none" stroke="#63b8ff" d="M579.67,-87.56C593.38,-84.06 609.4,-80.14 624,-77 721.59,-56 837.78,-36.47 895.21,-27.18"/>
<polygon fill="#63b8ff" stroke="#63b8ff" points="895.41,-30.69 904.72,-25.65 894.3,-23.78 895.41,-30.69"/>
</g>
<!-- Node27&#45;&gt;Node12 -->
<g id="edge34" class="edge">
<title>Node27&#45;&gt;Node12</title>
<path fill="none" stroke="#63b8ff" d="M743.09,-241.56C761.12,-224.01 802.95,-184.12 841,-154 863.04,-136.55 875.54,-140.03 893,-118 911.24,-94.99 921.66,-62.13 926.82,-41.32"/>
<polygon fill="#63b8ff" stroke="#63b8ff" points="930.17,-42.36 928.99,-31.84 923.35,-40.8 930.17,-42.36"/>
</g>
<!-- Node28 -->
<g id="node28" class="node">
<title>Node28</title>
<g id="a_node28"><a xlink:href="port__config_8h.html" target="_top" xlink:title="Archivo de configuración para los puertos de la placa donde se implementará el sistema.">
<polygon fill="white" stroke="#666666" points="922,-184 850,-184 850,-165 922,-165 922,-184"/>
<text text-anchor="middle" x="886" y="-172" font-family="Helvetica,sans-Serif" font-size="10.00">port_config.h</text>
</a>
</g>
</g>
<!-- Node27&#45;&gt;Node28 -->
<g id="edge35" class="edge">
<title>Node27&#45;&gt;Node28</title>
<path fill="none" stroke="#63b8ff" d="M752.03,-241.6C778.2,-228.69 826.94,-204.64 857.86,-189.38"/>
<polygon fill="#63b8ff" stroke="#63b8ff" points="859.21,-192.62 866.63,-185.06 856.12,-186.34 859.21,-192.62"/>
</g>
<!-- Node29&#45;&gt;Node12 -->
<g id="edge37" class="edge">
<title>Node29&#45;&gt;Node12</title>
<path fill="none" stroke="#63b8ff" d="M855.66,-241.53C881.29,-229.93 922.63,-209.51 931,-195 959.42,-145.74 945.92,-74.76 936.87,-40.9"/>
<polygon fill="#63b8ff" stroke="#63b8ff" points="940.35,-40.33 934.24,-31.67 933.62,-42.24 940.35,-40.33"/>
</g>
<!-- Node29&#45;&gt;Node28 -->
<g id="edge38" class="edge">
<title>Node29&#45;&gt;Node28</title>
<path fill="none" stroke="#63b8ff" d="M841.05,-241.6C849.03,-229.87 863.25,-208.96 873.56,-193.79"/>
<polygon fill="#63b8ff" stroke="#63b8ff" points="876.38,-195.88 879.11,-185.64 870.59,-191.94 876.38,-195.88"/>
</g>
<!-- Node30&#45;&gt;Node12 -->
<g id="edge40" class="edge">
<title>Node30&#45;&gt;Node12</title>
<path fill="none" stroke="#63b8ff" d="M1094.05,-241.62C1093.78,-223.83 1091.27,-183.05 1075,-154 1045.51,-101.35 987.62,-57.98 954.93,-36.35"/>
<polygon fill="#63b8ff" stroke="#63b8ff" points="957.23,-33.67 946.93,-31.17 953.43,-39.54 957.23,-33.67"/>
</g>
<!-- Node30&#45;&gt;Node23 -->
<g id="edge42" class="edge">
<title>Node30&#45;&gt;Node23</title>
<path fill="none" stroke="#63b8ff" d="M1116.07,-241.6C1148.65,-228.46 1209.83,-203.8 1247.53,-188.59"/>
<polygon fill="#63b8ff" stroke="#63b8ff" points="1248.59,-191.94 1256.56,-184.95 1245.97,-185.45 1248.59,-191.94"/>
</g>
<!-- Node30&#45;&gt;Node26 -->
<g id="edge41" class="edge">
<title>Node30&#45;&gt;Node26</title>
<path fill="none" stroke="#63b8ff" d="M1087.71,-241.6C1079.42,-229.87 1064.64,-208.96 1053.92,-193.79"/>
<polygon fill="#63b8ff" stroke="#63b8ff" points="1056.78,-191.77 1048.15,-185.62 1051.07,-195.81 1056.78,-191.77"/>
</g>
<!-- Node31&#45;&gt;Node12 -->
<g id="edge44" class="edge">
<title>Node31&#45;&gt;Node12</title>
<path fill="none" stroke="#63b8ff" d="M949.34,-236.34C954.59,-225.39 961.2,-209.66 964,-195 973.84,-143.49 977.9,-127.57 964,-77 960.26,-63.38 952.2,-49.72 944.99,-39.36"/>
<polygon fill="#63b8ff" stroke="#63b8ff" points="947.9,-37.41 939.15,-31.45 942.27,-41.57 947.9,-37.41"/>
</g>
<!-- Node31&#45;&gt;Node26 -->
<g id="edge45" class="edge">
<title>Node31&#45;&gt;Node26</title>
<path fill="none" stroke="#63b8ff" d="M961.09,-236.04C978.16,-223.11 1003.1,-204.21 1020.56,-190.98"/>
<polygon fill="#63b8ff" stroke="#63b8ff" points="1022.34,-194.03 1028.19,-185.2 1018.11,-188.45 1022.34,-194.03"/>
</g>
<!-- Node32&#45;&gt;Node12 -->
<g id="edge47" class="edge">
<title>Node32&#45;&gt;Node12</title>
<path fill="none" stroke="#63b8ff" d="M1425.77,-241.65C1412.05,-222.81 1377.32,-178.47 1338,-154 1214.03,-76.86 1040.6,-40.08 966.66,-27.15"/>
<polygon fill="#63b8ff" stroke="#63b8ff" points="967.61,-23.76 957.16,-25.53 966.43,-30.66 967.61,-23.76"/>
</g>
<!-- Node32&#45;&gt;Node23 -->
<g id="edge48" class="edge">
<title>Node32&#45;&gt;Node23</title>
<path fill="none" stroke="#63b8ff" d="M1413.97,-241.6C1387.8,-228.69 1339.06,-204.64 1308.14,-189.38"/>
<polygon fill="#63b8ff" stroke="#63b8ff" points="1309.88,-186.34 1299.37,-185.06 1306.79,-192.62 1309.88,-186.34"/>
</g>
<!-- Node33&#45;&gt;Node3 -->
<g id="edge50" class="edge">
<title>Node33&#45;&gt;Node3</title>
<path fill="none" stroke="#63b8ff" d="M434.24,-263.25C451.8,-266.26 470.63,-269.4 488,-272 589.68,-287.2 708.24,-301.3 777.23,-309.4"/>
<polygon fill="#63b8ff" stroke="#63b8ff" points="776.43,-312.83 786.77,-310.52 777.25,-305.88 776.43,-312.83"/>
</g>
<!-- Node33&#45;&gt;Node8 -->
<g id="edge51" class="edge">
<title>Node33&#45;&gt;Node8</title>
<path fill="none" stroke="#63b8ff" d="M345,-230.77C318.12,-206.01 272.14,-161.51 239,-118 222.91,-96.87 207.78,-70.85 197.15,-51.15"/>
<polygon fill="#63b8ff" stroke="#63b8ff" points="200.37,-49.74 192.59,-42.54 194.18,-53.02 200.37,-49.74"/>
</g>
<!-- Node33&#45;&gt;Node34 -->
<g id="edge52" class="edge">
<title>Node33&#45;&gt;Node34</title>
<path fill="none" stroke="#63b8ff" d="M318.97,-230.6C296.16,-221.15 268.7,-209.77 244.67,-199.81"/>
<polygon fill="#63b8ff" stroke="#63b8ff" points="246.23,-196.67 235.65,-196.07 243.55,-203.14 246.23,-196.67"/>
</g>
<!-- Node34&#45;&gt;Node2 -->
<g id="edge55" class="edge">
<title>Node34&#45;&gt;Node2</title>
<path fill="none" stroke="#63b8ff" d="M180.14,-195.29C164.79,-231.79 125.4,-309.92 100.97,-352.81"/>
<polygon fill="#63b8ff" stroke="#63b8ff" points="98,-350.94 96.01,-361.34 104.06,-354.45 98,-350.94"/>
</g>
<!-- Node34&#45;&gt;Node3 -->
<g id="edge53" class="edge">
<title>Node34&#45;&gt;Node3</title>
<path fill="none" stroke="#63b8ff" d="M200.53,-195.14C218.79,-218.11 252.44,-255.13 291,-272 376.89,-309.58 654.99,-315.65 776.87,-316.47"/>
<polygon fill="#63b8ff" stroke="#63b8ff" points="776.63,-319.97 786.65,-316.53 776.67,-312.97 776.63,-319.97"/>
</g>
<!-- Node34&#45;&gt;Node8 -->
<g id="edge54" class="edge">
<title>Node34&#45;&gt;Node8</title>
<path fill="none" stroke="#63b8ff" d="M185.48,-153.63C184.8,-127.91 183.61,-82.82 182.82,-52.56"/>
<polygon fill="#63b8ff" stroke="#63b8ff" points="186.32,-52.79 182.56,-42.89 179.33,-52.98 186.32,-52.79"/>
</g>
<!-- Node34&#45;&gt;Node35 -->
<g id="edge56" class="edge">
<title>Node34&#45;&gt;Node35</title>
<path fill="none" stroke="#63b8ff" d="M161.83,-153.79C151.24,-145.16 138.65,-134.9 127.2,-125.57"/>
<polygon fill="#63b8ff" stroke="#63b8ff" points="129.47,-122.9 119.5,-119.29 125.04,-128.32 129.47,-122.9"/>
</g>
<!-- Node35&#45;&gt;Node2 -->
<g id="edge59" class="edge">
<title>Node35&#45;&gt;Node2</title>
<path fill="none" stroke="#63b8ff" d="M96.75,-118.45C98.37,-167.21 92.87,-292.73 86.83,-351.4"/>
<polygon fill="#63b8ff" stroke="#63b8ff" points="83.39,-350.7 85.75,-361.03 90.35,-351.48 83.39,-350.7"/>
</g>
<!-- Node35&#45;&gt;Node3 -->
<g id="edge57" class="edge">
<title>Node35&#45;&gt;Node3</title>
<path fill="none" stroke="#63b8ff" d="M95.09,-118.31C97.11,-139.09 102.82,-171.89 119,-195 153.65,-244.48 174.01,-251.97 231,-272 330.66,-307.02 645.98,-314.48 777.02,-316.07"/>
<polygon fill="#63b8ff" stroke="#63b8ff" points="776.82,-319.57 786.86,-316.18 776.9,-312.57 776.82,-319.57"/>
</g>
<!-- Node35&#45;&gt;Node8 -->
<g id="edge58" class="edge">
<title>Node35&#45;&gt;Node8</title>
<path fill="none" stroke="#63b8ff" d="M117.12,-76.79C127.25,-68.16 139.29,-57.9 150.24,-48.57"/>
<polygon fill="#63b8ff" stroke="#63b8ff" points="152.24,-51.47 157.58,-42.32 147.69,-46.14 152.24,-51.47"/>
</g>
</g>
</svg>
