<?xml version="1.0" encoding="UTF-8" standalone="no"?>
<!DOCTYPE svg PUBLIC "-//W3C//DTD SVG 1.1//EN"
 "http://www.w3.org/Graphics/SVG/1.1/DTD/svg11.dtd">
<!-- Generated by graphviz version 7.0.2 (20221119.0110)
 -->
<!-- Title: C:/Users/juanh/OneDrive/Escritorio/Facultad/Beca/Proyecto/LAL Control Arduino/include/machine_state_pattern/machine_states/Alarm_state.h Pages: 1 -->
<svg width="816pt" height="544pt"
 viewBox="0.00 0.00 815.50 544.00" xmlns="http://www.w3.org/2000/svg" xmlns:xlink="http://www.w3.org/1999/xlink">
<g id="graph0" class="graph" transform="scale(1 1) rotate(0) translate(4 540)">
<title>C:/Users/juanh/OneDrive/Escritorio/Facultad/Beca/Proyecto/LAL Control Arduino/include/machine_state_pattern/machine_states/Alarm_state.h</title>
<!-- Node1 -->
<g id="node1" class="node">
<title>Node1</title>
<g id="a_node1"><a xlink:title="Clase de estado de control del motor.">
<polygon fill="#999999" stroke="#666666" points="737.5,-536 585.5,-536 585.5,-473 737.5,-473 737.5,-536"/>
<text text-anchor="start" x="593.5" y="-524" font-family="Helvetica,sans-Serif" font-size="10.00">C:/Users/juanh/OneDrive</text>
<text text-anchor="start" x="593.5" y="-513" font-family="Helvetica,sans-Serif" font-size="10.00">/Escritorio/Facultad/Beca</text>
<text text-anchor="start" x="593.5" y="-502" font-family="Helvetica,sans-Serif" font-size="10.00">/Proyecto/LAL Control Arduino</text>
<text text-anchor="start" x="593.5" y="-491" font-family="Helvetica,sans-Serif" font-size="10.00">/include/machine_state_pattern</text>
<text text-anchor="middle" x="661.5" y="-480" font-family="Helvetica,sans-Serif" font-size="10.00">/machine_states/Alarm_state.h</text>
</a>
</g>
</g>
<!-- Node2 -->
<g id="node2" class="node">
<title>Node2</title>
<g id="a_node2"><a xlink:href="_check__instruction__state_8h_source.html" target="_top" xlink:title=" ">
<polygon fill="white" stroke="#666666" points="694,-437 489,-437 489,-374 694,-374 694,-437"/>
<text text-anchor="start" x="497" y="-425" font-family="Helvetica,sans-Serif" font-size="10.00">C:/Users/juanh/OneDrive</text>
<text text-anchor="start" x="497" y="-414" font-family="Helvetica,sans-Serif" font-size="10.00">/Escritorio/Facultad/Beca</text>
<text text-anchor="start" x="497" y="-403" font-family="Helvetica,sans-Serif" font-size="10.00">/Proyecto/LAL Control Arduino</text>
<text text-anchor="start" x="497" y="-392" font-family="Helvetica,sans-Serif" font-size="10.00">/include/machine_state_pattern</text>
<text text-anchor="middle" x="591.5" y="-381" font-family="Helvetica,sans-Serif" font-size="10.00">/machine_states/Check_instruction_state.h</text>
</a>
</g>
</g>
<!-- Node1&#45;&gt;Node2 -->
<g id="edge1" class="edge">
<title>Node1&#45;&gt;Node2</title>
<path fill="none" stroke="#63b8ff" d="M632.54,-463.37C626.3,-454.73 619.81,-445.72 613.87,-437.5"/>
<polygon fill="#63b8ff" stroke="#63b8ff" points="629.58,-465.25 638.27,-471.31 635.26,-461.16 629.58,-465.25"/>
</g>
<!-- Node4 -->
<g id="node4" class="node">
<title>Node4</title>
<g id="a_node4"><a xlink:href="_idle__state_8h.html" target="_top" xlink:title="Clase de estado de reposo.">
<polygon fill="white" stroke="#666666" points="807.5,-250 655.5,-250 655.5,-187 807.5,-187 807.5,-250"/>
<text text-anchor="start" x="663.5" y="-238" font-family="Helvetica,sans-Serif" font-size="10.00">C:/Users/juanh/OneDrive</text>
<text text-anchor="start" x="663.5" y="-227" font-family="Helvetica,sans-Serif" font-size="10.00">/Escritorio/Facultad/Beca</text>
<text text-anchor="start" x="663.5" y="-216" font-family="Helvetica,sans-Serif" font-size="10.00">/Proyecto/LAL Control Arduino</text>
<text text-anchor="start" x="663.5" y="-205" font-family="Helvetica,sans-Serif" font-size="10.00">/include/machine_state_pattern</text>
<text text-anchor="middle" x="731.5" y="-194" font-family="Helvetica,sans-Serif" font-size="10.00">/machine_states/Idle_state.h</text>
</a>
</g>
</g>
<!-- Node1&#45;&gt;Node4 -->
<g id="edge22" class="edge">
<title>Node1&#45;&gt;Node4</title>
<path fill="none" stroke="#63b8ff" d="M681.32,-462.99C685.93,-454.7 690.36,-445.81 693.5,-437 716.21,-373.31 721.37,-293.38 725.4,-250.35"/>
<polygon fill="#63b8ff" stroke="#63b8ff" points="678.41,-461.03 676.44,-471.44 684.47,-464.53 678.41,-461.03"/>
</g>
<!-- Node3 -->
<g id="node3" class="node">
<title>Node3</title>
<g id="a_node3"><a xlink:href="_control__system_8h.html" target="_top" xlink:title="Clase para el sistema de control.">
<polygon fill="white" stroke="#666666" points="627,-338 478,-338 478,-286 627,-286 627,-338"/>
<text text-anchor="start" x="486" y="-326" font-family="Helvetica,sans-Serif" font-size="10.00">C:/Users/juanh/OneDrive</text>
<text text-anchor="start" x="486" y="-315" font-family="Helvetica,sans-Serif" font-size="10.00">/Escritorio/Facultad/Beca</text>
<text text-anchor="start" x="486" y="-304" font-family="Helvetica,sans-Serif" font-size="10.00">/Proyecto/LAL Control Arduino</text>
<text text-anchor="middle" x="552.5" y="-293" font-family="Helvetica,sans-Serif" font-size="10.00">/include/Control_system.h</text>
</a>
</g>
</g>
<!-- Node2&#45;&gt;Node3 -->
<g id="edge2" class="edge">
<title>Node2&#45;&gt;Node3</title>
<path fill="none" stroke="#63b8ff" d="M567.13,-363.09C563.44,-354.7 559.99,-346.11 557.23,-338.47"/>
<polygon fill="#63b8ff" stroke="#63b8ff" points="563.92,-364.49 571.24,-372.14 570.29,-361.59 563.92,-364.49"/>
</g>
<!-- Node3&#45;&gt;Node1 -->
<g id="edge3" class="edge">
<title>Node3&#45;&gt;Node1</title>
<path fill="none" stroke="#63b8ff" d="M501.1,-345.8C492.35,-353.89 484.48,-363.34 479.5,-374 467.64,-399.36 463.45,-414.05 479.5,-437 503.4,-471.19 546.85,-487.86 585.3,-495.96"/>
<polygon fill="#63b8ff" stroke="#63b8ff" points="503.21,-348.6 508.55,-339.45 498.67,-343.28 503.21,-348.6"/>
</g>
<!-- Node3&#45;&gt;Node2 -->
<g id="edge4" class="edge">
<title>Node3&#45;&gt;Node2</title>
<path fill="none" stroke="#63b8ff" d="M574.39,-348.84C578.1,-357 581.7,-365.59 584.72,-373.52"/>
<polygon fill="#63b8ff" stroke="#63b8ff" points="577.57,-347.38 570.13,-339.84 571.24,-350.38 577.57,-347.38"/>
</g>
<!-- Node3&#45;&gt;Node4 -->
<g id="edge5" class="edge">
<title>Node3&#45;&gt;Node4</title>
<path fill="none" stroke="#63b8ff" d="M612.6,-280.28C631.44,-270.65 652.23,-260.02 671.09,-250.38"/>
<polygon fill="#63b8ff" stroke="#63b8ff" points="611.02,-277.16 603.71,-284.82 614.21,-283.39 611.02,-277.16"/>
</g>
<!-- Node5 -->
<g id="node5" class="node">
<title>Node5</title>
<g id="a_node5"><a xlink:href="_shutdown__state_8h.html" target="_top" xlink:title="Clase de estado de apagado del sistema.">
<polygon fill="white" stroke="#666666" points="769.5,-151 599.5,-151 599.5,-88 769.5,-88 769.5,-151"/>
<text text-anchor="start" x="607.5" y="-139" font-family="Helvetica,sans-Serif" font-size="10.00">C:/Users/juanh/OneDrive</text>
<text text-anchor="start" x="607.5" y="-128" font-family="Helvetica,sans-Serif" font-size="10.00">/Escritorio/Facultad/Beca</text>
<text text-anchor="start" x="607.5" y="-117" font-family="Helvetica,sans-Serif" font-size="10.00">/Proyecto/LAL Control Arduino</text>
<text text-anchor="start" x="607.5" y="-106" font-family="Helvetica,sans-Serif" font-size="10.00">/include/machine_state_pattern</text>
<text text-anchor="middle" x="684.5" y="-95" font-family="Helvetica,sans-Serif" font-size="10.00">/machine_states/Shutdown_state.h</text>
</a>
</g>
</g>
<!-- Node3&#45;&gt;Node5 -->
<g id="edge9" class="edge">
<title>Node3&#45;&gt;Node5</title>
<path fill="none" stroke="#63b8ff" d="M571.27,-276.17C594.09,-240.46 632.3,-185.43 658.06,-151.27"/>
<polygon fill="#63b8ff" stroke="#63b8ff" points="568.45,-274.1 566.08,-284.42 574.37,-277.83 568.45,-274.1"/>
</g>
<!-- Node6 -->
<g id="node6" class="node">
<title>Node6</title>
<g id="a_node6"><a xlink:href="main_8h.html" target="_top" xlink:title="Archivo principal del programa.">
<polygon fill="white" stroke="#666666" points="439,-52 290,-52 290,0 439,0 439,-52"/>
<text text-anchor="start" x="298" y="-40" font-family="Helvetica,sans-Serif" font-size="10.00">C:/Users/juanh/OneDrive</text>
<text text-anchor="start" x="298" y="-29" font-family="Helvetica,sans-Serif" font-size="10.00">/Escritorio/Facultad/Beca</text>
<text text-anchor="start" x="298" y="-18" font-family="Helvetica,sans-Serif" font-size="10.00">/Proyecto/LAL Control Arduino</text>
<text text-anchor="middle" x="364.5" y="-7" font-family="Helvetica,sans-Serif" font-size="10.00">/include/main.h</text>
</a>
</g>
</g>
<!-- Node3&#45;&gt;Node6 -->
<g id="edge10" class="edge">
<title>Node3&#45;&gt;Node6</title>
<path fill="none" stroke="#63b8ff" d="M564.24,-274.65C577.22,-226.92 591.43,-142.77 551.5,-88 525.85,-52.82 479.36,-37.55 439.16,-31.09"/>
<polygon fill="#63b8ff" stroke="#63b8ff" points="560.88,-273.64 561.5,-284.22 567.61,-275.57 560.88,-273.64"/>
</g>
<!-- Node7 -->
<g id="node7" class="node">
<title>Node7</title>
<g id="a_node7"><a xlink:href="_cooler__observer_8h_source.html" target="_top" xlink:title=" ">
<polygon fill="white" stroke="#666666" points="356,-151 187,-151 187,-88 356,-88 356,-151"/>
<text text-anchor="start" x="195" y="-139" font-family="Helvetica,sans-Serif" font-size="10.00">C:/Users/juanh/OneDrive</text>
<text text-anchor="start" x="195" y="-128" font-family="Helvetica,sans-Serif" font-size="10.00">/Escritorio/Facultad/Beca</text>
<text text-anchor="start" x="195" y="-117" font-family="Helvetica,sans-Serif" font-size="10.00">/Proyecto/LAL Control Arduino</text>
<text text-anchor="start" x="195" y="-106" font-family="Helvetica,sans-Serif" font-size="10.00">/include/observer_pattern/observers</text>
<text text-anchor="middle" x="271.5" y="-95" font-family="Helvetica,sans-Serif" font-size="10.00">/Cooler_observer.h</text>
</a>
</g>
</g>
<!-- Node3&#45;&gt;Node7 -->
<g id="edge11" class="edge">
<title>Node3&#45;&gt;Node7</title>
<path fill="none" stroke="#63b8ff" d="M466.33,-305.74C420.15,-298.84 365.01,-283.53 326.5,-250 297.3,-224.58 283.18,-180.99 276.65,-151.48"/>
<polygon fill="#63b8ff" stroke="#63b8ff" points="465.67,-309.18 476.06,-307.07 466.63,-302.25 465.67,-309.18"/>
</g>
<!-- Node8 -->
<g id="node8" class="node">
<title>Node8</title>
<g id="a_node8"><a xlink:href="_moisture__observer_8h.html" target="_top" xlink:title="Observador del sensor de temperatura.">
<polygon fill="white" stroke="#666666" points="543,-151 374,-151 374,-88 543,-88 543,-151"/>
<text text-anchor="start" x="382" y="-139" font-family="Helvetica,sans-Serif" font-size="10.00">C:/Users/juanh/OneDrive</text>
<text text-anchor="start" x="382" y="-128" font-family="Helvetica,sans-Serif" font-size="10.00">/Escritorio/Facultad/Beca</text>
<text text-anchor="start" x="382" y="-117" font-family="Helvetica,sans-Serif" font-size="10.00">/Proyecto/LAL Control Arduino</text>
<text text-anchor="start" x="382" y="-106" font-family="Helvetica,sans-Serif" font-size="10.00">/include/observer_pattern/observers</text>
<text text-anchor="middle" x="458.5" y="-95" font-family="Helvetica,sans-Serif" font-size="10.00">/Moisture_observer.h</text>
</a>
</g>
</g>
<!-- Node3&#45;&gt;Node8 -->
<g id="edge13" class="edge">
<title>Node3&#45;&gt;Node8</title>
<path fill="none" stroke="#63b8ff" d="M544.98,-274.58C538.78,-249.05 528.55,-214.68 513.5,-187 506.7,-174.49 497.38,-162.11 488.33,-151.49"/>
<polygon fill="#63b8ff" stroke="#63b8ff" points="541.53,-275.21 547.2,-284.16 548.35,-273.63 541.53,-275.21"/>
</g>
<!-- Node9 -->
<g id="node9" class="node">
<title>Node9</title>
<g id="a_node9"><a xlink:href="_system__observer_8h.html" target="_top" xlink:title="Clase observador del sistema de control.">
<polygon fill="white" stroke="#666666" points="505,-250 336,-250 336,-187 505,-187 505,-250"/>
<text text-anchor="start" x="344" y="-238" font-family="Helvetica,sans-Serif" font-size="10.00">C:/Users/juanh/OneDrive</text>
<text text-anchor="start" x="344" y="-227" font-family="Helvetica,sans-Serif" font-size="10.00">/Escritorio/Facultad/Beca</text>
<text text-anchor="start" x="344" y="-216" font-family="Helvetica,sans-Serif" font-size="10.00">/Proyecto/LAL Control Arduino</text>
<text text-anchor="start" x="344" y="-205" font-family="Helvetica,sans-Serif" font-size="10.00">/include/observer_pattern/observers</text>
<text text-anchor="middle" x="420.5" y="-194" font-family="Helvetica,sans-Serif" font-size="10.00">/System_observer.h</text>
</a>
</g>
</g>
<!-- Node3&#45;&gt;Node9 -->
<g id="edge15" class="edge">
<title>Node3&#45;&gt;Node9</title>
<path fill="none" stroke="#63b8ff" d="M500.17,-279.2C486.3,-269.86 471.6,-259.66 458.63,-250.38"/>
<polygon fill="#63b8ff" stroke="#63b8ff" points="498.09,-282.03 508.35,-284.67 501.98,-276.2 498.09,-282.03"/>
</g>
<!-- Node10 -->
<g id="node10" class="node">
<title>Node10</title>
<g id="a_node10"><a xlink:href="_temperature__observer_8h.html" target="_top" xlink:title="Observador del sensor de temperatura.">
<polygon fill="white" stroke="#666666" points="169,-151 0,-151 0,-88 169,-88 169,-151"/>
<text text-anchor="start" x="8" y="-139" font-family="Helvetica,sans-Serif" font-size="10.00">C:/Users/juanh/OneDrive</text>
<text text-anchor="start" x="8" y="-128" font-family="Helvetica,sans-Serif" font-size="10.00">/Escritorio/Facultad/Beca</text>
<text text-anchor="start" x="8" y="-117" font-family="Helvetica,sans-Serif" font-size="10.00">/Proyecto/LAL Control Arduino</text>
<text text-anchor="start" x="8" y="-106" font-family="Helvetica,sans-Serif" font-size="10.00">/include/observer_pattern/observers</text>
<text text-anchor="middle" x="84.5" y="-95" font-family="Helvetica,sans-Serif" font-size="10.00">/Temperature_observer.h</text>
</a>
</g>
</g>
<!-- Node3&#45;&gt;Node10 -->
<g id="edge21" class="edge">
<title>Node3&#45;&gt;Node10</title>
<path fill="none" stroke="#63b8ff" d="M466.32,-299.28C412.57,-290.07 342.79,-274.59 284.5,-250 224.09,-224.52 161.82,-180.95 123.15,-151.46"/>
<polygon fill="#63b8ff" stroke="#63b8ff" points="465.61,-302.71 476.04,-300.9 466.76,-295.8 465.61,-302.71"/>
</g>
<!-- Node4&#45;&gt;Node1 -->
<g id="edge6" class="edge">
<title>Node4&#45;&gt;Node1</title>
<path fill="none" stroke="#63b8ff" d="M737.73,-261.65C738.41,-306.38 732.35,-378.53 711.5,-437 707.08,-449.39 700.12,-461.94 692.7,-472.75"/>
<polygon fill="#63b8ff" stroke="#63b8ff" points="741.24,-261.75 737.44,-251.86 734.24,-261.96 741.24,-261.75"/>
</g>
<!-- Node4&#45;&gt;Node5 -->
<g id="edge7" class="edge">
<title>Node4&#45;&gt;Node5</title>
<path fill="none" stroke="#63b8ff" d="M711.52,-176.26C707.5,-167.96 703.34,-159.37 699.52,-151.5"/>
<polygon fill="#63b8ff" stroke="#63b8ff" points="708.33,-177.71 715.84,-185.18 714.63,-174.65 708.33,-177.71"/>
</g>
<!-- Node5&#45;&gt;Node3 -->
<g id="edge8" class="edge">
<title>Node5&#45;&gt;Node3</title>
<path fill="none" stroke="#63b8ff" d="M662.12,-160.94C637.7,-198.69 599.19,-253.84 574.79,-285.7"/>
<polygon fill="#63b8ff" stroke="#63b8ff" points="665.05,-162.85 667.49,-152.54 659.15,-159.08 665.05,-162.85"/>
</g>
<!-- Node7&#45;&gt;Node6 -->
<g id="edge12" class="edge">
<title>Node7&#45;&gt;Node6</title>
<path fill="none" stroke="#63b8ff" d="M311.04,-79.6C320.36,-70.42 330.07,-60.88 338.61,-52.47"/>
<polygon fill="#63b8ff" stroke="#63b8ff" points="308.74,-76.95 304.06,-86.46 313.65,-81.94 308.74,-76.95"/>
</g>
<!-- Node8&#45;&gt;Node6 -->
<g id="edge14" class="edge">
<title>Node8&#45;&gt;Node6</title>
<path fill="none" stroke="#63b8ff" d="M418.53,-79.6C409.11,-70.42 399.3,-60.88 390.67,-52.47"/>
<polygon fill="#63b8ff" stroke="#63b8ff" points="415.98,-82 425.59,-86.47 420.87,-76.98 415.98,-82"/>
</g>
<!-- Node9&#45;&gt;Node3 -->
<g id="edge16" class="edge">
<title>Node9&#45;&gt;Node3</title>
<path fill="none" stroke="#63b8ff" d="M480.74,-256.65C494.97,-266.35 509.55,-276.58 521.85,-285.51"/>
<polygon fill="#63b8ff" stroke="#63b8ff" points="482.97,-253.93 472.72,-251.23 479.04,-259.73 482.97,-253.93"/>
</g>
<!-- Node9&#45;&gt;Node7 -->
<g id="edge17" class="edge">
<title>Node9&#45;&gt;Node7</title>
<path fill="none" stroke="#63b8ff" d="M363.48,-180.38C348.83,-170.85 333.23,-160.69 319.11,-151.5"/>
<polygon fill="#63b8ff" stroke="#63b8ff" points="361.39,-183.19 371.68,-185.72 365.21,-177.33 361.39,-183.19"/>
</g>
<!-- Node9&#45;&gt;Node8 -->
<g id="edge18" class="edge">
<title>Node9&#45;&gt;Node8</title>
<path fill="none" stroke="#63b8ff" d="M436.76,-175.98C439.98,-167.77 443.31,-159.29 446.36,-151.5"/>
<polygon fill="#63b8ff" stroke="#63b8ff" points="433.57,-174.54 433.18,-185.13 440.09,-177.1 433.57,-174.54"/>
</g>
<!-- Node9&#45;&gt;Node10 -->
<g id="edge19" class="edge">
<title>Node9&#45;&gt;Node10</title>
<path fill="none" stroke="#63b8ff" d="M324.68,-192.46C279.83,-180.43 225.77,-165.51 177.5,-151 174.82,-150.19 172.09,-149.36 169.34,-148.52"/>
<polygon fill="#63b8ff" stroke="#63b8ff" points="323.55,-195.78 334.12,-194.98 325.36,-189.02 323.55,-195.78"/>
</g>
<!-- Node10&#45;&gt;Node6 -->
<g id="edge20" class="edge">
<title>Node10&#45;&gt;Node6</title>
<path fill="none" stroke="#63b8ff" d="M179.96,-87.2C221.04,-73.76 258.37,-61.58 289.87,-51.31"/>
<polygon fill="#63b8ff" stroke="#63b8ff" points="179,-83.83 170.58,-90.26 181.18,-90.48 179,-83.83"/>
</g>
</g>
</svg>
