<?xml version="1.0" encoding="UTF-8" standalone="no"?>
<!DOCTYPE svg PUBLIC "-//W3C//DTD SVG 1.1//EN"
 "http://www.w3.org/Graphics/SVG/1.1/DTD/svg11.dtd">
<!-- Generated by graphviz version 7.0.2 (20221119.0110)
 -->
<!-- Title: C:/Users/juanh/OneDrive/Escritorio/Sistemas Embebidos/Proyecto final/LAL Control MbedOS/include/machine_state_pattern/machine_states/Alarm_state.h Pages: 1 -->
<svg width="951pt" height="775pt"
 viewBox="0.00 0.00 951.00 775.00" xmlns="http://www.w3.org/2000/svg" xmlns:xlink="http://www.w3.org/1999/xlink">
<g id="graph0" class="graph" transform="scale(1 1) rotate(0) translate(4 771)">
<title>C:/Users/juanh/OneDrive/Escritorio/Sistemas Embebidos/Proyecto final/LAL Control MbedOS/include/machine_state_pattern/machine_states/Alarm_state.h</title>
<!-- Node1 -->
<g id="node1" class="node">
<title>Node1</title>
<g id="a_node1"><a xlink:title="Clase de estado de control del motor.">
<polygon fill="#999999" stroke="#666666" points="546,-767 358,-767 358,-704 546,-704 546,-767"/>
<text text-anchor="start" x="366" y="-755" font-family="Helvetica,sans-Serif" font-size="10.00">C:/Users/juanh/OneDrive</text>
<text text-anchor="start" x="366" y="-744" font-family="Helvetica,sans-Serif" font-size="10.00">/Escritorio/Sistemas Embebidos</text>
<text text-anchor="start" x="366" y="-733" font-family="Helvetica,sans-Serif" font-size="10.00">/Proyecto final/LAL Control</text>
<text text-anchor="start" x="366" y="-722" font-family="Helvetica,sans-Serif" font-size="10.00"> MbedOS/include/machine_state</text>
<text text-anchor="middle" x="452" y="-711" font-family="Helvetica,sans-Serif" font-size="10.00">_pattern/machine_states/Alarm_state.h</text>
</a>
</g>
</g>
<!-- Node2 -->
<g id="node2" class="node">
<title>Node2</title>
<g id="a_node2"><a xlink:href="_check__instruction__state_8h_source.html" target="_top" xlink:title=" ">
<polygon fill="white" stroke="#666666" points="531,-668 373,-668 373,-594 531,-594 531,-668"/>
<text text-anchor="start" x="381" y="-656" font-family="Helvetica,sans-Serif" font-size="10.00">C:/Users/juanh/OneDrive</text>
<text text-anchor="start" x="381" y="-645" font-family="Helvetica,sans-Serif" font-size="10.00">/Escritorio/Sistemas Embebidos</text>
<text text-anchor="start" x="381" y="-634" font-family="Helvetica,sans-Serif" font-size="10.00">/Proyecto final/LAL Control</text>
<text text-anchor="start" x="381" y="-623" font-family="Helvetica,sans-Serif" font-size="10.00"> MbedOS/include/machine_state</text>
<text text-anchor="start" x="381" y="-612" font-family="Helvetica,sans-Serif" font-size="10.00">_pattern/machine_states/Check</text>
<text text-anchor="middle" x="452" y="-601" font-family="Helvetica,sans-Serif" font-size="10.00">_instruction_state.h</text>
</a>
</g>
</g>
<!-- Node1&#45;&gt;Node2 -->
<g id="edge1" class="edge">
<title>Node1&#45;&gt;Node2</title>
<path fill="none" stroke="#63b8ff" d="M445.34,-692.31C445.18,-684.29 445.23,-675.96 445.52,-668.14"/>
<polygon fill="#63b8ff" stroke="#63b8ff" points="441.84,-692.37 445.7,-702.23 448.84,-692.12 441.84,-692.37"/>
</g>
<!-- Node3 -->
<g id="node3" class="node">
<title>Node3</title>
<g id="a_node3"><a xlink:href="_idle__state_8h.html" target="_top" xlink:title="Clase de estado de reposo.">
<polygon fill="white" stroke="#666666" points="423.5,-558 246.5,-558 246.5,-495 423.5,-495 423.5,-558"/>
<text text-anchor="start" x="254.5" y="-546" font-family="Helvetica,sans-Serif" font-size="10.00">C:/Users/juanh/OneDrive</text>
<text text-anchor="start" x="254.5" y="-535" font-family="Helvetica,sans-Serif" font-size="10.00">/Escritorio/Sistemas Embebidos</text>
<text text-anchor="start" x="254.5" y="-524" font-family="Helvetica,sans-Serif" font-size="10.00">/Proyecto final/LAL Control</text>
<text text-anchor="start" x="254.5" y="-513" font-family="Helvetica,sans-Serif" font-size="10.00"> MbedOS/include/machine_state</text>
<text text-anchor="middle" x="335" y="-502" font-family="Helvetica,sans-Serif" font-size="10.00">_pattern/machine_states/Idle_state.h</text>
</a>
</g>
</g>
<!-- Node1&#45;&gt;Node3 -->
<g id="edge34" class="edge">
<title>Node1&#45;&gt;Node3</title>
<path fill="none" stroke="#63b8ff" d="M380.73,-696.54C370.8,-688.2 361.73,-678.64 355,-668 333.84,-634.52 327.78,-588.43 328.38,-558.31"/>
<polygon fill="#63b8ff" stroke="#63b8ff" points="378.42,-699.18 388.44,-702.61 382.75,-693.67 378.42,-699.18"/>
</g>
<!-- Node20 -->
<g id="node20" class="node">
<title>Node20</title>
<g id="a_node20"><a xlink:href="_alarm_8cpp.html" target="_top" xlink:title="Implementación de Alarm_state.h.">
<polygon fill="white" stroke="#666666" points="878,-662.5 716,-662.5 716,-599.5 878,-599.5 878,-662.5"/>
<text text-anchor="start" x="724" y="-650.5" font-family="Helvetica,sans-Serif" font-size="10.00">C:/Users/juanh/OneDrive</text>
<text text-anchor="start" x="724" y="-639.5" font-family="Helvetica,sans-Serif" font-size="10.00">/Escritorio/Sistemas Embebidos</text>
<text text-anchor="start" x="724" y="-628.5" font-family="Helvetica,sans-Serif" font-size="10.00">/Proyecto final/LAL Control</text>
<text text-anchor="start" x="724" y="-617.5" font-family="Helvetica,sans-Serif" font-size="10.00"> MbedOS/src/Port/machine_state</text>
<text text-anchor="middle" x="797" y="-606.5" font-family="Helvetica,sans-Serif" font-size="10.00">_pattern/Alarm.cpp</text>
</a>
</g>
</g>
<!-- Node1&#45;&gt;Node20 -->
<g id="edge35" class="edge">
<title>Node1&#45;&gt;Node20</title>
<path fill="none" stroke="#63b8ff" d="M557.38,-709.02C602.26,-697.51 655,-683.11 702,-668 706.95,-666.41 712.03,-664.7 717.13,-662.94"/>
<polygon fill="#63b8ff" stroke="#63b8ff" points="556.74,-705.57 547.91,-711.43 558.47,-712.35 556.74,-705.57"/>
</g>
<!-- Node2&#45;&gt;Node1 -->
<g id="edge2" class="edge">
<title>Node2&#45;&gt;Node1</title>
<path fill="none" stroke="#63b8ff" d="M458.73,-679.58C458.8,-687.79 458.64,-696.13 458.25,-703.75"/>
<polygon fill="#63b8ff" stroke="#63b8ff" points="462.24,-679.58 458.52,-669.66 455.24,-679.73 462.24,-679.58"/>
</g>
<!-- Node2&#45;&gt;Node3 -->
<g id="edge3" class="edge">
<title>Node2&#45;&gt;Node3</title>
<path fill="none" stroke="#63b8ff" d="M401.97,-586.17C391.29,-576.82 380.23,-567.13 370.25,-558.38"/>
<polygon fill="#63b8ff" stroke="#63b8ff" points="399.45,-588.62 409.28,-592.58 404.07,-583.35 399.45,-588.62"/>
</g>
<!-- Node19 -->
<g id="node19" class="node">
<title>Node19</title>
<g id="a_node19"><a xlink:href="_check__instruction__state_8cpp.html" target="_top" xlink:title="Implementación de Check_instruction_state.h.">
<polygon fill="white" stroke="#666666" points="659.5,-558 480.5,-558 480.5,-495 659.5,-495 659.5,-558"/>
<text text-anchor="start" x="488.5" y="-546" font-family="Helvetica,sans-Serif" font-size="10.00">C:/Users/juanh/OneDrive</text>
<text text-anchor="start" x="488.5" y="-535" font-family="Helvetica,sans-Serif" font-size="10.00">/Escritorio/Sistemas Embebidos</text>
<text text-anchor="start" x="488.5" y="-524" font-family="Helvetica,sans-Serif" font-size="10.00">/Proyecto final/LAL Control</text>
<text text-anchor="start" x="488.5" y="-513" font-family="Helvetica,sans-Serif" font-size="10.00"> MbedOS/src/Port/machine_state</text>
<text text-anchor="middle" x="570" y="-502" font-family="Helvetica,sans-Serif" font-size="10.00">_pattern/Check_instruction_state.cpp</text>
</a>
</g>
</g>
<!-- Node2&#45;&gt;Node19 -->
<g id="edge33" class="edge">
<title>Node2&#45;&gt;Node19</title>
<path fill="none" stroke="#63b8ff" d="M502.46,-586.17C513.22,-576.82 524.38,-567.13 534.45,-558.38"/>
<polygon fill="#63b8ff" stroke="#63b8ff" points="500.33,-583.38 495.08,-592.58 504.92,-588.67 500.33,-583.38"/>
</g>
<!-- Node3&#45;&gt;Node1 -->
<g id="edge4" class="edge">
<title>Node3&#45;&gt;Node1</title>
<path fill="none" stroke="#63b8ff" d="M343.49,-569.51C347.41,-599.06 354.32,-638.45 373,-668 381.7,-681.76 394.32,-693.71 406.97,-703.54"/>
<polygon fill="#63b8ff" stroke="#63b8ff" points="346.99,-569.29 342.26,-559.81 340.05,-570.17 346.99,-569.29"/>
</g>
<!-- Node4 -->
<g id="node4" class="node">
<title>Node4</title>
<g id="a_node4"><a xlink:href="_shutdown__state_8h.html" target="_top" xlink:title="Clase de estado de apagado del sistema.">
<polygon fill="white" stroke="#666666" points="385.5,-459 180.5,-459 180.5,-396 385.5,-396 385.5,-459"/>
<text text-anchor="start" x="188.5" y="-447" font-family="Helvetica,sans-Serif" font-size="10.00">C:/Users/juanh/OneDrive</text>
<text text-anchor="start" x="188.5" y="-436" font-family="Helvetica,sans-Serif" font-size="10.00">/Escritorio/Sistemas Embebidos</text>
<text text-anchor="start" x="188.5" y="-425" font-family="Helvetica,sans-Serif" font-size="10.00">/Proyecto final/LAL Control</text>
<text text-anchor="start" x="188.5" y="-414" font-family="Helvetica,sans-Serif" font-size="10.00"> MbedOS/include/machine_state</text>
<text text-anchor="middle" x="283" y="-403" font-family="Helvetica,sans-Serif" font-size="10.00">_pattern/machine_states/Shutdown_state.h</text>
</a>
</g>
</g>
<!-- Node3&#45;&gt;Node4 -->
<g id="edge5" class="edge">
<title>Node3&#45;&gt;Node4</title>
<path fill="none" stroke="#63b8ff" d="M313.04,-484.54C308.55,-476.15 303.89,-467.46 299.62,-459.5"/>
<polygon fill="#63b8ff" stroke="#63b8ff" points="309.88,-486.05 317.69,-493.21 316.05,-482.74 309.88,-486.05"/>
</g>
<!-- Node18 -->
<g id="node18" class="node">
<title>Node18</title>
<g id="a_node18"><a xlink:href="_idle__state_8cpp.html" target="_top" xlink:title="Implementación de Idle_state.h.">
<polygon fill="white" stroke="#666666" points="162,-459 0,-459 0,-396 162,-396 162,-459"/>
<text text-anchor="start" x="8" y="-447" font-family="Helvetica,sans-Serif" font-size="10.00">C:/Users/juanh/OneDrive</text>
<text text-anchor="start" x="8" y="-436" font-family="Helvetica,sans-Serif" font-size="10.00">/Escritorio/Sistemas Embebidos</text>
<text text-anchor="start" x="8" y="-425" font-family="Helvetica,sans-Serif" font-size="10.00">/Proyecto final/LAL Control</text>
<text text-anchor="start" x="8" y="-414" font-family="Helvetica,sans-Serif" font-size="10.00"> MbedOS/src/Port/machine_state</text>
<text text-anchor="middle" x="81" y="-403" font-family="Helvetica,sans-Serif" font-size="10.00">_pattern/Idle_state.cpp</text>
</a>
</g>
</g>
<!-- Node3&#45;&gt;Node18 -->
<g id="edge32" class="edge">
<title>Node3&#45;&gt;Node18</title>
<path fill="none" stroke="#63b8ff" d="M243.48,-490.55C216.9,-480.4 188.06,-469.39 162.17,-459.5"/>
<polygon fill="#63b8ff" stroke="#63b8ff" points="241.93,-493.7 252.52,-494 244.43,-487.16 241.93,-493.7"/>
</g>
<!-- Node5 -->
<g id="node5" class="node">
<title>Node5</title>
<g id="a_node5"><a xlink:href="_control__system_8h_source.html" target="_top" xlink:title=" ">
<polygon fill="white" stroke="#666666" points="518.5,-354.5 347.5,-354.5 347.5,-302.5 518.5,-302.5 518.5,-354.5"/>
<text text-anchor="start" x="355.5" y="-342.5" font-family="Helvetica,sans-Serif" font-size="10.00">C:/Users/juanh/OneDrive</text>
<text text-anchor="start" x="355.5" y="-331.5" font-family="Helvetica,sans-Serif" font-size="10.00">/Escritorio/Sistemas Embebidos</text>
<text text-anchor="start" x="355.5" y="-320.5" font-family="Helvetica,sans-Serif" font-size="10.00">/Proyecto final/LAL Control</text>
<text text-anchor="middle" x="433" y="-309.5" font-family="Helvetica,sans-Serif" font-size="10.00"> MbedOS/include/Control_system.h</text>
</a>
</g>
</g>
<!-- Node4&#45;&gt;Node5 -->
<g id="edge6" class="edge">
<title>Node4&#45;&gt;Node5</title>
<path fill="none" stroke="#63b8ff" d="M333.97,-389.28C351.36,-377.82 370.65,-365.46 387.58,-354.98"/>
<polygon fill="#63b8ff" stroke="#63b8ff" points="332.19,-386.26 325.79,-394.71 336.06,-392.09 332.19,-386.26"/>
</g>
<!-- Node17 -->
<g id="node17" class="node">
<title>Node17</title>
<g id="a_node17"><a xlink:href="_shutdown__state_8cpp.html" target="_top" xlink:title="Implementación de Shutdown_state.h.">
<polygon fill="white" stroke="#666666" points="329,-360 167,-360 167,-297 329,-297 329,-360"/>
<text text-anchor="start" x="175" y="-348" font-family="Helvetica,sans-Serif" font-size="10.00">C:/Users/juanh/OneDrive</text>
<text text-anchor="start" x="175" y="-337" font-family="Helvetica,sans-Serif" font-size="10.00">/Escritorio/Sistemas Embebidos</text>
<text text-anchor="start" x="175" y="-326" font-family="Helvetica,sans-Serif" font-size="10.00">/Proyecto final/LAL Control</text>
<text text-anchor="start" x="175" y="-315" font-family="Helvetica,sans-Serif" font-size="10.00"> MbedOS/src/Port/machine_state</text>
<text text-anchor="middle" x="248" y="-304" font-family="Helvetica,sans-Serif" font-size="10.00">_pattern/Shutdown_state.cpp</text>
</a>
</g>
</g>
<!-- Node4&#45;&gt;Node17 -->
<g id="edge31" class="edge">
<title>Node4&#45;&gt;Node17</title>
<path fill="none" stroke="#63b8ff" d="M268.02,-384.98C265.06,-376.77 262,-368.29 259.18,-360.5"/>
<polygon fill="#63b8ff" stroke="#63b8ff" points="264.63,-385.9 271.32,-394.12 271.21,-383.52 264.63,-385.9"/>
</g>
<!-- Node5&#45;&gt;Node1 -->
<g id="edge7" class="edge">
<title>Node5&#45;&gt;Node1</title>
<path fill="none" stroke="#63b8ff" d="M509.04,-359.7C564.51,-386.24 635.58,-430.74 669,-495 714.18,-581.86 596.94,-661.59 517.71,-703.55"/>
<polygon fill="#63b8ff" stroke="#63b8ff" points="510.79,-356.65 500.25,-355.59 507.83,-362.99 510.79,-356.65"/>
</g>
<!-- Node5&#45;&gt;Node2 -->
<g id="edge8" class="edge">
<title>Node5&#45;&gt;Node2</title>
<path fill="none" stroke="#63b8ff" d="M435.31,-366.09C438.97,-423.99 446.06,-536.07 449.71,-593.75"/>
<polygon fill="#63b8ff" stroke="#63b8ff" points="438.83,-366.2 434.7,-356.44 431.84,-366.64 438.83,-366.2"/>
</g>
<!-- Node5&#45;&gt;Node3 -->
<g id="edge9" class="edge">
<title>Node5&#45;&gt;Node3</title>
<path fill="none" stroke="#63b8ff" d="M426.41,-366.11C420.53,-393.01 410.3,-429.8 394,-459 386.93,-471.67 377.1,-484 367.48,-494.53"/>
<polygon fill="#63b8ff" stroke="#63b8ff" points="429.83,-366.86 428.43,-356.36 422.97,-365.44 429.83,-366.86"/>
</g>
<!-- Node5&#45;&gt;Node4 -->
<g id="edge10" class="edge">
<title>Node5&#45;&gt;Node4</title>
<path fill="none" stroke="#63b8ff" d="M390.23,-361.28C373.72,-372.29 354.66,-384.6 337.21,-395.54"/>
<polygon fill="#63b8ff" stroke="#63b8ff" points="392.02,-364.3 398.37,-355.82 388.12,-358.49 392.02,-364.3"/>
</g>
<!-- Node6 -->
<g id="node6" class="node">
<title>Node6</title>
<g id="a_node6"><a xlink:href="main_8h.html" target="_top" xlink:title="Archivo principal del programa.">
<polygon fill="white" stroke="#666666" points="566.5,-57.5 409.5,-57.5 409.5,-5.5 566.5,-5.5 566.5,-57.5"/>
<text text-anchor="start" x="417.5" y="-45.5" font-family="Helvetica,sans-Serif" font-size="10.00">C:/Users/juanh/OneDrive</text>
<text text-anchor="start" x="417.5" y="-34.5" font-family="Helvetica,sans-Serif" font-size="10.00">/Escritorio/Sistemas Embebidos</text>
<text text-anchor="start" x="417.5" y="-23.5" font-family="Helvetica,sans-Serif" font-size="10.00">/Proyecto final/LAL Control</text>
<text text-anchor="middle" x="488" y="-12.5" font-family="Helvetica,sans-Serif" font-size="10.00"> MbedOS/include/main.h</text>
</a>
</g>
</g>
<!-- Node5&#45;&gt;Node6 -->
<g id="edge11" class="edge">
<title>Node5&#45;&gt;Node6</title>
<path fill="none" stroke="#63b8ff" d="M455.54,-292.3C460.82,-282.52 465.83,-271.65 469,-261 490.26,-189.66 490.6,-100.62 489.24,-57.8"/>
<polygon fill="#63b8ff" stroke="#63b8ff" points="452.64,-290.32 450.74,-300.74 458.73,-293.77 452.64,-290.32"/>
</g>
<!-- Node7 -->
<g id="node7" class="node">
<title>Node7</title>
<g id="a_node7"><a xlink:href="_cooler__observer_8h_source.html" target="_top" xlink:title=" ">
<polygon fill="white" stroke="#666666" points="276,-162 110,-162 110,-99 276,-99 276,-162"/>
<text text-anchor="start" x="118" y="-150" font-family="Helvetica,sans-Serif" font-size="10.00">C:/Users/juanh/OneDrive</text>
<text text-anchor="start" x="118" y="-139" font-family="Helvetica,sans-Serif" font-size="10.00">/Escritorio/Sistemas Embebidos</text>
<text text-anchor="start" x="118" y="-128" font-family="Helvetica,sans-Serif" font-size="10.00">/Proyecto final/LAL Control</text>
<text text-anchor="start" x="118" y="-117" font-family="Helvetica,sans-Serif" font-size="10.00"> MbedOS/include/observer_pattern</text>
<text text-anchor="middle" x="193" y="-106" font-family="Helvetica,sans-Serif" font-size="10.00">/observers/Cooler_observer.h</text>
</a>
</g>
</g>
<!-- Node5&#45;&gt;Node7 -->
<g id="edge12" class="edge">
<title>Node5&#45;&gt;Node7</title>
<path fill="none" stroke="#63b8ff" d="M347.88,-298.09C315.7,-285.83 283.75,-271.94 271,-261 239.63,-234.08 217.33,-191.27 204.82,-162.31"/>
<polygon fill="#63b8ff" stroke="#63b8ff" points="346.3,-301.23 356.9,-301.47 348.76,-294.68 346.3,-301.23"/>
</g>
<!-- Node9 -->
<g id="node9" class="node">
<title>Node9</title>
<g id="a_node9"><a xlink:href="_instruction__observer_8h.html" target="_top" xlink:title="Observador de instrucciones.">
<polygon fill="white" stroke="#666666" points="460,-162 294,-162 294,-99 460,-99 460,-162"/>
<text text-anchor="start" x="302" y="-150" font-family="Helvetica,sans-Serif" font-size="10.00">C:/Users/juanh/OneDrive</text>
<text text-anchor="start" x="302" y="-139" font-family="Helvetica,sans-Serif" font-size="10.00">/Escritorio/Sistemas Embebidos</text>
<text text-anchor="start" x="302" y="-128" font-family="Helvetica,sans-Serif" font-size="10.00">/Proyecto final/LAL Control</text>
<text text-anchor="start" x="302" y="-117" font-family="Helvetica,sans-Serif" font-size="10.00"> MbedOS/include/observer_pattern</text>
<text text-anchor="middle" x="377" y="-106" font-family="Helvetica,sans-Serif" font-size="10.00">/observers/Instruction_observer.h</text>
</a>
</g>
</g>
<!-- Node5&#45;&gt;Node9 -->
<g id="edge15" class="edge">
<title>Node5&#45;&gt;Node9</title>
<path fill="none" stroke="#63b8ff" d="M346.65,-297.94C318.75,-286.52 292.94,-273.27 285,-261 269.79,-237.49 272.26,-222.93 285,-198 292.26,-183.79 304.14,-171.91 316.99,-162.31"/>
<polygon fill="#63b8ff" stroke="#63b8ff" points="345,-301.05 355.59,-301.49 347.59,-294.54 345,-301.05"/>
</g>
<!-- Node11 -->
<g id="node11" class="node">
<title>Node11</title>
<g id="a_node11"><a xlink:href="_moisture__observer_8h.html" target="_top" xlink:title="Observador del sensor de temperatura.">
<polygon fill="white" stroke="#666666" points="682,-162 516,-162 516,-99 682,-99 682,-162"/>
<text text-anchor="start" x="524" y="-150" font-family="Helvetica,sans-Serif" font-size="10.00">C:/Users/juanh/OneDrive</text>
<text text-anchor="start" x="524" y="-139" font-family="Helvetica,sans-Serif" font-size="10.00">/Escritorio/Sistemas Embebidos</text>
<text text-anchor="start" x="524" y="-128" font-family="Helvetica,sans-Serif" font-size="10.00">/Proyecto final/LAL Control</text>
<text text-anchor="start" x="524" y="-117" font-family="Helvetica,sans-Serif" font-size="10.00"> MbedOS/include/observer_pattern</text>
<text text-anchor="middle" x="599" y="-106" font-family="Helvetica,sans-Serif" font-size="10.00">/observers/Moisture_observer.h</text>
</a>
</g>
</g>
<!-- Node5&#45;&gt;Node11 -->
<g id="edge18" class="edge">
<title>Node5&#45;&gt;Node11</title>
<path fill="none" stroke="#63b8ff" d="M469.33,-294.6C480.2,-284.2 491.91,-272.43 502,-261 509.9,-252.05 550.08,-197.88 576.19,-162.49"/>
<polygon fill="#63b8ff" stroke="#63b8ff" points="467.18,-291.81 462.31,-301.21 471.99,-296.9 467.18,-291.81"/>
</g>
<!-- Node13 -->
<g id="node13" class="node">
<title>Node13</title>
<g id="a_node13"><a xlink:href="_system__observer_8h.html" target="_top" xlink:title="Clase observador del sistema de control.">
<polygon fill="white" stroke="#666666" points="460,-261 294,-261 294,-198 460,-198 460,-261"/>
<text text-anchor="start" x="302" y="-249" font-family="Helvetica,sans-Serif" font-size="10.00">C:/Users/juanh/OneDrive</text>
<text text-anchor="start" x="302" y="-238" font-family="Helvetica,sans-Serif" font-size="10.00">/Escritorio/Sistemas Embebidos</text>
<text text-anchor="start" x="302" y="-227" font-family="Helvetica,sans-Serif" font-size="10.00">/Proyecto final/LAL Control</text>
<text text-anchor="start" x="302" y="-216" font-family="Helvetica,sans-Serif" font-size="10.00"> MbedOS/include/observer_pattern</text>
<text text-anchor="middle" x="377" y="-205" font-family="Helvetica,sans-Serif" font-size="10.00">/observers/System_observer.h</text>
</a>
</g>
</g>
<!-- Node5&#45;&gt;Node13 -->
<g id="edge21" class="edge">
<title>Node5&#45;&gt;Node13</title>
<path fill="none" stroke="#63b8ff" d="M406.32,-292.56C400.06,-282.36 393.72,-271.28 388.47,-261.35"/>
<polygon fill="#63b8ff" stroke="#63b8ff" points="403.17,-294.13 411.46,-300.73 409.1,-290.4 403.17,-294.13"/>
</g>
<!-- Node14 -->
<g id="node14" class="node">
<title>Node14</title>
<g id="a_node14"><a xlink:href="_temperature__observer_8h.html" target="_top" xlink:title="Observador del sensor de temperatura.">
<polygon fill="white" stroke="#666666" points="867.5,-162 700.5,-162 700.5,-99 867.5,-99 867.5,-162"/>
<text text-anchor="start" x="708.5" y="-150" font-family="Helvetica,sans-Serif" font-size="10.00">C:/Users/juanh/OneDrive</text>
<text text-anchor="start" x="708.5" y="-139" font-family="Helvetica,sans-Serif" font-size="10.00">/Escritorio/Sistemas Embebidos</text>
<text text-anchor="start" x="708.5" y="-128" font-family="Helvetica,sans-Serif" font-size="10.00">/Proyecto final/LAL Control</text>
<text text-anchor="start" x="708.5" y="-117" font-family="Helvetica,sans-Serif" font-size="10.00"> MbedOS/include/observer_pattern</text>
<text text-anchor="middle" x="784" y="-106" font-family="Helvetica,sans-Serif" font-size="10.00">/observers/Temperature_observer.h</text>
</a>
</g>
</g>
<!-- Node5&#45;&gt;Node14 -->
<g id="edge29" class="edge">
<title>Node5&#45;&gt;Node14</title>
<path fill="none" stroke="#63b8ff" d="M492.7,-296.44C509.04,-286.39 526.07,-274.34 540,-261 564.48,-237.55 555.92,-218.4 583,-198 583.65,-197.51 645.21,-177.17 700.02,-159.12"/>
<polygon fill="#63b8ff" stroke="#63b8ff" points="491.27,-293.21 484.48,-301.35 494.86,-299.22 491.27,-293.21"/>
</g>
<!-- Node16 -->
<g id="node16" class="node">
<title>Node16</title>
<g id="a_node16"><a xlink:href="_control__system_8cpp.html" target="_top" xlink:title="Implementación de Control_system.h.">
<polygon fill="white" stroke="#666666" points="777.5,-255.5 592.5,-255.5 592.5,-203.5 777.5,-203.5 777.5,-255.5"/>
<text text-anchor="start" x="600.5" y="-243.5" font-family="Helvetica,sans-Serif" font-size="10.00">C:/Users/juanh/OneDrive</text>
<text text-anchor="start" x="600.5" y="-232.5" font-family="Helvetica,sans-Serif" font-size="10.00">/Escritorio/Sistemas Embebidos</text>
<text text-anchor="start" x="600.5" y="-221.5" font-family="Helvetica,sans-Serif" font-size="10.00">/Proyecto final/LAL Control</text>
<text text-anchor="middle" x="685" y="-210.5" font-family="Helvetica,sans-Serif" font-size="10.00"> MbedOS/src/Port/Control_system.cpp</text>
</a>
</g>
</g>
<!-- Node5&#45;&gt;Node16 -->
<g id="edge30" class="edge">
<title>Node5&#45;&gt;Node16</title>
<path fill="none" stroke="#63b8ff" d="M509.81,-297.94C544.61,-284.54 585.36,-268.85 618.8,-255.98"/>
<polygon fill="#63b8ff" stroke="#63b8ff" points="508.7,-294.61 500.62,-301.47 511.21,-301.14 508.7,-294.61"/>
</g>
<!-- Node7&#45;&gt;Node6 -->
<g id="edge13" class="edge">
<title>Node7&#45;&gt;Node6</title>
<path fill="none" stroke="#63b8ff" d="M286.9,-98.41C337.77,-82.17 352.32,-78.72 400,-63 404.91,-61.38 409.97,-59.69 415.07,-57.97"/>
<polygon fill="#63b8ff" stroke="#63b8ff" points="286.12,-94.99 277.67,-101.38 288.26,-101.65 286.12,-94.99"/>
</g>
<!-- Node8 -->
<g id="node8" class="node">
<title>Node8</title>
<g id="a_node8"><a xlink:href="_cooler__observer_8cpp.html" target="_top" xlink:title="Implementación de Cooler_observer.h.">
<polygon fill="white" stroke="#666666" points="203,-63 33,-63 33,0 203,0 203,-63"/>
<text text-anchor="start" x="41" y="-51" font-family="Helvetica,sans-Serif" font-size="10.00">C:/Users/juanh/OneDrive</text>
<text text-anchor="start" x="41" y="-40" font-family="Helvetica,sans-Serif" font-size="10.00">/Escritorio/Sistemas Embebidos</text>
<text text-anchor="start" x="41" y="-29" font-family="Helvetica,sans-Serif" font-size="10.00">/Proyecto final/LAL Control</text>
<text text-anchor="start" x="41" y="-18" font-family="Helvetica,sans-Serif" font-size="10.00"> MbedOS/src/Port/observer_pattern</text>
<text text-anchor="middle" x="118" y="-7" font-family="Helvetica,sans-Serif" font-size="10.00">/Cooler_observer.cpp</text>
</a>
</g>
</g>
<!-- Node7&#45;&gt;Node8 -->
<g id="edge14" class="edge">
<title>Node7&#45;&gt;Node8</title>
<path fill="none" stroke="#63b8ff" d="M162.18,-89.64C155.44,-80.92 148.4,-71.81 141.97,-63.5"/>
<polygon fill="#63b8ff" stroke="#63b8ff" points="159.25,-91.57 168.14,-97.34 164.79,-87.29 159.25,-91.57"/>
</g>
<!-- Node9&#45;&gt;Node6 -->
<g id="edge16" class="edge">
<title>Node9&#45;&gt;Node6</title>
<path fill="none" stroke="#63b8ff" d="M421.05,-91C433.75,-79.9 447.29,-68.07 458.85,-57.98"/>
<polygon fill="#63b8ff" stroke="#63b8ff" points="418.79,-88.33 413.57,-97.55 423.4,-93.6 418.79,-88.33"/>
</g>
<!-- Node10 -->
<g id="node10" class="node">
<title>Node10</title>
<g id="a_node10"><a xlink:href="_instruction__observer_8cpp.html" target="_top" xlink:title="Implementación de Instruction_observer.h.">
<polygon fill="white" stroke="#666666" points="391,-63 221,-63 221,0 391,0 391,-63"/>
<text text-anchor="start" x="229" y="-51" font-family="Helvetica,sans-Serif" font-size="10.00">C:/Users/juanh/OneDrive</text>
<text text-anchor="start" x="229" y="-40" font-family="Helvetica,sans-Serif" font-size="10.00">/Escritorio/Sistemas Embebidos</text>
<text text-anchor="start" x="229" y="-29" font-family="Helvetica,sans-Serif" font-size="10.00">/Proyecto final/LAL Control</text>
<text text-anchor="start" x="229" y="-18" font-family="Helvetica,sans-Serif" font-size="10.00"> MbedOS/src/Port/observer_pattern</text>
<text text-anchor="middle" x="306" y="-7" font-family="Helvetica,sans-Serif" font-size="10.00">/Instruction_observer.cpp</text>
</a>
</g>
</g>
<!-- Node9&#45;&gt;Node10 -->
<g id="edge17" class="edge">
<title>Node9&#45;&gt;Node10</title>
<path fill="none" stroke="#63b8ff" d="M347.62,-89.37C341.3,-80.73 334.71,-71.72 328.69,-63.5"/>
<polygon fill="#63b8ff" stroke="#63b8ff" points="344.72,-91.32 353.45,-97.32 350.36,-87.18 344.72,-91.32"/>
</g>
<!-- Node11&#45;&gt;Node6 -->
<g id="edge19" class="edge">
<title>Node11&#45;&gt;Node6</title>
<path fill="none" stroke="#63b8ff" d="M554.95,-91C542.25,-79.9 528.71,-68.07 517.15,-57.98"/>
<polygon fill="#63b8ff" stroke="#63b8ff" points="552.6,-93.6 562.43,-97.55 557.21,-88.33 552.6,-93.6"/>
</g>
<!-- Node12 -->
<g id="node12" class="node">
<title>Node12</title>
<g id="a_node12"><a xlink:href="_moisture__observer_8cpp.html" target="_top" xlink:title="Implementación de Moisture_observer.h.">
<polygon fill="white" stroke="#666666" points="755,-63 585,-63 585,0 755,0 755,-63"/>
<text text-anchor="start" x="593" y="-51" font-family="Helvetica,sans-Serif" font-size="10.00">C:/Users/juanh/OneDrive</text>
<text text-anchor="start" x="593" y="-40" font-family="Helvetica,sans-Serif" font-size="10.00">/Escritorio/Sistemas Embebidos</text>
<text text-anchor="start" x="593" y="-29" font-family="Helvetica,sans-Serif" font-size="10.00">/Proyecto final/LAL Control</text>
<text text-anchor="start" x="593" y="-18" font-family="Helvetica,sans-Serif" font-size="10.00"> MbedOS/src/Port/observer_pattern</text>
<text text-anchor="middle" x="670" y="-7" font-family="Helvetica,sans-Serif" font-size="10.00">/Moisture_observer.cpp</text>
</a>
</g>
</g>
<!-- Node11&#45;&gt;Node12 -->
<g id="edge20" class="edge">
<title>Node11&#45;&gt;Node12</title>
<path fill="none" stroke="#63b8ff" d="M628.38,-89.37C634.7,-80.73 641.29,-71.72 647.31,-63.5"/>
<polygon fill="#63b8ff" stroke="#63b8ff" points="625.64,-87.18 622.55,-97.32 631.28,-91.32 625.64,-87.18"/>
</g>
<!-- Node13&#45;&gt;Node5 -->
<g id="edge22" class="edge">
<title>Node13&#45;&gt;Node5</title>
<path fill="none" stroke="#63b8ff" d="M407.14,-271.15C413.39,-281.61 419.5,-292.57 424.31,-302.01"/>
<polygon fill="#63b8ff" stroke="#63b8ff" points="410.14,-269.34 401.93,-262.64 404.16,-272.99 410.14,-269.34"/>
</g>
<!-- Node13&#45;&gt;Node7 -->
<g id="edge23" class="edge">
<title>Node13&#45;&gt;Node7</title>
<path fill="none" stroke="#63b8ff" d="M308.14,-192.2C289.6,-182.43 269.73,-171.95 251.8,-162.5"/>
<polygon fill="#63b8ff" stroke="#63b8ff" points="306.46,-195.27 316.94,-196.84 309.72,-189.08 306.46,-195.27"/>
</g>
<!-- Node13&#45;&gt;Node9 -->
<g id="edge24" class="edge">
<title>Node13&#45;&gt;Node9</title>
<path fill="none" stroke="#63b8ff" d="M377,-186.15C377,-178.2 377,-170.02 377,-162.5"/>
<polygon fill="#63b8ff" stroke="#63b8ff" points="373.5,-186.03 377,-196.03 380.5,-186.03 373.5,-186.03"/>
</g>
<!-- Node13&#45;&gt;Node11 -->
<g id="edge25" class="edge">
<title>Node13&#45;&gt;Node11</title>
<path fill="none" stroke="#63b8ff" d="M458.22,-193.01C481.11,-183.01 505.82,-172.21 528.06,-162.5"/>
<polygon fill="#63b8ff" stroke="#63b8ff" points="457,-189.72 449.24,-196.94 459.8,-196.14 457,-189.72"/>
</g>
<!-- Node13&#45;&gt;Node14 -->
<g id="edge26" class="edge">
<title>Node13&#45;&gt;Node14</title>
<path fill="none" stroke="#63b8ff" d="M471.28,-211.3C533.97,-199.18 617.9,-181.66 691,-162 694.04,-161.18 697.12,-160.33 700.22,-159.44"/>
<polygon fill="#63b8ff" stroke="#63b8ff" points="470.87,-207.81 461.71,-213.14 472.19,-214.69 470.87,-207.81"/>
</g>
<!-- Node14&#45;&gt;Node6 -->
<g id="edge27" class="edge">
<title>Node14&#45;&gt;Node6</title>
<path fill="none" stroke="#63b8ff" d="M689.58,-98.57C638.21,-82.24 623.68,-78.72 576,-63 571.09,-61.38 566.03,-59.69 560.93,-57.97"/>
<polygon fill="#63b8ff" stroke="#63b8ff" points="688.33,-101.84 698.92,-101.55 690.46,-95.18 688.33,-101.84"/>
</g>
<!-- Node15 -->
<g id="node15" class="node">
<title>Node15</title>
<g id="a_node15"><a xlink:href="_temperature__observer_8cpp.html" target="_top" xlink:title="Implementación de Temperature_observer.h.">
<polygon fill="white" stroke="#666666" points="943,-63 773,-63 773,0 943,0 943,-63"/>
<text text-anchor="start" x="781" y="-51" font-family="Helvetica,sans-Serif" font-size="10.00">C:/Users/juanh/OneDrive</text>
<text text-anchor="start" x="781" y="-40" font-family="Helvetica,sans-Serif" font-size="10.00">/Escritorio/Sistemas Embebidos</text>
<text text-anchor="start" x="781" y="-29" font-family="Helvetica,sans-Serif" font-size="10.00">/Proyecto final/LAL Control</text>
<text text-anchor="start" x="781" y="-18" font-family="Helvetica,sans-Serif" font-size="10.00"> MbedOS/src/Port/observer_pattern</text>
<text text-anchor="middle" x="858" y="-7" font-family="Helvetica,sans-Serif" font-size="10.00">/Temperature_observer.cpp</text>
</a>
</g>
</g>
<!-- Node14&#45;&gt;Node15 -->
<g id="edge28" class="edge">
<title>Node14&#45;&gt;Node15</title>
<path fill="none" stroke="#63b8ff" d="M814.41,-89.64C821.06,-80.92 828.01,-71.81 834.35,-63.5"/>
<polygon fill="#63b8ff" stroke="#63b8ff" points="811.82,-87.27 808.54,-97.34 817.38,-91.51 811.82,-87.27"/>
</g>
</g>
</svg>
