<?xml version="1.0" encoding="UTF-8" standalone="no"?>
<!DOCTYPE svg PUBLIC "-//W3C//DTD SVG 1.1//EN"
 "http://www.w3.org/Graphics/SVG/1.1/DTD/svg11.dtd">
<!-- Generated by graphviz version 7.0.2 (20221119.0110)
 -->
<!-- Title: C:/Users/juanh/OneDrive/Escritorio/Sistemas Embebidos/Proyecto final/LAL Control MbedOS/include/machine_state_pattern/machine_states/Alarm_state.h Pages: 1 -->
<svg width="1707pt" height="434pt"
 viewBox="0.00 0.00 1707.00 434.00" xmlns="http://www.w3.org/2000/svg" xmlns:xlink="http://www.w3.org/1999/xlink">
<g id="graph0" class="graph" transform="scale(1 1) rotate(0) translate(4 430)">
<title>C:/Users/juanh/OneDrive/Escritorio/Sistemas Embebidos/Proyecto final/LAL Control MbedOS/include/machine_state_pattern/machine_states/Alarm_state.h</title>
<!-- Node1 -->
<g id="node1" class="node">
<title>Node1</title>
<g id="a_node1"><a xlink:title="Clase de estado de control del motor.">
<polygon fill="#999999" stroke="#666666" points="188,-426 0,-426 0,-363 188,-363 188,-426"/>
<text text-anchor="start" x="8" y="-414" font-family="Helvetica,sans-Serif" font-size="10.00">C:/Users/juanh/OneDrive</text>
<text text-anchor="start" x="8" y="-403" font-family="Helvetica,sans-Serif" font-size="10.00">/Escritorio/Sistemas Embebidos</text>
<text text-anchor="start" x="8" y="-392" font-family="Helvetica,sans-Serif" font-size="10.00">/Proyecto final/LAL Control</text>
<text text-anchor="start" x="8" y="-381" font-family="Helvetica,sans-Serif" font-size="10.00"> MbedOS/include/machine_state</text>
<text text-anchor="middle" x="94" y="-370" font-family="Helvetica,sans-Serif" font-size="10.00">_pattern/machine_states/Alarm_state.h</text>
</a>
</g>
</g>
<!-- Node2 -->
<g id="node2" class="node">
<title>Node2</title>
<g id="a_node2"><a xlink:href="_control__system_8h_source.html" target="_top" xlink:title=" ">
<polygon fill="white" stroke="#666666" points="894.5,-327 801.5,-327 801.5,-308 894.5,-308 894.5,-327"/>
<text text-anchor="middle" x="848" y="-315" font-family="Helvetica,sans-Serif" font-size="10.00">Control_system.h</text>
</a>
</g>
</g>
<!-- Node1&#45;&gt;Node2 -->
<g id="edge1" class="edge">
<title>Node1&#45;&gt;Node2</title>
<path fill="none" stroke="#63b8ff" d="M188.35,-384.12C346.57,-368.38 660.77,-337.12 790.21,-324.25"/>
<polygon fill="#63b8ff" stroke="#63b8ff" points="790.3,-327.76 799.91,-323.28 789.61,-320.79 790.3,-327.76"/>
</g>
<!-- Node7 -->
<g id="node7" class="node">
<title>Node7</title>
<g id="a_node7"><a xlink:href="_abstract__state_8h.html" target="_top" xlink:title="Clase de estado abstracta.">
<polygon fill="white" stroke="#666666" points="259,-41 131,-41 131,0 259,0 259,-41"/>
<text text-anchor="start" x="139" y="-29" font-family="Helvetica,sans-Serif" font-size="10.00">machine_state_pattern</text>
<text text-anchor="start" x="139" y="-18" font-family="Helvetica,sans-Serif" font-size="10.00">/machine_states/Abstract</text>
<text text-anchor="middle" x="195" y="-7" font-family="Helvetica,sans-Serif" font-size="10.00">_state.h</text>
</a>
</g>
</g>
<!-- Node1&#45;&gt;Node7 -->
<g id="edge59" class="edge">
<title>Node1&#45;&gt;Node7</title>
<path fill="none" stroke="#63b8ff" d="M66.29,-362.66C44.92,-335.63 19,-294.23 19,-252.5 19,-252.5 19,-252.5 19,-173.5 19,-129.79 9.42,-110.07 38,-77 58.62,-53.14 90.16,-39.54 119.59,-31.79"/>
<polygon fill="#63b8ff" stroke="#63b8ff" points="120.36,-35.2 129.26,-29.45 118.72,-28.39 120.36,-35.2"/>
</g>
<!-- Node33 -->
<g id="node33" class="node">
<title>Node33</title>
<g id="a_node33"><a xlink:href="_idle__state_8h.html" target="_top" xlink:title="Clase de estado de reposo.">
<polygon fill="white" stroke="#666666" points="257,-195 141,-195 141,-154 257,-154 257,-195"/>
<text text-anchor="start" x="149" y="-183" font-family="Helvetica,sans-Serif" font-size="10.00">machine_state_pattern</text>
<text text-anchor="start" x="149" y="-172" font-family="Helvetica,sans-Serif" font-size="10.00">/machine_states/Idle</text>
<text text-anchor="middle" x="199" y="-161" font-family="Helvetica,sans-Serif" font-size="10.00">_state.h</text>
</a>
</g>
</g>
<!-- Node1&#45;&gt;Node33 -->
<g id="edge60" class="edge">
<title>Node1&#45;&gt;Node33</title>
<path fill="none" stroke="#63b8ff" d="M103.95,-362.73C121.55,-320.94 157.31,-246.75 179.77,-205.41"/>
<polygon fill="#63b8ff" stroke="#63b8ff" points="182.8,-207.18 184.58,-196.73 176.67,-203.78 182.8,-207.18"/>
</g>
<!-- Node34 -->
<g id="node34" class="node">
<title>Node34</title>
<g id="a_node34"><a xlink:href="_check__instruction__state_8h_source.html" target="_top" xlink:title=" ">
<polygon fill="white" stroke="#666666" points="166.5,-118 47.5,-118 47.5,-77 166.5,-77 166.5,-118"/>
<text text-anchor="start" x="55.5" y="-106" font-family="Helvetica,sans-Serif" font-size="10.00">machine_state_pattern</text>
<text text-anchor="start" x="55.5" y="-95" font-family="Helvetica,sans-Serif" font-size="10.00">/machine_states/Check</text>
<text text-anchor="middle" x="107" y="-84" font-family="Helvetica,sans-Serif" font-size="10.00">_instruction_state.h</text>
</a>
</g>
</g>
<!-- Node1&#45;&gt;Node34 -->
<g id="edge61" class="edge">
<title>Node1&#45;&gt;Node34</title>
<path fill="none" stroke="#63b8ff" d="M91.03,-362.76C90.29,-306.26 95.56,-186.47 101.28,-129.65"/>
<polygon fill="#63b8ff" stroke="#63b8ff" points="104.76,-130.04 102.38,-119.72 97.8,-129.27 104.76,-130.04"/>
</g>
<!-- Node3 -->
<g id="node3" class="node">
<title>Node3</title>
<g id="a_node3"><a xlink:href="_subject_8h.html" target="_top" xlink:title=" ">
<polygon fill="white" stroke="#666666" points="1549,-189.5 1421,-189.5 1421,-159.5 1549,-159.5 1549,-189.5"/>
<text text-anchor="start" x="1429" y="-177.5" font-family="Helvetica,sans-Serif" font-size="10.00">observer_pattern/subjects</text>
<text text-anchor="middle" x="1485" y="-166.5" font-family="Helvetica,sans-Serif" font-size="10.00">/Subject.h</text>
</a>
</g>
</g>
<!-- Node2&#45;&gt;Node3 -->
<g id="edge2" class="edge">
<title>Node2&#45;&gt;Node3</title>
<path fill="none" stroke="#63b8ff" d="M894.98,-316.88C1037.09,-317.54 1455.19,-315.71 1496,-272 1513.74,-253 1506.13,-221.9 1497.26,-200.16"/>
<polygon fill="#63b8ff" stroke="#63b8ff" points="1500.52,-198.85 1493.26,-191.13 1494.12,-201.69 1500.52,-198.85"/>
</g>
<!-- Node6 -->
<g id="node6" class="node">
<title>Node6</title>
<g id="a_node6"><a xlink:href="_machine_8h.html" target="_top" xlink:title="Clase de máquina abstracta.">
<polygon fill="white" stroke="#666666" points="377,-112.5 261,-112.5 261,-82.5 377,-82.5 377,-112.5"/>
<text text-anchor="start" x="269" y="-100.5" font-family="Helvetica,sans-Serif" font-size="10.00">machine_state_pattern</text>
<text text-anchor="middle" x="319" y="-89.5" font-family="Helvetica,sans-Serif" font-size="10.00">/Machine.h</text>
</a>
</g>
</g>
<!-- Node2&#45;&gt;Node6 -->
<g id="edge5" class="edge">
<title>Node2&#45;&gt;Node6</title>
<path fill="none" stroke="#63b8ff" d="M801.25,-315.86C742.94,-313.59 641.16,-304.76 561,-272 470.91,-235.19 382.45,-158.69 341.94,-120.78"/>
<polygon fill="#63b8ff" stroke="#63b8ff" points="344.36,-118.25 334.69,-113.92 339.55,-123.33 344.36,-118.25"/>
</g>
<!-- Node8 -->
<g id="node8" class="node">
<title>Node8</title>
<g id="a_node8"><a xlink:href="_display_8h.html" target="_top" xlink:title="Controlador de LCD hd44780 por interfaz I2C.">
<polygon fill="white" stroke="#666666" points="686,-261 598,-261 598,-242 686,-242 686,-261"/>
<text text-anchor="middle" x="642" y="-249" font-family="Helvetica,sans-Serif" font-size="10.00">drivers/Display.h</text>
</a>
</g>
</g>
<!-- Node2&#45;&gt;Node8 -->
<g id="edge7" class="edge">
<title>Node2&#45;&gt;Node8</title>
<path fill="none" stroke="#63b8ff" d="M814.67,-307.52C783.53,-298.97 735.86,-285.44 695,-272 688.74,-269.94 682.1,-267.62 675.73,-265.31"/>
<polygon fill="#63b8ff" stroke="#63b8ff" points="677.37,-262.18 666.78,-262.01 674.96,-268.75 677.37,-262.18"/>
</g>
<!-- Node18 -->
<g id="node18" class="node">
<title>Node18</title>
<g id="a_node18"><a xlink:href="user__messages_8h.html" target="_top" xlink:title="Archivo para la configuración de interfaz con el usuario.">
<polygon fill="white" stroke="#666666" points="1385,-261 1291,-261 1291,-242 1385,-242 1385,-261"/>
<text text-anchor="middle" x="1338" y="-249" font-family="Helvetica,sans-Serif" font-size="10.00">user_messages.h</text>
</a>
</g>
</g>
<!-- Node2&#45;&gt;Node18 -->
<g id="edge20" class="edge">
<title>Node2&#45;&gt;Node18</title>
<path fill="none" stroke="#63b8ff" d="M894.81,-315.26C974.99,-312.36 1143.36,-302.8 1282,-272 1289.7,-270.29 1297.8,-267.86 1305.38,-265.29"/>
<polygon fill="#63b8ff" stroke="#63b8ff" points="1306.33,-268.66 1314.57,-262 1303.98,-262.07 1306.33,-268.66"/>
</g>
<!-- Node19 -->
<g id="node19" class="node">
<title>Node19</title>
<g id="a_node19"><a xlink:href="_system__observer_8h.html" target="_top" xlink:title="Clase observador del sistema de control.">
<polygon fill="white" stroke="#666666" points="1675,-266.5 1543,-266.5 1543,-236.5 1675,-236.5 1675,-266.5"/>
<text text-anchor="start" x="1551" y="-254.5" font-family="Helvetica,sans-Serif" font-size="10.00">observer_pattern/observers</text>
<text text-anchor="middle" x="1609" y="-243.5" font-family="Helvetica,sans-Serif" font-size="10.00">/System_observer.h</text>
</a>
</g>
</g>
<!-- Node2&#45;&gt;Node19 -->
<g id="edge21" class="edge">
<title>Node2&#45;&gt;Node19</title>
<path fill="none" stroke="#63b8ff" d="M894.82,-316.18C1004.72,-314.81 1286.95,-307.74 1520,-272 1525.12,-271.22 1530.39,-270.26 1535.69,-269.2"/>
<polygon fill="#63b8ff" stroke="#63b8ff" points="1536.04,-272.71 1545.11,-267.22 1534.6,-265.86 1536.04,-272.71"/>
</g>
<!-- Node21 -->
<g id="node21" class="node">
<title>Node21</title>
<g id="a_node21"><a xlink:href="_temperature__sensor_8h.html" target="_top" xlink:title="Controlador para sensor de temperatura DS18B20.">
<polygon fill="white" stroke="#666666" points="1272.5,-266.5 1171.5,-266.5 1171.5,-236.5 1272.5,-236.5 1272.5,-266.5"/>
<text text-anchor="start" x="1179.5" y="-254.5" font-family="Helvetica,sans-Serif" font-size="10.00">drivers/Temperature</text>
<text text-anchor="middle" x="1222" y="-243.5" font-family="Helvetica,sans-Serif" font-size="10.00">_sensor.h</text>
</a>
</g>
</g>
<!-- Node2&#45;&gt;Node21 -->
<g id="edge26" class="edge">
<title>Node2&#45;&gt;Node21</title>
<path fill="none" stroke="#63b8ff" d="M894.92,-312.52C956.89,-306.65 1069.16,-293.95 1163,-272 1165.43,-271.43 1167.91,-270.81 1170.4,-270.14"/>
<polygon fill="#63b8ff" stroke="#63b8ff" points="1171.23,-273.54 1179.87,-267.41 1169.29,-266.81 1171.23,-273.54"/>
</g>
<!-- Node24 -->
<g id="node24" class="node">
<title>Node24</title>
<g id="a_node24"><a xlink:href="_moisture__sensor_8h.html" target="_top" xlink:title="Controlador de sensor de humedad analógico.">
<polygon fill="white" stroke="#666666" points="623,-107 495,-107 495,-88 623,-88 623,-107"/>
<text text-anchor="middle" x="559" y="-95" font-family="Helvetica,sans-Serif" font-size="10.00">drivers/Moisture_sensor.h</text>
</a>
</g>
</g>
<!-- Node2&#45;&gt;Node24 -->
<g id="edge29" class="edge">
<title>Node2&#45;&gt;Node24</title>
<path fill="none" stroke="#63b8ff" d="M801.03,-314.75C734.62,-311.26 618.09,-301.06 589,-272 547.78,-230.82 551.31,-154.79 555.8,-118.63"/>
<polygon fill="#63b8ff" stroke="#63b8ff" points="559.26,-119.14 557.21,-108.74 552.33,-118.15 559.26,-119.14"/>
</g>
<!-- Node25 -->
<g id="node25" class="node">
<title>Node25</title>
<g id="a_node25"><a xlink:href="types_8h.html" target="_top" xlink:title="Archivo de definición de tipos de dato.">
<polygon fill="white" stroke="#666666" points="1078.5,-184 1029.5,-184 1029.5,-165 1078.5,-165 1078.5,-184"/>
<text text-anchor="middle" x="1054" y="-172" font-family="Helvetica,sans-Serif" font-size="10.00">types.h</text>
</a>
</g>
</g>
<!-- Node2&#45;&gt;Node25 -->
<g id="edge31" class="edge">
<title>Node2&#45;&gt;Node25</title>
<path fill="none" stroke="#63b8ff" d="M894.74,-314.7C930.92,-310.99 980.21,-300.54 1013,-272 1035.73,-252.22 1046.2,-217.68 1050.77,-195.73"/>
<polygon fill="#63b8ff" stroke="#63b8ff" points="1054.2,-196.43 1052.55,-185.96 1047.32,-195.17 1054.2,-196.43"/>
</g>
<!-- Node26 -->
<g id="node26" class="node">
<title>Node26</title>
<g id="a_node26"><a xlink:href="_buzzer_8h.html" target="_top" xlink:title="Controlador de Buzzer de 12 milimetros sin oscilador.">
<polygon fill="white" stroke="#666666" points="790,-261 704,-261 704,-242 790,-242 790,-261"/>
<text text-anchor="middle" x="747" y="-249" font-family="Helvetica,sans-Serif" font-size="10.00">drivers/Buzzer.h</text>
</a>
</g>
</g>
<!-- Node2&#45;&gt;Node26 -->
<g id="edge32" class="edge">
<title>Node2&#45;&gt;Node26</title>
<path fill="none" stroke="#63b8ff" d="M833.96,-307.6C817.52,-297.19 790.07,-279.79 770.4,-267.33"/>
<polygon fill="#63b8ff" stroke="#63b8ff" points="772.52,-264.53 762.2,-262.13 768.78,-270.44 772.52,-264.53"/>
</g>
<!-- Node28 -->
<g id="node28" class="node">
<title>Node28</title>
<g id="a_node28"><a xlink:href="_motor_8h.html" target="_top" xlink:title="Controlador de motor de 220 VAC.">
<polygon fill="white" stroke="#666666" points="888,-261 808,-261 808,-242 888,-242 888,-261"/>
<text text-anchor="middle" x="848" y="-249" font-family="Helvetica,sans-Serif" font-size="10.00">drivers/Motor.h</text>
</a>
</g>
</g>
<!-- Node2&#45;&gt;Node28 -->
<g id="edge35" class="edge">
<title>Node2&#45;&gt;Node28</title>
<path fill="none" stroke="#63b8ff" d="M848,-307.6C848,-298.62 848,-284.45 848,-272.72"/>
<polygon fill="#63b8ff" stroke="#63b8ff" points="851.5,-272.84 848,-262.84 844.5,-272.84 851.5,-272.84"/>
</g>
<!-- Node29 -->
<g id="node29" class="node">
<title>Node29</title>
<g id="a_node29"><a xlink:href="_dual___l_e_d_8h.html" target="_top" xlink:title="Controlador de LED RG con PWM.">
<polygon fill="white" stroke="#666666" points="1153.5,-261 1060.5,-261 1060.5,-242 1153.5,-242 1153.5,-261"/>
<text text-anchor="middle" x="1107" y="-249" font-family="Helvetica,sans-Serif" font-size="10.00">drivers/Dual_led.h</text>
</a>
</g>
</g>
<!-- Node2&#45;&gt;Node29 -->
<g id="edge38" class="edge">
<title>Node2&#45;&gt;Node29</title>
<path fill="none" stroke="#63b8ff" d="M893.1,-307.55C933.42,-299.27 993.98,-286.13 1046,-272 1053.8,-269.88 1062.1,-267.39 1069.97,-264.91"/>
<polygon fill="#63b8ff" stroke="#63b8ff" points="1070.84,-268.31 1079.29,-261.92 1068.7,-261.65 1070.84,-268.31"/>
</g>
<!-- Node30 -->
<g id="node30" class="node">
<title>Node30</title>
<g id="a_node30"><a xlink:href="_digital__dual___l_e_d_8h_source.html" target="_top" xlink:title=" ">
<polygon fill="white" stroke="#666666" points="1004,-266.5 906,-266.5 906,-236.5 1004,-236.5 1004,-266.5"/>
<text text-anchor="start" x="914" y="-254.5" font-family="Helvetica,sans-Serif" font-size="10.00">drivers/Digital_dual</text>
<text text-anchor="middle" x="955" y="-243.5" font-family="Helvetica,sans-Serif" font-size="10.00">_led.h</text>
</a>
</g>
</g>
<!-- Node2&#45;&gt;Node30 -->
<g id="edge42" class="edge">
<title>Node2&#45;&gt;Node30</title>
<path fill="none" stroke="#63b8ff" d="M862.88,-307.6C877.84,-298.65 901.44,-284.54 921,-272.84"/>
<polygon fill="#63b8ff" stroke="#63b8ff" points="922.71,-275.89 929.5,-267.75 919.12,-269.88 922.71,-275.89"/>
</g>
<!-- Node31 -->
<g id="node31" class="node">
<title>Node31</title>
<g id="a_node31"><a xlink:href="_cooler_8h.html" target="_top" xlink:title="Controlador de ventilador de 12 volts y 5 milímteros.">
<polygon fill="white" stroke="#666666" points="1486.5,-261 1403.5,-261 1403.5,-242 1486.5,-242 1486.5,-261"/>
<text text-anchor="middle" x="1445" y="-249" font-family="Helvetica,sans-Serif" font-size="10.00">drivers/Cooler.h</text>
</a>
</g>
</g>
<!-- Node2&#45;&gt;Node31 -->
<g id="edge45" class="edge">
<title>Node2&#45;&gt;Node31</title>
<path fill="none" stroke="#63b8ff" d="M894.69,-317.12C989.87,-317.41 1212.68,-313.17 1394,-272 1401.04,-270.4 1408.4,-268.03 1415.27,-265.49"/>
<polygon fill="#63b8ff" stroke="#63b8ff" points="1416.12,-268.91 1424.14,-261.99 1413.55,-262.4 1416.12,-268.91"/>
</g>
<!-- Node32 -->
<g id="node32" class="node">
<title>Node32</title>
<g id="a_node32"><a xlink:href="_shutdown__state_8h.html" target="_top" xlink:title="Clase de estado de apagado del sistema.">
<polygon fill="white" stroke="#666666" points="447,-272 313,-272 313,-231 447,-231 447,-272"/>
<text text-anchor="start" x="321" y="-260" font-family="Helvetica,sans-Serif" font-size="10.00">machine_state_pattern</text>
<text text-anchor="start" x="321" y="-249" font-family="Helvetica,sans-Serif" font-size="10.00">/machine_states/Shutdown</text>
<text text-anchor="middle" x="380" y="-238" font-family="Helvetica,sans-Serif" font-size="10.00">_state.h</text>
</a>
</g>
</g>
<!-- Node2&#45;&gt;Node32 -->
<g id="edge48" class="edge">
<title>Node2&#45;&gt;Node32</title>
<path fill="none" stroke="#63b8ff" d="M801.17,-312C731.4,-304.6 596.66,-288.99 483,-272 475.02,-270.81 466.72,-269.5 458.46,-268.14"/>
<polygon fill="#63b8ff" stroke="#63b8ff" points="459.18,-264.71 448.74,-266.51 458.02,-271.61 459.18,-264.71"/>
</g>
<!-- Node4 -->
<g id="node4" class="node">
<title>Node4</title>
<g id="a_node4"><a xlink:href="_subject__interface_8h.html" target="_top" xlink:title="Clase para interfaz para implementar el sujeto.">
<polygon fill="white" stroke="#666666" points="1697,-112.5 1569,-112.5 1569,-82.5 1697,-82.5 1697,-112.5"/>
<text text-anchor="start" x="1577" y="-100.5" font-family="Helvetica,sans-Serif" font-size="10.00">observer_pattern/subjects</text>
<text text-anchor="middle" x="1633" y="-89.5" font-family="Helvetica,sans-Serif" font-size="10.00">/Subject_interface.h</text>
</a>
</g>
</g>
<!-- Node3&#45;&gt;Node4 -->
<g id="edge3" class="edge">
<title>Node3&#45;&gt;Node4</title>
<path fill="none" stroke="#63b8ff" d="M1513.54,-159.04C1536.57,-147.37 1569.2,-130.83 1594.54,-117.99"/>
<polygon fill="#63b8ff" stroke="#63b8ff" points="1595.86,-121.24 1603.2,-113.6 1592.7,-115 1595.86,-121.24"/>
</g>
<!-- Node5 -->
<g id="node5" class="node">
<title>Node5</title>
<g id="a_node5"><a xlink:href="_observer__interface_8h.html" target="_top" xlink:title="Clase para interfaz para implementar el observador.">
<polygon fill="white" stroke="#666666" points="1551,-112.5 1419,-112.5 1419,-82.5 1551,-82.5 1551,-112.5"/>
<text text-anchor="start" x="1427" y="-100.5" font-family="Helvetica,sans-Serif" font-size="10.00">observer_pattern/observers</text>
<text text-anchor="middle" x="1485" y="-89.5" font-family="Helvetica,sans-Serif" font-size="10.00">/Observer_interface.h</text>
</a>
</g>
</g>
<!-- Node3&#45;&gt;Node5 -->
<g id="edge4" class="edge">
<title>Node3&#45;&gt;Node5</title>
<path fill="none" stroke="#63b8ff" d="M1485,-159.04C1485,-149.18 1485,-135.86 1485,-124.22"/>
<polygon fill="#63b8ff" stroke="#63b8ff" points="1488.5,-124.43 1485,-114.43 1481.5,-124.43 1488.5,-124.43"/>
</g>
<!-- Node6&#45;&gt;Node7 -->
<g id="edge6" class="edge">
<title>Node6&#45;&gt;Node7</title>
<path fill="none" stroke="#63b8ff" d="M295.09,-82.04C278.79,-72.18 256.75,-58.85 237.51,-47.21"/>
<polygon fill="#63b8ff" stroke="#63b8ff" points="239.4,-44.27 229.04,-42.09 235.78,-50.26 239.4,-44.27"/>
</g>
<!-- Node9 -->
<g id="node9" class="node">
<title>Node9</title>
<g id="a_node9"><a xlink:href="display__settings_8h.html" target="_top" xlink:title="Archivo de configuración de la pantalla.">
<polygon fill="white" stroke="#666666" points="896.5,-107 801.5,-107 801.5,-88 896.5,-88 896.5,-107"/>
<text text-anchor="middle" x="849" y="-95" font-family="Helvetica,sans-Serif" font-size="10.00">display_settings.h</text>
</a>
</g>
</g>
<!-- Node8&#45;&gt;Node9 -->
<g id="edge8" class="edge">
<title>Node8&#45;&gt;Node9</title>
<path fill="none" stroke="#63b8ff" d="M655.82,-241.53C672.26,-230.76 700.46,-212.03 724,-195 761.88,-167.6 804.75,-133.89 829.16,-114.43"/>
<polygon fill="#63b8ff" stroke="#63b8ff" points="831.33,-117.18 836.96,-108.2 826.96,-111.71 831.33,-117.18"/>
</g>
<!-- Node10 -->
<g id="node10" class="node">
<title>Node10</title>
<g id="a_node10"><a xlink:href="hd44780___i2_cexp_8h.html" target="_top" xlink:title="Adaptación de la biblioteca TextLCD de MbedOS 5. Permite utilizar un LCD hd44780 con un expansor de p...">
<polygon fill="white" stroke="#666666" points="715,-184 587,-184 587,-165 715,-165 715,-184"/>
<text text-anchor="middle" x="651" y="-172" font-family="Helvetica,sans-Serif" font-size="10.00">drivers/hd44780_I2Cexp.h</text>
</a>
</g>
</g>
<!-- Node8&#45;&gt;Node10 -->
<g id="edge9" class="edge">
<title>Node8&#45;&gt;Node10</title>
<path fill="none" stroke="#63b8ff" d="M643.07,-241.6C644.42,-230.33 646.79,-210.55 648.59,-195.56"/>
<polygon fill="#63b8ff" stroke="#63b8ff" points="652.04,-196.23 649.75,-185.89 645.09,-195.4 652.04,-196.23"/>
</g>
<!-- Node10&#45;&gt;Node9 -->
<g id="edge19" class="edge">
<title>Node10&#45;&gt;Node9</title>
<path fill="none" stroke="#63b8ff" d="M674.49,-164.6C709.32,-151.41 774.86,-126.58 814.95,-111.4"/>
<polygon fill="#63b8ff" stroke="#63b8ff" points="816.01,-114.74 824.12,-107.92 813.53,-108.19 816.01,-114.74"/>
</g>
<!-- Node11 -->
<g id="node11" class="node">
<title>Node11</title>
<g id="a_node11"><a xlink:title=" ">
<polygon fill="#e0e0e0" stroke="#999999" points="968.5,-30 919.5,-30 919.5,-11 968.5,-11 968.5,-30"/>
<text text-anchor="middle" x="944" y="-18" font-family="Helvetica,sans-Serif" font-size="10.00">mbed.h</text>
</a>
</g>
</g>
<!-- Node10&#45;&gt;Node11 -->
<g id="edge10" class="edge">
<title>Node10&#45;&gt;Node11</title>
<path fill="none" stroke="#63b8ff" d="M649.81,-164.58C647.83,-145.59 646.16,-100.97 670,-77 703.01,-43.81 841.87,-29.12 908.3,-23.9"/>
<polygon fill="#63b8ff" stroke="#63b8ff" points="908.23,-27.42 917.93,-23.18 907.7,-20.44 908.23,-27.42"/>
</g>
<!-- Node12 -->
<g id="node12" class="node">
<title>Node12</title>
<g id="a_node12"><a xlink:title=" ">
<polygon fill="#e0e0e0" stroke="#999999" points="412,-30 364,-30 364,-11 412,-11 412,-30"/>
<text text-anchor="middle" x="388" y="-18" font-family="Helvetica,sans-Serif" font-size="10.00">stdlib.h</text>
</a>
</g>
</g>
<!-- Node10&#45;&gt;Node12 -->
<g id="edge11" class="edge">
<title>Node10&#45;&gt;Node12</title>
<path fill="none" stroke="#63b8ff" d="M586.65,-164.6C528.3,-155.34 447.88,-139.23 424,-118 401.88,-98.33 393.32,-63.76 390.02,-41.77"/>
<polygon fill="#63b8ff" stroke="#63b8ff" points="393.52,-41.49 388.82,-32 386.57,-42.35 393.52,-41.49"/>
</g>
<!-- Node13 -->
<g id="node13" class="node">
<title>Node13</title>
<g id="a_node13"><a xlink:href="hd44780__instruction__set_8h.html" target="_top" xlink:title="Set de instrucciones del LCD HD44780.">
<polygon fill="white" stroke="#666666" points="783,-112.5 679,-112.5 679,-82.5 783,-82.5 783,-112.5"/>
<text text-anchor="start" x="687" y="-100.5" font-family="Helvetica,sans-Serif" font-size="10.00">hd44780_instruction</text>
<text text-anchor="middle" x="731" y="-89.5" font-family="Helvetica,sans-Serif" font-size="10.00">_set.h</text>
</a>
</g>
</g>
<!-- Node10&#45;&gt;Node13 -->
<g id="edge12" class="edge">
<title>Node10&#45;&gt;Node13</title>
<path fill="none" stroke="#63b8ff" d="M660.49,-164.6C672.02,-153.8 691.86,-135.2 707.56,-120.47"/>
<polygon fill="#63b8ff" stroke="#63b8ff" points="709.78,-123.19 714.68,-113.8 704.99,-118.09 709.78,-123.19"/>
</g>
<!-- Node14 -->
<g id="node14" class="node">
<title>Node14</title>
<g id="a_node14"><a xlink:href="utils_8h_source.html" target="_top" xlink:title=" ">
<polygon fill="white" stroke="#666666" points="476.5,-107 433.5,-107 433.5,-88 476.5,-88 476.5,-107"/>
<text text-anchor="middle" x="455" y="-95" font-family="Helvetica,sans-Serif" font-size="10.00">utils.h</text>
</a>
</g>
</g>
<!-- Node10&#45;&gt;Node14 -->
<g id="edge14" class="edge">
<title>Node10&#45;&gt;Node14</title>
<path fill="none" stroke="#63b8ff" d="M616.58,-164.51C582.55,-155.02 529.42,-138.6 486,-118 483.14,-116.64 480.21,-115.07 477.36,-113.43"/>
<polygon fill="#63b8ff" stroke="#63b8ff" points="479.21,-110.46 468.87,-108.17 475.53,-116.41 479.21,-110.46"/>
</g>
<!-- Node13&#45;&gt;Node11 -->
<g id="edge13" class="edge">
<title>Node13&#45;&gt;Node11</title>
<path fill="none" stroke="#63b8ff" d="M772.07,-82.04C811.68,-68.09 871,-47.2 908.59,-33.97"/>
<polygon fill="#63b8ff" stroke="#63b8ff" points="909.35,-37.41 917.62,-30.79 907.02,-30.81 909.35,-37.41"/>
</g>
<!-- Node14&#45;&gt;Node12 -->
<g id="edge17" class="edge">
<title>Node14&#45;&gt;Node12</title>
<path fill="none" stroke="#63b8ff" d="M447.05,-87.6C436.37,-75.65 417.17,-54.15 403.56,-38.92"/>
<polygon fill="#63b8ff" stroke="#63b8ff" points="406.22,-36.64 396.95,-31.52 401,-41.3 406.22,-36.64"/>
</g>
<!-- Node15 -->
<g id="node15" class="node">
<title>Node15</title>
<g id="a_node15"><a xlink:title=" ">
<polygon fill="#e0e0e0" stroke="#999999" points="544.5,-30 497.5,-30 497.5,-11 544.5,-11 544.5,-30"/>
<text text-anchor="middle" x="521" y="-18" font-family="Helvetica,sans-Serif" font-size="10.00">math.h</text>
</a>
</g>
</g>
<!-- Node14&#45;&gt;Node15 -->
<g id="edge15" class="edge">
<title>Node14&#45;&gt;Node15</title>
<path fill="none" stroke="#63b8ff" d="M462.83,-87.6C473.35,-75.65 492.27,-54.15 505.67,-38.92"/>
<polygon fill="#63b8ff" stroke="#63b8ff" points="508.2,-41.34 512.18,-31.52 502.95,-36.72 508.2,-41.34"/>
</g>
<!-- Node16 -->
<g id="node16" class="node">
<title>Node16</title>
<g id="a_node16"><a xlink:title=" ">
<polygon fill="#e0e0e0" stroke="#999999" points="609,-30 563,-30 563,-11 609,-11 609,-30"/>
<text text-anchor="middle" x="586" y="-18" font-family="Helvetica,sans-Serif" font-size="10.00">stdio.h</text>
</a>
</g>
</g>
<!-- Node14&#45;&gt;Node16 -->
<g id="edge16" class="edge">
<title>Node14&#45;&gt;Node16</title>
<path fill="none" stroke="#63b8ff" d="M468.76,-87.56C474.1,-84.17 480.29,-80.33 486,-77 515.21,-59.99 523.55,-57.6 553,-41 555.73,-39.46 558.58,-37.83 561.4,-36.18"/>
<polygon fill="#63b8ff" stroke="#63b8ff" points="563.14,-39.22 569.99,-31.13 559.59,-33.19 563.14,-39.22"/>
</g>
<!-- Node17 -->
<g id="node17" class="node">
<title>Node17</title>
<g id="a_node17"><a xlink:title=" ">
<polygon fill="#e0e0e0" stroke="#999999" points="479.5,-30 430.5,-30 430.5,-11 479.5,-11 479.5,-30"/>
<text text-anchor="middle" x="455" y="-18" font-family="Helvetica,sans-Serif" font-size="10.00">string.h</text>
</a>
</g>
</g>
<!-- Node14&#45;&gt;Node17 -->
<g id="edge18" class="edge">
<title>Node14&#45;&gt;Node17</title>
<path fill="none" stroke="#63b8ff" d="M455,-87.6C455,-76.33 455,-56.55 455,-41.56"/>
<polygon fill="#63b8ff" stroke="#63b8ff" points="458.5,-41.9 455,-31.9 451.5,-41.9 458.5,-41.9"/>
</g>
<!-- Node19&#45;&gt;Node2 -->
<g id="edge25" class="edge">
<title>Node19&#45;&gt;Node2</title>
<path fill="none" stroke="#63b8ff" d="M1564.34,-266.91C1555.67,-268.88 1546.62,-270.68 1538,-272 1306.22,-307.54 1025.81,-314.73 906.32,-316.16"/>
<polygon fill="#63b8ff" stroke="#63b8ff" points="906.4,-312.66 896.44,-316.26 906.48,-319.65 906.4,-312.66"/>
</g>
<!-- Node20 -->
<g id="node20" class="node">
<title>Node20</title>
<g id="a_node20"><a xlink:href="_observer_8h.html" target="_top" xlink:title="Clase observador.">
<polygon fill="white" stroke="#666666" points="1699,-189.5 1567,-189.5 1567,-159.5 1699,-159.5 1699,-189.5"/>
<text text-anchor="start" x="1575" y="-177.5" font-family="Helvetica,sans-Serif" font-size="10.00">observer_pattern/observers</text>
<text text-anchor="middle" x="1633" y="-166.5" font-family="Helvetica,sans-Serif" font-size="10.00">/Observer.h</text>
</a>
</g>
</g>
<!-- Node19&#45;&gt;Node20 -->
<g id="edge22" class="edge">
<title>Node19&#45;&gt;Node20</title>
<path fill="none" stroke="#63b8ff" d="M1613.63,-236.04C1616.81,-226.08 1621.14,-212.58 1624.89,-200.85"/>
<polygon fill="#63b8ff" stroke="#63b8ff" points="1628.21,-201.95 1627.93,-191.36 1621.54,-199.82 1628.21,-201.95"/>
</g>
<!-- Node20&#45;&gt;Node4 -->
<g id="edge23" class="edge">
<title>Node20&#45;&gt;Node4</title>
<path fill="none" stroke="#63b8ff" d="M1633,-159.04C1633,-149.18 1633,-135.86 1633,-124.22"/>
<polygon fill="#63b8ff" stroke="#63b8ff" points="1636.5,-124.43 1633,-114.43 1629.5,-124.43 1636.5,-124.43"/>
</g>
<!-- Node20&#45;&gt;Node5 -->
<g id="edge24" class="edge">
<title>Node20&#45;&gt;Node5</title>
<path fill="none" stroke="#63b8ff" d="M1604.46,-159.04C1581.43,-147.37 1548.8,-130.83 1523.46,-117.99"/>
<polygon fill="#63b8ff" stroke="#63b8ff" points="1525.3,-115 1514.8,-113.6 1522.14,-121.24 1525.3,-115"/>
</g>
<!-- Node22 -->
<g id="node22" class="node">
<title>Node22</title>
<g id="a_node22"><a xlink:href="system__settings_8h.html" target="_top" xlink:title="Archivo para la definición de constantes del sistema.">
<polygon fill="white" stroke="#666666" points="1341.5,-184 1244.5,-184 1244.5,-165 1341.5,-165 1341.5,-184"/>
<text text-anchor="middle" x="1293" y="-172" font-family="Helvetica,sans-Serif" font-size="10.00">system_settings.h</text>
</a>
</g>
</g>
<!-- Node21&#45;&gt;Node22 -->
<g id="edge27" class="edge">
<title>Node21&#45;&gt;Node22</title>
<path fill="none" stroke="#63b8ff" d="M1235.69,-236.04C1247.48,-223.59 1264.5,-205.61 1276.93,-192.47"/>
<polygon fill="#63b8ff" stroke="#63b8ff" points="1279.31,-195.05 1283.64,-185.39 1274.22,-190.24 1279.31,-195.05"/>
</g>
<!-- Node23 -->
<g id="node23" class="node">
<title>Node23</title>
<g id="a_node23"><a xlink:title=" ">
<polygon fill="#e0e0e0" stroke="#999999" points="1226.5,-184 1167.5,-184 1167.5,-165 1226.5,-165 1226.5,-184"/>
<text text-anchor="middle" x="1197" y="-172" font-family="Helvetica,sans-Serif" font-size="10.00">DS1820.h</text>
</a>
</g>
</g>
<!-- Node21&#45;&gt;Node23 -->
<g id="edge28" class="edge">
<title>Node21&#45;&gt;Node23</title>
<path fill="none" stroke="#63b8ff" d="M1217.18,-236.04C1213.31,-224.43 1207.83,-208 1203.56,-195.19"/>
<polygon fill="#63b8ff" stroke="#63b8ff" points="1206.89,-194.1 1200.41,-185.72 1200.25,-196.32 1206.89,-194.1"/>
</g>
<!-- Node24&#45;&gt;Node11 -->
<g id="edge30" class="edge">
<title>Node24&#45;&gt;Node11</title>
<path fill="none" stroke="#63b8ff" d="M592.67,-87.56C606.38,-84.06 622.4,-80.14 637,-77 734.59,-56 850.78,-36.47 908.21,-27.18"/>
<polygon fill="#63b8ff" stroke="#63b8ff" points="908.41,-30.69 917.72,-25.65 907.3,-23.78 908.41,-30.69"/>
</g>
<!-- Node26&#45;&gt;Node11 -->
<g id="edge33" class="edge">
<title>Node26&#45;&gt;Node11</title>
<path fill="none" stroke="#63b8ff" d="M756.09,-241.56C774.12,-224.01 815.95,-184.12 854,-154 876.04,-136.55 888.54,-140.03 906,-118 924.24,-94.99 934.66,-62.13 939.82,-41.32"/>
<polygon fill="#63b8ff" stroke="#63b8ff" points="943.17,-42.36 941.99,-31.84 936.35,-40.8 943.17,-42.36"/>
</g>
<!-- Node27 -->
<g id="node27" class="node">
<title>Node27</title>
<g id="a_node27"><a xlink:href="port__config_8h.html" target="_top" xlink:title="Archivo de configuración para los puertos de la placa donde se implementará el sistema.">
<polygon fill="white" stroke="#666666" points="935,-184 863,-184 863,-165 935,-165 935,-184"/>
<text text-anchor="middle" x="899" y="-172" font-family="Helvetica,sans-Serif" font-size="10.00">port_config.h</text>
</a>
</g>
</g>
<!-- Node26&#45;&gt;Node27 -->
<g id="edge34" class="edge">
<title>Node26&#45;&gt;Node27</title>
<path fill="none" stroke="#63b8ff" d="M765.03,-241.6C791.2,-228.69 839.94,-204.64 870.86,-189.38"/>
<polygon fill="#63b8ff" stroke="#63b8ff" points="872.21,-192.62 879.63,-185.06 869.12,-186.34 872.21,-192.62"/>
</g>
<!-- Node28&#45;&gt;Node11 -->
<g id="edge36" class="edge">
<title>Node28&#45;&gt;Node11</title>
<path fill="none" stroke="#63b8ff" d="M868.66,-241.53C894.29,-229.93 935.63,-209.51 944,-195 972.42,-145.74 958.92,-74.76 949.87,-40.9"/>
<polygon fill="#63b8ff" stroke="#63b8ff" points="953.35,-40.33 947.24,-31.67 946.62,-42.24 953.35,-40.33"/>
</g>
<!-- Node28&#45;&gt;Node27 -->
<g id="edge37" class="edge">
<title>Node28&#45;&gt;Node27</title>
<path fill="none" stroke="#63b8ff" d="M854.05,-241.6C862.03,-229.87 876.25,-208.96 886.56,-193.79"/>
<polygon fill="#63b8ff" stroke="#63b8ff" points="889.38,-195.88 892.11,-185.64 883.59,-191.94 889.38,-195.88"/>
</g>
<!-- Node29&#45;&gt;Node11 -->
<g id="edge39" class="edge">
<title>Node29&#45;&gt;Node11</title>
<path fill="none" stroke="#63b8ff" d="M1107.05,-241.62C1106.78,-223.83 1104.27,-183.05 1088,-154 1058.51,-101.35 1000.62,-57.98 967.93,-36.35"/>
<polygon fill="#63b8ff" stroke="#63b8ff" points="970.23,-33.67 959.93,-31.17 966.43,-39.54 970.23,-33.67"/>
</g>
<!-- Node29&#45;&gt;Node22 -->
<g id="edge41" class="edge">
<title>Node29&#45;&gt;Node22</title>
<path fill="none" stroke="#63b8ff" d="M1129.07,-241.6C1161.65,-228.46 1222.83,-203.8 1260.53,-188.59"/>
<polygon fill="#63b8ff" stroke="#63b8ff" points="1261.59,-191.94 1269.56,-184.95 1258.97,-185.45 1261.59,-191.94"/>
</g>
<!-- Node29&#45;&gt;Node25 -->
<g id="edge40" class="edge">
<title>Node29&#45;&gt;Node25</title>
<path fill="none" stroke="#63b8ff" d="M1100.71,-241.6C1092.42,-229.87 1077.64,-208.96 1066.92,-193.79"/>
<polygon fill="#63b8ff" stroke="#63b8ff" points="1069.78,-191.77 1061.15,-185.62 1064.07,-195.81 1069.78,-191.77"/>
</g>
<!-- Node30&#45;&gt;Node11 -->
<g id="edge43" class="edge">
<title>Node30&#45;&gt;Node11</title>
<path fill="none" stroke="#63b8ff" d="M962.34,-236.34C967.59,-225.39 974.2,-209.66 977,-195 986.84,-143.49 990.9,-127.57 977,-77 973.26,-63.38 965.2,-49.72 957.99,-39.36"/>
<polygon fill="#63b8ff" stroke="#63b8ff" points="960.9,-37.41 952.15,-31.45 955.27,-41.57 960.9,-37.41"/>
</g>
<!-- Node30&#45;&gt;Node25 -->
<g id="edge44" class="edge">
<title>Node30&#45;&gt;Node25</title>
<path fill="none" stroke="#63b8ff" d="M974.09,-236.04C991.16,-223.11 1016.1,-204.21 1033.56,-190.98"/>
<polygon fill="#63b8ff" stroke="#63b8ff" points="1035.34,-194.03 1041.19,-185.2 1031.11,-188.45 1035.34,-194.03"/>
</g>
<!-- Node31&#45;&gt;Node11 -->
<g id="edge46" class="edge">
<title>Node31&#45;&gt;Node11</title>
<path fill="none" stroke="#63b8ff" d="M1438.77,-241.65C1425.05,-222.81 1390.32,-178.47 1351,-154 1227.03,-76.86 1053.6,-40.08 979.66,-27.15"/>
<polygon fill="#63b8ff" stroke="#63b8ff" points="980.61,-23.76 970.16,-25.53 979.43,-30.66 980.61,-23.76"/>
</g>
<!-- Node31&#45;&gt;Node22 -->
<g id="edge47" class="edge">
<title>Node31&#45;&gt;Node22</title>
<path fill="none" stroke="#63b8ff" d="M1426.97,-241.6C1400.8,-228.69 1352.06,-204.64 1321.14,-189.38"/>
<polygon fill="#63b8ff" stroke="#63b8ff" points="1322.88,-186.34 1312.37,-185.06 1319.79,-192.62 1322.88,-186.34"/>
</g>
<!-- Node32&#45;&gt;Node2 -->
<g id="edge49" class="edge">
<title>Node32&#45;&gt;Node2</title>
<path fill="none" stroke="#63b8ff" d="M447.24,-263.25C464.8,-266.26 483.63,-269.4 501,-272 602.68,-287.2 721.24,-301.3 790.23,-309.4"/>
<polygon fill="#63b8ff" stroke="#63b8ff" points="789.43,-312.83 799.77,-310.52 790.25,-305.88 789.43,-312.83"/>
</g>
<!-- Node32&#45;&gt;Node7 -->
<g id="edge50" class="edge">
<title>Node32&#45;&gt;Node7</title>
<path fill="none" stroke="#63b8ff" d="M358,-230.77C331.12,-206.01 285.14,-161.51 252,-118 235.91,-96.87 220.78,-70.85 210.15,-51.15"/>
<polygon fill="#63b8ff" stroke="#63b8ff" points="213.37,-49.74 205.59,-42.54 207.18,-53.02 213.37,-49.74"/>
</g>
<!-- Node32&#45;&gt;Node33 -->
<g id="edge51" class="edge">
<title>Node32&#45;&gt;Node33</title>
<path fill="none" stroke="#63b8ff" d="M331.97,-230.6C309.16,-221.15 281.7,-209.77 257.67,-199.81"/>
<polygon fill="#63b8ff" stroke="#63b8ff" points="259.23,-196.67 248.65,-196.07 256.55,-203.14 259.23,-196.67"/>
</g>
<!-- Node33&#45;&gt;Node1 -->
<g id="edge54" class="edge">
<title>Node33&#45;&gt;Node1</title>
<path fill="none" stroke="#63b8ff" d="M193.51,-195.41C179.44,-230.9 143.82,-305.76 119.1,-352.61"/>
<polygon fill="#63b8ff" stroke="#63b8ff" points="116.03,-350.92 114.41,-361.39 122.21,-354.22 116.03,-350.92"/>
</g>
<!-- Node33&#45;&gt;Node2 -->
<g id="edge52" class="edge">
<title>Node33&#45;&gt;Node2</title>
<path fill="none" stroke="#63b8ff" d="M213.53,-195.14C231.79,-218.11 265.44,-255.13 304,-272 389.89,-309.58 667.99,-315.65 789.87,-316.47"/>
<polygon fill="#63b8ff" stroke="#63b8ff" points="789.63,-319.97 799.65,-316.53 789.67,-312.97 789.63,-319.97"/>
</g>
<!-- Node33&#45;&gt;Node7 -->
<g id="edge53" class="edge">
<title>Node33&#45;&gt;Node7</title>
<path fill="none" stroke="#63b8ff" d="M198.48,-153.63C197.8,-127.91 196.61,-82.82 195.82,-52.56"/>
<polygon fill="#63b8ff" stroke="#63b8ff" points="199.32,-52.79 195.56,-42.89 192.33,-52.98 199.32,-52.79"/>
</g>
<!-- Node33&#45;&gt;Node34 -->
<g id="edge55" class="edge">
<title>Node33&#45;&gt;Node34</title>
<path fill="none" stroke="#63b8ff" d="M174.83,-153.79C164.24,-145.16 151.65,-134.9 140.2,-125.57"/>
<polygon fill="#63b8ff" stroke="#63b8ff" points="142.47,-122.9 132.5,-119.29 138.04,-128.32 142.47,-122.9"/>
</g>
<!-- Node34&#45;&gt;Node1 -->
<g id="edge58" class="edge">
<title>Node34&#45;&gt;Node1</title>
<path fill="none" stroke="#63b8ff" d="M109.72,-118.21C111.35,-165.6 106.45,-286.75 100.75,-351.38"/>
<polygon fill="#63b8ff" stroke="#63b8ff" points="97.27,-350.97 99.82,-361.26 104.24,-351.63 97.27,-350.97"/>
</g>
<!-- Node34&#45;&gt;Node2 -->
<g id="edge56" class="edge">
<title>Node34&#45;&gt;Node2</title>
<path fill="none" stroke="#63b8ff" d="M108.09,-118.31C110.11,-139.09 115.82,-171.89 132,-195 166.65,-244.48 187.01,-251.97 244,-272 343.66,-307.02 658.98,-314.48 790.02,-316.07"/>
<polygon fill="#63b8ff" stroke="#63b8ff" points="789.82,-319.57 799.86,-316.18 789.9,-312.57 789.82,-319.57"/>
</g>
<!-- Node34&#45;&gt;Node7 -->
<g id="edge57" class="edge">
<title>Node34&#45;&gt;Node7</title>
<path fill="none" stroke="#63b8ff" d="M130.12,-76.79C140.25,-68.16 152.29,-57.9 163.24,-48.57"/>
<polygon fill="#63b8ff" stroke="#63b8ff" points="165.24,-51.47 170.58,-42.32 160.69,-46.14 165.24,-51.47"/>
</g>
</g>
</svg>
