<?xml version="1.0" encoding="UTF-8" standalone="no"?>
<!DOCTYPE svg PUBLIC "-//W3C//DTD SVG 1.1//EN"
 "http://www.w3.org/Graphics/SVG/1.1/DTD/svg11.dtd">
<!-- Generated by graphviz version 7.0.2 (20221119.0110)
 -->
<!-- Title: C:/Users/juanh/OneDrive/Escritorio/Sistemas Embebidos/Proyecto final/LAL Control MbedOS/src/Port/observer_pattern/Cooler_observer.cpp Pages: 1 -->
<!--zoomable 643 -->
<svg id="main" version="1.1" xmlns="http://www.w3.org/2000/svg" xmlns:xlink="http://www.w3.org/1999/xlink" xml:space="preserve" onload="init(evt)">
<style type="text/css"><![CDATA[
.edge:hover path { stroke: red; }
.edge:hover polygon { stroke: red; fill: red; }
]]></style>
<script type="text/javascript"><![CDATA[
var edges = document.getElementsByTagName('g');
if (edges && edges.length) {
  for (var i=0;i<edges.length;i++) {
    if (edges[i].id.substr(0,4)=='edge') {
      edges[i].setAttribute('class','edge');
    }
  }
}
]]></script>
        <defs>
                <circle id="rim" cx="0" cy="0" r="7"/>
                <circle id="rim2" cx="0" cy="0" r="3.5"/>
                <g id="zoomPlus">
                        <use xlink:href="#rim" fill="#404040">
                                <set attributeName="fill" to="#808080" begin="zoomplus.mouseover" end="zoomplus.mouseout"/>
                        </use>
                        <path d="M-4,0h8M0,-4v8" fill="none" stroke="white" stroke-width="1.5" pointer-events="none"/>
                </g>
                <g id="zoomMin">
                        <use xlink:href="#rim" fill="#404040">
                                <set attributeName="fill" to="#808080" begin="zoomminus.mouseover" end="zoomminus.mouseout"/>
                        </use>
                        <path d="M-4,0h8" fill="none" stroke="white" stroke-width="1.5" pointer-events="none"/>
                </g>
                <g id="dirArrow">
                        <path fill="none" stroke="white" stroke-width="1.5" d="M0,-3.0v7 M-2.5,-0.5L0,-3.0L2.5,-0.5"/>
                </g>
               <g id="resetDef">
                       <use xlink:href="#rim2" fill="#404040">
                               <set attributeName="fill" to="#808080" begin="reset.mouseover" end="reset.mouseout"/>
                       </use>
               </g>
        </defs>

<script type="text/javascript">
var viewWidth = 1761;
var viewHeight = 643;
var sectionId = 'dynsection-0';
</script>
<script xlink:href="svgpan.js"/>
<svg id="graph" class="graph">
<g id="viewport">
<title>C:/Users/juanh/OneDrive/Escritorio/Sistemas Embebidos/Proyecto final/LAL Control MbedOS/src/Port/observer_pattern/Cooler_observer.cpp</title>
<!-- Node1 -->
<g id="node1" class="node">
<title>Node1</title>
<g id="a_node1"><a xlink:title="Implementación de Cooler_observer.h.">
<polygon fill="#999999" stroke="#666666" points="216.36,-635 46.36,-635 46.36,-572 216.36,-572 216.36,-635"/>
<text text-anchor="start" x="54.36" y="-623" font-family="Helvetica,sans-Serif" font-size="10.00">C:/Users/juanh/OneDrive</text>
<text text-anchor="start" x="54.36" y="-612" font-family="Helvetica,sans-Serif" font-size="10.00">/Escritorio/Sistemas Embebidos</text>
<text text-anchor="start" x="54.36" y="-601" font-family="Helvetica,sans-Serif" font-size="10.00">/Proyecto final/LAL Control</text>
<text text-anchor="start" x="54.36" y="-590" font-family="Helvetica,sans-Serif" font-size="10.00"> MbedOS/src/Port/observer_pattern</text>
<text text-anchor="middle" x="131.36" y="-579" font-family="Helvetica,sans-Serif" font-size="10.00">/Cooler_observer.cpp</text>
</a>
</g>
</g>
<!-- Node2 -->
<g id="node2" class="node">
<title>Node2</title>
<g id="a_node2"><a xlink:href="_cooler__observer_8h_source.html" target="_top" xlink:title=" ">
<polygon fill="white" stroke="#666666" points="418.36,-536 286.36,-536 286.36,-506 418.36,-506 418.36,-536"/>
<text text-anchor="start" x="294.36" y="-524" font-family="Helvetica,sans-Serif" font-size="10.00">observer_pattern/observers</text>
<text text-anchor="middle" x="352.36" y="-513" font-family="Helvetica,sans-Serif" font-size="10.00">/Cooler_observer.h</text>
</a>
</g>
</g>
<!-- Node1&#45;&gt;Node2 -->
<g id="edge1" class="edge">
<title>Node1&#45;&gt;Node2</title>
<path fill="none" stroke="#63b8ff" d="M216.17,-571.61C245.25,-561.02 276.84,-549.51 302.27,-540.25"/>
<polygon fill="#63b8ff" stroke="#63b8ff" points="303.14,-543.65 311.34,-536.94 300.75,-537.08 303.14,-543.65"/>
</g>
<!-- Node15 -->
<g id="node15" class="node">
<title>Node15</title>
<g id="a_node15"><a xlink:title=" ">
<polygon fill="#e0e0e0" stroke="#999999" points="129.36,-107 81.36,-107 81.36,-88 129.36,-88 129.36,-107"/>
<text text-anchor="middle" x="105.36" y="-95" font-family="Helvetica,sans-Serif" font-size="10.00">stdlib.h</text>
</a>
</g>
</g>
<!-- Node1&#45;&gt;Node15 -->
<g id="edge66" class="edge">
<title>Node1&#45;&gt;Node15</title>
<path fill="none" stroke="#63b8ff" d="M79.23,-571.57C43.07,-545.76 1.36,-505.31 1.36,-456 1.36,-456 1.36,-456 1.36,-250.5 1.36,-206.79 -4.08,-190.24 20.36,-154 32.96,-135.31 54.19,-121.44 72.28,-112.25"/>
<polygon fill="#63b8ff" stroke="#63b8ff" points="73.6,-115.49 81.11,-108.02 70.58,-109.18 73.6,-115.49"/>
</g>
<!-- Node3 -->
<g id="node3" class="node">
<title>Node3</title>
<g id="a_node3"><a xlink:href="_system__observer_8h.html" target="_top" xlink:title="Clase observador del sistema de control.">
<polygon fill="white" stroke="#666666" points="658.36,-470 526.36,-470 526.36,-440 658.36,-440 658.36,-470"/>
<text text-anchor="start" x="534.36" y="-458" font-family="Helvetica,sans-Serif" font-size="10.00">observer_pattern/observers</text>
<text text-anchor="middle" x="592.36" y="-447" font-family="Helvetica,sans-Serif" font-size="10.00">/System_observer.h</text>
</a>
</g>
</g>
<!-- Node2&#45;&gt;Node3 -->
<g id="edge2" class="edge">
<title>Node2&#45;&gt;Node3</title>
<path fill="none" stroke="#63b8ff" d="M406.52,-505.56C442.38,-495.99 489.61,-483.4 527.48,-473.3"/>
<polygon fill="#63b8ff" stroke="#63b8ff" points="528.17,-476.74 536.94,-470.78 526.37,-469.97 528.17,-476.74"/>
</g>
<!-- Node7 -->
<g id="node7" class="node">
<title>Node7</title>
<g id="a_node7"><a xlink:href="_control__system_8h_source.html" target="_top" xlink:title=" ">
<polygon fill="white" stroke="#666666" points="1059.86,-404 966.86,-404 966.86,-385 1059.86,-385 1059.86,-404"/>
<text text-anchor="middle" x="1013.36" y="-392" font-family="Helvetica,sans-Serif" font-size="10.00">Control_system.h</text>
</a>
</g>
</g>
<!-- Node2&#45;&gt;Node7 -->
<g id="edge64" class="edge">
<title>Node2&#45;&gt;Node7</title>
<path fill="none" stroke="#63b8ff" d="M418.61,-510.56C482.48,-501.21 581.77,-486 667.36,-470 773.56,-450.15 897.1,-422.42 964.06,-407"/>
<polygon fill="#63b8ff" stroke="#63b8ff" points="964.67,-410.46 973.62,-404.8 963.09,-403.64 964.67,-410.46"/>
</g>
<!-- Node14 -->
<g id="node14" class="node">
<title>Node14</title>
<g id="a_node14"><a xlink:title=" ">
<polygon fill="#e0e0e0" stroke="#999999" points="688.86,-107 639.86,-107 639.86,-88 688.86,-88 688.86,-107"/>
<text text-anchor="middle" x="664.36" y="-95" font-family="Helvetica,sans-Serif" font-size="10.00">mbed.h</text>
</a>
</g>
</g>
<!-- Node2&#45;&gt;Node14 -->
<g id="edge65" class="edge">
<title>Node2&#45;&gt;Node14</title>
<path fill="none" stroke="#63b8ff" d="M338.69,-505.61C319.35,-483.68 286.36,-439.78 286.36,-395.5 286.36,-395.5 286.36,-395.5 286.36,-327.5 286.36,-282.31 288.6,-265 318.36,-231 342.45,-203.48 359.73,-211.51 392.36,-195 427.31,-177.32 434.01,-168.57 470.36,-154 523.96,-132.51 588.97,-115.69 628.47,-106.43"/>
<polygon fill="#63b8ff" stroke="#63b8ff" points="629.2,-109.85 638.15,-104.19 627.62,-103.03 629.2,-109.85"/>
</g>
<!-- Node4 -->
<g id="node4" class="node">
<title>Node4</title>
<g id="a_node4"><a xlink:href="_observer_8h.html" target="_top" xlink:title="Clase observador.">
<polygon fill="white" stroke="#666666" points="484.36,-343.5 352.36,-343.5 352.36,-313.5 484.36,-313.5 484.36,-343.5"/>
<text text-anchor="start" x="360.36" y="-331.5" font-family="Helvetica,sans-Serif" font-size="10.00">observer_pattern/observers</text>
<text text-anchor="middle" x="418.36" y="-320.5" font-family="Helvetica,sans-Serif" font-size="10.00">/Observer.h</text>
</a>
</g>
</g>
<!-- Node3&#45;&gt;Node4 -->
<g id="edge3" class="edge">
<title>Node3&#45;&gt;Node4</title>
<path fill="none" stroke="#63b8ff" d="M572.4,-439.72C541.88,-417.88 483.45,-376.07 447.98,-350.69"/>
<polygon fill="#63b8ff" stroke="#63b8ff" points="450.02,-347.85 439.85,-344.88 445.95,-353.54 450.02,-347.85"/>
</g>
<!-- Node3&#45;&gt;Node7 -->
<g id="edge6" class="edge">
<title>Node3&#45;&gt;Node7</title>
<path fill="none" stroke="#63b8ff" d="M658.56,-444.08C740.31,-432.41 877.89,-413.32 955.57,-402.88"/>
<polygon fill="#63b8ff" stroke="#63b8ff" points="955.64,-406.4 965.08,-401.61 954.71,-399.47 955.64,-406.4"/>
</g>
<!-- Node5 -->
<g id="node5" class="node">
<title>Node5</title>
<g id="a_node5"><a xlink:href="_subject__interface_8h.html" target="_top" xlink:title="Clase para interfaz para implementar el sujeto.">
<polygon fill="white" stroke="#666666" points="630.36,-266.5 502.36,-266.5 502.36,-236.5 630.36,-236.5 630.36,-266.5"/>
<text text-anchor="start" x="510.36" y="-254.5" font-family="Helvetica,sans-Serif" font-size="10.00">observer_pattern/subjects</text>
<text text-anchor="middle" x="566.36" y="-243.5" font-family="Helvetica,sans-Serif" font-size="10.00">/Subject_interface.h</text>
</a>
</g>
</g>
<!-- Node4&#45;&gt;Node5 -->
<g id="edge4" class="edge">
<title>Node4&#45;&gt;Node5</title>
<path fill="none" stroke="#63b8ff" d="M446.9,-313.04C469.93,-301.37 502.56,-284.83 527.9,-271.99"/>
<polygon fill="#63b8ff" stroke="#63b8ff" points="529.22,-275.24 536.56,-267.6 526.06,-269 529.22,-275.24"/>
</g>
<!-- Node6 -->
<g id="node6" class="node">
<title>Node6</title>
<g id="a_node6"><a xlink:href="_observer__interface_8h.html" target="_top" xlink:title="Clase para interfaz para implementar el observador.">
<polygon fill="white" stroke="#666666" points="484.36,-266.5 352.36,-266.5 352.36,-236.5 484.36,-236.5 484.36,-266.5"/>
<text text-anchor="start" x="360.36" y="-254.5" font-family="Helvetica,sans-Serif" font-size="10.00">observer_pattern/observers</text>
<text text-anchor="middle" x="418.36" y="-243.5" font-family="Helvetica,sans-Serif" font-size="10.00">/Observer_interface.h</text>
</a>
</g>
</g>
<!-- Node4&#45;&gt;Node6 -->
<g id="edge5" class="edge">
<title>Node4&#45;&gt;Node6</title>
<path fill="none" stroke="#63b8ff" d="M418.36,-313.04C418.36,-303.18 418.36,-289.86 418.36,-278.22"/>
<polygon fill="#63b8ff" stroke="#63b8ff" points="421.86,-278.43 418.36,-268.43 414.86,-278.43 421.86,-278.43"/>
</g>
<!-- Node7&#45;&gt;Node3 -->
<g id="edge26" class="edge">
<title>Node7&#45;&gt;Node3</title>
<path fill="none" stroke="#63b8ff" d="M966.61,-402.64C894.8,-412.98 756.8,-432.18 669.89,-443.95"/>
<polygon fill="#63b8ff" stroke="#63b8ff" points="669.45,-440.48 660.01,-445.29 670.38,-447.42 669.45,-440.48"/>
</g>
<!-- Node8 -->
<g id="node8" class="node">
<title>Node8</title>
<g id="a_node8"><a xlink:href="_subject_8h.html" target="_top" xlink:title=" ">
<polygon fill="white" stroke="#666666" points="630.36,-343.5 502.36,-343.5 502.36,-313.5 630.36,-313.5 630.36,-343.5"/>
<text text-anchor="start" x="510.36" y="-331.5" font-family="Helvetica,sans-Serif" font-size="10.00">observer_pattern/subjects</text>
<text text-anchor="middle" x="566.36" y="-320.5" font-family="Helvetica,sans-Serif" font-size="10.00">/Subject.h</text>
</a>
</g>
</g>
<!-- Node7&#45;&gt;Node8 -->
<g id="edge7" class="edge">
<title>Node7&#45;&gt;Node8</title>
<path fill="none" stroke="#63b8ff" d="M966.39,-390.07C895.19,-384.4 755.91,-371.38 639.36,-349 635.57,-348.27 631.7,-347.46 627.79,-346.58"/>
<polygon fill="#63b8ff" stroke="#63b8ff" points="628.81,-343.22 618.28,-344.32 627.2,-350.03 628.81,-343.22"/>
</g>
<!-- Node9 -->
<g id="node9" class="node">
<title>Node9</title>
<g id="a_node9"><a xlink:href="_machine_8h.html" target="_top" xlink:title="Clase de máquina abstracta.">
<polygon fill="white" stroke="#666666" points="1467.36,-189.5 1351.36,-189.5 1351.36,-159.5 1467.36,-159.5 1467.36,-189.5"/>
<text text-anchor="start" x="1359.36" y="-177.5" font-family="Helvetica,sans-Serif" font-size="10.00">machine_state_pattern</text>
<text text-anchor="middle" x="1409.36" y="-166.5" font-family="Helvetica,sans-Serif" font-size="10.00">/Machine.h</text>
</a>
</g>
</g>
<!-- Node7&#45;&gt;Node9 -->
<g id="edge10" class="edge">
<title>Node7&#45;&gt;Node9</title>
<path fill="none" stroke="#63b8ff" d="M1060.15,-392.09C1165.73,-388.42 1415.26,-376.86 1440.36,-349 1478,-307.24 1445.64,-236.06 1424.38,-199.19"/>
<polygon fill="#63b8ff" stroke="#63b8ff" points="1427.65,-197.85 1419.52,-191.06 1421.64,-201.44 1427.65,-197.85"/>
</g>
<!-- Node11 -->
<g id="node11" class="node">
<title>Node11</title>
<g id="a_node11"><a xlink:href="_display_8h.html" target="_top" xlink:title="Controlador de LCD hd44780 por interfaz I2C.">
<polygon fill="white" stroke="#666666" points="238.36,-338 150.36,-338 150.36,-319 238.36,-319 238.36,-338"/>
<text text-anchor="middle" x="194.36" y="-326" font-family="Helvetica,sans-Serif" font-size="10.00">drivers/Display.h</text>
</a>
</g>
</g>
<!-- Node7&#45;&gt;Node11 -->
<g id="edge12" class="edge">
<title>Node7&#45;&gt;Node11</title>
<path fill="none" stroke="#63b8ff" d="M966.74,-392.21C853.79,-388.74 556.68,-377.42 310.36,-349 290.61,-346.72 269.11,-343.36 250.04,-340.06"/>
<polygon fill="#63b8ff" stroke="#63b8ff" points="250.77,-336.63 240.32,-338.34 249.56,-343.53 250.77,-336.63"/>
</g>
<!-- Node21 -->
<g id="node21" class="node">
<title>Node21</title>
<g id="a_node21"><a xlink:href="user__messages_8h.html" target="_top" xlink:title="Archivo para la configuración de interfaz con el usuario.">
<polygon fill="white" stroke="#666666" points="1311.36,-338 1217.36,-338 1217.36,-319 1311.36,-319 1311.36,-338"/>
<text text-anchor="middle" x="1264.36" y="-326" font-family="Helvetica,sans-Serif" font-size="10.00">user_messages.h</text>
</a>
</g>
</g>
<!-- Node7&#45;&gt;Node21 -->
<g id="edge25" class="edge">
<title>Node7&#45;&gt;Node21</title>
<path fill="none" stroke="#63b8ff" d="M1059.04,-384.57C1098.79,-376.44 1157.8,-363.52 1208.36,-349 1215.37,-346.99 1222.8,-344.59 1229.86,-342.18"/>
<polygon fill="#63b8ff" stroke="#63b8ff" points="1230.85,-345.54 1239.14,-338.94 1228.54,-338.94 1230.85,-345.54"/>
</g>
<!-- Node22 -->
<g id="node22" class="node">
<title>Node22</title>
<g id="a_node22"><a xlink:href="_temperature__sensor_8h.html" target="_top" xlink:title="Controlador para sensor de temperatura DS18B20.">
<polygon fill="white" stroke="#666666" points="1430.86,-343.5 1329.86,-343.5 1329.86,-313.5 1430.86,-313.5 1430.86,-343.5"/>
<text text-anchor="start" x="1337.86" y="-331.5" font-family="Helvetica,sans-Serif" font-size="10.00">drivers/Temperature</text>
<text text-anchor="middle" x="1380.36" y="-320.5" font-family="Helvetica,sans-Serif" font-size="10.00">_sensor.h</text>
</a>
</g>
</g>
<!-- Node7&#45;&gt;Node22 -->
<g id="edge27" class="edge">
<title>Node7&#45;&gt;Node22</title>
<path fill="none" stroke="#63b8ff" d="M1060.11,-389.23C1120.7,-383.12 1229.36,-370.22 1320.36,-349 1322.93,-348.4 1325.54,-347.74 1328.17,-347.04"/>
<polygon fill="#63b8ff" stroke="#63b8ff" points="1328.87,-350.48 1337.53,-344.38 1326.95,-343.75 1328.87,-350.48"/>
</g>
<!-- Node25 -->
<g id="node25" class="node">
<title>Node25</title>
<g id="a_node25"><a xlink:href="_moisture__sensor_8h.html" target="_top" xlink:title="Controlador de sensor de humedad analógico.">
<polygon fill="white" stroke="#666666" points="607.36,-184 479.36,-184 479.36,-165 607.36,-165 607.36,-184"/>
<text text-anchor="middle" x="543.36" y="-172" font-family="Helvetica,sans-Serif" font-size="10.00">drivers/Moisture_sensor.h</text>
</a>
</g>
</g>
<!-- Node7&#45;&gt;Node25 -->
<g id="edge30" class="edge">
<title>Node7&#45;&gt;Node25</title>
<path fill="none" stroke="#63b8ff" d="M966.59,-393.99C821.43,-395.03 385.78,-394.33 343.36,-349 307.53,-310.71 311.62,-272.75 343.36,-231 358.92,-210.53 419.28,-195.64 469.66,-186.46"/>
<polygon fill="#63b8ff" stroke="#63b8ff" points="470.17,-189.93 479.41,-184.74 468.95,-183.03 470.17,-189.93"/>
</g>
<!-- Node26 -->
<g id="node26" class="node">
<title>Node26</title>
<g id="a_node26"><a xlink:href="types_8h.html" target="_top" xlink:title="Archivo de definición de tipos de dato.">
<polygon fill="white" stroke="#666666" points="1000.86,-261 951.86,-261 951.86,-242 1000.86,-242 1000.86,-261"/>
<text text-anchor="middle" x="976.36" y="-249" font-family="Helvetica,sans-Serif" font-size="10.00">types.h</text>
</a>
</g>
</g>
<!-- Node7&#45;&gt;Node26 -->
<g id="edge32" class="edge">
<title>Node7&#45;&gt;Node26</title>
<path fill="none" stroke="#63b8ff" d="M1009.55,-384.78C1005.79,-375.91 1000.08,-361.7 996.36,-349 988.75,-323 982.91,-292.25 979.55,-272.57"/>
<polygon fill="#63b8ff" stroke="#63b8ff" points="983.04,-272.19 977.96,-262.89 976.13,-273.33 983.04,-272.19"/>
</g>
<!-- Node27 -->
<g id="node27" class="node">
<title>Node27</title>
<g id="a_node27"><a xlink:href="_buzzer_8h.html" target="_top" xlink:title="Controlador de Buzzer de 12 milimetros sin oscilador.">
<polygon fill="white" stroke="#666666" points="734.36,-338 648.36,-338 648.36,-319 734.36,-319 734.36,-338"/>
<text text-anchor="middle" x="691.36" y="-326" font-family="Helvetica,sans-Serif" font-size="10.00">drivers/Buzzer.h</text>
</a>
</g>
</g>
<!-- Node7&#45;&gt;Node27 -->
<g id="edge33" class="edge">
<title>Node7&#45;&gt;Node27</title>
<path fill="none" stroke="#63b8ff" d="M966.43,-388.59C912.1,-382.25 820.24,-369.54 743.36,-349 736.68,-347.21 729.66,-344.9 723.01,-342.49"/>
<polygon fill="#63b8ff" stroke="#63b8ff" points="724.31,-339.24 713.72,-338.96 721.83,-345.78 724.31,-339.24"/>
</g>
<!-- Node29 -->
<g id="node29" class="node">
<title>Node29</title>
<g id="a_node29"><a xlink:href="_motor_8h.html" target="_top" xlink:title="Controlador de motor de 220 VAC.">
<polygon fill="white" stroke="#666666" points="832.36,-338 752.36,-338 752.36,-319 832.36,-319 832.36,-338"/>
<text text-anchor="middle" x="792.36" y="-326" font-family="Helvetica,sans-Serif" font-size="10.00">drivers/Motor.h</text>
</a>
</g>
</g>
<!-- Node7&#45;&gt;Node29 -->
<g id="edge36" class="edge">
<title>Node7&#45;&gt;Node29</title>
<path fill="none" stroke="#63b8ff" d="M972.98,-384.57C937.86,-376.44 885.78,-363.52 841.36,-349 835.63,-347.13 829.61,-344.93 823.83,-342.7"/>
<polygon fill="#63b8ff" stroke="#63b8ff" points="825.12,-339.45 814.54,-339 822.53,-345.95 825.12,-339.45"/>
</g>
<!-- Node30 -->
<g id="node30" class="node">
<title>Node30</title>
<g id="a_node30"><a xlink:href="_dual___l_e_d_8h.html" target="_top" xlink:title="Controlador de LED RG con PWM.">
<polygon fill="white" stroke="#666666" points="1097.86,-338 1004.86,-338 1004.86,-319 1097.86,-319 1097.86,-338"/>
<text text-anchor="middle" x="1051.36" y="-326" font-family="Helvetica,sans-Serif" font-size="10.00">drivers/Dual_led.h</text>
</a>
</g>
</g>
<!-- Node7&#45;&gt;Node30 -->
<g id="edge39" class="edge">
<title>Node7&#45;&gt;Node30</title>
<path fill="none" stroke="#63b8ff" d="M1018.64,-384.6C1024.26,-375.14 1033.3,-359.92 1040.45,-347.87"/>
<polygon fill="#63b8ff" stroke="#63b8ff" points="1043.25,-350.01 1045.35,-339.62 1037.23,-346.44 1043.25,-350.01"/>
</g>
<!-- Node31 -->
<g id="node31" class="node">
<title>Node31</title>
<g id="a_node31"><a xlink:href="_digital__dual___l_e_d_8h_source.html" target="_top" xlink:title=" ">
<polygon fill="white" stroke="#666666" points="948.36,-343.5 850.36,-343.5 850.36,-313.5 948.36,-313.5 948.36,-343.5"/>
<text text-anchor="start" x="858.36" y="-331.5" font-family="Helvetica,sans-Serif" font-size="10.00">drivers/Digital_dual</text>
<text text-anchor="middle" x="899.36" y="-320.5" font-family="Helvetica,sans-Serif" font-size="10.00">_led.h</text>
</a>
</g>
</g>
<!-- Node7&#45;&gt;Node31 -->
<g id="edge43" class="edge">
<title>Node7&#45;&gt;Node31</title>
<path fill="none" stroke="#63b8ff" d="M997.51,-384.6C981.42,-375.57 955.97,-361.28 935.01,-349.52"/>
<polygon fill="#63b8ff" stroke="#63b8ff" points="936.9,-346.56 926.47,-344.72 933.48,-352.67 936.9,-346.56"/>
</g>
<!-- Node32 -->
<g id="node32" class="node">
<title>Node32</title>
<g id="a_node32"><a xlink:href="_cooler_8h.html" target="_top" xlink:title="Controlador de ventilador de 12 volts y 5 milímteros.">
<polygon fill="white" stroke="#666666" points="1198.86,-338 1115.86,-338 1115.86,-319 1198.86,-319 1198.86,-338"/>
<text text-anchor="middle" x="1157.36" y="-326" font-family="Helvetica,sans-Serif" font-size="10.00">drivers/Cooler.h</text>
</a>
</g>
</g>
<!-- Node7&#45;&gt;Node32 -->
<g id="edge46" class="edge">
<title>Node7&#45;&gt;Node32</title>
<path fill="none" stroke="#63b8ff" d="M1033.38,-384.6C1057.67,-373.81 1098.85,-355.5 1127.04,-342.98"/>
<polygon fill="#63b8ff" stroke="#63b8ff" points="1128.41,-346.2 1136.12,-338.94 1125.57,-339.8 1128.41,-346.2"/>
</g>
<!-- Node33 -->
<g id="node33" class="node">
<title>Node33</title>
<g id="a_node33"><a xlink:href="_shutdown__state_8h.html" target="_top" xlink:title="Clase de estado de apagado del sistema.">
<polygon fill="white" stroke="#666666" points="1659.36,-349 1525.36,-349 1525.36,-308 1659.36,-308 1659.36,-349"/>
<text text-anchor="start" x="1533.36" y="-337" font-family="Helvetica,sans-Serif" font-size="10.00">machine_state_pattern</text>
<text text-anchor="start" x="1533.36" y="-326" font-family="Helvetica,sans-Serif" font-size="10.00">/machine_states/Shutdown</text>
<text text-anchor="middle" x="1592.36" y="-315" font-family="Helvetica,sans-Serif" font-size="10.00">_state.h</text>
</a>
</g>
</g>
<!-- Node7&#45;&gt;Node33 -->
<g id="edge49" class="edge">
<title>Node7&#45;&gt;Node33</title>
<path fill="none" stroke="#63b8ff" d="M1060.23,-391.36C1147.72,-387.07 1341.11,-375.47 1502.36,-349 1506.19,-348.37 1510.1,-347.66 1514.05,-346.89"/>
<polygon fill="#63b8ff" stroke="#63b8ff" points="1514.67,-350.34 1523.76,-344.9 1513.26,-343.48 1514.67,-350.34"/>
</g>
<!-- Node8&#45;&gt;Node5 -->
<g id="edge8" class="edge">
<title>Node8&#45;&gt;Node5</title>
<path fill="none" stroke="#63b8ff" d="M566.36,-313.04C566.36,-303.18 566.36,-289.86 566.36,-278.22"/>
<polygon fill="#63b8ff" stroke="#63b8ff" points="569.86,-278.43 566.36,-268.43 562.86,-278.43 569.86,-278.43"/>
</g>
<!-- Node8&#45;&gt;Node6 -->
<g id="edge9" class="edge">
<title>Node8&#45;&gt;Node6</title>
<path fill="none" stroke="#63b8ff" d="M537.82,-313.04C514.79,-301.37 482.16,-284.83 456.82,-271.99"/>
<polygon fill="#63b8ff" stroke="#63b8ff" points="458.66,-269 448.16,-267.6 455.5,-275.24 458.66,-269"/>
</g>
<!-- Node10 -->
<g id="node10" class="node">
<title>Node10</title>
<g id="a_node10"><a xlink:href="_abstract__state_8h.html" target="_top" xlink:title="Clase de estado abstracta.">
<polygon fill="white" stroke="#666666" points="1647.36,-41 1519.36,-41 1519.36,0 1647.36,0 1647.36,-41"/>
<text text-anchor="start" x="1527.36" y="-29" font-family="Helvetica,sans-Serif" font-size="10.00">machine_state_pattern</text>
<text text-anchor="start" x="1527.36" y="-18" font-family="Helvetica,sans-Serif" font-size="10.00">/machine_states/Abstract</text>
<text text-anchor="middle" x="1583.36" y="-7" font-family="Helvetica,sans-Serif" font-size="10.00">_state.h</text>
</a>
</g>
</g>
<!-- Node9&#45;&gt;Node10 -->
<g id="edge11" class="edge">
<title>Node9&#45;&gt;Node10</title>
<path fill="none" stroke="#63b8ff" d="M1417.31,-159.21C1429.15,-138.92 1453.08,-101.5 1481.36,-77 1494.86,-65.3 1511.23,-55.06 1526.87,-46.65"/>
<polygon fill="#63b8ff" stroke="#63b8ff" points="1528.39,-49.81 1535.66,-42.1 1525.17,-43.59 1528.39,-49.81"/>
</g>
<!-- Node12 -->
<g id="node12" class="node">
<title>Node12</title>
<g id="a_node12"><a xlink:href="display__settings_8h.html" target="_top" xlink:title="Archivo de configuración de la pantalla.">
<polygon fill="white" stroke="#666666" points="124.86,-184 29.86,-184 29.86,-165 124.86,-165 124.86,-184"/>
<text text-anchor="middle" x="77.36" y="-172" font-family="Helvetica,sans-Serif" font-size="10.00">display_settings.h</text>
</a>
</g>
</g>
<!-- Node11&#45;&gt;Node12 -->
<g id="edge13" class="edge">
<title>Node11&#45;&gt;Node12</title>
<path fill="none" stroke="#63b8ff" d="M178.27,-318.52C162.11,-308.81 137.36,-292.02 121.36,-272 102.61,-248.54 89.9,-215.81 83.13,-195.14"/>
<polygon fill="#63b8ff" stroke="#63b8ff" points="86.52,-194.23 80.21,-185.72 79.83,-196.31 86.52,-194.23"/>
</g>
<!-- Node13 -->
<g id="node13" class="node">
<title>Node13</title>
<g id="a_node13"><a xlink:href="hd44780___i2_cexp_8h.html" target="_top" xlink:title="Adaptación de la biblioteca TextLCD de MbedOS 5. Permite utilizar un LCD hd44780 con un expansor de p...">
<polygon fill="white" stroke="#666666" points="258.36,-261 130.36,-261 130.36,-242 258.36,-242 258.36,-261"/>
<text text-anchor="middle" x="194.36" y="-249" font-family="Helvetica,sans-Serif" font-size="10.00">drivers/hd44780_I2Cexp.h</text>
</a>
</g>
</g>
<!-- Node11&#45;&gt;Node13 -->
<g id="edge14" class="edge">
<title>Node11&#45;&gt;Node13</title>
<path fill="none" stroke="#63b8ff" d="M194.36,-318.6C194.36,-307.33 194.36,-287.55 194.36,-272.56"/>
<polygon fill="#63b8ff" stroke="#63b8ff" points="197.86,-272.9 194.36,-262.9 190.86,-272.9 197.86,-272.9"/>
</g>
<!-- Node13&#45;&gt;Node12 -->
<g id="edge24" class="edge">
<title>Node13&#45;&gt;Node12</title>
<path fill="none" stroke="#63b8ff" d="M180.48,-241.6C160.78,-228.97 124.45,-205.68 100.6,-190.39"/>
<polygon fill="#63b8ff" stroke="#63b8ff" points="102.81,-187.65 92.5,-185.2 99.03,-193.55 102.81,-187.65"/>
</g>
<!-- Node13&#45;&gt;Node14 -->
<g id="edge15" class="edge">
<title>Node13&#45;&gt;Node14</title>
<path fill="none" stroke="#63b8ff" d="M225.73,-241.51C266.2,-229.6 334.06,-208.54 356.36,-195 378.93,-181.29 375.99,-166.29 399.36,-154 474.4,-114.55 575.24,-103.14 628.28,-99.84"/>
<polygon fill="#63b8ff" stroke="#63b8ff" points="628.16,-103.35 637.95,-99.31 627.77,-96.36 628.16,-103.35"/>
</g>
<!-- Node13&#45;&gt;Node15 -->
<g id="edge16" class="edge">
<title>Node13&#45;&gt;Node15</title>
<path fill="none" stroke="#63b8ff" d="M189.32,-241.89C175.31,-217.97 135.67,-150.27 116.3,-117.17"/>
<polygon fill="#63b8ff" stroke="#63b8ff" points="119.41,-115.56 111.33,-108.7 113.36,-119.1 119.41,-115.56"/>
</g>
<!-- Node16 -->
<g id="node16" class="node">
<title>Node16</title>
<g id="a_node16"><a xlink:href="hd44780__instruction__set_8h.html" target="_top" xlink:title="Set de instrucciones del LCD HD44780.">
<polygon fill="white" stroke="#666666" points="347.36,-189.5 243.36,-189.5 243.36,-159.5 347.36,-159.5 347.36,-189.5"/>
<text text-anchor="start" x="251.36" y="-177.5" font-family="Helvetica,sans-Serif" font-size="10.00">hd44780_instruction</text>
<text text-anchor="middle" x="295.36" y="-166.5" font-family="Helvetica,sans-Serif" font-size="10.00">_set.h</text>
</a>
</g>
</g>
<!-- Node13&#45;&gt;Node16 -->
<g id="edge17" class="edge">
<title>Node13&#45;&gt;Node16</title>
<path fill="none" stroke="#63b8ff" d="M206.34,-241.6C221.23,-230.55 247.11,-211.33 267.14,-196.46"/>
<polygon fill="#63b8ff" stroke="#63b8ff" points="268.99,-199.44 274.93,-190.67 264.82,-193.82 268.99,-199.44"/>
</g>
<!-- Node17 -->
<g id="node17" class="node">
<title>Node17</title>
<g id="a_node17"><a xlink:href="utils_8h_source.html" target="_top" xlink:title=" ">
<polygon fill="white" stroke="#666666" points="224.86,-184 181.86,-184 181.86,-165 224.86,-165 224.86,-184"/>
<text text-anchor="middle" x="203.36" y="-172" font-family="Helvetica,sans-Serif" font-size="10.00">utils.h</text>
</a>
</g>
</g>
<!-- Node13&#45;&gt;Node17 -->
<g id="edge19" class="edge">
<title>Node13&#45;&gt;Node17</title>
<path fill="none" stroke="#63b8ff" d="M195.43,-241.6C196.78,-230.33 199.15,-210.55 200.95,-195.56"/>
<polygon fill="#63b8ff" stroke="#63b8ff" points="204.4,-196.23 202.11,-185.89 197.45,-195.4 204.4,-196.23"/>
</g>
<!-- Node16&#45;&gt;Node14 -->
<g id="edge18" class="edge">
<title>Node16&#45;&gt;Node14</title>
<path fill="none" stroke="#63b8ff" d="M342.07,-159.03C348.52,-157.23 355.08,-155.5 361.36,-154 456.79,-131.23 571.05,-112.59 628.14,-103.86"/>
<polygon fill="#63b8ff" stroke="#63b8ff" points="628.57,-107.33 637.93,-102.38 627.52,-100.41 628.57,-107.33"/>
</g>
<!-- Node17&#45;&gt;Node15 -->
<g id="edge22" class="edge">
<title>Node17&#45;&gt;Node15</title>
<path fill="none" stroke="#63b8ff" d="M191.73,-164.6C175.53,-152.2 145.88,-129.51 125.9,-114.22"/>
<polygon fill="#63b8ff" stroke="#63b8ff" points="128.24,-111.6 118.17,-108.31 123.99,-117.16 128.24,-111.6"/>
</g>
<!-- Node18 -->
<g id="node18" class="node">
<title>Node18</title>
<g id="a_node18"><a xlink:title=" ">
<polygon fill="#e0e0e0" stroke="#999999" points="325.86,-107 278.86,-107 278.86,-88 325.86,-88 325.86,-107"/>
<text text-anchor="middle" x="302.36" y="-95" font-family="Helvetica,sans-Serif" font-size="10.00">math.h</text>
</a>
</g>
</g>
<!-- Node17&#45;&gt;Node18 -->
<g id="edge20" class="edge">
<title>Node17&#45;&gt;Node18</title>
<path fill="none" stroke="#63b8ff" d="M215.11,-164.6C231.48,-152.2 261.42,-129.51 281.61,-114.22"/>
<polygon fill="#63b8ff" stroke="#63b8ff" points="283.57,-117.13 289.42,-108.3 279.34,-111.55 283.57,-117.13"/>
</g>
<!-- Node19 -->
<g id="node19" class="node">
<title>Node19</title>
<g id="a_node19"><a xlink:title=" ">
<polygon fill="#e0e0e0" stroke="#999999" points="193.36,-107 147.36,-107 147.36,-88 193.36,-88 193.36,-107"/>
<text text-anchor="middle" x="170.36" y="-95" font-family="Helvetica,sans-Serif" font-size="10.00">stdio.h</text>
</a>
</g>
</g>
<!-- Node17&#45;&gt;Node19 -->
<g id="edge21" class="edge">
<title>Node17&#45;&gt;Node19</title>
<path fill="none" stroke="#63b8ff" d="M199.45,-164.6C194.38,-153.1 185.43,-132.76 178.79,-117.67"/>
<polygon fill="#63b8ff" stroke="#63b8ff" points="182.11,-116.52 174.88,-108.77 175.7,-119.33 182.11,-116.52"/>
</g>
<!-- Node20 -->
<g id="node20" class="node">
<title>Node20</title>
<g id="a_node20"><a xlink:title=" ">
<polygon fill="#e0e0e0" stroke="#999999" points="260.86,-107 211.86,-107 211.86,-88 260.86,-88 260.86,-107"/>
<text text-anchor="middle" x="236.36" y="-95" font-family="Helvetica,sans-Serif" font-size="10.00">string.h</text>
</a>
</g>
</g>
<!-- Node17&#45;&gt;Node20 -->
<g id="edge23" class="edge">
<title>Node17&#45;&gt;Node20</title>
<path fill="none" stroke="#63b8ff" d="M207.28,-164.6C212.34,-153.1 221.29,-132.76 227.93,-117.67"/>
<polygon fill="#63b8ff" stroke="#63b8ff" points="231.02,-119.33 231.84,-108.77 224.61,-116.52 231.02,-119.33"/>
</g>
<!-- Node23 -->
<g id="node23" class="node">
<title>Node23</title>
<g id="a_node23"><a xlink:href="system__settings_8h.html" target="_top" xlink:title="Archivo para la definición de constantes del sistema.">
<polygon fill="white" stroke="#666666" points="1205.86,-261 1108.86,-261 1108.86,-242 1205.86,-242 1205.86,-261"/>
<text text-anchor="middle" x="1157.36" y="-249" font-family="Helvetica,sans-Serif" font-size="10.00">system_settings.h</text>
</a>
</g>
</g>
<!-- Node22&#45;&gt;Node23 -->
<g id="edge28" class="edge">
<title>Node22&#45;&gt;Node23</title>
<path fill="none" stroke="#63b8ff" d="M1337.36,-313.04C1295.92,-299.1 1233.86,-278.23 1194.51,-264.99"/>
<polygon fill="#63b8ff" stroke="#63b8ff" points="1195.83,-261.75 1185.24,-261.88 1193.6,-268.38 1195.83,-261.75"/>
</g>
<!-- Node24 -->
<g id="node24" class="node">
<title>Node24</title>
<g id="a_node24"><a xlink:title=" ">
<polygon fill="#e0e0e0" stroke="#999999" points="1409.86,-261 1350.86,-261 1350.86,-242 1409.86,-242 1409.86,-261"/>
<text text-anchor="middle" x="1380.36" y="-249" font-family="Helvetica,sans-Serif" font-size="10.00">DS1820.h</text>
</a>
</g>
</g>
<!-- Node22&#45;&gt;Node24 -->
<g id="edge29" class="edge">
<title>Node22&#45;&gt;Node24</title>
<path fill="none" stroke="#63b8ff" d="M1380.36,-313.04C1380.36,-301.55 1380.36,-285.34 1380.36,-272.59"/>
<polygon fill="#63b8ff" stroke="#63b8ff" points="1383.86,-272.8 1380.36,-262.8 1376.86,-272.8 1383.86,-272.8"/>
</g>
<!-- Node25&#45;&gt;Node14 -->
<g id="edge31" class="edge">
<title>Node25&#45;&gt;Node14</title>
<path fill="none" stroke="#63b8ff" d="M557.72,-164.6C578.09,-151.97 615.66,-128.68 640.33,-113.39"/>
<polygon fill="#63b8ff" stroke="#63b8ff" points="642.08,-116.43 648.74,-108.18 638.39,-110.48 642.08,-116.43"/>
</g>
<!-- Node27&#45;&gt;Node14 -->
<g id="edge34" class="edge">
<title>Node27&#45;&gt;Node14</title>
<path fill="none" stroke="#63b8ff" d="M690.02,-318.86C688.35,-307.95 685.47,-288.61 683.36,-272 676.33,-216.52 669.56,-150.85 666.33,-118.53"/>
<polygon fill="#63b8ff" stroke="#63b8ff" points="669.82,-118.29 665.35,-108.68 662.86,-118.98 669.82,-118.29"/>
</g>
<!-- Node28 -->
<g id="node28" class="node">
<title>Node28</title>
<g id="a_node28"><a xlink:href="port__config_8h.html" target="_top" xlink:title="Archivo de configuración para los puertos de la placa donde se implementará el sistema.">
<polygon fill="white" stroke="#666666" points="764.36,-261 692.36,-261 692.36,-242 764.36,-242 764.36,-261"/>
<text text-anchor="middle" x="728.36" y="-249" font-family="Helvetica,sans-Serif" font-size="10.00">port_config.h</text>
</a>
</g>
</g>
<!-- Node27&#45;&gt;Node28 -->
<g id="edge35" class="edge">
<title>Node27&#45;&gt;Node28</title>
<path fill="none" stroke="#63b8ff" d="M695.75,-318.6C701.42,-307.1 711.46,-286.76 718.9,-271.67"/>
<polygon fill="#63b8ff" stroke="#63b8ff" points="722.02,-273.26 723.31,-262.74 715.74,-270.16 722.02,-273.26"/>
</g>
<!-- Node29&#45;&gt;Node14 -->
<g id="edge37" class="edge">
<title>Node29&#45;&gt;Node14</title>
<path fill="none" stroke="#63b8ff" d="M792.05,-318.53C791.13,-300.93 787.51,-260.95 773.36,-231 750.81,-183.27 707.24,-138.12 682.56,-114.86"/>
<polygon fill="#63b8ff" stroke="#63b8ff" points="685.23,-112.56 675.51,-108.34 680.48,-117.7 685.23,-112.56"/>
</g>
<!-- Node29&#45;&gt;Node28 -->
<g id="edge38" class="edge">
<title>Node29&#45;&gt;Node28</title>
<path fill="none" stroke="#63b8ff" d="M784.77,-318.6C774.57,-306.65 756.22,-285.15 743.22,-269.92"/>
<polygon fill="#63b8ff" stroke="#63b8ff" points="746.08,-267.87 736.93,-262.54 740.75,-272.42 746.08,-267.87"/>
</g>
<!-- Node30&#45;&gt;Node14 -->
<g id="edge40" class="edge">
<title>Node30&#45;&gt;Node14</title>
<path fill="none" stroke="#63b8ff" d="M1050,-318.74C1046.64,-300.06 1036.3,-256.02 1010.36,-231 920.86,-144.67 769.23,-113.17 700.34,-102.91"/>
<polygon fill="#63b8ff" stroke="#63b8ff" points="701.13,-99.49 690.74,-101.55 700.15,-106.42 701.13,-99.49"/>
</g>
<!-- Node30&#45;&gt;Node23 -->
<g id="edge42" class="edge">
<title>Node30&#45;&gt;Node23</title>
<path fill="none" stroke="#63b8ff" d="M1063.94,-318.6C1081.55,-306.14 1113.82,-283.31 1135.43,-268.01"/>
<polygon fill="#63b8ff" stroke="#63b8ff" points="1137.42,-270.89 1143.57,-262.26 1133.38,-265.18 1137.42,-270.89"/>
</g>
<!-- Node30&#45;&gt;Node26 -->
<g id="edge41" class="edge">
<title>Node30&#45;&gt;Node26</title>
<path fill="none" stroke="#63b8ff" d="M1042.46,-318.6C1030.4,-306.54 1008.6,-284.74 993.35,-269.49"/>
<polygon fill="#63b8ff" stroke="#63b8ff" points="995.86,-267.05 986.32,-262.46 990.91,-272 995.86,-267.05"/>
</g>
<!-- Node31&#45;&gt;Node14 -->
<g id="edge44" class="edge">
<title>Node31&#45;&gt;Node14</title>
<path fill="none" stroke="#63b8ff" d="M889.35,-313.25C866.91,-281.97 809.91,-205.93 750.36,-154 732,-137.99 708.64,-123.21 690.9,-112.93"/>
<polygon fill="#63b8ff" stroke="#63b8ff" points="692.93,-110.06 682.51,-108.18 689.48,-116.15 692.93,-110.06"/>
</g>
<!-- Node31&#45;&gt;Node26 -->
<g id="edge45" class="edge">
<title>Node31&#45;&gt;Node26</title>
<path fill="none" stroke="#63b8ff" d="M914.21,-313.04C927.11,-300.47 945.81,-282.26 959.32,-269.1"/>
<polygon fill="#63b8ff" stroke="#63b8ff" points="961.53,-271.83 966.25,-262.34 956.65,-266.81 961.53,-271.83"/>
</g>
<!-- Node32&#45;&gt;Node14 -->
<g id="edge47" class="edge">
<title>Node32&#45;&gt;Node14</title>
<path fill="none" stroke="#63b8ff" d="M1147.49,-318.62C1111.43,-286.36 986.41,-176.06 938.36,-154 858.6,-117.38 754.81,-104.8 700.73,-100.57"/>
<polygon fill="#63b8ff" stroke="#63b8ff" points="701.09,-97.09 690.86,-99.86 700.58,-104.07 701.09,-97.09"/>
</g>
<!-- Node32&#45;&gt;Node23 -->
<g id="edge48" class="edge">
<title>Node32&#45;&gt;Node23</title>
<path fill="none" stroke="#63b8ff" d="M1157.36,-318.6C1157.36,-307.33 1157.36,-287.55 1157.36,-272.56"/>
<polygon fill="#63b8ff" stroke="#63b8ff" points="1160.86,-272.9 1157.36,-262.9 1153.86,-272.9 1160.86,-272.9"/>
</g>
<!-- Node33&#45;&gt;Node7 -->
<g id="edge50" class="edge">
<title>Node33&#45;&gt;Node7</title>
<path fill="none" stroke="#63b8ff" d="M1525.11,-348.19C1523.52,-348.47 1521.93,-348.74 1520.36,-349 1359.4,-375.42 1166.42,-387.03 1071.59,-391.34"/>
<polygon fill="#63b8ff" stroke="#63b8ff" points="1071.59,-387.83 1061.76,-391.77 1071.9,-394.83 1071.59,-387.83"/>
</g>
<!-- Node33&#45;&gt;Node10 -->
<g id="edge51" class="edge">
<title>Node33&#45;&gt;Node10</title>
<path fill="none" stroke="#63b8ff" d="M1576.45,-307.91C1557.58,-283.29 1527.2,-238.93 1515.36,-195 1501.2,-142.46 1535,-84.07 1559.85,-50.19"/>
<polygon fill="#63b8ff" stroke="#63b8ff" points="1562.41,-52.6 1565.66,-42.52 1556.83,-48.38 1562.41,-52.6"/>
</g>
<!-- Node34 -->
<g id="node34" class="node">
<title>Node34</title>
<g id="a_node34"><a xlink:href="_idle__state_8h.html" target="_top" xlink:title="Clase de estado de reposo.">
<polygon fill="white" stroke="#666666" points="1699.36,-272 1583.36,-272 1583.36,-231 1699.36,-231 1699.36,-272"/>
<text text-anchor="start" x="1591.36" y="-260" font-family="Helvetica,sans-Serif" font-size="10.00">machine_state_pattern</text>
<text text-anchor="start" x="1591.36" y="-249" font-family="Helvetica,sans-Serif" font-size="10.00">/machine_states/Idle</text>
<text text-anchor="middle" x="1641.36" y="-238" font-family="Helvetica,sans-Serif" font-size="10.00">_state.h</text>
</a>
</g>
</g>
<!-- Node33&#45;&gt;Node34 -->
<g id="edge52" class="edge">
<title>Node33&#45;&gt;Node34</title>
<path fill="none" stroke="#63b8ff" d="M1605.23,-307.79C1610.43,-299.85 1616.52,-290.51 1622.22,-281.8"/>
<polygon fill="#63b8ff" stroke="#63b8ff" points="1625.04,-283.89 1627.57,-273.6 1619.17,-280.06 1625.04,-283.89"/>
</g>
<!-- Node34&#45;&gt;Node7 -->
<g id="edge53" class="edge">
<title>Node34&#45;&gt;Node7</title>
<path fill="none" stroke="#63b8ff" d="M1656.6,-272.46C1671.08,-294 1687.96,-328.03 1668.36,-349 1628.09,-392.09 1224.76,-394.59 1071.78,-393.97"/>
<polygon fill="#63b8ff" stroke="#63b8ff" points="1071.87,-390.47 1061.85,-393.92 1071.84,-397.47 1071.87,-390.47"/>
</g>
<!-- Node34&#45;&gt;Node10 -->
<g id="edge54" class="edge">
<title>Node34&#45;&gt;Node10</title>
<path fill="none" stroke="#63b8ff" d="M1668.3,-230.53C1709.57,-197.5 1779.89,-129.86 1742.36,-77 1723.21,-50.02 1689.92,-36.05 1658.73,-28.86"/>
<polygon fill="#63b8ff" stroke="#63b8ff" points="1659.8,-25.51 1649.3,-26.9 1658.38,-32.36 1659.8,-25.51"/>
</g>
<!-- Node35 -->
<g id="node35" class="node">
<title>Node35</title>
<g id="a_node35"><a xlink:href="_alarm__state_8h.html" target="_top" xlink:title="Clase de estado de control del motor.">
<polygon fill="white" stroke="#666666" points="1732.86,-118 1615.86,-118 1615.86,-77 1732.86,-77 1732.86,-118"/>
<text text-anchor="start" x="1623.86" y="-106" font-family="Helvetica,sans-Serif" font-size="10.00">machine_state_pattern</text>
<text text-anchor="start" x="1623.86" y="-95" font-family="Helvetica,sans-Serif" font-size="10.00">/machine_states/Alarm</text>
<text text-anchor="middle" x="1674.36" y="-84" font-family="Helvetica,sans-Serif" font-size="10.00">_state.h</text>
</a>
</g>
</g>
<!-- Node34&#45;&gt;Node35 -->
<g id="edge55" class="edge">
<title>Node34&#45;&gt;Node35</title>
<path fill="none" stroke="#63b8ff" d="M1640.94,-230.63C1644.16,-204.8 1653.75,-159.42 1662.16,-129.16"/>
<polygon fill="#63b8ff" stroke="#63b8ff" points="1665.44,-130.41 1664.89,-119.83 1658.72,-128.45 1665.44,-130.41"/>
</g>
<!-- Node36 -->
<g id="node36" class="node">
<title>Node36</title>
<g id="a_node36"><a xlink:href="_check__instruction__state_8h_source.html" target="_top" xlink:title=" ">
<polygon fill="white" stroke="#666666" points="1642.86,-195 1523.86,-195 1523.86,-154 1642.86,-154 1642.86,-195"/>
<text text-anchor="start" x="1531.86" y="-183" font-family="Helvetica,sans-Serif" font-size="10.00">machine_state_pattern</text>
<text text-anchor="start" x="1531.86" y="-172" font-family="Helvetica,sans-Serif" font-size="10.00">/machine_states/Check</text>
<text text-anchor="middle" x="1583.36" y="-161" font-family="Helvetica,sans-Serif" font-size="10.00">_instruction_state.h</text>
</a>
</g>
</g>
<!-- Node34&#45;&gt;Node36 -->
<g id="edge63" class="edge">
<title>Node34&#45;&gt;Node36</title>
<path fill="none" stroke="#63b8ff" d="M1626.12,-230.79C1619.84,-222.68 1612.45,-213.11 1605.59,-204.24"/>
<polygon fill="#63b8ff" stroke="#63b8ff" points="1608.51,-202.3 1599.62,-196.53 1602.97,-206.58 1608.51,-202.3"/>
</g>
<!-- Node35&#45;&gt;Node7 -->
<g id="edge56" class="edge">
<title>Node35&#45;&gt;Node7</title>
<path fill="none" stroke="#63b8ff" d="M1684.2,-118.4C1706.81,-167.26 1755.47,-293.2 1686.36,-349 1639.09,-387.17 1226.08,-392.7 1071.46,-393.42"/>
<polygon fill="#63b8ff" stroke="#63b8ff" points="1071.85,-389.92 1061.86,-393.46 1071.88,-396.92 1071.85,-389.92"/>
</g>
<!-- Node35&#45;&gt;Node10 -->
<g id="edge57" class="edge">
<title>Node35&#45;&gt;Node10</title>
<path fill="none" stroke="#63b8ff" d="M1650.45,-76.79C1639.98,-68.16 1627.52,-57.9 1616.2,-48.57"/>
<polygon fill="#63b8ff" stroke="#63b8ff" points="1618.54,-45.96 1608.59,-42.3 1614.08,-51.36 1618.54,-45.96"/>
</g>
<!-- Node35&#45;&gt;Node34 -->
<g id="edge58" class="edge">
<title>Node35&#45;&gt;Node34</title>
<path fill="none" stroke="#63b8ff" d="M1674.78,-118.38C1671.55,-144.21 1661.97,-189.59 1653.56,-219.84"/>
<polygon fill="#63b8ff" stroke="#63b8ff" points="1650.28,-218.6 1650.83,-229.18 1657,-220.56 1650.28,-218.6"/>
</g>
<!-- Node35&#45;&gt;Node36 -->
<g id="edge59" class="edge">
<title>Node35&#45;&gt;Node36</title>
<path fill="none" stroke="#63b8ff" d="M1656.15,-118.49C1646.39,-127.15 1634.09,-137.41 1622.36,-146.71"/>
<polygon fill="#63b8ff" stroke="#63b8ff" points="1620.47,-143.75 1614.74,-152.67 1624.78,-149.27 1620.47,-143.75"/>
</g>
<!-- Node36&#45;&gt;Node7 -->
<g id="edge60" class="edge">
<title>Node36&#45;&gt;Node7</title>
<path fill="none" stroke="#63b8ff" d="M1576.09,-195.34C1561.23,-232.74 1523.5,-313.15 1462.36,-349 1397.55,-387 1177.8,-393.04 1071.67,-393.68"/>
<polygon fill="#63b8ff" stroke="#63b8ff" points="1071.72,-390.18 1061.74,-393.72 1071.76,-397.18 1071.72,-390.18"/>
</g>
<!-- Node36&#45;&gt;Node10 -->
<g id="edge61" class="edge">
<title>Node36&#45;&gt;Node10</title>
<path fill="none" stroke="#63b8ff" d="M1583.36,-153.63C1583.36,-127.91 1583.36,-82.82 1583.36,-52.56"/>
<polygon fill="#63b8ff" stroke="#63b8ff" points="1586.86,-52.89 1583.36,-42.89 1579.86,-52.89 1586.86,-52.89"/>
</g>
<!-- Node36&#45;&gt;Node35 -->
<g id="edge62" class="edge">
<title>Node36&#45;&gt;Node35</title>
<path fill="none" stroke="#63b8ff" d="M1601.25,-153.79C1611.05,-145.08 1623.49,-134.69 1635.36,-125.29"/>
<polygon fill="#63b8ff" stroke="#63b8ff" points="1637.34,-128.18 1643.07,-119.27 1633.03,-122.66 1637.34,-128.18"/>
</g>
</g>
</svg>
        <g id="navigator" transform="translate(0 0)" fill="#404254">
                <rect fill="#f2f5e9" fill-opacity="0.5" stroke="#606060" stroke-width=".5" x="0" y="0" width="60" height="60"/>
                <use id="zoomplus" xlink:href="#zoomPlus" x="17" y="9" onmousedown="handleZoom(evt,'in')"/>
                <use id="zoomminus" xlink:href="#zoomMin" x="42" y="9" onmousedown="handleZoom(evt,'out')"/>
                <use id="reset" xlink:href="#resetDef" x="30" y="36" onmousedown="handleReset()"/>
                <g id="arrowUp" xlink:href="#dirArrow" transform="translate(30 24)" onmousedown="handlePan(0,-1)">
                  <use xlink:href="#rim" fill="#404040">
                        <set attributeName="fill" to="#808080" begin="arrowUp.mouseover" end="arrowUp.mouseout"/>
                  </use>
                  <path fill="none" stroke="white" stroke-width="1.5" d="M0,-3.0v7 M-2.5,-0.5L0,-3.0L2.5,-0.5"/>
                </g>
                <g id="arrowRight" xlink:href="#dirArrow" transform="rotate(90) translate(36 -43)" onmousedown="handlePan(1,0)">
                  <use xlink:href="#rim" fill="#404040">
                        <set attributeName="fill" to="#808080" begin="arrowRight.mouseover" end="arrowRight.mouseout"/>
                  </use>
                  <path fill="none" stroke="white" stroke-width="1.5" d="M0,-3.0v7 M-2.5,-0.5L0,-3.0L2.5,-0.5"/>
                </g>
                <g id="arrowDown" xlink:href="#dirArrow" transform="rotate(180) translate(-30 -48)" onmousedown="handlePan(0,1)">
                  <use xlink:href="#rim" fill="#404040">
                        <set attributeName="fill" to="#808080" begin="arrowDown.mouseover" end="arrowDown.mouseout"/>
                  </use>
                  <path fill="none" stroke="white" stroke-width="1.5" d="M0,-3.0v7 M-2.5,-0.5L0,-3.0L2.5,-0.5"/>
                </g>
                <g id="arrowLeft" xlink:href="#dirArrow" transform="rotate(270) translate(-36 17)" onmousedown="handlePan(-1,0)">
                  <use xlink:href="#rim" fill="#404040">
                        <set attributeName="fill" to="#808080" begin="arrowLeft.mouseover" end="arrowLeft.mouseout"/>
                  </use>
                  <path fill="none" stroke="white" stroke-width="1.5" d="M0,-3.0v7 M-2.5,-0.5L0,-3.0L2.5,-0.5"/>
                </g>
        </g>
        <svg viewBox="0 0 15 15" width="100%" height="30px" preserveAspectRatio="xMaxYMin meet">
         <g id="arrow_out" transform="scale(0.3 0.3)">
          <a xlink:href="_cooler__observer_8cpp__incl_org.svg" target="_base">
           <rect id="button" ry="5" rx="5" y="6" x="6" height="38" width="38"
                fill="#f2f5e9" fill-opacity="0.5" stroke="#606060" stroke-width="1.0"/>
           <path id="arrow"
             d="M 11.500037,31.436501 C 11.940474,20.09759 22.043105,11.32322 32.158766,21.979434 L 37.068811,17.246167 C 37.068811,17.246167 37.088388,32 37.088388,32 L 22.160133,31.978069 C 22.160133,31.978069 26.997745,27.140456 26.997745,27.140456 C 18.528582,18.264221 13.291696,25.230495 11.500037,31.436501 z"
             style="fill:#404040;"/>
          </a>
         </g>
        </svg>
</svg>
