<?xml version="1.0" encoding="UTF-8" standalone="no"?>
<!DOCTYPE svg PUBLIC "-//W3C//DTD SVG 1.1//EN"
 "http://www.w3.org/Graphics/SVG/1.1/DTD/svg11.dtd">
<!-- Generated by graphviz version 7.0.2 (20221119.0110)
 -->
<!-- Title: C:/Users/juanh/OneDrive/Escritorio/Sistemas Embebidos/Proyecto final/LAL Control MbedOS/include/drivers/Display.h Pages: 1 -->
<svg width="432pt" height="236pt"
 viewBox="0.00 0.00 432.00 236.00" xmlns="http://www.w3.org/2000/svg" xmlns:xlink="http://www.w3.org/1999/xlink">
<g id="graph0" class="graph" transform="scale(1 1) rotate(0) translate(4 232)">
<title>C:/Users/juanh/OneDrive/Escritorio/Sistemas Embebidos/Proyecto final/LAL Control MbedOS/include/drivers/Display.h</title>
<!-- Node1 -->
<g id="node1" class="node">
<title>Node1</title>
<g id="a_node1"><a xlink:title="Controlador de LCD hd44780 por interfaz I2C.">
<polygon fill="#999999" stroke="#666666" points="195.5,-228 29.5,-228 29.5,-176 195.5,-176 195.5,-228"/>
<text text-anchor="start" x="37.5" y="-216" font-family="Helvetica,sans-Serif" font-size="10.00">C:/Users/juanh/OneDrive</text>
<text text-anchor="start" x="37.5" y="-205" font-family="Helvetica,sans-Serif" font-size="10.00">/Escritorio/Sistemas Embebidos</text>
<text text-anchor="start" x="37.5" y="-194" font-family="Helvetica,sans-Serif" font-size="10.00">/Proyecto final/LAL Control</text>
<text text-anchor="middle" x="112.5" y="-183" font-family="Helvetica,sans-Serif" font-size="10.00"> MbedOS/include/drivers/Display.h</text>
</a>
</g>
</g>
<!-- Node2 -->
<g id="node2" class="node">
<title>Node2</title>
<g id="a_node2"><a xlink:href="display__settings_8h.html" target="_top" xlink:title="Archivo de configuración de la pantalla.">
<polygon fill="white" stroke="#666666" points="95,-140 0,-140 0,-121 95,-121 95,-140"/>
<text text-anchor="middle" x="47.5" y="-128" font-family="Helvetica,sans-Serif" font-size="10.00">display_settings.h</text>
</a>
</g>
</g>
<!-- Node1&#45;&gt;Node2 -->
<g id="edge1" class="edge">
<title>Node1&#45;&gt;Node2</title>
<path fill="none" stroke="#63b8ff" d="M88.67,-175.52C80.24,-166.51 70.98,-156.61 63.38,-148.48"/>
<polygon fill="#63b8ff" stroke="#63b8ff" points="66.05,-146.22 56.67,-141.3 60.94,-151 66.05,-146.22"/>
</g>
<!-- Node3 -->
<g id="node3" class="node">
<title>Node3</title>
<g id="a_node3"><a xlink:href="hd44780___i2_cexp_8h_source.html" target="_top" xlink:title=" ">
<polygon fill="white" stroke="#666666" points="241.5,-140 113.5,-140 113.5,-121 241.5,-121 241.5,-140"/>
<text text-anchor="middle" x="177.5" y="-128" font-family="Helvetica,sans-Serif" font-size="10.00">drivers/hd44780_I2Cexp.h</text>
</a>
</g>
</g>
<!-- Node1&#45;&gt;Node3 -->
<g id="edge2" class="edge">
<title>Node1&#45;&gt;Node3</title>
<path fill="none" stroke="#63b8ff" d="M136.33,-175.52C144.76,-166.51 154.02,-156.61 161.62,-148.48"/>
<polygon fill="#63b8ff" stroke="#63b8ff" points="164.06,-151 168.33,-141.3 158.95,-146.22 164.06,-151"/>
</g>
<!-- Node4 -->
<g id="node4" class="node">
<title>Node4</title>
<g id="a_node4"><a xlink:title=" ">
<polygon fill="#e0e0e0" stroke="#999999" points="121,-19 72,-19 72,0 121,0 121,-19"/>
<text text-anchor="middle" x="96.5" y="-7" font-family="Helvetica,sans-Serif" font-size="10.00">mbed.h</text>
</a>
</g>
</g>
<!-- Node3&#45;&gt;Node4 -->
<g id="edge3" class="edge">
<title>Node3&#45;&gt;Node4</title>
<path fill="none" stroke="#63b8ff" d="M129.76,-120.5C109.77,-114.12 88.43,-103.3 76.5,-85 65.34,-67.88 74.59,-44.71 83.88,-28.77"/>
<polygon fill="#63b8ff" stroke="#63b8ff" points="86.56,-31.08 88.97,-20.76 80.65,-27.33 86.56,-31.08"/>
</g>
<!-- Node5 -->
<g id="node5" class="node">
<title>Node5</title>
<g id="a_node5"><a xlink:title=" ">
<polygon fill="#e0e0e0" stroke="#999999" points="226.5,-19 178.5,-19 178.5,0 226.5,0 226.5,-19"/>
<text text-anchor="middle" x="202.5" y="-7" font-family="Helvetica,sans-Serif" font-size="10.00">stdlib.h</text>
</a>
</g>
</g>
<!-- Node3&#45;&gt;Node5 -->
<g id="edge4" class="edge">
<title>Node3&#45;&gt;Node5</title>
<path fill="none" stroke="#63b8ff" d="M182.92,-120.68C187.97,-111.97 195.2,-98.09 198.5,-85 203.06,-66.95 203.76,-45.68 203.5,-30.5"/>
<polygon fill="#63b8ff" stroke="#63b8ff" points="207.01,-30.77 203.17,-20.89 200.01,-31.01 207.01,-30.77"/>
</g>
<!-- Node6 -->
<g id="node6" class="node">
<title>Node6</title>
<g id="a_node6"><a xlink:href="hd44780__instruction__set_8h_source.html" target="_top" xlink:title=" ">
<polygon fill="white" stroke="#666666" points="189.5,-85 85.5,-85 85.5,-55 189.5,-55 189.5,-85"/>
<text text-anchor="start" x="93.5" y="-73" font-family="Helvetica,sans-Serif" font-size="10.00">hd44780_instruction</text>
<text text-anchor="middle" x="137.5" y="-62" font-family="Helvetica,sans-Serif" font-size="10.00">_set.h</text>
</a>
</g>
</g>
<!-- Node3&#45;&gt;Node6 -->
<g id="edge5" class="edge">
<title>Node3&#45;&gt;Node6</title>
<path fill="none" stroke="#63b8ff" d="M171.6,-120.87C166.82,-113.89 159.87,-103.71 153.48,-94.38"/>
<polygon fill="#63b8ff" stroke="#63b8ff" points="156.54,-92.64 148.01,-86.36 150.76,-96.59 156.54,-92.64"/>
</g>
<!-- Node7 -->
<g id="node7" class="node">
<title>Node7</title>
<g id="a_node7"><a xlink:href="utils_8h_source.html" target="_top" xlink:title=" ">
<polygon fill="white" stroke="#666666" points="290,-79.5 247,-79.5 247,-60.5 290,-60.5 290,-79.5"/>
<text text-anchor="middle" x="268.5" y="-67.5" font-family="Helvetica,sans-Serif" font-size="10.00">utils.h</text>
</a>
</g>
</g>
<!-- Node3&#45;&gt;Node7 -->
<g id="edge7" class="edge">
<title>Node3&#45;&gt;Node7</title>
<path fill="none" stroke="#63b8ff" d="M191.32,-120.62C205.62,-111.42 228.2,-96.91 245.25,-85.94"/>
<polygon fill="#63b8ff" stroke="#63b8ff" points="246.76,-89.14 253.28,-80.79 242.97,-83.25 246.76,-89.14"/>
</g>
<!-- Node6&#45;&gt;Node4 -->
<g id="edge6" class="edge">
<title>Node6&#45;&gt;Node4</title>
<path fill="none" stroke="#63b8ff" d="M127.37,-54.54C121.84,-46.65 114.94,-36.81 109.07,-28.44"/>
<polygon fill="#63b8ff" stroke="#63b8ff" points="112.05,-26.59 103.45,-20.41 106.32,-30.61 112.05,-26.59"/>
</g>
<!-- Node7&#45;&gt;Node5 -->
<g id="edge10" class="edge">
<title>Node7&#45;&gt;Node5</title>
<path fill="none" stroke="#63b8ff" d="M258.48,-60.12C248.59,-51.35 233.24,-37.75 221.12,-27"/>
<polygon fill="#63b8ff" stroke="#63b8ff" points="223.56,-24.49 213.75,-20.47 218.91,-29.72 223.56,-24.49"/>
</g>
<!-- Node8 -->
<g id="node8" class="node">
<title>Node8</title>
<g id="a_node8"><a xlink:title=" ">
<polygon fill="#e0e0e0" stroke="#999999" points="292,-19 245,-19 245,0 292,0 292,-19"/>
<text text-anchor="middle" x="268.5" y="-7" font-family="Helvetica,sans-Serif" font-size="10.00">math.h</text>
</a>
</g>
</g>
<!-- Node7&#45;&gt;Node8 -->
<g id="edge8" class="edge">
<title>Node7&#45;&gt;Node8</title>
<path fill="none" stroke="#63b8ff" d="M268.5,-60.37C268.5,-52.5 268.5,-40.6 268.5,-30.39"/>
<polygon fill="#63b8ff" stroke="#63b8ff" points="272,-30.68 268.5,-20.68 265,-30.68 272,-30.68"/>
</g>
<!-- Node9 -->
<g id="node9" class="node">
<title>Node9</title>
<g id="a_node9"><a xlink:title=" ">
<polygon fill="#e0e0e0" stroke="#999999" points="356.5,-19 310.5,-19 310.5,0 356.5,0 356.5,-19"/>
<text text-anchor="middle" x="333.5" y="-7" font-family="Helvetica,sans-Serif" font-size="10.00">stdio.h</text>
</a>
</g>
</g>
<!-- Node7&#45;&gt;Node9 -->
<g id="edge9" class="edge">
<title>Node7&#45;&gt;Node9</title>
<path fill="none" stroke="#63b8ff" d="M278.37,-60.12C288.11,-51.35 303.22,-37.75 315.16,-27"/>
<polygon fill="#63b8ff" stroke="#63b8ff" points="317.32,-29.77 322.41,-20.48 312.64,-24.57 317.32,-29.77"/>
</g>
<!-- Node10 -->
<g id="node10" class="node">
<title>Node10</title>
<g id="a_node10"><a xlink:title=" ">
<polygon fill="#e0e0e0" stroke="#999999" points="424,-19 375,-19 375,0 424,0 424,-19"/>
<text text-anchor="middle" x="399.5" y="-7" font-family="Helvetica,sans-Serif" font-size="10.00">string.h</text>
</a>
</g>
</g>
<!-- Node7&#45;&gt;Node10 -->
<g id="edge11" class="edge">
<title>Node7&#45;&gt;Node10</title>
<path fill="none" stroke="#63b8ff" d="M288.4,-60.12C309.84,-50.54 344.24,-35.18 369.09,-24.08"/>
<polygon fill="#63b8ff" stroke="#63b8ff" points="370.33,-27.36 378.03,-20.09 367.48,-20.97 370.33,-27.36"/>
</g>
</g>
</svg>
