<?xml version="1.0" encoding="UTF-8" standalone="no"?>
<!DOCTYPE svg PUBLIC "-//W3C//DTD SVG 1.1//EN"
 "http://www.w3.org/Graphics/SVG/1.1/DTD/svg11.dtd">
<!-- Generated by graphviz version 7.0.2 (20221119.0110)
 -->
<!-- Title: C:/Users/juanh/OneDrive/Escritorio/Sistemas Embebidos/Proyecto final/LAL Control MbedOS/include/drivers/Display.h Pages: 1 -->
<svg width="505pt" height="236pt"
 viewBox="0.00 0.00 505.00 236.00" xmlns="http://www.w3.org/2000/svg" xmlns:xlink="http://www.w3.org/1999/xlink">
<g id="graph0" class="graph" transform="scale(1 1) rotate(0) translate(4 232)">
<title>C:/Users/juanh/OneDrive/Escritorio/Sistemas Embebidos/Proyecto final/LAL Control MbedOS/include/drivers/Display.h</title>
<!-- Node1 -->
<g id="node1" class="node">
<title>Node1</title>
<g id="a_node1"><a xlink:title="Controlador de LCD hd44780 por interfaz I2C.">
<polygon fill="#999999" stroke="#666666" points="208.5,-228 42.5,-228 42.5,-176 208.5,-176 208.5,-228"/>
<text text-anchor="start" x="50.5" y="-216" font-family="Helvetica,sans-Serif" font-size="10.00">C:/Users/juanh/OneDrive</text>
<text text-anchor="start" x="50.5" y="-205" font-family="Helvetica,sans-Serif" font-size="10.00">/Escritorio/Sistemas Embebidos</text>
<text text-anchor="start" x="50.5" y="-194" font-family="Helvetica,sans-Serif" font-size="10.00">/Proyecto final/LAL Control</text>
<text text-anchor="middle" x="125.5" y="-183" font-family="Helvetica,sans-Serif" font-size="10.00"> MbedOS/include/drivers/Display.h</text>
</a>
</g>
</g>
<!-- Node2 -->
<g id="node2" class="node">
<title>Node2</title>
<g id="a_node2"><a xlink:href="display__settings_8h.html" target="_top" xlink:title="Archivo de configuración de la pantalla.">
<polygon fill="white" stroke="#666666" points="95,-79.5 0,-79.5 0,-60.5 95,-60.5 95,-79.5"/>
<text text-anchor="middle" x="47.5" y="-67.5" font-family="Helvetica,sans-Serif" font-size="10.00">display_settings.h</text>
</a>
</g>
</g>
<!-- Node1&#45;&gt;Node2 -->
<g id="edge1" class="edge">
<title>Node1&#45;&gt;Node2</title>
<path fill="none" stroke="#63b8ff" d="M110.28,-175.63C95.11,-150.35 72.19,-112.16 58.65,-89.58"/>
<polygon fill="#63b8ff" stroke="#63b8ff" points="61.75,-87.95 53.6,-81.17 55.75,-91.55 61.75,-87.95"/>
</g>
<!-- Node3 -->
<g id="node3" class="node">
<title>Node3</title>
<g id="a_node3"><a xlink:href="hd44780___i2_cexp_8h.html" target="_top" xlink:title="Adaptación de la biblioteca TextLCD de MbedOS 5. Permite utilizar un LCD hd44780 con un expansor de p...">
<polygon fill="white" stroke="#666666" points="251.5,-140 123.5,-140 123.5,-121 251.5,-121 251.5,-140"/>
<text text-anchor="middle" x="187.5" y="-128" font-family="Helvetica,sans-Serif" font-size="10.00">drivers/hd44780_I2Cexp.h</text>
</a>
</g>
</g>
<!-- Node1&#45;&gt;Node3 -->
<g id="edge2" class="edge">
<title>Node1&#45;&gt;Node3</title>
<path fill="none" stroke="#63b8ff" d="M148.23,-175.52C156.18,-166.61 164.91,-156.82 172.12,-148.74"/>
<polygon fill="#63b8ff" stroke="#63b8ff" points="174.69,-151.12 178.73,-141.33 169.47,-146.46 174.69,-151.12"/>
</g>
<!-- Node3&#45;&gt;Node2 -->
<g id="edge12" class="edge">
<title>Node3&#45;&gt;Node2</title>
<path fill="none" stroke="#63b8ff" d="M166.24,-120.62C143.11,-110.95 105.89,-95.4 79.29,-84.28"/>
<polygon fill="#63b8ff" stroke="#63b8ff" points="80.94,-81.18 70.36,-80.55 78.24,-87.64 80.94,-81.18"/>
</g>
<!-- Node4 -->
<g id="node4" class="node">
<title>Node4</title>
<g id="a_node4"><a xlink:title=" ">
<polygon fill="#e0e0e0" stroke="#999999" points="195,-19 146,-19 146,0 195,0 195,-19"/>
<text text-anchor="middle" x="170.5" y="-7" font-family="Helvetica,sans-Serif" font-size="10.00">mbed.h</text>
</a>
</g>
</g>
<!-- Node3&#45;&gt;Node4 -->
<g id="edge3" class="edge">
<title>Node3&#45;&gt;Node4</title>
<path fill="none" stroke="#63b8ff" d="M174.01,-120.75C163.21,-112.87 148.85,-100.21 142.5,-85 134.47,-65.75 145.64,-43.3 156.16,-28.12"/>
<polygon fill="#63b8ff" stroke="#63b8ff" points="158.67,-30.61 161.87,-20.51 153.07,-26.41 158.67,-30.61"/>
</g>
<!-- Node5 -->
<g id="node5" class="node">
<title>Node5</title>
<g id="a_node5"><a xlink:title=" ">
<polygon fill="#e0e0e0" stroke="#999999" points="299.5,-19 251.5,-19 251.5,0 299.5,0 299.5,-19"/>
<text text-anchor="middle" x="275.5" y="-7" font-family="Helvetica,sans-Serif" font-size="10.00">stdlib.h</text>
</a>
</g>
</g>
<!-- Node3&#45;&gt;Node5 -->
<g id="edge4" class="edge">
<title>Node3&#45;&gt;Node5</title>
<path fill="none" stroke="#63b8ff" d="M215,-120.63C232.02,-113.67 252.79,-102.24 264.5,-85 275.4,-68.96 277.36,-46.49 277.08,-30.43"/>
<polygon fill="#63b8ff" stroke="#63b8ff" points="280.59,-30.49 276.58,-20.68 273.6,-30.85 280.59,-30.49"/>
</g>
<!-- Node6 -->
<g id="node6" class="node">
<title>Node6</title>
<g id="a_node6"><a xlink:href="hd44780__instruction__set_8h.html" target="_top" xlink:title="Set de instrucciones del LCD HD44780.">
<polygon fill="white" stroke="#666666" points="255.5,-85 151.5,-85 151.5,-55 255.5,-55 255.5,-85"/>
<text text-anchor="start" x="159.5" y="-73" font-family="Helvetica,sans-Serif" font-size="10.00">hd44780_instruction</text>
<text text-anchor="middle" x="203.5" y="-62" font-family="Helvetica,sans-Serif" font-size="10.00">_set.h</text>
</a>
</g>
</g>
<!-- Node3&#45;&gt;Node6 -->
<g id="edge5" class="edge">
<title>Node3&#45;&gt;Node6</title>
<path fill="none" stroke="#63b8ff" d="M189.86,-120.87C191.65,-114.33 194.2,-104.99 196.62,-96.15"/>
<polygon fill="#63b8ff" stroke="#63b8ff" points="199.98,-97.14 199.24,-86.57 193.23,-95.3 199.98,-97.14"/>
</g>
<!-- Node7 -->
<g id="node7" class="node">
<title>Node7</title>
<g id="a_node7"><a xlink:href="utils_8h_source.html" target="_top" xlink:title=" ">
<polygon fill="white" stroke="#666666" points="363,-79.5 320,-79.5 320,-60.5 363,-60.5 363,-79.5"/>
<text text-anchor="middle" x="341.5" y="-67.5" font-family="Helvetica,sans-Serif" font-size="10.00">utils.h</text>
</a>
</g>
</g>
<!-- Node3&#45;&gt;Node7 -->
<g id="edge7" class="edge">
<title>Node3&#45;&gt;Node7</title>
<path fill="none" stroke="#63b8ff" d="M210.89,-120.62C237.15,-110.64 279.93,-94.39 309.33,-83.22"/>
<polygon fill="#63b8ff" stroke="#63b8ff" points="310.36,-86.57 318.47,-79.75 307.88,-80.03 310.36,-86.57"/>
</g>
<!-- Node6&#45;&gt;Node4 -->
<g id="edge6" class="edge">
<title>Node6&#45;&gt;Node4</title>
<path fill="none" stroke="#63b8ff" d="M195.34,-54.54C190.99,-46.82 185.59,-37.24 180.93,-28.99"/>
<polygon fill="#63b8ff" stroke="#63b8ff" points="184.1,-27.48 176.14,-20.49 178,-30.92 184.1,-27.48"/>
</g>
<!-- Node7&#45;&gt;Node5 -->
<g id="edge10" class="edge">
<title>Node7&#45;&gt;Node5</title>
<path fill="none" stroke="#63b8ff" d="M331.48,-60.12C321.59,-51.35 306.24,-37.75 294.12,-27"/>
<polygon fill="#63b8ff" stroke="#63b8ff" points="296.56,-24.49 286.75,-20.47 291.91,-29.72 296.56,-24.49"/>
</g>
<!-- Node8 -->
<g id="node8" class="node">
<title>Node8</title>
<g id="a_node8"><a xlink:title=" ">
<polygon fill="#e0e0e0" stroke="#999999" points="365,-19 318,-19 318,0 365,0 365,-19"/>
<text text-anchor="middle" x="341.5" y="-7" font-family="Helvetica,sans-Serif" font-size="10.00">math.h</text>
</a>
</g>
</g>
<!-- Node7&#45;&gt;Node8 -->
<g id="edge8" class="edge">
<title>Node7&#45;&gt;Node8</title>
<path fill="none" stroke="#63b8ff" d="M341.5,-60.37C341.5,-52.5 341.5,-40.6 341.5,-30.39"/>
<polygon fill="#63b8ff" stroke="#63b8ff" points="345,-30.68 341.5,-20.68 338,-30.68 345,-30.68"/>
</g>
<!-- Node9 -->
<g id="node9" class="node">
<title>Node9</title>
<g id="a_node9"><a xlink:title=" ">
<polygon fill="#e0e0e0" stroke="#999999" points="429.5,-19 383.5,-19 383.5,0 429.5,0 429.5,-19"/>
<text text-anchor="middle" x="406.5" y="-7" font-family="Helvetica,sans-Serif" font-size="10.00">stdio.h</text>
</a>
</g>
</g>
<!-- Node7&#45;&gt;Node9 -->
<g id="edge9" class="edge">
<title>Node7&#45;&gt;Node9</title>
<path fill="none" stroke="#63b8ff" d="M351.37,-60.12C361.11,-51.35 376.22,-37.75 388.16,-27"/>
<polygon fill="#63b8ff" stroke="#63b8ff" points="390.32,-29.77 395.41,-20.48 385.64,-24.57 390.32,-29.77"/>
</g>
<!-- Node10 -->
<g id="node10" class="node">
<title>Node10</title>
<g id="a_node10"><a xlink:title=" ">
<polygon fill="#e0e0e0" stroke="#999999" points="497,-19 448,-19 448,0 497,0 497,-19"/>
<text text-anchor="middle" x="472.5" y="-7" font-family="Helvetica,sans-Serif" font-size="10.00">string.h</text>
</a>
</g>
</g>
<!-- Node7&#45;&gt;Node10 -->
<g id="edge11" class="edge">
<title>Node7&#45;&gt;Node10</title>
<path fill="none" stroke="#63b8ff" d="M361.4,-60.12C382.84,-50.54 417.24,-35.18 442.09,-24.08"/>
<polygon fill="#63b8ff" stroke="#63b8ff" points="443.33,-27.36 451.03,-20.09 440.48,-20.97 443.33,-27.36"/>
</g>
</g>
</svg>
