<?xml version="1.0" encoding="UTF-8" standalone="no"?>
<!DOCTYPE svg PUBLIC "-//W3C//DTD SVG 1.1//EN"
 "http://www.w3.org/Graphics/SVG/1.1/DTD/svg11.dtd">
<!-- Generated by graphviz version 7.0.2 (20221119.0110)
 -->
<!-- Title: C:/Users/juanh/OneDrive/Escritorio/Facultad/Beca/Proyecto/LAL Control Arduino/src/drivers/Display.cpp Pages: 1 -->
<svg width="505pt" height="181pt"
 viewBox="0.00 0.00 505.00 181.00" xmlns="http://www.w3.org/2000/svg" xmlns:xlink="http://www.w3.org/1999/xlink">
<g id="graph0" class="graph" transform="scale(1 1) rotate(0) translate(4 177)">
<title>C:/Users/juanh/OneDrive/Escritorio/Facultad/Beca/Proyecto/LAL Control Arduino/src/drivers/Display.cpp</title>
<!-- Node1 -->
<g id="node1" class="node">
<title>Node1</title>
<g id="a_node1"><a xlink:title=" ">
<polygon fill="#999999" stroke="#666666" points="281,-173 132,-173 132,-121 281,-121 281,-173"/>
<text text-anchor="start" x="140" y="-161" font-family="Helvetica,sans-Serif" font-size="10.00">C:/Users/juanh/OneDrive</text>
<text text-anchor="start" x="140" y="-150" font-family="Helvetica,sans-Serif" font-size="10.00">/Escritorio/Facultad/Beca</text>
<text text-anchor="start" x="140" y="-139" font-family="Helvetica,sans-Serif" font-size="10.00">/Proyecto/LAL Control Arduino</text>
<text text-anchor="middle" x="206.5" y="-128" font-family="Helvetica,sans-Serif" font-size="10.00">/src/drivers/Display.cpp</text>
</a>
</g>
</g>
<!-- Node2 -->
<g id="node2" class="node">
<title>Node2</title>
<g id="a_node2"><a xlink:href="_display_8h.html" target="_top" xlink:title="Controlador de LCD hd44780 por interfaz I2C.">
<polygon fill="white" stroke="#666666" points="250.5,-85 162.5,-85 162.5,-66 250.5,-66 250.5,-85"/>
<text text-anchor="middle" x="206.5" y="-73" font-family="Helvetica,sans-Serif" font-size="10.00">drivers/Display.h</text>
</a>
</g>
</g>
<!-- Node1&#45;&gt;Node2 -->
<g id="edge1" class="edge">
<title>Node1&#45;&gt;Node2</title>
<path fill="none" stroke="#63b8ff" d="M206.5,-120.52C206.5,-112.67 206.5,-104.15 206.5,-96.71"/>
<polygon fill="#63b8ff" stroke="#63b8ff" points="210,-96.71 206.5,-86.71 203,-96.71 210,-96.71"/>
</g>
<!-- Node3 -->
<g id="node3" class="node">
<title>Node3</title>
<g id="a_node3"><a xlink:title=" ">
<polygon fill="#e0e0e0" stroke="#999999" points="45,-24.5 0,-24.5 0,-5.5 45,-5.5 45,-24.5"/>
<text text-anchor="middle" x="22.5" y="-12.5" font-family="Helvetica,sans-Serif" font-size="10.00">Wire.h</text>
</a>
</g>
</g>
<!-- Node2&#45;&gt;Node3 -->
<g id="edge2" class="edge">
<title>Node2&#45;&gt;Node3</title>
<path fill="none" stroke="#63b8ff" d="M171.07,-65.5C140,-57.29 93.78,-44.28 54.5,-30 53.86,-29.77 53.21,-29.53 52.56,-29.28"/>
<polygon fill="#63b8ff" stroke="#63b8ff" points="53.96,-26.07 43.37,-25.56 51.33,-32.56 53.96,-26.07"/>
</g>
<!-- Node4 -->
<g id="node4" class="node">
<title>Node4</title>
<g id="a_node4"><a xlink:title=" ">
<polygon fill="#e0e0e0" stroke="#999999" points="125.5,-24.5 63.5,-24.5 63.5,-5.5 125.5,-5.5 125.5,-24.5"/>
<text text-anchor="middle" x="94.5" y="-12.5" font-family="Helvetica,sans-Serif" font-size="10.00">hd44780.h</text>
</a>
</g>
</g>
<!-- Node2&#45;&gt;Node4 -->
<g id="edge3" class="edge">
<title>Node2&#45;&gt;Node4</title>
<path fill="none" stroke="#63b8ff" d="M189.49,-65.62C171.48,-56.21 142.79,-41.22 121.65,-30.18"/>
<polygon fill="#63b8ff" stroke="#63b8ff" points="123.5,-27.2 113.01,-25.67 120.26,-33.4 123.5,-27.2"/>
</g>
<!-- Node5 -->
<g id="node5" class="node">
<title>Node5</title>
<g id="a_node5"><a xlink:title=" ">
<polygon fill="#e0e0e0" stroke="#999999" points="269,-30 144,-30 144,0 269,0 269,-30"/>
<text text-anchor="start" x="152" y="-18" font-family="Helvetica,sans-Serif" font-size="10.00">hd44780ioClass/hd44780</text>
<text text-anchor="middle" x="206.5" y="-7" font-family="Helvetica,sans-Serif" font-size="10.00">_I2Cexp.h</text>
</a>
</g>
</g>
<!-- Node2&#45;&gt;Node5 -->
<g id="edge4" class="edge">
<title>Node2&#45;&gt;Node5</title>
<path fill="none" stroke="#63b8ff" d="M206.5,-65.87C206.5,-59.4 206.5,-50.2 206.5,-41.45"/>
<polygon fill="#63b8ff" stroke="#63b8ff" points="210,-41.63 206.5,-31.63 203,-41.63 210,-41.63"/>
</g>
<!-- Node6 -->
<g id="node6" class="node">
<title>Node6</title>
<g id="a_node6"><a xlink:href="display__settings_8h.html" target="_top" xlink:title="Archivo de configuración de la pantalla.">
<polygon fill="white" stroke="#666666" points="382,-24.5 287,-24.5 287,-5.5 382,-5.5 382,-24.5"/>
<text text-anchor="middle" x="334.5" y="-12.5" font-family="Helvetica,sans-Serif" font-size="10.00">display_settings.h</text>
</a>
</g>
</g>
<!-- Node2&#45;&gt;Node6 -->
<g id="edge5" class="edge">
<title>Node2&#45;&gt;Node6</title>
<path fill="none" stroke="#63b8ff" d="M225.94,-65.62C246.8,-56.08 280.21,-40.81 304.46,-29.73"/>
<polygon fill="#63b8ff" stroke="#63b8ff" points="305.86,-32.94 313.5,-25.6 302.95,-26.57 305.86,-32.94"/>
</g>
<!-- Node7 -->
<g id="node7" class="node">
<title>Node7</title>
<g id="a_node7"><a xlink:href="system__settings_8h.html" target="_top" xlink:title="Archivo para la definición de constantes del sistema.">
<polygon fill="white" stroke="#666666" points="497,-24.5 400,-24.5 400,-5.5 497,-5.5 497,-24.5"/>
<text text-anchor="middle" x="448.5" y="-12.5" font-family="Helvetica,sans-Serif" font-size="10.00">system_settings.h</text>
</a>
</g>
</g>
<!-- Node2&#45;&gt;Node7 -->
<g id="edge6" class="edge">
<title>Node2&#45;&gt;Node7</title>
<path fill="none" stroke="#63b8ff" d="M244.07,-65.52C281.46,-56.57 340.46,-42.41 391.5,-30 394.61,-29.24 397.81,-28.46 401.04,-27.67"/>
<polygon fill="#63b8ff" stroke="#63b8ff" points="401.67,-31.13 410.55,-25.35 400,-24.33 401.67,-31.13"/>
</g>
</g>
</svg>
