<?xml version="1.0" encoding="UTF-8" standalone="no"?>
<!DOCTYPE svg PUBLIC "-//W3C//DTD SVG 1.1//EN"
 "http://www.w3.org/Graphics/SVG/1.1/DTD/svg11.dtd">
<!-- Generated by graphviz version 7.0.2 (20221119.0110)
 -->
<!-- Title: C:/Users/juanh/OneDrive/Escritorio/Sistemas Embebidos/Proyecto final/LAL Control MbedOS/include/machine_state_pattern/machine_states/Idle_state.h Pages: 1 -->
<svg width="958pt" height="577pt"
 viewBox="0.00 0.00 958.00 577.00" xmlns="http://www.w3.org/2000/svg" xmlns:xlink="http://www.w3.org/1999/xlink">
<g id="graph0" class="graph" transform="scale(1 1) rotate(0) translate(4 573)">
<title>C:/Users/juanh/OneDrive/Escritorio/Sistemas Embebidos/Proyecto final/LAL Control MbedOS/include/machine_state_pattern/machine_states/Idle_state.h</title>
<!-- Node1 -->
<g id="node1" class="node">
<title>Node1</title>
<g id="a_node1"><a xlink:title="Clase de estado de reposo.">
<polygon fill="#999999" stroke="#666666" points="274.5,-569 97.5,-569 97.5,-506 274.5,-506 274.5,-569"/>
<text text-anchor="start" x="105.5" y="-557" font-family="Helvetica,sans-Serif" font-size="10.00">C:/Users/juanh/OneDrive</text>
<text text-anchor="start" x="105.5" y="-546" font-family="Helvetica,sans-Serif" font-size="10.00">/Escritorio/Sistemas Embebidos</text>
<text text-anchor="start" x="105.5" y="-535" font-family="Helvetica,sans-Serif" font-size="10.00">/Proyecto final/LAL Control</text>
<text text-anchor="start" x="105.5" y="-524" font-family="Helvetica,sans-Serif" font-size="10.00"> MbedOS/include/machine_state</text>
<text text-anchor="middle" x="186" y="-513" font-family="Helvetica,sans-Serif" font-size="10.00">_pattern/machine_states/Idle_state.h</text>
</a>
</g>
</g>
<!-- Node2 -->
<g id="node2" class="node">
<title>Node2</title>
<g id="a_node2"><a xlink:href="_motor__control__state_8h.html" target="_top" xlink:title="Clase de estado de control del motor.">
<polygon fill="white" stroke="#666666" points="158,-283 0,-283 0,-209 158,-209 158,-283"/>
<text text-anchor="start" x="8" y="-271" font-family="Helvetica,sans-Serif" font-size="10.00">C:/Users/juanh/OneDrive</text>
<text text-anchor="start" x="8" y="-260" font-family="Helvetica,sans-Serif" font-size="10.00">/Escritorio/Sistemas Embebidos</text>
<text text-anchor="start" x="8" y="-249" font-family="Helvetica,sans-Serif" font-size="10.00">/Proyecto final/LAL Control</text>
<text text-anchor="start" x="8" y="-238" font-family="Helvetica,sans-Serif" font-size="10.00"> MbedOS/include/machine_state</text>
<text text-anchor="start" x="8" y="-227" font-family="Helvetica,sans-Serif" font-size="10.00">_pattern/machine_states/Motor</text>
<text text-anchor="middle" x="79" y="-216" font-family="Helvetica,sans-Serif" font-size="10.00">_control_state.h</text>
</a>
</g>
</g>
<!-- Node1&#45;&gt;Node2 -->
<g id="edge1" class="edge">
<title>Node1&#45;&gt;Node2</title>
<path fill="none" stroke="#63b8ff" d="M165.81,-495.11C142.26,-438.31 104.94,-337.1 87.72,-283.17"/>
<polygon fill="#63b8ff" stroke="#63b8ff" points="162.49,-496.26 169.59,-504.12 168.95,-493.55 162.49,-496.26"/>
</g>
<!-- Node4 -->
<g id="node4" class="node">
<title>Node4</title>
<g id="a_node4"><a xlink:href="_shutdown__state_8h.html" target="_top" xlink:title="Clase de estado de apagado del sistema.">
<polygon fill="white" stroke="#666666" points="419.5,-470 214.5,-470 214.5,-407 419.5,-407 419.5,-470"/>
<text text-anchor="start" x="222.5" y="-458" font-family="Helvetica,sans-Serif" font-size="10.00">C:/Users/juanh/OneDrive</text>
<text text-anchor="start" x="222.5" y="-447" font-family="Helvetica,sans-Serif" font-size="10.00">/Escritorio/Sistemas Embebidos</text>
<text text-anchor="start" x="222.5" y="-436" font-family="Helvetica,sans-Serif" font-size="10.00">/Proyecto final/LAL Control</text>
<text text-anchor="start" x="222.5" y="-425" font-family="Helvetica,sans-Serif" font-size="10.00"> MbedOS/include/machine_state</text>
<text text-anchor="middle" x="317" y="-414" font-family="Helvetica,sans-Serif" font-size="10.00">_pattern/machine_states/Shutdown_state.h</text>
</a>
</g>
</g>
<!-- Node1&#45;&gt;Node4 -->
<g id="edge6" class="edge">
<title>Node1&#45;&gt;Node4</title>
<path fill="none" stroke="#63b8ff" d="M236.87,-498.84C249.53,-489.46 262.96,-479.51 275.14,-470.5"/>
<polygon fill="#63b8ff" stroke="#63b8ff" points="234.98,-495.88 229.03,-504.64 239.15,-501.5 234.98,-495.88"/>
</g>
<!-- Node2&#45;&gt;Node1 -->
<g id="edge5" class="edge">
<title>Node2&#45;&gt;Node1</title>
<path fill="none" stroke="#63b8ff" d="M101.42,-293.79C125.84,-353.38 163.04,-454.71 178.92,-505.52"/>
<polygon fill="#63b8ff" stroke="#63b8ff" points="104.66,-292.47 97.6,-284.57 98.19,-295.15 104.66,-292.47"/>
</g>
<!-- Node3 -->
<g id="node3" class="node">
<title>Node3</title>
<g id="a_node3"><a xlink:href="_check__instruction__state_8h_source.html" target="_top" xlink:title=" ">
<polygon fill="white" stroke="#666666" points="167,-173 9,-173 9,-99 167,-99 167,-173"/>
<text text-anchor="start" x="17" y="-161" font-family="Helvetica,sans-Serif" font-size="10.00">C:/Users/juanh/OneDrive</text>
<text text-anchor="start" x="17" y="-150" font-family="Helvetica,sans-Serif" font-size="10.00">/Escritorio/Sistemas Embebidos</text>
<text text-anchor="start" x="17" y="-139" font-family="Helvetica,sans-Serif" font-size="10.00">/Proyecto final/LAL Control</text>
<text text-anchor="start" x="17" y="-128" font-family="Helvetica,sans-Serif" font-size="10.00"> MbedOS/include/machine_state</text>
<text text-anchor="start" x="17" y="-117" font-family="Helvetica,sans-Serif" font-size="10.00">_pattern/machine_states/Check</text>
<text text-anchor="middle" x="88" y="-106" font-family="Helvetica,sans-Serif" font-size="10.00">_instruction_state.h</text>
</a>
</g>
</g>
<!-- Node2&#45;&gt;Node3 -->
<g id="edge2" class="edge">
<title>Node2&#45;&gt;Node3</title>
<path fill="none" stroke="#63b8ff" d="M76.25,-197.5C76.82,-189.4 77.61,-181.1 78.55,-173.35"/>
<polygon fill="#63b8ff" stroke="#63b8ff" points="72.77,-197.04 75.69,-207.23 79.76,-197.44 72.77,-197.04"/>
</g>
<!-- Node3&#45;&gt;Node1 -->
<g id="edge3" class="edge">
<title>Node3&#45;&gt;Node1</title>
<path fill="none" stroke="#63b8ff" d="M147.59,-181.31C155.32,-189.65 162.21,-198.95 167,-209 214.54,-308.74 200.94,-445.39 191.56,-505.73"/>
<polygon fill="#63b8ff" stroke="#63b8ff" points="150.22,-178.99 140.69,-174.37 145.26,-183.93 150.22,-178.99"/>
</g>
<!-- Node3&#45;&gt;Node2 -->
<g id="edge4" class="edge">
<title>Node3&#45;&gt;Node2</title>
<path fill="none" stroke="#63b8ff" d="M90.74,-184.6C90.17,-192.7 89.39,-200.99 88.44,-208.74"/>
<polygon fill="#63b8ff" stroke="#63b8ff" points="94.22,-185.05 91.3,-174.86 87.23,-184.64 94.22,-185.05"/>
</g>
<!-- Node5 -->
<g id="node5" class="node">
<title>Node5</title>
<g id="a_node5"><a xlink:href="_control__system_8h_source.html" target="_top" xlink:title=" ">
<polygon fill="white" stroke="#666666" points="407.5,-371 236.5,-371 236.5,-319 407.5,-319 407.5,-371"/>
<text text-anchor="start" x="244.5" y="-359" font-family="Helvetica,sans-Serif" font-size="10.00">C:/Users/juanh/OneDrive</text>
<text text-anchor="start" x="244.5" y="-348" font-family="Helvetica,sans-Serif" font-size="10.00">/Escritorio/Sistemas Embebidos</text>
<text text-anchor="start" x="244.5" y="-337" font-family="Helvetica,sans-Serif" font-size="10.00">/Proyecto final/LAL Control</text>
<text text-anchor="middle" x="322" y="-326" font-family="Helvetica,sans-Serif" font-size="10.00"> MbedOS/include/Control_system.h</text>
</a>
</g>
</g>
<!-- Node4&#45;&gt;Node5 -->
<g id="edge7" class="edge">
<title>Node4&#45;&gt;Node5</title>
<path fill="none" stroke="#63b8ff" d="M312.58,-395.25C312.94,-387.13 313.59,-378.86 314.49,-371.47"/>
<polygon fill="#63b8ff" stroke="#63b8ff" points="309.08,-394.92 312.31,-405.01 316.08,-395.11 309.08,-394.92"/>
</g>
<!-- Node5&#45;&gt;Node1 -->
<g id="edge9" class="edge">
<title>Node5&#45;&gt;Node1</title>
<path fill="none" stroke="#63b8ff" d="M400.52,-377.39C411.9,-385.34 422.09,-395.11 429,-407 443.07,-431.21 445.99,-447.74 429,-470 410,-494.9 336.17,-512.76 274.83,-523.66"/>
<polygon fill="#63b8ff" stroke="#63b8ff" points="402.75,-374.66 392.44,-372.2 398.97,-380.55 402.75,-374.66"/>
</g>
<!-- Node5&#45;&gt;Node2 -->
<g id="edge10" class="edge">
<title>Node5&#45;&gt;Node2</title>
<path fill="none" stroke="#63b8ff" d="M247.56,-314.28C219.35,-303.03 187.15,-290.17 158.5,-278.73"/>
<polygon fill="#63b8ff" stroke="#63b8ff" points="246.16,-317.5 256.75,-317.95 248.76,-311 246.16,-317.5"/>
</g>
<!-- Node5&#45;&gt;Node3 -->
<g id="edge8" class="edge">
<title>Node5&#45;&gt;Node3</title>
<path fill="none" stroke="#63b8ff" d="M278.22,-311.65C267.75,-302.93 257.01,-293.09 248,-283 221.9,-253.75 227.78,-236.66 200,-209 186.73,-195.79 170.65,-183.73 154.86,-173.41"/>
<polygon fill="#63b8ff" stroke="#63b8ff" points="275.76,-314.16 285.73,-317.74 280.17,-308.72 275.76,-314.16"/>
</g>
<!-- Node5&#45;&gt;Node4 -->
<g id="edge11" class="edge">
<title>Node5&#45;&gt;Node4</title>
<path fill="none" stroke="#63b8ff" d="M326.62,-382.95C326.39,-390.77 325.88,-398.95 325.12,-406.52"/>
<polygon fill="#63b8ff" stroke="#63b8ff" points="330.12,-383.02 326.72,-372.99 323.12,-382.95 330.12,-383.02"/>
</g>
<!-- Node6 -->
<g id="node6" class="node">
<title>Node6</title>
<g id="a_node6"><a xlink:href="main_8h.html" target="_top" xlink:title="Archivo principal del programa.">
<polygon fill="white" stroke="#666666" points="575.5,-57.5 418.5,-57.5 418.5,-5.5 575.5,-5.5 575.5,-57.5"/>
<text text-anchor="start" x="426.5" y="-45.5" font-family="Helvetica,sans-Serif" font-size="10.00">C:/Users/juanh/OneDrive</text>
<text text-anchor="start" x="426.5" y="-34.5" font-family="Helvetica,sans-Serif" font-size="10.00">/Escritorio/Sistemas Embebidos</text>
<text text-anchor="start" x="426.5" y="-23.5" font-family="Helvetica,sans-Serif" font-size="10.00">/Proyecto final/LAL Control</text>
<text text-anchor="middle" x="497" y="-12.5" font-family="Helvetica,sans-Serif" font-size="10.00"> MbedOS/include/main.h</text>
</a>
</g>
</g>
<!-- Node5&#45;&gt;Node6 -->
<g id="edge12" class="edge">
<title>Node5&#45;&gt;Node6</title>
<path fill="none" stroke="#63b8ff" d="M300.34,-309.12C270.74,-261.32 221.08,-180.48 219,-173 210.19,-141.31 198.63,-124.82 219,-99 243.44,-68.03 344.76,-49.88 418.03,-40.57"/>
<polygon fill="#63b8ff" stroke="#63b8ff" points="297.28,-310.84 305.53,-317.5 303.23,-307.15 297.28,-310.84"/>
</g>
<!-- Node7 -->
<g id="node7" class="node">
<title>Node7</title>
<g id="a_node7"><a xlink:href="_cooler__observer_8h_source.html" target="_top" xlink:title=" ">
<polygon fill="white" stroke="#666666" points="764,-167.5 598,-167.5 598,-104.5 764,-104.5 764,-167.5"/>
<text text-anchor="start" x="606" y="-155.5" font-family="Helvetica,sans-Serif" font-size="10.00">C:/Users/juanh/OneDrive</text>
<text text-anchor="start" x="606" y="-144.5" font-family="Helvetica,sans-Serif" font-size="10.00">/Escritorio/Sistemas Embebidos</text>
<text text-anchor="start" x="606" y="-133.5" font-family="Helvetica,sans-Serif" font-size="10.00">/Proyecto final/LAL Control</text>
<text text-anchor="start" x="606" y="-122.5" font-family="Helvetica,sans-Serif" font-size="10.00"> MbedOS/include/observer_pattern</text>
<text text-anchor="middle" x="681" y="-111.5" font-family="Helvetica,sans-Serif" font-size="10.00">/observers/Cooler_observer.h</text>
</a>
</g>
</g>
<!-- Node5&#45;&gt;Node7 -->
<g id="edge13" class="edge">
<title>Node5&#45;&gt;Node7</title>
<path fill="none" stroke="#63b8ff" d="M419.25,-338.66C471.9,-331.73 535.83,-316.42 584,-283 625.5,-254.2 653.97,-201.36 668.85,-167.77"/>
<polygon fill="#63b8ff" stroke="#63b8ff" points="418.85,-335.18 409.35,-339.87 419.7,-342.13 418.85,-335.18"/>
</g>
<!-- Node8 -->
<g id="node8" class="node">
<title>Node8</title>
<g id="a_node8"><a xlink:href="_instruction__observer_8h.html" target="_top" xlink:title="Observador de instrucciones.">
<polygon fill="white" stroke="#666666" points="948,-167.5 782,-167.5 782,-104.5 948,-104.5 948,-167.5"/>
<text text-anchor="start" x="790" y="-155.5" font-family="Helvetica,sans-Serif" font-size="10.00">C:/Users/juanh/OneDrive</text>
<text text-anchor="start" x="790" y="-144.5" font-family="Helvetica,sans-Serif" font-size="10.00">/Escritorio/Sistemas Embebidos</text>
<text text-anchor="start" x="790" y="-133.5" font-family="Helvetica,sans-Serif" font-size="10.00">/Proyecto final/LAL Control</text>
<text text-anchor="start" x="790" y="-122.5" font-family="Helvetica,sans-Serif" font-size="10.00"> MbedOS/include/observer_pattern</text>
<text text-anchor="middle" x="865" y="-111.5" font-family="Helvetica,sans-Serif" font-size="10.00">/observers/Instruction_observer.h</text>
</a>
</g>
</g>
<!-- Node5&#45;&gt;Node8 -->
<g id="edge15" class="edge">
<title>Node5&#45;&gt;Node8</title>
<path fill="none" stroke="#63b8ff" d="M418.99,-333.62C480.44,-324.89 560.72,-309.44 628,-283 702.44,-253.75 779.68,-201.3 824.99,-167.87"/>
<polygon fill="#63b8ff" stroke="#63b8ff" points="418.67,-330.13 409.24,-334.97 419.62,-337.07 418.67,-330.13"/>
</g>
<!-- Node10 -->
<g id="node10" class="node">
<title>Node10</title>
<g id="a_node10"><a xlink:href="_moisture__observer_8h.html" target="_top" xlink:title="Observador del sensor de temperatura.">
<polygon fill="white" stroke="#666666" points="580,-167.5 414,-167.5 414,-104.5 580,-104.5 580,-167.5"/>
<text text-anchor="start" x="422" y="-155.5" font-family="Helvetica,sans-Serif" font-size="10.00">C:/Users/juanh/OneDrive</text>
<text text-anchor="start" x="422" y="-144.5" font-family="Helvetica,sans-Serif" font-size="10.00">/Escritorio/Sistemas Embebidos</text>
<text text-anchor="start" x="422" y="-133.5" font-family="Helvetica,sans-Serif" font-size="10.00">/Proyecto final/LAL Control</text>
<text text-anchor="start" x="422" y="-122.5" font-family="Helvetica,sans-Serif" font-size="10.00"> MbedOS/include/observer_pattern</text>
<text text-anchor="middle" x="497" y="-111.5" font-family="Helvetica,sans-Serif" font-size="10.00">/observers/Moisture_observer.h</text>
</a>
</g>
</g>
<!-- Node5&#45;&gt;Node10 -->
<g id="edge18" class="edge">
<title>Node5&#45;&gt;Node10</title>
<path fill="none" stroke="#63b8ff" d="M337.68,-308.21C351.41,-279.4 373.33,-238.92 400,-209 413.68,-193.66 431.1,-179.51 447.39,-167.89"/>
<polygon fill="#63b8ff" stroke="#63b8ff" points="334.51,-306.72 333.46,-317.26 340.86,-309.67 334.51,-306.72"/>
</g>
<!-- Node11 -->
<g id="node11" class="node">
<title>Node11</title>
<g id="a_node11"><a xlink:href="_system__observer_8h.html" target="_top" xlink:title="Clase observador del sistema de control.">
<polygon fill="white" stroke="#666666" points="575,-277.5 409,-277.5 409,-214.5 575,-214.5 575,-277.5"/>
<text text-anchor="start" x="417" y="-265.5" font-family="Helvetica,sans-Serif" font-size="10.00">C:/Users/juanh/OneDrive</text>
<text text-anchor="start" x="417" y="-254.5" font-family="Helvetica,sans-Serif" font-size="10.00">/Escritorio/Sistemas Embebidos</text>
<text text-anchor="start" x="417" y="-243.5" font-family="Helvetica,sans-Serif" font-size="10.00">/Proyecto final/LAL Control</text>
<text text-anchor="start" x="417" y="-232.5" font-family="Helvetica,sans-Serif" font-size="10.00"> MbedOS/include/observer_pattern</text>
<text text-anchor="middle" x="492" y="-221.5" font-family="Helvetica,sans-Serif" font-size="10.00">/observers/System_observer.h</text>
</a>
</g>
</g>
<!-- Node5&#45;&gt;Node11 -->
<g id="edge20" class="edge">
<title>Node5&#45;&gt;Node11</title>
<path fill="none" stroke="#63b8ff" d="M370.32,-312.81C389.4,-301.61 411.5,-289.01 431.61,-277.85"/>
<polygon fill="#63b8ff" stroke="#63b8ff" points="368.78,-309.65 361.95,-317.75 372.34,-315.68 368.78,-309.65"/>
</g>
<!-- Node12 -->
<g id="node12" class="node">
<title>Node12</title>
<g id="a_node12"><a xlink:href="_temperature__observer_8h.html" target="_top" xlink:title="Observador del sensor de temperatura.">
<polygon fill="white" stroke="#666666" points="395.5,-167.5 228.5,-167.5 228.5,-104.5 395.5,-104.5 395.5,-167.5"/>
<text text-anchor="start" x="236.5" y="-155.5" font-family="Helvetica,sans-Serif" font-size="10.00">C:/Users/juanh/OneDrive</text>
<text text-anchor="start" x="236.5" y="-144.5" font-family="Helvetica,sans-Serif" font-size="10.00">/Escritorio/Sistemas Embebidos</text>
<text text-anchor="start" x="236.5" y="-133.5" font-family="Helvetica,sans-Serif" font-size="10.00">/Proyecto final/LAL Control</text>
<text text-anchor="start" x="236.5" y="-122.5" font-family="Helvetica,sans-Serif" font-size="10.00"> MbedOS/include/observer_pattern</text>
<text text-anchor="middle" x="312" y="-111.5" font-family="Helvetica,sans-Serif" font-size="10.00">/observers/Temperature_observer.h</text>
</a>
</g>
</g>
<!-- Node5&#45;&gt;Node12 -->
<g id="edge27" class="edge">
<title>Node5&#45;&gt;Node12</title>
<path fill="none" stroke="#63b8ff" d="M320.23,-307.35C318.32,-267.73 315.3,-205.26 313.5,-167.99"/>
<polygon fill="#63b8ff" stroke="#63b8ff" points="316.72,-307.29 320.7,-317.11 323.71,-306.95 316.72,-307.29"/>
</g>
<!-- Node7&#45;&gt;Node6 -->
<g id="edge14" class="edge">
<title>Node7&#45;&gt;Node6</title>
<path fill="none" stroke="#63b8ff" d="M615.95,-98.76C591.69,-85.25 564.7,-70.21 542.57,-57.89"/>
<polygon fill="#63b8ff" stroke="#63b8ff" points="614.03,-101.7 624.47,-103.51 617.44,-95.59 614.03,-101.7"/>
</g>
<!-- Node8&#45;&gt;Node6 -->
<g id="edge16" class="edge">
<title>Node8&#45;&gt;Node6</title>
<path fill="none" stroke="#63b8ff" d="M777.71,-100.51C776.13,-99.99 774.56,-99.49 773,-99 707.41,-78.37 631.35,-60.48 575.7,-48.47"/>
<polygon fill="#63b8ff" stroke="#63b8ff" points="776.19,-103.69 786.79,-103.58 778.44,-97.06 776.19,-103.69"/>
</g>
<!-- Node9 -->
<g id="node9" class="node">
<title>Node9</title>
<g id="a_node9"><a xlink:href="_instruction__observer_8cpp.html" target="_top" xlink:title=" ">
<polygon fill="white" stroke="#666666" points="950,-63 780,-63 780,0 950,0 950,-63"/>
<text text-anchor="start" x="788" y="-51" font-family="Helvetica,sans-Serif" font-size="10.00">C:/Users/juanh/OneDrive</text>
<text text-anchor="start" x="788" y="-40" font-family="Helvetica,sans-Serif" font-size="10.00">/Escritorio/Sistemas Embebidos</text>
<text text-anchor="start" x="788" y="-29" font-family="Helvetica,sans-Serif" font-size="10.00">/Proyecto final/LAL Control</text>
<text text-anchor="start" x="788" y="-18" font-family="Helvetica,sans-Serif" font-size="10.00"> MbedOS/src/Port/observer_pattern</text>
<text text-anchor="middle" x="865" y="-7" font-family="Helvetica,sans-Serif" font-size="10.00">/Instruction_observer.cpp</text>
</a>
</g>
</g>
<!-- Node8&#45;&gt;Node9 -->
<g id="edge17" class="edge">
<title>Node8&#45;&gt;Node9</title>
<path fill="none" stroke="#63b8ff" d="M865,-92.9C865,-82.96 865,-72.55 865,-63.23"/>
<polygon fill="#63b8ff" stroke="#63b8ff" points="861.5,-92.73 865,-102.73 868.5,-92.73 861.5,-92.73"/>
</g>
<!-- Node10&#45;&gt;Node6 -->
<g id="edge19" class="edge">
<title>Node10&#45;&gt;Node6</title>
<path fill="none" stroke="#63b8ff" d="M497,-93.06C497,-81.06 497,-68.37 497,-57.72"/>
<polygon fill="#63b8ff" stroke="#63b8ff" points="493.5,-92.73 497,-102.73 500.5,-92.73 493.5,-92.73"/>
</g>
<!-- Node11&#45;&gt;Node5 -->
<g id="edge21" class="edge">
<title>Node11&#45;&gt;Node5</title>
<path fill="none" stroke="#63b8ff" d="M434.35,-283.64C414.35,-295.26 392.1,-307.85 372.69,-318.51"/>
<polygon fill="#63b8ff" stroke="#63b8ff" points="436.1,-286.67 442.97,-278.61 432.57,-280.63 436.1,-286.67"/>
</g>
<!-- Node11&#45;&gt;Node7 -->
<g id="edge22" class="edge">
<title>Node11&#45;&gt;Node7</title>
<path fill="none" stroke="#63b8ff" d="M555.85,-208.51C578.91,-195.34 604.69,-180.61 626.83,-167.95"/>
<polygon fill="#63b8ff" stroke="#63b8ff" points="554.42,-205.3 547.47,-213.3 557.89,-211.38 554.42,-205.3"/>
</g>
<!-- Node11&#45;&gt;Node8 -->
<g id="edge23" class="edge">
<title>Node11&#45;&gt;Node8</title>
<path fill="none" stroke="#63b8ff" d="M586.57,-223.82C641.47,-210.76 711.68,-192.77 773,-173 777.9,-171.42 782.91,-169.72 787.94,-167.94"/>
<polygon fill="#63b8ff" stroke="#63b8ff" points="585.85,-220.39 576.92,-226.1 587.46,-227.2 585.85,-220.39"/>
</g>
<!-- Node11&#45;&gt;Node10 -->
<g id="edge24" class="edge">
<title>Node11&#45;&gt;Node10</title>
<path fill="none" stroke="#63b8ff" d="M493.95,-202.78C494.49,-191.17 495.06,-178.8 495.57,-167.95"/>
<polygon fill="#63b8ff" stroke="#63b8ff" points="490.47,-202.39 493.5,-212.54 497.46,-202.71 490.47,-202.39"/>
</g>
<!-- Node11&#45;&gt;Node12 -->
<g id="edge25" class="edge">
<title>Node11&#45;&gt;Node12</title>
<path fill="none" stroke="#63b8ff" d="M430.6,-208.16C408.79,-195.08 384.49,-180.49 363.59,-167.95"/>
<polygon fill="#63b8ff" stroke="#63b8ff" points="428.75,-211.13 439.12,-213.27 432.35,-205.13 428.75,-211.13"/>
</g>
<!-- Node12&#45;&gt;Node6 -->
<g id="edge26" class="edge">
<title>Node12&#45;&gt;Node6</title>
<path fill="none" stroke="#63b8ff" d="M377.61,-98.65C401.88,-85.2 428.84,-70.26 451,-57.99"/>
<polygon fill="#63b8ff" stroke="#63b8ff" points="376.13,-95.47 369.08,-103.37 379.52,-101.59 376.13,-95.47"/>
</g>
</g>
</svg>
