<?xml version="1.0" encoding="UTF-8" standalone="no"?>
<!DOCTYPE svg PUBLIC "-//W3C//DTD SVG 1.1//EN"
 "http://www.w3.org/Graphics/SVG/1.1/DTD/svg11.dtd">
<!-- Generated by graphviz version 7.0.2 (20221119.0110)
 -->
<!-- Title: C:/Users/juanh/OneDrive/Escritorio/Sistemas Embebidos/Proyecto final/LAL Control MbedOS/include/observer_pattern/observers/Moisture_observer.h Pages: 1 -->
<svg width="1673pt" height="577pt"
 viewBox="0.00 0.00 1673.00 577.00" xmlns="http://www.w3.org/2000/svg" xmlns:xlink="http://www.w3.org/1999/xlink">
<g id="graph0" class="graph" transform="scale(1 1) rotate(0) translate(4 573)">
<title>C:/Users/juanh/OneDrive/Escritorio/Sistemas Embebidos/Proyecto final/LAL Control MbedOS/include/observer_pattern/observers/Moisture_observer.h</title>
<!-- Node1 -->
<g id="node1" class="node">
<title>Node1</title>
<g id="a_node1"><a xlink:title="Observador del sensor de temperatura.">
<polygon fill="#999999" stroke="#666666" points="785,-569 619,-569 619,-506 785,-506 785,-569"/>
<text text-anchor="start" x="627" y="-557" font-family="Helvetica,sans-Serif" font-size="10.00">C:/Users/juanh/OneDrive</text>
<text text-anchor="start" x="627" y="-546" font-family="Helvetica,sans-Serif" font-size="10.00">/Escritorio/Sistemas Embebidos</text>
<text text-anchor="start" x="627" y="-535" font-family="Helvetica,sans-Serif" font-size="10.00">/Proyecto final/LAL Control</text>
<text text-anchor="start" x="627" y="-524" font-family="Helvetica,sans-Serif" font-size="10.00"> MbedOS/include/observer_pattern</text>
<text text-anchor="middle" x="702" y="-513" font-family="Helvetica,sans-Serif" font-size="10.00">/observers/Moisture_observer.h</text>
</a>
</g>
</g>
<!-- Node2 -->
<g id="node2" class="node">
<title>Node2</title>
<g id="a_node2"><a xlink:href="_system__observer_8h.html" target="_top" xlink:title="Clase observador del sistema de control.">
<polygon fill="white" stroke="#666666" points="951,-470 819,-470 819,-440 951,-440 951,-470"/>
<text text-anchor="start" x="827" y="-458" font-family="Helvetica,sans-Serif" font-size="10.00">observer_pattern/observers</text>
<text text-anchor="middle" x="885" y="-447" font-family="Helvetica,sans-Serif" font-size="10.00">/System_observer.h</text>
</a>
</g>
</g>
<!-- Node1&#45;&gt;Node2 -->
<g id="edge1" class="edge">
<title>Node1&#45;&gt;Node2</title>
<path fill="none" stroke="#63b8ff" d="M772.23,-505.61C795.75,-495.26 821.25,-484.04 842.05,-474.9"/>
<polygon fill="#63b8ff" stroke="#63b8ff" points="843.32,-478.16 851.07,-470.93 840.51,-471.75 843.32,-478.16"/>
</g>
<!-- Node6 -->
<g id="node6" class="node">
<title>Node6</title>
<g id="a_node6"><a xlink:href="_control__system_8h_source.html" target="_top" xlink:title=" ">
<polygon fill="white" stroke="#666666" points="931.5,-404 838.5,-404 838.5,-385 931.5,-385 931.5,-404"/>
<text text-anchor="middle" x="885" y="-392" font-family="Helvetica,sans-Serif" font-size="10.00">Control_system.h</text>
</a>
</g>
</g>
<!-- Node1&#45;&gt;Node6 -->
<g id="edge63" class="edge">
<title>Node1&#45;&gt;Node6</title>
<path fill="none" stroke="#63b8ff" d="M733.22,-505.65C754.08,-485.8 782.62,-460.06 810,-440 825.23,-428.84 843.43,-417.99 858.08,-409.8"/>
<polygon fill="#63b8ff" stroke="#63b8ff" points="859.62,-412.95 866.7,-405.07 856.25,-406.81 859.62,-412.95"/>
</g>
<!-- Node22 -->
<g id="node22" class="node">
<title>Node22</title>
<g id="a_node22"><a xlink:href="system__settings_8h.html" target="_top" xlink:title="Archivo para la definición de constantes del sistema.">
<polygon fill="white" stroke="#666666" points="447.5,-261 350.5,-261 350.5,-242 447.5,-242 447.5,-261"/>
<text text-anchor="middle" x="399" y="-249" font-family="Helvetica,sans-Serif" font-size="10.00">system_settings.h</text>
</a>
</g>
</g>
<!-- Node1&#45;&gt;Node22 -->
<g id="edge64" class="edge">
<title>Node1&#45;&gt;Node22</title>
<path fill="none" stroke="#63b8ff" d="M618.56,-520.65C529.92,-498.87 394.2,-450.24 332,-349 322.46,-333.47 324.25,-324.49 332,-308 340.2,-290.56 356.86,-276.72 371.52,-267.23"/>
<polygon fill="#63b8ff" stroke="#63b8ff" points="373.18,-270.31 379.92,-262.14 369.56,-264.32 373.18,-270.31"/>
</g>
<!-- Node25 -->
<g id="node25" class="node">
<title>Node25</title>
<g id="a_node25"><a xlink:href="types_8h.html" target="_top" xlink:title="Archivo de definición de tipos de dato.">
<polygon fill="white" stroke="#666666" points="632.5,-261 583.5,-261 583.5,-242 632.5,-242 632.5,-261"/>
<text text-anchor="middle" x="608" y="-249" font-family="Helvetica,sans-Serif" font-size="10.00">types.h</text>
</a>
</g>
</g>
<!-- Node1&#45;&gt;Node25 -->
<g id="edge65" class="edge">
<title>Node1&#45;&gt;Node25</title>
<path fill="none" stroke="#63b8ff" d="M702.5,-505.83C702.01,-460.18 696.31,-372.78 663,-308 654.97,-292.39 641.01,-278.38 629.16,-268.34"/>
<polygon fill="#63b8ff" stroke="#63b8ff" points="631.43,-265.67 621.44,-262.13 627.04,-271.13 631.43,-265.67"/>
</g>
<!-- Node3 -->
<g id="node3" class="node">
<title>Node3</title>
<g id="a_node3"><a xlink:href="_observer_8h.html" target="_top" xlink:title="Clase observador.">
<polygon fill="white" stroke="#666666" points="1665,-343.5 1533,-343.5 1533,-313.5 1665,-313.5 1665,-343.5"/>
<text text-anchor="start" x="1541" y="-331.5" font-family="Helvetica,sans-Serif" font-size="10.00">observer_pattern/observers</text>
<text text-anchor="middle" x="1599" y="-320.5" font-family="Helvetica,sans-Serif" font-size="10.00">/Observer.h</text>
</a>
</g>
</g>
<!-- Node2&#45;&gt;Node3 -->
<g id="edge2" class="edge">
<title>Node2&#45;&gt;Node3</title>
<path fill="none" stroke="#63b8ff" d="M951.14,-445.17C1067.56,-429.17 1316.4,-392.95 1524,-349 1527.55,-348.25 1531.19,-347.44 1534.86,-346.59"/>
<polygon fill="#63b8ff" stroke="#63b8ff" points="1535.5,-350.04 1544.41,-344.3 1533.87,-343.23 1535.5,-350.04"/>
</g>
<!-- Node2&#45;&gt;Node6 -->
<g id="edge5" class="edge">
<title>Node2&#45;&gt;Node6</title>
<path fill="none" stroke="#63b8ff" d="M879.08,-439.54C878.19,-432.26 878.01,-423.31 878.57,-415.39"/>
<polygon fill="#63b8ff" stroke="#63b8ff" points="882.01,-416.05 879.84,-405.68 875.07,-415.14 882.01,-416.05"/>
</g>
<!-- Node4 -->
<g id="node4" class="node">
<title>Node4</title>
<g id="a_node4"><a xlink:href="_subject__interface_8h.html" target="_top" xlink:title="Clase para interfaz para implementar el sujeto.">
<polygon fill="white" stroke="#666666" points="1663,-266.5 1535,-266.5 1535,-236.5 1663,-236.5 1663,-266.5"/>
<text text-anchor="start" x="1543" y="-254.5" font-family="Helvetica,sans-Serif" font-size="10.00">observer_pattern/subjects</text>
<text text-anchor="middle" x="1599" y="-243.5" font-family="Helvetica,sans-Serif" font-size="10.00">/Subject_interface.h</text>
</a>
</g>
</g>
<!-- Node3&#45;&gt;Node4 -->
<g id="edge3" class="edge">
<title>Node3&#45;&gt;Node4</title>
<path fill="none" stroke="#63b8ff" d="M1599,-313.04C1599,-303.18 1599,-289.86 1599,-278.22"/>
<polygon fill="#63b8ff" stroke="#63b8ff" points="1602.5,-278.43 1599,-268.43 1595.5,-278.43 1602.5,-278.43"/>
</g>
<!-- Node5 -->
<g id="node5" class="node">
<title>Node5</title>
<g id="a_node5"><a xlink:href="_observer__interface_8h.html" target="_top" xlink:title="Clase para interfaz para implementar el observador.">
<polygon fill="white" stroke="#666666" points="1517,-266.5 1385,-266.5 1385,-236.5 1517,-236.5 1517,-266.5"/>
<text text-anchor="start" x="1393" y="-254.5" font-family="Helvetica,sans-Serif" font-size="10.00">observer_pattern/observers</text>
<text text-anchor="middle" x="1451" y="-243.5" font-family="Helvetica,sans-Serif" font-size="10.00">/Observer_interface.h</text>
</a>
</g>
</g>
<!-- Node3&#45;&gt;Node5 -->
<g id="edge4" class="edge">
<title>Node3&#45;&gt;Node5</title>
<path fill="none" stroke="#63b8ff" d="M1570.46,-313.04C1547.43,-301.37 1514.8,-284.83 1489.46,-271.99"/>
<polygon fill="#63b8ff" stroke="#63b8ff" points="1491.3,-269 1480.8,-267.6 1488.14,-275.24 1491.3,-269"/>
</g>
<!-- Node6&#45;&gt;Node2 -->
<g id="edge25" class="edge">
<title>Node6&#45;&gt;Node2</title>
<path fill="none" stroke="#63b8ff" d="M889.96,-404.18C891.34,-410.58 891.92,-419.65 891.71,-428.3"/>
<polygon fill="#63b8ff" stroke="#63b8ff" points="888.23,-427.81 891.02,-438.03 895.21,-428.3 888.23,-427.81"/>
</g>
<!-- Node7 -->
<g id="node7" class="node">
<title>Node7</title>
<g id="a_node7"><a xlink:href="_subject_8h.html" target="_top" xlink:title=" ">
<polygon fill="white" stroke="#666666" points="1515,-343.5 1387,-343.5 1387,-313.5 1515,-313.5 1515,-343.5"/>
<text text-anchor="start" x="1395" y="-331.5" font-family="Helvetica,sans-Serif" font-size="10.00">observer_pattern/subjects</text>
<text text-anchor="middle" x="1451" y="-320.5" font-family="Helvetica,sans-Serif" font-size="10.00">/Subject.h</text>
</a>
</g>
</g>
<!-- Node6&#45;&gt;Node7 -->
<g id="edge6" class="edge">
<title>Node6&#45;&gt;Node7</title>
<path fill="none" stroke="#63b8ff" d="M931.91,-391.94C1019.96,-388.41 1215.75,-377.78 1378,-349 1382.05,-348.28 1386.2,-347.45 1390.37,-346.54"/>
<polygon fill="#63b8ff" stroke="#63b8ff" points="1390.96,-349.99 1399.91,-344.31 1389.38,-343.17 1390.96,-349.99"/>
</g>
<!-- Node8 -->
<g id="node8" class="node">
<title>Node8</title>
<g id="a_node8"><a xlink:href="_machine_8h.html" target="_top" xlink:title="Clase de máquina abstracta.">
<polygon fill="white" stroke="#666666" points="1345,-189.5 1229,-189.5 1229,-159.5 1345,-159.5 1345,-189.5"/>
<text text-anchor="start" x="1237" y="-177.5" font-family="Helvetica,sans-Serif" font-size="10.00">machine_state_pattern</text>
<text text-anchor="middle" x="1287" y="-166.5" font-family="Helvetica,sans-Serif" font-size="10.00">/Machine.h</text>
</a>
</g>
</g>
<!-- Node6&#45;&gt;Node8 -->
<g id="edge9" class="edge">
<title>Node6&#45;&gt;Node8</title>
<path fill="none" stroke="#63b8ff" d="M931.85,-393.37C1014.98,-392.2 1183.69,-385.28 1228,-349 1272.87,-312.27 1283.76,-239.88 1286.3,-201.24"/>
<polygon fill="#63b8ff" stroke="#63b8ff" points="1289.79,-201.64 1286.79,-191.48 1282.8,-201.29 1289.79,-201.64"/>
</g>
<!-- Node10 -->
<g id="node10" class="node">
<title>Node10</title>
<g id="a_node10"><a xlink:href="_display_8h.html" target="_top" xlink:title="Controlador de LCD hd44780 por interfaz I2C.">
<polygon fill="white" stroke="#666666" points="953,-338 865,-338 865,-319 953,-319 953,-338"/>
<text text-anchor="middle" x="909" y="-326" font-family="Helvetica,sans-Serif" font-size="10.00">drivers/Display.h</text>
</a>
</g>
</g>
<!-- Node6&#45;&gt;Node10 -->
<g id="edge11" class="edge">
<title>Node6&#45;&gt;Node10</title>
<path fill="none" stroke="#63b8ff" d="M888.34,-384.6C891.78,-375.43 897.25,-360.84 901.7,-348.98"/>
<polygon fill="#63b8ff" stroke="#63b8ff" points="904.93,-350.33 905.16,-339.74 898.37,-347.87 904.93,-350.33"/>
</g>
<!-- Node20 -->
<g id="node20" class="node">
<title>Node20</title>
<g id="a_node20"><a xlink:href="user__messages_8h.html" target="_top" xlink:title="Archivo para la configuración de interfaz con el usuario.">
<polygon fill="white" stroke="#666666" points="1369,-338 1275,-338 1275,-319 1369,-319 1369,-338"/>
<text text-anchor="middle" x="1322" y="-326" font-family="Helvetica,sans-Serif" font-size="10.00">user_messages.h</text>
</a>
</g>
</g>
<!-- Node6&#45;&gt;Node20 -->
<g id="edge24" class="edge">
<title>Node6&#45;&gt;Node20</title>
<path fill="none" stroke="#63b8ff" d="M931.78,-390.85C1003.37,-386.15 1144.08,-374.36 1261,-349 1269.44,-347.17 1278.38,-344.65 1286.73,-342.04"/>
<polygon fill="#63b8ff" stroke="#63b8ff" points="1287.8,-345.37 1296.22,-338.93 1285.63,-338.72 1287.8,-345.37"/>
</g>
<!-- Node21 -->
<g id="node21" class="node">
<title>Node21</title>
<g id="a_node21"><a xlink:href="_temperature__sensor_8h.html" target="_top" xlink:title="Controlador para sensor de temperatura DS18B20.">
<polygon fill="white" stroke="#666666" points="543.5,-343.5 442.5,-343.5 442.5,-313.5 543.5,-313.5 543.5,-343.5"/>
<text text-anchor="start" x="450.5" y="-331.5" font-family="Helvetica,sans-Serif" font-size="10.00">drivers/Temperature</text>
<text text-anchor="middle" x="493" y="-320.5" font-family="Helvetica,sans-Serif" font-size="10.00">_sensor.h</text>
</a>
</g>
</g>
<!-- Node6&#45;&gt;Node21 -->
<g id="edge26" class="edge">
<title>Node6&#45;&gt;Node21</title>
<path fill="none" stroke="#63b8ff" d="M838.18,-390.01C773.28,-384.55 652.61,-372.14 552,-349 549.43,-348.41 546.81,-347.75 544.17,-347.05"/>
<polygon fill="#63b8ff" stroke="#63b8ff" points="545.38,-343.75 534.8,-344.35 543.44,-350.48 545.38,-343.75"/>
</g>
<!-- Node24 -->
<g id="node24" class="node">
<title>Node24</title>
<g id="a_node24"><a xlink:href="_moisture__sensor_8h.html" target="_top" xlink:title="Controlador de sensor de humedad analógico.">
<polygon fill="white" stroke="#666666" points="128,-184 0,-184 0,-165 128,-165 128,-184"/>
<text text-anchor="middle" x="64" y="-172" font-family="Helvetica,sans-Serif" font-size="10.00">drivers/Moisture_sensor.h</text>
</a>
</g>
</g>
<!-- Node6&#45;&gt;Node24 -->
<g id="edge29" class="edge">
<title>Node6&#45;&gt;Node24</title>
<path fill="none" stroke="#63b8ff" d="M838.19,-392.48C672.16,-388.65 119.83,-374.08 92,-349 48.61,-309.9 54.46,-232.26 60.16,-195.58"/>
<polygon fill="#63b8ff" stroke="#63b8ff" points="63.58,-196.39 61.84,-185.94 56.68,-195.19 63.58,-196.39"/>
</g>
<!-- Node6&#45;&gt;Node25 -->
<g id="edge31" class="edge">
<title>Node6&#45;&gt;Node25</title>
<path fill="none" stroke="#63b8ff" d="M838.01,-384.88C808.47,-378.1 770.34,-366.76 740,-349 717.21,-335.66 717.87,-324.18 697,-308 677.03,-292.52 652.56,-277.51 634.34,-267.02"/>
<polygon fill="#63b8ff" stroke="#63b8ff" points="636.15,-264.02 625.73,-262.13 632.7,-270.11 636.15,-264.02"/>
</g>
<!-- Node26 -->
<g id="node26" class="node">
<title>Node26</title>
<g id="a_node26"><a xlink:href="_buzzer_8h.html" target="_top" xlink:title="Controlador de Buzzer de 12 milimetros sin oscilador.">
<polygon fill="white" stroke="#666666" points="187,-338 101,-338 101,-319 187,-319 187,-338"/>
<text text-anchor="middle" x="144" y="-326" font-family="Helvetica,sans-Serif" font-size="10.00">drivers/Buzzer.h</text>
</a>
</g>
</g>
<!-- Node6&#45;&gt;Node26 -->
<g id="edge32" class="edge">
<title>Node6&#45;&gt;Node26</title>
<path fill="none" stroke="#63b8ff" d="M838.18,-392.27C703.86,-388.45 319.05,-375.44 196,-349 188.7,-347.43 181.06,-345.03 173.95,-342.44"/>
<polygon fill="#63b8ff" stroke="#63b8ff" points="175.34,-339.22 164.75,-338.86 172.8,-345.75 175.34,-339.22"/>
</g>
<!-- Node28 -->
<g id="node28" class="node">
<title>Node28</title>
<g id="a_node28"><a xlink:href="_motor_8h.html" target="_top" xlink:title="Controlador de motor de 220 VAC.">
<polygon fill="white" stroke="#666666" points="285,-338 205,-338 205,-319 285,-319 285,-338"/>
<text text-anchor="middle" x="245" y="-326" font-family="Helvetica,sans-Serif" font-size="10.00">drivers/Motor.h</text>
</a>
</g>
</g>
<!-- Node6&#45;&gt;Node28 -->
<g id="edge35" class="edge">
<title>Node6&#45;&gt;Node28</title>
<path fill="none" stroke="#63b8ff" d="M838.14,-391.95C742.5,-388.29 518.17,-377.21 332,-349 318.37,-346.93 303.69,-343.95 290.35,-340.93"/>
<polygon fill="#63b8ff" stroke="#63b8ff" points="291.51,-337.6 280.98,-338.75 289.92,-344.42 291.51,-337.6"/>
</g>
<!-- Node29 -->
<g id="node29" class="node">
<title>Node29</title>
<g id="a_node29"><a xlink:href="_dual___l_e_d_8h.html" target="_top" xlink:title="Controlador de LED RG con PWM.">
<polygon fill="white" stroke="#666666" points="654.5,-338 561.5,-338 561.5,-319 654.5,-319 654.5,-338"/>
<text text-anchor="middle" x="608" y="-326" font-family="Helvetica,sans-Serif" font-size="10.00">drivers/Dual_led.h</text>
</a>
</g>
</g>
<!-- Node6&#45;&gt;Node29 -->
<g id="edge38" class="edge">
<title>Node6&#45;&gt;Node29</title>
<path fill="none" stroke="#63b8ff" d="M846.19,-384.53C796.84,-373.13 711.58,-353.43 657.57,-340.95"/>
<polygon fill="#63b8ff" stroke="#63b8ff" points="658.55,-337.59 648.02,-338.75 656.97,-344.41 658.55,-337.59"/>
</g>
<!-- Node30 -->
<g id="node30" class="node">
<title>Node30</title>
<g id="a_node30"><a xlink:href="_digital__dual___l_e_d_8h_source.html" target="_top" xlink:title=" ">
<polygon fill="white" stroke="#666666" points="847,-343.5 749,-343.5 749,-313.5 847,-313.5 847,-343.5"/>
<text text-anchor="start" x="757" y="-331.5" font-family="Helvetica,sans-Serif" font-size="10.00">drivers/Digital_dual</text>
<text text-anchor="middle" x="798" y="-320.5" font-family="Helvetica,sans-Serif" font-size="10.00">_led.h</text>
</a>
</g>
</g>
<!-- Node6&#45;&gt;Node30 -->
<g id="edge42" class="edge">
<title>Node6&#45;&gt;Node30</title>
<path fill="none" stroke="#63b8ff" d="M872.9,-384.6C860.96,-375.82 842.25,-362.05 826.52,-350.48"/>
<polygon fill="#63b8ff" stroke="#63b8ff" points="829.03,-347.98 818.9,-344.87 824.88,-353.62 829.03,-347.98"/>
</g>
<!-- Node31 -->
<g id="node31" class="node">
<title>Node31</title>
<g id="a_node31"><a xlink:href="_cooler_8h.html" target="_top" xlink:title="Controlador de ventilador de 12 volts y 5 milímteros.">
<polygon fill="white" stroke="#666666" points="424.5,-338 341.5,-338 341.5,-319 424.5,-319 424.5,-338"/>
<text text-anchor="middle" x="383" y="-326" font-family="Helvetica,sans-Serif" font-size="10.00">drivers/Cooler.h</text>
</a>
</g>
</g>
<!-- Node6&#45;&gt;Node31 -->
<g id="edge45" class="edge">
<title>Node6&#45;&gt;Node31</title>
<path fill="none" stroke="#63b8ff" d="M838.11,-393.08C755.23,-391.42 577.93,-383.7 433,-349 426.27,-347.39 419.23,-345.07 412.63,-342.59"/>
<polygon fill="#63b8ff" stroke="#63b8ff" points="414.06,-339.39 403.48,-338.92 411.46,-345.89 414.06,-339.39"/>
</g>
<!-- Node32 -->
<g id="node32" class="node">
<title>Node32</title>
<g id="a_node32"><a xlink:href="_shutdown__state_8h.html" target="_top" xlink:title="Clase de estado de apagado del sistema.">
<polygon fill="white" stroke="#666666" points="1219,-349 1085,-349 1085,-308 1219,-308 1219,-349"/>
<text text-anchor="start" x="1093" y="-337" font-family="Helvetica,sans-Serif" font-size="10.00">machine_state_pattern</text>
<text text-anchor="start" x="1093" y="-326" font-family="Helvetica,sans-Serif" font-size="10.00">/machine_states/Shutdown</text>
<text text-anchor="middle" x="1152" y="-315" font-family="Helvetica,sans-Serif" font-size="10.00">_state.h</text>
</a>
</g>
</g>
<!-- Node6&#45;&gt;Node32 -->
<g id="edge48" class="edge">
<title>Node6&#45;&gt;Node32</title>
<path fill="none" stroke="#63b8ff" d="M915.59,-384.57C950.97,-375.59 1010.5,-361.36 1062,-349 1065.77,-348.09 1069.64,-347.17 1073.56,-346.23"/>
<polygon fill="#63b8ff" stroke="#63b8ff" points="1074.29,-349.65 1083.2,-343.92 1072.66,-342.84 1074.29,-349.65"/>
</g>
<!-- Node7&#45;&gt;Node4 -->
<g id="edge7" class="edge">
<title>Node7&#45;&gt;Node4</title>
<path fill="none" stroke="#63b8ff" d="M1479.54,-313.04C1502.57,-301.37 1535.2,-284.83 1560.54,-271.99"/>
<polygon fill="#63b8ff" stroke="#63b8ff" points="1561.86,-275.24 1569.2,-267.6 1558.7,-269 1561.86,-275.24"/>
</g>
<!-- Node7&#45;&gt;Node5 -->
<g id="edge8" class="edge">
<title>Node7&#45;&gt;Node5</title>
<path fill="none" stroke="#63b8ff" d="M1451,-313.04C1451,-303.18 1451,-289.86 1451,-278.22"/>
<polygon fill="#63b8ff" stroke="#63b8ff" points="1454.5,-278.43 1451,-268.43 1447.5,-278.43 1454.5,-278.43"/>
</g>
<!-- Node9 -->
<g id="node9" class="node">
<title>Node9</title>
<g id="a_node9"><a xlink:href="_abstract__state_8h.html" target="_top" xlink:title="Clase de estado abstracta.">
<polygon fill="white" stroke="#666666" points="1227,-41 1099,-41 1099,0 1227,0 1227,-41"/>
<text text-anchor="start" x="1107" y="-29" font-family="Helvetica,sans-Serif" font-size="10.00">machine_state_pattern</text>
<text text-anchor="start" x="1107" y="-18" font-family="Helvetica,sans-Serif" font-size="10.00">/machine_states/Abstract</text>
<text text-anchor="middle" x="1163" y="-7" font-family="Helvetica,sans-Serif" font-size="10.00">_state.h</text>
</a>
</g>
</g>
<!-- Node8&#45;&gt;Node9 -->
<g id="edge10" class="edge">
<title>Node8&#45;&gt;Node9</title>
<path fill="none" stroke="#63b8ff" d="M1276.99,-159.06C1263.5,-139.84 1238.48,-105.05 1215,-77 1207.31,-67.81 1198.54,-58.16 1190.41,-49.54"/>
<polygon fill="#63b8ff" stroke="#63b8ff" points="1193.05,-47.23 1183.62,-42.4 1187.98,-52.05 1193.05,-47.23"/>
</g>
<!-- Node11 -->
<g id="node11" class="node">
<title>Node11</title>
<g id="a_node11"><a xlink:href="display__settings_8h.html" target="_top" xlink:title="Archivo de configuración de la pantalla.">
<polygon fill="white" stroke="#666666" points="903.5,-184 808.5,-184 808.5,-165 903.5,-165 903.5,-184"/>
<text text-anchor="middle" x="856" y="-172" font-family="Helvetica,sans-Serif" font-size="10.00">display_settings.h</text>
</a>
</g>
</g>
<!-- Node10&#45;&gt;Node11 -->
<g id="edge12" class="edge">
<title>Node10&#45;&gt;Node11</title>
<path fill="none" stroke="#63b8ff" d="M906,-318.89C897.73,-295.18 874.46,-228.44 862.82,-195.05"/>
<polygon fill="#63b8ff" stroke="#63b8ff" points="866.2,-194.11 859.6,-185.82 859.59,-196.42 866.2,-194.11"/>
</g>
<!-- Node12 -->
<g id="node12" class="node">
<title>Node12</title>
<g id="a_node12"><a xlink:href="hd44780___i2_cexp_8h.html" target="_top" xlink:title="Adaptación de la biblioteca TextLCD de MbedOS 5. Permite utilizar un LCD hd44780 con un expansor de p...">
<polygon fill="white" stroke="#666666" points="830,-261 702,-261 702,-242 830,-242 830,-261"/>
<text text-anchor="middle" x="766" y="-249" font-family="Helvetica,sans-Serif" font-size="10.00">drivers/hd44780_I2Cexp.h</text>
</a>
</g>
</g>
<!-- Node10&#45;&gt;Node12 -->
<g id="edge13" class="edge">
<title>Node10&#45;&gt;Node12</title>
<path fill="none" stroke="#63b8ff" d="M892.03,-318.6C867.52,-305.75 821.96,-281.85 792.85,-266.58"/>
<polygon fill="#63b8ff" stroke="#63b8ff" points="794.77,-263.63 784.28,-262.09 791.51,-269.83 794.77,-263.63"/>
</g>
<!-- Node12&#45;&gt;Node11 -->
<g id="edge23" class="edge">
<title>Node12&#45;&gt;Node11</title>
<path fill="none" stroke="#63b8ff" d="M776.68,-241.6C791.43,-229.31 818.29,-206.92 836.63,-191.64"/>
<polygon fill="#63b8ff" stroke="#63b8ff" points="838.73,-194.45 844.17,-185.36 834.25,-189.07 838.73,-194.45"/>
</g>
<!-- Node13 -->
<g id="node13" class="node">
<title>Node13</title>
<g id="a_node13"><a xlink:title=" ">
<polygon fill="#e0e0e0" stroke="#999999" points="426.5,-107 377.5,-107 377.5,-88 426.5,-88 426.5,-107"/>
<text text-anchor="middle" x="402" y="-95" font-family="Helvetica,sans-Serif" font-size="10.00">mbed.h</text>
</a>
</g>
</g>
<!-- Node12&#45;&gt;Node13 -->
<g id="edge14" class="edge">
<title>Node12&#45;&gt;Node13</title>
<path fill="none" stroke="#63b8ff" d="M754.23,-241.52C740.53,-230.89 717.44,-212.44 699,-195 680.95,-177.93 682.6,-166.29 661,-154 623.17,-132.48 499.67,-112.44 437.88,-103.46"/>
<polygon fill="#63b8ff" stroke="#63b8ff" points="438.64,-100.03 428.24,-102.07 437.64,-106.96 438.64,-100.03"/>
</g>
<!-- Node14 -->
<g id="node14" class="node">
<title>Node14</title>
<g id="a_node14"><a xlink:title=" ">
<polygon fill="#e0e0e0" stroke="#999999" points="819,-107 771,-107 771,-88 819,-88 819,-107"/>
<text text-anchor="middle" x="795" y="-95" font-family="Helvetica,sans-Serif" font-size="10.00">stdlib.h</text>
</a>
</g>
</g>
<!-- Node12&#45;&gt;Node14 -->
<g id="edge15" class="edge">
<title>Node12&#45;&gt;Node14</title>
<path fill="none" stroke="#63b8ff" d="M767.64,-241.89C772.15,-218.28 784.79,-152.03 791.19,-118.49"/>
<polygon fill="#63b8ff" stroke="#63b8ff" points="794.58,-119.36 793.02,-108.88 787.71,-118.05 794.58,-119.36"/>
</g>
<!-- Node15 -->
<g id="node15" class="node">
<title>Node15</title>
<g id="a_node15"><a xlink:href="hd44780__instruction__set_8h.html" target="_top" xlink:title="Set de instrucciones del LCD HD44780.">
<polygon fill="white" stroke="#666666" points="652,-189.5 548,-189.5 548,-159.5 652,-159.5 652,-189.5"/>
<text text-anchor="start" x="556" y="-177.5" font-family="Helvetica,sans-Serif" font-size="10.00">hd44780_instruction</text>
<text text-anchor="middle" x="600" y="-166.5" font-family="Helvetica,sans-Serif" font-size="10.00">_set.h</text>
</a>
</g>
</g>
<!-- Node12&#45;&gt;Node15 -->
<g id="edge16" class="edge">
<title>Node12&#45;&gt;Node15</title>
<path fill="none" stroke="#63b8ff" d="M746.31,-241.6C720.81,-230.08 675.69,-209.7 642.28,-194.6"/>
<polygon fill="#63b8ff" stroke="#63b8ff" points="643.82,-191.46 633.26,-190.53 640.93,-197.83 643.82,-191.46"/>
</g>
<!-- Node16 -->
<g id="node16" class="node">
<title>Node16</title>
<g id="a_node16"><a xlink:href="utils_8h_source.html" target="_top" xlink:title=" ">
<polygon fill="white" stroke="#666666" points="751.5,-184 708.5,-184 708.5,-165 751.5,-165 751.5,-184"/>
<text text-anchor="middle" x="730" y="-172" font-family="Helvetica,sans-Serif" font-size="10.00">utils.h</text>
</a>
</g>
</g>
<!-- Node12&#45;&gt;Node16 -->
<g id="edge18" class="edge">
<title>Node12&#45;&gt;Node16</title>
<path fill="none" stroke="#63b8ff" d="M761.73,-241.6C756.21,-230.1 746.44,-209.76 739.2,-194.67"/>
<polygon fill="#63b8ff" stroke="#63b8ff" points="742.4,-193.25 734.92,-185.75 736.09,-196.28 742.4,-193.25"/>
</g>
<!-- Node15&#45;&gt;Node13 -->
<g id="edge17" class="edge">
<title>Node15&#45;&gt;Node13</title>
<path fill="none" stroke="#63b8ff" d="M561.82,-159.04C525.42,-145.25 471.1,-124.68 436.11,-111.42"/>
<polygon fill="#63b8ff" stroke="#63b8ff" points="437.49,-108.2 426.89,-107.93 435.01,-114.74 437.49,-108.2"/>
</g>
<!-- Node16&#45;&gt;Node14 -->
<g id="edge21" class="edge">
<title>Node16&#45;&gt;Node14</title>
<path fill="none" stroke="#63b8ff" d="M737.71,-164.6C748.07,-152.65 766.7,-131.15 779.9,-115.92"/>
<polygon fill="#63b8ff" stroke="#63b8ff" points="782.4,-118.38 786.31,-108.53 777.11,-113.79 782.4,-118.38"/>
</g>
<!-- Node17 -->
<g id="node17" class="node">
<title>Node17</title>
<g id="a_node17"><a xlink:title=" ">
<polygon fill="#e0e0e0" stroke="#999999" points="688.5,-107 641.5,-107 641.5,-88 688.5,-88 688.5,-107"/>
<text text-anchor="middle" x="665" y="-95" font-family="Helvetica,sans-Serif" font-size="10.00">math.h</text>
</a>
</g>
</g>
<!-- Node16&#45;&gt;Node17 -->
<g id="edge19" class="edge">
<title>Node16&#45;&gt;Node17</title>
<path fill="none" stroke="#63b8ff" d="M722.29,-164.6C711.93,-152.65 693.3,-131.15 680.1,-115.92"/>
<polygon fill="#63b8ff" stroke="#63b8ff" points="682.89,-113.79 673.69,-108.53 677.6,-118.38 682.89,-113.79"/>
</g>
<!-- Node18 -->
<g id="node18" class="node">
<title>Node18</title>
<g id="a_node18"><a xlink:title=" ">
<polygon fill="#e0e0e0" stroke="#999999" points="753,-107 707,-107 707,-88 753,-88 753,-107"/>
<text text-anchor="middle" x="730" y="-95" font-family="Helvetica,sans-Serif" font-size="10.00">stdio.h</text>
</a>
</g>
</g>
<!-- Node16&#45;&gt;Node18 -->
<g id="edge20" class="edge">
<title>Node16&#45;&gt;Node18</title>
<path fill="none" stroke="#63b8ff" d="M730,-164.6C730,-153.33 730,-133.55 730,-118.56"/>
<polygon fill="#63b8ff" stroke="#63b8ff" points="733.5,-118.9 730,-108.9 726.5,-118.9 733.5,-118.9"/>
</g>
<!-- Node19 -->
<g id="node19" class="node">
<title>Node19</title>
<g id="a_node19"><a xlink:title=" ">
<polygon fill="#e0e0e0" stroke="#999999" points="623.5,-107 574.5,-107 574.5,-88 623.5,-88 623.5,-107"/>
<text text-anchor="middle" x="599" y="-95" font-family="Helvetica,sans-Serif" font-size="10.00">string.h</text>
</a>
</g>
</g>
<!-- Node16&#45;&gt;Node19 -->
<g id="edge22" class="edge">
<title>Node16&#45;&gt;Node19</title>
<path fill="none" stroke="#63b8ff" d="M713.99,-164.55C694.55,-153.66 660.77,-134.65 632,-118 629.34,-116.46 626.56,-114.84 623.8,-113.22"/>
<polygon fill="#63b8ff" stroke="#63b8ff" points="625.78,-110.32 615.38,-108.26 622.22,-116.35 625.78,-110.32"/>
</g>
<!-- Node21&#45;&gt;Node22 -->
<g id="edge27" class="edge">
<title>Node21&#45;&gt;Node22</title>
<path fill="none" stroke="#63b8ff" d="M474.88,-313.04C458.82,-300.23 435.43,-281.56 418.87,-268.35"/>
<polygon fill="#63b8ff" stroke="#63b8ff" points="421.2,-265.73 411.2,-262.23 416.83,-271.2 421.2,-265.73"/>
</g>
<!-- Node23 -->
<g id="node23" class="node">
<title>Node23</title>
<g id="a_node23"><a xlink:title=" ">
<polygon fill="#e0e0e0" stroke="#999999" points="524.5,-261 465.5,-261 465.5,-242 524.5,-242 524.5,-261"/>
<text text-anchor="middle" x="495" y="-249" font-family="Helvetica,sans-Serif" font-size="10.00">DS1820.h</text>
</a>
</g>
</g>
<!-- Node21&#45;&gt;Node23 -->
<g id="edge28" class="edge">
<title>Node21&#45;&gt;Node23</title>
<path fill="none" stroke="#63b8ff" d="M493.39,-313.04C493.69,-301.55 494.12,-285.34 494.46,-272.59"/>
<polygon fill="#63b8ff" stroke="#63b8ff" points="497.96,-272.89 494.73,-262.8 490.96,-272.7 497.96,-272.89"/>
</g>
<!-- Node24&#45;&gt;Node13 -->
<g id="edge30" class="edge">
<title>Node24&#45;&gt;Node13</title>
<path fill="none" stroke="#63b8ff" d="M98.88,-164.5C112.33,-161.11 127.86,-157.28 142,-154 221.72,-135.53 315.72,-116.03 365.98,-105.78"/>
<polygon fill="#63b8ff" stroke="#63b8ff" points="366.62,-109.22 375.72,-103.8 365.22,-102.36 366.62,-109.22"/>
</g>
<!-- Node26&#45;&gt;Node13 -->
<g id="edge33" class="edge">
<title>Node26&#45;&gt;Node13</title>
<path fill="none" stroke="#63b8ff" d="M144.75,-318.51C146.7,-300.17 153.4,-257.89 175,-231 226.14,-167.33 316.71,-127.92 366.6,-109.98"/>
<polygon fill="#63b8ff" stroke="#63b8ff" points="367.47,-113.38 375.75,-106.77 365.16,-106.77 367.47,-113.38"/>
</g>
<!-- Node27 -->
<g id="node27" class="node">
<title>Node27</title>
<g id="a_node27"><a xlink:href="port__config_8h.html" target="_top" xlink:title="Archivo de configuración para los puertos de la placa donde se implementará el sistema.">
<polygon fill="white" stroke="#666666" points="256,-261 184,-261 184,-242 256,-242 256,-261"/>
<text text-anchor="middle" x="220" y="-249" font-family="Helvetica,sans-Serif" font-size="10.00">port_config.h</text>
</a>
</g>
</g>
<!-- Node26&#45;&gt;Node27 -->
<g id="edge34" class="edge">
<title>Node26&#45;&gt;Node27</title>
<path fill="none" stroke="#63b8ff" d="M153.02,-318.6C165.36,-306.42 187.74,-284.33 203.22,-269.06"/>
<polygon fill="#63b8ff" stroke="#63b8ff" points="205.26,-271.96 209.92,-262.45 200.34,-266.98 205.26,-271.96"/>
</g>
<!-- Node28&#45;&gt;Node13 -->
<g id="edge36" class="edge">
<title>Node28&#45;&gt;Node13</title>
<path fill="none" stroke="#63b8ff" d="M249.35,-318.77C262.56,-292.58 304.09,-212.94 349,-154 359.6,-140.09 373.26,-125.86 384.06,-115.29"/>
<polygon fill="#63b8ff" stroke="#63b8ff" points="386.44,-117.85 391.23,-108.4 381.6,-112.8 386.44,-117.85"/>
</g>
<!-- Node28&#45;&gt;Node27 -->
<g id="edge37" class="edge">
<title>Node28&#45;&gt;Node27</title>
<path fill="none" stroke="#63b8ff" d="M242.03,-318.6C238.24,-307.21 231.55,-287.16 226.54,-272.11"/>
<polygon fill="#63b8ff" stroke="#63b8ff" points="229.92,-271.2 223.44,-262.82 223.28,-273.42 229.92,-271.2"/>
</g>
<!-- Node29&#45;&gt;Node13 -->
<g id="edge39" class="edge">
<title>Node29&#45;&gt;Node13</title>
<path fill="none" stroke="#63b8ff" d="M601.71,-318.71C589.22,-301.41 560.15,-261.94 533,-231 494.64,-187.28 445.54,-139.61 419.71,-115.11"/>
<polygon fill="#63b8ff" stroke="#63b8ff" points="422.38,-112.81 412.7,-108.49 417.57,-117.9 422.38,-112.81"/>
</g>
<!-- Node29&#45;&gt;Node22 -->
<g id="edge41" class="edge">
<title>Node29&#45;&gt;Node22</title>
<path fill="none" stroke="#63b8ff" d="M583.2,-318.6C546.28,-305.35 476.67,-280.37 434.4,-265.2"/>
<polygon fill="#63b8ff" stroke="#63b8ff" points="435.78,-261.98 425.19,-261.9 433.42,-268.57 435.78,-261.98"/>
</g>
<!-- Node29&#45;&gt;Node25 -->
<g id="edge40" class="edge">
<title>Node29&#45;&gt;Node25</title>
<path fill="none" stroke="#63b8ff" d="M608,-318.6C608,-307.33 608,-287.55 608,-272.56"/>
<polygon fill="#63b8ff" stroke="#63b8ff" points="611.5,-272.9 608,-262.9 604.5,-272.9 611.5,-272.9"/>
</g>
<!-- Node30&#45;&gt;Node13 -->
<g id="edge43" class="edge">
<title>Node30&#45;&gt;Node13</title>
<path fill="none" stroke="#63b8ff" d="M767.3,-313.11C745.91,-302.65 717.02,-287.63 693,-272 668.33,-255.95 666.78,-245.2 641,-231 598.89,-207.81 580.26,-219.68 539,-195 515.78,-181.11 515.69,-170.18 494,-154 473.15,-138.45 447.73,-123.38 428.89,-112.87"/>
<polygon fill="#63b8ff" stroke="#63b8ff" points="430.69,-109.87 420.24,-108.12 427.32,-116 430.69,-109.87"/>
</g>
<!-- Node30&#45;&gt;Node25 -->
<g id="edge44" class="edge">
<title>Node30&#45;&gt;Node25</title>
<path fill="none" stroke="#63b8ff" d="M754.87,-313.08C724.39,-302.55 682.77,-287.46 647,-272 643.09,-270.31 639.01,-268.42 635.03,-266.5"/>
<polygon fill="#63b8ff" stroke="#63b8ff" points="636.76,-263.45 626.25,-262.13 633.64,-269.72 636.76,-263.45"/>
</g>
<!-- Node31&#45;&gt;Node13 -->
<g id="edge46" class="edge">
<title>Node31&#45;&gt;Node13</title>
<path fill="none" stroke="#63b8ff" d="M373.44,-318.8C363.15,-308.71 347.38,-291.02 341,-272 335.2,-254.73 337.1,-248.8 341,-231 350.49,-187.69 375.53,-141.64 390.42,-116.86"/>
<polygon fill="#63b8ff" stroke="#63b8ff" points="393.22,-118.98 395.48,-108.62 387.26,-115.31 393.22,-118.98"/>
</g>
<!-- Node31&#45;&gt;Node22 -->
<g id="edge47" class="edge">
<title>Node31&#45;&gt;Node22</title>
<path fill="none" stroke="#63b8ff" d="M384.9,-318.6C387.3,-307.33 391.52,-287.55 394.72,-272.56"/>
<polygon fill="#63b8ff" stroke="#63b8ff" points="398.12,-273.38 396.79,-262.87 391.28,-271.92 398.12,-273.38"/>
</g>
<!-- Node32&#45;&gt;Node6 -->
<g id="edge49" class="edge">
<title>Node32&#45;&gt;Node6</title>
<path fill="none" stroke="#63b8ff" d="M1084.69,-347.87C1083.11,-348.25 1081.55,-348.63 1080,-349 1033.13,-360.25 979.61,-373.05 940.4,-382.02"/>
<polygon fill="#63b8ff" stroke="#63b8ff" points="939.68,-378.6 930.71,-384.23 941.24,-385.42 939.68,-378.6"/>
</g>
<!-- Node32&#45;&gt;Node9 -->
<g id="edge50" class="edge">
<title>Node32&#45;&gt;Node9</title>
<path fill="none" stroke="#63b8ff" d="M1165.83,-307.68C1172.1,-297.52 1178.8,-284.64 1182,-272 1201.52,-194.82 1183.55,-100.35 1171.62,-52.48"/>
<polygon fill="#63b8ff" stroke="#63b8ff" points="1175.01,-51.63 1169.12,-42.82 1168.24,-53.38 1175.01,-51.63"/>
</g>
<!-- Node33 -->
<g id="node33" class="node">
<title>Node33</title>
<g id="a_node33"><a xlink:href="_idle__state_8h.html" target="_top" xlink:title="Clase de estado de reposo.">
<polygon fill="white" stroke="#666666" points="1173,-272 1057,-272 1057,-231 1173,-231 1173,-272"/>
<text text-anchor="start" x="1065" y="-260" font-family="Helvetica,sans-Serif" font-size="10.00">machine_state_pattern</text>
<text text-anchor="start" x="1065" y="-249" font-family="Helvetica,sans-Serif" font-size="10.00">/machine_states/Idle</text>
<text text-anchor="middle" x="1115" y="-238" font-family="Helvetica,sans-Serif" font-size="10.00">_state.h</text>
</a>
</g>
</g>
<!-- Node32&#45;&gt;Node33 -->
<g id="edge51" class="edge">
<title>Node32&#45;&gt;Node33</title>
<path fill="none" stroke="#63b8ff" d="M1142.28,-307.79C1138.48,-300.1 1134.05,-291.11 1129.87,-282.65"/>
<polygon fill="#63b8ff" stroke="#63b8ff" points="1133.02,-281.11 1125.45,-273.69 1126.74,-284.21 1133.02,-281.11"/>
</g>
<!-- Node33&#45;&gt;Node6 -->
<g id="edge52" class="edge">
<title>Node33&#45;&gt;Node6</title>
<path fill="none" stroke="#63b8ff" d="M1100.4,-272.21C1081.51,-297.24 1049.1,-338.47 1033,-349 1006.04,-366.63 971.82,-377.52 943.07,-384.1"/>
<polygon fill="#63b8ff" stroke="#63b8ff" points="942.46,-380.65 933.42,-386.18 943.93,-387.49 942.46,-380.65"/>
</g>
<!-- Node33&#45;&gt;Node9 -->
<g id="edge53" class="edge">
<title>Node33&#45;&gt;Node9</title>
<path fill="none" stroke="#63b8ff" d="M1119.18,-230.58C1127.57,-190.55 1146.52,-100.13 1156.53,-52.38"/>
<polygon fill="#63b8ff" stroke="#63b8ff" points="1159.93,-53.2 1158.56,-42.69 1153.08,-51.76 1159.93,-53.2"/>
</g>
<!-- Node34 -->
<g id="node34" class="node">
<title>Node34</title>
<g id="a_node34"><a xlink:href="_alarm__state_8h.html" target="_top" xlink:title="Clase de estado de control del motor.">
<polygon fill="white" stroke="#666666" points="1132.5,-118 1015.5,-118 1015.5,-77 1132.5,-77 1132.5,-118"/>
<text text-anchor="start" x="1023.5" y="-106" font-family="Helvetica,sans-Serif" font-size="10.00">machine_state_pattern</text>
<text text-anchor="start" x="1023.5" y="-95" font-family="Helvetica,sans-Serif" font-size="10.00">/machine_states/Alarm</text>
<text text-anchor="middle" x="1074" y="-84" font-family="Helvetica,sans-Serif" font-size="10.00">_state.h</text>
</a>
</g>
</g>
<!-- Node33&#45;&gt;Node34 -->
<g id="edge54" class="edge">
<title>Node33&#45;&gt;Node34</title>
<path fill="none" stroke="#63b8ff" d="M1104.91,-230.63C1095.6,-204.91 1083.15,-159.82 1076.81,-129.56"/>
<polygon fill="#63b8ff" stroke="#63b8ff" points="1080.27,-129.01 1074.92,-119.86 1073.4,-130.35 1080.27,-129.01"/>
</g>
<!-- Node35 -->
<g id="node35" class="node">
<title>Node35</title>
<g id="a_node35"><a xlink:href="_check__instruction__state_8h_source.html" target="_top" xlink:title=" ">
<polygon fill="white" stroke="#666666" points="1040.5,-195 921.5,-195 921.5,-154 1040.5,-154 1040.5,-195"/>
<text text-anchor="start" x="929.5" y="-183" font-family="Helvetica,sans-Serif" font-size="10.00">machine_state_pattern</text>
<text text-anchor="start" x="929.5" y="-172" font-family="Helvetica,sans-Serif" font-size="10.00">/machine_states/Check</text>
<text text-anchor="middle" x="981" y="-161" font-family="Helvetica,sans-Serif" font-size="10.00">_instruction_state.h</text>
</a>
</g>
</g>
<!-- Node33&#45;&gt;Node35 -->
<g id="edge62" class="edge">
<title>Node33&#45;&gt;Node35</title>
<path fill="none" stroke="#63b8ff" d="M1079.44,-230.6C1063.24,-221.53 1043.86,-210.68 1026.6,-201.02"/>
<polygon fill="#63b8ff" stroke="#63b8ff" points="1028.48,-198.06 1018.04,-196.23 1025.06,-204.17 1028.48,-198.06"/>
</g>
<!-- Node34&#45;&gt;Node6 -->
<g id="edge55" class="edge">
<title>Node34&#45;&gt;Node6</title>
<path fill="none" stroke="#63b8ff" d="M1070.04,-118.36C1065.89,-138.06 1058.75,-168.98 1050,-195 1026.27,-265.58 1036.19,-295.89 984,-349 969.6,-363.65 949.52,-373.89 931.2,-380.82"/>
<polygon fill="#63b8ff" stroke="#63b8ff" points="930.09,-377.51 921.81,-384.12 932.41,-384.11 930.09,-377.51"/>
</g>
<!-- Node34&#45;&gt;Node9 -->
<g id="edge56" class="edge">
<title>Node34&#45;&gt;Node9</title>
<path fill="none" stroke="#63b8ff" d="M1097.38,-76.79C1107.62,-68.16 1119.81,-57.9 1130.88,-48.57"/>
<polygon fill="#63b8ff" stroke="#63b8ff" points="1132.91,-51.43 1138.31,-42.31 1128.4,-46.08 1132.91,-51.43"/>
</g>
<!-- Node34&#45;&gt;Node33 -->
<g id="edge57" class="edge">
<title>Node34&#45;&gt;Node33</title>
<path fill="none" stroke="#63b8ff" d="M1084.09,-118.38C1093.41,-144.1 1105.85,-189.19 1112.19,-219.44"/>
<polygon fill="#63b8ff" stroke="#63b8ff" points="1108.73,-220 1114.08,-229.14 1115.6,-218.66 1108.73,-220"/>
</g>
<!-- Node34&#45;&gt;Node35 -->
<g id="edge58" class="edge">
<title>Node34&#45;&gt;Node35</title>
<path fill="none" stroke="#63b8ff" d="M1055.26,-118.49C1045.27,-127.15 1032.69,-137.41 1020.71,-146.71"/>
<polygon fill="#63b8ff" stroke="#63b8ff" points="1018.73,-143.82 1012.92,-152.68 1022.99,-149.38 1018.73,-143.82"/>
</g>
<!-- Node35&#45;&gt;Node6 -->
<g id="edge59" class="edge">
<title>Node35&#45;&gt;Node6</title>
<path fill="none" stroke="#63b8ff" d="M984.24,-195.35C988.76,-229.7 993.2,-301.16 962,-349 952.91,-362.94 937.81,-373.04 923.39,-380.05"/>
<polygon fill="#63b8ff" stroke="#63b8ff" points="922.2,-376.75 914.48,-384.01 925.04,-383.14 922.2,-376.75"/>
</g>
<!-- Node35&#45;&gt;Node9 -->
<g id="edge60" class="edge">
<title>Node35&#45;&gt;Node9</title>
<path fill="none" stroke="#63b8ff" d="M981.15,-153.56C982.38,-132.03 987.57,-98.02 1007,-77 1028.02,-54.26 1058.98,-40.83 1087.79,-32.9"/>
<polygon fill="#63b8ff" stroke="#63b8ff" points="1088.4,-36.35 1097.23,-30.5 1086.67,-29.57 1088.4,-36.35"/>
</g>
<!-- Node35&#45;&gt;Node34 -->
<g id="edge61" class="edge">
<title>Node35&#45;&gt;Node34</title>
<path fill="none" stroke="#63b8ff" d="M999.41,-153.79C1009.45,-145.08 1022.17,-134.69 1034.28,-125.29"/>
<polygon fill="#63b8ff" stroke="#63b8ff" points="1036.35,-128.11 1042.17,-119.25 1032.1,-122.55 1036.35,-128.11"/>
</g>
</g>
</svg>
