<?xml version="1.0" encoding="UTF-8" standalone="no"?>
<!DOCTYPE svg PUBLIC "-//W3C//DTD SVG 1.1//EN"
 "http://www.w3.org/Graphics/SVG/1.1/DTD/svg11.dtd">
<!-- Generated by graphviz version 7.0.2 (20221119.0110)
 -->
<!-- Title: C:/Users/juanh/OneDrive/Escritorio/Sistemas Embebidos/Proyecto final/LAL Control MbedOS/include/machine_state_pattern/machine_states/Motor_control_state.h Pages: 1 -->
<svg width="1648pt" height="445pt"
 viewBox="0.00 0.00 1648.00 445.00" xmlns="http://www.w3.org/2000/svg" xmlns:xlink="http://www.w3.org/1999/xlink">
<g id="graph0" class="graph" transform="scale(1 1) rotate(0) translate(4 441)">
<title>C:/Users/juanh/OneDrive/Escritorio/Sistemas Embebidos/Proyecto final/LAL Control MbedOS/include/machine_state_pattern/machine_states/Motor_control_state.h</title>
<!-- Node1 -->
<g id="node1" class="node">
<title>Node1</title>
<g id="a_node1"><a xlink:title="Clase de estado de control del motor.">
<polygon fill="#999999" stroke="#666666" points="158,-437 0,-437 0,-363 158,-363 158,-437"/>
<text text-anchor="start" x="8" y="-425" font-family="Helvetica,sans-Serif" font-size="10.00">C:/Users/juanh/OneDrive</text>
<text text-anchor="start" x="8" y="-414" font-family="Helvetica,sans-Serif" font-size="10.00">/Escritorio/Sistemas Embebidos</text>
<text text-anchor="start" x="8" y="-403" font-family="Helvetica,sans-Serif" font-size="10.00">/Proyecto final/LAL Control</text>
<text text-anchor="start" x="8" y="-392" font-family="Helvetica,sans-Serif" font-size="10.00"> MbedOS/include/machine_state</text>
<text text-anchor="start" x="8" y="-381" font-family="Helvetica,sans-Serif" font-size="10.00">_pattern/machine_states/Motor</text>
<text text-anchor="middle" x="79" y="-370" font-family="Helvetica,sans-Serif" font-size="10.00">_control_state.h</text>
</a>
</g>
</g>
<!-- Node2 -->
<g id="node2" class="node">
<title>Node2</title>
<g id="a_node2"><a xlink:href="_control__system_8h_source.html" target="_top" xlink:title=" ">
<polygon fill="white" stroke="#666666" points="844.5,-327 751.5,-327 751.5,-308 844.5,-308 844.5,-327"/>
<text text-anchor="middle" x="798" y="-315" font-family="Helvetica,sans-Serif" font-size="10.00">Control_system.h</text>
</a>
</g>
</g>
<!-- Node1&#45;&gt;Node2 -->
<g id="edge1" class="edge">
<title>Node1&#45;&gt;Node2</title>
<path fill="none" stroke="#63b8ff" d="M158.35,-390.12C304.23,-373.78 611.82,-339.35 740,-324.99"/>
<polygon fill="#63b8ff" stroke="#63b8ff" points="740.06,-328.51 749.61,-323.92 739.28,-321.55 740.06,-328.51"/>
</g>
<!-- Node7 -->
<g id="node7" class="node">
<title>Node7</title>
<g id="a_node7"><a xlink:href="_abstract__state_8h.html" target="_top" xlink:title="Clase de estado abstracta.">
<polygon fill="white" stroke="#666666" points="253,-41 125,-41 125,0 253,0 253,-41"/>
<text text-anchor="start" x="133" y="-29" font-family="Helvetica,sans-Serif" font-size="10.00">machine_state_pattern</text>
<text text-anchor="start" x="133" y="-18" font-family="Helvetica,sans-Serif" font-size="10.00">/machine_states/Abstract</text>
<text text-anchor="middle" x="189" y="-7" font-family="Helvetica,sans-Serif" font-size="10.00">_state.h</text>
</a>
</g>
</g>
<!-- Node1&#45;&gt;Node7 -->
<g id="edge58" class="edge">
<title>Node1&#45;&gt;Node7</title>
<path fill="none" stroke="#63b8ff" d="M48.28,-362.75C27.57,-334.57 4,-293.5 4,-252.5 4,-252.5 4,-252.5 4,-173.5 4,-128.84 1.34,-109.47 32,-77 53.47,-54.26 84.83,-40.83 113.89,-32.9"/>
<polygon fill="#63b8ff" stroke="#63b8ff" points="114.58,-36.33 123.42,-30.49 112.87,-29.55 114.58,-36.33"/>
</g>
<!-- Node33 -->
<g id="node33" class="node">
<title>Node33</title>
<g id="a_node33"><a xlink:href="_idle__state_8h.html" target="_top" xlink:title="Clase de estado de reposo.">
<polygon fill="white" stroke="#666666" points="246,-195 130,-195 130,-154 246,-154 246,-195"/>
<text text-anchor="start" x="138" y="-183" font-family="Helvetica,sans-Serif" font-size="10.00">machine_state_pattern</text>
<text text-anchor="start" x="138" y="-172" font-family="Helvetica,sans-Serif" font-size="10.00">/machine_states/Idle</text>
<text text-anchor="middle" x="188" y="-161" font-family="Helvetica,sans-Serif" font-size="10.00">_state.h</text>
</a>
</g>
</g>
<!-- Node1&#45;&gt;Node33 -->
<g id="edge59" class="edge">
<title>Node1&#45;&gt;Node33</title>
<path fill="none" stroke="#63b8ff" d="M91.61,-362.59C110.77,-318.67 146.49,-245.68 168.83,-205.07"/>
<polygon fill="#63b8ff" stroke="#63b8ff" points="171.76,-207 173.59,-196.56 165.65,-203.57 171.76,-207"/>
</g>
<!-- Node34 -->
<g id="node34" class="node">
<title>Node34</title>
<g id="a_node34"><a xlink:href="_check__instruction__state_8h_source.html" target="_top" xlink:title=" ">
<polygon fill="white" stroke="#666666" points="160.5,-118 41.5,-118 41.5,-77 160.5,-77 160.5,-118"/>
<text text-anchor="start" x="49.5" y="-106" font-family="Helvetica,sans-Serif" font-size="10.00">machine_state_pattern</text>
<text text-anchor="start" x="49.5" y="-95" font-family="Helvetica,sans-Serif" font-size="10.00">/machine_states/Check</text>
<text text-anchor="middle" x="101" y="-84" font-family="Helvetica,sans-Serif" font-size="10.00">_instruction_state.h</text>
</a>
</g>
</g>
<!-- Node1&#45;&gt;Node34 -->
<g id="edge60" class="edge">
<title>Node1&#45;&gt;Node34</title>
<path fill="none" stroke="#63b8ff" d="M77.07,-362.75C78.46,-303.13 87.17,-185.39 94.43,-129.44"/>
<polygon fill="#63b8ff" stroke="#63b8ff" points="97.88,-130.05 95.8,-119.66 90.95,-129.08 97.88,-130.05"/>
</g>
<!-- Node3 -->
<g id="node3" class="node">
<title>Node3</title>
<g id="a_node3"><a xlink:href="_subject_8h.html" target="_top" xlink:title=" ">
<polygon fill="white" stroke="#666666" points="1490,-189.5 1362,-189.5 1362,-159.5 1490,-159.5 1490,-189.5"/>
<text text-anchor="start" x="1370" y="-177.5" font-family="Helvetica,sans-Serif" font-size="10.00">observer_pattern/subjects</text>
<text text-anchor="middle" x="1426" y="-166.5" font-family="Helvetica,sans-Serif" font-size="10.00">/Subject.h</text>
</a>
</g>
</g>
<!-- Node2&#45;&gt;Node3 -->
<g id="edge2" class="edge">
<title>Node2&#45;&gt;Node3</title>
<path fill="none" stroke="#63b8ff" d="M844.98,-316.88C987.09,-317.54 1405.19,-315.71 1446,-272 1464.16,-252.55 1452.87,-221.11 1441.21,-199.43"/>
<polygon fill="#63b8ff" stroke="#63b8ff" points="1444.37,-197.89 1436.34,-190.98 1438.3,-201.39 1444.37,-197.89"/>
</g>
<!-- Node6 -->
<g id="node6" class="node">
<title>Node6</title>
<g id="a_node6"><a xlink:href="_machine_8h.html" target="_top" xlink:title="Clase de máquina abstracta.">
<polygon fill="white" stroke="#666666" points="395,-112.5 279,-112.5 279,-82.5 395,-82.5 395,-112.5"/>
<text text-anchor="start" x="287" y="-100.5" font-family="Helvetica,sans-Serif" font-size="10.00">machine_state_pattern</text>
<text text-anchor="middle" x="337" y="-89.5" font-family="Helvetica,sans-Serif" font-size="10.00">/Machine.h</text>
</a>
</g>
</g>
<!-- Node2&#45;&gt;Node6 -->
<g id="edge5" class="edge">
<title>Node2&#45;&gt;Node6</title>
<path fill="none" stroke="#63b8ff" d="M751.09,-315.11C691.37,-312.08 585.76,-302.47 501,-272 438.53,-249.54 415.42,-246.07 373,-195 355.9,-174.42 346.49,-144.93 341.63,-123.97"/>
<polygon fill="#63b8ff" stroke="#63b8ff" points="345.06,-123.3 339.57,-114.24 338.21,-124.74 345.06,-123.3"/>
</g>
<!-- Node8 -->
<g id="node8" class="node">
<title>Node8</title>
<g id="a_node8"><a xlink:href="_display_8h.html" target="_top" xlink:title="Controlador de LCD hd44780 por interfaz I2C.">
<polygon fill="white" stroke="#666666" points="598,-261 510,-261 510,-242 598,-242 598,-261"/>
<text text-anchor="middle" x="554" y="-249" font-family="Helvetica,sans-Serif" font-size="10.00">drivers/Display.h</text>
</a>
</g>
</g>
<!-- Node2&#45;&gt;Node8 -->
<g id="edge7" class="edge">
<title>Node2&#45;&gt;Node8</title>
<path fill="none" stroke="#63b8ff" d="M755.98,-307.58C718.1,-299.26 660.99,-286.06 612,-272 604.74,-269.92 597.05,-267.49 589.72,-265.07"/>
<polygon fill="#63b8ff" stroke="#63b8ff" points="591,-261.8 580.4,-261.92 588.76,-268.44 591,-261.8"/>
</g>
<!-- Node18 -->
<g id="node18" class="node">
<title>Node18</title>
<g id="a_node18"><a xlink:href="user__messages_8h.html" target="_top" xlink:title="Archivo para la configuración de interfaz con el usuario.">
<polygon fill="white" stroke="#666666" points="1335,-261 1241,-261 1241,-242 1335,-242 1335,-261"/>
<text text-anchor="middle" x="1288" y="-249" font-family="Helvetica,sans-Serif" font-size="10.00">user_messages.h</text>
</a>
</g>
</g>
<!-- Node2&#45;&gt;Node18 -->
<g id="edge19" class="edge">
<title>Node2&#45;&gt;Node18</title>
<path fill="none" stroke="#63b8ff" d="M844.81,-315.26C924.99,-312.36 1093.36,-302.8 1232,-272 1239.7,-270.29 1247.8,-267.86 1255.38,-265.29"/>
<polygon fill="#63b8ff" stroke="#63b8ff" points="1256.33,-268.66 1264.57,-262 1253.98,-262.07 1256.33,-268.66"/>
</g>
<!-- Node19 -->
<g id="node19" class="node">
<title>Node19</title>
<g id="a_node19"><a xlink:href="_system__observer_8h.html" target="_top" xlink:title="Clase observador del sistema de control.">
<polygon fill="white" stroke="#666666" points="1625,-266.5 1493,-266.5 1493,-236.5 1625,-236.5 1625,-266.5"/>
<text text-anchor="start" x="1501" y="-254.5" font-family="Helvetica,sans-Serif" font-size="10.00">observer_pattern/observers</text>
<text text-anchor="middle" x="1559" y="-243.5" font-family="Helvetica,sans-Serif" font-size="10.00">/System_observer.h</text>
</a>
</g>
</g>
<!-- Node2&#45;&gt;Node19 -->
<g id="edge20" class="edge">
<title>Node2&#45;&gt;Node19</title>
<path fill="none" stroke="#63b8ff" d="M844.82,-316.18C954.72,-314.81 1236.95,-307.74 1470,-272 1475.12,-271.22 1480.39,-270.26 1485.69,-269.2"/>
<polygon fill="#63b8ff" stroke="#63b8ff" points="1486.04,-272.71 1495.11,-267.22 1484.6,-265.86 1486.04,-272.71"/>
</g>
<!-- Node21 -->
<g id="node21" class="node">
<title>Node21</title>
<g id="a_node21"><a xlink:href="_temperature__sensor_8h.html" target="_top" xlink:title="Controlador para sensor de temperatura DS18B20.">
<polygon fill="white" stroke="#666666" points="1222.5,-266.5 1121.5,-266.5 1121.5,-236.5 1222.5,-236.5 1222.5,-266.5"/>
<text text-anchor="start" x="1129.5" y="-254.5" font-family="Helvetica,sans-Serif" font-size="10.00">drivers/Temperature</text>
<text text-anchor="middle" x="1172" y="-243.5" font-family="Helvetica,sans-Serif" font-size="10.00">_sensor.h</text>
</a>
</g>
</g>
<!-- Node2&#45;&gt;Node21 -->
<g id="edge25" class="edge">
<title>Node2&#45;&gt;Node21</title>
<path fill="none" stroke="#63b8ff" d="M844.92,-312.52C906.89,-306.65 1019.16,-293.95 1113,-272 1115.43,-271.43 1117.91,-270.81 1120.4,-270.14"/>
<polygon fill="#63b8ff" stroke="#63b8ff" points="1121.23,-273.54 1129.87,-267.41 1119.29,-266.81 1121.23,-273.54"/>
</g>
<!-- Node24 -->
<g id="node24" class="node">
<title>Node24</title>
<g id="a_node24"><a xlink:href="_moisture__sensor_8h.html" target="_top" xlink:title="Controlador de sensor de humedad analógico.">
<polygon fill="white" stroke="#666666" points="801,-107 673,-107 673,-88 801,-88 801,-107"/>
<text text-anchor="middle" x="737" y="-95" font-family="Helvetica,sans-Serif" font-size="10.00">drivers/Moisture_sensor.h</text>
</a>
</g>
</g>
<!-- Node2&#45;&gt;Node24 -->
<g id="edge28" class="edge">
<title>Node2&#45;&gt;Node24</title>
<path fill="none" stroke="#63b8ff" d="M751.36,-309.19C711.24,-301.84 657.87,-289.15 645,-272 605.19,-218.96 678.99,-146.35 716.74,-114.54"/>
<polygon fill="#63b8ff" stroke="#63b8ff" points="718.8,-117.38 724.3,-108.33 714.35,-111.97 718.8,-117.38"/>
</g>
<!-- Node25 -->
<g id="node25" class="node">
<title>Node25</title>
<g id="a_node25"><a xlink:href="types_8h.html" target="_top" xlink:title="Archivo de definición de tipos de dato.">
<polygon fill="white" stroke="#666666" points="1006.5,-184 957.5,-184 957.5,-165 1006.5,-165 1006.5,-184"/>
<text text-anchor="middle" x="982" y="-172" font-family="Helvetica,sans-Serif" font-size="10.00">types.h</text>
</a>
</g>
</g>
<!-- Node2&#45;&gt;Node25 -->
<g id="edge30" class="edge">
<title>Node2&#45;&gt;Node25</title>
<path fill="none" stroke="#63b8ff" d="M844.95,-316.59C882.23,-314.03 932.94,-304.21 963,-272 982.19,-251.43 984.55,-217.37 983.79,-195.71"/>
<polygon fill="#63b8ff" stroke="#63b8ff" points="987.29,-195.58 983.16,-185.82 980.31,-196.02 987.29,-195.58"/>
</g>
<!-- Node26 -->
<g id="node26" class="node">
<title>Node26</title>
<g id="a_node26"><a xlink:href="_buzzer_8h.html" target="_top" xlink:title="Controlador de Buzzer de 12 milimetros sin oscilador.">
<polygon fill="white" stroke="#666666" points="740,-261 654,-261 654,-242 740,-242 740,-261"/>
<text text-anchor="middle" x="697" y="-249" font-family="Helvetica,sans-Serif" font-size="10.00">drivers/Buzzer.h</text>
</a>
</g>
</g>
<!-- Node2&#45;&gt;Node26 -->
<g id="edge31" class="edge">
<title>Node2&#45;&gt;Node26</title>
<path fill="none" stroke="#63b8ff" d="M783.96,-307.6C767.52,-297.19 740.07,-279.79 720.4,-267.33"/>
<polygon fill="#63b8ff" stroke="#63b8ff" points="722.52,-264.53 712.2,-262.13 718.78,-270.44 722.52,-264.53"/>
</g>
<!-- Node28 -->
<g id="node28" class="node">
<title>Node28</title>
<g id="a_node28"><a xlink:href="_motor_8h.html" target="_top" xlink:title="Controlador de motor de 220 VAC.">
<polygon fill="white" stroke="#666666" points="838,-261 758,-261 758,-242 838,-242 838,-261"/>
<text text-anchor="middle" x="798" y="-249" font-family="Helvetica,sans-Serif" font-size="10.00">drivers/Motor.h</text>
</a>
</g>
</g>
<!-- Node2&#45;&gt;Node28 -->
<g id="edge34" class="edge">
<title>Node2&#45;&gt;Node28</title>
<path fill="none" stroke="#63b8ff" d="M798,-307.6C798,-298.62 798,-284.45 798,-272.72"/>
<polygon fill="#63b8ff" stroke="#63b8ff" points="801.5,-272.84 798,-262.84 794.5,-272.84 801.5,-272.84"/>
</g>
<!-- Node29 -->
<g id="node29" class="node">
<title>Node29</title>
<g id="a_node29"><a xlink:href="_dual___l_e_d_8h.html" target="_top" xlink:title="Controlador de LED RG.">
<polygon fill="white" stroke="#666666" points="1103.5,-261 1010.5,-261 1010.5,-242 1103.5,-242 1103.5,-261"/>
<text text-anchor="middle" x="1057" y="-249" font-family="Helvetica,sans-Serif" font-size="10.00">drivers/Dual_led.h</text>
</a>
</g>
</g>
<!-- Node2&#45;&gt;Node29 -->
<g id="edge37" class="edge">
<title>Node2&#45;&gt;Node29</title>
<path fill="none" stroke="#63b8ff" d="M843.1,-307.55C883.42,-299.27 943.98,-286.13 996,-272 1003.8,-269.88 1012.1,-267.39 1019.97,-264.91"/>
<polygon fill="#63b8ff" stroke="#63b8ff" points="1020.84,-268.31 1029.29,-261.92 1018.7,-261.65 1020.84,-268.31"/>
</g>
<!-- Node30 -->
<g id="node30" class="node">
<title>Node30</title>
<g id="a_node30"><a xlink:href="_digital__dual___l_e_d_8h_source.html" target="_top" xlink:title=" ">
<polygon fill="white" stroke="#666666" points="954,-266.5 856,-266.5 856,-236.5 954,-236.5 954,-266.5"/>
<text text-anchor="start" x="864" y="-254.5" font-family="Helvetica,sans-Serif" font-size="10.00">drivers/Digital_dual</text>
<text text-anchor="middle" x="905" y="-243.5" font-family="Helvetica,sans-Serif" font-size="10.00">_led.h</text>
</a>
</g>
</g>
<!-- Node2&#45;&gt;Node30 -->
<g id="edge41" class="edge">
<title>Node2&#45;&gt;Node30</title>
<path fill="none" stroke="#63b8ff" d="M812.88,-307.6C827.84,-298.65 851.44,-284.54 871,-272.84"/>
<polygon fill="#63b8ff" stroke="#63b8ff" points="872.71,-275.89 879.5,-267.75 869.12,-269.88 872.71,-275.89"/>
</g>
<!-- Node31 -->
<g id="node31" class="node">
<title>Node31</title>
<g id="a_node31"><a xlink:href="_cooler_8h.html" target="_top" xlink:title="Controlador de ventilador de 12 volts y 5 milímteros.">
<polygon fill="white" stroke="#666666" points="1436.5,-261 1353.5,-261 1353.5,-242 1436.5,-242 1436.5,-261"/>
<text text-anchor="middle" x="1395" y="-249" font-family="Helvetica,sans-Serif" font-size="10.00">drivers/Cooler.h</text>
</a>
</g>
</g>
<!-- Node2&#45;&gt;Node31 -->
<g id="edge44" class="edge">
<title>Node2&#45;&gt;Node31</title>
<path fill="none" stroke="#63b8ff" d="M844.69,-317.12C939.87,-317.41 1162.68,-313.17 1344,-272 1351.04,-270.4 1358.4,-268.03 1365.27,-265.49"/>
<polygon fill="#63b8ff" stroke="#63b8ff" points="1366.12,-268.91 1374.14,-261.99 1363.55,-262.4 1366.12,-268.91"/>
</g>
<!-- Node32 -->
<g id="node32" class="node">
<title>Node32</title>
<g id="a_node32"><a xlink:href="_shutdown__state_8h.html" target="_top" xlink:title="Clase de estado de apagado del sistema.">
<polygon fill="white" stroke="#666666" points="354,-272 220,-272 220,-231 354,-231 354,-272"/>
<text text-anchor="start" x="228" y="-260" font-family="Helvetica,sans-Serif" font-size="10.00">machine_state_pattern</text>
<text text-anchor="start" x="228" y="-249" font-family="Helvetica,sans-Serif" font-size="10.00">/machine_states/Shutdown</text>
<text text-anchor="middle" x="287" y="-238" font-family="Helvetica,sans-Serif" font-size="10.00">_state.h</text>
</a>
</g>
</g>
<!-- Node2&#45;&gt;Node32 -->
<g id="edge47" class="edge">
<title>Node2&#45;&gt;Node32</title>
<path fill="none" stroke="#63b8ff" d="M751.29,-314.05C672.61,-309.22 509.05,-296.89 365.44,-273.04"/>
<polygon fill="#63b8ff" stroke="#63b8ff" points="366.19,-269.62 355.75,-271.41 365.03,-276.52 366.19,-269.62"/>
</g>
<!-- Node4 -->
<g id="node4" class="node">
<title>Node4</title>
<g id="a_node4"><a xlink:href="_subject__interface_8h.html" target="_top" xlink:title="Clase para interfaz para implementar el sujeto.">
<polygon fill="white" stroke="#666666" points="1638,-112.5 1510,-112.5 1510,-82.5 1638,-82.5 1638,-112.5"/>
<text text-anchor="start" x="1518" y="-100.5" font-family="Helvetica,sans-Serif" font-size="10.00">observer_pattern/subjects</text>
<text text-anchor="middle" x="1574" y="-89.5" font-family="Helvetica,sans-Serif" font-size="10.00">/Subject_interface.h</text>
</a>
</g>
</g>
<!-- Node3&#45;&gt;Node4 -->
<g id="edge3" class="edge">
<title>Node3&#45;&gt;Node4</title>
<path fill="none" stroke="#63b8ff" d="M1454.54,-159.04C1477.57,-147.37 1510.2,-130.83 1535.54,-117.99"/>
<polygon fill="#63b8ff" stroke="#63b8ff" points="1536.86,-121.24 1544.2,-113.6 1533.7,-115 1536.86,-121.24"/>
</g>
<!-- Node5 -->
<g id="node5" class="node">
<title>Node5</title>
<g id="a_node5"><a xlink:href="_observer__interface_8h.html" target="_top" xlink:title="Clase para interfaz para implementar el observador.">
<polygon fill="white" stroke="#666666" points="1492,-112.5 1360,-112.5 1360,-82.5 1492,-82.5 1492,-112.5"/>
<text text-anchor="start" x="1368" y="-100.5" font-family="Helvetica,sans-Serif" font-size="10.00">observer_pattern/observers</text>
<text text-anchor="middle" x="1426" y="-89.5" font-family="Helvetica,sans-Serif" font-size="10.00">/Observer_interface.h</text>
</a>
</g>
</g>
<!-- Node3&#45;&gt;Node5 -->
<g id="edge4" class="edge">
<title>Node3&#45;&gt;Node5</title>
<path fill="none" stroke="#63b8ff" d="M1426,-159.04C1426,-149.18 1426,-135.86 1426,-124.22"/>
<polygon fill="#63b8ff" stroke="#63b8ff" points="1429.5,-124.43 1426,-114.43 1422.5,-124.43 1429.5,-124.43"/>
</g>
<!-- Node6&#45;&gt;Node7 -->
<g id="edge6" class="edge">
<title>Node6&#45;&gt;Node7</title>
<path fill="none" stroke="#63b8ff" d="M308.46,-82.04C288.63,-71.99 261.69,-58.34 238.42,-46.54"/>
<polygon fill="#63b8ff" stroke="#63b8ff" points="240.21,-43.53 229.71,-42.13 237.05,-49.77 240.21,-43.53"/>
</g>
<!-- Node9 -->
<g id="node9" class="node">
<title>Node9</title>
<g id="a_node9"><a xlink:href="display__settings_8h.html" target="_top" xlink:title="Archivo de configuración de la pantalla.">
<polygon fill="white" stroke="#666666" points="477.5,-184 382.5,-184 382.5,-165 477.5,-165 477.5,-184"/>
<text text-anchor="middle" x="430" y="-172" font-family="Helvetica,sans-Serif" font-size="10.00">display_settings.h</text>
</a>
</g>
</g>
<!-- Node8&#45;&gt;Node9 -->
<g id="edge8" class="edge">
<title>Node8&#45;&gt;Node9</title>
<path fill="none" stroke="#63b8ff" d="M539.29,-241.6C518.31,-228.92 479.56,-205.48 454.29,-190.19"/>
<polygon fill="#63b8ff" stroke="#63b8ff" points="456.36,-187.35 445.99,-185.17 452.73,-193.34 456.36,-187.35"/>
</g>
<!-- Node10 -->
<g id="node10" class="node">
<title>Node10</title>
<g id="a_node10"><a xlink:href="hd44780___i2_cexp_8h_source.html" target="_top" xlink:title=" ">
<polygon fill="white" stroke="#666666" points="624,-184 496,-184 496,-165 624,-165 624,-184"/>
<text text-anchor="middle" x="560" y="-172" font-family="Helvetica,sans-Serif" font-size="10.00">drivers/hd44780_I2Cexp.h</text>
</a>
</g>
</g>
<!-- Node8&#45;&gt;Node10 -->
<g id="edge9" class="edge">
<title>Node8&#45;&gt;Node10</title>
<path fill="none" stroke="#63b8ff" d="M554.71,-241.6C555.61,-230.33 557.2,-210.55 558.4,-195.56"/>
<polygon fill="#63b8ff" stroke="#63b8ff" points="561.86,-196.14 559.17,-185.9 554.88,-195.58 561.86,-196.14"/>
</g>
<!-- Node11 -->
<g id="node11" class="node">
<title>Node11</title>
<g id="a_node11"><a xlink:title=" ">
<polygon fill="#e0e0e0" stroke="#999999" points="872.5,-30 823.5,-30 823.5,-11 872.5,-11 872.5,-30"/>
<text text-anchor="middle" x="848" y="-18" font-family="Helvetica,sans-Serif" font-size="10.00">mbed.h</text>
</a>
</g>
</g>
<!-- Node10&#45;&gt;Node11 -->
<g id="edge10" class="edge">
<title>Node10&#45;&gt;Node11</title>
<path fill="none" stroke="#63b8ff" d="M571.1,-164.86C584.52,-154.27 607.57,-135.56 626,-118 643.99,-100.86 642.93,-90.16 664,-77 710.42,-48.01 772.9,-33.39 811.8,-26.62"/>
<polygon fill="#63b8ff" stroke="#63b8ff" points="812.27,-30.09 821.57,-25.01 811.14,-23.18 812.27,-30.09"/>
</g>
<!-- Node12 -->
<g id="node12" class="node">
<title>Node12</title>
<g id="a_node12"><a xlink:title=" ">
<polygon fill="#e0e0e0" stroke="#999999" points="430,-30 382,-30 382,-11 430,-11 430,-30"/>
<text text-anchor="middle" x="406" y="-18" font-family="Helvetica,sans-Serif" font-size="10.00">stdlib.h</text>
</a>
</g>
</g>
<!-- Node10&#45;&gt;Node12 -->
<g id="edge11" class="edge">
<title>Node10&#45;&gt;Node12</title>
<path fill="none" stroke="#63b8ff" d="M524.14,-164.53C498.18,-156.34 463.93,-141.82 442,-118 422.15,-96.44 412.96,-62.93 408.92,-41.61"/>
<polygon fill="#63b8ff" stroke="#63b8ff" points="412.39,-41.17 407.3,-31.88 405.49,-42.32 412.39,-41.17"/>
</g>
<!-- Node13 -->
<g id="node13" class="node">
<title>Node13</title>
<g id="a_node13"><a xlink:href="hd44780__instruction__set_8h_source.html" target="_top" xlink:title=" ">
<polygon fill="white" stroke="#666666" points="617,-112.5 513,-112.5 513,-82.5 617,-82.5 617,-112.5"/>
<text text-anchor="start" x="521" y="-100.5" font-family="Helvetica,sans-Serif" font-size="10.00">hd44780_instruction</text>
<text text-anchor="middle" x="565" y="-89.5" font-family="Helvetica,sans-Serif" font-size="10.00">_set.h</text>
</a>
</g>
</g>
<!-- Node10&#45;&gt;Node13 -->
<g id="edge12" class="edge">
<title>Node10&#45;&gt;Node13</title>
<path fill="none" stroke="#63b8ff" d="M560.59,-164.6C561.25,-154.7 562.35,-138.24 563.28,-124.23"/>
<polygon fill="#63b8ff" stroke="#63b8ff" points="566.78,-124.49 563.95,-114.28 559.79,-124.02 566.78,-124.49"/>
</g>
<!-- Node14 -->
<g id="node14" class="node">
<title>Node14</title>
<g id="a_node14"><a xlink:href="utils_8h_source.html" target="_top" xlink:title=" ">
<polygon fill="white" stroke="#666666" points="494.5,-107 451.5,-107 451.5,-88 494.5,-88 494.5,-107"/>
<text text-anchor="middle" x="473" y="-95" font-family="Helvetica,sans-Serif" font-size="10.00">utils.h</text>
</a>
</g>
</g>
<!-- Node10&#45;&gt;Node14 -->
<g id="edge14" class="edge">
<title>Node10&#45;&gt;Node14</title>
<path fill="none" stroke="#63b8ff" d="M549.68,-164.6C535.42,-152.31 509.45,-129.92 491.72,-114.64"/>
<polygon fill="#63b8ff" stroke="#63b8ff" points="494.31,-112.25 484.45,-108.37 489.74,-117.56 494.31,-112.25"/>
</g>
<!-- Node13&#45;&gt;Node11 -->
<g id="edge13" class="edge">
<title>Node13&#45;&gt;Node11</title>
<path fill="none" stroke="#63b8ff" d="M613.24,-82.02C619.21,-80.3 625.24,-78.59 631,-77 694.53,-59.5 769.04,-40.85 812.15,-30.24"/>
<polygon fill="#63b8ff" stroke="#63b8ff" points="812.84,-33.67 821.72,-27.89 811.17,-26.88 812.84,-33.67"/>
</g>
<!-- Node14&#45;&gt;Node12 -->
<g id="edge17" class="edge">
<title>Node14&#45;&gt;Node12</title>
<path fill="none" stroke="#63b8ff" d="M465.05,-87.6C454.37,-75.65 435.17,-54.15 421.56,-38.92"/>
<polygon fill="#63b8ff" stroke="#63b8ff" points="424.22,-36.64 414.95,-31.52 419,-41.3 424.22,-36.64"/>
</g>
<!-- Node15 -->
<g id="node15" class="node">
<title>Node15</title>
<g id="a_node15"><a xlink:title=" ">
<polygon fill="#e0e0e0" stroke="#999999" points="562.5,-30 515.5,-30 515.5,-11 562.5,-11 562.5,-30"/>
<text text-anchor="middle" x="539" y="-18" font-family="Helvetica,sans-Serif" font-size="10.00">math.h</text>
</a>
</g>
</g>
<!-- Node14&#45;&gt;Node15 -->
<g id="edge15" class="edge">
<title>Node14&#45;&gt;Node15</title>
<path fill="none" stroke="#63b8ff" d="M480.83,-87.6C491.35,-75.65 510.27,-54.15 523.67,-38.92"/>
<polygon fill="#63b8ff" stroke="#63b8ff" points="526.2,-41.34 530.18,-31.52 520.95,-36.72 526.2,-41.34"/>
</g>
<!-- Node16 -->
<g id="node16" class="node">
<title>Node16</title>
<g id="a_node16"><a xlink:title=" ">
<polygon fill="#e0e0e0" stroke="#999999" points="627,-30 581,-30 581,-11 627,-11 627,-30"/>
<text text-anchor="middle" x="604" y="-18" font-family="Helvetica,sans-Serif" font-size="10.00">stdio.h</text>
</a>
</g>
</g>
<!-- Node14&#45;&gt;Node16 -->
<g id="edge16" class="edge">
<title>Node14&#45;&gt;Node16</title>
<path fill="none" stroke="#63b8ff" d="M486.76,-87.56C492.1,-84.17 498.29,-80.33 504,-77 533.21,-59.99 541.55,-57.6 571,-41 573.73,-39.46 576.58,-37.83 579.4,-36.18"/>
<polygon fill="#63b8ff" stroke="#63b8ff" points="581.14,-39.22 587.99,-31.13 577.59,-33.19 581.14,-39.22"/>
</g>
<!-- Node17 -->
<g id="node17" class="node">
<title>Node17</title>
<g id="a_node17"><a xlink:title=" ">
<polygon fill="#e0e0e0" stroke="#999999" points="497.5,-30 448.5,-30 448.5,-11 497.5,-11 497.5,-30"/>
<text text-anchor="middle" x="473" y="-18" font-family="Helvetica,sans-Serif" font-size="10.00">string.h</text>
</a>
</g>
</g>
<!-- Node14&#45;&gt;Node17 -->
<g id="edge18" class="edge">
<title>Node14&#45;&gt;Node17</title>
<path fill="none" stroke="#63b8ff" d="M473,-87.6C473,-76.33 473,-56.55 473,-41.56"/>
<polygon fill="#63b8ff" stroke="#63b8ff" points="476.5,-41.9 473,-31.9 469.5,-41.9 476.5,-41.9"/>
</g>
<!-- Node19&#45;&gt;Node2 -->
<g id="edge24" class="edge">
<title>Node19&#45;&gt;Node2</title>
<path fill="none" stroke="#63b8ff" d="M1514.34,-266.91C1505.67,-268.88 1496.62,-270.68 1488,-272 1256.22,-307.54 975.81,-314.73 856.32,-316.16"/>
<polygon fill="#63b8ff" stroke="#63b8ff" points="856.4,-312.66 846.44,-316.26 856.48,-319.65 856.4,-312.66"/>
</g>
<!-- Node20 -->
<g id="node20" class="node">
<title>Node20</title>
<g id="a_node20"><a xlink:href="_observer_8h.html" target="_top" xlink:title="Clase observador.">
<polygon fill="white" stroke="#666666" points="1640,-189.5 1508,-189.5 1508,-159.5 1640,-159.5 1640,-189.5"/>
<text text-anchor="start" x="1516" y="-177.5" font-family="Helvetica,sans-Serif" font-size="10.00">observer_pattern/observers</text>
<text text-anchor="middle" x="1574" y="-166.5" font-family="Helvetica,sans-Serif" font-size="10.00">/Observer.h</text>
</a>
</g>
</g>
<!-- Node19&#45;&gt;Node20 -->
<g id="edge21" class="edge">
<title>Node19&#45;&gt;Node20</title>
<path fill="none" stroke="#63b8ff" d="M1561.89,-236.04C1563.88,-226.08 1566.58,-212.58 1568.93,-200.85"/>
<polygon fill="#63b8ff" stroke="#63b8ff" points="1572.29,-201.89 1570.82,-191.4 1565.43,-200.52 1572.29,-201.89"/>
</g>
<!-- Node20&#45;&gt;Node4 -->
<g id="edge22" class="edge">
<title>Node20&#45;&gt;Node4</title>
<path fill="none" stroke="#63b8ff" d="M1574,-159.04C1574,-149.18 1574,-135.86 1574,-124.22"/>
<polygon fill="#63b8ff" stroke="#63b8ff" points="1577.5,-124.43 1574,-114.43 1570.5,-124.43 1577.5,-124.43"/>
</g>
<!-- Node20&#45;&gt;Node5 -->
<g id="edge23" class="edge">
<title>Node20&#45;&gt;Node5</title>
<path fill="none" stroke="#63b8ff" d="M1545.46,-159.04C1522.43,-147.37 1489.8,-130.83 1464.46,-117.99"/>
<polygon fill="#63b8ff" stroke="#63b8ff" points="1466.3,-115 1455.8,-113.6 1463.14,-121.24 1466.3,-115"/>
</g>
<!-- Node22 -->
<g id="node22" class="node">
<title>Node22</title>
<g id="a_node22"><a xlink:href="system__settings_8h.html" target="_top" xlink:title="Archivo para la definición de constantes del sistema.">
<polygon fill="white" stroke="#666666" points="1205.5,-184 1108.5,-184 1108.5,-165 1205.5,-165 1205.5,-184"/>
<text text-anchor="middle" x="1157" y="-172" font-family="Helvetica,sans-Serif" font-size="10.00">system_settings.h</text>
</a>
</g>
</g>
<!-- Node21&#45;&gt;Node22 -->
<g id="edge26" class="edge">
<title>Node21&#45;&gt;Node22</title>
<path fill="none" stroke="#63b8ff" d="M1169.11,-236.04C1166.79,-224.43 1163.5,-208 1160.94,-195.19"/>
<polygon fill="#63b8ff" stroke="#63b8ff" points="1164.45,-194.89 1159.05,-185.77 1157.58,-196.26 1164.45,-194.89"/>
</g>
<!-- Node23 -->
<g id="node23" class="node">
<title>Node23</title>
<g id="a_node23"><a xlink:title=" ">
<polygon fill="#e0e0e0" stroke="#999999" points="1282.5,-184 1223.5,-184 1223.5,-165 1282.5,-165 1282.5,-184"/>
<text text-anchor="middle" x="1253" y="-172" font-family="Helvetica,sans-Serif" font-size="10.00">DS1820.h</text>
</a>
</g>
</g>
<!-- Node21&#45;&gt;Node23 -->
<g id="edge27" class="edge">
<title>Node21&#45;&gt;Node23</title>
<path fill="none" stroke="#63b8ff" d="M1187.62,-236.04C1201.19,-223.47 1220.86,-205.26 1235.07,-192.1"/>
<polygon fill="#63b8ff" stroke="#63b8ff" points="1237.44,-194.68 1242.4,-185.32 1232.68,-189.54 1237.44,-194.68"/>
</g>
<!-- Node24&#45;&gt;Node11 -->
<g id="edge29" class="edge">
<title>Node24&#45;&gt;Node11</title>
<path fill="none" stroke="#63b8ff" d="M750.17,-87.6C768.69,-75.08 802.71,-52.1 825.35,-36.81"/>
<polygon fill="#63b8ff" stroke="#63b8ff" points="827.27,-39.73 833.59,-31.23 823.35,-33.93 827.27,-39.73"/>
</g>
<!-- Node26&#45;&gt;Node11 -->
<g id="edge32" class="edge">
<title>Node26&#45;&gt;Node11</title>
<path fill="none" stroke="#63b8ff" d="M701.05,-241.7C709.64,-223.71 731.11,-182.04 758,-154 777.46,-133.71 792.54,-140.03 810,-118 828.24,-94.99 838.66,-62.13 843.82,-41.32"/>
<polygon fill="#63b8ff" stroke="#63b8ff" points="847.17,-42.36 845.99,-31.84 840.35,-40.8 847.17,-42.36"/>
</g>
<!-- Node27 -->
<g id="node27" class="node">
<title>Node27</title>
<g id="a_node27"><a xlink:href="port__config_8h.html" target="_top" xlink:title="Archivo de configuración para los puertos de la placa donde se implementará el sistema.">
<polygon fill="white" stroke="#666666" points="839,-184 767,-184 767,-165 839,-165 839,-184"/>
<text text-anchor="middle" x="803" y="-172" font-family="Helvetica,sans-Serif" font-size="10.00">port_config.h</text>
</a>
</g>
</g>
<!-- Node26&#45;&gt;Node27 -->
<g id="edge33" class="edge">
<title>Node26&#45;&gt;Node27</title>
<path fill="none" stroke="#63b8ff" d="M709.58,-241.6C727.19,-229.14 759.46,-206.31 781.07,-191.01"/>
<polygon fill="#63b8ff" stroke="#63b8ff" points="783.06,-193.89 789.2,-185.26 779.02,-188.18 783.06,-193.89"/>
</g>
<!-- Node28&#45;&gt;Node11 -->
<g id="edge35" class="edge">
<title>Node28&#45;&gt;Node11</title>
<path fill="none" stroke="#63b8ff" d="M809.78,-241.84C822,-232.05 840.38,-214.86 848,-195 868.11,-142.62 858.96,-74.61 852.48,-41.44"/>
<polygon fill="#63b8ff" stroke="#63b8ff" points="855.91,-40.75 850.42,-31.68 849.06,-42.19 855.91,-40.75"/>
</g>
<!-- Node28&#45;&gt;Node27 -->
<g id="edge36" class="edge">
<title>Node28&#45;&gt;Node27</title>
<path fill="none" stroke="#63b8ff" d="M798.59,-241.6C799.34,-230.33 800.66,-210.55 801.66,-195.56"/>
<polygon fill="#63b8ff" stroke="#63b8ff" points="805.13,-196.11 802.31,-185.9 798.15,-195.64 805.13,-196.11"/>
</g>
<!-- Node29&#45;&gt;Node11 -->
<g id="edge38" class="edge">
<title>Node29&#45;&gt;Node11</title>
<path fill="none" stroke="#63b8ff" d="M1054.87,-241.75C1050.19,-223.86 1037.66,-182.35 1016,-154 975.77,-101.34 910.03,-57.73 873.87,-36.13"/>
<polygon fill="#63b8ff" stroke="#63b8ff" points="875.78,-33.19 865.38,-31.15 872.24,-39.23 875.78,-33.19"/>
</g>
<!-- Node29&#45;&gt;Node22 -->
<g id="edge40" class="edge">
<title>Node29&#45;&gt;Node22</title>
<path fill="none" stroke="#63b8ff" d="M1068.86,-241.6C1085.4,-229.2 1115.65,-206.51 1136.04,-191.22"/>
<polygon fill="#63b8ff" stroke="#63b8ff" points="1138.04,-194.09 1143.94,-185.29 1133.84,-188.49 1138.04,-194.09"/>
</g>
<!-- Node29&#45;&gt;Node25 -->
<g id="edge39" class="edge">
<title>Node29&#45;&gt;Node25</title>
<path fill="none" stroke="#63b8ff" d="M1048.1,-241.6C1036.04,-229.54 1014.24,-207.74 998.99,-192.49"/>
<polygon fill="#63b8ff" stroke="#63b8ff" points="1001.5,-190.05 991.96,-185.46 996.55,-195 1001.5,-190.05"/>
</g>
<!-- Node30&#45;&gt;Node11 -->
<g id="edge42" class="edge">
<title>Node30&#45;&gt;Node11</title>
<path fill="none" stroke="#63b8ff" d="M903.55,-236.28C900.24,-206.29 890.99,-134.59 873,-77 869.07,-64.41 863.02,-50.9 857.86,-40.36"/>
<polygon fill="#63b8ff" stroke="#63b8ff" points="861.08,-38.96 853.44,-31.63 854.84,-42.13 861.08,-38.96"/>
</g>
<!-- Node30&#45;&gt;Node25 -->
<g id="edge43" class="edge">
<title>Node30&#45;&gt;Node25</title>
<path fill="none" stroke="#63b8ff" d="M919.85,-236.04C932.75,-223.47 951.45,-205.26 964.96,-192.1"/>
<polygon fill="#63b8ff" stroke="#63b8ff" points="967.17,-194.83 971.89,-185.34 962.29,-189.81 967.17,-194.83"/>
</g>
<!-- Node31&#45;&gt;Node11 -->
<g id="edge45" class="edge">
<title>Node31&#45;&gt;Node11</title>
<path fill="none" stroke="#63b8ff" d="M1388.01,-241.61C1372.68,-222.68 1334.07,-178.17 1292,-154 1153.5,-74.44 962.75,-38.59 884.11,-26.5"/>
<polygon fill="#63b8ff" stroke="#63b8ff" points="884.82,-23.07 874.41,-25.05 883.78,-29.99 884.82,-23.07"/>
</g>
<!-- Node31&#45;&gt;Node22 -->
<g id="edge46" class="edge">
<title>Node31&#45;&gt;Node22</title>
<path fill="none" stroke="#63b8ff" d="M1372.82,-241.5C1363.93,-238.03 1353.54,-234.15 1344,-231 1287.47,-212.35 1271.9,-212.49 1215,-195 1208,-192.85 1200.57,-190.44 1193.44,-188.08"/>
<polygon fill="#63b8ff" stroke="#63b8ff" points="1194.63,-184.78 1184.04,-184.91 1192.4,-191.42 1194.63,-184.78"/>
</g>
<!-- Node32&#45;&gt;Node2 -->
<g id="edge48" class="edge">
<title>Node32&#45;&gt;Node2</title>
<path fill="none" stroke="#63b8ff" d="M354.13,-267.49C361.84,-269.17 369.59,-270.73 377,-272 505.94,-294.09 658.64,-306.73 740.13,-312.55"/>
<polygon fill="#63b8ff" stroke="#63b8ff" points="739.41,-316 749.63,-313.22 739.9,-309.02 739.41,-316"/>
</g>
<!-- Node32&#45;&gt;Node7 -->
<g id="edge49" class="edge">
<title>Node32&#45;&gt;Node7</title>
<path fill="none" stroke="#63b8ff" d="M281.31,-230.61C275.45,-210.89 265.7,-179.94 255,-154 240.04,-117.72 219.44,-77.57 205.25,-51.08"/>
<polygon fill="#63b8ff" stroke="#63b8ff" points="208.52,-49.76 200.69,-42.62 202.36,-53.09 208.52,-49.76"/>
</g>
<!-- Node32&#45;&gt;Node33 -->
<g id="edge50" class="edge">
<title>Node32&#45;&gt;Node33</title>
<path fill="none" stroke="#63b8ff" d="M260.73,-230.6C249.32,-221.95 235.78,-211.69 223.49,-202.39"/>
<polygon fill="#63b8ff" stroke="#63b8ff" points="225.68,-199.66 215.6,-196.41 221.46,-205.24 225.68,-199.66"/>
</g>
<!-- Node33&#45;&gt;Node1 -->
<g id="edge53" class="edge">
<title>Node33&#45;&gt;Node1</title>
<path fill="none" stroke="#63b8ff" d="M182.41,-195.24C168.32,-230.26 132.81,-304.14 107.2,-352.65"/>
<polygon fill="#63b8ff" stroke="#63b8ff" points="104.23,-350.79 102.61,-361.26 110.4,-354.08 104.23,-350.79"/>
</g>
<!-- Node33&#45;&gt;Node2 -->
<g id="edge51" class="edge">
<title>Node33&#45;&gt;Node2</title>
<path fill="none" stroke="#63b8ff" d="M186.48,-195.21C185.96,-217.53 188.99,-253.22 211,-272 250.66,-305.83 599.91,-314 740.12,-315.93"/>
<polygon fill="#63b8ff" stroke="#63b8ff" points="739.88,-319.42 749.92,-316.05 739.97,-312.42 739.88,-319.42"/>
</g>
<!-- Node33&#45;&gt;Node7 -->
<g id="edge52" class="edge">
<title>Node33&#45;&gt;Node7</title>
<path fill="none" stroke="#63b8ff" d="M188.13,-153.63C188.3,-127.91 188.6,-82.82 188.8,-52.56"/>
<polygon fill="#63b8ff" stroke="#63b8ff" points="192.29,-52.91 188.86,-42.89 185.29,-52.87 192.29,-52.91"/>
</g>
<!-- Node33&#45;&gt;Node34 -->
<g id="edge54" class="edge">
<title>Node33&#45;&gt;Node34</title>
<path fill="none" stroke="#63b8ff" d="M165.14,-153.79C155.23,-145.25 143.46,-135.1 132.72,-125.84"/>
<polygon fill="#63b8ff" stroke="#63b8ff" points="135.01,-123.2 125.15,-119.32 130.44,-128.5 135.01,-123.2"/>
</g>
<!-- Node34&#45;&gt;Node1 -->
<g id="edge57" class="edge">
<title>Node34&#45;&gt;Node1</title>
<path fill="none" stroke="#63b8ff" d="M103.12,-118.16C103.35,-165.09 95.1,-284.67 87.54,-351.68"/>
<polygon fill="#63b8ff" stroke="#63b8ff" points="84.11,-350.91 86.42,-361.25 91.06,-351.73 84.11,-350.91"/>
</g>
<!-- Node34&#45;&gt;Node2 -->
<g id="edge55" class="edge">
<title>Node34&#45;&gt;Node2</title>
<path fill="none" stroke="#63b8ff" d="M102.24,-118.27C104.15,-138.45 108.95,-170.23 121,-195 140.59,-235.27 146.09,-251.67 186,-272 234.58,-296.75 596.79,-310.37 739.99,-314.84"/>
<polygon fill="#63b8ff" stroke="#63b8ff" points="739.51,-318.32 749.62,-315.13 739.73,-311.33 739.51,-318.32"/>
</g>
<!-- Node34&#45;&gt;Node7 -->
<g id="edge56" class="edge">
<title>Node34&#45;&gt;Node7</title>
<path fill="none" stroke="#63b8ff" d="M124.12,-76.79C134.25,-68.16 146.29,-57.9 157.24,-48.57"/>
<polygon fill="#63b8ff" stroke="#63b8ff" points="159.24,-51.47 164.58,-42.32 154.69,-46.14 159.24,-51.47"/>
</g>
</g>
</svg>
