<?xml version="1.0" encoding="UTF-8" standalone="no"?>
<!DOCTYPE svg PUBLIC "-//W3C//DTD SVG 1.1//EN"
 "http://www.w3.org/Graphics/SVG/1.1/DTD/svg11.dtd">
<!-- Generated by graphviz version 7.0.2 (20221119.0110)
 -->
<!-- Title: C:/Users/juanh/OneDrive/Escritorio/Sistemas Embebidos/Proyecto final/LAL Control MbedOS/include/drivers/Motor.h Pages: 1 -->
<svg width="166pt" height="115pt"
 viewBox="0.00 0.00 166.00 115.00" xmlns="http://www.w3.org/2000/svg" xmlns:xlink="http://www.w3.org/1999/xlink">
<g id="graph0" class="graph" transform="scale(1 1) rotate(0) translate(4 111)">
<title>C:/Users/juanh/OneDrive/Escritorio/Sistemas Embebidos/Proyecto final/LAL Control MbedOS/include/drivers/Motor.h</title>
<!-- Node1 -->
<g id="node1" class="node">
<title>Node1</title>
<g id="a_node1"><a xlink:title="Controlador de motor de 220 VAC.">
<polygon fill="#999999" stroke="#666666" points="158,-107 0,-107 0,-55 158,-55 158,-107"/>
<text text-anchor="start" x="8" y="-95" font-family="Helvetica,sans-Serif" font-size="10.00">C:/Users/juanh/OneDrive</text>
<text text-anchor="start" x="8" y="-84" font-family="Helvetica,sans-Serif" font-size="10.00">/Escritorio/Sistemas Embebidos</text>
<text text-anchor="start" x="8" y="-73" font-family="Helvetica,sans-Serif" font-size="10.00">/Proyecto final/LAL Control</text>
<text text-anchor="middle" x="79" y="-62" font-family="Helvetica,sans-Serif" font-size="10.00"> MbedOS/include/drivers/Motor.h</text>
</a>
</g>
</g>
<!-- Node2 -->
<g id="node2" class="node">
<title>Node2</title>
<g id="a_node2"><a xlink:title=" ">
<polygon fill="#e0e0e0" stroke="#999999" points="64.5,-19 15.5,-19 15.5,0 64.5,0 64.5,-19"/>
<text text-anchor="middle" x="40" y="-7" font-family="Helvetica,sans-Serif" font-size="10.00">mbed.h</text>
</a>
</g>
</g>
<!-- Node1&#45;&gt;Node2 -->
<g id="edge1" class="edge">
<title>Node1&#45;&gt;Node2</title>
<path fill="none" stroke="#63b8ff" d="M64.7,-54.52C59.97,-46.09 54.8,-36.88 50.42,-29.07"/>
<polygon fill="#63b8ff" stroke="#63b8ff" points="53.57,-27.52 45.62,-20.52 47.46,-30.95 53.57,-27.52"/>
</g>
<!-- Node3 -->
<g id="node3" class="node">
<title>Node3</title>
<g id="a_node3"><a xlink:href="port__config_8h.html" target="_top" xlink:title="Archivo de configuración para los puertos de la placa donde se implementará el sistema.">
<polygon fill="white" stroke="#666666" points="155,-19 83,-19 83,0 155,0 155,-19"/>
<text text-anchor="middle" x="119" y="-7" font-family="Helvetica,sans-Serif" font-size="10.00">port_config.h</text>
</a>
</g>
</g>
<!-- Node1&#45;&gt;Node3 -->
<g id="edge2" class="edge">
<title>Node1&#45;&gt;Node3</title>
<path fill="none" stroke="#63b8ff" d="M93.67,-54.52C98.52,-46.09 103.82,-36.88 108.31,-29.07"/>
<polygon fill="#63b8ff" stroke="#63b8ff" points="111.28,-30.92 113.24,-20.51 105.22,-27.43 111.28,-30.92"/>
</g>
</g>
</svg>
