<?xml version="1.0" encoding="UTF-8" standalone="no"?>
<!DOCTYPE svg PUBLIC "-//W3C//DTD SVG 1.1//EN"
 "http://www.w3.org/Graphics/SVG/1.1/DTD/svg11.dtd">
<!-- Generated by graphviz version 7.0.2 (20221119.0110)
 -->
<!-- Title: C:/Users/juanh/OneDrive/Escritorio/Sistemas Embebidos/Proyecto final/LAL Control MbedOS/include/machine_state_pattern/machine_states/Motor_control_state.h Pages: 1 -->
<!--zoomable 775 -->
<svg id="main" version="1.1" xmlns="http://www.w3.org/2000/svg" xmlns:xlink="http://www.w3.org/1999/xlink" xml:space="preserve" onload="init(evt)">
<style type="text/css"><![CDATA[
.edge:hover path { stroke: red; }
.edge:hover polygon { stroke: red; fill: red; }
]]></style>
<script type="text/javascript"><![CDATA[
var edges = document.getElementsByTagName('g');
if (edges && edges.length) {
  for (var i=0;i<edges.length;i++) {
    if (edges[i].id.substr(0,4)=='edge') {
      edges[i].setAttribute('class','edge');
    }
  }
}
]]></script>
        <defs>
                <circle id="rim" cx="0" cy="0" r="7"/>
                <circle id="rim2" cx="0" cy="0" r="3.5"/>
                <g id="zoomPlus">
                        <use xlink:href="#rim" fill="#404040">
                                <set attributeName="fill" to="#808080" begin="zoomplus.mouseover" end="zoomplus.mouseout"/>
                        </use>
                        <path d="M-4,0h8M0,-4v8" fill="none" stroke="white" stroke-width="1.5" pointer-events="none"/>
                </g>
                <g id="zoomMin">
                        <use xlink:href="#rim" fill="#404040">
                                <set attributeName="fill" to="#808080" begin="zoomminus.mouseover" end="zoomminus.mouseout"/>
                        </use>
                        <path d="M-4,0h8" fill="none" stroke="white" stroke-width="1.5" pointer-events="none"/>
                </g>
                <g id="dirArrow">
                        <path fill="none" stroke="white" stroke-width="1.5" d="M0,-3.0v7 M-2.5,-0.5L0,-3.0L2.5,-0.5"/>
                </g>
               <g id="resetDef">
                       <use xlink:href="#rim2" fill="#404040">
                               <set attributeName="fill" to="#808080" begin="reset.mouseover" end="reset.mouseout"/>
                       </use>
               </g>
        </defs>

<script type="text/javascript">
var viewWidth = 751;
var viewHeight = 775;
var sectionId = 'dynsection-1';
</script>
<script xlink:href="svgpan.js"/>
<svg id="graph" class="graph">
<g id="viewport">
<title>C:/Users/juanh/OneDrive/Escritorio/Sistemas Embebidos/Proyecto final/LAL Control MbedOS/include/machine_state_pattern/machine_states/Motor_control_state.h</title>
<!-- Node1 -->
<g id="node1" class="node">
<title>Node1</title>
<g id="a_node1"><a xlink:title="Clase de estado de control del motor.">
<polygon fill="#999999" stroke="#666666" points="451.89,-767 293.89,-767 293.89,-693 451.89,-693 451.89,-767"/>
<text text-anchor="start" x="301.89" y="-755" font-family="Helvetica,sans-Serif" font-size="10.00">C:/Users/juanh/OneDrive</text>
<text text-anchor="start" x="301.89" y="-744" font-family="Helvetica,sans-Serif" font-size="10.00">/Escritorio/Sistemas Embebidos</text>
<text text-anchor="start" x="301.89" y="-733" font-family="Helvetica,sans-Serif" font-size="10.00">/Proyecto final/LAL Control</text>
<text text-anchor="start" x="301.89" y="-722" font-family="Helvetica,sans-Serif" font-size="10.00"> MbedOS/include/machine_state</text>
<text text-anchor="start" x="301.89" y="-711" font-family="Helvetica,sans-Serif" font-size="10.00">_pattern/machine_states/Motor</text>
<text text-anchor="middle" x="372.89" y="-700" font-family="Helvetica,sans-Serif" font-size="10.00">_control_state.h</text>
</a>
</g>
</g>
<!-- Node2 -->
<g id="node2" class="node">
<title>Node2</title>
<g id="a_node2"><a xlink:href="_check__instruction__state_8h_source.html" target="_top" xlink:title=" ">
<polygon fill="white" stroke="#666666" points="451.89,-657 293.89,-657 293.89,-583 451.89,-583 451.89,-657"/>
<text text-anchor="start" x="301.89" y="-645" font-family="Helvetica,sans-Serif" font-size="10.00">C:/Users/juanh/OneDrive</text>
<text text-anchor="start" x="301.89" y="-634" font-family="Helvetica,sans-Serif" font-size="10.00">/Escritorio/Sistemas Embebidos</text>
<text text-anchor="start" x="301.89" y="-623" font-family="Helvetica,sans-Serif" font-size="10.00">/Proyecto final/LAL Control</text>
<text text-anchor="start" x="301.89" y="-612" font-family="Helvetica,sans-Serif" font-size="10.00"> MbedOS/include/machine_state</text>
<text text-anchor="start" x="301.89" y="-601" font-family="Helvetica,sans-Serif" font-size="10.00">_pattern/machine_states/Check</text>
<text text-anchor="middle" x="372.89" y="-590" font-family="Helvetica,sans-Serif" font-size="10.00">_instruction_state.h</text>
</a>
</g>
</g>
<!-- Node1&#45;&gt;Node2 -->
<g id="edge1" class="edge">
<title>Node1&#45;&gt;Node2</title>
<path fill="none" stroke="#63b8ff" d="M366.18,-681.5C366.08,-673.4 366.17,-665.1 366.47,-657.35"/>
<polygon fill="#63b8ff" stroke="#63b8ff" points="362.68,-681.32 366.44,-691.22 369.68,-681.14 362.68,-681.32"/>
</g>
<!-- Node3 -->
<g id="node3" class="node">
<title>Node3</title>
<g id="a_node3"><a xlink:href="_idle__state_8h.html" target="_top" xlink:title="Clase de estado de reposo.">
<polygon fill="white" stroke="#666666" points="345.39,-547 168.39,-547 168.39,-484 345.39,-484 345.39,-547"/>
<text text-anchor="start" x="176.39" y="-535" font-family="Helvetica,sans-Serif" font-size="10.00">C:/Users/juanh/OneDrive</text>
<text text-anchor="start" x="176.39" y="-524" font-family="Helvetica,sans-Serif" font-size="10.00">/Escritorio/Sistemas Embebidos</text>
<text text-anchor="start" x="176.39" y="-513" font-family="Helvetica,sans-Serif" font-size="10.00">/Proyecto final/LAL Control</text>
<text text-anchor="start" x="176.39" y="-502" font-family="Helvetica,sans-Serif" font-size="10.00"> MbedOS/include/machine_state</text>
<text text-anchor="middle" x="256.89" y="-491" font-family="Helvetica,sans-Serif" font-size="10.00">_pattern/machine_states/Idle_state.h</text>
</a>
</g>
</g>
<!-- Node1&#45;&gt;Node3 -->
<g id="edge27" class="edge">
<title>Node1&#45;&gt;Node3</title>
<path fill="none" stroke="#63b8ff" d="M299.18,-685.07C290.19,-676.65 282.04,-667.24 275.89,-657 255.59,-623.21 249.7,-577.4 250.28,-547.41"/>
<polygon fill="#63b8ff" stroke="#63b8ff" points="296.68,-687.53 306.5,-691.51 301.31,-682.28 296.68,-687.53"/>
</g>
<!-- Node2&#45;&gt;Node1 -->
<g id="edge26" class="edge">
<title>Node2&#45;&gt;Node1</title>
<path fill="none" stroke="#63b8ff" d="M379.6,-668.6C379.71,-676.7 379.61,-684.99 379.31,-692.74"/>
<polygon fill="#63b8ff" stroke="#63b8ff" points="383.1,-668.77 379.35,-658.86 376.11,-668.95 383.1,-668.77"/>
</g>
<!-- Node2&#45;&gt;Node3 -->
<g id="edge2" class="edge">
<title>Node2&#45;&gt;Node3</title>
<path fill="none" stroke="#63b8ff" d="M323.29,-575.17C312.7,-565.82 301.74,-556.13 291.84,-547.38"/>
<polygon fill="#63b8ff" stroke="#63b8ff" points="320.72,-577.57 330.53,-581.57 325.36,-572.33 320.72,-577.57"/>
</g>
<!-- Node3&#45;&gt;Node1 -->
<g id="edge3" class="edge">
<title>Node3&#45;&gt;Node1</title>
<path fill="none" stroke="#63b8ff" d="M265.42,-558.56C269.28,-587.97 275.97,-627.17 293.89,-657 301.92,-670.37 313.37,-682.34 325.11,-692.51"/>
<polygon fill="#63b8ff" stroke="#63b8ff" points="268.93,-558.4 264.2,-548.91 261.98,-559.27 268.93,-558.4"/>
</g>
<!-- Node4 -->
<g id="node4" class="node">
<title>Node4</title>
<g id="a_node4"><a xlink:href="_shutdown__state_8h.html" target="_top" xlink:title="Clase de estado de apagado del sistema.">
<polygon fill="white" stroke="#666666" points="333.39,-448 128.39,-448 128.39,-385 333.39,-385 333.39,-448"/>
<text text-anchor="start" x="136.39" y="-436" font-family="Helvetica,sans-Serif" font-size="10.00">C:/Users/juanh/OneDrive</text>
<text text-anchor="start" x="136.39" y="-425" font-family="Helvetica,sans-Serif" font-size="10.00">/Escritorio/Sistemas Embebidos</text>
<text text-anchor="start" x="136.39" y="-414" font-family="Helvetica,sans-Serif" font-size="10.00">/Proyecto final/LAL Control</text>
<text text-anchor="start" x="136.39" y="-403" font-family="Helvetica,sans-Serif" font-size="10.00"> MbedOS/include/machine_state</text>
<text text-anchor="middle" x="230.89" y="-392" font-family="Helvetica,sans-Serif" font-size="10.00">_pattern/machine_states/Shutdown_state.h</text>
</a>
</g>
</g>
<!-- Node3&#45;&gt;Node4 -->
<g id="edge4" class="edge">
<title>Node3&#45;&gt;Node4</title>
<path fill="none" stroke="#63b8ff" d="M245.61,-472.43C243.46,-464.39 241.24,-456.11 239.2,-448.5"/>
<polygon fill="#63b8ff" stroke="#63b8ff" points="242.23,-473.33 248.2,-482.08 248.99,-471.51 242.23,-473.33"/>
</g>
<!-- Node5 -->
<g id="node5" class="node">
<title>Node5</title>
<g id="a_node5"><a xlink:href="_control__system_8h_source.html" target="_top" xlink:title=" ">
<polygon fill="white" stroke="#666666" points="447.39,-349 276.39,-349 276.39,-297 447.39,-297 447.39,-349"/>
<text text-anchor="start" x="284.39" y="-337" font-family="Helvetica,sans-Serif" font-size="10.00">C:/Users/juanh/OneDrive</text>
<text text-anchor="start" x="284.39" y="-326" font-family="Helvetica,sans-Serif" font-size="10.00">/Escritorio/Sistemas Embebidos</text>
<text text-anchor="start" x="284.39" y="-315" font-family="Helvetica,sans-Serif" font-size="10.00">/Proyecto final/LAL Control</text>
<text text-anchor="middle" x="361.89" y="-304" font-family="Helvetica,sans-Serif" font-size="10.00"> MbedOS/include/Control_system.h</text>
</a>
</g>
</g>
<!-- Node4&#45;&gt;Node5 -->
<g id="edge5" class="edge">
<title>Node4&#45;&gt;Node5</title>
<path fill="none" stroke="#63b8ff" d="M277.95,-377.98C291.45,-368.39 306.08,-358.3 319.3,-349.47"/>
<polygon fill="#63b8ff" stroke="#63b8ff" points="276.14,-374.98 270.05,-383.64 280.21,-380.67 276.14,-374.98"/>
</g>
<!-- Node5&#45;&gt;Node1 -->
<g id="edge8" class="edge">
<title>Node5&#45;&gt;Node1</title>
<path fill="none" stroke="#63b8ff" d="M380.12,-359.21C404.23,-407.94 445.46,-499.43 460.89,-583 466.86,-615.34 474.98,-627.28 460.89,-657 454.38,-670.74 443.83,-682.72 432.25,-692.77"/>
<polygon fill="#63b8ff" stroke="#63b8ff" points="383.39,-357.92 375.79,-350.54 377.13,-361.05 383.39,-357.92"/>
</g>
<!-- Node5&#45;&gt;Node2 -->
<g id="edge6" class="edge">
<title>Node5&#45;&gt;Node2</title>
<path fill="none" stroke="#63b8ff" d="M364.5,-360.57C365.02,-368.62 365.51,-377.09 365.89,-385 369.22,-454.83 371.24,-536.46 372.2,-582.51"/>
<polygon fill="#63b8ff" stroke="#63b8ff" points="368,-360.47 363.85,-350.73 361.02,-360.94 368,-360.47"/>
</g>
<!-- Node5&#45;&gt;Node3 -->
<g id="edge7" class="edge">
<title>Node5&#45;&gt;Node3</title>
<path fill="none" stroke="#63b8ff" d="M362.88,-360.36C362.03,-386.42 357.56,-421.46 341.89,-448 333.7,-461.87 321.42,-473.93 308.72,-483.83"/>
<polygon fill="#63b8ff" stroke="#63b8ff" points="366.38,-360.65 363.02,-350.6 359.38,-360.55 366.38,-360.65"/>
</g>
<!-- Node5&#45;&gt;Node4 -->
<g id="edge9" class="edge">
<title>Node5&#45;&gt;Node4</title>
<path fill="none" stroke="#63b8ff" d="M322.5,-356.03C309.65,-365.28 295.22,-375.34 281.67,-384.52"/>
<polygon fill="#63b8ff" stroke="#63b8ff" points="324.28,-359.07 330.32,-350.36 320.17,-353.4 324.28,-359.07"/>
</g>
<!-- Node6 -->
<g id="node6" class="node">
<title>Node6</title>
<g id="a_node6"><a xlink:href="main_8h.html" target="_top" xlink:title="Archivo principal del programa.">
<polygon fill="white" stroke="#666666" points="366.39,-57.5 209.39,-57.5 209.39,-5.5 366.39,-5.5 366.39,-57.5"/>
<text text-anchor="start" x="217.39" y="-45.5" font-family="Helvetica,sans-Serif" font-size="10.00">C:/Users/juanh/OneDrive</text>
<text text-anchor="start" x="217.39" y="-34.5" font-family="Helvetica,sans-Serif" font-size="10.00">/Escritorio/Sistemas Embebidos</text>
<text text-anchor="start" x="217.39" y="-23.5" font-family="Helvetica,sans-Serif" font-size="10.00">/Proyecto final/LAL Control</text>
<text text-anchor="middle" x="287.89" y="-12.5" font-family="Helvetica,sans-Serif" font-size="10.00"> MbedOS/include/main.h</text>
</a>
</g>
</g>
<!-- Node5&#45;&gt;Node6 -->
<g id="edge10" class="edge">
<title>Node5&#45;&gt;Node6</title>
<path fill="none" stroke="#63b8ff" d="M264.94,-308.95C180.16,-291.66 62.85,-252 11.89,-162 -1.9,-137.63 -5.43,-121 11.89,-99 36.1,-68.27 136.42,-50.08 209.14,-40.69"/>
<polygon fill="#63b8ff" stroke="#63b8ff" points="264.18,-312.37 274.67,-310.86 265.53,-305.5 264.18,-312.37"/>
</g>
<!-- Node7 -->
<g id="node7" class="node">
<title>Node7</title>
<g id="a_node7"><a xlink:href="_cooler__observer_8h_source.html" target="_top" xlink:title=" ">
<polygon fill="white" stroke="#666666" points="186.89,-162 20.89,-162 20.89,-99 186.89,-99 186.89,-162"/>
<text text-anchor="start" x="28.89" y="-150" font-family="Helvetica,sans-Serif" font-size="10.00">C:/Users/juanh/OneDrive</text>
<text text-anchor="start" x="28.89" y="-139" font-family="Helvetica,sans-Serif" font-size="10.00">/Escritorio/Sistemas Embebidos</text>
<text text-anchor="start" x="28.89" y="-128" font-family="Helvetica,sans-Serif" font-size="10.00">/Proyecto final/LAL Control</text>
<text text-anchor="start" x="28.89" y="-117" font-family="Helvetica,sans-Serif" font-size="10.00"> MbedOS/include/observer_pattern</text>
<text text-anchor="middle" x="103.89" y="-106" font-family="Helvetica,sans-Serif" font-size="10.00">/observers/Cooler_observer.h</text>
</a>
</g>
</g>
<!-- Node5&#45;&gt;Node7 -->
<g id="edge11" class="edge">
<title>Node5&#45;&gt;Node7</title>
<path fill="none" stroke="#63b8ff" d="M305.19,-291.07C289.53,-281.9 272.76,-271.5 257.89,-261 214.09,-230.07 167.45,-189.67 137.12,-162.28"/>
<polygon fill="#63b8ff" stroke="#63b8ff" points="303.05,-293.87 313.46,-295.84 306.55,-287.81 303.05,-293.87"/>
</g>
<!-- Node8 -->
<g id="node8" class="node">
<title>Node8</title>
<g id="a_node8"><a xlink:href="_instruction__observer_8h.html" target="_top" xlink:title="Observador de instrucciones.">
<polygon fill="white" stroke="#666666" points="740.89,-162 574.89,-162 574.89,-99 740.89,-99 740.89,-162"/>
<text text-anchor="start" x="582.89" y="-150" font-family="Helvetica,sans-Serif" font-size="10.00">C:/Users/juanh/OneDrive</text>
<text text-anchor="start" x="582.89" y="-139" font-family="Helvetica,sans-Serif" font-size="10.00">/Escritorio/Sistemas Embebidos</text>
<text text-anchor="start" x="582.89" y="-128" font-family="Helvetica,sans-Serif" font-size="10.00">/Proyecto final/LAL Control</text>
<text text-anchor="start" x="582.89" y="-117" font-family="Helvetica,sans-Serif" font-size="10.00"> MbedOS/include/observer_pattern</text>
<text text-anchor="middle" x="657.89" y="-106" font-family="Helvetica,sans-Serif" font-size="10.00">/observers/Instruction_observer.h</text>
</a>
</g>
</g>
<!-- Node5&#45;&gt;Node8 -->
<g id="edge13" class="edge">
<title>Node5&#45;&gt;Node8</title>
<path fill="none" stroke="#63b8ff" d="M423.51,-291.25C441.03,-281.99 459.94,-271.49 476.89,-261 527.15,-229.88 581.99,-189.7 617.98,-162.41"/>
<polygon fill="#63b8ff" stroke="#63b8ff" points="421.96,-288.12 414.72,-295.85 425.2,-294.32 421.96,-288.12"/>
</g>
<!-- Node10 -->
<g id="node10" class="node">
<title>Node10</title>
<g id="a_node10"><a xlink:href="_moisture__observer_8h.html" target="_top" xlink:title="Observador del sensor de temperatura.">
<polygon fill="white" stroke="#666666" points="370.89,-162 204.89,-162 204.89,-99 370.89,-99 370.89,-162"/>
<text text-anchor="start" x="212.89" y="-150" font-family="Helvetica,sans-Serif" font-size="10.00">C:/Users/juanh/OneDrive</text>
<text text-anchor="start" x="212.89" y="-139" font-family="Helvetica,sans-Serif" font-size="10.00">/Escritorio/Sistemas Embebidos</text>
<text text-anchor="start" x="212.89" y="-128" font-family="Helvetica,sans-Serif" font-size="10.00">/Proyecto final/LAL Control</text>
<text text-anchor="start" x="212.89" y="-117" font-family="Helvetica,sans-Serif" font-size="10.00"> MbedOS/include/observer_pattern</text>
<text text-anchor="middle" x="287.89" y="-106" font-family="Helvetica,sans-Serif" font-size="10.00">/observers/Moisture_observer.h</text>
</a>
</g>
</g>
<!-- Node5&#45;&gt;Node10 -->
<g id="edge16" class="edge">
<title>Node5&#45;&gt;Node10</title>
<path fill="none" stroke="#63b8ff" d="M295.56,-289.95C285.24,-281.97 275.99,-272.36 269.89,-261 253.41,-230.3 263.17,-189.86 273.62,-162.39"/>
<polygon fill="#63b8ff" stroke="#63b8ff" points="293.44,-292.74 303.62,-295.68 297.5,-287.03 293.44,-292.74"/>
</g>
<!-- Node11 -->
<g id="node11" class="node">
<title>Node11</title>
<g id="a_node11"><a xlink:href="_system__observer_8h.html" target="_top" xlink:title="Clase observador del sistema de control.">
<polygon fill="white" stroke="#666666" points="444.89,-261 278.89,-261 278.89,-198 444.89,-198 444.89,-261"/>
<text text-anchor="start" x="286.89" y="-249" font-family="Helvetica,sans-Serif" font-size="10.00">C:/Users/juanh/OneDrive</text>
<text text-anchor="start" x="286.89" y="-238" font-family="Helvetica,sans-Serif" font-size="10.00">/Escritorio/Sistemas Embebidos</text>
<text text-anchor="start" x="286.89" y="-227" font-family="Helvetica,sans-Serif" font-size="10.00">/Proyecto final/LAL Control</text>
<text text-anchor="start" x="286.89" y="-216" font-family="Helvetica,sans-Serif" font-size="10.00"> MbedOS/include/observer_pattern</text>
<text text-anchor="middle" x="361.89" y="-205" font-family="Helvetica,sans-Serif" font-size="10.00">/observers/System_observer.h</text>
</a>
</g>
</g>
<!-- Node5&#45;&gt;Node11 -->
<g id="edge18" class="edge">
<title>Node5&#45;&gt;Node11</title>
<path fill="none" stroke="#63b8ff" d="M355.26,-285.29C355.05,-277.36 355.12,-269.06 355.47,-261.38"/>
<polygon fill="#63b8ff" stroke="#63b8ff" points="351.75,-285.17 355.7,-295 358.74,-284.85 351.75,-285.17"/>
</g>
<!-- Node12 -->
<g id="node12" class="node">
<title>Node12</title>
<g id="a_node12"><a xlink:href="_temperature__observer_8h.html" target="_top" xlink:title="Observador del sensor de temperatura.">
<polygon fill="white" stroke="#666666" points="556.39,-162 389.39,-162 389.39,-99 556.39,-99 556.39,-162"/>
<text text-anchor="start" x="397.39" y="-150" font-family="Helvetica,sans-Serif" font-size="10.00">C:/Users/juanh/OneDrive</text>
<text text-anchor="start" x="397.39" y="-139" font-family="Helvetica,sans-Serif" font-size="10.00">/Escritorio/Sistemas Embebidos</text>
<text text-anchor="start" x="397.39" y="-128" font-family="Helvetica,sans-Serif" font-size="10.00">/Proyecto final/LAL Control</text>
<text text-anchor="start" x="397.39" y="-117" font-family="Helvetica,sans-Serif" font-size="10.00"> MbedOS/include/observer_pattern</text>
<text text-anchor="middle" x="472.89" y="-106" font-family="Helvetica,sans-Serif" font-size="10.00">/observers/Temperature_observer.h</text>
</a>
</g>
</g>
<!-- Node5&#45;&gt;Node12 -->
<g id="edge25" class="edge">
<title>Node5&#45;&gt;Node12</title>
<path fill="none" stroke="#63b8ff" d="M425.49,-290.23C436.48,-282.11 446.67,-272.38 453.89,-261 472.7,-231.36 475.73,-190.33 475.17,-162.45"/>
<polygon fill="#63b8ff" stroke="#63b8ff" points="423.61,-287.27 417.36,-295.83 427.58,-293.04 423.61,-287.27"/>
</g>
<!-- Node7&#45;&gt;Node6 -->
<g id="edge12" class="edge">
<title>Node7&#45;&gt;Node6</title>
<path fill="none" stroke="#63b8ff" d="M172.68,-93.23C194.93,-81.5 219.12,-68.75 239.57,-57.98"/>
<polygon fill="#63b8ff" stroke="#63b8ff" points="171.17,-90.08 163.95,-97.84 174.43,-96.27 171.17,-90.08"/>
</g>
<!-- Node8&#45;&gt;Node6 -->
<g id="edge14" class="edge">
<title>Node8&#45;&gt;Node6</title>
<path fill="none" stroke="#63b8ff" d="M563.69,-98.45C491.88,-78.29 420.01,-61.38 366.84,-49.5"/>
<polygon fill="#63b8ff" stroke="#63b8ff" points="562.71,-101.81 573.29,-101.17 564.62,-95.08 562.71,-101.81"/>
</g>
<!-- Node9 -->
<g id="node9" class="node">
<title>Node9</title>
<g id="a_node9"><a xlink:href="_instruction__observer_8cpp.html" target="_top" xlink:title=" ">
<polygon fill="white" stroke="#666666" points="742.89,-63 572.89,-63 572.89,0 742.89,0 742.89,-63"/>
<text text-anchor="start" x="580.89" y="-51" font-family="Helvetica,sans-Serif" font-size="10.00">C:/Users/juanh/OneDrive</text>
<text text-anchor="start" x="580.89" y="-40" font-family="Helvetica,sans-Serif" font-size="10.00">/Escritorio/Sistemas Embebidos</text>
<text text-anchor="start" x="580.89" y="-29" font-family="Helvetica,sans-Serif" font-size="10.00">/Proyecto final/LAL Control</text>
<text text-anchor="start" x="580.89" y="-18" font-family="Helvetica,sans-Serif" font-size="10.00"> MbedOS/src/Port/observer_pattern</text>
<text text-anchor="middle" x="657.89" y="-7" font-family="Helvetica,sans-Serif" font-size="10.00">/Instruction_observer.cpp</text>
</a>
</g>
</g>
<!-- Node8&#45;&gt;Node9 -->
<g id="edge15" class="edge">
<title>Node8&#45;&gt;Node9</title>
<path fill="none" stroke="#63b8ff" d="M657.89,-87.15C657.89,-79.2 657.89,-71.02 657.89,-63.5"/>
<polygon fill="#63b8ff" stroke="#63b8ff" points="654.39,-87.03 657.89,-97.03 661.39,-87.03 654.39,-87.03"/>
</g>
<!-- Node10&#45;&gt;Node6 -->
<g id="edge17" class="edge">
<title>Node10&#45;&gt;Node6</title>
<path fill="none" stroke="#63b8ff" d="M287.89,-87.14C287.89,-77.2 287.89,-66.91 287.89,-57.98"/>
<polygon fill="#63b8ff" stroke="#63b8ff" points="284.39,-87.03 287.89,-97.03 291.39,-87.03 284.39,-87.03"/>
</g>
<!-- Node11&#45;&gt;Node5 -->
<g id="edge19" class="edge">
<title>Node11&#45;&gt;Node5</title>
<path fill="none" stroke="#63b8ff" d="M368.62,-272.68C368.71,-280.82 368.5,-289.11 368.01,-296.51"/>
<polygon fill="#63b8ff" stroke="#63b8ff" points="372.13,-272.79 368.36,-262.89 365.13,-272.99 372.13,-272.79"/>
</g>
<!-- Node11&#45;&gt;Node7 -->
<g id="edge20" class="edge">
<title>Node11&#45;&gt;Node7</title>
<path fill="none" stroke="#63b8ff" d="M268.93,-193.55C241.93,-183.4 212.64,-172.39 186.34,-162.5"/>
<polygon fill="#63b8ff" stroke="#63b8ff" points="267.54,-196.77 278.13,-197.01 270,-190.21 267.54,-196.77"/>
</g>
<!-- Node11&#45;&gt;Node8 -->
<g id="edge21" class="edge">
<title>Node11&#45;&gt;Node8</title>
<path fill="none" stroke="#63b8ff" d="M455.87,-197.97C490.47,-186.71 529.97,-173.81 565.89,-162 568.77,-161.05 571.7,-160.09 574.65,-159.12"/>
<polygon fill="#63b8ff" stroke="#63b8ff" points="455.16,-194.52 446.73,-200.95 457.33,-201.18 455.16,-194.52"/>
</g>
<!-- Node11&#45;&gt;Node10 -->
<g id="edge22" class="edge">
<title>Node11&#45;&gt;Node10</title>
<path fill="none" stroke="#63b8ff" d="M331.48,-188.64C324.83,-179.92 317.88,-170.81 311.54,-162.5"/>
<polygon fill="#63b8ff" stroke="#63b8ff" points="328.51,-190.51 337.36,-196.34 334.07,-186.27 328.51,-190.51"/>
</g>
<!-- Node11&#45;&gt;Node12 -->
<g id="edge23" class="edge">
<title>Node11&#45;&gt;Node12</title>
<path fill="none" stroke="#63b8ff" d="M405.93,-190.02C416.38,-180.88 427.4,-171.25 437.42,-162.5"/>
<polygon fill="#63b8ff" stroke="#63b8ff" points="403.68,-187.33 398.46,-196.55 408.29,-192.6 403.68,-187.33"/>
</g>
<!-- Node12&#45;&gt;Node6 -->
<g id="edge24" class="edge">
<title>Node12&#45;&gt;Node6</title>
<path fill="none" stroke="#63b8ff" d="M403.73,-93.23C381.35,-81.5 357.03,-68.75 336.48,-57.98"/>
<polygon fill="#63b8ff" stroke="#63b8ff" points="402.03,-96.3 412.51,-97.84 405.28,-90.1 402.03,-96.3"/>
</g>
</g>
</svg>
        <g id="navigator" transform="translate(0 0)" fill="#404254">
                <rect fill="#f2f5e9" fill-opacity="0.5" stroke="#606060" stroke-width=".5" x="0" y="0" width="60" height="60"/>
                <use id="zoomplus" xlink:href="#zoomPlus" x="17" y="9" onmousedown="handleZoom(evt,'in')"/>
                <use id="zoomminus" xlink:href="#zoomMin" x="42" y="9" onmousedown="handleZoom(evt,'out')"/>
                <use id="reset" xlink:href="#resetDef" x="30" y="36" onmousedown="handleReset()"/>
                <g id="arrowUp" xlink:href="#dirArrow" transform="translate(30 24)" onmousedown="handlePan(0,-1)">
                  <use xlink:href="#rim" fill="#404040">
                        <set attributeName="fill" to="#808080" begin="arrowUp.mouseover" end="arrowUp.mouseout"/>
                  </use>
                  <path fill="none" stroke="white" stroke-width="1.5" d="M0,-3.0v7 M-2.5,-0.5L0,-3.0L2.5,-0.5"/>
                </g>
                <g id="arrowRight" xlink:href="#dirArrow" transform="rotate(90) translate(36 -43)" onmousedown="handlePan(1,0)">
                  <use xlink:href="#rim" fill="#404040">
                        <set attributeName="fill" to="#808080" begin="arrowRight.mouseover" end="arrowRight.mouseout"/>
                  </use>
                  <path fill="none" stroke="white" stroke-width="1.5" d="M0,-3.0v7 M-2.5,-0.5L0,-3.0L2.5,-0.5"/>
                </g>
                <g id="arrowDown" xlink:href="#dirArrow" transform="rotate(180) translate(-30 -48)" onmousedown="handlePan(0,1)">
                  <use xlink:href="#rim" fill="#404040">
                        <set attributeName="fill" to="#808080" begin="arrowDown.mouseover" end="arrowDown.mouseout"/>
                  </use>
                  <path fill="none" stroke="white" stroke-width="1.5" d="M0,-3.0v7 M-2.5,-0.5L0,-3.0L2.5,-0.5"/>
                </g>
                <g id="arrowLeft" xlink:href="#dirArrow" transform="rotate(270) translate(-36 17)" onmousedown="handlePan(-1,0)">
                  <use xlink:href="#rim" fill="#404040">
                        <set attributeName="fill" to="#808080" begin="arrowLeft.mouseover" end="arrowLeft.mouseout"/>
                  </use>
                  <path fill="none" stroke="white" stroke-width="1.5" d="M0,-3.0v7 M-2.5,-0.5L0,-3.0L2.5,-0.5"/>
                </g>
        </g>
        <svg viewBox="0 0 15 15" width="100%" height="30px" preserveAspectRatio="xMaxYMin meet">
         <g id="arrow_out" transform="scale(0.3 0.3)">
          <a xlink:href="_motor__control__state_8h__dep__incl_org.svg" target="_base">
           <rect id="button" ry="5" rx="5" y="6" x="6" height="38" width="38"
                fill="#f2f5e9" fill-opacity="0.5" stroke="#606060" stroke-width="1.0"/>
           <path id="arrow"
             d="M 11.500037,31.436501 C 11.940474,20.09759 22.043105,11.32322 32.158766,21.979434 L 37.068811,17.246167 C 37.068811,17.246167 37.088388,32 37.088388,32 L 22.160133,31.978069 C 22.160133,31.978069 26.997745,27.140456 26.997745,27.140456 C 18.528582,18.264221 13.291696,25.230495 11.500037,31.436501 z"
             style="fill:#404040;"/>
          </a>
         </g>
        </svg>
</svg>
