<?xml version="1.0" encoding="UTF-8" standalone="no"?>
<!DOCTYPE svg PUBLIC "-//W3C//DTD SVG 1.1//EN"
 "http://www.w3.org/Graphics/SVG/1.1/DTD/svg11.dtd">
<!-- Generated by graphviz version 7.0.2 (20221119.0110)
 -->
<!-- Title: C:/Users/juanh/OneDrive/Escritorio/Sistemas Embebidos/Proyecto final/LAL Control MbedOS/include/observer_pattern/observers/Observer.h Pages: 1 -->
<!--zoomable 577 -->
<svg id="main" version="1.1" xmlns="http://www.w3.org/2000/svg" xmlns:xlink="http://www.w3.org/1999/xlink" xml:space="preserve" onload="init(evt)">
<style type="text/css"><![CDATA[
.edge:hover path { stroke: red; }
.edge:hover polygon { stroke: red; fill: red; }
]]></style>
<script type="text/javascript"><![CDATA[
var edges = document.getElementsByTagName('g');
if (edges && edges.length) {
  for (var i=0;i<edges.length;i++) {
    if (edges[i].id.substr(0,4)=='edge') {
      edges[i].setAttribute('class','edge');
    }
  }
}
]]></script>
        <defs>
                <circle id="rim" cx="0" cy="0" r="7"/>
                <circle id="rim2" cx="0" cy="0" r="3.5"/>
                <g id="zoomPlus">
                        <use xlink:href="#rim" fill="#404040">
                                <set attributeName="fill" to="#808080" begin="zoomplus.mouseover" end="zoomplus.mouseout"/>
                        </use>
                        <path d="M-4,0h8M0,-4v8" fill="none" stroke="white" stroke-width="1.5" pointer-events="none"/>
                </g>
                <g id="zoomMin">
                        <use xlink:href="#rim" fill="#404040">
                                <set attributeName="fill" to="#808080" begin="zoomminus.mouseover" end="zoomminus.mouseout"/>
                        </use>
                        <path d="M-4,0h8" fill="none" stroke="white" stroke-width="1.5" pointer-events="none"/>
                </g>
                <g id="dirArrow">
                        <path fill="none" stroke="white" stroke-width="1.5" d="M0,-3.0v7 M-2.5,-0.5L0,-3.0L2.5,-0.5"/>
                </g>
               <g id="resetDef">
                       <use xlink:href="#rim2" fill="#404040">
                               <set attributeName="fill" to="#808080" begin="reset.mouseover" end="reset.mouseout"/>
                       </use>
               </g>
        </defs>

<script type="text/javascript">
var viewWidth = 1136;
var viewHeight = 577;
var sectionId = 'dynsection-1';
</script>
<script xlink:href="svgpan.js"/>
<svg id="graph" class="graph">
<g id="viewport">
<title>C:/Users/juanh/OneDrive/Escritorio/Sistemas Embebidos/Proyecto final/LAL Control MbedOS/include/observer_pattern/observers/Observer.h</title>
<!-- Node1 -->
<g id="node1" class="node">
<title>Node1</title>
<g id="a_node1"><a xlink:title="Clase observador.">
<polygon fill="#999999" stroke="#666666" points="693,-569 527,-569 527,-506 693,-506 693,-569"/>
<text text-anchor="start" x="535" y="-557" font-family="Helvetica,sans-Serif" font-size="10.00">C:/Users/juanh/OneDrive</text>
<text text-anchor="start" x="535" y="-546" font-family="Helvetica,sans-Serif" font-size="10.00">/Escritorio/Sistemas Embebidos</text>
<text text-anchor="start" x="535" y="-535" font-family="Helvetica,sans-Serif" font-size="10.00">/Proyecto final/LAL Control</text>
<text text-anchor="start" x="535" y="-524" font-family="Helvetica,sans-Serif" font-size="10.00"> MbedOS/include/observer_pattern</text>
<text text-anchor="middle" x="610" y="-513" font-family="Helvetica,sans-Serif" font-size="10.00">/observers/Observer.h</text>
</a>
</g>
</g>
<!-- Node2 -->
<g id="node2" class="node">
<title>Node2</title>
<g id="a_node2"><a xlink:href="_system__observer_8h.html" target="_top" xlink:title="Clase observador del sistema de control.">
<polygon fill="white" stroke="#666666" points="693,-470 527,-470 527,-407 693,-407 693,-470"/>
<text text-anchor="start" x="535" y="-458" font-family="Helvetica,sans-Serif" font-size="10.00">C:/Users/juanh/OneDrive</text>
<text text-anchor="start" x="535" y="-447" font-family="Helvetica,sans-Serif" font-size="10.00">/Escritorio/Sistemas Embebidos</text>
<text text-anchor="start" x="535" y="-436" font-family="Helvetica,sans-Serif" font-size="10.00">/Proyecto final/LAL Control</text>
<text text-anchor="start" x="535" y="-425" font-family="Helvetica,sans-Serif" font-size="10.00"> MbedOS/include/observer_pattern</text>
<text text-anchor="middle" x="610" y="-414" font-family="Helvetica,sans-Serif" font-size="10.00">/observers/System_observer.h</text>
</a>
</g>
</g>
<!-- Node1&#45;&gt;Node2 -->
<g id="edge1" class="edge">
<title>Node1&#45;&gt;Node2</title>
<path fill="none" stroke="#63b8ff" d="M610,-494.15C610,-486.2 610,-478.02 610,-470.5"/>
<polygon fill="#63b8ff" stroke="#63b8ff" points="606.5,-494.03 610,-504.03 613.5,-494.03 606.5,-494.03"/>
</g>
<!-- Node3 -->
<g id="node3" class="node">
<title>Node3</title>
<g id="a_node3"><a xlink:href="_control__system_8h_source.html" target="_top" xlink:title=" ">
<polygon fill="white" stroke="#666666" points="518.5,-371 347.5,-371 347.5,-319 518.5,-319 518.5,-371"/>
<text text-anchor="start" x="355.5" y="-359" font-family="Helvetica,sans-Serif" font-size="10.00">C:/Users/juanh/OneDrive</text>
<text text-anchor="start" x="355.5" y="-348" font-family="Helvetica,sans-Serif" font-size="10.00">/Escritorio/Sistemas Embebidos</text>
<text text-anchor="start" x="355.5" y="-337" font-family="Helvetica,sans-Serif" font-size="10.00">/Proyecto final/LAL Control</text>
<text text-anchor="middle" x="433" y="-326" font-family="Helvetica,sans-Serif" font-size="10.00"> MbedOS/include/Control_system.h</text>
</a>
</g>
</g>
<!-- Node2&#45;&gt;Node3 -->
<g id="edge2" class="edge">
<title>Node2&#45;&gt;Node3</title>
<path fill="none" stroke="#63b8ff" d="M533.48,-401.36C513.86,-391.36 493.44,-380.73 476.15,-371.47"/>
<polygon fill="#63b8ff" stroke="#63b8ff" points="531.8,-404.43 542.3,-405.84 534.96,-398.19 531.8,-404.43"/>
</g>
<!-- Node9 -->
<g id="node9" class="node">
<title>Node9</title>
<g id="a_node9"><a xlink:href="_cooler__observer_8h_source.html" target="_top" xlink:title=" ">
<polygon fill="white" stroke="#666666" points="572,-277.5 406,-277.5 406,-214.5 572,-214.5 572,-277.5"/>
<text text-anchor="start" x="414" y="-265.5" font-family="Helvetica,sans-Serif" font-size="10.00">C:/Users/juanh/OneDrive</text>
<text text-anchor="start" x="414" y="-254.5" font-family="Helvetica,sans-Serif" font-size="10.00">/Escritorio/Sistemas Embebidos</text>
<text text-anchor="start" x="414" y="-243.5" font-family="Helvetica,sans-Serif" font-size="10.00">/Proyecto final/LAL Control</text>
<text text-anchor="start" x="414" y="-232.5" font-family="Helvetica,sans-Serif" font-size="10.00"> MbedOS/include/observer_pattern</text>
<text text-anchor="middle" x="489" y="-221.5" font-family="Helvetica,sans-Serif" font-size="10.00">/observers/Cooler_observer.h</text>
</a>
</g>
</g>
<!-- Node2&#45;&gt;Node9 -->
<g id="edge25" class="edge">
<title>Node2&#45;&gt;Node9</title>
<path fill="none" stroke="#63b8ff" d="M584.46,-397.28C561.81,-361.64 529.23,-310.34 508.59,-277.85"/>
<polygon fill="#63b8ff" stroke="#63b8ff" points="581.43,-399.05 589.75,-405.62 587.34,-395.3 581.43,-399.05"/>
</g>
<!-- Node10 -->
<g id="node10" class="node">
<title>Node10</title>
<g id="a_node10"><a xlink:href="_instruction__observer_8h.html" target="_top" xlink:title="Observador de instrucciones.">
<polygon fill="white" stroke="#666666" points="1126,-277.5 960,-277.5 960,-214.5 1126,-214.5 1126,-277.5"/>
<text text-anchor="start" x="968" y="-265.5" font-family="Helvetica,sans-Serif" font-size="10.00">C:/Users/juanh/OneDrive</text>
<text text-anchor="start" x="968" y="-254.5" font-family="Helvetica,sans-Serif" font-size="10.00">/Escritorio/Sistemas Embebidos</text>
<text text-anchor="start" x="968" y="-243.5" font-family="Helvetica,sans-Serif" font-size="10.00">/Proyecto final/LAL Control</text>
<text text-anchor="start" x="968" y="-232.5" font-family="Helvetica,sans-Serif" font-size="10.00"> MbedOS/include/observer_pattern</text>
<text text-anchor="middle" x="1043" y="-221.5" font-family="Helvetica,sans-Serif" font-size="10.00">/observers/Instruction_observer.h</text>
</a>
</g>
</g>
<!-- Node2&#45;&gt;Node10 -->
<g id="edge26" class="edge">
<title>Node2&#45;&gt;Node10</title>
<path fill="none" stroke="#63b8ff" d="M690.21,-402.21C771.29,-366.54 895.35,-311.96 972.69,-277.93"/>
<polygon fill="#63b8ff" stroke="#63b8ff" points="689.18,-398.84 681.44,-406.07 692,-405.25 689.18,-398.84"/>
</g>
<!-- Node12 -->
<g id="node12" class="node">
<title>Node12</title>
<g id="a_node12"><a xlink:href="_moisture__observer_8h.html" target="_top" xlink:title="Observador del sensor de temperatura.">
<polygon fill="white" stroke="#666666" points="756,-277.5 590,-277.5 590,-214.5 756,-214.5 756,-277.5"/>
<text text-anchor="start" x="598" y="-265.5" font-family="Helvetica,sans-Serif" font-size="10.00">C:/Users/juanh/OneDrive</text>
<text text-anchor="start" x="598" y="-254.5" font-family="Helvetica,sans-Serif" font-size="10.00">/Escritorio/Sistemas Embebidos</text>
<text text-anchor="start" x="598" y="-243.5" font-family="Helvetica,sans-Serif" font-size="10.00">/Proyecto final/LAL Control</text>
<text text-anchor="start" x="598" y="-232.5" font-family="Helvetica,sans-Serif" font-size="10.00"> MbedOS/include/observer_pattern</text>
<text text-anchor="middle" x="673" y="-221.5" font-family="Helvetica,sans-Serif" font-size="10.00">/observers/Moisture_observer.h</text>
</a>
</g>
</g>
<!-- Node2&#45;&gt;Node12 -->
<g id="edge27" class="edge">
<title>Node2&#45;&gt;Node12</title>
<path fill="none" stroke="#63b8ff" d="M623.6,-396.37C635.38,-360.76 652.15,-310.06 662.8,-277.85"/>
<polygon fill="#63b8ff" stroke="#63b8ff" points="620.41,-394.86 620.6,-405.46 627.06,-397.06 620.41,-394.86"/>
</g>
<!-- Node13 -->
<g id="node13" class="node">
<title>Node13</title>
<g id="a_node13"><a xlink:href="_temperature__observer_8h.html" target="_top" xlink:title="Observador del sensor de temperatura.">
<polygon fill="white" stroke="#666666" points="941.5,-277.5 774.5,-277.5 774.5,-214.5 941.5,-214.5 941.5,-277.5"/>
<text text-anchor="start" x="782.5" y="-265.5" font-family="Helvetica,sans-Serif" font-size="10.00">C:/Users/juanh/OneDrive</text>
<text text-anchor="start" x="782.5" y="-254.5" font-family="Helvetica,sans-Serif" font-size="10.00">/Escritorio/Sistemas Embebidos</text>
<text text-anchor="start" x="782.5" y="-243.5" font-family="Helvetica,sans-Serif" font-size="10.00">/Proyecto final/LAL Control</text>
<text text-anchor="start" x="782.5" y="-232.5" font-family="Helvetica,sans-Serif" font-size="10.00"> MbedOS/include/observer_pattern</text>
<text text-anchor="middle" x="858" y="-221.5" font-family="Helvetica,sans-Serif" font-size="10.00">/observers/Temperature_observer.h</text>
</a>
</g>
</g>
<!-- Node2&#45;&gt;Node13 -->
<g id="edge28" class="edge">
<title>Node2&#45;&gt;Node13</title>
<path fill="none" stroke="#63b8ff" d="M659.11,-399.77C705.64,-364.04 774.65,-311.03 817.94,-277.77"/>
<polygon fill="#63b8ff" stroke="#63b8ff" points="657.12,-396.89 651.32,-405.76 661.38,-402.44 657.12,-396.89"/>
</g>
<!-- Node3&#45;&gt;Node2 -->
<g id="edge22" class="edge">
<title>Node3&#45;&gt;Node2</title>
<path fill="none" stroke="#63b8ff" d="M498.52,-376.56C517.62,-386.2 538.24,-396.85 556.5,-406.52"/>
<polygon fill="#63b8ff" stroke="#63b8ff" points="500.26,-373.51 489.75,-372.15 497.11,-379.77 500.26,-373.51"/>
</g>
<!-- Node4 -->
<g id="node4" class="node">
<title>Node4</title>
<g id="a_node4"><a xlink:href="_check__instruction__state_8h_source.html" target="_top" xlink:title=" ">
<polygon fill="white" stroke="#666666" points="228,-283 70,-283 70,-209 228,-209 228,-283"/>
<text text-anchor="start" x="78" y="-271" font-family="Helvetica,sans-Serif" font-size="10.00">C:/Users/juanh/OneDrive</text>
<text text-anchor="start" x="78" y="-260" font-family="Helvetica,sans-Serif" font-size="10.00">/Escritorio/Sistemas Embebidos</text>
<text text-anchor="start" x="78" y="-249" font-family="Helvetica,sans-Serif" font-size="10.00">/Proyecto final/LAL Control</text>
<text text-anchor="start" x="78" y="-238" font-family="Helvetica,sans-Serif" font-size="10.00"> MbedOS/include/machine_state</text>
<text text-anchor="start" x="78" y="-227" font-family="Helvetica,sans-Serif" font-size="10.00">_pattern/machine_states/Check</text>
<text text-anchor="middle" x="149" y="-216" font-family="Helvetica,sans-Serif" font-size="10.00">_instruction_state.h</text>
</a>
</g>
</g>
<!-- Node3&#45;&gt;Node4 -->
<g id="edge3" class="edge">
<title>Node3&#45;&gt;Node4</title>
<path fill="none" stroke="#63b8ff" d="M347.87,-314.92C309.95,-301.97 265.55,-286.81 228.34,-274.1"/>
<polygon fill="#63b8ff" stroke="#63b8ff" points="346.36,-318.11 356.95,-318.03 348.62,-311.48 346.36,-318.11"/>
</g>
<!-- Node5 -->
<g id="node5" class="node">
<title>Node5</title>
<g id="a_node5"><a xlink:href="_idle__state_8h.html" target="_top" xlink:title="Clase de estado de reposo.">
<polygon fill="white" stroke="#666666" points="293.5,-173 116.5,-173 116.5,-110 293.5,-110 293.5,-173"/>
<text text-anchor="start" x="124.5" y="-161" font-family="Helvetica,sans-Serif" font-size="10.00">C:/Users/juanh/OneDrive</text>
<text text-anchor="start" x="124.5" y="-150" font-family="Helvetica,sans-Serif" font-size="10.00">/Escritorio/Sistemas Embebidos</text>
<text text-anchor="start" x="124.5" y="-139" font-family="Helvetica,sans-Serif" font-size="10.00">/Proyecto final/LAL Control</text>
<text text-anchor="start" x="124.5" y="-128" font-family="Helvetica,sans-Serif" font-size="10.00"> MbedOS/include/machine_state</text>
<text text-anchor="middle" x="205" y="-117" font-family="Helvetica,sans-Serif" font-size="10.00">_pattern/machine_states/Idle_state.h</text>
</a>
</g>
</g>
<!-- Node3&#45;&gt;Node5 -->
<g id="edge11" class="edge">
<title>Node3&#45;&gt;Node5</title>
<path fill="none" stroke="#63b8ff" d="M355.52,-313.45C338.9,-304.98 322.12,-294.8 308,-283 270.63,-251.78 239.53,-204.25 221.59,-173.29"/>
<polygon fill="#63b8ff" stroke="#63b8ff" points="353.94,-316.58 364.46,-317.84 357.03,-310.29 353.94,-316.58"/>
</g>
<!-- Node6 -->
<g id="node6" class="node">
<title>Node6</title>
<g id="a_node6"><a xlink:href="_motor__control__state_8h.html" target="_top" xlink:title="Clase de estado de control del motor.">
<polygon fill="white" stroke="#666666" points="158,-74 0,-74 0,0 158,0 158,-74"/>
<text text-anchor="start" x="8" y="-62" font-family="Helvetica,sans-Serif" font-size="10.00">C:/Users/juanh/OneDrive</text>
<text text-anchor="start" x="8" y="-51" font-family="Helvetica,sans-Serif" font-size="10.00">/Escritorio/Sistemas Embebidos</text>
<text text-anchor="start" x="8" y="-40" font-family="Helvetica,sans-Serif" font-size="10.00">/Proyecto final/LAL Control</text>
<text text-anchor="start" x="8" y="-29" font-family="Helvetica,sans-Serif" font-size="10.00"> MbedOS/include/machine_state</text>
<text text-anchor="start" x="8" y="-18" font-family="Helvetica,sans-Serif" font-size="10.00">_pattern/machine_states/Motor</text>
<text text-anchor="middle" x="79" y="-7" font-family="Helvetica,sans-Serif" font-size="10.00">_control_state.h</text>
</a>
</g>
</g>
<!-- Node3&#45;&gt;Node6 -->
<g id="edge12" class="edge">
<title>Node3&#45;&gt;Node6</title>
<path fill="none" stroke="#63b8ff" d="M335.57,-341.82C237.4,-337.31 95.59,-323.72 61,-283 11.3,-224.49 40.39,-127.13 62.04,-74.49"/>
<polygon fill="#63b8ff" stroke="#63b8ff" points="335.37,-345.31 345.51,-342.25 335.67,-338.32 335.37,-345.31"/>
</g>
<!-- Node7 -->
<g id="node7" class="node">
<title>Node7</title>
<g id="a_node7"><a xlink:href="_shutdown__state_8h.html" target="_top" xlink:title="Clase de estado de apagado del sistema.">
<polygon fill="white" stroke="#666666" points="433.5,-68.5 228.5,-68.5 228.5,-5.5 433.5,-5.5 433.5,-68.5"/>
<text text-anchor="start" x="236.5" y="-56.5" font-family="Helvetica,sans-Serif" font-size="10.00">C:/Users/juanh/OneDrive</text>
<text text-anchor="start" x="236.5" y="-45.5" font-family="Helvetica,sans-Serif" font-size="10.00">/Escritorio/Sistemas Embebidos</text>
<text text-anchor="start" x="236.5" y="-34.5" font-family="Helvetica,sans-Serif" font-size="10.00">/Proyecto final/LAL Control</text>
<text text-anchor="start" x="236.5" y="-23.5" font-family="Helvetica,sans-Serif" font-size="10.00"> MbedOS/include/machine_state</text>
<text text-anchor="middle" x="331" y="-12.5" font-family="Helvetica,sans-Serif" font-size="10.00">_pattern/machine_states/Shutdown_state.h</text>
</a>
</g>
</g>
<!-- Node3&#45;&gt;Node7 -->
<g id="edge13" class="edge">
<title>Node3&#45;&gt;Node7</title>
<path fill="none" stroke="#63b8ff" d="M391.15,-310.33C384.12,-301.94 377.64,-292.59 373,-283 338.36,-211.44 327.18,-116.99 326.91,-68.95"/>
<polygon fill="#63b8ff" stroke="#63b8ff" points="388.35,-312.44 397.62,-317.56 393.56,-307.77 388.35,-312.44"/>
</g>
<!-- Node8 -->
<g id="node8" class="node">
<title>Node8</title>
<g id="a_node8"><a xlink:href="main_8h.html" target="_top" xlink:title="Archivo principal del programa.">
<polygon fill="white" stroke="#666666" points="751.5,-167.5 594.5,-167.5 594.5,-115.5 751.5,-115.5 751.5,-167.5"/>
<text text-anchor="start" x="602.5" y="-155.5" font-family="Helvetica,sans-Serif" font-size="10.00">C:/Users/juanh/OneDrive</text>
<text text-anchor="start" x="602.5" y="-144.5" font-family="Helvetica,sans-Serif" font-size="10.00">/Escritorio/Sistemas Embebidos</text>
<text text-anchor="start" x="602.5" y="-133.5" font-family="Helvetica,sans-Serif" font-size="10.00">/Proyecto final/LAL Control</text>
<text text-anchor="middle" x="673" y="-122.5" font-family="Helvetica,sans-Serif" font-size="10.00"> MbedOS/include/main.h</text>
</a>
</g>
</g>
<!-- Node3&#45;&gt;Node8 -->
<g id="edge14" class="edge">
<title>Node3&#45;&gt;Node8</title>
<path fill="none" stroke="#63b8ff" d="M408.5,-309.25C391.02,-279.79 374.28,-237.85 397,-209 421.21,-178.27 521.53,-160.08 594.25,-150.69"/>
<polygon fill="#63b8ff" stroke="#63b8ff" points="405.34,-310.8 413.59,-317.44 411.28,-307.1 405.34,-310.8"/>
</g>
<!-- Node3&#45;&gt;Node9 -->
<g id="edge15" class="edge">
<title>Node3&#45;&gt;Node9</title>
<path fill="none" stroke="#63b8ff" d="M453.35,-308.75C459.19,-298.63 465.52,-287.68 471.19,-277.85"/>
<polygon fill="#63b8ff" stroke="#63b8ff" points="450.44,-306.79 448.47,-317.2 456.5,-310.29 450.44,-306.79"/>
</g>
<!-- Node3&#45;&gt;Node10 -->
<g id="edge17" class="edge">
<title>Node3&#45;&gt;Node10</title>
<path fill="none" stroke="#63b8ff" d="M530,-339.84C634.88,-333.67 806.34,-318.67 950,-283 955.8,-281.56 961.72,-279.86 967.63,-277.98"/>
<polygon fill="#63b8ff" stroke="#63b8ff" points="530.1,-336.33 520.32,-340.4 530.5,-343.32 530.1,-336.33"/>
</g>
<!-- Node3&#45;&gt;Node12 -->
<g id="edge20" class="edge">
<title>Node3&#45;&gt;Node12</title>
<path fill="none" stroke="#63b8ff" d="M506.39,-314.34C535,-302.77 567.8,-289.52 596.68,-277.85"/>
<polygon fill="#63b8ff" stroke="#63b8ff" points="505.42,-310.96 497.46,-317.95 508.04,-317.44 505.42,-310.96"/>
</g>
<!-- Node3&#45;&gt;Node13 -->
<g id="edge23" class="edge">
<title>Node3&#45;&gt;Node13</title>
<path fill="none" stroke="#63b8ff" d="M530.3,-331.04C597.07,-320.96 687.3,-304.97 765,-283 770.33,-281.49 775.78,-279.8 781.24,-277.99"/>
<polygon fill="#63b8ff" stroke="#63b8ff" points="529.83,-327.57 520.46,-332.51 530.86,-334.5 529.83,-327.57"/>
</g>
<!-- Node4&#45;&gt;Node5 -->
<g id="edge4" class="edge">
<title>Node4&#45;&gt;Node5</title>
<path fill="none" stroke="#63b8ff" d="M174.32,-198.66C179,-190.1 183.78,-181.35 188.13,-173.38"/>
<polygon fill="#63b8ff" stroke="#63b8ff" points="171.35,-196.79 169.63,-207.25 177.49,-200.15 171.35,-196.79"/>
</g>
<!-- Node4&#45;&gt;Node6 -->
<g id="edge10" class="edge">
<title>Node4&#45;&gt;Node6</title>
<path fill="none" stroke="#63b8ff" d="M110.45,-199.11C105.69,-190.66 101.35,-181.74 98,-173 85.66,-140.82 78.34,-102.13 75.9,-74.43"/>
<polygon fill="#63b8ff" stroke="#63b8ff" points="107.31,-200.67 115.42,-207.48 113.32,-197.09 107.31,-200.67"/>
</g>
<!-- Node5&#45;&gt;Node6 -->
<g id="edge5" class="edge">
<title>Node5&#45;&gt;Node6</title>
<path fill="none" stroke="#63b8ff" d="M152.06,-102.75C140.27,-93.4 128,-83.41 116.95,-74.14"/>
<polygon fill="#63b8ff" stroke="#63b8ff" points="149.74,-105.38 159.76,-108.81 154.07,-99.88 149.74,-105.38"/>
</g>
<!-- Node5&#45;&gt;Node7 -->
<g id="edge8" class="edge">
<title>Node5&#45;&gt;Node7</title>
<path fill="none" stroke="#63b8ff" d="M251.62,-102.57C265.33,-91.43 280.14,-79.37 293.22,-68.73"/>
<polygon fill="#63b8ff" stroke="#63b8ff" points="249.53,-99.77 243.98,-108.79 253.94,-105.2 249.53,-99.77"/>
</g>
<!-- Node6&#45;&gt;Node4 -->
<g id="edge6" class="edge">
<title>Node6&#45;&gt;Node4</title>
<path fill="none" stroke="#63b8ff" d="M92.97,-85.65C98.31,-111.99 105.25,-144.97 116,-173 120.66,-185.16 127.24,-197.67 133.42,-208.78"/>
<polygon fill="#63b8ff" stroke="#63b8ff" points="96.41,-85.02 91,-75.91 89.55,-86.41 96.41,-85.02"/>
</g>
<!-- Node6&#45;&gt;Node5 -->
<g id="edge7" class="edge">
<title>Node6&#45;&gt;Node5</title>
<path fill="none" stroke="#63b8ff" d="M138.62,-81.07C150.64,-90.7 162.83,-100.73 173.44,-109.75"/>
<polygon fill="#63b8ff" stroke="#63b8ff" points="141.1,-78.57 131.1,-75.09 136.74,-84.05 141.1,-78.57"/>
</g>
<!-- Node7&#45;&gt;Node3 -->
<g id="edge9" class="edge">
<title>Node7&#45;&gt;Node3</title>
<path fill="none" stroke="#63b8ff" d="M339.9,-80.06C346.92,-130.52 358.86,-216.61 391,-283 397.25,-295.92 406.84,-308.41 415.42,-318.69"/>
<polygon fill="#63b8ff" stroke="#63b8ff" points="343.4,-79.86 338.55,-70.45 336.47,-80.83 343.4,-79.86"/>
</g>
<!-- Node9&#45;&gt;Node8 -->
<g id="edge16" class="edge">
<title>Node9&#45;&gt;Node8</title>
<path fill="none" stroke="#63b8ff" d="M554.05,-208.76C578.31,-195.25 605.3,-180.21 627.43,-167.89"/>
<polygon fill="#63b8ff" stroke="#63b8ff" points="552.56,-205.59 545.53,-213.51 555.97,-211.7 552.56,-205.59"/>
</g>
<!-- Node10&#45;&gt;Node8 -->
<g id="edge18" class="edge">
<title>Node10&#45;&gt;Node8</title>
<path fill="none" stroke="#63b8ff" d="M954.76,-210.51C953.16,-210 951.58,-209.49 950,-209 884.14,-188.45 807.8,-170.55 751.97,-158.51"/>
<polygon fill="#63b8ff" stroke="#63b8ff" points="953.35,-213.73 963.94,-213.59 955.57,-207.1 953.35,-213.73"/>
</g>
<!-- Node11 -->
<g id="node11" class="node">
<title>Node11</title>
<g id="a_node11"><a xlink:href="_instruction__observer_8cpp.html" target="_top" xlink:title=" ">
<polygon fill="white" stroke="#666666" points="1128,-173 958,-173 958,-110 1128,-110 1128,-173"/>
<text text-anchor="start" x="966" y="-161" font-family="Helvetica,sans-Serif" font-size="10.00">C:/Users/juanh/OneDrive</text>
<text text-anchor="start" x="966" y="-150" font-family="Helvetica,sans-Serif" font-size="10.00">/Escritorio/Sistemas Embebidos</text>
<text text-anchor="start" x="966" y="-139" font-family="Helvetica,sans-Serif" font-size="10.00">/Proyecto final/LAL Control</text>
<text text-anchor="start" x="966" y="-128" font-family="Helvetica,sans-Serif" font-size="10.00"> MbedOS/src/Port/observer_pattern</text>
<text text-anchor="middle" x="1043" y="-117" font-family="Helvetica,sans-Serif" font-size="10.00">/Instruction_observer.cpp</text>
</a>
</g>
</g>
<!-- Node10&#45;&gt;Node11 -->
<g id="edge19" class="edge">
<title>Node10&#45;&gt;Node11</title>
<path fill="none" stroke="#63b8ff" d="M1043,-202.9C1043,-192.96 1043,-182.55 1043,-173.23"/>
<polygon fill="#63b8ff" stroke="#63b8ff" points="1039.5,-202.73 1043,-212.73 1046.5,-202.73 1039.5,-202.73"/>
</g>
<!-- Node12&#45;&gt;Node8 -->
<g id="edge21" class="edge">
<title>Node12&#45;&gt;Node8</title>
<path fill="none" stroke="#63b8ff" d="M673,-203.06C673,-191.06 673,-178.37 673,-167.72"/>
<polygon fill="#63b8ff" stroke="#63b8ff" points="669.5,-202.73 673,-212.73 676.5,-202.73 669.5,-202.73"/>
</g>
<!-- Node13&#45;&gt;Node8 -->
<g id="edge24" class="edge">
<title>Node13&#45;&gt;Node8</title>
<path fill="none" stroke="#63b8ff" d="M792.39,-208.65C768.12,-195.2 741.16,-180.26 719,-167.99"/>
<polygon fill="#63b8ff" stroke="#63b8ff" points="790.48,-211.59 800.92,-213.37 793.87,-205.47 790.48,-211.59"/>
</g>
</g>
</svg>
        <g id="navigator" transform="translate(0 0)" fill="#404254">
                <rect fill="#f2f5e9" fill-opacity="0.5" stroke="#606060" stroke-width=".5" x="0" y="0" width="60" height="60"/>
                <use id="zoomplus" xlink:href="#zoomPlus" x="17" y="9" onmousedown="handleZoom(evt,'in')"/>
                <use id="zoomminus" xlink:href="#zoomMin" x="42" y="9" onmousedown="handleZoom(evt,'out')"/>
                <use id="reset" xlink:href="#resetDef" x="30" y="36" onmousedown="handleReset()"/>
                <g id="arrowUp" xlink:href="#dirArrow" transform="translate(30 24)" onmousedown="handlePan(0,-1)">
                  <use xlink:href="#rim" fill="#404040">
                        <set attributeName="fill" to="#808080" begin="arrowUp.mouseover" end="arrowUp.mouseout"/>
                  </use>
                  <path fill="none" stroke="white" stroke-width="1.5" d="M0,-3.0v7 M-2.5,-0.5L0,-3.0L2.5,-0.5"/>
                </g>
                <g id="arrowRight" xlink:href="#dirArrow" transform="rotate(90) translate(36 -43)" onmousedown="handlePan(1,0)">
                  <use xlink:href="#rim" fill="#404040">
                        <set attributeName="fill" to="#808080" begin="arrowRight.mouseover" end="arrowRight.mouseout"/>
                  </use>
                  <path fill="none" stroke="white" stroke-width="1.5" d="M0,-3.0v7 M-2.5,-0.5L0,-3.0L2.5,-0.5"/>
                </g>
                <g id="arrowDown" xlink:href="#dirArrow" transform="rotate(180) translate(-30 -48)" onmousedown="handlePan(0,1)">
                  <use xlink:href="#rim" fill="#404040">
                        <set attributeName="fill" to="#808080" begin="arrowDown.mouseover" end="arrowDown.mouseout"/>
                  </use>
                  <path fill="none" stroke="white" stroke-width="1.5" d="M0,-3.0v7 M-2.5,-0.5L0,-3.0L2.5,-0.5"/>
                </g>
                <g id="arrowLeft" xlink:href="#dirArrow" transform="rotate(270) translate(-36 17)" onmousedown="handlePan(-1,0)">
                  <use xlink:href="#rim" fill="#404040">
                        <set attributeName="fill" to="#808080" begin="arrowLeft.mouseover" end="arrowLeft.mouseout"/>
                  </use>
                  <path fill="none" stroke="white" stroke-width="1.5" d="M0,-3.0v7 M-2.5,-0.5L0,-3.0L2.5,-0.5"/>
                </g>
        </g>
        <svg viewBox="0 0 15 15" width="100%" height="30px" preserveAspectRatio="xMaxYMin meet">
         <g id="arrow_out" transform="scale(0.3 0.3)">
          <a xlink:href="_observer_8h__dep__incl_org.svg" target="_base">
           <rect id="button" ry="5" rx="5" y="6" x="6" height="38" width="38"
                fill="#f2f5e9" fill-opacity="0.5" stroke="#606060" stroke-width="1.0"/>
           <path id="arrow"
             d="M 11.500037,31.436501 C 11.940474,20.09759 22.043105,11.32322 32.158766,21.979434 L 37.068811,17.246167 C 37.068811,17.246167 37.088388,32 37.088388,32 L 22.160133,31.978069 C 22.160133,31.978069 26.997745,27.140456 26.997745,27.140456 C 18.528582,18.264221 13.291696,25.230495 11.500037,31.436501 z"
             style="fill:#404040;"/>
          </a>
         </g>
        </svg>
</svg>
