<?xml version="1.0" encoding="UTF-8" standalone="no"?>
<!DOCTYPE svg PUBLIC "-//W3C//DTD SVG 1.1//EN"
 "http://www.w3.org/Graphics/SVG/1.1/DTD/svg11.dtd">
<!-- Generated by graphviz version 7.0.2 (20221119.0110)
 -->
<!-- Title: C:/Users/juanh/OneDrive/Escritorio/Sistemas Embebidos/Proyecto final/LAL Control MbedOS/src/Port/machine_state_pattern/Shutdown_state.cpp Pages: 1 -->
<svg width="1650pt" height="698pt"
 viewBox="0.00 0.00 1650.00 698.00" xmlns="http://www.w3.org/2000/svg" xmlns:xlink="http://www.w3.org/1999/xlink">
<g id="graph0" class="graph" transform="scale(1 1) rotate(0) translate(4 694)">
<title>C:/Users/juanh/OneDrive/Escritorio/Sistemas Embebidos/Proyecto final/LAL Control MbedOS/src/Port/machine_state_pattern/Shutdown_state.cpp</title>
<!-- Node1 -->
<g id="node1" class="node">
<title>Node1</title>
<g id="a_node1"><a xlink:title="Implementación de Shutdown_state.h.">
<polygon fill="#999999" stroke="#666666" points="1210,-690 1048,-690 1048,-627 1210,-627 1210,-690"/>
<text text-anchor="start" x="1056" y="-678" font-family="Helvetica,sans-Serif" font-size="10.00">C:/Users/juanh/OneDrive</text>
<text text-anchor="start" x="1056" y="-667" font-family="Helvetica,sans-Serif" font-size="10.00">/Escritorio/Sistemas Embebidos</text>
<text text-anchor="start" x="1056" y="-656" font-family="Helvetica,sans-Serif" font-size="10.00">/Proyecto final/LAL Control</text>
<text text-anchor="start" x="1056" y="-645" font-family="Helvetica,sans-Serif" font-size="10.00"> MbedOS/src/Port/machine_state</text>
<text text-anchor="middle" x="1129" y="-634" font-family="Helvetica,sans-Serif" font-size="10.00">_pattern/Shutdown_state.cpp</text>
</a>
</g>
</g>
<!-- Node2 -->
<g id="node2" class="node">
<title>Node2</title>
<g id="a_node2"><a xlink:href="_shutdown__state_8h.html" target="_top" xlink:title="Clase de estado de apagado del sistema.">
<polygon fill="white" stroke="#666666" points="1196,-591 1062,-591 1062,-550 1196,-550 1196,-591"/>
<text text-anchor="start" x="1070" y="-579" font-family="Helvetica,sans-Serif" font-size="10.00">machine_state_pattern</text>
<text text-anchor="start" x="1070" y="-568" font-family="Helvetica,sans-Serif" font-size="10.00">/machine_states/Shutdown</text>
<text text-anchor="middle" x="1129" y="-557" font-family="Helvetica,sans-Serif" font-size="10.00">_state.h</text>
</a>
</g>
</g>
<!-- Node1&#45;&gt;Node2 -->
<g id="edge1" class="edge">
<title>Node1&#45;&gt;Node2</title>
<path fill="none" stroke="#63b8ff" d="M1129,-626.94C1129,-619.11 1129,-610.69 1129,-602.83"/>
<polygon fill="#63b8ff" stroke="#63b8ff" points="1132.5,-603 1129,-593 1125.5,-603 1132.5,-603"/>
</g>
<!-- Node3 -->
<g id="node3" class="node">
<title>Node3</title>
<g id="a_node3"><a xlink:href="_control__system_8h_source.html" target="_top" xlink:title=" ">
<polygon fill="white" stroke="#666666" points="1033.5,-283 940.5,-283 940.5,-264 1033.5,-264 1033.5,-283"/>
<text text-anchor="middle" x="987" y="-271" font-family="Helvetica,sans-Serif" font-size="10.00">Control_system.h</text>
</a>
</g>
</g>
<!-- Node2&#45;&gt;Node3 -->
<g id="edge2" class="edge">
<title>Node2&#45;&gt;Node3</title>
<path fill="none" stroke="#63b8ff" d="M1115.87,-549.69C1085.75,-495.87 1014.32,-347.47 992.82,-294.01"/>
<polygon fill="#63b8ff" stroke="#63b8ff" points="996.12,-292.85 989.29,-284.75 989.58,-295.34 996.12,-292.85"/>
</g>
<!-- Node8 -->
<g id="node8" class="node">
<title>Node8</title>
<g id="a_node8"><a xlink:href="_abstract__state_8h.html" target="_top" xlink:title="Clase de estado abstracta.">
<polygon fill="white" stroke="#666666" points="1630,-162 1502,-162 1502,-121 1630,-121 1630,-162"/>
<text text-anchor="start" x="1510" y="-150" font-family="Helvetica,sans-Serif" font-size="10.00">machine_state_pattern</text>
<text text-anchor="start" x="1510" y="-139" font-family="Helvetica,sans-Serif" font-size="10.00">/machine_states/Abstract</text>
<text text-anchor="middle" x="1566" y="-128" font-family="Helvetica,sans-Serif" font-size="10.00">_state.h</text>
</a>
</g>
</g>
<!-- Node2&#45;&gt;Node8 -->
<g id="edge50" class="edge">
<title>Node2&#45;&gt;Node8</title>
<path fill="none" stroke="#63b8ff" d="M1196.33,-563.76C1335.51,-550.05 1642,-509.4 1642,-417.5 1642,-417.5 1642,-417.5 1642,-272.5 1642,-233.38 1616.04,-195.58 1594.46,-170.92"/>
<polygon fill="#63b8ff" stroke="#63b8ff" points="1597.1,-168.62 1587.79,-163.57 1591.92,-173.33 1597.1,-168.62"/>
</g>
<!-- Node33 -->
<g id="node33" class="node">
<title>Node33</title>
<g id="a_node33"><a xlink:href="_idle__state_8h.html" target="_top" xlink:title="Clase de estado de reposo.">
<polygon fill="white" stroke="#666666" points="1473,-514 1357,-514 1357,-473 1473,-473 1473,-514"/>
<text text-anchor="start" x="1365" y="-502" font-family="Helvetica,sans-Serif" font-size="10.00">machine_state_pattern</text>
<text text-anchor="start" x="1365" y="-491" font-family="Helvetica,sans-Serif" font-size="10.00">/machine_states/Idle</text>
<text text-anchor="middle" x="1415" y="-480" font-family="Helvetica,sans-Serif" font-size="10.00">_state.h</text>
</a>
</g>
</g>
<!-- Node2&#45;&gt;Node33 -->
<g id="edge51" class="edge">
<title>Node2&#45;&gt;Node33</title>
<path fill="none" stroke="#63b8ff" d="M1196.42,-551.82C1241.42,-540.02 1300.45,-524.54 1345.82,-512.64"/>
<polygon fill="#63b8ff" stroke="#63b8ff" points="1346.49,-516.08 1355.28,-510.16 1344.72,-509.31 1346.49,-516.08"/>
</g>
<!-- Node3&#45;&gt;Node2 -->
<g id="edge49" class="edge">
<title>Node3&#45;&gt;Node2</title>
<path fill="none" stroke="#63b8ff" d="M993.76,-283.34C1017.14,-321.57 1090.97,-473.7 1118.72,-539.22"/>
<polygon fill="#63b8ff" stroke="#63b8ff" points="1115.42,-540.39 1122.48,-548.29 1121.88,-537.71 1115.42,-540.39"/>
</g>
<!-- Node4 -->
<g id="node4" class="node">
<title>Node4</title>
<g id="a_node4"><a xlink:href="_subject_8h.html" target="_top" xlink:title=" ">
<polygon fill="white" stroke="#666666" points="298,-156.5 170,-156.5 170,-126.5 298,-126.5 298,-156.5"/>
<text text-anchor="start" x="178" y="-144.5" font-family="Helvetica,sans-Serif" font-size="10.00">observer_pattern/subjects</text>
<text text-anchor="middle" x="234" y="-133.5" font-family="Helvetica,sans-Serif" font-size="10.00">/Subject.h</text>
</a>
</g>
</g>
<!-- Node3&#45;&gt;Node4 -->
<g id="edge3" class="edge">
<title>Node3&#45;&gt;Node4</title>
<path fill="none" stroke="#63b8ff" d="M940.08,-272.23C823.32,-270.99 522.45,-264.28 430,-228 409.97,-220.14 410.85,-208.37 392,-198 363.2,-182.15 329.02,-169.48 299.84,-160.27"/>
<polygon fill="#63b8ff" stroke="#63b8ff" points="300.95,-156.95 290.36,-157.35 298.89,-163.64 300.95,-156.95"/>
</g>
<!-- Node7 -->
<g id="node7" class="node">
<title>Node7</title>
<g id="a_node7"><a xlink:href="_machine_8h.html" target="_top" xlink:title="Clase de máquina abstracta.">
<polygon fill="white" stroke="#666666" points="1500,-228 1384,-228 1384,-198 1500,-198 1500,-228"/>
<text text-anchor="start" x="1392" y="-216" font-family="Helvetica,sans-Serif" font-size="10.00">machine_state_pattern</text>
<text text-anchor="middle" x="1442" y="-205" font-family="Helvetica,sans-Serif" font-size="10.00">/Machine.h</text>
</a>
</g>
</g>
<!-- Node3&#45;&gt;Node7 -->
<g id="edge6" class="edge">
<title>Node3&#45;&gt;Node7</title>
<path fill="none" stroke="#63b8ff" d="M1033.78,-268.53C1104.8,-262.2 1244.32,-248.58 1372.42,-228.32"/>
<polygon fill="#63b8ff" stroke="#63b8ff" points="1372.78,-231.81 1382.1,-226.77 1371.67,-224.9 1372.78,-231.81"/>
</g>
<!-- Node9 -->
<g id="node9" class="node">
<title>Node9</title>
<g id="a_node9"><a xlink:href="_display_8h.html" target="_top" xlink:title="Controlador de LCD hd44780 por interfaz I2C.">
<polygon fill="white" stroke="#666666" points="527,-222.5 439,-222.5 439,-203.5 527,-203.5 527,-222.5"/>
<text text-anchor="middle" x="483" y="-210.5" font-family="Helvetica,sans-Serif" font-size="10.00">drivers/Display.h</text>
</a>
</g>
</g>
<!-- Node3&#45;&gt;Node9 -->
<g id="edge8" class="edge">
<title>Node3&#45;&gt;Node9</title>
<path fill="none" stroke="#63b8ff" d="M940.03,-270.26C857.81,-265.8 682.69,-253.93 537,-228 533.17,-227.32 529.2,-226.5 525.25,-225.62"/>
<polygon fill="#63b8ff" stroke="#63b8ff" points="526.24,-222.26 515.7,-223.33 524.61,-229.06 526.24,-222.26"/>
</g>
<!-- Node19 -->
<g id="node19" class="node">
<title>Node19</title>
<g id="a_node19"><a xlink:href="user__messages_8h.html" target="_top" xlink:title="Archivo para la configuración de interfaz con el usuario.">
<polygon fill="white" stroke="#666666" points="1366,-222.5 1272,-222.5 1272,-203.5 1366,-203.5 1366,-222.5"/>
<text text-anchor="middle" x="1319" y="-210.5" font-family="Helvetica,sans-Serif" font-size="10.00">user_messages.h</text>
</a>
</g>
</g>
<!-- Node3&#45;&gt;Node19 -->
<g id="edge21" class="edge">
<title>Node3&#45;&gt;Node19</title>
<path fill="none" stroke="#63b8ff" d="M1033.61,-266.22C1088.66,-258.52 1182.89,-244.44 1263,-228 1266.58,-227.26 1270.28,-226.45 1273.99,-225.61"/>
<polygon fill="#63b8ff" stroke="#63b8ff" points="1274.66,-229.05 1283.58,-223.33 1273.04,-222.23 1274.66,-229.05"/>
</g>
<!-- Node20 -->
<g id="node20" class="node">
<title>Node20</title>
<g id="a_node20"><a xlink:href="_system__observer_8h.html" target="_top" xlink:title="Clase observador del sistema de control.">
<polygon fill="white" stroke="#666666" points="383,-228 251,-228 251,-198 383,-198 383,-228"/>
<text text-anchor="start" x="259" y="-216" font-family="Helvetica,sans-Serif" font-size="10.00">observer_pattern/observers</text>
<text text-anchor="middle" x="317" y="-205" font-family="Helvetica,sans-Serif" font-size="10.00">/System_observer.h</text>
</a>
</g>
</g>
<!-- Node3&#45;&gt;Node20 -->
<g id="edge22" class="edge">
<title>Node3&#45;&gt;Node20</title>
<path fill="none" stroke="#63b8ff" d="M940.35,-270.75C840.97,-266.48 601.48,-254.02 394.72,-228.8"/>
<polygon fill="#63b8ff" stroke="#63b8ff" points="395.2,-225.33 384.84,-227.58 394.34,-232.28 395.2,-225.33"/>
</g>
<!-- Node22 -->
<g id="node22" class="node">
<title>Node22</title>
<g id="a_node22"><a xlink:href="_temperature__sensor_8h.html" target="_top" xlink:title="Controlador para sensor de temperatura DS18B20.">
<polygon fill="white" stroke="#666666" points="1253.5,-228 1152.5,-228 1152.5,-198 1253.5,-198 1253.5,-228"/>
<text text-anchor="start" x="1160.5" y="-216" font-family="Helvetica,sans-Serif" font-size="10.00">drivers/Temperature</text>
<text text-anchor="middle" x="1203" y="-205" font-family="Helvetica,sans-Serif" font-size="10.00">_sensor.h</text>
</a>
</g>
</g>
<!-- Node3&#45;&gt;Node22 -->
<g id="edge27" class="edge">
<title>Node3&#45;&gt;Node22</title>
<path fill="none" stroke="#63b8ff" d="M1019.81,-263.62C1051.95,-254.91 1101.75,-241.42 1141.31,-230.71"/>
<polygon fill="#63b8ff" stroke="#63b8ff" points="1141.98,-234.15 1150.71,-228.16 1140.15,-227.4 1141.98,-234.15"/>
</g>
<!-- Node25 -->
<g id="node25" class="node">
<title>Node25</title>
<g id="a_node25"><a xlink:href="_moisture__sensor_8h.html" target="_top" xlink:title="Controlador de sensor de humedad analógico.">
<polygon fill="white" stroke="#666666" points="873,-79.5 745,-79.5 745,-60.5 873,-60.5 873,-79.5"/>
<text text-anchor="middle" x="809" y="-67.5" font-family="Helvetica,sans-Serif" font-size="10.00">drivers/Moisture_sensor.h</text>
</a>
</g>
</g>
<!-- Node3&#45;&gt;Node25 -->
<g id="edge30" class="edge">
<title>Node3&#45;&gt;Node25</title>
<path fill="none" stroke="#63b8ff" d="M940.04,-269.27C884.53,-264.36 797.12,-252.83 777,-228 743.96,-187.22 777,-121.27 796.67,-89.41"/>
<polygon fill="#63b8ff" stroke="#63b8ff" points="799.44,-91.57 801.89,-81.26 793.55,-87.79 799.44,-91.57"/>
</g>
<!-- Node26 -->
<g id="node26" class="node">
<title>Node26</title>
<g id="a_node26"><a xlink:href="types_8h.html" target="_top" xlink:title="Archivo de definición de tipos de dato.">
<polygon fill="white" stroke="#666666" points="958.5,-151 909.5,-151 909.5,-132 958.5,-132 958.5,-151"/>
<text text-anchor="middle" x="934" y="-139" font-family="Helvetica,sans-Serif" font-size="10.00">types.h</text>
</a>
</g>
</g>
<!-- Node3&#45;&gt;Node26 -->
<g id="edge32" class="edge">
<title>Node3&#45;&gt;Node26</title>
<path fill="none" stroke="#63b8ff" d="M969,-263.57C956.07,-256.05 939.62,-243.96 932,-228 922.12,-207.3 924.89,-180.46 928.64,-162.42"/>
<polygon fill="#63b8ff" stroke="#63b8ff" points="932.03,-163.3 930.96,-152.76 925.22,-161.66 932.03,-163.3"/>
</g>
<!-- Node27 -->
<g id="node27" class="node">
<title>Node27</title>
<g id="a_node27"><a xlink:href="_buzzer_8h.html" target="_top" xlink:title="Controlador de Buzzer de 12 milimetros sin oscilador.">
<polygon fill="white" stroke="#666666" points="632,-222.5 546,-222.5 546,-203.5 632,-203.5 632,-222.5"/>
<text text-anchor="middle" x="589" y="-210.5" font-family="Helvetica,sans-Serif" font-size="10.00">drivers/Buzzer.h</text>
</a>
</g>
</g>
<!-- Node3&#45;&gt;Node27 -->
<g id="edge33" class="edge">
<title>Node3&#45;&gt;Node27</title>
<path fill="none" stroke="#63b8ff" d="M940.23,-268.51C873.43,-262.35 747.05,-249 641,-228 637.62,-227.33 634.14,-226.57 630.66,-225.74"/>
<polygon fill="#63b8ff" stroke="#63b8ff" points="631.65,-222.39 621.1,-223.35 629.95,-229.18 631.65,-222.39"/>
</g>
<!-- Node29 -->
<g id="node29" class="node">
<title>Node29</title>
<g id="a_node29"><a xlink:href="_motor_8h.html" target="_top" xlink:title="Controlador de motor de 220 VAC.">
<polygon fill="white" stroke="#666666" points="730,-222.5 650,-222.5 650,-203.5 730,-203.5 730,-222.5"/>
<text text-anchor="middle" x="690" y="-210.5" font-family="Helvetica,sans-Serif" font-size="10.00">drivers/Motor.h</text>
</a>
</g>
</g>
<!-- Node3&#45;&gt;Node29 -->
<g id="edge36" class="edge">
<title>Node3&#45;&gt;Node29</title>
<path fill="none" stroke="#63b8ff" d="M940.21,-264.97C891.13,-256.83 811.84,-242.99 744,-228 740.7,-227.27 737.3,-226.48 733.88,-225.66"/>
<polygon fill="#63b8ff" stroke="#63b8ff" points="735.05,-222.34 724.5,-223.33 733.37,-229.14 735.05,-222.34"/>
</g>
<!-- Node30 -->
<g id="node30" class="node">
<title>Node30</title>
<g id="a_node30"><a xlink:href="_dual___l_e_d_8h.html" target="_top" xlink:title="Controlador de LED RG con PWM.">
<polygon fill="white" stroke="#666666" points="1033.5,-222.5 940.5,-222.5 940.5,-203.5 1033.5,-203.5 1033.5,-222.5"/>
<text text-anchor="middle" x="987" y="-210.5" font-family="Helvetica,sans-Serif" font-size="10.00">drivers/Dual_led.h</text>
</a>
</g>
</g>
<!-- Node3&#45;&gt;Node30 -->
<g id="edge39" class="edge">
<title>Node3&#45;&gt;Node30</title>
<path fill="none" stroke="#63b8ff" d="M987,-263.87C987,-256 987,-244.1 987,-233.89"/>
<polygon fill="#63b8ff" stroke="#63b8ff" points="990.5,-234.18 987,-224.18 983.5,-234.18 990.5,-234.18"/>
</g>
<!-- Node31 -->
<g id="node31" class="node">
<title>Node31</title>
<g id="a_node31"><a xlink:href="_digital__dual___l_e_d_8h_source.html" target="_top" xlink:title=" ">
<polygon fill="white" stroke="#666666" points="884,-228 786,-228 786,-198 884,-198 884,-228"/>
<text text-anchor="start" x="794" y="-216" font-family="Helvetica,sans-Serif" font-size="10.00">drivers/Digital_dual</text>
<text text-anchor="middle" x="835" y="-205" font-family="Helvetica,sans-Serif" font-size="10.00">_led.h</text>
</a>
</g>
</g>
<!-- Node3&#45;&gt;Node31 -->
<g id="edge43" class="edge">
<title>Node3&#45;&gt;Node31</title>
<path fill="none" stroke="#63b8ff" d="M963.91,-263.62C942.51,-255.38 909.98,-242.86 882.95,-232.45"/>
<polygon fill="#63b8ff" stroke="#63b8ff" points="884.52,-229.31 873.93,-228.98 882.01,-235.84 884.52,-229.31"/>
</g>
<!-- Node32 -->
<g id="node32" class="node">
<title>Node32</title>
<g id="a_node32"><a xlink:href="_cooler_8h.html" target="_top" xlink:title="Controlador de ventilador de 12 volts y 5 milímteros.">
<polygon fill="white" stroke="#666666" points="1134.5,-222.5 1051.5,-222.5 1051.5,-203.5 1134.5,-203.5 1134.5,-222.5"/>
<text text-anchor="middle" x="1093" y="-210.5" font-family="Helvetica,sans-Serif" font-size="10.00">drivers/Cooler.h</text>
</a>
</g>
</g>
<!-- Node3&#45;&gt;Node32 -->
<g id="edge46" class="edge">
<title>Node3&#45;&gt;Node32</title>
<path fill="none" stroke="#63b8ff" d="M1003.1,-263.62C1019.99,-254.29 1046.8,-239.5 1066.75,-228.49"/>
<polygon fill="#63b8ff" stroke="#63b8ff" points="1068.36,-231.6 1075.42,-223.7 1064.98,-225.47 1068.36,-231.6"/>
</g>
<!-- Node5 -->
<g id="node5" class="node">
<title>Node5</title>
<g id="a_node5"><a xlink:href="_subject__interface_8h.html" target="_top" xlink:title="Clase para interfaz para implementar el sujeto.">
<polygon fill="white" stroke="#666666" points="278,-85 150,-85 150,-55 278,-55 278,-85"/>
<text text-anchor="start" x="158" y="-73" font-family="Helvetica,sans-Serif" font-size="10.00">observer_pattern/subjects</text>
<text text-anchor="middle" x="214" y="-62" font-family="Helvetica,sans-Serif" font-size="10.00">/Subject_interface.h</text>
</a>
</g>
</g>
<!-- Node4&#45;&gt;Node5 -->
<g id="edge4" class="edge">
<title>Node4&#45;&gt;Node5</title>
<path fill="none" stroke="#63b8ff" d="M229.86,-126.1C227.39,-117.53 224.19,-106.4 221.31,-96.4"/>
<polygon fill="#63b8ff" stroke="#63b8ff" points="224.69,-95.48 218.56,-86.84 217.96,-97.41 224.69,-95.48"/>
</g>
<!-- Node6 -->
<g id="node6" class="node">
<title>Node6</title>
<g id="a_node6"><a xlink:href="_observer__interface_8h.html" target="_top" xlink:title="Clase para interfaz para implementar el observador.">
<polygon fill="white" stroke="#666666" points="132,-85 0,-85 0,-55 132,-55 132,-85"/>
<text text-anchor="start" x="8" y="-73" font-family="Helvetica,sans-Serif" font-size="10.00">observer_pattern/observers</text>
<text text-anchor="middle" x="66" y="-62" font-family="Helvetica,sans-Serif" font-size="10.00">/Observer_interface.h</text>
</a>
</g>
</g>
<!-- Node4&#45;&gt;Node6 -->
<g id="edge5" class="edge">
<title>Node4&#45;&gt;Node6</title>
<path fill="none" stroke="#63b8ff" d="M199.19,-126.1C173.74,-115.57 138.98,-101.19 111.35,-89.76"/>
<polygon fill="#63b8ff" stroke="#63b8ff" points="112.74,-86.55 102.16,-85.96 110.07,-93.02 112.74,-86.55"/>
</g>
<!-- Node7&#45;&gt;Node8 -->
<g id="edge7" class="edge">
<title>Node7&#45;&gt;Node8</title>
<path fill="none" stroke="#63b8ff" d="M1467.69,-197.6C1483.02,-189.01 1502.91,-177.86 1520.78,-167.84"/>
<polygon fill="#63b8ff" stroke="#63b8ff" points="1522.13,-171.1 1529.15,-163.16 1518.71,-164.99 1522.13,-171.1"/>
</g>
<!-- Node10 -->
<g id="node10" class="node">
<title>Node10</title>
<g id="a_node10"><a xlink:href="display__settings_8h.html" target="_top" xlink:title="Archivo de configuración de la pantalla.">
<polygon fill="white" stroke="#666666" points="391.5,-79.5 296.5,-79.5 296.5,-60.5 391.5,-60.5 391.5,-79.5"/>
<text text-anchor="middle" x="344" y="-67.5" font-family="Helvetica,sans-Serif" font-size="10.00">display_settings.h</text>
</a>
</g>
</g>
<!-- Node9&#45;&gt;Node10 -->
<g id="edge9" class="edge">
<title>Node9&#45;&gt;Node10</title>
<path fill="none" stroke="#63b8ff" d="M466.48,-203.14C450.62,-194.13 426.55,-179.1 409,-162 386.34,-139.93 366.2,-109.09 354.54,-89.58"/>
<polygon fill="#63b8ff" stroke="#63b8ff" points="357.66,-87.99 349.61,-81.11 351.62,-91.51 357.66,-87.99"/>
</g>
<!-- Node11 -->
<g id="node11" class="node">
<title>Node11</title>
<g id="a_node11"><a xlink:href="hd44780___i2_cexp_8h.html" target="_top" xlink:title="Adaptación de la biblioteca TextLCD de MbedOS 5. Permite utilizar un LCD hd44780 con un expansor de p...">
<polygon fill="white" stroke="#666666" points="546,-151 418,-151 418,-132 546,-132 546,-151"/>
<text text-anchor="middle" x="482" y="-139" font-family="Helvetica,sans-Serif" font-size="10.00">drivers/hd44780_I2Cexp.h</text>
</a>
</g>
</g>
<!-- Node9&#45;&gt;Node11 -->
<g id="edge10" class="edge">
<title>Node9&#45;&gt;Node11</title>
<path fill="none" stroke="#63b8ff" d="M482.87,-203.2C482.73,-193.12 482.49,-176.29 482.29,-162.9"/>
<polygon fill="#63b8ff" stroke="#63b8ff" points="485.79,-162.91 482.15,-152.96 478.79,-163.01 485.79,-162.91"/>
</g>
<!-- Node11&#45;&gt;Node10 -->
<g id="edge20" class="edge">
<title>Node11&#45;&gt;Node10</title>
<path fill="none" stroke="#63b8ff" d="M464.24,-131.56C440.85,-119.78 399.46,-98.93 371.87,-85.04"/>
<polygon fill="#63b8ff" stroke="#63b8ff" points="373.55,-81.96 363.04,-80.59 370.4,-88.21 373.55,-81.96"/>
</g>
<!-- Node12 -->
<g id="node12" class="node">
<title>Node12</title>
<g id="a_node12"><a xlink:title=" ">
<polygon fill="#e0e0e0" stroke="#999999" points="787.5,-19 738.5,-19 738.5,0 787.5,0 787.5,-19"/>
<text text-anchor="middle" x="763" y="-7" font-family="Helvetica,sans-Serif" font-size="10.00">mbed.h</text>
</a>
</g>
</g>
<!-- Node11&#45;&gt;Node12 -->
<g id="edge11" class="edge">
<title>Node11&#45;&gt;Node12</title>
<path fill="none" stroke="#63b8ff" d="M485.14,-131.54C491.83,-113.83 509.31,-74.34 538,-55 568.38,-34.52 671.32,-20.49 726.83,-14.22"/>
<polygon fill="#63b8ff" stroke="#63b8ff" points="727.17,-17.7 736.73,-13.13 726.4,-10.75 727.17,-17.7"/>
</g>
<!-- Node13 -->
<g id="node13" class="node">
<title>Node13</title>
<g id="a_node13"><a xlink:title=" ">
<polygon fill="#e0e0e0" stroke="#999999" points="522,-19 474,-19 474,0 522,0 522,-19"/>
<text text-anchor="middle" x="498" y="-7" font-family="Helvetica,sans-Serif" font-size="10.00">stdlib.h</text>
</a>
</g>
</g>
<!-- Node11&#45;&gt;Node13 -->
<g id="edge12" class="edge">
<title>Node11&#45;&gt;Node13</title>
<path fill="none" stroke="#63b8ff" d="M483.1,-131.56C485.65,-110.88 492,-59.27 495.53,-30.56"/>
<polygon fill="#63b8ff" stroke="#63b8ff" points="498.96,-31.35 496.71,-21 492.01,-30.5 498.96,-31.35"/>
</g>
<!-- Node14 -->
<g id="node14" class="node">
<title>Node14</title>
<g id="a_node14"><a xlink:href="hd44780__instruction__set_8h.html" target="_top" xlink:title="Set de instrucciones del LCD HD44780.">
<polygon fill="white" stroke="#666666" points="651,-85 547,-85 547,-55 651,-55 651,-85"/>
<text text-anchor="start" x="555" y="-73" font-family="Helvetica,sans-Serif" font-size="10.00">hd44780_instruction</text>
<text text-anchor="middle" x="599" y="-62" font-family="Helvetica,sans-Serif" font-size="10.00">_set.h</text>
</a>
</g>
</g>
<!-- Node11&#45;&gt;Node14 -->
<g id="edge13" class="edge">
<title>Node11&#45;&gt;Node14</title>
<path fill="none" stroke="#63b8ff" d="M496.82,-131.7C513.96,-121.52 542.72,-104.43 565.37,-90.97"/>
<polygon fill="#63b8ff" stroke="#63b8ff" points="566.86,-94.16 573.67,-86.05 563.28,-88.15 566.86,-94.16"/>
</g>
<!-- Node15 -->
<g id="node15" class="node">
<title>Node15</title>
<g id="a_node15"><a xlink:href="utils_8h_source.html" target="_top" xlink:title=" ">
<polygon fill="white" stroke="#666666" points="452.5,-79.5 409.5,-79.5 409.5,-60.5 452.5,-60.5 452.5,-79.5"/>
<text text-anchor="middle" x="431" y="-67.5" font-family="Helvetica,sans-Serif" font-size="10.00">utils.h</text>
</a>
</g>
</g>
<!-- Node11&#45;&gt;Node15 -->
<g id="edge15" class="edge">
<title>Node11&#45;&gt;Node15</title>
<path fill="none" stroke="#63b8ff" d="M475.54,-131.7C467.69,-121 454.24,-102.68 444.18,-88.95"/>
<polygon fill="#63b8ff" stroke="#63b8ff" points="447.2,-87.16 438.46,-81.17 441.56,-91.3 447.2,-87.16"/>
</g>
<!-- Node14&#45;&gt;Node12 -->
<g id="edge14" class="edge">
<title>Node14&#45;&gt;Node12</title>
<path fill="none" stroke="#63b8ff" d="M639.54,-54.54C666.48,-44.93 701.51,-32.43 727.38,-23.21"/>
<polygon fill="#63b8ff" stroke="#63b8ff" points="728.53,-26.51 736.77,-19.85 726.18,-19.92 728.53,-26.51"/>
</g>
<!-- Node15&#45;&gt;Node13 -->
<g id="edge18" class="edge">
<title>Node15&#45;&gt;Node13</title>
<path fill="none" stroke="#63b8ff" d="M441.18,-60.12C451.21,-51.35 466.79,-37.75 479.1,-27"/>
<polygon fill="#63b8ff" stroke="#63b8ff" points="481.36,-29.68 486.59,-20.46 476.75,-24.4 481.36,-29.68"/>
</g>
<!-- Node16 -->
<g id="node16" class="node">
<title>Node16</title>
<g id="a_node16"><a xlink:title=" ">
<polygon fill="#e0e0e0" stroke="#999999" points="323.5,-19 276.5,-19 276.5,0 323.5,0 323.5,-19"/>
<text text-anchor="middle" x="300" y="-7" font-family="Helvetica,sans-Serif" font-size="10.00">math.h</text>
</a>
</g>
</g>
<!-- Node15&#45;&gt;Node16 -->
<g id="edge16" class="edge">
<title>Node15&#45;&gt;Node16</title>
<path fill="none" stroke="#63b8ff" d="M411.98,-60.05C408.34,-58.36 404.56,-56.61 401,-55 377.59,-44.38 350.98,-32.67 330.95,-23.93"/>
<polygon fill="#63b8ff" stroke="#63b8ff" points="332.52,-20.79 321.95,-20.01 329.72,-27.21 332.52,-20.79"/>
</g>
<!-- Node17 -->
<g id="node17" class="node">
<title>Node17</title>
<g id="a_node17"><a xlink:title=" ">
<polygon fill="#e0e0e0" stroke="#999999" points="388,-19 342,-19 342,0 388,0 388,-19"/>
<text text-anchor="middle" x="365" y="-7" font-family="Helvetica,sans-Serif" font-size="10.00">stdio.h</text>
</a>
</g>
</g>
<!-- Node15&#45;&gt;Node17 -->
<g id="edge17" class="edge">
<title>Node15&#45;&gt;Node17</title>
<path fill="none" stroke="#63b8ff" d="M420.98,-60.12C411.09,-51.35 395.74,-37.75 383.62,-27"/>
<polygon fill="#63b8ff" stroke="#63b8ff" points="386.06,-24.49 376.25,-20.47 381.41,-29.72 386.06,-24.49"/>
</g>
<!-- Node18 -->
<g id="node18" class="node">
<title>Node18</title>
<g id="a_node18"><a xlink:title=" ">
<polygon fill="#e0e0e0" stroke="#999999" points="455.5,-19 406.5,-19 406.5,0 455.5,0 455.5,-19"/>
<text text-anchor="middle" x="431" y="-7" font-family="Helvetica,sans-Serif" font-size="10.00">string.h</text>
</a>
</g>
</g>
<!-- Node15&#45;&gt;Node18 -->
<g id="edge19" class="edge">
<title>Node15&#45;&gt;Node18</title>
<path fill="none" stroke="#63b8ff" d="M431,-60.37C431,-52.5 431,-40.6 431,-30.39"/>
<polygon fill="#63b8ff" stroke="#63b8ff" points="434.5,-30.68 431,-20.68 427.5,-30.68 434.5,-30.68"/>
</g>
<!-- Node20&#45;&gt;Node3 -->
<g id="edge26" class="edge">
<title>Node20&#45;&gt;Node3</title>
<path fill="none" stroke="#63b8ff" d="M383.06,-224.7C390.81,-225.93 398.58,-227.07 406,-228 596.84,-251.84 824.13,-264.61 928.94,-269.75"/>
<polygon fill="#63b8ff" stroke="#63b8ff" points="928.54,-273.24 938.69,-270.23 928.87,-266.24 928.54,-273.24"/>
</g>
<!-- Node21 -->
<g id="node21" class="node">
<title>Node21</title>
<g id="a_node21"><a xlink:href="_observer_8h.html" target="_top" xlink:title="Clase observador.">
<polygon fill="white" stroke="#666666" points="152,-156.5 20,-156.5 20,-126.5 152,-126.5 152,-156.5"/>
<text text-anchor="start" x="28" y="-144.5" font-family="Helvetica,sans-Serif" font-size="10.00">observer_pattern/observers</text>
<text text-anchor="middle" x="86" y="-133.5" font-family="Helvetica,sans-Serif" font-size="10.00">/Observer.h</text>
</a>
</g>
</g>
<!-- Node20&#45;&gt;Node21 -->
<g id="edge23" class="edge">
<title>Node20&#45;&gt;Node21</title>
<path fill="none" stroke="#63b8ff" d="M268.86,-197.52C232.87,-186.69 183.48,-171.83 145.1,-160.28"/>
<polygon fill="#63b8ff" stroke="#63b8ff" points="146.12,-156.93 135.53,-157.4 144.1,-163.64 146.12,-156.93"/>
</g>
<!-- Node21&#45;&gt;Node5 -->
<g id="edge24" class="edge">
<title>Node21&#45;&gt;Node5</title>
<path fill="none" stroke="#63b8ff" d="M112.52,-126.1C131.31,-115.9 156.76,-102.08 177.48,-90.83"/>
<polygon fill="#63b8ff" stroke="#63b8ff" points="179.06,-93.95 186.18,-86.1 175.72,-87.8 179.06,-93.95"/>
</g>
<!-- Node21&#45;&gt;Node6 -->
<g id="edge25" class="edge">
<title>Node21&#45;&gt;Node6</title>
<path fill="none" stroke="#63b8ff" d="M81.86,-126.1C79.39,-117.53 76.19,-106.4 73.31,-96.4"/>
<polygon fill="#63b8ff" stroke="#63b8ff" points="76.69,-95.48 70.56,-86.84 69.96,-97.41 76.69,-95.48"/>
</g>
<!-- Node23 -->
<g id="node23" class="node">
<title>Node23</title>
<g id="a_node23"><a xlink:href="system__settings_8h.html" target="_top" xlink:title="Archivo para la definición de constantes del sistema.">
<polygon fill="white" stroke="#666666" points="1150.5,-151 1053.5,-151 1053.5,-132 1150.5,-132 1150.5,-151"/>
<text text-anchor="middle" x="1102" y="-139" font-family="Helvetica,sans-Serif" font-size="10.00">system_settings.h</text>
</a>
</g>
</g>
<!-- Node22&#45;&gt;Node23 -->
<g id="edge28" class="edge">
<title>Node22&#45;&gt;Node23</title>
<path fill="none" stroke="#63b8ff" d="M1182.07,-197.6C1165.17,-185.97 1141.44,-169.64 1124.2,-157.78"/>
<polygon fill="#63b8ff" stroke="#63b8ff" points="1126.37,-155.02 1116.15,-152.24 1122.4,-160.79 1126.37,-155.02"/>
</g>
<!-- Node24 -->
<g id="node24" class="node">
<title>Node24</title>
<g id="a_node24"><a xlink:title=" ">
<polygon fill="#e0e0e0" stroke="#999999" points="1232.5,-151 1173.5,-151 1173.5,-132 1232.5,-132 1232.5,-151"/>
<text text-anchor="middle" x="1203" y="-139" font-family="Helvetica,sans-Serif" font-size="10.00">DS1820.h</text>
</a>
</g>
</g>
<!-- Node22&#45;&gt;Node24 -->
<g id="edge29" class="edge">
<title>Node22&#45;&gt;Node24</title>
<path fill="none" stroke="#63b8ff" d="M1203,-197.6C1203,-187.43 1203,-173.67 1203,-162.45"/>
<polygon fill="#63b8ff" stroke="#63b8ff" points="1206.5,-162.69 1203,-152.69 1199.5,-162.69 1206.5,-162.69"/>
</g>
<!-- Node25&#45;&gt;Node12 -->
<g id="edge31" class="edge">
<title>Node25&#45;&gt;Node12</title>
<path fill="none" stroke="#63b8ff" d="M802.21,-60.37C795.55,-51.9 785.21,-38.74 776.81,-28.07"/>
<polygon fill="#63b8ff" stroke="#63b8ff" points="779.68,-26.05 770.75,-20.36 774.18,-30.38 779.68,-26.05"/>
</g>
<!-- Node27&#45;&gt;Node12 -->
<g id="edge34" class="edge">
<title>Node27&#45;&gt;Node12</title>
<path fill="none" stroke="#63b8ff" d="M588.76,-203.16C588.71,-185.9 590.7,-147.09 608,-121 623.53,-97.57 637.06,-101.24 660,-85 688.49,-64.84 721.08,-41.16 741.84,-26"/>
<polygon fill="#63b8ff" stroke="#63b8ff" points="743.78,-28.92 749.78,-20.19 739.65,-23.27 743.78,-28.92"/>
</g>
<!-- Node28 -->
<g id="node28" class="node">
<title>Node28</title>
<g id="a_node28"><a xlink:href="port__config_8h.html" target="_top" xlink:title="Archivo de configuración para los puertos de la placa donde se implementará el sistema.">
<polygon fill="white" stroke="#666666" points="689,-151 617,-151 617,-132 689,-132 689,-151"/>
<text text-anchor="middle" x="653" y="-139" font-family="Helvetica,sans-Serif" font-size="10.00">port_config.h</text>
</a>
</g>
</g>
<!-- Node27&#45;&gt;Node28 -->
<g id="edge35" class="edge">
<title>Node27&#45;&gt;Node28</title>
<path fill="none" stroke="#63b8ff" d="M597.11,-203.2C607.15,-192.29 624.49,-173.46 637.2,-159.66"/>
<polygon fill="#63b8ff" stroke="#63b8ff" points="639.53,-162.29 643.73,-152.56 634.38,-157.55 639.53,-162.29"/>
</g>
<!-- Node29&#45;&gt;Node12 -->
<g id="edge37" class="edge">
<title>Node29&#45;&gt;Node12</title>
<path fill="none" stroke="#63b8ff" d="M691.73,-203.21C696.7,-178.92 712.17,-109.06 736,-55 739.96,-46.02 745.42,-36.65 750.39,-28.83"/>
<polygon fill="#63b8ff" stroke="#63b8ff" points="753.25,-30.86 755.86,-20.59 747.42,-26.99 753.25,-30.86"/>
</g>
<!-- Node29&#45;&gt;Node28 -->
<g id="edge38" class="edge">
<title>Node29&#45;&gt;Node28</title>
<path fill="none" stroke="#63b8ff" d="M685.31,-203.2C679.73,-192.71 670.24,-174.88 662.99,-161.26"/>
<polygon fill="#63b8ff" stroke="#63b8ff" points="666.26,-159.97 658.48,-152.79 660.09,-163.26 666.26,-159.97"/>
</g>
<!-- Node30&#45;&gt;Node12 -->
<g id="edge40" class="edge">
<title>Node30&#45;&gt;Node12</title>
<path fill="none" stroke="#63b8ff" d="M986.82,-203.15C986.14,-186.18 982.92,-148.35 968,-121 947.98,-84.31 936.75,-76.67 901,-55 869.07,-35.65 827.82,-23.78 798.76,-17.23"/>
<polygon fill="#63b8ff" stroke="#63b8ff" points="799.88,-13.88 789.37,-15.21 798.41,-20.73 799.88,-13.88"/>
</g>
<!-- Node30&#45;&gt;Node23 -->
<g id="edge42" class="edge">
<title>Node30&#45;&gt;Node23</title>
<path fill="none" stroke="#63b8ff" d="M1001.56,-203.2C1020.64,-191.67 1054.37,-171.28 1077.43,-157.35"/>
<polygon fill="#63b8ff" stroke="#63b8ff" points="1079.15,-160.4 1085.89,-152.23 1075.53,-154.41 1079.15,-160.4"/>
</g>
<!-- Node30&#45;&gt;Node26 -->
<g id="edge41" class="edge">
<title>Node30&#45;&gt;Node26</title>
<path fill="none" stroke="#63b8ff" d="M980.29,-203.2C972.13,-192.5 958.16,-174.18 947.69,-160.45"/>
<polygon fill="#63b8ff" stroke="#63b8ff" points="950.59,-158.48 941.74,-152.65 945.02,-162.73 950.59,-158.48"/>
</g>
<!-- Node31&#45;&gt;Node12 -->
<g id="edge44" class="edge">
<title>Node31&#45;&gt;Node12</title>
<path fill="none" stroke="#63b8ff" d="M846.77,-197.72C869.35,-168.51 913.79,-100.82 882,-55 863.41,-28.2 826.59,-17.51 798.8,-13.27"/>
<polygon fill="#63b8ff" stroke="#63b8ff" points="799.39,-9.81 789.03,-12.01 798.5,-16.76 799.39,-9.81"/>
</g>
<!-- Node31&#45;&gt;Node26 -->
<g id="edge45" class="edge">
<title>Node31&#45;&gt;Node26</title>
<path fill="none" stroke="#63b8ff" d="M855.51,-197.6C872.08,-185.97 895.35,-169.64 912.24,-157.78"/>
<polygon fill="#63b8ff" stroke="#63b8ff" points="913.94,-160.86 920.11,-152.25 909.92,-155.13 913.94,-160.86"/>
</g>
<!-- Node32&#45;&gt;Node12 -->
<g id="edge47" class="edge">
<title>Node32&#45;&gt;Node12</title>
<path fill="none" stroke="#63b8ff" d="M1084.63,-203.44C1053.29,-171.41 944.2,-60.24 935,-55 891.95,-30.48 835.21,-19.21 798.91,-14.22"/>
<polygon fill="#63b8ff" stroke="#63b8ff" points="799.75,-10.8 789.39,-13 798.86,-17.74 799.75,-10.8"/>
</g>
<!-- Node32&#45;&gt;Node23 -->
<g id="edge48" class="edge">
<title>Node32&#45;&gt;Node23</title>
<path fill="none" stroke="#63b8ff" d="M1094.14,-203.2C1095.46,-193.02 1097.67,-175.94 1099.41,-162.48"/>
<polygon fill="#63b8ff" stroke="#63b8ff" points="1102.83,-163.32 1100.65,-152.95 1095.89,-162.42 1102.83,-163.32"/>
</g>
<!-- Node33&#45;&gt;Node3 -->
<g id="edge52" class="edge">
<title>Node33&#45;&gt;Node3</title>
<path fill="none" stroke="#63b8ff" d="M1379.91,-472.53C1320.84,-439.2 1197.46,-370.79 1090,-319 1066.75,-307.8 1039.99,-296.27 1019.57,-287.76"/>
<polygon fill="#63b8ff" stroke="#63b8ff" points="1020.91,-284.53 1010.34,-283.94 1018.24,-291 1020.91,-284.53"/>
</g>
<!-- Node33&#45;&gt;Node8 -->
<g id="edge53" class="edge">
<title>Node33&#45;&gt;Node8</title>
<path fill="none" stroke="#63b8ff" d="M1415.96,-472.75C1417.17,-453.13 1419.76,-422.26 1425,-396 1431.98,-360.97 1432.77,-351.31 1448,-319 1468.76,-274.96 1481.94,-268.48 1509,-228 1521.6,-209.16 1535.73,-187.95 1546.77,-171.38"/>
<polygon fill="#63b8ff" stroke="#63b8ff" points="1549.41,-173.73 1552.04,-163.47 1543.59,-169.85 1549.41,-173.73"/>
</g>
<!-- Node34 -->
<g id="node34" class="node">
<title>Node34</title>
<g id="a_node34"><a xlink:href="_alarm__state_8h.html" target="_top" xlink:title="Clase de estado de control del motor.">
<polygon fill="white" stroke="#666666" points="1574.5,-437 1457.5,-437 1457.5,-396 1574.5,-396 1574.5,-437"/>
<text text-anchor="start" x="1465.5" y="-425" font-family="Helvetica,sans-Serif" font-size="10.00">machine_state_pattern</text>
<text text-anchor="start" x="1465.5" y="-414" font-family="Helvetica,sans-Serif" font-size="10.00">/machine_states/Alarm</text>
<text text-anchor="middle" x="1516" y="-403" font-family="Helvetica,sans-Serif" font-size="10.00">_state.h</text>
</a>
</g>
</g>
<!-- Node33&#45;&gt;Node34 -->
<g id="edge54" class="edge">
<title>Node33&#45;&gt;Node34</title>
<path fill="none" stroke="#63b8ff" d="M1435.51,-472.79C1446.7,-463.91 1460.85,-453.29 1474.19,-443.74"/>
<polygon fill="#63b8ff" stroke="#63b8ff" points="1475.87,-446.84 1482.02,-438.21 1471.83,-441.12 1475.87,-446.84"/>
</g>
<!-- Node35 -->
<g id="node35" class="node">
<title>Node35</title>
<g id="a_node35"><a xlink:href="_check__instruction__state_8h_source.html" target="_top" xlink:title=" ">
<polygon fill="white" stroke="#666666" points="1575.5,-360 1456.5,-360 1456.5,-319 1575.5,-319 1575.5,-360"/>
<text text-anchor="start" x="1464.5" y="-348" font-family="Helvetica,sans-Serif" font-size="10.00">machine_state_pattern</text>
<text text-anchor="start" x="1464.5" y="-337" font-family="Helvetica,sans-Serif" font-size="10.00">/machine_states/Check</text>
<text text-anchor="middle" x="1516" y="-326" font-family="Helvetica,sans-Serif" font-size="10.00">_instruction_state.h</text>
</a>
</g>
</g>
<!-- Node33&#45;&gt;Node35 -->
<g id="edge62" class="edge">
<title>Node33&#45;&gt;Node35</title>
<path fill="none" stroke="#63b8ff" d="M1418.73,-472.57C1423.3,-451.98 1432.54,-419.6 1449,-396 1456.48,-385.27 1466.57,-375.44 1476.65,-367.14"/>
<polygon fill="#63b8ff" stroke="#63b8ff" points="1478.53,-370.11 1484.24,-361.19 1474.22,-364.6 1478.53,-370.11"/>
</g>
<!-- Node34&#45;&gt;Node3 -->
<g id="edge55" class="edge">
<title>Node34&#45;&gt;Node3</title>
<path fill="none" stroke="#63b8ff" d="M1458.42,-395.56C1396.74,-374.66 1295.73,-341.77 1207,-319 1152.48,-305.01 1089.46,-292.64 1044.87,-284.52"/>
<polygon fill="#63b8ff" stroke="#63b8ff" points="1045.62,-281.1 1035.16,-282.77 1044.38,-287.99 1045.62,-281.1"/>
</g>
<!-- Node34&#45;&gt;Node8 -->
<g id="edge56" class="edge">
<title>Node34&#45;&gt;Node8</title>
<path fill="none" stroke="#63b8ff" d="M1552.42,-395.55C1565.17,-386.51 1578.03,-374.56 1585,-360 1614.31,-298.81 1593.34,-216.85 1578.08,-173.08"/>
<polygon fill="#63b8ff" stroke="#63b8ff" points="1581.38,-171.93 1574.68,-163.73 1574.8,-174.32 1581.38,-171.93"/>
</g>
<!-- Node34&#45;&gt;Node33 -->
<g id="edge57" class="edge">
<title>Node34&#45;&gt;Node33</title>
<path fill="none" stroke="#63b8ff" d="M1495.12,-437.49C1484.1,-446.24 1470.27,-456.61 1457.19,-465.99"/>
<polygon fill="#63b8ff" stroke="#63b8ff" points="1455.22,-463.09 1449.08,-471.72 1459.26,-468.81 1455.22,-463.09"/>
</g>
<!-- Node34&#45;&gt;Node35 -->
<g id="edge58" class="edge">
<title>Node34&#45;&gt;Node35</title>
<path fill="none" stroke="#63b8ff" d="M1509.98,-395.79C1509.33,-388.45 1509.11,-379.91 1509.33,-371.78"/>
<polygon fill="#63b8ff" stroke="#63b8ff" points="1512.82,-372.02 1509.88,-361.85 1505.84,-371.64 1512.82,-372.02"/>
</g>
<!-- Node35&#45;&gt;Node3 -->
<g id="edge59" class="edge">
<title>Node35&#45;&gt;Node3</title>
<path fill="none" stroke="#63b8ff" d="M1456,-321.83C1451.29,-320.78 1446.58,-319.82 1442,-319 1300.84,-293.67 1132.27,-281.93 1045.31,-277.21"/>
<polygon fill="#63b8ff" stroke="#63b8ff" points="1045.53,-273.72 1035.36,-276.68 1045.16,-280.71 1045.53,-273.72"/>
</g>
<!-- Node35&#45;&gt;Node8 -->
<g id="edge60" class="edge">
<title>Node35&#45;&gt;Node8</title>
<path fill="none" stroke="#63b8ff" d="M1521.07,-318.63C1529.79,-284.44 1547.7,-214.24 1558.08,-173.55"/>
<polygon fill="#63b8ff" stroke="#63b8ff" points="1561.46,-174.45 1560.54,-163.89 1554.68,-172.72 1561.46,-174.45"/>
</g>
<!-- Node35&#45;&gt;Node34 -->
<g id="edge61" class="edge">
<title>Node35&#45;&gt;Node34</title>
<path fill="none" stroke="#63b8ff" d="M1522.03,-360.33C1522.68,-367.7 1522.89,-376.24 1522.66,-384.36"/>
<polygon fill="#63b8ff" stroke="#63b8ff" points="1519.17,-384.1 1522.11,-394.28 1526.16,-384.49 1519.17,-384.1"/>
</g>
</g>
</svg>
