<?xml version="1.0" encoding="UTF-8" standalone="no"?>
<!DOCTYPE svg PUBLIC "-//W3C//DTD SVG 1.1//EN"
 "http://www.w3.org/Graphics/SVG/1.1/DTD/svg11.dtd">
<!-- Generated by graphviz version 7.0.2 (20221119.0110)
 -->
<!-- Title: C:/Users/juanh/OneDrive/Escritorio/Sistemas Embebidos/Proyecto final/LAL Control MbedOS/include/observer_pattern/observers/System_observer.h Pages: 1 -->
<svg width="1700pt" height="511pt"
 viewBox="0.00 0.00 1700.00 511.00" xmlns="http://www.w3.org/2000/svg" xmlns:xlink="http://www.w3.org/1999/xlink">
<g id="graph0" class="graph" transform="scale(1 1) rotate(0) translate(4 507)">
<title>C:/Users/juanh/OneDrive/Escritorio/Sistemas Embebidos/Proyecto final/LAL Control MbedOS/include/observer_pattern/observers/System_observer.h</title>
<!-- Node1 -->
<g id="node1" class="node">
<title>Node1</title>
<g id="a_node1"><a xlink:title="Clase observador del sistema de control.">
<polygon fill="#999999" stroke="#666666" points="1107,-503 941,-503 941,-440 1107,-440 1107,-503"/>
<text text-anchor="start" x="949" y="-491" font-family="Helvetica,sans-Serif" font-size="10.00">C:/Users/juanh/OneDrive</text>
<text text-anchor="start" x="949" y="-480" font-family="Helvetica,sans-Serif" font-size="10.00">/Escritorio/Sistemas Embebidos</text>
<text text-anchor="start" x="949" y="-469" font-family="Helvetica,sans-Serif" font-size="10.00">/Proyecto final/LAL Control</text>
<text text-anchor="start" x="949" y="-458" font-family="Helvetica,sans-Serif" font-size="10.00"> MbedOS/include/observer_pattern</text>
<text text-anchor="middle" x="1024" y="-447" font-family="Helvetica,sans-Serif" font-size="10.00">/observers/System_observer.h</text>
</a>
</g>
</g>
<!-- Node2 -->
<g id="node2" class="node">
<title>Node2</title>
<g id="a_node2"><a xlink:href="_observer_8h.html" target="_top" xlink:title="Clase observador.">
<polygon fill="white" stroke="#666666" points="132,-343.5 0,-343.5 0,-313.5 132,-313.5 132,-343.5"/>
<text text-anchor="start" x="8" y="-331.5" font-family="Helvetica,sans-Serif" font-size="10.00">observer_pattern/observers</text>
<text text-anchor="middle" x="66" y="-320.5" font-family="Helvetica,sans-Serif" font-size="10.00">/Observer.h</text>
</a>
</g>
</g>
<!-- Node1&#45;&gt;Node2 -->
<g id="edge1" class="edge">
<title>Node1&#45;&gt;Node2</title>
<path fill="none" stroke="#63b8ff" d="M940.68,-462.34C783.41,-446.21 432.44,-406.73 141,-349 137.19,-348.25 133.28,-347.41 129.35,-346.53"/>
<polygon fill="#63b8ff" stroke="#63b8ff" points="130.28,-343.15 119.74,-344.27 128.68,-349.97 130.28,-343.15"/>
</g>
<!-- Node5 -->
<g id="node5" class="node">
<title>Node5</title>
<g id="a_node5"><a xlink:href="_control__system_8h_source.html" target="_top" xlink:title=" ">
<polygon fill="white" stroke="#666666" points="1070.5,-404 977.5,-404 977.5,-385 1070.5,-385 1070.5,-404"/>
<text text-anchor="middle" x="1024" y="-392" font-family="Helvetica,sans-Serif" font-size="10.00">Control_system.h</text>
</a>
</g>
</g>
<!-- Node1&#45;&gt;Node5 -->
<g id="edge4" class="edge">
<title>Node1&#45;&gt;Node5</title>
<path fill="none" stroke="#63b8ff" d="M1017.34,-439.56C1017.11,-431.49 1017.31,-423.01 1017.94,-415.66"/>
<polygon fill="#63b8ff" stroke="#63b8ff" points="1021.4,-416.2 1019.26,-405.82 1014.46,-415.27 1021.4,-416.2"/>
</g>
<!-- Node3 -->
<g id="node3" class="node">
<title>Node3</title>
<g id="a_node3"><a xlink:href="_subject__interface_8h.html" target="_top" xlink:title="Clase para interfaz para implementar el sujeto.">
<polygon fill="white" stroke="#666666" points="128,-266.5 0,-266.5 0,-236.5 128,-236.5 128,-266.5"/>
<text text-anchor="start" x="8" y="-254.5" font-family="Helvetica,sans-Serif" font-size="10.00">observer_pattern/subjects</text>
<text text-anchor="middle" x="64" y="-243.5" font-family="Helvetica,sans-Serif" font-size="10.00">/Subject_interface.h</text>
</a>
</g>
</g>
<!-- Node2&#45;&gt;Node3 -->
<g id="edge2" class="edge">
<title>Node2&#45;&gt;Node3</title>
<path fill="none" stroke="#63b8ff" d="M65.61,-313.04C65.35,-303.18 65,-289.86 64.69,-278.22"/>
<polygon fill="#63b8ff" stroke="#63b8ff" points="68.19,-278.33 64.42,-268.43 61.19,-278.52 68.19,-278.33"/>
</g>
<!-- Node4 -->
<g id="node4" class="node">
<title>Node4</title>
<g id="a_node4"><a xlink:href="_observer__interface_8h.html" target="_top" xlink:title="Clase para interfaz para implementar el observador.">
<polygon fill="white" stroke="#666666" points="278,-266.5 146,-266.5 146,-236.5 278,-236.5 278,-266.5"/>
<text text-anchor="start" x="154" y="-254.5" font-family="Helvetica,sans-Serif" font-size="10.00">observer_pattern/observers</text>
<text text-anchor="middle" x="212" y="-243.5" font-family="Helvetica,sans-Serif" font-size="10.00">/Observer_interface.h</text>
</a>
</g>
</g>
<!-- Node2&#45;&gt;Node4 -->
<g id="edge3" class="edge">
<title>Node2&#45;&gt;Node4</title>
<path fill="none" stroke="#63b8ff" d="M94.15,-313.04C116.77,-301.42 148.78,-284.98 173.72,-272.16"/>
<polygon fill="#63b8ff" stroke="#63b8ff" points="175.29,-275.29 182.59,-267.61 172.1,-269.06 175.29,-275.29"/>
</g>
<!-- Node5&#45;&gt;Node1 -->
<g id="edge24" class="edge">
<title>Node5&#45;&gt;Node1</title>
<path fill="none" stroke="#63b8ff" d="M1028.54,-404.32C1029.79,-410.43 1030.51,-419.07 1030.7,-428.09"/>
<polygon fill="#63b8ff" stroke="#63b8ff" points="1027.2,-428.04 1030.66,-438.05 1034.2,-428.06 1027.2,-428.04"/>
</g>
<!-- Node6 -->
<g id="node6" class="node">
<title>Node6</title>
<g id="a_node6"><a xlink:href="_subject_8h.html" target="_top" xlink:title=" ">
<polygon fill="white" stroke="#666666" points="278,-343.5 150,-343.5 150,-313.5 278,-313.5 278,-343.5"/>
<text text-anchor="start" x="158" y="-331.5" font-family="Helvetica,sans-Serif" font-size="10.00">observer_pattern/subjects</text>
<text text-anchor="middle" x="214" y="-320.5" font-family="Helvetica,sans-Serif" font-size="10.00">/Subject.h</text>
</a>
</g>
</g>
<!-- Node5&#45;&gt;Node6 -->
<g id="edge5" class="edge">
<title>Node5&#45;&gt;Node6</title>
<path fill="none" stroke="#63b8ff" d="M977.37,-393.69C860.86,-393.5 547.99,-388.98 291,-349 286.32,-348.27 281.52,-347.39 276.7,-346.41"/>
<polygon fill="#63b8ff" stroke="#63b8ff" points="277.5,-343 266.98,-344.28 276,-349.84 277.5,-343"/>
</g>
<!-- Node7 -->
<g id="node7" class="node">
<title>Node7</title>
<g id="a_node7"><a xlink:href="_machine_8h.html" target="_top" xlink:title="Clase de máquina abstracta.">
<polygon fill="white" stroke="#666666" points="1692,-189.5 1576,-189.5 1576,-159.5 1692,-159.5 1692,-189.5"/>
<text text-anchor="start" x="1584" y="-177.5" font-family="Helvetica,sans-Serif" font-size="10.00">machine_state_pattern</text>
<text text-anchor="middle" x="1634" y="-166.5" font-family="Helvetica,sans-Serif" font-size="10.00">/Machine.h</text>
</a>
</g>
</g>
<!-- Node5&#45;&gt;Node7 -->
<g id="edge8" class="edge">
<title>Node5&#45;&gt;Node7</title>
<path fill="none" stroke="#63b8ff" d="M1070.83,-393.5C1174.15,-392.79 1418.16,-387.01 1490,-349 1554.2,-315.03 1600.99,-239.15 1621.87,-199.97"/>
<polygon fill="#63b8ff" stroke="#63b8ff" points="1624.87,-201.78 1626.37,-191.3 1618.66,-198.56 1624.87,-201.78"/>
</g>
<!-- Node9 -->
<g id="node9" class="node">
<title>Node9</title>
<g id="a_node9"><a xlink:href="_display_8h.html" target="_top" xlink:title="Controlador de LCD hd44780 por interfaz I2C.">
<polygon fill="white" stroke="#666666" points="388,-338 300,-338 300,-319 388,-319 388,-338"/>
<text text-anchor="middle" x="344" y="-326" font-family="Helvetica,sans-Serif" font-size="10.00">drivers/Display.h</text>
</a>
</g>
</g>
<!-- Node5&#45;&gt;Node9 -->
<g id="edge10" class="edge">
<title>Node5&#45;&gt;Node9</title>
<path fill="none" stroke="#63b8ff" d="M977.39,-391.89C851.7,-387.29 507.83,-372.82 397,-349 389.7,-347.43 382.06,-345.07 374.92,-342.53"/>
<polygon fill="#63b8ff" stroke="#63b8ff" points="376.25,-339.29 365.65,-339.01 373.76,-345.83 376.25,-339.29"/>
</g>
<!-- Node19 -->
<g id="node19" class="node">
<title>Node19</title>
<g id="a_node19"><a xlink:href="user__messages_8h.html" target="_top" xlink:title="Archivo para la configuración de interfaz con el usuario.">
<polygon fill="white" stroke="#666666" points="500,-338 406,-338 406,-319 500,-319 500,-338"/>
<text text-anchor="middle" x="453" y="-326" font-family="Helvetica,sans-Serif" font-size="10.00">user_messages.h</text>
</a>
</g>
</g>
<!-- Node5&#45;&gt;Node19 -->
<g id="edge23" class="edge">
<title>Node5&#45;&gt;Node19</title>
<path fill="none" stroke="#63b8ff" d="M977.26,-393.33C886.15,-392.15 678.81,-385.31 509,-349 501.22,-347.34 493.04,-344.9 485.4,-342.31"/>
<polygon fill="#63b8ff" stroke="#63b8ff" points="486.73,-339.07 476.14,-338.99 484.37,-345.66 486.73,-339.07"/>
</g>
<!-- Node20 -->
<g id="node20" class="node">
<title>Node20</title>
<g id="a_node20"><a xlink:href="_temperature__sensor_8h.html" target="_top" xlink:title="Controlador para sensor de temperatura DS18B20.">
<polygon fill="white" stroke="#666666" points="922.5,-343.5 821.5,-343.5 821.5,-313.5 922.5,-313.5 922.5,-343.5"/>
<text text-anchor="start" x="829.5" y="-331.5" font-family="Helvetica,sans-Serif" font-size="10.00">drivers/Temperature</text>
<text text-anchor="middle" x="872" y="-320.5" font-family="Helvetica,sans-Serif" font-size="10.00">_sensor.h</text>
</a>
</g>
</g>
<!-- Node5&#45;&gt;Node20 -->
<g id="edge25" class="edge">
<title>Node5&#45;&gt;Node20</title>
<path fill="none" stroke="#63b8ff" d="M1002.87,-384.6C980.73,-375.28 945.3,-360.36 916.89,-348.4"/>
<polygon fill="#63b8ff" stroke="#63b8ff" points="918.35,-345.22 907.78,-344.56 915.64,-351.67 918.35,-345.22"/>
</g>
<!-- Node23 -->
<g id="node23" class="node">
<title>Node23</title>
<g id="a_node23"><a xlink:href="_moisture__sensor_8h.html" target="_top" xlink:title="Controlador de sensor de humedad analógico.">
<polygon fill="white" stroke="#666666" points="1249,-184 1121,-184 1121,-165 1249,-165 1249,-184"/>
<text text-anchor="middle" x="1185" y="-172" font-family="Helvetica,sans-Serif" font-size="10.00">drivers/Moisture_sensor.h</text>
</a>
</g>
</g>
<!-- Node5&#45;&gt;Node23 -->
<g id="edge28" class="edge">
<title>Node5&#45;&gt;Node23</title>
<path fill="none" stroke="#63b8ff" d="M1070.62,-387.94C1116.42,-381.4 1181.61,-368.85 1197,-349 1232.4,-303.34 1208.17,-228.99 1193.68,-194.36"/>
<polygon fill="#63b8ff" stroke="#63b8ff" points="1197.07,-193.38 1189.85,-185.62 1190.66,-196.19 1197.07,-193.38"/>
</g>
<!-- Node24 -->
<g id="node24" class="node">
<title>Node24</title>
<g id="a_node24"><a xlink:href="types_8h.html" target="_top" xlink:title="Archivo de definición de tipos de dato.">
<polygon fill="white" stroke="#666666" points="1064.5,-261 1015.5,-261 1015.5,-242 1064.5,-242 1064.5,-261"/>
<text text-anchor="middle" x="1040" y="-249" font-family="Helvetica,sans-Serif" font-size="10.00">types.h</text>
</a>
</g>
</g>
<!-- Node5&#45;&gt;Node24 -->
<g id="edge30" class="edge">
<title>Node5&#45;&gt;Node24</title>
<path fill="none" stroke="#63b8ff" d="M1029.05,-384.65C1033.73,-375.91 1040.34,-362 1043,-349 1048.32,-323 1045.91,-292.25 1043.3,-272.57"/>
<polygon fill="#63b8ff" stroke="#63b8ff" points="1046.79,-272.27 1041.86,-262.89 1039.87,-273.3 1046.79,-272.27"/>
</g>
<!-- Node25 -->
<g id="node25" class="node">
<title>Node25</title>
<g id="a_node25"><a xlink:href="_buzzer_8h.html" target="_top" xlink:title="Controlador de Buzzer de 12 milimetros sin oscilador.">
<polygon fill="white" stroke="#666666" points="604,-338 518,-338 518,-319 604,-319 604,-338"/>
<text text-anchor="middle" x="561" y="-326" font-family="Helvetica,sans-Serif" font-size="10.00">drivers/Buzzer.h</text>
</a>
</g>
</g>
<!-- Node5&#45;&gt;Node25 -->
<g id="edge31" class="edge">
<title>Node5&#45;&gt;Node25</title>
<path fill="none" stroke="#63b8ff" d="M977.13,-392.24C900.14,-389.32 742.53,-379.78 613,-349 605.98,-347.33 598.63,-344.97 591.73,-342.47"/>
<polygon fill="#63b8ff" stroke="#63b8ff" points="593.38,-339.36 582.79,-339.04 590.87,-345.89 593.38,-339.36"/>
</g>
<!-- Node27 -->
<g id="node27" class="node">
<title>Node27</title>
<g id="a_node27"><a xlink:href="_motor_8h.html" target="_top" xlink:title="Controlador de motor de 220 VAC.">
<polygon fill="white" stroke="#666666" points="702,-338 622,-338 622,-319 702,-319 702,-338"/>
<text text-anchor="middle" x="662" y="-326" font-family="Helvetica,sans-Serif" font-size="10.00">drivers/Motor.h</text>
</a>
</g>
</g>
<!-- Node5&#45;&gt;Node27 -->
<g id="edge34" class="edge">
<title>Node5&#45;&gt;Node27</title>
<path fill="none" stroke="#63b8ff" d="M977.08,-390.19C915.45,-385.08 804.22,-373.21 712,-349 705.42,-347.27 698.52,-344.94 692.03,-342.5"/>
<polygon fill="#63b8ff" stroke="#63b8ff" points="693.59,-339.35 683.01,-338.91 691.01,-345.86 693.59,-339.35"/>
</g>
<!-- Node28 -->
<g id="node28" class="node">
<title>Node28</title>
<g id="a_node28"><a xlink:href="_dual___l_e_d_8h.html" target="_top" xlink:title="Controlador de LED RG con PWM.">
<polygon fill="white" stroke="#666666" points="1033.5,-338 940.5,-338 940.5,-319 1033.5,-319 1033.5,-338"/>
<text text-anchor="middle" x="987" y="-326" font-family="Helvetica,sans-Serif" font-size="10.00">drivers/Dual_led.h</text>
</a>
</g>
</g>
<!-- Node5&#45;&gt;Node28 -->
<g id="edge37" class="edge">
<title>Node5&#45;&gt;Node28</title>
<path fill="none" stroke="#63b8ff" d="M1018.86,-384.6C1013.44,-375.24 1004.77,-360.23 997.83,-348.24"/>
<polygon fill="#63b8ff" stroke="#63b8ff" points="1000.89,-346.54 992.86,-339.63 994.83,-350.04 1000.89,-346.54"/>
</g>
<!-- Node29 -->
<g id="node29" class="node">
<title>Node29</title>
<g id="a_node29"><a xlink:href="_digital__dual___l_e_d_8h_source.html" target="_top" xlink:title=" ">
<polygon fill="white" stroke="#666666" points="1188,-343.5 1090,-343.5 1090,-313.5 1188,-313.5 1188,-343.5"/>
<text text-anchor="start" x="1098" y="-331.5" font-family="Helvetica,sans-Serif" font-size="10.00">drivers/Digital_dual</text>
<text text-anchor="middle" x="1139" y="-320.5" font-family="Helvetica,sans-Serif" font-size="10.00">_led.h</text>
</a>
</g>
</g>
<!-- Node5&#45;&gt;Node29 -->
<g id="edge41" class="edge">
<title>Node5&#45;&gt;Node29</title>
<path fill="none" stroke="#63b8ff" d="M1039.99,-384.6C1056.22,-375.57 1081.9,-361.28 1103.03,-349.52"/>
<polygon fill="#63b8ff" stroke="#63b8ff" points="1104.63,-352.63 1111.66,-344.71 1101.22,-346.52 1104.63,-352.63"/>
</g>
<!-- Node30 -->
<g id="node30" class="node">
<title>Node30</title>
<g id="a_node30"><a xlink:href="_cooler_8h.html" target="_top" xlink:title="Controlador de ventilador de 12 volts y 5 milímteros.">
<polygon fill="white" stroke="#666666" points="803.5,-338 720.5,-338 720.5,-319 803.5,-319 803.5,-338"/>
<text text-anchor="middle" x="762" y="-326" font-family="Helvetica,sans-Serif" font-size="10.00">drivers/Cooler.h</text>
</a>
</g>
</g>
<!-- Node5&#45;&gt;Node30 -->
<g id="edge44" class="edge">
<title>Node5&#45;&gt;Node30</title>
<path fill="none" stroke="#63b8ff" d="M977.38,-385.84C934.27,-378.25 868.66,-365.4 813,-349 806.59,-347.11 799.85,-344.79 793.44,-342.41"/>
<polygon fill="#63b8ff" stroke="#63b8ff" points="795.09,-339.29 784.5,-338.96 792.57,-345.82 795.09,-339.29"/>
</g>
<!-- Node31 -->
<g id="node31" class="node">
<title>Node31</title>
<g id="a_node31"><a xlink:href="_shutdown__state_8h.html" target="_top" xlink:title="Clase de estado de apagado del sistema.">
<polygon fill="white" stroke="#666666" points="1378,-349 1244,-349 1244,-308 1378,-308 1378,-349"/>
<text text-anchor="start" x="1252" y="-337" font-family="Helvetica,sans-Serif" font-size="10.00">machine_state_pattern</text>
<text text-anchor="start" x="1252" y="-326" font-family="Helvetica,sans-Serif" font-size="10.00">/machine_states/Shutdown</text>
<text text-anchor="middle" x="1311" y="-315" font-family="Helvetica,sans-Serif" font-size="10.00">_state.h</text>
</a>
</g>
</g>
<!-- Node5&#45;&gt;Node31 -->
<g id="edge47" class="edge">
<title>Node5&#45;&gt;Node31</title>
<path fill="none" stroke="#63b8ff" d="M1060.17,-384.5C1099.79,-375.72 1164.82,-361.83 1221,-349 1224.78,-348.14 1228.66,-347.24 1232.58,-346.33"/>
<polygon fill="#63b8ff" stroke="#63b8ff" points="1233.3,-349.75 1242.24,-344.07 1231.7,-342.94 1233.3,-349.75"/>
</g>
<!-- Node6&#45;&gt;Node3 -->
<g id="edge6" class="edge">
<title>Node6&#45;&gt;Node3</title>
<path fill="none" stroke="#63b8ff" d="M185.08,-313.04C161.73,-301.37 128.66,-284.83 102.98,-271.99"/>
<polygon fill="#63b8ff" stroke="#63b8ff" points="104.7,-268.93 94.19,-267.59 101.57,-275.2 104.7,-268.93"/>
</g>
<!-- Node6&#45;&gt;Node4 -->
<g id="edge7" class="edge">
<title>Node6&#45;&gt;Node4</title>
<path fill="none" stroke="#63b8ff" d="M213.61,-313.04C213.35,-303.18 213,-289.86 212.69,-278.22"/>
<polygon fill="#63b8ff" stroke="#63b8ff" points="216.19,-278.33 212.42,-268.43 209.19,-278.52 216.19,-278.33"/>
</g>
<!-- Node8 -->
<g id="node8" class="node">
<title>Node8</title>
<g id="a_node8"><a xlink:href="_abstract__state_8h.html" target="_top" xlink:title="Clase de estado abstracta.">
<polygon fill="white" stroke="#666666" points="1474,-41 1346,-41 1346,0 1474,0 1474,-41"/>
<text text-anchor="start" x="1354" y="-29" font-family="Helvetica,sans-Serif" font-size="10.00">machine_state_pattern</text>
<text text-anchor="start" x="1354" y="-18" font-family="Helvetica,sans-Serif" font-size="10.00">/machine_states/Abstract</text>
<text text-anchor="middle" x="1410" y="-7" font-family="Helvetica,sans-Serif" font-size="10.00">_state.h</text>
</a>
</g>
</g>
<!-- Node7&#45;&gt;Node8 -->
<g id="edge9" class="edge">
<title>Node7&#45;&gt;Node8</title>
<path fill="none" stroke="#63b8ff" d="M1614.6,-159.04C1588.61,-139.82 1540.92,-105.01 1499,-77 1483.97,-66.96 1467.22,-56.36 1452.34,-47.15"/>
<polygon fill="#63b8ff" stroke="#63b8ff" points="1454.5,-44.37 1444.15,-42.1 1450.83,-50.33 1454.5,-44.37"/>
</g>
<!-- Node10 -->
<g id="node10" class="node">
<title>Node10</title>
<g id="a_node10"><a xlink:href="display__settings_8h.html" target="_top" xlink:title="Archivo de configuración de la pantalla.">
<polygon fill="white" stroke="#666666" points="561.5,-184 466.5,-184 466.5,-165 561.5,-165 561.5,-184"/>
<text text-anchor="middle" x="514" y="-172" font-family="Helvetica,sans-Serif" font-size="10.00">display_settings.h</text>
</a>
</g>
</g>
<!-- Node9&#45;&gt;Node10 -->
<g id="edge11" class="edge">
<title>Node9&#45;&gt;Node10</title>
<path fill="none" stroke="#63b8ff" d="M361.83,-318.55C380.64,-308.64 410.59,-291.46 433,-272 460.69,-247.95 486.86,-214.01 501.62,-193.45"/>
<polygon fill="#63b8ff" stroke="#63b8ff" points="504.3,-195.71 507.2,-185.52 498.58,-191.68 504.3,-195.71"/>
</g>
<!-- Node11 -->
<g id="node11" class="node">
<title>Node11</title>
<g id="a_node11"><a xlink:href="hd44780___i2_cexp_8h.html" target="_top" xlink:title="Adaptación de la biblioteca TextLCD de MbedOS 5. Permite utilizar un LCD hd44780 con un expansor de p...">
<polygon fill="white" stroke="#666666" points="424,-261 296,-261 296,-242 424,-242 424,-261"/>
<text text-anchor="middle" x="360" y="-249" font-family="Helvetica,sans-Serif" font-size="10.00">drivers/hd44780_I2Cexp.h</text>
</a>
</g>
</g>
<!-- Node9&#45;&gt;Node11 -->
<g id="edge12" class="edge">
<title>Node9&#45;&gt;Node11</title>
<path fill="none" stroke="#63b8ff" d="M345.9,-318.6C348.3,-307.33 352.52,-287.55 355.72,-272.56"/>
<polygon fill="#63b8ff" stroke="#63b8ff" points="359.12,-273.38 357.79,-262.87 352.28,-271.92 359.12,-273.38"/>
</g>
<!-- Node11&#45;&gt;Node10 -->
<g id="edge22" class="edge">
<title>Node11&#45;&gt;Node10</title>
<path fill="none" stroke="#63b8ff" d="M378.27,-241.6C404.78,-228.69 454.17,-204.64 485.49,-189.38"/>
<polygon fill="#63b8ff" stroke="#63b8ff" points="486.93,-192.57 494.39,-185.05 483.87,-186.28 486.93,-192.57"/>
</g>
<!-- Node12 -->
<g id="node12" class="node">
<title>Node12</title>
<g id="a_node12"><a xlink:title=" ">
<polygon fill="#e0e0e0" stroke="#999999" points="761.5,-107 712.5,-107 712.5,-88 761.5,-88 761.5,-107"/>
<text text-anchor="middle" x="737" y="-95" font-family="Helvetica,sans-Serif" font-size="10.00">mbed.h</text>
</a>
</g>
</g>
<!-- Node11&#45;&gt;Node12 -->
<g id="edge13" class="edge">
<title>Node11&#45;&gt;Node12</title>
<path fill="none" stroke="#63b8ff" d="M369.76,-241.63C381.59,-230.8 402.05,-211.86 419,-195 436.83,-177.27 435.97,-166.13 458,-154 536.99,-110.5 645.25,-100.82 700.83,-98.84"/>
<polygon fill="#63b8ff" stroke="#63b8ff" points="700.77,-102.35 710.67,-98.56 700.57,-95.35 700.77,-102.35"/>
</g>
<!-- Node13 -->
<g id="node13" class="node">
<title>Node13</title>
<g id="a_node13"><a xlink:title=" ">
<polygon fill="#e0e0e0" stroke="#999999" points="224,-107 176,-107 176,-88 224,-88 224,-107"/>
<text text-anchor="middle" x="200" y="-95" font-family="Helvetica,sans-Serif" font-size="10.00">stdlib.h</text>
</a>
</g>
</g>
<!-- Node11&#45;&gt;Node13 -->
<g id="edge14" class="edge">
<title>Node11&#45;&gt;Node13</title>
<path fill="none" stroke="#63b8ff" d="M319.93,-241.53C292.68,-233.53 257.59,-219.23 235,-195 215.08,-173.64 206.32,-140.07 202.6,-118.68"/>
<polygon fill="#63b8ff" stroke="#63b8ff" points="206.08,-118.29 201.13,-108.92 199.15,-119.33 206.08,-118.29"/>
</g>
<!-- Node14 -->
<g id="node14" class="node">
<title>Node14</title>
<g id="a_node14"><a xlink:href="hd44780__instruction__set_8h.html" target="_top" xlink:title="Set de instrucciones del LCD HD44780.">
<polygon fill="white" stroke="#666666" points="410,-189.5 306,-189.5 306,-159.5 410,-159.5 410,-189.5"/>
<text text-anchor="start" x="314" y="-177.5" font-family="Helvetica,sans-Serif" font-size="10.00">hd44780_instruction</text>
<text text-anchor="middle" x="358" y="-166.5" font-family="Helvetica,sans-Serif" font-size="10.00">_set.h</text>
</a>
</g>
</g>
<!-- Node11&#45;&gt;Node14 -->
<g id="edge15" class="edge">
<title>Node11&#45;&gt;Node14</title>
<path fill="none" stroke="#63b8ff" d="M359.76,-241.6C359.5,-231.7 359.06,-215.24 358.69,-201.23"/>
<polygon fill="#63b8ff" stroke="#63b8ff" points="362.19,-201.18 358.42,-191.28 355.19,-201.37 362.19,-201.18"/>
</g>
<!-- Node15 -->
<g id="node15" class="node">
<title>Node15</title>
<g id="a_node15"><a xlink:href="utils_8h_source.html" target="_top" xlink:title=" ">
<polygon fill="white" stroke="#666666" points="287.5,-184 244.5,-184 244.5,-165 287.5,-165 287.5,-184"/>
<text text-anchor="middle" x="266" y="-172" font-family="Helvetica,sans-Serif" font-size="10.00">utils.h</text>
</a>
</g>
</g>
<!-- Node11&#45;&gt;Node15 -->
<g id="edge17" class="edge">
<title>Node11&#45;&gt;Node15</title>
<path fill="none" stroke="#63b8ff" d="M348.85,-241.6C333.37,-229.25 305.13,-206.72 285.97,-191.43"/>
<polygon fill="#63b8ff" stroke="#63b8ff" points="288.32,-188.83 278.32,-185.33 283.95,-194.3 288.32,-188.83"/>
</g>
<!-- Node14&#45;&gt;Node12 -->
<g id="edge16" class="edge">
<title>Node14&#45;&gt;Node12</title>
<path fill="none" stroke="#63b8ff" d="M404.7,-159C411.15,-157.2 417.72,-155.48 424,-154 523.25,-130.62 642.29,-112.07 700.84,-103.57"/>
<polygon fill="#63b8ff" stroke="#63b8ff" points="701.16,-107.06 710.56,-102.17 700.16,-100.13 701.16,-107.06"/>
</g>
<!-- Node15&#45;&gt;Node13 -->
<g id="edge20" class="edge">
<title>Node15&#45;&gt;Node13</title>
<path fill="none" stroke="#63b8ff" d="M258.17,-164.6C247.65,-152.65 228.73,-131.15 215.33,-115.92"/>
<polygon fill="#63b8ff" stroke="#63b8ff" points="218.05,-113.72 208.82,-108.52 212.8,-118.34 218.05,-113.72"/>
</g>
<!-- Node16 -->
<g id="node16" class="node">
<title>Node16</title>
<g id="a_node16"><a xlink:title=" ">
<polygon fill="#e0e0e0" stroke="#999999" points="289.5,-107 242.5,-107 242.5,-88 289.5,-88 289.5,-107"/>
<text text-anchor="middle" x="266" y="-95" font-family="Helvetica,sans-Serif" font-size="10.00">math.h</text>
</a>
</g>
</g>
<!-- Node15&#45;&gt;Node16 -->
<g id="edge18" class="edge">
<title>Node15&#45;&gt;Node16</title>
<path fill="none" stroke="#63b8ff" d="M266,-164.6C266,-153.33 266,-133.55 266,-118.56"/>
<polygon fill="#63b8ff" stroke="#63b8ff" points="269.5,-118.9 266,-108.9 262.5,-118.9 269.5,-118.9"/>
</g>
<!-- Node17 -->
<g id="node17" class="node">
<title>Node17</title>
<g id="a_node17"><a xlink:title=" ">
<polygon fill="#e0e0e0" stroke="#999999" points="354,-107 308,-107 308,-88 354,-88 354,-107"/>
<text text-anchor="middle" x="331" y="-95" font-family="Helvetica,sans-Serif" font-size="10.00">stdio.h</text>
</a>
</g>
</g>
<!-- Node15&#45;&gt;Node17 -->
<g id="edge19" class="edge">
<title>Node15&#45;&gt;Node17</title>
<path fill="none" stroke="#63b8ff" d="M273.71,-164.6C284.07,-152.65 302.7,-131.15 315.9,-115.92"/>
<polygon fill="#63b8ff" stroke="#63b8ff" points="318.4,-118.38 322.31,-108.53 313.11,-113.79 318.4,-118.38"/>
</g>
<!-- Node18 -->
<g id="node18" class="node">
<title>Node18</title>
<g id="a_node18"><a xlink:title=" ">
<polygon fill="#e0e0e0" stroke="#999999" points="421.5,-107 372.5,-107 372.5,-88 421.5,-88 421.5,-107"/>
<text text-anchor="middle" x="397" y="-95" font-family="Helvetica,sans-Serif" font-size="10.00">string.h</text>
</a>
</g>
</g>
<!-- Node15&#45;&gt;Node18 -->
<g id="edge21" class="edge">
<title>Node15&#45;&gt;Node18</title>
<path fill="none" stroke="#63b8ff" d="M279.78,-164.58C285.11,-161.19 291.3,-157.35 297,-154 325.82,-137.1 333.84,-134.31 363,-118 365.9,-116.38 368.92,-114.67 371.92,-112.96"/>
<polygon fill="#63b8ff" stroke="#63b8ff" points="373.55,-116.06 380.49,-108.06 370.08,-109.99 373.55,-116.06"/>
</g>
<!-- Node21 -->
<g id="node21" class="node">
<title>Node21</title>
<g id="a_node21"><a xlink:href="system__settings_8h.html" target="_top" xlink:title="Archivo para la definición de constantes del sistema.">
<polygon fill="white" stroke="#666666" points="958.5,-261 861.5,-261 861.5,-242 958.5,-242 958.5,-261"/>
<text text-anchor="middle" x="910" y="-249" font-family="Helvetica,sans-Serif" font-size="10.00">system_settings.h</text>
</a>
</g>
</g>
<!-- Node20&#45;&gt;Node21 -->
<g id="edge26" class="edge">
<title>Node20&#45;&gt;Node21</title>
<path fill="none" stroke="#63b8ff" d="M879.33,-313.04C885.33,-301.19 893.88,-284.32 900.42,-271.4"/>
<polygon fill="#63b8ff" stroke="#63b8ff" points="903.47,-273.14 904.86,-262.64 897.22,-269.98 903.47,-273.14"/>
</g>
<!-- Node22 -->
<g id="node22" class="node">
<title>Node22</title>
<g id="a_node22"><a xlink:title=" ">
<polygon fill="#e0e0e0" stroke="#999999" points="843.5,-261 784.5,-261 784.5,-242 843.5,-242 843.5,-261"/>
<text text-anchor="middle" x="814" y="-249" font-family="Helvetica,sans-Serif" font-size="10.00">DS1820.h</text>
</a>
</g>
</g>
<!-- Node20&#45;&gt;Node22 -->
<g id="edge27" class="edge">
<title>Node20&#45;&gt;Node22</title>
<path fill="none" stroke="#63b8ff" d="M860.82,-313.04C851.37,-300.83 837.81,-283.3 827.72,-270.24"/>
<polygon fill="#63b8ff" stroke="#63b8ff" points="830.61,-268.25 821.72,-262.48 825.07,-272.54 830.61,-268.25"/>
</g>
<!-- Node23&#45;&gt;Node12 -->
<g id="edge29" class="edge">
<title>Node23&#45;&gt;Node12</title>
<path fill="none" stroke="#63b8ff" d="M1152.14,-164.54C1138.28,-160.95 1121.92,-156.98 1107,-154 985.32,-129.72 839.21,-110.77 772.88,-102.72"/>
<polygon fill="#63b8ff" stroke="#63b8ff" points="773.67,-99.29 763.33,-101.57 772.84,-106.24 773.67,-99.29"/>
</g>
<!-- Node25&#45;&gt;Node12 -->
<g id="edge32" class="edge">
<title>Node25&#45;&gt;Node12</title>
<path fill="none" stroke="#63b8ff" d="M564.29,-318.75C571.12,-301.19 587.95,-260.81 609,-231 642.01,-184.26 691.39,-138.14 718.15,-114.59"/>
<polygon fill="#63b8ff" stroke="#63b8ff" points="720.21,-117.44 725.46,-108.24 715.62,-112.16 720.21,-117.44"/>
</g>
<!-- Node26 -->
<g id="node26" class="node">
<title>Node26</title>
<g id="a_node26"><a xlink:href="port__config_8h.html" target="_top" xlink:title="Archivo de configuración para los puertos de la placa donde se implementará el sistema.">
<polygon fill="white" stroke="#666666" points="690,-261 618,-261 618,-242 690,-242 690,-261"/>
<text text-anchor="middle" x="654" y="-249" font-family="Helvetica,sans-Serif" font-size="10.00">port_config.h</text>
</a>
</g>
</g>
<!-- Node25&#45;&gt;Node26 -->
<g id="edge33" class="edge">
<title>Node25&#45;&gt;Node26</title>
<path fill="none" stroke="#63b8ff" d="M572.03,-318.6C587.35,-306.25 615.29,-283.72 634.25,-268.43"/>
<polygon fill="#63b8ff" stroke="#63b8ff" points="636.22,-271.34 641.8,-262.34 631.82,-265.89 636.22,-271.34"/>
</g>
<!-- Node27&#45;&gt;Node12 -->
<g id="edge35" class="edge">
<title>Node27&#45;&gt;Node12</title>
<path fill="none" stroke="#63b8ff" d="M669.41,-318.68C677.83,-308.21 691.39,-289.91 699,-272 721.46,-219.14 731.36,-151.34 735.08,-118.34"/>
<polygon fill="#63b8ff" stroke="#63b8ff" points="738.53,-118.96 736.09,-108.65 731.57,-118.23 738.53,-118.96"/>
</g>
<!-- Node27&#45;&gt;Node26 -->
<g id="edge36" class="edge">
<title>Node27&#45;&gt;Node26</title>
<path fill="none" stroke="#63b8ff" d="M661.05,-318.6C659.85,-307.33 657.74,-287.55 656.14,-272.56"/>
<polygon fill="#63b8ff" stroke="#63b8ff" points="659.65,-272.46 655.11,-262.89 652.69,-273.21 659.65,-272.46"/>
</g>
<!-- Node28&#45;&gt;Node12 -->
<g id="edge38" class="edge">
<title>Node28&#45;&gt;Node12</title>
<path fill="none" stroke="#63b8ff" d="M987.57,-318.56C988.28,-300.31 987.51,-258.2 968,-231 919.4,-163.24 824.62,-125.19 772.85,-108.62"/>
<polygon fill="#63b8ff" stroke="#63b8ff" points="773.92,-105.29 763.33,-105.67 771.85,-111.97 773.92,-105.29"/>
</g>
<!-- Node28&#45;&gt;Node21 -->
<g id="edge40" class="edge">
<title>Node28&#45;&gt;Node21</title>
<path fill="none" stroke="#63b8ff" d="M977.86,-318.6C965.36,-306.42 942.68,-284.33 927,-269.06"/>
<polygon fill="#63b8ff" stroke="#63b8ff" points="929.81,-266.91 920.21,-262.44 924.93,-271.93 929.81,-266.91"/>
</g>
<!-- Node28&#45;&gt;Node24 -->
<g id="edge39" class="edge">
<title>Node28&#45;&gt;Node24</title>
<path fill="none" stroke="#63b8ff" d="M993.29,-318.6C1001.58,-306.87 1016.36,-285.96 1027.08,-270.79"/>
<polygon fill="#63b8ff" stroke="#63b8ff" points="1029.93,-272.81 1032.85,-262.62 1024.22,-268.77 1029.93,-272.81"/>
</g>
<!-- Node29&#45;&gt;Node12 -->
<g id="edge42" class="edge">
<title>Node29&#45;&gt;Node12</title>
<path fill="none" stroke="#63b8ff" d="M1132.27,-313.04C1122.12,-292.54 1101.16,-254.86 1074,-231 983.33,-151.34 839.14,-116.65 772.68,-104.27"/>
<polygon fill="#63b8ff" stroke="#63b8ff" points="773.53,-100.87 763.07,-102.55 772.29,-107.76 773.53,-100.87"/>
</g>
<!-- Node29&#45;&gt;Node24 -->
<g id="edge43" class="edge">
<title>Node29&#45;&gt;Node24</title>
<path fill="none" stroke="#63b8ff" d="M1119.91,-313.04C1102.84,-300.11 1077.9,-281.21 1060.44,-267.98"/>
<polygon fill="#63b8ff" stroke="#63b8ff" points="1062.89,-265.45 1052.81,-262.2 1058.66,-271.03 1062.89,-265.45"/>
</g>
<!-- Node30&#45;&gt;Node12 -->
<g id="edge45" class="edge">
<title>Node30&#45;&gt;Node12</title>
<path fill="none" stroke="#63b8ff" d="M761.02,-318.52C757.35,-284.89 744.35,-165.86 739.16,-118.32"/>
<polygon fill="#63b8ff" stroke="#63b8ff" points="742.68,-118.23 738.11,-108.67 735.72,-118.99 742.68,-118.23"/>
</g>
<!-- Node30&#45;&gt;Node21 -->
<g id="edge46" class="edge">
<title>Node30&#45;&gt;Node21</title>
<path fill="none" stroke="#63b8ff" d="M779.56,-318.6C804.93,-305.75 852.08,-281.85 882.21,-266.58"/>
<polygon fill="#63b8ff" stroke="#63b8ff" points="883.78,-269.71 891.11,-262.07 880.61,-263.47 883.78,-269.71"/>
</g>
<!-- Node31&#45;&gt;Node5 -->
<g id="edge48" class="edge">
<title>Node31&#45;&gt;Node5</title>
<path fill="none" stroke="#63b8ff" d="M1243.7,-347.92C1242.12,-348.29 1240.55,-348.65 1239,-349 1186.12,-361.08 1125.4,-374.09 1081.91,-382.9"/>
<polygon fill="#63b8ff" stroke="#63b8ff" points="1081.28,-379.46 1072.16,-384.86 1082.66,-386.32 1081.28,-379.46"/>
</g>
<!-- Node31&#45;&gt;Node8 -->
<g id="edge49" class="edge">
<title>Node31&#45;&gt;Node8</title>
<path fill="none" stroke="#63b8ff" d="M1304.29,-307.72C1301.08,-297.24 1297.6,-284.07 1296,-272 1284.44,-184.94 1279.11,-149.96 1328,-77 1335.85,-65.28 1347.1,-55.37 1358.75,-47.32"/>
<polygon fill="#63b8ff" stroke="#63b8ff" points="1360.36,-50.44 1366.86,-42.08 1356.56,-44.57 1360.36,-50.44"/>
</g>
<!-- Node32 -->
<g id="node32" class="node">
<title>Node32</title>
<g id="a_node32"><a xlink:href="_idle__state_8h.html" target="_top" xlink:title="Clase de estado de reposo.">
<polygon fill="white" stroke="#666666" points="1421,-272 1305,-272 1305,-231 1421,-231 1421,-272"/>
<text text-anchor="start" x="1313" y="-260" font-family="Helvetica,sans-Serif" font-size="10.00">machine_state_pattern</text>
<text text-anchor="start" x="1313" y="-249" font-family="Helvetica,sans-Serif" font-size="10.00">/machine_states/Idle</text>
<text text-anchor="middle" x="1363" y="-238" font-family="Helvetica,sans-Serif" font-size="10.00">_state.h</text>
</a>
</g>
</g>
<!-- Node31&#45;&gt;Node32 -->
<g id="edge50" class="edge">
<title>Node31&#45;&gt;Node32</title>
<path fill="none" stroke="#63b8ff" d="M1324.66,-307.79C1330.23,-299.76 1336.78,-290.31 1342.88,-281.52"/>
<polygon fill="#63b8ff" stroke="#63b8ff" points="1345.56,-283.79 1348.39,-273.58 1339.81,-279.8 1345.56,-283.79"/>
</g>
<!-- Node32&#45;&gt;Node5 -->
<g id="edge51" class="edge">
<title>Node32&#45;&gt;Node5</title>
<path fill="none" stroke="#63b8ff" d="M1377.1,-272.33C1390.45,-293.75 1405.88,-327.67 1387,-349 1367.16,-371.42 1179.57,-384.96 1082.14,-390.53"/>
<polygon fill="#63b8ff" stroke="#63b8ff" points="1082.02,-387.03 1072.23,-391.09 1082.41,-394.02 1082.02,-387.03"/>
</g>
<!-- Node32&#45;&gt;Node8 -->
<g id="edge52" class="edge">
<title>Node32&#45;&gt;Node8</title>
<path fill="none" stroke="#63b8ff" d="M1354.17,-230.66C1340.67,-197.24 1318.87,-128.31 1343,-77 1348.16,-66.02 1356.68,-56.47 1365.94,-48.52"/>
<polygon fill="#63b8ff" stroke="#63b8ff" points="1368.09,-51.29 1373.78,-42.35 1363.76,-45.79 1368.09,-51.29"/>
</g>
<!-- Node33 -->
<g id="node33" class="node">
<title>Node33</title>
<g id="a_node33"><a xlink:href="_alarm__state_8h.html" target="_top" xlink:title="Clase de estado de control del motor.">
<polygon fill="white" stroke="#666666" points="1468.5,-118 1351.5,-118 1351.5,-77 1468.5,-77 1468.5,-118"/>
<text text-anchor="start" x="1359.5" y="-106" font-family="Helvetica,sans-Serif" font-size="10.00">machine_state_pattern</text>
<text text-anchor="start" x="1359.5" y="-95" font-family="Helvetica,sans-Serif" font-size="10.00">/machine_states/Alarm</text>
<text text-anchor="middle" x="1410" y="-84" font-family="Helvetica,sans-Serif" font-size="10.00">_state.h</text>
</a>
</g>
</g>
<!-- Node32&#45;&gt;Node33 -->
<g id="edge53" class="edge">
<title>Node32&#45;&gt;Node33</title>
<path fill="none" stroke="#63b8ff" d="M1364.41,-230.63C1370.04,-204.68 1383.9,-159.02 1395.12,-128.76"/>
<polygon fill="#63b8ff" stroke="#63b8ff" points="1398.25,-130.38 1398.58,-119.79 1391.72,-127.86 1398.25,-130.38"/>
</g>
<!-- Node34 -->
<g id="node34" class="node">
<title>Node34</title>
<g id="a_node34"><a xlink:href="_check__instruction__state_8h_source.html" target="_top" xlink:title=" ">
<polygon fill="white" stroke="#666666" points="1557.5,-195 1438.5,-195 1438.5,-154 1557.5,-154 1557.5,-195"/>
<text text-anchor="start" x="1446.5" y="-183" font-family="Helvetica,sans-Serif" font-size="10.00">machine_state_pattern</text>
<text text-anchor="start" x="1446.5" y="-172" font-family="Helvetica,sans-Serif" font-size="10.00">/machine_states/Check</text>
<text text-anchor="middle" x="1498" y="-161" font-family="Helvetica,sans-Serif" font-size="10.00">_instruction_state.h</text>
</a>
</g>
</g>
<!-- Node32&#45;&gt;Node34 -->
<g id="edge61" class="edge">
<title>Node32&#45;&gt;Node34</title>
<path fill="none" stroke="#63b8ff" d="M1398.82,-230.6C1415.15,-221.53 1434.67,-210.68 1452.06,-201.02"/>
<polygon fill="#63b8ff" stroke="#63b8ff" points="1453.64,-204.15 1460.69,-196.23 1450.25,-198.03 1453.64,-204.15"/>
</g>
<!-- Node33&#45;&gt;Node5 -->
<g id="edge54" class="edge">
<title>Node33&#45;&gt;Node5</title>
<path fill="none" stroke="#63b8ff" d="M1413.91,-118.15C1418.82,-143.93 1426.97,-190.63 1430,-231 1431.36,-249.17 1432.85,-254 1430,-272 1424.38,-307.54 1432.83,-326.19 1405,-349 1356.92,-388.41 1176.3,-394 1082.05,-394.15"/>
<polygon fill="#63b8ff" stroke="#63b8ff" points="1082.24,-390.65 1072.24,-394.14 1082.24,-397.65 1082.24,-390.65"/>
</g>
<!-- Node33&#45;&gt;Node8 -->
<g id="edge55" class="edge">
<title>Node33&#45;&gt;Node8</title>
<path fill="none" stroke="#63b8ff" d="M1410,-76.79C1410,-69.45 1410,-60.91 1410,-52.78"/>
<polygon fill="#63b8ff" stroke="#63b8ff" points="1413.5,-52.85 1410,-42.85 1406.5,-52.85 1413.5,-52.85"/>
</g>
<!-- Node33&#45;&gt;Node32 -->
<g id="edge56" class="edge">
<title>Node33&#45;&gt;Node32</title>
<path fill="none" stroke="#63b8ff" d="M1408.59,-118.38C1402.96,-144.32 1389.1,-189.99 1377.87,-220.24"/>
<polygon fill="#63b8ff" stroke="#63b8ff" points="1374.75,-218.63 1374.42,-229.22 1381.28,-221.14 1374.75,-218.63"/>
</g>
<!-- Node33&#45;&gt;Node34 -->
<g id="edge57" class="edge">
<title>Node33&#45;&gt;Node34</title>
<path fill="none" stroke="#63b8ff" d="M1439.31,-118.33C1450.1,-126.89 1462.17,-137.05 1472.6,-146.29"/>
<polygon fill="#63b8ff" stroke="#63b8ff" points="1470.01,-148.68 1479.78,-152.78 1474.7,-143.48 1470.01,-148.68"/>
</g>
<!-- Node34&#45;&gt;Node5 -->
<g id="edge58" class="edge">
<title>Node34&#45;&gt;Node5</title>
<path fill="none" stroke="#63b8ff" d="M1500.76,-195.47C1504.55,-232 1506.6,-309.48 1463,-349 1435.32,-374.09 1194.97,-386.78 1082.1,-391.4"/>
<polygon fill="#63b8ff" stroke="#63b8ff" points="1082.3,-387.89 1072.44,-391.79 1082.58,-394.88 1082.3,-387.89"/>
</g>
<!-- Node34&#45;&gt;Node8 -->
<g id="edge59" class="edge">
<title>Node34&#45;&gt;Node8</title>
<path fill="none" stroke="#63b8ff" d="M1497.71,-153.61C1496.57,-133.05 1492.38,-100.7 1478,-77 1471.4,-66.13 1461.88,-56.45 1452.04,-48.33"/>
<polygon fill="#63b8ff" stroke="#63b8ff" points="1454.24,-45.61 1444.19,-42.26 1449.96,-51.15 1454.24,-45.61"/>
</g>
<!-- Node34&#45;&gt;Node33 -->
<g id="edge60" class="edge">
<title>Node34&#45;&gt;Node33</title>
<path fill="none" stroke="#63b8ff" d="M1468.86,-153.79C1458.08,-145.25 1446,-135.1 1435.56,-125.84"/>
<polygon fill="#63b8ff" stroke="#63b8ff" points="1438.13,-123.45 1428.36,-119.35 1433.44,-128.65 1438.13,-123.45"/>
</g>
</g>
</svg>
