<?xml version="1.0" encoding="UTF-8" standalone="no"?>
<!DOCTYPE svg PUBLIC "-//W3C//DTD SVG 1.1//EN"
 "http://www.w3.org/Graphics/SVG/1.1/DTD/svg11.dtd">
<!-- Generated by graphviz version 7.0.2 (20221119.0110)
 -->
<!-- Title: C:/Users/juanh/OneDrive/Escritorio/Sistemas Embebidos/Proyecto final/LAL Control MbedOS/include/drivers/Temperature_sensor.h Pages: 1 -->
<svg width="1149pt" height="489pt"
 viewBox="0.00 0.00 1149.00 489.00" xmlns="http://www.w3.org/2000/svg" xmlns:xlink="http://www.w3.org/1999/xlink">
<g id="graph0" class="graph" transform="scale(1 1) rotate(0) translate(4 485)">
<title>C:/Users/juanh/OneDrive/Escritorio/Sistemas Embebidos/Proyecto final/LAL Control MbedOS/include/drivers/Temperature_sensor.h</title>
<!-- Node1 -->
<g id="node1" class="node">
<title>Node1</title>
<g id="a_node1"><a xlink:title="Controlador para sensor de temperatura DS18B20.">
<polygon fill="#999999" stroke="#666666" points="596.5,-481 417.5,-481 417.5,-418 596.5,-418 596.5,-481"/>
<text text-anchor="start" x="425.5" y="-469" font-family="Helvetica,sans-Serif" font-size="10.00">C:/Users/juanh/OneDrive</text>
<text text-anchor="start" x="425.5" y="-458" font-family="Helvetica,sans-Serif" font-size="10.00">/Escritorio/Sistemas Embebidos</text>
<text text-anchor="start" x="425.5" y="-447" font-family="Helvetica,sans-Serif" font-size="10.00">/Proyecto final/LAL Control</text>
<text text-anchor="start" x="425.5" y="-436" font-family="Helvetica,sans-Serif" font-size="10.00"> MbedOS/include/drivers/Temperature</text>
<text text-anchor="middle" x="507" y="-425" font-family="Helvetica,sans-Serif" font-size="10.00">_sensor.h</text>
</a>
</g>
</g>
<!-- Node2 -->
<g id="node2" class="node">
<title>Node2</title>
<g id="a_node2"><a xlink:href="_control__system_8h_source.html" target="_top" xlink:title=" ">
<polygon fill="white" stroke="#666666" points="495.5,-376.5 324.5,-376.5 324.5,-324.5 495.5,-324.5 495.5,-376.5"/>
<text text-anchor="start" x="332.5" y="-364.5" font-family="Helvetica,sans-Serif" font-size="10.00">C:/Users/juanh/OneDrive</text>
<text text-anchor="start" x="332.5" y="-353.5" font-family="Helvetica,sans-Serif" font-size="10.00">/Escritorio/Sistemas Embebidos</text>
<text text-anchor="start" x="332.5" y="-342.5" font-family="Helvetica,sans-Serif" font-size="10.00">/Proyecto final/LAL Control</text>
<text text-anchor="middle" x="410" y="-331.5" font-family="Helvetica,sans-Serif" font-size="10.00"> MbedOS/include/Control_system.h</text>
</a>
</g>
</g>
<!-- Node1&#45;&gt;Node2 -->
<g id="edge1" class="edge">
<title>Node1&#45;&gt;Node2</title>
<path fill="none" stroke="#63b8ff" d="M468.18,-409.68C457.18,-398.68 445.48,-386.98 435.48,-376.98"/>
<polygon fill="#63b8ff" stroke="#63b8ff" points="465.43,-411.88 474.97,-416.47 470.38,-406.93 465.43,-411.88"/>
</g>
<!-- Node14 -->
<g id="node14" class="node">
<title>Node14</title>
<g id="a_node14"><a xlink:href="_temperature__sensor_8cpp.html" target="_top" xlink:title=" ">
<polygon fill="white" stroke="#666666" points="696.5,-382 513.5,-382 513.5,-319 696.5,-319 696.5,-382"/>
<text text-anchor="start" x="521.5" y="-370" font-family="Helvetica,sans-Serif" font-size="10.00">C:/Users/juanh/OneDrive</text>
<text text-anchor="start" x="521.5" y="-359" font-family="Helvetica,sans-Serif" font-size="10.00">/Escritorio/Sistemas Embebidos</text>
<text text-anchor="start" x="521.5" y="-348" font-family="Helvetica,sans-Serif" font-size="10.00">/Proyecto final/LAL Control</text>
<text text-anchor="start" x="521.5" y="-337" font-family="Helvetica,sans-Serif" font-size="10.00"> MbedOS/src/Port/drivers/Temperature</text>
<text text-anchor="middle" x="605" y="-326" font-family="Helvetica,sans-Serif" font-size="10.00">_sensor.cpp</text>
</a>
</g>
</g>
<!-- Node1&#45;&gt;Node14 -->
<g id="edge29" class="edge">
<title>Node1&#45;&gt;Node14</title>
<path fill="none" stroke="#63b8ff" d="M546.44,-409.47C555.5,-400.5 565.02,-391.07 573.68,-382.5"/>
<polygon fill="#63b8ff" stroke="#63b8ff" points="544,-406.95 539.35,-416.48 548.92,-411.93 544,-406.95"/>
</g>
<!-- Node3 -->
<g id="node3" class="node">
<title>Node3</title>
<g id="a_node3"><a xlink:href="_check__instruction__state_8h_source.html" target="_top" xlink:title=" ">
<polygon fill="white" stroke="#666666" points="158,-283 0,-283 0,-209 158,-209 158,-283"/>
<text text-anchor="start" x="8" y="-271" font-family="Helvetica,sans-Serif" font-size="10.00">C:/Users/juanh/OneDrive</text>
<text text-anchor="start" x="8" y="-260" font-family="Helvetica,sans-Serif" font-size="10.00">/Escritorio/Sistemas Embebidos</text>
<text text-anchor="start" x="8" y="-249" font-family="Helvetica,sans-Serif" font-size="10.00">/Proyecto final/LAL Control</text>
<text text-anchor="start" x="8" y="-238" font-family="Helvetica,sans-Serif" font-size="10.00"> MbedOS/include/machine_state</text>
<text text-anchor="start" x="8" y="-227" font-family="Helvetica,sans-Serif" font-size="10.00">_pattern/machine_states/Check</text>
<text text-anchor="middle" x="79" y="-216" font-family="Helvetica,sans-Serif" font-size="10.00">_instruction_state.h</text>
</a>
</g>
</g>
<!-- Node2&#45;&gt;Node3 -->
<g id="edge2" class="edge">
<title>Node2&#45;&gt;Node3</title>
<path fill="none" stroke="#63b8ff" d="M316.94,-320.68C266.94,-305.2 205.96,-286.32 158.25,-271.54"/>
<polygon fill="#63b8ff" stroke="#63b8ff" points="315.72,-323.97 326.31,-323.58 317.79,-317.28 315.72,-323.97"/>
</g>
<!-- Node4 -->
<g id="node4" class="node">
<title>Node4</title>
<g id="a_node4"><a xlink:href="_idle__state_8h.html" target="_top" xlink:title="Clase de estado de reposo.">
<polygon fill="white" stroke="#666666" points="268.5,-173 91.5,-173 91.5,-110 268.5,-110 268.5,-173"/>
<text text-anchor="start" x="99.5" y="-161" font-family="Helvetica,sans-Serif" font-size="10.00">C:/Users/juanh/OneDrive</text>
<text text-anchor="start" x="99.5" y="-150" font-family="Helvetica,sans-Serif" font-size="10.00">/Escritorio/Sistemas Embebidos</text>
<text text-anchor="start" x="99.5" y="-139" font-family="Helvetica,sans-Serif" font-size="10.00">/Proyecto final/LAL Control</text>
<text text-anchor="start" x="99.5" y="-128" font-family="Helvetica,sans-Serif" font-size="10.00"> MbedOS/include/machine_state</text>
<text text-anchor="middle" x="180" y="-117" font-family="Helvetica,sans-Serif" font-size="10.00">_pattern/machine_states/Idle_state.h</text>
</a>
</g>
</g>
<!-- Node2&#45;&gt;Node4 -->
<g id="edge10" class="edge">
<title>Node2&#45;&gt;Node4</title>
<path fill="none" stroke="#63b8ff" d="M337.86,-318.95C318.9,-309.05 299.24,-296.96 283,-283 246.2,-251.35 215.05,-204.16 196.94,-173.35"/>
<polygon fill="#63b8ff" stroke="#63b8ff" points="336.14,-322 346.64,-323.39 339.3,-315.75 336.14,-322"/>
</g>
<!-- Node5 -->
<g id="node5" class="node">
<title>Node5</title>
<g id="a_node5"><a xlink:href="_motor__control__state_8h.html" target="_top" xlink:title="Clase de estado de control del motor.">
<polygon fill="white" stroke="#666666" points="223,-74 65,-74 65,0 223,0 223,-74"/>
<text text-anchor="start" x="73" y="-62" font-family="Helvetica,sans-Serif" font-size="10.00">C:/Users/juanh/OneDrive</text>
<text text-anchor="start" x="73" y="-51" font-family="Helvetica,sans-Serif" font-size="10.00">/Escritorio/Sistemas Embebidos</text>
<text text-anchor="start" x="73" y="-40" font-family="Helvetica,sans-Serif" font-size="10.00">/Proyecto final/LAL Control</text>
<text text-anchor="start" x="73" y="-29" font-family="Helvetica,sans-Serif" font-size="10.00"> MbedOS/include/machine_state</text>
<text text-anchor="start" x="73" y="-18" font-family="Helvetica,sans-Serif" font-size="10.00">_pattern/machine_states/Motor</text>
<text text-anchor="middle" x="144" y="-7" font-family="Helvetica,sans-Serif" font-size="10.00">_control_state.h</text>
</a>
</g>
</g>
<!-- Node2&#45;&gt;Node5 -->
<g id="edge11" class="edge">
<title>Node2&#45;&gt;Node5</title>
<path fill="none" stroke="#63b8ff" d="M380.1,-315.21C372.08,-305.18 363.77,-293.96 357,-283 312.5,-210.92 334.98,-171.76 277,-110 261.99,-94.02 242.63,-80.8 223.34,-70.25"/>
<polygon fill="#63b8ff" stroke="#63b8ff" points="377.33,-317.34 386.37,-322.86 382.74,-312.91 377.33,-317.34"/>
</g>
<!-- Node6 -->
<g id="node6" class="node">
<title>Node6</title>
<g id="a_node6"><a xlink:href="_shutdown__state_8h.html" target="_top" xlink:title="Clase de estado de apagado del sistema.">
<polygon fill="white" stroke="#666666" points="446.5,-68.5 241.5,-68.5 241.5,-5.5 446.5,-5.5 446.5,-68.5"/>
<text text-anchor="start" x="249.5" y="-56.5" font-family="Helvetica,sans-Serif" font-size="10.00">C:/Users/juanh/OneDrive</text>
<text text-anchor="start" x="249.5" y="-45.5" font-family="Helvetica,sans-Serif" font-size="10.00">/Escritorio/Sistemas Embebidos</text>
<text text-anchor="start" x="249.5" y="-34.5" font-family="Helvetica,sans-Serif" font-size="10.00">/Proyecto final/LAL Control</text>
<text text-anchor="start" x="249.5" y="-23.5" font-family="Helvetica,sans-Serif" font-size="10.00"> MbedOS/include/machine_state</text>
<text text-anchor="middle" x="344" y="-12.5" font-family="Helvetica,sans-Serif" font-size="10.00">_pattern/machine_states/Shutdown_state.h</text>
</a>
</g>
</g>
<!-- Node2&#45;&gt;Node6 -->
<g id="edge12" class="edge">
<title>Node2&#45;&gt;Node6</title>
<path fill="none" stroke="#63b8ff" d="M381.19,-314.27C375.96,-304.41 371.22,-293.52 368,-283 345.12,-208.31 338.09,-115.99 339.18,-68.86"/>
<polygon fill="#63b8ff" stroke="#63b8ff" points="378.04,-315.81 386.02,-322.78 384.13,-312.36 378.04,-315.81"/>
</g>
<!-- Node7 -->
<g id="node7" class="node">
<title>Node7</title>
<g id="a_node7"><a xlink:href="main_8h.html" target="_top" xlink:title="Archivo principal del programa.">
<polygon fill="white" stroke="#666666" points="764.5,-63 607.5,-63 607.5,-11 764.5,-11 764.5,-63"/>
<text text-anchor="start" x="615.5" y="-51" font-family="Helvetica,sans-Serif" font-size="10.00">C:/Users/juanh/OneDrive</text>
<text text-anchor="start" x="615.5" y="-40" font-family="Helvetica,sans-Serif" font-size="10.00">/Escritorio/Sistemas Embebidos</text>
<text text-anchor="start" x="615.5" y="-29" font-family="Helvetica,sans-Serif" font-size="10.00">/Proyecto final/LAL Control</text>
<text text-anchor="middle" x="686" y="-18" font-family="Helvetica,sans-Serif" font-size="10.00"> MbedOS/include/main.h</text>
</a>
</g>
</g>
<!-- Node2&#45;&gt;Node7 -->
<g id="edge13" class="edge">
<title>Node2&#45;&gt;Node7</title>
<path fill="none" stroke="#63b8ff" d="M397.64,-313.49C382.62,-262.49 364.5,-168.89 410,-110 434.03,-78.9 534.39,-58.68 607.18,-47.81"/>
<polygon fill="#63b8ff" stroke="#63b8ff" points="394.24,-314.32 400.52,-322.85 400.93,-312.26 394.24,-314.32"/>
</g>
<!-- Node8 -->
<g id="node8" class="node">
<title>Node8</title>
<g id="a_node8"><a xlink:href="_cooler__observer_8h_source.html" target="_top" xlink:title=" ">
<polygon fill="white" stroke="#666666" points="585,-173 419,-173 419,-110 585,-110 585,-173"/>
<text text-anchor="start" x="427" y="-161" font-family="Helvetica,sans-Serif" font-size="10.00">C:/Users/juanh/OneDrive</text>
<text text-anchor="start" x="427" y="-150" font-family="Helvetica,sans-Serif" font-size="10.00">/Escritorio/Sistemas Embebidos</text>
<text text-anchor="start" x="427" y="-139" font-family="Helvetica,sans-Serif" font-size="10.00">/Proyecto final/LAL Control</text>
<text text-anchor="start" x="427" y="-128" font-family="Helvetica,sans-Serif" font-size="10.00"> MbedOS/include/observer_pattern</text>
<text text-anchor="middle" x="502" y="-117" font-family="Helvetica,sans-Serif" font-size="10.00">/observers/Cooler_observer.h</text>
</a>
</g>
</g>
<!-- Node2&#45;&gt;Node8 -->
<g id="edge14" class="edge">
<title>Node2&#45;&gt;Node8</title>
<path fill="none" stroke="#63b8ff" d="M425.95,-313.62C443.54,-274.04 471.56,-211 488.23,-173.49"/>
<polygon fill="#63b8ff" stroke="#63b8ff" points="422.76,-312.18 421.9,-322.73 429.16,-315.02 422.76,-312.18"/>
</g>
<!-- Node9 -->
<g id="node9" class="node">
<title>Node9</title>
<g id="a_node9"><a xlink:href="_instruction__observer_8h.html" target="_top" xlink:title="Observador de instrucciones.">
<polygon fill="white" stroke="#666666" points="1139,-173 973,-173 973,-110 1139,-110 1139,-173"/>
<text text-anchor="start" x="981" y="-161" font-family="Helvetica,sans-Serif" font-size="10.00">C:/Users/juanh/OneDrive</text>
<text text-anchor="start" x="981" y="-150" font-family="Helvetica,sans-Serif" font-size="10.00">/Escritorio/Sistemas Embebidos</text>
<text text-anchor="start" x="981" y="-139" font-family="Helvetica,sans-Serif" font-size="10.00">/Proyecto final/LAL Control</text>
<text text-anchor="start" x="981" y="-128" font-family="Helvetica,sans-Serif" font-size="10.00"> MbedOS/include/observer_pattern</text>
<text text-anchor="middle" x="1056" y="-117" font-family="Helvetica,sans-Serif" font-size="10.00">/observers/Instruction_observer.h</text>
</a>
</g>
</g>
<!-- Node2&#45;&gt;Node9 -->
<g id="edge16" class="edge">
<title>Node2&#45;&gt;Node9</title>
<path fill="none" stroke="#63b8ff" d="M494.9,-321.13C497.96,-320.37 501,-319.66 504,-319 637.34,-289.8 679.32,-325.59 809,-283 886.57,-257.52 967.08,-206.27 1014.3,-173.21"/>
<polygon fill="#63b8ff" stroke="#63b8ff" points="494.01,-317.75 485.24,-323.68 495.8,-324.51 494.01,-317.75"/>
</g>
<!-- Node11 -->
<g id="node11" class="node">
<title>Node11</title>
<g id="a_node11"><a xlink:href="_moisture__observer_8h.html" target="_top" xlink:title="Observador del sensor de temperatura.">
<polygon fill="white" stroke="#666666" points="769,-173 603,-173 603,-110 769,-110 769,-173"/>
<text text-anchor="start" x="611" y="-161" font-family="Helvetica,sans-Serif" font-size="10.00">C:/Users/juanh/OneDrive</text>
<text text-anchor="start" x="611" y="-150" font-family="Helvetica,sans-Serif" font-size="10.00">/Escritorio/Sistemas Embebidos</text>
<text text-anchor="start" x="611" y="-139" font-family="Helvetica,sans-Serif" font-size="10.00">/Proyecto final/LAL Control</text>
<text text-anchor="start" x="611" y="-128" font-family="Helvetica,sans-Serif" font-size="10.00"> MbedOS/include/observer_pattern</text>
<text text-anchor="middle" x="686" y="-117" font-family="Helvetica,sans-Serif" font-size="10.00">/observers/Moisture_observer.h</text>
</a>
</g>
</g>
<!-- Node2&#45;&gt;Node11 -->
<g id="edge19" class="edge">
<title>Node2&#45;&gt;Node11</title>
<path fill="none" stroke="#63b8ff" d="M445.43,-316.65C478.16,-287.01 528.71,-242.98 576,-209 593.31,-196.56 613.01,-184.15 630.91,-173.48"/>
<polygon fill="#63b8ff" stroke="#63b8ff" points="443.26,-313.89 438.22,-323.21 447.97,-319.07 443.26,-313.89"/>
</g>
<!-- Node12 -->
<g id="node12" class="node">
<title>Node12</title>
<g id="a_node12"><a xlink:href="_system__observer_8h.html" target="_top" xlink:title="Clase observador del sistema de control.">
<polygon fill="white" stroke="#666666" points="751,-277.5 585,-277.5 585,-214.5 751,-214.5 751,-277.5"/>
<text text-anchor="start" x="593" y="-265.5" font-family="Helvetica,sans-Serif" font-size="10.00">C:/Users/juanh/OneDrive</text>
<text text-anchor="start" x="593" y="-254.5" font-family="Helvetica,sans-Serif" font-size="10.00">/Escritorio/Sistemas Embebidos</text>
<text text-anchor="start" x="593" y="-243.5" font-family="Helvetica,sans-Serif" font-size="10.00">/Proyecto final/LAL Control</text>
<text text-anchor="start" x="593" y="-232.5" font-family="Helvetica,sans-Serif" font-size="10.00"> MbedOS/include/observer_pattern</text>
<text text-anchor="middle" x="668" y="-221.5" font-family="Helvetica,sans-Serif" font-size="10.00">/observers/System_observer.h</text>
</a>
</g>
</g>
<!-- Node2&#45;&gt;Node12 -->
<g id="edge21" class="edge">
<title>Node2&#45;&gt;Node12</title>
<path fill="none" stroke="#63b8ff" d="M478.52,-319.82C511.12,-306.58 550.35,-290.99 584.65,-277.63"/>
<polygon fill="#63b8ff" stroke="#63b8ff" points="477.52,-316.45 469.58,-323.46 480.16,-322.93 477.52,-316.45"/>
</g>
<!-- Node13 -->
<g id="node13" class="node">
<title>Node13</title>
<g id="a_node13"><a xlink:href="_temperature__observer_8h.html" target="_top" xlink:title="Observador del sensor de temperatura.">
<polygon fill="white" stroke="#666666" points="954.5,-173 787.5,-173 787.5,-110 954.5,-110 954.5,-173"/>
<text text-anchor="start" x="795.5" y="-161" font-family="Helvetica,sans-Serif" font-size="10.00">C:/Users/juanh/OneDrive</text>
<text text-anchor="start" x="795.5" y="-150" font-family="Helvetica,sans-Serif" font-size="10.00">/Escritorio/Sistemas Embebidos</text>
<text text-anchor="start" x="795.5" y="-139" font-family="Helvetica,sans-Serif" font-size="10.00">/Proyecto final/LAL Control</text>
<text text-anchor="start" x="795.5" y="-128" font-family="Helvetica,sans-Serif" font-size="10.00"> MbedOS/include/observer_pattern</text>
<text text-anchor="middle" x="871" y="-117" font-family="Helvetica,sans-Serif" font-size="10.00">/observers/Temperature_observer.h</text>
</a>
</g>
</g>
<!-- Node2&#45;&gt;Node13 -->
<g id="edge28" class="edge">
<title>Node2&#45;&gt;Node13</title>
<path fill="none" stroke="#63b8ff" d="M495.57,-321.05C498.41,-320.33 501.22,-319.64 504,-319 615.96,-293.17 660.34,-340.18 760,-283 804.49,-257.47 837.74,-206.48 855.76,-173.46"/>
<polygon fill="#63b8ff" stroke="#63b8ff" points="494.79,-317.64 486.04,-323.61 496.61,-324.4 494.79,-317.64"/>
</g>
<!-- Node3&#45;&gt;Node4 -->
<g id="edge3" class="edge">
<title>Node3&#45;&gt;Node4</title>
<path fill="none" stroke="#63b8ff" d="M122.74,-200.61C131.78,-191.43 141.12,-181.96 149.57,-173.38"/>
<polygon fill="#63b8ff" stroke="#63b8ff" points="120.48,-197.92 115.96,-207.5 125.47,-202.83 120.48,-197.92"/>
</g>
<!-- Node3&#45;&gt;Node5 -->
<g id="edge9" class="edge">
<title>Node3&#45;&gt;Node5</title>
<path fill="none" stroke="#63b8ff" d="M64.44,-197.45C61.52,-170.87 62.39,-137.64 73,-110 77.97,-97.06 86.35,-84.87 95.69,-74.31"/>
<polygon fill="#63b8ff" stroke="#63b8ff" points="60.96,-197.82 65.76,-207.27 67.9,-196.89 60.96,-197.82"/>
</g>
<!-- Node4&#45;&gt;Node5 -->
<g id="edge4" class="edge">
<title>Node4&#45;&gt;Node5</title>
<path fill="none" stroke="#63b8ff" d="M158.84,-99.15C155.74,-90.87 152.76,-82.23 150.21,-74.14"/>
<polygon fill="#63b8ff" stroke="#63b8ff" points="155.52,-100.28 162.41,-108.34 162.05,-97.75 155.52,-100.28"/>
</g>
<!-- Node4&#45;&gt;Node6 -->
<g id="edge7" class="edge">
<title>Node4&#45;&gt;Node6</title>
<path fill="none" stroke="#63b8ff" d="M238.86,-103.71C257.1,-92.31 277.01,-79.87 294.55,-68.91"/>
<polygon fill="#63b8ff" stroke="#63b8ff" points="237.11,-100.68 230.49,-108.94 240.82,-106.61 237.11,-100.68"/>
</g>
<!-- Node5&#45;&gt;Node3 -->
<g id="edge5" class="edge">
<title>Node5&#45;&gt;Node3</title>
<path fill="none" stroke="#63b8ff" d="M106.05,-83.32C100.02,-91.59 94.61,-100.6 91,-110 78.82,-141.73 79.47,-180.83 80.7,-208.77"/>
<polygon fill="#63b8ff" stroke="#63b8ff" points="108.75,-85.55 112.12,-75.51 103.22,-81.25 108.75,-85.55"/>
</g>
<!-- Node5&#45;&gt;Node4 -->
<g id="edge6" class="edge">
<title>Node5&#45;&gt;Node4</title>
<path fill="none" stroke="#63b8ff" d="M167.14,-84.73C170.21,-93.22 173.09,-101.87 175.44,-109.75"/>
<polygon fill="#63b8ff" stroke="#63b8ff" points="170.49,-83.7 163.71,-75.56 163.94,-86.15 170.49,-83.7"/>
</g>
<!-- Node6&#45;&gt;Node2 -->
<g id="edge8" class="edge">
<title>Node6&#45;&gt;Node2</title>
<path fill="none" stroke="#63b8ff" d="M351.94,-80.07C357.22,-129.6 364.82,-213.86 386,-283 390.34,-297.17 397.44,-312.03 403.13,-324.1"/>
<polygon fill="#63b8ff" stroke="#63b8ff" points="355.45,-79.92 350.87,-70.36 348.49,-80.68 355.45,-79.92"/>
</g>
<!-- Node8&#45;&gt;Node7 -->
<g id="edge15" class="edge">
<title>Node8&#45;&gt;Node7</title>
<path fill="none" stroke="#63b8ff" d="M567.05,-104.26C591.31,-90.75 618.3,-75.71 640.43,-63.39"/>
<polygon fill="#63b8ff" stroke="#63b8ff" points="565.56,-101.09 558.53,-109.01 568.97,-107.2 565.56,-101.09"/>
</g>
<!-- Node9&#45;&gt;Node7 -->
<g id="edge17" class="edge">
<title>Node9&#45;&gt;Node7</title>
<path fill="none" stroke="#63b8ff" d="M962.21,-109.53C890.16,-88.5 818.12,-70.07 764.87,-56.94"/>
<polygon fill="#63b8ff" stroke="#63b8ff" points="960.8,-112.77 971.38,-112.23 962.77,-106.05 960.8,-112.77"/>
</g>
<!-- Node10 -->
<g id="node10" class="node">
<title>Node10</title>
<g id="a_node10"><a xlink:href="_instruction__observer_8cpp.html" target="_top" xlink:title=" ">
<polygon fill="white" stroke="#666666" points="1141,-68.5 971,-68.5 971,-5.5 1141,-5.5 1141,-68.5"/>
<text text-anchor="start" x="979" y="-56.5" font-family="Helvetica,sans-Serif" font-size="10.00">C:/Users/juanh/OneDrive</text>
<text text-anchor="start" x="979" y="-45.5" font-family="Helvetica,sans-Serif" font-size="10.00">/Escritorio/Sistemas Embebidos</text>
<text text-anchor="start" x="979" y="-34.5" font-family="Helvetica,sans-Serif" font-size="10.00">/Proyecto final/LAL Control</text>
<text text-anchor="start" x="979" y="-23.5" font-family="Helvetica,sans-Serif" font-size="10.00"> MbedOS/src/Port/observer_pattern</text>
<text text-anchor="middle" x="1056" y="-12.5" font-family="Helvetica,sans-Serif" font-size="10.00">/Instruction_observer.cpp</text>
</a>
</g>
</g>
<!-- Node9&#45;&gt;Node10 -->
<g id="edge18" class="edge">
<title>Node9&#45;&gt;Node10</title>
<path fill="none" stroke="#63b8ff" d="M1056,-98.4C1056,-88.46 1056,-78.05 1056,-68.73"/>
<polygon fill="#63b8ff" stroke="#63b8ff" points="1052.5,-98.23 1056,-108.23 1059.5,-98.23 1052.5,-98.23"/>
</g>
<!-- Node11&#45;&gt;Node7 -->
<g id="edge20" class="edge">
<title>Node11&#45;&gt;Node7</title>
<path fill="none" stroke="#63b8ff" d="M686,-98.56C686,-86.56 686,-73.87 686,-63.22"/>
<polygon fill="#63b8ff" stroke="#63b8ff" points="682.5,-98.23 686,-108.23 689.5,-98.23 682.5,-98.23"/>
</g>
<!-- Node12&#45;&gt;Node2 -->
<g id="edge22" class="edge">
<title>Node12&#45;&gt;Node2</title>
<path fill="none" stroke="#63b8ff" d="M586.25,-282.04C552.09,-295.82 512.84,-311.35 480.03,-324.03"/>
<polygon fill="#63b8ff" stroke="#63b8ff" points="587.31,-285.38 595.27,-278.39 584.68,-278.9 587.31,-285.38"/>
</g>
<!-- Node12&#45;&gt;Node8 -->
<g id="edge23" class="edge">
<title>Node12&#45;&gt;Node8</title>
<path fill="none" stroke="#63b8ff" d="M608.43,-208.21C589.96,-196.81 569.81,-184.37 552.06,-173.41"/>
<polygon fill="#63b8ff" stroke="#63b8ff" points="606.56,-211.18 616.91,-213.45 610.24,-205.22 606.56,-211.18"/>
</g>
<!-- Node12&#45;&gt;Node9 -->
<g id="edge24" class="edge">
<title>Node12&#45;&gt;Node9</title>
<path fill="none" stroke="#63b8ff" d="M762.47,-224.09C820.85,-210.66 897.14,-192.18 964,-173 966.91,-172.16 969.87,-171.3 972.85,-170.4"/>
<polygon fill="#63b8ff" stroke="#63b8ff" points="761.85,-220.64 752.88,-226.29 763.41,-227.46 761.85,-220.64"/>
</g>
<!-- Node12&#45;&gt;Node11 -->
<g id="edge25" class="edge">
<title>Node12&#45;&gt;Node11</title>
<path fill="none" stroke="#63b8ff" d="M675.34,-203.22C677.1,-193.19 678.95,-182.66 680.6,-173.23"/>
<polygon fill="#63b8ff" stroke="#63b8ff" points="671.94,-202.3 673.66,-212.76 678.84,-203.51 671.94,-202.3"/>
</g>
<!-- Node12&#45;&gt;Node13 -->
<g id="edge26" class="edge">
<title>Node12&#45;&gt;Node13</title>
<path fill="none" stroke="#63b8ff" d="M739.25,-209.02C762.32,-197.37 787.68,-184.57 809.94,-173.33"/>
<polygon fill="#63b8ff" stroke="#63b8ff" points="737.88,-205.79 730.53,-213.43 741.04,-212.04 737.88,-205.79"/>
</g>
<!-- Node13&#45;&gt;Node7 -->
<g id="edge27" class="edge">
<title>Node13&#45;&gt;Node7</title>
<path fill="none" stroke="#63b8ff" d="M805.39,-104.15C781.12,-90.7 754.16,-75.76 732,-63.49"/>
<polygon fill="#63b8ff" stroke="#63b8ff" points="803.48,-107.09 813.92,-108.87 806.87,-100.97 803.48,-107.09"/>
</g>
</g>
</svg>
