<?xml version="1.0" encoding="UTF-8" standalone="no"?>
<!DOCTYPE svg PUBLIC "-//W3C//DTD SVG 1.1//EN"
 "http://www.w3.org/Graphics/SVG/1.1/DTD/svg11.dtd">
<!-- Generated by graphviz version 7.0.2 (20221119.0110)
 -->
<!-- Title: C:/Users/juanh/OneDrive/Escritorio/Sistemas Embebidos/Proyecto final/LAL Control MbedOS/include/observer_pattern/observers/Temperature_observer.h Pages: 1 -->
<!--zoomable 577 -->
<svg id="main" version="1.1" xmlns="http://www.w3.org/2000/svg" xmlns:xlink="http://www.w3.org/1999/xlink" xml:space="preserve" onload="init(evt)">
<style type="text/css"><![CDATA[
.edge:hover path { stroke: red; }
.edge:hover polygon { stroke: red; fill: red; }
]]></style>
<script type="text/javascript"><![CDATA[
var edges = document.getElementsByTagName('g');
if (edges && edges.length) {
  for (var i=0;i<edges.length;i++) {
    if (edges[i].id.substr(0,4)=='edge') {
      edges[i].setAttribute('class','edge');
    }
  }
}
]]></script>
        <defs>
                <circle id="rim" cx="0" cy="0" r="7"/>
                <circle id="rim2" cx="0" cy="0" r="3.5"/>
                <g id="zoomPlus">
                        <use xlink:href="#rim" fill="#404040">
                                <set attributeName="fill" to="#808080" begin="zoomplus.mouseover" end="zoomplus.mouseout"/>
                        </use>
                        <path d="M-4,0h8M0,-4v8" fill="none" stroke="white" stroke-width="1.5" pointer-events="none"/>
                </g>
                <g id="zoomMin">
                        <use xlink:href="#rim" fill="#404040">
                                <set attributeName="fill" to="#808080" begin="zoomminus.mouseover" end="zoomminus.mouseout"/>
                        </use>
                        <path d="M-4,0h8" fill="none" stroke="white" stroke-width="1.5" pointer-events="none"/>
                </g>
                <g id="dirArrow">
                        <path fill="none" stroke="white" stroke-width="1.5" d="M0,-3.0v7 M-2.5,-0.5L0,-3.0L2.5,-0.5"/>
                </g>
               <g id="resetDef">
                       <use xlink:href="#rim2" fill="#404040">
                               <set attributeName="fill" to="#808080" begin="reset.mouseover" end="reset.mouseout"/>
                       </use>
               </g>
        </defs>

<script type="text/javascript">
var viewWidth = 1794;
var viewHeight = 577;
var sectionId = 'dynsection-0';
</script>
<script xlink:href="svgpan.js"/>
<svg id="graph" class="graph">
<g id="viewport">
<title>C:/Users/juanh/OneDrive/Escritorio/Sistemas Embebidos/Proyecto final/LAL Control MbedOS/include/observer_pattern/observers/Temperature_observer.h</title>
<!-- Node1 -->
<g id="node1" class="node">
<title>Node1</title>
<g id="a_node1"><a xlink:title="Observador del sensor de temperatura.">
<polygon fill="#999999" stroke="#666666" points="1254.5,-569 1087.5,-569 1087.5,-506 1254.5,-506 1254.5,-569"/>
<text text-anchor="start" x="1095.5" y="-557" font-family="Helvetica,sans-Serif" font-size="10.00">C:/Users/juanh/OneDrive</text>
<text text-anchor="start" x="1095.5" y="-546" font-family="Helvetica,sans-Serif" font-size="10.00">/Escritorio/Sistemas Embebidos</text>
<text text-anchor="start" x="1095.5" y="-535" font-family="Helvetica,sans-Serif" font-size="10.00">/Proyecto final/LAL Control</text>
<text text-anchor="start" x="1095.5" y="-524" font-family="Helvetica,sans-Serif" font-size="10.00"> MbedOS/include/observer_pattern</text>
<text text-anchor="middle" x="1171" y="-513" font-family="Helvetica,sans-Serif" font-size="10.00">/observers/Temperature_observer.h</text>
</a>
</g>
</g>
<!-- Node2 -->
<g id="node2" class="node">
<title>Node2</title>
<g id="a_node2"><a xlink:href="_system__observer_8h.html" target="_top" xlink:title="Clase observador del sistema de control.">
<polygon fill="white" stroke="#666666" points="876,-470 744,-470 744,-440 876,-440 876,-470"/>
<text text-anchor="start" x="752" y="-458" font-family="Helvetica,sans-Serif" font-size="10.00">observer_pattern/observers</text>
<text text-anchor="middle" x="810" y="-447" font-family="Helvetica,sans-Serif" font-size="10.00">/System_observer.h</text>
</a>
</g>
</g>
<!-- Node1&#45;&gt;Node2 -->
<g id="edge1" class="edge">
<title>Node1&#45;&gt;Node2</title>
<path fill="none" stroke="#63b8ff" d="M1087.27,-517.83C1026.51,-504.28 944.99,-486.1 886.08,-472.96"/>
<polygon fill="#63b8ff" stroke="#63b8ff" points="886.98,-469.58 876.46,-470.82 885.46,-476.41 886.98,-469.58"/>
</g>
<!-- Node6 -->
<g id="node6" class="node">
<title>Node6</title>
<g id="a_node6"><a xlink:href="_control__system_8h_source.html" target="_top" xlink:title=" ">
<polygon fill="white" stroke="#666666" points="856.5,-404 763.5,-404 763.5,-385 856.5,-385 856.5,-404"/>
<text text-anchor="middle" x="810" y="-392" font-family="Helvetica,sans-Serif" font-size="10.00">Control_system.h</text>
</a>
</g>
</g>
<!-- Node1&#45;&gt;Node6 -->
<g id="edge62" class="edge">
<title>Node1&#45;&gt;Node6</title>
<path fill="none" stroke="#63b8ff" d="M1091.78,-505.56C1014.14,-475.23 899.54,-430.47 843.43,-408.56"/>
<polygon fill="#63b8ff" stroke="#63b8ff" points="845.01,-405.42 834.43,-405.04 842.47,-411.94 845.01,-405.42"/>
</g>
<!-- Node22 -->
<g id="node22" class="node">
<title>Node22</title>
<g id="a_node22"><a xlink:href="system__settings_8h.html" target="_top" xlink:title="Archivo para la definición de constantes del sistema.">
<polygon fill="white" stroke="#666666" points="1127.5,-261 1030.5,-261 1030.5,-242 1127.5,-242 1127.5,-261"/>
<text text-anchor="middle" x="1079" y="-249" font-family="Helvetica,sans-Serif" font-size="10.00">system_settings.h</text>
</a>
</g>
</g>
<!-- Node1&#45;&gt;Node22 -->
<g id="edge63" class="edge">
<title>Node1&#45;&gt;Node22</title>
<path fill="none" stroke="#63b8ff" d="M1195.48,-505.64C1229.32,-458.96 1281.56,-369.35 1238,-308 1236.16,-305.41 1163.25,-280.66 1116.81,-265.1"/>
<polygon fill="#63b8ff" stroke="#63b8ff" points="1117.95,-261.79 1107.35,-261.94 1115.73,-268.43 1117.95,-261.79"/>
</g>
<!-- Node25 -->
<g id="node25" class="node">
<title>Node25</title>
<g id="a_node25"><a xlink:href="types_8h.html" target="_top" xlink:title="Archivo de definición de tipos de dato.">
<polygon fill="white" stroke="#666666" points="1274.5,-261 1225.5,-261 1225.5,-242 1274.5,-242 1274.5,-261"/>
<text text-anchor="middle" x="1250" y="-249" font-family="Helvetica,sans-Serif" font-size="10.00">types.h</text>
</a>
</g>
</g>
<!-- Node1&#45;&gt;Node25 -->
<g id="edge64" class="edge">
<title>Node1&#45;&gt;Node25</title>
<path fill="none" stroke="#63b8ff" d="M1252.98,-505.62C1316.67,-476.39 1399.32,-425.48 1431,-349 1437.97,-332.16 1441.83,-322.65 1431,-308 1397.76,-263.04 1328.78,-253.33 1286.23,-251.87"/>
<polygon fill="#63b8ff" stroke="#63b8ff" points="1286.3,-248.37 1276.23,-251.68 1286.17,-255.37 1286.3,-248.37"/>
</g>
<!-- Node3 -->
<g id="node3" class="node">
<title>Node3</title>
<g id="a_node3"><a xlink:href="_observer_8h.html" target="_top" xlink:title="Clase observador.">
<polygon fill="white" stroke="#666666" points="132,-343.5 0,-343.5 0,-313.5 132,-313.5 132,-343.5"/>
<text text-anchor="start" x="8" y="-331.5" font-family="Helvetica,sans-Serif" font-size="10.00">observer_pattern/observers</text>
<text text-anchor="middle" x="66" y="-320.5" font-family="Helvetica,sans-Serif" font-size="10.00">/Observer.h</text>
</a>
</g>
</g>
<!-- Node2&#45;&gt;Node3 -->
<g id="edge2" class="edge">
<title>Node2&#45;&gt;Node3</title>
<path fill="none" stroke="#63b8ff" d="M743.61,-445.79C622.97,-430.38 359.99,-394.54 141,-349 137.26,-348.22 133.44,-347.38 129.58,-346.49"/>
<polygon fill="#63b8ff" stroke="#63b8ff" points="130.72,-343.16 120.18,-344.25 129.09,-349.97 130.72,-343.16"/>
</g>
<!-- Node2&#45;&gt;Node6 -->
<g id="edge5" class="edge">
<title>Node2&#45;&gt;Node6</title>
<path fill="none" stroke="#63b8ff" d="M804.08,-439.54C803.19,-432.26 803.01,-423.31 803.57,-415.39"/>
<polygon fill="#63b8ff" stroke="#63b8ff" points="807.01,-416.05 804.84,-405.68 800.07,-415.14 807.01,-416.05"/>
</g>
<!-- Node4 -->
<g id="node4" class="node">
<title>Node4</title>
<g id="a_node4"><a xlink:href="_subject__interface_8h.html" target="_top" xlink:title="Clase para interfaz para implementar el sujeto.">
<polygon fill="white" stroke="#666666" points="129,-266.5 1,-266.5 1,-236.5 129,-236.5 129,-266.5"/>
<text text-anchor="start" x="9" y="-254.5" font-family="Helvetica,sans-Serif" font-size="10.00">observer_pattern/subjects</text>
<text text-anchor="middle" x="65" y="-243.5" font-family="Helvetica,sans-Serif" font-size="10.00">/Subject_interface.h</text>
</a>
</g>
</g>
<!-- Node3&#45;&gt;Node4 -->
<g id="edge3" class="edge">
<title>Node3&#45;&gt;Node4</title>
<path fill="none" stroke="#63b8ff" d="M65.81,-313.04C65.68,-303.18 65.5,-289.86 65.34,-278.22"/>
<polygon fill="#63b8ff" stroke="#63b8ff" points="68.85,-278.38 65.21,-268.43 61.85,-278.48 68.85,-278.38"/>
</g>
<!-- Node5 -->
<g id="node5" class="node">
<title>Node5</title>
<g id="a_node5"><a xlink:href="_observer__interface_8h.html" target="_top" xlink:title="Clase para interfaz para implementar el observador.">
<polygon fill="white" stroke="#666666" points="279,-266.5 147,-266.5 147,-236.5 279,-236.5 279,-266.5"/>
<text text-anchor="start" x="155" y="-254.5" font-family="Helvetica,sans-Serif" font-size="10.00">observer_pattern/observers</text>
<text text-anchor="middle" x="213" y="-243.5" font-family="Helvetica,sans-Serif" font-size="10.00">/Observer_interface.h</text>
</a>
</g>
</g>
<!-- Node3&#45;&gt;Node5 -->
<g id="edge4" class="edge">
<title>Node3&#45;&gt;Node5</title>
<path fill="none" stroke="#63b8ff" d="M94.34,-313.04C117.22,-301.37 149.63,-284.83 174.8,-271.99"/>
<polygon fill="#63b8ff" stroke="#63b8ff" points="176.08,-275.27 183.4,-267.6 172.9,-269.03 176.08,-275.27"/>
</g>
<!-- Node6&#45;&gt;Node2 -->
<g id="edge24" class="edge">
<title>Node6&#45;&gt;Node2</title>
<path fill="none" stroke="#63b8ff" d="M814.96,-404.18C816.34,-410.58 816.92,-419.65 816.71,-428.3"/>
<polygon fill="#63b8ff" stroke="#63b8ff" points="813.23,-427.81 816.02,-438.03 820.21,-428.3 813.23,-427.81"/>
</g>
<!-- Node7 -->
<g id="node7" class="node">
<title>Node7</title>
<g id="a_node7"><a xlink:href="_subject_8h.html" target="_top" xlink:title=" ">
<polygon fill="white" stroke="#666666" points="278,-343.5 150,-343.5 150,-313.5 278,-313.5 278,-343.5"/>
<text text-anchor="start" x="158" y="-331.5" font-family="Helvetica,sans-Serif" font-size="10.00">observer_pattern/subjects</text>
<text text-anchor="middle" x="214" y="-320.5" font-family="Helvetica,sans-Serif" font-size="10.00">/Subject.h</text>
</a>
</g>
</g>
<!-- Node6&#45;&gt;Node7 -->
<g id="edge6" class="edge">
<title>Node6&#45;&gt;Node7</title>
<path fill="none" stroke="#63b8ff" d="M763.35,-391.92C672.35,-388.31 464.98,-377.45 293,-349 288.37,-348.23 283.62,-347.34 278.85,-346.36"/>
<polygon fill="#63b8ff" stroke="#63b8ff" points="279.73,-342.97 269.22,-344.27 278.25,-349.81 279.73,-342.97"/>
</g>
<!-- Node8 -->
<g id="node8" class="node">
<title>Node8</title>
<g id="a_node8"><a xlink:href="_machine_8h.html" target="_top" xlink:title="Clase de máquina abstracta.">
<polygon fill="white" stroke="#666666" points="1508,-189.5 1392,-189.5 1392,-159.5 1508,-159.5 1508,-189.5"/>
<text text-anchor="start" x="1400" y="-177.5" font-family="Helvetica,sans-Serif" font-size="10.00">machine_state_pattern</text>
<text text-anchor="middle" x="1450" y="-166.5" font-family="Helvetica,sans-Serif" font-size="10.00">/Machine.h</text>
</a>
</g>
</g>
<!-- Node6&#45;&gt;Node8 -->
<g id="edge9" class="edge">
<title>Node6&#45;&gt;Node8</title>
<path fill="none" stroke="#63b8ff" d="M856.52,-393.53C993.76,-393.15 1389.88,-388.6 1431,-349 1470.78,-310.69 1463.55,-238.97 1456.08,-200.85"/>
<polygon fill="#63b8ff" stroke="#63b8ff" points="1459.53,-200.26 1454.02,-191.21 1452.69,-201.73 1459.53,-200.26"/>
</g>
<!-- Node10 -->
<g id="node10" class="node">
<title>Node10</title>
<g id="a_node10"><a xlink:href="_display_8h.html" target="_top" xlink:title="Controlador de LCD hd44780 por interfaz I2C.">
<polygon fill="white" stroke="#666666" points="1604,-338 1516,-338 1516,-319 1604,-319 1604,-338"/>
<text text-anchor="middle" x="1560" y="-326" font-family="Helvetica,sans-Serif" font-size="10.00">drivers/Display.h</text>
</a>
</g>
</g>
<!-- Node6&#45;&gt;Node10 -->
<g id="edge11" class="edge">
<title>Node6&#45;&gt;Node10</title>
<path fill="none" stroke="#63b8ff" d="M856.6,-392.45C964.1,-389.56 1237.59,-379.56 1464,-349 1479.31,-346.93 1495.84,-343.88 1510.8,-340.8"/>
<polygon fill="#63b8ff" stroke="#63b8ff" points="1511.35,-344.26 1520.41,-338.76 1509.9,-337.41 1511.35,-344.26"/>
</g>
<!-- Node20 -->
<g id="node20" class="node">
<title>Node20</title>
<g id="a_node20"><a xlink:href="user__messages_8h.html" target="_top" xlink:title="Archivo para la configuración de interfaz con el usuario.">
<polygon fill="white" stroke="#666666" points="999,-338 905,-338 905,-319 999,-319 999,-338"/>
<text text-anchor="middle" x="952" y="-326" font-family="Helvetica,sans-Serif" font-size="10.00">user_messages.h</text>
</a>
</g>
</g>
<!-- Node6&#45;&gt;Node20 -->
<g id="edge23" class="edge">
<title>Node6&#45;&gt;Node20</title>
<path fill="none" stroke="#63b8ff" d="M829.74,-384.6C853.69,-373.81 894.31,-355.5 922.1,-342.98"/>
<polygon fill="#63b8ff" stroke="#63b8ff" points="923.36,-346.25 931.04,-338.95 920.49,-339.86 923.36,-346.25"/>
</g>
<!-- Node21 -->
<g id="node21" class="node">
<title>Node21</title>
<g id="a_node21"><a xlink:href="_temperature__sensor_8h.html" target="_top" xlink:title="Controlador para sensor de temperatura DS18B20.">
<polygon fill="white" stroke="#666666" points="1229.5,-343.5 1128.5,-343.5 1128.5,-313.5 1229.5,-313.5 1229.5,-343.5"/>
<text text-anchor="start" x="1136.5" y="-331.5" font-family="Helvetica,sans-Serif" font-size="10.00">drivers/Temperature</text>
<text text-anchor="middle" x="1179" y="-320.5" font-family="Helvetica,sans-Serif" font-size="10.00">_sensor.h</text>
</a>
</g>
</g>
<!-- Node6&#45;&gt;Node21 -->
<g id="edge25" class="edge">
<title>Node6&#45;&gt;Node21</title>
<path fill="none" stroke="#63b8ff" d="M856.79,-389.28C917.72,-383.21 1027.28,-370.34 1119,-349 1121.57,-348.4 1124.18,-347.75 1126.81,-347.05"/>
<polygon fill="#63b8ff" stroke="#63b8ff" points="1127.51,-350.49 1136.17,-344.38 1125.59,-343.75 1127.51,-350.49"/>
</g>
<!-- Node24 -->
<g id="node24" class="node">
<title>Node24</title>
<g id="a_node24"><a xlink:href="_moisture__sensor_8h.html" target="_top" xlink:title="Controlador de sensor de humedad analógico.">
<polygon fill="white" stroke="#666666" points="895,-184 767,-184 767,-165 895,-165 895,-184"/>
<text text-anchor="middle" x="831" y="-172" font-family="Helvetica,sans-Serif" font-size="10.00">drivers/Moisture_sensor.h</text>
</a>
</g>
</g>
<!-- Node6&#45;&gt;Node24 -->
<g id="edge28" class="edge">
<title>Node6&#45;&gt;Node24</title>
<path fill="none" stroke="#63b8ff" d="M805.74,-384.55C801.8,-375.73 796.23,-361.78 794,-349 784.16,-292.52 808.19,-226.45 822.04,-194.59"/>
<polygon fill="#63b8ff" stroke="#63b8ff" points="825.05,-196.42 825.98,-185.86 818.67,-193.54 825.05,-196.42"/>
</g>
<!-- Node6&#45;&gt;Node25 -->
<g id="edge30" class="edge">
<title>Node6&#45;&gt;Node25</title>
<path fill="none" stroke="#63b8ff" d="M856.67,-391.87C962.01,-387.75 1211.16,-375.31 1238,-349 1258.06,-329.34 1257.11,-294.48 1253.99,-272.48"/>
<polygon fill="#63b8ff" stroke="#63b8ff" points="1257.46,-271.97 1252.31,-262.72 1250.56,-273.17 1257.46,-271.97"/>
</g>
<!-- Node26 -->
<g id="node26" class="node">
<title>Node26</title>
<g id="a_node26"><a xlink:href="_buzzer_8h.html" target="_top" xlink:title="Controlador de Buzzer de 12 milimetros sin oscilador.">
<polygon fill="white" stroke="#666666" points="747,-338 661,-338 661,-319 747,-319 747,-338"/>
<text text-anchor="middle" x="704" y="-326" font-family="Helvetica,sans-Serif" font-size="10.00">drivers/Buzzer.h</text>
</a>
</g>
</g>
<!-- Node6&#45;&gt;Node26 -->
<g id="edge31" class="edge">
<title>Node6&#45;&gt;Node26</title>
<path fill="none" stroke="#63b8ff" d="M795.26,-384.6C777.94,-374.14 748.93,-356.63 728.27,-344.16"/>
<polygon fill="#63b8ff" stroke="#63b8ff" points="730.28,-341.28 719.91,-339.11 726.66,-347.27 730.28,-341.28"/>
</g>
<!-- Node28 -->
<g id="node28" class="node">
<title>Node28</title>
<g id="a_node28"><a xlink:href="_motor_8h.html" target="_top" xlink:title="Controlador de motor de 220 VAC.">
<polygon fill="white" stroke="#666666" points="643,-338 563,-338 563,-319 643,-319 643,-338"/>
<text text-anchor="middle" x="603" y="-326" font-family="Helvetica,sans-Serif" font-size="10.00">drivers/Motor.h</text>
</a>
</g>
</g>
<!-- Node6&#45;&gt;Node28 -->
<g id="edge34" class="edge">
<title>Node6&#45;&gt;Node28</title>
<path fill="none" stroke="#63b8ff" d="M774.22,-384.56C741.98,-376.24 693.43,-363.04 652,-349 646.29,-347.07 640.28,-344.84 634.5,-342.6"/>
<polygon fill="#63b8ff" stroke="#63b8ff" points="635.8,-339.34 625.21,-338.9 633.21,-345.85 635.8,-339.34"/>
</g>
<!-- Node29 -->
<g id="node29" class="node">
<title>Node29</title>
<g id="a_node29"><a xlink:href="_dual___l_e_d_8h.html" target="_top" xlink:title="Controlador de LED RG.">
<polygon fill="white" stroke="#666666" points="1110.5,-338 1017.5,-338 1017.5,-319 1110.5,-319 1110.5,-338"/>
<text text-anchor="middle" x="1064" y="-326" font-family="Helvetica,sans-Serif" font-size="10.00">drivers/Dual_led.h</text>
</a>
</g>
</g>
<!-- Node6&#45;&gt;Node29 -->
<g id="edge37" class="edge">
<title>Node6&#45;&gt;Node29</title>
<path fill="none" stroke="#63b8ff" d="M856.79,-384.55C897.15,-376.46 956.84,-363.6 1008,-349 1015.02,-347 1022.44,-344.61 1029.51,-342.2"/>
<polygon fill="#63b8ff" stroke="#63b8ff" points="1030.5,-345.56 1038.78,-338.96 1028.19,-338.96 1030.5,-345.56"/>
</g>
<!-- Node30 -->
<g id="node30" class="node">
<title>Node30</title>
<g id="a_node30"><a xlink:href="_digital__dual___l_e_d_8h_source.html" target="_top" xlink:title=" ">
<polygon fill="white" stroke="#666666" points="1422,-343.5 1324,-343.5 1324,-313.5 1422,-313.5 1422,-343.5"/>
<text text-anchor="start" x="1332" y="-331.5" font-family="Helvetica,sans-Serif" font-size="10.00">drivers/Digital_dual</text>
<text text-anchor="middle" x="1373" y="-320.5" font-family="Helvetica,sans-Serif" font-size="10.00">_led.h</text>
</a>
</g>
</g>
<!-- Node6&#45;&gt;Node30 -->
<g id="edge41" class="edge">
<title>Node6&#45;&gt;Node30</title>
<path fill="none" stroke="#63b8ff" d="M856.73,-390.47C940.33,-384.72 1120.87,-370.82 1272,-349 1285.19,-347.1 1299.27,-344.65 1312.6,-342.13"/>
<polygon fill="#63b8ff" stroke="#63b8ff" points="1312.94,-345.63 1322.1,-340.3 1311.62,-338.75 1312.94,-345.63"/>
</g>
<!-- Node31 -->
<g id="node31" class="node">
<title>Node31</title>
<g id="a_node31"><a xlink:href="_cooler_8h.html" target="_top" xlink:title="Controlador de ventilador de 12 volts y 5 milímteros.">
<polygon fill="white" stroke="#666666" points="886.5,-338 803.5,-338 803.5,-319 886.5,-319 886.5,-338"/>
<text text-anchor="middle" x="845" y="-326" font-family="Helvetica,sans-Serif" font-size="10.00">drivers/Cooler.h</text>
</a>
</g>
</g>
<!-- Node6&#45;&gt;Node31 -->
<g id="edge44" class="edge">
<title>Node6&#45;&gt;Node31</title>
<path fill="none" stroke="#63b8ff" d="M814.87,-384.6C819.99,-375.24 828.19,-360.23 834.75,-348.24"/>
<polygon fill="#63b8ff" stroke="#63b8ff" points="837.72,-350.1 839.45,-339.65 831.58,-346.75 837.72,-350.1"/>
</g>
<!-- Node32 -->
<g id="node32" class="node">
<title>Node32</title>
<g id="a_node32"><a xlink:href="_shutdown__state_8h.html" target="_top" xlink:title="Clase de estado de apagado del sistema.">
<polygon fill="white" stroke="#666666" points="469,-349 335,-349 335,-308 469,-308 469,-349"/>
<text text-anchor="start" x="343" y="-337" font-family="Helvetica,sans-Serif" font-size="10.00">machine_state_pattern</text>
<text text-anchor="start" x="343" y="-326" font-family="Helvetica,sans-Serif" font-size="10.00">/machine_states/Shutdown</text>
<text text-anchor="middle" x="402" y="-315" font-family="Helvetica,sans-Serif" font-size="10.00">_state.h</text>
</a>
</g>
</g>
<!-- Node6&#45;&gt;Node32 -->
<g id="edge47" class="edge">
<title>Node6&#45;&gt;Node32</title>
<path fill="none" stroke="#63b8ff" d="M763.21,-389.27C700.09,-382.78 584.45,-369.18 480.28,-350.13"/>
<polygon fill="#63b8ff" stroke="#63b8ff" points="481.23,-346.75 470.76,-348.36 479.95,-353.63 481.23,-346.75"/>
</g>
<!-- Node7&#45;&gt;Node4 -->
<g id="edge7" class="edge">
<title>Node7&#45;&gt;Node4</title>
<path fill="none" stroke="#63b8ff" d="M185.27,-313.04C162.08,-301.37 129.23,-284.83 103.72,-271.99"/>
<polygon fill="#63b8ff" stroke="#63b8ff" points="105.5,-268.97 94.99,-267.6 102.35,-275.22 105.5,-268.97"/>
</g>
<!-- Node7&#45;&gt;Node5 -->
<g id="edge8" class="edge">
<title>Node7&#45;&gt;Node5</title>
<path fill="none" stroke="#63b8ff" d="M213.81,-313.04C213.68,-303.18 213.5,-289.86 213.34,-278.22"/>
<polygon fill="#63b8ff" stroke="#63b8ff" points="216.85,-278.38 213.21,-268.43 209.85,-278.48 216.85,-278.38"/>
</g>
<!-- Node9 -->
<g id="node9" class="node">
<title>Node9</title>
<g id="a_node9"><a xlink:href="_abstract__state_8h.html" target="_top" xlink:title="Clase de estado abstracta.">
<polygon fill="white" stroke="#666666" points="534,-41 406,-41 406,0 534,0 534,-41"/>
<text text-anchor="start" x="414" y="-29" font-family="Helvetica,sans-Serif" font-size="10.00">machine_state_pattern</text>
<text text-anchor="start" x="414" y="-18" font-family="Helvetica,sans-Serif" font-size="10.00">/machine_states/Abstract</text>
<text text-anchor="middle" x="470" y="-7" font-family="Helvetica,sans-Serif" font-size="10.00">_state.h</text>
</a>
</g>
</g>
<!-- Node8&#45;&gt;Node9 -->
<g id="edge10" class="edge">
<title>Node8&#45;&gt;Node9</title>
<path fill="none" stroke="#63b8ff" d="M1402.19,-159.06C1395.76,-157.27 1389.23,-155.54 1383,-154 1216.12,-112.84 1173.9,-103.03 1004,-77 841.49,-52.11 649.41,-35.17 545.66,-27.04"/>
<polygon fill="#63b8ff" stroke="#63b8ff" points="546.12,-23.57 535.88,-26.28 545.58,-30.55 546.12,-23.57"/>
</g>
<!-- Node11 -->
<g id="node11" class="node">
<title>Node11</title>
<g id="a_node11"><a xlink:href="display__settings_8h.html" target="_top" xlink:title="Archivo de configuración de la pantalla.">
<polygon fill="white" stroke="#666666" points="1728.5,-261 1633.5,-261 1633.5,-242 1728.5,-242 1728.5,-261"/>
<text text-anchor="middle" x="1681" y="-249" font-family="Helvetica,sans-Serif" font-size="10.00">display_settings.h</text>
</a>
</g>
</g>
<!-- Node10&#45;&gt;Node11 -->
<g id="edge12" class="edge">
<title>Node10&#45;&gt;Node11</title>
<path fill="none" stroke="#63b8ff" d="M1574.36,-318.6C1594.73,-305.97 1632.3,-282.68 1656.97,-267.39"/>
<polygon fill="#63b8ff" stroke="#63b8ff" points="1658.72,-270.43 1665.38,-262.18 1655.03,-264.48 1658.72,-270.43"/>
</g>
<!-- Node12 -->
<g id="node12" class="node">
<title>Node12</title>
<g id="a_node12"><a xlink:href="hd44780___i2_cexp_8h_source.html" target="_top" xlink:title=" ">
<polygon fill="white" stroke="#666666" points="1615,-261 1487,-261 1487,-242 1615,-242 1615,-261"/>
<text text-anchor="middle" x="1551" y="-249" font-family="Helvetica,sans-Serif" font-size="10.00">drivers/hd44780_I2Cexp.h</text>
</a>
</g>
</g>
<!-- Node10&#45;&gt;Node12 -->
<g id="edge13" class="edge">
<title>Node10&#45;&gt;Node12</title>
<path fill="none" stroke="#63b8ff" d="M1558.93,-318.6C1557.58,-307.33 1555.21,-287.55 1553.41,-272.56"/>
<polygon fill="#63b8ff" stroke="#63b8ff" points="1556.91,-272.4 1552.25,-262.89 1549.96,-273.23 1556.91,-272.4"/>
</g>
<!-- Node13 -->
<g id="node13" class="node">
<title>Node13</title>
<g id="a_node13"><a xlink:title=" ">
<polygon fill="#e0e0e0" stroke="#999999" points="995.5,-107 946.5,-107 946.5,-88 995.5,-88 995.5,-107"/>
<text text-anchor="middle" x="971" y="-95" font-family="Helvetica,sans-Serif" font-size="10.00">mbed.h</text>
</a>
</g>
</g>
<!-- Node12&#45;&gt;Node13 -->
<g id="edge14" class="edge">
<title>Node12&#45;&gt;Node13</title>
<path fill="none" stroke="#63b8ff" d="M1550.83,-241.53C1549.92,-222.05 1544.78,-175.86 1517,-154 1476.95,-122.49 1122.55,-104.89 1007.15,-99.95"/>
<polygon fill="#63b8ff" stroke="#63b8ff" points="1007.47,-96.46 997.33,-99.54 1007.17,-103.46 1007.47,-96.46"/>
</g>
<!-- Node14 -->
<g id="node14" class="node">
<title>Node14</title>
<g id="a_node14"><a xlink:title=" ">
<polygon fill="#e0e0e0" stroke="#999999" points="1589,-107 1541,-107 1541,-88 1589,-88 1589,-107"/>
<text text-anchor="middle" x="1565" y="-95" font-family="Helvetica,sans-Serif" font-size="10.00">stdlib.h</text>
</a>
</g>
</g>
<!-- Node12&#45;&gt;Node14 -->
<g id="edge15" class="edge">
<title>Node12&#45;&gt;Node14</title>
<path fill="none" stroke="#63b8ff" d="M1551.79,-241.89C1553.97,-218.28 1560.07,-152.03 1563.16,-118.49"/>
<polygon fill="#63b8ff" stroke="#63b8ff" points="1566.61,-119.18 1564.04,-108.9 1559.64,-118.54 1566.61,-119.18"/>
</g>
<!-- Node15 -->
<g id="node15" class="node">
<title>Node15</title>
<g id="a_node15"><a xlink:href="hd44780__instruction__set_8h_source.html" target="_top" xlink:title=" ">
<polygon fill="white" stroke="#666666" points="1374,-189.5 1270,-189.5 1270,-159.5 1374,-159.5 1374,-189.5"/>
<text text-anchor="start" x="1278" y="-177.5" font-family="Helvetica,sans-Serif" font-size="10.00">hd44780_instruction</text>
<text text-anchor="middle" x="1322" y="-166.5" font-family="Helvetica,sans-Serif" font-size="10.00">_set.h</text>
</a>
</g>
</g>
<!-- Node12&#45;&gt;Node15 -->
<g id="edge16" class="edge">
<title>Node12&#45;&gt;Node15</title>
<path fill="none" stroke="#63b8ff" d="M1523.83,-241.6C1487.75,-229.78 1423.17,-208.63 1376.77,-193.44"/>
<polygon fill="#63b8ff" stroke="#63b8ff" points="1378.01,-190.16 1367.42,-190.38 1375.83,-196.81 1378.01,-190.16"/>
</g>
<!-- Node16 -->
<g id="node16" class="node">
<title>Node16</title>
<g id="a_node16"><a xlink:href="utils_8h_source.html" target="_top" xlink:title=" ">
<polygon fill="white" stroke="#666666" points="1653.5,-184 1610.5,-184 1610.5,-165 1653.5,-165 1653.5,-184"/>
<text text-anchor="middle" x="1632" y="-172" font-family="Helvetica,sans-Serif" font-size="10.00">utils.h</text>
</a>
</g>
</g>
<!-- Node12&#45;&gt;Node16 -->
<g id="edge18" class="edge">
<title>Node12&#45;&gt;Node16</title>
<path fill="none" stroke="#63b8ff" d="M1560.61,-241.6C1573.76,-229.42 1597.62,-207.33 1614.11,-192.06"/>
<polygon fill="#63b8ff" stroke="#63b8ff" points="1616.33,-194.78 1621.29,-185.41 1611.58,-189.64 1616.33,-194.78"/>
</g>
<!-- Node15&#45;&gt;Node13 -->
<g id="edge17" class="edge">
<title>Node15&#45;&gt;Node13</title>
<path fill="none" stroke="#63b8ff" d="M1275.28,-159.1C1268.83,-157.29 1262.27,-155.53 1256,-154 1167.27,-132.3 1061.36,-113.52 1007.05,-104.39"/>
<polygon fill="#63b8ff" stroke="#63b8ff" points="1007.88,-100.98 997.44,-102.79 1006.73,-107.88 1007.88,-100.98"/>
</g>
<!-- Node16&#45;&gt;Node14 -->
<g id="edge21" class="edge">
<title>Node16&#45;&gt;Node14</title>
<path fill="none" stroke="#63b8ff" d="M1624.05,-164.6C1613.37,-152.65 1594.17,-131.15 1580.56,-115.92"/>
<polygon fill="#63b8ff" stroke="#63b8ff" points="1583.22,-113.64 1573.95,-108.52 1578,-118.3 1583.22,-113.64"/>
</g>
<!-- Node17 -->
<g id="node17" class="node">
<title>Node17</title>
<g id="a_node17"><a xlink:title=" ">
<polygon fill="#e0e0e0" stroke="#999999" points="1721.5,-107 1674.5,-107 1674.5,-88 1721.5,-88 1721.5,-107"/>
<text text-anchor="middle" x="1698" y="-95" font-family="Helvetica,sans-Serif" font-size="10.00">math.h</text>
</a>
</g>
</g>
<!-- Node16&#45;&gt;Node17 -->
<g id="edge19" class="edge">
<title>Node16&#45;&gt;Node17</title>
<path fill="none" stroke="#63b8ff" d="M1639.83,-164.6C1650.35,-152.65 1669.27,-131.15 1682.67,-115.92"/>
<polygon fill="#63b8ff" stroke="#63b8ff" points="1685.2,-118.34 1689.18,-108.52 1679.95,-113.72 1685.2,-118.34"/>
</g>
<!-- Node18 -->
<g id="node18" class="node">
<title>Node18</title>
<g id="a_node18"><a xlink:title=" ">
<polygon fill="#e0e0e0" stroke="#999999" points="1786,-107 1740,-107 1740,-88 1786,-88 1786,-107"/>
<text text-anchor="middle" x="1763" y="-95" font-family="Helvetica,sans-Serif" font-size="10.00">stdio.h</text>
</a>
</g>
</g>
<!-- Node16&#45;&gt;Node18 -->
<g id="edge20" class="edge">
<title>Node16&#45;&gt;Node18</title>
<path fill="none" stroke="#63b8ff" d="M1648.22,-164.64C1667.91,-153.83 1702.08,-134.91 1731,-118 1733.65,-116.45 1736.4,-114.81 1739.14,-113.17"/>
<polygon fill="#63b8ff" stroke="#63b8ff" points="1740.7,-116.31 1747.44,-108.13 1737.07,-110.33 1740.7,-116.31"/>
</g>
<!-- Node19 -->
<g id="node19" class="node">
<title>Node19</title>
<g id="a_node19"><a xlink:title=" ">
<polygon fill="#e0e0e0" stroke="#999999" points="1656.5,-107 1607.5,-107 1607.5,-88 1656.5,-88 1656.5,-107"/>
<text text-anchor="middle" x="1632" y="-95" font-family="Helvetica,sans-Serif" font-size="10.00">string.h</text>
</a>
</g>
</g>
<!-- Node16&#45;&gt;Node19 -->
<g id="edge22" class="edge">
<title>Node16&#45;&gt;Node19</title>
<path fill="none" stroke="#63b8ff" d="M1632,-164.6C1632,-153.33 1632,-133.55 1632,-118.56"/>
<polygon fill="#63b8ff" stroke="#63b8ff" points="1635.5,-118.9 1632,-108.9 1628.5,-118.9 1635.5,-118.9"/>
</g>
<!-- Node21&#45;&gt;Node22 -->
<g id="edge26" class="edge">
<title>Node21&#45;&gt;Node22</title>
<path fill="none" stroke="#63b8ff" d="M1159.72,-313.04C1142.48,-300.11 1117.29,-281.21 1099.64,-267.98"/>
<polygon fill="#63b8ff" stroke="#63b8ff" points="1102.03,-265.4 1091.93,-262.2 1097.83,-271 1102.03,-265.4"/>
</g>
<!-- Node23 -->
<g id="node23" class="node">
<title>Node23</title>
<g id="a_node23"><a xlink:title=" ">
<polygon fill="#e0e0e0" stroke="#999999" points="1207.5,-261 1148.5,-261 1148.5,-242 1207.5,-242 1207.5,-261"/>
<text text-anchor="middle" x="1178" y="-249" font-family="Helvetica,sans-Serif" font-size="10.00">DS1820.h</text>
</a>
</g>
</g>
<!-- Node21&#45;&gt;Node23 -->
<g id="edge27" class="edge">
<title>Node21&#45;&gt;Node23</title>
<path fill="none" stroke="#63b8ff" d="M1178.81,-313.04C1178.65,-301.55 1178.44,-285.34 1178.27,-272.59"/>
<polygon fill="#63b8ff" stroke="#63b8ff" points="1181.77,-272.75 1178.14,-262.8 1174.77,-272.85 1181.77,-272.75"/>
</g>
<!-- Node24&#45;&gt;Node13 -->
<g id="edge29" class="edge">
<title>Node24&#45;&gt;Node13</title>
<path fill="none" stroke="#63b8ff" d="M847.61,-164.6C871.5,-151.8 915.82,-128.06 944.33,-112.79"/>
<polygon fill="#63b8ff" stroke="#63b8ff" points="945.92,-115.91 953.08,-108.1 942.61,-109.74 945.92,-115.91"/>
</g>
<!-- Node26&#45;&gt;Node13 -->
<g id="edge32" class="edge">
<title>Node26&#45;&gt;Node13</title>
<path fill="none" stroke="#63b8ff" d="M706.53,-318.53C716.35,-283.82 751.72,-159.99 758,-154 806.32,-107.89 887.95,-98.87 934.88,-97.79"/>
<polygon fill="#63b8ff" stroke="#63b8ff" points="934.83,-101.29 944.79,-97.69 934.75,-94.29 934.83,-101.29"/>
</g>
<!-- Node27 -->
<g id="node27" class="node">
<title>Node27</title>
<g id="a_node27"><a xlink:href="port__config_8h.html" target="_top" xlink:title="Archivo de configuración para los puertos de la placa donde se implementará el sistema.">
<polygon fill="white" stroke="#666666" points="710,-261 638,-261 638,-242 710,-242 710,-261"/>
<text text-anchor="middle" x="674" y="-249" font-family="Helvetica,sans-Serif" font-size="10.00">port_config.h</text>
</a>
</g>
</g>
<!-- Node26&#45;&gt;Node27 -->
<g id="edge33" class="edge">
<title>Node26&#45;&gt;Node27</title>
<path fill="none" stroke="#63b8ff" d="M700.44,-318.6C695.84,-307.1 687.7,-286.76 681.67,-271.67"/>
<polygon fill="#63b8ff" stroke="#63b8ff" points="685.08,-270.78 678.12,-262.79 678.58,-273.38 685.08,-270.78"/>
</g>
<!-- Node28&#45;&gt;Node13 -->
<g id="edge35" class="edge">
<title>Node28&#45;&gt;Node13</title>
<path fill="none" stroke="#63b8ff" d="M603.39,-318.66C604.58,-300.6 609.41,-258.8 629,-231 663.58,-181.92 685.2,-178.54 740,-154 805.27,-124.76 888.11,-109.67 934.76,-102.97"/>
<polygon fill="#63b8ff" stroke="#63b8ff" points="935.16,-106.45 944.59,-101.62 934.2,-99.52 935.16,-106.45"/>
</g>
<!-- Node28&#45;&gt;Node27 -->
<g id="edge36" class="edge">
<title>Node28&#45;&gt;Node27</title>
<path fill="none" stroke="#63b8ff" d="M611.42,-318.6C622.85,-306.54 643.48,-284.74 657.92,-269.49"/>
<polygon fill="#63b8ff" stroke="#63b8ff" points="660.21,-272.15 664.55,-262.49 655.13,-267.34 660.21,-272.15"/>
</g>
<!-- Node29&#45;&gt;Node13 -->
<g id="edge38" class="edge">
<title>Node29&#45;&gt;Node13</title>
<path fill="none" stroke="#63b8ff" d="M1055.54,-318.81C1045.89,-308.45 1030.27,-290.26 1021,-272 994.56,-219.94 980.13,-151.78 974.22,-118.51"/>
<polygon fill="#63b8ff" stroke="#63b8ff" points="977.69,-118 972.57,-108.72 970.78,-119.17 977.69,-118"/>
</g>
<!-- Node29&#45;&gt;Node22 -->
<g id="edge40" class="edge">
<title>Node29&#45;&gt;Node22</title>
<path fill="none" stroke="#63b8ff" d="M1065.78,-318.6C1068.03,-307.33 1071.99,-287.55 1074.99,-272.56"/>
<polygon fill="#63b8ff" stroke="#63b8ff" points="1078.4,-273.36 1076.93,-262.87 1071.53,-271.99 1078.4,-273.36"/>
</g>
<!-- Node29&#45;&gt;Node25 -->
<g id="edge39" class="edge">
<title>Node29&#45;&gt;Node25</title>
<path fill="none" stroke="#63b8ff" d="M1089.22,-318.56C1129.28,-304.31 1204.16,-277.51 1216,-272 1219.23,-270.5 1222.56,-268.8 1225.81,-267.04"/>
<polygon fill="#63b8ff" stroke="#63b8ff" points="1227.44,-270.14 1234.41,-262.16 1223.99,-264.05 1227.44,-270.14"/>
</g>
<!-- Node30&#45;&gt;Node13 -->
<g id="edge42" class="edge">
<title>Node30&#45;&gt;Node13</title>
<path fill="none" stroke="#63b8ff" d="M1362.91,-313.19C1347.7,-292.53 1317.03,-254.29 1283,-231 1171.23,-154.52 1119.76,-181.25 1000,-118 997.56,-116.71 995.06,-115.26 992.62,-113.75"/>
<polygon fill="#63b8ff" stroke="#63b8ff" points="994.6,-110.87 984.32,-108.28 990.75,-116.71 994.6,-110.87"/>
</g>
<!-- Node30&#45;&gt;Node25 -->
<g id="edge43" class="edge">
<title>Node30&#45;&gt;Node25</title>
<path fill="none" stroke="#63b8ff" d="M1349.28,-313.04C1327.69,-299.87 1295.94,-280.51 1274.19,-267.25"/>
<polygon fill="#63b8ff" stroke="#63b8ff" points="1276.06,-264.29 1265.7,-262.08 1272.42,-270.27 1276.06,-264.29"/>
</g>
<!-- Node31&#45;&gt;Node13 -->
<g id="edge45" class="edge">
<title>Node31&#45;&gt;Node13</title>
<path fill="none" stroke="#63b8ff" d="M849.94,-318.52C868.6,-284.6 935.06,-163.82 960.76,-117.12"/>
<polygon fill="#63b8ff" stroke="#63b8ff" points="963.75,-118.94 965.5,-108.5 957.61,-115.57 963.75,-118.94"/>
</g>
<!-- Node31&#45;&gt;Node22 -->
<g id="edge46" class="edge">
<title>Node31&#45;&gt;Node22</title>
<path fill="none" stroke="#63b8ff" d="M867.47,-318.52C876.31,-315.08 886.58,-311.22 896,-308 943.54,-291.73 998.83,-275.3 1036.09,-264.58"/>
<polygon fill="#63b8ff" stroke="#63b8ff" points="1036.94,-267.98 1045.59,-261.86 1035.01,-261.25 1036.94,-267.98"/>
</g>
<!-- Node32&#45;&gt;Node6 -->
<g id="edge48" class="edge">
<title>Node32&#45;&gt;Node6</title>
<path fill="none" stroke="#63b8ff" d="M469.17,-344.27C476.88,-345.98 484.61,-347.61 492,-349 582.44,-365.99 688.1,-379.18 752.07,-386.65"/>
<polygon fill="#63b8ff" stroke="#63b8ff" points="751.29,-390.08 761.63,-387.76 752.1,-383.13 751.29,-390.08"/>
</g>
<!-- Node32&#45;&gt;Node9 -->
<g id="edge49" class="edge">
<title>Node32&#45;&gt;Node9</title>
<path fill="none" stroke="#63b8ff" d="M384.13,-307.73C376.32,-297.77 368.04,-285.05 364,-272 347.13,-217.51 363.46,-118.8 390,-77 397.36,-65.41 408.11,-55.58 419.35,-47.57"/>
<polygon fill="#63b8ff" stroke="#63b8ff" points="421.19,-50.55 427.59,-42.1 417.32,-44.72 421.19,-50.55"/>
</g>
<!-- Node33 -->
<g id="node33" class="node">
<title>Node33</title>
<g id="a_node33"><a xlink:href="_idle__state_8h.html" target="_top" xlink:title="Clase de estado de reposo.">
<polygon fill="white" stroke="#666666" points="489,-272 373,-272 373,-231 489,-231 489,-272"/>
<text text-anchor="start" x="381" y="-260" font-family="Helvetica,sans-Serif" font-size="10.00">machine_state_pattern</text>
<text text-anchor="start" x="381" y="-249" font-family="Helvetica,sans-Serif" font-size="10.00">/machine_states/Idle</text>
<text text-anchor="middle" x="431" y="-238" font-family="Helvetica,sans-Serif" font-size="10.00">_state.h</text>
</a>
</g>
</g>
<!-- Node32&#45;&gt;Node33 -->
<g id="edge50" class="edge">
<title>Node32&#45;&gt;Node33</title>
<path fill="none" stroke="#63b8ff" d="M409.62,-307.79C412.56,-300.19 415.99,-291.31 419.23,-282.93"/>
<polygon fill="#63b8ff" stroke="#63b8ff" points="422.44,-284.34 422.78,-273.75 415.91,-281.81 422.44,-284.34"/>
</g>
<!-- Node33&#45;&gt;Node6 -->
<g id="edge51" class="edge">
<title>Node33&#45;&gt;Node6</title>
<path fill="none" stroke="#63b8ff" d="M448.07,-272.14C471.55,-298.94 511.94,-344.21 521,-349 560.03,-369.64 679.45,-382.78 751.99,-389.08"/>
<polygon fill="#63b8ff" stroke="#63b8ff" points="751.44,-392.54 761.7,-389.9 752.03,-385.57 751.44,-392.54"/>
</g>
<!-- Node33&#45;&gt;Node9 -->
<g id="edge52" class="edge">
<title>Node33&#45;&gt;Node9</title>
<path fill="none" stroke="#63b8ff" d="M420.7,-230.73C404.85,-197.41 378.72,-128.63 403,-77 408.16,-66.02 416.68,-56.47 425.94,-48.52"/>
<polygon fill="#63b8ff" stroke="#63b8ff" points="428.09,-51.29 433.78,-42.35 423.76,-45.79 428.09,-51.29"/>
</g>
<!-- Node34 -->
<g id="node34" class="node">
<title>Node34</title>
<g id="a_node34"><a xlink:href="_motor__control__state_8h.html" target="_top" xlink:title="Clase de estado de control del motor.">
<polygon fill="white" stroke="#666666" points="528,-118 412,-118 412,-77 528,-77 528,-118"/>
<text text-anchor="start" x="420" y="-106" font-family="Helvetica,sans-Serif" font-size="10.00">machine_state_pattern</text>
<text text-anchor="start" x="420" y="-95" font-family="Helvetica,sans-Serif" font-size="10.00">/machine_states/Motor</text>
<text text-anchor="middle" x="470" y="-84" font-family="Helvetica,sans-Serif" font-size="10.00">_control_state.h</text>
</a>
</g>
</g>
<!-- Node33&#45;&gt;Node34 -->
<g id="edge53" class="edge">
<title>Node33&#45;&gt;Node34</title>
<path fill="none" stroke="#63b8ff" d="M431.37,-230.63C435.61,-204.8 446.98,-159.42 456.59,-129.16"/>
<polygon fill="#63b8ff" stroke="#63b8ff" points="459.86,-130.41 459.69,-119.81 453.22,-128.2 459.86,-130.41"/>
</g>
<!-- Node35 -->
<g id="node35" class="node">
<title>Node35</title>
<g id="a_node35"><a xlink:href="_check__instruction__state_8h_source.html" target="_top" xlink:title=" ">
<polygon fill="white" stroke="#666666" points="587.5,-195 468.5,-195 468.5,-154 587.5,-154 587.5,-195"/>
<text text-anchor="start" x="476.5" y="-183" font-family="Helvetica,sans-Serif" font-size="10.00">machine_state_pattern</text>
<text text-anchor="start" x="476.5" y="-172" font-family="Helvetica,sans-Serif" font-size="10.00">/machine_states/Check</text>
<text text-anchor="middle" x="528" y="-161" font-family="Helvetica,sans-Serif" font-size="10.00">_instruction_state.h</text>
</a>
</g>
</g>
<!-- Node33&#45;&gt;Node35 -->
<g id="edge61" class="edge">
<title>Node33&#45;&gt;Node35</title>
<path fill="none" stroke="#63b8ff" d="M456.74,-230.6C467.92,-221.95 481.19,-211.69 493.23,-202.39"/>
<polygon fill="#63b8ff" stroke="#63b8ff" points="495.17,-205.31 500.94,-196.42 490.89,-199.77 495.17,-205.31"/>
</g>
<!-- Node34&#45;&gt;Node6 -->
<g id="edge54" class="edge">
<title>Node34&#45;&gt;Node6</title>
<path fill="none" stroke="#63b8ff" d="M443.07,-118.24C384.94,-163.12 258.22,-274.7 326,-349 354.2,-379.91 629.26,-389.64 751.71,-392.45"/>
<polygon fill="#63b8ff" stroke="#63b8ff" points="751.49,-395.94 761.56,-392.67 751.64,-388.95 751.49,-395.94"/>
</g>
<!-- Node34&#45;&gt;Node9 -->
<g id="edge55" class="edge">
<title>Node34&#45;&gt;Node9</title>
<path fill="none" stroke="#63b8ff" d="M470,-76.79C470,-69.45 470,-60.91 470,-52.78"/>
<polygon fill="#63b8ff" stroke="#63b8ff" points="473.5,-52.85 470,-42.85 466.5,-52.85 473.5,-52.85"/>
</g>
<!-- Node34&#45;&gt;Node33 -->
<g id="edge56" class="edge">
<title>Node34&#45;&gt;Node33</title>
<path fill="none" stroke="#63b8ff" d="M469.63,-118.38C465.39,-144.21 454.02,-189.59 444.41,-219.84"/>
<polygon fill="#63b8ff" stroke="#63b8ff" points="441.13,-218.6 441.31,-229.19 447.78,-220.8 441.13,-218.6"/>
</g>
<!-- Node34&#45;&gt;Node35 -->
<g id="edge57" class="edge">
<title>Node34&#45;&gt;Node35</title>
<path fill="none" stroke="#63b8ff" d="M491.37,-118.33C498.3,-126.38 505.79,-135.83 512.26,-144.62"/>
<polygon fill="#63b8ff" stroke="#63b8ff" points="509.26,-146.44 517.91,-152.56 514.96,-142.38 509.26,-146.44"/>
</g>
<!-- Node35&#45;&gt;Node6 -->
<g id="edge58" class="edge">
<title>Node35&#45;&gt;Node6</title>
<path fill="none" stroke="#63b8ff" d="M524.31,-195.33C518.88,-231.29 513.35,-307.39 554,-349 580.82,-376.45 685.08,-387.07 752,-391.11"/>
<polygon fill="#63b8ff" stroke="#63b8ff" points="751.52,-394.58 761.7,-391.66 751.91,-387.6 751.52,-394.58"/>
</g>
<!-- Node35&#45;&gt;Node9 -->
<g id="edge59" class="edge">
<title>Node35&#45;&gt;Node9</title>
<path fill="none" stroke="#63b8ff" d="M535.56,-153.62C542,-133.36 548.53,-101.52 537,-77 531.84,-66.02 523.32,-56.47 514.06,-48.52"/>
<polygon fill="#63b8ff" stroke="#63b8ff" points="516.24,-45.79 506.22,-42.35 511.91,-51.29 516.24,-45.79"/>
</g>
<!-- Node35&#45;&gt;Node34 -->
<g id="edge60" class="edge">
<title>Node35&#45;&gt;Node34</title>
<path fill="none" stroke="#63b8ff" d="M506.74,-153.79C499.82,-145.76 492.32,-136.31 485.85,-127.52"/>
<polygon fill="#63b8ff" stroke="#63b8ff" points="488.83,-125.68 480.18,-119.57 483.13,-129.74 488.83,-125.68"/>
</g>
</g>
</svg>
        <g id="navigator" transform="translate(0 0)" fill="#404254">
                <rect fill="#f2f5e9" fill-opacity="0.5" stroke="#606060" stroke-width=".5" x="0" y="0" width="60" height="60"/>
                <use id="zoomplus" xlink:href="#zoomPlus" x="17" y="9" onmousedown="handleZoom(evt,'in')"/>
                <use id="zoomminus" xlink:href="#zoomMin" x="42" y="9" onmousedown="handleZoom(evt,'out')"/>
                <use id="reset" xlink:href="#resetDef" x="30" y="36" onmousedown="handleReset()"/>
                <g id="arrowUp" xlink:href="#dirArrow" transform="translate(30 24)" onmousedown="handlePan(0,-1)">
                  <use xlink:href="#rim" fill="#404040">
                        <set attributeName="fill" to="#808080" begin="arrowUp.mouseover" end="arrowUp.mouseout"/>
                  </use>
                  <path fill="none" stroke="white" stroke-width="1.5" d="M0,-3.0v7 M-2.5,-0.5L0,-3.0L2.5,-0.5"/>
                </g>
                <g id="arrowRight" xlink:href="#dirArrow" transform="rotate(90) translate(36 -43)" onmousedown="handlePan(1,0)">
                  <use xlink:href="#rim" fill="#404040">
                        <set attributeName="fill" to="#808080" begin="arrowRight.mouseover" end="arrowRight.mouseout"/>
                  </use>
                  <path fill="none" stroke="white" stroke-width="1.5" d="M0,-3.0v7 M-2.5,-0.5L0,-3.0L2.5,-0.5"/>
                </g>
                <g id="arrowDown" xlink:href="#dirArrow" transform="rotate(180) translate(-30 -48)" onmousedown="handlePan(0,1)">
                  <use xlink:href="#rim" fill="#404040">
                        <set attributeName="fill" to="#808080" begin="arrowDown.mouseover" end="arrowDown.mouseout"/>
                  </use>
                  <path fill="none" stroke="white" stroke-width="1.5" d="M0,-3.0v7 M-2.5,-0.5L0,-3.0L2.5,-0.5"/>
                </g>
                <g id="arrowLeft" xlink:href="#dirArrow" transform="rotate(270) translate(-36 17)" onmousedown="handlePan(-1,0)">
                  <use xlink:href="#rim" fill="#404040">
                        <set attributeName="fill" to="#808080" begin="arrowLeft.mouseover" end="arrowLeft.mouseout"/>
                  </use>
                  <path fill="none" stroke="white" stroke-width="1.5" d="M0,-3.0v7 M-2.5,-0.5L0,-3.0L2.5,-0.5"/>
                </g>
        </g>
        <svg viewBox="0 0 15 15" width="100%" height="30px" preserveAspectRatio="xMaxYMin meet">
         <g id="arrow_out" transform="scale(0.3 0.3)">
          <a xlink:href="_temperature__observer_8h__incl_org.svg" target="_base">
           <rect id="button" ry="5" rx="5" y="6" x="6" height="38" width="38"
                fill="#f2f5e9" fill-opacity="0.5" stroke="#606060" stroke-width="1.0"/>
           <path id="arrow"
             d="M 11.500037,31.436501 C 11.940474,20.09759 22.043105,11.32322 32.158766,21.979434 L 37.068811,17.246167 C 37.068811,17.246167 37.088388,32 37.088388,32 L 22.160133,31.978069 C 22.160133,31.978069 26.997745,27.140456 26.997745,27.140456 C 18.528582,18.264221 13.291696,25.230495 11.500037,31.436501 z"
             style="fill:#404040;"/>
          </a>
         </g>
        </svg>
</svg>
