<?xml version="1.0" encoding="UTF-8" standalone="no"?>
<!DOCTYPE svg PUBLIC "-//W3C//DTD SVG 1.1//EN"
 "http://www.w3.org/Graphics/SVG/1.1/DTD/svg11.dtd">
<!-- Generated by graphviz version 7.0.2 (20221119.0110)
 -->
<!-- Title: Control_system::reset Pages: 1 -->
<svg width="447pt" height="113pt"
 viewBox="0.00 0.00 447.00 112.50" xmlns="http://www.w3.org/2000/svg" xmlns:xlink="http://www.w3.org/1999/xlink">
<g id="graph0" class="graph" transform="scale(1 1) rotate(0) translate(4 108.5)">
<title>Control_system::reset</title>
<!-- Node1 -->
<g id="node1" class="node">
<title>Node1</title>
<g id="a_node1"><a xlink:title="Apaga todos los periféricos a excepción del display. Asigna false a solictudes de alarma,...">
<polygon fill="#999999" stroke="#666666" points="439,-67.5 326,-67.5 326,-48.5 439,-48.5 439,-67.5"/>
<text text-anchor="middle" x="382.5" y="-55.5" font-family="Helvetica,sans-Serif" font-size="10.00">Control_system::reset</text>
</a>
</g>
</g>
<!-- Node2 -->
<g id="node2" class="node">
<title>Node2</title>
<g id="a_node2"><a xlink:href="class_shutdown__state.html#accbc4c856709e26453e2e23c5c1e4f8e" target="_top" xlink:title="Salida del estado, resetea las variables del sistema e incializa la pantalla.">
<polygon fill="white" stroke="#666666" points="283,-104.5 175,-104.5 175,-85.5 283,-85.5 283,-104.5"/>
<text text-anchor="middle" x="229" y="-92.5" font-family="Helvetica,sans-Serif" font-size="10.00">Shutdown_state::exit</text>
</a>
</g>
</g>
<!-- Node1&#45;&gt;Node2 -->
<g id="edge1" class="edge">
<title>Node1&#45;&gt;Node2</title>
<path fill="none" stroke="#63b8ff" d="M329.85,-70.62C310.54,-75.33 288.9,-80.62 270.71,-85.06"/>
<polygon fill="#63b8ff" stroke="#63b8ff" points="330.55,-74.05 339.43,-68.27 328.89,-67.25 330.55,-74.05"/>
</g>
<!-- Node4 -->
<g id="node4" class="node">
<title>Node4</title>
<g id="a_node4"><a xlink:href="class_control__system.html#a660ab5ac86df7cdefbbfe0942b00e13b" target="_top" xlink:title="Inicializa el sistema en estado apagado.">
<polygon fill="white" stroke="#666666" points="281,-67.5 177,-67.5 177,-48.5 281,-48.5 281,-67.5"/>
<text text-anchor="middle" x="229" y="-55.5" font-family="Helvetica,sans-Serif" font-size="10.00">Control_system::init</text>
</a>
</g>
</g>
<!-- Node1&#45;&gt;Node4 -->
<g id="edge3" class="edge">
<title>Node1&#45;&gt;Node4</title>
<path fill="none" stroke="#63b8ff" d="M314.14,-58C303.09,-58 291.81,-58 281.24,-58"/>
<polygon fill="#63b8ff" stroke="#63b8ff" points="314,-61.5 324,-58 314,-54.5 314,-61.5"/>
</g>
<!-- Node5 -->
<g id="node5" class="node">
<title>Node5</title>
<g id="a_node5"><a xlink:href="class_check__instruction__state.html#a161d1ccae3db7c6ac372b56877dc05f2" target="_top" xlink:title="Actualización de estado, si existe una solicitud de apagado el sistema se resetea.">
<polygon fill="white" stroke="#666666" points="290,-30 168,-30 168,0 290,0 290,-30"/>
<text text-anchor="start" x="176" y="-18" font-family="Helvetica,sans-Serif" font-size="10.00">Check_instruction_state</text>
<text text-anchor="middle" x="229" y="-7" font-family="Helvetica,sans-Serif" font-size="10.00">::update</text>
</a>
</g>
</g>
<!-- Node1&#45;&gt;Node5 -->
<g id="edge4" class="edge">
<title>Node1&#45;&gt;Node5</title>
<path fill="none" stroke="#63b8ff" d="M335.6,-44.97C319.51,-40.4 301.27,-35.23 284.53,-30.48"/>
<polygon fill="#63b8ff" stroke="#63b8ff" points="334.33,-48.25 344.91,-47.61 336.24,-41.52 334.33,-48.25"/>
</g>
<!-- Node3 -->
<g id="node3" class="node">
<title>Node3</title>
<g id="a_node3"><a xlink:href="class_shutdown__state.html#ae02b2fd80173aa50afcd73faba01b9be" target="_top" xlink:title="Transicion de estados.">
<polygon fill="white" stroke="#666666" points="132,-104.5 0,-104.5 0,-85.5 132,-85.5 132,-104.5"/>
<text text-anchor="middle" x="66" y="-92.5" font-family="Helvetica,sans-Serif" font-size="10.00">Shutdown_state::transition</text>
</a>
</g>
</g>
<!-- Node2&#45;&gt;Node3 -->
<g id="edge2" class="edge">
<title>Node2&#45;&gt;Node3</title>
<path fill="none" stroke="#63b8ff" d="M163.49,-95C153.27,-95 142.7,-95 132.46,-95"/>
<polygon fill="#63b8ff" stroke="#63b8ff" points="163.32,-98.5 173.32,-95 163.32,-91.5 163.32,-98.5"/>
</g>
</g>
</svg>
