<?xml version="1.0" encoding="UTF-8" standalone="no"?>
<!DOCTYPE svg PUBLIC "-//W3C//DTD SVG 1.1//EN"
 "http://www.w3.org/Graphics/SVG/1.1/DTD/svg11.dtd">
<!-- Generated by graphviz version 7.0.2 (20221119.0110)
 -->
<!-- Title: hd44780_I2Cexp::print Pages: 1 -->
<svg width="428pt" height="113pt"
 viewBox="0.00 0.00 428.00 113.00" xmlns="http://www.w3.org/2000/svg" xmlns:xlink="http://www.w3.org/1999/xlink">
<g id="graph0" class="graph" transform="scale(1 1) rotate(0) translate(4 109)">
<title>hd44780_I2Cexp::print</title>
<!-- Node1 -->
<g id="node1" class="node">
<title>Node1</title>
<g id="a_node1"><a xlink:title="Imprime una cadena de texto en la posición actual del cursor.">
<polygon fill="#999999" stroke="#666666" points="420,-80 307,-80 307,-61 420,-61 420,-80"/>
<text text-anchor="middle" x="363.5" y="-68" font-family="Helvetica,sans-Serif" font-size="10.00">hd44780_I2Cexp::print</text>
</a>
</g>
</g>
<!-- Node2 -->
<g id="node2" class="node">
<title>Node2</title>
<g id="a_node2"><a xlink:href="classhd44780___i2_cexp.html#a09bc6db023d62c79fe753d85cc0567ee" target="_top" xlink:title="Imprime un número entero en la posición actual del cursor.">
<polygon fill="white" stroke="#666666" points="271,-99 158,-99 158,-80 271,-80 271,-99"/>
<text text-anchor="middle" x="214.5" y="-87" font-family="Helvetica,sans-Serif" font-size="10.00">hd44780_I2Cexp::print</text>
</a>
</g>
</g>
<!-- Node1&#45;&gt;Node2 -->
<g id="edge1" class="edge">
<title>Node1&#45;&gt;Node2</title>
<path fill="none" stroke="#63b8ff" d="M295.29,-79.19C287.28,-80.22 279.17,-81.27 271.34,-82.28"/>
<polygon fill="#63b8ff" stroke="#63b8ff" points="295.54,-82.68 305.01,-77.93 294.64,-75.74 295.54,-82.68"/>
</g>
<!-- Node3 -->
<g id="node3" class="node">
<title>Node3</title>
<g id="a_node3"><a xlink:href="class_display.html#ad2740b779d61e461c4dcaaf34f1fcd8f" target="_top" xlink:title="Actualiza los valores en pantalla con los parámetros previamente fijados. Solo actualiza la pantalla ...">
<polygon fill="white" stroke="#666666" points="256.5,-62 172.5,-62 172.5,-43 256.5,-43 256.5,-62"/>
<text text-anchor="middle" x="214.5" y="-50" font-family="Helvetica,sans-Serif" font-size="10.00">Display::update</text>
</a>
</g>
</g>
<!-- Node1&#45;&gt;Node3 -->
<g id="edge2" class="edge">
<title>Node1&#45;&gt;Node3</title>
<path fill="none" stroke="#63b8ff" d="M295.1,-62.25C282.01,-60.64 268.65,-59.01 256.71,-57.55"/>
<polygon fill="#63b8ff" stroke="#63b8ff" points="294.65,-65.72 305,-63.46 295.5,-58.77 294.65,-65.72"/>
</g>
<!-- Node4 -->
<g id="node4" class="node">
<title>Node4</title>
<g id="a_node4"><a xlink:href="class_alarm__state.html#acea6eee2b8d267b67192bbce9e495038" target="_top" xlink:title="Actualización, cambia el color del LED según el estado del motor y hace sonar la alarma....">
<polygon fill="white" stroke="#666666" points="113,-105 9,-105 9,-86 113,-86 113,-105"/>
<text text-anchor="middle" x="61" y="-93" font-family="Helvetica,sans-Serif" font-size="10.00">Alarm_state::update</text>
</a>
</g>
</g>
<!-- Node3&#45;&gt;Node4 -->
<g id="edge3" class="edge">
<title>Node3&#45;&gt;Node4</title>
<path fill="none" stroke="#63b8ff" d="M167.34,-65.6C144.79,-72 118.09,-79.58 97.21,-85.51"/>
<polygon fill="#63b8ff" stroke="#63b8ff" points="168.24,-68.98 176.91,-62.89 166.33,-62.25 168.24,-68.98"/>
</g>
<!-- Node5 -->
<g id="node5" class="node">
<title>Node5</title>
<g id="a_node5"><a xlink:href="class_check__instruction__state.html#a161d1ccae3db7c6ac372b56877dc05f2" target="_top" xlink:title="Método para actualizar el estado.">
<polygon fill="white" stroke="#666666" points="122,-67.5 0,-67.5 0,-37.5 122,-37.5 122,-67.5"/>
<text text-anchor="start" x="8" y="-55.5" font-family="Helvetica,sans-Serif" font-size="10.00">Check_instruction_state</text>
<text text-anchor="middle" x="61" y="-44.5" font-family="Helvetica,sans-Serif" font-size="10.00">::update</text>
</a>
</g>
</g>
<!-- Node3&#45;&gt;Node5 -->
<g id="edge4" class="edge">
<title>Node3&#45;&gt;Node5</title>
<path fill="none" stroke="#63b8ff" d="M160.59,-52.5C148.25,-52.5 135.02,-52.5 122.38,-52.5"/>
<polygon fill="#63b8ff" stroke="#63b8ff" points="160.59,-56 170.59,-52.5 160.59,-49 160.59,-56"/>
</g>
<!-- Node6 -->
<g id="node6" class="node">
<title>Node6</title>
<g id="a_node6"><a xlink:href="class_idle__state.html#a92217c98eda8e3bd47eb3a8ff602efc2" target="_top" xlink:title="Método para actualizar el sistema cuando está en estado de reposo. Actualiza la pantalla y los observ...">
<polygon fill="white" stroke="#666666" points="108,-19 14,-19 14,0 108,0 108,-19"/>
<text text-anchor="middle" x="61" y="-7" font-family="Helvetica,sans-Serif" font-size="10.00">Idle_state::update</text>
</a>
</g>
</g>
<!-- Node3&#45;&gt;Node6 -->
<g id="edge5" class="edge">
<title>Node3&#45;&gt;Node6</title>
<path fill="none" stroke="#63b8ff" d="M167.34,-39.4C144.79,-33 118.09,-25.42 97.21,-19.49"/>
<polygon fill="#63b8ff" stroke="#63b8ff" points="166.33,-42.75 176.91,-42.11 168.24,-36.02 166.33,-42.75"/>
</g>
</g>
</svg>
