<?xml version="1.0" encoding="UTF-8" standalone="no"?>
<!DOCTYPE svg PUBLIC "-//W3C//DTD SVG 1.1//EN"
 "http://www.w3.org/Graphics/SVG/1.1/DTD/svg11.dtd">
<!-- Generated by graphviz version 7.0.2 (20221119.0110)
 -->
<!-- Title: hd44780_I2Cexp::clear Pages: 1 -->
<svg width="595pt" height="187pt"
 viewBox="0.00 0.00 595.00 187.00" xmlns="http://www.w3.org/2000/svg" xmlns:xlink="http://www.w3.org/1999/xlink">
<g id="graph0" class="graph" transform="scale(1 1) rotate(0) translate(4 183)">
<title>hd44780_I2Cexp::clear</title>
<!-- Node1 -->
<g id="node1" class="node">
<title>Node1</title>
<g id="a_node1"><a xlink:title="Borra el texto de la pantalla.">
<polygon fill="#999999" stroke="#666666" points="587,-142 471,-142 471,-123 587,-123 587,-142"/>
<text text-anchor="middle" x="529" y="-130" font-family="Helvetica,sans-Serif" font-size="10.00">hd44780_I2Cexp::clear</text>
</a>
</g>
</g>
<!-- Node2 -->
<g id="node2" class="node">
<title>Node2</title>
<g id="a_node2"><a xlink:href="classhd44780___i2_cexp.html#af598cd1e4f7112c0b315db260d168e92" target="_top" xlink:title="Desactiva la retroiluminación.">
<polygon fill="white" stroke="#666666" points="434.5,-179 308.5,-179 308.5,-160 434.5,-160 434.5,-179"/>
<text text-anchor="middle" x="371.5" y="-167" font-family="Helvetica,sans-Serif" font-size="10.00">hd44780_I2Cexp::turn_off</text>
</a>
</g>
</g>
<!-- Node1&#45;&gt;Node2 -->
<g id="edge1" class="edge">
<title>Node1&#45;&gt;Node2</title>
<path fill="none" stroke="#63b8ff" d="M475.26,-145.05C455.37,-149.78 433.04,-155.1 414.29,-159.56"/>
<polygon fill="#63b8ff" stroke="#63b8ff" points="475.94,-148.49 484.86,-142.77 474.32,-141.68 475.94,-148.49"/>
</g>
<!-- Node5 -->
<g id="node5" class="node">
<title>Node5</title>
<g id="a_node5"><a xlink:href="classhd44780___i2_cexp.html#a11909704f0608b3f7cbc4877c40eb15c" target="_top" xlink:title="Activa la retroiluminación.">
<polygon fill="white" stroke="#666666" points="435,-142 308,-142 308,-123 435,-123 435,-142"/>
<text text-anchor="middle" x="371.5" y="-130" font-family="Helvetica,sans-Serif" font-size="10.00">hd44780_I2Cexp::turn_on</text>
</a>
</g>
</g>
<!-- Node1&#45;&gt;Node5 -->
<g id="edge4" class="edge">
<title>Node1&#45;&gt;Node5</title>
<path fill="none" stroke="#63b8ff" d="M459.13,-132.5C451.26,-132.5 443.27,-132.5 435.48,-132.5"/>
<polygon fill="#63b8ff" stroke="#63b8ff" points="459.03,-136 469.03,-132.5 459.03,-129 459.03,-136"/>
</g>
<!-- Node7 -->
<g id="node7" class="node">
<title>Node7</title>
<g id="a_node7"><a xlink:href="class_display.html#ad2740b779d61e461c4dcaaf34f1fcd8f" target="_top" xlink:title="Actualiza los valores en pantalla con los parámetros previamente fijados. Solo actualiza la pantalla ...">
<polygon fill="white" stroke="#666666" points="413.5,-84 329.5,-84 329.5,-65 413.5,-65 413.5,-84"/>
<text text-anchor="middle" x="371.5" y="-72" font-family="Helvetica,sans-Serif" font-size="10.00">Display::update</text>
</a>
</g>
</g>
<!-- Node1&#45;&gt;Node7 -->
<g id="edge6" class="edge">
<title>Node1&#45;&gt;Node7</title>
<path fill="none" stroke="#63b8ff" d="M490.6,-118.55C462.37,-108.02 424.33,-93.83 399.14,-84.44"/>
<polygon fill="#63b8ff" stroke="#63b8ff" points="489.26,-121.79 499.85,-122 491.7,-115.23 489.26,-121.79"/>
</g>
<!-- Node3 -->
<g id="node3" class="node">
<title>Node3</title>
<g id="a_node3"><a xlink:href="class_display.html#a140c7f61de37b0b01e29d36005dc0048" target="_top" xlink:title="limpia los caracteres de la pantalla y apaga la retroiluminación, no inhibe la escritura en pantalla.">
<polygon fill="white" stroke="#666666" points="254,-179 168,-179 168,-160 254,-160 254,-179"/>
<text text-anchor="middle" x="211" y="-167" font-family="Helvetica,sans-Serif" font-size="10.00">Display::turn_off</text>
</a>
</g>
</g>
<!-- Node2&#45;&gt;Node3 -->
<g id="edge2" class="edge">
<title>Node2&#45;&gt;Node3</title>
<path fill="none" stroke="#63b8ff" d="M297.2,-169.5C282.55,-169.5 267.64,-169.5 254.46,-169.5"/>
<polygon fill="#63b8ff" stroke="#63b8ff" points="296.8,-173 306.8,-169.5 296.8,-166 296.8,-173"/>
</g>
<!-- Node4 -->
<g id="node4" class="node">
<title>Node4</title>
<g id="a_node4"><a xlink:href="class_shutdown__state.html#a2756e0a67cb9371a3c8d722b2a661efa" target="_top" xlink:title="Entrada al estado, apaga los LEDS, la pantalla y apaga el motor.">
<polygon fill="white" stroke="#666666" points="114,-179 0,-179 0,-160 114,-160 114,-179"/>
<text text-anchor="middle" x="57" y="-167" font-family="Helvetica,sans-Serif" font-size="10.00">Shutdown_state::enter</text>
</a>
</g>
</g>
<!-- Node3&#45;&gt;Node4 -->
<g id="edge3" class="edge">
<title>Node3&#45;&gt;Node4</title>
<path fill="none" stroke="#63b8ff" d="M156.48,-169.5C142.83,-169.5 128.11,-169.5 114.32,-169.5"/>
<polygon fill="#63b8ff" stroke="#63b8ff" points="156.15,-173 166.15,-169.5 156.15,-166 156.15,-173"/>
</g>
<!-- Node6 -->
<g id="node6" class="node">
<title>Node6</title>
<g id="a_node6"><a xlink:href="class_display.html#ac2763dd7748bd3de2c0c24bc6d89011e" target="_top" xlink:title="Enciende la retroiluminación y limpia los caracteres de la pantalla.">
<polygon fill="white" stroke="#666666" points="254.5,-142 167.5,-142 167.5,-123 254.5,-123 254.5,-142"/>
<text text-anchor="middle" x="211" y="-130" font-family="Helvetica,sans-Serif" font-size="10.00">Display::turn_on</text>
</a>
</g>
</g>
<!-- Node5&#45;&gt;Node6 -->
<g id="edge5" class="edge">
<title>Node5&#45;&gt;Node6</title>
<path fill="none" stroke="#63b8ff" d="M296.46,-132.5C282.13,-132.5 267.59,-132.5 254.69,-132.5"/>
<polygon fill="#63b8ff" stroke="#63b8ff" points="296.34,-136 306.34,-132.5 296.34,-129 296.34,-136"/>
</g>
<!-- Node8 -->
<g id="node8" class="node">
<title>Node8</title>
<g id="a_node8"><a xlink:href="class_alarm__state.html#acea6eee2b8d267b67192bbce9e495038" target="_top" xlink:title="Actualización, cambia el color del LED según el estado del motor y hace sonar la alarma....">
<polygon fill="white" stroke="#666666" points="263,-105 159,-105 159,-86 263,-86 263,-105"/>
<text text-anchor="middle" x="211" y="-93" font-family="Helvetica,sans-Serif" font-size="10.00">Alarm_state::update</text>
</a>
</g>
</g>
<!-- Node7&#45;&gt;Node8 -->
<g id="edge7" class="edge">
<title>Node7&#45;&gt;Node8</title>
<path fill="none" stroke="#63b8ff" d="M318.02,-81.45C300.39,-83.79 280.76,-86.39 263.23,-88.71"/>
<polygon fill="#63b8ff" stroke="#63b8ff" points="318.32,-84.94 327.77,-80.16 317.4,-78.01 318.32,-84.94"/>
</g>
<!-- Node9 -->
<g id="node9" class="node">
<title>Node9</title>
<g id="a_node9"><a xlink:href="class_check__instruction__state.html#a161d1ccae3db7c6ac372b56877dc05f2" target="_top" xlink:title="Método para actualizar el estado.">
<polygon fill="white" stroke="#666666" points="272,-67.5 150,-67.5 150,-37.5 272,-37.5 272,-67.5"/>
<text text-anchor="start" x="158" y="-55.5" font-family="Helvetica,sans-Serif" font-size="10.00">Check_instruction_state</text>
<text text-anchor="middle" x="211" y="-44.5" font-family="Helvetica,sans-Serif" font-size="10.00">::update</text>
</a>
</g>
</g>
<!-- Node7&#45;&gt;Node9 -->
<g id="edge8" class="edge">
<title>Node7&#45;&gt;Node9</title>
<path fill="none" stroke="#63b8ff" d="M317.92,-67.2C303.35,-65.18 287.41,-62.97 272.43,-60.89"/>
<polygon fill="#63b8ff" stroke="#63b8ff" points="317.38,-70.66 327.77,-68.57 318.35,-63.73 317.38,-70.66"/>
</g>
<!-- Node10 -->
<g id="node10" class="node">
<title>Node10</title>
<g id="a_node10"><a xlink:href="class_idle__state.html#a92217c98eda8e3bd47eb3a8ff602efc2" target="_top" xlink:title="Método para actualizar el sistema cuando está en estado de reposo. Actualiza la pantalla y los observ...">
<polygon fill="white" stroke="#666666" points="258,-19 164,-19 164,0 258,0 258,-19"/>
<text text-anchor="middle" x="211" y="-7" font-family="Helvetica,sans-Serif" font-size="10.00">Idle_state::update</text>
</a>
</g>
</g>
<!-- Node7&#45;&gt;Node10 -->
<g id="edge9" class="edge">
<title>Node7&#45;&gt;Node10</title>
<path fill="none" stroke="#63b8ff" d="M340.93,-59.46C321.59,-49.93 295.63,-37.71 272,-28.5 263.75,-25.28 254.72,-22.2 246.22,-19.49"/>
<polygon fill="#63b8ff" stroke="#63b8ff" points="339.34,-62.57 349.85,-63.9 342.46,-56.31 339.34,-62.57"/>
</g>
</g>
</svg>
