<?xml version="1.0" encoding="UTF-8" standalone="no"?>
<!DOCTYPE svg PUBLIC "-//W3C//DTD SVG 1.1//EN"
 "http://www.w3.org/Graphics/SVG/1.1/DTD/svg11.dtd">
<!-- Generated by graphviz version 7.0.2 (20221119.0110)
 -->
<!-- Title: Display::turn_on Pages: 1 -->
<svg width="410pt" height="27pt"
 viewBox="0.00 0.00 410.00 27.00" xmlns="http://www.w3.org/2000/svg" xmlns:xlink="http://www.w3.org/1999/xlink">
<g id="graph0" class="graph" transform="scale(1 1) rotate(0) translate(4 23)">
<title>Display::turn_on</title>
<!-- Node1 -->
<g id="node1" class="node">
<title>Node1</title>
<g id="a_node1"><a xlink:title="Enciende la retroiluminación y limpia los caracteres de la pantalla.">
<polygon fill="#999999" stroke="#666666" points="87,-19 0,-19 0,0 87,0 87,-19"/>
<text text-anchor="middle" x="43.5" y="-7" font-family="Helvetica,sans-Serif" font-size="10.00">Display::turn_on</text>
</a>
</g>
</g>
<!-- Node2 -->
<g id="node2" class="node">
<title>Node2</title>
<g id="a_node2"><a xlink:href="classhd44780___i2_cexp.html#a11909704f0608b3f7cbc4877c40eb15c" target="_top" xlink:title="Activa la retroiluminación.">
<polygon fill="white" stroke="#666666" points="250,-19 123,-19 123,0 250,0 250,-19"/>
<text text-anchor="middle" x="186.5" y="-7" font-family="Helvetica,sans-Serif" font-size="10.00">hd44780_I2Cexp::turn_on</text>
</a>
</g>
</g>
<!-- Node1&#45;&gt;Node2 -->
<g id="edge1" class="edge">
<title>Node1&#45;&gt;Node2</title>
<path fill="none" stroke="#63b8ff" d="M87.19,-9.5C94.88,-9.5 103.09,-9.5 111.38,-9.5"/>
<polygon fill="#63b8ff" stroke="#63b8ff" points="111.16,-13 121.16,-9.5 111.16,-6 111.16,-13"/>
</g>
<!-- Node3 -->
<g id="node3" class="node">
<title>Node3</title>
<g id="a_node3"><a xlink:href="classhd44780___i2_cexp.html#a9f885fdf91ca52fd05158387ee4bedcd" target="_top" xlink:title="Borra el texto de la pantalla.">
<polygon fill="white" stroke="#666666" points="402,-19 286,-19 286,0 402,0 402,-19"/>
<text text-anchor="middle" x="344" y="-7" font-family="Helvetica,sans-Serif" font-size="10.00">hd44780_I2Cexp::clear</text>
</a>
</g>
</g>
<!-- Node2&#45;&gt;Node3 -->
<g id="edge2" class="edge">
<title>Node2&#45;&gt;Node3</title>
<path fill="none" stroke="#63b8ff" d="M250.3,-9.5C258.32,-9.5 266.56,-9.5 274.66,-9.5"/>
<polygon fill="#63b8ff" stroke="#63b8ff" points="274.48,-13 284.48,-9.5 274.48,-6 274.48,-13"/>
</g>
</g>
</svg>
