<?xml version="1.0" encoding="UTF-8" standalone="no"?>
<!DOCTYPE svg PUBLIC "-//W3C//DTD SVG 1.1//EN"
 "http://www.w3.org/Graphics/SVG/1.1/DTD/svg11.dtd">
<!-- Generated by graphviz version 7.0.2 (20221119.0110)
 -->
<!-- Title: Dual_LED::turn_red Pages: 1 -->
<svg width="251pt" height="64pt"
 viewBox="0.00 0.00 251.00 64.00" xmlns="http://www.w3.org/2000/svg" xmlns:xlink="http://www.w3.org/1999/xlink">
<g id="graph0" class="graph" transform="scale(1 1) rotate(0) translate(4 60)">
<title>Dual_LED::turn_red</title>
<!-- Node1 -->
<g id="node1" class="node">
<title>Node1</title>
<g id="a_node1"><a xlink:title="Enciende el LED en rojo.">
<polygon fill="#999999" stroke="#666666" points="101,-37 0,-37 0,-18 101,-18 101,-37"/>
<text text-anchor="middle" x="50.5" y="-25" font-family="Helvetica,sans-Serif" font-size="10.00">Dual_LED::turn_red</text>
</a>
</g>
</g>
<!-- Node2 -->
<g id="node2" class="node">
<title>Node2</title>
<g id="a_node2"><a xlink:href="class_dual___l_e_d.html#aeb163748acf071a1652c56ae1dff9d52" target="_top" xlink:title="Fija el color del led, no enciende el led,.">
<polygon fill="white" stroke="#666666" points="243,-56 137,-56 137,-37 243,-37 243,-56"/>
<text text-anchor="middle" x="190" y="-44" font-family="Helvetica,sans-Serif" font-size="10.00">Dual_LED::set_color</text>
</a>
</g>
</g>
<!-- Node1&#45;&gt;Node2 -->
<g id="edge1" class="edge">
<title>Node1&#45;&gt;Node2</title>
<path fill="none" stroke="#63b8ff" d="M101.14,-34.36C108.98,-35.44 117.19,-36.58 125.3,-37.7"/>
<polygon fill="#63b8ff" stroke="#63b8ff" points="124.77,-41.16 135.15,-39.06 125.72,-34.22 124.77,-41.16"/>
</g>
<!-- Node3 -->
<g id="node3" class="node">
<title>Node3</title>
<g id="a_node3"><a xlink:href="class_dual___l_e_d.html#a8b13294b883897eb83f91bf90a3a11cd" target="_top" xlink:title="Enciende el LED en el color actual.">
<polygon fill="white" stroke="#666666" points="239,-19 141,-19 141,0 239,0 239,-19"/>
<text text-anchor="middle" x="190" y="-7" font-family="Helvetica,sans-Serif" font-size="10.00">Dual_LED::turn_on</text>
</a>
</g>
</g>
<!-- Node1&#45;&gt;Node3 -->
<g id="edge2" class="edge">
<title>Node1&#45;&gt;Node3</title>
<path fill="none" stroke="#63b8ff" d="M101.14,-21C110.33,-19.8 120.01,-18.53 129.46,-17.29"/>
<polygon fill="#63b8ff" stroke="#63b8ff" points="129.85,-20.77 139.31,-16 128.94,-13.83 129.85,-20.77"/>
</g>
</g>
</svg>
