<?xml version="1.0" encoding="UTF-8" standalone="no"?>
<!DOCTYPE svg PUBLIC "-//W3C//DTD SVG 1.1//EN"
 "http://www.w3.org/Graphics/SVG/1.1/DTD/svg11.dtd">
<!-- Generated by graphviz version 7.0.2 (20221119.0110)
 -->
<!-- Title: Dual_LED::turn_on Pages: 1 -->
<svg width="555pt" height="150pt"
 viewBox="0.00 0.00 555.00 149.50" xmlns="http://www.w3.org/2000/svg" xmlns:xlink="http://www.w3.org/1999/xlink">
<g id="graph0" class="graph" transform="scale(1 1) rotate(0) translate(4 145.5)">
<title>Dual_LED::turn_on</title>
<!-- Node1 -->
<g id="node1" class="node">
<title>Node1</title>
<g id="a_node1"><a xlink:title="Enciende el LED en el color actual.">
<polygon fill="#999999" stroke="#666666" points="547,-74 449,-74 449,-55 547,-55 547,-74"/>
<text text-anchor="middle" x="498" y="-62" font-family="Helvetica,sans-Serif" font-size="10.00">Dual_LED::turn_on</text>
</a>
</g>
</g>
<!-- Node2 -->
<g id="node2" class="node">
<title>Node2</title>
<g id="a_node2"><a xlink:href="class_dual___l_e_d.html#ac56cb66fdbb2a682a90091f2f9a0d385" target="_top" xlink:title="Permuta el estado del LED.">
<polygon fill="white" stroke="#666666" points="401.5,-130 309.5,-130 309.5,-111 401.5,-111 401.5,-130"/>
<text text-anchor="middle" x="355.5" y="-118" font-family="Helvetica,sans-Serif" font-size="10.00">Dual_LED::toggle</text>
</a>
</g>
</g>
<!-- Node1&#45;&gt;Node2 -->
<g id="edge1" class="edge">
<title>Node1&#45;&gt;Node2</title>
<path fill="none" stroke="#63b8ff" d="M466.67,-79.25C450.86,-86.68 431.09,-95.55 413,-102.5 405.6,-105.34 397.54,-108.1 389.89,-110.57"/>
<polygon fill="#63b8ff" stroke="#63b8ff" points="468.01,-82.49 475.54,-75.04 465.01,-76.17 468.01,-82.49"/>
</g>
<!-- Node3 -->
<g id="node3" class="node">
<title>Node3</title>
<g id="a_node3"><a xlink:href="class_dual___l_e_d.html#ab1cd238e00901ca9556914a38d3a064c" target="_top" xlink:title="Enciende el LED en verde.">
<polygon fill="white" stroke="#666666" points="411.5,-93 299.5,-93 299.5,-74 411.5,-74 411.5,-93"/>
<text text-anchor="middle" x="355.5" y="-81" font-family="Helvetica,sans-Serif" font-size="10.00">Dual_LED::turn_green</text>
</a>
</g>
</g>
<!-- Node1&#45;&gt;Node3 -->
<g id="edge2" class="edge">
<title>Node1&#45;&gt;Node3</title>
<path fill="none" stroke="#63b8ff" d="M437.26,-72.58C428.78,-73.73 420.09,-74.9 411.7,-76.04"/>
<polygon fill="#63b8ff" stroke="#63b8ff" points="437.71,-76.05 447.15,-71.24 436.77,-69.11 437.71,-76.05"/>
</g>
<!-- Node7 -->
<g id="node7" class="node">
<title>Node7</title>
<g id="a_node7"><a xlink:href="class_dual___l_e_d.html#a8734a816df04661d86e3ccbf88159eb0" target="_top" xlink:title="Enciende el LED en rojo.">
<polygon fill="white" stroke="#666666" points="406,-56 305,-56 305,-37 406,-37 406,-56"/>
<text text-anchor="middle" x="355.5" y="-44" font-family="Helvetica,sans-Serif" font-size="10.00">Dual_LED::turn_red</text>
</a>
</g>
</g>
<!-- Node1&#45;&gt;Node7 -->
<g id="edge7" class="edge">
<title>Node1&#45;&gt;Node7</title>
<path fill="none" stroke="#63b8ff" d="M437.55,-56.88C427.17,-55.55 416.47,-54.18 406.37,-52.89"/>
<polygon fill="#63b8ff" stroke="#63b8ff" points="436.78,-60.31 447.15,-58.11 437.67,-53.37 436.78,-60.31"/>
</g>
<!-- Node8 -->
<g id="node8" class="node">
<title>Node8</title>
<g id="a_node8"><a xlink:href="class_dual___l_e_d.html#aabc0462521bcc08ea7f6f04642f7e89d" target="_top" xlink:title="Enciende el LED en amarillo. El comportamiento es indefinido para pines no PWM.">
<polygon fill="white" stroke="#666666" points="413,-19 298,-19 298,0 413,0 413,-19"/>
<text text-anchor="middle" x="355.5" y="-7" font-family="Helvetica,sans-Serif" font-size="10.00">Dual_LED::turn_yellow</text>
</a>
</g>
</g>
<!-- Node1&#45;&gt;Node8 -->
<g id="edge9" class="edge">
<title>Node1&#45;&gt;Node8</title>
<path fill="none" stroke="#63b8ff" d="M464.94,-50.04C449.38,-43.21 430.34,-35.12 413,-28.5 404.78,-25.36 395.79,-22.21 387.45,-19.41"/>
<polygon fill="#63b8ff" stroke="#63b8ff" points="463.15,-53.07 473.71,-53.92 465.98,-46.67 463.15,-53.07"/>
</g>
<!-- Node4 -->
<g id="node4" class="node">
<title>Node4</title>
<g id="a_node4"><a xlink:href="class_check__instruction__state.html#ae13ba3789ab274a7dddf19be0a413b55" target="_top" xlink:title="Método que se llama al ingresar al estado.">
<polygon fill="white" stroke="#666666" points="262,-141.5 140,-141.5 140,-111.5 262,-111.5 262,-141.5"/>
<text text-anchor="start" x="148" y="-129.5" font-family="Helvetica,sans-Serif" font-size="10.00">Check_instruction_state</text>
<text text-anchor="middle" x="201" y="-118.5" font-family="Helvetica,sans-Serif" font-size="10.00">::enter</text>
</a>
</g>
</g>
<!-- Node3&#45;&gt;Node4 -->
<g id="edge3" class="edge">
<title>Node3&#45;&gt;Node4</title>
<path fill="none" stroke="#63b8ff" d="M308.3,-96.53C292.1,-101.1 273.74,-106.27 256.89,-111.02"/>
<polygon fill="#63b8ff" stroke="#63b8ff" points="309,-99.97 317.67,-93.88 307.1,-93.23 309,-99.97"/>
</g>
<!-- Node5 -->
<g id="node5" class="node">
<title>Node5</title>
<g id="a_node5"><a xlink:href="class_control__system.html#ab4bd82b7c907b415fdc102ed1fa89c7c" target="_top" xlink:title="Según la variable context.current_alarm resuelve el comportamiento de la alarma.">
<polygon fill="white" stroke="#666666" points="260.5,-55.5 141.5,-55.5 141.5,-25.5 260.5,-25.5 260.5,-55.5"/>
<text text-anchor="start" x="149.5" y="-43.5" font-family="Helvetica,sans-Serif" font-size="10.00">Control_system::handle</text>
<text text-anchor="middle" x="201" y="-32.5" font-family="Helvetica,sans-Serif" font-size="10.00">_alarm</text>
</a>
</g>
</g>
<!-- Node3&#45;&gt;Node5 -->
<g id="edge4" class="edge">
<title>Node3&#45;&gt;Node5</title>
<path fill="none" stroke="#63b8ff" d="M308.3,-70.47C292.1,-65.9 273.74,-60.73 256.89,-55.98"/>
<polygon fill="#63b8ff" stroke="#63b8ff" points="307.1,-73.77 317.67,-73.12 309,-67.03 307.1,-73.77"/>
</g>
<!-- Node6 -->
<g id="node6" class="node">
<title>Node6</title>
<g id="a_node6"><a xlink:href="class_alarm__state.html#acea6eee2b8d267b67192bbce9e495038" target="_top" xlink:title="Actualización, cambia el color del LED según el estado del motor y hace sonar la alarma....">
<polygon fill="white" stroke="#666666" points="104,-71 0,-71 0,-52 104,-52 104,-71"/>
<text text-anchor="middle" x="52" y="-59" font-family="Helvetica,sans-Serif" font-size="10.00">Alarm_state::update</text>
</a>
</g>
</g>
<!-- Node3&#45;&gt;Node6 -->
<g id="edge6" class="edge">
<title>Node3&#45;&gt;Node6</title>
<path fill="none" stroke="#63b8ff" d="M287.75,-78.63C232.46,-74.59 155,-68.94 104.43,-65.25"/>
<polygon fill="#63b8ff" stroke="#63b8ff" points="287.46,-82.12 297.69,-79.35 287.97,-75.14 287.46,-82.12"/>
</g>
<!-- Node5&#45;&gt;Node6 -->
<g id="edge5" class="edge">
<title>Node5&#45;&gt;Node6</title>
<path fill="none" stroke="#63b8ff" d="M129.84,-50.52C121.26,-51.75 112.61,-52.98 104.37,-54.16"/>
<polygon fill="#63b8ff" stroke="#63b8ff" points="130.15,-54.01 139.56,-49.13 129.16,-47.08 130.15,-54.01"/>
</g>
<!-- Node7&#45;&gt;Node5 -->
<g id="edge8" class="edge">
<title>Node7&#45;&gt;Node5</title>
<path fill="none" stroke="#63b8ff" d="M293.18,-44.09C282.5,-43.67 271.41,-43.23 260.8,-42.81"/>
<polygon fill="#63b8ff" stroke="#63b8ff" points="292.92,-47.58 303.05,-44.48 293.2,-40.59 292.92,-47.58"/>
</g>
<!-- Node8&#45;&gt;Node5 -->
<g id="edge10" class="edge">
<title>Node8&#45;&gt;Node5</title>
<path fill="none" stroke="#63b8ff" d="M294.18,-21.76C283.21,-23.99 271.78,-26.31 260.86,-28.54"/>
<polygon fill="#63b8ff" stroke="#63b8ff" points="294.82,-25.2 303.93,-19.78 293.43,-18.34 294.82,-25.2"/>
</g>
</g>
</svg>
