<?xml version="1.0" encoding="UTF-8" standalone="no"?>
<!DOCTYPE svg PUBLIC "-//W3C//DTD SVG 1.1//EN"
 "http://www.w3.org/Graphics/SVG/1.1/DTD/svg11.dtd">
<!-- Generated by graphviz version 7.0.2 (20221119.0110)
 -->
<!-- Title: Shutdown_state::transition Pages: 1 -->
<svg width="928pt" height="175pt"
 viewBox="0.00 0.00 928.00 175.00" xmlns="http://www.w3.org/2000/svg" xmlns:xlink="http://www.w3.org/1999/xlink">
<g id="graph0" class="graph" transform="scale(1 1) rotate(0) translate(4 171)">
<title>Shutdown_state::transition</title>
<!-- Node1 -->
<g id="node1" class="node">
<title>Node1</title>
<g id="a_node1"><a xlink:title="Transicion de estados.">
<polygon fill="#999999" stroke="#666666" points="132,-93 0,-93 0,-74 132,-74 132,-93"/>
<text text-anchor="middle" x="66" y="-81" font-family="Helvetica,sans-Serif" font-size="10.00">Shutdown_state::transition</text>
</a>
</g>
</g>
<!-- Node2 -->
<g id="node2" class="node">
<title>Node2</title>
<g id="a_node2"><a xlink:href="class_shutdown__state.html#accbc4c856709e26453e2e23c5c1e4f8e" target="_top" xlink:title="Salida del estado, resetea las variables del sistema e incializa la pantalla.">
<polygon fill="white" stroke="#666666" points="276,-93 168,-93 168,-74 276,-74 276,-93"/>
<text text-anchor="middle" x="222" y="-81" font-family="Helvetica,sans-Serif" font-size="10.00">Shutdown_state::exit</text>
</a>
</g>
</g>
<!-- Node1&#45;&gt;Node2 -->
<g id="edge1" class="edge">
<title>Node1&#45;&gt;Node2</title>
<path fill="none" stroke="#63b8ff" d="M132.31,-83.5C140.24,-83.5 148.34,-83.5 156.26,-83.5"/>
<polygon fill="#63b8ff" stroke="#63b8ff" points="156.19,-87 166.19,-83.5 156.19,-80 156.19,-87"/>
</g>
<!-- Node3 -->
<g id="node3" class="node">
<title>Node3</title>
<g id="a_node3"><a xlink:href="class_control__system.html#aad36c88c9e5589336213848de7837091" target="_top" xlink:title="Inicializa el display lcd del sistema.">
<polygon fill="white" stroke="#666666" points="420.5,-128.5 316.5,-128.5 316.5,-98.5 420.5,-98.5 420.5,-128.5"/>
<text text-anchor="start" x="324.5" y="-116.5" font-family="Helvetica,sans-Serif" font-size="10.00">Control_system::init</text>
<text text-anchor="middle" x="368.5" y="-105.5" font-family="Helvetica,sans-Serif" font-size="10.00">_display</text>
</a>
</g>
</g>
<!-- Node2&#45;&gt;Node3 -->
<g id="edge2" class="edge">
<title>Node2&#45;&gt;Node3</title>
<path fill="none" stroke="#63b8ff" d="M271.12,-93.49C281.95,-95.74 293.61,-98.16 304.94,-100.51"/>
<polygon fill="#63b8ff" stroke="#63b8ff" points="304.14,-103.92 314.64,-102.53 305.56,-97.07 304.14,-103.92"/>
</g>
<!-- Node9 -->
<g id="node9" class="node">
<title>Node9</title>
<g id="a_node9"><a xlink:href="class_control__system.html#aeb1d67b1383d77bd11276f0eef97228b" target="_top" xlink:title="Resetea las variables de contexto.">
<polygon fill="white" stroke="#666666" points="425,-74.5 312,-74.5 312,-44.5 425,-44.5 425,-74.5"/>
<text text-anchor="start" x="320" y="-62.5" font-family="Helvetica,sans-Serif" font-size="10.00">Control_system::reset</text>
<text text-anchor="middle" x="368.5" y="-51.5" font-family="Helvetica,sans-Serif" font-size="10.00">_context</text>
</a>
</g>
</g>
<!-- Node2&#45;&gt;Node9 -->
<g id="edge8" class="edge">
<title>Node2&#45;&gt;Node9</title>
<path fill="none" stroke="#63b8ff" d="M276.4,-74.63C284.26,-73.32 292.45,-71.96 300.55,-70.62"/>
<polygon fill="#63b8ff" stroke="#63b8ff" points="301.12,-74.07 310.41,-68.98 299.97,-67.17 301.12,-74.07"/>
</g>
<!-- Node4 -->
<g id="node4" class="node">
<title>Node4</title>
<g id="a_node4"><a xlink:href="class_display.html#aacbf91b9f8c57fc2cb892c45fd44e655" target="_top" xlink:title="Método para inicializar el objeto, sólo se puede luego o en setup().">
<polygon fill="white" stroke="#666666" points="561,-130 493,-130 493,-111 561,-111 561,-130"/>
<text text-anchor="middle" x="527" y="-118" font-family="Helvetica,sans-Serif" font-size="10.00">Display::init</text>
</a>
</g>
</g>
<!-- Node3&#45;&gt;Node4 -->
<g id="edge3" class="edge">
<title>Node3&#45;&gt;Node4</title>
<path fill="none" stroke="#63b8ff" d="M420.74,-115.79C440.38,-116.67 462.6,-117.66 481.55,-118.51"/>
<polygon fill="#63b8ff" stroke="#63b8ff" points="481.22,-122 491.36,-118.95 481.53,-115.01 481.22,-122"/>
</g>
<!-- Node5 -->
<g id="node5" class="node">
<title>Node5</title>
<g id="a_node5"><a xlink:href="classhd44780___i2_cexp.html#a54aa9784edbb1d73b80951e2f0c061fa" target="_top" xlink:title="Ejecuta la secuencia de inicialización del display.">
<polygon fill="white" stroke="#666666" points="754.5,-167 636.5,-167 636.5,-148 754.5,-148 754.5,-167"/>
<text text-anchor="middle" x="695.5" y="-155" font-family="Helvetica,sans-Serif" font-size="10.00">hd44780_I2Cexp::begin</text>
</a>
</g>
</g>
<!-- Node4&#45;&gt;Node5 -->
<g id="edge4" class="edge">
<title>Node4&#45;&gt;Node5</title>
<path fill="none" stroke="#63b8ff" d="M561.29,-127.9C583.37,-132.8 612.87,-139.36 638.5,-145.06"/>
<polygon fill="#63b8ff" stroke="#63b8ff" points="637.59,-148.44 648.12,-147.19 639.11,-141.61 637.59,-148.44"/>
</g>
<!-- Node6 -->
<g id="node6" class="node">
<title>Node6</title>
<g id="a_node6"><a xlink:href="classhd44780___i2_cexp.html#ab25b744a9de62f700d5736864640d21b" target="_top" xlink:title="Lleva el cursor al origen de coordenadas.">
<polygon fill="white" stroke="#666666" points="755,-130 636,-130 636,-111 755,-111 755,-130"/>
<text text-anchor="middle" x="695.5" y="-118" font-family="Helvetica,sans-Serif" font-size="10.00">hd44780_I2Cexp::home</text>
</a>
</g>
</g>
<!-- Node4&#45;&gt;Node6 -->
<g id="edge5" class="edge">
<title>Node4&#45;&gt;Node6</title>
<path fill="none" stroke="#63b8ff" d="M561.29,-120.5C579.4,-120.5 602.5,-120.5 624.36,-120.5"/>
<polygon fill="#63b8ff" stroke="#63b8ff" points="624.14,-124 634.14,-120.5 624.14,-117 624.14,-124"/>
</g>
<!-- Node8 -->
<g id="node8" class="node">
<title>Node8</title>
<g id="a_node8"><a xlink:href="classhd44780___i2_cexp.html#afa96f48e955041cedc9cb4ccc7dc1c6c" target="_top" xlink:title="Habilita la envoltura de líneas automática. Cualquier oración que sea demasiado larga como para mostr...">
<polygon fill="white" stroke="#666666" points="762,-93 629,-93 629,-74 762,-74 762,-93"/>
<text text-anchor="middle" x="695.5" y="-81" font-family="Helvetica,sans-Serif" font-size="10.00">hd44780_I2Cexp::lineWrap</text>
</a>
</g>
</g>
<!-- Node4&#45;&gt;Node8 -->
<g id="edge7" class="edge">
<title>Node4&#45;&gt;Node8</title>
<path fill="none" stroke="#63b8ff" d="M561.29,-113.1C583.37,-108.2 612.87,-101.64 638.5,-95.94"/>
<polygon fill="#63b8ff" stroke="#63b8ff" points="639.11,-99.39 648.12,-93.81 637.59,-92.56 639.11,-99.39"/>
</g>
<!-- Node7 -->
<g id="node7" class="node">
<title>Node7</title>
<g id="a_node7"><a xlink:href="classhd44780___i2_cexp.html#a13020db13c26b6d7ba6ff2ebb42e4053" target="_top" xlink:title="Mueve el cursor.">
<polygon fill="white" stroke="#666666" points="920,-130 798,-130 798,-111 920,-111 920,-130"/>
<text text-anchor="middle" x="859" y="-118" font-family="Helvetica,sans-Serif" font-size="10.00">hd44780_I2Cexp::cursor</text>
</a>
</g>
</g>
<!-- Node6&#45;&gt;Node7 -->
<g id="edge6" class="edge">
<title>Node6&#45;&gt;Node7</title>
<path fill="none" stroke="#63b8ff" d="M755.26,-120.5C765.4,-120.5 776.03,-120.5 786.46,-120.5"/>
<polygon fill="#63b8ff" stroke="#63b8ff" points="786.14,-124 796.14,-120.5 786.14,-117 786.14,-124"/>
</g>
<!-- Node10 -->
<g id="node10" class="node">
<title>Node10</title>
<g id="a_node10"><a xlink:href="class_cooler.html#a3aa26bc227fa7a2bdcff9fe607990104" target="_top" xlink:title="Apaga el ventilador.">
<polygon fill="white" stroke="#666666" points="568,-93 486,-93 486,-74 568,-74 568,-93"/>
<text text-anchor="middle" x="527" y="-81" font-family="Helvetica,sans-Serif" font-size="10.00">Cooler::turn_off</text>
</a>
</g>
</g>
<!-- Node9&#45;&gt;Node10 -->
<g id="edge9" class="edge">
<title>Node9&#45;&gt;Node10</title>
<path fill="none" stroke="#63b8ff" d="M425.12,-68.03C441.24,-70.5 458.76,-73.19 474.6,-75.62"/>
<polygon fill="#63b8ff" stroke="#63b8ff" points="473.89,-79.05 484.31,-77.11 474.96,-72.13 473.89,-79.05"/>
</g>
<!-- Node11 -->
<g id="node11" class="node">
<title>Node11</title>
<g id="a_node11"><a xlink:href="class_dual___l_e_d.html#a4226b64f8b1c00f3e4c649a8be2e64c9" target="_top" xlink:title="Apaga el LED.">
<polygon fill="white" stroke="#666666" points="576,-56 478,-56 478,-37 576,-37 576,-56"/>
<text text-anchor="middle" x="527" y="-44" font-family="Helvetica,sans-Serif" font-size="10.00">Dual_LED::turn_off</text>
</a>
</g>
</g>
<!-- Node9&#45;&gt;Node11 -->
<g id="edge10" class="edge">
<title>Node9&#45;&gt;Node11</title>
<path fill="none" stroke="#63b8ff" d="M425.12,-54.88C438.5,-53.77 452.85,-52.58 466.41,-51.45"/>
<polygon fill="#63b8ff" stroke="#63b8ff" points="466.39,-54.96 476.06,-50.65 465.81,-47.99 466.39,-54.96"/>
</g>
<!-- Node12 -->
<g id="node12" class="node">
<title>Node12</title>
<g id="a_node12"><a xlink:href="class_digital__dual___l_e_d.html#a601fc70878c221a056d74dc643806a91" target="_top" xlink:title="Fija el color del led, no enciende el led,.">
<polygon fill="white" stroke="#666666" points="593,-19 461,-19 461,0 593,0 593,-19"/>
<text text-anchor="middle" x="527" y="-7" font-family="Helvetica,sans-Serif" font-size="10.00">Digital_dual_LED::turn_red</text>
</a>
</g>
</g>
<!-- Node9&#45;&gt;Node12 -->
<g id="edge11" class="edge">
<title>Node9&#45;&gt;Node12</title>
<path fill="none" stroke="#63b8ff" d="M411.67,-44.1C427.11,-38.63 444.78,-32.58 461,-27.5 466.38,-25.82 472.03,-24.13 477.67,-22.5"/>
<polygon fill="#63b8ff" stroke="#63b8ff" points="478.29,-25.96 486.95,-19.87 476.38,-19.23 478.29,-25.96"/>
</g>
</g>
</svg>
