<?xml version="1.0" encoding="UTF-8" standalone="no"?>
<!DOCTYPE svg PUBLIC "-//W3C//DTD SVG 1.1//EN"
 "http://www.w3.org/Graphics/SVG/1.1/DTD/svg11.dtd">
<!-- Generated by graphviz version 7.0.2 (20221119.0110)
 -->
<!-- Title: Dual_LED::turn_on Pages: 1 -->
<svg width="738pt" height="293pt"
 viewBox="0.00 0.00 738.00 292.50" xmlns="http://www.w3.org/2000/svg" xmlns:xlink="http://www.w3.org/1999/xlink">
<g id="graph0" class="graph" transform="scale(1 1) rotate(0) translate(4 288.5)">
<title>Dual_LED::turn_on</title>
<!-- Node1 -->
<g id="node1" class="node">
<title>Node1</title>
<g id="a_node1"><a xlink:title="Enciende el LED en el color actual.">
<polygon fill="#999999" stroke="#666666" points="730,-228.5 632,-228.5 632,-209.5 730,-209.5 730,-228.5"/>
<text text-anchor="middle" x="681" y="-216.5" font-family="Helvetica,sans-Serif" font-size="10.00">Dual_LED::turn_on</text>
</a>
</g>
</g>
<!-- Node2 -->
<g id="node2" class="node">
<title>Node2</title>
<g id="a_node2"><a xlink:href="class_dual___l_e_d.html#ac56cb66fdbb2a682a90091f2f9a0d385" target="_top" xlink:title="Permuta el estado del LED.">
<polygon fill="white" stroke="#666666" points="584.5,-284.5 492.5,-284.5 492.5,-265.5 584.5,-265.5 584.5,-284.5"/>
<text text-anchor="middle" x="538.5" y="-272.5" font-family="Helvetica,sans-Serif" font-size="10.00">Dual_LED::toggle</text>
</a>
</g>
</g>
<!-- Node1&#45;&gt;Node2 -->
<g id="edge1" class="edge">
<title>Node1&#45;&gt;Node2</title>
<path fill="none" stroke="#63b8ff" d="M649.67,-233.75C633.86,-241.18 614.09,-250.05 596,-257 588.6,-259.84 580.54,-262.6 572.89,-265.07"/>
<polygon fill="#63b8ff" stroke="#63b8ff" points="651.01,-236.99 658.54,-229.54 648.01,-230.67 651.01,-236.99"/>
</g>
<!-- Node3 -->
<g id="node3" class="node">
<title>Node3</title>
<g id="a_node3"><a xlink:href="class_dual___l_e_d.html#ab1cd238e00901ca9556914a38d3a064c" target="_top" xlink:title="Enciende el LED en verde.">
<polygon fill="white" stroke="#666666" points="594.5,-210.5 482.5,-210.5 482.5,-191.5 594.5,-191.5 594.5,-210.5"/>
<text text-anchor="middle" x="538.5" y="-198.5" font-family="Helvetica,sans-Serif" font-size="10.00">Dual_LED::turn_green</text>
</a>
</g>
</g>
<!-- Node1&#45;&gt;Node3 -->
<g id="edge2" class="edge">
<title>Node1&#45;&gt;Node3</title>
<path fill="none" stroke="#63b8ff" d="M620.26,-211.35C611.78,-210.26 603.09,-209.15 594.7,-208.07"/>
<polygon fill="#63b8ff" stroke="#63b8ff" points="619.78,-214.81 630.15,-212.61 620.67,-207.87 619.78,-214.81"/>
</g>
<!-- Node8 -->
<g id="node8" class="node">
<title>Node8</title>
<g id="a_node8"><a xlink:href="class_dual___l_e_d.html#a8734a816df04661d86e3ccbf88159eb0" target="_top" xlink:title="Enciende el LED en rojo.">
<polygon fill="white" stroke="#666666" points="589,-148.5 488,-148.5 488,-129.5 589,-129.5 589,-148.5"/>
<text text-anchor="middle" x="538.5" y="-136.5" font-family="Helvetica,sans-Serif" font-size="10.00">Dual_LED::turn_red</text>
</a>
</g>
</g>
<!-- Node1&#45;&gt;Node8 -->
<g id="edge9" class="edge">
<title>Node1&#45;&gt;Node8</title>
<path fill="none" stroke="#63b8ff" d="M652.79,-203.51C624.41,-187.35 580.78,-162.5 556.79,-148.84"/>
<polygon fill="#63b8ff" stroke="#63b8ff" points="650.75,-206.37 661.17,-208.28 654.22,-200.29 650.75,-206.37"/>
</g>
<!-- Node14 -->
<g id="node14" class="node">
<title>Node14</title>
<g id="a_node14"><a xlink:href="class_dual___l_e_d.html#aabc0462521bcc08ea7f6f04642f7e89d" target="_top" xlink:title="Enciende el LED en amarillo. El comportamiento es indefinido para pines no PWM.">
<polygon fill="white" stroke="#666666" points="596,-247.5 481,-247.5 481,-228.5 596,-228.5 596,-247.5"/>
<text text-anchor="middle" x="538.5" y="-235.5" font-family="Helvetica,sans-Serif" font-size="10.00">Dual_LED::turn_yellow</text>
</a>
</g>
</g>
<!-- Node1&#45;&gt;Node14 -->
<g id="edge18" class="edge">
<title>Node1&#45;&gt;Node14</title>
<path fill="none" stroke="#63b8ff" d="M620.44,-227.05C612.4,-228.14 604.16,-229.26 596.17,-230.34"/>
<polygon fill="#63b8ff" stroke="#63b8ff" points="620.71,-230.55 630.15,-225.74 619.77,-223.61 620.71,-230.55"/>
</g>
<!-- Node4 -->
<g id="node4" class="node">
<title>Node4</title>
<g id="a_node4"><a xlink:href="class_check__instruction__state.html#ae13ba3789ab274a7dddf19be0a413b55" target="_top" xlink:title="Entrada del estado, resuelve las instrucciones a realizar en cada paso: &#45;WELCOME_STEP: Primer paso,...">
<polygon fill="white" stroke="#666666" points="290,-154 168,-154 168,-124 290,-124 290,-154"/>
<text text-anchor="start" x="176" y="-142" font-family="Helvetica,sans-Serif" font-size="10.00">Check_instruction_state</text>
<text text-anchor="middle" x="229" y="-131" font-family="Helvetica,sans-Serif" font-size="10.00">::enter</text>
</a>
</g>
</g>
<!-- Node3&#45;&gt;Node4 -->
<g id="edge3" class="edge">
<title>Node3&#45;&gt;Node4</title>
<path fill="none" stroke="#63b8ff" d="M470.94,-190.22C429.18,-183.17 374.28,-173.36 326,-163 314.07,-160.44 301.38,-157.46 289.26,-154.48"/>
<polygon fill="#63b8ff" stroke="#63b8ff" points="470.15,-193.64 480.59,-191.84 471.31,-186.73 470.15,-193.64"/>
</g>
<!-- Node5 -->
<g id="node5" class="node">
<title>Node5</title>
<g id="a_node5"><a xlink:href="class_control__system.html#ab4bd82b7c907b415fdc102ed1fa89c7c" target="_top" xlink:title="Según la variable context.current_alarm resuelve el comportamiento de la alarma.">
<polygon fill="white" stroke="#666666" points="445,-278 326,-278 326,-248 445,-248 445,-278"/>
<text text-anchor="start" x="334" y="-266" font-family="Helvetica,sans-Serif" font-size="10.00">Control_system::handle</text>
<text text-anchor="middle" x="385.5" y="-255" font-family="Helvetica,sans-Serif" font-size="10.00">_alarm</text>
</a>
</g>
</g>
<!-- Node3&#45;&gt;Node5 -->
<g id="edge4" class="edge">
<title>Node3&#45;&gt;Node5</title>
<path fill="none" stroke="#63b8ff" d="M495.36,-214.64C490.49,-216.37 485.62,-218.18 481,-220 459.71,-228.4 436.28,-239.05 418.08,-247.65"/>
<polygon fill="#63b8ff" stroke="#63b8ff" points="496.18,-218.06 504.48,-211.48 493.89,-211.44 496.18,-218.06"/>
</g>
<!-- Node6 -->
<g id="node6" class="node">
<title>Node6</title>
<g id="a_node6"><a xlink:href="class_alarm__state.html#acea6eee2b8d267b67192bbce9e495038" target="_top" xlink:title="Actualización, cambia el color del LED según el estado del motor y hace sonar la alarma....">
<polygon fill="white" stroke="#666666" points="281,-250.5 177,-250.5 177,-231.5 281,-231.5 281,-250.5"/>
<text text-anchor="middle" x="229" y="-238.5" font-family="Helvetica,sans-Serif" font-size="10.00">Alarm_state::update</text>
</a>
</g>
</g>
<!-- Node3&#45;&gt;Node6 -->
<g id="edge8" class="edge">
<title>Node3&#45;&gt;Node6</title>
<path fill="none" stroke="#63b8ff" d="M470.76,-209.68C413.87,-217.08 333.27,-227.57 281.31,-234.33"/>
<polygon fill="#63b8ff" stroke="#63b8ff" points="471.2,-213.15 480.67,-208.39 470.3,-206.21 471.2,-213.15"/>
</g>
<!-- Node7 -->
<g id="node7" class="node">
<title>Node7</title>
<g id="a_node7"><a xlink:href="class_control__system.html#a46298a6a5f4ba43857baa6ae23d00dbc" target="_top" xlink:title="Fija el valor de velocidad del ventilador.">
<polygon fill="white" stroke="#666666" points="437.5,-154 333.5,-154 333.5,-124 437.5,-124 437.5,-154"/>
<text text-anchor="start" x="341.5" y="-142" font-family="Helvetica,sans-Serif" font-size="10.00">Control_system::set</text>
<text text-anchor="middle" x="385.5" y="-131" font-family="Helvetica,sans-Serif" font-size="10.00">_cooler_speed</text>
</a>
</g>
</g>
<!-- Node3&#45;&gt;Node7 -->
<g id="edge6" class="edge">
<title>Node3&#45;&gt;Node7</title>
<path fill="none" stroke="#63b8ff" d="M502.68,-186.7C479.13,-177.03 448.06,-164.28 423.97,-154.39"/>
<polygon fill="#63b8ff" stroke="#63b8ff" points="501.26,-189.9 511.84,-190.46 503.92,-183.43 501.26,-189.9"/>
</g>
<!-- Node5&#45;&gt;Node6 -->
<g id="edge5" class="edge">
<title>Node5&#45;&gt;Node6</title>
<path fill="none" stroke="#63b8ff" d="M314.51,-253.03C303.26,-251.43 291.81,-249.8 281.11,-248.28"/>
<polygon fill="#63b8ff" stroke="#63b8ff" points="313.76,-256.46 324.15,-254.41 314.74,-249.53 313.76,-256.46"/>
</g>
<!-- Node7&#45;&gt;Node4 -->
<g id="edge7" class="edge">
<title>Node7&#45;&gt;Node4</title>
<path fill="none" stroke="#63b8ff" d="M321.59,-139C311.26,-139 300.58,-139 290.32,-139"/>
<polygon fill="#63b8ff" stroke="#63b8ff" points="321.54,-142.5 331.54,-139 321.54,-135.5 321.54,-142.5"/>
</g>
<!-- Node8&#45;&gt;Node4 -->
<g id="edge10" class="edge">
<title>Node8&#45;&gt;Node4</title>
<path fill="none" stroke="#63b8ff" d="M496.04,-125.85C480.24,-121.47 461.95,-117.16 445,-115 392.54,-108.3 378.49,-108.54 326,-115 311.51,-116.78 296.05,-120.03 281.88,-123.57"/>
<polygon fill="#63b8ff" stroke="#63b8ff" points="495.02,-129.2 505.59,-128.6 496.95,-122.47 495.02,-129.2"/>
</g>
<!-- Node8&#45;&gt;Node5 -->
<g id="edge11" class="edge">
<title>Node8&#45;&gt;Node5</title>
<path fill="none" stroke="#63b8ff" d="M515.44,-155.85C504.93,-163.96 492.23,-173.88 481,-183 453.8,-205.09 422.93,-231.48 404.08,-247.74"/>
<polygon fill="#63b8ff" stroke="#63b8ff" points="517.37,-158.78 523.17,-149.91 513.1,-153.23 517.37,-158.78"/>
</g>
<!-- Node8&#45;&gt;Node7 -->
<g id="edge17" class="edge">
<title>Node8&#45;&gt;Node7</title>
<path fill="none" stroke="#63b8ff" d="M476.16,-139C463.45,-139 450.17,-139 437.86,-139"/>
<polygon fill="#63b8ff" stroke="#63b8ff" points="476.12,-142.5 486.12,-139 476.12,-135.5 476.12,-142.5"/>
</g>
<!-- Node9 -->
<g id="node9" class="node">
<title>Node9</title>
<g id="a_node9"><a xlink:href="class_control__system.html#a4704fee6ca6fe180a5dc292315ec3b31" target="_top" xlink:title="Apaga todos los periféricos a excepción del display. Asigna false a solictudes de alarma,...">
<polygon fill="white" stroke="#666666" points="442,-67.5 329,-67.5 329,-48.5 442,-48.5 442,-67.5"/>
<text text-anchor="middle" x="385.5" y="-55.5" font-family="Helvetica,sans-Serif" font-size="10.00">Control_system::reset</text>
</a>
</g>
</g>
<!-- Node8&#45;&gt;Node9 -->
<g id="edge12" class="edge">
<title>Node8&#45;&gt;Node9</title>
<path fill="none" stroke="#63b8ff" d="M513.63,-122.79C495.31,-110.73 469.14,-94.29 445,-82 434.92,-76.87 423.48,-71.98 413.41,-67.98"/>
<polygon fill="#63b8ff" stroke="#63b8ff" points="511.66,-125.69 521.93,-128.32 515.55,-119.86 511.66,-125.69"/>
</g>
<!-- Node10 -->
<g id="node10" class="node">
<title>Node10</title>
<g id="a_node10"><a xlink:href="class_shutdown__state.html#accbc4c856709e26453e2e23c5c1e4f8e" target="_top" xlink:title="Salida del estado, resetea las variables del sistema e incializa la pantalla.">
<polygon fill="white" stroke="#666666" points="283,-104.5 175,-104.5 175,-85.5 283,-85.5 283,-104.5"/>
<text text-anchor="middle" x="229" y="-92.5" font-family="Helvetica,sans-Serif" font-size="10.00">Shutdown_state::exit</text>
</a>
</g>
</g>
<!-- Node9&#45;&gt;Node10 -->
<g id="edge13" class="edge">
<title>Node9&#45;&gt;Node10</title>
<path fill="none" stroke="#63b8ff" d="M332.1,-70.55C312.34,-75.28 290.15,-80.6 271.52,-85.06"/>
<polygon fill="#63b8ff" stroke="#63b8ff" points="332.72,-74 341.62,-68.27 331.08,-67.19 332.72,-74"/>
</g>
<!-- Node12 -->
<g id="node12" class="node">
<title>Node12</title>
<g id="a_node12"><a xlink:href="class_control__system.html#a660ab5ac86df7cdefbbfe0942b00e13b" target="_top" xlink:title="Inicializa el sistema en estado apagado.">
<polygon fill="white" stroke="#666666" points="281,-67.5 177,-67.5 177,-48.5 281,-48.5 281,-67.5"/>
<text text-anchor="middle" x="229" y="-55.5" font-family="Helvetica,sans-Serif" font-size="10.00">Control_system::init</text>
</a>
</g>
</g>
<!-- Node9&#45;&gt;Node12 -->
<g id="edge15" class="edge">
<title>Node9&#45;&gt;Node12</title>
<path fill="none" stroke="#63b8ff" d="M317.3,-58C305.24,-58 292.85,-58 281.33,-58"/>
<polygon fill="#63b8ff" stroke="#63b8ff" points="317.21,-61.5 327.21,-58 317.21,-54.5 317.21,-61.5"/>
</g>
<!-- Node13 -->
<g id="node13" class="node">
<title>Node13</title>
<g id="a_node13"><a xlink:href="class_check__instruction__state.html#a161d1ccae3db7c6ac372b56877dc05f2" target="_top" xlink:title="Actualización de estado, si existe una solicitud de apagado el sistema se resetea.">
<polygon fill="white" stroke="#666666" points="290,-30 168,-30 168,0 290,0 290,-30"/>
<text text-anchor="start" x="176" y="-18" font-family="Helvetica,sans-Serif" font-size="10.00">Check_instruction_state</text>
<text text-anchor="middle" x="229" y="-7" font-family="Helvetica,sans-Serif" font-size="10.00">::update</text>
</a>
</g>
</g>
<!-- Node9&#45;&gt;Node13 -->
<g id="edge16" class="edge">
<title>Node9&#45;&gt;Node13</title>
<path fill="none" stroke="#63b8ff" d="M337.7,-44.97C321.28,-40.4 302.68,-35.23 285.61,-30.48"/>
<polygon fill="#63b8ff" stroke="#63b8ff" points="336.64,-48.31 347.21,-47.62 338.51,-41.57 336.64,-48.31"/>
</g>
<!-- Node11 -->
<g id="node11" class="node">
<title>Node11</title>
<g id="a_node11"><a xlink:href="class_shutdown__state.html#ae02b2fd80173aa50afcd73faba01b9be" target="_top" xlink:title="Transicion de estados.">
<polygon fill="white" stroke="#666666" points="132,-104.5 0,-104.5 0,-85.5 132,-85.5 132,-104.5"/>
<text text-anchor="middle" x="66" y="-92.5" font-family="Helvetica,sans-Serif" font-size="10.00">Shutdown_state::transition</text>
</a>
</g>
</g>
<!-- Node10&#45;&gt;Node11 -->
<g id="edge14" class="edge">
<title>Node10&#45;&gt;Node11</title>
<path fill="none" stroke="#63b8ff" d="M163.49,-95C153.27,-95 142.7,-95 132.46,-95"/>
<polygon fill="#63b8ff" stroke="#63b8ff" points="163.32,-98.5 173.32,-95 163.32,-91.5 163.32,-98.5"/>
</g>
<!-- Node14&#45;&gt;Node5 -->
<g id="edge19" class="edge">
<title>Node14&#45;&gt;Node5</title>
<path fill="none" stroke="#63b8ff" d="M469.59,-249.24C461.55,-250.57 453.39,-251.92 445.49,-253.23"/>
<polygon fill="#63b8ff" stroke="#63b8ff" points="470.06,-252.71 479.35,-247.63 468.91,-245.81 470.06,-252.71"/>
</g>
</g>
</svg>
