<?xml version="1.0" encoding="UTF-8" standalone="no"?>
<!DOCTYPE svg PUBLIC "-//W3C//DTD SVG 1.1//EN"
 "http://www.w3.org/Graphics/SVG/1.1/DTD/svg11.dtd">
<!-- Generated by graphviz version 7.0.2 (20221119.0110)
 -->
<!-- Title: Control_system::set_cooler_speed Pages: 1 -->
<svg width="398pt" height="131pt"
 viewBox="0.00 0.00 398.00 130.50" xmlns="http://www.w3.org/2000/svg" xmlns:xlink="http://www.w3.org/1999/xlink">
<g id="graph0" class="graph" transform="scale(1 1) rotate(0) translate(4 126.5)">
<title>Control_system::set_cooler_speed</title>
<!-- Node1 -->
<g id="node1" class="node">
<title>Node1</title>
<g id="a_node1"><a xlink:title="Fija el valor de velocidad del ventilador.">
<polygon fill="#999999" stroke="#666666" points="104,-61.5 0,-61.5 0,-31.5 104,-31.5 104,-61.5"/>
<text text-anchor="start" x="8" y="-49.5" font-family="Helvetica,sans-Serif" font-size="10.00">Control_system::set</text>
<text text-anchor="middle" x="52" y="-38.5" font-family="Helvetica,sans-Serif" font-size="10.00">_cooler_speed</text>
</a>
</g>
</g>
<!-- Node2 -->
<g id="node2" class="node">
<title>Node2</title>
<g id="a_node2"><a xlink:href="class_digital__dual___l_e_d.html#a50e4648932cd01835f25e627cbe93ba6" target="_top" xlink:title="Enciende el LED en verde.">
<polygon fill="white" stroke="#666666" points="262.5,-122.5 149.5,-122.5 149.5,-92.5 262.5,-92.5 262.5,-122.5"/>
<text text-anchor="start" x="157.5" y="-110.5" font-family="Helvetica,sans-Serif" font-size="10.00">Digital_dual_LED::turn</text>
<text text-anchor="middle" x="206" y="-99.5" font-family="Helvetica,sans-Serif" font-size="10.00">_green</text>
</a>
</g>
</g>
<!-- Node1&#45;&gt;Node2 -->
<g id="edge1" class="edge">
<title>Node1&#45;&gt;Node2</title>
<path fill="none" stroke="#63b8ff" d="M87.97,-61.83C103.79,-68.65 122.76,-76.66 140,-83.5 143.8,-85.01 147.74,-86.54 151.71,-88.06"/>
<polygon fill="#63b8ff" stroke="#63b8ff" points="150.22,-91.24 160.82,-91.51 152.7,-84.69 150.22,-91.24"/>
</g>
<!-- Node3 -->
<g id="node3" class="node">
<title>Node3</title>
<g id="a_node3"><a xlink:href="class_cooler.html#aa98fd302dc7933fc21c046ca3ea48346" target="_top" xlink:title="Enciende el ventilador. Si el ciclo de trabajo deseado es menor que FAN_MINIMUM_DUTY_CYCLE apaga el v...">
<polygon fill="white" stroke="#666666" points="247.5,-56 164.5,-56 164.5,-37 247.5,-37 247.5,-56"/>
<text text-anchor="middle" x="206" y="-44" font-family="Helvetica,sans-Serif" font-size="10.00">Cooler::turn_on</text>
</a>
</g>
</g>
<!-- Node1&#45;&gt;Node3 -->
<g id="edge2" class="edge">
<title>Node1&#45;&gt;Node3</title>
<path fill="none" stroke="#63b8ff" d="M104.46,-46.5C120.12,-46.5 137.34,-46.5 153.04,-46.5"/>
<polygon fill="#63b8ff" stroke="#63b8ff" points="152.64,-50 162.64,-46.5 152.64,-43 152.64,-50"/>
</g>
<!-- Node5 -->
<g id="node5" class="node">
<title>Node5</title>
<g id="a_node5"><a xlink:href="class_digital__dual___l_e_d.html#a601fc70878c221a056d74dc643806a91" target="_top" xlink:title="Fija el color del led, no enciende el led,.">
<polygon fill="white" stroke="#666666" points="272,-19 140,-19 140,0 272,0 272,-19"/>
<text text-anchor="middle" x="206" y="-7" font-family="Helvetica,sans-Serif" font-size="10.00">Digital_dual_LED::turn_red</text>
</a>
</g>
</g>
<!-- Node1&#45;&gt;Node5 -->
<g id="edge5" class="edge">
<title>Node1&#45;&gt;Node5</title>
<path fill="none" stroke="#63b8ff" d="M104.46,-33.97C120.12,-30.16 137.34,-25.97 153.04,-22.15"/>
<polygon fill="#63b8ff" stroke="#63b8ff" points="153.8,-25.57 162.68,-19.8 152.14,-18.77 153.8,-25.57"/>
</g>
<!-- Node3&#45;&gt;Node3 -->
<g id="edge4" class="edge">
<title>Node3&#45;&gt;Node3</title>
<path fill="none" stroke="#63b8ff" d="M183.61,-56.37C173.4,-64.94 180.86,-74 206,-74 219.75,-74 228.21,-71.29 231.38,-67.43"/>
<polygon fill="#63b8ff" stroke="#63b8ff" points="234.77,-66.57 228.78,-57.83 228.02,-68.4 234.77,-66.57"/>
</g>
<!-- Node4 -->
<g id="node4" class="node">
<title>Node4</title>
<g id="a_node4"><a xlink:href="class_cooler.html#a3aa26bc227fa7a2bdcff9fe607990104" target="_top" xlink:title="Apaga el ventilador.">
<polygon fill="white" stroke="#666666" points="390,-56 308,-56 308,-37 390,-37 390,-56"/>
<text text-anchor="middle" x="349" y="-44" font-family="Helvetica,sans-Serif" font-size="10.00">Cooler::turn_off</text>
</a>
</g>
</g>
<!-- Node3&#45;&gt;Node4 -->
<g id="edge3" class="edge">
<title>Node3&#45;&gt;Node4</title>
<path fill="none" stroke="#63b8ff" d="M247.78,-46.5C262.97,-46.5 280.4,-46.5 296.43,-46.5"/>
<polygon fill="#63b8ff" stroke="#63b8ff" points="296.28,-50 306.28,-46.5 296.28,-43 296.28,-50"/>
</g>
</g>
</svg>
