<?xml version="1.0" encoding="UTF-8" standalone="no"?>
<!DOCTYPE svg PUBLIC "-//W3C//DTD SVG 1.1//EN"
 "http://www.w3.org/Graphics/SVG/1.1/DTD/svg11.dtd">
<!-- Generated by graphviz version 7.0.2 (20221119.0110)
 -->
<!-- Title: Observer_interface Pages: 1 -->
<svg width="459pt" height="192pt"
 viewBox="0.00 0.00 459.00 192.00" xmlns="http://www.w3.org/2000/svg" xmlns:xlink="http://www.w3.org/1999/xlink">
<g id="graph0" class="graph" transform="scale(1 1) rotate(0) translate(4 188)">
<title>Observer_interface</title>
<!-- Node1 -->
<g id="node1" class="node">
<title>Node1</title>
<g id="a_node1"><a xlink:title="Interfaz para implementar el patrón de diseño Observer.">
<polygon fill="#999999" stroke="#666666" points="262.5,-184 165.5,-184 165.5,-165 262.5,-165 262.5,-184"/>
<text text-anchor="middle" x="214" y="-172" font-family="Helvetica,sans-Serif" font-size="10.00">Observer_interface</text>
</a>
</g>
</g>
<!-- Node2 -->
<g id="node2" class="node">
<title>Node2</title>
<g id="a_node2"><a xlink:href="class_observer.html" target="_top" xlink:title="Clase Observer, utilizada como base del observador en una implementación del patrón de diseño Observe...">
<polygon fill="white" stroke="#666666" points="241.5,-129 186.5,-129 186.5,-110 241.5,-110 241.5,-129"/>
<text text-anchor="middle" x="214" y="-117" font-family="Helvetica,sans-Serif" font-size="10.00">Observer</text>
</a>
</g>
</g>
<!-- Node1&#45;&gt;Node2 -->
<g id="edge1" class="edge">
<title>Node1&#45;&gt;Node2</title>
<path fill="none" stroke="#63b8ff" d="M214,-153.35C214,-145.1 214,-135.97 214,-129.44"/>
<polygon fill="#63b8ff" stroke="#63b8ff" points="210.5,-153.23 214,-163.23 217.5,-153.23 210.5,-153.23"/>
</g>
<!-- Node3 -->
<g id="node3" class="node">
<title>Node3</title>
<g id="a_node3"><a xlink:href="class_system__observer.html" target="_top" xlink:title="Clase interfaz para implementar observadores para sujetos de la clase Control_system.">
<polygon fill="white" stroke="#666666" points="260,-74 168,-74 168,-55 260,-55 260,-74"/>
<text text-anchor="middle" x="214" y="-62" font-family="Helvetica,sans-Serif" font-size="10.00">System_observer</text>
</a>
</g>
</g>
<!-- Node2&#45;&gt;Node3 -->
<g id="edge2" class="edge">
<title>Node2&#45;&gt;Node3</title>
<path fill="none" stroke="#63b8ff" d="M214,-98.35C214,-90.1 214,-80.97 214,-74.44"/>
<polygon fill="#63b8ff" stroke="#63b8ff" points="210.5,-98.23 214,-108.23 217.5,-98.23 210.5,-98.23"/>
</g>
<!-- Node4 -->
<g id="node4" class="node">
<title>Node4</title>
<g id="a_node4"><a xlink:href="class_cooler__observer.html" target="_top" xlink:title="Clase heredera de System_observer, creada para observar la velocidad de los ventiladores.">
<polygon fill="white" stroke="#666666" points="86,-19 0,-19 0,0 86,0 86,-19"/>
<text text-anchor="middle" x="43" y="-7" font-family="Helvetica,sans-Serif" font-size="10.00">Cooler_observer</text>
</a>
</g>
</g>
<!-- Node3&#45;&gt;Node4 -->
<g id="edge3" class="edge">
<title>Node3&#45;&gt;Node4</title>
<path fill="none" stroke="#63b8ff" d="M174.03,-51.11C142.71,-41.41 99.9,-28.14 71.86,-19.45"/>
<polygon fill="#63b8ff" stroke="#63b8ff" points="172.96,-54.44 183.55,-54.06 175.03,-47.76 172.96,-54.44"/>
</g>
<!-- Node5 -->
<g id="node5" class="node">
<title>Node5</title>
<g id="a_node5"><a xlink:href="class_instruction__observer.html" target="_top" xlink:title="Clase heredera de System_observer, creada para observar el estado de las instrucciones.">
<polygon fill="white" stroke="#666666" points="207.5,-19 104.5,-19 104.5,0 207.5,0 207.5,-19"/>
<text text-anchor="middle" x="156" y="-7" font-family="Helvetica,sans-Serif" font-size="10.00">Instruction_observer</text>
</a>
</g>
</g>
<!-- Node3&#45;&gt;Node5 -->
<g id="edge4" class="edge">
<title>Node3&#45;&gt;Node5</title>
<path fill="none" stroke="#63b8ff" d="M195.74,-46.81C185.78,-37.72 173.86,-26.82 165.69,-19.36"/>
<polygon fill="#63b8ff" stroke="#63b8ff" points="193.3,-49.33 203.04,-53.49 198.02,-44.16 193.3,-49.33"/>
</g>
<!-- Node6 -->
<g id="node6" class="node">
<title>Node6</title>
<g id="a_node6"><a xlink:href="class_moisture__observer.html" target="_top" xlink:title="Clase heredera de System_observer, creada para observar el estado de los sensores de humedad.">
<polygon fill="white" stroke="#666666" points="320.5,-19 225.5,-19 225.5,0 320.5,0 320.5,-19"/>
<text text-anchor="middle" x="273" y="-7" font-family="Helvetica,sans-Serif" font-size="10.00">Moisture_observer</text>
</a>
</g>
</g>
<!-- Node3&#45;&gt;Node6 -->
<g id="edge5" class="edge">
<title>Node3&#45;&gt;Node6</title>
<path fill="none" stroke="#63b8ff" d="M232.27,-47.09C242.46,-37.94 254.74,-26.9 263.14,-19.36"/>
<polygon fill="#63b8ff" stroke="#63b8ff" points="230.23,-44.21 225.13,-53.5 234.91,-49.42 230.23,-44.21"/>
</g>
<!-- Node7 -->
<g id="node7" class="node">
<title>Node7</title>
<g id="a_node7"><a xlink:href="class_temperature__observer.html" target="_top" xlink:title="Clase heredera de System_observer, creada para observar el estado de los sensores de temperatura.">
<polygon fill="white" stroke="#666666" points="451,-19 339,-19 339,0 451,0 451,-19"/>
<text text-anchor="middle" x="395" y="-7" font-family="Helvetica,sans-Serif" font-size="10.00">Temperature_observer</text>
</a>
</g>
</g>
<!-- Node3&#45;&gt;Node7 -->
<g id="edge6" class="edge">
<title>Node3&#45;&gt;Node7</title>
<path fill="none" stroke="#63b8ff" d="M255.44,-51.36C288.66,-41.64 334.51,-28.21 364.45,-19.45"/>
<polygon fill="#63b8ff" stroke="#63b8ff" points="254.77,-47.91 246.16,-54.08 256.74,-54.63 254.77,-47.91"/>
</g>
</g>
</svg>
