<?xml version="1.0" encoding="UTF-8" standalone="no"?>
<!DOCTYPE svg PUBLIC "-//W3C//DTD SVG 1.1//EN"
 "http://www.w3.org/Graphics/SVG/1.1/DTD/svg11.dtd">
<!-- Generated by graphviz version 7.0.2 (20221119.0110)
 -->
<!-- Title: Shutdown_state::exit Pages: 1 -->
<!--zoomable 175 -->
<svg id="main" version="1.1" xmlns="http://www.w3.org/2000/svg" xmlns:xlink="http://www.w3.org/1999/xlink" xml:space="preserve" onload="init(evt)">
<style type="text/css"><![CDATA[
.edge:hover path { stroke: red; }
.edge:hover polygon { stroke: red; fill: red; }
]]></style>
<script type="text/javascript"><![CDATA[
var edges = document.getElementsByTagName('g');
if (edges && edges.length) {
  for (var i=0;i<edges.length;i++) {
    if (edges[i].id.substr(0,4)=='edge') {
      edges[i].setAttribute('class','edge');
    }
  }
}
]]></script>
        <defs>
                <circle id="rim" cx="0" cy="0" r="7"/>
                <circle id="rim2" cx="0" cy="0" r="3.5"/>
                <g id="zoomPlus">
                        <use xlink:href="#rim" fill="#404040">
                                <set attributeName="fill" to="#808080" begin="zoomplus.mouseover" end="zoomplus.mouseout"/>
                        </use>
                        <path d="M-4,0h8M0,-4v8" fill="none" stroke="white" stroke-width="1.5" pointer-events="none"/>
                </g>
                <g id="zoomMin">
                        <use xlink:href="#rim" fill="#404040">
                                <set attributeName="fill" to="#808080" begin="zoomminus.mouseover" end="zoomminus.mouseout"/>
                        </use>
                        <path d="M-4,0h8" fill="none" stroke="white" stroke-width="1.5" pointer-events="none"/>
                </g>
                <g id="dirArrow">
                        <path fill="none" stroke="white" stroke-width="1.5" d="M0,-3.0v7 M-2.5,-0.5L0,-3.0L2.5,-0.5"/>
                </g>
               <g id="resetDef">
                       <use xlink:href="#rim2" fill="#404040">
                               <set attributeName="fill" to="#808080" begin="reset.mouseover" end="reset.mouseout"/>
                       </use>
               </g>
        </defs>

<script type="text/javascript">
var viewWidth = 760;
var viewHeight = 175;
var sectionId = 'dynsection-3';
</script>
<script xlink:href="svgpan.js"/>
<svg id="graph" class="graph">
<g id="viewport">
<title>Shutdown_state::exit</title>
<!-- Node1 -->
<g id="node1" class="node">
<title>Node1</title>
<g id="a_node1"><a xlink:title="Salida del estado, resetea las variables del sistema e incializa la pantalla.">
<polygon fill="#999999" stroke="#666666" points="108,-93 0,-93 0,-74 108,-74 108,-93"/>
<text text-anchor="middle" x="54" y="-81" font-family="Helvetica,sans-Serif" font-size="10.00">Shutdown_state::exit</text>
</a>
</g>
</g>
<!-- Node2 -->
<g id="node2" class="node">
<title>Node2</title>
<g id="a_node2"><a xlink:href="class_control__system.html#aad36c88c9e5589336213848de7837091" target="_top" xlink:title="Inicializa el display lcd del sistema.">
<polygon fill="white" stroke="#666666" points="252.5,-128.5 148.5,-128.5 148.5,-98.5 252.5,-98.5 252.5,-128.5"/>
<text text-anchor="start" x="156.5" y="-116.5" font-family="Helvetica,sans-Serif" font-size="10.00">Control_system::init</text>
<text text-anchor="middle" x="200.5" y="-105.5" font-family="Helvetica,sans-Serif" font-size="10.00">_display</text>
</a>
</g>
</g>
<!-- Node1&#45;&gt;Node2 -->
<g id="edge1" class="edge">
<title>Node1&#45;&gt;Node2</title>
<path fill="none" stroke="#63b8ff" d="M103.12,-93.49C113.95,-95.74 125.61,-98.16 136.94,-100.51"/>
<polygon fill="#63b8ff" stroke="#63b8ff" points="136.14,-103.92 146.64,-102.53 137.56,-97.07 136.14,-103.92"/>
</g>
<!-- Node8 -->
<g id="node8" class="node">
<title>Node8</title>
<g id="a_node8"><a xlink:href="class_control__system.html#aeb1d67b1383d77bd11276f0eef97228b" target="_top" xlink:title="Resetea las variables de contexto.">
<polygon fill="white" stroke="#666666" points="257,-74.5 144,-74.5 144,-44.5 257,-44.5 257,-74.5"/>
<text text-anchor="start" x="152" y="-62.5" font-family="Helvetica,sans-Serif" font-size="10.00">Control_system::reset</text>
<text text-anchor="middle" x="200.5" y="-51.5" font-family="Helvetica,sans-Serif" font-size="10.00">_context</text>
</a>
</g>
</g>
<!-- Node1&#45;&gt;Node8 -->
<g id="edge7" class="edge">
<title>Node1&#45;&gt;Node8</title>
<path fill="none" stroke="#63b8ff" d="M108.4,-74.63C116.26,-73.32 124.45,-71.96 132.55,-70.62"/>
<polygon fill="#63b8ff" stroke="#63b8ff" points="133.12,-74.07 142.41,-68.98 131.97,-67.17 133.12,-74.07"/>
</g>
<!-- Node3 -->
<g id="node3" class="node">
<title>Node3</title>
<g id="a_node3"><a xlink:href="class_display.html#aacbf91b9f8c57fc2cb892c45fd44e655" target="_top" xlink:title="Método para inicializar el objeto, sólo se puede luego o en setup().">
<polygon fill="white" stroke="#666666" points="393,-130 325,-130 325,-111 393,-111 393,-130"/>
<text text-anchor="middle" x="359" y="-118" font-family="Helvetica,sans-Serif" font-size="10.00">Display::init</text>
</a>
</g>
</g>
<!-- Node2&#45;&gt;Node3 -->
<g id="edge2" class="edge">
<title>Node2&#45;&gt;Node3</title>
<path fill="none" stroke="#63b8ff" d="M252.74,-115.79C272.38,-116.67 294.6,-117.66 313.55,-118.51"/>
<polygon fill="#63b8ff" stroke="#63b8ff" points="313.22,-122 323.36,-118.95 313.53,-115.01 313.22,-122"/>
</g>
<!-- Node4 -->
<g id="node4" class="node">
<title>Node4</title>
<g id="a_node4"><a xlink:href="classhd44780___i2_cexp.html#a54aa9784edbb1d73b80951e2f0c061fa" target="_top" xlink:title="Ejecuta la secuencia de inicialización del display.">
<polygon fill="white" stroke="#666666" points="586.5,-167 468.5,-167 468.5,-148 586.5,-148 586.5,-167"/>
<text text-anchor="middle" x="527.5" y="-155" font-family="Helvetica,sans-Serif" font-size="10.00">hd44780_I2Cexp::begin</text>
</a>
</g>
</g>
<!-- Node3&#45;&gt;Node4 -->
<g id="edge3" class="edge">
<title>Node3&#45;&gt;Node4</title>
<path fill="none" stroke="#63b8ff" d="M393.29,-127.9C415.37,-132.8 444.87,-139.36 470.5,-145.06"/>
<polygon fill="#63b8ff" stroke="#63b8ff" points="469.59,-148.44 480.12,-147.19 471.11,-141.61 469.59,-148.44"/>
</g>
<!-- Node5 -->
<g id="node5" class="node">
<title>Node5</title>
<g id="a_node5"><a xlink:href="classhd44780___i2_cexp.html#ab25b744a9de62f700d5736864640d21b" target="_top" xlink:title="Lleva el cursor al origen de coordenadas.">
<polygon fill="white" stroke="#666666" points="587,-130 468,-130 468,-111 587,-111 587,-130"/>
<text text-anchor="middle" x="527.5" y="-118" font-family="Helvetica,sans-Serif" font-size="10.00">hd44780_I2Cexp::home</text>
</a>
</g>
</g>
<!-- Node3&#45;&gt;Node5 -->
<g id="edge4" class="edge">
<title>Node3&#45;&gt;Node5</title>
<path fill="none" stroke="#63b8ff" d="M393.29,-120.5C411.4,-120.5 434.5,-120.5 456.36,-120.5"/>
<polygon fill="#63b8ff" stroke="#63b8ff" points="456.14,-124 466.14,-120.5 456.14,-117 456.14,-124"/>
</g>
<!-- Node7 -->
<g id="node7" class="node">
<title>Node7</title>
<g id="a_node7"><a xlink:href="classhd44780___i2_cexp.html#afa96f48e955041cedc9cb4ccc7dc1c6c" target="_top" xlink:title="Habilita la envoltura de líneas automática. Cualquier oración que sea demasiado larga como para mostr...">
<polygon fill="white" stroke="#666666" points="594,-93 461,-93 461,-74 594,-74 594,-93"/>
<text text-anchor="middle" x="527.5" y="-81" font-family="Helvetica,sans-Serif" font-size="10.00">hd44780_I2Cexp::lineWrap</text>
</a>
</g>
</g>
<!-- Node3&#45;&gt;Node7 -->
<g id="edge6" class="edge">
<title>Node3&#45;&gt;Node7</title>
<path fill="none" stroke="#63b8ff" d="M393.29,-113.1C415.37,-108.2 444.87,-101.64 470.5,-95.94"/>
<polygon fill="#63b8ff" stroke="#63b8ff" points="471.11,-99.39 480.12,-93.81 469.59,-92.56 471.11,-99.39"/>
</g>
<!-- Node6 -->
<g id="node6" class="node">
<title>Node6</title>
<g id="a_node6"><a xlink:href="classhd44780___i2_cexp.html#a13020db13c26b6d7ba6ff2ebb42e4053" target="_top" xlink:title="Mueve el cursor.">
<polygon fill="white" stroke="#666666" points="752,-130 630,-130 630,-111 752,-111 752,-130"/>
<text text-anchor="middle" x="691" y="-118" font-family="Helvetica,sans-Serif" font-size="10.00">hd44780_I2Cexp::cursor</text>
</a>
</g>
</g>
<!-- Node5&#45;&gt;Node6 -->
<g id="edge5" class="edge">
<title>Node5&#45;&gt;Node6</title>
<path fill="none" stroke="#63b8ff" d="M587.26,-120.5C597.4,-120.5 608.03,-120.5 618.46,-120.5"/>
<polygon fill="#63b8ff" stroke="#63b8ff" points="618.14,-124 628.14,-120.5 618.14,-117 618.14,-124"/>
</g>
<!-- Node9 -->
<g id="node9" class="node">
<title>Node9</title>
<g id="a_node9"><a xlink:href="class_cooler.html#a3aa26bc227fa7a2bdcff9fe607990104" target="_top" xlink:title="Apaga el ventilador.">
<polygon fill="white" stroke="#666666" points="400,-93 318,-93 318,-74 400,-74 400,-93"/>
<text text-anchor="middle" x="359" y="-81" font-family="Helvetica,sans-Serif" font-size="10.00">Cooler::turn_off</text>
</a>
</g>
</g>
<!-- Node8&#45;&gt;Node9 -->
<g id="edge8" class="edge">
<title>Node8&#45;&gt;Node9</title>
<path fill="none" stroke="#63b8ff" d="M257.12,-68.03C273.24,-70.5 290.76,-73.19 306.6,-75.62"/>
<polygon fill="#63b8ff" stroke="#63b8ff" points="305.89,-79.05 316.31,-77.11 306.96,-72.13 305.89,-79.05"/>
</g>
<!-- Node10 -->
<g id="node10" class="node">
<title>Node10</title>
<g id="a_node10"><a xlink:href="class_dual___l_e_d.html#a4226b64f8b1c00f3e4c649a8be2e64c9" target="_top" xlink:title="Apaga el LED.">
<polygon fill="white" stroke="#666666" points="408,-56 310,-56 310,-37 408,-37 408,-56"/>
<text text-anchor="middle" x="359" y="-44" font-family="Helvetica,sans-Serif" font-size="10.00">Dual_LED::turn_off</text>
</a>
</g>
</g>
<!-- Node8&#45;&gt;Node10 -->
<g id="edge9" class="edge">
<title>Node8&#45;&gt;Node10</title>
<path fill="none" stroke="#63b8ff" d="M257.12,-54.88C270.5,-53.77 284.85,-52.58 298.41,-51.45"/>
<polygon fill="#63b8ff" stroke="#63b8ff" points="298.39,-54.96 308.06,-50.65 297.81,-47.99 298.39,-54.96"/>
</g>
<!-- Node11 -->
<g id="node11" class="node">
<title>Node11</title>
<g id="a_node11"><a xlink:href="class_digital__dual___l_e_d.html#a601fc70878c221a056d74dc643806a91" target="_top" xlink:title="Fija el color del led, no enciende el led,.">
<polygon fill="white" stroke="#666666" points="425,-19 293,-19 293,0 425,0 425,-19"/>
<text text-anchor="middle" x="359" y="-7" font-family="Helvetica,sans-Serif" font-size="10.00">Digital_dual_LED::turn_red</text>
</a>
</g>
</g>
<!-- Node8&#45;&gt;Node11 -->
<g id="edge10" class="edge">
<title>Node8&#45;&gt;Node11</title>
<path fill="none" stroke="#63b8ff" d="M243.67,-44.1C259.11,-38.63 276.78,-32.58 293,-27.5 298.38,-25.82 304.03,-24.13 309.67,-22.5"/>
<polygon fill="#63b8ff" stroke="#63b8ff" points="310.29,-25.96 318.95,-19.87 308.38,-19.23 310.29,-25.96"/>
</g>
</g>
</svg>
        <g id="navigator" transform="translate(0 0)" fill="#404254">
                <rect fill="#f2f5e9" fill-opacity="0.5" stroke="#606060" stroke-width=".5" x="0" y="0" width="60" height="60"/>
                <use id="zoomplus" xlink:href="#zoomPlus" x="17" y="9" onmousedown="handleZoom(evt,'in')"/>
                <use id="zoomminus" xlink:href="#zoomMin" x="42" y="9" onmousedown="handleZoom(evt,'out')"/>
                <use id="reset" xlink:href="#resetDef" x="30" y="36" onmousedown="handleReset()"/>
                <g id="arrowUp" xlink:href="#dirArrow" transform="translate(30 24)" onmousedown="handlePan(0,-1)">
                  <use xlink:href="#rim" fill="#404040">
                        <set attributeName="fill" to="#808080" begin="arrowUp.mouseover" end="arrowUp.mouseout"/>
                  </use>
                  <path fill="none" stroke="white" stroke-width="1.5" d="M0,-3.0v7 M-2.5,-0.5L0,-3.0L2.5,-0.5"/>
                </g>
                <g id="arrowRight" xlink:href="#dirArrow" transform="rotate(90) translate(36 -43)" onmousedown="handlePan(1,0)">
                  <use xlink:href="#rim" fill="#404040">
                        <set attributeName="fill" to="#808080" begin="arrowRight.mouseover" end="arrowRight.mouseout"/>
                  </use>
                  <path fill="none" stroke="white" stroke-width="1.5" d="M0,-3.0v7 M-2.5,-0.5L0,-3.0L2.5,-0.5"/>
                </g>
                <g id="arrowDown" xlink:href="#dirArrow" transform="rotate(180) translate(-30 -48)" onmousedown="handlePan(0,1)">
                  <use xlink:href="#rim" fill="#404040">
                        <set attributeName="fill" to="#808080" begin="arrowDown.mouseover" end="arrowDown.mouseout"/>
                  </use>
                  <path fill="none" stroke="white" stroke-width="1.5" d="M0,-3.0v7 M-2.5,-0.5L0,-3.0L2.5,-0.5"/>
                </g>
                <g id="arrowLeft" xlink:href="#dirArrow" transform="rotate(270) translate(-36 17)" onmousedown="handlePan(-1,0)">
                  <use xlink:href="#rim" fill="#404040">
                        <set attributeName="fill" to="#808080" begin="arrowLeft.mouseover" end="arrowLeft.mouseout"/>
                  </use>
                  <path fill="none" stroke="white" stroke-width="1.5" d="M0,-3.0v7 M-2.5,-0.5L0,-3.0L2.5,-0.5"/>
                </g>
        </g>
        <svg viewBox="0 0 15 15" width="100%" height="30px" preserveAspectRatio="xMaxYMin meet">
         <g id="arrow_out" transform="scale(0.3 0.3)">
          <a xlink:href="class_shutdown__state_accbc4c856709e26453e2e23c5c1e4f8e_cgraph_org.svg" target="_base">
           <rect id="button" ry="5" rx="5" y="6" x="6" height="38" width="38"
                fill="#f2f5e9" fill-opacity="0.5" stroke="#606060" stroke-width="1.0"/>
           <path id="arrow"
             d="M 11.500037,31.436501 C 11.940474,20.09759 22.043105,11.32322 32.158766,21.979434 L 37.068811,17.246167 C 37.068811,17.246167 37.088388,32 37.088388,32 L 22.160133,31.978069 C 22.160133,31.978069 26.997745,27.140456 26.997745,27.140456 C 18.528582,18.264221 13.291696,25.230495 11.500037,31.436501 z"
             style="fill:#404040;"/>
          </a>
         </g>
        </svg>
</svg>
