<?xml version="1.0" encoding="UTF-8" standalone="no"?>
<!DOCTYPE svg PUBLIC "-//W3C//DTD SVG 1.1//EN"
 "http://www.w3.org/Graphics/SVG/1.1/DTD/svg11.dtd">
<!-- Generated by graphviz version 7.0.2 (20221119.0110)
 -->
<!-- Title: Buzzer::turn_off Pages: 1 -->
<svg width="371pt" height="76pt"
 viewBox="0.00 0.00 371.00 75.50" xmlns="http://www.w3.org/2000/svg" xmlns:xlink="http://www.w3.org/1999/xlink">
<g id="graph0" class="graph" transform="scale(1 1) rotate(0) translate(4 71.5)">
<title>Buzzer::turn_off</title>
<!-- Node1 -->
<g id="node1" class="node">
<title>Node1</title>
<g id="a_node1"><a xlink:title="Apaga el buzzer.">
<polygon fill="#999999" stroke="#666666" points="363,-40 278,-40 278,-21 363,-21 363,-40"/>
<text text-anchor="middle" x="320.5" y="-28" font-family="Helvetica,sans-Serif" font-size="10.00">Buzzer::turn_off</text>
</a>
</g>
</g>
<!-- Node2 -->
<g id="node2" class="node">
<title>Node2</title>
<g id="a_node2"><a xlink:href="class_motor__control__state.html#aad1d65bba61eca448757e07e4e7dcb2b" target="_top" xlink:title="Salida del estado, apaga LEDs y Buzzer.">
<polygon fill="white" stroke="#666666" points="242,-67.5 139,-67.5 139,-37.5 242,-37.5 242,-67.5"/>
<text text-anchor="start" x="147" y="-55.5" font-family="Helvetica,sans-Serif" font-size="10.00">Motor_control_state</text>
<text text-anchor="middle" x="190.5" y="-44.5" font-family="Helvetica,sans-Serif" font-size="10.00">::exit</text>
</a>
</g>
</g>
<!-- Node1&#45;&gt;Node2 -->
<g id="edge1" class="edge">
<title>Node1&#45;&gt;Node2</title>
<path fill="none" stroke="#63b8ff" d="M266.26,-39.65C258.38,-41.01 250.27,-42.4 242.44,-43.74"/>
<polygon fill="#63b8ff" stroke="#63b8ff" points="266.83,-43.1 276.1,-37.96 265.65,-36.2 266.83,-43.1"/>
</g>
<!-- Node4 -->
<g id="node4" class="node">
<title>Node4</title>
<g id="a_node4"><a xlink:href="class_buzzer.html#a7d0275af89ab487903752edc29a5bf2c" target="_top" xlink:title="Permuta el estado del led, si estaba encendido pasará a apagado y viceversa.">
<polygon fill="white" stroke="#666666" points="230.5,-19 150.5,-19 150.5,0 230.5,0 230.5,-19"/>
<text text-anchor="middle" x="190.5" y="-7" font-family="Helvetica,sans-Serif" font-size="10.00">Buzzer::toggle</text>
</a>
</g>
</g>
<!-- Node1&#45;&gt;Node4 -->
<g id="edge3" class="edge">
<title>Node1&#45;&gt;Node4</title>
<path fill="none" stroke="#63b8ff" d="M266.41,-21.79C254.52,-19.84 242.11,-17.8 230.9,-15.96"/>
<polygon fill="#63b8ff" stroke="#63b8ff" points="265.66,-25.21 276.09,-23.38 266.79,-18.31 265.66,-25.21"/>
</g>
<!-- Node3 -->
<g id="node3" class="node">
<title>Node3</title>
<g id="a_node3"><a xlink:href="class_motor__control__state.html#a399ab3c70b5a5d98f7b6ca5f5dfd5ecb" target="_top" xlink:title="Transición de estados.">
<polygon fill="white" stroke="#666666" points="103,-67.5 0,-67.5 0,-37.5 103,-37.5 103,-67.5"/>
<text text-anchor="start" x="8" y="-55.5" font-family="Helvetica,sans-Serif" font-size="10.00">Motor_control_state</text>
<text text-anchor="middle" x="51.5" y="-44.5" font-family="Helvetica,sans-Serif" font-size="10.00">::transition</text>
</a>
</g>
</g>
<!-- Node2&#45;&gt;Node3 -->
<g id="edge2" class="edge">
<title>Node2&#45;&gt;Node3</title>
<path fill="none" stroke="#63b8ff" d="M127.56,-52.5C119.47,-52.5 111.26,-52.5 103.37,-52.5"/>
<polygon fill="#63b8ff" stroke="#63b8ff" points="127.36,-56 137.36,-52.5 127.36,-49 127.36,-56"/>
</g>
</g>
</svg>
