<?xml version="1.0" encoding="UTF-8" standalone="no"?>
<!DOCTYPE svg PUBLIC "-//W3C//DTD SVG 1.1//EN"
 "http://www.w3.org/Graphics/SVG/1.1/DTD/svg11.dtd">
<!-- Generated by graphviz version 7.0.2 (20221119.0110)
 -->
<!-- Title: Cooler::turn_off Pages: 1 -->
<svg width="565pt" height="240pt"
 viewBox="0.00 0.00 565.00 240.41" xmlns="http://www.w3.org/2000/svg" xmlns:xlink="http://www.w3.org/1999/xlink">
<g id="graph0" class="graph" transform="scale(1 1) rotate(0) translate(4 236.41)">
<title>Cooler::turn_off</title>
<!-- Node1 -->
<g id="node1" class="node">
<title>Node1</title>
<g id="a_node1"><a xlink:title="Apaga el ventilador.">
<polygon fill="#999999" stroke="#666666" points="557,-163.5 475,-163.5 475,-144.5 557,-144.5 557,-163.5"/>
<text text-anchor="middle" x="516" y="-151.5" font-family="Helvetica,sans-Serif" font-size="10.00">Cooler::turn_off</text>
</a>
</g>
</g>
<!-- Node2 -->
<g id="node2" class="node">
<title>Node2</title>
<g id="a_node2"><a xlink:href="class_check__instruction__state.html#ae13ba3789ab274a7dddf19be0a413b55" target="_top" xlink:title="Método que se llama al ingresar al estado.">
<polygon fill="white" stroke="#666666" points="127,-222 5,-222 5,-192 127,-192 127,-222"/>
<text text-anchor="start" x="13" y="-210" font-family="Helvetica,sans-Serif" font-size="10.00">Check_instruction_state</text>
<text text-anchor="middle" x="66" y="-199" font-family="Helvetica,sans-Serif" font-size="10.00">::enter</text>
</a>
</g>
</g>
<!-- Node1&#45;&gt;Node2 -->
<g id="edge1" class="edge">
<title>Node1&#45;&gt;Node2</title>
<path fill="none" stroke="#63b8ff" d="M497.97,-171.61C483.67,-185.03 461.95,-202.46 439,-210 333.77,-244.58 202.58,-231.48 127.44,-219.07"/>
<polygon fill="#63b8ff" stroke="#63b8ff" points="500.07,-174.45 504.77,-164.95 495.18,-169.44 500.07,-174.45"/>
</g>
<!-- Node3 -->
<g id="node3" class="node">
<title>Node3</title>
<g id="a_node3"><a xlink:href="class_control__system.html#ab4bd82b7c907b415fdc102ed1fa89c7c" target="_top" xlink:title="Según la variable context.current_alarm resuelve el comportamiento de la alarma.">
<polygon fill="white" stroke="#666666" points="288.5,-153 169.5,-153 169.5,-123 288.5,-123 288.5,-153"/>
<text text-anchor="start" x="177.5" y="-141" font-family="Helvetica,sans-Serif" font-size="10.00">Control_system::handle</text>
<text text-anchor="middle" x="229" y="-130" font-family="Helvetica,sans-Serif" font-size="10.00">_alarm</text>
</a>
</g>
</g>
<!-- Node1&#45;&gt;Node3 -->
<g id="edge2" class="edge">
<title>Node1&#45;&gt;Node3</title>
<path fill="none" stroke="#63b8ff" d="M463.45,-151.11C414.28,-148.35 340.29,-144.19 288.83,-141.3"/>
<polygon fill="#63b8ff" stroke="#63b8ff" points="463.08,-154.59 473.26,-151.66 463.47,-147.6 463.08,-154.59"/>
</g>
<!-- Node5 -->
<g id="node5" class="node">
<title>Node5</title>
<g id="a_node5"><a xlink:href="class_control__system.html#aeb1d67b1383d77bd11276f0eef97228b" target="_top" xlink:title="Resetea las variables de contexto.">
<polygon fill="white" stroke="#666666" points="439,-90 326,-90 326,-60 439,-60 439,-90"/>
<text text-anchor="start" x="334" y="-78" font-family="Helvetica,sans-Serif" font-size="10.00">Control_system::reset</text>
<text text-anchor="middle" x="382.5" y="-67" font-family="Helvetica,sans-Serif" font-size="10.00">_context</text>
</a>
</g>
</g>
<!-- Node1&#45;&gt;Node5 -->
<g id="edge4" class="edge">
<title>Node1&#45;&gt;Node5</title>
<path fill="none" stroke="#63b8ff" d="M488.79,-138.25C465.65,-124.35 432.12,-104.21 409.15,-90.41"/>
<polygon fill="#63b8ff" stroke="#63b8ff" points="486.94,-141.23 497.31,-143.37 490.54,-135.22 486.94,-141.23"/>
</g>
<!-- Node10 -->
<g id="node10" class="node">
<title>Node10</title>
<g id="a_node10"><a xlink:href="class_cooler.html#aa98fd302dc7933fc21c046ca3ea48346" target="_top" xlink:title="Enciende el ventilador. Si el ciclo de trabajo deseado es menor que FAN_MINIMUM_DUTY_CYCLE apaga el v...">
<polygon fill="white" stroke="#666666" points="424,-182.5 341,-182.5 341,-163.5 424,-163.5 424,-182.5"/>
<text text-anchor="middle" x="382.5" y="-170.5" font-family="Helvetica,sans-Serif" font-size="10.00">Cooler::turn_on</text>
</a>
</g>
</g>
<!-- Node1&#45;&gt;Node10 -->
<g id="edge9" class="edge">
<title>Node1&#45;&gt;Node10</title>
<path fill="none" stroke="#63b8ff" d="M463.63,-161.42C450.6,-163.31 436.77,-165.3 424.33,-167.1"/>
<polygon fill="#63b8ff" stroke="#63b8ff" points="463.94,-164.91 473.33,-160.02 462.94,-157.99 463.94,-164.91"/>
</g>
<!-- Node4 -->
<g id="node4" class="node">
<title>Node4</title>
<g id="a_node4"><a xlink:href="class_alarm__state.html#acea6eee2b8d267b67192bbce9e495038" target="_top" xlink:title="Actualización, cambia el color del LED según el estado del motor y hace sonar la alarma....">
<polygon fill="white" stroke="#666666" points="118,-147.5 14,-147.5 14,-128.5 118,-128.5 118,-147.5"/>
<text text-anchor="middle" x="66" y="-135.5" font-family="Helvetica,sans-Serif" font-size="10.00">Alarm_state::update</text>
</a>
</g>
</g>
<!-- Node3&#45;&gt;Node4 -->
<g id="edge3" class="edge">
<title>Node3&#45;&gt;Node4</title>
<path fill="none" stroke="#63b8ff" d="M158.28,-138C144.87,-138 131.05,-138 118.35,-138"/>
<polygon fill="#63b8ff" stroke="#63b8ff" points="157.91,-141.5 167.91,-138 157.91,-134.5 157.91,-141.5"/>
</g>
<!-- Node6 -->
<g id="node6" class="node">
<title>Node6</title>
<g id="a_node6"><a xlink:href="class_shutdown__state.html#accbc4c856709e26453e2e23c5c1e4f8e" target="_top" xlink:title="Salida del estado, resetea las variables del sistema e incializa la pantalla.">
<polygon fill="white" stroke="#666666" points="283,-104.5 175,-104.5 175,-85.5 283,-85.5 283,-104.5"/>
<text text-anchor="middle" x="229" y="-92.5" font-family="Helvetica,sans-Serif" font-size="10.00">Shutdown_state::exit</text>
</a>
</g>
</g>
<!-- Node5&#45;&gt;Node6 -->
<g id="edge5" class="edge">
<title>Node5&#45;&gt;Node6</title>
<path fill="none" stroke="#63b8ff" d="M314.41,-83.86C304.06,-85.22 293.49,-86.62 283.49,-87.94"/>
<polygon fill="#63b8ff" stroke="#63b8ff" points="314.56,-87.37 324.02,-82.59 313.64,-80.43 314.56,-87.37"/>
</g>
<!-- Node8 -->
<g id="node8" class="node">
<title>Node8</title>
<g id="a_node8"><a xlink:href="class_control__system.html#a660ab5ac86df7cdefbbfe0942b00e13b" target="_top" xlink:title="Inicializa el sistema con el estado de apagado.">
<polygon fill="white" stroke="#666666" points="281,-67.5 177,-67.5 177,-48.5 281,-48.5 281,-67.5"/>
<text text-anchor="middle" x="229" y="-55.5" font-family="Helvetica,sans-Serif" font-size="10.00">Control_system::init</text>
</a>
</g>
</g>
<!-- Node5&#45;&gt;Node8 -->
<g id="edge7" class="edge">
<title>Node5&#45;&gt;Node8</title>
<path fill="none" stroke="#63b8ff" d="M314.14,-67.44C303.09,-66.2 291.81,-64.94 281.24,-63.75"/>
<polygon fill="#63b8ff" stroke="#63b8ff" points="313.69,-70.91 324.01,-68.55 314.47,-63.96 313.69,-70.91"/>
</g>
<!-- Node9 -->
<g id="node9" class="node">
<title>Node9</title>
<g id="a_node9"><a xlink:href="class_check__instruction__state.html#a161d1ccae3db7c6ac372b56877dc05f2" target="_top" xlink:title="Método para actualizar el estado.">
<polygon fill="white" stroke="#666666" points="290,-30 168,-30 168,0 290,0 290,-30"/>
<text text-anchor="start" x="176" y="-18" font-family="Helvetica,sans-Serif" font-size="10.00">Check_instruction_state</text>
<text text-anchor="middle" x="229" y="-7" font-family="Helvetica,sans-Serif" font-size="10.00">::update</text>
</a>
</g>
</g>
<!-- Node5&#45;&gt;Node9 -->
<g id="edge8" class="edge">
<title>Node5&#45;&gt;Node9</title>
<path fill="none" stroke="#63b8ff" d="M331.79,-55.31C311.35,-47.22 288.04,-37.99 268.88,-30.4"/>
<polygon fill="#63b8ff" stroke="#63b8ff" points="330.49,-58.56 341.08,-58.99 333.07,-52.05 330.49,-58.56"/>
</g>
<!-- Node7 -->
<g id="node7" class="node">
<title>Node7</title>
<g id="a_node7"><a xlink:href="class_shutdown__state.html#ae02b2fd80173aa50afcd73faba01b9be" target="_top" xlink:title="Transicion de estados.">
<polygon fill="white" stroke="#666666" points="132,-104.5 0,-104.5 0,-85.5 132,-85.5 132,-104.5"/>
<text text-anchor="middle" x="66" y="-92.5" font-family="Helvetica,sans-Serif" font-size="10.00">Shutdown_state::transition</text>
</a>
</g>
</g>
<!-- Node6&#45;&gt;Node7 -->
<g id="edge6" class="edge">
<title>Node6&#45;&gt;Node7</title>
<path fill="none" stroke="#63b8ff" d="M163.49,-95C153.27,-95 142.7,-95 132.46,-95"/>
<polygon fill="#63b8ff" stroke="#63b8ff" points="163.32,-98.5 173.32,-95 163.32,-91.5 163.32,-98.5"/>
</g>
<!-- Node10&#45;&gt;Node3 -->
<g id="edge10" class="edge">
<title>Node10&#45;&gt;Node3</title>
<path fill="none" stroke="#63b8ff" d="M329.37,-160.96C316.34,-157.95 302.28,-154.7 288.95,-151.62"/>
<polygon fill="#63b8ff" stroke="#63b8ff" points="328.5,-164.35 339.03,-163.19 330.07,-157.53 328.5,-164.35"/>
</g>
<!-- Node10&#45;&gt;Node10 -->
<g id="edge13" class="edge">
<title>Node10&#45;&gt;Node10</title>
<path fill="none" stroke="#63b8ff" d="M406.2,-193.93C403.23,-197.79 395.33,-200.5 382.5,-200.5 359.03,-200.5 352.07,-191.44 361.6,-182.87"/>
<polygon fill="#63b8ff" stroke="#63b8ff" points="409.61,-193.17 403.77,-184.34 402.83,-194.89 409.61,-193.17"/>
</g>
<!-- Node11 -->
<g id="node11" class="node">
<title>Node11</title>
<g id="a_node11"><a xlink:href="class_control__system.html#a46298a6a5f4ba43857baa6ae23d00dbc" target="_top" xlink:title="Fija el valor de velocidad del ventilador.">
<polygon fill="white" stroke="#666666" points="281,-201 177,-201 177,-171 281,-171 281,-201"/>
<text text-anchor="start" x="185" y="-189" font-family="Helvetica,sans-Serif" font-size="10.00">Control_system::set</text>
<text text-anchor="middle" x="229" y="-178" font-family="Helvetica,sans-Serif" font-size="10.00">_cooler_speed</text>
</a>
</g>
</g>
<!-- Node10&#45;&gt;Node11 -->
<g id="edge11" class="edge">
<title>Node10&#45;&gt;Node11</title>
<path fill="none" stroke="#63b8ff" d="M329.47,-177.46C313.91,-178.8 296.85,-180.26 281.33,-181.6"/>
<polygon fill="#63b8ff" stroke="#63b8ff" points="329.33,-180.99 338.99,-176.65 328.73,-174.02 329.33,-180.99"/>
</g>
<!-- Node11&#45;&gt;Node2 -->
<g id="edge12" class="edge">
<title>Node11&#45;&gt;Node2</title>
<path fill="none" stroke="#63b8ff" d="M165.37,-194.17C152.91,-195.79 139.84,-197.5 127.45,-199.12"/>
<polygon fill="#63b8ff" stroke="#63b8ff" points="165.65,-197.66 175.12,-192.9 164.75,-190.72 165.65,-197.66"/>
</g>
</g>
</svg>
