<?xml version="1.0" encoding="UTF-8" standalone="no"?>
<!DOCTYPE svg PUBLIC "-//W3C//DTD SVG 1.1//EN"
 "http://www.w3.org/Graphics/SVG/1.1/DTD/svg11.dtd">
<!-- Generated by graphviz version 7.0.2 (20221119.0110)
 -->
<!-- Title: Display::set_temp Pages: 1 -->
<svg width="415pt" height="38pt"
 viewBox="0.00 0.00 415.00 38.00" xmlns="http://www.w3.org/2000/svg" xmlns:xlink="http://www.w3.org/1999/xlink">
<g id="graph0" class="graph" transform="scale(1 1) rotate(0) translate(4 34)">
<title>Display::set_temp</title>
<!-- Node1 -->
<g id="node1" class="node">
<title>Node1</title>
<g id="a_node1"><a xlink:title="Fija el valor de temperatura a actualizar (no la imprime en pantalla), la ubicación se da con las con...">
<polygon fill="#999999" stroke="#666666" points="407,-24.5 312,-24.5 312,-5.5 407,-5.5 407,-24.5"/>
<text text-anchor="middle" x="359.5" y="-12.5" font-family="Helvetica,sans-Serif" font-size="10.00">Display::set_temp</text>
</a>
</g>
</g>
<!-- Node2 -->
<g id="node2" class="node">
<title>Node2</title>
<g id="a_node2"><a xlink:href="class_control__system.html#a4c3ebc85aafb8c9b8c0d7554bc7d6058" target="_top" xlink:title="Obtiene la temperatura del objeto temp_sensor.">
<polygon fill="white" stroke="#666666" points="276,-30 148,-30 148,0 276,0 276,-30"/>
<text text-anchor="start" x="156" y="-18" font-family="Helvetica,sans-Serif" font-size="10.00">Control_system::measure</text>
<text text-anchor="middle" x="212" y="-7" font-family="Helvetica,sans-Serif" font-size="10.00">_temperature</text>
</a>
</g>
</g>
<!-- Node1&#45;&gt;Node2 -->
<g id="edge1" class="edge">
<title>Node1&#45;&gt;Node2</title>
<path fill="none" stroke="#63b8ff" d="M300.36,-15C292.5,-15 284.41,-15 276.46,-15"/>
<polygon fill="#63b8ff" stroke="#63b8ff" points="300.15,-18.5 310.15,-15 300.15,-11.5 300.15,-18.5"/>
</g>
<!-- Node3 -->
<g id="node3" class="node">
<title>Node3</title>
<g id="a_node3"><a xlink:href="class_temperature__observer.html#ab90488fcff2880baae583cfe7aefb3d8" target="_top" xlink:title="Actualización del observador, mide la temperatura: si excede el umbral OVERTEMP_ALARM_TRESHOLD,...">
<polygon fill="white" stroke="#666666" points="112,-30 0,-30 0,0 112,0 112,-30"/>
<text text-anchor="start" x="8" y="-18" font-family="Helvetica,sans-Serif" font-size="10.00">Temperature_observer</text>
<text text-anchor="middle" x="56" y="-7" font-family="Helvetica,sans-Serif" font-size="10.00">::update</text>
</a>
</g>
</g>
<!-- Node2&#45;&gt;Node3 -->
<g id="edge2" class="edge">
<title>Node2&#45;&gt;Node3</title>
<path fill="none" stroke="#63b8ff" d="M136.48,-15C128.35,-15 120.18,-15 112.34,-15"/>
<polygon fill="#63b8ff" stroke="#63b8ff" points="136.4,-18.5 146.4,-15 136.4,-11.5 136.4,-18.5"/>
</g>
</g>
</svg>
