<?xml version="1.0" encoding="UTF-8" standalone="no"?>
<!DOCTYPE svg PUBLIC "-//W3C//DTD SVG 1.1//EN"
 "http://www.w3.org/Graphics/SVG/1.1/DTD/svg11.dtd">
<!-- Generated by graphviz version 7.0.2 (20221119.0110)
 -->
<!-- Title: Display::set_text Pages: 1 -->
<svg width="575pt" height="188pt"
 viewBox="0.00 0.00 575.00 187.50" xmlns="http://www.w3.org/2000/svg" xmlns:xlink="http://www.w3.org/1999/xlink">
<g id="graph0" class="graph" transform="scale(1 1) rotate(0) translate(4 183.5)">
<title>Display::set_text</title>
<!-- Node1 -->
<g id="node1" class="node">
<title>Node1</title>
<g id="a_node1"><a xlink:title="Fija el el texto a actualizar, no lo imprime en pantalla. La ubicación se da con las constantes de of...">
<polygon fill="#999999" stroke="#666666" points="567,-136 477,-136 477,-117 567,-117 567,-136"/>
<text text-anchor="middle" x="522" y="-124" font-family="Helvetica,sans-Serif" font-size="10.00">Display::set_text</text>
</a>
</g>
</g>
<!-- Node2 -->
<g id="node2" class="node">
<title>Node2</title>
<g id="a_node2"><a xlink:href="class_control__system.html#ab4bd82b7c907b415fdc102ed1fa89c7c" target="_top" xlink:title="Según la variable context.current_alarm resuelve el comportamiento de la alarma.">
<polygon fill="white" stroke="#666666" points="284.5,-179.5 165.5,-179.5 165.5,-149.5 284.5,-149.5 284.5,-179.5"/>
<text text-anchor="start" x="173.5" y="-167.5" font-family="Helvetica,sans-Serif" font-size="10.00">Control_system::handle</text>
<text text-anchor="middle" x="225" y="-156.5" font-family="Helvetica,sans-Serif" font-size="10.00">_alarm</text>
</a>
</g>
</g>
<!-- Node1&#45;&gt;Node2 -->
<g id="edge1" class="edge">
<title>Node1&#45;&gt;Node2</title>
<path fill="none" stroke="#63b8ff" d="M483.04,-139.81C469.88,-143.9 454.94,-147.99 441,-150.5 388.73,-159.92 328.29,-163.19 284.84,-164.25"/>
<polygon fill="#63b8ff" stroke="#63b8ff" points="483.72,-143.26 492.17,-136.86 481.58,-136.6 483.72,-143.26"/>
</g>
<!-- Node4 -->
<g id="node4" class="node">
<title>Node4</title>
<g id="a_node4"><a xlink:href="class_control__system.html#ac1cd148e897c5ce2ef405dd45ddf964f" target="_top" xlink:title="Muestra en pantalla el paso del procedimientoa actual.">
<polygon fill="white" stroke="#666666" points="441,-93.5 328,-93.5 328,-63.5 441,-63.5 441,-93.5"/>
<text text-anchor="start" x="336" y="-81.5" font-family="Helvetica,sans-Serif" font-size="10.00">Control_system::show</text>
<text text-anchor="middle" x="384.5" y="-70.5" font-family="Helvetica,sans-Serif" font-size="10.00">_current_step</text>
</a>
</g>
</g>
<!-- Node1&#45;&gt;Node4 -->
<g id="edge3" class="edge">
<title>Node1&#45;&gt;Node4</title>
<path fill="none" stroke="#63b8ff" d="M482.45,-112.84C465.78,-106.94 446.2,-100 429.02,-93.92"/>
<polygon fill="#63b8ff" stroke="#63b8ff" points="480.9,-116.01 491.5,-116.05 483.24,-109.41 480.9,-116.01"/>
</g>
<!-- Node9 -->
<g id="node9" class="node">
<title>Node9</title>
<g id="a_node9"><a xlink:href="class_control__system.html#a62a2c6a8167ade6a6ae054393b91d381" target="_top" xlink:title="Muestra el mensaje de error por pantalla.">
<polygon fill="white" stroke="#666666" points="441,-141.5 328,-141.5 328,-111.5 441,-111.5 441,-141.5"/>
<text text-anchor="start" x="336" y="-129.5" font-family="Helvetica,sans-Serif" font-size="10.00">Control_system::show</text>
<text text-anchor="middle" x="384.5" y="-118.5" font-family="Helvetica,sans-Serif" font-size="10.00">_error_msg</text>
</a>
</g>
</g>
<!-- Node1&#45;&gt;Node9 -->
<g id="edge9" class="edge">
<title>Node1&#45;&gt;Node9</title>
<path fill="none" stroke="#63b8ff" d="M465.27,-126.5C457.38,-126.5 449.25,-126.5 441.35,-126.5"/>
<polygon fill="#63b8ff" stroke="#63b8ff" points="465.12,-130 475.12,-126.5 465.12,-123 465.12,-130"/>
</g>
<!-- Node3 -->
<g id="node3" class="node">
<title>Node3</title>
<g id="a_node3"><a xlink:href="class_alarm__state.html#acea6eee2b8d267b67192bbce9e495038" target="_top" xlink:title="Actualización, cambia el color del LED según el estado del motor y hace sonar la alarma....">
<polygon fill="white" stroke="#666666" points="113,-152 9,-152 9,-133 113,-133 113,-152"/>
<text text-anchor="middle" x="61" y="-140" font-family="Helvetica,sans-Serif" font-size="10.00">Alarm_state::update</text>
</a>
</g>
</g>
<!-- Node2&#45;&gt;Node3 -->
<g id="edge2" class="edge">
<title>Node2&#45;&gt;Node3</title>
<path fill="none" stroke="#63b8ff" d="M153.79,-154.97C140.22,-153.12 126.24,-151.22 113.41,-149.48"/>
<polygon fill="#63b8ff" stroke="#63b8ff" points="153.18,-158.41 163.56,-156.29 154.12,-151.48 153.18,-158.41"/>
</g>
<!-- Node4&#45;&gt;Node3 -->
<g id="edge7" class="edge">
<title>Node4&#45;&gt;Node3</title>
<path fill="none" stroke="#63b8ff" d="M316.41,-95.93C308.21,-97.9 299.93,-99.8 292,-101.5 230.93,-114.6 160.1,-126.78 113.36,-134.4"/>
<polygon fill="#63b8ff" stroke="#63b8ff" points="317.15,-99.36 326.04,-93.59 315.5,-92.55 317.15,-99.36"/>
</g>
<!-- Node5 -->
<g id="node5" class="node">
<title>Node5</title>
<g id="a_node5"><a xlink:href="class_idle__state.html#ad6d70e591dd39da724656a4261013e4f" target="_top" xlink:title="Método llamado al ingresar al estado. Actualiza la pantalla con el paso del procedimiento actual.">
<polygon fill="white" stroke="#666666" points="268,-93 182,-93 182,-74 268,-74 268,-93"/>
<text text-anchor="middle" x="225" y="-81" font-family="Helvetica,sans-Serif" font-size="10.00">Idle_state::enter</text>
</a>
</g>
</g>
<!-- Node4&#45;&gt;Node5 -->
<g id="edge4" class="edge">
<title>Node4&#45;&gt;Node5</title>
<path fill="none" stroke="#63b8ff" d="M316.41,-80.63C300.14,-81.15 283.19,-81.68 268.42,-82.15"/>
<polygon fill="#63b8ff" stroke="#63b8ff" points="316.13,-84.14 326.02,-80.32 315.91,-77.14 316.13,-84.14"/>
</g>
<!-- Node6 -->
<g id="node6" class="node">
<title>Node6</title>
<g id="a_node6"><a xlink:href="class_control__system.html#aa98b33b5c57a47fb55e211516e49088b" target="_top" xlink:title="Enciende el buzzer por 100ms (bloqueante) y, si no esta anulado el próximo paso, avanza hacia la sigu...">
<polygon fill="white" stroke="#666666" points="292,-56 158,-56 158,-37 292,-37 292,-56"/>
<text text-anchor="middle" x="225" y="-44" font-family="Helvetica,sans-Serif" font-size="10.00">Control_system::next_step</text>
</a>
</g>
</g>
<!-- Node4&#45;&gt;Node6 -->
<g id="edge5" class="edge">
<title>Node4&#45;&gt;Node6</title>
<path fill="none" stroke="#63b8ff" d="M316.5,-64.89C302.57,-62.06 288.13,-59.12 274.99,-56.45"/>
<polygon fill="#63b8ff" stroke="#63b8ff" points="315.55,-68.27 326.04,-66.83 316.94,-61.41 315.55,-68.27"/>
</g>
<!-- Node8 -->
<g id="node8" class="node">
<title>Node8</title>
<g id="a_node8"><a xlink:href="class_idle__state.html#a92217c98eda8e3bd47eb3a8ff602efc2" target="_top" xlink:title="Método para actualizar el sistema cuando está en estado de reposo. Actualiza la pantalla y los observ...">
<polygon fill="white" stroke="#666666" points="272,-19 178,-19 178,0 272,0 272,-19"/>
<text text-anchor="middle" x="225" y="-7" font-family="Helvetica,sans-Serif" font-size="10.00">Idle_state::update</text>
</a>
</g>
</g>
<!-- Node4&#45;&gt;Node8 -->
<g id="edge8" class="edge">
<title>Node4&#45;&gt;Node8</title>
<path fill="none" stroke="#63b8ff" d="M350.38,-57.48C333.41,-47.38 312.13,-35.71 292,-27.5 284.52,-24.45 276.36,-21.75 268.41,-19.43"/>
<polygon fill="#63b8ff" stroke="#63b8ff" points="348.17,-60.23 358.54,-62.42 351.8,-54.24 348.17,-60.23"/>
</g>
<!-- Node7 -->
<g id="node7" class="node">
<title>Node7</title>
<g id="a_node7"><a xlink:href="class_check__instruction__state.html#ae13ba3789ab274a7dddf19be0a413b55" target="_top" xlink:title="Entrada del estado, resuelve las instrucciones a realizar en cada paso: &#45;WELCOME_STEP: Primer paso,...">
<polygon fill="white" stroke="#666666" points="122,-61.5 0,-61.5 0,-31.5 122,-31.5 122,-61.5"/>
<text text-anchor="start" x="8" y="-49.5" font-family="Helvetica,sans-Serif" font-size="10.00">Check_instruction_state</text>
<text text-anchor="middle" x="61" y="-38.5" font-family="Helvetica,sans-Serif" font-size="10.00">::enter</text>
</a>
</g>
</g>
<!-- Node6&#45;&gt;Node7 -->
<g id="edge6" class="edge">
<title>Node6&#45;&gt;Node7</title>
<path fill="none" stroke="#63b8ff" d="M146.29,-46.5C138.22,-46.5 130.11,-46.5 122.27,-46.5"/>
<polygon fill="#63b8ff" stroke="#63b8ff" points="146.13,-50 156.13,-46.5 146.13,-43 146.13,-50"/>
</g>
<!-- Node9&#45;&gt;Node2 -->
<g id="edge10" class="edge">
<title>Node9&#45;&gt;Node2</title>
<path fill="none" stroke="#63b8ff" d="M316.36,-142.7C305.93,-145.22 295.22,-147.8 284.99,-150.27"/>
<polygon fill="#63b8ff" stroke="#63b8ff" points="317.16,-146.11 326.06,-140.36 315.51,-139.3 317.16,-146.11"/>
</g>
</g>
</svg>
