<?xml version="1.0" encoding="UTF-8" standalone="no"?>
<!DOCTYPE svg PUBLIC "-//W3C//DTD SVG 1.1//EN"
 "http://www.w3.org/Graphics/SVG/1.1/DTD/svg11.dtd">
<!-- Generated by graphviz version 7.0.2 (20221119.0110)
 -->
<!-- Title: Buzzer::turn_on Pages: 1 -->
<svg width="233pt" height="76pt"
 viewBox="0.00 0.00 233.00 75.50" xmlns="http://www.w3.org/2000/svg" xmlns:xlink="http://www.w3.org/1999/xlink">
<g id="graph0" class="graph" transform="scale(1 1) rotate(0) translate(4 71.5)">
<title>Buzzer::turn_on</title>
<!-- Node1 -->
<g id="node1" class="node">
<title>Node1</title>
<g id="a_node1"><a xlink:title="Enciende el buzzer con con una duración en milisegundos duration, por defecto enciende el buzzer por ...">
<polygon fill="#999999" stroke="#666666" points="225,-45.5 139,-45.5 139,-26.5 225,-26.5 225,-45.5"/>
<text text-anchor="middle" x="182" y="-33.5" font-family="Helvetica,sans-Serif" font-size="10.00">Buzzer::turn_on</text>
</a>
</g>
</g>
<!-- Node2 -->
<g id="node2" class="node">
<title>Node2</title>
<g id="a_node2"><a xlink:href="class_buzzer.html#a7d0275af89ab487903752edc29a5bf2c" target="_top" xlink:title="Permuta el estado del led, si estaba encendido pasará a apagado y viceversa.">
<polygon fill="white" stroke="#666666" points="91.5,-67.5 11.5,-67.5 11.5,-48.5 91.5,-48.5 91.5,-67.5"/>
<text text-anchor="middle" x="51.5" y="-55.5" font-family="Helvetica,sans-Serif" font-size="10.00">Buzzer::toggle</text>
</a>
</g>
</g>
<!-- Node1&#45;&gt;Node2 -->
<g id="edge1" class="edge">
<title>Node1&#45;&gt;Node2</title>
<path fill="none" stroke="#63b8ff" d="M127.36,-45.18C115.46,-47.22 103.05,-49.35 91.84,-51.26"/>
<polygon fill="#63b8ff" stroke="#63b8ff" points="127.81,-48.66 137.08,-43.52 126.63,-41.76 127.81,-48.66"/>
</g>
<!-- Node3 -->
<g id="node3" class="node">
<title>Node3</title>
<g id="a_node3"><a xlink:href="class_motor__control__state.html#a958e3393b9937ddea35e85efdd21e342" target="_top" xlink:title="Actualización, cambia el color del LED según el estado del motor y hace sonar la alarma....">
<polygon fill="white" stroke="#666666" points="103,-30 0,-30 0,0 103,0 103,-30"/>
<text text-anchor="start" x="8" y="-18" font-family="Helvetica,sans-Serif" font-size="10.00">Motor_control_state</text>
<text text-anchor="middle" x="51.5" y="-7" font-family="Helvetica,sans-Serif" font-size="10.00">::update</text>
</a>
</g>
</g>
<!-- Node1&#45;&gt;Node3 -->
<g id="edge2" class="edge">
<title>Node1&#45;&gt;Node3</title>
<path fill="none" stroke="#63b8ff" d="M127.22,-27.21C119.32,-25.92 111.21,-24.6 103.38,-23.32"/>
<polygon fill="#63b8ff" stroke="#63b8ff" points="126.64,-30.66 137.07,-28.82 127.77,-23.75 126.64,-30.66"/>
</g>
</g>
</svg>
