<?xml version="1.0" encoding="UTF-8" standalone="no"?>
<!DOCTYPE svg PUBLIC "-//W3C//DTD SVG 1.1//EN"
 "http://www.w3.org/Graphics/SVG/1.1/DTD/svg11.dtd">
<!-- Generated by graphviz version 7.0.2 (20221119.0110)
 -->
<!-- Title: Cooler_observer::update Pages: 1 -->
<svg width="414pt" height="134pt"
 viewBox="0.00 0.00 414.00 134.00" xmlns="http://www.w3.org/2000/svg" xmlns:xlink="http://www.w3.org/1999/xlink">
<g id="graph0" class="graph" transform="scale(1 1) rotate(0) translate(4 130)">
<title>Cooler_observer::update</title>
<!-- Node1 -->
<g id="node1" class="node">
<title>Node1</title>
<g id="a_node1"><a xlink:title="Si el indicador de próximo paso del usuario está activo y el acceso a la próxima instrucción no esté ...">
<polygon fill="#999999" stroke="#666666" points="121,-72.5 0,-72.5 0,-53.5 121,-53.5 121,-72.5"/>
<text text-anchor="middle" x="60.5" y="-60.5" font-family="Helvetica,sans-Serif" font-size="10.00">Cooler_observer::update</text>
</a>
</g>
</g>
<!-- Node2 -->
<g id="node2" class="node">
<title>Node2</title>
<g id="a_node2"><a xlink:href="class_control__system.html#a0a8fcaf886a9d8a688e0a05fb3422fe1" target="_top" xlink:title="Devuelve el estado del ventilador.">
<polygon fill="white" stroke="#666666" points="268.5,-126 170.5,-126 170.5,-96 268.5,-96 268.5,-126"/>
<text text-anchor="start" x="178.5" y="-114" font-family="Helvetica,sans-Serif" font-size="10.00">Control_system::is</text>
<text text-anchor="middle" x="219.5" y="-103" font-family="Helvetica,sans-Serif" font-size="10.00">_cooler_active</text>
</a>
</g>
</g>
<!-- Node1&#45;&gt;Node2 -->
<g id="edge1" class="edge">
<title>Node1&#45;&gt;Node2</title>
<path fill="none" stroke="#63b8ff" d="M94.03,-72.95C112.86,-78.7 137.13,-86.12 159.23,-92.88"/>
<polygon fill="#63b8ff" stroke="#63b8ff" points="158.18,-96.22 168.76,-95.79 160.22,-89.52 158.18,-96.22"/>
</g>
<!-- Node4 -->
<g id="node4" class="node">
<title>Node4</title>
<g id="a_node4"><a xlink:href="class_control__system.html#af7e1048dcc938de30589f961d0b14ee1" target="_top" xlink:title="Devuelve el estado del indicador de muestreo de sensores.">
<polygon fill="white" stroke="#666666" points="282,-78 157,-78 157,-48 282,-48 282,-78"/>
<text text-anchor="start" x="165" y="-66" font-family="Helvetica,sans-Serif" font-size="10.00">Control_system::is</text>
<text text-anchor="middle" x="219.5" y="-55" font-family="Helvetica,sans-Serif" font-size="10.00">_poll_sensors_requested</text>
</a>
</g>
</g>
<!-- Node1&#45;&gt;Node4 -->
<g id="edge3" class="edge">
<title>Node1&#45;&gt;Node4</title>
<path fill="none" stroke="#63b8ff" d="M121.3,-63C129.14,-63 137.23,-63 145.26,-63"/>
<polygon fill="#63b8ff" stroke="#63b8ff" points="145,-66.5 155,-63 145,-59.5 145,-66.5"/>
</g>
<!-- Node5 -->
<g id="node5" class="node">
<title>Node5</title>
<g id="a_node5"><a xlink:href="class_control__system.html#af5985ea3ad848a1631ff6c12ef4b3941" target="_top" xlink:title="Solicita una alarma.">
<polygon fill="white" stroke="#666666" points="281,-30 158,-30 158,0 281,0 281,-30"/>
<text text-anchor="start" x="166" y="-18" font-family="Helvetica,sans-Serif" font-size="10.00">Control_system::request</text>
<text text-anchor="middle" x="219.5" y="-7" font-family="Helvetica,sans-Serif" font-size="10.00">_alarm</text>
</a>
</g>
</g>
<!-- Node1&#45;&gt;Node5 -->
<g id="edge4" class="edge">
<title>Node1&#45;&gt;Node5</title>
<path fill="none" stroke="#63b8ff" d="M94.03,-53.05C112.32,-47.46 135.74,-40.3 157.33,-33.7"/>
<polygon fill="#63b8ff" stroke="#63b8ff" points="158.09,-37.13 166.63,-30.86 156.04,-30.43 158.09,-37.13"/>
</g>
<!-- Node3 -->
<g id="node3" class="node">
<title>Node3</title>
<g id="a_node3"><a xlink:href="class_cooler.html#a18f58f8d6ffd3a78be821a0cc5d9e4f1" target="_top" xlink:title="Estado del ventilador. No utiliza la medición de velocidad si no que, si se llamó a la función turn_o...">
<polygon fill="white" stroke="#666666" points="406,-120.5 318,-120.5 318,-101.5 406,-101.5 406,-120.5"/>
<text text-anchor="middle" x="362" y="-108.5" font-family="Helvetica,sans-Serif" font-size="10.00">Cooler::is_active</text>
</a>
</g>
</g>
<!-- Node2&#45;&gt;Node3 -->
<g id="edge2" class="edge">
<title>Node2&#45;&gt;Node3</title>
<path fill="none" stroke="#63b8ff" d="M268.85,-111C281.01,-111 294.13,-111 306.56,-111"/>
<polygon fill="#63b8ff" stroke="#63b8ff" points="306.22,-114.5 316.22,-111 306.22,-107.5 306.22,-114.5"/>
</g>
</g>
</svg>
