<?xml version="1.0" encoding="UTF-8" standalone="no"?>
<!DOCTYPE svg PUBLIC "-//W3C//DTD SVG 1.1//EN"
 "http://www.w3.org/Graphics/SVG/1.1/DTD/svg11.dtd">
<!-- Generated by graphviz version 7.0.2 (20221119.0110)
 -->
<!-- Title: Cooler_observer::update Pages: 1 -->
<svg width="621pt" height="134pt"
 viewBox="0.00 0.00 621.00 134.00" xmlns="http://www.w3.org/2000/svg" xmlns:xlink="http://www.w3.org/1999/xlink">
<g id="graph0" class="graph" transform="scale(1 1) rotate(0) translate(4 130)">
<title>Cooler_observer::update</title>
<!-- Node1 -->
<g id="node1" class="node">
<title>Node1</title>
<g id="a_node1"><a xlink:title="Si el indicador de próximo paso del usuario está activo y el acceso a la próxima instrucción no esté ...">
<polygon fill="#999999" stroke="#666666" points="121,-72.5 0,-72.5 0,-53.5 121,-53.5 121,-72.5"/>
<text text-anchor="middle" x="60.5" y="-60.5" font-family="Helvetica,sans-Serif" font-size="10.00">Cooler_observer::update</text>
</a>
</g>
</g>
<!-- Node2 -->
<g id="node2" class="node">
<title>Node2</title>
<g id="a_node2"><a xlink:href="class_control__system.html#af7e1048dcc938de30589f961d0b14ee1" target="_top" xlink:title="Devuelve el estado del indicador de muestreo de sensores.">
<polygon fill="white" stroke="#666666" points="282,-126 157,-126 157,-96 282,-96 282,-126"/>
<text text-anchor="start" x="165" y="-114" font-family="Helvetica,sans-Serif" font-size="10.00">Control_system::is</text>
<text text-anchor="middle" x="219.5" y="-103" font-family="Helvetica,sans-Serif" font-size="10.00">_poll_sensors_requested</text>
</a>
</g>
</g>
<!-- Node1&#45;&gt;Node2 -->
<g id="edge1" class="edge">
<title>Node1&#45;&gt;Node2</title>
<path fill="none" stroke="#63b8ff" d="M94.03,-72.95C112.32,-78.54 135.74,-85.7 157.33,-92.3"/>
<polygon fill="#63b8ff" stroke="#63b8ff" points="156.04,-95.57 166.63,-95.14 158.09,-88.87 156.04,-95.57"/>
</g>
<!-- Node3 -->
<g id="node3" class="node">
<title>Node3</title>
<g id="a_node3"><a xlink:href="class_control__system.html#a2f7771547e0b22acc6da22340fed6f50" target="_top" xlink:title="Solicita una alarma.">
<polygon fill="white" stroke="#666666" points="281,-78 158,-78 158,-48 281,-48 281,-78"/>
<text text-anchor="start" x="166" y="-66" font-family="Helvetica,sans-Serif" font-size="10.00">Control_system::request</text>
<text text-anchor="middle" x="219.5" y="-55" font-family="Helvetica,sans-Serif" font-size="10.00">_alarm</text>
</a>
</g>
</g>
<!-- Node1&#45;&gt;Node3 -->
<g id="edge2" class="edge">
<title>Node1&#45;&gt;Node3</title>
<path fill="none" stroke="#63b8ff" d="M121.3,-63C129.46,-63 137.91,-63 146.27,-63"/>
<polygon fill="#63b8ff" stroke="#63b8ff" points="146.05,-66.5 156.05,-63 146.05,-59.5 146.05,-66.5"/>
</g>
<!-- Node4 -->
<g id="node4" class="node">
<title>Node4</title>
<g id="a_node4"><a xlink:href="class_cooler__observer.html#a1b030ab9893e310f4ae0edd870706ee5" target="_top" xlink:title="Actualiza la medición de velocidad.">
<polygon fill="white" stroke="#666666" points="280,-30 159,-30 159,0 280,0 280,-30"/>
<text text-anchor="start" x="167" y="-18" font-family="Helvetica,sans-Serif" font-size="10.00">Cooler_observer::update</text>
<text text-anchor="middle" x="219.5" y="-7" font-family="Helvetica,sans-Serif" font-size="10.00">_speed</text>
</a>
</g>
</g>
<!-- Node1&#45;&gt;Node4 -->
<g id="edge3" class="edge">
<title>Node1&#45;&gt;Node4</title>
<path fill="none" stroke="#63b8ff" d="M94.03,-53.05C112.32,-47.46 135.74,-40.3 157.33,-33.7"/>
<polygon fill="#63b8ff" stroke="#63b8ff" points="158.09,-37.13 166.63,-30.86 156.04,-30.43 158.09,-37.13"/>
</g>
<!-- Node5 -->
<g id="node5" class="node">
<title>Node5</title>
<g id="a_node5"><a xlink:href="class_control__system.html#a914b54af513cf38a2600b3c710ab5c87" target="_top" xlink:title="Fija velocidades en el display de los ventiladores.">
<polygon fill="white" stroke="#666666" points="440,-30 318,-30 318,0 440,0 440,-30"/>
<text text-anchor="start" x="326" y="-18" font-family="Helvetica,sans-Serif" font-size="10.00">Control_system::display</text>
<text text-anchor="middle" x="379" y="-7" font-family="Helvetica,sans-Serif" font-size="10.00">_cooler_speed</text>
</a>
</g>
</g>
<!-- Node4&#45;&gt;Node5 -->
<g id="edge4" class="edge">
<title>Node4&#45;&gt;Node5</title>
<path fill="none" stroke="#63b8ff" d="M280.49,-15C288.96,-15 297.72,-15 306.38,-15"/>
<polygon fill="#63b8ff" stroke="#63b8ff" points="306.14,-18.5 316.14,-15 306.14,-11.5 306.14,-18.5"/>
</g>
<!-- Node6 -->
<g id="node6" class="node">
<title>Node6</title>
<g id="a_node6"><a xlink:href="class_display.html#a4c22cf2f0125cb737bf93136caa32de3" target="_top" xlink:title="Fija el valor del porcentaje de velocidad, no lo imprie en pantalla. La ubicación se da con las const...">
<polygon fill="white" stroke="#666666" points="613,-24.5 476,-24.5 476,-5.5 613,-5.5 613,-24.5"/>
<text text-anchor="middle" x="544.5" y="-12.5" font-family="Helvetica,sans-Serif" font-size="10.00">Display::set_fan_speed_pct</text>
</a>
</g>
</g>
<!-- Node5&#45;&gt;Node6 -->
<g id="edge5" class="edge">
<title>Node5&#45;&gt;Node6</title>
<path fill="none" stroke="#63b8ff" d="M440.42,-15C448.21,-15 456.28,-15 464.31,-15"/>
<polygon fill="#63b8ff" stroke="#63b8ff" points="464.1,-18.5 474.1,-15 464.1,-11.5 464.1,-18.5"/>
</g>
</g>
</svg>
