<?xml version="1.0" encoding="UTF-8" standalone="no"?>
<!DOCTYPE svg PUBLIC "-//W3C//DTD SVG 1.1//EN"
 "http://www.w3.org/Graphics/SVG/1.1/DTD/svg11.dtd">
<!-- Generated by graphviz version 7.0.2 (20221119.0110)
 -->
<!-- Title: Control_system::count_cooler_rotation Pages: 1 -->
<svg width="284pt" height="64pt"
 viewBox="0.00 0.00 284.00 64.00" xmlns="http://www.w3.org/2000/svg" xmlns:xlink="http://www.w3.org/1999/xlink">
<g id="graph0" class="graph" transform="scale(1 1) rotate(0) translate(4 60)">
<title>Control_system::count_cooler_rotation</title>
<!-- Node1 -->
<g id="node1" class="node">
<title>Node1</title>
<g id="a_node1"><a xlink:title="Cuenta revoluciones en el ventilador que esté activo.">
<polygon fill="#999999" stroke="#666666" points="115,-42.5 0,-42.5 0,-12.5 115,-12.5 115,-42.5"/>
<text text-anchor="start" x="8" y="-30.5" font-family="Helvetica,sans-Serif" font-size="10.00">Control_system::count</text>
<text text-anchor="middle" x="57.5" y="-19.5" font-family="Helvetica,sans-Serif" font-size="10.00">_cooler_rotation</text>
</a>
</g>
</g>
<!-- Node2 -->
<g id="node2" class="node">
<title>Node2</title>
<g id="a_node2"><a xlink:href="class_cooler.html#a9802a2d1e34a4b377280fd3369f68d58" target="_top" xlink:title="Increment el contador de mediciones.">
<polygon fill="white" stroke="#666666" points="269.5,-56 157.5,-56 157.5,-37 269.5,-37 269.5,-56"/>
<text text-anchor="middle" x="213.5" y="-44" font-family="Helvetica,sans-Serif" font-size="10.00">Cooler::count_rotation</text>
</a>
</g>
</g>
<!-- Node1&#45;&gt;Node2 -->
<g id="edge1" class="edge">
<title>Node1&#45;&gt;Node2</title>
<path fill="none" stroke="#63b8ff" d="M115.41,-34.52C125.3,-35.74 135.68,-37.02 145.81,-38.27"/>
<polygon fill="#63b8ff" stroke="#63b8ff" points="145.25,-41.73 155.61,-39.48 146.11,-34.78 145.25,-41.73"/>
</g>
<!-- Node3 -->
<g id="node3" class="node">
<title>Node3</title>
<g id="a_node3"><a xlink:href="class_cooler.html#ad41634aa63d31e334815f35eebdcf5b2" target="_top" xlink:title="Lectura el pin de medición de velocidad.">
<polygon fill="white" stroke="#666666" points="276,-19 151,-19 151,0 276,0 276,-19"/>
<text text-anchor="middle" x="213.5" y="-7" font-family="Helvetica,sans-Serif" font-size="10.00">Cooler::rotation_detected</text>
</a>
</g>
</g>
<!-- Node1&#45;&gt;Node3 -->
<g id="edge2" class="edge">
<title>Node1&#45;&gt;Node3</title>
<path fill="none" stroke="#63b8ff" d="M115.41,-20.85C123.21,-19.94 131.31,-18.99 139.35,-18.05"/>
<polygon fill="#63b8ff" stroke="#63b8ff" points="139.62,-21.54 149.15,-16.9 138.81,-14.59 139.62,-21.54"/>
</g>
</g>
</svg>
