<?xml version="1.0" encoding="UTF-8" standalone="no"?>
<!DOCTYPE svg PUBLIC "-//W3C//DTD SVG 1.1//EN"
 "http://www.w3.org/Graphics/SVG/1.1/DTD/svg11.dtd">
<!-- Generated by graphviz version 7.0.2 (20221119.0110)
 -->
<!-- Title: Control_system::update Pages: 1 -->
<svg width="457pt" height="88pt"
 viewBox="0.00 0.00 457.00 88.00" xmlns="http://www.w3.org/2000/svg" xmlns:xlink="http://www.w3.org/1999/xlink">
<g id="graph0" class="graph" transform="scale(1 1) rotate(0) translate(4 84)">
<title>Control_system::update</title>
<!-- Node1 -->
<g id="node1" class="node">
<title>Node1</title>
<g id="a_node1"><a xlink:title="Realiza la transición de estados y actualiza el estado.">
<polygon fill="#999999" stroke="#666666" points="120,-40 0,-40 0,-21 120,-21 120,-40"/>
<text text-anchor="middle" x="60" y="-28" font-family="Helvetica,sans-Serif" font-size="10.00">Control_system::update</text>
</a>
</g>
</g>
<!-- Node2 -->
<g id="node2" class="node">
<title>Node2</title>
<g id="a_node2"><a xlink:href="class_control__system.html#ab3a3e36bda029f2a5d0c4ffdf8ff984c" target="_top" xlink:title="Realiza la transición de estados en caso de ser necesario.">
<polygon fill="white" stroke="#666666" points="287,-67.5 156,-67.5 156,-37.5 287,-37.5 287,-67.5"/>
<text text-anchor="start" x="164" y="-55.5" font-family="Helvetica,sans-Serif" font-size="10.00">Control_system::transition</text>
<text text-anchor="middle" x="221.5" y="-44.5" font-family="Helvetica,sans-Serif" font-size="10.00">_state</text>
</a>
</g>
</g>
<!-- Node1&#45;&gt;Node2 -->
<g id="edge1" class="edge">
<title>Node1&#45;&gt;Node2</title>
<path fill="none" stroke="#63b8ff" d="M120.39,-38.69C128.22,-39.77 136.32,-40.89 144.38,-42"/>
<polygon fill="#63b8ff" stroke="#63b8ff" points="143.82,-45.46 154.2,-43.36 144.78,-38.52 143.82,-45.46"/>
</g>
<!-- Node5 -->
<g id="node5" class="node">
<title>Node5</title>
<g id="a_node5"><a xlink:href="class_abstract__state.html#a993232854cd166a601b6c5b4ba7befcc" target="_top" xlink:title="Método para actualizar el estado.">
<polygon fill="white" stroke="#666666" points="279.5,-19 163.5,-19 163.5,0 279.5,0 279.5,-19"/>
<text text-anchor="middle" x="221.5" y="-7" font-family="Helvetica,sans-Serif" font-size="10.00">Abstract_state::update</text>
</a>
</g>
</g>
<!-- Node1&#45;&gt;Node5 -->
<g id="edge4" class="edge">
<title>Node1&#45;&gt;Node5</title>
<path fill="none" stroke="#63b8ff" d="M120.39,-22.68C130.67,-21.33 141.43,-19.91 151.93,-18.53"/>
<polygon fill="#63b8ff" stroke="#63b8ff" points="152.22,-22.02 161.68,-17.24 151.31,-15.08 152.22,-22.02"/>
</g>
<!-- Node3 -->
<g id="node3" class="node">
<title>Node3</title>
<g id="a_node3"><a xlink:href="class_abstract__state.html#a1c001b0cb46c11126cb9ff77f8ad3016" target="_top" xlink:title="Método que se llama al ingresar al estado.">
<polygon fill="white" stroke="#666666" points="440,-80 332,-80 332,-61 440,-61 440,-80"/>
<text text-anchor="middle" x="386" y="-68" font-family="Helvetica,sans-Serif" font-size="10.00">Abstract_state::enter</text>
</a>
</g>
</g>
<!-- Node2&#45;&gt;Node3 -->
<g id="edge2" class="edge">
<title>Node2&#45;&gt;Node3</title>
<path fill="none" stroke="#63b8ff" d="M287.19,-59.67C298.16,-60.88 309.55,-62.14 320.52,-63.36"/>
<polygon fill="#63b8ff" stroke="#63b8ff" points="319.92,-66.81 330.25,-64.44 320.7,-59.86 319.92,-66.81"/>
</g>
<!-- Node4 -->
<g id="node4" class="node">
<title>Node4</title>
<g id="a_node4"><a xlink:href="class_abstract__state.html#a130d61765e2fcdf3bb0500943221efbe" target="_top" xlink:title="Método para cambiar de estado.">
<polygon fill="white" stroke="#666666" points="449,-43 323,-43 323,-24 449,-24 449,-43"/>
<text text-anchor="middle" x="386" y="-31" font-family="Helvetica,sans-Serif" font-size="10.00">Abstract_state::transition</text>
</a>
</g>
</g>
<!-- Node2&#45;&gt;Node4 -->
<g id="edge3" class="edge">
<title>Node2&#45;&gt;Node4</title>
<path fill="none" stroke="#63b8ff" d="M287.19,-44.94C295.13,-44.01 303.29,-43.05 311.35,-42.11"/>
<polygon fill="#63b8ff" stroke="#63b8ff" points="311.62,-45.6 321.15,-40.97 310.81,-38.65 311.62,-45.6"/>
</g>
</g>
</svg>
