<?xml version="1.0" encoding="UTF-8" standalone="no"?>
<!DOCTYPE svg PUBLIC "-//W3C//DTD SVG 1.1//EN"
 "http://www.w3.org/Graphics/SVG/1.1/DTD/svg11.dtd">
<!-- Generated by graphviz version 7.0.2 (20221119.0110)
 -->
<!-- Title: Alarm_state::update Pages: 1 -->
<svg width="575pt" height="483pt"
 viewBox="0.00 0.00 575.00 483.00" xmlns="http://www.w3.org/2000/svg" xmlns:xlink="http://www.w3.org/1999/xlink">
<g id="graph0" class="graph" transform="scale(1 1) rotate(0) translate(4 479)">
<title>Alarm_state::update</title>
<!-- Node1 -->
<g id="node1" class="node">
<title>Node1</title>
<g id="a_node1"><a xlink:title="Actualización, cambia el color del LED según el estado del motor y hace sonar la alarma....">
<polygon fill="#999999" stroke="#666666" points="104,-123 0,-123 0,-104 104,-104 104,-123"/>
<text text-anchor="middle" x="52" y="-111" font-family="Helvetica,sans-Serif" font-size="10.00">Alarm_state::update</text>
</a>
</g>
</g>
<!-- Node2 -->
<g id="node2" class="node">
<title>Node2</title>
<g id="a_node2"><a xlink:href="class_control__system.html#ab4bd82b7c907b415fdc102ed1fa89c7c" target="_top" xlink:title="Según la variable context.current_alarm resuelve el comportamiento de la alarma.">
<polygon fill="white" stroke="#666666" points="259,-312.5 140,-312.5 140,-282.5 259,-282.5 259,-312.5"/>
<text text-anchor="start" x="148" y="-300.5" font-family="Helvetica,sans-Serif" font-size="10.00">Control_system::handle</text>
<text text-anchor="middle" x="199.5" y="-289.5" font-family="Helvetica,sans-Serif" font-size="10.00">_alarm</text>
</a>
</g>
</g>
<!-- Node1&#45;&gt;Node2 -->
<g id="edge1" class="edge">
<title>Node1&#45;&gt;Node2</title>
<path fill="none" stroke="#63b8ff" d="M60.82,-123.39C83.01,-151.45 146.82,-232.14 179.18,-273.07"/>
<polygon fill="#63b8ff" stroke="#63b8ff" points="176.43,-275.24 185.38,-280.91 181.93,-270.9 176.43,-275.24"/>
</g>
<!-- Node5 -->
<g id="node5" class="node">
<title>Node5</title>
<g id="a_node5"><a xlink:href="class_dual___l_e_d.html#ab1cd238e00901ca9556914a38d3a064c" target="_top" xlink:title="Enciende el LED en verde.">
<polygon fill="white" stroke="#666666" points="411,-475 299,-475 299,-456 411,-456 411,-475"/>
<text text-anchor="middle" x="355" y="-463" font-family="Helvetica,sans-Serif" font-size="10.00">Dual_LED::turn_green</text>
</a>
</g>
</g>
<!-- Node1&#45;&gt;Node5 -->
<g id="edge25" class="edge">
<title>Node1&#45;&gt;Node5</title>
<path fill="none" stroke="#63b8ff" d="M55.31,-123.48C63,-155.08 90.06,-254.74 140,-321.5 193.17,-392.59 216.64,-405.77 295,-447.5 297.66,-448.91 300.44,-450.23 303.29,-451.47"/>
<polygon fill="#63b8ff" stroke="#63b8ff" points="301.8,-454.64 312.39,-454.99 304.33,-448.11 301.8,-454.64"/>
</g>
<!-- Node13 -->
<g id="node13" class="node">
<title>Node13</title>
<g id="a_node13"><a xlink:href="class_control__system.html#ab7912068a11d44b07eef3b3f56ce0598" target="_top" xlink:title="Itera sobre todos los observadores, llamando a su método de actualización.">
<polygon fill="white" stroke="#666666" points="256.5,-104.5 142.5,-104.5 142.5,-74.5 256.5,-74.5 256.5,-104.5"/>
<text text-anchor="start" x="150.5" y="-92.5" font-family="Helvetica,sans-Serif" font-size="10.00">Control_system::notify</text>
<text text-anchor="middle" x="199.5" y="-81.5" font-family="Helvetica,sans-Serif" font-size="10.00">_observers</text>
</a>
</g>
</g>
<!-- Node1&#45;&gt;Node13 -->
<g id="edge19" class="edge">
<title>Node1&#45;&gt;Node13</title>
<path fill="none" stroke="#63b8ff" d="M104.3,-105.04C112.93,-103.62 122,-102.12 130.96,-100.64"/>
<polygon fill="#63b8ff" stroke="#63b8ff" points="131.43,-104.11 140.73,-99.03 130.29,-97.2 131.43,-104.11"/>
</g>
<!-- Node17 -->
<g id="node17" class="node">
<title>Node17</title>
<g id="a_node17"><a xlink:href="class_control__system.html#ac1cd148e897c5ce2ef405dd45ddf964f" target="_top" xlink:title="Muestra en pantalla el paso del procedimientoa actual.">
<polygon fill="white" stroke="#666666" points="256,-152.5 143,-152.5 143,-122.5 256,-122.5 256,-152.5"/>
<text text-anchor="start" x="151" y="-140.5" font-family="Helvetica,sans-Serif" font-size="10.00">Control_system::show</text>
<text text-anchor="middle" x="199.5" y="-129.5" font-family="Helvetica,sans-Serif" font-size="10.00">_current_step</text>
</a>
</g>
</g>
<!-- Node1&#45;&gt;Node17 -->
<g id="edge23" class="edge">
<title>Node1&#45;&gt;Node17</title>
<path fill="none" stroke="#63b8ff" d="M104.3,-121.96C113.14,-123.42 122.44,-124.95 131.62,-126.47"/>
<polygon fill="#63b8ff" stroke="#63b8ff" points="130.79,-129.88 141.23,-128.05 131.93,-122.97 130.79,-129.88"/>
</g>
<!-- Node18 -->
<g id="node18" class="node">
<title>Node18</title>
<g id="a_node18"><a xlink:href="class_buzzer.html#a9ba28d9ca8b3dd80541d9a13a8b0f625" target="_top" xlink:title="Enciende el buzzer con con una duración en milisegundos duration, por defecto enciende el buzzer por ...">
<polygon fill="white" stroke="#666666" points="242.5,-56 156.5,-56 156.5,-37 242.5,-37 242.5,-56"/>
<text text-anchor="middle" x="199.5" y="-44" font-family="Helvetica,sans-Serif" font-size="10.00">Buzzer::turn_on</text>
</a>
</g>
</g>
<!-- Node1&#45;&gt;Node18 -->
<g id="edge26" class="edge">
<title>Node1&#45;&gt;Node18</title>
<path fill="none" stroke="#63b8ff" d="M68.89,-103.53C85.99,-93.09 114.2,-76.69 140,-65.5 144.3,-63.64 148.84,-61.85 153.42,-60.18"/>
<polygon fill="#63b8ff" stroke="#63b8ff" points="154.34,-63.56 162.64,-56.97 152.04,-56.95 154.34,-63.56"/>
</g>
<!-- Node20 -->
<g id="node20" class="node">
<title>Node20</title>
<g id="a_node20"><a xlink:href="class_display.html#ad2740b779d61e461c4dcaaf34f1fcd8f" target="_top" xlink:title="Actualiza los valores en pantalla con los parámetros previamente fijados. Solo actualiza la pantalla ...">
<polygon fill="white" stroke="#666666" points="241.5,-19 157.5,-19 157.5,0 241.5,0 241.5,-19"/>
<text text-anchor="middle" x="199.5" y="-7" font-family="Helvetica,sans-Serif" font-size="10.00">Display::update</text>
</a>
</g>
</g>
<!-- Node1&#45;&gt;Node20 -->
<g id="edge28" class="edge">
<title>Node1&#45;&gt;Node20</title>
<path fill="none" stroke="#63b8ff" d="M60.25,-103.71C73.89,-85.95 105.19,-48.32 140,-27.5 142.15,-26.21 144.4,-25.01 146.71,-23.89"/>
<polygon fill="#63b8ff" stroke="#63b8ff" points="147.91,-27.19 155.75,-20.06 145.17,-20.74 147.91,-27.19"/>
</g>
<!-- Node3 -->
<g id="node3" class="node">
<title>Node3</title>
<g id="a_node3"><a xlink:href="class_display.html#a87d1e7bf73a1d14b5e76c9ab647a9e93" target="_top" xlink:title="Fija el el texto a actualizar, no lo imprime en pantalla. La ubicación se da con las constantes de of...">
<polygon fill="white" stroke="#666666" points="554,-226 464,-226 464,-207 554,-207 554,-226"/>
<text text-anchor="middle" x="509" y="-214" font-family="Helvetica,sans-Serif" font-size="10.00">Display::set_text</text>
</a>
</g>
</g>
<!-- Node2&#45;&gt;Node3 -->
<g id="edge2" class="edge">
<title>Node2&#45;&gt;Node3</title>
<path fill="none" stroke="#63b8ff" d="M259.06,-282.07C317.14,-266.78 405.09,-243.61 459.42,-229.3"/>
<polygon fill="#63b8ff" stroke="#63b8ff" points="460.23,-232.7 469.01,-226.77 458.45,-225.93 460.23,-232.7"/>
</g>
<!-- Node4 -->
<g id="node4" class="node">
<title>Node4</title>
<g id="a_node4"><a xlink:href="class_control__system.html#a62a2c6a8167ade6a6ae054393b91d381" target="_top" xlink:title="Muestra el mensaje de error por pantalla.">
<polygon fill="white" stroke="#666666" points="411.5,-231.5 298.5,-231.5 298.5,-201.5 411.5,-201.5 411.5,-231.5"/>
<text text-anchor="start" x="306.5" y="-219.5" font-family="Helvetica,sans-Serif" font-size="10.00">Control_system::show</text>
<text text-anchor="middle" x="355" y="-208.5" font-family="Helvetica,sans-Serif" font-size="10.00">_error_msg</text>
</a>
</g>
</g>
<!-- Node2&#45;&gt;Node4 -->
<g id="edge3" class="edge">
<title>Node2&#45;&gt;Node4</title>
<path fill="none" stroke="#63b8ff" d="M227.61,-282.15C246.41,-271.61 272.08,-257.43 295,-245.5 300.44,-242.67 306.2,-239.75 311.9,-236.9"/>
<polygon fill="#63b8ff" stroke="#63b8ff" points="313.26,-240.13 320.66,-232.56 310.15,-233.86 313.26,-240.13"/>
</g>
<!-- Node2&#45;&gt;Node5 -->
<g id="edge5" class="edge">
<title>Node2&#45;&gt;Node5</title>
<path fill="none" stroke="#63b8ff" d="M210.55,-312.89C222.29,-330.93 242.25,-361.76 259,-388.5 275.31,-414.53 270.72,-428.68 295,-447.5 296.3,-448.5 297.65,-449.45 299.04,-450.35"/>
<polygon fill="#63b8ff" stroke="#63b8ff" points="296.98,-453.22 307.46,-454.82 300.27,-447.04 296.98,-453.22"/>
</g>
<!-- Node8 -->
<g id="node8" class="node">
<title>Node8</title>
<g id="a_node8"><a xlink:href="class_cooler.html#a3aa26bc227fa7a2bdcff9fe607990104" target="_top" xlink:title="Apaga el ventilador.">
<polygon fill="white" stroke="#666666" points="550,-335 468,-335 468,-316 550,-316 550,-335"/>
<text text-anchor="middle" x="509" y="-323" font-family="Helvetica,sans-Serif" font-size="10.00">Cooler::turn_off</text>
</a>
</g>
</g>
<!-- Node2&#45;&gt;Node8 -->
<g id="edge8" class="edge">
<title>Node2&#45;&gt;Node8</title>
<path fill="none" stroke="#63b8ff" d="M231.13,-312.86C249.21,-321.07 272.84,-330.32 295,-334.5 349.42,-344.77 412.99,-339.96 456.42,-334.19"/>
<polygon fill="#63b8ff" stroke="#63b8ff" points="456.65,-337.69 466.07,-332.84 455.68,-330.76 456.65,-337.69"/>
</g>
<!-- Node9 -->
<g id="node9" class="node">
<title>Node9</title>
<g id="a_node9"><a xlink:href="class_motor.html#a9a1613b24a5dd07a8c515e82d8e0edeb" target="_top" xlink:title="Apaga el motor.">
<polygon fill="white" stroke="#666666" points="394.5,-183 315.5,-183 315.5,-164 394.5,-164 394.5,-183"/>
<text text-anchor="middle" x="355" y="-171" font-family="Helvetica,sans-Serif" font-size="10.00">Motor::turn_off</text>
</a>
</g>
</g>
<!-- Node2&#45;&gt;Node9 -->
<g id="edge9" class="edge">
<title>Node2&#45;&gt;Node9</title>
<path fill="none" stroke="#63b8ff" d="M210.23,-282.33C225.58,-259.6 257.54,-216.77 295,-192.5 298.07,-190.51 301.37,-188.72 304.77,-187.1"/>
<polygon fill="#63b8ff" stroke="#63b8ff" points="305.93,-190.41 313.82,-183.34 303.24,-183.94 305.93,-190.41"/>
</g>
<!-- Node10 -->
<g id="node10" class="node">
<title>Node10</title>
<g id="a_node10"><a xlink:href="class_cooler.html#aa98fd302dc7933fc21c046ca3ea48346" target="_top" xlink:title="Enciende el ventilador. Si el ciclo de trabajo deseado es menor que FAN_MINIMUM_DUTY_CYCLE apaga el v...">
<polygon fill="white" stroke="#666666" points="396.5,-307 313.5,-307 313.5,-288 396.5,-288 396.5,-307"/>
<text text-anchor="middle" x="355" y="-295" font-family="Helvetica,sans-Serif" font-size="10.00">Cooler::turn_on</text>
</a>
</g>
</g>
<!-- Node2&#45;&gt;Node10 -->
<g id="edge10" class="edge">
<title>Node2&#45;&gt;Node10</title>
<path fill="none" stroke="#63b8ff" d="M259.41,-297.5C273.41,-297.5 288.25,-297.5 301.93,-297.5"/>
<polygon fill="#63b8ff" stroke="#63b8ff" points="301.58,-301 311.58,-297.5 301.58,-294 301.58,-301"/>
</g>
<!-- Node11 -->
<g id="node11" class="node">
<title>Node11</title>
<g id="a_node11"><a xlink:href="class_dual___l_e_d.html#a8734a816df04661d86e3ccbf88159eb0" target="_top" xlink:title="Enciende el LED en rojo.">
<polygon fill="white" stroke="#666666" points="405.5,-438 304.5,-438 304.5,-419 405.5,-419 405.5,-438"/>
<text text-anchor="middle" x="355" y="-426" font-family="Helvetica,sans-Serif" font-size="10.00">Dual_LED::turn_red</text>
</a>
</g>
</g>
<!-- Node2&#45;&gt;Node11 -->
<g id="edge13" class="edge">
<title>Node2&#45;&gt;Node11</title>
<path fill="none" stroke="#63b8ff" d="M209.17,-312.72C223.77,-336.99 255.56,-384.37 295,-410.5 296.81,-411.7 298.7,-412.82 300.65,-413.87"/>
<polygon fill="#63b8ff" stroke="#63b8ff" points="298.85,-416.89 309.4,-417.9 301.78,-410.54 298.85,-416.89"/>
</g>
<!-- Node12 -->
<g id="node12" class="node">
<title>Node12</title>
<g id="a_node12"><a xlink:href="class_dual___l_e_d.html#aabc0462521bcc08ea7f6f04642f7e89d" target="_top" xlink:title="Enciende el LED en amarillo. El comportamiento es indefinido para pines no PWM.">
<polygon fill="white" stroke="#666666" points="412.5,-401 297.5,-401 297.5,-382 412.5,-382 412.5,-401"/>
<text text-anchor="middle" x="355" y="-389" font-family="Helvetica,sans-Serif" font-size="10.00">Dual_LED::turn_yellow</text>
</a>
</g>
</g>
<!-- Node2&#45;&gt;Node12 -->
<g id="edge16" class="edge">
<title>Node2&#45;&gt;Node12</title>
<path fill="none" stroke="#63b8ff" d="M218.39,-312.9C236.73,-328.15 266.52,-351.5 295,-367.5 301.26,-371.02 308.15,-374.3 314.93,-377.23"/>
<polygon fill="#63b8ff" stroke="#63b8ff" points="313.44,-380.4 324.02,-380.97 316.1,-373.93 313.44,-380.4"/>
</g>
<!-- Node4&#45;&gt;Node3 -->
<g id="edge4" class="edge">
<title>Node4&#45;&gt;Node3</title>
<path fill="none" stroke="#63b8ff" d="M411.74,-216.5C424.97,-216.5 439.1,-216.5 452.33,-216.5"/>
<polygon fill="#63b8ff" stroke="#63b8ff" points="452.17,-220 462.17,-216.5 452.17,-213 452.17,-220"/>
</g>
<!-- Node6 -->
<g id="node6" class="node">
<title>Node6</title>
<g id="a_node6"><a xlink:href="class_dual___l_e_d.html#aeb163748acf071a1652c56ae1dff9d52" target="_top" xlink:title="Fija el color del led, no enciende el led,.">
<polygon fill="white" stroke="#666666" points="562,-419 456,-419 456,-400 562,-400 562,-419"/>
<text text-anchor="middle" x="509" y="-407" font-family="Helvetica,sans-Serif" font-size="10.00">Dual_LED::set_color</text>
</a>
</g>
</g>
<!-- Node5&#45;&gt;Node6 -->
<g id="edge6" class="edge">
<title>Node5&#45;&gt;Node6</title>
<path fill="none" stroke="#63b8ff" d="M392.58,-455.52C400.09,-453.15 407.87,-450.44 415,-447.5 431.73,-440.61 434.36,-435.61 451,-428.5 455.32,-426.66 459.88,-424.87 464.46,-423.19"/>
<polygon fill="#63b8ff" stroke="#63b8ff" points="465.4,-426.57 473.67,-419.95 463.08,-419.96 465.4,-426.57"/>
</g>
<!-- Node7 -->
<g id="node7" class="node">
<title>Node7</title>
<g id="a_node7"><a xlink:href="class_dual___l_e_d.html#a8b13294b883897eb83f91bf90a3a11cd" target="_top" xlink:title="Enciende el LED en el color actual.">
<polygon fill="white" stroke="#666666" points="558,-456 460,-456 460,-437 558,-437 558,-456"/>
<text text-anchor="middle" x="509" y="-444" font-family="Helvetica,sans-Serif" font-size="10.00">Dual_LED::turn_on</text>
</a>
</g>
</g>
<!-- Node5&#45;&gt;Node7 -->
<g id="edge7" class="edge">
<title>Node5&#45;&gt;Node7</title>
<path fill="none" stroke="#63b8ff" d="M411.31,-458.59C423.27,-457.09 435.98,-455.5 448.11,-453.99"/>
<polygon fill="#63b8ff" stroke="#63b8ff" points="448.53,-457.46 458.02,-452.75 447.66,-450.52 448.53,-457.46"/>
</g>
<!-- Node10&#45;&gt;Node8 -->
<g id="edge11" class="edge">
<title>Node10&#45;&gt;Node8</title>
<path fill="none" stroke="#63b8ff" d="M396.73,-305C415.11,-308.39 437.02,-312.43 456.52,-316.02"/>
<polygon fill="#63b8ff" stroke="#63b8ff" points="455.72,-319.43 466.19,-317.8 456.99,-312.54 455.72,-319.43"/>
</g>
<!-- Node10&#45;&gt;Node10 -->
<g id="edge12" class="edge">
<title>Node10&#45;&gt;Node10</title>
<path fill="none" stroke="#63b8ff" d="M330.89,-307.37C319.89,-315.94 327.93,-325 355,-325 370.23,-325 379.43,-322.13 382.61,-318.1"/>
<polygon fill="#63b8ff" stroke="#63b8ff" points="386.01,-317.23 379.58,-308.81 379.36,-319.4 386.01,-317.23"/>
</g>
<!-- Node11&#45;&gt;Node6 -->
<g id="edge14" class="edge">
<title>Node11&#45;&gt;Node6</title>
<path fill="none" stroke="#63b8ff" d="M405.77,-422.28C418.09,-420.74 431.46,-419.07 444.35,-417.46"/>
<polygon fill="#63b8ff" stroke="#63b8ff" points="444.51,-420.96 454,-416.25 443.65,-414.02 444.51,-420.96"/>
</g>
<!-- Node11&#45;&gt;Node7 -->
<g id="edge15" class="edge">
<title>Node11&#45;&gt;Node7</title>
<path fill="none" stroke="#63b8ff" d="M405.77,-434.39C419.43,-436.01 434.39,-437.78 448.54,-439.46"/>
<polygon fill="#63b8ff" stroke="#63b8ff" points="447.83,-442.9 458.17,-440.6 448.65,-435.95 447.83,-442.9"/>
</g>
<!-- Node12&#45;&gt;Node6 -->
<g id="edge17" class="edge">
<title>Node12&#45;&gt;Node6</title>
<path fill="none" stroke="#63b8ff" d="M412.6,-398.2C423.01,-399.44 433.95,-400.73 444.55,-401.99"/>
<polygon fill="#63b8ff" stroke="#63b8ff" points="444.03,-405.45 454.37,-403.15 444.85,-398.5 444.03,-405.45"/>
</g>
<!-- Node12&#45;&gt;Node7 -->
<g id="edge18" class="edge">
<title>Node12&#45;&gt;Node7</title>
<path fill="none" stroke="#63b8ff" d="M390.01,-401.48C398.28,-404.17 407.03,-407.25 415,-410.5 431.56,-417.26 434.42,-421.79 451,-428.5 454.78,-430.03 458.75,-431.52 462.75,-432.93"/>
<polygon fill="#63b8ff" stroke="#63b8ff" points="461.3,-436.14 471.89,-436.03 463.54,-429.51 461.3,-436.14"/>
</g>
<!-- Node14 -->
<g id="node14" class="node">
<title>Node14</title>
<g id="a_node14"><a xlink:href="class_control__system.html#a251677ee7c18269d85579da7a000ceab" target="_top" xlink:title="Fija el valor del flag de muestro de sensores.">
<polygon fill="white" stroke="#666666" points="407,-107.5 303,-107.5 303,-77.5 407,-77.5 407,-107.5"/>
<text text-anchor="start" x="311" y="-95.5" font-family="Helvetica,sans-Serif" font-size="10.00">Control_system::set</text>
<text text-anchor="middle" x="355" y="-84.5" font-family="Helvetica,sans-Serif" font-size="10.00">_poll_sensors_flag</text>
</a>
</g>
</g>
<!-- Node13&#45;&gt;Node14 -->
<g id="edge20" class="edge">
<title>Node13&#45;&gt;Node14</title>
<path fill="none" stroke="#63b8ff" d="M256.79,-90.6C268.02,-90.82 279.88,-91.05 291.31,-91.27"/>
<polygon fill="#63b8ff" stroke="#63b8ff" points="290.98,-94.77 301.04,-91.46 291.11,-87.77 290.98,-94.77"/>
</g>
<!-- Node15 -->
<g id="node15" class="node">
<title>Node15</title>
<g id="a_node15"><a xlink:href="class_control__system.html#a4bfd2d8427f35a8cd4e4e10573aa5604" target="_top" xlink:title="Actualización del sistema. De ser necesario realiza la transición de estados y actualiza el estado ac...">
<polygon fill="white" stroke="#666666" points="415,-59 295,-59 295,-40 415,-40 415,-59"/>
<text text-anchor="middle" x="355" y="-47" font-family="Helvetica,sans-Serif" font-size="10.00">Control_system::update</text>
</a>
</g>
</g>
<!-- Node13&#45;&gt;Node15 -->
<g id="edge21" class="edge">
<title>Node13&#45;&gt;Node15</title>
<path fill="none" stroke="#63b8ff" d="M256.79,-74.83C272.62,-70.71 289.71,-66.25 305.08,-62.25"/>
<polygon fill="#63b8ff" stroke="#63b8ff" points="305.66,-65.71 314.46,-59.8 303.9,-58.94 305.66,-65.71"/>
</g>
<!-- Node16 -->
<g id="node16" class="node">
<title>Node16</title>
<g id="a_node16"><a xlink:href="class_abstract__state.html#a993232854cd166a601b6c5b4ba7befcc" target="_top" xlink:title="Método para actualizar el estado.">
<polygon fill="white" stroke="#666666" points="567,-59 451,-59 451,-40 567,-40 567,-59"/>
<text text-anchor="middle" x="509" y="-47" font-family="Helvetica,sans-Serif" font-size="10.00">Abstract_state::update</text>
</a>
</g>
</g>
<!-- Node15&#45;&gt;Node16 -->
<g id="edge22" class="edge">
<title>Node15&#45;&gt;Node16</title>
<path fill="none" stroke="#63b8ff" d="M415.2,-49.5C423.13,-49.5 431.32,-49.5 439.4,-49.5"/>
<polygon fill="#63b8ff" stroke="#63b8ff" points="439.19,-53 449.19,-49.5 439.19,-46 439.19,-53"/>
</g>
<!-- Node17&#45;&gt;Node3 -->
<g id="edge24" class="edge">
<title>Node17&#45;&gt;Node3</title>
<path fill="none" stroke="#63b8ff" d="M256.25,-134.76C300.48,-134.33 363.24,-137.65 415,-155.5 442.98,-165.15 470.79,-185.11 488.61,-199.58"/>
<polygon fill="#63b8ff" stroke="#63b8ff" points="485.89,-201.86 495.8,-205.59 490.37,-196.49 485.89,-201.86"/>
</g>
<!-- Node19 -->
<g id="node19" class="node">
<title>Node19</title>
<g id="a_node19"><a xlink:href="class_buzzer.html#a5809a2b7b52e74f509c31214257f3af0" target="_top" xlink:title="Apaga el buzzer.">
<polygon fill="white" stroke="#666666" points="397.5,-22 312.5,-22 312.5,-3 397.5,-3 397.5,-22"/>
<text text-anchor="middle" x="355" y="-10" font-family="Helvetica,sans-Serif" font-size="10.00">Buzzer::turn_off</text>
</a>
</g>
</g>
<!-- Node18&#45;&gt;Node19 -->
<g id="edge27" class="edge">
<title>Node18&#45;&gt;Node19</title>
<path fill="none" stroke="#63b8ff" d="M242.85,-37.12C260.79,-33.15 281.9,-28.47 300.87,-24.27"/>
<polygon fill="#63b8ff" stroke="#63b8ff" points="301.57,-27.7 310.58,-22.12 300.06,-20.86 301.57,-27.7"/>
</g>
</g>
</svg>
