<?xml version="1.0" encoding="UTF-8" standalone="no"?>
<!DOCTYPE svg PUBLIC "-//W3C//DTD SVG 1.1//EN"
 "http://www.w3.org/Graphics/SVG/1.1/DTD/svg11.dtd">
<!-- Generated by graphviz version 7.0.2 (20221119.0110)
 -->
<!-- Title: Temperature_observer Pages: 1 -->
<svg width="120pt" height="192pt"
 viewBox="0.00 0.00 120.00 192.00" xmlns="http://www.w3.org/2000/svg" xmlns:xlink="http://www.w3.org/1999/xlink">
<g id="graph0" class="graph" transform="scale(1 1) rotate(0) translate(4 188)">
<title>Temperature_observer</title>
<!-- Node1 -->
<g id="node1" class="node">
<title>Node1</title>
<g id="a_node1"><a xlink:title="Clase heredera de System_observer, creada para observar el estado de los sensores de temperatura.">
<polygon fill="#999999" stroke="#666666" points="112,-19 0,-19 0,0 112,0 112,-19"/>
<text text-anchor="middle" x="56" y="-7" font-family="Helvetica,sans-Serif" font-size="10.00">Temperature_observer</text>
</a>
</g>
</g>
<!-- Node2 -->
<g id="node2" class="node">
<title>Node2</title>
<g id="a_node2"><a xlink:href="class_system__observer.html" target="_top" xlink:title="Clase interfaz para implementar observadores para sujetos de la clase Control_system.">
<polygon fill="white" stroke="#666666" points="102,-74 10,-74 10,-55 102,-55 102,-74"/>
<text text-anchor="middle" x="56" y="-62" font-family="Helvetica,sans-Serif" font-size="10.00">System_observer</text>
</a>
</g>
</g>
<!-- Node2&#45;&gt;Node1 -->
<g id="edge1" class="edge">
<title>Node2&#45;&gt;Node1</title>
<path fill="none" stroke="#63b8ff" d="M56,-43.35C56,-35.1 56,-25.97 56,-19.44"/>
<polygon fill="#63b8ff" stroke="#63b8ff" points="52.5,-43.23 56,-53.23 59.5,-43.23 52.5,-43.23"/>
</g>
<!-- Node3 -->
<g id="node3" class="node">
<title>Node3</title>
<g id="a_node3"><a xlink:href="class_observer.html" target="_top" xlink:title="Clase Observer, utilizada como base del observador en una implementación del patrón de diseño Observe...">
<polygon fill="white" stroke="#666666" points="83.5,-129 28.5,-129 28.5,-110 83.5,-110 83.5,-129"/>
<text text-anchor="middle" x="56" y="-117" font-family="Helvetica,sans-Serif" font-size="10.00">Observer</text>
</a>
</g>
</g>
<!-- Node3&#45;&gt;Node2 -->
<g id="edge2" class="edge">
<title>Node3&#45;&gt;Node2</title>
<path fill="none" stroke="#63b8ff" d="M56,-98.35C56,-90.1 56,-80.97 56,-74.44"/>
<polygon fill="#63b8ff" stroke="#63b8ff" points="52.5,-98.23 56,-108.23 59.5,-98.23 52.5,-98.23"/>
</g>
<!-- Node4 -->
<g id="node4" class="node">
<title>Node4</title>
<g id="a_node4"><a xlink:href="class_observer__interface.html" target="_top" xlink:title="Interfaz para implementar el patrón de diseño Observer.">
<polygon fill="white" stroke="#666666" points="104.5,-184 7.5,-184 7.5,-165 104.5,-165 104.5,-184"/>
<text text-anchor="middle" x="56" y="-172" font-family="Helvetica,sans-Serif" font-size="10.00">Observer_interface</text>
</a>
</g>
</g>
<!-- Node4&#45;&gt;Node3 -->
<g id="edge3" class="edge">
<title>Node4&#45;&gt;Node3</title>
<path fill="none" stroke="#63b8ff" d="M56,-153.35C56,-145.1 56,-135.97 56,-129.44"/>
<polygon fill="#63b8ff" stroke="#63b8ff" points="52.5,-153.23 56,-163.23 59.5,-153.23 52.5,-153.23"/>
</g>
</g>
</svg>
