<?xml version="1.0" encoding="UTF-8" standalone="no"?>
<!DOCTYPE svg PUBLIC "-//W3C//DTD SVG 1.1//EN"
 "http://www.w3.org/Graphics/SVG/1.1/DTD/svg11.dtd">
<!-- Generated by graphviz version 7.0.2 (20221119.0110)
 -->
<!-- Title: Idle_state::update Pages: 1 -->
<svg width="737pt" height="268pt"
 viewBox="0.00 0.00 737.00 267.50" xmlns="http://www.w3.org/2000/svg" xmlns:xlink="http://www.w3.org/1999/xlink">
<g id="graph0" class="graph" transform="scale(1 1) rotate(0) translate(4 263.5)">
<title>Idle_state::update</title>
<!-- Node1 -->
<g id="node1" class="node">
<title>Node1</title>
<g id="a_node1"><a xlink:title="Método para actualizar el sistema cuando está en estado de reposo. Actualiza la pantalla y los observ...">
<polygon fill="#999999" stroke="#666666" points="94,-166 0,-166 0,-147 94,-147 94,-166"/>
<text text-anchor="middle" x="47" y="-154" font-family="Helvetica,sans-Serif" font-size="10.00">Idle_state::update</text>
</a>
</g>
</g>
<!-- Node2 -->
<g id="node2" class="node">
<title>Node2</title>
<g id="a_node2"><a xlink:href="class_control__system.html#ab7912068a11d44b07eef3b3f56ce0598" target="_top" xlink:title="Itera sobre todos los observadores, llamando a su método de actualización.">
<polygon fill="white" stroke="#666666" points="244,-219.5 130,-219.5 130,-189.5 244,-189.5 244,-219.5"/>
<text text-anchor="start" x="138" y="-207.5" font-family="Helvetica,sans-Serif" font-size="10.00">Control_system::notify</text>
<text text-anchor="middle" x="187" y="-196.5" font-family="Helvetica,sans-Serif" font-size="10.00">_observers</text>
</a>
</g>
</g>
<!-- Node1&#45;&gt;Node2 -->
<g id="edge1" class="edge">
<title>Node1&#45;&gt;Node2</title>
<path fill="none" stroke="#63b8ff" d="M76.59,-166.45C92.3,-171.91 112.32,-178.87 130.93,-185.35"/>
<polygon fill="#63b8ff" stroke="#63b8ff" points="129.66,-188.61 140.25,-188.59 131.96,-182 129.66,-188.61"/>
</g>
<!-- Node9 -->
<g id="node9" class="node">
<title>Node9</title>
<g id="a_node9"><a xlink:href="class_control__system.html#ac1cd148e897c5ce2ef405dd45ddf964f" target="_top" xlink:title="Muestra en pantalla el paso del procedimientoa actual.">
<polygon fill="white" stroke="#666666" points="243.5,-171.5 130.5,-171.5 130.5,-141.5 243.5,-141.5 243.5,-171.5"/>
<text text-anchor="start" x="138.5" y="-159.5" font-family="Helvetica,sans-Serif" font-size="10.00">Control_system::show</text>
<text text-anchor="middle" x="187" y="-148.5" font-family="Helvetica,sans-Serif" font-size="10.00">_current_step</text>
</a>
</g>
</g>
<!-- Node1&#45;&gt;Node9 -->
<g id="edge8" class="edge">
<title>Node1&#45;&gt;Node9</title>
<path fill="none" stroke="#63b8ff" d="M94.34,-156.5C102.3,-156.5 110.72,-156.5 119.1,-156.5"/>
<polygon fill="#63b8ff" stroke="#63b8ff" points="118.94,-160 128.94,-156.5 118.94,-153 118.94,-160"/>
</g>
<!-- Node11 -->
<g id="node11" class="node">
<title>Node11</title>
<g id="a_node11"><a xlink:href="class_display.html#ad2740b779d61e461c4dcaaf34f1fcd8f" target="_top" xlink:title="Actualiza los valores en pantalla con los parámetros previamente fijados. Solo actualiza la pantalla ...">
<polygon fill="white" stroke="#666666" points="229,-94 145,-94 145,-75 229,-75 229,-94"/>
<text text-anchor="middle" x="187" y="-82" font-family="Helvetica,sans-Serif" font-size="10.00">Display::update</text>
</a>
</g>
</g>
<!-- Node1&#45;&gt;Node11 -->
<g id="edge10" class="edge">
<title>Node1&#45;&gt;Node11</title>
<path fill="none" stroke="#63b8ff" d="M66.9,-146.64C90.1,-134.54 129.69,-113.88 156.81,-99.73"/>
<polygon fill="#63b8ff" stroke="#63b8ff" points="158.3,-102.9 165.54,-95.17 155.06,-96.7 158.3,-102.9"/>
</g>
<!-- Node3 -->
<g id="node3" class="node">
<title>Node3</title>
<g id="a_node3"><a xlink:href="class_control__system.html#a251677ee7c18269d85579da7a000ceab" target="_top" xlink:title="Fija el valor del flag de muestro de sensores.">
<polygon fill="white" stroke="#666666" points="392,-259.5 288,-259.5 288,-229.5 392,-229.5 392,-259.5"/>
<text text-anchor="start" x="296" y="-247.5" font-family="Helvetica,sans-Serif" font-size="10.00">Control_system::set</text>
<text text-anchor="middle" x="340" y="-236.5" font-family="Helvetica,sans-Serif" font-size="10.00">_poll_sensors_flag</text>
</a>
</g>
</g>
<!-- Node2&#45;&gt;Node3 -->
<g id="edge2" class="edge">
<title>Node2&#45;&gt;Node3</title>
<path fill="none" stroke="#63b8ff" d="M244.23,-219.39C254.81,-222.2 265.93,-225.14 276.68,-227.99"/>
<polygon fill="#63b8ff" stroke="#63b8ff" points="275.69,-231.35 286.25,-230.53 277.48,-224.58 275.69,-231.35"/>
</g>
<!-- Node4 -->
<g id="node4" class="node">
<title>Node4</title>
<g id="a_node4"><a xlink:href="class_control__system.html#a4bfd2d8427f35a8cd4e4e10573aa5604" target="_top" xlink:title="Realiza la transición de estados y actualiza el estado.">
<polygon fill="white" stroke="#666666" points="400,-211 280,-211 280,-192 400,-192 400,-211"/>
<text text-anchor="middle" x="340" y="-199" font-family="Helvetica,sans-Serif" font-size="10.00">Control_system::update</text>
</a>
</g>
</g>
<!-- Node2&#45;&gt;Node4 -->
<g id="edge3" class="edge">
<title>Node2&#45;&gt;Node4</title>
<path fill="none" stroke="#63b8ff" d="M244.23,-203.38C252.09,-203.23 260.26,-203.06 268.35,-202.9"/>
<polygon fill="#63b8ff" stroke="#63b8ff" points="268.25,-206.41 278.18,-202.71 268.11,-199.41 268.25,-206.41"/>
</g>
<!-- Node5 -->
<g id="node5" class="node">
<title>Node5</title>
<g id="a_node5"><a xlink:href="class_control__system.html#ab3a3e36bda029f2a5d0c4ffdf8ff984c" target="_top" xlink:title="Realiza la transición de estados en caso de ser necesario.">
<polygon fill="white" stroke="#666666" points="567,-237.5 436,-237.5 436,-207.5 567,-207.5 567,-237.5"/>
<text text-anchor="start" x="444" y="-225.5" font-family="Helvetica,sans-Serif" font-size="10.00">Control_system::transition</text>
<text text-anchor="middle" x="501.5" y="-214.5" font-family="Helvetica,sans-Serif" font-size="10.00">_state</text>
</a>
</g>
</g>
<!-- Node4&#45;&gt;Node5 -->
<g id="edge4" class="edge">
<title>Node4&#45;&gt;Node5</title>
<path fill="none" stroke="#63b8ff" d="M400.39,-209.32C408.22,-210.35 416.32,-211.42 424.38,-212.48"/>
<polygon fill="#63b8ff" stroke="#63b8ff" points="423.83,-215.94 434.2,-213.77 424.75,-209 423.83,-215.94"/>
</g>
<!-- Node8 -->
<g id="node8" class="node">
<title>Node8</title>
<g id="a_node8"><a xlink:href="class_abstract__state.html#a993232854cd166a601b6c5b4ba7befcc" target="_top" xlink:title="Método para actualizar el estado.">
<polygon fill="white" stroke="#666666" points="559.5,-189 443.5,-189 443.5,-170 559.5,-170 559.5,-189"/>
<text text-anchor="middle" x="501.5" y="-177" font-family="Helvetica,sans-Serif" font-size="10.00">Abstract_state::update</text>
</a>
</g>
</g>
<!-- Node4&#45;&gt;Node8 -->
<g id="edge7" class="edge">
<title>Node4&#45;&gt;Node8</title>
<path fill="none" stroke="#63b8ff" d="M400.39,-193.31C410.67,-191.89 421.43,-190.41 431.93,-188.96"/>
<polygon fill="#63b8ff" stroke="#63b8ff" points="432.25,-192.45 441.68,-187.61 431.29,-185.51 432.25,-192.45"/>
</g>
<!-- Node6 -->
<g id="node6" class="node">
<title>Node6</title>
<g id="a_node6"><a xlink:href="class_abstract__state.html#a1c001b0cb46c11126cb9ff77f8ad3016" target="_top" xlink:title="Método que se llama al ingresar al estado.">
<polygon fill="white" stroke="#666666" points="720,-250 612,-250 612,-231 720,-231 720,-250"/>
<text text-anchor="middle" x="666" y="-238" font-family="Helvetica,sans-Serif" font-size="10.00">Abstract_state::enter</text>
</a>
</g>
</g>
<!-- Node5&#45;&gt;Node6 -->
<g id="edge5" class="edge">
<title>Node5&#45;&gt;Node6</title>
<path fill="none" stroke="#63b8ff" d="M567.19,-229.67C578.16,-230.88 589.55,-232.14 600.52,-233.36"/>
<polygon fill="#63b8ff" stroke="#63b8ff" points="599.92,-236.81 610.25,-234.44 600.7,-229.86 599.92,-236.81"/>
</g>
<!-- Node7 -->
<g id="node7" class="node">
<title>Node7</title>
<g id="a_node7"><a xlink:href="class_abstract__state.html#a130d61765e2fcdf3bb0500943221efbe" target="_top" xlink:title="Método para cambiar de estado.">
<polygon fill="white" stroke="#666666" points="729,-213 603,-213 603,-194 729,-194 729,-213"/>
<text text-anchor="middle" x="666" y="-201" font-family="Helvetica,sans-Serif" font-size="10.00">Abstract_state::transition</text>
</a>
</g>
</g>
<!-- Node5&#45;&gt;Node7 -->
<g id="edge6" class="edge">
<title>Node5&#45;&gt;Node7</title>
<path fill="none" stroke="#63b8ff" d="M567.19,-214.94C575.13,-214.01 583.29,-213.05 591.35,-212.11"/>
<polygon fill="#63b8ff" stroke="#63b8ff" points="591.62,-215.6 601.15,-210.97 590.81,-208.65 591.62,-215.6"/>
</g>
<!-- Node10 -->
<g id="node10" class="node">
<title>Node10</title>
<g id="a_node10"><a xlink:href="class_display.html#a87d1e7bf73a1d14b5e76c9ab647a9e93" target="_top" xlink:title="Fija el el texto a actualizar, no lo imprime en pantalla. La ubicación se da con las constantes de of...">
<polygon fill="white" stroke="#666666" points="385,-169 295,-169 295,-150 385,-150 385,-169"/>
<text text-anchor="middle" x="340" y="-157" font-family="Helvetica,sans-Serif" font-size="10.00">Display::set_text</text>
</a>
</g>
</g>
<!-- Node9&#45;&gt;Node10 -->
<g id="edge9" class="edge">
<title>Node9&#45;&gt;Node10</title>
<path fill="none" stroke="#63b8ff" d="M243.8,-157.61C256.79,-157.87 270.63,-158.14 283.6,-158.4"/>
<polygon fill="#63b8ff" stroke="#63b8ff" points="283.17,-161.89 293.23,-158.59 283.31,-154.89 283.17,-161.89"/>
</g>
<!-- Node12 -->
<g id="node12" class="node">
<title>Node12</title>
<g id="a_node12"><a xlink:href="classhd44780___i2_cexp.html#a9f885fdf91ca52fd05158387ee4bedcd" target="_top" xlink:title="Borra el texto de la pantalla.">
<polygon fill="white" stroke="#666666" points="398,-132 282,-132 282,-113 398,-113 398,-132"/>
<text text-anchor="middle" x="340" y="-120" font-family="Helvetica,sans-Serif" font-size="10.00">hd44780_I2Cexp::clear</text>
</a>
</g>
</g>
<!-- Node11&#45;&gt;Node12 -->
<g id="edge11" class="edge">
<title>Node11&#45;&gt;Node12</title>
<path fill="none" stroke="#63b8ff" d="M227.67,-94.48C246.24,-99.16 268.57,-104.78 288.34,-109.75"/>
<polygon fill="#63b8ff" stroke="#63b8ff" points="287.31,-113.1 297.86,-112.15 289.02,-106.31 287.31,-113.1"/>
</g>
<!-- Node13 -->
<g id="node13" class="node">
<title>Node13</title>
<g id="a_node13"><a xlink:href="classhd44780___i2_cexp.html#a13020db13c26b6d7ba6ff2ebb42e4053" target="_top" xlink:title="Mueve el cursor.">
<polygon fill="white" stroke="#666666" points="562.5,-56 440.5,-56 440.5,-37 562.5,-37 562.5,-56"/>
<text text-anchor="middle" x="501.5" y="-44" font-family="Helvetica,sans-Serif" font-size="10.00">hd44780_I2Cexp::cursor</text>
</a>
</g>
</g>
<!-- Node11&#45;&gt;Node13 -->
<g id="edge12" class="edge">
<title>Node11&#45;&gt;Node13</title>
<path fill="none" stroke="#63b8ff" d="M229.17,-82C271.99,-79.13 340.89,-73.72 400,-65.5 413.53,-63.62 428.01,-61.15 441.65,-58.62"/>
<polygon fill="#63b8ff" stroke="#63b8ff" points="442.2,-62.08 451.37,-56.77 440.89,-55.2 442.2,-62.08"/>
</g>
<!-- Node14 -->
<g id="node14" class="node">
<title>Node14</title>
<g id="a_node14"><a xlink:href="classhd44780___i2_cexp.html#ab25b744a9de62f700d5736864640d21b" target="_top" xlink:title="Lleva el cursor al origen de coordenadas.">
<polygon fill="white" stroke="#666666" points="399.5,-56 280.5,-56 280.5,-37 399.5,-37 399.5,-56"/>
<text text-anchor="middle" x="340" y="-44" font-family="Helvetica,sans-Serif" font-size="10.00">hd44780_I2Cexp::home</text>
</a>
</g>
</g>
<!-- Node11&#45;&gt;Node14 -->
<g id="edge13" class="edge">
<title>Node11&#45;&gt;Node14</title>
<path fill="none" stroke="#63b8ff" d="M227.67,-74.52C246.24,-69.84 268.57,-64.22 288.34,-59.25"/>
<polygon fill="#63b8ff" stroke="#63b8ff" points="289.02,-62.69 297.86,-56.85 287.31,-55.9 289.02,-62.69"/>
</g>
<!-- Node15 -->
<g id="node15" class="node">
<title>Node15</title>
<g id="a_node15"><a xlink:href="classhd44780___i2_cexp.html#a284e20a480ae9d5ae529fc4676d14dd3" target="_top" xlink:title="Imprime una cadena de texto en la posición actual del cursor.">
<polygon fill="white" stroke="#666666" points="396.5,-19 283.5,-19 283.5,0 396.5,0 396.5,-19"/>
<text text-anchor="middle" x="340" y="-7" font-family="Helvetica,sans-Serif" font-size="10.00">hd44780_I2Cexp::print</text>
</a>
</g>
</g>
<!-- Node11&#45;&gt;Node15 -->
<g id="edge15" class="edge">
<title>Node11&#45;&gt;Node15</title>
<path fill="none" stroke="#63b8ff" d="M201.4,-74.64C218.79,-62.23 250.39,-40.91 280,-27.5 283.37,-25.98 286.9,-24.53 290.48,-23.18"/>
<polygon fill="#63b8ff" stroke="#63b8ff" points="291.6,-26.5 299.89,-19.9 289.3,-19.89 291.6,-26.5"/>
</g>
<!-- Node14&#45;&gt;Node13 -->
<g id="edge14" class="edge">
<title>Node14&#45;&gt;Node13</title>
<path fill="none" stroke="#63b8ff" d="M399.94,-46.5C409.38,-46.5 419.24,-46.5 428.93,-46.5"/>
<polygon fill="#63b8ff" stroke="#63b8ff" points="428.69,-50 438.69,-46.5 428.69,-43 428.69,-50"/>
</g>
<!-- Node15&#45;&gt;Node13 -->
<g id="edge16" class="edge">
<title>Node15&#45;&gt;Node13</title>
<path fill="none" stroke="#63b8ff" d="M383.74,-19.42C403.05,-23.89 426.08,-29.24 446.56,-33.99"/>
<polygon fill="#63b8ff" stroke="#63b8ff" points="445.63,-37.36 456.16,-36.22 447.21,-30.55 445.63,-37.36"/>
</g>
</g>
</svg>
