<?xml version="1.0" encoding="UTF-8" standalone="no"?>
<!DOCTYPE svg PUBLIC "-//W3C//DTD SVG 1.1//EN"
 "http://www.w3.org/Graphics/SVG/1.1/DTD/svg11.dtd">
<!-- Generated by graphviz version 7.0.2 (20221119.0110)
 -->
<!-- Title: Abstract_state Pages: 1 -->
<svg width="433pt" height="82pt"
 viewBox="0.00 0.00 433.00 82.00" xmlns="http://www.w3.org/2000/svg" xmlns:xlink="http://www.w3.org/1999/xlink">
<g id="graph0" class="graph" transform="scale(1 1) rotate(0) translate(4 78)">
<title>Abstract_state</title>
<!-- Node1 -->
<g id="node1" class="node">
<title>Node1</title>
<g id="a_node1"><a xlink:title="Clase base para implementar los estados de Control_system. Cada estado se debe ocupar de su comportam...">
<polygon fill="#999999" stroke="#666666" points="259,-74 179,-74 179,-55 259,-55 259,-74"/>
<text text-anchor="middle" x="219" y="-62" font-family="Helvetica,sans-Serif" font-size="10.00">Abstract_state</text>
</a>
</g>
</g>
<!-- Node2 -->
<g id="node2" class="node">
<title>Node2</title>
<g id="a_node2"><a xlink:href="class_check__instruction__state.html" target="_top" xlink:title=" ">
<polygon fill="white" stroke="#bfbfbf" points="122,-19 0,-19 0,0 122,0 122,-19"/>
<text text-anchor="middle" x="61" y="-7" font-family="Helvetica,sans-Serif" font-size="10.00">Check_instruction_state</text>
</a>
</g>
</g>
<!-- Node1&#45;&gt;Node2 -->
<g id="edge1" class="edge">
<title>Node1&#45;&gt;Node2</title>
<path fill="none" stroke="#63b8ff" d="M181.3,-50.85C152.44,-41.17 113.35,-28.06 87.67,-19.45"/>
<polygon fill="#63b8ff" stroke="#63b8ff" points="180.17,-54.17 190.76,-54.03 182.39,-47.53 180.17,-54.17"/>
</g>
<!-- Node3 -->
<g id="node3" class="node">
<title>Node3</title>
<g id="a_node3"><a xlink:href="class_idle__state.html" target="_top" xlink:title="Clase para implementar el estado de reposo del sistema (Sin alarmas ni advertencias,...">
<polygon fill="white" stroke="#666666" points="199.5,-19 140.5,-19 140.5,0 199.5,0 199.5,-19"/>
<text text-anchor="middle" x="170" y="-7" font-family="Helvetica,sans-Serif" font-size="10.00">Idle_state</text>
</a>
</g>
</g>
<!-- Node1&#45;&gt;Node3 -->
<g id="edge2" class="edge">
<title>Node1&#45;&gt;Node3</title>
<path fill="none" stroke="#63b8ff" d="M203.28,-46.5C194.96,-37.5 185.09,-26.82 178.27,-19.44"/>
<polygon fill="#63b8ff" stroke="#63b8ff" points="200.52,-48.67 209.88,-53.64 205.66,-43.92 200.52,-48.67"/>
</g>
<!-- Node4 -->
<g id="node4" class="node">
<title>Node4</title>
<g id="a_node4"><a xlink:href="class_motor__control__state.html" target="_top" xlink:title=" ">
<polygon fill="white" stroke="#bfbfbf" points="320.5,-19 217.5,-19 217.5,0 320.5,0 320.5,-19"/>
<text text-anchor="middle" x="269" y="-7" font-family="Helvetica,sans-Serif" font-size="10.00">Motor_control_state</text>
</a>
</g>
</g>
<!-- Node1&#45;&gt;Node4 -->
<g id="edge3" class="edge">
<title>Node1&#45;&gt;Node4</title>
<path fill="none" stroke="#63b8ff" d="M235.04,-46.5C243.53,-37.5 253.6,-26.82 260.56,-19.44"/>
<polygon fill="#63b8ff" stroke="#63b8ff" points="232.61,-43.97 228.3,-53.65 237.7,-48.78 232.61,-43.97"/>
</g>
<!-- Node5 -->
<g id="node5" class="node">
<title>Node5</title>
<g id="a_node5"><a xlink:href="class_shutdown__state.html" target="_top" xlink:title=" ">
<polygon fill="white" stroke="#bfbfbf" points="425,-19 339,-19 339,0 425,0 425,-19"/>
<text text-anchor="middle" x="382" y="-7" font-family="Helvetica,sans-Serif" font-size="10.00">Shutdown_state</text>
</a>
</g>
</g>
<!-- Node1&#45;&gt;Node5 -->
<g id="edge4" class="edge">
<title>Node1&#45;&gt;Node5</title>
<path fill="none" stroke="#63b8ff" d="M257.5,-50.98C287.31,-41.29 327.88,-28.1 354.49,-19.45"/>
<polygon fill="#63b8ff" stroke="#63b8ff" points="256.52,-47.62 248.09,-54.04 258.68,-54.28 256.52,-47.62"/>
</g>
</g>
</svg>
