<?xml version="1.0" encoding="UTF-8" standalone="no"?>
<!DOCTYPE svg PUBLIC "-//W3C//DTD SVG 1.1//EN"
 "http://www.w3.org/Graphics/SVG/1.1/DTD/svg11.dtd">
<!-- Generated by graphviz version 7.0.2 (20221119.0110)
 -->
<!-- Title: Control_system::transition_state Pages: 1 -->
<svg width="301pt" height="64pt"
 viewBox="0.00 0.00 301.00 64.00" xmlns="http://www.w3.org/2000/svg" xmlns:xlink="http://www.w3.org/1999/xlink">
<g id="graph0" class="graph" transform="scale(1 1) rotate(0) translate(4 60)">
<title>Control_system::transition_state</title>
<!-- Node1 -->
<g id="node1" class="node">
<title>Node1</title>
<g id="a_node1"><a xlink:title="Método virtual para llamar al método de transición del estado actual.">
<polygon fill="#999999" stroke="#666666" points="131,-42.5 0,-42.5 0,-12.5 131,-12.5 131,-42.5"/>
<text text-anchor="start" x="8" y="-30.5" font-family="Helvetica,sans-Serif" font-size="10.00">Control_system::transition</text>
<text text-anchor="middle" x="65.5" y="-19.5" font-family="Helvetica,sans-Serif" font-size="10.00">_state</text>
</a>
</g>
</g>
<!-- Node2 -->
<g id="node2" class="node">
<title>Node2</title>
<g id="a_node2"><a xlink:href="class_abstract__state.html#a1c001b0cb46c11126cb9ff77f8ad3016" target="_top" xlink:title="Método que se llama al ingresar al estado.">
<polygon fill="white" stroke="#666666" points="284,-56 176,-56 176,-37 284,-37 284,-56"/>
<text text-anchor="middle" x="230" y="-44" font-family="Helvetica,sans-Serif" font-size="10.00">Abstract_state::enter</text>
</a>
</g>
</g>
<!-- Node1&#45;&gt;Node2 -->
<g id="edge1" class="edge">
<title>Node1&#45;&gt;Node2</title>
<path fill="none" stroke="#63b8ff" d="M131.19,-35.06C142.16,-36.35 153.55,-37.68 164.52,-38.96"/>
<polygon fill="#63b8ff" stroke="#63b8ff" points="163.91,-42.41 174.25,-40.1 164.72,-35.46 163.91,-42.41"/>
</g>
<!-- Node3 -->
<g id="node3" class="node">
<title>Node3</title>
<g id="a_node3"><a xlink:href="class_abstract__state.html#a130d61765e2fcdf3bb0500943221efbe" target="_top" xlink:title="Método para cambiar de estado.">
<polygon fill="white" stroke="#666666" points="293,-19 167,-19 167,0 293,0 293,-19"/>
<text text-anchor="middle" x="230" y="-7" font-family="Helvetica,sans-Serif" font-size="10.00">Abstract_state::transition</text>
</a>
</g>
</g>
<!-- Node1&#45;&gt;Node3 -->
<g id="edge2" class="edge">
<title>Node1&#45;&gt;Node3</title>
<path fill="none" stroke="#63b8ff" d="M131.19,-20.33C139.13,-19.45 147.29,-18.55 155.35,-17.66"/>
<polygon fill="#63b8ff" stroke="#63b8ff" points="155.59,-21.15 165.14,-16.57 154.82,-14.2 155.59,-21.15"/>
</g>
</g>
</svg>
