<?xml version="1.0" encoding="UTF-8" standalone="no"?>
<!DOCTYPE svg PUBLIC "-//W3C//DTD SVG 1.1//EN"
 "http://www.w3.org/Graphics/SVG/1.1/DTD/svg11.dtd">
<!-- Generated by graphviz version 7.0.2 (20221119.0110)
 -->
<!-- Title: Control_system::set_cooler_speed Pages: 1 -->
<svg width="402pt" height="119pt"
 viewBox="0.00 0.00 402.00 119.00" xmlns="http://www.w3.org/2000/svg" xmlns:xlink="http://www.w3.org/1999/xlink">
<g id="graph0" class="graph" transform="scale(1 1) rotate(0) translate(4 115)">
<title>Control_system::set_cooler_speed</title>
<!-- Node1 -->
<g id="node1" class="node">
<title>Node1</title>
<g id="a_node1"><a xlink:title="Fija el valor de velocidad del ventilador.">
<polygon fill="#999999" stroke="#666666" points="104,-79.5 0,-79.5 0,-49.5 104,-49.5 104,-79.5"/>
<text text-anchor="start" x="8" y="-67.5" font-family="Helvetica,sans-Serif" font-size="10.00">Control_system::set</text>
<text text-anchor="middle" x="52" y="-56.5" font-family="Helvetica,sans-Serif" font-size="10.00">_cooler_speed</text>
</a>
</g>
</g>
<!-- Node2 -->
<g id="node2" class="node">
<title>Node2</title>
<g id="a_node2"><a xlink:href="class_dual___l_e_d.html#ab1cd238e00901ca9556914a38d3a064c" target="_top" xlink:title="Enciende el LED en verde.">
<polygon fill="white" stroke="#666666" points="252,-74 140,-74 140,-55 252,-55 252,-74"/>
<text text-anchor="middle" x="196" y="-62" font-family="Helvetica,sans-Serif" font-size="10.00">Dual_LED::turn_green</text>
</a>
</g>
</g>
<!-- Node1&#45;&gt;Node2 -->
<g id="edge1" class="edge">
<title>Node1&#45;&gt;Node2</title>
<path fill="none" stroke="#63b8ff" d="M104.27,-64.5C112.15,-64.5 120.38,-64.5 128.54,-64.5"/>
<polygon fill="#63b8ff" stroke="#63b8ff" points="128.46,-68 138.46,-64.5 128.46,-61 128.46,-68"/>
</g>
<!-- Node5 -->
<g id="node5" class="node">
<title>Node5</title>
<g id="a_node5"><a xlink:href="class_cooler.html#aa98fd302dc7933fc21c046ca3ea48346" target="_top" xlink:title="Enciende el ventilador. Si el ciclo de trabajo deseado es menor que FAN_MINIMUM_DUTY_CYCLE apaga el v...">
<polygon fill="white" stroke="#666666" points="237.5,-19 154.5,-19 154.5,0 237.5,0 237.5,-19"/>
<text text-anchor="middle" x="196" y="-7" font-family="Helvetica,sans-Serif" font-size="10.00">Cooler::turn_on</text>
</a>
</g>
</g>
<!-- Node1&#45;&gt;Node5 -->
<g id="edge4" class="edge">
<title>Node1&#45;&gt;Node5</title>
<path fill="none" stroke="#63b8ff" d="M92.93,-49.03C113.56,-41.04 138.54,-31.37 158.63,-23.59"/>
<polygon fill="#63b8ff" stroke="#63b8ff" points="159.75,-26.91 167.81,-20.03 157.22,-20.38 159.75,-26.91"/>
</g>
<!-- Node7 -->
<g id="node7" class="node">
<title>Node7</title>
<g id="a_node7"><a xlink:href="class_dual___l_e_d.html#a8734a816df04661d86e3ccbf88159eb0" target="_top" xlink:title="Enciende el LED en rojo.">
<polygon fill="white" stroke="#666666" points="246.5,-111 145.5,-111 145.5,-92 246.5,-92 246.5,-111"/>
<text text-anchor="middle" x="196" y="-99" font-family="Helvetica,sans-Serif" font-size="10.00">Dual_LED::turn_red</text>
</a>
</g>
</g>
<!-- Node1&#45;&gt;Node7 -->
<g id="edge7" class="edge">
<title>Node1&#45;&gt;Node7</title>
<path fill="none" stroke="#63b8ff" d="M104.27,-77.86C117.8,-81.38 132.36,-85.18 145.78,-88.68"/>
<polygon fill="#63b8ff" stroke="#63b8ff" points="144.71,-92.01 155.27,-91.15 146.48,-85.24 144.71,-92.01"/>
</g>
<!-- Node3 -->
<g id="node3" class="node">
<title>Node3</title>
<g id="a_node3"><a xlink:href="class_dual___l_e_d.html#aeb163748acf071a1652c56ae1dff9d52" target="_top" xlink:title="Fija el color del led, no enciende el led,.">
<polygon fill="white" stroke="#666666" points="394,-74 288,-74 288,-55 394,-55 394,-74"/>
<text text-anchor="middle" x="341" y="-62" font-family="Helvetica,sans-Serif" font-size="10.00">Dual_LED::set_color</text>
</a>
</g>
</g>
<!-- Node2&#45;&gt;Node3 -->
<g id="edge2" class="edge">
<title>Node2&#45;&gt;Node3</title>
<path fill="none" stroke="#63b8ff" d="M252.29,-64.5C260.19,-64.5 268.38,-64.5 276.43,-64.5"/>
<polygon fill="#63b8ff" stroke="#63b8ff" points="276.16,-68 286.16,-64.5 276.16,-61 276.16,-68"/>
</g>
<!-- Node4 -->
<g id="node4" class="node">
<title>Node4</title>
<g id="a_node4"><a xlink:href="class_dual___l_e_d.html#a8b13294b883897eb83f91bf90a3a11cd" target="_top" xlink:title="Enciende el LED en el color actual.">
<polygon fill="white" stroke="#666666" points="390,-111 292,-111 292,-92 390,-92 390,-111"/>
<text text-anchor="middle" x="341" y="-99" font-family="Helvetica,sans-Serif" font-size="10.00">Dual_LED::turn_on</text>
</a>
</g>
</g>
<!-- Node2&#45;&gt;Node4 -->
<g id="edge3" class="edge">
<title>Node2&#45;&gt;Node4</title>
<path fill="none" stroke="#63b8ff" d="M235.32,-74.42C252.31,-78.81 272.52,-84.04 290.62,-88.72"/>
<polygon fill="#63b8ff" stroke="#63b8ff" points="289.55,-92.06 300.11,-91.18 291.3,-85.28 289.55,-92.06"/>
</g>
<!-- Node5&#45;&gt;Node5 -->
<g id="edge6" class="edge">
<title>Node5&#45;&gt;Node5</title>
<path fill="none" stroke="#63b8ff" d="M173.46,-19.37C163.17,-27.94 170.69,-37 196,-37 209.84,-37 218.36,-34.29 221.56,-30.43"/>
<polygon fill="#63b8ff" stroke="#63b8ff" points="224.95,-29.56 218.94,-20.83 218.2,-31.4 224.95,-29.56"/>
</g>
<!-- Node6 -->
<g id="node6" class="node">
<title>Node6</title>
<g id="a_node6"><a xlink:href="class_cooler.html#a3aa26bc227fa7a2bdcff9fe607990104" target="_top" xlink:title="Apaga el ventilador.">
<polygon fill="white" stroke="#666666" points="382,-19 300,-19 300,0 382,0 382,-19"/>
<text text-anchor="middle" x="341" y="-7" font-family="Helvetica,sans-Serif" font-size="10.00">Cooler::turn_off</text>
</a>
</g>
</g>
<!-- Node5&#45;&gt;Node6 -->
<g id="edge5" class="edge">
<title>Node5&#45;&gt;Node6</title>
<path fill="none" stroke="#63b8ff" d="M237.98,-9.5C253.67,-9.5 271.78,-9.5 288.34,-9.5"/>
<polygon fill="#63b8ff" stroke="#63b8ff" points="288,-13 298,-9.5 288,-6 288,-13"/>
</g>
<!-- Node7&#45;&gt;Node3 -->
<g id="edge8" class="edge">
<title>Node7&#45;&gt;Node3</title>
<path fill="none" stroke="#63b8ff" d="M235.32,-91.58C252.31,-87.19 272.52,-81.96 290.62,-77.28"/>
<polygon fill="#63b8ff" stroke="#63b8ff" points="291.3,-80.72 300.11,-74.82 289.55,-73.94 291.3,-80.72"/>
</g>
<!-- Node7&#45;&gt;Node4 -->
<g id="edge9" class="edge">
<title>Node7&#45;&gt;Node4</title>
<path fill="none" stroke="#63b8ff" d="M246.61,-101.5C257.62,-101.5 269.4,-101.5 280.75,-101.5"/>
<polygon fill="#63b8ff" stroke="#63b8ff" points="280.41,-105 290.41,-101.5 280.41,-98 280.41,-105"/>
</g>
</g>
</svg>
