<?xml version="1.0" encoding="UTF-8" standalone="no"?>
<!DOCTYPE svg PUBLIC "-//W3C//DTD SVG 1.1//EN"
 "http://www.w3.org/Graphics/SVG/1.1/DTD/svg11.dtd">
<!-- Generated by graphviz version 7.0.2 (20221119.0110)
 -->
<!-- Title: C:/Users/juanh/OneDrive/Escritorio/Sistemas Embebidos/Proyecto final/LAL Control MbedOS/include/display_settings.h Pages: 1 -->
<svg width="1149pt" height="555pt"
 viewBox="0.00 0.00 1149.00 555.00" xmlns="http://www.w3.org/2000/svg" xmlns:xlink="http://www.w3.org/1999/xlink">
<g id="graph0" class="graph" transform="scale(1 1) rotate(0) translate(4 551)">
<title>C:/Users/juanh/OneDrive/Escritorio/Sistemas Embebidos/Proyecto final/LAL Control MbedOS/include/display_settings.h</title>
<!-- Node1 -->
<g id="node1" class="node">
<title>Node1</title>
<g id="a_node1"><a xlink:title="Archivo de configuración de la pantalla.">
<polygon fill="#999999" stroke="#666666" points="593.5,-547 420.5,-547 420.5,-495 593.5,-495 593.5,-547"/>
<text text-anchor="start" x="428.5" y="-535" font-family="Helvetica,sans-Serif" font-size="10.00">C:/Users/juanh/OneDrive</text>
<text text-anchor="start" x="428.5" y="-524" font-family="Helvetica,sans-Serif" font-size="10.00">/Escritorio/Sistemas Embebidos</text>
<text text-anchor="start" x="428.5" y="-513" font-family="Helvetica,sans-Serif" font-size="10.00">/Proyecto final/LAL Control</text>
<text text-anchor="middle" x="507" y="-502" font-family="Helvetica,sans-Serif" font-size="10.00"> MbedOS/include/display_settings.h</text>
</a>
</g>
</g>
<!-- Node2 -->
<g id="node2" class="node">
<title>Node2</title>
<g id="a_node2"><a xlink:href="_display_8h.html" target="_top" xlink:title="Controlador de LCD hd44780 por interfaz I2C.">
<polygon fill="white" stroke="#666666" points="590,-459 424,-459 424,-407 590,-407 590,-459"/>
<text text-anchor="start" x="432" y="-447" font-family="Helvetica,sans-Serif" font-size="10.00">C:/Users/juanh/OneDrive</text>
<text text-anchor="start" x="432" y="-436" font-family="Helvetica,sans-Serif" font-size="10.00">/Escritorio/Sistemas Embebidos</text>
<text text-anchor="start" x="432" y="-425" font-family="Helvetica,sans-Serif" font-size="10.00">/Proyecto final/LAL Control</text>
<text text-anchor="middle" x="507" y="-414" font-family="Helvetica,sans-Serif" font-size="10.00"> MbedOS/include/drivers/Display.h</text>
</a>
</g>
</g>
<!-- Node1&#45;&gt;Node2 -->
<g id="edge1" class="edge">
<title>Node1&#45;&gt;Node2</title>
<path fill="none" stroke="#63b8ff" d="M507,-483.26C507,-475.24 507,-466.92 507,-459.45"/>
<polygon fill="#63b8ff" stroke="#63b8ff" points="503.5,-483.15 507,-493.15 510.5,-483.15 503.5,-483.15"/>
</g>
<!-- Node3 -->
<g id="node3" class="node">
<title>Node3</title>
<g id="a_node3"><a xlink:href="_control__system_8h_source.html" target="_top" xlink:title=" ">
<polygon fill="white" stroke="#666666" points="495.5,-371 324.5,-371 324.5,-319 495.5,-319 495.5,-371"/>
<text text-anchor="start" x="332.5" y="-359" font-family="Helvetica,sans-Serif" font-size="10.00">C:/Users/juanh/OneDrive</text>
<text text-anchor="start" x="332.5" y="-348" font-family="Helvetica,sans-Serif" font-size="10.00">/Escritorio/Sistemas Embebidos</text>
<text text-anchor="start" x="332.5" y="-337" font-family="Helvetica,sans-Serif" font-size="10.00">/Proyecto final/LAL Control</text>
<text text-anchor="middle" x="410" y="-326" font-family="Helvetica,sans-Serif" font-size="10.00"> MbedOS/include/Control_system.h</text>
</a>
</g>
</g>
<!-- Node2&#45;&gt;Node3 -->
<g id="edge2" class="edge">
<title>Node2&#45;&gt;Node3</title>
<path fill="none" stroke="#63b8ff" d="M469.94,-399.15C459.59,-389.97 448.5,-380.13 438.71,-371.45"/>
<polygon fill="#63b8ff" stroke="#63b8ff" points="467.48,-401.64 477.29,-405.66 472.13,-396.41 467.48,-401.64"/>
</g>
<!-- Node15 -->
<g id="node15" class="node">
<title>Node15</title>
<g id="a_node15"><a xlink:href="_display_8cpp.html" target="_top" xlink:title=" ">
<polygon fill="white" stroke="#666666" points="694,-371 514,-371 514,-319 694,-319 694,-371"/>
<text text-anchor="start" x="522" y="-359" font-family="Helvetica,sans-Serif" font-size="10.00">C:/Users/juanh/OneDrive</text>
<text text-anchor="start" x="522" y="-348" font-family="Helvetica,sans-Serif" font-size="10.00">/Escritorio/Sistemas Embebidos</text>
<text text-anchor="start" x="522" y="-337" font-family="Helvetica,sans-Serif" font-size="10.00">/Proyecto final/LAL Control</text>
<text text-anchor="middle" x="604" y="-326" font-family="Helvetica,sans-Serif" font-size="10.00"> MbedOS/src/Port/drivers/Display.cpp</text>
</a>
</g>
</g>
<!-- Node2&#45;&gt;Node15 -->
<g id="edge30" class="edge">
<title>Node2&#45;&gt;Node15</title>
<path fill="none" stroke="#63b8ff" d="M544.06,-399.15C554.41,-389.97 565.5,-380.13 575.29,-371.45"/>
<polygon fill="#63b8ff" stroke="#63b8ff" points="541.87,-396.41 536.71,-405.66 546.52,-401.64 541.87,-396.41"/>
</g>
<!-- Node4 -->
<g id="node4" class="node">
<title>Node4</title>
<g id="a_node4"><a xlink:href="_check__instruction__state_8h_source.html" target="_top" xlink:title=" ">
<polygon fill="white" stroke="#666666" points="158,-283 0,-283 0,-209 158,-209 158,-283"/>
<text text-anchor="start" x="8" y="-271" font-family="Helvetica,sans-Serif" font-size="10.00">C:/Users/juanh/OneDrive</text>
<text text-anchor="start" x="8" y="-260" font-family="Helvetica,sans-Serif" font-size="10.00">/Escritorio/Sistemas Embebidos</text>
<text text-anchor="start" x="8" y="-249" font-family="Helvetica,sans-Serif" font-size="10.00">/Proyecto final/LAL Control</text>
<text text-anchor="start" x="8" y="-238" font-family="Helvetica,sans-Serif" font-size="10.00"> MbedOS/include/machine_state</text>
<text text-anchor="start" x="8" y="-227" font-family="Helvetica,sans-Serif" font-size="10.00">_pattern/machine_states/Check</text>
<text text-anchor="middle" x="79" y="-216" font-family="Helvetica,sans-Serif" font-size="10.00">_instruction_state.h</text>
</a>
</g>
</g>
<!-- Node3&#45;&gt;Node4 -->
<g id="edge3" class="edge">
<title>Node3&#45;&gt;Node4</title>
<path fill="none" stroke="#63b8ff" d="M313.33,-315.67C264.07,-301.23 204.9,-283.9 158.35,-270.25"/>
<polygon fill="#63b8ff" stroke="#63b8ff" points="312.3,-319.01 322.88,-318.47 314.26,-312.3 312.3,-319.01"/>
</g>
<!-- Node5 -->
<g id="node5" class="node">
<title>Node5</title>
<g id="a_node5"><a xlink:href="_idle__state_8h.html" target="_top" xlink:title="Clase de estado de reposo.">
<polygon fill="white" stroke="#666666" points="268.5,-173 91.5,-173 91.5,-110 268.5,-110 268.5,-173"/>
<text text-anchor="start" x="99.5" y="-161" font-family="Helvetica,sans-Serif" font-size="10.00">C:/Users/juanh/OneDrive</text>
<text text-anchor="start" x="99.5" y="-150" font-family="Helvetica,sans-Serif" font-size="10.00">/Escritorio/Sistemas Embebidos</text>
<text text-anchor="start" x="99.5" y="-139" font-family="Helvetica,sans-Serif" font-size="10.00">/Proyecto final/LAL Control</text>
<text text-anchor="start" x="99.5" y="-128" font-family="Helvetica,sans-Serif" font-size="10.00"> MbedOS/include/machine_state</text>
<text text-anchor="middle" x="180" y="-117" font-family="Helvetica,sans-Serif" font-size="10.00">_pattern/machine_states/Idle_state.h</text>
</a>
</g>
</g>
<!-- Node3&#45;&gt;Node5 -->
<g id="edge11" class="edge">
<title>Node3&#45;&gt;Node5</title>
<path fill="none" stroke="#63b8ff" d="M331.47,-313.71C314.52,-305.21 297.39,-294.95 283,-283 245.54,-251.89 214.46,-204.34 196.55,-173.33"/>
<polygon fill="#63b8ff" stroke="#63b8ff" points="329.52,-316.66 340.04,-317.86 332.56,-310.35 329.52,-316.66"/>
</g>
<!-- Node6 -->
<g id="node6" class="node">
<title>Node6</title>
<g id="a_node6"><a xlink:href="_motor__control__state_8h.html" target="_top" xlink:title="Clase de estado de control del motor.">
<polygon fill="white" stroke="#666666" points="223,-74 65,-74 65,0 223,0 223,-74"/>
<text text-anchor="start" x="73" y="-62" font-family="Helvetica,sans-Serif" font-size="10.00">C:/Users/juanh/OneDrive</text>
<text text-anchor="start" x="73" y="-51" font-family="Helvetica,sans-Serif" font-size="10.00">/Escritorio/Sistemas Embebidos</text>
<text text-anchor="start" x="73" y="-40" font-family="Helvetica,sans-Serif" font-size="10.00">/Proyecto final/LAL Control</text>
<text text-anchor="start" x="73" y="-29" font-family="Helvetica,sans-Serif" font-size="10.00"> MbedOS/include/machine_state</text>
<text text-anchor="start" x="73" y="-18" font-family="Helvetica,sans-Serif" font-size="10.00">_pattern/machine_states/Motor</text>
<text text-anchor="middle" x="144" y="-7" font-family="Helvetica,sans-Serif" font-size="10.00">_control_state.h</text>
</a>
</g>
</g>
<!-- Node3&#45;&gt;Node6 -->
<g id="edge12" class="edge">
<title>Node3&#45;&gt;Node6</title>
<path fill="none" stroke="#63b8ff" d="M376.9,-310.17C369.5,-301.68 362.07,-292.33 356,-283 309.93,-212.13 334.71,-171.76 277,-110 262.03,-93.98 242.68,-80.75 223.39,-70.2"/>
<polygon fill="#63b8ff" stroke="#63b8ff" points="374.23,-312.44 383.51,-317.53 379.43,-307.76 374.23,-312.44"/>
</g>
<!-- Node7 -->
<g id="node7" class="node">
<title>Node7</title>
<g id="a_node7"><a xlink:href="_shutdown__state_8h.html" target="_top" xlink:title="Clase de estado de apagado del sistema.">
<polygon fill="white" stroke="#666666" points="446.5,-68.5 241.5,-68.5 241.5,-5.5 446.5,-5.5 446.5,-68.5"/>
<text text-anchor="start" x="249.5" y="-56.5" font-family="Helvetica,sans-Serif" font-size="10.00">C:/Users/juanh/OneDrive</text>
<text text-anchor="start" x="249.5" y="-45.5" font-family="Helvetica,sans-Serif" font-size="10.00">/Escritorio/Sistemas Embebidos</text>
<text text-anchor="start" x="249.5" y="-34.5" font-family="Helvetica,sans-Serif" font-size="10.00">/Proyecto final/LAL Control</text>
<text text-anchor="start" x="249.5" y="-23.5" font-family="Helvetica,sans-Serif" font-size="10.00"> MbedOS/include/machine_state</text>
<text text-anchor="middle" x="344" y="-12.5" font-family="Helvetica,sans-Serif" font-size="10.00">_pattern/machine_states/Shutdown_state.h</text>
</a>
</g>
</g>
<!-- Node3&#45;&gt;Node7 -->
<g id="edge13" class="edge">
<title>Node3&#45;&gt;Node7</title>
<path fill="none" stroke="#63b8ff" d="M379.45,-308.86C374.9,-300.63 370.84,-291.71 368,-283 343.81,-208.73 337.33,-116.23 338.85,-68.96"/>
<polygon fill="#63b8ff" stroke="#63b8ff" points="376.29,-310.4 384.41,-317.21 382.31,-306.83 376.29,-310.4"/>
</g>
<!-- Node8 -->
<g id="node8" class="node">
<title>Node8</title>
<g id="a_node8"><a xlink:href="main_8h.html" target="_top" xlink:title="Archivo principal del programa.">
<polygon fill="white" stroke="#666666" points="764.5,-63 607.5,-63 607.5,-11 764.5,-11 764.5,-63"/>
<text text-anchor="start" x="615.5" y="-51" font-family="Helvetica,sans-Serif" font-size="10.00">C:/Users/juanh/OneDrive</text>
<text text-anchor="start" x="615.5" y="-40" font-family="Helvetica,sans-Serif" font-size="10.00">/Escritorio/Sistemas Embebidos</text>
<text text-anchor="start" x="615.5" y="-29" font-family="Helvetica,sans-Serif" font-size="10.00">/Proyecto final/LAL Control</text>
<text text-anchor="middle" x="686" y="-18" font-family="Helvetica,sans-Serif" font-size="10.00"> MbedOS/include/main.h</text>
</a>
</g>
</g>
<!-- Node3&#45;&gt;Node8 -->
<g id="edge14" class="edge">
<title>Node3&#45;&gt;Node8</title>
<path fill="none" stroke="#63b8ff" d="M397.6,-307.72C382.99,-257.65 365.87,-167.11 410,-110 434.03,-78.9 534.39,-58.68 607.18,-47.81"/>
<polygon fill="#63b8ff" stroke="#63b8ff" points="394.23,-308.66 400.5,-317.2 400.93,-306.61 394.23,-308.66"/>
</g>
<!-- Node9 -->
<g id="node9" class="node">
<title>Node9</title>
<g id="a_node9"><a xlink:href="_cooler__observer_8h_source.html" target="_top" xlink:title=" ">
<polygon fill="white" stroke="#666666" points="585,-173 419,-173 419,-110 585,-110 585,-173"/>
<text text-anchor="start" x="427" y="-161" font-family="Helvetica,sans-Serif" font-size="10.00">C:/Users/juanh/OneDrive</text>
<text text-anchor="start" x="427" y="-150" font-family="Helvetica,sans-Serif" font-size="10.00">/Escritorio/Sistemas Embebidos</text>
<text text-anchor="start" x="427" y="-139" font-family="Helvetica,sans-Serif" font-size="10.00">/Proyecto final/LAL Control</text>
<text text-anchor="start" x="427" y="-128" font-family="Helvetica,sans-Serif" font-size="10.00"> MbedOS/include/observer_pattern</text>
<text text-anchor="middle" x="502" y="-117" font-family="Helvetica,sans-Serif" font-size="10.00">/observers/Cooler_observer.h</text>
</a>
</g>
</g>
<!-- Node3&#45;&gt;Node9 -->
<g id="edge15" class="edge">
<title>Node3&#45;&gt;Node9</title>
<path fill="none" stroke="#63b8ff" d="M426.12,-308.7C443.63,-270.34 471.33,-209.67 487.98,-173.21"/>
<polygon fill="#63b8ff" stroke="#63b8ff" points="423.06,-306.96 422.09,-317.51 429.43,-309.87 423.06,-306.96"/>
</g>
<!-- Node10 -->
<g id="node10" class="node">
<title>Node10</title>
<g id="a_node10"><a xlink:href="_instruction__observer_8h.html" target="_top" xlink:title="Observador de instrucciones.">
<polygon fill="white" stroke="#666666" points="1139,-173 973,-173 973,-110 1139,-110 1139,-173"/>
<text text-anchor="start" x="981" y="-161" font-family="Helvetica,sans-Serif" font-size="10.00">C:/Users/juanh/OneDrive</text>
<text text-anchor="start" x="981" y="-150" font-family="Helvetica,sans-Serif" font-size="10.00">/Escritorio/Sistemas Embebidos</text>
<text text-anchor="start" x="981" y="-139" font-family="Helvetica,sans-Serif" font-size="10.00">/Proyecto final/LAL Control</text>
<text text-anchor="start" x="981" y="-128" font-family="Helvetica,sans-Serif" font-size="10.00"> MbedOS/include/observer_pattern</text>
<text text-anchor="middle" x="1056" y="-117" font-family="Helvetica,sans-Serif" font-size="10.00">/observers/Instruction_observer.h</text>
</a>
</g>
</g>
<!-- Node3&#45;&gt;Node10 -->
<g id="edge17" class="edge">
<title>Node3&#45;&gt;Node10</title>
<path fill="none" stroke="#63b8ff" d="M506.93,-318.81C640.9,-295.25 683.15,-324.36 809,-283 886.57,-257.51 967.07,-206.26 1014.3,-173.2"/>
<polygon fill="#63b8ff" stroke="#63b8ff" points="506.53,-315.32 497.33,-320.57 507.79,-322.21 506.53,-315.32"/>
</g>
<!-- Node12 -->
<g id="node12" class="node">
<title>Node12</title>
<g id="a_node12"><a xlink:href="_moisture__observer_8h.html" target="_top" xlink:title="Observador del sensor de temperatura.">
<polygon fill="white" stroke="#666666" points="769,-173 603,-173 603,-110 769,-110 769,-173"/>
<text text-anchor="start" x="611" y="-161" font-family="Helvetica,sans-Serif" font-size="10.00">C:/Users/juanh/OneDrive</text>
<text text-anchor="start" x="611" y="-150" font-family="Helvetica,sans-Serif" font-size="10.00">/Escritorio/Sistemas Embebidos</text>
<text text-anchor="start" x="611" y="-139" font-family="Helvetica,sans-Serif" font-size="10.00">/Proyecto final/LAL Control</text>
<text text-anchor="start" x="611" y="-128" font-family="Helvetica,sans-Serif" font-size="10.00"> MbedOS/include/observer_pattern</text>
<text text-anchor="middle" x="686" y="-117" font-family="Helvetica,sans-Serif" font-size="10.00">/observers/Moisture_observer.h</text>
</a>
</g>
</g>
<!-- Node3&#45;&gt;Node12 -->
<g id="edge20" class="edge">
<title>Node3&#45;&gt;Node12</title>
<path fill="none" stroke="#63b8ff" d="M447.12,-311.31C480.01,-282.95 529.85,-241.48 576,-209 593.61,-196.61 613.57,-184.11 631.62,-173.34"/>
<polygon fill="#63b8ff" stroke="#63b8ff" points="445.13,-308.4 439.86,-317.59 449.72,-313.69 445.13,-308.4"/>
</g>
<!-- Node13 -->
<g id="node13" class="node">
<title>Node13</title>
<g id="a_node13"><a xlink:href="_system__observer_8h.html" target="_top" xlink:title="Clase observador del sistema de control.">
<polygon fill="white" stroke="#666666" points="751,-277.5 585,-277.5 585,-214.5 751,-214.5 751,-277.5"/>
<text text-anchor="start" x="593" y="-265.5" font-family="Helvetica,sans-Serif" font-size="10.00">C:/Users/juanh/OneDrive</text>
<text text-anchor="start" x="593" y="-254.5" font-family="Helvetica,sans-Serif" font-size="10.00">/Escritorio/Sistemas Embebidos</text>
<text text-anchor="start" x="593" y="-243.5" font-family="Helvetica,sans-Serif" font-size="10.00">/Proyecto final/LAL Control</text>
<text text-anchor="start" x="593" y="-232.5" font-family="Helvetica,sans-Serif" font-size="10.00"> MbedOS/include/observer_pattern</text>
<text text-anchor="middle" x="668" y="-221.5" font-family="Helvetica,sans-Serif" font-size="10.00">/observers/System_observer.h</text>
</a>
</g>
</g>
<!-- Node3&#45;&gt;Node13 -->
<g id="edge22" class="edge">
<title>Node3&#45;&gt;Node13</title>
<path fill="none" stroke="#63b8ff" d="M482.34,-314.45C514.22,-302.21 551.84,-288.08 584.86,-275.91"/>
<polygon fill="#63b8ff" stroke="#63b8ff" points="481.25,-311.11 473.18,-317.97 483.77,-317.65 481.25,-311.11"/>
</g>
<!-- Node14 -->
<g id="node14" class="node">
<title>Node14</title>
<g id="a_node14"><a xlink:href="_temperature__observer_8h.html" target="_top" xlink:title="Observador del sensor de temperatura.">
<polygon fill="white" stroke="#666666" points="954.5,-173 787.5,-173 787.5,-110 954.5,-110 954.5,-173"/>
<text text-anchor="start" x="795.5" y="-161" font-family="Helvetica,sans-Serif" font-size="10.00">C:/Users/juanh/OneDrive</text>
<text text-anchor="start" x="795.5" y="-150" font-family="Helvetica,sans-Serif" font-size="10.00">/Escritorio/Sistemas Embebidos</text>
<text text-anchor="start" x="795.5" y="-139" font-family="Helvetica,sans-Serif" font-size="10.00">/Proyecto final/LAL Control</text>
<text text-anchor="start" x="795.5" y="-128" font-family="Helvetica,sans-Serif" font-size="10.00"> MbedOS/include/observer_pattern</text>
<text text-anchor="middle" x="871" y="-117" font-family="Helvetica,sans-Serif" font-size="10.00">/observers/Temperature_observer.h</text>
</a>
</g>
</g>
<!-- Node3&#45;&gt;Node14 -->
<g id="edge29" class="edge">
<title>Node3&#45;&gt;Node14</title>
<path fill="none" stroke="#63b8ff" d="M507.01,-318.82C619.98,-299.02 663.84,-338.21 760,-283 804.48,-257.46 837.74,-206.48 855.76,-173.46"/>
<polygon fill="#63b8ff" stroke="#63b8ff" points="506.52,-315.35 497.34,-320.64 507.82,-322.23 506.52,-315.35"/>
</g>
<!-- Node4&#45;&gt;Node5 -->
<g id="edge4" class="edge">
<title>Node4&#45;&gt;Node5</title>
<path fill="none" stroke="#63b8ff" d="M122.74,-200.61C131.78,-191.43 141.12,-181.96 149.57,-173.38"/>
<polygon fill="#63b8ff" stroke="#63b8ff" points="120.48,-197.92 115.96,-207.5 125.47,-202.83 120.48,-197.92"/>
</g>
<!-- Node4&#45;&gt;Node6 -->
<g id="edge10" class="edge">
<title>Node4&#45;&gt;Node6</title>
<path fill="none" stroke="#63b8ff" d="M64.44,-197.45C61.52,-170.87 62.39,-137.64 73,-110 77.97,-97.06 86.35,-84.87 95.69,-74.31"/>
<polygon fill="#63b8ff" stroke="#63b8ff" points="60.96,-197.82 65.76,-207.27 67.9,-196.89 60.96,-197.82"/>
</g>
<!-- Node5&#45;&gt;Node6 -->
<g id="edge5" class="edge">
<title>Node5&#45;&gt;Node6</title>
<path fill="none" stroke="#63b8ff" d="M158.84,-99.15C155.74,-90.87 152.76,-82.23 150.21,-74.14"/>
<polygon fill="#63b8ff" stroke="#63b8ff" points="155.52,-100.28 162.41,-108.34 162.05,-97.75 155.52,-100.28"/>
</g>
<!-- Node5&#45;&gt;Node7 -->
<g id="edge8" class="edge">
<title>Node5&#45;&gt;Node7</title>
<path fill="none" stroke="#63b8ff" d="M238.86,-103.71C257.1,-92.31 277.01,-79.87 294.55,-68.91"/>
<polygon fill="#63b8ff" stroke="#63b8ff" points="237.11,-100.68 230.49,-108.94 240.82,-106.61 237.11,-100.68"/>
</g>
<!-- Node6&#45;&gt;Node4 -->
<g id="edge6" class="edge">
<title>Node6&#45;&gt;Node4</title>
<path fill="none" stroke="#63b8ff" d="M106.05,-83.32C100.02,-91.59 94.61,-100.6 91,-110 78.82,-141.73 79.47,-180.83 80.7,-208.77"/>
<polygon fill="#63b8ff" stroke="#63b8ff" points="108.75,-85.55 112.12,-75.51 103.22,-81.25 108.75,-85.55"/>
</g>
<!-- Node6&#45;&gt;Node5 -->
<g id="edge7" class="edge">
<title>Node6&#45;&gt;Node5</title>
<path fill="none" stroke="#63b8ff" d="M167.14,-84.73C170.21,-93.22 173.09,-101.87 175.44,-109.75"/>
<polygon fill="#63b8ff" stroke="#63b8ff" points="170.49,-83.7 163.71,-75.56 163.94,-86.15 170.49,-83.7"/>
</g>
<!-- Node7&#45;&gt;Node3 -->
<g id="edge9" class="edge">
<title>Node7&#45;&gt;Node3</title>
<path fill="none" stroke="#63b8ff" d="M351.51,-80.21C356.39,-129.86 363.6,-214.24 386,-283 389.99,-295.25 396.41,-307.92 401.87,-318.51"/>
<polygon fill="#63b8ff" stroke="#63b8ff" points="355.02,-80.07 350.53,-70.47 348.05,-80.77 355.02,-80.07"/>
</g>
<!-- Node9&#45;&gt;Node8 -->
<g id="edge16" class="edge">
<title>Node9&#45;&gt;Node8</title>
<path fill="none" stroke="#63b8ff" d="M567.05,-104.26C591.31,-90.75 618.3,-75.71 640.43,-63.39"/>
<polygon fill="#63b8ff" stroke="#63b8ff" points="565.56,-101.09 558.53,-109.01 568.97,-107.2 565.56,-101.09"/>
</g>
<!-- Node10&#45;&gt;Node8 -->
<g id="edge18" class="edge">
<title>Node10&#45;&gt;Node8</title>
<path fill="none" stroke="#63b8ff" d="M962.21,-109.53C890.16,-88.5 818.12,-70.07 764.87,-56.94"/>
<polygon fill="#63b8ff" stroke="#63b8ff" points="960.8,-112.77 971.38,-112.23 962.77,-106.05 960.8,-112.77"/>
</g>
<!-- Node11 -->
<g id="node11" class="node">
<title>Node11</title>
<g id="a_node11"><a xlink:href="_instruction__observer_8cpp.html" target="_top" xlink:title=" ">
<polygon fill="white" stroke="#666666" points="1141,-68.5 971,-68.5 971,-5.5 1141,-5.5 1141,-68.5"/>
<text text-anchor="start" x="979" y="-56.5" font-family="Helvetica,sans-Serif" font-size="10.00">C:/Users/juanh/OneDrive</text>
<text text-anchor="start" x="979" y="-45.5" font-family="Helvetica,sans-Serif" font-size="10.00">/Escritorio/Sistemas Embebidos</text>
<text text-anchor="start" x="979" y="-34.5" font-family="Helvetica,sans-Serif" font-size="10.00">/Proyecto final/LAL Control</text>
<text text-anchor="start" x="979" y="-23.5" font-family="Helvetica,sans-Serif" font-size="10.00"> MbedOS/src/Port/observer_pattern</text>
<text text-anchor="middle" x="1056" y="-12.5" font-family="Helvetica,sans-Serif" font-size="10.00">/Instruction_observer.cpp</text>
</a>
</g>
</g>
<!-- Node10&#45;&gt;Node11 -->
<g id="edge19" class="edge">
<title>Node10&#45;&gt;Node11</title>
<path fill="none" stroke="#63b8ff" d="M1056,-98.4C1056,-88.46 1056,-78.05 1056,-68.73"/>
<polygon fill="#63b8ff" stroke="#63b8ff" points="1052.5,-98.23 1056,-108.23 1059.5,-98.23 1052.5,-98.23"/>
</g>
<!-- Node12&#45;&gt;Node8 -->
<g id="edge21" class="edge">
<title>Node12&#45;&gt;Node8</title>
<path fill="none" stroke="#63b8ff" d="M686,-98.56C686,-86.56 686,-73.87 686,-63.22"/>
<polygon fill="#63b8ff" stroke="#63b8ff" points="682.5,-98.23 686,-108.23 689.5,-98.23 682.5,-98.23"/>
</g>
<!-- Node13&#45;&gt;Node3 -->
<g id="edge23" class="edge">
<title>Node13&#45;&gt;Node3</title>
<path fill="none" stroke="#63b8ff" d="M581.69,-281.9C549.96,-293.99 514.35,-307.32 483.81,-318.51"/>
<polygon fill="#63b8ff" stroke="#63b8ff" points="582.79,-285.22 590.88,-278.39 580.29,-278.69 582.79,-285.22"/>
</g>
<!-- Node13&#45;&gt;Node9 -->
<g id="edge24" class="edge">
<title>Node13&#45;&gt;Node9</title>
<path fill="none" stroke="#63b8ff" d="M608.43,-208.21C589.96,-196.81 569.81,-184.37 552.06,-173.41"/>
<polygon fill="#63b8ff" stroke="#63b8ff" points="606.56,-211.18 616.91,-213.45 610.24,-205.22 606.56,-211.18"/>
</g>
<!-- Node13&#45;&gt;Node10 -->
<g id="edge25" class="edge">
<title>Node13&#45;&gt;Node10</title>
<path fill="none" stroke="#63b8ff" d="M762.47,-224.09C820.85,-210.66 897.14,-192.18 964,-173 966.91,-172.16 969.87,-171.3 972.85,-170.4"/>
<polygon fill="#63b8ff" stroke="#63b8ff" points="761.85,-220.64 752.88,-226.29 763.41,-227.46 761.85,-220.64"/>
</g>
<!-- Node13&#45;&gt;Node12 -->
<g id="edge26" class="edge">
<title>Node13&#45;&gt;Node12</title>
<path fill="none" stroke="#63b8ff" d="M675.34,-203.22C677.1,-193.19 678.95,-182.66 680.6,-173.23"/>
<polygon fill="#63b8ff" stroke="#63b8ff" points="671.94,-202.3 673.66,-212.76 678.84,-203.51 671.94,-202.3"/>
</g>
<!-- Node13&#45;&gt;Node14 -->
<g id="edge27" class="edge">
<title>Node13&#45;&gt;Node14</title>
<path fill="none" stroke="#63b8ff" d="M739.25,-209.02C762.32,-197.37 787.68,-184.57 809.94,-173.33"/>
<polygon fill="#63b8ff" stroke="#63b8ff" points="737.88,-205.79 730.53,-213.43 741.04,-212.04 737.88,-205.79"/>
</g>
<!-- Node14&#45;&gt;Node8 -->
<g id="edge28" class="edge">
<title>Node14&#45;&gt;Node8</title>
<path fill="none" stroke="#63b8ff" d="M805.39,-104.15C781.12,-90.7 754.16,-75.76 732,-63.49"/>
<polygon fill="#63b8ff" stroke="#63b8ff" points="803.48,-107.09 813.92,-108.87 806.87,-100.97 803.48,-107.09"/>
</g>
</g>
</svg>
