<?xml version="1.0" encoding="UTF-8" standalone="no"?>
<!DOCTYPE svg PUBLIC "-//W3C//DTD SVG 1.1//EN"
 "http://www.w3.org/Graphics/SVG/1.1/DTD/svg11.dtd">
<!-- Generated by graphviz version 7.0.2 (20221119.0110)
 -->
<!-- Title: Graphical Class Hierarchy Pages: 1 -->
<svg width="472pt" height="138pt"
 viewBox="0.00 0.00 472.00 138.00" xmlns="http://www.w3.org/2000/svg" xmlns:xlink="http://www.w3.org/1999/xlink">
<g id="graph0" class="graph" transform="scale(1 1) rotate(0) translate(4 134)">
<title>Graphical Class Hierarchy</title>
<!-- Node0 -->
<g id="node1" class="node">
<title>Node0</title>
<g id="a_node1"><a xlink:href="class_observer__interface.html" target="_top" xlink:title="Interfaz para implementar el patrón de diseño Observer.">
<polygon fill="white" stroke="#666666" points="97,-74 0,-74 0,-55 97,-55 97,-74"/>
<text text-anchor="middle" x="48.5" y="-62" font-family="Helvetica,sans-Serif" font-size="10.00">Observer_interface</text>
</a>
</g>
</g>
<!-- Node1 -->
<g id="node2" class="node">
<title>Node1</title>
<g id="a_node2"><a xlink:href="class_observer.html" target="_top" xlink:title="Clase Observer, utilizada como base del observador en una implementación del patrón de diseño Observe...">
<polygon fill="white" stroke="#666666" points="188,-74 133,-74 133,-55 188,-55 188,-74"/>
<text text-anchor="middle" x="160.5" y="-62" font-family="Helvetica,sans-Serif" font-size="10.00">Observer</text>
</a>
</g>
</g>
<!-- Node0&#45;&gt;Node1 -->
<g id="edge1" class="edge">
<title>Node0&#45;&gt;Node1</title>
<path fill="none" stroke="#63b8ff" d="M108.78,-64.5C117.1,-64.5 125.29,-64.5 132.57,-64.5"/>
<polygon fill="#63b8ff" stroke="#63b8ff" points="108.94,-61 98.94,-64.5 108.94,-68 108.94,-61"/>
</g>
<!-- Node2 -->
<g id="node3" class="node">
<title>Node2</title>
<g id="a_node3"><a xlink:href="class_system__observer.html" target="_top" xlink:title="Clase interfaz para implementar observadores para sujetos de la clase Control_system.">
<polygon fill="white" stroke="#666666" points="316,-74 224,-74 224,-55 316,-55 316,-74"/>
<text text-anchor="middle" x="270" y="-62" font-family="Helvetica,sans-Serif" font-size="10.00">System_observer</text>
</a>
</g>
</g>
<!-- Node1&#45;&gt;Node2 -->
<g id="edge2" class="edge">
<title>Node1&#45;&gt;Node2</title>
<path fill="none" stroke="#63b8ff" d="M199.68,-64.5C207.45,-64.5 215.7,-64.5 223.69,-64.5"/>
<polygon fill="#63b8ff" stroke="#63b8ff" points="199.86,-61 189.86,-64.5 199.86,-68 199.86,-61"/>
</g>
<!-- Node3 -->
<g id="node4" class="node">
<title>Node3</title>
<g id="a_node4"><a xlink:href="class_cooler__observer.html" target="_top" xlink:title="Clase heredera de System_observer, creada para observar la velocidad de los ventiladores.">
<polygon fill="white" stroke="#666666" points="451,-130 365,-130 365,-111 451,-111 451,-130"/>
<text text-anchor="middle" x="408" y="-118" font-family="Helvetica,sans-Serif" font-size="10.00">Cooler_observer</text>
</a>
</g>
</g>
<!-- Node2&#45;&gt;Node3 -->
<g id="edge3" class="edge">
<title>Node2&#45;&gt;Node3</title>
<path fill="none" stroke="#63b8ff" d="M300.66,-79.48C315.82,-86.87 334.69,-95.64 352,-102.5 359.19,-105.35 367.03,-108.12 374.48,-110.59"/>
<polygon fill="#63b8ff" stroke="#63b8ff" points="302.22,-76.35 291.7,-75.06 299.13,-82.63 302.22,-76.35"/>
</g>
<!-- Node4 -->
<g id="node5" class="node">
<title>Node4</title>
<g id="a_node5"><a xlink:href="class_instruction__observer.html" target="_top" xlink:title="Clase heredera de System_observer, creada para observar el estado de las instrucciones.">
<polygon fill="white" stroke="#666666" points="459.5,-93 356.5,-93 356.5,-74 459.5,-74 459.5,-93"/>
<text text-anchor="middle" x="408" y="-81" font-family="Helvetica,sans-Serif" font-size="10.00">Instruction_observer</text>
</a>
</g>
</g>
<!-- Node2&#45;&gt;Node4 -->
<g id="edge4" class="edge">
<title>Node2&#45;&gt;Node4</title>
<path fill="none" stroke="#63b8ff" d="M327.66,-72.42C337.16,-73.74 346.95,-75.11 356.28,-76.41"/>
<polygon fill="#63b8ff" stroke="#63b8ff" points="328.17,-68.95 317.79,-71.04 327.2,-75.89 328.17,-68.95"/>
</g>
<!-- Node5 -->
<g id="node6" class="node">
<title>Node5</title>
<g id="a_node6"><a xlink:href="class_moisture__observer.html" target="_top" xlink:title="Clase heredera de System_observer, creada para observar el estado de los sensores de humedad.">
<polygon fill="white" stroke="#666666" points="455.5,-56 360.5,-56 360.5,-37 455.5,-37 455.5,-56"/>
<text text-anchor="middle" x="408" y="-44" font-family="Helvetica,sans-Serif" font-size="10.00">Moisture_observer</text>
</a>
</g>
</g>
<!-- Node2&#45;&gt;Node5 -->
<g id="edge5" class="edge">
<title>Node2&#45;&gt;Node5</title>
<path fill="none" stroke="#63b8ff" d="M327.41,-57.03C338.27,-55.6 349.53,-54.11 360.05,-52.71"/>
<polygon fill="#63b8ff" stroke="#63b8ff" points="327.24,-53.53 317.79,-58.31 328.16,-60.47 327.24,-53.53"/>
</g>
<!-- Node6 -->
<g id="node7" class="node">
<title>Node6</title>
<g id="a_node7"><a xlink:href="class_temperature__observer.html" target="_top" xlink:title="Clase heredera de System_observer, creada para observar el estado de los sensores de temperatura.">
<polygon fill="white" stroke="#666666" points="464,-19 352,-19 352,0 464,0 464,-19"/>
<text text-anchor="middle" x="408" y="-7" font-family="Helvetica,sans-Serif" font-size="10.00">Temperature_observer</text>
</a>
</g>
</g>
<!-- Node2&#45;&gt;Node6 -->
<g id="edge6" class="edge">
<title>Node2&#45;&gt;Node6</title>
<path fill="none" stroke="#63b8ff" d="M302.33,-49.83C317.24,-43.03 335.41,-35.04 352,-28.5 359.89,-25.39 368.53,-22.27 376.57,-19.49"/>
<polygon fill="#63b8ff" stroke="#63b8ff" points="301.11,-46.53 293.48,-53.89 304.03,-52.9 301.11,-46.53"/>
</g>
</g>
</svg>
