<?xml version="1.0" encoding="UTF-8" standalone="no"?>
<!DOCTYPE svg PUBLIC "-//W3C//DTD SVG 1.1//EN"
 "http://www.w3.org/Graphics/SVG/1.1/DTD/svg11.dtd">
<!-- Generated by graphviz version 7.0.2 (20221119.0110)
 -->
<!-- Title: Graphical Class Hierarchy Pages: 1 -->
<svg width="246pt" height="138pt"
 viewBox="0.00 0.00 246.00 138.00" xmlns="http://www.w3.org/2000/svg" xmlns:xlink="http://www.w3.org/1999/xlink">
<g id="graph0" class="graph" transform="scale(1 1) rotate(0) translate(4 134)">
<title>Graphical Class Hierarchy</title>
<!-- Node0 -->
<g id="node1" class="node">
<title>Node0</title>
<g id="a_node1"><a xlink:href="class_abstract__state.html" target="_top" xlink:title="Clase base para implementar los estados de Control_system. Cada estado se debe ocupar de su comportam...">
<polygon fill="white" stroke="#666666" points="80,-74 0,-74 0,-55 80,-55 80,-74"/>
<text text-anchor="middle" x="40" y="-62" font-family="Helvetica,sans-Serif" font-size="10.00">Abstract_state</text>
</a>
</g>
</g>
<!-- Node1 -->
<g id="node2" class="node">
<title>Node1</title>
<g id="a_node2"><a xlink:href="class_alarm__state.html" target="_top" xlink:title=" ">
<polygon fill="white" stroke="#666666" points="211.5,-130 142.5,-130 142.5,-111 211.5,-111 211.5,-130"/>
<text text-anchor="middle" x="177" y="-118" font-family="Helvetica,sans-Serif" font-size="10.00">Alarm_state</text>
</a>
</g>
</g>
<!-- Node0&#45;&gt;Node1 -->
<g id="edge1" class="edge">
<title>Node0&#45;&gt;Node1</title>
<path fill="none" stroke="#63b8ff" d="M68.4,-79.86C82.38,-87.31 99.8,-96.02 116,-102.5 124.28,-105.81 133.41,-108.85 142,-111.44"/>
<polygon fill="#63b8ff" stroke="#63b8ff" points="70.26,-76.89 59.8,-75.19 66.92,-83.04 70.26,-76.89"/>
</g>
<!-- Node2 -->
<g id="node3" class="node">
<title>Node2</title>
<g id="a_node3"><a xlink:href="class_check__instruction__state.html" target="_top" xlink:title=" ">
<polygon fill="white" stroke="#666666" points="238,-93 116,-93 116,-74 238,-74 238,-93"/>
<text text-anchor="middle" x="177" y="-81" font-family="Helvetica,sans-Serif" font-size="10.00">Check_instruction_state</text>
</a>
</g>
</g>
<!-- Node0&#45;&gt;Node2 -->
<g id="edge2" class="edge">
<title>Node0&#45;&gt;Node2</title>
<path fill="none" stroke="#63b8ff" d="M91.63,-71.63C99.48,-72.73 107.66,-73.88 115.7,-75.01"/>
<polygon fill="#63b8ff" stroke="#63b8ff" points="92.3,-68.19 81.91,-70.26 91.32,-75.12 92.3,-68.19"/>
</g>
<!-- Node3 -->
<g id="node4" class="node">
<title>Node3</title>
<g id="a_node4"><a xlink:href="class_idle__state.html" target="_top" xlink:title="Clase para implementar el estado de reposo del sistema (Sin alarmas ni advertencias,...">
<polygon fill="white" stroke="#666666" points="206.5,-56 147.5,-56 147.5,-37 206.5,-37 206.5,-56"/>
<text text-anchor="middle" x="177" y="-44" font-family="Helvetica,sans-Serif" font-size="10.00">Idle_state</text>
</a>
</g>
</g>
<!-- Node0&#45;&gt;Node3 -->
<g id="edge3" class="edge">
<title>Node0&#45;&gt;Node3</title>
<path fill="none" stroke="#63b8ff" d="M91.75,-57.73C110.44,-55.24 130.95,-52.51 147.06,-50.36"/>
<polygon fill="#63b8ff" stroke="#63b8ff" points="91.36,-54.25 81.91,-59.05 92.29,-61.19 91.36,-54.25"/>
</g>
<!-- Node4 -->
<g id="node5" class="node">
<title>Node4</title>
<g id="a_node5"><a xlink:href="class_shutdown__state.html" target="_top" xlink:title=" ">
<polygon fill="white" stroke="#666666" points="220,-19 134,-19 134,0 220,0 220,-19"/>
<text text-anchor="middle" x="177" y="-7" font-family="Helvetica,sans-Serif" font-size="10.00">Shutdown_state</text>
</a>
</g>
</g>
<!-- Node0&#45;&gt;Node4 -->
<g id="edge4" class="edge">
<title>Node0&#45;&gt;Node4</title>
<path fill="none" stroke="#63b8ff" d="M69.66,-49.57C83.46,-42.69 100.38,-34.69 116,-28.5 124.23,-25.24 133.26,-22.14 141.75,-19.43"/>
<polygon fill="#63b8ff" stroke="#63b8ff" points="68.47,-46.25 61.13,-53.89 71.64,-52.49 68.47,-46.25"/>
</g>
</g>
</svg>
