<?xml version="1.0" encoding="UTF-8" standalone="no"?>
<!DOCTYPE svg PUBLIC "-//W3C//DTD SVG 1.1//EN"
 "http://www.w3.org/Graphics/SVG/1.1/DTD/svg11.dtd">
<!-- Generated by graphviz version 7.0.2 (20221119.0110)
 -->
<!-- Title: C:/Users/juanh/OneDrive/Escritorio/Sistemas Embebidos/Proyecto final/LAL Control MbedOS/include/system_settings.h Pages: 1 -->
<svg width="1168pt" height="577pt"
 viewBox="0.00 0.00 1168.27 577.00" xmlns="http://www.w3.org/2000/svg" xmlns:xlink="http://www.w3.org/1999/xlink">
<g id="graph0" class="graph" transform="scale(1 1) rotate(0) translate(4 573)">
<title>C:/Users/juanh/OneDrive/Escritorio/Sistemas Embebidos/Proyecto final/LAL Control MbedOS/include/system_settings.h</title>
<!-- Node1 -->
<g id="node1" class="node">
<title>Node1</title>
<g id="a_node1"><a xlink:title="Archivo para la definición de constantes del sistema.">
<polygon fill="#999999" stroke="#666666" points="345.77,-569 170.77,-569 170.77,-517 345.77,-517 345.77,-569"/>
<text text-anchor="start" x="178.77" y="-557" font-family="Helvetica,sans-Serif" font-size="10.00">C:/Users/juanh/OneDrive</text>
<text text-anchor="start" x="178.77" y="-546" font-family="Helvetica,sans-Serif" font-size="10.00">/Escritorio/Sistemas Embebidos</text>
<text text-anchor="start" x="178.77" y="-535" font-family="Helvetica,sans-Serif" font-size="10.00">/Proyecto final/LAL Control</text>
<text text-anchor="middle" x="258.27" y="-524" font-family="Helvetica,sans-Serif" font-size="10.00"> MbedOS/include/system_settings.h</text>
</a>
</g>
</g>
<!-- Node2 -->
<g id="node2" class="node">
<title>Node2</title>
<g id="a_node2"><a xlink:href="_cooler_8h.html" target="_top" xlink:title="Controlador de ventilador de 12 volts y 5 milímteros.">
<polygon fill="white" stroke="#666666" points="585.77,-475.5 424.77,-475.5 424.77,-423.5 585.77,-423.5 585.77,-475.5"/>
<text text-anchor="start" x="432.77" y="-463.5" font-family="Helvetica,sans-Serif" font-size="10.00">C:/Users/juanh/OneDrive</text>
<text text-anchor="start" x="432.77" y="-452.5" font-family="Helvetica,sans-Serif" font-size="10.00">/Escritorio/Sistemas Embebidos</text>
<text text-anchor="start" x="432.77" y="-441.5" font-family="Helvetica,sans-Serif" font-size="10.00">/Proyecto final/LAL Control</text>
<text text-anchor="middle" x="505.27" y="-430.5" font-family="Helvetica,sans-Serif" font-size="10.00"> MbedOS/include/drivers/Cooler.h</text>
</a>
</g>
</g>
<!-- Node1&#45;&gt;Node2 -->
<g id="edge1" class="edge">
<title>Node1&#45;&gt;Node2</title>
<path fill="none" stroke="#63b8ff" d="M337.71,-512.57C369.65,-500.74 406.1,-487.24 436.84,-475.85"/>
<polygon fill="#63b8ff" stroke="#63b8ff" points="336.65,-509.23 328.49,-515.99 339.09,-515.79 336.65,-509.23"/>
</g>
<!-- Node8 -->
<g id="node8" class="node">
<title>Node8</title>
<g id="a_node8"><a xlink:href="main_8h.html" target="_top" xlink:title="Archivo principal del programa.">
<polygon fill="white" stroke="#666666" points="476.77,-63 319.77,-63 319.77,-11 476.77,-11 476.77,-63"/>
<text text-anchor="start" x="327.77" y="-51" font-family="Helvetica,sans-Serif" font-size="10.00">C:/Users/juanh/OneDrive</text>
<text text-anchor="start" x="327.77" y="-40" font-family="Helvetica,sans-Serif" font-size="10.00">/Escritorio/Sistemas Embebidos</text>
<text text-anchor="start" x="327.77" y="-29" font-family="Helvetica,sans-Serif" font-size="10.00">/Proyecto final/LAL Control</text>
<text text-anchor="middle" x="398.27" y="-18" font-family="Helvetica,sans-Serif" font-size="10.00"> MbedOS/include/main.h</text>
</a>
</g>
</g>
<!-- Node1&#45;&gt;Node8 -->
<g id="edge35" class="edge">
<title>Node1&#45;&gt;Node8</title>
<path fill="none" stroke="#63b8ff" d="M162.21,-512.49C91.01,-483.97 6.27,-432.92 6.27,-351.5 6.27,-351.5 6.27,-351.5 6.27,-245 6.27,-184.41 -16.47,-153.92 25.27,-110 64.68,-68.53 222,-50.2 319.3,-42.69"/>
<polygon fill="#63b8ff" stroke="#63b8ff" points="160.6,-515.62 171.19,-515.99 163.14,-509.1 160.6,-515.62"/>
</g>
<!-- Node12 -->
<g id="node12" class="node">
<title>Node12</title>
<g id="a_node12"><a xlink:href="_moisture__observer_8h.html" target="_top" xlink:title="Observador del sensor de temperatura.">
<polygon fill="white" stroke="#666666" points="200.27,-173 34.27,-173 34.27,-110 200.27,-110 200.27,-173"/>
<text text-anchor="start" x="42.27" y="-161" font-family="Helvetica,sans-Serif" font-size="10.00">C:/Users/juanh/OneDrive</text>
<text text-anchor="start" x="42.27" y="-150" font-family="Helvetica,sans-Serif" font-size="10.00">/Escritorio/Sistemas Embebidos</text>
<text text-anchor="start" x="42.27" y="-139" font-family="Helvetica,sans-Serif" font-size="10.00">/Proyecto final/LAL Control</text>
<text text-anchor="start" x="42.27" y="-128" font-family="Helvetica,sans-Serif" font-size="10.00"> MbedOS/include/observer_pattern</text>
<text text-anchor="middle" x="117.27" y="-117" font-family="Helvetica,sans-Serif" font-size="10.00">/observers/Moisture_observer.h</text>
</a>
</g>
</g>
<!-- Node1&#45;&gt;Node12 -->
<g id="edge36" class="edge">
<title>Node1&#45;&gt;Node12</title>
<path fill="none" stroke="#63b8ff" d="M221.28,-508.44C213.77,-500.1 206.56,-490.74 201.27,-481 144.94,-377.23 125.68,-235.15 119.71,-173.32"/>
<polygon fill="#63b8ff" stroke="#63b8ff" points="218.69,-510.8 228.12,-515.64 223.77,-505.98 218.69,-510.8"/>
</g>
<!-- Node14 -->
<g id="node14" class="node">
<title>Node14</title>
<g id="a_node14"><a xlink:href="_temperature__observer_8h.html" target="_top" xlink:title="Observador del sensor de temperatura.">
<polygon fill="white" stroke="#666666" points="385.77,-173 218.77,-173 218.77,-110 385.77,-110 385.77,-173"/>
<text text-anchor="start" x="226.77" y="-161" font-family="Helvetica,sans-Serif" font-size="10.00">C:/Users/juanh/OneDrive</text>
<text text-anchor="start" x="226.77" y="-150" font-family="Helvetica,sans-Serif" font-size="10.00">/Escritorio/Sistemas Embebidos</text>
<text text-anchor="start" x="226.77" y="-139" font-family="Helvetica,sans-Serif" font-size="10.00">/Proyecto final/LAL Control</text>
<text text-anchor="start" x="226.77" y="-128" font-family="Helvetica,sans-Serif" font-size="10.00"> MbedOS/include/observer_pattern</text>
<text text-anchor="middle" x="302.27" y="-117" font-family="Helvetica,sans-Serif" font-size="10.00">/observers/Temperature_observer.h</text>
</a>
</g>
</g>
<!-- Node1&#45;&gt;Node14 -->
<g id="edge37" class="edge">
<title>Node1&#45;&gt;Node14</title>
<path fill="none" stroke="#63b8ff" d="M230.56,-507.17C225.5,-499.02 220.97,-490.06 218.27,-481 197.67,-412.01 202.41,-389.23 218.27,-319 230.53,-264.71 261.55,-207.55 282.27,-173.47"/>
<polygon fill="#63b8ff" stroke="#63b8ff" points="227.6,-509.04 236.07,-515.41 233.42,-505.15 227.6,-509.04"/>
</g>
<!-- Node15 -->
<g id="node15" class="node">
<title>Node15</title>
<g id="a_node15"><a xlink:href="_dual___l_e_d_8h.html" target="_top" xlink:title="Controlador de LED RG.">
<polygon fill="white" stroke="#666666" points="780.77,-475.5 603.77,-475.5 603.77,-423.5 780.77,-423.5 780.77,-475.5"/>
<text text-anchor="start" x="611.77" y="-463.5" font-family="Helvetica,sans-Serif" font-size="10.00">C:/Users/juanh/OneDrive</text>
<text text-anchor="start" x="611.77" y="-452.5" font-family="Helvetica,sans-Serif" font-size="10.00">/Escritorio/Sistemas Embebidos</text>
<text text-anchor="start" x="611.77" y="-441.5" font-family="Helvetica,sans-Serif" font-size="10.00">/Proyecto final/LAL Control</text>
<text text-anchor="middle" x="692.27" y="-430.5" font-family="Helvetica,sans-Serif" font-size="10.00"> MbedOS/include/drivers/Dual_LED.h</text>
</a>
</g>
</g>
<!-- Node1&#45;&gt;Node15 -->
<g id="edge30" class="edge">
<title>Node1&#45;&gt;Node15</title>
<path fill="none" stroke="#63b8ff" d="M357.24,-527.44C424.76,-516.69 515.98,-500.56 595.27,-481 601.44,-479.48 607.79,-477.78 614.16,-475.99"/>
<polygon fill="#63b8ff" stroke="#63b8ff" points="357.02,-523.93 347.68,-528.95 358.11,-530.85 357.02,-523.93"/>
</g>
<!-- Node16 -->
<g id="node16" class="node">
<title>Node16</title>
<g id="a_node16"><a xlink:href="_temperature__sensor_8h.html" target="_top" xlink:title="Controlador para sensor de temperatura DS18B20.">
<polygon fill="white" stroke="#666666" points="406.77,-481 227.77,-481 227.77,-418 406.77,-418 406.77,-481"/>
<text text-anchor="start" x="235.77" y="-469" font-family="Helvetica,sans-Serif" font-size="10.00">C:/Users/juanh/OneDrive</text>
<text text-anchor="start" x="235.77" y="-458" font-family="Helvetica,sans-Serif" font-size="10.00">/Escritorio/Sistemas Embebidos</text>
<text text-anchor="start" x="235.77" y="-447" font-family="Helvetica,sans-Serif" font-size="10.00">/Proyecto final/LAL Control</text>
<text text-anchor="start" x="235.77" y="-436" font-family="Helvetica,sans-Serif" font-size="10.00"> MbedOS/include/drivers/Temperature</text>
<text text-anchor="middle" x="317.27" y="-425" font-family="Helvetica,sans-Serif" font-size="10.00">_sensor.h</text>
</a>
</g>
</g>
<!-- Node1&#45;&gt;Node16 -->
<g id="edge32" class="edge">
<title>Node1&#45;&gt;Node16</title>
<path fill="none" stroke="#63b8ff" d="M280.88,-506.94C286.31,-498.52 292.06,-489.59 297.36,-481.38"/>
<polygon fill="#63b8ff" stroke="#63b8ff" points="278,-504.94 275.52,-515.24 283.89,-508.73 278,-504.94"/>
</g>
<!-- Node3 -->
<g id="node3" class="node">
<title>Node3</title>
<g id="a_node3"><a xlink:href="_control__system_8h_source.html" target="_top" xlink:title=" ">
<polygon fill="white" stroke="#666666" points="683.77,-376.5 512.77,-376.5 512.77,-324.5 683.77,-324.5 683.77,-376.5"/>
<text text-anchor="start" x="520.77" y="-364.5" font-family="Helvetica,sans-Serif" font-size="10.00">C:/Users/juanh/OneDrive</text>
<text text-anchor="start" x="520.77" y="-353.5" font-family="Helvetica,sans-Serif" font-size="10.00">/Escritorio/Sistemas Embebidos</text>
<text text-anchor="start" x="520.77" y="-342.5" font-family="Helvetica,sans-Serif" font-size="10.00">/Proyecto final/LAL Control</text>
<text text-anchor="middle" x="598.27" y="-331.5" font-family="Helvetica,sans-Serif" font-size="10.00"> MbedOS/include/Control_system.h</text>
</a>
</g>
</g>
<!-- Node2&#45;&gt;Node3 -->
<g id="edge2" class="edge">
<title>Node2&#45;&gt;Node3</title>
<path fill="none" stroke="#63b8ff" d="M537.36,-415.03C549.37,-402.5 562.81,-388.49 574,-376.82"/>
<polygon fill="#63b8ff" stroke="#63b8ff" points="535.15,-412.28 530.75,-421.92 540.2,-417.13 535.15,-412.28"/>
</g>
<!-- Node4 -->
<g id="node4" class="node">
<title>Node4</title>
<g id="a_node4"><a xlink:href="_check__instruction__state_8h_source.html" target="_top" xlink:title=" ">
<polygon fill="white" stroke="#666666" points="1091.27,-283 933.27,-283 933.27,-209 1091.27,-209 1091.27,-283"/>
<text text-anchor="start" x="941.27" y="-271" font-family="Helvetica,sans-Serif" font-size="10.00">C:/Users/juanh/OneDrive</text>
<text text-anchor="start" x="941.27" y="-260" font-family="Helvetica,sans-Serif" font-size="10.00">/Escritorio/Sistemas Embebidos</text>
<text text-anchor="start" x="941.27" y="-249" font-family="Helvetica,sans-Serif" font-size="10.00">/Proyecto final/LAL Control</text>
<text text-anchor="start" x="941.27" y="-238" font-family="Helvetica,sans-Serif" font-size="10.00"> MbedOS/include/machine_state</text>
<text text-anchor="start" x="941.27" y="-227" font-family="Helvetica,sans-Serif" font-size="10.00">_pattern/machine_states/Check</text>
<text text-anchor="middle" x="1012.27" y="-216" font-family="Helvetica,sans-Serif" font-size="10.00">_instruction_state.h</text>
</a>
</g>
</g>
<!-- Node3&#45;&gt;Node4 -->
<g id="edge3" class="edge">
<title>Node3&#45;&gt;Node4</title>
<path fill="none" stroke="#63b8ff" d="M695.33,-330.55C754.82,-318.34 832.35,-301.35 900.27,-283 910.92,-280.12 922.06,-276.86 933.01,-273.5"/>
<polygon fill="#63b8ff" stroke="#63b8ff" points="694.64,-327.12 685.54,-332.55 696.04,-333.98 694.64,-327.12"/>
</g>
<!-- Node5 -->
<g id="node5" class="node">
<title>Node5</title>
<g id="a_node5"><a xlink:href="_idle__state_8h.html" target="_top" xlink:title="Clase de estado de reposo.">
<polygon fill="white" stroke="#666666" points="1043.77,-173 866.77,-173 866.77,-110 1043.77,-110 1043.77,-173"/>
<text text-anchor="start" x="874.77" y="-161" font-family="Helvetica,sans-Serif" font-size="10.00">C:/Users/juanh/OneDrive</text>
<text text-anchor="start" x="874.77" y="-150" font-family="Helvetica,sans-Serif" font-size="10.00">/Escritorio/Sistemas Embebidos</text>
<text text-anchor="start" x="874.77" y="-139" font-family="Helvetica,sans-Serif" font-size="10.00">/Proyecto final/LAL Control</text>
<text text-anchor="start" x="874.77" y="-128" font-family="Helvetica,sans-Serif" font-size="10.00"> MbedOS/include/machine_state</text>
<text text-anchor="middle" x="955.27" y="-117" font-family="Helvetica,sans-Serif" font-size="10.00">_pattern/machine_states/Idle_state.h</text>
</a>
</g>
</g>
<!-- Node3&#45;&gt;Node5 -->
<g id="edge11" class="edge">
<title>Node3&#45;&gt;Node5</title>
<path fill="none" stroke="#63b8ff" d="M695.22,-339.82C745.51,-331.1 805.92,-314.51 852.27,-283 893.16,-255.2 923.84,-205.6 940.66,-173.38"/>
<polygon fill="#63b8ff" stroke="#63b8ff" points="694.79,-336.34 685.49,-341.42 695.93,-343.25 694.79,-336.34"/>
</g>
<!-- Node6 -->
<g id="node6" class="node">
<title>Node6</title>
<g id="a_node6"><a xlink:href="_motor__control__state_8h.html" target="_top" xlink:title="Clase de estado de control del motor.">
<polygon fill="white" stroke="#666666" points="1160.27,-74 1002.27,-74 1002.27,0 1160.27,0 1160.27,-74"/>
<text text-anchor="start" x="1010.27" y="-62" font-family="Helvetica,sans-Serif" font-size="10.00">C:/Users/juanh/OneDrive</text>
<text text-anchor="start" x="1010.27" y="-51" font-family="Helvetica,sans-Serif" font-size="10.00">/Escritorio/Sistemas Embebidos</text>
<text text-anchor="start" x="1010.27" y="-40" font-family="Helvetica,sans-Serif" font-size="10.00">/Proyecto final/LAL Control</text>
<text text-anchor="start" x="1010.27" y="-29" font-family="Helvetica,sans-Serif" font-size="10.00"> MbedOS/include/machine_state</text>
<text text-anchor="start" x="1010.27" y="-18" font-family="Helvetica,sans-Serif" font-size="10.00">_pattern/machine_states/Motor</text>
<text text-anchor="middle" x="1081.27" y="-7" font-family="Helvetica,sans-Serif" font-size="10.00">_control_state.h</text>
</a>
</g>
</g>
<!-- Node3&#45;&gt;Node6 -->
<g id="edge12" class="edge">
<title>Node3&#45;&gt;Node6</title>
<path fill="none" stroke="#63b8ff" d="M695.45,-343.43C833.87,-333.78 1074.05,-312.93 1100.27,-283 1151.02,-225.08 1120.76,-127.04 1098.5,-74.25"/>
<polygon fill="#63b8ff" stroke="#63b8ff" points="695.27,-339.93 685.54,-344.11 695.75,-346.92 695.27,-339.93"/>
</g>
<!-- Node7 -->
<g id="node7" class="node">
<title>Node7</title>
<g id="a_node7"><a xlink:href="_shutdown__state_8h.html" target="_top" xlink:title="Clase de estado de apagado del sistema.">
<polygon fill="white" stroke="#666666" points="957.77,-68.5 752.77,-68.5 752.77,-5.5 957.77,-5.5 957.77,-68.5"/>
<text text-anchor="start" x="760.77" y="-56.5" font-family="Helvetica,sans-Serif" font-size="10.00">C:/Users/juanh/OneDrive</text>
<text text-anchor="start" x="760.77" y="-45.5" font-family="Helvetica,sans-Serif" font-size="10.00">/Escritorio/Sistemas Embebidos</text>
<text text-anchor="start" x="760.77" y="-34.5" font-family="Helvetica,sans-Serif" font-size="10.00">/Proyecto final/LAL Control</text>
<text text-anchor="start" x="760.77" y="-23.5" font-family="Helvetica,sans-Serif" font-size="10.00"> MbedOS/include/machine_state</text>
<text text-anchor="middle" x="855.27" y="-12.5" font-family="Helvetica,sans-Serif" font-size="10.00">_pattern/machine_states/Shutdown_state.h</text>
</a>
</g>
</g>
<!-- Node3&#45;&gt;Node7 -->
<g id="edge13" class="edge">
<title>Node3&#45;&gt;Node7</title>
<path fill="none" stroke="#63b8ff" d="M639.9,-317.53C683.09,-285.6 749.8,-232.76 792.27,-173 815.15,-140.8 830.24,-97.51 840.57,-68.73"/>
<polygon fill="#63b8ff" stroke="#63b8ff" points="638,-314.58 632.02,-323.32 642.15,-320.23 638,-314.58"/>
</g>
<!-- Node3&#45;&gt;Node8 -->
<g id="edge14" class="edge">
<title>Node3&#45;&gt;Node8</title>
<path fill="none" stroke="#63b8ff" d="M606.31,-313.09C615.31,-262.32 623.38,-169.78 579.27,-110 555.18,-77.34 513.9,-59.48 476.84,-49.72"/>
<polygon fill="#63b8ff" stroke="#63b8ff" points="602.92,-312.2 604.5,-322.67 609.8,-313.5 602.92,-312.2"/>
</g>
<!-- Node9 -->
<g id="node9" class="node">
<title>Node9</title>
<g id="a_node9"><a xlink:href="_cooler__observer_8h_source.html" target="_top" xlink:title=" ">
<polygon fill="white" stroke="#666666" points="570.27,-173 404.27,-173 404.27,-110 570.27,-110 570.27,-173"/>
<text text-anchor="start" x="412.27" y="-161" font-family="Helvetica,sans-Serif" font-size="10.00">C:/Users/juanh/OneDrive</text>
<text text-anchor="start" x="412.27" y="-150" font-family="Helvetica,sans-Serif" font-size="10.00">/Escritorio/Sistemas Embebidos</text>
<text text-anchor="start" x="412.27" y="-139" font-family="Helvetica,sans-Serif" font-size="10.00">/Proyecto final/LAL Control</text>
<text text-anchor="start" x="412.27" y="-128" font-family="Helvetica,sans-Serif" font-size="10.00"> MbedOS/include/observer_pattern</text>
<text text-anchor="middle" x="487.27" y="-117" font-family="Helvetica,sans-Serif" font-size="10.00">/observers/Cooler_observer.h</text>
</a>
</g>
</g>
<!-- Node3&#45;&gt;Node9 -->
<g id="edge15" class="edge">
<title>Node3&#45;&gt;Node9</title>
<path fill="none" stroke="#63b8ff" d="M586.99,-313.54C577.06,-284.3 561.1,-242.56 541.27,-209 533.93,-196.58 524.4,-184.03 515.39,-173.22"/>
<polygon fill="#63b8ff" stroke="#63b8ff" points="583.55,-314.26 590.02,-322.65 590.19,-312.06 583.55,-314.26"/>
</g>
<!-- Node10 -->
<g id="node10" class="node">
<title>Node10</title>
<g id="a_node10"><a xlink:href="_instruction__observer_8h.html" target="_top" xlink:title="Observador de instrucciones.">
<polygon fill="white" stroke="#666666" points="792.27,-173 626.27,-173 626.27,-110 792.27,-110 792.27,-173"/>
<text text-anchor="start" x="634.27" y="-161" font-family="Helvetica,sans-Serif" font-size="10.00">C:/Users/juanh/OneDrive</text>
<text text-anchor="start" x="634.27" y="-150" font-family="Helvetica,sans-Serif" font-size="10.00">/Escritorio/Sistemas Embebidos</text>
<text text-anchor="start" x="634.27" y="-139" font-family="Helvetica,sans-Serif" font-size="10.00">/Proyecto final/LAL Control</text>
<text text-anchor="start" x="634.27" y="-128" font-family="Helvetica,sans-Serif" font-size="10.00"> MbedOS/include/observer_pattern</text>
<text text-anchor="middle" x="709.27" y="-117" font-family="Helvetica,sans-Serif" font-size="10.00">/observers/Instruction_observer.h</text>
</a>
</g>
</g>
<!-- Node3&#45;&gt;Node10 -->
<g id="edge17" class="edge">
<title>Node3&#45;&gt;Node10</title>
<path fill="none" stroke="#63b8ff" d="M617.24,-314.12C638.45,-274.58 672.45,-211.16 692.65,-173.49"/>
<polygon fill="#63b8ff" stroke="#63b8ff" points="614.24,-312.32 612.6,-322.78 620.41,-315.62 614.24,-312.32"/>
</g>
<!-- Node3&#45;&gt;Node12 -->
<g id="edge20" class="edge">
<title>Node3&#45;&gt;Node12</title>
<path fill="none" stroke="#63b8ff" d="M501.53,-331.36C432.03,-317.53 344.91,-298.31 311.27,-283 249.39,-254.83 187.42,-205.33 150.71,-173.24"/>
<polygon fill="#63b8ff" stroke="#63b8ff" points="500.55,-334.74 511.04,-333.24 501.91,-327.87 500.55,-334.74"/>
</g>
<!-- Node13 -->
<g id="node13" class="node">
<title>Node13</title>
<g id="a_node13"><a xlink:href="_system__observer_8h.html" target="_top" xlink:title="Clase observador del sistema de control.">
<polygon fill="white" stroke="#666666" points="532.27,-277.5 366.27,-277.5 366.27,-214.5 532.27,-214.5 532.27,-277.5"/>
<text text-anchor="start" x="374.27" y="-265.5" font-family="Helvetica,sans-Serif" font-size="10.00">C:/Users/juanh/OneDrive</text>
<text text-anchor="start" x="374.27" y="-254.5" font-family="Helvetica,sans-Serif" font-size="10.00">/Escritorio/Sistemas Embebidos</text>
<text text-anchor="start" x="374.27" y="-243.5" font-family="Helvetica,sans-Serif" font-size="10.00">/Proyecto final/LAL Control</text>
<text text-anchor="start" x="374.27" y="-232.5" font-family="Helvetica,sans-Serif" font-size="10.00"> MbedOS/include/observer_pattern</text>
<text text-anchor="middle" x="449.27" y="-221.5" font-family="Helvetica,sans-Serif" font-size="10.00">/observers/System_observer.h</text>
</a>
</g>
</g>
<!-- Node3&#45;&gt;Node13 -->
<g id="edge22" class="edge">
<title>Node3&#45;&gt;Node13</title>
<path fill="none" stroke="#63b8ff" d="M546.04,-317.9C526.92,-305.17 505.67,-290.55 487.93,-277.9"/>
<polygon fill="#63b8ff" stroke="#63b8ff" points="543.99,-320.73 554.26,-323.33 547.85,-314.89 543.99,-320.73"/>
</g>
<!-- Node3&#45;&gt;Node14 -->
<g id="edge29" class="edge">
<title>Node3&#45;&gt;Node14</title>
<path fill="none" stroke="#63b8ff" d="M501.39,-331.94C444.22,-319.86 378.93,-302.52 357.27,-283 325.55,-254.42 311.93,-205.27 306.21,-173.34"/>
<polygon fill="#63b8ff" stroke="#63b8ff" points="500.35,-335.3 510.85,-333.9 501.77,-328.45 500.35,-335.3"/>
</g>
<!-- Node4&#45;&gt;Node5 -->
<g id="edge4" class="edge">
<title>Node4&#45;&gt;Node5</title>
<path fill="none" stroke="#63b8ff" d="M986.5,-198.66C981.74,-190.1 976.87,-181.35 972.44,-173.38"/>
<polygon fill="#63b8ff" stroke="#63b8ff" points="983.36,-200.21 991.28,-207.25 989.48,-196.81 983.36,-200.21"/>
</g>
<!-- Node4&#45;&gt;Node6 -->
<g id="edge10" class="edge">
<title>Node4&#45;&gt;Node6</title>
<path fill="none" stroke="#63b8ff" d="M1032.52,-198.78C1036.83,-190.41 1041.02,-181.61 1044.27,-173 1056.45,-140.75 1063.78,-102.07 1069.48,-74.39"/>
<polygon fill="#63b8ff" stroke="#63b8ff" points="1029.55,-196.9 1027.96,-207.38 1035.74,-200.18 1029.55,-196.9"/>
</g>
<!-- Node5&#45;&gt;Node6 -->
<g id="edge5" class="edge">
<title>Node5&#45;&gt;Node6</title>
<path fill="none" stroke="#63b8ff" d="M995.47,-102.47C1006.57,-93.21 1018.74,-83.32 1030.36,-74.14"/>
<polygon fill="#63b8ff" stroke="#63b8ff" points="993.38,-99.65 987.99,-108.77 997.89,-105.01 993.38,-99.65"/>
</g>
<!-- Node5&#45;&gt;Node7 -->
<g id="edge8" class="edge">
<title>Node5&#45;&gt;Node7</title>
<path fill="none" stroke="#63b8ff" d="M917.33,-101.62C906.72,-90.74 895.34,-79.07 885.25,-68.73"/>
<polygon fill="#63b8ff" stroke="#63b8ff" points="914.72,-103.95 924.21,-108.66 919.73,-99.06 914.72,-103.95"/>
</g>
<!-- Node6&#45;&gt;Node4 -->
<g id="edge6" class="edge">
<title>Node6&#45;&gt;Node4</title>
<path fill="none" stroke="#63b8ff" d="M1083.07,-85.61C1079.81,-111.94 1072.88,-144.91 1062.27,-173 1057.7,-185.11 1051.27,-197.61 1044.47,-208.72"/>
<polygon fill="#63b8ff" stroke="#63b8ff" points="1086.52,-86.21 1084.11,-75.9 1079.56,-85.47 1086.52,-86.21"/>
</g>
<!-- Node6&#45;&gt;Node5 -->
<g id="edge7" class="edge">
<title>Node6&#45;&gt;Node5</title>
<path fill="none" stroke="#63b8ff" d="M1034.66,-81.35C1023.1,-90.9 1010.76,-100.82 999.32,-109.75"/>
<polygon fill="#63b8ff" stroke="#63b8ff" points="1036.71,-84.2 1042.16,-75.11 1032.23,-78.82 1036.71,-84.2"/>
</g>
<!-- Node7&#45;&gt;Node3 -->
<g id="edge9" class="edge">
<title>Node7&#45;&gt;Node3</title>
<path fill="none" stroke="#63b8ff" d="M851.81,-79.78C844.47,-107.83 830.38,-144.7 810.27,-173 764.69,-237.15 691.16,-293.31 643.66,-324.22"/>
<polygon fill="#63b8ff" stroke="#63b8ff" points="855.18,-80.75 854.1,-70.21 848.37,-79.12 855.18,-80.75"/>
</g>
<!-- Node9&#45;&gt;Node8 -->
<g id="edge16" class="edge">
<title>Node9&#45;&gt;Node8</title>
<path fill="none" stroke="#63b8ff" d="M453.09,-101.14C442.04,-88.41 430.08,-74.64 420.17,-63.22"/>
<polygon fill="#63b8ff" stroke="#63b8ff" points="450.38,-103.35 459.57,-108.6 455.66,-98.76 450.38,-103.35"/>
</g>
<!-- Node10&#45;&gt;Node8 -->
<g id="edge18" class="edge">
<title>Node10&#45;&gt;Node8</title>
<path fill="none" stroke="#63b8ff" d="M615.05,-109.45C570.39,-94.73 517.69,-77.36 475.43,-63.43"/>
<polygon fill="#63b8ff" stroke="#63b8ff" points="613.9,-112.75 624.49,-112.56 616.09,-106.1 613.9,-112.75"/>
</g>
<!-- Node11 -->
<g id="node11" class="node">
<title>Node11</title>
<g id="a_node11"><a xlink:href="_instruction__observer_8cpp.html" target="_top" xlink:title=" ">
<polygon fill="white" stroke="#666666" points="734.27,-68.5 564.27,-68.5 564.27,-5.5 734.27,-5.5 734.27,-68.5"/>
<text text-anchor="start" x="572.27" y="-56.5" font-family="Helvetica,sans-Serif" font-size="10.00">C:/Users/juanh/OneDrive</text>
<text text-anchor="start" x="572.27" y="-45.5" font-family="Helvetica,sans-Serif" font-size="10.00">/Escritorio/Sistemas Embebidos</text>
<text text-anchor="start" x="572.27" y="-34.5" font-family="Helvetica,sans-Serif" font-size="10.00">/Proyecto final/LAL Control</text>
<text text-anchor="start" x="572.27" y="-23.5" font-family="Helvetica,sans-Serif" font-size="10.00"> MbedOS/src/Port/observer_pattern</text>
<text text-anchor="middle" x="649.27" y="-12.5" font-family="Helvetica,sans-Serif" font-size="10.00">/Instruction_observer.cpp</text>
</a>
</g>
</g>
<!-- Node10&#45;&gt;Node11 -->
<g id="edge19" class="edge">
<title>Node10&#45;&gt;Node11</title>
<path fill="none" stroke="#63b8ff" d="M685.57,-100.01C679.47,-89.6 673.01,-78.56 667.26,-68.73"/>
<polygon fill="#63b8ff" stroke="#63b8ff" points="682.43,-101.58 690.5,-108.44 688.47,-98.04 682.43,-101.58"/>
</g>
<!-- Node12&#45;&gt;Node8 -->
<g id="edge21" class="edge">
<title>Node12&#45;&gt;Node8</title>
<path fill="none" stroke="#63b8ff" d="M211.11,-106.27C249.5,-92.27 293.12,-76.36 328.59,-63.42"/>
<polygon fill="#63b8ff" stroke="#63b8ff" points="210.06,-102.93 201.86,-109.64 212.45,-109.51 210.06,-102.93"/>
</g>
<!-- Node13&#45;&gt;Node3 -->
<g id="edge23" class="edge">
<title>Node13&#45;&gt;Node3</title>
<path fill="none" stroke="#63b8ff" d="M509.98,-284.28C529.69,-297.53 550.72,-312.14 567.35,-324.16"/>
<polygon fill="#63b8ff" stroke="#63b8ff" points="511.95,-281.39 501.69,-278.74 508.06,-287.21 511.95,-281.39"/>
</g>
<!-- Node13&#45;&gt;Node9 -->
<g id="edge24" class="edge">
<title>Node13&#45;&gt;Node9</title>
<path fill="none" stroke="#63b8ff" d="M464.64,-203.54C468.39,-193.42 472.35,-182.76 475.88,-173.23"/>
<polygon fill="#63b8ff" stroke="#63b8ff" points="461.39,-202.23 461.2,-212.83 467.96,-204.67 461.39,-202.23"/>
</g>
<!-- Node13&#45;&gt;Node10 -->
<g id="edge25" class="edge">
<title>Node13&#45;&gt;Node10</title>
<path fill="none" stroke="#63b8ff" d="M538.15,-209.96C568.33,-198.06 601.79,-184.87 631.07,-173.33"/>
<polygon fill="#63b8ff" stroke="#63b8ff" points="537.06,-206.63 529.04,-213.55 539.63,-213.14 537.06,-206.63"/>
</g>
<!-- Node13&#45;&gt;Node12 -->
<g id="edge26" class="edge">
<title>Node13&#45;&gt;Node12</title>
<path fill="none" stroke="#63b8ff" d="M355.02,-217.4C310.7,-204.25 257.17,-188.12 209.27,-173 206.38,-172.09 203.44,-171.15 200.48,-170.2"/>
<polygon fill="#63b8ff" stroke="#63b8ff" points="353.75,-220.68 364.34,-220.16 355.74,-213.97 353.75,-220.68"/>
</g>
<!-- Node13&#45;&gt;Node14 -->
<g id="edge27" class="edge">
<title>Node13&#45;&gt;Node14</title>
<path fill="none" stroke="#63b8ff" d="M395.83,-207.74C379.67,-196.47 362.1,-184.22 346.6,-173.41"/>
<polygon fill="#63b8ff" stroke="#63b8ff" points="393.72,-210.53 403.92,-213.38 397.72,-204.79 393.72,-210.53"/>
</g>
<!-- Node14&#45;&gt;Node8 -->
<g id="edge28" class="edge">
<title>Node14&#45;&gt;Node8</title>
<path fill="none" stroke="#63b8ff" d="M338.79,-101.51C350.81,-88.67 363.85,-74.75 374.65,-63.22"/>
<polygon fill="#63b8ff" stroke="#63b8ff" points="336.39,-98.95 332.11,-108.64 341.5,-103.74 336.39,-98.95"/>
</g>
<!-- Node15&#45;&gt;Node3 -->
<g id="edge31" class="edge">
<title>Node15&#45;&gt;Node3</title>
<path fill="none" stroke="#63b8ff" d="M659.84,-415.03C647.7,-402.5 634.11,-388.49 622.8,-376.82"/>
<polygon fill="#63b8ff" stroke="#63b8ff" points="657.05,-417.18 666.52,-421.93 662.07,-412.31 657.05,-417.18"/>
</g>
<!-- Node16&#45;&gt;Node3 -->
<g id="edge33" class="edge">
<title>Node16&#45;&gt;Node3</title>
<path fill="none" stroke="#63b8ff" d="M417.75,-413.81C452.97,-401.66 491.84,-388.24 524.47,-376.98"/>
<polygon fill="#63b8ff" stroke="#63b8ff" points="416.69,-410.48 408.38,-417.05 418.98,-417.09 416.69,-410.48"/>
</g>
<!-- Node17 -->
<g id="node17" class="node">
<title>Node17</title>
<g id="a_node17"><a xlink:href="_temperature__sensor_8cpp.html" target="_top" xlink:title=" ">
<polygon fill="white" stroke="#666666" points="410.77,-382 227.77,-382 227.77,-319 410.77,-319 410.77,-382"/>
<text text-anchor="start" x="235.77" y="-370" font-family="Helvetica,sans-Serif" font-size="10.00">C:/Users/juanh/OneDrive</text>
<text text-anchor="start" x="235.77" y="-359" font-family="Helvetica,sans-Serif" font-size="10.00">/Escritorio/Sistemas Embebidos</text>
<text text-anchor="start" x="235.77" y="-348" font-family="Helvetica,sans-Serif" font-size="10.00">/Proyecto final/LAL Control</text>
<text text-anchor="start" x="235.77" y="-337" font-family="Helvetica,sans-Serif" font-size="10.00"> MbedOS/src/Port/drivers/Temperature</text>
<text text-anchor="middle" x="319.27" y="-326" font-family="Helvetica,sans-Serif" font-size="10.00">_sensor.cpp</text>
</a>
</g>
</g>
<!-- Node16&#45;&gt;Node17 -->
<g id="edge34" class="edge">
<title>Node16&#45;&gt;Node17</title>
<path fill="none" stroke="#63b8ff" d="M318.14,-406.15C318.31,-398.2 318.48,-390.02 318.63,-382.5"/>
<polygon fill="#63b8ff" stroke="#63b8ff" points="314.65,-405.96 317.94,-416.03 321.64,-406.1 314.65,-405.96"/>
</g>
</g>
</svg>
