<?xml version="1.0" encoding="UTF-8" standalone="no"?>
<!DOCTYPE svg PUBLIC "-//W3C//DTD SVG 1.1//EN"
 "http://www.w3.org/Graphics/SVG/1.1/DTD/svg11.dtd">
<!-- Generated by graphviz version 7.0.2 (20221119.0110)
 -->
<!-- Title: C:/Users/juanh/OneDrive/Escritorio/Sistemas Embebidos/Proyecto final/LAL Control MbedOS/include/machine_state_pattern/machine_states/Abstract_state.h Pages: 1 -->
<svg width="1451pt" height="775pt"
 viewBox="0.00 0.00 1450.82 775.00" xmlns="http://www.w3.org/2000/svg" xmlns:xlink="http://www.w3.org/1999/xlink">
<g id="graph0" class="graph" transform="scale(1 1) rotate(0) translate(4 771)">
<title>C:/Users/juanh/OneDrive/Escritorio/Sistemas Embebidos/Proyecto final/LAL Control MbedOS/include/machine_state_pattern/machine_states/Abstract_state.h</title>
<!-- Node1 -->
<g id="node1" class="node">
<title>Node1</title>
<g id="a_node1"><a xlink:title="Clase de estado abstracta.">
<polygon fill="#999999" stroke="#666666" points="457.82,-767 258.82,-767 258.82,-704 457.82,-704 457.82,-767"/>
<text text-anchor="start" x="266.82" y="-755" font-family="Helvetica,sans-Serif" font-size="10.00">C:/Users/juanh/OneDrive</text>
<text text-anchor="start" x="266.82" y="-744" font-family="Helvetica,sans-Serif" font-size="10.00">/Escritorio/Sistemas Embebidos</text>
<text text-anchor="start" x="266.82" y="-733" font-family="Helvetica,sans-Serif" font-size="10.00">/Proyecto final/LAL Control</text>
<text text-anchor="start" x="266.82" y="-722" font-family="Helvetica,sans-Serif" font-size="10.00"> MbedOS/include/machine_state</text>
<text text-anchor="middle" x="358.32" y="-711" font-family="Helvetica,sans-Serif" font-size="10.00">_pattern/machine_states/Abstract_state.h</text>
</a>
</g>
</g>
<!-- Node2 -->
<g id="node2" class="node">
<title>Node2</title>
<g id="a_node2"><a xlink:href="_machine_8h.html" target="_top" xlink:title="Clase de máquina abstracta.">
<polygon fill="white" stroke="#666666" points="847.32,-668 689.32,-668 689.32,-605 847.32,-605 847.32,-668"/>
<text text-anchor="start" x="697.32" y="-656" font-family="Helvetica,sans-Serif" font-size="10.00">C:/Users/juanh/OneDrive</text>
<text text-anchor="start" x="697.32" y="-645" font-family="Helvetica,sans-Serif" font-size="10.00">/Escritorio/Sistemas Embebidos</text>
<text text-anchor="start" x="697.32" y="-634" font-family="Helvetica,sans-Serif" font-size="10.00">/Proyecto final/LAL Control</text>
<text text-anchor="start" x="697.32" y="-623" font-family="Helvetica,sans-Serif" font-size="10.00"> MbedOS/include/machine_state</text>
<text text-anchor="middle" x="768.32" y="-612" font-family="Helvetica,sans-Serif" font-size="10.00">_pattern/Machine.h</text>
</a>
</g>
</g>
<!-- Node1&#45;&gt;Node2 -->
<g id="edge1" class="edge">
<title>Node1&#45;&gt;Node2</title>
<path fill="none" stroke="#63b8ff" d="M469.08,-708.3C538.57,-691.86 626.52,-671.05 689.05,-656.25"/>
<polygon fill="#63b8ff" stroke="#63b8ff" points="468.49,-704.84 459.57,-710.55 470.1,-711.65 468.49,-704.84"/>
</g>
<!-- Node4 -->
<g id="node4" class="node">
<title>Node4</title>
<g id="a_node4"><a xlink:href="_alarm__state_8h.html" target="_top" xlink:title="Clase de estado de control del motor.">
<polygon fill="white" stroke="#666666" points="330.32,-470 142.32,-470 142.32,-407 330.32,-407 330.32,-470"/>
<text text-anchor="start" x="150.32" y="-458" font-family="Helvetica,sans-Serif" font-size="10.00">C:/Users/juanh/OneDrive</text>
<text text-anchor="start" x="150.32" y="-447" font-family="Helvetica,sans-Serif" font-size="10.00">/Escritorio/Sistemas Embebidos</text>
<text text-anchor="start" x="150.32" y="-436" font-family="Helvetica,sans-Serif" font-size="10.00">/Proyecto final/LAL Control</text>
<text text-anchor="start" x="150.32" y="-425" font-family="Helvetica,sans-Serif" font-size="10.00"> MbedOS/include/machine_state</text>
<text text-anchor="middle" x="236.32" y="-414" font-family="Helvetica,sans-Serif" font-size="10.00">_pattern/machine_states/Alarm_state.h</text>
</a>
</g>
</g>
<!-- Node1&#45;&gt;Node4 -->
<g id="edge39" class="edge">
<title>Node1&#45;&gt;Node4</title>
<path fill="none" stroke="#63b8ff" d="M341.23,-693.17C316.43,-633.22 271.05,-523.46 249,-470.17"/>
<polygon fill="#63b8ff" stroke="#63b8ff" points="337.98,-694.46 345.03,-702.37 344.44,-691.79 337.98,-694.46"/>
</g>
<!-- Node5 -->
<g id="node5" class="node">
<title>Node5</title>
<g id="a_node5"><a xlink:href="_check__instruction__state_8h_source.html" target="_top" xlink:title=" ">
<polygon fill="white" stroke="#666666" points="424.32,-371 266.32,-371 266.32,-297 424.32,-297 424.32,-371"/>
<text text-anchor="start" x="274.32" y="-359" font-family="Helvetica,sans-Serif" font-size="10.00">C:/Users/juanh/OneDrive</text>
<text text-anchor="start" x="274.32" y="-348" font-family="Helvetica,sans-Serif" font-size="10.00">/Escritorio/Sistemas Embebidos</text>
<text text-anchor="start" x="274.32" y="-337" font-family="Helvetica,sans-Serif" font-size="10.00">/Proyecto final/LAL Control</text>
<text text-anchor="start" x="274.32" y="-326" font-family="Helvetica,sans-Serif" font-size="10.00"> MbedOS/include/machine_state</text>
<text text-anchor="start" x="274.32" y="-315" font-family="Helvetica,sans-Serif" font-size="10.00">_pattern/machine_states/Check</text>
<text text-anchor="middle" x="345.32" y="-304" font-family="Helvetica,sans-Serif" font-size="10.00">_instruction_state.h</text>
</a>
</g>
</g>
<!-- Node1&#45;&gt;Node5 -->
<g id="edge40" class="edge">
<title>Node1&#45;&gt;Node5</title>
<path fill="none" stroke="#63b8ff" d="M356.95,-692.43C354.39,-613.77 348.92,-445.68 346.51,-371.48"/>
<polygon fill="#63b8ff" stroke="#63b8ff" points="353.45,-692.42 357.27,-702.3 360.45,-692.19 353.45,-692.42"/>
</g>
<!-- Node6 -->
<g id="node6" class="node">
<title>Node6</title>
<g id="a_node6"><a xlink:href="_idle__state_8h.html" target="_top" xlink:title="Clase de estado de reposo.">
<polygon fill="white" stroke="#666666" points="177.82,-261 0.82,-261 0.82,-198 177.82,-198 177.82,-261"/>
<text text-anchor="start" x="8.82" y="-249" font-family="Helvetica,sans-Serif" font-size="10.00">C:/Users/juanh/OneDrive</text>
<text text-anchor="start" x="8.82" y="-238" font-family="Helvetica,sans-Serif" font-size="10.00">/Escritorio/Sistemas Embebidos</text>
<text text-anchor="start" x="8.82" y="-227" font-family="Helvetica,sans-Serif" font-size="10.00">/Proyecto final/LAL Control</text>
<text text-anchor="start" x="8.82" y="-216" font-family="Helvetica,sans-Serif" font-size="10.00"> MbedOS/include/machine_state</text>
<text text-anchor="middle" x="89.32" y="-205" font-family="Helvetica,sans-Serif" font-size="10.00">_pattern/machine_states/Idle_state.h</text>
</a>
</g>
</g>
<!-- Node1&#45;&gt;Node6 -->
<g id="edge41" class="edge">
<title>Node1&#45;&gt;Node6</title>
<path fill="none" stroke="#63b8ff" d="M247.41,-720.44C142.93,-700.26 2.32,-652.01 2.32,-538.5 2.32,-538.5 2.32,-538.5 2.32,-437.5 2.32,-374.49 -6.96,-353.31 21.32,-297 27.99,-283.72 38.38,-271.56 49.04,-261.37"/>
<polygon fill="#63b8ff" stroke="#63b8ff" points="246.72,-723.88 257.19,-722.26 248,-716.99 246.72,-723.88"/>
</g>
<!-- Node7 -->
<g id="node7" class="node">
<title>Node7</title>
<g id="a_node7"><a xlink:href="_shutdown__state_8h.html" target="_top" xlink:title="Clase de estado de apagado del sistema.">
<polygon fill="white" stroke="#666666" points="1442.82,-162 1237.82,-162 1237.82,-99 1442.82,-99 1442.82,-162"/>
<text text-anchor="start" x="1245.82" y="-150" font-family="Helvetica,sans-Serif" font-size="10.00">C:/Users/juanh/OneDrive</text>
<text text-anchor="start" x="1245.82" y="-139" font-family="Helvetica,sans-Serif" font-size="10.00">/Escritorio/Sistemas Embebidos</text>
<text text-anchor="start" x="1245.82" y="-128" font-family="Helvetica,sans-Serif" font-size="10.00">/Proyecto final/LAL Control</text>
<text text-anchor="start" x="1245.82" y="-117" font-family="Helvetica,sans-Serif" font-size="10.00"> MbedOS/include/machine_state</text>
<text text-anchor="middle" x="1340.32" y="-106" font-family="Helvetica,sans-Serif" font-size="10.00">_pattern/machine_states/Shutdown_state.h</text>
</a>
</g>
</g>
<!-- Node1&#45;&gt;Node7 -->
<g id="edge42" class="edge">
<title>Node1&#45;&gt;Node7</title>
<path fill="none" stroke="#63b8ff" d="M469.14,-724.94C735.03,-700.52 1387.32,-631.17 1387.32,-538.5 1387.32,-538.5 1387.32,-538.5 1387.32,-333 1387.32,-271.21 1366.1,-201.49 1352.18,-162.39"/>
<polygon fill="#63b8ff" stroke="#63b8ff" points="469.07,-721.43 459.43,-725.83 469.7,-728.4 469.07,-721.43"/>
</g>
<!-- Node3 -->
<g id="node3" class="node">
<title>Node3</title>
<g id="a_node3"><a xlink:href="_control__system_8h_source.html" target="_top" xlink:title=" ">
<polygon fill="white" stroke="#666666" points="853.82,-563.5 682.82,-563.5 682.82,-511.5 853.82,-511.5 853.82,-563.5"/>
<text text-anchor="start" x="690.82" y="-551.5" font-family="Helvetica,sans-Serif" font-size="10.00">C:/Users/juanh/OneDrive</text>
<text text-anchor="start" x="690.82" y="-540.5" font-family="Helvetica,sans-Serif" font-size="10.00">/Escritorio/Sistemas Embebidos</text>
<text text-anchor="start" x="690.82" y="-529.5" font-family="Helvetica,sans-Serif" font-size="10.00">/Proyecto final/LAL Control</text>
<text text-anchor="middle" x="768.32" y="-518.5" font-family="Helvetica,sans-Serif" font-size="10.00"> MbedOS/include/Control_system.h</text>
</a>
</g>
</g>
<!-- Node2&#45;&gt;Node3 -->
<g id="edge2" class="edge">
<title>Node2&#45;&gt;Node3</title>
<path fill="none" stroke="#63b8ff" d="M768.32,-593.14C768.32,-583.2 768.32,-572.91 768.32,-563.98"/>
<polygon fill="#63b8ff" stroke="#63b8ff" points="764.82,-593.03 768.32,-603.03 771.82,-593.03 764.82,-593.03"/>
</g>
<!-- Node23 -->
<g id="node23" class="node">
<title>Node23</title>
<g id="a_node23"><a xlink:href="_machine_8cpp.html" target="_top" xlink:title="Implementación de Machine.h.">
<polygon fill="white" stroke="#666666" points="1034.32,-569 872.32,-569 872.32,-506 1034.32,-506 1034.32,-569"/>
<text text-anchor="start" x="880.32" y="-557" font-family="Helvetica,sans-Serif" font-size="10.00">C:/Users/juanh/OneDrive</text>
<text text-anchor="start" x="880.32" y="-546" font-family="Helvetica,sans-Serif" font-size="10.00">/Escritorio/Sistemas Embebidos</text>
<text text-anchor="start" x="880.32" y="-535" font-family="Helvetica,sans-Serif" font-size="10.00">/Proyecto final/LAL Control</text>
<text text-anchor="start" x="880.32" y="-524" font-family="Helvetica,sans-Serif" font-size="10.00"> MbedOS/src/Port/machine_state</text>
<text text-anchor="middle" x="953.32" y="-513" font-family="Helvetica,sans-Serif" font-size="10.00">_pattern/Machine.cpp</text>
</a>
</g>
</g>
<!-- Node2&#45;&gt;Node23 -->
<g id="edge38" class="edge">
<title>Node2&#45;&gt;Node23</title>
<path fill="none" stroke="#63b8ff" d="M837.56,-599.2C856.19,-589.43 876.18,-578.95 894.2,-569.5"/>
<polygon fill="#63b8ff" stroke="#63b8ff" points="835.94,-596.1 828.71,-603.84 839.19,-602.3 835.94,-596.1"/>
</g>
<!-- Node3&#45;&gt;Node4 -->
<g id="edge3" class="edge">
<title>Node3&#45;&gt;Node4</title>
<path fill="none" stroke="#63b8ff" d="M671.56,-519.7C596.01,-506.48 488.42,-487.45 394.32,-470 373.72,-466.18 351.63,-461.98 330.69,-457.95"/>
<polygon fill="#63b8ff" stroke="#63b8ff" points="670.53,-523.07 680.98,-521.34 671.73,-516.18 670.53,-523.07"/>
</g>
<!-- Node3&#45;&gt;Node5 -->
<g id="edge15" class="edge">
<title>Node3&#45;&gt;Node5</title>
<path fill="none" stroke="#63b8ff" d="M671.06,-525.08C587.91,-513.85 475.92,-494.81 438.32,-470 401.97,-446.02 375.85,-402.48 360.72,-371.33"/>
<polygon fill="#63b8ff" stroke="#63b8ff" points="670.46,-528.53 680.83,-526.38 671.38,-521.59 670.46,-528.53"/>
</g>
<!-- Node3&#45;&gt;Node6 -->
<g id="edge16" class="edge">
<title>Node3&#45;&gt;Node6</title>
<path fill="none" stroke="#63b8ff" d="M683.58,-506.9C657.51,-496.55 629.15,-483.97 604.32,-470 540.1,-433.86 518.94,-427.23 471.32,-371 447.43,-342.79 463.4,-318.5 433.32,-297 343.07,-232.49 294.47,-285.72 186.32,-261 183.65,-260.39 180.95,-259.74 178.23,-259.06"/>
<polygon fill="#63b8ff" stroke="#63b8ff" points="682.21,-510.13 692.8,-510.5 684.76,-503.61 682.21,-510.13"/>
</g>
<!-- Node3&#45;&gt;Node7 -->
<g id="edge17" class="edge">
<title>Node3&#45;&gt;Node7</title>
<path fill="none" stroke="#63b8ff" d="M844.81,-508.18C848,-507.4 851.18,-506.67 854.32,-506 926.91,-490.58 1124.42,-510.93 1186.32,-470 1293.24,-399.3 1321.63,-231.71 1333.23,-162.36"/>
<polygon fill="#63b8ff" stroke="#63b8ff" points="844.17,-504.72 835.37,-510.62 845.93,-511.5 844.17,-504.72"/>
</g>
<!-- Node12 -->
<g id="node12" class="node">
<title>Node12</title>
<g id="a_node12"><a xlink:href="main_8h.html" target="_top" xlink:title="Archivo principal del programa.">
<polygon fill="white" stroke="#666666" points="926.82,-255.5 769.82,-255.5 769.82,-203.5 926.82,-203.5 926.82,-255.5"/>
<text text-anchor="start" x="777.82" y="-243.5" font-family="Helvetica,sans-Serif" font-size="10.00">C:/Users/juanh/OneDrive</text>
<text text-anchor="start" x="777.82" y="-232.5" font-family="Helvetica,sans-Serif" font-size="10.00">/Escritorio/Sistemas Embebidos</text>
<text text-anchor="start" x="777.82" y="-221.5" font-family="Helvetica,sans-Serif" font-size="10.00">/Proyecto final/LAL Control</text>
<text text-anchor="middle" x="848.32" y="-210.5" font-family="Helvetica,sans-Serif" font-size="10.00"> MbedOS/include/main.h</text>
</a>
</g>
</g>
<!-- Node3&#45;&gt;Node12 -->
<g id="edge18" class="edge">
<title>Node3&#45;&gt;Node12</title>
<path fill="none" stroke="#63b8ff" d="M740.38,-502.18C704.15,-453.23 650.41,-362.11 693.32,-297 698.72,-288.81 740.93,-270.97 779.94,-255.83"/>
<polygon fill="#63b8ff" stroke="#63b8ff" points="737.39,-504.03 746.22,-509.89 742.97,-499.81 737.39,-504.03"/>
</g>
<!-- Node13 -->
<g id="node13" class="node">
<title>Node13</title>
<g id="a_node13"><a xlink:href="_cooler__observer_8h_source.html" target="_top" xlink:title=" ">
<polygon fill="white" stroke="#666666" points="1054.32,-365.5 888.32,-365.5 888.32,-302.5 1054.32,-302.5 1054.32,-365.5"/>
<text text-anchor="start" x="896.32" y="-353.5" font-family="Helvetica,sans-Serif" font-size="10.00">C:/Users/juanh/OneDrive</text>
<text text-anchor="start" x="896.32" y="-342.5" font-family="Helvetica,sans-Serif" font-size="10.00">/Escritorio/Sistemas Embebidos</text>
<text text-anchor="start" x="896.32" y="-331.5" font-family="Helvetica,sans-Serif" font-size="10.00">/Proyecto final/LAL Control</text>
<text text-anchor="start" x="896.32" y="-320.5" font-family="Helvetica,sans-Serif" font-size="10.00"> MbedOS/include/observer_pattern</text>
<text text-anchor="middle" x="971.32" y="-309.5" font-family="Helvetica,sans-Serif" font-size="10.00">/observers/Cooler_observer.h</text>
</a>
</g>
</g>
<!-- Node3&#45;&gt;Node13 -->
<g id="edge19" class="edge">
<title>Node3&#45;&gt;Node13</title>
<path fill="none" stroke="#63b8ff" d="M847.83,-506.63C876.65,-494.56 904.73,-480.93 915.32,-470 943.39,-441.02 958.2,-395.96 965.39,-365.98"/>
<polygon fill="#63b8ff" stroke="#63b8ff" points="846.53,-503.38 838.61,-510.42 849.19,-509.86 846.53,-503.38"/>
</g>
<!-- Node15 -->
<g id="node15" class="node">
<title>Node15</title>
<g id="a_node15"><a xlink:href="_instruction__observer_8h.html" target="_top" xlink:title="Observador de instrucciones.">
<polygon fill="white" stroke="#666666" points="1238.32,-365.5 1072.32,-365.5 1072.32,-302.5 1238.32,-302.5 1238.32,-365.5"/>
<text text-anchor="start" x="1080.32" y="-353.5" font-family="Helvetica,sans-Serif" font-size="10.00">C:/Users/juanh/OneDrive</text>
<text text-anchor="start" x="1080.32" y="-342.5" font-family="Helvetica,sans-Serif" font-size="10.00">/Escritorio/Sistemas Embebidos</text>
<text text-anchor="start" x="1080.32" y="-331.5" font-family="Helvetica,sans-Serif" font-size="10.00">/Proyecto final/LAL Control</text>
<text text-anchor="start" x="1080.32" y="-320.5" font-family="Helvetica,sans-Serif" font-size="10.00"> MbedOS/include/observer_pattern</text>
<text text-anchor="middle" x="1155.32" y="-309.5" font-family="Helvetica,sans-Serif" font-size="10.00">/observers/Instruction_observer.h</text>
</a>
</g>
</g>
<!-- Node3&#45;&gt;Node15 -->
<g id="edge22" class="edge">
<title>Node3&#45;&gt;Node15</title>
<path fill="none" stroke="#63b8ff" d="M853.67,-507.32C895.65,-492.51 939.04,-476.34 947.32,-470 974.65,-449.09 965.64,-428.72 992.32,-407 1000.06,-400.7 1041.39,-382.47 1080.49,-365.93"/>
<polygon fill="#63b8ff" stroke="#63b8ff" points="852.75,-503.93 844.47,-510.55 855.07,-510.54 852.75,-503.93"/>
</g>
<!-- Node17 -->
<g id="node17" class="node">
<title>Node17</title>
<g id="a_node17"><a xlink:href="_moisture__observer_8h.html" target="_top" xlink:title="Observador del sensor de temperatura.">
<polygon fill="white" stroke="#666666" points="646.32,-365.5 480.32,-365.5 480.32,-302.5 646.32,-302.5 646.32,-365.5"/>
<text text-anchor="start" x="488.32" y="-353.5" font-family="Helvetica,sans-Serif" font-size="10.00">C:/Users/juanh/OneDrive</text>
<text text-anchor="start" x="488.32" y="-342.5" font-family="Helvetica,sans-Serif" font-size="10.00">/Escritorio/Sistemas Embebidos</text>
<text text-anchor="start" x="488.32" y="-331.5" font-family="Helvetica,sans-Serif" font-size="10.00">/Proyecto final/LAL Control</text>
<text text-anchor="start" x="488.32" y="-320.5" font-family="Helvetica,sans-Serif" font-size="10.00"> MbedOS/include/observer_pattern</text>
<text text-anchor="middle" x="563.32" y="-309.5" font-family="Helvetica,sans-Serif" font-size="10.00">/observers/Moisture_observer.h</text>
</a>
</g>
</g>
<!-- Node3&#45;&gt;Node17 -->
<g id="edge25" class="edge">
<title>Node3&#45;&gt;Node17</title>
<path fill="none" stroke="#63b8ff" d="M708.49,-505.44C691.93,-495.36 674.6,-483.3 660.32,-470 627.06,-439.02 598.01,-395.06 580.58,-365.82"/>
<polygon fill="#63b8ff" stroke="#63b8ff" points="706.44,-508.29 716.83,-510.37 710,-502.27 706.44,-508.29"/>
</g>
<!-- Node19 -->
<g id="node19" class="node">
<title>Node19</title>
<g id="a_node19"><a xlink:href="_system__observer_8h.html" target="_top" xlink:title="Clase observador del sistema de control.">
<polygon fill="white" stroke="#666666" points="906.32,-470 740.32,-470 740.32,-407 906.32,-407 906.32,-470"/>
<text text-anchor="start" x="748.32" y="-458" font-family="Helvetica,sans-Serif" font-size="10.00">C:/Users/juanh/OneDrive</text>
<text text-anchor="start" x="748.32" y="-447" font-family="Helvetica,sans-Serif" font-size="10.00">/Escritorio/Sistemas Embebidos</text>
<text text-anchor="start" x="748.32" y="-436" font-family="Helvetica,sans-Serif" font-size="10.00">/Proyecto final/LAL Control</text>
<text text-anchor="start" x="748.32" y="-425" font-family="Helvetica,sans-Serif" font-size="10.00"> MbedOS/include/observer_pattern</text>
<text text-anchor="middle" x="823.32" y="-414" font-family="Helvetica,sans-Serif" font-size="10.00">/observers/System_observer.h</text>
</a>
</g>
</g>
<!-- Node3&#45;&gt;Node19 -->
<g id="edge28" class="edge">
<title>Node3&#45;&gt;Node19</title>
<path fill="none" stroke="#63b8ff" d="M781.96,-500.93C787.3,-490.9 793.5,-480.07 799.5,-470.35"/>
<polygon fill="#63b8ff" stroke="#63b8ff" points="778.92,-499.18 777.44,-509.67 785.14,-502.39 778.92,-499.18"/>
</g>
<!-- Node20 -->
<g id="node20" class="node">
<title>Node20</title>
<g id="a_node20"><a xlink:href="_temperature__observer_8h.html" target="_top" xlink:title="Observador del sensor de temperatura.">
<polygon fill="white" stroke="#666666" points="869.82,-365.5 702.82,-365.5 702.82,-302.5 869.82,-302.5 869.82,-365.5"/>
<text text-anchor="start" x="710.82" y="-353.5" font-family="Helvetica,sans-Serif" font-size="10.00">C:/Users/juanh/OneDrive</text>
<text text-anchor="start" x="710.82" y="-342.5" font-family="Helvetica,sans-Serif" font-size="10.00">/Escritorio/Sistemas Embebidos</text>
<text text-anchor="start" x="710.82" y="-331.5" font-family="Helvetica,sans-Serif" font-size="10.00">/Proyecto final/LAL Control</text>
<text text-anchor="start" x="710.82" y="-320.5" font-family="Helvetica,sans-Serif" font-size="10.00"> MbedOS/include/observer_pattern</text>
<text text-anchor="middle" x="786.32" y="-309.5" font-family="Helvetica,sans-Serif" font-size="10.00">/observers/Temperature_observer.h</text>
</a>
</g>
</g>
<!-- Node3&#45;&gt;Node20 -->
<g id="edge36" class="edge">
<title>Node3&#45;&gt;Node20</title>
<path fill="none" stroke="#63b8ff" d="M744.55,-501.54C739.12,-491.75 734.13,-480.82 731.32,-470 724.29,-442.9 722.35,-433.52 731.32,-407 736.41,-391.95 746.05,-377.57 755.85,-365.67"/>
<polygon fill="#63b8ff" stroke="#63b8ff" points="741.43,-503.13 749.52,-509.97 747.46,-499.58 741.43,-503.13"/>
</g>
<!-- Node22 -->
<g id="node22" class="node">
<title>Node22</title>
<g id="a_node22"><a xlink:href="_control__system_8cpp.html" target="_top" xlink:title="Implementación de Control_system.h.">
<polygon fill="white" stroke="#666666" points="1185.82,-464.5 1000.82,-464.5 1000.82,-412.5 1185.82,-412.5 1185.82,-464.5"/>
<text text-anchor="start" x="1008.82" y="-452.5" font-family="Helvetica,sans-Serif" font-size="10.00">C:/Users/juanh/OneDrive</text>
<text text-anchor="start" x="1008.82" y="-441.5" font-family="Helvetica,sans-Serif" font-size="10.00">/Escritorio/Sistemas Embebidos</text>
<text text-anchor="start" x="1008.82" y="-430.5" font-family="Helvetica,sans-Serif" font-size="10.00">/Proyecto final/LAL Control</text>
<text text-anchor="middle" x="1093.32" y="-419.5" font-family="Helvetica,sans-Serif" font-size="10.00"> MbedOS/src/Port/Control_system.cpp</text>
</a>
</g>
</g>
<!-- Node3&#45;&gt;Node22 -->
<g id="edge37" class="edge">
<title>Node3&#45;&gt;Node22</title>
<path fill="none" stroke="#63b8ff" d="M858.05,-507.61C859.82,-507.07 861.58,-506.53 863.32,-506 889.91,-497.89 951.5,-480.1 1004.25,-464.96"/>
<polygon fill="#63b8ff" stroke="#63b8ff" points="857.02,-504.27 848.51,-510.58 859.09,-510.96 857.02,-504.27"/>
</g>
<!-- Node4&#45;&gt;Node5 -->
<g id="edge4" class="edge">
<title>Node4&#45;&gt;Node5</title>
<path fill="none" stroke="#63b8ff" d="M270.78,-398.92C280.19,-389.82 290.51,-380.14 300.4,-371.14"/>
<polygon fill="#63b8ff" stroke="#63b8ff" points="268.56,-396.19 263.86,-405.69 273.46,-401.2 268.56,-396.19"/>
</g>
<!-- Node4&#45;&gt;Node6 -->
<g id="edge13" class="edge">
<title>Node4&#45;&gt;Node6</title>
<path fill="none" stroke="#63b8ff" d="M226.81,-395.29C221.97,-365.31 213.51,-325.49 192.32,-297 181.66,-282.67 166.91,-270.85 151.88,-261.35"/>
<polygon fill="#63b8ff" stroke="#63b8ff" points="223.35,-395.82 228.34,-405.16 230.27,-394.75 223.35,-395.82"/>
</g>
<!-- Node11 -->
<g id="node11" class="node">
<title>Node11</title>
<g id="a_node11"><a xlink:href="_alarm_8cpp.html" target="_top" xlink:title="Implementación de Alarm_state.h.">
<polygon fill="white" stroke="#666666" points="192.32,-365.5 30.32,-365.5 30.32,-302.5 192.32,-302.5 192.32,-365.5"/>
<text text-anchor="start" x="38.32" y="-353.5" font-family="Helvetica,sans-Serif" font-size="10.00">C:/Users/juanh/OneDrive</text>
<text text-anchor="start" x="38.32" y="-342.5" font-family="Helvetica,sans-Serif" font-size="10.00">/Escritorio/Sistemas Embebidos</text>
<text text-anchor="start" x="38.32" y="-331.5" font-family="Helvetica,sans-Serif" font-size="10.00">/Proyecto final/LAL Control</text>
<text text-anchor="start" x="38.32" y="-320.5" font-family="Helvetica,sans-Serif" font-size="10.00"> MbedOS/src/Port/machine_state</text>
<text text-anchor="middle" x="111.32" y="-309.5" font-family="Helvetica,sans-Serif" font-size="10.00">_pattern/Alarm.cpp</text>
</a>
</g>
</g>
<!-- Node4&#45;&gt;Node11 -->
<g id="edge14" class="edge">
<title>Node4&#45;&gt;Node11</title>
<path fill="none" stroke="#63b8ff" d="M190.07,-399.57C176.47,-388.43 161.77,-376.37 148.8,-365.73"/>
<polygon fill="#63b8ff" stroke="#63b8ff" points="187.69,-402.15 197.65,-405.79 192.13,-396.74 187.69,-402.15"/>
</g>
<!-- Node5&#45;&gt;Node4 -->
<g id="edge5" class="edge">
<title>Node5&#45;&gt;Node4</title>
<path fill="none" stroke="#63b8ff" d="M305.31,-378.91C295.5,-388.29 285.03,-397.99 275.27,-406.75"/>
<polygon fill="#63b8ff" stroke="#63b8ff" points="307.51,-381.66 312.28,-372.2 302.65,-376.62 307.51,-381.66"/>
</g>
<!-- Node5&#45;&gt;Node6 -->
<g id="edge6" class="edge">
<title>Node5&#45;&gt;Node6</title>
<path fill="none" stroke="#63b8ff" d="M255.51,-297.04C226.45,-285.4 194.5,-272.61 166.44,-261.38"/>
<polygon fill="#63b8ff" stroke="#63b8ff" points="254.08,-300.24 264.67,-300.71 256.69,-293.74 254.08,-300.24"/>
</g>
<!-- Node10 -->
<g id="node10" class="node">
<title>Node10</title>
<g id="a_node10"><a xlink:href="_check__instruction__state_8cpp.html" target="_top" xlink:title="Implementación de Check_instruction_state.h.">
<polygon fill="white" stroke="#666666" points="374.82,-261 195.82,-261 195.82,-198 374.82,-198 374.82,-261"/>
<text text-anchor="start" x="203.82" y="-249" font-family="Helvetica,sans-Serif" font-size="10.00">C:/Users/juanh/OneDrive</text>
<text text-anchor="start" x="203.82" y="-238" font-family="Helvetica,sans-Serif" font-size="10.00">/Escritorio/Sistemas Embebidos</text>
<text text-anchor="start" x="203.82" y="-227" font-family="Helvetica,sans-Serif" font-size="10.00">/Proyecto final/LAL Control</text>
<text text-anchor="start" x="203.82" y="-216" font-family="Helvetica,sans-Serif" font-size="10.00"> MbedOS/src/Port/machine_state</text>
<text text-anchor="middle" x="285.32" y="-205" font-family="Helvetica,sans-Serif" font-size="10.00">_pattern/Check_instruction_state.cpp</text>
</a>
</g>
</g>
<!-- Node5&#45;&gt;Node10 -->
<g id="edge12" class="edge">
<title>Node5&#45;&gt;Node10</title>
<path fill="none" stroke="#63b8ff" d="M318.2,-286.66C313.18,-278.1 308.06,-269.35 303.4,-261.38"/>
<polygon fill="#63b8ff" stroke="#63b8ff" points="315.16,-288.41 323.23,-295.27 321.2,-284.87 315.16,-288.41"/>
</g>
<!-- Node6&#45;&gt;Node4 -->
<g id="edge7" class="edge">
<title>Node6&#45;&gt;Node4</title>
<path fill="none" stroke="#63b8ff" d="M178.7,-267.43C190.73,-275.75 201.82,-285.58 210.32,-297 234.33,-329.27 242,-376.09 242.18,-406.66"/>
<polygon fill="#63b8ff" stroke="#63b8ff" points="180.91,-264.69 170.62,-262.18 177.1,-270.56 180.91,-264.69"/>
</g>
<!-- Node6&#45;&gt;Node7 -->
<g id="edge8" class="edge">
<title>Node6&#45;&gt;Node7</title>
<path fill="none" stroke="#63b8ff" d="M189.2,-197.68C407.22,-160.64 998.33,-140.9 1237.73,-134.17"/>
<polygon fill="#63b8ff" stroke="#63b8ff" points="188.9,-194.18 179.66,-199.36 190.12,-201.07 188.9,-194.18"/>
</g>
<!-- Node9 -->
<g id="node9" class="node">
<title>Node9</title>
<g id="a_node9"><a xlink:href="_idle__state_8cpp.html" target="_top" xlink:title="Implementación de Idle_state.h.">
<polygon fill="white" stroke="#666666" points="170.32,-162 8.32,-162 8.32,-99 170.32,-99 170.32,-162"/>
<text text-anchor="start" x="16.32" y="-150" font-family="Helvetica,sans-Serif" font-size="10.00">C:/Users/juanh/OneDrive</text>
<text text-anchor="start" x="16.32" y="-139" font-family="Helvetica,sans-Serif" font-size="10.00">/Escritorio/Sistemas Embebidos</text>
<text text-anchor="start" x="16.32" y="-128" font-family="Helvetica,sans-Serif" font-size="10.00">/Proyecto final/LAL Control</text>
<text text-anchor="start" x="16.32" y="-117" font-family="Helvetica,sans-Serif" font-size="10.00"> MbedOS/src/Port/machine_state</text>
<text text-anchor="middle" x="89.32" y="-106" font-family="Helvetica,sans-Serif" font-size="10.00">_pattern/Idle_state.cpp</text>
</a>
</g>
</g>
<!-- Node6&#45;&gt;Node9 -->
<g id="edge11" class="edge">
<title>Node6&#45;&gt;Node9</title>
<path fill="none" stroke="#63b8ff" d="M89.32,-186.15C89.32,-178.2 89.32,-170.02 89.32,-162.5"/>
<polygon fill="#63b8ff" stroke="#63b8ff" points="85.82,-186.03 89.32,-196.03 92.82,-186.03 85.82,-186.03"/>
</g>
<!-- Node7&#45;&gt;Node3 -->
<g id="edge9" class="edge">
<title>Node7&#45;&gt;Node3</title>
<path fill="none" stroke="#63b8ff" d="M1341.93,-173.66C1336.54,-248.48 1305.81,-402.89 1204.32,-470 1142.42,-510.93 944.91,-490.58 872.32,-506 865.63,-507.42 858.74,-509.13 851.84,-511.01"/>
<polygon fill="#63b8ff" stroke="#63b8ff" points="1345.41,-174.06 1342.5,-163.87 1338.42,-173.65 1345.41,-174.06"/>
</g>
<!-- Node8 -->
<g id="node8" class="node">
<title>Node8</title>
<g id="a_node8"><a xlink:href="_shutdown__state_8cpp.html" target="_top" xlink:title="Implementación de Shutdown_state.h.">
<polygon fill="white" stroke="#666666" points="1421.32,-63 1259.32,-63 1259.32,0 1421.32,0 1421.32,-63"/>
<text text-anchor="start" x="1267.32" y="-51" font-family="Helvetica,sans-Serif" font-size="10.00">C:/Users/juanh/OneDrive</text>
<text text-anchor="start" x="1267.32" y="-40" font-family="Helvetica,sans-Serif" font-size="10.00">/Escritorio/Sistemas Embebidos</text>
<text text-anchor="start" x="1267.32" y="-29" font-family="Helvetica,sans-Serif" font-size="10.00">/Proyecto final/LAL Control</text>
<text text-anchor="start" x="1267.32" y="-18" font-family="Helvetica,sans-Serif" font-size="10.00"> MbedOS/src/Port/machine_state</text>
<text text-anchor="middle" x="1340.32" y="-7" font-family="Helvetica,sans-Serif" font-size="10.00">_pattern/Shutdown_state.cpp</text>
</a>
</g>
</g>
<!-- Node7&#45;&gt;Node8 -->
<g id="edge10" class="edge">
<title>Node7&#45;&gt;Node8</title>
<path fill="none" stroke="#63b8ff" d="M1340.32,-87.15C1340.32,-79.2 1340.32,-71.02 1340.32,-63.5"/>
<polygon fill="#63b8ff" stroke="#63b8ff" points="1336.82,-87.03 1340.32,-97.03 1343.82,-87.03 1336.82,-87.03"/>
</g>
<!-- Node13&#45;&gt;Node12 -->
<g id="edge20" class="edge">
<title>Node13&#45;&gt;Node12</title>
<path fill="none" stroke="#63b8ff" d="M925.84,-295.1C910.08,-281.97 892.81,-267.58 878.58,-255.72"/>
<polygon fill="#63b8ff" stroke="#63b8ff" points="923.33,-297.56 933.25,-301.28 927.81,-292.19 923.33,-297.56"/>
</g>
<!-- Node14 -->
<g id="node14" class="node">
<title>Node14</title>
<g id="a_node14"><a xlink:href="_cooler__observer_8cpp.html" target="_top" xlink:title="Implementación de Cooler_observer.h.">
<polygon fill="white" stroke="#666666" points="1115.32,-261 945.32,-261 945.32,-198 1115.32,-198 1115.32,-261"/>
<text text-anchor="start" x="953.32" y="-249" font-family="Helvetica,sans-Serif" font-size="10.00">C:/Users/juanh/OneDrive</text>
<text text-anchor="start" x="953.32" y="-238" font-family="Helvetica,sans-Serif" font-size="10.00">/Escritorio/Sistemas Embebidos</text>
<text text-anchor="start" x="953.32" y="-227" font-family="Helvetica,sans-Serif" font-size="10.00">/Proyecto final/LAL Control</text>
<text text-anchor="start" x="953.32" y="-216" font-family="Helvetica,sans-Serif" font-size="10.00"> MbedOS/src/Port/observer_pattern</text>
<text text-anchor="middle" x="1030.32" y="-205" font-family="Helvetica,sans-Serif" font-size="10.00">/Cooler_observer.cpp</text>
</a>
</g>
</g>
<!-- Node13&#45;&gt;Node14 -->
<g id="edge21" class="edge">
<title>Node13&#45;&gt;Node14</title>
<path fill="none" stroke="#63b8ff" d="M994.63,-292.51C1000.62,-282.1 1006.97,-271.06 1012.63,-261.23"/>
<polygon fill="#63b8ff" stroke="#63b8ff" points="991.73,-290.52 989.78,-300.93 997.8,-294.01 991.73,-290.52"/>
</g>
<!-- Node15&#45;&gt;Node12 -->
<g id="edge23" class="edge">
<title>Node15&#45;&gt;Node12</title>
<path fill="none" stroke="#63b8ff" d="M1066.88,-298.21C1065.69,-297.8 1064.5,-297.4 1063.32,-297 1007.72,-278.29 992.28,-278.61 936.32,-261 931.23,-259.4 925.99,-257.7 920.72,-255.96"/>
<polygon fill="#63b8ff" stroke="#63b8ff" points="1065.69,-301.5 1076.29,-301.52 1068.02,-294.9 1065.69,-301.5"/>
</g>
<!-- Node16 -->
<g id="node16" class="node">
<title>Node16</title>
<g id="a_node16"><a xlink:href="_instruction__observer_8cpp.html" target="_top" xlink:title="Implementación de Instruction_observer.h.">
<polygon fill="white" stroke="#666666" points="1303.32,-261 1133.32,-261 1133.32,-198 1303.32,-198 1303.32,-261"/>
<text text-anchor="start" x="1141.32" y="-249" font-family="Helvetica,sans-Serif" font-size="10.00">C:/Users/juanh/OneDrive</text>
<text text-anchor="start" x="1141.32" y="-238" font-family="Helvetica,sans-Serif" font-size="10.00">/Escritorio/Sistemas Embebidos</text>
<text text-anchor="start" x="1141.32" y="-227" font-family="Helvetica,sans-Serif" font-size="10.00">/Proyecto final/LAL Control</text>
<text text-anchor="start" x="1141.32" y="-216" font-family="Helvetica,sans-Serif" font-size="10.00"> MbedOS/src/Port/observer_pattern</text>
<text text-anchor="middle" x="1218.32" y="-205" font-family="Helvetica,sans-Serif" font-size="10.00">/Instruction_observer.cpp</text>
</a>
</g>
</g>
<!-- Node15&#45;&gt;Node16 -->
<g id="edge24" class="edge">
<title>Node15&#45;&gt;Node16</title>
<path fill="none" stroke="#63b8ff" d="M1180.21,-292.51C1186.61,-282.1 1193.39,-271.06 1199.43,-261.23"/>
<polygon fill="#63b8ff" stroke="#63b8ff" points="1177.27,-290.6 1175.02,-300.96 1183.23,-294.27 1177.27,-290.6"/>
</g>
<!-- Node17&#45;&gt;Node12 -->
<g id="edge26" class="edge">
<title>Node17&#45;&gt;Node12</title>
<path fill="none" stroke="#63b8ff" d="M656.88,-298.25C658.03,-297.83 659.18,-297.41 660.32,-297 698.24,-283.26 740.58,-268.25 775.47,-255.98"/>
<polygon fill="#63b8ff" stroke="#63b8ff" points="655.98,-294.85 647.79,-301.57 658.38,-301.43 655.98,-294.85"/>
</g>
<!-- Node18 -->
<g id="node18" class="node">
<title>Node18</title>
<g id="a_node18"><a xlink:href="_moisture__observer_8cpp.html" target="_top" xlink:title="Implementación de Moisture_observer.h.">
<polygon fill="white" stroke="#666666" points="563.32,-261 393.32,-261 393.32,-198 563.32,-198 563.32,-261"/>
<text text-anchor="start" x="401.32" y="-249" font-family="Helvetica,sans-Serif" font-size="10.00">C:/Users/juanh/OneDrive</text>
<text text-anchor="start" x="401.32" y="-238" font-family="Helvetica,sans-Serif" font-size="10.00">/Escritorio/Sistemas Embebidos</text>
<text text-anchor="start" x="401.32" y="-227" font-family="Helvetica,sans-Serif" font-size="10.00">/Proyecto final/LAL Control</text>
<text text-anchor="start" x="401.32" y="-216" font-family="Helvetica,sans-Serif" font-size="10.00"> MbedOS/src/Port/observer_pattern</text>
<text text-anchor="middle" x="478.32" y="-205" font-family="Helvetica,sans-Serif" font-size="10.00">/Moisture_observer.cpp</text>
</a>
</g>
</g>
<!-- Node17&#45;&gt;Node18 -->
<g id="edge27" class="edge">
<title>Node17&#45;&gt;Node18</title>
<path fill="none" stroke="#63b8ff" d="M530.54,-293.48C521.68,-282.78 512.21,-271.37 503.81,-261.23"/>
<polygon fill="#63b8ff" stroke="#63b8ff" points="527.77,-295.62 536.85,-301.08 533.16,-291.15 527.77,-295.62"/>
</g>
<!-- Node19&#45;&gt;Node3 -->
<g id="edge29" class="edge">
<title>Node19&#45;&gt;Node3</title>
<path fill="none" stroke="#63b8ff" d="M806.76,-480.48C801.09,-490.84 794.73,-501.67 788.79,-511.01"/>
<polygon fill="#63b8ff" stroke="#63b8ff" points="809.84,-482.15 811.45,-471.68 803.66,-478.86 809.84,-482.15"/>
</g>
<!-- Node19&#45;&gt;Node13 -->
<g id="edge30" class="edge">
<title>Node19&#45;&gt;Node13</title>
<path fill="none" stroke="#63b8ff" d="M877.12,-400.24C893.4,-388.97 911.08,-376.72 926.69,-365.91"/>
<polygon fill="#63b8ff" stroke="#63b8ff" points="875.2,-397.31 868.97,-405.88 879.18,-403.07 875.2,-397.31"/>
</g>
<!-- Node19&#45;&gt;Node15 -->
<g id="edge31" class="edge">
<title>Node19&#45;&gt;Node15</title>
<path fill="none" stroke="#63b8ff" d="M917.81,-413.72C962.28,-401.92 1015.86,-386.81 1063.32,-371 1068.12,-369.4 1073.04,-367.69 1077.98,-365.92"/>
<polygon fill="#63b8ff" stroke="#63b8ff" points="916.94,-410.33 908.17,-416.26 918.73,-417.1 916.94,-410.33"/>
</g>
<!-- Node19&#45;&gt;Node17 -->
<g id="edge32" class="edge">
<title>Node19&#45;&gt;Node17</title>
<path fill="none" stroke="#63b8ff" d="M734.44,-402.46C704.26,-390.56 670.8,-377.37 641.52,-365.83"/>
<polygon fill="#63b8ff" stroke="#63b8ff" points="732.96,-405.64 743.55,-406.05 735.53,-399.13 732.96,-405.64"/>
</g>
<!-- Node19&#45;&gt;Node20 -->
<g id="edge33" class="edge">
<title>Node19&#45;&gt;Node20</title>
<path fill="none" stroke="#63b8ff" d="M808.36,-396.04C804.7,-385.92 800.85,-375.26 797.41,-365.73"/>
<polygon fill="#63b8ff" stroke="#63b8ff" points="805.02,-397.11 811.71,-405.32 811.6,-394.73 805.02,-397.11"/>
</g>
<!-- Node20&#45;&gt;Node12 -->
<g id="edge34" class="edge">
<title>Node20&#45;&gt;Node12</title>
<path fill="none" stroke="#63b8ff" d="M810.8,-292.53C818.31,-280.11 826.36,-266.81 833.07,-255.72"/>
<polygon fill="#63b8ff" stroke="#63b8ff" points="807.89,-290.58 805.71,-300.95 813.88,-294.21 807.89,-290.58"/>
</g>
<!-- Node21 -->
<g id="node21" class="node">
<title>Node21</title>
<g id="a_node21"><a xlink:href="_temperature__observer_8cpp.html" target="_top" xlink:title="Implementación de Temperature_observer.h.">
<polygon fill="white" stroke="#666666" points="751.32,-261 581.32,-261 581.32,-198 751.32,-198 751.32,-261"/>
<text text-anchor="start" x="589.32" y="-249" font-family="Helvetica,sans-Serif" font-size="10.00">C:/Users/juanh/OneDrive</text>
<text text-anchor="start" x="589.32" y="-238" font-family="Helvetica,sans-Serif" font-size="10.00">/Escritorio/Sistemas Embebidos</text>
<text text-anchor="start" x="589.32" y="-227" font-family="Helvetica,sans-Serif" font-size="10.00">/Proyecto final/LAL Control</text>
<text text-anchor="start" x="589.32" y="-216" font-family="Helvetica,sans-Serif" font-size="10.00"> MbedOS/src/Port/observer_pattern</text>
<text text-anchor="middle" x="666.32" y="-205" font-family="Helvetica,sans-Serif" font-size="10.00">/Temperature_observer.cpp</text>
</a>
</g>
</g>
<!-- Node20&#45;&gt;Node21 -->
<g id="edge35" class="edge">
<title>Node20&#45;&gt;Node21</title>
<path fill="none" stroke="#63b8ff" d="M741.92,-295.07C728.87,-283.93 714.76,-271.87 702.3,-261.23"/>
<polygon fill="#63b8ff" stroke="#63b8ff" points="739.29,-297.43 749.17,-301.26 743.84,-292.11 739.29,-297.43"/>
</g>
</g>
</svg>
