<?xml version="1.0" encoding="UTF-8" standalone="no"?>
<!DOCTYPE svg PUBLIC "-//W3C//DTD SVG 1.1//EN"
 "http://www.w3.org/Graphics/SVG/1.1/DTD/svg11.dtd">
<!-- Generated by graphviz version 7.0.2 (20221119.0110)
 -->
<!-- Title: C:/Users/juanh/OneDrive/Escritorio/Facultad/Beca/Proyecto/LAL Control Arduino/include/machine_state_pattern/machine_states/Alarm_state.h Pages: 1 -->
<!--zoomable 357 -->
<svg id="main" version="1.1" xmlns="http://www.w3.org/2000/svg" xmlns:xlink="http://www.w3.org/1999/xlink" xml:space="preserve" onload="init(evt)">
<style type="text/css"><![CDATA[
.edge:hover path { stroke: red; }
.edge:hover polygon { stroke: red; fill: red; }
]]></style>
<script type="text/javascript"><![CDATA[
var edges = document.getElementsByTagName('g');
if (edges && edges.length) {
  for (var i=0;i<edges.length;i++) {
    if (edges[i].id.substr(0,4)=='edge') {
      edges[i].setAttribute('class','edge');
    }
  }
}
]]></script>
        <defs>
                <circle id="rim" cx="0" cy="0" r="7"/>
                <circle id="rim2" cx="0" cy="0" r="3.5"/>
                <g id="zoomPlus">
                        <use xlink:href="#rim" fill="#404040">
                                <set attributeName="fill" to="#808080" begin="zoomplus.mouseover" end="zoomplus.mouseout"/>
                        </use>
                        <path d="M-4,0h8M0,-4v8" fill="none" stroke="white" stroke-width="1.5" pointer-events="none"/>
                </g>
                <g id="zoomMin">
                        <use xlink:href="#rim" fill="#404040">
                                <set attributeName="fill" to="#808080" begin="zoomminus.mouseover" end="zoomminus.mouseout"/>
                        </use>
                        <path d="M-4,0h8" fill="none" stroke="white" stroke-width="1.5" pointer-events="none"/>
                </g>
                <g id="dirArrow">
                        <path fill="none" stroke="white" stroke-width="1.5" d="M0,-3.0v7 M-2.5,-0.5L0,-3.0L2.5,-0.5"/>
                </g>
               <g id="resetDef">
                       <use xlink:href="#rim2" fill="#404040">
                               <set attributeName="fill" to="#808080" begin="reset.mouseover" end="reset.mouseout"/>
                       </use>
               </g>
        </defs>

<script type="text/javascript">
var viewWidth = 1743;
var viewHeight = 357;
var sectionId = 'dynsection-0';
</script>
<script xlink:href="svgpan.js"/>
<svg id="graph" class="graph">
<g id="viewport">
<title>C:/Users/juanh/OneDrive/Escritorio/Facultad/Beca/Proyecto/LAL Control Arduino/include/machine_state_pattern/machine_states/Alarm_state.h</title>
<!-- Node1 -->
<g id="node1" class="node">
<title>Node1</title>
<g id="a_node1"><a xlink:title="Clase de estado de control del motor.">
<polygon fill="#999999" stroke="#666666" points="164.23,-349 12.23,-349 12.23,-286 164.23,-286 164.23,-349"/>
<text text-anchor="start" x="20.23" y="-337" font-family="Helvetica,sans-Serif" font-size="10.00">C:/Users/juanh/OneDrive</text>
<text text-anchor="start" x="20.23" y="-326" font-family="Helvetica,sans-Serif" font-size="10.00">/Escritorio/Facultad/Beca</text>
<text text-anchor="start" x="20.23" y="-315" font-family="Helvetica,sans-Serif" font-size="10.00">/Proyecto/LAL Control Arduino</text>
<text text-anchor="start" x="20.23" y="-304" font-family="Helvetica,sans-Serif" font-size="10.00">/include/machine_state_pattern</text>
<text text-anchor="middle" x="88.23" y="-293" font-family="Helvetica,sans-Serif" font-size="10.00">/machine_states/Alarm_state.h</text>
</a>
</g>
</g>
<!-- Node2 -->
<g id="node2" class="node">
<title>Node2</title>
<g id="a_node2"><a xlink:href="_control__system_8h.html" target="_top" xlink:title="Clase para el sistema de control.">
<polygon fill="white" stroke="#666666" points="872.73,-250 779.73,-250 779.73,-231 872.73,-231 872.73,-250"/>
<text text-anchor="middle" x="826.23" y="-238" font-family="Helvetica,sans-Serif" font-size="10.00">Control_system.h</text>
</a>
</g>
</g>
<!-- Node1&#45;&gt;Node2 -->
<g id="edge1" class="edge">
<title>Node1&#45;&gt;Node2</title>
<path fill="none" stroke="#63b8ff" d="M164.43,-308.76C312.43,-293.72 635.82,-260.85 768.09,-247.41"/>
<polygon fill="#63b8ff" stroke="#63b8ff" points="768.44,-250.89 778.03,-246.4 767.73,-243.93 768.44,-250.89"/>
</g>
<!-- Node7 -->
<g id="node7" class="node">
<title>Node7</title>
<g id="a_node7"><a xlink:href="_abstract__state_8h.html" target="_top" xlink:title="Clase de estado abstracta.">
<polygon fill="white" stroke="#666666" points="153.23,-41 25.23,-41 25.23,0 153.23,0 153.23,-41"/>
<text text-anchor="start" x="33.23" y="-29" font-family="Helvetica,sans-Serif" font-size="10.00">machine_state_pattern</text>
<text text-anchor="start" x="33.23" y="-18" font-family="Helvetica,sans-Serif" font-size="10.00">/machine_states/Abstract</text>
<text text-anchor="middle" x="89.23" y="-7" font-family="Helvetica,sans-Serif" font-size="10.00">_state.h</text>
</a>
</g>
</g>
<!-- Node1&#45;&gt;Node7 -->
<g id="edge51" class="edge">
<title>Node1&#45;&gt;Node7</title>
<path fill="none" stroke="#63b8ff" d="M63.79,-285.75C29.73,-238.91 -23.94,-147.67 12.23,-77 18.16,-65.43 27.74,-55.72 38.17,-47.82"/>
<polygon fill="#63b8ff" stroke="#63b8ff" points="40.03,-50.79 46.24,-42.21 36.03,-45.05 40.03,-50.79"/>
</g>
<!-- Node30 -->
<g id="node30" class="node">
<title>Node30</title>
<g id="a_node30"><a xlink:href="_idle__state_8h.html" target="_top" xlink:title="Clase de estado de reposo.">
<polygon fill="white" stroke="#666666" points="147.23,-118 31.23,-118 31.23,-77 147.23,-77 147.23,-118"/>
<text text-anchor="start" x="39.23" y="-106" font-family="Helvetica,sans-Serif" font-size="10.00">machine_state_pattern</text>
<text text-anchor="start" x="39.23" y="-95" font-family="Helvetica,sans-Serif" font-size="10.00">/machine_states/Idle</text>
<text text-anchor="middle" x="89.23" y="-84" font-family="Helvetica,sans-Serif" font-size="10.00">_state.h</text>
</a>
</g>
</g>
<!-- Node1&#45;&gt;Node30 -->
<g id="edge52" class="edge">
<title>Node1&#45;&gt;Node30</title>
<path fill="none" stroke="#63b8ff" d="M83.5,-285.73C81.2,-244.39 81.53,-171.32 84.19,-129.74"/>
<polygon fill="#63b8ff" stroke="#63b8ff" points="87.67,-130.15 84.93,-119.92 80.69,-129.62 87.67,-130.15"/>
</g>
<!-- Node3 -->
<g id="node3" class="node">
<title>Node3</title>
<g id="a_node3"><a xlink:href="_subject_8h.html" target="_top" xlink:title=" ">
<polygon fill="white" stroke="#666666" points="1585.23,-112.5 1457.23,-112.5 1457.23,-82.5 1585.23,-82.5 1585.23,-112.5"/>
<text text-anchor="start" x="1465.23" y="-100.5" font-family="Helvetica,sans-Serif" font-size="10.00">observer_pattern/subjects</text>
<text text-anchor="middle" x="1521.23" y="-89.5" font-family="Helvetica,sans-Serif" font-size="10.00">/Subject.h</text>
</a>
</g>
</g>
<!-- Node2&#45;&gt;Node3 -->
<g id="edge2" class="edge">
<title>Node2&#45;&gt;Node3</title>
<path fill="none" stroke="#63b8ff" d="M873.08,-239.95C1020.65,-240.89 1468.88,-240 1514.23,-195 1532.44,-176.93 1531.42,-146.08 1527.63,-124.12"/>
<polygon fill="#63b8ff" stroke="#63b8ff" points="1531.08,-123.56 1525.65,-114.46 1524.23,-124.96 1531.08,-123.56"/>
</g>
<!-- Node6 -->
<g id="node6" class="node">
<title>Node6</title>
<g id="a_node6"><a xlink:href="_machine_8h.html" target="_top" xlink:title="Clase de máquina abstracta.">
<polygon fill="white" stroke="#666666" points="1505.23,-189.5 1389.23,-189.5 1389.23,-159.5 1505.23,-159.5 1505.23,-189.5"/>
<text text-anchor="start" x="1397.23" y="-177.5" font-family="Helvetica,sans-Serif" font-size="10.00">machine_state_pattern</text>
<text text-anchor="middle" x="1447.23" y="-166.5" font-family="Helvetica,sans-Serif" font-size="10.00">/Machine.h</text>
</a>
</g>
</g>
<!-- Node2&#45;&gt;Node6 -->
<g id="edge5" class="edge">
<title>Node2&#45;&gt;Node6</title>
<path fill="none" stroke="#63b8ff" d="M872.98,-238.94C968.88,-237.08 1194.46,-229.13 1380.23,-195 1383.81,-194.34 1387.47,-193.57 1391.14,-192.72"/>
<polygon fill="#63b8ff" stroke="#63b8ff" points="1391.8,-196.17 1400.65,-190.35 1390.1,-189.37 1391.8,-196.17"/>
</g>
<!-- Node8 -->
<g id="node8" class="node">
<title>Node8</title>
<g id="a_node8"><a xlink:href="_display_8h.html" target="_top" xlink:title="Controlador de LCD hd44780 por interfaz I2C.">
<polygon fill="white" stroke="#666666" points="541.23,-184 453.23,-184 453.23,-165 541.23,-165 541.23,-184"/>
<text text-anchor="middle" x="497.23" y="-172" font-family="Helvetica,sans-Serif" font-size="10.00">drivers/Display.h</text>
</a>
</g>
</g>
<!-- Node2&#45;&gt;Node8 -->
<g id="edge7" class="edge">
<title>Node2&#45;&gt;Node8</title>
<path fill="none" stroke="#63b8ff" d="M779.27,-234.72C723.89,-228.45 629.35,-215.72 550.23,-195 543.26,-193.17 535.93,-190.79 529.01,-188.32"/>
<polygon fill="#63b8ff" stroke="#63b8ff" points="530.61,-185.18 520.01,-184.96 528.16,-191.73 530.61,-185.18"/>
</g>
<!-- Node14 -->
<g id="node14" class="node">
<title>Node14</title>
<g id="a_node14"><a xlink:href="user__messages_8h.html" target="_top" xlink:title="Archivo para la configuración de interfaz con el usuario.">
<polygon fill="white" stroke="#666666" points="1371.23,-184 1277.23,-184 1277.23,-165 1371.23,-165 1371.23,-184"/>
<text text-anchor="middle" x="1324.23" y="-172" font-family="Helvetica,sans-Serif" font-size="10.00">user_messages.h</text>
</a>
</g>
</g>
<!-- Node2&#45;&gt;Node14 -->
<g id="edge13" class="edge">
<title>Node2&#45;&gt;Node14</title>
<path fill="none" stroke="#63b8ff" d="M872.97,-237.93C953.45,-234.51 1123.07,-224.21 1263.23,-195 1271.86,-193.2 1281,-190.65 1289.49,-187.98"/>
<polygon fill="#63b8ff" stroke="#63b8ff" points="1290.36,-191.38 1298.77,-184.93 1288.17,-184.73 1290.36,-191.38"/>
</g>
<!-- Node16 -->
<g id="node16" class="node">
<title>Node16</title>
<g id="a_node16"><a xlink:href="_system__observer_8h.html" target="_top" xlink:title="Clase observador del sistema de control.">
<polygon fill="white" stroke="#666666" points="1693.23,-189.5 1561.23,-189.5 1561.23,-159.5 1693.23,-159.5 1693.23,-189.5"/>
<text text-anchor="start" x="1569.23" y="-177.5" font-family="Helvetica,sans-Serif" font-size="10.00">observer_pattern/observers</text>
<text text-anchor="middle" x="1627.23" y="-166.5" font-family="Helvetica,sans-Serif" font-size="10.00">/System_observer.h</text>
</a>
</g>
</g>
<!-- Node2&#45;&gt;Node16 -->
<g id="edge15" class="edge">
<title>Node2&#45;&gt;Node16</title>
<path fill="none" stroke="#63b8ff" d="M873.04,-239.45C987.42,-238.64 1289.31,-232.71 1538.23,-195 1543.35,-194.22 1548.63,-193.28 1553.93,-192.22"/>
<polygon fill="#63b8ff" stroke="#63b8ff" points="1554.28,-195.73 1563.35,-190.24 1552.84,-188.88 1554.28,-195.73"/>
</g>
<!-- Node18 -->
<g id="node18" class="node">
<title>Node18</title>
<g id="a_node18"><a xlink:href="_temperature__sensor_8h.html" target="_top" xlink:title="Controlador para sensor de temperatura DS18B20.">
<polygon fill="white" stroke="#666666" points="660.73,-189.5 559.73,-189.5 559.73,-159.5 660.73,-159.5 660.73,-189.5"/>
<text text-anchor="start" x="567.73" y="-177.5" font-family="Helvetica,sans-Serif" font-size="10.00">drivers/Temperature</text>
<text text-anchor="middle" x="610.23" y="-166.5" font-family="Helvetica,sans-Serif" font-size="10.00">_sensor.h</text>
</a>
</g>
</g>
<!-- Node2&#45;&gt;Node18 -->
<g id="edge20" class="edge">
<title>Node2&#45;&gt;Node18</title>
<path fill="none" stroke="#63b8ff" d="M793.03,-230.54C761.17,-221.83 711.76,-208.05 669.23,-195 667.46,-194.46 665.66,-193.9 663.84,-193.33"/>
<polygon fill="#63b8ff" stroke="#63b8ff" points="665.38,-190.14 654.79,-190.44 663.25,-196.81 665.38,-190.14"/>
</g>
<!-- Node21 -->
<g id="node21" class="node">
<title>Node21</title>
<g id="a_node21"><a xlink:href="_moisture__sensor_8h.html" target="_top" xlink:title="Controlador de sensor de humedad analógico.">
<polygon fill="white" stroke="#666666" points="1019.23,-184 891.23,-184 891.23,-165 1019.23,-165 1019.23,-184"/>
<text text-anchor="middle" x="955.23" y="-172" font-family="Helvetica,sans-Serif" font-size="10.00">drivers/Moisture_sensor.h</text>
</a>
</g>
</g>
<!-- Node2&#45;&gt;Node21 -->
<g id="edge24" class="edge">
<title>Node2&#45;&gt;Node21</title>
<path fill="none" stroke="#63b8ff" d="M844.17,-230.6C865.74,-219.9 902.17,-201.83 927.4,-189.31"/>
<polygon fill="#63b8ff" stroke="#63b8ff" points="928.69,-192.58 936.09,-185 925.58,-186.31 928.69,-192.58"/>
</g>
<!-- Node23 -->
<g id="node23" class="node">
<title>Node23</title>
<g id="a_node23"><a xlink:href="types_8h.html" target="_top" xlink:title="Archivo de definición de tipos de dato.">
<polygon fill="white" stroke="#666666" points="1070.73,-107 1021.73,-107 1021.73,-88 1070.73,-88 1070.73,-107"/>
<text text-anchor="middle" x="1046.23" y="-95" font-family="Helvetica,sans-Serif" font-size="10.00">types.h</text>
</a>
</g>
</g>
<!-- Node2&#45;&gt;Node23 -->
<g id="edge26" class="edge">
<title>Node2&#45;&gt;Node23</title>
<path fill="none" stroke="#63b8ff" d="M873.15,-237.78C974.52,-233.6 1206.75,-221.21 1230.23,-195 1242.39,-181.43 1241.1,-168.63 1230.23,-154 1227.96,-150.94 1134.84,-123.87 1081.97,-108.7"/>
<polygon fill="#63b8ff" stroke="#63b8ff" points="1083.07,-105.37 1072.49,-105.98 1081.14,-112.1 1083.07,-105.37"/>
</g>
<!-- Node24 -->
<g id="node24" class="node">
<title>Node24</title>
<g id="a_node24"><a xlink:href="_buzzer_8h.html" target="_top" xlink:title="Controlador de Buzzer de 12 milimetros.">
<polygon fill="white" stroke="#666666" points="1123.23,-184 1037.23,-184 1037.23,-165 1123.23,-165 1123.23,-184"/>
<text text-anchor="middle" x="1080.23" y="-172" font-family="Helvetica,sans-Serif" font-size="10.00">drivers/Buzzer.h</text>
</a>
</g>
</g>
<!-- Node2&#45;&gt;Node24 -->
<g id="edge27" class="edge">
<title>Node2&#45;&gt;Node24</title>
<path fill="none" stroke="#63b8ff" d="M872.84,-231.18C914.09,-223.36 975.72,-210.54 1028.23,-195 1034.69,-193.09 1041.49,-190.77 1047.97,-188.41"/>
<polygon fill="#63b8ff" stroke="#63b8ff" points="1048.92,-191.79 1057.04,-184.99 1046.45,-185.24 1048.92,-191.79"/>
</g>
<!-- Node26 -->
<g id="node26" class="node">
<title>Node26</title>
<g id="a_node26"><a xlink:href="_motor_8h.html" target="_top" xlink:title="Controlador de motor de 220 VAC.">
<polygon fill="white" stroke="#666666" points="1221.23,-184 1141.23,-184 1141.23,-165 1221.23,-165 1221.23,-184"/>
<text text-anchor="middle" x="1181.23" y="-172" font-family="Helvetica,sans-Serif" font-size="10.00">drivers/Motor.h</text>
</a>
</g>
</g>
<!-- Node2&#45;&gt;Node26 -->
<g id="edge30" class="edge">
<title>Node2&#45;&gt;Node26</title>
<path fill="none" stroke="#63b8ff" d="M873.06,-236.12C933.69,-230.96 1042.26,-219.09 1132.23,-195 1138.69,-193.27 1145.46,-190.94 1151.82,-188.49"/>
<polygon fill="#63b8ff" stroke="#63b8ff" points="1152.68,-191.92 1160.64,-184.92 1150.05,-185.43 1152.68,-191.92"/>
</g>
<!-- Node27 -->
<g id="node27" class="node">
<title>Node27</title>
<g id="a_node27"><a xlink:href="_dual___l_e_d_8h.html" target="_top" xlink:title="Controlador de LED RG.">
<polygon fill="white" stroke="#666666" points="872.73,-184 779.73,-184 779.73,-165 872.73,-165 872.73,-184"/>
<text text-anchor="middle" x="826.23" y="-172" font-family="Helvetica,sans-Serif" font-size="10.00">drivers/Dual_led.h</text>
</a>
</g>
</g>
<!-- Node2&#45;&gt;Node27 -->
<g id="edge33" class="edge">
<title>Node2&#45;&gt;Node27</title>
<path fill="none" stroke="#63b8ff" d="M826.23,-230.6C826.23,-221.62 826.23,-207.45 826.23,-195.72"/>
<polygon fill="#63b8ff" stroke="#63b8ff" points="829.73,-195.84 826.23,-185.84 822.73,-195.84 829.73,-195.84"/>
</g>
<!-- Node28 -->
<g id="node28" class="node">
<title>Node28</title>
<g id="a_node28"><a xlink:href="_cooler_8h.html" target="_top" xlink:title="Controlador de ventilador de 12 volts y 5 milímteros.">
<polygon fill="white" stroke="#666666" points="761.73,-184 678.73,-184 678.73,-165 761.73,-165 761.73,-184"/>
<text text-anchor="middle" x="720.23" y="-172" font-family="Helvetica,sans-Serif" font-size="10.00">drivers/Cooler.h</text>
</a>
</g>
</g>
<!-- Node2&#45;&gt;Node28 -->
<g id="edge37" class="edge">
<title>Node2&#45;&gt;Node28</title>
<path fill="none" stroke="#63b8ff" d="M811.5,-230.6C794.17,-220.14 765.17,-202.63 744.51,-190.16"/>
<polygon fill="#63b8ff" stroke="#63b8ff" points="746.51,-187.28 736.14,-185.11 742.9,-193.27 746.51,-187.28"/>
</g>
<!-- Node29 -->
<g id="node29" class="node">
<title>Node29</title>
<g id="a_node29"><a xlink:href="_shutdown__state_8h.html" target="_top" xlink:title="Clase de estado de apagado del sistema.">
<polygon fill="white" stroke="#666666" points="435.23,-195 301.23,-195 301.23,-154 435.23,-154 435.23,-195"/>
<text text-anchor="start" x="309.23" y="-183" font-family="Helvetica,sans-Serif" font-size="10.00">machine_state_pattern</text>
<text text-anchor="start" x="309.23" y="-172" font-family="Helvetica,sans-Serif" font-size="10.00">/machine_states/Shutdown</text>
<text text-anchor="middle" x="368.23" y="-161" font-family="Helvetica,sans-Serif" font-size="10.00">_state.h</text>
</a>
</g>
</g>
<!-- Node2&#45;&gt;Node29 -->
<g id="edge40" class="edge">
<title>Node2&#45;&gt;Node29</title>
<path fill="none" stroke="#63b8ff" d="M779.5,-236.53C707.94,-231.24 567.29,-218.64 446.82,-197.11"/>
<polygon fill="#63b8ff" stroke="#63b8ff" points="447.55,-193.69 437.08,-195.34 446.3,-200.57 447.55,-193.69"/>
</g>
<!-- Node31 -->
<g id="node31" class="node">
<title>Node31</title>
<g id="a_node31"><a xlink:href="_check__instruction__state_8h_source.html" target="_top" xlink:title=" ">
<polygon fill="white" stroke="#666666" points="244.73,-195 125.73,-195 125.73,-154 244.73,-154 244.73,-195"/>
<text text-anchor="start" x="133.73" y="-183" font-family="Helvetica,sans-Serif" font-size="10.00">machine_state_pattern</text>
<text text-anchor="start" x="133.73" y="-172" font-family="Helvetica,sans-Serif" font-size="10.00">/machine_states/Check</text>
<text text-anchor="middle" x="185.23" y="-161" font-family="Helvetica,sans-Serif" font-size="10.00">_instruction_state.h</text>
</a>
</g>
</g>
<!-- Node2&#45;&gt;Node31 -->
<g id="edge47" class="edge">
<title>Node2&#45;&gt;Node31</title>
<path fill="none" stroke="#63b8ff" d="M779.58,-238.78C682.73,-236.63 453.41,-228.29 256.23,-195.93"/>
<polygon fill="#63b8ff" stroke="#63b8ff" points="257.01,-192.52 246.57,-194.32 255.86,-199.42 257.01,-192.52"/>
</g>
<!-- Node4 -->
<g id="node4" class="node">
<title>Node4</title>
<g id="a_node4"><a xlink:href="_subject__interface_8h.html" target="_top" xlink:title="Clase para interfaz para implementar el sujeto.">
<polygon fill="white" stroke="#666666" points="1733.23,-35.5 1605.23,-35.5 1605.23,-5.5 1733.23,-5.5 1733.23,-35.5"/>
<text text-anchor="start" x="1613.23" y="-23.5" font-family="Helvetica,sans-Serif" font-size="10.00">observer_pattern/subjects</text>
<text text-anchor="middle" x="1669.23" y="-12.5" font-family="Helvetica,sans-Serif" font-size="10.00">/Subject_interface.h</text>
</a>
</g>
</g>
<!-- Node3&#45;&gt;Node4 -->
<g id="edge3" class="edge">
<title>Node3&#45;&gt;Node4</title>
<path fill="none" stroke="#63b8ff" d="M1549.77,-82.04C1572.8,-70.37 1605.43,-53.83 1630.77,-40.99"/>
<polygon fill="#63b8ff" stroke="#63b8ff" points="1632.1,-44.24 1639.44,-36.6 1628.93,-38 1632.1,-44.24"/>
</g>
<!-- Node5 -->
<g id="node5" class="node">
<title>Node5</title>
<g id="a_node5"><a xlink:href="_observer__interface_8h.html" target="_top" xlink:title="Clase para interfaz para implementar el observador.">
<polygon fill="white" stroke="#666666" points="1587.23,-35.5 1455.23,-35.5 1455.23,-5.5 1587.23,-5.5 1587.23,-35.5"/>
<text text-anchor="start" x="1463.23" y="-23.5" font-family="Helvetica,sans-Serif" font-size="10.00">observer_pattern/observers</text>
<text text-anchor="middle" x="1521.23" y="-12.5" font-family="Helvetica,sans-Serif" font-size="10.00">/Observer_interface.h</text>
</a>
</g>
</g>
<!-- Node3&#45;&gt;Node5 -->
<g id="edge4" class="edge">
<title>Node3&#45;&gt;Node5</title>
<path fill="none" stroke="#63b8ff" d="M1521.23,-82.04C1521.23,-72.18 1521.23,-58.86 1521.23,-47.22"/>
<polygon fill="#63b8ff" stroke="#63b8ff" points="1524.73,-47.43 1521.23,-37.43 1517.73,-47.43 1524.73,-47.43"/>
</g>
<!-- Node6&#45;&gt;Node7 -->
<g id="edge6" class="edge">
<title>Node6&#45;&gt;Node7</title>
<path fill="none" stroke="#63b8ff" d="M1441.56,-159.17C1431.91,-136.98 1410.01,-95 1376.23,-77 1269.52,-20.11 424.48,-19.73 164.84,-20.99"/>
<polygon fill="#63b8ff" stroke="#63b8ff" points="165.15,-17.48 155.17,-21.03 165.19,-24.48 165.15,-17.48"/>
</g>
<!-- Node9 -->
<g id="node9" class="node">
<title>Node9</title>
<g id="a_node9"><a xlink:title=" ">
<polygon fill="#e0e0e0" stroke="#999999" points="361.73,-107 316.73,-107 316.73,-88 361.73,-88 361.73,-107"/>
<text text-anchor="middle" x="339.23" y="-95" font-family="Helvetica,sans-Serif" font-size="10.00">Wire.h</text>
</a>
</g>
</g>
<!-- Node8&#45;&gt;Node9 -->
<g id="edge8" class="edge">
<title>Node8&#45;&gt;Node9</title>
<path fill="none" stroke="#63b8ff" d="M474.51,-164.55C448.95,-154.25 406.41,-136.36 371.23,-118 368.46,-116.55 365.61,-114.96 362.79,-113.34"/>
<polygon fill="#63b8ff" stroke="#63b8ff" points="364.69,-110.39 354.32,-108.23 361.08,-116.39 364.69,-110.39"/>
</g>
<!-- Node10 -->
<g id="node10" class="node">
<title>Node10</title>
<g id="a_node10"><a xlink:title=" ">
<polygon fill="#e0e0e0" stroke="#999999" points="442.23,-107 380.23,-107 380.23,-88 442.23,-88 442.23,-107"/>
<text text-anchor="middle" x="411.23" y="-95" font-family="Helvetica,sans-Serif" font-size="10.00">hd44780.h</text>
</a>
</g>
</g>
<!-- Node8&#45;&gt;Node10 -->
<g id="edge9" class="edge">
<title>Node8&#45;&gt;Node10</title>
<path fill="none" stroke="#63b8ff" d="M487.03,-164.6C472.94,-152.31 447.27,-129.92 429.74,-114.64"/>
<polygon fill="#63b8ff" stroke="#63b8ff" points="432.4,-112.32 422.57,-108.38 427.8,-117.59 432.4,-112.32"/>
</g>
<!-- Node11 -->
<g id="node11" class="node">
<title>Node11</title>
<g id="a_node11"><a xlink:title=" ">
<polygon fill="#e0e0e0" stroke="#999999" points="585.73,-112.5 460.73,-112.5 460.73,-82.5 585.73,-82.5 585.73,-112.5"/>
<text text-anchor="start" x="468.73" y="-100.5" font-family="Helvetica,sans-Serif" font-size="10.00">hd44780ioClass/hd44780</text>
<text text-anchor="middle" x="523.23" y="-89.5" font-family="Helvetica,sans-Serif" font-size="10.00">_I2Cexp.h</text>
</a>
</g>
</g>
<!-- Node8&#45;&gt;Node11 -->
<g id="edge10" class="edge">
<title>Node8&#45;&gt;Node11</title>
<path fill="none" stroke="#63b8ff" d="M500.32,-164.6C503.82,-154.5 509.69,-137.57 514.61,-123.38"/>
<polygon fill="#63b8ff" stroke="#63b8ff" points="517.83,-124.79 517.79,-114.2 511.21,-122.5 517.83,-124.79"/>
</g>
<!-- Node12 -->
<g id="node12" class="node">
<title>Node12</title>
<g id="a_node12"><a xlink:href="display__settings_8h.html" target="_top" xlink:title="Archivo de configuración de la pantalla.">
<polygon fill="white" stroke="#666666" points="298.73,-107 203.73,-107 203.73,-88 298.73,-88 298.73,-107"/>
<text text-anchor="middle" x="251.23" y="-95" font-family="Helvetica,sans-Serif" font-size="10.00">display_settings.h</text>
</a>
</g>
</g>
<!-- Node8&#45;&gt;Node12 -->
<g id="edge11" class="edge">
<title>Node8&#45;&gt;Node12</title>
<path fill="none" stroke="#63b8ff" d="M474.44,-164.57C465.14,-161.07 454.24,-157.15 444.23,-154 384.18,-135.11 367.45,-136.37 307.23,-118 300.38,-115.91 293.12,-113.52 286.18,-111.14"/>
<polygon fill="#63b8ff" stroke="#63b8ff" points="287.66,-107.95 277.06,-107.96 285.35,-114.56 287.66,-107.95"/>
</g>
<!-- Node13 -->
<g id="node13" class="node">
<title>Node13</title>
<g id="a_node13"><a xlink:href="system__settings_8h.html" target="_top" xlink:title="Archivo para la definición de constantes del sistema.">
<polygon fill="white" stroke="#666666" points="906.73,-107 809.73,-107 809.73,-88 906.73,-88 906.73,-107"/>
<text text-anchor="middle" x="858.23" y="-95" font-family="Helvetica,sans-Serif" font-size="10.00">system_settings.h</text>
</a>
</g>
</g>
<!-- Node8&#45;&gt;Node13 -->
<g id="edge12" class="edge">
<title>Node8&#45;&gt;Node13</title>
<path fill="none" stroke="#63b8ff" d="M518.32,-164.59C527.91,-160.83 539.49,-156.72 550.23,-154 659.06,-126.47 691.03,-143.99 800.23,-118 808.01,-116.15 816.23,-113.7 823.95,-111.17"/>
<polygon fill="#63b8ff" stroke="#63b8ff" points="825.05,-114.49 833.38,-107.94 822.79,-107.87 825.05,-114.49"/>
</g>
<!-- Node15 -->
<g id="node15" class="node">
<title>Node15</title>
<g id="a_node15"><a xlink:title=" ">
<polygon fill="#e0e0e0" stroke="#999999" points="1366.73,-107 1281.73,-107 1281.73,-88 1366.73,-88 1366.73,-107"/>
<text text-anchor="middle" x="1324.23" y="-95" font-family="Helvetica,sans-Serif" font-size="10.00">avr/pgmspace.h</text>
</a>
</g>
</g>
<!-- Node14&#45;&gt;Node15 -->
<g id="edge14" class="edge">
<title>Node14&#45;&gt;Node15</title>
<path fill="none" stroke="#63b8ff" d="M1324.23,-164.6C1324.23,-153.33 1324.23,-133.55 1324.23,-118.56"/>
<polygon fill="#63b8ff" stroke="#63b8ff" points="1327.73,-118.9 1324.23,-108.9 1320.73,-118.9 1327.73,-118.9"/>
</g>
<!-- Node16&#45;&gt;Node2 -->
<g id="edge19" class="edge">
<title>Node16&#45;&gt;Node2</title>
<path fill="none" stroke="#63b8ff" d="M1582.58,-189.93C1573.91,-191.9 1564.86,-193.69 1556.23,-195 1308.78,-232.49 1008.99,-238.57 884.57,-239.43"/>
<polygon fill="#63b8ff" stroke="#63b8ff" points="884.57,-235.93 874.59,-239.49 884.62,-242.93 884.57,-235.93"/>
</g>
<!-- Node17 -->
<g id="node17" class="node">
<title>Node17</title>
<g id="a_node17"><a xlink:href="_observer_8h.html" target="_top" xlink:title="Clase observador.">
<polygon fill="white" stroke="#666666" points="1735.23,-112.5 1603.23,-112.5 1603.23,-82.5 1735.23,-82.5 1735.23,-112.5"/>
<text text-anchor="start" x="1611.23" y="-100.5" font-family="Helvetica,sans-Serif" font-size="10.00">observer_pattern/observers</text>
<text text-anchor="middle" x="1669.23" y="-89.5" font-family="Helvetica,sans-Serif" font-size="10.00">/Observer.h</text>
</a>
</g>
</g>
<!-- Node16&#45;&gt;Node17 -->
<g id="edge16" class="edge">
<title>Node16&#45;&gt;Node17</title>
<path fill="none" stroke="#63b8ff" d="M1635.33,-159.04C1641.09,-148.77 1648.95,-134.73 1655.65,-122.76"/>
<polygon fill="#63b8ff" stroke="#63b8ff" points="1658.59,-124.67 1660.42,-114.24 1652.48,-121.25 1658.59,-124.67"/>
</g>
<!-- Node17&#45;&gt;Node4 -->
<g id="edge17" class="edge">
<title>Node17&#45;&gt;Node4</title>
<path fill="none" stroke="#63b8ff" d="M1669.23,-82.04C1669.23,-72.18 1669.23,-58.86 1669.23,-47.22"/>
<polygon fill="#63b8ff" stroke="#63b8ff" points="1672.73,-47.43 1669.23,-37.43 1665.73,-47.43 1672.73,-47.43"/>
</g>
<!-- Node17&#45;&gt;Node5 -->
<g id="edge18" class="edge">
<title>Node17&#45;&gt;Node5</title>
<path fill="none" stroke="#63b8ff" d="M1640.7,-82.04C1617.67,-70.37 1585.04,-53.83 1559.7,-40.99"/>
<polygon fill="#63b8ff" stroke="#63b8ff" points="1561.54,-38 1551.03,-36.6 1558.37,-44.24 1561.54,-38"/>
</g>
<!-- Node18&#45;&gt;Node13 -->
<g id="edge21" class="edge">
<title>Node18&#45;&gt;Node13</title>
<path fill="none" stroke="#63b8ff" d="M653.01,-159.08C658.46,-157.32 663.97,-155.59 669.23,-154 727.03,-136.52 742.48,-135.63 800.23,-118 807.24,-115.86 814.67,-113.46 821.8,-111.1"/>
<polygon fill="#63b8ff" stroke="#63b8ff" points="822.84,-114.44 831.2,-107.93 820.61,-107.8 822.84,-114.44"/>
</g>
<!-- Node19 -->
<g id="node19" class="node">
<title>Node19</title>
<g id="a_node19"><a xlink:title=" ">
<polygon fill="#e0e0e0" stroke="#999999" points="791.73,-107 728.73,-107 728.73,-88 791.73,-88 791.73,-107"/>
<text text-anchor="middle" x="760.23" y="-95" font-family="Helvetica,sans-Serif" font-size="10.00">OneWire.h</text>
</a>
</g>
</g>
<!-- Node18&#45;&gt;Node19 -->
<g id="edge22" class="edge">
<title>Node18&#45;&gt;Node19</title>
<path fill="none" stroke="#63b8ff" d="M639.16,-159.04C666.09,-145.57 705.98,-125.63 732.52,-112.36"/>
<polygon fill="#63b8ff" stroke="#63b8ff" points="733.93,-115.57 741.31,-107.96 730.8,-109.31 733.93,-115.57"/>
</g>
<!-- Node20 -->
<g id="node20" class="node">
<title>Node20</title>
<g id="a_node20"><a xlink:title=" ">
<polygon fill="#e0e0e0" stroke="#999999" points="710.23,-107 604.23,-107 604.23,-88 710.23,-88 710.23,-107"/>
<text text-anchor="middle" x="657.23" y="-95" font-family="Helvetica,sans-Serif" font-size="10.00">DallasTemperature.h</text>
</a>
</g>
</g>
<!-- Node18&#45;&gt;Node20 -->
<g id="edge23" class="edge">
<title>Node18&#45;&gt;Node20</title>
<path fill="none" stroke="#63b8ff" d="M619.3,-159.04C626.8,-147.07 637.51,-129.98 645.63,-117.01"/>
<polygon fill="#63b8ff" stroke="#63b8ff" points="648.58,-118.9 650.92,-108.57 642.65,-115.18 648.58,-118.9"/>
</g>
<!-- Node22 -->
<g id="node22" class="node">
<title>Node22</title>
<g id="a_node22"><a xlink:title=" ">
<polygon fill="#e0e0e0" stroke="#999999" points="984.23,-107 926.23,-107 926.23,-88 984.23,-88 984.23,-107"/>
<text text-anchor="middle" x="955.23" y="-95" font-family="Helvetica,sans-Serif" font-size="10.00">Arduino.h</text>
</a>
</g>
</g>
<!-- Node21&#45;&gt;Node22 -->
<g id="edge25" class="edge">
<title>Node21&#45;&gt;Node22</title>
<path fill="none" stroke="#63b8ff" d="M955.23,-164.6C955.23,-153.33 955.23,-133.55 955.23,-118.56"/>
<polygon fill="#63b8ff" stroke="#63b8ff" points="958.73,-118.9 955.23,-108.9 951.73,-118.9 958.73,-118.9"/>
</g>
<!-- Node24&#45;&gt;Node22 -->
<g id="edge28" class="edge">
<title>Node24&#45;&gt;Node22</title>
<path fill="none" stroke="#63b8ff" d="M1065.4,-164.6C1044.26,-151.92 1005.2,-128.48 979.72,-113.19"/>
<polygon fill="#63b8ff" stroke="#63b8ff" points="981.72,-110.31 971.34,-108.17 978.12,-116.31 981.72,-110.31"/>
</g>
<!-- Node25 -->
<g id="node25" class="node">
<title>Node25</title>
<g id="a_node25"><a xlink:href="port__config_8h.html" target="_top" xlink:title="Archivo de configuración para los puertos de la placa donde se implementará el sistema.">
<polygon fill="white" stroke="#666666" points="1198.23,-107 1126.23,-107 1126.23,-88 1198.23,-88 1198.23,-107"/>
<text text-anchor="middle" x="1162.23" y="-95" font-family="Helvetica,sans-Serif" font-size="10.00">port_config.h</text>
</a>
</g>
</g>
<!-- Node24&#45;&gt;Node25 -->
<g id="edge29" class="edge">
<title>Node24&#45;&gt;Node25</title>
<path fill="none" stroke="#63b8ff" d="M1089.96,-164.6C1103.28,-152.42 1127.43,-130.33 1144.13,-115.06"/>
<polygon fill="#63b8ff" stroke="#63b8ff" points="1146.39,-117.74 1151.4,-108.41 1141.66,-112.57 1146.39,-117.74"/>
</g>
<!-- Node26&#45;&gt;Node22 -->
<g id="edge31" class="edge">
<title>Node26&#45;&gt;Node22</title>
<path fill="none" stroke="#63b8ff" d="M1159.92,-164.55C1151.38,-161.08 1141.4,-157.19 1132.23,-154 1079.65,-135.69 1065.25,-135.01 1012.23,-118 1005.44,-115.82 998.21,-113.41 991.27,-111.06"/>
<polygon fill="#63b8ff" stroke="#63b8ff" points="992.73,-107.86 982.13,-107.93 990.46,-114.48 992.73,-107.86"/>
</g>
<!-- Node26&#45;&gt;Node25 -->
<g id="edge32" class="edge">
<title>Node26&#45;&gt;Node25</title>
<path fill="none" stroke="#63b8ff" d="M1178.98,-164.6C1176.1,-153.21 1171.01,-133.16 1167.2,-118.11"/>
<polygon fill="#63b8ff" stroke="#63b8ff" points="1170.71,-117.69 1164.86,-108.85 1163.92,-119.41 1170.71,-117.69"/>
</g>
<!-- Node27&#45;&gt;Node13 -->
<g id="edge36" class="edge">
<title>Node27&#45;&gt;Node13</title>
<path fill="none" stroke="#63b8ff" d="M830.03,-164.6C834.94,-153.1 843.62,-132.76 850.06,-117.67"/>
<polygon fill="#63b8ff" stroke="#63b8ff" points="853.14,-119.35 853.85,-108.78 846.71,-116.6 853.14,-119.35"/>
</g>
<!-- Node27&#45;&gt;Node22 -->
<g id="edge34" class="edge">
<title>Node27&#45;&gt;Node22</title>
<path fill="none" stroke="#63b8ff" d="M841.54,-164.6C863.46,-151.86 904.03,-128.27 930.32,-112.99"/>
<polygon fill="#63b8ff" stroke="#63b8ff" points="931.76,-116.2 938.64,-108.15 928.24,-110.15 931.76,-116.2"/>
</g>
<!-- Node27&#45;&gt;Node23 -->
<g id="edge35" class="edge">
<title>Node27&#45;&gt;Node23</title>
<path fill="none" stroke="#63b8ff" d="M851.56,-164.55C861.16,-161.2 872.18,-157.38 882.23,-154 931.39,-137.47 944.22,-134.96 993.23,-118 999.26,-115.92 1005.64,-113.63 1011.81,-111.39"/>
<polygon fill="#63b8ff" stroke="#63b8ff" points="1012.96,-114.69 1021.14,-107.96 1010.55,-108.12 1012.96,-114.69"/>
</g>
<!-- Node28&#45;&gt;Node13 -->
<g id="edge39" class="edge">
<title>Node28&#45;&gt;Node13</title>
<path fill="none" stroke="#63b8ff" d="M736.61,-164.6C760.16,-151.8 803.85,-128.06 831.95,-112.79"/>
<polygon fill="#63b8ff" stroke="#63b8ff" points="833.44,-115.96 840.55,-108.11 830.1,-109.81 833.44,-115.96"/>
</g>
<!-- Node28&#45;&gt;Node22 -->
<g id="edge38" class="edge">
<title>Node28&#45;&gt;Node22</title>
<path fill="none" stroke="#63b8ff" d="M741.43,-164.54C750.25,-160.99 760.64,-157.05 770.23,-154 833.52,-133.9 852.82,-140.67 915.23,-118 919.6,-116.41 924.13,-114.5 928.49,-112.49"/>
<polygon fill="#63b8ff" stroke="#63b8ff" points="930.01,-115.64 937.48,-108.12 926.95,-109.35 930.01,-115.64"/>
</g>
<!-- Node29&#45;&gt;Node2 -->
<g id="edge41" class="edge">
<title>Node29&#45;&gt;Node2</title>
<path fill="none" stroke="#63b8ff" d="M435.52,-191.31C441.51,-192.67 447.48,-193.93 453.23,-195 563.84,-215.53 694.32,-228.32 768.04,-234.65"/>
<polygon fill="#63b8ff" stroke="#63b8ff" points="767.61,-238.13 777.87,-235.49 768.2,-231.15 767.61,-238.13"/>
</g>
<!-- Node29&#45;&gt;Node7 -->
<g id="edge42" class="edge">
<title>Node29&#45;&gt;Node7</title>
<path fill="none" stroke="#63b8ff" d="M300.92,-155.84C260.05,-144.39 212.37,-129.52 194.23,-118 173.26,-104.68 174.28,-94.07 156.23,-77 145.95,-67.27 134.21,-57.22 123.46,-48.4"/>
<polygon fill="#63b8ff" stroke="#63b8ff" points="125.87,-45.84 115.9,-42.26 121.46,-51.28 125.87,-45.84"/>
</g>
<!-- Node29&#45;&gt;Node30 -->
<g id="edge43" class="edge">
<title>Node29&#45;&gt;Node30</title>
<path fill="none" stroke="#63b8ff" d="M301.1,-155.55C260.59,-144.7 207.94,-130.59 161.23,-118 160.25,-117.73 159.26,-117.47 158.26,-117.2"/>
<polygon fill="#63b8ff" stroke="#63b8ff" points="159.42,-113.89 148.85,-114.66 157.59,-120.64 159.42,-113.89"/>
</g>
<!-- Node30&#45;&gt;Node1 -->
<g id="edge46" class="edge">
<title>Node30&#45;&gt;Node1</title>
<path fill="none" stroke="#63b8ff" d="M93.24,-118.41C96.08,-153.6 96.2,-227.5 93.89,-274.42"/>
<polygon fill="#63b8ff" stroke="#63b8ff" points="90.4,-274.04 93.33,-284.22 97.39,-274.43 90.4,-274.04"/>
</g>
<!-- Node30&#45;&gt;Node2 -->
<g id="edge44" class="edge">
<title>Node30&#45;&gt;Node2</title>
<path fill="none" stroke="#63b8ff" d="M147.61,-116.74C190.87,-130.52 243.89,-148.03 253.23,-154 274.43,-167.54 269.55,-184.13 292.23,-195 375.04,-234.67 647.61,-239.62 768.09,-239.81"/>
<polygon fill="#63b8ff" stroke="#63b8ff" points="767.75,-243.31 777.75,-239.81 767.75,-236.31 767.75,-243.31"/>
</g>
<!-- Node30&#45;&gt;Node7 -->
<g id="edge45" class="edge">
<title>Node30&#45;&gt;Node7</title>
<path fill="none" stroke="#63b8ff" d="M89.23,-76.79C89.23,-69.45 89.23,-60.91 89.23,-52.78"/>
<polygon fill="#63b8ff" stroke="#63b8ff" points="92.73,-52.85 89.23,-42.85 85.73,-52.85 92.73,-52.85"/>
</g>
<!-- Node31&#45;&gt;Node1 -->
<g id="edge50" class="edge">
<title>Node31&#45;&gt;Node1</title>
<path fill="none" stroke="#63b8ff" d="M171.48,-195.5C157.1,-216.4 134.14,-249.77 115.97,-276.18"/>
<polygon fill="#63b8ff" stroke="#63b8ff" points="113.16,-274.09 110.38,-284.31 118.93,-278.05 113.16,-274.09"/>
</g>
<!-- Node31&#45;&gt;Node2 -->
<g id="edge48" class="edge">
<title>Node31&#45;&gt;Node2</title>
<path fill="none" stroke="#63b8ff" d="M245.23,-190.23C252.96,-192.06 260.77,-193.73 268.23,-195 449.15,-225.68 666.19,-235.27 768.13,-238.22"/>
<polygon fill="#63b8ff" stroke="#63b8ff" points="767.79,-241.71 777.89,-238.49 767.99,-234.71 767.79,-241.71"/>
</g>
<!-- Node31&#45;&gt;Node7 -->
<g id="edge49" class="edge">
<title>Node31&#45;&gt;Node7</title>
<path fill="none" stroke="#63b8ff" d="M125.35,-169.89C89.12,-164.25 45.55,-150.57 22.23,-118 11.63,-103.18 14.48,-93.49 22.23,-77 27.4,-66.02 35.92,-56.47 45.18,-48.52"/>
<polygon fill="#63b8ff" stroke="#63b8ff" points="47.33,-51.29 53.01,-42.35 42.99,-45.79 47.33,-51.29"/>
</g>
</g>
</svg>
        <g id="navigator" transform="translate(0 0)" fill="#404254">
                <rect fill="#f2f5e9" fill-opacity="0.5" stroke="#606060" stroke-width=".5" x="0" y="0" width="60" height="60"/>
                <use id="zoomplus" xlink:href="#zoomPlus" x="17" y="9" onmousedown="handleZoom(evt,'in')"/>
                <use id="zoomminus" xlink:href="#zoomMin" x="42" y="9" onmousedown="handleZoom(evt,'out')"/>
                <use id="reset" xlink:href="#resetDef" x="30" y="36" onmousedown="handleReset()"/>
                <g id="arrowUp" xlink:href="#dirArrow" transform="translate(30 24)" onmousedown="handlePan(0,-1)">
                  <use xlink:href="#rim" fill="#404040">
                        <set attributeName="fill" to="#808080" begin="arrowUp.mouseover" end="arrowUp.mouseout"/>
                  </use>
                  <path fill="none" stroke="white" stroke-width="1.5" d="M0,-3.0v7 M-2.5,-0.5L0,-3.0L2.5,-0.5"/>
                </g>
                <g id="arrowRight" xlink:href="#dirArrow" transform="rotate(90) translate(36 -43)" onmousedown="handlePan(1,0)">
                  <use xlink:href="#rim" fill="#404040">
                        <set attributeName="fill" to="#808080" begin="arrowRight.mouseover" end="arrowRight.mouseout"/>
                  </use>
                  <path fill="none" stroke="white" stroke-width="1.5" d="M0,-3.0v7 M-2.5,-0.5L0,-3.0L2.5,-0.5"/>
                </g>
                <g id="arrowDown" xlink:href="#dirArrow" transform="rotate(180) translate(-30 -48)" onmousedown="handlePan(0,1)">
                  <use xlink:href="#rim" fill="#404040">
                        <set attributeName="fill" to="#808080" begin="arrowDown.mouseover" end="arrowDown.mouseout"/>
                  </use>
                  <path fill="none" stroke="white" stroke-width="1.5" d="M0,-3.0v7 M-2.5,-0.5L0,-3.0L2.5,-0.5"/>
                </g>
                <g id="arrowLeft" xlink:href="#dirArrow" transform="rotate(270) translate(-36 17)" onmousedown="handlePan(-1,0)">
                  <use xlink:href="#rim" fill="#404040">
                        <set attributeName="fill" to="#808080" begin="arrowLeft.mouseover" end="arrowLeft.mouseout"/>
                  </use>
                  <path fill="none" stroke="white" stroke-width="1.5" d="M0,-3.0v7 M-2.5,-0.5L0,-3.0L2.5,-0.5"/>
                </g>
        </g>
        <svg viewBox="0 0 15 15" width="100%" height="30px" preserveAspectRatio="xMaxYMin meet">
         <g id="arrow_out" transform="scale(0.3 0.3)">
          <a xlink:href="_alarm__state_8h__incl_org.svg" target="_base">
           <rect id="button" ry="5" rx="5" y="6" x="6" height="38" width="38"
                fill="#f2f5e9" fill-opacity="0.5" stroke="#606060" stroke-width="1.0"/>
           <path id="arrow"
             d="M 11.500037,31.436501 C 11.940474,20.09759 22.043105,11.32322 32.158766,21.979434 L 37.068811,17.246167 C 37.068811,17.246167 37.088388,32 37.088388,32 L 22.160133,31.978069 C 22.160133,31.978069 26.997745,27.140456 26.997745,27.140456 C 18.528582,18.264221 13.291696,25.230495 11.500037,31.436501 z"
             style="fill:#404040;"/>
          </a>
         </g>
        </svg>
</svg>
