<?xml version="1.0" encoding="UTF-8" standalone="no"?>
<!DOCTYPE svg PUBLIC "-//W3C//DTD SVG 1.1//EN"
 "http://www.w3.org/Graphics/SVG/1.1/DTD/svg11.dtd">
<!-- Generated by graphviz version 7.0.2 (20221119.0110)
 -->
<!-- Title: C:/Users/juanh/OneDrive/Escritorio/Facultad/Beca/Proyecto/LAL Control Arduino/include/drivers/Buzzer.h Pages: 1 -->
<svg width="161pt" height="115pt"
 viewBox="0.00 0.00 160.50 115.00" xmlns="http://www.w3.org/2000/svg" xmlns:xlink="http://www.w3.org/1999/xlink">
<g id="graph0" class="graph" transform="scale(1 1) rotate(0) translate(4 111)">
<title>C:/Users/juanh/OneDrive/Escritorio/Facultad/Beca/Proyecto/LAL Control Arduino/include/drivers/Buzzer.h</title>
<!-- Node1 -->
<g id="node1" class="node">
<title>Node1</title>
<g id="a_node1"><a xlink:title="Controlador de Buzzer de 12 milimetros.">
<polygon fill="#999999" stroke="#666666" points="149,-107 0,-107 0,-55 149,-55 149,-107"/>
<text text-anchor="start" x="8" y="-95" font-family="Helvetica,sans-Serif" font-size="10.00">C:/Users/juanh/OneDrive</text>
<text text-anchor="start" x="8" y="-84" font-family="Helvetica,sans-Serif" font-size="10.00">/Escritorio/Facultad/Beca</text>
<text text-anchor="start" x="8" y="-73" font-family="Helvetica,sans-Serif" font-size="10.00">/Proyecto/LAL Control Arduino</text>
<text text-anchor="middle" x="74.5" y="-62" font-family="Helvetica,sans-Serif" font-size="10.00">/include/drivers/Buzzer.h</text>
</a>
</g>
</g>
<!-- Node2 -->
<g id="node2" class="node">
<title>Node2</title>
<g id="a_node2"><a xlink:title=" ">
<polygon fill="#e0e0e0" stroke="#999999" points="62.5,-19 4.5,-19 4.5,0 62.5,0 62.5,-19"/>
<text text-anchor="middle" x="33.5" y="-7" font-family="Helvetica,sans-Serif" font-size="10.00">Arduino.h</text>
</a>
</g>
</g>
<!-- Node1&#45;&gt;Node2 -->
<g id="edge1" class="edge">
<title>Node1&#45;&gt;Node2</title>
<path fill="none" stroke="#63b8ff" d="M59.47,-54.52C54.5,-46.09 49.06,-36.88 44.46,-29.07"/>
<polygon fill="#63b8ff" stroke="#63b8ff" points="47.5,-27.33 39.4,-20.5 41.47,-30.89 47.5,-27.33"/>
</g>
<!-- Node3 -->
<g id="node3" class="node">
<title>Node3</title>
<g id="a_node3"><a xlink:href="port__config_8h.html" target="_top" xlink:title="Archivo de configuración para los puertos de la placa donde se implementará el sistema.">
<polygon fill="white" stroke="#666666" points="152.5,-19 80.5,-19 80.5,0 152.5,0 152.5,-19"/>
<text text-anchor="middle" x="116.5" y="-7" font-family="Helvetica,sans-Serif" font-size="10.00">port_config.h</text>
</a>
</g>
</g>
<!-- Node1&#45;&gt;Node3 -->
<g id="edge2" class="edge">
<title>Node1&#45;&gt;Node3</title>
<path fill="none" stroke="#63b8ff" d="M89.9,-54.52C95.05,-45.99 100.69,-36.67 105.44,-28.8"/>
<polygon fill="#63b8ff" stroke="#63b8ff" points="108.28,-30.86 110.46,-20.49 102.29,-27.24 108.28,-30.86"/>
</g>
</g>
</svg>
