<?xml version="1.0" encoding="UTF-8" standalone="no"?>
<!DOCTYPE svg PUBLIC "-//W3C//DTD SVG 1.1//EN"
 "http://www.w3.org/Graphics/SVG/1.1/DTD/svg11.dtd">
<!-- Generated by graphviz version 7.0.2 (20221119.0110)
 -->
<!-- Title: C:/Users/juanh/OneDrive/Escritorio/Sistemas Embebidos/Proyecto final/LAL Control MbedOS/src/Port/machine_state_pattern/Check_instruction_state.cpp Pages: 1 -->
<!--zoomable 511 -->
<svg id="main" version="1.1" xmlns="http://www.w3.org/2000/svg" xmlns:xlink="http://www.w3.org/1999/xlink" xml:space="preserve" onload="init(evt)">
<style type="text/css"><![CDATA[
.edge:hover path { stroke: red; }
.edge:hover polygon { stroke: red; fill: red; }
]]></style>
<script type="text/javascript"><![CDATA[
var edges = document.getElementsByTagName('g');
if (edges && edges.length) {
  for (var i=0;i<edges.length;i++) {
    if (edges[i].id.substr(0,4)=='edge') {
      edges[i].setAttribute('class','edge');
    }
  }
}
]]></script>
        <defs>
                <circle id="rim" cx="0" cy="0" r="7"/>
                <circle id="rim2" cx="0" cy="0" r="3.5"/>
                <g id="zoomPlus">
                        <use xlink:href="#rim" fill="#404040">
                                <set attributeName="fill" to="#808080" begin="zoomplus.mouseover" end="zoomplus.mouseout"/>
                        </use>
                        <path d="M-4,0h8M0,-4v8" fill="none" stroke="white" stroke-width="1.5" pointer-events="none"/>
                </g>
                <g id="zoomMin">
                        <use xlink:href="#rim" fill="#404040">
                                <set attributeName="fill" to="#808080" begin="zoomminus.mouseover" end="zoomminus.mouseout"/>
                        </use>
                        <path d="M-4,0h8" fill="none" stroke="white" stroke-width="1.5" pointer-events="none"/>
                </g>
                <g id="dirArrow">
                        <path fill="none" stroke="white" stroke-width="1.5" d="M0,-3.0v7 M-2.5,-0.5L0,-3.0L2.5,-0.5"/>
                </g>
               <g id="resetDef">
                       <use xlink:href="#rim2" fill="#404040">
                               <set attributeName="fill" to="#808080" begin="reset.mouseover" end="reset.mouseout"/>
                       </use>
               </g>
        </defs>

<script type="text/javascript">
var viewWidth = 1861;
var viewHeight = 511;
var sectionId = 'dynsection-0';
</script>
<script xlink:href="svgpan.js"/>
<svg id="graph" class="graph">
<g id="viewport">
<title>C:/Users/juanh/OneDrive/Escritorio/Sistemas Embebidos/Proyecto final/LAL Control MbedOS/src/Port/machine_state_pattern/Check_instruction_state.cpp</title>
<!-- Node1 -->
<g id="node1" class="node">
<title>Node1</title>
<g id="a_node1"><a xlink:title="Implementación de Check_instruction_state.h.">
<polygon fill="#999999" stroke="#666666" points="923.5,-503 744.5,-503 744.5,-440 923.5,-440 923.5,-503"/>
<text text-anchor="start" x="752.5" y="-491" font-family="Helvetica,sans-Serif" font-size="10.00">C:/Users/juanh/OneDrive</text>
<text text-anchor="start" x="752.5" y="-480" font-family="Helvetica,sans-Serif" font-size="10.00">/Escritorio/Sistemas Embebidos</text>
<text text-anchor="start" x="752.5" y="-469" font-family="Helvetica,sans-Serif" font-size="10.00">/Proyecto final/LAL Control</text>
<text text-anchor="start" x="752.5" y="-458" font-family="Helvetica,sans-Serif" font-size="10.00"> MbedOS/src/Port/machine_state</text>
<text text-anchor="middle" x="834" y="-447" font-family="Helvetica,sans-Serif" font-size="10.00">_pattern/Check_instruction_state.cpp</text>
</a>
</g>
</g>
<!-- Node2 -->
<g id="node2" class="node">
<title>Node2</title>
<g id="a_node2"><a xlink:href="_check__instruction__state_8h_source.html" target="_top" xlink:title=" ">
<polygon fill="white" stroke="#666666" points="130.5,-404 11.5,-404 11.5,-363 130.5,-363 130.5,-404"/>
<text text-anchor="start" x="19.5" y="-392" font-family="Helvetica,sans-Serif" font-size="10.00">machine_state_pattern</text>
<text text-anchor="start" x="19.5" y="-381" font-family="Helvetica,sans-Serif" font-size="10.00">/machine_states/Check</text>
<text text-anchor="middle" x="71" y="-370" font-family="Helvetica,sans-Serif" font-size="10.00">_instruction_state.h</text>
</a>
</g>
</g>
<!-- Node1&#45;&gt;Node2 -->
<g id="edge1" class="edge">
<title>Node1&#45;&gt;Node2</title>
<path fill="none" stroke="#63b8ff" d="M744.23,-460.38C590.97,-443.11 281.89,-408.27 142.29,-392.54"/>
<polygon fill="#63b8ff" stroke="#63b8ff" points="142.76,-389.07 132.44,-391.42 141.98,-396.02 142.76,-389.07"/>
</g>
<!-- Node36 -->
<g id="node36" class="node">
<title>Node36</title>
<g id="a_node36"><a xlink:href="_p_c__serial__interface_8h_source.html" target="_top" xlink:title=" ">
<polygon fill="white" stroke="#666666" points="1799.5,-184 1690.5,-184 1690.5,-165 1799.5,-165 1799.5,-184"/>
<text text-anchor="middle" x="1745" y="-172" font-family="Helvetica,sans-Serif" font-size="10.00">PC_serial_interface.h</text>
</a>
</g>
</g>
<!-- Node1&#45;&gt;Node36 -->
<g id="edge63" class="edge">
<title>Node1&#45;&gt;Node36</title>
<path fill="none" stroke="#63b8ff" d="M923.8,-457.35C1070.47,-433.68 1368.37,-376.39 1601,-272 1649.42,-250.27 1699.46,-212.69 1725.91,-191.4"/>
<polygon fill="#63b8ff" stroke="#63b8ff" points="1727.84,-194.35 1733.37,-185.32 1723.41,-188.93 1727.84,-194.35"/>
</g>
<!-- Node3 -->
<g id="node3" class="node">
<title>Node3</title>
<g id="a_node3"><a xlink:href="_control__system_8h_source.html" target="_top" xlink:title=" ">
<polygon fill="white" stroke="#666666" points="813.5,-327 720.5,-327 720.5,-308 813.5,-308 813.5,-327"/>
<text text-anchor="middle" x="767" y="-315" font-family="Helvetica,sans-Serif" font-size="10.00">Control_system.h</text>
</a>
</g>
</g>
<!-- Node2&#45;&gt;Node3 -->
<g id="edge2" class="edge">
<title>Node2&#45;&gt;Node3</title>
<path fill="none" stroke="#63b8ff" d="M130.94,-376.99C263.13,-364.83 578.28,-335.85 708.82,-323.85"/>
<polygon fill="#63b8ff" stroke="#63b8ff" points="708.98,-327.35 718.62,-322.95 708.34,-320.38 708.98,-327.35"/>
</g>
<!-- Node8 -->
<g id="node8" class="node">
<title>Node8</title>
<g id="a_node8"><a xlink:href="_abstract__state_8h.html" target="_top" xlink:title="Clase de estado abstracta.">
<polygon fill="white" stroke="#666666" points="283,-41 155,-41 155,0 283,0 283,-41"/>
<text text-anchor="start" x="163" y="-29" font-family="Helvetica,sans-Serif" font-size="10.00">machine_state_pattern</text>
<text text-anchor="start" x="163" y="-18" font-family="Helvetica,sans-Serif" font-size="10.00">/machine_states/Abstract</text>
<text text-anchor="middle" x="219" y="-7" font-family="Helvetica,sans-Serif" font-size="10.00">_state.h</text>
</a>
</g>
</g>
<!-- Node2&#45;&gt;Node8 -->
<g id="edge61" class="edge">
<title>Node2&#45;&gt;Node8</title>
<path fill="none" stroke="#63b8ff" d="M51.97,-362.72C30.94,-338.69 0,-295.96 0,-252.5 0,-252.5 0,-252.5 0,-173.5 0,-101.64 80.56,-61.03 143.96,-40.2"/>
<polygon fill="#63b8ff" stroke="#63b8ff" points="144.85,-43.59 153.33,-37.24 142.74,-36.92 144.85,-43.59"/>
</g>
<!-- Node35 -->
<g id="node35" class="node">
<title>Node35</title>
<g id="a_node35"><a xlink:href="_alarm__state_8h.html" target="_top" xlink:title="Clase de estado de control del motor.">
<polygon fill="white" stroke="#666666" points="190.5,-118 73.5,-118 73.5,-77 190.5,-77 190.5,-118"/>
<text text-anchor="start" x="81.5" y="-106" font-family="Helvetica,sans-Serif" font-size="10.00">machine_state_pattern</text>
<text text-anchor="start" x="81.5" y="-95" font-family="Helvetica,sans-Serif" font-size="10.00">/machine_states/Alarm</text>
<text text-anchor="middle" x="132" y="-84" font-family="Helvetica,sans-Serif" font-size="10.00">_state.h</text>
</a>
</g>
</g>
<!-- Node2&#45;&gt;Node35 -->
<g id="edge62" class="edge">
<title>Node2&#45;&gt;Node35</title>
<path fill="none" stroke="#63b8ff" d="M71.62,-362.53C78.27,-313.64 105.08,-187.7 121.02,-129.21"/>
<polygon fill="#63b8ff" stroke="#63b8ff" points="124.29,-130.48 123.64,-119.9 117.56,-128.58 124.29,-130.48"/>
</g>
<!-- Node4 -->
<g id="node4" class="node">
<title>Node4</title>
<g id="a_node4"><a xlink:href="_subject_8h.html" target="_top" xlink:title=" ">
<polygon fill="white" stroke="#666666" points="966,-189.5 838,-189.5 838,-159.5 966,-159.5 966,-189.5"/>
<text text-anchor="start" x="846" y="-177.5" font-family="Helvetica,sans-Serif" font-size="10.00">observer_pattern/subjects</text>
<text text-anchor="middle" x="902" y="-166.5" font-family="Helvetica,sans-Serif" font-size="10.00">/Subject.h</text>
</a>
</g>
</g>
<!-- Node3&#45;&gt;Node4 -->
<g id="edge3" class="edge">
<title>Node3&#45;&gt;Node4</title>
<path fill="none" stroke="#63b8ff" d="M786.32,-307.53C801.8,-299.69 823.43,-287.19 839,-272 860.71,-250.82 878.8,-220.89 889.94,-200"/>
<polygon fill="#63b8ff" stroke="#63b8ff" points="892.94,-201.82 894.42,-191.33 886.72,-198.61 892.94,-201.82"/>
</g>
<!-- Node7 -->
<g id="node7" class="node">
<title>Node7</title>
<g id="a_node7"><a xlink:href="_machine_8h.html" target="_top" xlink:title="Clase de máquina abstracta.">
<polygon fill="white" stroke="#666666" points="526,-112.5 410,-112.5 410,-82.5 526,-82.5 526,-112.5"/>
<text text-anchor="start" x="418" y="-100.5" font-family="Helvetica,sans-Serif" font-size="10.00">machine_state_pattern</text>
<text text-anchor="middle" x="468" y="-89.5" font-family="Helvetica,sans-Serif" font-size="10.00">/Machine.h</text>
</a>
</g>
</g>
<!-- Node3&#45;&gt;Node7 -->
<g id="edge6" class="edge">
<title>Node3&#45;&gt;Node7</title>
<path fill="none" stroke="#63b8ff" d="M720.02,-315.48C649.69,-312.9 521.96,-303.84 491,-272 452.39,-232.29 457.1,-161.17 463.02,-123.5"/>
<polygon fill="#63b8ff" stroke="#63b8ff" points="466.4,-124.47 464.67,-114.02 459.5,-123.27 466.4,-124.47"/>
</g>
<!-- Node9 -->
<g id="node9" class="node">
<title>Node9</title>
<g id="a_node9"><a xlink:href="_display_8h.html" target="_top" xlink:title="Controlador de LCD hd44780 por interfaz I2C.">
<polygon fill="white" stroke="#666666" points="1592,-261 1504,-261 1504,-242 1592,-242 1592,-261"/>
<text text-anchor="middle" x="1548" y="-249" font-family="Helvetica,sans-Serif" font-size="10.00">drivers/Display.h</text>
</a>
</g>
</g>
<!-- Node3&#45;&gt;Node9 -->
<g id="edge8" class="edge">
<title>Node3&#45;&gt;Node9</title>
<path fill="none" stroke="#63b8ff" d="M813.92,-314.29C919.62,-309.07 1184.38,-294.71 1405,-272 1433.88,-269.03 1465.9,-264.75 1492.32,-260.96"/>
<polygon fill="#63b8ff" stroke="#63b8ff" points="1492.75,-264.43 1502.15,-259.53 1491.75,-257.51 1492.75,-264.43"/>
</g>
<!-- Node19 -->
<g id="node19" class="node">
<title>Node19</title>
<g id="a_node19"><a xlink:href="user__messages_8h.html" target="_top" xlink:title="Archivo para la configuración de interfaz con el usuario.">
<polygon fill="white" stroke="#666666" points="292,-261 198,-261 198,-242 292,-242 292,-261"/>
<text text-anchor="middle" x="245" y="-249" font-family="Helvetica,sans-Serif" font-size="10.00">user_messages.h</text>
</a>
</g>
</g>
<!-- Node3&#45;&gt;Node19 -->
<g id="edge21" class="edge">
<title>Node3&#45;&gt;Node19</title>
<path fill="none" stroke="#63b8ff" d="M720.13,-315.73C635.48,-313.51 451.85,-304.97 301,-272 293.23,-270.3 285.05,-267.85 277.41,-265.26"/>
<polygon fill="#63b8ff" stroke="#63b8ff" points="278.74,-262.02 268.15,-261.94 276.38,-268.61 278.74,-262.02"/>
</g>
<!-- Node20 -->
<g id="node20" class="node">
<title>Node20</title>
<g id="a_node20"><a xlink:href="_system__observer_8h.html" target="_top" xlink:title="Clase observador del sistema de control.">
<polygon fill="white" stroke="#666666" points="1156,-266.5 1024,-266.5 1024,-236.5 1156,-236.5 1156,-266.5"/>
<text text-anchor="start" x="1032" y="-254.5" font-family="Helvetica,sans-Serif" font-size="10.00">observer_pattern/observers</text>
<text text-anchor="middle" x="1090" y="-243.5" font-family="Helvetica,sans-Serif" font-size="10.00">/System_observer.h</text>
</a>
</g>
</g>
<!-- Node3&#45;&gt;Node20 -->
<g id="edge22" class="edge">
<title>Node3&#45;&gt;Node20</title>
<path fill="none" stroke="#63b8ff" d="M813.95,-308.05C862.33,-299.86 939.56,-286.58 1006,-272 1009.48,-271.24 1013.05,-270.42 1016.65,-269.57"/>
<polygon fill="#63b8ff" stroke="#63b8ff" points="1017.16,-273.05 1026.06,-267.31 1015.52,-266.25 1017.16,-273.05"/>
</g>
<!-- Node22 -->
<g id="node22" class="node">
<title>Node22</title>
<g id="a_node22"><a xlink:href="_temperature__sensor_8h.html" target="_top" xlink:title="Controlador para sensor de temperatura DS18B20.">
<polygon fill="white" stroke="#666666" points="601.5,-266.5 500.5,-266.5 500.5,-236.5 601.5,-236.5 601.5,-266.5"/>
<text text-anchor="start" x="508.5" y="-254.5" font-family="Helvetica,sans-Serif" font-size="10.00">drivers/Temperature</text>
<text text-anchor="middle" x="551" y="-243.5" font-family="Helvetica,sans-Serif" font-size="10.00">_sensor.h</text>
</a>
</g>
</g>
<!-- Node3&#45;&gt;Node22 -->
<g id="edge27" class="edge">
<title>Node3&#45;&gt;Node22</title>
<path fill="none" stroke="#63b8ff" d="M733.8,-307.54C701.94,-298.83 652.52,-285.05 610,-272 608.23,-271.46 606.43,-270.9 604.61,-270.33"/>
<polygon fill="#63b8ff" stroke="#63b8ff" points="606.14,-267.14 595.55,-267.44 604.02,-273.81 606.14,-267.14"/>
</g>
<!-- Node25 -->
<g id="node25" class="node">
<title>Node25</title>
<g id="a_node25"><a xlink:href="_moisture__sensor_8h.html" target="_top" xlink:title="Controlador de sensor de humedad analógico.">
<polygon fill="white" stroke="#666666" points="1300,-107 1172,-107 1172,-88 1300,-88 1300,-107"/>
<text text-anchor="middle" x="1236" y="-95" font-family="Helvetica,sans-Serif" font-size="10.00">drivers/Moisture_sensor.h</text>
</a>
</g>
</g>
<!-- Node3&#45;&gt;Node25 -->
<g id="edge30" class="edge">
<title>Node3&#45;&gt;Node25</title>
<path fill="none" stroke="#63b8ff" d="M813.74,-317.08C906.73,-317.32 1110.7,-313.01 1165,-272 1214.95,-234.28 1229.92,-155.31 1234.28,-118.36"/>
<polygon fill="#63b8ff" stroke="#63b8ff" points="1237.73,-118.99 1235.26,-108.69 1230.77,-118.28 1237.73,-118.99"/>
</g>
<!-- Node26 -->
<g id="node26" class="node">
<title>Node26</title>
<g id="a_node26"><a xlink:href="types_8h.html" target="_top" xlink:title="Archivo de definición de tipos de dato.">
<polygon fill="white" stroke="#666666" points="819.5,-184 770.5,-184 770.5,-165 819.5,-165 819.5,-184"/>
<text text-anchor="middle" x="795" y="-172" font-family="Helvetica,sans-Serif" font-size="10.00">types.h</text>
</a>
</g>
</g>
<!-- Node3&#45;&gt;Node26 -->
<g id="edge32" class="edge">
<title>Node3&#45;&gt;Node26</title>
<path fill="none" stroke="#63b8ff" d="M785,-307.57C797.93,-300.05 814.38,-287.96 822,-272 834.32,-246.18 819.67,-213.71 807.62,-193.79"/>
<polygon fill="#63b8ff" stroke="#63b8ff" points="810.73,-192.15 802.36,-185.65 804.85,-195.95 810.73,-192.15"/>
</g>
<!-- Node27 -->
<g id="node27" class="node">
<title>Node27</title>
<g id="a_node27"><a xlink:href="_buzzer_8h.html" target="_top" xlink:title="Controlador de Buzzer de 12 milimetros sin oscilador.">
<polygon fill="white" stroke="#666666" points="1396,-261 1310,-261 1310,-242 1396,-242 1396,-261"/>
<text text-anchor="middle" x="1353" y="-249" font-family="Helvetica,sans-Serif" font-size="10.00">drivers/Buzzer.h</text>
</a>
</g>
</g>
<!-- Node3&#45;&gt;Node27 -->
<g id="edge33" class="edge">
<title>Node3&#45;&gt;Node27</title>
<path fill="none" stroke="#63b8ff" d="M813.72,-316.9C907.37,-316.75 1124.23,-311.71 1301,-272 1308.08,-270.41 1315.48,-268.07 1322.42,-265.56"/>
<polygon fill="#63b8ff" stroke="#63b8ff" points="1323.67,-268.83 1331.73,-261.96 1321.14,-262.3 1323.67,-268.83"/>
</g>
<!-- Node29 -->
<g id="node29" class="node">
<title>Node29</title>
<g id="a_node29"><a xlink:href="_motor_8h.html" target="_top" xlink:title="Controlador de motor de 220 VAC.">
<polygon fill="white" stroke="#666666" points="1292,-261 1212,-261 1212,-242 1292,-242 1292,-261"/>
<text text-anchor="middle" x="1252" y="-249" font-family="Helvetica,sans-Serif" font-size="10.00">drivers/Motor.h</text>
</a>
</g>
</g>
<!-- Node3&#45;&gt;Node29 -->
<g id="edge36" class="edge">
<title>Node3&#45;&gt;Node29</title>
<path fill="none" stroke="#63b8ff" d="M813.85,-315.39C893.66,-312.67 1060.68,-303.39 1198,-272 1205.42,-270.3 1213.22,-267.88 1220.51,-265.32"/>
<polygon fill="#63b8ff" stroke="#63b8ff" points="1221.49,-268.69 1229.65,-261.93 1219.06,-262.13 1221.49,-268.69"/>
</g>
<!-- Node30 -->
<g id="node30" class="node">
<title>Node30</title>
<g id="a_node30"><a xlink:href="_dual___l_e_d_8h.html" target="_top" xlink:title="Controlador de LED RG con PWM.">
<polygon fill="white" stroke="#666666" points="813.5,-261 720.5,-261 720.5,-242 813.5,-242 813.5,-261"/>
<text text-anchor="middle" x="767" y="-249" font-family="Helvetica,sans-Serif" font-size="10.00">drivers/Dual_led.h</text>
</a>
</g>
</g>
<!-- Node3&#45;&gt;Node30 -->
<g id="edge39" class="edge">
<title>Node3&#45;&gt;Node30</title>
<path fill="none" stroke="#63b8ff" d="M767,-307.6C767,-298.62 767,-284.45 767,-272.72"/>
<polygon fill="#63b8ff" stroke="#63b8ff" points="770.5,-272.84 767,-262.84 763.5,-272.84 770.5,-272.84"/>
</g>
<!-- Node31 -->
<g id="node31" class="node">
<title>Node31</title>
<g id="a_node31"><a xlink:href="_digital__dual___l_e_d_8h_source.html" target="_top" xlink:title=" ">
<polygon fill="white" stroke="#666666" points="1006,-266.5 908,-266.5 908,-236.5 1006,-236.5 1006,-266.5"/>
<text text-anchor="start" x="916" y="-254.5" font-family="Helvetica,sans-Serif" font-size="10.00">drivers/Digital_dual</text>
<text text-anchor="middle" x="957" y="-243.5" font-family="Helvetica,sans-Serif" font-size="10.00">_led.h</text>
</a>
</g>
</g>
<!-- Node3&#45;&gt;Node31 -->
<g id="edge43" class="edge">
<title>Node3&#45;&gt;Node31</title>
<path fill="none" stroke="#63b8ff" d="M793.42,-307.6C821.7,-298.08 867.33,-282.7 903.22,-270.61"/>
<polygon fill="#63b8ff" stroke="#63b8ff" points="904.23,-273.97 912.59,-267.46 901.99,-267.34 904.23,-273.97"/>
</g>
<!-- Node32 -->
<g id="node32" class="node">
<title>Node32</title>
<g id="a_node32"><a xlink:href="_cooler_8h.html" target="_top" xlink:title="Controlador de ventilador de 12 volts y 5 milímteros.">
<polygon fill="white" stroke="#666666" points="702.5,-261 619.5,-261 619.5,-242 702.5,-242 702.5,-261"/>
<text text-anchor="middle" x="661" y="-249" font-family="Helvetica,sans-Serif" font-size="10.00">drivers/Cooler.h</text>
</a>
</g>
</g>
<!-- Node3&#45;&gt;Node32 -->
<g id="edge46" class="edge">
<title>Node3&#45;&gt;Node32</title>
<path fill="none" stroke="#63b8ff" d="M752.26,-307.6C734.94,-297.14 705.93,-279.63 685.27,-267.16"/>
<polygon fill="#63b8ff" stroke="#63b8ff" points="687.28,-264.28 676.91,-262.11 683.66,-270.27 687.28,-264.28"/>
</g>
<!-- Node33 -->
<g id="node33" class="node">
<title>Node33</title>
<g id="a_node33"><a xlink:href="_shutdown__state_8h.html" target="_top" xlink:title="Clase de estado de apagado del sistema.">
<polygon fill="white" stroke="#666666" points="444,-272 310,-272 310,-231 444,-231 444,-272"/>
<text text-anchor="start" x="318" y="-260" font-family="Helvetica,sans-Serif" font-size="10.00">machine_state_pattern</text>
<text text-anchor="start" x="318" y="-249" font-family="Helvetica,sans-Serif" font-size="10.00">/machine_states/Shutdown</text>
<text text-anchor="middle" x="377" y="-238" font-family="Helvetica,sans-Serif" font-size="10.00">_state.h</text>
</a>
</g>
</g>
<!-- Node3&#45;&gt;Node33 -->
<g id="edge49" class="edge">
<title>Node3&#45;&gt;Node33</title>
<path fill="none" stroke="#63b8ff" d="M720.15,-311.84C660.02,-305.06 552.75,-291.38 455.47,-273.19"/>
<polygon fill="#63b8ff" stroke="#63b8ff" points="456.24,-269.78 445.76,-271.35 454.93,-276.65 456.24,-269.78"/>
</g>
<!-- Node5 -->
<g id="node5" class="node">
<title>Node5</title>
<g id="a_node5"><a xlink:href="_subject__interface_8h.html" target="_top" xlink:title="Clase para interfaz para implementar el sujeto.">
<polygon fill="white" stroke="#666666" points="966,-112.5 838,-112.5 838,-82.5 966,-82.5 966,-112.5"/>
<text text-anchor="start" x="846" y="-100.5" font-family="Helvetica,sans-Serif" font-size="10.00">observer_pattern/subjects</text>
<text text-anchor="middle" x="902" y="-89.5" font-family="Helvetica,sans-Serif" font-size="10.00">/Subject_interface.h</text>
</a>
</g>
</g>
<!-- Node4&#45;&gt;Node5 -->
<g id="edge4" class="edge">
<title>Node4&#45;&gt;Node5</title>
<path fill="none" stroke="#63b8ff" d="M902,-159.04C902,-149.18 902,-135.86 902,-124.22"/>
<polygon fill="#63b8ff" stroke="#63b8ff" points="905.5,-124.43 902,-114.43 898.5,-124.43 905.5,-124.43"/>
</g>
<!-- Node6 -->
<g id="node6" class="node">
<title>Node6</title>
<g id="a_node6"><a xlink:href="_observer__interface_8h.html" target="_top" xlink:title="Clase para interfaz para implementar el observador.">
<polygon fill="white" stroke="#666666" points="1116,-112.5 984,-112.5 984,-82.5 1116,-82.5 1116,-112.5"/>
<text text-anchor="start" x="992" y="-100.5" font-family="Helvetica,sans-Serif" font-size="10.00">observer_pattern/observers</text>
<text text-anchor="middle" x="1050" y="-89.5" font-family="Helvetica,sans-Serif" font-size="10.00">/Observer_interface.h</text>
</a>
</g>
</g>
<!-- Node4&#45;&gt;Node6 -->
<g id="edge5" class="edge">
<title>Node4&#45;&gt;Node6</title>
<path fill="none" stroke="#63b8ff" d="M930.54,-159.04C953.57,-147.37 986.2,-130.83 1011.54,-117.99"/>
<polygon fill="#63b8ff" stroke="#63b8ff" points="1012.86,-121.24 1020.2,-113.6 1009.7,-115 1012.86,-121.24"/>
</g>
<!-- Node7&#45;&gt;Node8 -->
<g id="edge7" class="edge">
<title>Node7&#45;&gt;Node8</title>
<path fill="none" stroke="#63b8ff" d="M419.99,-82.04C384.39,-71.32 335.17,-56.49 294.35,-44.19"/>
<polygon fill="#63b8ff" stroke="#63b8ff" points="295.38,-40.85 284.8,-41.32 293.36,-47.55 295.38,-40.85"/>
</g>
<!-- Node10 -->
<g id="node10" class="node">
<title>Node10</title>
<g id="a_node10"><a xlink:href="display__settings_8h.html" target="_top" xlink:title="Archivo de configuración de la pantalla.">
<polygon fill="white" stroke="#666666" points="1687.5,-107 1592.5,-107 1592.5,-88 1687.5,-88 1687.5,-107"/>
<text text-anchor="middle" x="1640" y="-95" font-family="Helvetica,sans-Serif" font-size="10.00">display_settings.h</text>
</a>
</g>
</g>
<!-- Node9&#45;&gt;Node10 -->
<g id="edge9" class="edge">
<title>Node9&#45;&gt;Node10</title>
<path fill="none" stroke="#63b8ff" d="M1566.37,-241.53C1583.31,-232.28 1607.77,-216.21 1621,-195 1635.6,-171.59 1639.34,-139.3 1640.11,-118.66"/>
<polygon fill="#63b8ff" stroke="#63b8ff" points="1643.61,-118.8 1640.25,-108.75 1636.61,-118.7 1643.61,-118.8"/>
</g>
<!-- Node11 -->
<g id="node11" class="node">
<title>Node11</title>
<g id="a_node11"><a xlink:href="hd44780___i2_cexp_8h.html" target="_top" xlink:title="Adaptación de la biblioteca TextLCD de MbedOS 5. Permite utilizar un LCD hd44780 con un expansor de p...">
<polygon fill="white" stroke="#666666" points="1612,-184 1484,-184 1484,-165 1612,-165 1612,-184"/>
<text text-anchor="middle" x="1548" y="-172" font-family="Helvetica,sans-Serif" font-size="10.00">drivers/hd44780_I2Cexp.h</text>
</a>
</g>
</g>
<!-- Node9&#45;&gt;Node11 -->
<g id="edge10" class="edge">
<title>Node9&#45;&gt;Node11</title>
<path fill="none" stroke="#63b8ff" d="M1548,-241.6C1548,-230.33 1548,-210.55 1548,-195.56"/>
<polygon fill="#63b8ff" stroke="#63b8ff" points="1551.5,-195.9 1548,-185.9 1544.5,-195.9 1551.5,-195.9"/>
</g>
<!-- Node11&#45;&gt;Node10 -->
<g id="edge20" class="edge">
<title>Node11&#45;&gt;Node10</title>
<path fill="none" stroke="#63b8ff" d="M1558.91,-164.6C1573.99,-152.31 1601.45,-129.92 1620.2,-114.64"/>
<polygon fill="#63b8ff" stroke="#63b8ff" points="1622.39,-117.37 1627.93,-108.34 1617.96,-111.95 1622.39,-117.37"/>
</g>
<!-- Node12 -->
<g id="node12" class="node">
<title>Node12</title>
<g id="a_node12"><a xlink:title=" ">
<polygon fill="#e0e0e0" stroke="#999999" points="1352.5,-30 1303.5,-30 1303.5,-11 1352.5,-11 1352.5,-30"/>
<text text-anchor="middle" x="1328" y="-18" font-family="Helvetica,sans-Serif" font-size="10.00">mbed.h</text>
</a>
</g>
</g>
<!-- Node11&#45;&gt;Node12 -->
<g id="edge11" class="edge">
<title>Node11&#45;&gt;Node12</title>
<path fill="none" stroke="#63b8ff" d="M1546.76,-164.61C1543.64,-145.68 1533.74,-101.17 1507,-77 1466.99,-40.84 1403.75,-28.24 1364.14,-23.85"/>
<polygon fill="#63b8ff" stroke="#63b8ff" points="1364.7,-20.39 1354.41,-22.9 1364.02,-27.35 1364.7,-20.39"/>
</g>
<!-- Node13 -->
<g id="node13" class="node">
<title>Node13</title>
<g id="a_node13"><a xlink:title=" ">
<polygon fill="#e0e0e0" stroke="#999999" points="1619,-30 1571,-30 1571,-11 1619,-11 1619,-30"/>
<text text-anchor="middle" x="1595" y="-18" font-family="Helvetica,sans-Serif" font-size="10.00">stdlib.h</text>
</a>
</g>
</g>
<!-- Node11&#45;&gt;Node13 -->
<g id="edge12" class="edge">
<title>Node11&#45;&gt;Node13</title>
<path fill="none" stroke="#63b8ff" d="M1550.66,-164.89C1557.99,-141.18 1578.63,-74.44 1588.96,-41.05"/>
<polygon fill="#63b8ff" stroke="#63b8ff" points="1592.19,-42.43 1591.8,-31.84 1585.51,-40.36 1592.19,-42.43"/>
</g>
<!-- Node14 -->
<g id="node14" class="node">
<title>Node14</title>
<g id="a_node14"><a xlink:href="hd44780__instruction__set_8h.html" target="_top" xlink:title="Set de instrucciones del LCD HD44780.">
<polygon fill="white" stroke="#666666" points="1498,-112.5 1394,-112.5 1394,-82.5 1498,-82.5 1498,-112.5"/>
<text text-anchor="start" x="1402" y="-100.5" font-family="Helvetica,sans-Serif" font-size="10.00">hd44780_instruction</text>
<text text-anchor="middle" x="1446" y="-89.5" font-family="Helvetica,sans-Serif" font-size="10.00">_set.h</text>
</a>
</g>
</g>
<!-- Node11&#45;&gt;Node14 -->
<g id="edge13" class="edge">
<title>Node11&#45;&gt;Node14</title>
<path fill="none" stroke="#63b8ff" d="M1535.9,-164.6C1520.87,-153.55 1494.73,-134.33 1474.5,-119.46"/>
<polygon fill="#63b8ff" stroke="#63b8ff" points="1476.75,-116.77 1466.62,-113.66 1472.6,-122.41 1476.75,-116.77"/>
</g>
<!-- Node15 -->
<g id="node15" class="node">
<title>Node15</title>
<g id="a_node15"><a xlink:href="utils_8h_source.html" target="_top" xlink:title=" ">
<polygon fill="white" stroke="#666666" points="1787.5,-107 1744.5,-107 1744.5,-88 1787.5,-88 1787.5,-107"/>
<text text-anchor="middle" x="1766" y="-95" font-family="Helvetica,sans-Serif" font-size="10.00">utils.h</text>
</a>
</g>
</g>
<!-- Node11&#45;&gt;Node15 -->
<g id="edge15" class="edge">
<title>Node11&#45;&gt;Node15</title>
<path fill="none" stroke="#63b8ff" d="M1573.86,-164.6C1613.62,-150.92 1689.71,-124.75 1733.25,-109.77"/>
<polygon fill="#63b8ff" stroke="#63b8ff" points="1734.35,-113.09 1742.67,-106.53 1732.07,-106.47 1734.35,-113.09"/>
</g>
<!-- Node14&#45;&gt;Node12 -->
<g id="edge14" class="edge">
<title>Node14&#45;&gt;Node12</title>
<path fill="none" stroke="#63b8ff" d="M1423.25,-82.04C1402.62,-68.93 1372.35,-49.69 1351.5,-36.43"/>
<polygon fill="#63b8ff" stroke="#63b8ff" points="1353.42,-33.51 1343.1,-31.1 1349.66,-39.42 1353.42,-33.51"/>
</g>
<!-- Node15&#45;&gt;Node13 -->
<g id="edge18" class="edge">
<title>Node15&#45;&gt;Node13</title>
<path fill="none" stroke="#63b8ff" d="M1750.42,-87.59C1744.15,-84.13 1736.81,-80.23 1730,-77 1696.4,-61.05 1656.95,-45.14 1629.4,-34.48"/>
<polygon fill="#63b8ff" stroke="#63b8ff" points="1630.75,-31.24 1620.16,-30.92 1628.23,-37.78 1630.75,-31.24"/>
</g>
<!-- Node16 -->
<g id="node16" class="node">
<title>Node16</title>
<g id="a_node16"><a xlink:title=" ">
<polygon fill="#e0e0e0" stroke="#999999" points="1720.5,-30 1673.5,-30 1673.5,-11 1720.5,-11 1720.5,-30"/>
<text text-anchor="middle" x="1697" y="-18" font-family="Helvetica,sans-Serif" font-size="10.00">math.h</text>
</a>
</g>
</g>
<!-- Node15&#45;&gt;Node16 -->
<g id="edge16" class="edge">
<title>Node15&#45;&gt;Node16</title>
<path fill="none" stroke="#63b8ff" d="M1757.81,-87.6C1746.71,-75.54 1726.66,-53.74 1712.63,-38.49"/>
<polygon fill="#63b8ff" stroke="#63b8ff" points="1715.55,-36.49 1706.2,-31.5 1710.4,-41.23 1715.55,-36.49"/>
</g>
<!-- Node17 -->
<g id="node17" class="node">
<title>Node17</title>
<g id="a_node17"><a xlink:title=" ">
<polygon fill="#e0e0e0" stroke="#999999" points="1785,-30 1739,-30 1739,-11 1785,-11 1785,-30"/>
<text text-anchor="middle" x="1762" y="-18" font-family="Helvetica,sans-Serif" font-size="10.00">stdio.h</text>
</a>
</g>
</g>
<!-- Node15&#45;&gt;Node17 -->
<g id="edge17" class="edge">
<title>Node15&#45;&gt;Node17</title>
<path fill="none" stroke="#63b8ff" d="M1765.53,-87.6C1764.92,-76.33 1763.87,-56.55 1763.07,-41.56"/>
<polygon fill="#63b8ff" stroke="#63b8ff" points="1766.58,-41.7 1762.55,-31.9 1759.59,-42.07 1766.58,-41.7"/>
</g>
<!-- Node18 -->
<g id="node18" class="node">
<title>Node18</title>
<g id="a_node18"><a xlink:title=" ">
<polygon fill="#e0e0e0" stroke="#999999" points="1852.5,-30 1803.5,-30 1803.5,-11 1852.5,-11 1852.5,-30"/>
<text text-anchor="middle" x="1828" y="-18" font-family="Helvetica,sans-Serif" font-size="10.00">string.h</text>
</a>
</g>
</g>
<!-- Node15&#45;&gt;Node18 -->
<g id="edge19" class="edge">
<title>Node15&#45;&gt;Node18</title>
<path fill="none" stroke="#63b8ff" d="M1773.36,-87.6C1783.24,-75.65 1801.01,-54.15 1813.6,-38.92"/>
<polygon fill="#63b8ff" stroke="#63b8ff" points="1816.02,-41.49 1819.69,-31.55 1810.62,-37.03 1816.02,-41.49"/>
</g>
<!-- Node20&#45;&gt;Node3 -->
<g id="edge26" class="edge">
<title>Node20&#45;&gt;Node3</title>
<path fill="none" stroke="#63b8ff" d="M1045.37,-266.96C1038.26,-268.74 1030.96,-270.47 1024,-272 956.33,-286.85 877.47,-300.35 825.03,-308.5"/>
<polygon fill="#63b8ff" stroke="#63b8ff" points="824.78,-305 815.43,-309.97 825.84,-311.92 824.78,-305"/>
</g>
<!-- Node21 -->
<g id="node21" class="node">
<title>Node21</title>
<g id="a_node21"><a xlink:href="_observer_8h.html" target="_top" xlink:title="Clase observador.">
<polygon fill="white" stroke="#666666" points="1116,-189.5 984,-189.5 984,-159.5 1116,-159.5 1116,-189.5"/>
<text text-anchor="start" x="992" y="-177.5" font-family="Helvetica,sans-Serif" font-size="10.00">observer_pattern/observers</text>
<text text-anchor="middle" x="1050" y="-166.5" font-family="Helvetica,sans-Serif" font-size="10.00">/Observer.h</text>
</a>
</g>
</g>
<!-- Node20&#45;&gt;Node21 -->
<g id="edge23" class="edge">
<title>Node20&#45;&gt;Node21</title>
<path fill="none" stroke="#63b8ff" d="M1082.29,-236.04C1076.81,-225.77 1069.32,-211.73 1062.94,-199.76"/>
<polygon fill="#63b8ff" stroke="#63b8ff" points="1066.2,-198.43 1058.4,-191.25 1060.02,-201.72 1066.2,-198.43"/>
</g>
<!-- Node21&#45;&gt;Node5 -->
<g id="edge24" class="edge">
<title>Node21&#45;&gt;Node5</title>
<path fill="none" stroke="#63b8ff" d="M1021.46,-159.04C998.43,-147.37 965.8,-130.83 940.46,-117.99"/>
<polygon fill="#63b8ff" stroke="#63b8ff" points="942.3,-115 931.8,-113.6 939.14,-121.24 942.3,-115"/>
</g>
<!-- Node21&#45;&gt;Node6 -->
<g id="edge25" class="edge">
<title>Node21&#45;&gt;Node6</title>
<path fill="none" stroke="#63b8ff" d="M1050,-159.04C1050,-149.18 1050,-135.86 1050,-124.22"/>
<polygon fill="#63b8ff" stroke="#63b8ff" points="1053.5,-124.43 1050,-114.43 1046.5,-124.43 1053.5,-124.43"/>
</g>
<!-- Node23 -->
<g id="node23" class="node">
<title>Node23</title>
<g id="a_node23"><a xlink:href="system__settings_8h.html" target="_top" xlink:title="Archivo para la definición de constantes del sistema.">
<polygon fill="white" stroke="#666666" points="713.5,-184 616.5,-184 616.5,-165 713.5,-165 713.5,-184"/>
<text text-anchor="middle" x="665" y="-172" font-family="Helvetica,sans-Serif" font-size="10.00">system_settings.h</text>
</a>
</g>
</g>
<!-- Node22&#45;&gt;Node23 -->
<g id="edge28" class="edge">
<title>Node22&#45;&gt;Node23</title>
<path fill="none" stroke="#63b8ff" d="M572.98,-236.04C592.91,-222.93 622.15,-203.69 642.3,-190.43"/>
<polygon fill="#63b8ff" stroke="#63b8ff" points="643.95,-193.54 650.38,-185.12 640.1,-187.69 643.95,-193.54"/>
</g>
<!-- Node24 -->
<g id="node24" class="node">
<title>Node24</title>
<g id="a_node24"><a xlink:title=" ">
<polygon fill="#e0e0e0" stroke="#999999" points="559.5,-184 500.5,-184 500.5,-165 559.5,-165 559.5,-184"/>
<text text-anchor="middle" x="530" y="-172" font-family="Helvetica,sans-Serif" font-size="10.00">DS1820.h</text>
</a>
</g>
</g>
<!-- Node22&#45;&gt;Node24 -->
<g id="edge29" class="edge">
<title>Node22&#45;&gt;Node24</title>
<path fill="none" stroke="#63b8ff" d="M546.95,-236.04C543.7,-224.43 539.1,-208 535.51,-195.19"/>
<polygon fill="#63b8ff" stroke="#63b8ff" points="538.94,-194.43 532.87,-185.74 532.19,-196.32 538.94,-194.43"/>
</g>
<!-- Node25&#45;&gt;Node12 -->
<g id="edge31" class="edge">
<title>Node25&#45;&gt;Node12</title>
<path fill="none" stroke="#63b8ff" d="M1246.91,-87.6C1261.99,-75.31 1289.45,-52.92 1308.2,-37.64"/>
<polygon fill="#63b8ff" stroke="#63b8ff" points="1310.39,-40.37 1315.93,-31.34 1305.96,-34.95 1310.39,-40.37"/>
</g>
<!-- Node27&#45;&gt;Node12 -->
<g id="edge34" class="edge">
<title>Node27&#45;&gt;Node12</title>
<path fill="none" stroke="#63b8ff" d="M1353.2,-241.85C1353.45,-230.93 1353.85,-211.57 1354,-195 1354.16,-176.78 1355.41,-172.17 1354,-154 1351.33,-119.47 1348.91,-110.94 1342,-77 1339.58,-65.1 1336.28,-51.92 1333.49,-41.39"/>
<polygon fill="#63b8ff" stroke="#63b8ff" points="1336.92,-40.68 1330.93,-31.94 1330.17,-42.51 1336.92,-40.68"/>
</g>
<!-- Node28 -->
<g id="node28" class="node">
<title>Node28</title>
<g id="a_node28"><a xlink:href="port__config_8h.html" target="_top" xlink:title="Archivo de configuración para los puertos de la placa donde se implementará el sistema.">
<polygon fill="white" stroke="#666666" points="1345,-184 1273,-184 1273,-165 1345,-165 1345,-184"/>
<text text-anchor="middle" x="1309" y="-172" font-family="Helvetica,sans-Serif" font-size="10.00">port_config.h</text>
</a>
</g>
</g>
<!-- Node27&#45;&gt;Node28 -->
<g id="edge35" class="edge">
<title>Node27&#45;&gt;Node28</title>
<path fill="none" stroke="#63b8ff" d="M1347.78,-241.6C1340.97,-229.99 1328.86,-209.36 1319.99,-194.23"/>
<polygon fill="#63b8ff" stroke="#63b8ff" points="1323.06,-192.55 1314.98,-185.69 1317.02,-196.09 1323.06,-192.55"/>
</g>
<!-- Node29&#45;&gt;Node12 -->
<g id="edge37" class="edge">
<title>Node29&#45;&gt;Node12</title>
<path fill="none" stroke="#63b8ff" d="M1250.98,-241.57C1249.38,-223.68 1247.93,-182.73 1264,-154 1276.5,-131.65 1295.72,-139.9 1309,-118 1323.23,-94.54 1327.08,-62.5 1327.98,-41.9"/>
<polygon fill="#63b8ff" stroke="#63b8ff" points="1331.48,-42.06 1328.19,-31.99 1324.48,-41.91 1331.48,-42.06"/>
</g>
<!-- Node29&#45;&gt;Node28 -->
<g id="edge38" class="edge">
<title>Node29&#45;&gt;Node28</title>
<path fill="none" stroke="#63b8ff" d="M1258.76,-241.6C1267.76,-229.76 1283.88,-208.55 1295.43,-193.35"/>
<polygon fill="#63b8ff" stroke="#63b8ff" points="1298.07,-195.67 1301.33,-185.59 1292.49,-191.44 1298.07,-195.67"/>
</g>
<!-- Node30&#45;&gt;Node12 -->
<g id="edge40" class="edge">
<title>Node30&#45;&gt;Node12</title>
<path fill="none" stroke="#63b8ff" d="M764.09,-241.62C758.86,-224.17 749.48,-184.46 761,-154 777.16,-111.3 788.48,-98.05 829,-77 909.84,-35.01 1191.28,-24.59 1291.9,-22.18"/>
<polygon fill="#63b8ff" stroke="#63b8ff" points="1291.81,-25.68 1301.73,-21.96 1291.65,-18.68 1291.81,-25.68"/>
</g>
<!-- Node30&#45;&gt;Node23 -->
<g id="edge42" class="edge">
<title>Node30&#45;&gt;Node23</title>
<path fill="none" stroke="#63b8ff" d="M754.9,-241.6C737.95,-229.14 706.9,-206.31 686.1,-191.01"/>
<polygon fill="#63b8ff" stroke="#63b8ff" points="688.43,-188.39 678.3,-185.28 684.29,-194.03 688.43,-188.39"/>
</g>
<!-- Node30&#45;&gt;Node26 -->
<g id="edge41" class="edge">
<title>Node30&#45;&gt;Node26</title>
<path fill="none" stroke="#63b8ff" d="M770.32,-241.6C774.57,-230.21 782.06,-210.16 787.68,-195.11"/>
<polygon fill="#63b8ff" stroke="#63b8ff" points="790.93,-196.4 791.15,-185.8 784.38,-193.95 790.93,-196.4"/>
</g>
<!-- Node31&#45;&gt;Node12 -->
<g id="edge44" class="edge">
<title>Node31&#45;&gt;Node12</title>
<path fill="none" stroke="#63b8ff" d="M999.75,-236.08C1004.89,-234.36 1010.06,-232.64 1015,-231 1063.82,-214.8 1088.71,-231.46 1125,-195 1163.87,-155.95 1124.29,-116.21 1163,-77 1197.49,-42.07 1254.63,-29.12 1291.8,-24.32"/>
<polygon fill="#63b8ff" stroke="#63b8ff" points="1292.07,-27.81 1301.61,-23.2 1291.28,-20.86 1292.07,-27.81"/>
</g>
<!-- Node31&#45;&gt;Node26 -->
<g id="edge45" class="edge">
<title>Node31&#45;&gt;Node26</title>
<path fill="none" stroke="#63b8ff" d="M920.64,-236.01C894.75,-225.38 859.31,-210.2 829,-195 825.88,-193.43 822.64,-191.71 819.46,-189.96"/>
<polygon fill="#63b8ff" stroke="#63b8ff" points="821.44,-187.06 811.01,-185.16 817.98,-193.14 821.44,-187.06"/>
</g>
<!-- Node32&#45;&gt;Node12 -->
<g id="edge47" class="edge">
<title>Node32&#45;&gt;Node12</title>
<path fill="none" stroke="#63b8ff" d="M647.82,-241.71C634.64,-232.04 615.2,-215.18 607,-195 600.14,-178.12 597.16,-169.34 607,-154 651.36,-84.87 695.73,-98.5 775,-77 964.64,-25.56 1202.49,-20.84 1291.86,-21.06"/>
<polygon fill="#63b8ff" stroke="#63b8ff" points="1291.69,-24.56 1301.71,-21.11 1291.73,-17.56 1291.69,-24.56"/>
</g>
<!-- Node32&#45;&gt;Node23 -->
<g id="edge48" class="edge">
<title>Node32&#45;&gt;Node23</title>
<path fill="none" stroke="#63b8ff" d="M661.47,-241.6C662.08,-230.33 663.13,-210.55 663.93,-195.56"/>
<polygon fill="#63b8ff" stroke="#63b8ff" points="667.41,-196.07 664.45,-185.9 660.42,-195.7 667.41,-196.07"/>
</g>
<!-- Node33&#45;&gt;Node3 -->
<g id="edge50" class="edge">
<title>Node33&#45;&gt;Node3</title>
<path fill="none" stroke="#63b8ff" d="M444.18,-267.21C451.89,-268.94 459.61,-270.58 467,-272 550.76,-288.08 648.3,-301.2 708.94,-308.93"/>
<polygon fill="#63b8ff" stroke="#63b8ff" points="708.33,-312.38 718.69,-310.17 709.21,-305.44 708.33,-312.38"/>
</g>
<!-- Node33&#45;&gt;Node8 -->
<g id="edge51" class="edge">
<title>Node33&#45;&gt;Node8</title>
<path fill="none" stroke="#63b8ff" d="M363.25,-230.58C335.29,-190.04 271.66,-97.82 239.06,-50.58"/>
<polygon fill="#63b8ff" stroke="#63b8ff" points="242.02,-48.7 233.46,-42.46 236.26,-52.68 242.02,-48.7"/>
</g>
<!-- Node34 -->
<g id="node34" class="node">
<title>Node34</title>
<g id="a_node34"><a xlink:href="_idle__state_8h.html" target="_top" xlink:title="Clase de estado de reposo.">
<polygon fill="white" stroke="#666666" points="276,-195 160,-195 160,-154 276,-154 276,-195"/>
<text text-anchor="start" x="168" y="-183" font-family="Helvetica,sans-Serif" font-size="10.00">machine_state_pattern</text>
<text text-anchor="start" x="168" y="-172" font-family="Helvetica,sans-Serif" font-size="10.00">/machine_states/Idle</text>
<text text-anchor="middle" x="218" y="-161" font-family="Helvetica,sans-Serif" font-size="10.00">_state.h</text>
</a>
</g>
</g>
<!-- Node33&#45;&gt;Node34 -->
<g id="edge52" class="edge">
<title>Node33&#45;&gt;Node34</title>
<path fill="none" stroke="#63b8ff" d="M334.81,-230.6C315.13,-221.32 291.51,-210.18 270.68,-200.35"/>
<polygon fill="#63b8ff" stroke="#63b8ff" points="272.3,-197.24 261.76,-196.14 269.31,-203.57 272.3,-197.24"/>
</g>
<!-- Node34&#45;&gt;Node2 -->
<g id="edge60" class="edge">
<title>Node34&#45;&gt;Node2</title>
<path fill="none" stroke="#63b8ff" d="M203.07,-195.45C195.24,-205.97 185.53,-219.13 177,-231 146.56,-273.33 112.08,-322.93 90.93,-353.54"/>
<polygon fill="#63b8ff" stroke="#63b8ff" points="88.22,-351.31 85.42,-361.53 93.98,-355.29 88.22,-351.31"/>
</g>
<!-- Node34&#45;&gt;Node3 -->
<g id="edge53" class="edge">
<title>Node34&#45;&gt;Node3</title>
<path fill="none" stroke="#63b8ff" d="M202.18,-195.38C187.1,-216.85 169.39,-250.82 189,-272 223.83,-309.62 569.43,-315.54 708.99,-316.4"/>
<polygon fill="#63b8ff" stroke="#63b8ff" points="708.73,-319.9 718.75,-316.45 708.77,-312.9 708.73,-319.9"/>
</g>
<!-- Node34&#45;&gt;Node8 -->
<g id="edge54" class="edge">
<title>Node34&#45;&gt;Node8</title>
<path fill="none" stroke="#63b8ff" d="M218.13,-153.63C218.3,-127.91 218.6,-82.82 218.8,-52.56"/>
<polygon fill="#63b8ff" stroke="#63b8ff" points="222.29,-52.91 218.86,-42.89 215.29,-52.87 222.29,-52.91"/>
</g>
<!-- Node34&#45;&gt;Node35 -->
<g id="edge55" class="edge">
<title>Node34&#45;&gt;Node35</title>
<path fill="none" stroke="#63b8ff" d="M189.38,-153.79C178.93,-145.34 167.26,-135.3 157.14,-126.12"/>
<polygon fill="#63b8ff" stroke="#63b8ff" points="159.54,-123.58 149.82,-119.36 154.79,-128.72 159.54,-123.58"/>
</g>
<!-- Node35&#45;&gt;Node2 -->
<g id="edge59" class="edge">
<title>Node35&#45;&gt;Node2</title>
<path fill="none" stroke="#63b8ff" d="M131.38,-118.45C124.74,-167.31 97.93,-293.25 81.99,-351.77"/>
<polygon fill="#63b8ff" stroke="#63b8ff" points="78.71,-350.5 79.37,-361.07 85.45,-352.4 78.71,-350.5"/>
</g>
<!-- Node35&#45;&gt;Node3 -->
<g id="edge56" class="edge">
<title>Node35&#45;&gt;Node3</title>
<path fill="none" stroke="#63b8ff" d="M130.2,-118.45C128.08,-155.67 129.69,-235.26 177,-272 218.38,-304.13 568.52,-313.31 709.01,-315.72"/>
<polygon fill="#63b8ff" stroke="#63b8ff" points="708.78,-319.21 718.84,-315.88 708.9,-312.21 708.78,-319.21"/>
</g>
<!-- Node35&#45;&gt;Node8 -->
<g id="edge57" class="edge">
<title>Node35&#45;&gt;Node8</title>
<path fill="none" stroke="#63b8ff" d="M154.86,-76.79C164.77,-68.25 176.54,-58.1 187.28,-48.84"/>
<polygon fill="#63b8ff" stroke="#63b8ff" points="189.56,-51.5 194.85,-42.32 184.99,-46.2 189.56,-51.5"/>
</g>
<!-- Node35&#45;&gt;Node34 -->
<g id="edge58" class="edge">
<title>Node35&#45;&gt;Node34</title>
<path fill="none" stroke="#63b8ff" d="M160.78,-118.33C171.24,-126.81 182.91,-136.84 193.02,-146.02"/>
<polygon fill="#63b8ff" stroke="#63b8ff" points="190.6,-148.55 200.32,-152.77 195.35,-143.41 190.6,-148.55"/>
</g>
<!-- Node36&#45;&gt;Node12 -->
<g id="edge64" class="edge">
<title>Node36&#45;&gt;Node12</title>
<path fill="none" stroke="#63b8ff" d="M1743.3,-164.53C1739.11,-145.06 1726.32,-98.89 1696,-77 1669.3,-57.72 1451.66,-33.94 1364.19,-25.06"/>
<polygon fill="#63b8ff" stroke="#63b8ff" points="1364.55,-21.58 1354.25,-24.06 1363.85,-28.55 1364.55,-21.58"/>
</g>
<!-- Node36&#45;&gt;Node15 -->
<g id="edge66" class="edge">
<title>Node36&#45;&gt;Node15</title>
<path fill="none" stroke="#63b8ff" d="M1747.49,-164.6C1750.68,-153.21 1756.3,-133.16 1760.51,-118.11"/>
<polygon fill="#63b8ff" stroke="#63b8ff" points="1763.78,-119.42 1763.1,-108.84 1757.04,-117.53 1763.78,-119.42"/>
</g>
<!-- Node36&#45;&gt;Node18 -->
<g id="edge65" class="edge">
<title>Node36&#45;&gt;Node18</title>
<path fill="none" stroke="#63b8ff" d="M1755.39,-164.69C1766.81,-154.5 1784.99,-136.72 1796,-118 1810.38,-93.55 1819.32,-61.76 1823.98,-41.49"/>
<polygon fill="#63b8ff" stroke="#63b8ff" points="1827.39,-42.26 1826.07,-31.75 1820.55,-40.79 1827.39,-42.26"/>
</g>
</g>
</svg>
        <g id="navigator" transform="translate(0 0)" fill="#404254">
                <rect fill="#f2f5e9" fill-opacity="0.5" stroke="#606060" stroke-width=".5" x="0" y="0" width="60" height="60"/>
                <use id="zoomplus" xlink:href="#zoomPlus" x="17" y="9" onmousedown="handleZoom(evt,'in')"/>
                <use id="zoomminus" xlink:href="#zoomMin" x="42" y="9" onmousedown="handleZoom(evt,'out')"/>
                <use id="reset" xlink:href="#resetDef" x="30" y="36" onmousedown="handleReset()"/>
                <g id="arrowUp" xlink:href="#dirArrow" transform="translate(30 24)" onmousedown="handlePan(0,-1)">
                  <use xlink:href="#rim" fill="#404040">
                        <set attributeName="fill" to="#808080" begin="arrowUp.mouseover" end="arrowUp.mouseout"/>
                  </use>
                  <path fill="none" stroke="white" stroke-width="1.5" d="M0,-3.0v7 M-2.5,-0.5L0,-3.0L2.5,-0.5"/>
                </g>
                <g id="arrowRight" xlink:href="#dirArrow" transform="rotate(90) translate(36 -43)" onmousedown="handlePan(1,0)">
                  <use xlink:href="#rim" fill="#404040">
                        <set attributeName="fill" to="#808080" begin="arrowRight.mouseover" end="arrowRight.mouseout"/>
                  </use>
                  <path fill="none" stroke="white" stroke-width="1.5" d="M0,-3.0v7 M-2.5,-0.5L0,-3.0L2.5,-0.5"/>
                </g>
                <g id="arrowDown" xlink:href="#dirArrow" transform="rotate(180) translate(-30 -48)" onmousedown="handlePan(0,1)">
                  <use xlink:href="#rim" fill="#404040">
                        <set attributeName="fill" to="#808080" begin="arrowDown.mouseover" end="arrowDown.mouseout"/>
                  </use>
                  <path fill="none" stroke="white" stroke-width="1.5" d="M0,-3.0v7 M-2.5,-0.5L0,-3.0L2.5,-0.5"/>
                </g>
                <g id="arrowLeft" xlink:href="#dirArrow" transform="rotate(270) translate(-36 17)" onmousedown="handlePan(-1,0)">
                  <use xlink:href="#rim" fill="#404040">
                        <set attributeName="fill" to="#808080" begin="arrowLeft.mouseover" end="arrowLeft.mouseout"/>
                  </use>
                  <path fill="none" stroke="white" stroke-width="1.5" d="M0,-3.0v7 M-2.5,-0.5L0,-3.0L2.5,-0.5"/>
                </g>
        </g>
        <svg viewBox="0 0 15 15" width="100%" height="30px" preserveAspectRatio="xMaxYMin meet">
         <g id="arrow_out" transform="scale(0.3 0.3)">
          <a xlink:href="_check__instruction__state_8cpp__incl_org.svg" target="_base">
           <rect id="button" ry="5" rx="5" y="6" x="6" height="38" width="38"
                fill="#f2f5e9" fill-opacity="0.5" stroke="#606060" stroke-width="1.0"/>
           <path id="arrow"
             d="M 11.500037,31.436501 C 11.940474,20.09759 22.043105,11.32322 32.158766,21.979434 L 37.068811,17.246167 C 37.068811,17.246167 37.088388,32 37.088388,32 L 22.160133,31.978069 C 22.160133,31.978069 26.997745,27.140456 26.997745,27.140456 C 18.528582,18.264221 13.291696,25.230495 11.500037,31.436501 z"
             style="fill:#404040;"/>
          </a>
         </g>
        </svg>
</svg>
