<?xml version="1.0" encoding="UTF-8" standalone="no"?>
<!DOCTYPE svg PUBLIC "-//W3C//DTD SVG 1.1//EN"
 "http://www.w3.org/Graphics/SVG/1.1/DTD/svg11.dtd">
<!-- Generated by graphviz version 7.0.2 (20221119.0110)
 -->
<!-- Title: C:/Users/juanh/OneDrive/Escritorio/Facultad/Beca/Proyecto/LAL Control Arduino/include/Control_system.h Pages: 1 -->
<svg width="1040pt" height="357pt"
 viewBox="0.00 0.00 1039.50 357.00" xmlns="http://www.w3.org/2000/svg" xmlns:xlink="http://www.w3.org/1999/xlink">
<g id="graph0" class="graph" transform="scale(1 1) rotate(0) translate(4 353)">
<title>C:/Users/juanh/OneDrive/Escritorio/Facultad/Beca/Proyecto/LAL Control Arduino/include/Control_system.h</title>
<!-- Node1 -->
<g id="node1" class="node">
<title>Node1</title>
<g id="a_node1"><a xlink:title="Clase para el sistema de control.">
<polygon fill="#999999" stroke="#666666" points="510.5,-349 361.5,-349 361.5,-297 510.5,-297 510.5,-349"/>
<text text-anchor="start" x="369.5" y="-337" font-family="Helvetica,sans-Serif" font-size="10.00">C:/Users/juanh/OneDrive</text>
<text text-anchor="start" x="369.5" y="-326" font-family="Helvetica,sans-Serif" font-size="10.00">/Escritorio/Facultad/Beca</text>
<text text-anchor="start" x="369.5" y="-315" font-family="Helvetica,sans-Serif" font-size="10.00">/Proyecto/LAL Control Arduino</text>
<text text-anchor="middle" x="436" y="-304" font-family="Helvetica,sans-Serif" font-size="10.00">/include/Control_system.h</text>
</a>
</g>
</g>
<!-- Node2 -->
<g id="node2" class="node">
<title>Node2</title>
<g id="a_node2"><a xlink:href="_alarm__state_8h.html" target="_top" xlink:title="Clase de estado de control del motor.">
<polygon fill="white" stroke="#666666" points="296,-261 144,-261 144,-198 296,-198 296,-261"/>
<text text-anchor="start" x="152" y="-249" font-family="Helvetica,sans-Serif" font-size="10.00">C:/Users/juanh/OneDrive</text>
<text text-anchor="start" x="152" y="-238" font-family="Helvetica,sans-Serif" font-size="10.00">/Escritorio/Facultad/Beca</text>
<text text-anchor="start" x="152" y="-227" font-family="Helvetica,sans-Serif" font-size="10.00">/Proyecto/LAL Control Arduino</text>
<text text-anchor="start" x="152" y="-216" font-family="Helvetica,sans-Serif" font-size="10.00">/include/machine_state_pattern</text>
<text text-anchor="middle" x="220" y="-205" font-family="Helvetica,sans-Serif" font-size="10.00">/machine_states/Alarm_state.h</text>
</a>
</g>
</g>
<!-- Node1&#45;&gt;Node2 -->
<g id="edge1" class="edge">
<title>Node1&#45;&gt;Node2</title>
<path fill="none" stroke="#63b8ff" d="M365.36,-292.08C342.14,-282.24 316.29,-271.29 292.9,-261.38"/>
<polygon fill="#63b8ff" stroke="#63b8ff" points="363.87,-295.24 374.44,-295.92 366.6,-288.8 363.87,-295.24"/>
</g>
<!-- Node3 -->
<g id="node3" class="node">
<title>Node3</title>
<g id="a_node3"><a xlink:href="_check__instruction__state_8h_source.html" target="_top" xlink:title=" ">
<polygon fill="white" stroke="#666666" points="375.5,-162 170.5,-162 170.5,-99 375.5,-99 375.5,-162"/>
<text text-anchor="start" x="178.5" y="-150" font-family="Helvetica,sans-Serif" font-size="10.00">C:/Users/juanh/OneDrive</text>
<text text-anchor="start" x="178.5" y="-139" font-family="Helvetica,sans-Serif" font-size="10.00">/Escritorio/Facultad/Beca</text>
<text text-anchor="start" x="178.5" y="-128" font-family="Helvetica,sans-Serif" font-size="10.00">/Proyecto/LAL Control Arduino</text>
<text text-anchor="start" x="178.5" y="-117" font-family="Helvetica,sans-Serif" font-size="10.00">/include/machine_state_pattern</text>
<text text-anchor="middle" x="273" y="-106" font-family="Helvetica,sans-Serif" font-size="10.00">/machine_states/Check_instruction_state.h</text>
</a>
</g>
</g>
<!-- Node1&#45;&gt;Node3 -->
<g id="edge8" class="edge">
<title>Node1&#45;&gt;Node3</title>
<path fill="none" stroke="#63b8ff" d="M402.09,-288.54C369.56,-252.87 321.7,-196.87 294.2,-162.27"/>
<polygon fill="#63b8ff" stroke="#63b8ff" points="399.22,-290.6 408.57,-295.59 404.38,-285.86 399.22,-290.6"/>
</g>
<!-- Node4 -->
<g id="node4" class="node">
<title>Node4</title>
<g id="a_node4"><a xlink:href="_idle__state_8h.html" target="_top" xlink:title="Clase de estado de reposo.">
<polygon fill="white" stroke="#666666" points="152,-162 0,-162 0,-99 152,-99 152,-162"/>
<text text-anchor="start" x="8" y="-150" font-family="Helvetica,sans-Serif" font-size="10.00">C:/Users/juanh/OneDrive</text>
<text text-anchor="start" x="8" y="-139" font-family="Helvetica,sans-Serif" font-size="10.00">/Escritorio/Facultad/Beca</text>
<text text-anchor="start" x="8" y="-128" font-family="Helvetica,sans-Serif" font-size="10.00">/Proyecto/LAL Control Arduino</text>
<text text-anchor="start" x="8" y="-117" font-family="Helvetica,sans-Serif" font-size="10.00">/include/machine_state_pattern</text>
<text text-anchor="middle" x="76" y="-106" font-family="Helvetica,sans-Serif" font-size="10.00">/machine_states/Idle_state.h</text>
</a>
</g>
</g>
<!-- Node1&#45;&gt;Node4 -->
<g id="edge9" class="edge">
<title>Node1&#45;&gt;Node4</title>
<path fill="none" stroke="#63b8ff" d="M350.16,-313.34C273.27,-304.04 167.72,-287.01 135,-261 104.15,-236.48 88.84,-192.24 81.68,-162.38"/>
<polygon fill="#63b8ff" stroke="#63b8ff" points="349.44,-316.77 359.78,-314.47 350.26,-309.82 349.44,-316.77"/>
</g>
<!-- Node5 -->
<g id="node5" class="node">
<title>Node5</title>
<g id="a_node5"><a xlink:href="_shutdown__state_8h.html" target="_top" xlink:title="Clase de estado de apagado del sistema.">
<polygon fill="white" stroke="#666666" points="498,-63 328,-63 328,0 498,0 498,-63"/>
<text text-anchor="start" x="336" y="-51" font-family="Helvetica,sans-Serif" font-size="10.00">C:/Users/juanh/OneDrive</text>
<text text-anchor="start" x="336" y="-40" font-family="Helvetica,sans-Serif" font-size="10.00">/Escritorio/Facultad/Beca</text>
<text text-anchor="start" x="336" y="-29" font-family="Helvetica,sans-Serif" font-size="10.00">/Proyecto/LAL Control Arduino</text>
<text text-anchor="start" x="336" y="-18" font-family="Helvetica,sans-Serif" font-size="10.00">/include/machine_state_pattern</text>
<text text-anchor="middle" x="413" y="-7" font-family="Helvetica,sans-Serif" font-size="10.00">/machine_states/Shutdown_state.h</text>
</a>
</g>
</g>
<!-- Node1&#45;&gt;Node5 -->
<g id="edge10" class="edge">
<title>Node1&#45;&gt;Node5</title>
<path fill="none" stroke="#63b8ff" d="M428.43,-285.46C420.98,-227.92 412.29,-117.19 411.09,-63.38"/>
<polygon fill="#63b8ff" stroke="#63b8ff" points="424.92,-285.63 429.74,-295.06 431.86,-284.68 424.92,-285.63"/>
</g>
<!-- Node6 -->
<g id="node6" class="node">
<title>Node6</title>
<g id="a_node6"><a xlink:href="main_8h.html" target="_top" xlink:title="Archivo principal del programa.">
<polygon fill="white" stroke="#666666" points="749.5,-57.5 600.5,-57.5 600.5,-5.5 749.5,-5.5 749.5,-57.5"/>
<text text-anchor="start" x="608.5" y="-45.5" font-family="Helvetica,sans-Serif" font-size="10.00">C:/Users/juanh/OneDrive</text>
<text text-anchor="start" x="608.5" y="-34.5" font-family="Helvetica,sans-Serif" font-size="10.00">/Escritorio/Facultad/Beca</text>
<text text-anchor="start" x="608.5" y="-23.5" font-family="Helvetica,sans-Serif" font-size="10.00">/Proyecto/LAL Control Arduino</text>
<text text-anchor="middle" x="675" y="-12.5" font-family="Helvetica,sans-Serif" font-size="10.00">/include/main.h</text>
</a>
</g>
</g>
<!-- Node1&#45;&gt;Node6 -->
<g id="edge11" class="edge">
<title>Node1&#45;&gt;Node6</title>
<path fill="none" stroke="#63b8ff" d="M442.23,-285.45C452.84,-224.01 473.87,-106.01 480,-99 510.14,-64.53 558.89,-47.91 600.1,-39.9"/>
<polygon fill="#63b8ff" stroke="#63b8ff" points="438.82,-284.64 440.57,-295.09 445.72,-285.82 438.82,-284.64"/>
</g>
<!-- Node7 -->
<g id="node7" class="node">
<title>Node7</title>
<g id="a_node7"><a xlink:href="_cooler__observer_8h_source.html" target="_top" xlink:title=" ">
<polygon fill="white" stroke="#666666" points="657.5,-162 488.5,-162 488.5,-99 657.5,-99 657.5,-162"/>
<text text-anchor="start" x="496.5" y="-150" font-family="Helvetica,sans-Serif" font-size="10.00">C:/Users/juanh/OneDrive</text>
<text text-anchor="start" x="496.5" y="-139" font-family="Helvetica,sans-Serif" font-size="10.00">/Escritorio/Facultad/Beca</text>
<text text-anchor="start" x="496.5" y="-128" font-family="Helvetica,sans-Serif" font-size="10.00">/Proyecto/LAL Control Arduino</text>
<text text-anchor="start" x="496.5" y="-117" font-family="Helvetica,sans-Serif" font-size="10.00">/include/observer_pattern/observers</text>
<text text-anchor="middle" x="573" y="-106" font-family="Helvetica,sans-Serif" font-size="10.00">/Cooler_observer.h</text>
</a>
</g>
</g>
<!-- Node1&#45;&gt;Node7 -->
<g id="edge12" class="edge">
<title>Node1&#45;&gt;Node7</title>
<path fill="none" stroke="#63b8ff" d="M457.58,-287.25C473.58,-262.01 496.3,-227.29 518,-198 526.83,-186.08 537.06,-173.44 546.28,-162.41"/>
<polygon fill="#63b8ff" stroke="#63b8ff" points="454.76,-285.16 452.38,-295.48 460.68,-288.89 454.76,-285.16"/>
</g>
<!-- Node8 -->
<g id="node8" class="node">
<title>Node8</title>
<g id="a_node8"><a xlink:href="_moisture__observer_8h.html" target="_top" xlink:title="Observador del sensor de temperatura.">
<polygon fill="white" stroke="#666666" points="844.5,-162 675.5,-162 675.5,-99 844.5,-99 844.5,-162"/>
<text text-anchor="start" x="683.5" y="-150" font-family="Helvetica,sans-Serif" font-size="10.00">C:/Users/juanh/OneDrive</text>
<text text-anchor="start" x="683.5" y="-139" font-family="Helvetica,sans-Serif" font-size="10.00">/Escritorio/Facultad/Beca</text>
<text text-anchor="start" x="683.5" y="-128" font-family="Helvetica,sans-Serif" font-size="10.00">/Proyecto/LAL Control Arduino</text>
<text text-anchor="start" x="683.5" y="-117" font-family="Helvetica,sans-Serif" font-size="10.00">/include/observer_pattern/observers</text>
<text text-anchor="middle" x="760" y="-106" font-family="Helvetica,sans-Serif" font-size="10.00">/Moisture_observer.h</text>
</a>
</g>
</g>
<!-- Node1&#45;&gt;Node8 -->
<g id="edge14" class="edge">
<title>Node1&#45;&gt;Node8</title>
<path fill="none" stroke="#63b8ff" d="M522.12,-311.11C589.93,-300.99 677.46,-284.01 705,-261 734.8,-236.1 748.8,-192.17 755.13,-162.46"/>
<polygon fill="#63b8ff" stroke="#63b8ff" points="521.88,-307.61 512.49,-312.52 522.89,-314.54 521.88,-307.61"/>
</g>
<!-- Node9 -->
<g id="node9" class="node">
<title>Node9</title>
<g id="a_node9"><a xlink:href="_system__observer_8h.html" target="_top" xlink:title="Clase observador del sistema de control.">
<polygon fill="white" stroke="#666666" points="695.5,-261 526.5,-261 526.5,-198 695.5,-198 695.5,-261"/>
<text text-anchor="start" x="534.5" y="-249" font-family="Helvetica,sans-Serif" font-size="10.00">C:/Users/juanh/OneDrive</text>
<text text-anchor="start" x="534.5" y="-238" font-family="Helvetica,sans-Serif" font-size="10.00">/Escritorio/Facultad/Beca</text>
<text text-anchor="start" x="534.5" y="-227" font-family="Helvetica,sans-Serif" font-size="10.00">/Proyecto/LAL Control Arduino</text>
<text text-anchor="start" x="534.5" y="-216" font-family="Helvetica,sans-Serif" font-size="10.00">/include/observer_pattern/observers</text>
<text text-anchor="middle" x="611" y="-205" font-family="Helvetica,sans-Serif" font-size="10.00">/System_observer.h</text>
</a>
</g>
</g>
<!-- Node1&#45;&gt;Node9 -->
<g id="edge16" class="edge">
<title>Node1&#45;&gt;Node9</title>
<path fill="none" stroke="#63b8ff" d="M488.59,-291.14C506.5,-281.55 526.73,-270.98 545.52,-261.38"/>
<polygon fill="#63b8ff" stroke="#63b8ff" points="487.1,-287.97 479.96,-295.79 490.42,-294.13 487.1,-287.97"/>
</g>
<!-- Node10 -->
<g id="node10" class="node">
<title>Node10</title>
<g id="a_node10"><a xlink:href="_temperature__observer_8h.html" target="_top" xlink:title="Observador del sensor de temperatura.">
<polygon fill="white" stroke="#666666" points="1031.5,-162 862.5,-162 862.5,-99 1031.5,-99 1031.5,-162"/>
<text text-anchor="start" x="870.5" y="-150" font-family="Helvetica,sans-Serif" font-size="10.00">C:/Users/juanh/OneDrive</text>
<text text-anchor="start" x="870.5" y="-139" font-family="Helvetica,sans-Serif" font-size="10.00">/Escritorio/Facultad/Beca</text>
<text text-anchor="start" x="870.5" y="-128" font-family="Helvetica,sans-Serif" font-size="10.00">/Proyecto/LAL Control Arduino</text>
<text text-anchor="start" x="870.5" y="-117" font-family="Helvetica,sans-Serif" font-size="10.00">/include/observer_pattern/observers</text>
<text text-anchor="middle" x="947" y="-106" font-family="Helvetica,sans-Serif" font-size="10.00">/Temperature_observer.h</text>
</a>
</g>
</g>
<!-- Node1&#45;&gt;Node10 -->
<g id="edge22" class="edge">
<title>Node1&#45;&gt;Node10</title>
<path fill="none" stroke="#63b8ff" d="M522.27,-312.98C584.21,-304.52 668.8,-288.86 739,-261 801.87,-236.05 866.88,-192.14 907.12,-162.44"/>
<polygon fill="#63b8ff" stroke="#63b8ff" points="521.93,-309.49 512.47,-314.28 522.85,-316.43 521.93,-309.49"/>
</g>
<!-- Node2&#45;&gt;Node3 -->
<g id="edge2" class="edge">
<title>Node2&#45;&gt;Node3</title>
<path fill="none" stroke="#63b8ff" d="M242.38,-187.54C246.96,-179.15 251.71,-170.46 256.06,-162.5"/>
<polygon fill="#63b8ff" stroke="#63b8ff" points="239.36,-185.76 237.64,-196.21 245.51,-189.12 239.36,-185.76"/>
</g>
<!-- Node2&#45;&gt;Node4 -->
<g id="edge4" class="edge">
<title>Node2&#45;&gt;Node4</title>
<path fill="none" stroke="#63b8ff" d="M158.31,-191.38C143.87,-181.85 128.87,-171.69 115.67,-162.5"/>
<polygon fill="#63b8ff" stroke="#63b8ff" points="156.15,-194.15 166.44,-196.71 160,-188.3 156.15,-194.15"/>
</g>
<!-- Node3&#45;&gt;Node1 -->
<g id="edge3" class="edge">
<title>Node3&#45;&gt;Node1</title>
<path fill="none" stroke="#63b8ff" d="M311.94,-170.5C346.07,-208.27 393.85,-264.43 419.11,-296.7"/>
<polygon fill="#63b8ff" stroke="#63b8ff" points="314.79,-168.43 305.47,-163.39 309.61,-173.14 314.79,-168.43"/>
</g>
<!-- Node4&#45;&gt;Node2 -->
<g id="edge5" class="edge">
<title>Node4&#45;&gt;Node2</title>
<path fill="none" stroke="#63b8ff" d="M137.75,-168.66C152.19,-178.2 167.19,-188.35 180.38,-197.54"/>
<polygon fill="#63b8ff" stroke="#63b8ff" points="139.9,-165.89 129.62,-163.33 136.06,-171.74 139.9,-165.89"/>
</g>
<!-- Node4&#45;&gt;Node5 -->
<g id="edge6" class="edge">
<title>Node4&#45;&gt;Node5</title>
<path fill="none" stroke="#63b8ff" d="M163.15,-98.41C223.03,-80.06 281.35,-64.69 327.62,-53.08"/>
<polygon fill="#63b8ff" stroke="#63b8ff" points="162.32,-95.01 153.8,-101.3 164.38,-101.7 162.32,-95.01"/>
</g>
<!-- Node5&#45;&gt;Node1 -->
<g id="edge7" class="edge">
<title>Node5&#45;&gt;Node1</title>
<path fill="none" stroke="#63b8ff" d="M421.26,-74.51C428.81,-135.48 437.34,-246.66 438.01,-296.56"/>
<polygon fill="#63b8ff" stroke="#63b8ff" points="424.77,-74.34 420.01,-64.88 417.83,-75.24 424.77,-74.34"/>
</g>
<!-- Node7&#45;&gt;Node6 -->
<g id="edge13" class="edge">
<title>Node7&#45;&gt;Node6</title>
<path fill="none" stroke="#63b8ff" d="M613.82,-90.68C625.39,-79.68 637.7,-67.98 648.21,-57.98"/>
<polygon fill="#63b8ff" stroke="#63b8ff" points="611.49,-88.07 606.65,-97.5 616.31,-93.14 611.49,-88.07"/>
</g>
<!-- Node8&#45;&gt;Node6 -->
<g id="edge15" class="edge">
<title>Node8&#45;&gt;Node6</title>
<path fill="none" stroke="#63b8ff" d="M725.42,-90.04C715.94,-79.22 705.92,-67.78 697.32,-57.98"/>
<polygon fill="#63b8ff" stroke="#63b8ff" points="722.65,-92.19 731.87,-97.4 727.92,-87.58 722.65,-92.19"/>
</g>
<!-- Node9&#45;&gt;Node1 -->
<g id="edge17" class="edge">
<title>Node9&#45;&gt;Node1</title>
<path fill="none" stroke="#63b8ff" d="M548.41,-266.69C529.6,-276.66 509.14,-287.28 490.87,-296.51"/>
<polygon fill="#63b8ff" stroke="#63b8ff" points="549.85,-269.88 557.03,-262.09 546.56,-263.71 549.85,-269.88"/>
</g>
<!-- Node9&#45;&gt;Node7 -->
<g id="edge18" class="edge">
<title>Node9&#45;&gt;Node7</title>
<path fill="none" stroke="#63b8ff" d="M594.74,-186.98C591.52,-178.77 588.19,-170.29 585.14,-162.5"/>
<polygon fill="#63b8ff" stroke="#63b8ff" points="591.41,-188.1 598.32,-196.13 597.93,-185.54 591.41,-188.1"/>
</g>
<!-- Node9&#45;&gt;Node8 -->
<g id="edge19" class="edge">
<title>Node9&#45;&gt;Node8</title>
<path fill="none" stroke="#63b8ff" d="M668.02,-191.38C682.67,-181.85 698.27,-171.69 712.39,-162.5"/>
<polygon fill="#63b8ff" stroke="#63b8ff" points="666.29,-188.33 659.82,-196.72 670.11,-194.19 666.29,-188.33"/>
</g>
<!-- Node9&#45;&gt;Node10 -->
<g id="edge20" class="edge">
<title>Node9&#45;&gt;Node10</title>
<path fill="none" stroke="#63b8ff" d="M706.82,-203.46C751.67,-191.43 805.73,-176.51 854,-162 856.68,-161.19 859.41,-160.36 862.16,-159.52"/>
<polygon fill="#63b8ff" stroke="#63b8ff" points="706.14,-200.02 697.38,-205.98 707.95,-206.78 706.14,-200.02"/>
</g>
<!-- Node10&#45;&gt;Node6 -->
<g id="edge21" class="edge">
<title>Node10&#45;&gt;Node6</title>
<path fill="none" stroke="#63b8ff" d="M851.48,-95.43C816.96,-83.12 778.61,-69.45 746.5,-58"/>
<polygon fill="#63b8ff" stroke="#63b8ff" points="850.04,-98.64 860.63,-98.7 852.39,-92.04 850.04,-98.64"/>
</g>
</g>
</svg>
