<?xml version="1.0" encoding="UTF-8" standalone="no"?>
<!DOCTYPE svg PUBLIC "-//W3C//DTD SVG 1.1//EN"
 "http://www.w3.org/Graphics/SVG/1.1/DTD/svg11.dtd">
<!-- Generated by graphviz version 7.0.2 (20221119.0110)
 -->
<!-- Title: C:/Users/juanh/OneDrive/Escritorio/Sistemas Embebidos/Proyecto final/LAL Control MbedOS/src/Port/Control_system.cpp Pages: 1 -->
<!--zoomable 500 -->
<svg id="main" version="1.1" xmlns="http://www.w3.org/2000/svg" xmlns:xlink="http://www.w3.org/1999/xlink" xml:space="preserve" onload="init(evt)">
<style type="text/css"><![CDATA[
.edge:hover path { stroke: red; }
.edge:hover polygon { stroke: red; fill: red; }
]]></style>
<script type="text/javascript"><![CDATA[
var edges = document.getElementsByTagName('g');
if (edges && edges.length) {
  for (var i=0;i<edges.length;i++) {
    if (edges[i].id.substr(0,4)=='edge') {
      edges[i].setAttribute('class','edge');
    }
  }
}
]]></script>
        <defs>
                <circle id="rim" cx="0" cy="0" r="7"/>
                <circle id="rim2" cx="0" cy="0" r="3.5"/>
                <g id="zoomPlus">
                        <use xlink:href="#rim" fill="#404040">
                                <set attributeName="fill" to="#808080" begin="zoomplus.mouseover" end="zoomplus.mouseout"/>
                        </use>
                        <path d="M-4,0h8M0,-4v8" fill="none" stroke="white" stroke-width="1.5" pointer-events="none"/>
                </g>
                <g id="zoomMin">
                        <use xlink:href="#rim" fill="#404040">
                                <set attributeName="fill" to="#808080" begin="zoomminus.mouseover" end="zoomminus.mouseout"/>
                        </use>
                        <path d="M-4,0h8" fill="none" stroke="white" stroke-width="1.5" pointer-events="none"/>
                </g>
                <g id="dirArrow">
                        <path fill="none" stroke="white" stroke-width="1.5" d="M0,-3.0v7 M-2.5,-0.5L0,-3.0L2.5,-0.5"/>
                </g>
               <g id="resetDef">
                       <use xlink:href="#rim2" fill="#404040">
                               <set attributeName="fill" to="#808080" begin="reset.mouseover" end="reset.mouseout"/>
                       </use>
               </g>
        </defs>

<script type="text/javascript">
var viewWidth = 1709;
var viewHeight = 500;
var sectionId = 'dynsection-0';
</script>
<script xlink:href="svgpan.js"/>
<svg id="graph" class="graph">
<g id="viewport">
<title>C:/Users/juanh/OneDrive/Escritorio/Sistemas Embebidos/Proyecto final/LAL Control MbedOS/src/Port/Control_system.cpp</title>
<!-- Node1 -->
<g id="node1" class="node">
<title>Node1</title>
<g id="a_node1"><a xlink:title="Implementación de Control_system.h.">
<polygon fill="#999999" stroke="#666666" points="911.5,-492 726.5,-492 726.5,-440 911.5,-440 911.5,-492"/>
<text text-anchor="start" x="734.5" y="-480" font-family="Helvetica,sans-Serif" font-size="10.00">C:/Users/juanh/OneDrive</text>
<text text-anchor="start" x="734.5" y="-469" font-family="Helvetica,sans-Serif" font-size="10.00">/Escritorio/Sistemas Embebidos</text>
<text text-anchor="start" x="734.5" y="-458" font-family="Helvetica,sans-Serif" font-size="10.00">/Proyecto final/LAL Control</text>
<text text-anchor="middle" x="819" y="-447" font-family="Helvetica,sans-Serif" font-size="10.00"> MbedOS/src/Port/Control_system.cpp</text>
</a>
</g>
</g>
<!-- Node2 -->
<g id="node2" class="node">
<title>Node2</title>
<g id="a_node2"><a xlink:href="_control__system_8h_source.html" target="_top" xlink:title=" ">
<polygon fill="white" stroke="#666666" points="865.5,-404 772.5,-404 772.5,-385 865.5,-385 865.5,-404"/>
<text text-anchor="middle" x="819" y="-392" font-family="Helvetica,sans-Serif" font-size="10.00">Control_system.h</text>
</a>
</g>
</g>
<!-- Node1&#45;&gt;Node2 -->
<g id="edge1" class="edge">
<title>Node1&#45;&gt;Node2</title>
<path fill="none" stroke="#63b8ff" d="M819,-439.52C819,-431.67 819,-423.15 819,-415.71"/>
<polygon fill="#63b8ff" stroke="#63b8ff" points="822.5,-415.71 819,-405.71 815.5,-415.71 822.5,-415.71"/>
</g>
<!-- Node3 -->
<g id="node3" class="node">
<title>Node3</title>
<g id="a_node3"><a xlink:href="_subject_8h.html" target="_top" xlink:title=" ">
<polygon fill="white" stroke="#666666" points="321,-266.5 193,-266.5 193,-236.5 321,-236.5 321,-266.5"/>
<text text-anchor="start" x="201" y="-254.5" font-family="Helvetica,sans-Serif" font-size="10.00">observer_pattern/subjects</text>
<text text-anchor="middle" x="257" y="-243.5" font-family="Helvetica,sans-Serif" font-size="10.00">/Subject.h</text>
</a>
</g>
</g>
<!-- Node2&#45;&gt;Node3 -->
<g id="edge2" class="edge">
<title>Node2&#45;&gt;Node3</title>
<path fill="none" stroke="#63b8ff" d="M772.27,-392.52C674.59,-389.85 452.17,-380.41 384,-349 360.02,-337.95 361.65,-324.45 341,-308 325.15,-295.37 306.43,-282.8 290.69,-272.82"/>
<polygon fill="#63b8ff" stroke="#63b8ff" points="292.94,-270.1 282.61,-267.77 289.23,-276.04 292.94,-270.1"/>
</g>
<!-- Node6 -->
<g id="node6" class="node">
<title>Node6</title>
<g id="a_node6"><a xlink:href="_machine_8h.html" target="_top" xlink:title="Clase de máquina abstracta.">
<polygon fill="white" stroke="#666666" points="412,-189.5 296,-189.5 296,-159.5 412,-159.5 412,-189.5"/>
<text text-anchor="start" x="304" y="-177.5" font-family="Helvetica,sans-Serif" font-size="10.00">machine_state_pattern</text>
<text text-anchor="middle" x="354" y="-166.5" font-family="Helvetica,sans-Serif" font-size="10.00">/Machine.h</text>
</a>
</g>
</g>
<!-- Node2&#45;&gt;Node6 -->
<g id="edge5" class="edge">
<title>Node2&#45;&gt;Node6</title>
<path fill="none" stroke="#63b8ff" d="M772.02,-394.32C678,-395.02 471.09,-391.54 417,-349 370.97,-312.8 358.55,-239.89 355.22,-201.11"/>
<polygon fill="#63b8ff" stroke="#63b8ff" points="358.72,-201.05 354.53,-191.32 351.74,-201.54 358.72,-201.05"/>
</g>
<!-- Node8 -->
<g id="node8" class="node">
<title>Node8</title>
<g id="a_node8"><a xlink:href="_display_8h.html" target="_top" xlink:title="Controlador de LCD hd44780 por interfaz I2C.">
<polygon fill="white" stroke="#666666" points="863,-338 775,-338 775,-319 863,-319 863,-338"/>
<text text-anchor="middle" x="819" y="-326" font-family="Helvetica,sans-Serif" font-size="10.00">drivers/Display.h</text>
</a>
</g>
</g>
<!-- Node2&#45;&gt;Node8 -->
<g id="edge7" class="edge">
<title>Node2&#45;&gt;Node8</title>
<path fill="none" stroke="#63b8ff" d="M819,-384.6C819,-375.62 819,-361.45 819,-349.72"/>
<polygon fill="#63b8ff" stroke="#63b8ff" points="822.5,-349.84 819,-339.84 815.5,-349.84 822.5,-349.84"/>
</g>
<!-- Node18 -->
<g id="node18" class="node">
<title>Node18</title>
<g id="a_node18"><a xlink:href="user__messages_8h.html" target="_top" xlink:title="Archivo para la configuración de interfaz con el usuario.">
<polygon fill="white" stroke="#666666" points="1701,-338 1607,-338 1607,-319 1701,-319 1701,-338"/>
<text text-anchor="middle" x="1654" y="-326" font-family="Helvetica,sans-Serif" font-size="10.00">user_messages.h</text>
</a>
</g>
</g>
<!-- Node2&#45;&gt;Node18 -->
<g id="edge20" class="edge">
<title>Node2&#45;&gt;Node18</title>
<path fill="none" stroke="#63b8ff" d="M865.76,-392.35C1010.87,-388.56 1452.22,-375.11 1593,-349 1601.89,-347.35 1611.29,-344.78 1619.98,-342.04"/>
<polygon fill="#63b8ff" stroke="#63b8ff" points="1621.07,-345.37 1629.45,-338.88 1618.86,-338.73 1621.07,-345.37"/>
</g>
<!-- Node19 -->
<g id="node19" class="node">
<title>Node19</title>
<g id="a_node19"><a xlink:href="_system__observer_8h.html" target="_top" xlink:title="Clase observador del sistema de control.">
<polygon fill="white" stroke="#666666" points="332,-343.5 200,-343.5 200,-313.5 332,-313.5 332,-343.5"/>
<text text-anchor="start" x="208" y="-331.5" font-family="Helvetica,sans-Serif" font-size="10.00">observer_pattern/observers</text>
<text text-anchor="middle" x="266" y="-320.5" font-family="Helvetica,sans-Serif" font-size="10.00">/System_observer.h</text>
</a>
</g>
</g>
<!-- Node2&#45;&gt;Node19 -->
<g id="edge21" class="edge">
<title>Node2&#45;&gt;Node19</title>
<path fill="none" stroke="#63b8ff" d="M772.23,-391.62C685.56,-387.43 495,-375.54 337,-349 332.4,-348.23 327.67,-347.33 322.95,-346.37"/>
<polygon fill="#63b8ff" stroke="#63b8ff" points="323.97,-343.01 313.45,-344.31 322.48,-349.85 323.97,-343.01"/>
</g>
<!-- Node21 -->
<g id="node21" class="node">
<title>Node21</title>
<g id="a_node21"><a xlink:href="_temperature__sensor_8h.html" target="_top" xlink:title="Controlador para sensor de temperatura DS18B20.">
<polygon fill="white" stroke="#666666" points="1550.5,-343.5 1449.5,-343.5 1449.5,-313.5 1550.5,-313.5 1550.5,-343.5"/>
<text text-anchor="start" x="1457.5" y="-331.5" font-family="Helvetica,sans-Serif" font-size="10.00">drivers/Temperature</text>
<text text-anchor="middle" x="1500" y="-320.5" font-family="Helvetica,sans-Serif" font-size="10.00">_sensor.h</text>
</a>
</g>
</g>
<!-- Node2&#45;&gt;Node21 -->
<g id="edge26" class="edge">
<title>Node2&#45;&gt;Node21</title>
<path fill="none" stroke="#63b8ff" d="M865.95,-394.08C970.38,-394.52 1229.39,-390.86 1441,-349 1443.93,-348.42 1446.91,-347.74 1449.9,-346.99"/>
<polygon fill="#63b8ff" stroke="#63b8ff" points="1450.54,-350.44 1459.23,-344.39 1448.66,-343.7 1450.54,-350.44"/>
</g>
<!-- Node24 -->
<g id="node24" class="node">
<title>Node24</title>
<g id="a_node24"><a xlink:href="_moisture__sensor_8h.html" target="_top" xlink:title="Controlador de sensor de humedad analógico.">
<polygon fill="white" stroke="#666666" points="1567,-184 1439,-184 1439,-165 1567,-165 1567,-184"/>
<text text-anchor="middle" x="1503" y="-172" font-family="Helvetica,sans-Serif" font-size="10.00">drivers/Moisture_sensor.h</text>
</a>
</g>
</g>
<!-- Node2&#45;&gt;Node24 -->
<g id="edge29" class="edge">
<title>Node2&#45;&gt;Node24</title>
<path fill="none" stroke="#63b8ff" d="M865.87,-392.44C1025.02,-388.6 1536.14,-374.33 1560,-349 1570.81,-337.52 1564.96,-256.17 1554,-231 1547.31,-215.63 1534.54,-201.74 1523.45,-191.7"/>
<polygon fill="#63b8ff" stroke="#63b8ff" points="1525.73,-189.05 1515.86,-185.21 1521.19,-194.37 1525.73,-189.05"/>
</g>
<!-- Node25 -->
<g id="node25" class="node">
<title>Node25</title>
<g id="a_node25"><a xlink:href="types_8h.html" target="_top" xlink:title="Archivo de definición de tipos de dato.">
<polygon fill="white" stroke="#666666" points="1275.5,-261 1226.5,-261 1226.5,-242 1275.5,-242 1275.5,-261"/>
<text text-anchor="middle" x="1251" y="-249" font-family="Helvetica,sans-Serif" font-size="10.00">types.h</text>
</a>
</g>
</g>
<!-- Node2&#45;&gt;Node25 -->
<g id="edge31" class="edge">
<title>Node2&#45;&gt;Node25</title>
<path fill="none" stroke="#63b8ff" d="M865.73,-392.81C953.08,-390.74 1137.07,-382.42 1190,-349 1218.41,-331.06 1235.94,-294.56 1244.55,-271.95"/>
<polygon fill="#63b8ff" stroke="#63b8ff" points="1247.78,-273.32 1247.83,-262.72 1241.18,-270.97 1247.78,-273.32"/>
</g>
<!-- Node26 -->
<g id="node26" class="node">
<title>Node26</title>
<g id="a_node26"><a xlink:href="_buzzer_8h.html" target="_top" xlink:title="Controlador de Buzzer de 12 milimetros sin oscilador.">
<polygon fill="white" stroke="#666666" points="967,-338 881,-338 881,-319 967,-319 967,-338"/>
<text text-anchor="middle" x="924" y="-326" font-family="Helvetica,sans-Serif" font-size="10.00">drivers/Buzzer.h</text>
</a>
</g>
</g>
<!-- Node2&#45;&gt;Node26 -->
<g id="edge32" class="edge">
<title>Node2&#45;&gt;Node26</title>
<path fill="none" stroke="#63b8ff" d="M833.6,-384.6C850.76,-374.14 879.49,-356.63 899.96,-344.16"/>
<polygon fill="#63b8ff" stroke="#63b8ff" points="901.51,-347.3 908.23,-339.11 897.87,-341.33 901.51,-347.3"/>
</g>
<!-- Node28 -->
<g id="node28" class="node">
<title>Node28</title>
<g id="a_node28"><a xlink:href="_motor_8h.html" target="_top" xlink:title="Controlador de motor de 220 VAC.">
<polygon fill="white" stroke="#666666" points="1065,-338 985,-338 985,-319 1065,-319 1065,-338"/>
<text text-anchor="middle" x="1025" y="-326" font-family="Helvetica,sans-Serif" font-size="10.00">drivers/Motor.h</text>
</a>
</g>
</g>
<!-- Node2&#45;&gt;Node28 -->
<g id="edge35" class="edge">
<title>Node2&#45;&gt;Node28</title>
<path fill="none" stroke="#63b8ff" d="M854.55,-384.54C886.58,-376.2 934.82,-362.99 976,-349 981.71,-347.06 987.72,-344.83 993.5,-342.59"/>
<polygon fill="#63b8ff" stroke="#63b8ff" points="994.79,-345.84 1002.79,-338.89 992.2,-339.34 994.79,-345.84"/>
</g>
<!-- Node29 -->
<g id="node29" class="node">
<title>Node29</title>
<g id="a_node29"><a xlink:href="_dual___l_e_d_8h.html" target="_top" xlink:title="Controlador de LED RG con PWM.">
<polygon fill="white" stroke="#666666" points="1330.5,-338 1237.5,-338 1237.5,-319 1330.5,-319 1330.5,-338"/>
<text text-anchor="middle" x="1284" y="-326" font-family="Helvetica,sans-Serif" font-size="10.00">drivers/Dual_led.h</text>
</a>
</g>
</g>
<!-- Node2&#45;&gt;Node29 -->
<g id="edge38" class="edge">
<title>Node2&#45;&gt;Node29</title>
<path fill="none" stroke="#63b8ff" d="M865.83,-391.38C941.61,-387.27 1095.49,-376.12 1223,-349 1231.62,-347.17 1240.75,-344.6 1249.25,-341.93"/>
<polygon fill="#63b8ff" stroke="#63b8ff" points="1250.11,-345.33 1258.52,-338.88 1247.93,-338.68 1250.11,-345.33"/>
</g>
<!-- Node30 -->
<g id="node30" class="node">
<title>Node30</title>
<g id="a_node30"><a xlink:href="_digital__dual___l_e_d_8h_source.html" target="_top" xlink:title=" ">
<polygon fill="white" stroke="#666666" points="1181,-343.5 1083,-343.5 1083,-313.5 1181,-313.5 1181,-343.5"/>
<text text-anchor="start" x="1091" y="-331.5" font-family="Helvetica,sans-Serif" font-size="10.00">drivers/Digital_dual</text>
<text text-anchor="middle" x="1132" y="-320.5" font-family="Helvetica,sans-Serif" font-size="10.00">_led.h</text>
</a>
</g>
</g>
<!-- Node2&#45;&gt;Node30 -->
<g id="edge42" class="edge">
<title>Node2&#45;&gt;Node30</title>
<path fill="none" stroke="#63b8ff" d="M865.98,-387.48C917.49,-380.37 1002.35,-367.19 1074,-349 1076.25,-348.43 1078.54,-347.81 1080.85,-347.16"/>
<polygon fill="#63b8ff" stroke="#63b8ff" points="1081.64,-350.58 1090.22,-344.36 1079.64,-343.87 1081.64,-350.58"/>
</g>
<!-- Node31 -->
<g id="node31" class="node">
<title>Node31</title>
<g id="a_node31"><a xlink:href="_cooler_8h.html" target="_top" xlink:title="Controlador de ventilador de 12 volts y 5 milímteros.">
<polygon fill="white" stroke="#666666" points="1431.5,-338 1348.5,-338 1348.5,-319 1431.5,-319 1431.5,-338"/>
<text text-anchor="middle" x="1390" y="-326" font-family="Helvetica,sans-Serif" font-size="10.00">drivers/Cooler.h</text>
</a>
</g>
</g>
<!-- Node2&#45;&gt;Node31 -->
<g id="edge45" class="edge">
<title>Node2&#45;&gt;Node31</title>
<path fill="none" stroke="#63b8ff" d="M865.69,-393.95C957.71,-393.88 1168.46,-388.9 1340,-349 1346.74,-347.43 1353.79,-345.13 1360.38,-342.65"/>
<polygon fill="#63b8ff" stroke="#63b8ff" points="1361.56,-345.96 1369.54,-338.98 1358.95,-339.46 1361.56,-345.96"/>
</g>
<!-- Node32 -->
<g id="node32" class="node">
<title>Node32</title>
<g id="a_node32"><a xlink:href="_shutdown__state_8h.html" target="_top" xlink:title="Clase de estado de apagado del sistema.">
<polygon fill="white" stroke="#666666" points="560,-349 426,-349 426,-308 560,-308 560,-349"/>
<text text-anchor="start" x="434" y="-337" font-family="Helvetica,sans-Serif" font-size="10.00">machine_state_pattern</text>
<text text-anchor="start" x="434" y="-326" font-family="Helvetica,sans-Serif" font-size="10.00">/machine_states/Shutdown</text>
<text text-anchor="middle" x="493" y="-315" font-family="Helvetica,sans-Serif" font-size="10.00">_state.h</text>
</a>
</g>
</g>
<!-- Node2&#45;&gt;Node32 -->
<g id="edge48" class="edge">
<title>Node2&#45;&gt;Node32</title>
<path fill="none" stroke="#63b8ff" d="M772.16,-386.87C723.36,-379.13 644.84,-365.54 571.53,-350.34"/>
<polygon fill="#63b8ff" stroke="#63b8ff" points="572.27,-346.92 561.77,-348.3 570.84,-353.78 572.27,-346.92"/>
</g>
<!-- Node4 -->
<g id="node4" class="node">
<title>Node4</title>
<g id="a_node4"><a xlink:href="_subject__interface_8h.html" target="_top" xlink:title="Clase para interfaz para implementar el sujeto.">
<polygon fill="white" stroke="#666666" points="128,-189.5 0,-189.5 0,-159.5 128,-159.5 128,-189.5"/>
<text text-anchor="start" x="8" y="-177.5" font-family="Helvetica,sans-Serif" font-size="10.00">observer_pattern/subjects</text>
<text text-anchor="middle" x="64" y="-166.5" font-family="Helvetica,sans-Serif" font-size="10.00">/Subject_interface.h</text>
</a>
</g>
</g>
<!-- Node3&#45;&gt;Node4 -->
<g id="edge3" class="edge">
<title>Node3&#45;&gt;Node4</title>
<path fill="none" stroke="#63b8ff" d="M219.79,-236.04C188.95,-224.06 144.92,-206.95 111.53,-193.97"/>
<polygon fill="#63b8ff" stroke="#63b8ff" points="113.1,-190.82 102.51,-190.46 110.56,-197.35 113.1,-190.82"/>
</g>
<!-- Node5 -->
<g id="node5" class="node">
<title>Node5</title>
<g id="a_node5"><a xlink:href="_observer__interface_8h.html" target="_top" xlink:title="Clase para interfaz para implementar el observador.">
<polygon fill="white" stroke="#666666" points="278,-189.5 146,-189.5 146,-159.5 278,-159.5 278,-189.5"/>
<text text-anchor="start" x="154" y="-177.5" font-family="Helvetica,sans-Serif" font-size="10.00">observer_pattern/observers</text>
<text text-anchor="middle" x="212" y="-166.5" font-family="Helvetica,sans-Serif" font-size="10.00">/Observer_interface.h</text>
</a>
</g>
</g>
<!-- Node3&#45;&gt;Node5 -->
<g id="edge4" class="edge">
<title>Node3&#45;&gt;Node5</title>
<path fill="none" stroke="#63b8ff" d="M248.32,-236.04C242.16,-225.77 233.74,-211.73 226.56,-199.76"/>
<polygon fill="#63b8ff" stroke="#63b8ff" points="229.57,-197.99 221.43,-191.21 223.57,-201.59 229.57,-197.99"/>
</g>
<!-- Node7 -->
<g id="node7" class="node">
<title>Node7</title>
<g id="a_node7"><a xlink:href="_abstract__state_8h.html" target="_top" xlink:title="Clase de estado abstracta.">
<polygon fill="white" stroke="#666666" points="542,-41 414,-41 414,0 542,0 542,-41"/>
<text text-anchor="start" x="422" y="-29" font-family="Helvetica,sans-Serif" font-size="10.00">machine_state_pattern</text>
<text text-anchor="start" x="422" y="-18" font-family="Helvetica,sans-Serif" font-size="10.00">/machine_states/Abstract</text>
<text text-anchor="middle" x="478" y="-7" font-family="Helvetica,sans-Serif" font-size="10.00">_state.h</text>
</a>
</g>
</g>
<!-- Node6&#45;&gt;Node7 -->
<g id="edge6" class="edge">
<title>Node6&#45;&gt;Node7</title>
<path fill="none" stroke="#63b8ff" d="M364.01,-159.06C377.5,-139.84 402.52,-105.05 426,-77 433.69,-67.81 442.46,-58.16 450.59,-49.54"/>
<polygon fill="#63b8ff" stroke="#63b8ff" points="453.02,-52.05 457.38,-42.4 447.95,-47.23 453.02,-52.05"/>
</g>
<!-- Node9 -->
<g id="node9" class="node">
<title>Node9</title>
<g id="a_node9"><a xlink:href="display__settings_8h.html" target="_top" xlink:title="Archivo de configuración de la pantalla.">
<polygon fill="white" stroke="#666666" points="1093.5,-184 998.5,-184 998.5,-165 1093.5,-165 1093.5,-184"/>
<text text-anchor="middle" x="1046" y="-172" font-family="Helvetica,sans-Serif" font-size="10.00">display_settings.h</text>
</a>
</g>
</g>
<!-- Node8&#45;&gt;Node9 -->
<g id="edge8" class="edge">
<title>Node8&#45;&gt;Node9</title>
<path fill="none" stroke="#63b8ff" d="M835.44,-318.57C854.63,-307.99 887.16,-289.59 914,-272 954.67,-245.36 1000,-211.17 1025.55,-191.46"/>
<polygon fill="#63b8ff" stroke="#63b8ff" points="1027.67,-194.25 1033.43,-185.36 1023.38,-188.72 1027.67,-194.25"/>
</g>
<!-- Node10 -->
<g id="node10" class="node">
<title>Node10</title>
<g id="a_node10"><a xlink:href="hd44780___i2_cexp_8h.html" target="_top" xlink:title="Adaptación de la biblioteca TextLCD de MbedOS 5. Permite utilizar un LCD hd44780 con un expansor de p...">
<polygon fill="white" stroke="#666666" points="905,-261 777,-261 777,-242 905,-242 905,-261"/>
<text text-anchor="middle" x="841" y="-249" font-family="Helvetica,sans-Serif" font-size="10.00">drivers/hd44780_I2Cexp.h</text>
</a>
</g>
</g>
<!-- Node8&#45;&gt;Node10 -->
<g id="edge9" class="edge">
<title>Node8&#45;&gt;Node10</title>
<path fill="none" stroke="#63b8ff" d="M821.61,-318.6C824.95,-307.21 830.83,-287.16 835.25,-272.11"/>
<polygon fill="#63b8ff" stroke="#63b8ff" points="838.51,-273.42 837.97,-262.84 831.79,-271.45 838.51,-273.42"/>
</g>
<!-- Node10&#45;&gt;Node9 -->
<g id="edge19" class="edge">
<title>Node10&#45;&gt;Node9</title>
<path fill="none" stroke="#63b8ff" d="M865.32,-241.6C901.46,-228.38 969.53,-203.48 1011.01,-188.3"/>
<polygon fill="#63b8ff" stroke="#63b8ff" points="1012.1,-191.63 1020.29,-184.91 1009.7,-185.06 1012.1,-191.63"/>
</g>
<!-- Node11 -->
<g id="node11" class="node">
<title>Node11</title>
<g id="a_node11"><a xlink:title=" ">
<polygon fill="#e0e0e0" stroke="#999999" points="1203.5,-107 1154.5,-107 1154.5,-88 1203.5,-88 1203.5,-107"/>
<text text-anchor="middle" x="1179" y="-95" font-family="Helvetica,sans-Serif" font-size="10.00">mbed.h</text>
</a>
</g>
</g>
<!-- Node10&#45;&gt;Node11 -->
<g id="edge10" class="edge">
<title>Node10&#45;&gt;Node11</title>
<path fill="none" stroke="#63b8ff" d="M840.51,-241.75C839.95,-222.7 841.54,-177.33 867,-154 906.86,-117.47 1069.44,-104.32 1142.79,-100.18"/>
<polygon fill="#63b8ff" stroke="#63b8ff" points="1142.87,-103.68 1152.67,-99.65 1142.49,-96.69 1142.87,-103.68"/>
</g>
<!-- Node12 -->
<g id="node12" class="node">
<title>Node12</title>
<g id="a_node12"><a xlink:title=" ">
<polygon fill="#e0e0e0" stroke="#999999" points="756,-107 708,-107 708,-88 756,-88 756,-107"/>
<text text-anchor="middle" x="732" y="-95" font-family="Helvetica,sans-Serif" font-size="10.00">stdlib.h</text>
</a>
</g>
</g>
<!-- Node10&#45;&gt;Node12 -->
<g id="edge11" class="edge">
<title>Node10&#45;&gt;Node12</title>
<path fill="none" stroke="#63b8ff" d="M824.31,-241.57C807.91,-232.02 783.19,-215.45 768,-195 750.69,-171.7 740.86,-139.15 735.98,-118.45"/>
<polygon fill="#63b8ff" stroke="#63b8ff" points="739.42,-117.79 733.88,-108.76 732.58,-119.28 739.42,-117.79"/>
</g>
<!-- Node13 -->
<g id="node13" class="node">
<title>Node13</title>
<g id="a_node13"><a xlink:href="hd44780__instruction__set_8h.html" target="_top" xlink:title="Set de instrucciones del LCD HD44780.">
<polygon fill="white" stroke="#666666" points="980,-189.5 876,-189.5 876,-159.5 980,-159.5 980,-189.5"/>
<text text-anchor="start" x="884" y="-177.5" font-family="Helvetica,sans-Serif" font-size="10.00">hd44780_instruction</text>
<text text-anchor="middle" x="928" y="-166.5" font-family="Helvetica,sans-Serif" font-size="10.00">_set.h</text>
</a>
</g>
</g>
<!-- Node10&#45;&gt;Node13 -->
<g id="edge12" class="edge">
<title>Node10&#45;&gt;Node13</title>
<path fill="none" stroke="#63b8ff" d="M851.32,-241.6C863.97,-230.7 885.83,-211.85 902.99,-197.06"/>
<polygon fill="#63b8ff" stroke="#63b8ff" points="905.02,-199.93 910.31,-190.75 900.45,-194.63 905.02,-199.93"/>
</g>
<!-- Node14 -->
<g id="node14" class="node">
<title>Node14</title>
<g id="a_node14"><a xlink:href="utils_8h_source.html" target="_top" xlink:title=" ">
<polygon fill="white" stroke="#666666" points="819.5,-184 776.5,-184 776.5,-165 819.5,-165 819.5,-184"/>
<text text-anchor="middle" x="798" y="-172" font-family="Helvetica,sans-Serif" font-size="10.00">utils.h</text>
</a>
</g>
</g>
<!-- Node10&#45;&gt;Node14 -->
<g id="edge14" class="edge">
<title>Node10&#45;&gt;Node14</title>
<path fill="none" stroke="#63b8ff" d="M835.9,-241.6C829.24,-229.99 817.41,-209.36 808.74,-194.23"/>
<polygon fill="#63b8ff" stroke="#63b8ff" points="811.86,-192.63 803.85,-185.7 805.79,-196.12 811.86,-192.63"/>
</g>
<!-- Node13&#45;&gt;Node11 -->
<g id="edge13" class="edge">
<title>Node13&#45;&gt;Node11</title>
<path fill="none" stroke="#63b8ff" d="M973.68,-159.02C979.17,-157.32 984.71,-155.61 990,-154 1043.22,-137.82 1105.12,-119.79 1143.18,-108.8"/>
<polygon fill="#63b8ff" stroke="#63b8ff" points="1144.1,-112.18 1152.73,-106.04 1142.16,-105.45 1144.1,-112.18"/>
</g>
<!-- Node14&#45;&gt;Node12 -->
<g id="edge17" class="edge">
<title>Node14&#45;&gt;Node12</title>
<path fill="none" stroke="#63b8ff" d="M790.17,-164.6C779.65,-152.65 760.73,-131.15 747.33,-115.92"/>
<polygon fill="#63b8ff" stroke="#63b8ff" points="750.05,-113.72 740.82,-108.52 744.8,-118.34 750.05,-113.72"/>
</g>
<!-- Node15 -->
<g id="node15" class="node">
<title>Node15</title>
<g id="a_node15"><a xlink:title=" ">
<polygon fill="#e0e0e0" stroke="#999999" points="821.5,-107 774.5,-107 774.5,-88 821.5,-88 821.5,-107"/>
<text text-anchor="middle" x="798" y="-95" font-family="Helvetica,sans-Serif" font-size="10.00">math.h</text>
</a>
</g>
</g>
<!-- Node14&#45;&gt;Node15 -->
<g id="edge15" class="edge">
<title>Node14&#45;&gt;Node15</title>
<path fill="none" stroke="#63b8ff" d="M798,-164.6C798,-153.33 798,-133.55 798,-118.56"/>
<polygon fill="#63b8ff" stroke="#63b8ff" points="801.5,-118.9 798,-108.9 794.5,-118.9 801.5,-118.9"/>
</g>
<!-- Node16 -->
<g id="node16" class="node">
<title>Node16</title>
<g id="a_node16"><a xlink:title=" ">
<polygon fill="#e0e0e0" stroke="#999999" points="886,-107 840,-107 840,-88 886,-88 886,-107"/>
<text text-anchor="middle" x="863" y="-95" font-family="Helvetica,sans-Serif" font-size="10.00">stdio.h</text>
</a>
</g>
</g>
<!-- Node14&#45;&gt;Node16 -->
<g id="edge16" class="edge">
<title>Node14&#45;&gt;Node16</title>
<path fill="none" stroke="#63b8ff" d="M805.71,-164.6C816.07,-152.65 834.7,-131.15 847.9,-115.92"/>
<polygon fill="#63b8ff" stroke="#63b8ff" points="850.4,-118.38 854.31,-108.53 845.11,-113.79 850.4,-118.38"/>
</g>
<!-- Node17 -->
<g id="node17" class="node">
<title>Node17</title>
<g id="a_node17"><a xlink:title=" ">
<polygon fill="#e0e0e0" stroke="#999999" points="953.5,-107 904.5,-107 904.5,-88 953.5,-88 953.5,-107"/>
<text text-anchor="middle" x="929" y="-95" font-family="Helvetica,sans-Serif" font-size="10.00">string.h</text>
</a>
</g>
</g>
<!-- Node14&#45;&gt;Node17 -->
<g id="edge18" class="edge">
<title>Node14&#45;&gt;Node17</title>
<path fill="none" stroke="#63b8ff" d="M813.46,-164.66C832.6,-153.71 866.21,-134.49 895,-118 897.82,-116.38 900.78,-114.69 903.72,-113"/>
<polygon fill="#63b8ff" stroke="#63b8ff" points="905.18,-116.2 912.12,-108.19 901.7,-110.13 905.18,-116.2"/>
</g>
<!-- Node19&#45;&gt;Node2 -->
<g id="edge25" class="edge">
<title>Node19&#45;&gt;Node2</title>
<path fill="none" stroke="#63b8ff" d="M329.76,-343.99C338.25,-345.87 346.82,-347.63 355,-349 499.99,-373.36 672.38,-385.37 760.69,-390.42"/>
<polygon fill="#63b8ff" stroke="#63b8ff" points="760.38,-393.91 770.56,-390.97 760.77,-386.92 760.38,-393.91"/>
</g>
<!-- Node20 -->
<g id="node20" class="node">
<title>Node20</title>
<g id="a_node20"><a xlink:href="_observer_8h.html" target="_top" xlink:title="Clase observador.">
<polygon fill="white" stroke="#666666" points="175,-266.5 43,-266.5 43,-236.5 175,-236.5 175,-266.5"/>
<text text-anchor="start" x="51" y="-254.5" font-family="Helvetica,sans-Serif" font-size="10.00">observer_pattern/observers</text>
<text text-anchor="middle" x="109" y="-243.5" font-family="Helvetica,sans-Serif" font-size="10.00">/Observer.h</text>
</a>
</g>
</g>
<!-- Node19&#45;&gt;Node20 -->
<g id="edge22" class="edge">
<title>Node19&#45;&gt;Node20</title>
<path fill="none" stroke="#63b8ff" d="M235.73,-313.04C211.19,-301.31 176.37,-284.68 149.44,-271.82"/>
<polygon fill="#63b8ff" stroke="#63b8ff" points="151.08,-268.72 140.54,-267.57 148.06,-275.04 151.08,-268.72"/>
</g>
<!-- Node20&#45;&gt;Node4 -->
<g id="edge23" class="edge">
<title>Node20&#45;&gt;Node4</title>
<path fill="none" stroke="#63b8ff" d="M100.32,-236.04C94.16,-225.77 85.74,-211.73 78.56,-199.76"/>
<polygon fill="#63b8ff" stroke="#63b8ff" points="81.57,-197.99 73.43,-191.21 75.57,-201.59 81.57,-197.99"/>
</g>
<!-- Node20&#45;&gt;Node5 -->
<g id="edge24" class="edge">
<title>Node20&#45;&gt;Node5</title>
<path fill="none" stroke="#63b8ff" d="M128.86,-236.04C144.25,-224.83 165.79,-209.15 183.09,-196.55"/>
<polygon fill="#63b8ff" stroke="#63b8ff" points="184.95,-199.52 190.98,-190.81 180.83,-193.86 184.95,-199.52"/>
</g>
<!-- Node22 -->
<g id="node22" class="node">
<title>Node22</title>
<g id="a_node22"><a xlink:href="system__settings_8h.html" target="_top" xlink:title="Archivo para la definición de constantes del sistema.">
<polygon fill="white" stroke="#666666" points="1467.5,-261 1370.5,-261 1370.5,-242 1467.5,-242 1467.5,-261"/>
<text text-anchor="middle" x="1419" y="-249" font-family="Helvetica,sans-Serif" font-size="10.00">system_settings.h</text>
</a>
</g>
</g>
<!-- Node21&#45;&gt;Node22 -->
<g id="edge27" class="edge">
<title>Node21&#45;&gt;Node22</title>
<path fill="none" stroke="#63b8ff" d="M1484.38,-313.04C1470.81,-300.47 1451.14,-282.26 1436.93,-269.1"/>
<polygon fill="#63b8ff" stroke="#63b8ff" points="1439.32,-266.54 1429.6,-262.32 1434.56,-271.68 1439.32,-266.54"/>
</g>
<!-- Node23 -->
<g id="node23" class="node">
<title>Node23</title>
<g id="a_node23"><a xlink:title=" ">
<polygon fill="#e0e0e0" stroke="#999999" points="1544.5,-261 1485.5,-261 1485.5,-242 1544.5,-242 1544.5,-261"/>
<text text-anchor="middle" x="1515" y="-249" font-family="Helvetica,sans-Serif" font-size="10.00">DS1820.h</text>
</a>
</g>
</g>
<!-- Node21&#45;&gt;Node23 -->
<g id="edge28" class="edge">
<title>Node21&#45;&gt;Node23</title>
<path fill="none" stroke="#63b8ff" d="M1502.89,-313.04C1505.21,-301.43 1508.5,-285 1511.06,-272.19"/>
<polygon fill="#63b8ff" stroke="#63b8ff" points="1514.42,-273.26 1512.95,-262.77 1507.55,-271.89 1514.42,-273.26"/>
</g>
<!-- Node24&#45;&gt;Node11 -->
<g id="edge30" class="edge">
<title>Node24&#45;&gt;Node11</title>
<path fill="none" stroke="#63b8ff" d="M1464.24,-164.53C1400.96,-149.88 1276.38,-121.04 1214.96,-106.82"/>
<polygon fill="#63b8ff" stroke="#63b8ff" points="1215.92,-103.45 1205.38,-104.61 1214.34,-110.27 1215.92,-103.45"/>
</g>
<!-- Node26&#45;&gt;Node11 -->
<g id="edge33" class="edge">
<title>Node26&#45;&gt;Node11</title>
<path fill="none" stroke="#63b8ff" d="M935.43,-318.55C957.53,-301.3 1007.74,-262.39 1051,-231 1073.75,-214.49 1082.52,-214.25 1103,-195 1128.8,-170.74 1153.11,-137.35 1167,-116.88"/>
<polygon fill="#63b8ff" stroke="#63b8ff" points="1169.8,-119 1172.43,-108.73 1163.97,-115.11 1169.8,-119"/>
</g>
<!-- Node27 -->
<g id="node27" class="node">
<title>Node27</title>
<g id="a_node27"><a xlink:href="port__config_8h.html" target="_top" xlink:title="Archivo de configuración para los puertos de la placa donde se implementará el sistema.">
<polygon fill="white" stroke="#666666" points="1132,-261 1060,-261 1060,-242 1132,-242 1132,-261"/>
<text text-anchor="middle" x="1096" y="-249" font-family="Helvetica,sans-Serif" font-size="10.00">port_config.h</text>
</a>
</g>
</g>
<!-- Node26&#45;&gt;Node27 -->
<g id="edge34" class="edge">
<title>Node26&#45;&gt;Node27</title>
<path fill="none" stroke="#63b8ff" d="M944.41,-318.6C974.28,-305.58 1030.14,-281.22 1065.07,-265.99"/>
<polygon fill="#63b8ff" stroke="#63b8ff" points="1066.47,-269.2 1074.23,-261.99 1063.67,-262.78 1066.47,-269.2"/>
</g>
<!-- Node28&#45;&gt;Node11 -->
<g id="edge36" class="edge">
<title>Node28&#45;&gt;Node11</title>
<path fill="none" stroke="#63b8ff" d="M1046.11,-318.6C1077.8,-305.06 1134.64,-280.03 1141,-272 1177.17,-226.35 1180.65,-153.62 1179.99,-118.62"/>
<polygon fill="#63b8ff" stroke="#63b8ff" points="1183.49,-118.57 1179.65,-108.7 1176.5,-118.81 1183.49,-118.57"/>
</g>
<!-- Node28&#45;&gt;Node27 -->
<g id="edge37" class="edge">
<title>Node28&#45;&gt;Node27</title>
<path fill="none" stroke="#63b8ff" d="M1033.42,-318.6C1044.85,-306.54 1065.48,-284.74 1079.92,-269.49"/>
<polygon fill="#63b8ff" stroke="#63b8ff" points="1082.21,-272.15 1086.55,-262.49 1077.13,-267.34 1082.21,-272.15"/>
</g>
<!-- Node29&#45;&gt;Node11 -->
<g id="edge39" class="edge">
<title>Node29&#45;&gt;Node11</title>
<path fill="none" stroke="#63b8ff" d="M1286.04,-318.66C1289.64,-301.27 1295.76,-261.67 1285,-231 1267.8,-181.98 1224,-137.62 1198.41,-114.76"/>
<polygon fill="#63b8ff" stroke="#63b8ff" points="1200.87,-112.26 1191.03,-108.34 1196.27,-117.55 1200.87,-112.26"/>
</g>
<!-- Node29&#45;&gt;Node22 -->
<g id="edge41" class="edge">
<title>Node29&#45;&gt;Node22</title>
<path fill="none" stroke="#63b8ff" d="M1300.02,-318.6C1323.06,-305.8 1365.79,-282.06 1393.29,-266.79"/>
<polygon fill="#63b8ff" stroke="#63b8ff" points="1394.64,-270.04 1401.68,-262.12 1391.24,-263.92 1394.64,-270.04"/>
</g>
<!-- Node29&#45;&gt;Node25 -->
<g id="edge40" class="edge">
<title>Node29&#45;&gt;Node25</title>
<path fill="none" stroke="#63b8ff" d="M1280.08,-318.6C1275.02,-307.1 1266.07,-286.76 1259.43,-271.67"/>
<polygon fill="#63b8ff" stroke="#63b8ff" points="1262.75,-270.52 1255.52,-262.77 1256.34,-273.33 1262.75,-270.52"/>
</g>
<!-- Node30&#45;&gt;Node11 -->
<g id="edge43" class="edge">
<title>Node30&#45;&gt;Node11</title>
<path fill="none" stroke="#63b8ff" d="M1147.02,-313.02C1156.69,-302.63 1168.47,-287.73 1174,-272 1192.63,-219.05 1186.8,-151.3 1182.24,-118.32"/>
<polygon fill="#63b8ff" stroke="#63b8ff" points="1185.73,-118 1180.77,-108.63 1178.81,-119.05 1185.73,-118"/>
</g>
<!-- Node30&#45;&gt;Node25 -->
<g id="edge44" class="edge">
<title>Node30&#45;&gt;Node25</title>
<path fill="none" stroke="#63b8ff" d="M1154.94,-313.04C1175.84,-299.87 1206.55,-280.51 1227.59,-267.25"/>
<polygon fill="#63b8ff" stroke="#63b8ff" points="1229.18,-270.39 1235.78,-262.09 1225.45,-264.47 1229.18,-270.39"/>
</g>
<!-- Node31&#45;&gt;Node11 -->
<g id="edge46" class="edge">
<title>Node31&#45;&gt;Node11</title>
<path fill="none" stroke="#63b8ff" d="M1385.32,-318.67C1370.61,-291.55 1322.94,-208.02 1266,-154 1248.4,-137.3 1225.07,-122.74 1207.01,-112.73"/>
<polygon fill="#63b8ff" stroke="#63b8ff" points="1208.86,-109.75 1198.39,-108.09 1205.54,-115.91 1208.86,-109.75"/>
</g>
<!-- Node31&#45;&gt;Node22 -->
<g id="edge47" class="edge">
<title>Node31&#45;&gt;Node22</title>
<path fill="none" stroke="#63b8ff" d="M1393.44,-318.6C1397.84,-307.21 1405.6,-287.16 1411.42,-272.11"/>
<polygon fill="#63b8ff" stroke="#63b8ff" points="1414.68,-273.39 1415.02,-262.8 1408.15,-270.86 1414.68,-273.39"/>
</g>
<!-- Node32&#45;&gt;Node2 -->
<g id="edge49" class="edge">
<title>Node32&#45;&gt;Node2</title>
<path fill="none" stroke="#63b8ff" d="M560.24,-343.95C567.93,-345.72 575.64,-347.45 583,-349 643.7,-361.81 713.33,-374.24 761.22,-382.69"/>
<polygon fill="#63b8ff" stroke="#63b8ff" points="760.36,-386.09 770.81,-384.38 761.57,-379.2 760.36,-386.09"/>
</g>
<!-- Node32&#45;&gt;Node7 -->
<g id="edge50" class="edge">
<title>Node32&#45;&gt;Node7</title>
<path fill="none" stroke="#63b8ff" d="M477.17,-307.69C470.12,-297.63 462.62,-284.83 459,-272 437.35,-195.22 456.34,-100.27 468.95,-52.32"/>
<polygon fill="#63b8ff" stroke="#63b8ff" points="472.26,-53.48 471.51,-42.91 465.5,-51.64 472.26,-53.48"/>
</g>
<!-- Node33 -->
<g id="node33" class="node">
<title>Node33</title>
<g id="a_node33"><a xlink:href="_idle__state_8h.html" target="_top" xlink:title="Clase de estado de reposo.">
<polygon fill="white" stroke="#666666" points="584,-272 468,-272 468,-231 584,-231 584,-272"/>
<text text-anchor="start" x="476" y="-260" font-family="Helvetica,sans-Serif" font-size="10.00">machine_state_pattern</text>
<text text-anchor="start" x="476" y="-249" font-family="Helvetica,sans-Serif" font-size="10.00">/machine_states/Idle</text>
<text text-anchor="middle" x="526" y="-238" font-family="Helvetica,sans-Serif" font-size="10.00">_state.h</text>
</a>
</g>
</g>
<!-- Node32&#45;&gt;Node33 -->
<g id="edge51" class="edge">
<title>Node32&#45;&gt;Node33</title>
<path fill="none" stroke="#63b8ff" d="M501.67,-307.79C505.05,-300.1 509.01,-291.11 512.74,-282.65"/>
<polygon fill="#63b8ff" stroke="#63b8ff" points="515.84,-284.28 516.66,-273.72 509.43,-281.46 515.84,-284.28"/>
</g>
<!-- Node33&#45;&gt;Node2 -->
<g id="edge52" class="edge">
<title>Node33&#45;&gt;Node2</title>
<path fill="none" stroke="#63b8ff" d="M541.28,-272.4C561.07,-297.65 595.03,-339.12 612,-349 657.63,-375.57 717.24,-386.34 760.76,-390.66"/>
<polygon fill="#63b8ff" stroke="#63b8ff" points="760.25,-394.13 770.52,-391.54 760.87,-387.16 760.25,-394.13"/>
</g>
<!-- Node33&#45;&gt;Node7 -->
<g id="edge53" class="edge">
<title>Node33&#45;&gt;Node7</title>
<path fill="none" stroke="#63b8ff" d="M521.82,-230.58C513.43,-190.55 494.48,-100.13 484.47,-52.38"/>
<polygon fill="#63b8ff" stroke="#63b8ff" points="487.92,-51.76 482.44,-42.69 481.07,-53.2 487.92,-51.76"/>
</g>
<!-- Node34 -->
<g id="node34" class="node">
<title>Node34</title>
<g id="a_node34"><a xlink:href="_alarm__state_8h.html" target="_top" xlink:title="Clase de estado de control del motor.">
<polygon fill="white" stroke="#666666" points="627.5,-118 510.5,-118 510.5,-77 627.5,-77 627.5,-118"/>
<text text-anchor="start" x="518.5" y="-106" font-family="Helvetica,sans-Serif" font-size="10.00">machine_state_pattern</text>
<text text-anchor="start" x="518.5" y="-95" font-family="Helvetica,sans-Serif" font-size="10.00">/machine_states/Alarm</text>
<text text-anchor="middle" x="569" y="-84" font-family="Helvetica,sans-Serif" font-size="10.00">_state.h</text>
</a>
</g>
</g>
<!-- Node33&#45;&gt;Node34 -->
<g id="edge54" class="edge">
<title>Node33&#45;&gt;Node34</title>
<path fill="none" stroke="#63b8ff" d="M526.89,-230.63C531.81,-204.8 544.38,-159.42 554.78,-129.16"/>
<polygon fill="#63b8ff" stroke="#63b8ff" points="558.06,-130.4 558.14,-119.8 551.47,-128.04 558.06,-130.4"/>
</g>
<!-- Node35 -->
<g id="node35" class="node">
<title>Node35</title>
<g id="a_node35"><a xlink:href="_check__instruction__state_8h_source.html" target="_top" xlink:title=" ">
<polygon fill="white" stroke="#666666" points="719.5,-195 600.5,-195 600.5,-154 719.5,-154 719.5,-195"/>
<text text-anchor="start" x="608.5" y="-183" font-family="Helvetica,sans-Serif" font-size="10.00">machine_state_pattern</text>
<text text-anchor="start" x="608.5" y="-172" font-family="Helvetica,sans-Serif" font-size="10.00">/machine_states/Check</text>
<text text-anchor="middle" x="660" y="-161" font-family="Helvetica,sans-Serif" font-size="10.00">_instruction_state.h</text>
</a>
</g>
</g>
<!-- Node33&#45;&gt;Node35 -->
<g id="edge62" class="edge">
<title>Node33&#45;&gt;Node35</title>
<path fill="none" stroke="#63b8ff" d="M561.56,-230.6C577.76,-221.53 597.14,-210.68 614.4,-201.02"/>
<polygon fill="#63b8ff" stroke="#63b8ff" points="615.94,-204.17 622.96,-196.23 612.52,-198.06 615.94,-204.17"/>
</g>
<!-- Node34&#45;&gt;Node2 -->
<g id="edge55" class="edge">
<title>Node34&#45;&gt;Node2</title>
<path fill="none" stroke="#63b8ff" d="M570.53,-118.38C572.77,-138.65 578.16,-170.5 591,-195 634.08,-277.19 658.19,-292.76 732,-349 748.54,-361.6 769.18,-372.34 786.21,-380.1"/>
<polygon fill="#63b8ff" stroke="#63b8ff" points="784.33,-383.1 794.89,-383.94 787.16,-376.7 784.33,-383.1"/>
</g>
<!-- Node34&#45;&gt;Node7 -->
<g id="edge56" class="edge">
<title>Node34&#45;&gt;Node7</title>
<path fill="none" stroke="#63b8ff" d="M545.09,-76.79C534.62,-68.16 522.16,-57.9 510.84,-48.57"/>
<polygon fill="#63b8ff" stroke="#63b8ff" points="513.18,-45.96 503.23,-42.3 508.72,-51.36 513.18,-45.96"/>
</g>
<!-- Node34&#45;&gt;Node33 -->
<g id="edge57" class="edge">
<title>Node34&#45;&gt;Node33</title>
<path fill="none" stroke="#63b8ff" d="M568.11,-118.38C563.19,-144.21 550.62,-189.59 540.21,-219.84"/>
<polygon fill="#63b8ff" stroke="#63b8ff" points="536.94,-218.61 536.86,-229.2 543.53,-220.97 536.94,-218.61"/>
</g>
<!-- Node34&#45;&gt;Node35 -->
<g id="edge58" class="edge">
<title>Node34&#45;&gt;Node35</title>
<path fill="none" stroke="#63b8ff" d="M599.1,-118.33C610.24,-126.89 622.71,-137.05 633.51,-146.29"/>
<polygon fill="#63b8ff" stroke="#63b8ff" points="631.14,-148.87 640.97,-152.8 635.73,-143.59 631.14,-148.87"/>
</g>
<!-- Node35&#45;&gt;Node2 -->
<g id="edge59" class="edge">
<title>Node35&#45;&gt;Node2</title>
<path fill="none" stroke="#63b8ff" d="M669.44,-195.34C686.04,-229.08 722.84,-298.83 766,-349 775.14,-359.63 786.97,-369.82 797.12,-377.75"/>
<polygon fill="#63b8ff" stroke="#63b8ff" points="794.91,-380.47 805,-383.7 799.13,-374.88 794.91,-380.47"/>
</g>
<!-- Node35&#45;&gt;Node7 -->
<g id="edge60" class="edge">
<title>Node35&#45;&gt;Node7</title>
<path fill="none" stroke="#63b8ff" d="M660.33,-153.57C659.6,-132.07 655.17,-98.07 636,-77 614.66,-53.55 582.82,-40.01 553.31,-32.19"/>
<polygon fill="#63b8ff" stroke="#63b8ff" points="554.15,-28.79 543.61,-29.82 552.49,-35.59 554.15,-28.79"/>
</g>
<!-- Node35&#45;&gt;Node34 -->
<g id="edge61" class="edge">
<title>Node35&#45;&gt;Node34</title>
<path fill="none" stroke="#63b8ff" d="M629.81,-153.6C618.79,-145.12 606.46,-135.1 595.76,-125.93"/>
<polygon fill="#63b8ff" stroke="#63b8ff" points="598.19,-123.41 588.35,-119.49 593.6,-128.69 598.19,-123.41"/>
</g>
</g>
</svg>
        <g id="navigator" transform="translate(0 0)" fill="#404254">
                <rect fill="#f2f5e9" fill-opacity="0.5" stroke="#606060" stroke-width=".5" x="0" y="0" width="60" height="60"/>
                <use id="zoomplus" xlink:href="#zoomPlus" x="17" y="9" onmousedown="handleZoom(evt,'in')"/>
                <use id="zoomminus" xlink:href="#zoomMin" x="42" y="9" onmousedown="handleZoom(evt,'out')"/>
                <use id="reset" xlink:href="#resetDef" x="30" y="36" onmousedown="handleReset()"/>
                <g id="arrowUp" xlink:href="#dirArrow" transform="translate(30 24)" onmousedown="handlePan(0,-1)">
                  <use xlink:href="#rim" fill="#404040">
                        <set attributeName="fill" to="#808080" begin="arrowUp.mouseover" end="arrowUp.mouseout"/>
                  </use>
                  <path fill="none" stroke="white" stroke-width="1.5" d="M0,-3.0v7 M-2.5,-0.5L0,-3.0L2.5,-0.5"/>
                </g>
                <g id="arrowRight" xlink:href="#dirArrow" transform="rotate(90) translate(36 -43)" onmousedown="handlePan(1,0)">
                  <use xlink:href="#rim" fill="#404040">
                        <set attributeName="fill" to="#808080" begin="arrowRight.mouseover" end="arrowRight.mouseout"/>
                  </use>
                  <path fill="none" stroke="white" stroke-width="1.5" d="M0,-3.0v7 M-2.5,-0.5L0,-3.0L2.5,-0.5"/>
                </g>
                <g id="arrowDown" xlink:href="#dirArrow" transform="rotate(180) translate(-30 -48)" onmousedown="handlePan(0,1)">
                  <use xlink:href="#rim" fill="#404040">
                        <set attributeName="fill" to="#808080" begin="arrowDown.mouseover" end="arrowDown.mouseout"/>
                  </use>
                  <path fill="none" stroke="white" stroke-width="1.5" d="M0,-3.0v7 M-2.5,-0.5L0,-3.0L2.5,-0.5"/>
                </g>
                <g id="arrowLeft" xlink:href="#dirArrow" transform="rotate(270) translate(-36 17)" onmousedown="handlePan(-1,0)">
                  <use xlink:href="#rim" fill="#404040">
                        <set attributeName="fill" to="#808080" begin="arrowLeft.mouseover" end="arrowLeft.mouseout"/>
                  </use>
                  <path fill="none" stroke="white" stroke-width="1.5" d="M0,-3.0v7 M-2.5,-0.5L0,-3.0L2.5,-0.5"/>
                </g>
        </g>
        <svg viewBox="0 0 15 15" width="100%" height="30px" preserveAspectRatio="xMaxYMin meet">
         <g id="arrow_out" transform="scale(0.3 0.3)">
          <a xlink:href="_control__system_8cpp__incl_org.svg" target="_base">
           <rect id="button" ry="5" rx="5" y="6" x="6" height="38" width="38"
                fill="#f2f5e9" fill-opacity="0.5" stroke="#606060" stroke-width="1.0"/>
           <path id="arrow"
             d="M 11.500037,31.436501 C 11.940474,20.09759 22.043105,11.32322 32.158766,21.979434 L 37.068811,17.246167 C 37.068811,17.246167 37.088388,32 37.088388,32 L 22.160133,31.978069 C 22.160133,31.978069 26.997745,27.140456 26.997745,27.140456 C 18.528582,18.264221 13.291696,25.230495 11.500037,31.436501 z"
             style="fill:#404040;"/>
          </a>
         </g>
        </svg>
</svg>
