<?xml version="1.0" encoding="UTF-8" standalone="no"?>
<!DOCTYPE svg PUBLIC "-//W3C//DTD SVG 1.1//EN"
 "http://www.w3.org/Graphics/SVG/1.1/DTD/svg11.dtd">
<!-- Generated by graphviz version 7.0.2 (20221119.0110)
 -->
<!-- Title: C:/Users/juanh/OneDrive/Escritorio/Facultad/Beca/Proyecto/LAL Control Arduino/include/Control_system.h Pages: 1 -->
<!--zoomable 368 -->
<svg id="main" version="1.1" xmlns="http://www.w3.org/2000/svg" xmlns:xlink="http://www.w3.org/1999/xlink" xml:space="preserve" onload="init(evt)">
<style type="text/css"><![CDATA[
.edge:hover path { stroke: red; }
.edge:hover polygon { stroke: red; fill: red; }
]]></style>
<script type="text/javascript"><![CDATA[
var edges = document.getElementsByTagName('g');
if (edges && edges.length) {
  for (var i=0;i<edges.length;i++) {
    if (edges[i].id.substr(0,4)=='edge') {
      edges[i].setAttribute('class','edge');
    }
  }
}
]]></script>
        <defs>
                <circle id="rim" cx="0" cy="0" r="7"/>
                <circle id="rim2" cx="0" cy="0" r="3.5"/>
                <g id="zoomPlus">
                        <use xlink:href="#rim" fill="#404040">
                                <set attributeName="fill" to="#808080" begin="zoomplus.mouseover" end="zoomplus.mouseout"/>
                        </use>
                        <path d="M-4,0h8M0,-4v8" fill="none" stroke="white" stroke-width="1.5" pointer-events="none"/>
                </g>
                <g id="zoomMin">
                        <use xlink:href="#rim" fill="#404040">
                                <set attributeName="fill" to="#808080" begin="zoomminus.mouseover" end="zoomminus.mouseout"/>
                        </use>
                        <path d="M-4,0h8" fill="none" stroke="white" stroke-width="1.5" pointer-events="none"/>
                </g>
                <g id="dirArrow">
                        <path fill="none" stroke="white" stroke-width="1.5" d="M0,-3.0v7 M-2.5,-0.5L0,-3.0L2.5,-0.5"/>
                </g>
               <g id="resetDef">
                       <use xlink:href="#rim2" fill="#404040">
                               <set attributeName="fill" to="#808080" begin="reset.mouseover" end="reset.mouseout"/>
                       </use>
               </g>
        </defs>

<script type="text/javascript">
var viewWidth = 1857;
var viewHeight = 368;
var sectionId = 'dynsection-0';
</script>
<script xlink:href="svgpan.js"/>
<svg id="graph" class="graph">
<g id="viewport">
<title>C:/Users/juanh/OneDrive/Escritorio/Facultad/Beca/Proyecto/LAL Control Arduino/include/Control_system.h</title>
<!-- Node1 -->
<g id="node1" class="node">
<title>Node1</title>
<g id="a_node1"><a xlink:title="Clase para el sistema de control.">
<polygon fill="#999999" stroke="#666666" points="771.5,-360 622.5,-360 622.5,-308 771.5,-308 771.5,-360"/>
<text text-anchor="start" x="630.5" y="-348" font-family="Helvetica,sans-Serif" font-size="10.00">C:/Users/juanh/OneDrive</text>
<text text-anchor="start" x="630.5" y="-337" font-family="Helvetica,sans-Serif" font-size="10.00">/Escritorio/Facultad/Beca</text>
<text text-anchor="start" x="630.5" y="-326" font-family="Helvetica,sans-Serif" font-size="10.00">/Proyecto/LAL Control Arduino</text>
<text text-anchor="middle" x="697" y="-315" font-family="Helvetica,sans-Serif" font-size="10.00">/include/Control_system.h</text>
</a>
</g>
</g>
<!-- Node2 -->
<g id="node2" class="node">
<title>Node2</title>
<g id="a_node2"><a xlink:href="_subject_8h.html" target="_top" xlink:title=" ">
<polygon fill="white" stroke="#666666" points="153,-189.5 25,-189.5 25,-159.5 153,-159.5 153,-189.5"/>
<text text-anchor="start" x="33" y="-177.5" font-family="Helvetica,sans-Serif" font-size="10.00">observer_pattern/subjects</text>
<text text-anchor="middle" x="89" y="-166.5" font-family="Helvetica,sans-Serif" font-size="10.00">/Subject.h</text>
</a>
</g>
</g>
<!-- Node1&#45;&gt;Node2 -->
<g id="edge1" class="edge">
<title>Node1&#45;&gt;Node2</title>
<path fill="none" stroke="#63b8ff" d="M622.26,-329.06C503,-321.9 275.6,-304.4 202,-272 163.85,-255.21 128.85,-221.18 108.22,-198.35"/>
<polygon fill="#63b8ff" stroke="#63b8ff" points="111.02,-196.25 101.79,-191.06 105.77,-200.88 111.02,-196.25"/>
</g>
<!-- Node5 -->
<g id="node5" class="node">
<title>Node5</title>
<g id="a_node5"><a xlink:href="_machine_8h.html" target="_top" xlink:title="Clase de máquina abstracta.">
<polygon fill="white" stroke="#666666" points="412,-112.5 296,-112.5 296,-82.5 412,-82.5 412,-112.5"/>
<text text-anchor="start" x="304" y="-100.5" font-family="Helvetica,sans-Serif" font-size="10.00">machine_state_pattern</text>
<text text-anchor="middle" x="354" y="-89.5" font-family="Helvetica,sans-Serif" font-size="10.00">/Machine.h</text>
</a>
</g>
</g>
<!-- Node1&#45;&gt;Node5 -->
<g id="edge4" class="edge">
<title>Node1&#45;&gt;Node5</title>
<path fill="none" stroke="#63b8ff" d="M622.08,-327.49C541.96,-320.03 422.08,-303.81 390,-272 350.18,-232.52 348.82,-161.3 351.33,-123.56"/>
<polygon fill="#63b8ff" stroke="#63b8ff" points="354.78,-124.32 352.11,-114.07 347.8,-123.75 354.78,-124.32"/>
</g>
<!-- Node7 -->
<g id="node7" class="node">
<title>Node7</title>
<g id="a_node7"><a xlink:href="_display_8h.html" target="_top" xlink:title="Controlador de LCD hd44780 por interfaz I2C.">
<polygon fill="white" stroke="#666666" points="926,-261 838,-261 838,-242 926,-242 926,-261"/>
<text text-anchor="middle" x="882" y="-249" font-family="Helvetica,sans-Serif" font-size="10.00">drivers/Display.h</text>
</a>
</g>
</g>
<!-- Node1&#45;&gt;Node7 -->
<g id="edge6" class="edge">
<title>Node1&#45;&gt;Node7</title>
<path fill="none" stroke="#63b8ff" d="M755.54,-307.53C787.21,-293.75 825.06,-277.28 851.05,-265.97"/>
<polygon fill="#63b8ff" stroke="#63b8ff" points="852.25,-269.26 860.02,-262.07 849.45,-262.85 852.25,-269.26"/>
</g>
<!-- Node13 -->
<g id="node13" class="node">
<title>Node13</title>
<g id="a_node13"><a xlink:href="user__messages_8h.html" target="_top" xlink:title="Archivo para la configuración de interfaz con el usuario.">
<polygon fill="white" stroke="#666666" points="1849,-261 1755,-261 1755,-242 1849,-242 1849,-261"/>
<text text-anchor="middle" x="1802" y="-249" font-family="Helvetica,sans-Serif" font-size="10.00">user_messages.h</text>
</a>
</g>
</g>
<!-- Node1&#45;&gt;Node13 -->
<g id="edge12" class="edge">
<title>Node1&#45;&gt;Node13</title>
<path fill="none" stroke="#63b8ff" d="M771.93,-331.33C979.56,-326.29 1559.26,-309.19 1746,-272 1753.94,-270.42 1762.28,-267.97 1770.03,-265.34"/>
<polygon fill="#63b8ff" stroke="#63b8ff" points="1771.21,-268.63 1779.42,-261.94 1768.83,-262.05 1771.21,-268.63"/>
</g>
<!-- Node15 -->
<g id="node15" class="node">
<title>Node15</title>
<g id="a_node15"><a xlink:href="_system__observer_8h.html" target="_top" xlink:title="Clase observador del sistema de control.">
<polygon fill="white" stroke="#666666" points="343,-266.5 211,-266.5 211,-236.5 343,-236.5 343,-266.5"/>
<text text-anchor="start" x="219" y="-254.5" font-family="Helvetica,sans-Serif" font-size="10.00">observer_pattern/observers</text>
<text text-anchor="middle" x="277" y="-243.5" font-family="Helvetica,sans-Serif" font-size="10.00">/System_observer.h</text>
</a>
</g>
</g>
<!-- Node1&#45;&gt;Node15 -->
<g id="edge14" class="edge">
<title>Node1&#45;&gt;Node15</title>
<path fill="none" stroke="#63b8ff" d="M622.22,-322.07C551.22,-310.71 441.88,-291.84 348,-272 344.25,-271.21 340.41,-270.37 336.54,-269.5"/>
<polygon fill="#63b8ff" stroke="#63b8ff" points="337.66,-266.16 327.13,-267.32 336.09,-272.98 337.66,-266.16"/>
</g>
<!-- Node17 -->
<g id="node17" class="node">
<title>Node17</title>
<g id="a_node17"><a xlink:href="_temperature__sensor_8h.html" target="_top" xlink:title="Controlador para sensor de temperatura DS18B20.">
<polygon fill="white" stroke="#666666" points="1138.5,-266.5 1037.5,-266.5 1037.5,-236.5 1138.5,-236.5 1138.5,-266.5"/>
<text text-anchor="start" x="1045.5" y="-254.5" font-family="Helvetica,sans-Serif" font-size="10.00">drivers/Temperature</text>
<text text-anchor="middle" x="1088" y="-243.5" font-family="Helvetica,sans-Serif" font-size="10.00">_sensor.h</text>
</a>
</g>
</g>
<!-- Node1&#45;&gt;Node17 -->
<g id="edge19" class="edge">
<title>Node1&#45;&gt;Node17</title>
<path fill="none" stroke="#63b8ff" d="M771.93,-317.57C845.76,-302.37 957.23,-279.42 1026.17,-265.23"/>
<polygon fill="#63b8ff" stroke="#63b8ff" points="1026.7,-268.69 1035.79,-263.25 1025.29,-261.84 1026.7,-268.69"/>
</g>
<!-- Node20 -->
<g id="node20" class="node">
<title>Node20</title>
<g id="a_node20"><a xlink:href="_moisture__sensor_8h.html" target="_top" xlink:title="Controlador de sensor de humedad analógico.">
<polygon fill="white" stroke="#666666" points="1535,-261 1407,-261 1407,-242 1535,-242 1535,-261"/>
<text text-anchor="middle" x="1471" y="-249" font-family="Helvetica,sans-Serif" font-size="10.00">drivers/Moisture_sensor.h</text>
</a>
</g>
</g>
<!-- Node1&#45;&gt;Node20 -->
<g id="edge23" class="edge">
<title>Node1&#45;&gt;Node20</title>
<path fill="none" stroke="#63b8ff" d="M771.91,-330.31C899.96,-324.84 1168.85,-309.6 1393,-272 1404.89,-270.01 1417.64,-267.14 1429.31,-264.21"/>
<polygon fill="#63b8ff" stroke="#63b8ff" points="1429.84,-267.69 1438.65,-261.79 1428.09,-260.91 1429.84,-267.69"/>
</g>
<!-- Node22 -->
<g id="node22" class="node">
<title>Node22</title>
<g id="a_node22"><a xlink:href="types_8h.html" target="_top" xlink:title="Archivo de definición de tipos de dato.">
<polygon fill="white" stroke="#666666" points="1486.5,-184 1437.5,-184 1437.5,-165 1486.5,-165 1486.5,-184"/>
<text text-anchor="middle" x="1462" y="-172" font-family="Helvetica,sans-Serif" font-size="10.00">types.h</text>
</a>
</g>
</g>
<!-- Node1&#45;&gt;Node22 -->
<g id="edge25" class="edge">
<title>Node1&#45;&gt;Node22</title>
<path fill="none" stroke="#63b8ff" d="M771.98,-332.65C922.81,-330.89 1257.14,-321.35 1359,-272 1381.63,-261.04 1379.81,-248.37 1398,-231 1412.55,-217.1 1429.82,-202.21 1442.76,-191.36"/>
<polygon fill="#63b8ff" stroke="#63b8ff" points="1444.7,-194.29 1450.14,-185.2 1440.22,-188.91 1444.7,-194.29"/>
</g>
<!-- Node23 -->
<g id="node23" class="node">
<title>Node23</title>
<g id="a_node23"><a xlink:href="_buzzer_8h.html" target="_top" xlink:title="Controlador de Buzzer de 12 milimetros.">
<polygon fill="white" stroke="#666666" points="1639,-261 1553,-261 1553,-242 1639,-242 1639,-261"/>
<text text-anchor="middle" x="1596" y="-249" font-family="Helvetica,sans-Serif" font-size="10.00">drivers/Buzzer.h</text>
</a>
</g>
</g>
<!-- Node1&#45;&gt;Node23 -->
<g id="edge26" class="edge">
<title>Node1&#45;&gt;Node23</title>
<path fill="none" stroke="#63b8ff" d="M771.75,-330.36C950.33,-323.62 1397.72,-303.99 1544,-272 1551.08,-270.45 1558.5,-268.13 1565.43,-265.62"/>
<polygon fill="#63b8ff" stroke="#63b8ff" points="1566.68,-268.89 1574.75,-262.02 1564.16,-262.36 1566.68,-268.89"/>
</g>
<!-- Node25 -->
<g id="node25" class="node">
<title>Node25</title>
<g id="a_node25"><a xlink:href="_motor_8h.html" target="_top" xlink:title="Controlador de motor de 220 VAC.">
<polygon fill="white" stroke="#666666" points="1737,-261 1657,-261 1657,-242 1737,-242 1737,-261"/>
<text text-anchor="middle" x="1697" y="-249" font-family="Helvetica,sans-Serif" font-size="10.00">drivers/Motor.h</text>
</a>
</g>
</g>
<!-- Node1&#45;&gt;Node25 -->
<g id="edge29" class="edge">
<title>Node1&#45;&gt;Node25</title>
<path fill="none" stroke="#63b8ff" d="M771.93,-331.23C966.02,-326.16 1481.55,-309.47 1648,-272 1654.75,-270.48 1661.79,-268.16 1668.35,-265.64"/>
<polygon fill="#63b8ff" stroke="#63b8ff" points="1669.51,-268.95 1677.42,-261.9 1666.84,-262.48 1669.51,-268.95"/>
</g>
<!-- Node26 -->
<g id="node26" class="node">
<title>Node26</title>
<g id="a_node26"><a xlink:href="_dual___l_e_d_8h.html" target="_top" xlink:title="Controlador de LED RG.">
<polygon fill="white" stroke="#666666" points="1249.5,-261 1156.5,-261 1156.5,-242 1249.5,-242 1249.5,-261"/>
<text text-anchor="middle" x="1203" y="-249" font-family="Helvetica,sans-Serif" font-size="10.00">drivers/Dual_led.h</text>
</a>
</g>
</g>
<!-- Node1&#45;&gt;Node26 -->
<g id="edge32" class="edge">
<title>Node1&#45;&gt;Node26</title>
<path fill="none" stroke="#63b8ff" d="M771.9,-327.47C861.9,-319.76 1017.04,-303.1 1147,-272 1154.51,-270.2 1162.43,-267.78 1169.88,-265.26"/>
<polygon fill="#63b8ff" stroke="#63b8ff" points="1171.01,-268.57 1179.26,-261.93 1168.67,-261.97 1171.01,-268.57"/>
</g>
<!-- Node27 -->
<g id="node27" class="node">
<title>Node27</title>
<g id="a_node27"><a xlink:href="_cooler_8h.html" target="_top" xlink:title="Controlador de ventilador de 12 volts y 5 milímteros.">
<polygon fill="white" stroke="#666666" points="1350.5,-261 1267.5,-261 1267.5,-242 1350.5,-242 1350.5,-261"/>
<text text-anchor="middle" x="1309" y="-249" font-family="Helvetica,sans-Serif" font-size="10.00">drivers/Cooler.h</text>
</a>
</g>
</g>
<!-- Node1&#45;&gt;Node27 -->
<g id="edge36" class="edge">
<title>Node1&#45;&gt;Node27</title>
<path fill="none" stroke="#63b8ff" d="M771.55,-330.96C880.02,-326.64 1087.05,-313.25 1258,-272 1265.01,-270.31 1272.37,-267.9 1279.24,-265.35"/>
<polygon fill="#63b8ff" stroke="#63b8ff" points="1280.08,-268.77 1288.11,-261.86 1277.52,-262.26 1280.08,-268.77"/>
</g>
<!-- Node28 -->
<g id="node28" class="node">
<title>Node28</title>
<g id="a_node28"><a xlink:href="_shutdown__state_8h.html" target="_top" xlink:title="Clase de estado de apagado del sistema.">
<polygon fill="white" stroke="#666666" points="764,-272 630,-272 630,-231 764,-231 764,-272"/>
<text text-anchor="start" x="638" y="-260" font-family="Helvetica,sans-Serif" font-size="10.00">machine_state_pattern</text>
<text text-anchor="start" x="638" y="-249" font-family="Helvetica,sans-Serif" font-size="10.00">/machine_states/Shutdown</text>
<text text-anchor="middle" x="697" y="-238" font-family="Helvetica,sans-Serif" font-size="10.00">_state.h</text>
</a>
</g>
</g>
<!-- Node1&#45;&gt;Node28 -->
<g id="edge39" class="edge">
<title>Node1&#45;&gt;Node28</title>
<path fill="none" stroke="#63b8ff" d="M690.67,-307.53C690.22,-300 690.13,-291.68 690.4,-283.83"/>
<polygon fill="#63b8ff" stroke="#63b8ff" points="693.89,-284.15 690.99,-273.96 686.9,-283.73 693.89,-284.15"/>
</g>
<!-- Node31 -->
<g id="node31" class="node">
<title>Node31</title>
<g id="a_node31"><a xlink:href="_check__instruction__state_8h_source.html" target="_top" xlink:title=" ">
<polygon fill="white" stroke="#666666" points="518.5,-272 399.5,-272 399.5,-231 518.5,-231 518.5,-272"/>
<text text-anchor="start" x="407.5" y="-260" font-family="Helvetica,sans-Serif" font-size="10.00">machine_state_pattern</text>
<text text-anchor="start" x="407.5" y="-249" font-family="Helvetica,sans-Serif" font-size="10.00">/machine_states/Check</text>
<text text-anchor="middle" x="459" y="-238" font-family="Helvetica,sans-Serif" font-size="10.00">_instruction_state.h</text>
</a>
</g>
</g>
<!-- Node1&#45;&gt;Node31 -->
<g id="edge49" class="edge">
<title>Node1&#45;&gt;Node31</title>
<path fill="none" stroke="#63b8ff" d="M622.3,-309.82C590.22,-299.23 553.16,-286.7 522.44,-276.06"/>
<polygon fill="#63b8ff" stroke="#63b8ff" points="523.88,-272.85 513.28,-272.87 521.58,-279.46 523.88,-272.85"/>
</g>
<!-- Node3 -->
<g id="node3" class="node">
<title>Node3</title>
<g id="a_node3"><a xlink:href="_subject__interface_8h.html" target="_top" xlink:title="Clase para interfaz para implementar el sujeto.">
<polygon fill="white" stroke="#666666" points="278,-112.5 150,-112.5 150,-82.5 278,-82.5 278,-112.5"/>
<text text-anchor="start" x="158" y="-100.5" font-family="Helvetica,sans-Serif" font-size="10.00">observer_pattern/subjects</text>
<text text-anchor="middle" x="214" y="-89.5" font-family="Helvetica,sans-Serif" font-size="10.00">/Subject_interface.h</text>
</a>
</g>
</g>
<!-- Node2&#45;&gt;Node3 -->
<g id="edge2" class="edge">
<title>Node2&#45;&gt;Node3</title>
<path fill="none" stroke="#63b8ff" d="M113.1,-159.04C132.21,-147.57 159.14,-131.42 180.37,-118.68"/>
<polygon fill="#63b8ff" stroke="#63b8ff" points="181.9,-121.84 188.67,-113.7 178.3,-115.84 181.9,-121.84"/>
</g>
<!-- Node4 -->
<g id="node4" class="node">
<title>Node4</title>
<g id="a_node4"><a xlink:href="_observer__interface_8h.html" target="_top" xlink:title="Clase para interfaz para implementar el observador.">
<polygon fill="white" stroke="#666666" points="132,-112.5 0,-112.5 0,-82.5 132,-82.5 132,-112.5"/>
<text text-anchor="start" x="8" y="-100.5" font-family="Helvetica,sans-Serif" font-size="10.00">observer_pattern/observers</text>
<text text-anchor="middle" x="66" y="-89.5" font-family="Helvetica,sans-Serif" font-size="10.00">/Observer_interface.h</text>
</a>
</g>
</g>
<!-- Node2&#45;&gt;Node4 -->
<g id="edge3" class="edge">
<title>Node2&#45;&gt;Node4</title>
<path fill="none" stroke="#63b8ff" d="M84.57,-159.04C81.51,-149.08 77.37,-135.58 73.77,-123.85"/>
<polygon fill="#63b8ff" stroke="#63b8ff" points="77.14,-122.9 70.86,-114.36 70.45,-124.95 77.14,-122.9"/>
</g>
<!-- Node6 -->
<g id="node6" class="node">
<title>Node6</title>
<g id="a_node6"><a xlink:href="_abstract__state_8h.html" target="_top" xlink:title="Clase de estado abstracta.">
<polygon fill="white" stroke="#666666" points="591,-41 463,-41 463,0 591,0 591,-41"/>
<text text-anchor="start" x="471" y="-29" font-family="Helvetica,sans-Serif" font-size="10.00">machine_state_pattern</text>
<text text-anchor="start" x="471" y="-18" font-family="Helvetica,sans-Serif" font-size="10.00">/machine_states/Abstract</text>
<text text-anchor="middle" x="527" y="-7" font-family="Helvetica,sans-Serif" font-size="10.00">_state.h</text>
</a>
</g>
</g>
<!-- Node5&#45;&gt;Node6 -->
<g id="edge5" class="edge">
<title>Node5&#45;&gt;Node6</title>
<path fill="none" stroke="#63b8ff" d="M387.36,-82.04C410.95,-71.81 443.16,-57.85 470.7,-45.91"/>
<polygon fill="#63b8ff" stroke="#63b8ff" points="471.82,-49.24 479.61,-42.05 469.04,-42.81 471.82,-49.24"/>
</g>
<!-- Node8 -->
<g id="node8" class="node">
<title>Node8</title>
<g id="a_node8"><a xlink:title=" ">
<polygon fill="#e0e0e0" stroke="#999999" points="874.5,-184 829.5,-184 829.5,-165 874.5,-165 874.5,-184"/>
<text text-anchor="middle" x="852" y="-172" font-family="Helvetica,sans-Serif" font-size="10.00">Wire.h</text>
</a>
</g>
</g>
<!-- Node7&#45;&gt;Node8 -->
<g id="edge7" class="edge">
<title>Node7&#45;&gt;Node8</title>
<path fill="none" stroke="#63b8ff" d="M878.44,-241.6C873.84,-230.1 865.7,-209.76 859.67,-194.67"/>
<polygon fill="#63b8ff" stroke="#63b8ff" points="863.08,-193.78 856.12,-185.79 856.58,-196.38 863.08,-193.78"/>
</g>
<!-- Node9 -->
<g id="node9" class="node">
<title>Node9</title>
<g id="a_node9"><a xlink:title=" ">
<polygon fill="#e0e0e0" stroke="#999999" points="955,-184 893,-184 893,-165 955,-165 955,-184"/>
<text text-anchor="middle" x="924" y="-172" font-family="Helvetica,sans-Serif" font-size="10.00">hd44780.h</text>
</a>
</g>
</g>
<!-- Node7&#45;&gt;Node9 -->
<g id="edge8" class="edge">
<title>Node7&#45;&gt;Node9</title>
<path fill="none" stroke="#63b8ff" d="M886.98,-241.6C893.49,-229.99 905.04,-209.36 913.51,-194.23"/>
<polygon fill="#63b8ff" stroke="#63b8ff" points="916.45,-196.14 918.28,-185.71 910.34,-192.72 916.45,-196.14"/>
</g>
<!-- Node10 -->
<g id="node10" class="node">
<title>Node10</title>
<g id="a_node10"><a xlink:title=" ">
<polygon fill="#e0e0e0" stroke="#999999" points="1098.5,-189.5 973.5,-189.5 973.5,-159.5 1098.5,-159.5 1098.5,-189.5"/>
<text text-anchor="start" x="981.5" y="-177.5" font-family="Helvetica,sans-Serif" font-size="10.00">hd44780ioClass/hd44780</text>
<text text-anchor="middle" x="1036" y="-166.5" font-family="Helvetica,sans-Serif" font-size="10.00">_I2Cexp.h</text>
</a>
</g>
</g>
<!-- Node7&#45;&gt;Node10 -->
<g id="edge9" class="edge">
<title>Node7&#45;&gt;Node10</title>
<path fill="none" stroke="#63b8ff" d="M900.27,-241.6C923.82,-230.13 965.42,-209.87 996.37,-194.8"/>
<polygon fill="#63b8ff" stroke="#63b8ff" points="997.6,-198.09 1005.06,-190.57 994.54,-191.8 997.6,-198.09"/>
</g>
<!-- Node11 -->
<g id="node11" class="node">
<title>Node11</title>
<g id="a_node11"><a xlink:href="display__settings_8h.html" target="_top" xlink:title="Archivo de configuración de la pantalla.">
<polygon fill="white" stroke="#666666" points="811.5,-184 716.5,-184 716.5,-165 811.5,-165 811.5,-184"/>
<text text-anchor="middle" x="764" y="-172" font-family="Helvetica,sans-Serif" font-size="10.00">display_settings.h</text>
</a>
</g>
</g>
<!-- Node7&#45;&gt;Node11 -->
<g id="edge10" class="edge">
<title>Node7&#45;&gt;Node11</title>
<path fill="none" stroke="#63b8ff" d="M868,-241.6C848.13,-228.97 811.49,-205.68 787.43,-190.39"/>
<polygon fill="#63b8ff" stroke="#63b8ff" points="789.58,-187.61 779.26,-185.2 785.82,-193.52 789.58,-187.61"/>
</g>
<!-- Node12 -->
<g id="node12" class="node">
<title>Node12</title>
<g id="a_node12"><a xlink:href="system__settings_8h.html" target="_top" xlink:title="Archivo para la definición de constantes del sistema.">
<polygon fill="white" stroke="#666666" points="1419.5,-184 1322.5,-184 1322.5,-165 1419.5,-165 1419.5,-184"/>
<text text-anchor="middle" x="1371" y="-172" font-family="Helvetica,sans-Serif" font-size="10.00">system_settings.h</text>
</a>
</g>
</g>
<!-- Node7&#45;&gt;Node12 -->
<g id="edge11" class="edge">
<title>Node7&#45;&gt;Node12</title>
<path fill="none" stroke="#63b8ff" d="M926.4,-244.49C955.32,-240.59 993.89,-235.43 1028,-231 1154.61,-214.55 1188.54,-223.48 1313,-195 1320.95,-193.18 1329.36,-190.7 1337.22,-188.11"/>
<polygon fill="#63b8ff" stroke="#63b8ff" points="1338.13,-191.5 1346.45,-184.94 1335.85,-184.88 1338.13,-191.5"/>
</g>
<!-- Node14 -->
<g id="node14" class="node">
<title>Node14</title>
<g id="a_node14"><a xlink:title=" ">
<polygon fill="#e0e0e0" stroke="#999999" points="1844.5,-184 1759.5,-184 1759.5,-165 1844.5,-165 1844.5,-184"/>
<text text-anchor="middle" x="1802" y="-172" font-family="Helvetica,sans-Serif" font-size="10.00">avr/pgmspace.h</text>
</a>
</g>
</g>
<!-- Node13&#45;&gt;Node14 -->
<g id="edge13" class="edge">
<title>Node13&#45;&gt;Node14</title>
<path fill="none" stroke="#63b8ff" d="M1802,-241.6C1802,-230.33 1802,-210.55 1802,-195.56"/>
<polygon fill="#63b8ff" stroke="#63b8ff" points="1805.5,-195.9 1802,-185.9 1798.5,-195.9 1805.5,-195.9"/>
</g>
<!-- Node15&#45;&gt;Node1 -->
<g id="edge18" class="edge">
<title>Node15&#45;&gt;Node1</title>
<path fill="none" stroke="#63b8ff" d="M343.07,-266.88C350.81,-268.68 358.59,-270.43 366,-272 448.92,-289.53 543.91,-306.29 610.85,-317.8"/>
<polygon fill="#63b8ff" stroke="#63b8ff" points="610.24,-321.24 620.69,-319.48 611.42,-314.34 610.24,-321.24"/>
</g>
<!-- Node16 -->
<g id="node16" class="node">
<title>Node16</title>
<g id="a_node16"><a xlink:href="_observer_8h.html" target="_top" xlink:title="Clase observador.">
<polygon fill="white" stroke="#666666" points="303,-189.5 171,-189.5 171,-159.5 303,-159.5 303,-189.5"/>
<text text-anchor="start" x="179" y="-177.5" font-family="Helvetica,sans-Serif" font-size="10.00">observer_pattern/observers</text>
<text text-anchor="middle" x="237" y="-166.5" font-family="Helvetica,sans-Serif" font-size="10.00">/Observer.h</text>
</a>
</g>
</g>
<!-- Node15&#45;&gt;Node16 -->
<g id="edge15" class="edge">
<title>Node15&#45;&gt;Node16</title>
<path fill="none" stroke="#63b8ff" d="M269.29,-236.04C263.81,-225.77 256.32,-211.73 249.94,-199.76"/>
<polygon fill="#63b8ff" stroke="#63b8ff" points="253.2,-198.43 245.4,-191.25 247.02,-201.72 253.2,-198.43"/>
</g>
<!-- Node16&#45;&gt;Node3 -->
<g id="edge16" class="edge">
<title>Node16&#45;&gt;Node3</title>
<path fill="none" stroke="#63b8ff" d="M232.57,-159.04C229.51,-149.08 225.37,-135.58 221.77,-123.85"/>
<polygon fill="#63b8ff" stroke="#63b8ff" points="225.14,-122.9 218.86,-114.36 218.45,-124.95 225.14,-122.9"/>
</g>
<!-- Node16&#45;&gt;Node4 -->
<g id="edge17" class="edge">
<title>Node16&#45;&gt;Node4</title>
<path fill="none" stroke="#63b8ff" d="M204.03,-159.04C177.06,-147.21 138.71,-130.39 109.27,-117.48"/>
<polygon fill="#63b8ff" stroke="#63b8ff" points="110.82,-114.34 100.26,-113.52 108.01,-120.75 110.82,-114.34"/>
</g>
<!-- Node17&#45;&gt;Node12 -->
<g id="edge20" class="edge">
<title>Node17&#45;&gt;Node12</title>
<path fill="none" stroke="#63b8ff" d="M1130.06,-236C1135.72,-234.22 1141.48,-232.51 1147,-231 1219.83,-211.13 1240.22,-215.06 1313,-195 1320.35,-192.98 1328.13,-190.55 1335.52,-188.12"/>
<polygon fill="#63b8ff" stroke="#63b8ff" points="1336.56,-191.46 1344.92,-184.94 1334.32,-184.83 1336.56,-191.46"/>
</g>
<!-- Node18 -->
<g id="node18" class="node">
<title>Node18</title>
<g id="a_node18"><a xlink:title=" ">
<polygon fill="#e0e0e0" stroke="#999999" points="1304.5,-184 1241.5,-184 1241.5,-165 1304.5,-165 1304.5,-184"/>
<text text-anchor="middle" x="1273" y="-172" font-family="Helvetica,sans-Serif" font-size="10.00">OneWire.h</text>
</a>
</g>
</g>
<!-- Node17&#45;&gt;Node18 -->
<g id="edge21" class="edge">
<title>Node17&#45;&gt;Node18</title>
<path fill="none" stroke="#63b8ff" d="M1127.75,-236.11C1156.85,-225.35 1197.17,-209.97 1232,-195 1236.2,-193.2 1240.6,-191.21 1244.89,-189.21"/>
<polygon fill="#63b8ff" stroke="#63b8ff" points="1246.27,-192.43 1253.81,-184.99 1243.27,-186.11 1246.27,-192.43"/>
</g>
<!-- Node19 -->
<g id="node19" class="node">
<title>Node19</title>
<g id="a_node19"><a xlink:title=" ">
<polygon fill="#e0e0e0" stroke="#999999" points="1223,-184 1117,-184 1117,-165 1223,-165 1223,-184"/>
<text text-anchor="middle" x="1170" y="-172" font-family="Helvetica,sans-Serif" font-size="10.00">DallasTemperature.h</text>
</a>
</g>
</g>
<!-- Node17&#45;&gt;Node19 -->
<g id="edge22" class="edge">
<title>Node17&#45;&gt;Node19</title>
<path fill="none" stroke="#63b8ff" d="M1103.81,-236.04C1117.69,-223.35 1137.84,-204.91 1152.26,-191.72"/>
<polygon fill="#63b8ff" stroke="#63b8ff" points="1154.26,-194.64 1159.28,-185.31 1149.53,-189.48 1154.26,-194.64"/>
</g>
<!-- Node21 -->
<g id="node21" class="node">
<title>Node21</title>
<g id="a_node21"><a xlink:title=" ">
<polygon fill="#e0e0e0" stroke="#999999" points="1563,-184 1505,-184 1505,-165 1563,-165 1563,-184"/>
<text text-anchor="middle" x="1534" y="-172" font-family="Helvetica,sans-Serif" font-size="10.00">Arduino.h</text>
</a>
</g>
</g>
<!-- Node20&#45;&gt;Node21 -->
<g id="edge24" class="edge">
<title>Node20&#45;&gt;Node21</title>
<path fill="none" stroke="#63b8ff" d="M1478.47,-241.6C1488.52,-229.65 1506.57,-208.15 1519.37,-192.92"/>
<polygon fill="#63b8ff" stroke="#63b8ff" points="1521.81,-195.45 1525.56,-185.55 1516.45,-190.95 1521.81,-195.45"/>
</g>
<!-- Node23&#45;&gt;Node21 -->
<g id="edge27" class="edge">
<title>Node23&#45;&gt;Node21</title>
<path fill="none" stroke="#63b8ff" d="M1588.64,-241.6C1578.76,-229.65 1560.99,-208.15 1548.4,-192.92"/>
<polygon fill="#63b8ff" stroke="#63b8ff" points="1551.38,-191.03 1542.31,-185.55 1545.98,-195.49 1551.38,-191.03"/>
</g>
<!-- Node24 -->
<g id="node24" class="node">
<title>Node24</title>
<g id="a_node24"><a xlink:href="port__config_8h.html" target="_top" xlink:title="Archivo de configuración para los puertos de la placa donde se implementará el sistema.">
<polygon fill="white" stroke="#666666" points="1693,-184 1621,-184 1621,-165 1693,-165 1693,-184"/>
<text text-anchor="middle" x="1657" y="-172" font-family="Helvetica,sans-Serif" font-size="10.00">port_config.h</text>
</a>
</g>
</g>
<!-- Node23&#45;&gt;Node24 -->
<g id="edge28" class="edge">
<title>Node23&#45;&gt;Node24</title>
<path fill="none" stroke="#63b8ff" d="M1603.24,-241.6C1612.96,-229.65 1630.45,-208.15 1642.83,-192.92"/>
<polygon fill="#63b8ff" stroke="#63b8ff" points="1645.22,-195.53 1648.82,-185.56 1639.79,-191.11 1645.22,-195.53"/>
</g>
<!-- Node25&#45;&gt;Node21 -->
<g id="edge30" class="edge">
<title>Node25&#45;&gt;Node21</title>
<path fill="none" stroke="#63b8ff" d="M1677.66,-241.6C1649.48,-228.63 1596.87,-204.43 1563.74,-189.18"/>
<polygon fill="#63b8ff" stroke="#63b8ff" points="1565.24,-186.02 1554.69,-185.02 1562.31,-192.38 1565.24,-186.02"/>
</g>
<!-- Node25&#45;&gt;Node24 -->
<g id="edge31" class="edge">
<title>Node25&#45;&gt;Node24</title>
<path fill="none" stroke="#63b8ff" d="M1692.25,-241.6C1686.06,-229.99 1675.06,-209.36 1666.99,-194.23"/>
<polygon fill="#63b8ff" stroke="#63b8ff" points="1670.25,-192.9 1662.45,-185.72 1664.07,-196.19 1670.25,-192.9"/>
</g>
<!-- Node26&#45;&gt;Node12 -->
<g id="edge35" class="edge">
<title>Node26&#45;&gt;Node12</title>
<path fill="none" stroke="#63b8ff" d="M1222.93,-241.6C1252.11,-228.58 1306.67,-204.22 1340.79,-188.99"/>
<polygon fill="#63b8ff" stroke="#63b8ff" points="1342.01,-192.28 1349.71,-185 1339.15,-185.88 1342.01,-192.28"/>
</g>
<!-- Node26&#45;&gt;Node21 -->
<g id="edge33" class="edge">
<title>Node26&#45;&gt;Node21</title>
<path fill="none" stroke="#63b8ff" d="M1225.18,-241.55C1235.09,-237.83 1246.99,-233.76 1258,-231 1361.78,-205.01 1394.19,-227.85 1496,-195 1500.4,-193.58 1504.91,-191.7 1509.22,-189.66"/>
<polygon fill="#63b8ff" stroke="#63b8ff" points="1510.69,-192.83 1517.98,-185.14 1507.48,-186.61 1510.69,-192.83"/>
</g>
<!-- Node26&#45;&gt;Node22 -->
<g id="edge34" class="edge">
<title>Node26&#45;&gt;Node22</title>
<path fill="none" stroke="#63b8ff" d="M1226.06,-241.55C1235.82,-237.97 1247.37,-233.99 1258,-231 1332.77,-209.98 1356.61,-223.13 1429,-195 1432.54,-193.63 1436.13,-191.9 1439.59,-190.04"/>
<polygon fill="#63b8ff" stroke="#63b8ff" points="1441.18,-193.16 1448.03,-185.07 1437.63,-187.13 1441.18,-193.16"/>
</g>
<!-- Node27&#45;&gt;Node12 -->
<g id="edge38" class="edge">
<title>Node27&#45;&gt;Node12</title>
<path fill="none" stroke="#63b8ff" d="M1316.36,-241.6C1326.24,-229.65 1344.01,-208.15 1356.6,-192.92"/>
<polygon fill="#63b8ff" stroke="#63b8ff" points="1359.02,-195.49 1362.69,-185.55 1353.62,-191.03 1359.02,-195.49"/>
</g>
<!-- Node27&#45;&gt;Node21 -->
<g id="edge37" class="edge">
<title>Node27&#45;&gt;Node21</title>
<path fill="none" stroke="#63b8ff" d="M1346.59,-241.54C1384.86,-231.91 1445.55,-215.23 1496,-195 1500.02,-193.39 1504.19,-191.49 1508.22,-189.53"/>
<polygon fill="#63b8ff" stroke="#63b8ff" points="1509.75,-192.69 1517.06,-185.02 1506.56,-186.45 1509.75,-192.69"/>
</g>
<!-- Node28&#45;&gt;Node1 -->
<g id="edge40" class="edge">
<title>Node28&#45;&gt;Node1</title>
<path fill="none" stroke="#63b8ff" d="M702.92,-272.45C703.56,-279.66 703.83,-288.04 703.73,-296.23"/>
<polygon fill="#63b8ff" stroke="#63b8ff" points="700.24,-295.9 703.38,-306.02 707.23,-296.15 700.24,-295.9"/>
</g>
<!-- Node28&#45;&gt;Node6 -->
<g id="edge41" class="edge">
<title>Node28&#45;&gt;Node6</title>
<path fill="none" stroke="#63b8ff" d="M693.28,-230.56C689.07,-210.53 681.17,-179.12 669,-154 650.66,-116.16 644.51,-105.95 614,-77 602.29,-65.89 588.04,-55.72 574.49,-47.21"/>
<polygon fill="#63b8ff" stroke="#63b8ff" points="576.45,-44.31 566.09,-42.1 572.82,-50.29 576.45,-44.31"/>
</g>
<!-- Node29 -->
<g id="node29" class="node">
<title>Node29</title>
<g id="a_node29"><a xlink:href="_idle__state_8h.html" target="_top" xlink:title="Clase de estado de reposo.">
<polygon fill="white" stroke="#666666" points="660,-195 544,-195 544,-154 660,-154 660,-195"/>
<text text-anchor="start" x="552" y="-183" font-family="Helvetica,sans-Serif" font-size="10.00">machine_state_pattern</text>
<text text-anchor="start" x="552" y="-172" font-family="Helvetica,sans-Serif" font-size="10.00">/machine_states/Idle</text>
<text text-anchor="middle" x="602" y="-161" font-family="Helvetica,sans-Serif" font-size="10.00">_state.h</text>
</a>
</g>
</g>
<!-- Node28&#45;&gt;Node29 -->
<g id="edge42" class="edge">
<title>Node28&#45;&gt;Node29</title>
<path fill="none" stroke="#63b8ff" d="M672.04,-230.79C661,-222.08 647.85,-211.69 635.93,-202.29"/>
<polygon fill="#63b8ff" stroke="#63b8ff" points="638.33,-199.72 628.31,-196.27 633.99,-205.22 638.33,-199.72"/>
</g>
<!-- Node29&#45;&gt;Node1 -->
<g id="edge43" class="edge">
<title>Node29&#45;&gt;Node1</title>
<path fill="none" stroke="#63b8ff" d="M602.01,-195.41C602.87,-215.98 606.67,-248.34 621,-272 627.44,-282.64 636.45,-292.2 646.02,-300.42"/>
<polygon fill="#63b8ff" stroke="#63b8ff" points="643.75,-303.08 653.73,-306.63 648.14,-297.63 643.75,-303.08"/>
</g>
<!-- Node29&#45;&gt;Node6 -->
<g id="edge44" class="edge">
<title>Node29&#45;&gt;Node6</title>
<path fill="none" stroke="#63b8ff" d="M604.65,-153.79C606.45,-133.38 606.6,-101.15 594,-77 588.28,-66.03 579.36,-56.4 569.87,-48.37"/>
<polygon fill="#63b8ff" stroke="#63b8ff" points="572.29,-45.82 562.26,-42.39 567.96,-51.32 572.29,-45.82"/>
</g>
<!-- Node30 -->
<g id="node30" class="node">
<title>Node30</title>
<g id="a_node30"><a xlink:href="_alarm__state_8h.html" target="_top" xlink:title="Clase de estado de control del motor.">
<polygon fill="white" stroke="#666666" points="585.5,-118 468.5,-118 468.5,-77 585.5,-77 585.5,-118"/>
<text text-anchor="start" x="476.5" y="-106" font-family="Helvetica,sans-Serif" font-size="10.00">machine_state_pattern</text>
<text text-anchor="start" x="476.5" y="-95" font-family="Helvetica,sans-Serif" font-size="10.00">/machine_states/Alarm</text>
<text text-anchor="middle" x="527" y="-84" font-family="Helvetica,sans-Serif" font-size="10.00">_state.h</text>
</a>
</g>
</g>
<!-- Node29&#45;&gt;Node30 -->
<g id="edge45" class="edge">
<title>Node29&#45;&gt;Node30</title>
<path fill="none" stroke="#63b8ff" d="M576.27,-153.79C567.25,-145.51 557.27,-135.71 548.62,-126.68"/>
<polygon fill="#63b8ff" stroke="#63b8ff" points="551.23,-124.34 541.83,-119.44 546.12,-129.13 551.23,-124.34"/>
</g>
<!-- Node30&#45;&gt;Node1 -->
<g id="edge46" class="edge">
<title>Node30&#45;&gt;Node1</title>
<path fill="none" stroke="#63b8ff" d="M525.1,-118.22C523.96,-138.35 524.38,-170.1 535,-195 554.97,-241.84 600.39,-278.24 638.07,-301.87"/>
<polygon fill="#63b8ff" stroke="#63b8ff" points="635.81,-304.59 646.17,-306.81 639.46,-298.62 635.81,-304.59"/>
</g>
<!-- Node30&#45;&gt;Node6 -->
<g id="edge47" class="edge">
<title>Node30&#45;&gt;Node6</title>
<path fill="none" stroke="#63b8ff" d="M527,-76.79C527,-69.45 527,-60.91 527,-52.78"/>
<polygon fill="#63b8ff" stroke="#63b8ff" points="530.5,-52.85 527,-42.85 523.5,-52.85 530.5,-52.85"/>
</g>
<!-- Node30&#45;&gt;Node29 -->
<g id="edge48" class="edge">
<title>Node30&#45;&gt;Node29</title>
<path fill="none" stroke="#63b8ff" d="M552.87,-118.33C561.9,-126.64 571.87,-136.44 580.52,-145.46"/>
<polygon fill="#63b8ff" stroke="#63b8ff" points="577.89,-147.78 587.28,-152.69 583,-143 577.89,-147.78"/>
</g>
<!-- Node31&#45;&gt;Node1 -->
<g id="edge50" class="edge">
<title>Node31&#45;&gt;Node1</title>
<path fill="none" stroke="#63b8ff" d="M518.84,-270.79C548.68,-280.55 585.14,-292.8 617.3,-303.84"/>
<polygon fill="#63b8ff" stroke="#63b8ff" points="616,-307.09 626.59,-307.04 618.28,-300.47 616,-307.09"/>
</g>
<!-- Node31&#45;&gt;Node6 -->
<g id="edge51" class="edge">
<title>Node31&#45;&gt;Node6</title>
<path fill="none" stroke="#63b8ff" d="M453.74,-230.57C445.98,-197.01 434.85,-127.89 459,-77 464.3,-65.83 473.08,-56.16 482.59,-48.17"/>
<polygon fill="#63b8ff" stroke="#63b8ff" points="484.49,-51.12 490.26,-42.23 480.21,-45.59 484.49,-51.12"/>
</g>
<!-- Node31&#45;&gt;Node30 -->
<g id="edge52" class="edge">
<title>Node31&#45;&gt;Node30</title>
<path fill="none" stroke="#63b8ff" d="M467.87,-230.53C476.55,-211.01 490.15,-180.45 502,-154 505.7,-145.75 509.71,-136.82 513.42,-128.58"/>
<polygon fill="#63b8ff" stroke="#63b8ff" points="516.53,-130.2 517.45,-119.65 510.15,-127.33 516.53,-130.2"/>
</g>
</g>
</svg>
        <g id="navigator" transform="translate(0 0)" fill="#404254">
                <rect fill="#f2f5e9" fill-opacity="0.5" stroke="#606060" stroke-width=".5" x="0" y="0" width="60" height="60"/>
                <use id="zoomplus" xlink:href="#zoomPlus" x="17" y="9" onmousedown="handleZoom(evt,'in')"/>
                <use id="zoomminus" xlink:href="#zoomMin" x="42" y="9" onmousedown="handleZoom(evt,'out')"/>
                <use id="reset" xlink:href="#resetDef" x="30" y="36" onmousedown="handleReset()"/>
                <g id="arrowUp" xlink:href="#dirArrow" transform="translate(30 24)" onmousedown="handlePan(0,-1)">
                  <use xlink:href="#rim" fill="#404040">
                        <set attributeName="fill" to="#808080" begin="arrowUp.mouseover" end="arrowUp.mouseout"/>
                  </use>
                  <path fill="none" stroke="white" stroke-width="1.5" d="M0,-3.0v7 M-2.5,-0.5L0,-3.0L2.5,-0.5"/>
                </g>
                <g id="arrowRight" xlink:href="#dirArrow" transform="rotate(90) translate(36 -43)" onmousedown="handlePan(1,0)">
                  <use xlink:href="#rim" fill="#404040">
                        <set attributeName="fill" to="#808080" begin="arrowRight.mouseover" end="arrowRight.mouseout"/>
                  </use>
                  <path fill="none" stroke="white" stroke-width="1.5" d="M0,-3.0v7 M-2.5,-0.5L0,-3.0L2.5,-0.5"/>
                </g>
                <g id="arrowDown" xlink:href="#dirArrow" transform="rotate(180) translate(-30 -48)" onmousedown="handlePan(0,1)">
                  <use xlink:href="#rim" fill="#404040">
                        <set attributeName="fill" to="#808080" begin="arrowDown.mouseover" end="arrowDown.mouseout"/>
                  </use>
                  <path fill="none" stroke="white" stroke-width="1.5" d="M0,-3.0v7 M-2.5,-0.5L0,-3.0L2.5,-0.5"/>
                </g>
                <g id="arrowLeft" xlink:href="#dirArrow" transform="rotate(270) translate(-36 17)" onmousedown="handlePan(-1,0)">
                  <use xlink:href="#rim" fill="#404040">
                        <set attributeName="fill" to="#808080" begin="arrowLeft.mouseover" end="arrowLeft.mouseout"/>
                  </use>
                  <path fill="none" stroke="white" stroke-width="1.5" d="M0,-3.0v7 M-2.5,-0.5L0,-3.0L2.5,-0.5"/>
                </g>
        </g>
        <svg viewBox="0 0 15 15" width="100%" height="30px" preserveAspectRatio="xMaxYMin meet">
         <g id="arrow_out" transform="scale(0.3 0.3)">
          <a xlink:href="_control__system_8h__incl_org.svg" target="_base">
           <rect id="button" ry="5" rx="5" y="6" x="6" height="38" width="38"
                fill="#f2f5e9" fill-opacity="0.5" stroke="#606060" stroke-width="1.0"/>
           <path id="arrow"
             d="M 11.500037,31.436501 C 11.940474,20.09759 22.043105,11.32322 32.158766,21.979434 L 37.068811,17.246167 C 37.068811,17.246167 37.088388,32 37.088388,32 L 22.160133,31.978069 C 22.160133,31.978069 26.997745,27.140456 26.997745,27.140456 C 18.528582,18.264221 13.291696,25.230495 11.500037,31.436501 z"
             style="fill:#404040;"/>
          </a>
         </g>
        </svg>
</svg>
