<?xml version="1.0" encoding="UTF-8" standalone="no"?>
<!DOCTYPE svg PUBLIC "-//W3C//DTD SVG 1.1//EN"
 "http://www.w3.org/Graphics/SVG/1.1/DTD/svg11.dtd">
<!-- Generated by graphviz version 7.0.2 (20221119.0110)
 -->
<!-- Title: C:/Users/juanh/OneDrive/Escritorio/Sistemas Embebidos/Proyecto final/LAL Control MbedOS/include/drivers/Cooler.h Pages: 1 -->
<svg width="183pt" height="115pt"
 viewBox="0.00 0.00 183.00 115.00" xmlns="http://www.w3.org/2000/svg" xmlns:xlink="http://www.w3.org/1999/xlink">
<g id="graph0" class="graph" transform="scale(1 1) rotate(0) translate(4 111)">
<title>C:/Users/juanh/OneDrive/Escritorio/Sistemas Embebidos/Proyecto final/LAL Control MbedOS/include/drivers/Cooler.h</title>
<!-- Node1 -->
<g id="node1" class="node">
<title>Node1</title>
<g id="a_node1"><a xlink:title="Controlador de ventilador de 12 volts y 5 milímteros.">
<polygon fill="#999999" stroke="#666666" points="161,-107 0,-107 0,-55 161,-55 161,-107"/>
<text text-anchor="start" x="8" y="-95" font-family="Helvetica,sans-Serif" font-size="10.00">C:/Users/juanh/OneDrive</text>
<text text-anchor="start" x="8" y="-84" font-family="Helvetica,sans-Serif" font-size="10.00">/Escritorio/Sistemas Embebidos</text>
<text text-anchor="start" x="8" y="-73" font-family="Helvetica,sans-Serif" font-size="10.00">/Proyecto final/LAL Control</text>
<text text-anchor="middle" x="80.5" y="-62" font-family="Helvetica,sans-Serif" font-size="10.00"> MbedOS/include/drivers/Cooler.h</text>
</a>
</g>
</g>
<!-- Node2 -->
<g id="node2" class="node">
<title>Node2</title>
<g id="a_node2"><a xlink:title=" ">
<polygon fill="#e0e0e0" stroke="#999999" points="60,-19 11,-19 11,0 60,0 60,-19"/>
<text text-anchor="middle" x="35.5" y="-7" font-family="Helvetica,sans-Serif" font-size="10.00">mbed.h</text>
</a>
</g>
</g>
<!-- Node1&#45;&gt;Node2 -->
<g id="edge1" class="edge">
<title>Node1&#45;&gt;Node2</title>
<path fill="none" stroke="#63b8ff" d="M64,-54.52C58.48,-45.99 52.44,-36.67 47.35,-28.8"/>
<polygon fill="#63b8ff" stroke="#63b8ff" points="50.33,-26.96 41.95,-20.47 44.45,-30.76 50.33,-26.96"/>
</g>
<!-- Node3 -->
<g id="node3" class="node">
<title>Node3</title>
<g id="a_node3"><a xlink:href="system__settings_8h.html" target="_top" xlink:title="Archivo para la definición de constantes del sistema.">
<polygon fill="white" stroke="#666666" points="175,-19 78,-19 78,0 175,0 175,-19"/>
<text text-anchor="middle" x="126.5" y="-7" font-family="Helvetica,sans-Serif" font-size="10.00">system_settings.h</text>
</a>
</g>
</g>
<!-- Node1&#45;&gt;Node3 -->
<g id="edge2" class="edge">
<title>Node1&#45;&gt;Node3</title>
<path fill="none" stroke="#63b8ff" d="M97.37,-54.52C103.07,-45.9 109.32,-36.46 114.56,-28.54"/>
<polygon fill="#63b8ff" stroke="#63b8ff" points="117.31,-30.73 119.91,-20.46 111.47,-26.87 117.31,-30.73"/>
</g>
</g>
</svg>
