<?xml version="1.0" encoding="UTF-8" standalone="no"?>
<!DOCTYPE svg PUBLIC "-//W3C//DTD SVG 1.1//EN"
 "http://www.w3.org/Graphics/SVG/1.1/DTD/svg11.dtd">
<!-- Generated by graphviz version 7.0.2 (20221119.0110)
 -->
<!-- Title: C:/Users/juanh/OneDrive/Escritorio/Sistemas Embebidos/Proyecto final/LAL Control MbedOS/src/Port/drivers/Display.cpp Pages: 1 -->
<svg width="445pt" height="291pt"
 viewBox="0.00 0.00 445.00 291.00" xmlns="http://www.w3.org/2000/svg" xmlns:xlink="http://www.w3.org/1999/xlink">
<g id="graph0" class="graph" transform="scale(1 1) rotate(0) translate(4 287)">
<title>C:/Users/juanh/OneDrive/Escritorio/Sistemas Embebidos/Proyecto final/LAL Control MbedOS/src/Port/drivers/Display.cpp</title>
<!-- Node1 -->
<g id="node1" class="node">
<title>Node1</title>
<g id="a_node1"><a xlink:title=" ">
<polygon fill="#999999" stroke="#666666" points="427,-283 247,-283 247,-231 427,-231 427,-283"/>
<text text-anchor="start" x="255" y="-271" font-family="Helvetica,sans-Serif" font-size="10.00">C:/Users/juanh/OneDrive</text>
<text text-anchor="start" x="255" y="-260" font-family="Helvetica,sans-Serif" font-size="10.00">/Escritorio/Sistemas Embebidos</text>
<text text-anchor="start" x="255" y="-249" font-family="Helvetica,sans-Serif" font-size="10.00">/Proyecto final/LAL Control</text>
<text text-anchor="middle" x="337" y="-238" font-family="Helvetica,sans-Serif" font-size="10.00"> MbedOS/src/Port/drivers/Display.cpp</text>
</a>
</g>
</g>
<!-- Node2 -->
<g id="node2" class="node">
<title>Node2</title>
<g id="a_node2"><a xlink:href="_display_8h.html" target="_top" xlink:title="Controlador de LCD hd44780 por interfaz I2C.">
<polygon fill="white" stroke="#666666" points="285,-195 197,-195 197,-176 285,-176 285,-195"/>
<text text-anchor="middle" x="241" y="-183" font-family="Helvetica,sans-Serif" font-size="10.00">drivers/Display.h</text>
</a>
</g>
</g>
<!-- Node1&#45;&gt;Node2 -->
<g id="edge1" class="edge">
<title>Node1&#45;&gt;Node2</title>
<path fill="none" stroke="#63b8ff" d="M301.8,-230.52C288.55,-220.93 273.91,-210.32 262.31,-201.93"/>
<polygon fill="#63b8ff" stroke="#63b8ff" points="264.39,-199.11 254.24,-196.08 260.29,-204.78 264.39,-199.11"/>
</g>
<!-- Node12 -->
<g id="node12" class="node">
<title>Node12</title>
<g id="a_node12"><a xlink:href="port__config_8h.html" target="_top" xlink:title="Archivo de configuración para los puertos de la placa donde se implementará el sistema.">
<polygon fill="white" stroke="#666666" points="437,-195 365,-195 365,-176 437,-176 437,-195"/>
<text text-anchor="middle" x="401" y="-183" font-family="Helvetica,sans-Serif" font-size="10.00">port_config.h</text>
</a>
</g>
</g>
<!-- Node1&#45;&gt;Node12 -->
<g id="edge13" class="edge">
<title>Node1&#45;&gt;Node12</title>
<path fill="none" stroke="#63b8ff" d="M360.47,-230.52C368.76,-221.51 377.88,-211.61 385.37,-203.48"/>
<polygon fill="#63b8ff" stroke="#63b8ff" points="387.77,-206.04 391.97,-196.31 382.62,-201.3 387.77,-206.04"/>
</g>
<!-- Node13 -->
<g id="node13" class="node">
<title>Node13</title>
<g id="a_node13"><a xlink:href="_p_c__serial__interface_8h_source.html" target="_top" xlink:title=" ">
<polygon fill="white" stroke="#666666" points="415.5,-140 306.5,-140 306.5,-121 415.5,-121 415.5,-140"/>
<text text-anchor="middle" x="361" y="-128" font-family="Helvetica,sans-Serif" font-size="10.00">PC_serial_interface.h</text>
</a>
</g>
</g>
<!-- Node1&#45;&gt;Node13 -->
<g id="edge14" class="edge">
<title>Node1&#45;&gt;Node13</title>
<path fill="none" stroke="#63b8ff" d="M341.91,-230.51C346.41,-207.18 352.97,-173.14 357.11,-151.66"/>
<polygon fill="#63b8ff" stroke="#63b8ff" points="360.54,-152.35 359,-141.87 353.67,-151.03 360.54,-152.35"/>
</g>
<!-- Node3 -->
<g id="node3" class="node">
<title>Node3</title>
<g id="a_node3"><a xlink:href="display__settings_8h.html" target="_top" xlink:title="Archivo de configuración de la pantalla.">
<polygon fill="white" stroke="#666666" points="288.5,-140 193.5,-140 193.5,-121 288.5,-121 288.5,-140"/>
<text text-anchor="middle" x="241" y="-128" font-family="Helvetica,sans-Serif" font-size="10.00">display_settings.h</text>
</a>
</g>
</g>
<!-- Node2&#45;&gt;Node3 -->
<g id="edge2" class="edge">
<title>Node2&#45;&gt;Node3</title>
<path fill="none" stroke="#63b8ff" d="M241,-175.75C241,-169.27 241,-160.16 241,-151.9"/>
<polygon fill="#63b8ff" stroke="#63b8ff" points="244.5,-151.96 241,-141.96 237.5,-151.96 244.5,-151.96"/>
</g>
<!-- Node4 -->
<g id="node4" class="node">
<title>Node4</title>
<g id="a_node4"><a xlink:href="hd44780___i2_cexp_8h_source.html" target="_top" xlink:title=" ">
<polygon fill="white" stroke="#666666" points="175,-140 47,-140 47,-121 175,-121 175,-140"/>
<text text-anchor="middle" x="111" y="-128" font-family="Helvetica,sans-Serif" font-size="10.00">drivers/hd44780_I2Cexp.h</text>
</a>
</g>
</g>
<!-- Node2&#45;&gt;Node4 -->
<g id="edge3" class="edge">
<title>Node2&#45;&gt;Node4</title>
<path fill="none" stroke="#63b8ff" d="M218.95,-175.51C198.19,-167.04 166.84,-154.27 143.27,-144.66"/>
<polygon fill="#63b8ff" stroke="#63b8ff" points="144.71,-141.46 134.13,-140.93 142.07,-147.95 144.71,-141.46"/>
</g>
<!-- Node5 -->
<g id="node5" class="node">
<title>Node5</title>
<g id="a_node5"><a xlink:title=" ">
<polygon fill="#e0e0e0" stroke="#999999" points="154.5,-19 105.5,-19 105.5,0 154.5,0 154.5,-19"/>
<text text-anchor="middle" x="130" y="-7" font-family="Helvetica,sans-Serif" font-size="10.00">mbed.h</text>
</a>
</g>
</g>
<!-- Node4&#45;&gt;Node5 -->
<g id="edge4" class="edge">
<title>Node4&#45;&gt;Node5</title>
<path fill="none" stroke="#63b8ff" d="M112.43,-120.56C115.47,-101.51 122.65,-56.56 126.83,-30.37"/>
<polygon fill="#63b8ff" stroke="#63b8ff" points="130.25,-31.15 128.37,-20.72 123.34,-30.04 130.25,-31.15"/>
</g>
<!-- Node6 -->
<g id="node6" class="node">
<title>Node6</title>
<g id="a_node6"><a xlink:title=" ">
<polygon fill="#e0e0e0" stroke="#999999" points="221,-19 173,-19 173,0 221,0 221,-19"/>
<text text-anchor="middle" x="197" y="-7" font-family="Helvetica,sans-Serif" font-size="10.00">stdlib.h</text>
</a>
</g>
</g>
<!-- Node4&#45;&gt;Node6 -->
<g id="edge5" class="edge">
<title>Node4&#45;&gt;Node6</title>
<path fill="none" stroke="#63b8ff" d="M117.46,-120.56C131.6,-100.99 165.5,-54.09 184.15,-28.28"/>
<polygon fill="#63b8ff" stroke="#63b8ff" points="186.79,-30.61 189.81,-20.45 181.11,-26.51 186.79,-30.61"/>
</g>
<!-- Node7 -->
<g id="node7" class="node">
<title>Node7</title>
<g id="a_node7"><a xlink:href="hd44780__instruction__set_8h_source.html" target="_top" xlink:title=" ">
<polygon fill="white" stroke="#666666" points="104,-85 0,-85 0,-55 104,-55 104,-85"/>
<text text-anchor="start" x="8" y="-73" font-family="Helvetica,sans-Serif" font-size="10.00">hd44780_instruction</text>
<text text-anchor="middle" x="52" y="-62" font-family="Helvetica,sans-Serif" font-size="10.00">_set.h</text>
</a>
</g>
</g>
<!-- Node4&#45;&gt;Node7 -->
<g id="edge6" class="edge">
<title>Node4&#45;&gt;Node7</title>
<path fill="none" stroke="#63b8ff" d="M102.04,-120.62C94.76,-113.4 84.17,-102.89 74.6,-93.41"/>
<polygon fill="#63b8ff" stroke="#63b8ff" points="77.2,-91.06 67.64,-86.51 72.27,-96.03 77.2,-91.06"/>
</g>
<!-- Node8 -->
<g id="node8" class="node">
<title>Node8</title>
<g id="a_node8"><a xlink:href="utils_8h_source.html" target="_top" xlink:title=" ">
<polygon fill="white" stroke="#666666" points="295.5,-79.5 252.5,-79.5 252.5,-60.5 295.5,-60.5 295.5,-79.5"/>
<text text-anchor="middle" x="274" y="-67.5" font-family="Helvetica,sans-Serif" font-size="10.00">utils.h</text>
</a>
</g>
</g>
<!-- Node4&#45;&gt;Node8 -->
<g id="edge8" class="edge">
<title>Node4&#45;&gt;Node8</title>
<path fill="none" stroke="#63b8ff" d="M135.76,-120.62C163.99,-110.48 210.27,-93.87 241.42,-82.69"/>
<polygon fill="#63b8ff" stroke="#63b8ff" points="242.49,-86.03 250.72,-79.35 240.13,-79.44 242.49,-86.03"/>
</g>
<!-- Node7&#45;&gt;Node5 -->
<g id="edge7" class="edge">
<title>Node7&#45;&gt;Node5</title>
<path fill="none" stroke="#63b8ff" d="M71.28,-54.54C82.84,-45.87 97.54,-34.85 109.34,-26"/>
<polygon fill="#63b8ff" stroke="#63b8ff" points="111.32,-28.88 117.22,-20.08 107.12,-23.28 111.32,-28.88"/>
</g>
<!-- Node8&#45;&gt;Node6 -->
<g id="edge11" class="edge">
<title>Node8&#45;&gt;Node6</title>
<path fill="none" stroke="#63b8ff" d="M262.31,-60.12C250.55,-51.18 232.16,-37.22 217.89,-26.37"/>
<polygon fill="#63b8ff" stroke="#63b8ff" points="220.09,-23.65 210.01,-20.38 215.86,-29.22 220.09,-23.65"/>
</g>
<!-- Node9 -->
<g id="node9" class="node">
<title>Node9</title>
<g id="a_node9"><a xlink:title=" ">
<polygon fill="#e0e0e0" stroke="#999999" points="350.5,-19 303.5,-19 303.5,0 350.5,0 350.5,-19"/>
<text text-anchor="middle" x="327" y="-7" font-family="Helvetica,sans-Serif" font-size="10.00">math.h</text>
</a>
</g>
</g>
<!-- Node8&#45;&gt;Node9 -->
<g id="edge9" class="edge">
<title>Node8&#45;&gt;Node9</title>
<path fill="none" stroke="#63b8ff" d="M281.82,-60.37C289.65,-51.73 301.9,-38.2 311.67,-27.42"/>
<polygon fill="#63b8ff" stroke="#63b8ff" points="314.01,-30.05 318.13,-20.29 308.82,-25.35 314.01,-30.05"/>
</g>
<!-- Node10 -->
<g id="node10" class="node">
<title>Node10</title>
<g id="a_node10"><a xlink:title=" ">
<polygon fill="#e0e0e0" stroke="#999999" points="285,-19 239,-19 239,0 285,0 285,-19"/>
<text text-anchor="middle" x="262" y="-7" font-family="Helvetica,sans-Serif" font-size="10.00">stdio.h</text>
</a>
</g>
</g>
<!-- Node8&#45;&gt;Node10 -->
<g id="edge10" class="edge">
<title>Node8&#45;&gt;Node10</title>
<path fill="none" stroke="#63b8ff" d="M272.23,-60.37C270.62,-52.5 268.17,-40.6 266.08,-30.39"/>
<polygon fill="#63b8ff" stroke="#63b8ff" points="269.52,-29.74 264.08,-20.65 262.66,-31.15 269.52,-29.74"/>
</g>
<!-- Node11 -->
<g id="node11" class="node">
<title>Node11</title>
<g id="a_node11"><a xlink:title=" ">
<polygon fill="#e0e0e0" stroke="#999999" points="417.5,-19 368.5,-19 368.5,0 417.5,0 417.5,-19"/>
<text text-anchor="middle" x="393" y="-7" font-family="Helvetica,sans-Serif" font-size="10.00">string.h</text>
</a>
</g>
</g>
<!-- Node8&#45;&gt;Node11 -->
<g id="edge12" class="edge">
<title>Node8&#45;&gt;Node11</title>
<path fill="none" stroke="#63b8ff" d="M292.07,-60.12C311.29,-50.67 341.97,-35.59 364.46,-24.53"/>
<polygon fill="#63b8ff" stroke="#63b8ff" points="365.97,-27.69 373.4,-20.14 362.88,-21.41 365.97,-27.69"/>
</g>
<!-- Node13&#45;&gt;Node5 -->
<g id="edge15" class="edge">
<title>Node13&#45;&gt;Node5</title>
<path fill="none" stroke="#63b8ff" d="M332.11,-120.61C307.74,-112.64 272.25,-99.92 243,-85 209.06,-67.68 172.77,-42.41 150.74,-26.21"/>
<polygon fill="#63b8ff" stroke="#63b8ff" points="153,-23.53 142.89,-20.37 148.82,-29.15 153,-23.53"/>
</g>
<!-- Node13&#45;&gt;Node8 -->
<g id="edge18" class="edge">
<title>Node13&#45;&gt;Node8</title>
<path fill="none" stroke="#63b8ff" d="M347.79,-120.62C334.25,-111.51 312.93,-97.18 296.68,-86.25"/>
<polygon fill="#63b8ff" stroke="#63b8ff" points="298.85,-83.49 288.59,-80.81 294.94,-89.3 298.85,-83.49"/>
</g>
<!-- Node13&#45;&gt;Node11 -->
<g id="edge17" class="edge">
<title>Node13&#45;&gt;Node11</title>
<path fill="none" stroke="#63b8ff" d="M363.68,-120.66C366.37,-111.7 370.6,-97.42 374,-85 379.06,-66.49 384.43,-45.28 388.16,-30.23"/>
<polygon fill="#63b8ff" stroke="#63b8ff" points="391.52,-31.26 390.51,-20.71 384.72,-29.58 391.52,-31.26"/>
</g>
<!-- Node14 -->
<g id="node14" class="node">
<title>Node14</title>
<g id="a_node14"><a xlink:href="config_8h_source.html" target="_top" xlink:title=" ">
<polygon fill="white" stroke="#666666" points="365,-79.5 315,-79.5 315,-60.5 365,-60.5 365,-79.5"/>
<text text-anchor="middle" x="340" y="-67.5" font-family="Helvetica,sans-Serif" font-size="10.00">config.h</text>
</a>
</g>
</g>
<!-- Node13&#45;&gt;Node14 -->
<g id="edge16" class="edge">
<title>Node13&#45;&gt;Node14</title>
<path fill="none" stroke="#63b8ff" d="M357.9,-120.87C355.02,-112.83 350.62,-100.57 346.9,-90.22"/>
<polygon fill="#63b8ff" stroke="#63b8ff" points="350.3,-89.32 343.62,-81.09 343.71,-91.69 350.3,-89.32"/>
</g>
</g>
</svg>
