<?xml version="1.0" encoding="UTF-8" standalone="no"?>
<!DOCTYPE svg PUBLIC "-//W3C//DTD SVG 1.1//EN"
 "http://www.w3.org/Graphics/SVG/1.1/DTD/svg11.dtd">
<!-- Generated by graphviz version 7.0.2 (20221119.0110)
 -->
<!-- Title: C:/Users/juanh/OneDrive/Escritorio/Sistemas Embebidos/Proyecto final/LAL Control MbedOS/src/Port/drivers/Display.cpp Pages: 1 -->
<svg width="505pt" height="291pt"
 viewBox="0.00 0.00 505.00 291.00" xmlns="http://www.w3.org/2000/svg" xmlns:xlink="http://www.w3.org/1999/xlink">
<g id="graph0" class="graph" transform="scale(1 1) rotate(0) translate(4 287)">
<title>C:/Users/juanh/OneDrive/Escritorio/Sistemas Embebidos/Proyecto final/LAL Control MbedOS/src/Port/drivers/Display.cpp</title>
<!-- Node1 -->
<g id="node1" class="node">
<title>Node1</title>
<g id="a_node1"><a xlink:title="Implementación de Display.h.">
<polygon fill="#999999" stroke="#666666" points="397.5,-283 217.5,-283 217.5,-231 397.5,-231 397.5,-283"/>
<text text-anchor="start" x="225.5" y="-271" font-family="Helvetica,sans-Serif" font-size="10.00">C:/Users/juanh/OneDrive</text>
<text text-anchor="start" x="225.5" y="-260" font-family="Helvetica,sans-Serif" font-size="10.00">/Escritorio/Sistemas Embebidos</text>
<text text-anchor="start" x="225.5" y="-249" font-family="Helvetica,sans-Serif" font-size="10.00">/Proyecto final/LAL Control</text>
<text text-anchor="middle" x="307.5" y="-238" font-family="Helvetica,sans-Serif" font-size="10.00"> MbedOS/src/Port/drivers/Display.cpp</text>
</a>
</g>
</g>
<!-- Node2 -->
<g id="node2" class="node">
<title>Node2</title>
<g id="a_node2"><a xlink:href="_display_8h.html" target="_top" xlink:title="Controlador de LCD hd44780 por interfaz I2C.">
<polygon fill="white" stroke="#666666" points="247.5,-195 159.5,-195 159.5,-176 247.5,-176 247.5,-195"/>
<text text-anchor="middle" x="203.5" y="-183" font-family="Helvetica,sans-Serif" font-size="10.00">drivers/Display.h</text>
</a>
</g>
</g>
<!-- Node1&#45;&gt;Node2 -->
<g id="edge1" class="edge">
<title>Node1&#45;&gt;Node2</title>
<path fill="none" stroke="#63b8ff" d="M269.36,-230.52C254.82,-220.79 238.71,-210.03 226.07,-201.58"/>
<polygon fill="#63b8ff" stroke="#63b8ff" points="228.28,-198.85 218.02,-196.2 224.39,-204.67 228.28,-198.85"/>
</g>
<!-- Node12 -->
<g id="node12" class="node">
<title>Node12</title>
<g id="a_node12"><a xlink:href="port__config_8h.html" target="_top" xlink:title="Archivo de configuración para los puertos de la placa donde se implementará el sistema.">
<polygon fill="white" stroke="#666666" points="407.5,-195 335.5,-195 335.5,-176 407.5,-176 407.5,-195"/>
<text text-anchor="middle" x="371.5" y="-183" font-family="Helvetica,sans-Serif" font-size="10.00">port_config.h</text>
</a>
</g>
</g>
<!-- Node1&#45;&gt;Node12 -->
<g id="edge14" class="edge">
<title>Node1&#45;&gt;Node12</title>
<path fill="none" stroke="#63b8ff" d="M330.97,-230.52C339.26,-221.51 348.38,-211.61 355.87,-203.48"/>
<polygon fill="#63b8ff" stroke="#63b8ff" points="358.27,-206.04 362.47,-196.31 353.12,-201.3 358.27,-206.04"/>
</g>
<!-- Node13 -->
<g id="node13" class="node">
<title>Node13</title>
<g id="a_node13"><a xlink:href="_p_c__serial__interface_8h_source.html" target="_top" xlink:title=" ">
<polygon fill="white" stroke="#666666" points="410,-140 301,-140 301,-121 410,-121 410,-140"/>
<text text-anchor="middle" x="355.5" y="-128" font-family="Helvetica,sans-Serif" font-size="10.00">PC_serial_interface.h</text>
</a>
</g>
</g>
<!-- Node1&#45;&gt;Node13 -->
<g id="edge15" class="edge">
<title>Node1&#45;&gt;Node13</title>
<path fill="none" stroke="#63b8ff" d="M311.19,-230.79C314.1,-214.67 318.96,-193.58 326.5,-176 330.5,-166.69 336.4,-157.18 341.84,-149.35"/>
<polygon fill="#63b8ff" stroke="#63b8ff" points="344.57,-151.55 347.64,-141.41 338.92,-147.42 344.57,-151.55"/>
</g>
<!-- Node3 -->
<g id="node3" class="node">
<title>Node3</title>
<g id="a_node3"><a xlink:href="display__settings_8h.html" target="_top" xlink:title="Archivo de configuración de la pantalla.">
<polygon fill="white" stroke="#666666" points="95,-79.5 0,-79.5 0,-60.5 95,-60.5 95,-79.5"/>
<text text-anchor="middle" x="47.5" y="-67.5" font-family="Helvetica,sans-Serif" font-size="10.00">display_settings.h</text>
</a>
</g>
</g>
<!-- Node2&#45;&gt;Node3 -->
<g id="edge2" class="edge">
<title>Node2&#45;&gt;Node3</title>
<path fill="none" stroke="#63b8ff" d="M187.41,-175.6C172.33,-167.04 149.34,-153.46 130.5,-140 107.09,-123.27 81.9,-101.78 65.49,-87.27"/>
<polygon fill="#63b8ff" stroke="#63b8ff" points="68.26,-85.05 58.47,-81 63.6,-90.27 68.26,-85.05"/>
</g>
<!-- Node4 -->
<g id="node4" class="node">
<title>Node4</title>
<g id="a_node4"><a xlink:href="hd44780___i2_cexp_8h.html" target="_top" xlink:title="Adaptación de la biblioteca TextLCD de MbedOS 5. Permite utilizar un LCD hd44780 con un expansor de p...">
<polygon fill="white" stroke="#666666" points="267.5,-140 139.5,-140 139.5,-121 267.5,-121 267.5,-140"/>
<text text-anchor="middle" x="203.5" y="-128" font-family="Helvetica,sans-Serif" font-size="10.00">drivers/hd44780_I2Cexp.h</text>
</a>
</g>
</g>
<!-- Node2&#45;&gt;Node4 -->
<g id="edge3" class="edge">
<title>Node2&#45;&gt;Node4</title>
<path fill="none" stroke="#63b8ff" d="M203.5,-175.75C203.5,-169.27 203.5,-160.16 203.5,-151.9"/>
<polygon fill="#63b8ff" stroke="#63b8ff" points="207,-151.96 203.5,-141.96 200,-151.96 207,-151.96"/>
</g>
<!-- Node4&#45;&gt;Node3 -->
<g id="edge13" class="edge">
<title>Node4&#45;&gt;Node3</title>
<path fill="none" stroke="#63b8ff" d="M179.81,-120.62C153.81,-110.87 111.83,-95.12 82.14,-83.99"/>
<polygon fill="#63b8ff" stroke="#63b8ff" points="83.43,-80.73 72.83,-80.5 80.97,-87.29 83.43,-80.73"/>
</g>
<!-- Node5 -->
<g id="node5" class="node">
<title>Node5</title>
<g id="a_node5"><a xlink:title=" ">
<polygon fill="#e0e0e0" stroke="#999999" points="228,-19 179,-19 179,0 228,0 228,-19"/>
<text text-anchor="middle" x="203.5" y="-7" font-family="Helvetica,sans-Serif" font-size="10.00">mbed.h</text>
</a>
</g>
</g>
<!-- Node4&#45;&gt;Node5 -->
<g id="edge4" class="edge">
<title>Node4&#45;&gt;Node5</title>
<path fill="none" stroke="#63b8ff" d="M182.7,-120.6C168.53,-113.3 150.88,-101.48 142.5,-85 136.46,-73.11 136.46,-66.89 142.5,-55 148.98,-42.26 161.01,-32.29 172.68,-25.06"/>
<polygon fill="#63b8ff" stroke="#63b8ff" points="174.4,-28.11 181.38,-20.14 170.95,-22.01 174.4,-28.11"/>
</g>
<!-- Node6 -->
<g id="node6" class="node">
<title>Node6</title>
<g id="a_node6"><a xlink:title=" ">
<polygon fill="#e0e0e0" stroke="#999999" points="300.5,-19 252.5,-19 252.5,0 300.5,0 300.5,-19"/>
<text text-anchor="middle" x="276.5" y="-7" font-family="Helvetica,sans-Serif" font-size="10.00">stdlib.h</text>
</a>
</g>
</g>
<!-- Node4&#45;&gt;Node6 -->
<g id="edge5" class="edge">
<title>Node4&#45;&gt;Node6</title>
<path fill="none" stroke="#63b8ff" d="M222.64,-120.64C236.56,-113.16 254.63,-101.09 264.5,-85 274.66,-68.43 277.07,-46.05 277.31,-30.15"/>
<polygon fill="#63b8ff" stroke="#63b8ff" points="280.81,-30.49 277.16,-20.55 273.82,-30.6 280.81,-30.49"/>
</g>
<!-- Node7 -->
<g id="node7" class="node">
<title>Node7</title>
<g id="a_node7"><a xlink:href="hd44780__instruction__set_8h.html" target="_top" xlink:title="Set de instrucciones del LCD HD44780.">
<polygon fill="white" stroke="#666666" points="255.5,-85 151.5,-85 151.5,-55 255.5,-55 255.5,-85"/>
<text text-anchor="start" x="159.5" y="-73" font-family="Helvetica,sans-Serif" font-size="10.00">hd44780_instruction</text>
<text text-anchor="middle" x="203.5" y="-62" font-family="Helvetica,sans-Serif" font-size="10.00">_set.h</text>
</a>
</g>
</g>
<!-- Node4&#45;&gt;Node7 -->
<g id="edge6" class="edge">
<title>Node4&#45;&gt;Node7</title>
<path fill="none" stroke="#63b8ff" d="M203.5,-120.87C203.5,-114.4 203.5,-105.2 203.5,-96.45"/>
<polygon fill="#63b8ff" stroke="#63b8ff" points="207,-96.63 203.5,-86.63 200,-96.63 207,-96.63"/>
</g>
<!-- Node8 -->
<g id="node8" class="node">
<title>Node8</title>
<g id="a_node8"><a xlink:href="utils_8h_source.html" target="_top" xlink:title=" ">
<polygon fill="white" stroke="#666666" points="393,-79.5 350,-79.5 350,-60.5 393,-60.5 393,-79.5"/>
<text text-anchor="middle" x="371.5" y="-67.5" font-family="Helvetica,sans-Serif" font-size="10.00">utils.h</text>
</a>
</g>
</g>
<!-- Node4&#45;&gt;Node8 -->
<g id="edge8" class="edge">
<title>Node4&#45;&gt;Node8</title>
<path fill="none" stroke="#63b8ff" d="M229.02,-120.62C258.41,-110.38 306.78,-93.54 338.88,-82.36"/>
<polygon fill="#63b8ff" stroke="#63b8ff" points="339.78,-85.75 348.07,-79.16 337.48,-79.14 339.78,-85.75"/>
</g>
<!-- Node7&#45;&gt;Node5 -->
<g id="edge7" class="edge">
<title>Node7&#45;&gt;Node5</title>
<path fill="none" stroke="#63b8ff" d="M203.5,-54.54C203.5,-47.34 203.5,-38.53 203.5,-30.68"/>
<polygon fill="#63b8ff" stroke="#63b8ff" points="207,-30.69 203.5,-20.69 200,-30.69 207,-30.69"/>
</g>
<!-- Node8&#45;&gt;Node6 -->
<g id="edge11" class="edge">
<title>Node8&#45;&gt;Node6</title>
<path fill="none" stroke="#63b8ff" d="M357.07,-60.12C342.15,-50.92 318.57,-36.41 300.77,-25.44"/>
<polygon fill="#63b8ff" stroke="#63b8ff" points="302.7,-22.53 292.35,-20.26 299.03,-28.49 302.7,-22.53"/>
</g>
<!-- Node9 -->
<g id="node9" class="node">
<title>Node9</title>
<g id="a_node9"><a xlink:title=" ">
<polygon fill="#e0e0e0" stroke="#999999" points="430,-19 383,-19 383,0 430,0 430,-19"/>
<text text-anchor="middle" x="406.5" y="-7" font-family="Helvetica,sans-Serif" font-size="10.00">math.h</text>
</a>
</g>
</g>
<!-- Node8&#45;&gt;Node9 -->
<g id="edge9" class="edge">
<title>Node8&#45;&gt;Node9</title>
<path fill="none" stroke="#63b8ff" d="M376.66,-60.37C381.63,-52.07 389.28,-39.28 395.6,-28.72"/>
<polygon fill="#63b8ff" stroke="#63b8ff" points="398.41,-30.84 400.54,-20.47 392.4,-27.25 398.41,-30.84"/>
</g>
<!-- Node10 -->
<g id="node10" class="node">
<title>Node10</title>
<g id="a_node10"><a xlink:title=" ">
<polygon fill="#e0e0e0" stroke="#999999" points="364.5,-19 318.5,-19 318.5,0 364.5,0 364.5,-19"/>
<text text-anchor="middle" x="341.5" y="-7" font-family="Helvetica,sans-Serif" font-size="10.00">stdio.h</text>
</a>
</g>
</g>
<!-- Node8&#45;&gt;Node10 -->
<g id="edge10" class="edge">
<title>Node8&#45;&gt;Node10</title>
<path fill="none" stroke="#63b8ff" d="M367.07,-60.37C362.91,-52.25 356.53,-39.81 351.18,-29.39"/>
<polygon fill="#63b8ff" stroke="#63b8ff" points="354.31,-27.82 346.64,-20.51 348.08,-31.01 354.31,-27.82"/>
</g>
<!-- Node11 -->
<g id="node11" class="node">
<title>Node11</title>
<g id="a_node11"><a xlink:title=" ">
<polygon fill="#e0e0e0" stroke="#999999" points="497,-19 448,-19 448,0 497,0 497,-19"/>
<text text-anchor="middle" x="472.5" y="-7" font-family="Helvetica,sans-Serif" font-size="10.00">string.h</text>
</a>
</g>
</g>
<!-- Node8&#45;&gt;Node11 -->
<g id="edge12" class="edge">
<title>Node8&#45;&gt;Node11</title>
<path fill="none" stroke="#63b8ff" d="M386.84,-60.12C402.86,-50.84 428.24,-36.13 447.23,-25.14"/>
<polygon fill="#63b8ff" stroke="#63b8ff" points="448.81,-28.27 455.71,-20.23 445.3,-22.21 448.81,-28.27"/>
</g>
<!-- Node13&#45;&gt;Node5 -->
<g id="edge16" class="edge">
<title>Node13&#45;&gt;Node5</title>
<path fill="none" stroke="#63b8ff" d="M345.01,-120.59C328.23,-106.41 294.22,-77.98 264.5,-55 251.54,-44.98 236.69,-34.13 224.89,-25.66"/>
<polygon fill="#63b8ff" stroke="#63b8ff" points="227.2,-23.01 217.03,-20.05 223.14,-28.71 227.2,-23.01"/>
</g>
<!-- Node13&#45;&gt;Node8 -->
<g id="edge18" class="edge">
<title>Node13&#45;&gt;Node8</title>
<path fill="none" stroke="#63b8ff" d="M357.86,-120.87C360.04,-112.92 363.34,-100.83 366.15,-90.55"/>
<polygon fill="#63b8ff" stroke="#63b8ff" points="369.47,-91.7 368.73,-81.13 362.72,-89.85 369.47,-91.7"/>
</g>
<!-- Node13&#45;&gt;Node11 -->
<g id="edge17" class="edge">
<title>Node13&#45;&gt;Node11</title>
<path fill="none" stroke="#63b8ff" d="M364.77,-120.74C374.14,-111.85 388.98,-97.62 401.5,-85 420.86,-65.5 442.59,-42.53 456.85,-27.31"/>
<polygon fill="#63b8ff" stroke="#63b8ff" points="459,-30.13 463.27,-20.43 453.89,-25.35 459,-30.13"/>
</g>
</g>
</svg>
