<?xml version="1.0" encoding="UTF-8" standalone="no"?>
<!DOCTYPE svg PUBLIC "-//W3C//DTD SVG 1.1//EN"
 "http://www.w3.org/Graphics/SVG/1.1/DTD/svg11.dtd">
<!-- Generated by graphviz version 7.0.2 (20221119.0110)
 -->
<!-- Title: C:/Users/juanh/OneDrive/Escritorio/Sistemas Embebidos/Proyecto final/LAL Control MbedOS/include/machine_state_pattern/machine_states/Idle_state.h Pages: 1 -->
<svg width="1512pt" height="555pt"
 viewBox="0.00 0.00 1511.50 555.00" xmlns="http://www.w3.org/2000/svg" xmlns:xlink="http://www.w3.org/1999/xlink">
<g id="graph0" class="graph" transform="scale(1 1) rotate(0) translate(4 551)">
<title>C:/Users/juanh/OneDrive/Escritorio/Sistemas Embebidos/Proyecto final/LAL Control MbedOS/include/machine_state_pattern/machine_states/Idle_state.h</title>
<!-- Node1 -->
<g id="node1" class="node">
<title>Node1</title>
<g id="a_node1"><a xlink:title="Clase de estado de reposo.">
<polygon fill="#999999" stroke="#666666" points="1423,-547 1246,-547 1246,-484 1423,-484 1423,-547"/>
<text text-anchor="start" x="1254" y="-535" font-family="Helvetica,sans-Serif" font-size="10.00">C:/Users/juanh/OneDrive</text>
<text text-anchor="start" x="1254" y="-524" font-family="Helvetica,sans-Serif" font-size="10.00">/Escritorio/Sistemas Embebidos</text>
<text text-anchor="start" x="1254" y="-513" font-family="Helvetica,sans-Serif" font-size="10.00">/Proyecto final/LAL Control</text>
<text text-anchor="start" x="1254" y="-502" font-family="Helvetica,sans-Serif" font-size="10.00"> MbedOS/include/machine_state</text>
<text text-anchor="middle" x="1334.5" y="-491" font-family="Helvetica,sans-Serif" font-size="10.00">_pattern/machine_states/Idle_state.h</text>
</a>
</g>
</g>
<!-- Node2 -->
<g id="node2" class="node">
<title>Node2</title>
<g id="a_node2"><a xlink:href="_control__system_8h_source.html" target="_top" xlink:title=" ">
<polygon fill="white" stroke="#666666" points="801,-294 708,-294 708,-275 801,-275 801,-294"/>
<text text-anchor="middle" x="754.5" y="-282" font-family="Helvetica,sans-Serif" font-size="10.00">Control_system.h</text>
</a>
</g>
</g>
<!-- Node1&#45;&gt;Node2 -->
<g id="edge1" class="edge">
<title>Node1&#45;&gt;Node2</title>
<path fill="none" stroke="#63b8ff" d="M1256.28,-483.62C1127.88,-432.92 877.71,-334.14 787.73,-298.62"/>
<polygon fill="#63b8ff" stroke="#63b8ff" points="789.08,-295.39 778.5,-294.97 786.51,-301.9 789.08,-295.39"/>
</g>
<!-- Node7 -->
<g id="node7" class="node">
<title>Node7</title>
<g id="a_node7"><a xlink:href="_abstract__state_8h.html" target="_top" xlink:title="Clase de estado abstracta.">
<polygon fill="white" stroke="#666666" points="1491.5,-162 1363.5,-162 1363.5,-121 1491.5,-121 1491.5,-162"/>
<text text-anchor="start" x="1371.5" y="-150" font-family="Helvetica,sans-Serif" font-size="10.00">machine_state_pattern</text>
<text text-anchor="start" x="1371.5" y="-139" font-family="Helvetica,sans-Serif" font-size="10.00">/machine_states/Abstract</text>
<text text-anchor="middle" x="1427.5" y="-128" font-family="Helvetica,sans-Serif" font-size="10.00">_state.h</text>
</a>
</g>
</g>
<!-- Node1&#45;&gt;Node7 -->
<g id="edge51" class="edge">
<title>Node1&#45;&gt;Node7</title>
<path fill="none" stroke="#63b8ff" d="M1400.32,-483.6C1447.78,-456.27 1503.5,-411.42 1503.5,-351.5 1503.5,-351.5 1503.5,-351.5 1503.5,-283.5 1503.5,-240.28 1475.48,-197.56 1453.47,-170.67"/>
<polygon fill="#63b8ff" stroke="#63b8ff" points="1456.4,-168.71 1447.26,-163.34 1451.05,-173.23 1456.4,-168.71"/>
</g>
<!-- Node33 -->
<g id="node33" class="node">
<title>Node33</title>
<g id="a_node33"><a xlink:href="_motor__control__state_8h.html" target="_top" xlink:title="Clase de estado de control del motor.">
<polygon fill="white" stroke="#666666" points="1435.5,-448 1319.5,-448 1319.5,-407 1435.5,-407 1435.5,-448"/>
<text text-anchor="start" x="1327.5" y="-436" font-family="Helvetica,sans-Serif" font-size="10.00">machine_state_pattern</text>
<text text-anchor="start" x="1327.5" y="-425" font-family="Helvetica,sans-Serif" font-size="10.00">/machine_states/Motor</text>
<text text-anchor="middle" x="1377.5" y="-414" font-family="Helvetica,sans-Serif" font-size="10.00">_control_state.h</text>
</a>
</g>
</g>
<!-- Node1&#45;&gt;Node33 -->
<g id="edge52" class="edge">
<title>Node1&#45;&gt;Node33</title>
<path fill="none" stroke="#63b8ff" d="M1343.29,-483.94C1347.08,-475.65 1351.57,-466.7 1356.06,-458.45"/>
<polygon fill="#63b8ff" stroke="#63b8ff" points="1359.08,-460.23 1360.96,-449.8 1352.98,-456.78 1359.08,-460.23"/>
</g>
<!-- Node34 -->
<g id="node34" class="node">
<title>Node34</title>
<g id="a_node34"><a xlink:href="_check__instruction__state_8h_source.html" target="_top" xlink:title=" ">
<polygon fill="white" stroke="#666666" points="1437,-371 1318,-371 1318,-330 1437,-330 1437,-371"/>
<text text-anchor="start" x="1326" y="-359" font-family="Helvetica,sans-Serif" font-size="10.00">machine_state_pattern</text>
<text text-anchor="start" x="1326" y="-348" font-family="Helvetica,sans-Serif" font-size="10.00">/machine_states/Check</text>
<text text-anchor="middle" x="1377.5" y="-337" font-family="Helvetica,sans-Serif" font-size="10.00">_instruction_state.h</text>
</a>
</g>
</g>
<!-- Node1&#45;&gt;Node34 -->
<g id="edge60" class="edge">
<title>Node1&#45;&gt;Node34</title>
<path fill="none" stroke="#63b8ff" d="M1317.38,-483.68C1307.47,-461.53 1299.03,-431.4 1310.5,-407 1315.66,-396.02 1324.18,-386.47 1333.44,-378.52"/>
<polygon fill="#63b8ff" stroke="#63b8ff" points="1335.59,-381.29 1341.28,-372.35 1331.26,-375.79 1335.59,-381.29"/>
</g>
<!-- Node3 -->
<g id="node3" class="node">
<title>Node3</title>
<g id="a_node3"><a xlink:href="_subject_8h.html" target="_top" xlink:title=" ">
<polygon fill="white" stroke="#666666" points="659.5,-156.5 531.5,-156.5 531.5,-126.5 659.5,-126.5 659.5,-156.5"/>
<text text-anchor="start" x="539.5" y="-144.5" font-family="Helvetica,sans-Serif" font-size="10.00">observer_pattern/subjects</text>
<text text-anchor="middle" x="595.5" y="-133.5" font-family="Helvetica,sans-Serif" font-size="10.00">/Subject.h</text>
</a>
</g>
</g>
<!-- Node2&#45;&gt;Node3 -->
<g id="edge2" class="edge">
<title>Node2&#45;&gt;Node3</title>
<path fill="none" stroke="#63b8ff" d="M731.21,-274.58C713.14,-266.93 688.11,-254.66 669.5,-239 644.65,-218.09 622.94,-187.47 609.58,-166.35"/>
<polygon fill="#63b8ff" stroke="#63b8ff" points="612.73,-164.8 604.5,-158.12 606.77,-168.47 612.73,-164.8"/>
</g>
<!-- Node6 -->
<g id="node6" class="node">
<title>Node6</title>
<g id="a_node6"><a xlink:href="_machine_8h.html" target="_top" xlink:title="Clase de máquina abstracta.">
<polygon fill="white" stroke="#666666" points="1247.5,-233.5 1131.5,-233.5 1131.5,-203.5 1247.5,-203.5 1247.5,-233.5"/>
<text text-anchor="start" x="1139.5" y="-221.5" font-family="Helvetica,sans-Serif" font-size="10.00">machine_state_pattern</text>
<text text-anchor="middle" x="1189.5" y="-210.5" font-family="Helvetica,sans-Serif" font-size="10.00">/Machine.h</text>
</a>
</g>
</g>
<!-- Node2&#45;&gt;Node6 -->
<g id="edge5" class="edge">
<title>Node2&#45;&gt;Node6</title>
<path fill="none" stroke="#63b8ff" d="M801.37,-280.29C871.67,-274.92 1008.38,-262.34 1122.5,-239 1125.83,-238.32 1129.24,-237.55 1132.67,-236.73"/>
<polygon fill="#63b8ff" stroke="#63b8ff" points="1133.33,-240.17 1142.15,-234.3 1131.59,-233.39 1133.33,-240.17"/>
</g>
<!-- Node8 -->
<g id="node8" class="node">
<title>Node8</title>
<g id="a_node8"><a xlink:href="_display_8h.html" target="_top" xlink:title="Controlador de LCD hd44780 por interfaz I2C.">
<polygon fill="white" stroke="#666666" points="1001.5,-228 913.5,-228 913.5,-209 1001.5,-209 1001.5,-228"/>
<text text-anchor="middle" x="957.5" y="-216" font-family="Helvetica,sans-Serif" font-size="10.00">drivers/Display.h</text>
</a>
</g>
</g>
<!-- Node2&#45;&gt;Node8 -->
<g id="edge7" class="edge">
<title>Node2&#45;&gt;Node8</title>
<path fill="none" stroke="#63b8ff" d="M786.87,-274.54C817.38,-265.95 864.28,-252.35 904.5,-239 910.76,-236.92 917.39,-234.59 923.76,-232.28"/>
<polygon fill="#63b8ff" stroke="#63b8ff" points="924.54,-235.73 932.71,-228.99 922.12,-229.16 924.54,-235.73"/>
</g>
<!-- Node18 -->
<g id="node18" class="node">
<title>Node18</title>
<g id="a_node18"><a xlink:href="user__messages_8h.html" target="_top" xlink:title="Archivo para la configuración de interfaz con el usuario.">
<polygon fill="white" stroke="#666666" points="1113.5,-228 1019.5,-228 1019.5,-209 1113.5,-209 1113.5,-228"/>
<text text-anchor="middle" x="1066.5" y="-216" font-family="Helvetica,sans-Serif" font-size="10.00">user_messages.h</text>
</a>
</g>
</g>
<!-- Node2&#45;&gt;Node18 -->
<g id="edge19" class="edge">
<title>Node2&#45;&gt;Node18</title>
<path fill="none" stroke="#63b8ff" d="M801.23,-277.71C852.93,-270.76 938.45,-257.67 1010.5,-239 1017.85,-237.1 1025.6,-234.67 1032.93,-232.19"/>
<polygon fill="#63b8ff" stroke="#63b8ff" points="1033.91,-235.55 1042.17,-228.93 1031.58,-228.95 1033.91,-235.55"/>
</g>
<!-- Node19 -->
<g id="node19" class="node">
<title>Node19</title>
<g id="a_node19"><a xlink:href="_system__observer_8h.html" target="_top" xlink:title="Clase observador del sistema de control.">
<polygon fill="white" stroke="#666666" points="617.5,-233.5 485.5,-233.5 485.5,-203.5 617.5,-203.5 617.5,-233.5"/>
<text text-anchor="start" x="493.5" y="-221.5" font-family="Helvetica,sans-Serif" font-size="10.00">observer_pattern/observers</text>
<text text-anchor="middle" x="551.5" y="-210.5" font-family="Helvetica,sans-Serif" font-size="10.00">/System_observer.h</text>
</a>
</g>
</g>
<!-- Node2&#45;&gt;Node19 -->
<g id="edge20" class="edge">
<title>Node2&#45;&gt;Node19</title>
<path fill="none" stroke="#63b8ff" d="M721.43,-274.6C689.1,-265.04 639.62,-249.57 602.33,-237.46"/>
<polygon fill="#63b8ff" stroke="#63b8ff" points="603.7,-234.22 593.1,-234.45 601.52,-240.88 603.7,-234.22"/>
</g>
<!-- Node21 -->
<g id="node21" class="node">
<title>Node21</title>
<g id="a_node21"><a xlink:href="_temperature__sensor_8h.html" target="_top" xlink:title="Controlador para sensor de temperatura DS18B20.">
<polygon fill="white" stroke="#666666" points="101,-233.5 0,-233.5 0,-203.5 101,-203.5 101,-233.5"/>
<text text-anchor="start" x="8" y="-221.5" font-family="Helvetica,sans-Serif" font-size="10.00">drivers/Temperature</text>
<text text-anchor="middle" x="50.5" y="-210.5" font-family="Helvetica,sans-Serif" font-size="10.00">_sensor.h</text>
</a>
</g>
</g>
<!-- Node2&#45;&gt;Node21 -->
<g id="edge25" class="edge">
<title>Node2&#45;&gt;Node21</title>
<path fill="none" stroke="#63b8ff" d="M707.84,-284.25C600.9,-285.11 330.33,-282.4 109.5,-239 106.57,-238.43 103.59,-237.75 100.6,-236.99"/>
<polygon fill="#63b8ff" stroke="#63b8ff" points="101.84,-233.71 91.27,-234.4 99.96,-240.45 101.84,-233.71"/>
</g>
<!-- Node24 -->
<g id="node24" class="node">
<title>Node24</title>
<g id="a_node24"><a xlink:href="_moisture__sensor_8h.html" target="_top" xlink:title="Controlador de sensor de humedad analógico.">
<polygon fill="white" stroke="#666666" points="805.5,-79.5 677.5,-79.5 677.5,-60.5 805.5,-60.5 805.5,-79.5"/>
<text text-anchor="middle" x="741.5" y="-67.5" font-family="Helvetica,sans-Serif" font-size="10.00">drivers/Moisture_sensor.h</text>
</a>
</g>
</g>
<!-- Node2&#45;&gt;Node24 -->
<g id="edge28" class="edge">
<title>Node2&#45;&gt;Node24</title>
<path fill="none" stroke="#63b8ff" d="M737.97,-274.64C725.65,-267.02 709.76,-254.76 702.5,-239 678.98,-187.91 710.98,-121.34 729.68,-89.52"/>
<polygon fill="#63b8ff" stroke="#63b8ff" points="732.61,-91.44 734.84,-81.08 726.63,-87.79 732.61,-91.44"/>
</g>
<!-- Node25 -->
<g id="node25" class="node">
<title>Node25</title>
<g id="a_node25"><a xlink:href="types_8h.html" target="_top" xlink:title="Archivo de definición de tipos de dato.">
<polygon fill="white" stroke="#666666" points="325,-151 276,-151 276,-132 325,-132 325,-151"/>
<text text-anchor="middle" x="300.5" y="-139" font-family="Helvetica,sans-Serif" font-size="10.00">types.h</text>
</a>
</g>
</g>
<!-- Node2&#45;&gt;Node25 -->
<g id="edge30" class="edge">
<title>Node2&#45;&gt;Node25</title>
<path fill="none" stroke="#63b8ff" d="M707.71,-283.23C616.15,-281.9 417.24,-274.85 360.5,-239 332.23,-221.14 315.09,-184.61 306.73,-161.98"/>
<polygon fill="#63b8ff" stroke="#63b8ff" points="310.12,-161.06 303.56,-152.74 303.5,-163.33 310.12,-161.06"/>
</g>
<!-- Node26 -->
<g id="node26" class="node">
<title>Node26</title>
<g id="a_node26"><a xlink:href="_buzzer_8h.html" target="_top" xlink:title="Controlador de Buzzer de 12 milimetros sin oscilador.">
<polygon fill="white" stroke="#666666" points="797.5,-228 711.5,-228 711.5,-209 797.5,-209 797.5,-228"/>
<text text-anchor="middle" x="754.5" y="-216" font-family="Helvetica,sans-Serif" font-size="10.00">drivers/Buzzer.h</text>
</a>
</g>
</g>
<!-- Node2&#45;&gt;Node26 -->
<g id="edge31" class="edge">
<title>Node2&#45;&gt;Node26</title>
<path fill="none" stroke="#63b8ff" d="M754.5,-274.6C754.5,-265.62 754.5,-251.45 754.5,-239.72"/>
<polygon fill="#63b8ff" stroke="#63b8ff" points="758,-239.84 754.5,-229.84 751,-239.84 758,-239.84"/>
</g>
<!-- Node28 -->
<g id="node28" class="node">
<title>Node28</title>
<g id="a_node28"><a xlink:href="_motor_8h.html" target="_top" xlink:title="Controlador de motor de 220 VAC.">
<polygon fill="white" stroke="#666666" points="895.5,-228 815.5,-228 815.5,-209 895.5,-209 895.5,-228"/>
<text text-anchor="middle" x="855.5" y="-216" font-family="Helvetica,sans-Serif" font-size="10.00">drivers/Motor.h</text>
</a>
</g>
</g>
<!-- Node2&#45;&gt;Node28 -->
<g id="edge34" class="edge">
<title>Node2&#45;&gt;Node28</title>
<path fill="none" stroke="#63b8ff" d="M768.54,-274.6C784.98,-264.19 812.43,-246.79 832.1,-234.33"/>
<polygon fill="#63b8ff" stroke="#63b8ff" points="833.72,-237.44 840.3,-229.13 829.98,-231.53 833.72,-237.44"/>
</g>
<!-- Node29 -->
<g id="node29" class="node">
<title>Node29</title>
<g id="a_node29"><a xlink:href="_dual___l_e_d_8h.html" target="_top" xlink:title="Controlador de LED RG.">
<polygon fill="white" stroke="#666666" points="313,-228 220,-228 220,-209 313,-209 313,-228"/>
<text text-anchor="middle" x="266.5" y="-216" font-family="Helvetica,sans-Serif" font-size="10.00">drivers/Dual_led.h</text>
</a>
</g>
</g>
<!-- Node2&#45;&gt;Node29 -->
<g id="edge37" class="edge">
<title>Node2&#45;&gt;Node29</title>
<path fill="none" stroke="#63b8ff" d="M707.57,-281.76C628.43,-278.13 463.73,-267.56 327.5,-239 318.87,-237.19 309.74,-234.63 301.24,-231.96"/>
<polygon fill="#63b8ff" stroke="#63b8ff" points="302.56,-228.71 291.97,-228.92 300.38,-235.36 302.56,-228.71"/>
</g>
<!-- Node30 -->
<g id="node30" class="node">
<title>Node30</title>
<g id="a_node30"><a xlink:href="_digital__dual___l_e_d_8h_source.html" target="_top" xlink:title=" ">
<polygon fill="white" stroke="#666666" points="467.5,-233.5 369.5,-233.5 369.5,-203.5 467.5,-203.5 467.5,-233.5"/>
<text text-anchor="start" x="377.5" y="-221.5" font-family="Helvetica,sans-Serif" font-size="10.00">drivers/Digital_dual</text>
<text text-anchor="middle" x="418.5" y="-210.5" font-family="Helvetica,sans-Serif" font-size="10.00">_led.h</text>
</a>
</g>
</g>
<!-- Node2&#45;&gt;Node30 -->
<g id="edge41" class="edge">
<title>Node2&#45;&gt;Node30</title>
<path fill="none" stroke="#63b8ff" d="M707.79,-278.42C652.17,-271.82 556.71,-258.76 476.5,-239 474.2,-238.43 471.87,-237.82 469.52,-237.17"/>
<polygon fill="#63b8ff" stroke="#63b8ff" points="470.53,-233.82 459.95,-234.33 468.54,-240.53 470.53,-233.82"/>
</g>
<!-- Node31 -->
<g id="node31" class="node">
<title>Node31</title>
<g id="a_node31"><a xlink:href="_cooler_8h.html" target="_top" xlink:title="Controlador de ventilador de 12 volts y 5 milímteros.">
<polygon fill="white" stroke="#666666" points="202,-228 119,-228 119,-209 202,-209 202,-228"/>
<text text-anchor="middle" x="160.5" y="-216" font-family="Helvetica,sans-Serif" font-size="10.00">drivers/Cooler.h</text>
</a>
</g>
</g>
<!-- Node2&#45;&gt;Node31 -->
<g id="edge44" class="edge">
<title>Node2&#45;&gt;Node31</title>
<path fill="none" stroke="#63b8ff" d="M707.59,-284.2C612.51,-284.63 390.78,-280.59 210.5,-239 203.75,-237.44 196.71,-235.15 190.11,-232.67"/>
<polygon fill="#63b8ff" stroke="#63b8ff" points="191.55,-229.48 180.96,-229 188.94,-235.97 191.55,-229.48"/>
</g>
<!-- Node32 -->
<g id="node32" class="node">
<title>Node32</title>
<g id="a_node32"><a xlink:href="_shutdown__state_8h.html" target="_top" xlink:title="Clase de estado de apagado del sistema.">
<polygon fill="white" stroke="#666666" points="1399.5,-239 1265.5,-239 1265.5,-198 1399.5,-198 1399.5,-239"/>
<text text-anchor="start" x="1273.5" y="-227" font-family="Helvetica,sans-Serif" font-size="10.00">machine_state_pattern</text>
<text text-anchor="start" x="1273.5" y="-216" font-family="Helvetica,sans-Serif" font-size="10.00">/machine_states/Shutdown</text>
<text text-anchor="middle" x="1332.5" y="-205" font-family="Helvetica,sans-Serif" font-size="10.00">_state.h</text>
</a>
</g>
</g>
<!-- Node2&#45;&gt;Node32 -->
<g id="edge47" class="edge">
<title>Node2&#45;&gt;Node32</title>
<path fill="none" stroke="#63b8ff" d="M801.49,-281.66C889.6,-277.82 1084.94,-266.87 1247.5,-239 1249.66,-238.63 1251.86,-238.23 1254.07,-237.8"/>
<polygon fill="#63b8ff" stroke="#63b8ff" points="1254.68,-241.25 1263.76,-235.79 1253.26,-234.39 1254.68,-241.25"/>
</g>
<!-- Node4 -->
<g id="node4" class="node">
<title>Node4</title>
<g id="a_node4"><a xlink:href="_subject__interface_8h.html" target="_top" xlink:title="Clase para interfaz para implementar el sujeto.">
<polygon fill="white" stroke="#666666" points="659.5,-85 531.5,-85 531.5,-55 659.5,-55 659.5,-85"/>
<text text-anchor="start" x="539.5" y="-73" font-family="Helvetica,sans-Serif" font-size="10.00">observer_pattern/subjects</text>
<text text-anchor="middle" x="595.5" y="-62" font-family="Helvetica,sans-Serif" font-size="10.00">/Subject_interface.h</text>
</a>
</g>
</g>
<!-- Node3&#45;&gt;Node4 -->
<g id="edge3" class="edge">
<title>Node3&#45;&gt;Node4</title>
<path fill="none" stroke="#63b8ff" d="M595.5,-126.1C595.5,-117.62 595.5,-106.64 595.5,-96.72"/>
<polygon fill="#63b8ff" stroke="#63b8ff" points="599,-96.9 595.5,-86.9 592,-96.9 599,-96.9"/>
</g>
<!-- Node5 -->
<g id="node5" class="node">
<title>Node5</title>
<g id="a_node5"><a xlink:href="_observer__interface_8h.html" target="_top" xlink:title="Clase para interfaz para implementar el observador.">
<polygon fill="white" stroke="#666666" points="513.5,-85 381.5,-85 381.5,-55 513.5,-55 513.5,-85"/>
<text text-anchor="start" x="389.5" y="-73" font-family="Helvetica,sans-Serif" font-size="10.00">observer_pattern/observers</text>
<text text-anchor="middle" x="447.5" y="-62" font-family="Helvetica,sans-Serif" font-size="10.00">/Observer_interface.h</text>
</a>
</g>
</g>
<!-- Node3&#45;&gt;Node5 -->
<g id="edge4" class="edge">
<title>Node3&#45;&gt;Node5</title>
<path fill="none" stroke="#63b8ff" d="M564.83,-126.1C542.71,-115.71 512.6,-101.57 488.42,-90.22"/>
<polygon fill="#63b8ff" stroke="#63b8ff" points="490.04,-87.11 479.5,-86.03 487.06,-93.44 490.04,-87.11"/>
</g>
<!-- Node6&#45;&gt;Node7 -->
<g id="edge6" class="edge">
<title>Node6&#45;&gt;Node7</title>
<path fill="none" stroke="#63b8ff" d="M1235.39,-203.04C1268.85,-192.5 1314.9,-177.98 1353.53,-165.81"/>
<polygon fill="#63b8ff" stroke="#63b8ff" points="1354.28,-169.24 1362.77,-162.9 1352.18,-162.57 1354.28,-169.24"/>
</g>
<!-- Node9 -->
<g id="node9" class="node">
<title>Node9</title>
<g id="a_node9"><a xlink:href="display__settings_8h.html" target="_top" xlink:title="Archivo de configuración de la pantalla.">
<polygon fill="white" stroke="#666666" points="1156,-151 1061,-151 1061,-132 1156,-132 1156,-151"/>
<text text-anchor="middle" x="1108.5" y="-139" font-family="Helvetica,sans-Serif" font-size="10.00">display_settings.h</text>
</a>
</g>
</g>
<!-- Node8&#45;&gt;Node9 -->
<g id="edge8" class="edge">
<title>Node8&#45;&gt;Node9</title>
<path fill="none" stroke="#63b8ff" d="M975.41,-208.6C1001.41,-195.69 1049.83,-171.64 1080.55,-156.38"/>
<polygon fill="#63b8ff" stroke="#63b8ff" points="1081.85,-159.64 1089.25,-152.06 1078.74,-153.37 1081.85,-159.64"/>
</g>
<!-- Node10 -->
<g id="node10" class="node">
<title>Node10</title>
<g id="a_node10"><a xlink:href="hd44780___i2_cexp_8h_source.html" target="_top" xlink:title=" ">
<polygon fill="white" stroke="#666666" points="1042.5,-151 914.5,-151 914.5,-132 1042.5,-132 1042.5,-151"/>
<text text-anchor="middle" x="978.5" y="-139" font-family="Helvetica,sans-Serif" font-size="10.00">drivers/hd44780_I2Cexp.h</text>
</a>
</g>
</g>
<!-- Node8&#45;&gt;Node10 -->
<g id="edge9" class="edge">
<title>Node8&#45;&gt;Node10</title>
<path fill="none" stroke="#63b8ff" d="M959.99,-208.6C963.18,-197.21 968.8,-177.16 973.01,-162.11"/>
<polygon fill="#63b8ff" stroke="#63b8ff" points="976.28,-163.42 975.6,-152.84 969.54,-161.53 976.28,-163.42"/>
</g>
<!-- Node11 -->
<g id="node11" class="node">
<title>Node11</title>
<g id="a_node11"><a xlink:title=" ">
<polygon fill="#e0e0e0" stroke="#999999" points="812,-19 763,-19 763,0 812,0 812,-19"/>
<text text-anchor="middle" x="787.5" y="-7" font-family="Helvetica,sans-Serif" font-size="10.00">mbed.h</text>
</a>
</g>
</g>
<!-- Node10&#45;&gt;Node11 -->
<g id="edge10" class="edge">
<title>Node10&#45;&gt;Node11</title>
<path fill="none" stroke="#63b8ff" d="M970.79,-131.76C955.73,-115.1 920.79,-78.37 885.5,-55 866,-42.09 842.15,-31.17 822.86,-23.38"/>
<polygon fill="#63b8ff" stroke="#63b8ff" points="824.38,-20.21 813.79,-19.82 821.82,-26.73 824.38,-20.21"/>
</g>
<!-- Node12 -->
<g id="node12" class="node">
<title>Node12</title>
<g id="a_node12"><a xlink:title=" ">
<polygon fill="#e0e0e0" stroke="#999999" points="1084.5,-19 1036.5,-19 1036.5,0 1084.5,0 1084.5,-19"/>
<text text-anchor="middle" x="1060.5" y="-7" font-family="Helvetica,sans-Serif" font-size="10.00">stdlib.h</text>
</a>
</g>
</g>
<!-- Node10&#45;&gt;Node12 -->
<g id="edge11" class="edge">
<title>Node10&#45;&gt;Node12</title>
<path fill="none" stroke="#63b8ff" d="M996.91,-131.65C1013.83,-122.47 1038.11,-106.46 1050.5,-85 1060.08,-68.41 1061.96,-46.36 1061.82,-30.56"/>
<polygon fill="#63b8ff" stroke="#63b8ff" points="1065.34,-30.82 1061.45,-20.96 1058.34,-31.09 1065.34,-30.82"/>
</g>
<!-- Node13 -->
<g id="node13" class="node">
<title>Node13</title>
<g id="a_node13"><a xlink:href="hd44780__instruction__set_8h_source.html" target="_top" xlink:title=" ">
<polygon fill="white" stroke="#666666" points="1041.5,-85 937.5,-85 937.5,-55 1041.5,-55 1041.5,-85"/>
<text text-anchor="start" x="945.5" y="-73" font-family="Helvetica,sans-Serif" font-size="10.00">hd44780_instruction</text>
<text text-anchor="middle" x="989.5" y="-62" font-family="Helvetica,sans-Serif" font-size="10.00">_set.h</text>
</a>
</g>
</g>
<!-- Node10&#45;&gt;Node13 -->
<g id="edge12" class="edge">
<title>Node10&#45;&gt;Node13</title>
<path fill="none" stroke="#63b8ff" d="M979.89,-131.7C981.3,-122.84 983.52,-108.76 985.48,-96.38"/>
<polygon fill="#63b8ff" stroke="#63b8ff" points="988.9,-97.19 987,-86.77 981.98,-96.1 988.9,-97.19"/>
</g>
<!-- Node14 -->
<g id="node14" class="node">
<title>Node14</title>
<g id="a_node14"><a xlink:href="utils_8h_source.html" target="_top" xlink:title=" ">
<polygon fill="white" stroke="#666666" points="1149,-79.5 1106,-79.5 1106,-60.5 1149,-60.5 1149,-79.5"/>
<text text-anchor="middle" x="1127.5" y="-67.5" font-family="Helvetica,sans-Serif" font-size="10.00">utils.h</text>
</a>
</g>
</g>
<!-- Node10&#45;&gt;Node14 -->
<g id="edge14" class="edge">
<title>Node10&#45;&gt;Node14</title>
<path fill="none" stroke="#63b8ff" d="M997.67,-131.56C1023.15,-119.67 1068.42,-98.56 1098.19,-84.67"/>
<polygon fill="#63b8ff" stroke="#63b8ff" points="1099.44,-87.95 1107.03,-80.55 1096.49,-81.6 1099.44,-87.95"/>
</g>
<!-- Node13&#45;&gt;Node11 -->
<g id="edge13" class="edge">
<title>Node13&#45;&gt;Node11</title>
<path fill="none" stroke="#63b8ff" d="M939.57,-54.54C903.41,-44.07 855.4,-30.16 823.07,-20.8"/>
<polygon fill="#63b8ff" stroke="#63b8ff" points="824.37,-17.54 813.8,-18.12 822.43,-24.26 824.37,-17.54"/>
</g>
<!-- Node14&#45;&gt;Node12 -->
<g id="edge17" class="edge">
<title>Node14&#45;&gt;Node12</title>
<path fill="none" stroke="#63b8ff" d="M1117.32,-60.12C1107.29,-51.35 1091.71,-37.75 1079.4,-27"/>
<polygon fill="#63b8ff" stroke="#63b8ff" points="1081.75,-24.4 1071.91,-20.46 1077.14,-29.68 1081.75,-24.4"/>
</g>
<!-- Node15 -->
<g id="node15" class="node">
<title>Node15</title>
<g id="a_node15"><a xlink:title=" ">
<polygon fill="#e0e0e0" stroke="#999999" points="1217,-19 1170,-19 1170,0 1217,0 1217,-19"/>
<text text-anchor="middle" x="1193.5" y="-7" font-family="Helvetica,sans-Serif" font-size="10.00">math.h</text>
</a>
</g>
</g>
<!-- Node14&#45;&gt;Node15 -->
<g id="edge15" class="edge">
<title>Node14&#45;&gt;Node15</title>
<path fill="none" stroke="#63b8ff" d="M1137.52,-60.12C1147.41,-51.35 1162.76,-37.75 1174.88,-27"/>
<polygon fill="#63b8ff" stroke="#63b8ff" points="1177.09,-29.72 1182.25,-20.47 1172.44,-24.49 1177.09,-29.72"/>
</g>
<!-- Node16 -->
<g id="node16" class="node">
<title>Node16</title>
<g id="a_node16"><a xlink:title=" ">
<polygon fill="#e0e0e0" stroke="#999999" points="1281.5,-19 1235.5,-19 1235.5,0 1281.5,0 1281.5,-19"/>
<text text-anchor="middle" x="1258.5" y="-7" font-family="Helvetica,sans-Serif" font-size="10.00">stdio.h</text>
</a>
</g>
</g>
<!-- Node14&#45;&gt;Node16 -->
<g id="edge16" class="edge">
<title>Node14&#45;&gt;Node16</title>
<path fill="none" stroke="#63b8ff" d="M1147.4,-60.12C1168.84,-50.54 1203.24,-35.18 1228.09,-24.08"/>
<polygon fill="#63b8ff" stroke="#63b8ff" points="1229.33,-27.36 1237.03,-20.09 1226.48,-20.97 1229.33,-27.36"/>
</g>
<!-- Node17 -->
<g id="node17" class="node">
<title>Node17</title>
<g id="a_node17"><a xlink:title=" ">
<polygon fill="#e0e0e0" stroke="#999999" points="1152,-19 1103,-19 1103,0 1152,0 1152,-19"/>
<text text-anchor="middle" x="1127.5" y="-7" font-family="Helvetica,sans-Serif" font-size="10.00">string.h</text>
</a>
</g>
</g>
<!-- Node14&#45;&gt;Node17 -->
<g id="edge18" class="edge">
<title>Node14&#45;&gt;Node17</title>
<path fill="none" stroke="#63b8ff" d="M1127.5,-60.37C1127.5,-52.5 1127.5,-40.6 1127.5,-30.39"/>
<polygon fill="#63b8ff" stroke="#63b8ff" points="1131,-30.68 1127.5,-20.68 1124,-30.68 1131,-30.68"/>
</g>
<!-- Node19&#45;&gt;Node2 -->
<g id="edge24" class="edge">
<title>Node19&#45;&gt;Node2</title>
<path fill="none" stroke="#63b8ff" d="M603.18,-233.98C640.01,-245.15 688.4,-260.43 720.49,-271.05"/>
<polygon fill="#63b8ff" stroke="#63b8ff" points="719.09,-274.27 729.68,-274.12 721.31,-267.63 719.09,-274.27"/>
</g>
<!-- Node20 -->
<g id="node20" class="node">
<title>Node20</title>
<g id="a_node20"><a xlink:href="_observer_8h.html" target="_top" xlink:title="Clase observador.">
<polygon fill="white" stroke="#666666" points="513.5,-156.5 381.5,-156.5 381.5,-126.5 513.5,-126.5 513.5,-156.5"/>
<text text-anchor="start" x="389.5" y="-144.5" font-family="Helvetica,sans-Serif" font-size="10.00">observer_pattern/observers</text>
<text text-anchor="middle" x="447.5" y="-133.5" font-family="Helvetica,sans-Serif" font-size="10.00">/Observer.h</text>
</a>
</g>
</g>
<!-- Node19&#45;&gt;Node20 -->
<g id="edge21" class="edge">
<title>Node19&#45;&gt;Node20</title>
<path fill="none" stroke="#63b8ff" d="M531.45,-203.04C515.91,-191.83 494.16,-176.15 476.69,-163.55"/>
<polygon fill="#63b8ff" stroke="#63b8ff" points="478.88,-160.81 468.72,-157.8 474.78,-166.49 478.88,-160.81"/>
</g>
<!-- Node20&#45;&gt;Node4 -->
<g id="edge22" class="edge">
<title>Node20&#45;&gt;Node4</title>
<path fill="none" stroke="#63b8ff" d="M478.17,-126.1C500.29,-115.71 530.4,-101.57 554.58,-90.22"/>
<polygon fill="#63b8ff" stroke="#63b8ff" points="555.94,-93.44 563.5,-86.03 552.96,-87.11 555.94,-93.44"/>
</g>
<!-- Node20&#45;&gt;Node5 -->
<g id="edge23" class="edge">
<title>Node20&#45;&gt;Node5</title>
<path fill="none" stroke="#63b8ff" d="M447.5,-126.1C447.5,-117.62 447.5,-106.64 447.5,-96.72"/>
<polygon fill="#63b8ff" stroke="#63b8ff" points="451,-96.9 447.5,-86.9 444,-96.9 451,-96.9"/>
</g>
<!-- Node22 -->
<g id="node22" class="node">
<title>Node22</title>
<g id="a_node22"><a xlink:href="system__settings_8h.html" target="_top" xlink:title="Archivo para la definición de constantes del sistema.">
<polygon fill="white" stroke="#666666" points="219,-151 122,-151 122,-132 219,-132 219,-151"/>
<text text-anchor="middle" x="170.5" y="-139" font-family="Helvetica,sans-Serif" font-size="10.00">system_settings.h</text>
</a>
</g>
</g>
<!-- Node21&#45;&gt;Node22 -->
<g id="edge26" class="edge">
<title>Node21&#45;&gt;Node22</title>
<path fill="none" stroke="#63b8ff" d="M73.64,-203.04C94.71,-189.87 125.68,-170.51 146.9,-157.25"/>
<polygon fill="#63b8ff" stroke="#63b8ff" points="148.53,-160.36 155.16,-152.09 144.82,-154.42 148.53,-160.36"/>
</g>
<!-- Node23 -->
<g id="node23" class="node">
<title>Node23</title>
<g id="a_node23"><a xlink:title=" ">
<polygon fill="#e0e0e0" stroke="#999999" points="65,-151 6,-151 6,-132 65,-132 65,-151"/>
<text text-anchor="middle" x="35.5" y="-139" font-family="Helvetica,sans-Serif" font-size="10.00">DS1820.h</text>
</a>
</g>
</g>
<!-- Node21&#45;&gt;Node23 -->
<g id="edge27" class="edge">
<title>Node21&#45;&gt;Node23</title>
<path fill="none" stroke="#63b8ff" d="M47.61,-203.04C45.29,-191.43 42,-175 39.44,-162.19"/>
<polygon fill="#63b8ff" stroke="#63b8ff" points="42.95,-161.89 37.55,-152.77 36.08,-163.26 42.95,-161.89"/>
</g>
<!-- Node24&#45;&gt;Node11 -->
<g id="edge29" class="edge">
<title>Node24&#45;&gt;Node11</title>
<path fill="none" stroke="#63b8ff" d="M748.29,-60.37C754.95,-51.9 765.29,-38.74 773.69,-28.07"/>
<polygon fill="#63b8ff" stroke="#63b8ff" points="776.32,-30.38 779.75,-20.36 770.82,-26.05 776.32,-30.38"/>
</g>
<!-- Node26&#45;&gt;Node11 -->
<g id="edge32" class="edge">
<title>Node26&#45;&gt;Node11</title>
<path fill="none" stroke="#63b8ff" d="M753.41,-208.52C751.67,-190.56 749.99,-149.48 766.5,-121 779.88,-97.93 802.57,-108.85 814.5,-85 823.79,-66.43 812.74,-43.86 802.1,-28.46"/>
<polygon fill="#63b8ff" stroke="#63b8ff" points="805.09,-26.61 796.3,-20.7 799.49,-30.81 805.09,-26.61"/>
</g>
<!-- Node27 -->
<g id="node27" class="node">
<title>Node27</title>
<g id="a_node27"><a xlink:href="port__config_8h.html" target="_top" xlink:title="Archivo de configuración para los puertos de la placa donde se implementará el sistema.">
<polygon fill="white" stroke="#666666" points="847.5,-151 775.5,-151 775.5,-132 847.5,-132 847.5,-151"/>
<text text-anchor="middle" x="811.5" y="-139" font-family="Helvetica,sans-Serif" font-size="10.00">port_config.h</text>
</a>
</g>
</g>
<!-- Node26&#45;&gt;Node27 -->
<g id="edge33" class="edge">
<title>Node26&#45;&gt;Node27</title>
<path fill="none" stroke="#63b8ff" d="M761.26,-208.6C770.26,-196.76 786.38,-175.55 797.93,-160.35"/>
<polygon fill="#63b8ff" stroke="#63b8ff" points="800.57,-162.67 803.83,-152.59 794.99,-158.44 800.57,-162.67"/>
</g>
<!-- Node28&#45;&gt;Node11 -->
<g id="edge35" class="edge">
<title>Node28&#45;&gt;Node11</title>
<path fill="none" stroke="#63b8ff" d="M856.75,-208.62C858.9,-191.48 862.53,-152.77 856.5,-121 850.62,-90.03 847.56,-81.51 830.5,-55 823.93,-44.78 814.77,-34.91 806.59,-27.07"/>
<polygon fill="#63b8ff" stroke="#63b8ff" points="809.13,-24.64 799.39,-20.46 804.39,-29.8 809.13,-24.64"/>
</g>
<!-- Node28&#45;&gt;Node27 -->
<g id="edge36" class="edge">
<title>Node28&#45;&gt;Node27</title>
<path fill="none" stroke="#63b8ff" d="M850.28,-208.6C843.47,-196.99 831.36,-176.36 822.49,-161.23"/>
<polygon fill="#63b8ff" stroke="#63b8ff" points="825.56,-159.55 817.48,-152.69 819.52,-163.09 825.56,-159.55"/>
</g>
<!-- Node29&#45;&gt;Node11 -->
<g id="edge38" class="edge">
<title>Node29&#45;&gt;Node11</title>
<path fill="none" stroke="#63b8ff" d="M264.04,-208.66C259.61,-190.95 252.05,-150.3 266.5,-121 287.81,-77.79 307.73,-72.79 352.5,-55 424.83,-26.26 660.36,-15.01 751.25,-11.67"/>
<polygon fill="#63b8ff" stroke="#63b8ff" points="751.21,-15.17 761.08,-11.32 750.96,-8.18 751.21,-15.17"/>
</g>
<!-- Node29&#45;&gt;Node22 -->
<g id="edge40" class="edge">
<title>Node29&#45;&gt;Node22</title>
<path fill="none" stroke="#63b8ff" d="M255.11,-208.6C239.3,-196.25 210.46,-173.72 190.89,-158.43"/>
<polygon fill="#63b8ff" stroke="#63b8ff" points="193.1,-155.72 183.07,-152.32 188.79,-161.23 193.1,-155.72"/>
</g>
<!-- Node29&#45;&gt;Node25 -->
<g id="edge39" class="edge">
<title>Node29&#45;&gt;Node25</title>
<path fill="none" stroke="#63b8ff" d="M270.53,-208.6C275.75,-197.1 284.97,-176.76 291.81,-161.67"/>
<polygon fill="#63b8ff" stroke="#63b8ff" points="294.91,-163.32 295.85,-152.76 288.53,-160.43 294.91,-163.32"/>
</g>
<!-- Node30&#45;&gt;Node11 -->
<g id="edge42" class="edge">
<title>Node30&#45;&gt;Node11</title>
<path fill="none" stroke="#63b8ff" d="M401.92,-203.35C391.27,-193.11 378.36,-178.25 372.5,-162 356.37,-117.26 340.72,-90.37 372.5,-55 397.64,-27.02 654.97,-15.16 751.33,-11.67"/>
<polygon fill="#63b8ff" stroke="#63b8ff" points="751.4,-15.17 761.27,-11.32 751.15,-8.17 751.4,-15.17"/>
</g>
<!-- Node30&#45;&gt;Node25 -->
<g id="edge43" class="edge">
<title>Node30&#45;&gt;Node25</title>
<path fill="none" stroke="#63b8ff" d="M395.75,-203.04C375.12,-189.93 344.85,-170.69 324,-157.43"/>
<polygon fill="#63b8ff" stroke="#63b8ff" points="325.92,-154.51 315.6,-152.1 322.16,-160.42 325.92,-154.51"/>
</g>
<!-- Node31&#45;&gt;Node11 -->
<g id="edge45" class="edge">
<title>Node31&#45;&gt;Node11</title>
<path fill="none" stroke="#63b8ff" d="M149.77,-208.51C130.04,-190.86 91.8,-150.82 112.5,-121 160.39,-52.04 207.62,-73.57 289.5,-55 459.14,-16.53 668.35,-11.02 751.23,-10.44"/>
<polygon fill="#63b8ff" stroke="#63b8ff" points="751.03,-13.94 761.01,-10.4 750.99,-6.94 751.03,-13.94"/>
</g>
<!-- Node31&#45;&gt;Node22 -->
<g id="edge46" class="edge">
<title>Node31&#45;&gt;Node22</title>
<path fill="none" stroke="#63b8ff" d="M161.69,-208.6C163.19,-197.33 165.83,-177.55 167.83,-162.56"/>
<polygon fill="#63b8ff" stroke="#63b8ff" points="171.26,-163.26 169.12,-152.89 164.32,-162.34 171.26,-163.26"/>
</g>
<!-- Node32&#45;&gt;Node1 -->
<g id="edge50" class="edge">
<title>Node32&#45;&gt;Node1</title>
<path fill="none" stroke="#63b8ff" d="M1324.8,-239.3C1310.35,-279.23 1282.21,-372.06 1300.5,-448 1302.57,-456.6 1305.95,-465.33 1309.8,-473.53"/>
<polygon fill="#63b8ff" stroke="#63b8ff" points="1306.55,-474.85 1314.17,-482.21 1312.8,-471.7 1306.55,-474.85"/>
</g>
<!-- Node32&#45;&gt;Node2 -->
<g id="edge48" class="edge">
<title>Node32&#45;&gt;Node2</title>
<path fill="none" stroke="#63b8ff" d="M1265,-239.08C1102.84,-266.84 908.21,-277.79 812.82,-281.64"/>
<polygon fill="#63b8ff" stroke="#63b8ff" points="812.78,-278.14 802.92,-282.03 813.05,-285.14 812.78,-278.14"/>
</g>
<!-- Node32&#45;&gt;Node7 -->
<g id="edge49" class="edge">
<title>Node32&#45;&gt;Node7</title>
<path fill="none" stroke="#63b8ff" d="M1357.46,-197.79C1368.5,-189.08 1381.65,-178.69 1393.57,-169.29"/>
<polygon fill="#63b8ff" stroke="#63b8ff" points="1395.51,-172.22 1401.19,-163.27 1391.17,-166.72 1395.51,-172.22"/>
</g>
<!-- Node33&#45;&gt;Node1 -->
<g id="edge55" class="edge">
<title>Node33&#45;&gt;Node1</title>
<path fill="none" stroke="#63b8ff" d="M1373.31,-448.48C1370.22,-456.05 1366.07,-464.97 1361.61,-473.76"/>
<polygon fill="#63b8ff" stroke="#63b8ff" points="1358.52,-472.12 1356.98,-482.6 1364.72,-475.37 1358.52,-472.12"/>
</g>
<!-- Node33&#45;&gt;Node2 -->
<g id="edge53" class="edge">
<title>Node33&#45;&gt;Node2</title>
<path fill="none" stroke="#63b8ff" d="M1319.04,-410.28C1244.85,-390 1112.77,-354.94 998.5,-330 935.27,-316.2 862.19,-303.27 812.61,-294.94"/>
<polygon fill="#63b8ff" stroke="#63b8ff" points="813.4,-291.52 802.96,-293.33 812.25,-298.43 813.4,-291.52"/>
</g>
<!-- Node33&#45;&gt;Node7 -->
<g id="edge54" class="edge">
<title>Node33&#45;&gt;Node7</title>
<path fill="none" stroke="#63b8ff" d="M1413.92,-406.55C1426.67,-397.51 1439.53,-385.56 1446.5,-371 1477.65,-305.97 1455.2,-218.56 1439.41,-173"/>
<polygon fill="#63b8ff" stroke="#63b8ff" points="1442.77,-172.01 1436.09,-163.78 1436.19,-174.38 1442.77,-172.01"/>
</g>
<!-- Node33&#45;&gt;Node34 -->
<g id="edge56" class="edge">
<title>Node33&#45;&gt;Node34</title>
<path fill="none" stroke="#63b8ff" d="M1371.48,-406.79C1370.83,-399.45 1370.61,-390.91 1370.83,-382.78"/>
<polygon fill="#63b8ff" stroke="#63b8ff" points="1374.32,-383.02 1371.38,-372.85 1367.34,-382.64 1374.32,-383.02"/>
</g>
<!-- Node34&#45;&gt;Node2 -->
<g id="edge57" class="edge">
<title>Node34&#45;&gt;Node2</title>
<path fill="none" stroke="#63b8ff" d="M1317.52,-332.75C1312.8,-331.72 1308.08,-330.78 1303.5,-330 1126.47,-299.74 913.7,-289.93 812.92,-286.85"/>
<polygon fill="#63b8ff" stroke="#63b8ff" points="813.09,-283.35 803,-286.56 812.89,-290.35 813.09,-283.35"/>
</g>
<!-- Node34&#45;&gt;Node7 -->
<g id="edge58" class="edge">
<title>Node34&#45;&gt;Node7</title>
<path fill="none" stroke="#63b8ff" d="M1383.58,-329.66C1390.2,-307.64 1400.88,-270.98 1408.5,-239 1413.69,-217.23 1418.54,-192.46 1422.05,-173.47"/>
<polygon fill="#63b8ff" stroke="#63b8ff" points="1425.48,-174.14 1423.82,-163.68 1418.59,-172.89 1425.48,-174.14"/>
</g>
<!-- Node34&#45;&gt;Node33 -->
<g id="edge59" class="edge">
<title>Node34&#45;&gt;Node33</title>
<path fill="none" stroke="#63b8ff" d="M1383.53,-371.33C1384.18,-378.7 1384.39,-387.24 1384.16,-395.36"/>
<polygon fill="#63b8ff" stroke="#63b8ff" points="1380.67,-395.1 1383.61,-405.28 1387.66,-395.49 1380.67,-395.1"/>
</g>
</g>
</svg>
