<?xml version="1.0" encoding="UTF-8" standalone="no"?>
<!DOCTYPE svg PUBLIC "-//W3C//DTD SVG 1.1//EN"
 "http://www.w3.org/Graphics/SVG/1.1/DTD/svg11.dtd">
<!-- Generated by graphviz version 7.0.2 (20221119.0110)
 -->
<!-- Title: C:/Users/juanh/OneDrive/Escritorio/Facultad/Beca/Proyecto/LAL Control Arduino/include/machine_state_pattern/machine_states/Idle_state.h Pages: 1 -->
<!--zoomable 357 -->
<svg id="main" version="1.1" xmlns="http://www.w3.org/2000/svg" xmlns:xlink="http://www.w3.org/1999/xlink" xml:space="preserve" onload="init(evt)">
<style type="text/css"><![CDATA[
.edge:hover path { stroke: red; }
.edge:hover polygon { stroke: red; fill: red; }
]]></style>
<script type="text/javascript"><![CDATA[
var edges = document.getElementsByTagName('g');
if (edges && edges.length) {
  for (var i=0;i<edges.length;i++) {
    if (edges[i].id.substr(0,4)=='edge') {
      edges[i].setAttribute('class','edge');
    }
  }
}
]]></script>
        <defs>
                <circle id="rim" cx="0" cy="0" r="7"/>
                <circle id="rim2" cx="0" cy="0" r="3.5"/>
                <g id="zoomPlus">
                        <use xlink:href="#rim" fill="#404040">
                                <set attributeName="fill" to="#808080" begin="zoomplus.mouseover" end="zoomplus.mouseout"/>
                        </use>
                        <path d="M-4,0h8M0,-4v8" fill="none" stroke="white" stroke-width="1.5" pointer-events="none"/>
                </g>
                <g id="zoomMin">
                        <use xlink:href="#rim" fill="#404040">
                                <set attributeName="fill" to="#808080" begin="zoomminus.mouseover" end="zoomminus.mouseout"/>
                        </use>
                        <path d="M-4,0h8" fill="none" stroke="white" stroke-width="1.5" pointer-events="none"/>
                </g>
                <g id="dirArrow">
                        <path fill="none" stroke="white" stroke-width="1.5" d="M0,-3.0v7 M-2.5,-0.5L0,-3.0L2.5,-0.5"/>
                </g>
               <g id="resetDef">
                       <use xlink:href="#rim2" fill="#404040">
                               <set attributeName="fill" to="#808080" begin="reset.mouseover" end="reset.mouseout"/>
                       </use>
               </g>
        </defs>

<script type="text/javascript">
var viewWidth = 1696;
var viewHeight = 357;
var sectionId = 'dynsection-0';
</script>
<script xlink:href="svgpan.js"/>
<svg id="graph" class="graph">
<g id="viewport">
<title>C:/Users/juanh/OneDrive/Escritorio/Facultad/Beca/Proyecto/LAL Control Arduino/include/machine_state_pattern/machine_states/Idle_state.h</title>
<!-- Node1 -->
<g id="node1" class="node">
<title>Node1</title>
<g id="a_node1"><a xlink:title="Clase de estado de reposo.">
<polygon fill="#999999" stroke="#666666" points="1074,-349 922,-349 922,-286 1074,-286 1074,-349"/>
<text text-anchor="start" x="930" y="-337" font-family="Helvetica,sans-Serif" font-size="10.00">C:/Users/juanh/OneDrive</text>
<text text-anchor="start" x="930" y="-326" font-family="Helvetica,sans-Serif" font-size="10.00">/Escritorio/Facultad/Beca</text>
<text text-anchor="start" x="930" y="-315" font-family="Helvetica,sans-Serif" font-size="10.00">/Proyecto/LAL Control Arduino</text>
<text text-anchor="start" x="930" y="-304" font-family="Helvetica,sans-Serif" font-size="10.00">/include/machine_state_pattern</text>
<text text-anchor="middle" x="998" y="-293" font-family="Helvetica,sans-Serif" font-size="10.00">/machine_states/Idle_state.h</text>
</a>
</g>
</g>
<!-- Node2 -->
<g id="node2" class="node">
<title>Node2</title>
<g id="a_node2"><a xlink:href="_control__system_8h.html" target="_top" xlink:title="Clase para el sistema de control.">
<polygon fill="white" stroke="#666666" points="1044.5,-250 951.5,-250 951.5,-231 1044.5,-231 1044.5,-250"/>
<text text-anchor="middle" x="998" y="-238" font-family="Helvetica,sans-Serif" font-size="10.00">Control_system.h</text>
</a>
</g>
</g>
<!-- Node1&#45;&gt;Node2 -->
<g id="edge1" class="edge">
<title>Node1&#45;&gt;Node2</title>
<path fill="none" stroke="#63b8ff" d="M998,-285.56C998,-277.49 998,-269.01 998,-261.66"/>
<polygon fill="#63b8ff" stroke="#63b8ff" points="1001.5,-261.84 998,-251.84 994.5,-261.84 1001.5,-261.84"/>
</g>
<!-- Node7 -->
<g id="node7" class="node">
<title>Node7</title>
<g id="a_node7"><a xlink:href="_abstract__state_8h.html" target="_top" xlink:title="Clase de estado abstracta.">
<polygon fill="white" stroke="#666666" points="128,-41 0,-41 0,0 128,0 128,-41"/>
<text text-anchor="start" x="8" y="-29" font-family="Helvetica,sans-Serif" font-size="10.00">machine_state_pattern</text>
<text text-anchor="start" x="8" y="-18" font-family="Helvetica,sans-Serif" font-size="10.00">/machine_states/Abstract</text>
<text text-anchor="middle" x="64" y="-7" font-family="Helvetica,sans-Serif" font-size="10.00">_state.h</text>
</a>
</g>
</g>
<!-- Node1&#45;&gt;Node7 -->
<g id="edge51" class="edge">
<title>Node1&#45;&gt;Node7</title>
<path fill="none" stroke="#63b8ff" d="M921.53,-312.75C702.39,-301.24 84.09,-262.94 26,-195 -8.95,-154.13 21.36,-88.41 44.23,-50.68"/>
<polygon fill="#63b8ff" stroke="#63b8ff" points="46.98,-52.88 49.33,-42.55 41.05,-49.16 46.98,-52.88"/>
</g>
<!-- Node31 -->
<g id="node31" class="node">
<title>Node31</title>
<g id="a_node31"><a xlink:href="_alarm__state_8h.html" target="_top" xlink:title="Clase de estado de control del motor.">
<polygon fill="white" stroke="#666666" points="1391.5,-118 1274.5,-118 1274.5,-77 1391.5,-77 1391.5,-118"/>
<text text-anchor="start" x="1282.5" y="-106" font-family="Helvetica,sans-Serif" font-size="10.00">machine_state_pattern</text>
<text text-anchor="start" x="1282.5" y="-95" font-family="Helvetica,sans-Serif" font-size="10.00">/machine_states/Alarm</text>
<text text-anchor="middle" x="1333" y="-84" font-family="Helvetica,sans-Serif" font-size="10.00">_state.h</text>
</a>
</g>
</g>
<!-- Node1&#45;&gt;Node31 -->
<g id="edge52" class="edge">
<title>Node1&#45;&gt;Node31</title>
<path fill="none" stroke="#63b8ff" d="M1074.3,-312.75C1221.66,-303.9 1536.48,-275.97 1603,-195 1707.37,-67.95 1647.53,-172.67 1402.68,-120.36"/>
<polygon fill="#63b8ff" stroke="#63b8ff" points="1403.64,-116.98 1393.12,-118.24 1402.13,-123.82 1403.64,-116.98"/>
</g>
<!-- Node3 -->
<g id="node3" class="node">
<title>Node3</title>
<g id="a_node3"><a xlink:href="_subject_8h.html" target="_top" xlink:title=" ">
<polygon fill="white" stroke="#666666" points="1538,-112.5 1410,-112.5 1410,-82.5 1538,-82.5 1538,-112.5"/>
<text text-anchor="start" x="1418" y="-100.5" font-family="Helvetica,sans-Serif" font-size="10.00">observer_pattern/subjects</text>
<text text-anchor="middle" x="1474" y="-89.5" font-family="Helvetica,sans-Serif" font-size="10.00">/Subject.h</text>
</a>
</g>
</g>
<!-- Node2&#45;&gt;Node3 -->
<g id="edge2" class="edge">
<title>Node2&#45;&gt;Node3</title>
<path fill="none" stroke="#63b8ff" d="M1044.77,-239.01C1137.97,-237.29 1343.02,-229.58 1403,-195 1431.34,-178.66 1451.65,-145.98 1463.11,-123.2"/>
<polygon fill="#63b8ff" stroke="#63b8ff" points="1466.21,-124.83 1467.36,-114.29 1459.9,-121.81 1466.21,-124.83"/>
</g>
<!-- Node6 -->
<g id="node6" class="node">
<title>Node6</title>
<g id="a_node6"><a xlink:href="_machine_8h.html" target="_top" xlink:title="Clase de máquina abstracta.">
<polygon fill="white" stroke="#666666" points="303,-189.5 187,-189.5 187,-159.5 303,-159.5 303,-189.5"/>
<text text-anchor="start" x="195" y="-177.5" font-family="Helvetica,sans-Serif" font-size="10.00">machine_state_pattern</text>
<text text-anchor="middle" x="245" y="-166.5" font-family="Helvetica,sans-Serif" font-size="10.00">/Machine.h</text>
</a>
</g>
</g>
<!-- Node2&#45;&gt;Node6 -->
<g id="edge5" class="edge">
<title>Node2&#45;&gt;Node6</title>
<path fill="none" stroke="#63b8ff" d="M951,-239.97C839.29,-240.31 549.44,-236.74 312,-195 308.36,-194.36 304.64,-193.6 300.9,-192.75"/>
<polygon fill="#63b8ff" stroke="#63b8ff" points="301.75,-189.35 291.2,-190.34 300.07,-196.15 301.75,-189.35"/>
</g>
<!-- Node8 -->
<g id="node8" class="node">
<title>Node8</title>
<g id="a_node8"><a xlink:href="_display_8h.html" target="_top" xlink:title="Controlador de LCD hd44780 por interfaz I2C.">
<polygon fill="white" stroke="#666666" points="409,-184 321,-184 321,-165 409,-165 409,-184"/>
<text text-anchor="middle" x="365" y="-172" font-family="Helvetica,sans-Serif" font-size="10.00">drivers/Display.h</text>
</a>
</g>
</g>
<!-- Node2&#45;&gt;Node8 -->
<g id="edge7" class="edge">
<title>Node2&#45;&gt;Node8</title>
<path fill="none" stroke="#63b8ff" d="M951.13,-240.25C851.67,-240.89 612.64,-237.41 418,-195 410.71,-193.41 403.07,-191.04 395.93,-188.5"/>
<polygon fill="#63b8ff" stroke="#63b8ff" points="397.25,-185.26 386.66,-184.98 394.77,-191.8 397.25,-185.26"/>
</g>
<!-- Node14 -->
<g id="node14" class="node">
<title>Node14</title>
<g id="a_node14"><a xlink:href="user__messages_8h.html" target="_top" xlink:title="Archivo para la configuración de interfaz con el usuario.">
<polygon fill="white" stroke="#666666" points="1239,-184 1145,-184 1145,-165 1239,-165 1239,-184"/>
<text text-anchor="middle" x="1192" y="-172" font-family="Helvetica,sans-Serif" font-size="10.00">user_messages.h</text>
</a>
</g>
</g>
<!-- Node2&#45;&gt;Node14 -->
<g id="edge13" class="edge">
<title>Node2&#45;&gt;Node14</title>
<path fill="none" stroke="#63b8ff" d="M1024.97,-230.6C1058.61,-219.5 1116.31,-200.47 1154.31,-187.93"/>
<polygon fill="#63b8ff" stroke="#63b8ff" points="1155.1,-191.36 1163.5,-184.9 1152.91,-184.71 1155.1,-191.36"/>
</g>
<!-- Node16 -->
<g id="node16" class="node">
<title>Node16</title>
<g id="a_node16"><a xlink:href="_system__observer_8h.html" target="_top" xlink:title="Clase observador del sistema de control.">
<polygon fill="white" stroke="#666666" points="1603,-189.5 1471,-189.5 1471,-159.5 1603,-159.5 1603,-189.5"/>
<text text-anchor="start" x="1479" y="-177.5" font-family="Helvetica,sans-Serif" font-size="10.00">observer_pattern/observers</text>
<text text-anchor="middle" x="1537" y="-166.5" font-family="Helvetica,sans-Serif" font-size="10.00">/System_observer.h</text>
</a>
</g>
</g>
<!-- Node2&#45;&gt;Node16 -->
<g id="edge15" class="edge">
<title>Node2&#45;&gt;Node16</title>
<path fill="none" stroke="#63b8ff" d="M1044.7,-236.86C1126.82,-232 1301.77,-219.78 1448,-195 1452.6,-194.22 1457.32,-193.32 1462.09,-192.35"/>
<polygon fill="#63b8ff" stroke="#63b8ff" points="1462.71,-195.8 1471.75,-190.28 1461.24,-188.95 1462.71,-195.8"/>
</g>
<!-- Node18 -->
<g id="node18" class="node">
<title>Node18</title>
<g id="a_node18"><a xlink:href="_temperature__sensor_8h.html" target="_top" xlink:title="Controlador para sensor de temperatura DS18B20.">
<polygon fill="white" stroke="#666666" points="528.5,-189.5 427.5,-189.5 427.5,-159.5 528.5,-159.5 528.5,-189.5"/>
<text text-anchor="start" x="435.5" y="-177.5" font-family="Helvetica,sans-Serif" font-size="10.00">drivers/Temperature</text>
<text text-anchor="middle" x="478" y="-166.5" font-family="Helvetica,sans-Serif" font-size="10.00">_sensor.h</text>
</a>
</g>
</g>
<!-- Node2&#45;&gt;Node18 -->
<g id="edge20" class="edge">
<title>Node2&#45;&gt;Node18</title>
<path fill="none" stroke="#63b8ff" d="M951.02,-238.41C867.06,-235.71 686.1,-226.42 537,-195 534.23,-194.42 531.41,-193.75 528.57,-193.02"/>
<polygon fill="#63b8ff" stroke="#63b8ff" points="529.69,-189.69 519.12,-190.35 527.79,-196.43 529.69,-189.69"/>
</g>
<!-- Node21 -->
<g id="node21" class="node">
<title>Node21</title>
<g id="a_node21"><a xlink:href="_moisture__sensor_8h.html" target="_top" xlink:title="Controlador de sensor de humedad analógico.">
<polygon fill="white" stroke="#666666" points="887,-184 759,-184 759,-165 887,-165 887,-184"/>
<text text-anchor="middle" x="823" y="-172" font-family="Helvetica,sans-Serif" font-size="10.00">drivers/Moisture_sensor.h</text>
</a>
</g>
</g>
<!-- Node2&#45;&gt;Node21 -->
<g id="edge24" class="edge">
<title>Node2&#45;&gt;Node21</title>
<path fill="none" stroke="#63b8ff" d="M973.67,-230.6C943.58,-219.6 892.17,-200.8 857.89,-188.26"/>
<polygon fill="#63b8ff" stroke="#63b8ff" points="859.42,-185.09 848.83,-184.95 857.02,-191.67 859.42,-185.09"/>
</g>
<!-- Node23 -->
<g id="node23" class="node">
<title>Node23</title>
<g id="a_node23"><a xlink:href="types_8h.html" target="_top" xlink:title="Archivo de definición de tipos de dato.">
<polygon fill="white" stroke="#666666" points="1091.5,-107 1042.5,-107 1042.5,-88 1091.5,-88 1091.5,-107"/>
<text text-anchor="middle" x="1067" y="-95" font-family="Helvetica,sans-Serif" font-size="10.00">types.h</text>
</a>
</g>
</g>
<!-- Node2&#45;&gt;Node23 -->
<g id="edge26" class="edge">
<title>Node2&#45;&gt;Node23</title>
<path fill="none" stroke="#63b8ff" d="M1044.76,-230.55C1064.71,-224.17 1086.1,-213.33 1098,-195 1113.99,-170.38 1095.98,-136.87 1081.49,-116.51"/>
<polygon fill="#63b8ff" stroke="#63b8ff" points="1084.36,-114.5 1075.54,-108.63 1078.77,-118.72 1084.36,-114.5"/>
</g>
<!-- Node24 -->
<g id="node24" class="node">
<title>Node24</title>
<g id="a_node24"><a xlink:href="_buzzer_8h.html" target="_top" xlink:title="Controlador de Buzzer de 12 milimetros.">
<polygon fill="white" stroke="#666666" points="991,-184 905,-184 905,-165 991,-165 991,-184"/>
<text text-anchor="middle" x="948" y="-172" font-family="Helvetica,sans-Serif" font-size="10.00">drivers/Buzzer.h</text>
</a>
</g>
</g>
<!-- Node2&#45;&gt;Node24 -->
<g id="edge27" class="edge">
<title>Node2&#45;&gt;Node24</title>
<path fill="none" stroke="#63b8ff" d="M991.05,-230.6C983.51,-220.95 971.29,-205.31 961.79,-193.15"/>
<polygon fill="#63b8ff" stroke="#63b8ff" points="964.74,-191.24 955.83,-185.52 959.22,-195.55 964.74,-191.24"/>
</g>
<!-- Node26 -->
<g id="node26" class="node">
<title>Node26</title>
<g id="a_node26"><a xlink:href="_motor_8h.html" target="_top" xlink:title="Controlador de motor de 220 VAC.">
<polygon fill="white" stroke="#666666" points="1089,-184 1009,-184 1009,-165 1089,-165 1089,-184"/>
<text text-anchor="middle" x="1049" y="-172" font-family="Helvetica,sans-Serif" font-size="10.00">drivers/Motor.h</text>
</a>
</g>
</g>
<!-- Node2&#45;&gt;Node26 -->
<g id="edge30" class="edge">
<title>Node2&#45;&gt;Node26</title>
<path fill="none" stroke="#63b8ff" d="M1005.09,-230.6C1012.78,-220.95 1025.25,-205.31 1034.94,-193.15"/>
<polygon fill="#63b8ff" stroke="#63b8ff" points="1037.53,-195.51 1041.03,-185.51 1032.06,-191.15 1037.53,-195.51"/>
</g>
<!-- Node27 -->
<g id="node27" class="node">
<title>Node27</title>
<g id="a_node27"><a xlink:href="_dual___l_e_d_8h.html" target="_top" xlink:title="Controlador de LED RG.">
<polygon fill="white" stroke="#666666" points="740.5,-184 647.5,-184 647.5,-165 740.5,-165 740.5,-184"/>
<text text-anchor="middle" x="694" y="-172" font-family="Helvetica,sans-Serif" font-size="10.00">drivers/Dual_led.h</text>
</a>
</g>
</g>
<!-- Node2&#45;&gt;Node27 -->
<g id="edge33" class="edge">
<title>Node2&#45;&gt;Node27</title>
<path fill="none" stroke="#63b8ff" d="M951.36,-233.37C901.16,-226.25 819.18,-213.13 750,-195 742.81,-193.12 735.22,-190.74 728.03,-188.31"/>
<polygon fill="#63b8ff" stroke="#63b8ff" points="729.2,-185.01 718.61,-184.99 726.88,-191.61 729.2,-185.01"/>
</g>
<!-- Node28 -->
<g id="node28" class="node">
<title>Node28</title>
<g id="a_node28"><a xlink:href="_cooler_8h.html" target="_top" xlink:title="Controlador de ventilador de 12 volts y 5 milímteros.">
<polygon fill="white" stroke="#666666" points="629.5,-184 546.5,-184 546.5,-165 629.5,-165 629.5,-184"/>
<text text-anchor="middle" x="588" y="-172" font-family="Helvetica,sans-Serif" font-size="10.00">drivers/Cooler.h</text>
</a>
</g>
</g>
<!-- Node2&#45;&gt;Node28 -->
<g id="edge37" class="edge">
<title>Node2&#45;&gt;Node28</title>
<path fill="none" stroke="#63b8ff" d="M951,-237.42C881.6,-233.51 748.06,-222.8 638,-195 631.4,-193.33 624.5,-191.03 618,-188.59"/>
<polygon fill="#63b8ff" stroke="#63b8ff" points="619.57,-185.45 608.99,-185 616.98,-191.95 619.57,-185.45"/>
</g>
<!-- Node29 -->
<g id="node29" class="node">
<title>Node29</title>
<g id="a_node29"><a xlink:href="_shutdown__state_8h.html" target="_top" xlink:title="Clase de estado de apagado del sistema.">
<polygon fill="white" stroke="#666666" points="169,-195 35,-195 35,-154 169,-154 169,-195"/>
<text text-anchor="start" x="43" y="-183" font-family="Helvetica,sans-Serif" font-size="10.00">machine_state_pattern</text>
<text text-anchor="start" x="43" y="-172" font-family="Helvetica,sans-Serif" font-size="10.00">/machine_states/Shutdown</text>
<text text-anchor="middle" x="102" y="-161" font-family="Helvetica,sans-Serif" font-size="10.00">_state.h</text>
</a>
</g>
</g>
<!-- Node2&#45;&gt;Node29 -->
<g id="edge40" class="edge">
<title>Node2&#45;&gt;Node29</title>
<path fill="none" stroke="#63b8ff" d="M951.36,-240.13C826.22,-241.29 473.32,-240.4 180.69,-196.77"/>
<polygon fill="#63b8ff" stroke="#63b8ff" points="181.34,-193.33 170.93,-195.29 180.29,-200.25 181.34,-193.33"/>
</g>
<!-- Node30 -->
<g id="node30" class="node">
<title>Node30</title>
<g id="a_node30"><a xlink:href="_check__instruction__state_8h_source.html" target="_top" xlink:title=" ">
<polygon fill="white" stroke="#666666" points="1376.5,-195 1257.5,-195 1257.5,-154 1376.5,-154 1376.5,-195"/>
<text text-anchor="start" x="1265.5" y="-183" font-family="Helvetica,sans-Serif" font-size="10.00">machine_state_pattern</text>
<text text-anchor="start" x="1265.5" y="-172" font-family="Helvetica,sans-Serif" font-size="10.00">/machine_states/Check</text>
<text text-anchor="middle" x="1317" y="-161" font-family="Helvetica,sans-Serif" font-size="10.00">_instruction_state.h</text>
</a>
</g>
</g>
<!-- Node2&#45;&gt;Node30 -->
<g id="edge44" class="edge">
<title>Node2&#45;&gt;Node30</title>
<path fill="none" stroke="#63b8ff" d="M1044.99,-231.48C1093.8,-223.55 1171.97,-210.4 1239,-195 1241.42,-194.45 1243.87,-193.86 1246.35,-193.25"/>
<polygon fill="#63b8ff" stroke="#63b8ff" points="1247.05,-196.68 1255.87,-190.83 1245.32,-189.9 1247.05,-196.68"/>
</g>
<!-- Node4 -->
<g id="node4" class="node">
<title>Node4</title>
<g id="a_node4"><a xlink:href="_subject__interface_8h.html" target="_top" xlink:title="Clase para interfaz para implementar el sujeto.">
<polygon fill="white" stroke="#666666" points="1686,-35.5 1558,-35.5 1558,-5.5 1686,-5.5 1686,-35.5"/>
<text text-anchor="start" x="1566" y="-23.5" font-family="Helvetica,sans-Serif" font-size="10.00">observer_pattern/subjects</text>
<text text-anchor="middle" x="1622" y="-12.5" font-family="Helvetica,sans-Serif" font-size="10.00">/Subject_interface.h</text>
</a>
</g>
</g>
<!-- Node3&#45;&gt;Node4 -->
<g id="edge3" class="edge">
<title>Node3&#45;&gt;Node4</title>
<path fill="none" stroke="#63b8ff" d="M1502.54,-82.04C1525.57,-70.37 1558.2,-53.83 1583.54,-40.99"/>
<polygon fill="#63b8ff" stroke="#63b8ff" points="1584.86,-44.24 1592.2,-36.6 1581.7,-38 1584.86,-44.24"/>
</g>
<!-- Node5 -->
<g id="node5" class="node">
<title>Node5</title>
<g id="a_node5"><a xlink:href="_observer__interface_8h.html" target="_top" xlink:title="Clase para interfaz para implementar el observador.">
<polygon fill="white" stroke="#666666" points="1540,-35.5 1408,-35.5 1408,-5.5 1540,-5.5 1540,-35.5"/>
<text text-anchor="start" x="1416" y="-23.5" font-family="Helvetica,sans-Serif" font-size="10.00">observer_pattern/observers</text>
<text text-anchor="middle" x="1474" y="-12.5" font-family="Helvetica,sans-Serif" font-size="10.00">/Observer_interface.h</text>
</a>
</g>
</g>
<!-- Node3&#45;&gt;Node5 -->
<g id="edge4" class="edge">
<title>Node3&#45;&gt;Node5</title>
<path fill="none" stroke="#63b8ff" d="M1474,-82.04C1474,-72.18 1474,-58.86 1474,-47.22"/>
<polygon fill="#63b8ff" stroke="#63b8ff" points="1477.5,-47.43 1474,-37.43 1470.5,-47.43 1477.5,-47.43"/>
</g>
<!-- Node6&#45;&gt;Node7 -->
<g id="edge6" class="edge">
<title>Node6&#45;&gt;Node7</title>
<path fill="none" stroke="#63b8ff" d="M194.92,-159.09C150.24,-145.79 90.7,-126.82 83,-118 67.51,-100.26 63.2,-73.62 62.51,-52.82"/>
<polygon fill="#63b8ff" stroke="#63b8ff" points="66.01,-52.87 62.48,-42.88 59.01,-52.89 66.01,-52.87"/>
</g>
<!-- Node9 -->
<g id="node9" class="node">
<title>Node9</title>
<g id="a_node9"><a xlink:title=" ">
<polygon fill="#e0e0e0" stroke="#999999" points="250.5,-107 205.5,-107 205.5,-88 250.5,-88 250.5,-107"/>
<text text-anchor="middle" x="228" y="-95" font-family="Helvetica,sans-Serif" font-size="10.00">Wire.h</text>
</a>
</g>
</g>
<!-- Node8&#45;&gt;Node9 -->
<g id="edge8" class="edge">
<title>Node8&#45;&gt;Node9</title>
<path fill="none" stroke="#63b8ff" d="M347.36,-164.59C326.35,-153.89 290.3,-135.22 260,-118 257.33,-116.49 254.57,-114.87 251.82,-113.24"/>
<polygon fill="#63b8ff" stroke="#63b8ff" points="253.89,-110.39 243.52,-108.21 250.26,-116.38 253.89,-110.39"/>
</g>
<!-- Node10 -->
<g id="node10" class="node">
<title>Node10</title>
<g id="a_node10"><a xlink:title=" ">
<polygon fill="#e0e0e0" stroke="#999999" points="331,-107 269,-107 269,-88 331,-88 331,-107"/>
<text text-anchor="middle" x="300" y="-95" font-family="Helvetica,sans-Serif" font-size="10.00">hd44780.h</text>
</a>
</g>
</g>
<!-- Node8&#45;&gt;Node10 -->
<g id="edge9" class="edge">
<title>Node8&#45;&gt;Node10</title>
<path fill="none" stroke="#63b8ff" d="M357.29,-164.6C346.93,-152.65 328.3,-131.15 315.1,-115.92"/>
<polygon fill="#63b8ff" stroke="#63b8ff" points="317.89,-113.79 308.69,-108.53 312.6,-118.38 317.89,-113.79"/>
</g>
<!-- Node11 -->
<g id="node11" class="node">
<title>Node11</title>
<g id="a_node11"><a xlink:title=" ">
<polygon fill="#e0e0e0" stroke="#999999" points="474.5,-112.5 349.5,-112.5 349.5,-82.5 474.5,-82.5 474.5,-112.5"/>
<text text-anchor="start" x="357.5" y="-100.5" font-family="Helvetica,sans-Serif" font-size="10.00">hd44780ioClass/hd44780</text>
<text text-anchor="middle" x="412" y="-89.5" font-family="Helvetica,sans-Serif" font-size="10.00">_I2Cexp.h</text>
</a>
</g>
</g>
<!-- Node8&#45;&gt;Node11 -->
<g id="edge10" class="edge">
<title>Node8&#45;&gt;Node11</title>
<path fill="none" stroke="#63b8ff" d="M370.58,-164.6C377.1,-154.2 388.15,-136.56 397.2,-122.12"/>
<polygon fill="#63b8ff" stroke="#63b8ff" points="399.91,-124.38 402.26,-114.05 393.98,-120.66 399.91,-124.38"/>
</g>
<!-- Node12 -->
<g id="node12" class="node">
<title>Node12</title>
<g id="a_node12"><a xlink:href="display__settings_8h.html" target="_top" xlink:title="Archivo de configuración de la pantalla.">
<polygon fill="white" stroke="#666666" points="187.5,-107 92.5,-107 92.5,-88 187.5,-88 187.5,-107"/>
<text text-anchor="middle" x="140" y="-95" font-family="Helvetica,sans-Serif" font-size="10.00">display_settings.h</text>
</a>
</g>
</g>
<!-- Node8&#45;&gt;Node12 -->
<g id="edge11" class="edge">
<title>Node8&#45;&gt;Node12</title>
<path fill="none" stroke="#63b8ff" d="M341.35,-164.5C332.21,-161.1 321.66,-157.27 312,-154 260.87,-136.67 247.27,-134.88 196,-118 189.48,-115.86 182.57,-113.51 175.9,-111.2"/>
<polygon fill="#63b8ff" stroke="#63b8ff" points="177.05,-107.9 166.46,-107.92 174.75,-114.51 177.05,-107.9"/>
</g>
<!-- Node13 -->
<g id="node13" class="node">
<title>Node13</title>
<g id="a_node13"><a xlink:href="system__settings_8h.html" target="_top" xlink:title="Archivo para la definición de constantes del sistema.">
<polygon fill="white" stroke="#666666" points="795.5,-107 698.5,-107 698.5,-88 795.5,-88 795.5,-107"/>
<text text-anchor="middle" x="747" y="-95" font-family="Helvetica,sans-Serif" font-size="10.00">system_settings.h</text>
</a>
</g>
</g>
<!-- Node8&#45;&gt;Node13 -->
<g id="edge12" class="edge">
<title>Node8&#45;&gt;Node13</title>
<path fill="none" stroke="#63b8ff" d="M386.07,-164.53C395.66,-160.77 407.24,-156.66 418,-154 535.95,-124.85 570.65,-145.49 689,-118 696.95,-116.15 705.35,-113.66 713.21,-111.07"/>
<polygon fill="#63b8ff" stroke="#63b8ff" points="714.12,-114.46 722.44,-107.91 711.85,-107.84 714.12,-114.46"/>
</g>
<!-- Node15 -->
<g id="node15" class="node">
<title>Node15</title>
<g id="a_node15"><a xlink:title=" ">
<polygon fill="#e0e0e0" stroke="#999999" points="1217.5,-107 1132.5,-107 1132.5,-88 1217.5,-88 1217.5,-107"/>
<text text-anchor="middle" x="1175" y="-95" font-family="Helvetica,sans-Serif" font-size="10.00">avr/pgmspace.h</text>
</a>
</g>
</g>
<!-- Node14&#45;&gt;Node15 -->
<g id="edge14" class="edge">
<title>Node14&#45;&gt;Node15</title>
<path fill="none" stroke="#63b8ff" d="M1189.98,-164.6C1187.43,-153.33 1182.95,-133.55 1179.55,-118.56"/>
<polygon fill="#63b8ff" stroke="#63b8ff" points="1182.97,-117.84 1177.35,-108.86 1176.15,-119.39 1182.97,-117.84"/>
</g>
<!-- Node16&#45;&gt;Node2 -->
<g id="edge19" class="edge">
<title>Node16&#45;&gt;Node2</title>
<path fill="none" stroke="#63b8ff" d="M1491.02,-189.96C1482.75,-191.86 1474.17,-193.61 1466,-195 1320.01,-219.74 1145.4,-231.96 1056.32,-236.84"/>
<polygon fill="#63b8ff" stroke="#63b8ff" points="1056.16,-233.34 1046.36,-237.37 1056.53,-240.33 1056.16,-233.34"/>
</g>
<!-- Node17 -->
<g id="node17" class="node">
<title>Node17</title>
<g id="a_node17"><a xlink:href="_observer_8h.html" target="_top" xlink:title="Clase observador.">
<polygon fill="white" stroke="#666666" points="1688,-112.5 1556,-112.5 1556,-82.5 1688,-82.5 1688,-112.5"/>
<text text-anchor="start" x="1564" y="-100.5" font-family="Helvetica,sans-Serif" font-size="10.00">observer_pattern/observers</text>
<text text-anchor="middle" x="1622" y="-89.5" font-family="Helvetica,sans-Serif" font-size="10.00">/Observer.h</text>
</a>
</g>
</g>
<!-- Node16&#45;&gt;Node17 -->
<g id="edge16" class="edge">
<title>Node16&#45;&gt;Node17</title>
<path fill="none" stroke="#63b8ff" d="M1553.39,-159.04C1565.85,-148.04 1583.21,-132.73 1597.35,-120.25"/>
<polygon fill="#63b8ff" stroke="#63b8ff" points="1599.34,-123.16 1604.53,-113.92 1594.71,-117.91 1599.34,-123.16"/>
</g>
<!-- Node17&#45;&gt;Node4 -->
<g id="edge17" class="edge">
<title>Node17&#45;&gt;Node4</title>
<path fill="none" stroke="#63b8ff" d="M1622,-82.04C1622,-72.18 1622,-58.86 1622,-47.22"/>
<polygon fill="#63b8ff" stroke="#63b8ff" points="1625.5,-47.43 1622,-37.43 1618.5,-47.43 1625.5,-47.43"/>
</g>
<!-- Node17&#45;&gt;Node5 -->
<g id="edge18" class="edge">
<title>Node17&#45;&gt;Node5</title>
<path fill="none" stroke="#63b8ff" d="M1593.46,-82.04C1570.43,-70.37 1537.8,-53.83 1512.46,-40.99"/>
<polygon fill="#63b8ff" stroke="#63b8ff" points="1514.3,-38 1503.8,-36.6 1511.14,-44.24 1514.3,-38"/>
</g>
<!-- Node18&#45;&gt;Node13 -->
<g id="edge21" class="edge">
<title>Node18&#45;&gt;Node13</title>
<path fill="none" stroke="#63b8ff" d="M520.08,-159.1C525.75,-157.31 531.5,-155.56 537,-154 603.8,-135.09 622.25,-137.08 689,-118 696.26,-115.93 703.95,-113.5 711.29,-111.08"/>
<polygon fill="#63b8ff" stroke="#63b8ff" points="712.24,-114.45 720.6,-107.94 710.01,-107.82 712.24,-114.45"/>
</g>
<!-- Node19 -->
<g id="node19" class="node">
<title>Node19</title>
<g id="a_node19"><a xlink:title=" ">
<polygon fill="#e0e0e0" stroke="#999999" points="680.5,-107 617.5,-107 617.5,-88 680.5,-88 680.5,-107"/>
<text text-anchor="middle" x="649" y="-95" font-family="Helvetica,sans-Serif" font-size="10.00">OneWire.h</text>
</a>
</g>
</g>
<!-- Node18&#45;&gt;Node19 -->
<g id="edge22" class="edge">
<title>Node18&#45;&gt;Node19</title>
<path fill="none" stroke="#63b8ff" d="M512.93,-159.04C539.2,-148.06 576.01,-132.43 608,-118 612.09,-116.16 616.38,-114.17 620.59,-112.19"/>
<polygon fill="#63b8ff" stroke="#63b8ff" points="621.8,-115.49 629.34,-108.04 618.8,-109.17 621.8,-115.49"/>
</g>
<!-- Node20 -->
<g id="node20" class="node">
<title>Node20</title>
<g id="a_node20"><a xlink:title=" ">
<polygon fill="#e0e0e0" stroke="#999999" points="599,-107 493,-107 493,-88 599,-88 599,-107"/>
<text text-anchor="middle" x="546" y="-95" font-family="Helvetica,sans-Serif" font-size="10.00">DallasTemperature.h</text>
</a>
</g>
</g>
<!-- Node18&#45;&gt;Node20 -->
<g id="edge23" class="edge">
<title>Node18&#45;&gt;Node20</title>
<path fill="none" stroke="#63b8ff" d="M491.11,-159.04C502.4,-146.59 518.7,-128.61 530.61,-115.47"/>
<polygon fill="#63b8ff" stroke="#63b8ff" points="532.89,-118.17 537.02,-108.41 527.71,-113.47 532.89,-118.17"/>
</g>
<!-- Node22 -->
<g id="node22" class="node">
<title>Node22</title>
<g id="a_node22"><a xlink:title=" ">
<polygon fill="#e0e0e0" stroke="#999999" points="872,-107 814,-107 814,-88 872,-88 872,-107"/>
<text text-anchor="middle" x="843" y="-95" font-family="Helvetica,sans-Serif" font-size="10.00">Arduino.h</text>
</a>
</g>
</g>
<!-- Node21&#45;&gt;Node22 -->
<g id="edge25" class="edge">
<title>Node21&#45;&gt;Node22</title>
<path fill="none" stroke="#63b8ff" d="M825.37,-164.6C828.41,-153.21 833.76,-133.16 837.77,-118.11"/>
<polygon fill="#63b8ff" stroke="#63b8ff" points="841.05,-119.41 840.24,-108.85 834.28,-117.61 841.05,-119.41"/>
</g>
<!-- Node24&#45;&gt;Node22 -->
<g id="edge28" class="edge">
<title>Node24&#45;&gt;Node22</title>
<path fill="none" stroke="#63b8ff" d="M935.54,-164.6C918.1,-152.14 886.13,-129.31 864.72,-114.01"/>
<polygon fill="#63b8ff" stroke="#63b8ff" points="866.84,-111.23 856.67,-108.27 862.78,-116.93 866.84,-111.23"/>
</g>
<!-- Node25 -->
<g id="node25" class="node">
<title>Node25</title>
<g id="a_node25"><a xlink:href="port__config_8h.html" target="_top" xlink:title="Archivo de configuración para los puertos de la placa donde se implementará el sistema.">
<polygon fill="white" stroke="#666666" points="1004,-107 932,-107 932,-88 1004,-88 1004,-107"/>
<text text-anchor="middle" x="968" y="-95" font-family="Helvetica,sans-Serif" font-size="10.00">port_config.h</text>
</a>
</g>
</g>
<!-- Node24&#45;&gt;Node25 -->
<g id="edge29" class="edge">
<title>Node24&#45;&gt;Node25</title>
<path fill="none" stroke="#63b8ff" d="M950.37,-164.6C953.41,-153.21 958.76,-133.16 962.77,-118.11"/>
<polygon fill="#63b8ff" stroke="#63b8ff" points="966.05,-119.41 965.24,-108.85 959.28,-117.61 966.05,-119.41"/>
</g>
<!-- Node26&#45;&gt;Node22 -->
<g id="edge31" class="edge">
<title>Node26&#45;&gt;Node22</title>
<path fill="none" stroke="#63b8ff" d="M1027.12,-164.58C1018.67,-161.19 1008.91,-157.35 1000,-154 959.09,-138.63 911.74,-122.06 879.83,-111.07"/>
<polygon fill="#63b8ff" stroke="#63b8ff" points="881.25,-107.85 870.66,-107.91 878.98,-114.47 881.25,-107.85"/>
</g>
<!-- Node26&#45;&gt;Node25 -->
<g id="edge32" class="edge">
<title>Node26&#45;&gt;Node25</title>
<path fill="none" stroke="#63b8ff" d="M1039.39,-164.6C1026.24,-152.42 1002.38,-130.33 985.89,-115.06"/>
<polygon fill="#63b8ff" stroke="#63b8ff" points="988.42,-112.64 978.71,-108.41 983.67,-117.78 988.42,-112.64"/>
</g>
<!-- Node27&#45;&gt;Node13 -->
<g id="edge36" class="edge">
<title>Node27&#45;&gt;Node13</title>
<path fill="none" stroke="#63b8ff" d="M700.29,-164.6C708.58,-152.87 723.36,-131.96 734.08,-116.79"/>
<polygon fill="#63b8ff" stroke="#63b8ff" points="736.93,-118.81 739.85,-108.62 731.22,-114.77 736.93,-118.81"/>
</g>
<!-- Node27&#45;&gt;Node22 -->
<g id="edge34" class="edge">
<title>Node27&#45;&gt;Node22</title>
<path fill="none" stroke="#63b8ff" d="M711.68,-164.6C737.33,-151.69 785.11,-127.64 815.42,-112.38"/>
<polygon fill="#63b8ff" stroke="#63b8ff" points="816.64,-115.69 823.99,-108.07 813.49,-109.44 816.64,-115.69"/>
</g>
<!-- Node27&#45;&gt;Node23 -->
<g id="edge35" class="edge">
<title>Node27&#45;&gt;Node23</title>
<path fill="none" stroke="#63b8ff" d="M716.31,-164.59C726.45,-160.83 738.69,-156.72 750,-154 864.72,-126.47 898.44,-146.19 1013,-118 1020.18,-116.23 1027.73,-113.85 1034.83,-111.37"/>
<polygon fill="#63b8ff" stroke="#63b8ff" points="1035.92,-114.7 1044.09,-107.96 1033.5,-108.13 1035.92,-114.7"/>
</g>
<!-- Node28&#45;&gt;Node13 -->
<g id="edge39" class="edge">
<title>Node28&#45;&gt;Node13</title>
<path fill="none" stroke="#63b8ff" d="M606.86,-164.6C634.36,-151.63 685.67,-127.43 717.99,-112.18"/>
<polygon fill="#63b8ff" stroke="#63b8ff" points="719.24,-115.46 726.79,-108.03 716.25,-109.13 719.24,-115.46"/>
</g>
<!-- Node28&#45;&gt;Node22 -->
<g id="edge38" class="edge">
<title>Node28&#45;&gt;Node22</title>
<path fill="none" stroke="#63b8ff" d="M608.66,-164.59C617.58,-160.97 628.19,-156.96 638,-154 710.28,-132.22 732.79,-143.08 804,-118 808.37,-116.46 812.89,-114.54 817.22,-112.51"/>
<polygon fill="#63b8ff" stroke="#63b8ff" points="818.72,-115.68 826.1,-108.07 815.59,-109.41 818.72,-115.68"/>
</g>
<!-- Node29&#45;&gt;Node1 -->
<g id="edge43" class="edge">
<title>Node29&#45;&gt;Node1</title>
<path fill="none" stroke="#63b8ff" d="M169.46,-193.2C172.34,-193.83 175.2,-194.43 178,-195 442.5,-248.38 759.4,-288.74 910.08,-306.52"/>
<polygon fill="#63b8ff" stroke="#63b8ff" points="909.67,-310 920.01,-307.69 910.49,-303.04 909.67,-310"/>
</g>
<!-- Node29&#45;&gt;Node2 -->
<g id="edge41" class="edge">
<title>Node29&#45;&gt;Node2</title>
<path fill="none" stroke="#63b8ff" d="M169.22,-191.68C175.22,-192.97 181.21,-194.11 187,-195 467,-238.09 806.37,-241.1 940.04,-240.29"/>
<polygon fill="#63b8ff" stroke="#63b8ff" points="939.71,-243.79 949.68,-240.22 939.66,-236.79 939.71,-243.79"/>
</g>
<!-- Node29&#45;&gt;Node7 -->
<g id="edge42" class="edge">
<title>Node29&#45;&gt;Node7</title>
<path fill="none" stroke="#63b8ff" d="M76.31,-153.63C66.07,-144.1 55.44,-131.75 50,-118 41.68,-96.94 45.87,-71.55 51.78,-52.1"/>
<polygon fill="#63b8ff" stroke="#63b8ff" points="55.02,-53.43 54.89,-42.84 48.38,-51.2 55.02,-53.43"/>
</g>
<!-- Node30&#45;&gt;Node2 -->
<g id="edge45" class="edge">
<title>Node30&#45;&gt;Node2</title>
<path fill="none" stroke="#63b8ff" d="M1256.57,-195.1C1188.41,-210.74 1108.81,-224.05 1056.03,-231.91"/>
<polygon fill="#63b8ff" stroke="#63b8ff" points="1055.74,-228.42 1046.36,-233.34 1056.76,-235.34 1055.74,-228.42"/>
</g>
<!-- Node30&#45;&gt;Node7 -->
<g id="edge46" class="edge">
<title>Node30&#45;&gt;Node7</title>
<path fill="none" stroke="#63b8ff" d="M1298.96,-153.79C1273.37,-125.88 1229.35,-78.09 1227,-77 1128.88,-31.53 382.14,-23.3 139.73,-21.82"/>
<polygon fill="#63b8ff" stroke="#63b8ff" points="139.77,-18.32 129.75,-21.76 139.73,-25.32 139.77,-18.32"/>
</g>
<!-- Node30&#45;&gt;Node31 -->
<g id="edge47" class="edge">
<title>Node30&#45;&gt;Node31</title>
<path fill="none" stroke="#63b8ff" d="M1321.2,-153.79C1322.79,-146.36 1324.63,-137.71 1326.39,-129.49"/>
<polygon fill="#63b8ff" stroke="#63b8ff" points="1329.79,-130.32 1328.45,-119.81 1322.94,-128.86 1329.79,-130.32"/>
</g>
<!-- Node31&#45;&gt;Node1 -->
<g id="edge50" class="edge">
<title>Node31&#45;&gt;Node1</title>
<path fill="none" stroke="#63b8ff" d="M1391.91,-113.51C1398.02,-115.12 1404.13,-116.66 1410,-118 1663.71,-175.84 1726.93,-66.06 1621,-195 1554.63,-275.79 1241.1,-303.77 1085.67,-312.69"/>
<polygon fill="#63b8ff" stroke="#63b8ff" points="1085.6,-309.19 1075.82,-313.24 1085.99,-316.18 1085.6,-309.19"/>
</g>
<!-- Node31&#45;&gt;Node2 -->
<g id="edge48" class="edge">
<title>Node31&#45;&gt;Node2</title>
<path fill="none" stroke="#63b8ff" d="M1357.11,-118.25C1379.58,-138.98 1406.74,-171.75 1386,-195 1364.46,-219.15 1159.3,-232.03 1056.34,-237.02"/>
<polygon fill="#63b8ff" stroke="#63b8ff" points="1056.25,-233.52 1046.42,-237.49 1056.58,-240.51 1056.25,-233.52"/>
</g>
<!-- Node31&#45;&gt;Node7 -->
<g id="edge49" class="edge">
<title>Node31&#45;&gt;Node7</title>
<path fill="none" stroke="#63b8ff" d="M1274.26,-79.65C1269.46,-78.63 1264.67,-77.72 1260,-77 1042.7,-43.34 367.68,-27.41 139.93,-22.89"/>
<polygon fill="#63b8ff" stroke="#63b8ff" points="140.04,-19.39 129.97,-22.7 139.9,-26.39 140.04,-19.39"/>
</g>
</g>
</svg>
        <g id="navigator" transform="translate(0 0)" fill="#404254">
                <rect fill="#f2f5e9" fill-opacity="0.5" stroke="#606060" stroke-width=".5" x="0" y="0" width="60" height="60"/>
                <use id="zoomplus" xlink:href="#zoomPlus" x="17" y="9" onmousedown="handleZoom(evt,'in')"/>
                <use id="zoomminus" xlink:href="#zoomMin" x="42" y="9" onmousedown="handleZoom(evt,'out')"/>
                <use id="reset" xlink:href="#resetDef" x="30" y="36" onmousedown="handleReset()"/>
                <g id="arrowUp" xlink:href="#dirArrow" transform="translate(30 24)" onmousedown="handlePan(0,-1)">
                  <use xlink:href="#rim" fill="#404040">
                        <set attributeName="fill" to="#808080" begin="arrowUp.mouseover" end="arrowUp.mouseout"/>
                  </use>
                  <path fill="none" stroke="white" stroke-width="1.5" d="M0,-3.0v7 M-2.5,-0.5L0,-3.0L2.5,-0.5"/>
                </g>
                <g id="arrowRight" xlink:href="#dirArrow" transform="rotate(90) translate(36 -43)" onmousedown="handlePan(1,0)">
                  <use xlink:href="#rim" fill="#404040">
                        <set attributeName="fill" to="#808080" begin="arrowRight.mouseover" end="arrowRight.mouseout"/>
                  </use>
                  <path fill="none" stroke="white" stroke-width="1.5" d="M0,-3.0v7 M-2.5,-0.5L0,-3.0L2.5,-0.5"/>
                </g>
                <g id="arrowDown" xlink:href="#dirArrow" transform="rotate(180) translate(-30 -48)" onmousedown="handlePan(0,1)">
                  <use xlink:href="#rim" fill="#404040">
                        <set attributeName="fill" to="#808080" begin="arrowDown.mouseover" end="arrowDown.mouseout"/>
                  </use>
                  <path fill="none" stroke="white" stroke-width="1.5" d="M0,-3.0v7 M-2.5,-0.5L0,-3.0L2.5,-0.5"/>
                </g>
                <g id="arrowLeft" xlink:href="#dirArrow" transform="rotate(270) translate(-36 17)" onmousedown="handlePan(-1,0)">
                  <use xlink:href="#rim" fill="#404040">
                        <set attributeName="fill" to="#808080" begin="arrowLeft.mouseover" end="arrowLeft.mouseout"/>
                  </use>
                  <path fill="none" stroke="white" stroke-width="1.5" d="M0,-3.0v7 M-2.5,-0.5L0,-3.0L2.5,-0.5"/>
                </g>
        </g>
        <svg viewBox="0 0 15 15" width="100%" height="30px" preserveAspectRatio="xMaxYMin meet">
         <g id="arrow_out" transform="scale(0.3 0.3)">
          <a xlink:href="_idle__state_8h__incl_org.svg" target="_base">
           <rect id="button" ry="5" rx="5" y="6" x="6" height="38" width="38"
                fill="#f2f5e9" fill-opacity="0.5" stroke="#606060" stroke-width="1.0"/>
           <path id="arrow"
             d="M 11.500037,31.436501 C 11.940474,20.09759 22.043105,11.32322 32.158766,21.979434 L 37.068811,17.246167 C 37.068811,17.246167 37.088388,32 37.088388,32 L 22.160133,31.978069 C 22.160133,31.978069 26.997745,27.140456 26.997745,27.140456 C 18.528582,18.264221 13.291696,25.230495 11.500037,31.436501 z"
             style="fill:#404040;"/>
          </a>
         </g>
        </svg>
</svg>
