<?xml version="1.0" encoding="UTF-8" standalone="no"?>
<!DOCTYPE svg PUBLIC "-//W3C//DTD SVG 1.1//EN"
 "http://www.w3.org/Graphics/SVG/1.1/DTD/svg11.dtd">
<!-- Generated by graphviz version 7.0.2 (20221119.0110)
 -->
<!-- Title: C:/Users/juanh/OneDrive/Escritorio/Sistemas Embebidos/Proyecto final/LAL Control MbedOS/src/Port/machine_state_pattern/Idle_state.cpp Pages: 1 -->
<svg width="1512pt" height="632pt"
 viewBox="0.00 0.00 1512.00 632.00" xmlns="http://www.w3.org/2000/svg" xmlns:xlink="http://www.w3.org/1999/xlink">
<g id="graph0" class="graph" transform="scale(1 1) rotate(0) translate(4 628)">
<title>C:/Users/juanh/OneDrive/Escritorio/Sistemas Embebidos/Proyecto final/LAL Control MbedOS/src/Port/machine_state_pattern/Idle_state.cpp</title>
<!-- Node1 -->
<g id="node1" class="node">
<title>Node1</title>
<g id="a_node1"><a xlink:title="Implementación de Idle_state.h.">
<polygon fill="#999999" stroke="#666666" points="1415,-624 1253,-624 1253,-561 1415,-561 1415,-624"/>
<text text-anchor="start" x="1261" y="-612" font-family="Helvetica,sans-Serif" font-size="10.00">C:/Users/juanh/OneDrive</text>
<text text-anchor="start" x="1261" y="-601" font-family="Helvetica,sans-Serif" font-size="10.00">/Escritorio/Sistemas Embebidos</text>
<text text-anchor="start" x="1261" y="-590" font-family="Helvetica,sans-Serif" font-size="10.00">/Proyecto final/LAL Control</text>
<text text-anchor="start" x="1261" y="-579" font-family="Helvetica,sans-Serif" font-size="10.00"> MbedOS/src/Port/machine_state</text>
<text text-anchor="middle" x="1334" y="-568" font-family="Helvetica,sans-Serif" font-size="10.00">_pattern/Idle_state.cpp</text>
</a>
</g>
</g>
<!-- Node2 -->
<g id="node2" class="node">
<title>Node2</title>
<g id="a_node2"><a xlink:href="_idle__state_8h.html" target="_top" xlink:title="Clase de estado de reposo.">
<polygon fill="white" stroke="#666666" points="1392,-525 1276,-525 1276,-484 1392,-484 1392,-525"/>
<text text-anchor="start" x="1284" y="-513" font-family="Helvetica,sans-Serif" font-size="10.00">machine_state_pattern</text>
<text text-anchor="start" x="1284" y="-502" font-family="Helvetica,sans-Serif" font-size="10.00">/machine_states/Idle</text>
<text text-anchor="middle" x="1334" y="-491" font-family="Helvetica,sans-Serif" font-size="10.00">_state.h</text>
</a>
</g>
</g>
<!-- Node1&#45;&gt;Node2 -->
<g id="edge1" class="edge">
<title>Node1&#45;&gt;Node2</title>
<path fill="none" stroke="#63b8ff" d="M1334,-560.94C1334,-553.11 1334,-544.69 1334,-536.83"/>
<polygon fill="#63b8ff" stroke="#63b8ff" points="1337.5,-537 1334,-527 1330.5,-537 1337.5,-537"/>
</g>
<!-- Node3 -->
<g id="node3" class="node">
<title>Node3</title>
<g id="a_node3"><a xlink:href="_control__system_8h_source.html" target="_top" xlink:title=" ">
<polygon fill="white" stroke="#666666" points="925.5,-294 832.5,-294 832.5,-275 925.5,-275 925.5,-294"/>
<text text-anchor="middle" x="879" y="-282" font-family="Helvetica,sans-Serif" font-size="10.00">Control_system.h</text>
</a>
</g>
</g>
<!-- Node2&#45;&gt;Node3 -->
<g id="edge2" class="edge">
<title>Node2&#45;&gt;Node3</title>
<path fill="none" stroke="#63b8ff" d="M1292.42,-483.58C1201.27,-439.91 985.83,-336.69 907.83,-299.31"/>
<polygon fill="#63b8ff" stroke="#63b8ff" points="909.66,-296.31 899.13,-295.14 906.63,-302.62 909.66,-296.31"/>
</g>
<!-- Node8 -->
<g id="node8" class="node">
<title>Node8</title>
<g id="a_node8"><a xlink:href="_abstract__state_8h.html" target="_top" xlink:title="Clase de estado abstracta.">
<polygon fill="white" stroke="#666666" points="1492,-162 1364,-162 1364,-121 1492,-121 1492,-162"/>
<text text-anchor="start" x="1372" y="-150" font-family="Helvetica,sans-Serif" font-size="10.00">machine_state_pattern</text>
<text text-anchor="start" x="1372" y="-139" font-family="Helvetica,sans-Serif" font-size="10.00">/machine_states/Abstract</text>
<text text-anchor="middle" x="1428" y="-128" font-family="Helvetica,sans-Serif" font-size="10.00">_state.h</text>
</a>
</g>
</g>
<!-- Node2&#45;&gt;Node8 -->
<g id="edge53" class="edge">
<title>Node2&#45;&gt;Node8</title>
<path fill="none" stroke="#63b8ff" d="M1389.45,-483.57C1408.85,-474.75 1429.81,-462.93 1446,-448 1482.79,-414.08 1504,-401.54 1504,-351.5 1504,-351.5 1504,-351.5 1504,-283.5 1504,-240.28 1475.98,-197.56 1453.97,-170.67"/>
<polygon fill="#63b8ff" stroke="#63b8ff" points="1456.9,-168.71 1447.76,-163.34 1451.55,-173.23 1456.9,-168.71"/>
</g>
<!-- Node34 -->
<g id="node34" class="node">
<title>Node34</title>
<g id="a_node34"><a xlink:href="_alarm__state_8h.html" target="_top" xlink:title="Clase de estado de control del motor.">
<polygon fill="white" stroke="#666666" points="1436.5,-448 1319.5,-448 1319.5,-407 1436.5,-407 1436.5,-448"/>
<text text-anchor="start" x="1327.5" y="-436" font-family="Helvetica,sans-Serif" font-size="10.00">machine_state_pattern</text>
<text text-anchor="start" x="1327.5" y="-425" font-family="Helvetica,sans-Serif" font-size="10.00">/machine_states/Alarm</text>
<text text-anchor="middle" x="1378" y="-414" font-family="Helvetica,sans-Serif" font-size="10.00">_state.h</text>
</a>
</g>
</g>
<!-- Node2&#45;&gt;Node34 -->
<g id="edge54" class="edge">
<title>Node2&#45;&gt;Node34</title>
<path fill="none" stroke="#63b8ff" d="M1339.54,-483.79C1343.5,-475.85 1348.78,-466.51 1354.21,-457.8"/>
<polygon fill="#63b8ff" stroke="#63b8ff" points="1357.01,-459.9 1359.51,-449.6 1351.14,-456.1 1357.01,-459.9"/>
</g>
<!-- Node35 -->
<g id="node35" class="node">
<title>Node35</title>
<g id="a_node35"><a xlink:href="_check__instruction__state_8h_source.html" target="_top" xlink:title=" ">
<polygon fill="white" stroke="#666666" points="1437.5,-371 1318.5,-371 1318.5,-330 1437.5,-330 1437.5,-371"/>
<text text-anchor="start" x="1326.5" y="-359" font-family="Helvetica,sans-Serif" font-size="10.00">machine_state_pattern</text>
<text text-anchor="start" x="1326.5" y="-348" font-family="Helvetica,sans-Serif" font-size="10.00">/machine_states/Check</text>
<text text-anchor="middle" x="1378" y="-337" font-family="Helvetica,sans-Serif" font-size="10.00">_instruction_state.h</text>
</a>
</g>
</g>
<!-- Node2&#45;&gt;Node35 -->
<g id="edge62" class="edge">
<title>Node2&#45;&gt;Node35</title>
<path fill="none" stroke="#63b8ff" d="M1321.97,-483.86C1311.34,-463.79 1299.2,-432.09 1311,-407 1316.16,-396.02 1324.68,-386.47 1333.94,-378.52"/>
<polygon fill="#63b8ff" stroke="#63b8ff" points="1336.09,-381.29 1341.78,-372.35 1331.76,-375.79 1336.09,-381.29"/>
</g>
<!-- Node4 -->
<g id="node4" class="node">
<title>Node4</title>
<g id="a_node4"><a xlink:href="_subject_8h.html" target="_top" xlink:title=" ">
<polygon fill="white" stroke="#666666" points="1144,-156.5 1016,-156.5 1016,-126.5 1144,-126.5 1144,-156.5"/>
<text text-anchor="start" x="1024" y="-144.5" font-family="Helvetica,sans-Serif" font-size="10.00">observer_pattern/subjects</text>
<text text-anchor="middle" x="1080" y="-133.5" font-family="Helvetica,sans-Serif" font-size="10.00">/Subject.h</text>
</a>
</g>
</g>
<!-- Node3&#45;&gt;Node4 -->
<g id="edge3" class="edge">
<title>Node3&#45;&gt;Node4</title>
<path fill="none" stroke="#63b8ff" d="M891.01,-274.79C902.65,-266.16 920.61,-252.34 935,-239 953.22,-222.11 953.24,-213.05 973,-198 991.77,-183.7 1014.76,-171.24 1034.61,-161.76"/>
<polygon fill="#63b8ff" stroke="#63b8ff" points="1036,-164.97 1043.59,-157.58 1033.05,-158.62 1036,-164.97"/>
</g>
<!-- Node7 -->
<g id="node7" class="node">
<title>Node7</title>
<g id="a_node7"><a xlink:href="_machine_8h.html" target="_top" xlink:title="Clase de máquina abstracta.">
<polygon fill="white" stroke="#666666" points="1248,-233.5 1132,-233.5 1132,-203.5 1248,-203.5 1248,-233.5"/>
<text text-anchor="start" x="1140" y="-221.5" font-family="Helvetica,sans-Serif" font-size="10.00">machine_state_pattern</text>
<text text-anchor="middle" x="1190" y="-210.5" font-family="Helvetica,sans-Serif" font-size="10.00">/Machine.h</text>
</a>
</g>
</g>
<!-- Node3&#45;&gt;Node7 -->
<g id="edge6" class="edge">
<title>Node3&#45;&gt;Node7</title>
<path fill="none" stroke="#63b8ff" d="M925.62,-276.46C974.94,-268.67 1054.9,-255.08 1123,-239 1125.79,-238.34 1128.63,-237.64 1131.49,-236.91"/>
<polygon fill="#63b8ff" stroke="#63b8ff" points="1132.35,-240.3 1141.12,-234.35 1130.55,-233.54 1132.35,-240.3"/>
</g>
<!-- Node9 -->
<g id="node9" class="node">
<title>Node9</title>
<g id="a_node9"><a xlink:href="_display_8h.html" target="_top" xlink:title="Controlador de LCD hd44780 por interfaz I2C.">
<polygon fill="white" stroke="#666666" points="814,-228 726,-228 726,-209 814,-209 814,-228"/>
<text text-anchor="middle" x="770" y="-216" font-family="Helvetica,sans-Serif" font-size="10.00">drivers/Display.h</text>
</a>
</g>
</g>
<!-- Node3&#45;&gt;Node9 -->
<g id="edge8" class="edge">
<title>Node3&#45;&gt;Node9</title>
<path fill="none" stroke="#63b8ff" d="M863.84,-274.6C845.95,-264.09 815.93,-246.47 794.67,-233.99"/>
<polygon fill="#63b8ff" stroke="#63b8ff" points="796.73,-231.13 786.33,-229.09 793.18,-237.17 796.73,-231.13"/>
</g>
<!-- Node19 -->
<g id="node19" class="node">
<title>Node19</title>
<g id="a_node19"><a xlink:href="user__messages_8h.html" target="_top" xlink:title="Archivo para la configuración de interfaz con el usuario.">
<polygon fill="white" stroke="#666666" points="926,-228 832,-228 832,-209 926,-209 926,-228"/>
<text text-anchor="middle" x="879" y="-216" font-family="Helvetica,sans-Serif" font-size="10.00">user_messages.h</text>
</a>
</g>
</g>
<!-- Node3&#45;&gt;Node19 -->
<g id="edge21" class="edge">
<title>Node3&#45;&gt;Node19</title>
<path fill="none" stroke="#63b8ff" d="M879,-274.6C879,-265.62 879,-251.45 879,-239.72"/>
<polygon fill="#63b8ff" stroke="#63b8ff" points="882.5,-239.84 879,-229.84 875.5,-239.84 882.5,-239.84"/>
</g>
<!-- Node20 -->
<g id="node20" class="node">
<title>Node20</title>
<g id="a_node20"><a xlink:href="_system__observer_8h.html" target="_top" xlink:title="Clase observador del sistema de control.">
<polygon fill="white" stroke="#666666" points="1114,-233.5 982,-233.5 982,-203.5 1114,-203.5 1114,-233.5"/>
<text text-anchor="start" x="990" y="-221.5" font-family="Helvetica,sans-Serif" font-size="10.00">observer_pattern/observers</text>
<text text-anchor="middle" x="1048" y="-210.5" font-family="Helvetica,sans-Serif" font-size="10.00">/System_observer.h</text>
</a>
</g>
</g>
<!-- Node3&#45;&gt;Node20 -->
<g id="edge22" class="edge">
<title>Node3&#45;&gt;Node20</title>
<path fill="none" stroke="#63b8ff" d="M897.65,-274.6C920.72,-265.12 960.63,-249.84 993.59,-237.77"/>
<polygon fill="#63b8ff" stroke="#63b8ff" points="994.39,-241.2 1002.59,-234.5 992,-234.63 994.39,-241.2"/>
</g>
<!-- Node22 -->
<g id="node22" class="node">
<title>Node22</title>
<g id="a_node22"><a xlink:href="_temperature__sensor_8h.html" target="_top" xlink:title="Controlador para sensor de temperatura DS18B20.">
<polygon fill="white" stroke="#666666" points="467.5,-233.5 366.5,-233.5 366.5,-203.5 467.5,-203.5 467.5,-233.5"/>
<text text-anchor="start" x="374.5" y="-221.5" font-family="Helvetica,sans-Serif" font-size="10.00">drivers/Temperature</text>
<text text-anchor="middle" x="417" y="-210.5" font-family="Helvetica,sans-Serif" font-size="10.00">_sensor.h</text>
</a>
</g>
</g>
<!-- Node3&#45;&gt;Node22 -->
<g id="edge27" class="edge">
<title>Node3&#45;&gt;Node22</title>
<path fill="none" stroke="#63b8ff" d="M832.08,-281.41C756.55,-277.36 603.65,-266.29 477,-239 474.24,-238.4 471.42,-237.73 468.59,-237"/>
<polygon fill="#63b8ff" stroke="#63b8ff" points="469.72,-233.68 459.14,-234.36 467.83,-240.42 469.72,-233.68"/>
</g>
<!-- Node25 -->
<g id="node25" class="node">
<title>Node25</title>
<g id="a_node25"><a xlink:href="_moisture__sensor_8h.html" target="_top" xlink:title="Controlador de sensor de humedad analógico.">
<polygon fill="white" stroke="#666666" points="662,-79.5 534,-79.5 534,-60.5 662,-60.5 662,-79.5"/>
<text text-anchor="middle" x="598" y="-67.5" font-family="Helvetica,sans-Serif" font-size="10.00">drivers/Moisture_sensor.h</text>
</a>
</g>
</g>
<!-- Node3&#45;&gt;Node25 -->
<g id="edge30" class="edge">
<title>Node3&#45;&gt;Node25</title>
<path fill="none" stroke="#63b8ff" d="M832.14,-279.14C797.7,-274.02 751.16,-262.94 717,-239 687.97,-218.66 632.49,-128.98 608.97,-89.63"/>
<polygon fill="#63b8ff" stroke="#63b8ff" points="612.12,-88.07 604.01,-81.26 606.1,-91.65 612.12,-88.07"/>
</g>
<!-- Node26 -->
<g id="node26" class="node">
<title>Node26</title>
<g id="a_node26"><a xlink:href="types_8h.html" target="_top" xlink:title="Archivo de definición de tipos de dato.">
<polygon fill="white" stroke="#666666" points="150.5,-151 101.5,-151 101.5,-132 150.5,-132 150.5,-151"/>
<text text-anchor="middle" x="126" y="-139" font-family="Helvetica,sans-Serif" font-size="10.00">types.h</text>
</a>
</g>
</g>
<!-- Node3&#45;&gt;Node26 -->
<g id="edge32" class="edge">
<title>Node3&#45;&gt;Node26</title>
<path fill="none" stroke="#63b8ff" d="M832.26,-283.92C678.7,-284.85 196.63,-284.14 145,-239 123.62,-220.3 122,-185.16 123.49,-162.84"/>
<polygon fill="#63b8ff" stroke="#63b8ff" points="126.97,-163.19 124.46,-152.9 120.01,-162.52 126.97,-163.19"/>
</g>
<!-- Node27 -->
<g id="node27" class="node">
<title>Node27</title>
<g id="a_node27"><a xlink:href="_buzzer_8h.html" target="_top" xlink:title="Controlador de Buzzer de 12 milimetros sin oscilador.">
<polygon fill="white" stroke="#666666" points="572,-228 486,-228 486,-209 572,-209 572,-228"/>
<text text-anchor="middle" x="529" y="-216" font-family="Helvetica,sans-Serif" font-size="10.00">drivers/Buzzer.h</text>
</a>
</g>
</g>
<!-- Node3&#45;&gt;Node27 -->
<g id="edge33" class="edge">
<title>Node3&#45;&gt;Node27</title>
<path fill="none" stroke="#63b8ff" d="M832.19,-279.58C772.98,-273.93 668.22,-261.6 581,-239 574.3,-237.27 567.28,-234.97 560.63,-232.57"/>
<polygon fill="#63b8ff" stroke="#63b8ff" points="561.93,-229.32 551.34,-229.04 559.44,-235.86 561.93,-229.32"/>
</g>
<!-- Node29 -->
<g id="node29" class="node">
<title>Node29</title>
<g id="a_node29"><a xlink:href="_motor_8h.html" target="_top" xlink:title="Controlador de motor de 220 VAC.">
<polygon fill="white" stroke="#666666" points="670,-228 590,-228 590,-209 670,-209 670,-228"/>
<text text-anchor="middle" x="630" y="-216" font-family="Helvetica,sans-Serif" font-size="10.00">drivers/Motor.h</text>
</a>
</g>
</g>
<!-- Node3&#45;&gt;Node29 -->
<g id="edge36" class="edge">
<title>Node3&#45;&gt;Node29</title>
<path fill="none" stroke="#63b8ff" d="M832.49,-274.55C792.73,-266.51 734.15,-253.72 684,-239 677.38,-237.06 670.4,-234.74 663.73,-232.39"/>
<polygon fill="#63b8ff" stroke="#63b8ff" points="664.94,-229.11 654.34,-228.99 662.55,-235.69 664.94,-229.11"/>
</g>
<!-- Node30 -->
<g id="node30" class="node">
<title>Node30</title>
<g id="a_node30"><a xlink:href="_dual___l_e_d_8h.html" target="_top" xlink:title="Controlador de LED RG con PWM.">
<polygon fill="white" stroke="#666666" points="247.5,-228 154.5,-228 154.5,-209 247.5,-209 247.5,-228"/>
<text text-anchor="middle" x="201" y="-216" font-family="Helvetica,sans-Serif" font-size="10.00">drivers/Dual_led.h</text>
</a>
</g>
</g>
<!-- Node3&#45;&gt;Node30 -->
<g id="edge39" class="edge">
<title>Node3&#45;&gt;Node30</title>
<path fill="none" stroke="#63b8ff" d="M832.25,-281.79C707.03,-276.96 366.12,-262.01 256,-239 248.27,-237.38 240.15,-234.95 232.59,-232.33"/>
<polygon fill="#63b8ff" stroke="#63b8ff" points="234.05,-229.14 223.46,-228.98 231.64,-235.71 234.05,-229.14"/>
</g>
<!-- Node31 -->
<g id="node31" class="node">
<title>Node31</title>
<g id="a_node31"><a xlink:href="_digital__dual___l_e_d_8h_source.html" target="_top" xlink:title=" ">
<polygon fill="white" stroke="#666666" points="98,-233.5 0,-233.5 0,-203.5 98,-203.5 98,-233.5"/>
<text text-anchor="start" x="8" y="-221.5" font-family="Helvetica,sans-Serif" font-size="10.00">drivers/Digital_dual</text>
<text text-anchor="middle" x="49" y="-210.5" font-family="Helvetica,sans-Serif" font-size="10.00">_led.h</text>
</a>
</g>
</g>
<!-- Node3&#45;&gt;Node31 -->
<g id="edge43" class="edge">
<title>Node3&#45;&gt;Node31</title>
<path fill="none" stroke="#63b8ff" d="M832.17,-282.27C687.88,-278.24 251.45,-264.24 112,-239 108.62,-238.39 105.16,-237.65 101.69,-236.83"/>
<polygon fill="#63b8ff" stroke="#63b8ff" points="102.69,-233.47 92.13,-234.33 100.92,-240.24 102.69,-233.47"/>
</g>
<!-- Node32 -->
<g id="node32" class="node">
<title>Node32</title>
<g id="a_node32"><a xlink:href="_cooler_8h.html" target="_top" xlink:title="Controlador de ventilador de 12 volts y 5 milímteros.">
<polygon fill="white" stroke="#666666" points="348.5,-228 265.5,-228 265.5,-209 348.5,-209 348.5,-228"/>
<text text-anchor="middle" x="307" y="-216" font-family="Helvetica,sans-Serif" font-size="10.00">drivers/Cooler.h</text>
</a>
</g>
</g>
<!-- Node3&#45;&gt;Node32 -->
<g id="edge46" class="edge">
<title>Node3&#45;&gt;Node32</title>
<path fill="none" stroke="#63b8ff" d="M832.22,-283.97C740.02,-283.91 528.87,-278.96 357,-239 350.26,-237.43 343.21,-235.13 336.62,-232.66"/>
<polygon fill="#63b8ff" stroke="#63b8ff" points="338.05,-229.46 327.46,-228.98 335.44,-235.96 338.05,-229.46"/>
</g>
<!-- Node33 -->
<g id="node33" class="node">
<title>Node33</title>
<g id="a_node33"><a xlink:href="_shutdown__state_8h.html" target="_top" xlink:title="Clase de estado de apagado del sistema.">
<polygon fill="white" stroke="#666666" points="1400,-239 1266,-239 1266,-198 1400,-198 1400,-239"/>
<text text-anchor="start" x="1274" y="-227" font-family="Helvetica,sans-Serif" font-size="10.00">machine_state_pattern</text>
<text text-anchor="start" x="1274" y="-216" font-family="Helvetica,sans-Serif" font-size="10.00">/machine_states/Shutdown</text>
<text text-anchor="middle" x="1333" y="-205" font-family="Helvetica,sans-Serif" font-size="10.00">_state.h</text>
</a>
</g>
</g>
<!-- Node3&#45;&gt;Node33 -->
<g id="edge49" class="edge">
<title>Node3&#45;&gt;Node33</title>
<path fill="none" stroke="#63b8ff" d="M925.9,-279.52C996.34,-273.49 1133.02,-260.42 1248,-239 1250.16,-238.6 1252.35,-238.17 1254.56,-237.72"/>
<polygon fill="#63b8ff" stroke="#63b8ff" points="1255.2,-241.16 1264.23,-235.63 1253.72,-234.32 1255.2,-241.16"/>
</g>
<!-- Node5 -->
<g id="node5" class="node">
<title>Node5</title>
<g id="a_node5"><a xlink:href="_subject__interface_8h.html" target="_top" xlink:title="Clase para interfaz para implementar el sujeto.">
<polygon fill="white" stroke="#666666" points="1331,-85 1203,-85 1203,-55 1331,-55 1331,-85"/>
<text text-anchor="start" x="1211" y="-73" font-family="Helvetica,sans-Serif" font-size="10.00">observer_pattern/subjects</text>
<text text-anchor="middle" x="1267" y="-62" font-family="Helvetica,sans-Serif" font-size="10.00">/Subject_interface.h</text>
</a>
</g>
</g>
<!-- Node4&#45;&gt;Node5 -->
<g id="edge4" class="edge">
<title>Node4&#45;&gt;Node5</title>
<path fill="none" stroke="#63b8ff" d="M1118.75,-126.1C1147.46,-115.43 1186.8,-100.81 1217.74,-89.31"/>
<polygon fill="#63b8ff" stroke="#63b8ff" points="1218.73,-92.67 1226.88,-85.91 1216.29,-86.11 1218.73,-92.67"/>
</g>
<!-- Node6 -->
<g id="node6" class="node">
<title>Node6</title>
<g id="a_node6"><a xlink:href="_observer__interface_8h.html" target="_top" xlink:title="Clase para interfaz para implementar el observador.">
<polygon fill="white" stroke="#666666" points="1185,-85 1053,-85 1053,-55 1185,-55 1185,-85"/>
<text text-anchor="start" x="1061" y="-73" font-family="Helvetica,sans-Serif" font-size="10.00">observer_pattern/observers</text>
<text text-anchor="middle" x="1119" y="-62" font-family="Helvetica,sans-Serif" font-size="10.00">/Observer_interface.h</text>
</a>
</g>
</g>
<!-- Node4&#45;&gt;Node6 -->
<g id="edge5" class="edge">
<title>Node4&#45;&gt;Node6</title>
<path fill="none" stroke="#63b8ff" d="M1088.08,-126.1C1093.05,-117.25 1099.54,-105.67 1105.3,-95.42"/>
<polygon fill="#63b8ff" stroke="#63b8ff" points="1108.35,-97.14 1110.19,-86.7 1102.24,-93.71 1108.35,-97.14"/>
</g>
<!-- Node7&#45;&gt;Node8 -->
<g id="edge7" class="edge">
<title>Node7&#45;&gt;Node8</title>
<path fill="none" stroke="#63b8ff" d="M1235.89,-203.04C1269.35,-192.5 1315.4,-177.98 1354.03,-165.81"/>
<polygon fill="#63b8ff" stroke="#63b8ff" points="1354.78,-169.24 1363.27,-162.9 1352.68,-162.57 1354.78,-169.24"/>
</g>
<!-- Node10 -->
<g id="node10" class="node">
<title>Node10</title>
<g id="a_node10"><a xlink:href="display__settings_8h.html" target="_top" xlink:title="Archivo de configuración de la pantalla.">
<polygon fill="white" stroke="#666666" points="1034.5,-79.5 939.5,-79.5 939.5,-60.5 1034.5,-60.5 1034.5,-79.5"/>
<text text-anchor="middle" x="987" y="-67.5" font-family="Helvetica,sans-Serif" font-size="10.00">display_settings.h</text>
</a>
</g>
</g>
<!-- Node9&#45;&gt;Node10 -->
<g id="edge9" class="edge">
<title>Node9&#45;&gt;Node10</title>
<path fill="none" stroke="#63b8ff" d="M792.43,-208.58C823.18,-196.16 876.6,-173.85 894,-162 925.29,-140.7 955.47,-108.29 972.58,-88.45"/>
<polygon fill="#63b8ff" stroke="#63b8ff" points="975.11,-90.87 978.9,-80.97 969.77,-86.35 975.11,-90.87"/>
</g>
<!-- Node11 -->
<g id="node11" class="node">
<title>Node11</title>
<g id="a_node11"><a xlink:href="hd44780___i2_cexp_8h.html" target="_top" xlink:title="Adaptación de la biblioteca TextLCD de MbedOS 5. Permite utilizar un LCD hd44780 con un expansor de p...">
<polygon fill="white" stroke="#666666" points="885,-151 757,-151 757,-132 885,-132 885,-151"/>
<text text-anchor="middle" x="821" y="-139" font-family="Helvetica,sans-Serif" font-size="10.00">drivers/hd44780_I2Cexp.h</text>
</a>
</g>
</g>
<!-- Node9&#45;&gt;Node11 -->
<g id="edge10" class="edge">
<title>Node9&#45;&gt;Node11</title>
<path fill="none" stroke="#63b8ff" d="M776.05,-208.6C784.03,-196.87 798.25,-175.96 808.56,-160.79"/>
<polygon fill="#63b8ff" stroke="#63b8ff" points="811.38,-162.88 814.11,-152.64 805.59,-158.94 811.38,-162.88"/>
</g>
<!-- Node11&#45;&gt;Node10 -->
<g id="edge20" class="edge">
<title>Node11&#45;&gt;Node10</title>
<path fill="none" stroke="#63b8ff" d="M842.36,-131.56C871,-119.57 922.06,-98.19 955.22,-84.31"/>
<polygon fill="#63b8ff" stroke="#63b8ff" points="956.45,-87.58 964.32,-80.49 953.75,-81.13 956.45,-87.58"/>
</g>
<!-- Node12 -->
<g id="node12" class="node">
<title>Node12</title>
<g id="a_node12"><a xlink:title=" ">
<polygon fill="#e0e0e0" stroke="#999999" points="511.5,-19 462.5,-19 462.5,0 511.5,0 511.5,-19"/>
<text text-anchor="middle" x="487" y="-7" font-family="Helvetica,sans-Serif" font-size="10.00">mbed.h</text>
</a>
</g>
</g>
<!-- Node11&#45;&gt;Node12 -->
<g id="edge11" class="edge">
<title>Node11&#45;&gt;Node12</title>
<path fill="none" stroke="#63b8ff" d="M799.65,-131.52C776.58,-121.46 739.07,-104.03 709,-85 690.82,-73.49 690.35,-64.41 671,-55 622.79,-31.55 561.31,-19.91 523.05,-14.56"/>
<polygon fill="#63b8ff" stroke="#63b8ff" points="523.83,-11.13 513.46,-13.29 522.91,-18.07 523.83,-11.13"/>
</g>
<!-- Node13 -->
<g id="node13" class="node">
<title>Node13</title>
<g id="a_node13"><a xlink:title=" ">
<polygon fill="#e0e0e0" stroke="#999999" points="858,-19 810,-19 810,0 858,0 858,-19"/>
<text text-anchor="middle" x="834" y="-7" font-family="Helvetica,sans-Serif" font-size="10.00">stdlib.h</text>
</a>
</g>
</g>
<!-- Node11&#45;&gt;Node13 -->
<g id="edge12" class="edge">
<title>Node11&#45;&gt;Node13</title>
<path fill="none" stroke="#63b8ff" d="M823.01,-131.52C825.37,-120.59 829.19,-101.54 831,-85 833.01,-66.69 833.71,-45.71 833.94,-30.69"/>
<polygon fill="#63b8ff" stroke="#63b8ff" points="837.44,-30.79 834.02,-20.76 830.44,-30.73 837.44,-30.79"/>
</g>
<!-- Node14 -->
<g id="node14" class="node">
<title>Node14</title>
<g id="a_node14"><a xlink:href="hd44780__instruction__set_8h.html" target="_top" xlink:title="Set de instrucciones del LCD HD44780.">
<polygon fill="white" stroke="#666666" points="822,-85 718,-85 718,-55 822,-55 822,-85"/>
<text text-anchor="start" x="726" y="-73" font-family="Helvetica,sans-Serif" font-size="10.00">hd44780_instruction</text>
<text text-anchor="middle" x="770" y="-62" font-family="Helvetica,sans-Serif" font-size="10.00">_set.h</text>
</a>
</g>
</g>
<!-- Node11&#45;&gt;Node14 -->
<g id="edge13" class="edge">
<title>Node11&#45;&gt;Node14</title>
<path fill="none" stroke="#63b8ff" d="M814.54,-131.7C807.71,-122.38 796.63,-107.29 787.23,-94.49"/>
<polygon fill="#63b8ff" stroke="#63b8ff" points="790.11,-92.49 781.37,-86.49 784.46,-96.63 790.11,-92.49"/>
</g>
<!-- Node15 -->
<g id="node15" class="node">
<title>Node15</title>
<g id="a_node15"><a xlink:href="utils_8h_source.html" target="_top" xlink:title=" ">
<polygon fill="white" stroke="#666666" points="921.5,-79.5 878.5,-79.5 878.5,-60.5 921.5,-60.5 921.5,-79.5"/>
<text text-anchor="middle" x="900" y="-67.5" font-family="Helvetica,sans-Serif" font-size="10.00">utils.h</text>
</a>
</g>
</g>
<!-- Node11&#45;&gt;Node15 -->
<g id="edge15" class="edge">
<title>Node11&#45;&gt;Node15</title>
<path fill="none" stroke="#63b8ff" d="M831.01,-131.7C843.64,-120.58 865.62,-101.24 881.38,-87.38"/>
<polygon fill="#63b8ff" stroke="#63b8ff" points="883.49,-90.18 888.69,-80.95 878.87,-84.93 883.49,-90.18"/>
</g>
<!-- Node14&#45;&gt;Node12 -->
<g id="edge14" class="edge">
<title>Node14&#45;&gt;Node12</title>
<path fill="none" stroke="#63b8ff" d="M717.77,-57.89C713.11,-56.91 708.47,-55.93 704,-55 640.2,-41.69 565.78,-26.5 522.75,-17.76"/>
<polygon fill="#63b8ff" stroke="#63b8ff" points="523.72,-14.38 513.23,-15.82 522.33,-21.24 523.72,-14.38"/>
</g>
<!-- Node15&#45;&gt;Node13 -->
<g id="edge18" class="edge">
<title>Node15&#45;&gt;Node13</title>
<path fill="none" stroke="#63b8ff" d="M889.98,-60.12C880.09,-51.35 864.74,-37.75 852.62,-27"/>
<polygon fill="#63b8ff" stroke="#63b8ff" points="855.06,-24.49 845.25,-20.47 850.41,-29.72 855.06,-24.49"/>
</g>
<!-- Node16 -->
<g id="node16" class="node">
<title>Node16</title>
<g id="a_node16"><a xlink:title=" ">
<polygon fill="#e0e0e0" stroke="#999999" points="923.5,-19 876.5,-19 876.5,0 923.5,0 923.5,-19"/>
<text text-anchor="middle" x="900" y="-7" font-family="Helvetica,sans-Serif" font-size="10.00">math.h</text>
</a>
</g>
</g>
<!-- Node15&#45;&gt;Node16 -->
<g id="edge16" class="edge">
<title>Node15&#45;&gt;Node16</title>
<path fill="none" stroke="#63b8ff" d="M900,-60.37C900,-52.5 900,-40.6 900,-30.39"/>
<polygon fill="#63b8ff" stroke="#63b8ff" points="903.5,-30.68 900,-20.68 896.5,-30.68 903.5,-30.68"/>
</g>
<!-- Node17 -->
<g id="node17" class="node">
<title>Node17</title>
<g id="a_node17"><a xlink:title=" ">
<polygon fill="#e0e0e0" stroke="#999999" points="988,-19 942,-19 942,0 988,0 988,-19"/>
<text text-anchor="middle" x="965" y="-7" font-family="Helvetica,sans-Serif" font-size="10.00">stdio.h</text>
</a>
</g>
</g>
<!-- Node15&#45;&gt;Node17 -->
<g id="edge17" class="edge">
<title>Node15&#45;&gt;Node17</title>
<path fill="none" stroke="#63b8ff" d="M909.87,-60.12C919.61,-51.35 934.72,-37.75 946.66,-27"/>
<polygon fill="#63b8ff" stroke="#63b8ff" points="948.82,-29.77 953.91,-20.48 944.14,-24.57 948.82,-29.77"/>
</g>
<!-- Node18 -->
<g id="node18" class="node">
<title>Node18</title>
<g id="a_node18"><a xlink:title=" ">
<polygon fill="#e0e0e0" stroke="#999999" points="1055.5,-19 1006.5,-19 1006.5,0 1055.5,0 1055.5,-19"/>
<text text-anchor="middle" x="1031" y="-7" font-family="Helvetica,sans-Serif" font-size="10.00">string.h</text>
</a>
</g>
</g>
<!-- Node15&#45;&gt;Node18 -->
<g id="edge19" class="edge">
<title>Node15&#45;&gt;Node18</title>
<path fill="none" stroke="#63b8ff" d="M919.67,-60.1C923.43,-58.4 927.34,-56.64 931,-55 954.41,-44.51 980.94,-32.7 1000.79,-23.89"/>
<polygon fill="#63b8ff" stroke="#63b8ff" points="1001.96,-27.2 1009.68,-19.95 999.12,-20.8 1001.96,-27.2"/>
</g>
<!-- Node20&#45;&gt;Node3 -->
<g id="edge26" class="edge">
<title>Node20&#45;&gt;Node3</title>
<path fill="none" stroke="#63b8ff" d="M1015.53,-233.98C987.69,-245.05 947.7,-260.16 918.12,-270.77"/>
<polygon fill="#63b8ff" stroke="#63b8ff" points="917.02,-267.45 908.77,-274.09 919.36,-274.05 917.02,-267.45"/>
</g>
<!-- Node21 -->
<g id="node21" class="node">
<title>Node21</title>
<g id="a_node21"><a xlink:href="_observer_8h.html" target="_top" xlink:title="Clase observador.">
<polygon fill="white" stroke="#666666" points="1294,-156.5 1162,-156.5 1162,-126.5 1294,-126.5 1294,-156.5"/>
<text text-anchor="start" x="1170" y="-144.5" font-family="Helvetica,sans-Serif" font-size="10.00">observer_pattern/observers</text>
<text text-anchor="middle" x="1228" y="-133.5" font-family="Helvetica,sans-Serif" font-size="10.00">/Observer.h</text>
</a>
</g>
</g>
<!-- Node20&#45;&gt;Node21 -->
<g id="edge23" class="edge">
<title>Node20&#45;&gt;Node21</title>
<path fill="none" stroke="#63b8ff" d="M1082.71,-203.04C1111.22,-191.16 1151.82,-174.24 1182.86,-161.31"/>
<polygon fill="#63b8ff" stroke="#63b8ff" points="1184.12,-164.58 1192,-157.5 1181.43,-158.11 1184.12,-164.58"/>
</g>
<!-- Node21&#45;&gt;Node5 -->
<g id="edge24" class="edge">
<title>Node21&#45;&gt;Node5</title>
<path fill="none" stroke="#63b8ff" d="M1236.08,-126.1C1241.05,-117.25 1247.54,-105.67 1253.3,-95.42"/>
<polygon fill="#63b8ff" stroke="#63b8ff" points="1256.35,-97.14 1258.19,-86.7 1250.24,-93.71 1256.35,-97.14"/>
</g>
<!-- Node21&#45;&gt;Node6 -->
<g id="edge25" class="edge">
<title>Node21&#45;&gt;Node6</title>
<path fill="none" stroke="#63b8ff" d="M1205.42,-126.1C1189.63,-116.04 1168.33,-102.46 1150.83,-91.3"/>
<polygon fill="#63b8ff" stroke="#63b8ff" points="1153.15,-88.62 1142.83,-86.2 1149.38,-94.52 1153.15,-88.62"/>
</g>
<!-- Node23 -->
<g id="node23" class="node">
<title>Node23</title>
<g id="a_node23"><a xlink:href="system__settings_8h.html" target="_top" xlink:title="Archivo para la definición de constantes del sistema.">
<polygon fill="white" stroke="#666666" points="323.5,-151 226.5,-151 226.5,-132 323.5,-132 323.5,-151"/>
<text text-anchor="middle" x="275" y="-139" font-family="Helvetica,sans-Serif" font-size="10.00">system_settings.h</text>
</a>
</g>
</g>
<!-- Node22&#45;&gt;Node23 -->
<g id="edge28" class="edge">
<title>Node22&#45;&gt;Node23</title>
<path fill="none" stroke="#63b8ff" d="M389.62,-203.04C364.23,-189.63 326.7,-169.81 301.57,-156.54"/>
<polygon fill="#63b8ff" stroke="#63b8ff" points="303.45,-153.57 292.98,-151.99 300.18,-159.76 303.45,-153.57"/>
</g>
<!-- Node24 -->
<g id="node24" class="node">
<title>Node24</title>
<g id="a_node24"><a xlink:title=" ">
<polygon fill="#e0e0e0" stroke="#999999" points="439.5,-151 380.5,-151 380.5,-132 439.5,-132 439.5,-151"/>
<text text-anchor="middle" x="410" y="-139" font-family="Helvetica,sans-Serif" font-size="10.00">DS1820.h</text>
</a>
</g>
</g>
<!-- Node22&#45;&gt;Node24 -->
<g id="edge29" class="edge">
<title>Node22&#45;&gt;Node24</title>
<path fill="none" stroke="#63b8ff" d="M415.65,-203.04C414.58,-191.55 413.07,-175.34 411.87,-162.59"/>
<polygon fill="#63b8ff" stroke="#63b8ff" points="415.38,-162.43 410.96,-152.79 408.41,-163.08 415.38,-162.43"/>
</g>
<!-- Node25&#45;&gt;Node12 -->
<g id="edge31" class="edge">
<title>Node25&#45;&gt;Node12</title>
<path fill="none" stroke="#63b8ff" d="M581.14,-60.12C563.38,-50.75 535.12,-35.86 514.2,-24.83"/>
<polygon fill="#63b8ff" stroke="#63b8ff" points="515.83,-21.74 505.36,-20.17 512.57,-27.93 515.83,-21.74"/>
</g>
<!-- Node27&#45;&gt;Node12 -->
<g id="edge34" class="edge">
<title>Node27&#45;&gt;Node12</title>
<path fill="none" stroke="#63b8ff" d="M519.44,-208.8C509.15,-198.71 493.38,-181.02 487,-162 471.91,-117.04 478.07,-60.25 483.04,-30.61"/>
<polygon fill="#63b8ff" stroke="#63b8ff" points="486.47,-31.31 484.82,-20.84 479.59,-30.05 486.47,-31.31"/>
</g>
<!-- Node28 -->
<g id="node28" class="node">
<title>Node28</title>
<g id="a_node28"><a xlink:href="port__config_8h.html" target="_top" xlink:title="Archivo de configuración para los puertos de la placa donde se implementará el sistema.">
<polygon fill="white" stroke="#666666" points="568,-151 496,-151 496,-132 568,-132 568,-151"/>
<text text-anchor="middle" x="532" y="-139" font-family="Helvetica,sans-Serif" font-size="10.00">port_config.h</text>
</a>
</g>
</g>
<!-- Node27&#45;&gt;Node28 -->
<g id="edge35" class="edge">
<title>Node27&#45;&gt;Node28</title>
<path fill="none" stroke="#63b8ff" d="M529.36,-208.6C529.81,-197.33 530.6,-177.55 531.2,-162.56"/>
<polygon fill="#63b8ff" stroke="#63b8ff" points="534.68,-163.03 531.58,-152.9 527.69,-162.75 534.68,-163.03"/>
</g>
<!-- Node29&#45;&gt;Node12 -->
<g id="edge37" class="edge">
<title>Node29&#45;&gt;Node12</title>
<path fill="none" stroke="#63b8ff" d="M626.76,-208.67C619.83,-190.61 602.09,-148.82 577,-121 558.18,-100.12 543.5,-106.16 525,-85 510.68,-68.62 500.11,-45.9 493.8,-29.87"/>
<polygon fill="#63b8ff" stroke="#63b8ff" points="497.1,-28.7 490.34,-20.55 490.54,-31.14 497.1,-28.7"/>
</g>
<!-- Node29&#45;&gt;Node28 -->
<g id="edge38" class="edge">
<title>Node29&#45;&gt;Node28</title>
<path fill="none" stroke="#63b8ff" d="M618.37,-208.6C602.16,-196.2 572.52,-173.51 552.54,-158.22"/>
<polygon fill="#63b8ff" stroke="#63b8ff" points="554.88,-155.6 544.81,-152.31 550.63,-161.16 554.88,-155.6"/>
</g>
<!-- Node30&#45;&gt;Node12 -->
<g id="edge40" class="edge">
<title>Node30&#45;&gt;Node12</title>
<path fill="none" stroke="#63b8ff" d="M199.83,-208.65C197.91,-190.2 196.14,-147.15 217,-121 275.8,-47.28 391.87,-22.35 450.82,-14.23"/>
<polygon fill="#63b8ff" stroke="#63b8ff" points="451.18,-17.71 460.65,-12.97 450.29,-10.77 451.18,-17.71"/>
</g>
<!-- Node30&#45;&gt;Node23 -->
<g id="edge42" class="edge">
<title>Node30&#45;&gt;Node23</title>
<path fill="none" stroke="#63b8ff" d="M209.78,-208.6C221.68,-196.54 243.19,-174.74 258.24,-159.49"/>
<polygon fill="#63b8ff" stroke="#63b8ff" points="260.64,-162.04 265.17,-152.46 255.65,-157.12 260.64,-162.04"/>
</g>
<!-- Node30&#45;&gt;Node26 -->
<g id="edge41" class="edge">
<title>Node30&#45;&gt;Node26</title>
<path fill="none" stroke="#63b8ff" d="M192.1,-208.6C180.04,-196.54 158.24,-174.74 142.99,-159.49"/>
<polygon fill="#63b8ff" stroke="#63b8ff" points="145.5,-157.05 135.96,-152.46 140.55,-162 145.5,-157.05"/>
</g>
<!-- Node31&#45;&gt;Node12 -->
<g id="edge44" class="edge">
<title>Node31&#45;&gt;Node12</title>
<path fill="none" stroke="#63b8ff" d="M51.85,-203.11C56.66,-182.34 68.28,-143.96 92,-121 193.25,-22.97 374.03,-10.47 450.86,-9.84"/>
<polygon fill="#63b8ff" stroke="#63b8ff" points="450.76,-13.34 460.75,-9.84 450.75,-6.34 450.76,-13.34"/>
</g>
<!-- Node31&#45;&gt;Node26 -->
<g id="edge45" class="edge">
<title>Node31&#45;&gt;Node26</title>
<path fill="none" stroke="#63b8ff" d="M63.85,-203.04C76.75,-190.47 95.45,-172.26 108.96,-159.1"/>
<polygon fill="#63b8ff" stroke="#63b8ff" points="111.17,-161.83 115.89,-152.34 106.29,-156.81 111.17,-161.83"/>
</g>
<!-- Node32&#45;&gt;Node12 -->
<g id="edge47" class="edge">
<title>Node32&#45;&gt;Node12</title>
<path fill="none" stroke="#63b8ff" d="M312.03,-208.52C322.11,-190.9 345.95,-150.89 371,-121 401.76,-84.31 443.6,-46.99 467.72,-26.49"/>
<polygon fill="#63b8ff" stroke="#63b8ff" points="469.76,-29.34 475.16,-20.23 465.25,-23.99 469.76,-29.34"/>
</g>
<!-- Node32&#45;&gt;Node23 -->
<g id="edge48" class="edge">
<title>Node32&#45;&gt;Node23</title>
<path fill="none" stroke="#63b8ff" d="M303.2,-208.6C298.3,-197.1 289.62,-176.76 283.18,-161.67"/>
<polygon fill="#63b8ff" stroke="#63b8ff" points="286.53,-160.6 279.39,-152.78 280.09,-163.35 286.53,-160.6"/>
</g>
<!-- Node33&#45;&gt;Node2 -->
<g id="edge52" class="edge">
<title>Node33&#45;&gt;Node2</title>
<path fill="none" stroke="#63b8ff" d="M1325.12,-239.39C1310.37,-279.48 1281.82,-372.59 1302,-448 1304.39,-456.91 1308.59,-465.88 1313.17,-473.93"/>
<polygon fill="#63b8ff" stroke="#63b8ff" points="1310.08,-475.58 1318.29,-482.27 1316.05,-471.91 1310.08,-475.58"/>
</g>
<!-- Node33&#45;&gt;Node3 -->
<g id="edge50" class="edge">
<title>Node33&#45;&gt;Node3</title>
<path fill="none" stroke="#63b8ff" d="M1265.64,-239.07C1150.32,-260.52 1013.27,-273.59 937.12,-279.59"/>
<polygon fill="#63b8ff" stroke="#63b8ff" points="937.1,-276.08 927.4,-280.34 937.64,-283.06 937.1,-276.08"/>
</g>
<!-- Node33&#45;&gt;Node8 -->
<g id="edge51" class="edge">
<title>Node33&#45;&gt;Node8</title>
<path fill="none" stroke="#63b8ff" d="M1357.96,-197.79C1369,-189.08 1382.15,-178.69 1394.07,-169.29"/>
<polygon fill="#63b8ff" stroke="#63b8ff" points="1396.01,-172.22 1401.69,-163.27 1391.67,-166.72 1396.01,-172.22"/>
</g>
<!-- Node34&#45;&gt;Node2 -->
<g id="edge57" class="edge">
<title>Node34&#45;&gt;Node2</title>
<path fill="none" stroke="#63b8ff" d="M1372.4,-448.33C1368.42,-456.3 1363.13,-465.63 1357.71,-474.34"/>
<polygon fill="#63b8ff" stroke="#63b8ff" points="1354.9,-472.23 1352.41,-482.52 1360.78,-476.03 1354.9,-472.23"/>
</g>
<!-- Node34&#45;&gt;Node3 -->
<g id="edge55" class="edge">
<title>Node34&#45;&gt;Node3</title>
<path fill="none" stroke="#63b8ff" d="M1319.28,-407.55C1255.86,-387.34 1151.71,-354.88 1061,-330 1016.65,-317.84 965.78,-305.54 929.11,-296.96"/>
<polygon fill="#63b8ff" stroke="#63b8ff" points="930.22,-293.62 919.69,-294.77 928.64,-300.44 930.22,-293.62"/>
</g>
<!-- Node34&#45;&gt;Node8 -->
<g id="edge56" class="edge">
<title>Node34&#45;&gt;Node8</title>
<path fill="none" stroke="#63b8ff" d="M1414.42,-406.55C1427.17,-397.51 1440.03,-385.56 1447,-371 1478.15,-305.97 1455.7,-218.56 1439.91,-173"/>
<polygon fill="#63b8ff" stroke="#63b8ff" points="1443.27,-172.01 1436.59,-163.78 1436.69,-174.38 1443.27,-172.01"/>
</g>
<!-- Node34&#45;&gt;Node35 -->
<g id="edge58" class="edge">
<title>Node34&#45;&gt;Node35</title>
<path fill="none" stroke="#63b8ff" d="M1371.98,-406.79C1371.33,-399.45 1371.11,-390.91 1371.33,-382.78"/>
<polygon fill="#63b8ff" stroke="#63b8ff" points="1374.82,-383.02 1371.88,-372.85 1367.84,-382.64 1374.82,-383.02"/>
</g>
<!-- Node35&#45;&gt;Node3 -->
<g id="edge59" class="edge">
<title>Node35&#45;&gt;Node3</title>
<path fill="none" stroke="#63b8ff" d="M1318.4,-332.96C1313.55,-331.87 1308.7,-330.86 1304,-330 1174.15,-306.24 1019.48,-294.01 937.23,-288.76"/>
<polygon fill="#63b8ff" stroke="#63b8ff" points="937.58,-285.28 927.38,-288.15 937.14,-292.26 937.58,-285.28"/>
</g>
<!-- Node35&#45;&gt;Node8 -->
<g id="edge60" class="edge">
<title>Node35&#45;&gt;Node8</title>
<path fill="none" stroke="#63b8ff" d="M1384.08,-329.66C1390.7,-307.64 1401.38,-270.98 1409,-239 1414.19,-217.23 1419.04,-192.46 1422.55,-173.47"/>
<polygon fill="#63b8ff" stroke="#63b8ff" points="1425.98,-174.14 1424.32,-163.68 1419.09,-172.89 1425.98,-174.14"/>
</g>
<!-- Node35&#45;&gt;Node34 -->
<g id="edge61" class="edge">
<title>Node35&#45;&gt;Node34</title>
<path fill="none" stroke="#63b8ff" d="M1384.03,-371.33C1384.68,-378.7 1384.89,-387.24 1384.66,-395.36"/>
<polygon fill="#63b8ff" stroke="#63b8ff" points="1381.17,-395.1 1384.11,-405.28 1388.16,-395.49 1381.17,-395.1"/>
</g>
</g>
</svg>
