<?xml version="1.0" encoding="UTF-8" standalone="no"?>
<!DOCTYPE svg PUBLIC "-//W3C//DTD SVG 1.1//EN"
 "http://www.w3.org/Graphics/SVG/1.1/DTD/svg11.dtd">
<!-- Generated by graphviz version 7.0.2 (20221119.0110)
 -->
<!-- Title: C:/Users/juanh/OneDrive/Escritorio/Facultad/Beca/Proyecto/LAL Control Arduino/include/machine_state_pattern/machine_states/Idle_state.h Pages: 1 -->
<!--zoomable 643 -->
<svg id="main" version="1.1" xmlns="http://www.w3.org/2000/svg" xmlns:xlink="http://www.w3.org/1999/xlink" xml:space="preserve" onload="init(evt)">
<style type="text/css"><![CDATA[
.edge:hover path { stroke: red; }
.edge:hover polygon { stroke: red; fill: red; }
]]></style>
<script type="text/javascript"><![CDATA[
var edges = document.getElementsByTagName('g');
if (edges && edges.length) {
  for (var i=0;i<edges.length;i++) {
    if (edges[i].id.substr(0,4)=='edge') {
      edges[i].setAttribute('class','edge');
    }
  }
}
]]></script>
        <defs>
                <circle id="rim" cx="0" cy="0" r="7"/>
                <circle id="rim2" cx="0" cy="0" r="3.5"/>
                <g id="zoomPlus">
                        <use xlink:href="#rim" fill="#404040">
                                <set attributeName="fill" to="#808080" begin="zoomplus.mouseover" end="zoomplus.mouseout"/>
                        </use>
                        <path d="M-4,0h8M0,-4v8" fill="none" stroke="white" stroke-width="1.5" pointer-events="none"/>
                </g>
                <g id="zoomMin">
                        <use xlink:href="#rim" fill="#404040">
                                <set attributeName="fill" to="#808080" begin="zoomminus.mouseover" end="zoomminus.mouseout"/>
                        </use>
                        <path d="M-4,0h8" fill="none" stroke="white" stroke-width="1.5" pointer-events="none"/>
                </g>
                <g id="dirArrow">
                        <path fill="none" stroke="white" stroke-width="1.5" d="M0,-3.0v7 M-2.5,-0.5L0,-3.0L2.5,-0.5"/>
                </g>
               <g id="resetDef">
                       <use xlink:href="#rim2" fill="#404040">
                               <set attributeName="fill" to="#808080" begin="reset.mouseover" end="reset.mouseout"/>
                       </use>
               </g>
        </defs>

<script type="text/javascript">
var viewWidth = 611;
var viewHeight = 643;
var sectionId = 'dynsection-1';
</script>
<script xlink:href="svgpan.js"/>
<svg id="graph" class="graph">
<g id="viewport">
<title>C:/Users/juanh/OneDrive/Escritorio/Facultad/Beca/Proyecto/LAL Control Arduino/include/machine_state_pattern/machine_states/Idle_state.h</title>
<!-- Node1 -->
<g id="node1" class="node">
<title>Node1</title>
<g id="a_node1"><a xlink:title="Clase de estado de reposo.">
<polygon fill="#999999" stroke="#666666" points="308,-635 156,-635 156,-572 308,-572 308,-635"/>
<text text-anchor="start" x="164" y="-623" font-family="Helvetica,sans-Serif" font-size="10.00">C:/Users/juanh/OneDrive</text>
<text text-anchor="start" x="164" y="-612" font-family="Helvetica,sans-Serif" font-size="10.00">/Escritorio/Facultad/Beca</text>
<text text-anchor="start" x="164" y="-601" font-family="Helvetica,sans-Serif" font-size="10.00">/Proyecto/LAL Control Arduino</text>
<text text-anchor="start" x="164" y="-590" font-family="Helvetica,sans-Serif" font-size="10.00">/include/machine_state_pattern</text>
<text text-anchor="middle" x="232" y="-579" font-family="Helvetica,sans-Serif" font-size="10.00">/machine_states/Idle_state.h</text>
</a>
</g>
</g>
<!-- Node2 -->
<g id="node2" class="node">
<title>Node2</title>
<g id="a_node2"><a xlink:href="_alarm__state_8h.html" target="_top" xlink:title="Clase de estado de control del motor.">
<polygon fill="white" stroke="#666666" points="373,-536 221,-536 221,-473 373,-473 373,-536"/>
<text text-anchor="start" x="229" y="-524" font-family="Helvetica,sans-Serif" font-size="10.00">C:/Users/juanh/OneDrive</text>
<text text-anchor="start" x="229" y="-513" font-family="Helvetica,sans-Serif" font-size="10.00">/Escritorio/Facultad/Beca</text>
<text text-anchor="start" x="229" y="-502" font-family="Helvetica,sans-Serif" font-size="10.00">/Proyecto/LAL Control Arduino</text>
<text text-anchor="start" x="229" y="-491" font-family="Helvetica,sans-Serif" font-size="10.00">/include/machine_state_pattern</text>
<text text-anchor="middle" x="297" y="-480" font-family="Helvetica,sans-Serif" font-size="10.00">/machine_states/Alarm_state.h</text>
</a>
</g>
</g>
<!-- Node1&#45;&gt;Node2 -->
<g id="edge1" class="edge">
<title>Node1&#45;&gt;Node2</title>
<path fill="none" stroke="#63b8ff" d="M252.41,-562.09C257.97,-553.54 264.04,-544.64 269.89,-536.5"/>
<polygon fill="#63b8ff" stroke="#63b8ff" points="249.63,-559.95 247.22,-570.26 255.53,-563.7 249.63,-559.95"/>
</g>
<!-- Node5 -->
<g id="node5" class="node">
<title>Node5</title>
<g id="a_node5"><a xlink:href="_shutdown__state_8h.html" target="_top" xlink:title="Clase de estado de apagado del sistema.">
<polygon fill="white" stroke="#666666" points="170,-250 0,-250 0,-187 170,-187 170,-250"/>
<text text-anchor="start" x="8" y="-238" font-family="Helvetica,sans-Serif" font-size="10.00">C:/Users/juanh/OneDrive</text>
<text text-anchor="start" x="8" y="-227" font-family="Helvetica,sans-Serif" font-size="10.00">/Escritorio/Facultad/Beca</text>
<text text-anchor="start" x="8" y="-216" font-family="Helvetica,sans-Serif" font-size="10.00">/Proyecto/LAL Control Arduino</text>
<text text-anchor="start" x="8" y="-205" font-family="Helvetica,sans-Serif" font-size="10.00">/include/machine_state_pattern</text>
<text text-anchor="middle" x="85" y="-194" font-family="Helvetica,sans-Serif" font-size="10.00">/machine_states/Shutdown_state.h</text>
</a>
</g>
</g>
<!-- Node1&#45;&gt;Node5 -->
<g id="edge22" class="edge">
<title>Node1&#45;&gt;Node5</title>
<path fill="none" stroke="#63b8ff" d="M197.66,-562.46C191.53,-554.07 185.64,-545.03 181,-536 130.51,-437.67 101.67,-308.26 90.47,-250.11"/>
<polygon fill="#63b8ff" stroke="#63b8ff" points="194.86,-564.56 203.7,-570.4 200.43,-560.32 194.86,-564.56"/>
</g>
<!-- Node2&#45;&gt;Node1 -->
<g id="edge21" class="edge">
<title>Node2&#45;&gt;Node1</title>
<path fill="none" stroke="#63b8ff" d="M276.56,-545.95C271.01,-554.51 264.93,-563.4 259.09,-571.54"/>
<polygon fill="#63b8ff" stroke="#63b8ff" points="279.35,-548.09 281.76,-537.77 273.44,-544.33 279.35,-548.09"/>
</g>
<!-- Node3 -->
<g id="node3" class="node">
<title>Node3</title>
<g id="a_node3"><a xlink:href="_check__instruction__state_8h_source.html" target="_top" xlink:title=" ">
<polygon fill="white" stroke="#666666" points="413.5,-437 208.5,-437 208.5,-374 413.5,-374 413.5,-437"/>
<text text-anchor="start" x="216.5" y="-425" font-family="Helvetica,sans-Serif" font-size="10.00">C:/Users/juanh/OneDrive</text>
<text text-anchor="start" x="216.5" y="-414" font-family="Helvetica,sans-Serif" font-size="10.00">/Escritorio/Facultad/Beca</text>
<text text-anchor="start" x="216.5" y="-403" font-family="Helvetica,sans-Serif" font-size="10.00">/Proyecto/LAL Control Arduino</text>
<text text-anchor="start" x="216.5" y="-392" font-family="Helvetica,sans-Serif" font-size="10.00">/include/machine_state_pattern</text>
<text text-anchor="middle" x="311" y="-381" font-family="Helvetica,sans-Serif" font-size="10.00">/machine_states/Check_instruction_state.h</text>
</a>
</g>
</g>
<!-- Node2&#45;&gt;Node3 -->
<g id="edge2" class="edge">
<title>Node2&#45;&gt;Node3</title>
<path fill="none" stroke="#63b8ff" d="M303.11,-461.15C304.26,-453.2 305.44,-445.02 306.53,-437.5"/>
<polygon fill="#63b8ff" stroke="#63b8ff" points="299.65,-460.65 301.68,-471.04 306.58,-461.65 299.65,-460.65"/>
</g>
<!-- Node4 -->
<g id="node4" class="node">
<title>Node4</title>
<g id="a_node4"><a xlink:href="_control__system_8h.html" target="_top" xlink:title="Clase para el sistema de control.">
<polygon fill="white" stroke="#666666" points="385.5,-338 236.5,-338 236.5,-286 385.5,-286 385.5,-338"/>
<text text-anchor="start" x="244.5" y="-326" font-family="Helvetica,sans-Serif" font-size="10.00">C:/Users/juanh/OneDrive</text>
<text text-anchor="start" x="244.5" y="-315" font-family="Helvetica,sans-Serif" font-size="10.00">/Escritorio/Facultad/Beca</text>
<text text-anchor="start" x="244.5" y="-304" font-family="Helvetica,sans-Serif" font-size="10.00">/Proyecto/LAL Control Arduino</text>
<text text-anchor="middle" x="311" y="-293" font-family="Helvetica,sans-Serif" font-size="10.00">/include/Control_system.h</text>
</a>
</g>
</g>
<!-- Node3&#45;&gt;Node4 -->
<g id="edge3" class="edge">
<title>Node3&#45;&gt;Node4</title>
<path fill="none" stroke="#63b8ff" d="M304.27,-362.25C304.19,-354.13 304.39,-345.86 304.88,-338.47"/>
<polygon fill="#63b8ff" stroke="#63b8ff" points="300.76,-362.11 304.53,-372.01 307.76,-361.92 300.76,-362.11"/>
</g>
<!-- Node4&#45;&gt;Node1 -->
<g id="edge6" class="edge">
<title>Node4&#45;&gt;Node1</title>
<path fill="none" stroke="#63b8ff" d="M228.01,-344.39C216.44,-352.31 206.09,-362.06 199,-374 161.85,-436.54 193.96,-525.26 215.8,-571.6"/>
<polygon fill="#63b8ff" stroke="#63b8ff" points="229.62,-347.51 236.23,-339.23 225.9,-341.58 229.62,-347.51"/>
</g>
<!-- Node4&#45;&gt;Node2 -->
<g id="edge4" class="edge">
<title>Node4&#45;&gt;Node2</title>
<path fill="none" stroke="#63b8ff" d="M393.05,-344.36C404.6,-352.29 414.93,-362.05 422,-374 436.26,-398.1 436.42,-413 422,-437 410.86,-455.54 392.61,-469.2 373.45,-479.13"/>
<polygon fill="#63b8ff" stroke="#63b8ff" points="395.16,-341.55 384.84,-339.19 391.44,-347.48 395.16,-341.55"/>
</g>
<!-- Node4&#45;&gt;Node3 -->
<g id="edge5" class="edge">
<title>Node4&#45;&gt;Node3</title>
<path fill="none" stroke="#63b8ff" d="M317.64,-349.95C317.84,-357.77 317.77,-365.95 317.43,-373.52"/>
<polygon fill="#63b8ff" stroke="#63b8ff" points="321.14,-349.82 317.19,-339.98 314.14,-350.13 321.14,-349.82"/>
</g>
<!-- Node4&#45;&gt;Node5 -->
<g id="edge7" class="edge">
<title>Node4&#45;&gt;Node5</title>
<path fill="none" stroke="#63b8ff" d="M231.39,-281.34C206.42,-271.44 179.09,-260.38 154.85,-250.38"/>
<polygon fill="#63b8ff" stroke="#63b8ff" points="229.93,-284.53 240.52,-284.96 232.5,-278.02 229.93,-284.53"/>
</g>
<!-- Node6 -->
<g id="node6" class="node">
<title>Node6</title>
<g id="a_node6"><a xlink:href="main_8h.html" target="_top" xlink:title="Archivo principal del programa.">
<polygon fill="white" stroke="#666666" points="478.5,-52 329.5,-52 329.5,0 478.5,0 478.5,-52"/>
<text text-anchor="start" x="337.5" y="-40" font-family="Helvetica,sans-Serif" font-size="10.00">C:/Users/juanh/OneDrive</text>
<text text-anchor="start" x="337.5" y="-29" font-family="Helvetica,sans-Serif" font-size="10.00">/Escritorio/Facultad/Beca</text>
<text text-anchor="start" x="337.5" y="-18" font-family="Helvetica,sans-Serif" font-size="10.00">/Proyecto/LAL Control Arduino</text>
<text text-anchor="middle" x="404" y="-7" font-family="Helvetica,sans-Serif" font-size="10.00">/include/main.h</text>
</a>
</g>
</g>
<!-- Node4&#45;&gt;Node6 -->
<g id="edge9" class="edge">
<title>Node4&#45;&gt;Node6</title>
<path fill="none" stroke="#63b8ff" d="M396.62,-290.05C464.65,-268.16 554.41,-226.19 592,-151 604.52,-125.96 608.46,-110.65 592,-88 566.18,-52.47 519.18,-37.22 478.63,-30.85"/>
<polygon fill="#63b8ff" stroke="#63b8ff" points="395.85,-286.62 387.34,-292.94 397.93,-293.3 395.85,-286.62"/>
</g>
<!-- Node7 -->
<g id="node7" class="node">
<title>Node7</title>
<g id="a_node7"><a xlink:href="_cooler__observer_8h_source.html" target="_top" xlink:title=" ">
<polygon fill="white" stroke="#666666" points="395.5,-151 226.5,-151 226.5,-88 395.5,-88 395.5,-151"/>
<text text-anchor="start" x="234.5" y="-139" font-family="Helvetica,sans-Serif" font-size="10.00">C:/Users/juanh/OneDrive</text>
<text text-anchor="start" x="234.5" y="-128" font-family="Helvetica,sans-Serif" font-size="10.00">/Escritorio/Facultad/Beca</text>
<text text-anchor="start" x="234.5" y="-117" font-family="Helvetica,sans-Serif" font-size="10.00">/Proyecto/LAL Control Arduino</text>
<text text-anchor="start" x="234.5" y="-106" font-family="Helvetica,sans-Serif" font-size="10.00">/include/observer_pattern/observers</text>
<text text-anchor="middle" x="311" y="-95" font-family="Helvetica,sans-Serif" font-size="10.00">/Cooler_observer.h</text>
</a>
</g>
</g>
<!-- Node4&#45;&gt;Node7 -->
<g id="edge10" class="edge">
<title>Node4&#45;&gt;Node7</title>
<path fill="none" stroke="#63b8ff" d="M378.04,-279.06C388.47,-271.07 397.83,-261.43 404,-250 417.3,-225.36 416.81,-211.9 404,-187 396.65,-172.7 384.64,-160.8 371.65,-151.2"/>
<polygon fill="#63b8ff" stroke="#63b8ff" points="376.05,-276.19 369.88,-284.8 380.07,-281.91 376.05,-276.19"/>
</g>
<!-- Node8 -->
<g id="node8" class="node">
<title>Node8</title>
<g id="a_node8"><a xlink:href="_moisture__observer_8h.html" target="_top" xlink:title="Observador del sensor de temperatura.">
<polygon fill="white" stroke="#666666" points="582.5,-151 413.5,-151 413.5,-88 582.5,-88 582.5,-151"/>
<text text-anchor="start" x="421.5" y="-139" font-family="Helvetica,sans-Serif" font-size="10.00">C:/Users/juanh/OneDrive</text>
<text text-anchor="start" x="421.5" y="-128" font-family="Helvetica,sans-Serif" font-size="10.00">/Escritorio/Facultad/Beca</text>
<text text-anchor="start" x="421.5" y="-117" font-family="Helvetica,sans-Serif" font-size="10.00">/Proyecto/LAL Control Arduino</text>
<text text-anchor="start" x="421.5" y="-106" font-family="Helvetica,sans-Serif" font-size="10.00">/include/observer_pattern/observers</text>
<text text-anchor="middle" x="498" y="-95" font-family="Helvetica,sans-Serif" font-size="10.00">/Moisture_observer.h</text>
</a>
</g>
</g>
<!-- Node4&#45;&gt;Node8 -->
<g id="edge12" class="edge">
<title>Node4&#45;&gt;Node8</title>
<path fill="none" stroke="#63b8ff" d="M381.44,-280.31C396.23,-271.86 410.97,-261.72 423,-250 452.03,-221.72 473.53,-179.82 485.9,-151.4"/>
<polygon fill="#63b8ff" stroke="#63b8ff" points="380.16,-277.02 373.07,-284.9 383.53,-283.16 380.16,-277.02"/>
</g>
<!-- Node9 -->
<g id="node9" class="node">
<title>Node9</title>
<g id="a_node9"><a xlink:href="_system__observer_8h.html" target="_top" xlink:title="Clase observador del sistema de control.">
<polygon fill="white" stroke="#666666" points="395.5,-250 226.5,-250 226.5,-187 395.5,-187 395.5,-250"/>
<text text-anchor="start" x="234.5" y="-238" font-family="Helvetica,sans-Serif" font-size="10.00">C:/Users/juanh/OneDrive</text>
<text text-anchor="start" x="234.5" y="-227" font-family="Helvetica,sans-Serif" font-size="10.00">/Escritorio/Facultad/Beca</text>
<text text-anchor="start" x="234.5" y="-216" font-family="Helvetica,sans-Serif" font-size="10.00">/Proyecto/LAL Control Arduino</text>
<text text-anchor="start" x="234.5" y="-205" font-family="Helvetica,sans-Serif" font-size="10.00">/include/observer_pattern/observers</text>
<text text-anchor="middle" x="311" y="-194" font-family="Helvetica,sans-Serif" font-size="10.00">/System_observer.h</text>
</a>
</g>
</g>
<!-- Node4&#45;&gt;Node9 -->
<g id="edge14" class="edge">
<title>Node4&#45;&gt;Node9</title>
<path fill="none" stroke="#63b8ff" d="M304.37,-274.29C304.16,-266.36 304.23,-258.06 304.58,-250.38"/>
<polygon fill="#63b8ff" stroke="#63b8ff" points="300.86,-274.17 304.81,-284 307.85,-273.85 300.86,-274.17"/>
</g>
<!-- Node10 -->
<g id="node10" class="node">
<title>Node10</title>
<g id="a_node10"><a xlink:href="_temperature__observer_8h.html" target="_top" xlink:title="Observador del sensor de temperatura.">
<polygon fill="white" stroke="#666666" points="208.5,-151 39.5,-151 39.5,-88 208.5,-88 208.5,-151"/>
<text text-anchor="start" x="47.5" y="-139" font-family="Helvetica,sans-Serif" font-size="10.00">C:/Users/juanh/OneDrive</text>
<text text-anchor="start" x="47.5" y="-128" font-family="Helvetica,sans-Serif" font-size="10.00">/Escritorio/Facultad/Beca</text>
<text text-anchor="start" x="47.5" y="-117" font-family="Helvetica,sans-Serif" font-size="10.00">/Proyecto/LAL Control Arduino</text>
<text text-anchor="start" x="47.5" y="-106" font-family="Helvetica,sans-Serif" font-size="10.00">/include/observer_pattern/observers</text>
<text text-anchor="middle" x="124" y="-95" font-family="Helvetica,sans-Serif" font-size="10.00">/Temperature_observer.h</text>
</a>
</g>
</g>
<!-- Node4&#45;&gt;Node10 -->
<g id="edge20" class="edge">
<title>Node4&#45;&gt;Node10</title>
<path fill="none" stroke="#63b8ff" d="M253.59,-279.64C240.68,-271.05 227.67,-261.03 217,-250 194.26,-226.5 197.92,-213.67 179,-187 170.42,-174.9 160.25,-162.22 151,-151.21"/>
<polygon fill="#63b8ff" stroke="#63b8ff" points="251.35,-282.36 261.66,-284.81 255.13,-276.47 251.35,-282.36"/>
</g>
<!-- Node5&#45;&gt;Node4 -->
<g id="edge8" class="edge">
<title>Node5&#45;&gt;Node4</title>
<path fill="none" stroke="#63b8ff" d="M178.24,-254.59C204,-264.88 231.16,-275.94 254.17,-285.51"/>
<polygon fill="#63b8ff" stroke="#63b8ff" points="179.69,-251.39 169.1,-250.94 177.09,-257.89 179.69,-251.39"/>
</g>
<!-- Node7&#45;&gt;Node6 -->
<g id="edge11" class="edge">
<title>Node7&#45;&gt;Node6</title>
<path fill="none" stroke="#63b8ff" d="M350.54,-79.6C359.86,-70.42 369.57,-60.88 378.11,-52.47"/>
<polygon fill="#63b8ff" stroke="#63b8ff" points="348.24,-76.95 343.56,-86.46 353.15,-81.94 348.24,-76.95"/>
</g>
<!-- Node8&#45;&gt;Node6 -->
<g id="edge13" class="edge">
<title>Node8&#45;&gt;Node6</title>
<path fill="none" stroke="#63b8ff" d="M458.03,-79.6C448.61,-70.42 438.8,-60.88 430.17,-52.47"/>
<polygon fill="#63b8ff" stroke="#63b8ff" points="455.48,-82 465.09,-86.47 460.37,-76.98 455.48,-82"/>
</g>
<!-- Node9&#45;&gt;Node4 -->
<g id="edge15" class="edge">
<title>Node9&#45;&gt;Node4</title>
<path fill="none" stroke="#63b8ff" d="M317.73,-261.68C317.82,-269.82 317.61,-278.11 317.12,-285.51"/>
<polygon fill="#63b8ff" stroke="#63b8ff" points="321.24,-261.79 317.46,-251.89 314.24,-261.99 321.24,-261.79"/>
</g>
<!-- Node9&#45;&gt;Node7 -->
<g id="edge16" class="edge">
<title>Node9&#45;&gt;Node7</title>
<path fill="none" stroke="#63b8ff" d="M311,-175.15C311,-167.2 311,-159.02 311,-151.5"/>
<polygon fill="#63b8ff" stroke="#63b8ff" points="307.5,-175.03 311,-185.03 314.5,-175.03 307.5,-175.03"/>
</g>
<!-- Node9&#45;&gt;Node8 -->
<g id="edge17" class="edge">
<title>Node9&#45;&gt;Node8</title>
<path fill="none" stroke="#63b8ff" d="M380.72,-181.33C399.64,-171.52 419.94,-160.99 438.24,-151.5"/>
<polygon fill="#63b8ff" stroke="#63b8ff" points="379.29,-178.13 372.03,-185.84 382.51,-184.35 379.29,-178.13"/>
</g>
<!-- Node9&#45;&gt;Node10 -->
<g id="edge18" class="edge">
<title>Node9&#45;&gt;Node10</title>
<path fill="none" stroke="#63b8ff" d="M241.28,-181.33C222.36,-171.52 202.06,-160.99 183.76,-151.5"/>
<polygon fill="#63b8ff" stroke="#63b8ff" points="239.49,-184.35 249.97,-185.84 242.71,-178.13 239.49,-184.35"/>
</g>
<!-- Node10&#45;&gt;Node6 -->
<g id="edge19" class="edge">
<title>Node10&#45;&gt;Node6</title>
<path fill="none" stroke="#63b8ff" d="M219.46,-87.2C260.54,-73.76 297.87,-61.58 329.37,-51.31"/>
<polygon fill="#63b8ff" stroke="#63b8ff" points="218.5,-83.83 210.08,-90.26 220.68,-90.48 218.5,-83.83"/>
</g>
</g>
</svg>
        <g id="navigator" transform="translate(0 0)" fill="#404254">
                <rect fill="#f2f5e9" fill-opacity="0.5" stroke="#606060" stroke-width=".5" x="0" y="0" width="60" height="60"/>
                <use id="zoomplus" xlink:href="#zoomPlus" x="17" y="9" onmousedown="handleZoom(evt,'in')"/>
                <use id="zoomminus" xlink:href="#zoomMin" x="42" y="9" onmousedown="handleZoom(evt,'out')"/>
                <use id="reset" xlink:href="#resetDef" x="30" y="36" onmousedown="handleReset()"/>
                <g id="arrowUp" xlink:href="#dirArrow" transform="translate(30 24)" onmousedown="handlePan(0,-1)">
                  <use xlink:href="#rim" fill="#404040">
                        <set attributeName="fill" to="#808080" begin="arrowUp.mouseover" end="arrowUp.mouseout"/>
                  </use>
                  <path fill="none" stroke="white" stroke-width="1.5" d="M0,-3.0v7 M-2.5,-0.5L0,-3.0L2.5,-0.5"/>
                </g>
                <g id="arrowRight" xlink:href="#dirArrow" transform="rotate(90) translate(36 -43)" onmousedown="handlePan(1,0)">
                  <use xlink:href="#rim" fill="#404040">
                        <set attributeName="fill" to="#808080" begin="arrowRight.mouseover" end="arrowRight.mouseout"/>
                  </use>
                  <path fill="none" stroke="white" stroke-width="1.5" d="M0,-3.0v7 M-2.5,-0.5L0,-3.0L2.5,-0.5"/>
                </g>
                <g id="arrowDown" xlink:href="#dirArrow" transform="rotate(180) translate(-30 -48)" onmousedown="handlePan(0,1)">
                  <use xlink:href="#rim" fill="#404040">
                        <set attributeName="fill" to="#808080" begin="arrowDown.mouseover" end="arrowDown.mouseout"/>
                  </use>
                  <path fill="none" stroke="white" stroke-width="1.5" d="M0,-3.0v7 M-2.5,-0.5L0,-3.0L2.5,-0.5"/>
                </g>
                <g id="arrowLeft" xlink:href="#dirArrow" transform="rotate(270) translate(-36 17)" onmousedown="handlePan(-1,0)">
                  <use xlink:href="#rim" fill="#404040">
                        <set attributeName="fill" to="#808080" begin="arrowLeft.mouseover" end="arrowLeft.mouseout"/>
                  </use>
                  <path fill="none" stroke="white" stroke-width="1.5" d="M0,-3.0v7 M-2.5,-0.5L0,-3.0L2.5,-0.5"/>
                </g>
        </g>
        <svg viewBox="0 0 15 15" width="100%" height="30px" preserveAspectRatio="xMaxYMin meet">
         <g id="arrow_out" transform="scale(0.3 0.3)">
          <a xlink:href="_idle__state_8h__dep__incl_org.svg" target="_base">
           <rect id="button" ry="5" rx="5" y="6" x="6" height="38" width="38"
                fill="#f2f5e9" fill-opacity="0.5" stroke="#606060" stroke-width="1.0"/>
           <path id="arrow"
             d="M 11.500037,31.436501 C 11.940474,20.09759 22.043105,11.32322 32.158766,21.979434 L 37.068811,17.246167 C 37.068811,17.246167 37.088388,32 37.088388,32 L 22.160133,31.978069 C 22.160133,31.978069 26.997745,27.140456 26.997745,27.140456 C 18.528582,18.264221 13.291696,25.230495 11.500037,31.436501 z"
             style="fill:#404040;"/>
          </a>
         </g>
        </svg>
</svg>
