<?xml version="1.0" encoding="UTF-8" standalone="no"?>
<!DOCTYPE svg PUBLIC "-//W3C//DTD SVG 1.1//EN"
 "http://www.w3.org/Graphics/SVG/1.1/DTD/svg11.dtd">
<!-- Generated by graphviz version 7.0.2 (20221119.0110)
 -->
<!-- Title: C:/Users/juanh/OneDrive/Escritorio/Sistemas Embebidos/Proyecto final/LAL Control MbedOS/include/observer_pattern/observers/Instruction_observer.h Pages: 1 -->
<!--zoomable 577 -->
<svg id="main" version="1.1" xmlns="http://www.w3.org/2000/svg" xmlns:xlink="http://www.w3.org/1999/xlink" xml:space="preserve" onload="init(evt)">
<style type="text/css"><![CDATA[
.edge:hover path { stroke: red; }
.edge:hover polygon { stroke: red; fill: red; }
]]></style>
<script type="text/javascript"><![CDATA[
var edges = document.getElementsByTagName('g');
if (edges && edges.length) {
  for (var i=0;i<edges.length;i++) {
    if (edges[i].id.substr(0,4)=='edge') {
      edges[i].setAttribute('class','edge');
    }
  }
}
]]></script>
        <defs>
                <circle id="rim" cx="0" cy="0" r="7"/>
                <circle id="rim2" cx="0" cy="0" r="3.5"/>
                <g id="zoomPlus">
                        <use xlink:href="#rim" fill="#404040">
                                <set attributeName="fill" to="#808080" begin="zoomplus.mouseover" end="zoomplus.mouseout"/>
                        </use>
                        <path d="M-4,0h8M0,-4v8" fill="none" stroke="white" stroke-width="1.5" pointer-events="none"/>
                </g>
                <g id="zoomMin">
                        <use xlink:href="#rim" fill="#404040">
                                <set attributeName="fill" to="#808080" begin="zoomminus.mouseover" end="zoomminus.mouseout"/>
                        </use>
                        <path d="M-4,0h8" fill="none" stroke="white" stroke-width="1.5" pointer-events="none"/>
                </g>
                <g id="dirArrow">
                        <path fill="none" stroke="white" stroke-width="1.5" d="M0,-3.0v7 M-2.5,-0.5L0,-3.0L2.5,-0.5"/>
                </g>
               <g id="resetDef">
                       <use xlink:href="#rim2" fill="#404040">
                               <set attributeName="fill" to="#808080" begin="reset.mouseover" end="reset.mouseout"/>
                       </use>
               </g>
        </defs>

<script type="text/javascript">
var viewWidth = 1845;
var viewHeight = 577;
var sectionId = 'dynsection-0';
</script>
<script xlink:href="svgpan.js"/>
<svg id="graph" class="graph">
<g id="viewport">
<title>C:/Users/juanh/OneDrive/Escritorio/Sistemas Embebidos/Proyecto final/LAL Control MbedOS/include/observer_pattern/observers/Instruction_observer.h</title>
<!-- Node1 -->
<g id="node1" class="node">
<title>Node1</title>
<g id="a_node1"><a xlink:title="Observador de instrucciones.">
<polygon fill="#999999" stroke="#666666" points="1186,-569 1020,-569 1020,-506 1186,-506 1186,-569"/>
<text text-anchor="start" x="1028" y="-557" font-family="Helvetica,sans-Serif" font-size="10.00">C:/Users/juanh/OneDrive</text>
<text text-anchor="start" x="1028" y="-546" font-family="Helvetica,sans-Serif" font-size="10.00">/Escritorio/Sistemas Embebidos</text>
<text text-anchor="start" x="1028" y="-535" font-family="Helvetica,sans-Serif" font-size="10.00">/Proyecto final/LAL Control</text>
<text text-anchor="start" x="1028" y="-524" font-family="Helvetica,sans-Serif" font-size="10.00"> MbedOS/include/observer_pattern</text>
<text text-anchor="middle" x="1103" y="-513" font-family="Helvetica,sans-Serif" font-size="10.00">/observers/Instruction_observer.h</text>
</a>
</g>
</g>
<!-- Node2 -->
<g id="node2" class="node">
<title>Node2</title>
<g id="a_node2"><a xlink:href="_system__observer_8h.html" target="_top" xlink:title="Clase observador del sistema de control.">
<polygon fill="white" stroke="#666666" points="1122,-470 990,-470 990,-440 1122,-440 1122,-470"/>
<text text-anchor="start" x="998" y="-458" font-family="Helvetica,sans-Serif" font-size="10.00">observer_pattern/observers</text>
<text text-anchor="middle" x="1056" y="-447" font-family="Helvetica,sans-Serif" font-size="10.00">/System_observer.h</text>
</a>
</g>
</g>
<!-- Node1&#45;&gt;Node2 -->
<g id="edge1" class="edge">
<title>Node1&#45;&gt;Node2</title>
<path fill="none" stroke="#63b8ff" d="M1084.96,-505.61C1080,-497.1 1074.68,-488 1069.98,-479.95"/>
<polygon fill="#63b8ff" stroke="#63b8ff" points="1073.06,-478.28 1065,-471.41 1067.02,-481.81 1073.06,-478.28"/>
</g>
<!-- Node6 -->
<g id="node6" class="node">
<title>Node6</title>
<g id="a_node6"><a xlink:href="_control__system_8h_source.html" target="_top" xlink:title=" ">
<polygon fill="white" stroke="#666666" points="1168.5,-404 1075.5,-404 1075.5,-385 1168.5,-385 1168.5,-404"/>
<text text-anchor="middle" x="1122" y="-392" font-family="Helvetica,sans-Serif" font-size="10.00">Control_system.h</text>
</a>
</g>
</g>
<!-- Node1&#45;&gt;Node6 -->
<g id="edge62" class="edge">
<title>Node1&#45;&gt;Node6</title>
<path fill="none" stroke="#63b8ff" d="M1119.05,-505.53C1123.9,-494.6 1128.57,-482.03 1131,-470 1134.71,-451.64 1131.41,-430.41 1127.81,-415.32"/>
<polygon fill="#63b8ff" stroke="#63b8ff" points="1131.22,-414.51 1125.25,-405.75 1124.45,-416.32 1131.22,-414.51"/>
</g>
<!-- Node3 -->
<g id="node3" class="node">
<title>Node3</title>
<g id="a_node3"><a xlink:href="_observer_8h.html" target="_top" xlink:title="Clase observador.">
<polygon fill="white" stroke="#666666" points="392,-343.5 260,-343.5 260,-313.5 392,-313.5 392,-343.5"/>
<text text-anchor="start" x="268" y="-331.5" font-family="Helvetica,sans-Serif" font-size="10.00">observer_pattern/observers</text>
<text text-anchor="middle" x="326" y="-320.5" font-family="Helvetica,sans-Serif" font-size="10.00">/Observer.h</text>
</a>
</g>
</g>
<!-- Node2&#45;&gt;Node3 -->
<g id="edge2" class="edge">
<title>Node2&#45;&gt;Node3</title>
<path fill="none" stroke="#63b8ff" d="M989.61,-445.49C870.88,-429.8 614.6,-393.78 401,-349 397.44,-348.25 393.81,-347.45 390.14,-346.61"/>
<polygon fill="#63b8ff" stroke="#63b8ff" points="391.13,-343.24 380.59,-344.33 389.5,-350.05 391.13,-343.24"/>
</g>
<!-- Node2&#45;&gt;Node6 -->
<g id="edge5" class="edge">
<title>Node2&#45;&gt;Node6</title>
<path fill="none" stroke="#63b8ff" d="M1066.4,-439.54C1075.11,-430.87 1087.51,-419.85 1098.48,-411"/>
<polygon fill="#63b8ff" stroke="#63b8ff" points="1100.31,-414.01 1106.05,-405.1 1096.01,-408.48 1100.31,-414.01"/>
</g>
<!-- Node4 -->
<g id="node4" class="node">
<title>Node4</title>
<g id="a_node4"><a xlink:href="_subject__interface_8h.html" target="_top" xlink:title="Clase para interfaz para implementar el sujeto.">
<polygon fill="white" stroke="#666666" points="538,-266.5 410,-266.5 410,-236.5 538,-236.5 538,-266.5"/>
<text text-anchor="start" x="418" y="-254.5" font-family="Helvetica,sans-Serif" font-size="10.00">observer_pattern/subjects</text>
<text text-anchor="middle" x="474" y="-243.5" font-family="Helvetica,sans-Serif" font-size="10.00">/Subject_interface.h</text>
</a>
</g>
</g>
<!-- Node3&#45;&gt;Node4 -->
<g id="edge3" class="edge">
<title>Node3&#45;&gt;Node4</title>
<path fill="none" stroke="#63b8ff" d="M354.54,-313.04C377.57,-301.37 410.2,-284.83 435.54,-271.99"/>
<polygon fill="#63b8ff" stroke="#63b8ff" points="436.86,-275.24 444.2,-267.6 433.7,-269 436.86,-275.24"/>
</g>
<!-- Node5 -->
<g id="node5" class="node">
<title>Node5</title>
<g id="a_node5"><a xlink:href="_observer__interface_8h.html" target="_top" xlink:title="Clase para interfaz para implementar el observador.">
<polygon fill="white" stroke="#666666" points="392,-266.5 260,-266.5 260,-236.5 392,-236.5 392,-266.5"/>
<text text-anchor="start" x="268" y="-254.5" font-family="Helvetica,sans-Serif" font-size="10.00">observer_pattern/observers</text>
<text text-anchor="middle" x="326" y="-243.5" font-family="Helvetica,sans-Serif" font-size="10.00">/Observer_interface.h</text>
</a>
</g>
</g>
<!-- Node3&#45;&gt;Node5 -->
<g id="edge4" class="edge">
<title>Node3&#45;&gt;Node5</title>
<path fill="none" stroke="#63b8ff" d="M326,-313.04C326,-303.18 326,-289.86 326,-278.22"/>
<polygon fill="#63b8ff" stroke="#63b8ff" points="329.5,-278.43 326,-268.43 322.5,-278.43 329.5,-278.43"/>
</g>
<!-- Node6&#45;&gt;Node2 -->
<g id="edge24" class="edge">
<title>Node6&#45;&gt;Node2</title>
<path fill="none" stroke="#63b8ff" d="M1117.18,-404.18C1110.4,-411.6 1098.51,-422.6 1086.93,-432.38"/>
<polygon fill="#63b8ff" stroke="#63b8ff" points="1084.9,-429.52 1079.4,-438.58 1089.35,-434.93 1084.9,-429.52"/>
</g>
<!-- Node7 -->
<g id="node7" class="node">
<title>Node7</title>
<g id="a_node7"><a xlink:href="_subject_8h.html" target="_top" xlink:title=" ">
<polygon fill="white" stroke="#666666" points="538,-343.5 410,-343.5 410,-313.5 538,-313.5 538,-343.5"/>
<text text-anchor="start" x="418" y="-331.5" font-family="Helvetica,sans-Serif" font-size="10.00">observer_pattern/subjects</text>
<text text-anchor="middle" x="474" y="-320.5" font-family="Helvetica,sans-Serif" font-size="10.00">/Subject.h</text>
</a>
</g>
</g>
<!-- Node6&#45;&gt;Node7 -->
<g id="edge6" class="edge">
<title>Node6&#45;&gt;Node7</title>
<path fill="none" stroke="#63b8ff" d="M1075.36,-388.86C1061.72,-387.56 1046.76,-386.17 1033,-385 819.4,-366.81 763.64,-383.12 552,-349 547.35,-348.25 542.57,-347.36 537.77,-346.38"/>
<polygon fill="#63b8ff" stroke="#63b8ff" points="538.61,-342.98 528.09,-344.27 537.12,-349.82 538.61,-342.98"/>
</g>
<!-- Node8 -->
<g id="node8" class="node">
<title>Node8</title>
<g id="a_node8"><a xlink:href="_machine_8h.html" target="_top" xlink:title="Clase de máquina abstracta.">
<polygon fill="white" stroke="#666666" points="1837,-189.5 1721,-189.5 1721,-159.5 1837,-159.5 1837,-189.5"/>
<text text-anchor="start" x="1729" y="-177.5" font-family="Helvetica,sans-Serif" font-size="10.00">machine_state_pattern</text>
<text text-anchor="middle" x="1779" y="-166.5" font-family="Helvetica,sans-Serif" font-size="10.00">/Machine.h</text>
</a>
</g>
</g>
<!-- Node6&#45;&gt;Node8 -->
<g id="edge9" class="edge">
<title>Node6&#45;&gt;Node8</title>
<path fill="none" stroke="#63b8ff" d="M1168.93,-393.98C1279.82,-394.4 1554.71,-391.03 1635,-349 1699.35,-315.31 1746.07,-239.31 1766.91,-200.03"/>
<polygon fill="#63b8ff" stroke="#63b8ff" points="1769.92,-201.83 1771.4,-191.34 1763.7,-198.62 1769.92,-201.83"/>
</g>
<!-- Node10 -->
<g id="node10" class="node">
<title>Node10</title>
<g id="a_node10"><a xlink:href="_display_8h.html" target="_top" xlink:title="Controlador de LCD hd44780 por interfaz I2C.">
<polygon fill="white" stroke="#666666" points="238,-338 150,-338 150,-319 238,-319 238,-338"/>
<text text-anchor="middle" x="194" y="-326" font-family="Helvetica,sans-Serif" font-size="10.00">drivers/Display.h</text>
</a>
</g>
</g>
<!-- Node6&#45;&gt;Node10 -->
<g id="edge11" class="edge">
<title>Node6&#45;&gt;Node10</title>
<path fill="none" stroke="#63b8ff" d="M1075.25,-392.82C918.31,-390.29 411.11,-379.85 251,-349 242.83,-347.43 234.24,-344.95 226.27,-342.28"/>
<polygon fill="#63b8ff" stroke="#63b8ff" points="227.56,-339.02 216.96,-338.96 225.21,-345.62 227.56,-339.02"/>
</g>
<!-- Node20 -->
<g id="node20" class="node">
<title>Node20</title>
<g id="a_node20"><a xlink:href="user__messages_8h.html" target="_top" xlink:title="Archivo para la configuración de interfaz con el usuario.">
<polygon fill="white" stroke="#666666" points="688,-338 594,-338 594,-319 688,-319 688,-338"/>
<text text-anchor="middle" x="641" y="-326" font-family="Helvetica,sans-Serif" font-size="10.00">user_messages.h</text>
</a>
</g>
</g>
<!-- Node6&#45;&gt;Node20 -->
<g id="edge23" class="edge">
<title>Node6&#45;&gt;Node20</title>
<path fill="none" stroke="#63b8ff" d="M1075.29,-388.9C968.7,-378.37 715.26,-353.08 697,-349 689.3,-347.28 681.2,-344.85 673.62,-342.28"/>
<polygon fill="#63b8ff" stroke="#63b8ff" points="675.02,-339.06 664.43,-338.99 672.67,-345.65 675.02,-339.06"/>
</g>
<!-- Node21 -->
<g id="node21" class="node">
<title>Node21</title>
<g id="a_node21"><a xlink:href="_temperature__sensor_8h.html" target="_top" xlink:title="Controlador para sensor de temperatura DS18B20.">
<polygon fill="white" stroke="#666666" points="1009.5,-343.5 908.5,-343.5 908.5,-313.5 1009.5,-313.5 1009.5,-343.5"/>
<text text-anchor="start" x="916.5" y="-331.5" font-family="Helvetica,sans-Serif" font-size="10.00">drivers/Temperature</text>
<text text-anchor="middle" x="959" y="-320.5" font-family="Helvetica,sans-Serif" font-size="10.00">_sensor.h</text>
</a>
</g>
</g>
<!-- Node6&#45;&gt;Node21 -->
<g id="edge25" class="edge">
<title>Node6&#45;&gt;Node21</title>
<path fill="none" stroke="#63b8ff" d="M1099.34,-384.6C1075.39,-375.2 1036.94,-360.1 1006.33,-348.09"/>
<polygon fill="#63b8ff" stroke="#63b8ff" points="1007.87,-344.93 997.28,-344.53 1005.31,-351.44 1007.87,-344.93"/>
</g>
<!-- Node24 -->
<g id="node24" class="node">
<title>Node24</title>
<g id="a_node24"><a xlink:href="_moisture__sensor_8h.html" target="_top" xlink:title="Controlador de sensor de humedad analógico.">
<polygon fill="white" stroke="#666666" points="668,-184 540,-184 540,-165 668,-165 668,-184"/>
<text text-anchor="middle" x="604" y="-172" font-family="Helvetica,sans-Serif" font-size="10.00">drivers/Moisture_sensor.h</text>
</a>
</g>
</g>
<!-- Node6&#45;&gt;Node24 -->
<g id="edge28" class="edge">
<title>Node6&#45;&gt;Node24</title>
<path fill="none" stroke="#63b8ff" d="M1075.02,-393.16C950.26,-391.76 617.87,-384.7 585,-349 545.37,-305.95 576.34,-229.13 593.95,-193.98"/>
<polygon fill="#63b8ff" stroke="#63b8ff" points="596.86,-195.95 598.39,-185.47 590.66,-192.71 596.86,-195.95"/>
</g>
<!-- Node25 -->
<g id="node25" class="node">
<title>Node25</title>
<g id="a_node25"><a xlink:href="types_8h.html" target="_top" xlink:title="Archivo de definición de tipos de dato.">
<polygon fill="white" stroke="#666666" points="1274.5,-261 1225.5,-261 1225.5,-242 1274.5,-242 1274.5,-261"/>
<text text-anchor="middle" x="1250" y="-249" font-family="Helvetica,sans-Serif" font-size="10.00">types.h</text>
</a>
</g>
</g>
<!-- Node6&#45;&gt;Node25 -->
<g id="edge30" class="edge">
<title>Node6&#45;&gt;Node25</title>
<path fill="none" stroke="#63b8ff" d="M1168.96,-385.04C1190.9,-378.71 1215.54,-367.78 1231,-349 1248.79,-327.39 1251.59,-293.89 1251.3,-272.59"/>
<polygon fill="#63b8ff" stroke="#63b8ff" points="1254.81,-272.74 1250.91,-262.89 1247.81,-273.02 1254.81,-272.74"/>
</g>
<!-- Node26 -->
<g id="node26" class="node">
<title>Node26</title>
<g id="a_node26"><a xlink:href="_buzzer_8h.html" target="_top" xlink:title="Controlador de Buzzer de 12 milimetros sin oscilador.">
<polygon fill="white" stroke="#666666" points="792,-338 706,-338 706,-319 792,-319 792,-338"/>
<text text-anchor="middle" x="749" y="-326" font-family="Helvetica,sans-Serif" font-size="10.00">drivers/Buzzer.h</text>
</a>
</g>
</g>
<!-- Node6&#45;&gt;Node26 -->
<g id="edge31" class="edge">
<title>Node6&#45;&gt;Node26</title>
<path fill="none" stroke="#63b8ff" d="M1075.11,-388.29C998.98,-379.62 851.86,-361.89 801,-349 794.01,-347.23 786.66,-344.83 779.77,-342.31"/>
<polygon fill="#63b8ff" stroke="#63b8ff" points="781.42,-339.2 770.83,-338.89 778.91,-345.74 781.42,-339.2"/>
</g>
<!-- Node28 -->
<g id="node28" class="node">
<title>Node28</title>
<g id="a_node28"><a xlink:href="_motor_8h.html" target="_top" xlink:title="Controlador de motor de 220 VAC.">
<polygon fill="white" stroke="#666666" points="890,-338 810,-338 810,-319 890,-319 890,-338"/>
<text text-anchor="middle" x="850" y="-326" font-family="Helvetica,sans-Serif" font-size="10.00">drivers/Motor.h</text>
</a>
</g>
</g>
<!-- Node6&#45;&gt;Node28 -->
<g id="edge34" class="edge">
<title>Node6&#45;&gt;Node28</title>
<path fill="none" stroke="#63b8ff" d="M1075.28,-386.71C1029.74,-379.51 958.81,-366.71 899,-349 892.85,-347.18 886.41,-344.9 880.28,-342.54"/>
<polygon fill="#63b8ff" stroke="#63b8ff" points="881.72,-339.35 871.14,-338.87 879.11,-345.85 881.72,-339.35"/>
</g>
<!-- Node29 -->
<g id="node29" class="node">
<title>Node29</title>
<g id="a_node29"><a xlink:href="_dual___l_e_d_8h.html" target="_top" xlink:title="Controlador de LED RG.">
<polygon fill="white" stroke="#666666" points="1221.5,-338 1128.5,-338 1128.5,-319 1221.5,-319 1221.5,-338"/>
<text text-anchor="middle" x="1175" y="-326" font-family="Helvetica,sans-Serif" font-size="10.00">drivers/Dual_led.h</text>
</a>
</g>
</g>
<!-- Node6&#45;&gt;Node29 -->
<g id="edge37" class="edge">
<title>Node6&#45;&gt;Node29</title>
<path fill="none" stroke="#63b8ff" d="M1129.37,-384.6C1137.36,-374.95 1150.32,-359.31 1160.39,-347.15"/>
<polygon fill="#63b8ff" stroke="#63b8ff" points="1163.05,-349.42 1166.73,-339.49 1157.65,-344.96 1163.05,-349.42"/>
</g>
<!-- Node30 -->
<g id="node30" class="node">
<title>Node30</title>
<g id="a_node30"><a xlink:href="_digital__dual___l_e_d_8h_source.html" target="_top" xlink:title=" ">
<polygon fill="white" stroke="#666666" points="1376,-343.5 1278,-343.5 1278,-313.5 1376,-313.5 1376,-343.5"/>
<text text-anchor="start" x="1286" y="-331.5" font-family="Helvetica,sans-Serif" font-size="10.00">drivers/Digital_dual</text>
<text text-anchor="middle" x="1327" y="-320.5" font-family="Helvetica,sans-Serif" font-size="10.00">_led.h</text>
</a>
</g>
</g>
<!-- Node6&#45;&gt;Node30 -->
<g id="edge41" class="edge">
<title>Node6&#45;&gt;Node30</title>
<path fill="none" stroke="#63b8ff" d="M1150.5,-384.6C1181.28,-374.99 1231.1,-359.44 1269.98,-347.3"/>
<polygon fill="#63b8ff" stroke="#63b8ff" points="1270.68,-350.75 1279.18,-344.43 1268.59,-344.07 1270.68,-350.75"/>
</g>
<!-- Node31 -->
<g id="node31" class="node">
<title>Node31</title>
<g id="a_node31"><a xlink:href="_cooler_8h.html" target="_top" xlink:title="Controlador de ventilador de 12 volts y 5 milímteros.">
<polygon fill="white" stroke="#666666" points="1110.5,-338 1027.5,-338 1027.5,-319 1110.5,-319 1110.5,-338"/>
<text text-anchor="middle" x="1069" y="-326" font-family="Helvetica,sans-Serif" font-size="10.00">drivers/Cooler.h</text>
</a>
</g>
</g>
<!-- Node6&#45;&gt;Node31 -->
<g id="edge44" class="edge">
<title>Node6&#45;&gt;Node31</title>
<path fill="none" stroke="#63b8ff" d="M1114.63,-384.6C1106.64,-374.95 1093.68,-359.31 1083.61,-347.15"/>
<polygon fill="#63b8ff" stroke="#63b8ff" points="1086.35,-344.96 1077.27,-339.49 1080.95,-349.42 1086.35,-344.96"/>
</g>
<!-- Node32 -->
<g id="node32" class="node">
<title>Node32</title>
<g id="a_node32"><a xlink:href="_shutdown__state_8h.html" target="_top" xlink:title="Clase de estado de apagado del sistema.">
<polygon fill="white" stroke="#666666" points="1528,-349 1394,-349 1394,-308 1528,-308 1528,-349"/>
<text text-anchor="start" x="1402" y="-337" font-family="Helvetica,sans-Serif" font-size="10.00">machine_state_pattern</text>
<text text-anchor="start" x="1402" y="-326" font-family="Helvetica,sans-Serif" font-size="10.00">/machine_states/Shutdown</text>
<text text-anchor="middle" x="1461" y="-315" font-family="Helvetica,sans-Serif" font-size="10.00">_state.h</text>
</a>
</g>
</g>
<!-- Node6&#45;&gt;Node32 -->
<g id="edge47" class="edge">
<title>Node6&#45;&gt;Node32</title>
<path fill="none" stroke="#63b8ff" d="M1168.8,-385.77C1219.97,-377.76 1303.98,-364.3 1376,-349 1378.15,-348.54 1380.33,-348.07 1382.53,-347.58"/>
<polygon fill="#63b8ff" stroke="#63b8ff" points="1383.22,-351.01 1392.18,-345.35 1381.65,-344.19 1383.22,-351.01"/>
</g>
<!-- Node7&#45;&gt;Node4 -->
<g id="edge7" class="edge">
<title>Node7&#45;&gt;Node4</title>
<path fill="none" stroke="#63b8ff" d="M474,-313.04C474,-303.18 474,-289.86 474,-278.22"/>
<polygon fill="#63b8ff" stroke="#63b8ff" points="477.5,-278.43 474,-268.43 470.5,-278.43 477.5,-278.43"/>
</g>
<!-- Node7&#45;&gt;Node5 -->
<g id="edge8" class="edge">
<title>Node7&#45;&gt;Node5</title>
<path fill="none" stroke="#63b8ff" d="M445.46,-313.04C422.43,-301.37 389.8,-284.83 364.46,-271.99"/>
<polygon fill="#63b8ff" stroke="#63b8ff" points="366.3,-269 355.8,-267.6 363.14,-275.24 366.3,-269"/>
</g>
<!-- Node9 -->
<g id="node9" class="node">
<title>Node9</title>
<g id="a_node9"><a xlink:href="_abstract__state_8h.html" target="_top" xlink:title="Clase de estado abstracta.">
<polygon fill="white" stroke="#666666" points="1619,-41 1491,-41 1491,0 1619,0 1619,-41"/>
<text text-anchor="start" x="1499" y="-29" font-family="Helvetica,sans-Serif" font-size="10.00">machine_state_pattern</text>
<text text-anchor="start" x="1499" y="-18" font-family="Helvetica,sans-Serif" font-size="10.00">/machine_states/Abstract</text>
<text text-anchor="middle" x="1555" y="-7" font-family="Helvetica,sans-Serif" font-size="10.00">_state.h</text>
</a>
</g>
</g>
<!-- Node8&#45;&gt;Node9 -->
<g id="edge10" class="edge">
<title>Node8&#45;&gt;Node9</title>
<path fill="none" stroke="#63b8ff" d="M1759.41,-159.1C1733.2,-139.93 1685.1,-105.18 1643,-77 1628.1,-67.03 1611.53,-56.44 1596.82,-47.22"/>
<polygon fill="#63b8ff" stroke="#63b8ff" points="1599.07,-44.51 1588.74,-42.18 1595.37,-50.45 1599.07,-44.51"/>
</g>
<!-- Node11 -->
<g id="node11" class="node">
<title>Node11</title>
<g id="a_node11"><a xlink:href="display__settings_8h.html" target="_top" xlink:title="Archivo de configuración de la pantalla.">
<polygon fill="white" stroke="#666666" points="241.5,-261 146.5,-261 146.5,-242 241.5,-242 241.5,-261"/>
<text text-anchor="middle" x="194" y="-249" font-family="Helvetica,sans-Serif" font-size="10.00">display_settings.h</text>
</a>
</g>
</g>
<!-- Node10&#45;&gt;Node11 -->
<g id="edge12" class="edge">
<title>Node10&#45;&gt;Node11</title>
<path fill="none" stroke="#63b8ff" d="M194,-318.6C194,-307.33 194,-287.55 194,-272.56"/>
<polygon fill="#63b8ff" stroke="#63b8ff" points="197.5,-272.9 194,-262.9 190.5,-272.9 197.5,-272.9"/>
</g>
<!-- Node12 -->
<g id="node12" class="node">
<title>Node12</title>
<g id="a_node12"><a xlink:href="hd44780___i2_cexp_8h_source.html" target="_top" xlink:title=" ">
<polygon fill="white" stroke="#666666" points="128,-261 0,-261 0,-242 128,-242 128,-261"/>
<text text-anchor="middle" x="64" y="-249" font-family="Helvetica,sans-Serif" font-size="10.00">drivers/hd44780_I2Cexp.h</text>
</a>
</g>
</g>
<!-- Node10&#45;&gt;Node12 -->
<g id="edge13" class="edge">
<title>Node10&#45;&gt;Node12</title>
<path fill="none" stroke="#63b8ff" d="M178.58,-318.6C156.49,-305.86 115.6,-282.27 89.11,-266.99"/>
<polygon fill="#63b8ff" stroke="#63b8ff" points="91.13,-264.11 80.71,-262.14 87.63,-270.17 91.13,-264.11"/>
</g>
<!-- Node13 -->
<g id="node13" class="node">
<title>Node13</title>
<g id="a_node13"><a xlink:title=" ">
<polygon fill="#e0e0e0" stroke="#999999" points="823.5,-107 774.5,-107 774.5,-88 823.5,-88 823.5,-107"/>
<text text-anchor="middle" x="799" y="-95" font-family="Helvetica,sans-Serif" font-size="10.00">mbed.h</text>
</a>
</g>
</g>
<!-- Node12&#45;&gt;Node13 -->
<g id="edge14" class="edge">
<title>Node12&#45;&gt;Node13</title>
<path fill="none" stroke="#63b8ff" d="M95.12,-241.58C108.02,-238.04 123.17,-234.09 137,-231 225.15,-211.33 248.36,-212.34 337,-195 423.49,-178.08 444.74,-172.05 531,-154 614.06,-136.62 711.66,-116.48 763.09,-105.89"/>
<polygon fill="#63b8ff" stroke="#63b8ff" points="763.67,-109.34 772.76,-103.9 762.25,-102.49 763.67,-109.34"/>
</g>
<!-- Node14 -->
<g id="node14" class="node">
<title>Node14</title>
<g id="a_node14"><a xlink:title=" ">
<polygon fill="#e0e0e0" stroke="#999999" points="51,-107 3,-107 3,-88 51,-88 51,-107"/>
<text text-anchor="middle" x="27" y="-95" font-family="Helvetica,sans-Serif" font-size="10.00">stdlib.h</text>
</a>
</g>
</g>
<!-- Node12&#45;&gt;Node14 -->
<g id="edge15" class="edge">
<title>Node12&#45;&gt;Node14</title>
<path fill="none" stroke="#63b8ff" d="M61.9,-241.89C56.16,-218.28 40.03,-152.03 31.87,-118.49"/>
<polygon fill="#63b8ff" stroke="#63b8ff" points="35.29,-117.75 29.52,-108.86 28.49,-119.41 35.29,-117.75"/>
</g>
<!-- Node15 -->
<g id="node15" class="node">
<title>Node15</title>
<g id="a_node15"><a xlink:href="hd44780__instruction__set_8h_source.html" target="_top" xlink:title=" ">
<polygon fill="white" stroke="#666666" points="328,-189.5 224,-189.5 224,-159.5 328,-159.5 328,-189.5"/>
<text text-anchor="start" x="232" y="-177.5" font-family="Helvetica,sans-Serif" font-size="10.00">hd44780_instruction</text>
<text text-anchor="middle" x="276" y="-166.5" font-family="Helvetica,sans-Serif" font-size="10.00">_set.h</text>
</a>
</g>
</g>
<!-- Node12&#45;&gt;Node15 -->
<g id="edge16" class="edge">
<title>Node12&#45;&gt;Node15</title>
<path fill="none" stroke="#63b8ff" d="M89.15,-241.6C122.35,-229.86 181.59,-208.9 224.48,-193.73"/>
<polygon fill="#63b8ff" stroke="#63b8ff" points="225.6,-197.04 233.86,-190.41 223.26,-190.45 225.6,-197.04"/>
</g>
<!-- Node16 -->
<g id="node16" class="node">
<title>Node16</title>
<g id="a_node16"><a xlink:href="utils_8h_source.html" target="_top" xlink:title=" ">
<polygon fill="white" stroke="#666666" points="114.5,-184 71.5,-184 71.5,-165 114.5,-165 114.5,-184"/>
<text text-anchor="middle" x="93" y="-172" font-family="Helvetica,sans-Serif" font-size="10.00">utils.h</text>
</a>
</g>
</g>
<!-- Node12&#45;&gt;Node16 -->
<g id="edge18" class="edge">
<title>Node12&#45;&gt;Node16</title>
<path fill="none" stroke="#63b8ff" d="M67.44,-241.6C71.84,-230.21 79.6,-210.16 85.42,-195.11"/>
<polygon fill="#63b8ff" stroke="#63b8ff" points="88.68,-196.39 89.02,-185.8 82.15,-193.86 88.68,-196.39"/>
</g>
<!-- Node15&#45;&gt;Node13 -->
<g id="edge17" class="edge">
<title>Node15&#45;&gt;Node13</title>
<path fill="none" stroke="#63b8ff" d="M328.06,-166.03C433.89,-150.86 671.8,-116.74 762.73,-103.7"/>
<polygon fill="#63b8ff" stroke="#63b8ff" points="763.16,-107.18 772.56,-102.29 762.17,-100.25 763.16,-107.18"/>
</g>
<!-- Node16&#45;&gt;Node14 -->
<g id="edge21" class="edge">
<title>Node16&#45;&gt;Node14</title>
<path fill="none" stroke="#63b8ff" d="M85.17,-164.6C74.65,-152.65 55.73,-131.15 42.33,-115.92"/>
<polygon fill="#63b8ff" stroke="#63b8ff" points="45.05,-113.72 35.82,-108.52 39.8,-118.34 45.05,-113.72"/>
</g>
<!-- Node17 -->
<g id="node17" class="node">
<title>Node17</title>
<g id="a_node17"><a xlink:title=" ">
<polygon fill="#e0e0e0" stroke="#999999" points="116.5,-107 69.5,-107 69.5,-88 116.5,-88 116.5,-107"/>
<text text-anchor="middle" x="93" y="-95" font-family="Helvetica,sans-Serif" font-size="10.00">math.h</text>
</a>
</g>
</g>
<!-- Node16&#45;&gt;Node17 -->
<g id="edge19" class="edge">
<title>Node16&#45;&gt;Node17</title>
<path fill="none" stroke="#63b8ff" d="M93,-164.6C93,-153.33 93,-133.55 93,-118.56"/>
<polygon fill="#63b8ff" stroke="#63b8ff" points="96.5,-118.9 93,-108.9 89.5,-118.9 96.5,-118.9"/>
</g>
<!-- Node18 -->
<g id="node18" class="node">
<title>Node18</title>
<g id="a_node18"><a xlink:title=" ">
<polygon fill="#e0e0e0" stroke="#999999" points="181,-107 135,-107 135,-88 181,-88 181,-107"/>
<text text-anchor="middle" x="158" y="-95" font-family="Helvetica,sans-Serif" font-size="10.00">stdio.h</text>
</a>
</g>
</g>
<!-- Node16&#45;&gt;Node18 -->
<g id="edge20" class="edge">
<title>Node16&#45;&gt;Node18</title>
<path fill="none" stroke="#63b8ff" d="M100.71,-164.6C111.07,-152.65 129.7,-131.15 142.9,-115.92"/>
<polygon fill="#63b8ff" stroke="#63b8ff" points="145.4,-118.38 149.31,-108.53 140.11,-113.79 145.4,-118.38"/>
</g>
<!-- Node19 -->
<g id="node19" class="node">
<title>Node19</title>
<g id="a_node19"><a xlink:title=" ">
<polygon fill="#e0e0e0" stroke="#999999" points="248.5,-107 199.5,-107 199.5,-88 248.5,-88 248.5,-107"/>
<text text-anchor="middle" x="224" y="-95" font-family="Helvetica,sans-Serif" font-size="10.00">string.h</text>
</a>
</g>
</g>
<!-- Node16&#45;&gt;Node19 -->
<g id="edge22" class="edge">
<title>Node16&#45;&gt;Node19</title>
<path fill="none" stroke="#63b8ff" d="M108.46,-164.66C127.6,-153.71 161.21,-134.49 190,-118 192.82,-116.38 195.78,-114.69 198.72,-113"/>
<polygon fill="#63b8ff" stroke="#63b8ff" points="200.18,-116.2 207.12,-108.19 196.7,-110.13 200.18,-116.2"/>
</g>
<!-- Node22 -->
<g id="node22" class="node">
<title>Node22</title>
<g id="a_node22"><a xlink:href="system__settings_8h.html" target="_top" xlink:title="Archivo para la definición de constantes del sistema.">
<polygon fill="white" stroke="#666666" points="1124.5,-261 1027.5,-261 1027.5,-242 1124.5,-242 1124.5,-261"/>
<text text-anchor="middle" x="1076" y="-249" font-family="Helvetica,sans-Serif" font-size="10.00">system_settings.h</text>
</a>
</g>
</g>
<!-- Node21&#45;&gt;Node22 -->
<g id="edge26" class="edge">
<title>Node21&#45;&gt;Node22</title>
<path fill="none" stroke="#63b8ff" d="M981.56,-313.04C1002.01,-299.93 1032.03,-280.69 1052.7,-267.43"/>
<polygon fill="#63b8ff" stroke="#63b8ff" points="1054.49,-270.45 1061.02,-262.1 1050.71,-264.55 1054.49,-270.45"/>
</g>
<!-- Node23 -->
<g id="node23" class="node">
<title>Node23</title>
<g id="a_node23"><a xlink:title=" ">
<polygon fill="#e0e0e0" stroke="#999999" points="970.5,-261 911.5,-261 911.5,-242 970.5,-242 970.5,-261"/>
<text text-anchor="middle" x="941" y="-249" font-family="Helvetica,sans-Serif" font-size="10.00">DS1820.h</text>
</a>
</g>
</g>
<!-- Node21&#45;&gt;Node23 -->
<g id="edge27" class="edge">
<title>Node21&#45;&gt;Node23</title>
<path fill="none" stroke="#63b8ff" d="M955.53,-313.04C952.74,-301.43 948.8,-285 945.73,-272.19"/>
<polygon fill="#63b8ff" stroke="#63b8ff" points="949.2,-271.67 943.46,-262.76 942.39,-273.3 949.2,-271.67"/>
</g>
<!-- Node24&#45;&gt;Node13 -->
<g id="edge29" class="edge">
<title>Node24&#45;&gt;Node13</title>
<path fill="none" stroke="#63b8ff" d="M627.13,-164.6C661.37,-151.44 725.71,-126.69 765.21,-111.49"/>
<polygon fill="#63b8ff" stroke="#63b8ff" points="766.41,-114.79 774.48,-107.93 763.89,-108.25 766.41,-114.79"/>
</g>
<!-- Node26&#45;&gt;Node13 -->
<g id="edge32" class="edge">
<title>Node26&#45;&gt;Node13</title>
<path fill="none" stroke="#63b8ff" d="M748.65,-318.62C748.16,-301.5 747.9,-262.8 754,-231 761.98,-189.39 779.97,-142.99 790.63,-117.63"/>
<polygon fill="#63b8ff" stroke="#63b8ff" points="793.75,-119.23 794.48,-108.66 787.32,-116.47 793.75,-119.23"/>
</g>
<!-- Node27 -->
<g id="node27" class="node">
<title>Node27</title>
<g id="a_node27"><a xlink:href="port__config_8h.html" target="_top" xlink:title="Archivo de configuración para los puertos de la placa donde se implementará el sistema.">
<polygon fill="white" stroke="#666666" points="835,-261 763,-261 763,-242 835,-242 835,-261"/>
<text text-anchor="middle" x="799" y="-249" font-family="Helvetica,sans-Serif" font-size="10.00">port_config.h</text>
</a>
</g>
</g>
<!-- Node26&#45;&gt;Node27 -->
<g id="edge33" class="edge">
<title>Node26&#45;&gt;Node27</title>
<path fill="none" stroke="#63b8ff" d="M754.93,-318.6C762.75,-306.87 776.7,-285.96 786.81,-270.79"/>
<polygon fill="#63b8ff" stroke="#63b8ff" points="789.6,-272.91 792.24,-262.65 783.78,-269.02 789.6,-272.91"/>
</g>
<!-- Node28&#45;&gt;Node13 -->
<g id="edge35" class="edge">
<title>Node28&#45;&gt;Node13</title>
<path fill="none" stroke="#63b8ff" d="M850.23,-318.62C850.5,-301.49 850.27,-262.78 844,-231 835.8,-189.44 817.89,-143.02 807.31,-117.64"/>
<polygon fill="#63b8ff" stroke="#63b8ff" points="810.62,-116.5 803.49,-108.67 804.18,-119.24 810.62,-116.5"/>
</g>
<!-- Node28&#45;&gt;Node27 -->
<g id="edge36" class="edge">
<title>Node28&#45;&gt;Node27</title>
<path fill="none" stroke="#63b8ff" d="M843.95,-318.6C835.97,-306.87 821.75,-285.96 811.44,-270.79"/>
<polygon fill="#63b8ff" stroke="#63b8ff" points="814.41,-268.94 805.89,-262.64 808.62,-272.88 814.41,-268.94"/>
</g>
<!-- Node29&#45;&gt;Node13 -->
<g id="edge38" class="edge">
<title>Node29&#45;&gt;Node13</title>
<path fill="none" stroke="#63b8ff" d="M1173.51,-318.76C1169.9,-300.13 1159,-256.16 1133,-231 1046.94,-147.72 902.13,-114.83 835.08,-103.59"/>
<polygon fill="#63b8ff" stroke="#63b8ff" points="835.79,-100.16 825.36,-102.03 834.68,-107.07 835.79,-100.16"/>
</g>
<!-- Node29&#45;&gt;Node22 -->
<g id="edge40" class="edge">
<title>Node29&#45;&gt;Node22</title>
<path fill="none" stroke="#63b8ff" d="M1163.25,-318.6C1146.88,-306.2 1116.94,-283.51 1096.75,-268.22"/>
<polygon fill="#63b8ff" stroke="#63b8ff" points="1099.02,-265.55 1088.94,-262.3 1094.79,-271.13 1099.02,-265.55"/>
</g>
<!-- Node29&#45;&gt;Node25 -->
<g id="edge39" class="edge">
<title>Node29&#45;&gt;Node25</title>
<path fill="none" stroke="#63b8ff" d="M1183.9,-318.6C1195.96,-306.54 1217.76,-284.74 1233.01,-269.49"/>
<polygon fill="#63b8ff" stroke="#63b8ff" points="1235.45,-272 1240.04,-262.46 1230.5,-267.05 1235.45,-272"/>
</g>
<!-- Node30&#45;&gt;Node13 -->
<g id="edge42" class="edge">
<title>Node30&#45;&gt;Node13</title>
<path fill="none" stroke="#63b8ff" d="M1324.37,-313.3C1319.8,-292.43 1308.41,-253.5 1284,-231 1153.32,-110.51 923.65,-97.87 835.17,-97.74"/>
<polygon fill="#63b8ff" stroke="#63b8ff" points="835.38,-94.24 825.4,-97.78 835.41,-101.24 835.38,-94.24"/>
</g>
<!-- Node30&#45;&gt;Node25 -->
<g id="edge43" class="edge">
<title>Node30&#45;&gt;Node25</title>
<path fill="none" stroke="#63b8ff" d="M1312.15,-313.04C1299.25,-300.47 1280.55,-282.26 1267.04,-269.1"/>
<polygon fill="#63b8ff" stroke="#63b8ff" points="1269.71,-266.81 1260.11,-262.34 1264.83,-271.83 1269.71,-266.81"/>
</g>
<!-- Node31&#45;&gt;Node13 -->
<g id="edge45" class="edge">
<title>Node31&#45;&gt;Node13</title>
<path fill="none" stroke="#63b8ff" d="M1061.05,-318.79C1040.72,-296.55 987.81,-238.84 979,-231 926.24,-184.03 857.5,-136.87 822.18,-113.53"/>
<polygon fill="#63b8ff" stroke="#63b8ff" points="824.3,-110.73 814.02,-108.17 820.46,-116.58 824.3,-110.73"/>
</g>
<!-- Node31&#45;&gt;Node22 -->
<g id="edge46" class="edge">
<title>Node31&#45;&gt;Node22</title>
<path fill="none" stroke="#63b8ff" d="M1069.83,-318.6C1070.88,-307.33 1072.73,-287.55 1074.13,-272.56"/>
<polygon fill="#63b8ff" stroke="#63b8ff" points="1077.59,-273.18 1075.03,-262.89 1070.62,-272.52 1077.59,-273.18"/>
</g>
<!-- Node32&#45;&gt;Node6 -->
<g id="edge48" class="edge">
<title>Node32&#45;&gt;Node6</title>
<path fill="none" stroke="#63b8ff" d="M1393.54,-349.1C1320.68,-364.56 1235.66,-378.13 1180.34,-386.08"/>
<polygon fill="#63b8ff" stroke="#63b8ff" points="1179.9,-382.6 1170.49,-387.47 1180.89,-389.53 1179.9,-382.6"/>
</g>
<!-- Node32&#45;&gt;Node9 -->
<g id="edge49" class="edge">
<title>Node32&#45;&gt;Node9</title>
<path fill="none" stroke="#63b8ff" d="M1451.96,-307.66C1447.72,-297.27 1443.13,-284.21 1441,-272 1425.89,-185.48 1424.11,-149.96 1473,-77 1480.85,-65.28 1492.1,-55.37 1503.75,-47.32"/>
<polygon fill="#63b8ff" stroke="#63b8ff" points="1505.36,-50.44 1511.86,-42.08 1501.56,-44.57 1505.36,-50.44"/>
</g>
<!-- Node33 -->
<g id="node33" class="node">
<title>Node33</title>
<g id="a_node33"><a xlink:href="_idle__state_8h.html" target="_top" xlink:title="Clase de estado de reposo.">
<polygon fill="white" stroke="#666666" points="1566,-272 1450,-272 1450,-231 1566,-231 1566,-272"/>
<text text-anchor="start" x="1458" y="-260" font-family="Helvetica,sans-Serif" font-size="10.00">machine_state_pattern</text>
<text text-anchor="start" x="1458" y="-249" font-family="Helvetica,sans-Serif" font-size="10.00">/machine_states/Idle</text>
<text text-anchor="middle" x="1508" y="-238" font-family="Helvetica,sans-Serif" font-size="10.00">_state.h</text>
</a>
</g>
</g>
<!-- Node32&#45;&gt;Node33 -->
<g id="edge50" class="edge">
<title>Node32&#45;&gt;Node33</title>
<path fill="none" stroke="#63b8ff" d="M1473.35,-307.79C1478.27,-299.93 1484.05,-290.71 1489.46,-282.08"/>
<polygon fill="#63b8ff" stroke="#63b8ff" points="1492.42,-283.95 1494.77,-273.62 1486.49,-280.23 1492.42,-283.95"/>
</g>
<!-- Node33&#45;&gt;Node6 -->
<g id="edge51" class="edge">
<title>Node33&#45;&gt;Node6</title>
<path fill="none" stroke="#63b8ff" d="M1523.7,-272.27C1538.67,-293.65 1556.29,-327.53 1537,-349 1513.58,-375.07 1288.57,-387.15 1180.02,-391.5"/>
<polygon fill="#63b8ff" stroke="#63b8ff" points="1180,-388 1170.15,-391.88 1180.28,-394.99 1180,-388"/>
</g>
<!-- Node33&#45;&gt;Node9 -->
<g id="edge52" class="edge">
<title>Node33&#45;&gt;Node9</title>
<path fill="none" stroke="#63b8ff" d="M1499.17,-230.66C1485.67,-197.24 1463.87,-128.31 1488,-77 1493.16,-66.02 1501.68,-56.47 1510.94,-48.52"/>
<polygon fill="#63b8ff" stroke="#63b8ff" points="1513.09,-51.29 1518.78,-42.35 1508.76,-45.79 1513.09,-51.29"/>
</g>
<!-- Node34 -->
<g id="node34" class="node">
<title>Node34</title>
<g id="a_node34"><a xlink:href="_motor__control__state_8h.html" target="_top" xlink:title="Clase de estado de control del motor.">
<polygon fill="white" stroke="#666666" points="1613,-118 1497,-118 1497,-77 1613,-77 1613,-118"/>
<text text-anchor="start" x="1505" y="-106" font-family="Helvetica,sans-Serif" font-size="10.00">machine_state_pattern</text>
<text text-anchor="start" x="1505" y="-95" font-family="Helvetica,sans-Serif" font-size="10.00">/machine_states/Motor</text>
<text text-anchor="middle" x="1555" y="-84" font-family="Helvetica,sans-Serif" font-size="10.00">_control_state.h</text>
</a>
</g>
</g>
<!-- Node33&#45;&gt;Node34 -->
<g id="edge53" class="edge">
<title>Node33&#45;&gt;Node34</title>
<path fill="none" stroke="#63b8ff" d="M1509.41,-230.63C1515.04,-204.68 1528.9,-159.02 1540.12,-128.76"/>
<polygon fill="#63b8ff" stroke="#63b8ff" points="1543.25,-130.38 1543.58,-119.79 1536.72,-127.86 1543.25,-130.38"/>
</g>
<!-- Node35 -->
<g id="node35" class="node">
<title>Node35</title>
<g id="a_node35"><a xlink:href="_check__instruction__state_8h_source.html" target="_top" xlink:title=" ">
<polygon fill="white" stroke="#666666" points="1702.5,-195 1583.5,-195 1583.5,-154 1702.5,-154 1702.5,-195"/>
<text text-anchor="start" x="1591.5" y="-183" font-family="Helvetica,sans-Serif" font-size="10.00">machine_state_pattern</text>
<text text-anchor="start" x="1591.5" y="-172" font-family="Helvetica,sans-Serif" font-size="10.00">/machine_states/Check</text>
<text text-anchor="middle" x="1643" y="-161" font-family="Helvetica,sans-Serif" font-size="10.00">_instruction_state.h</text>
</a>
</g>
</g>
<!-- Node33&#45;&gt;Node35 -->
<g id="edge61" class="edge">
<title>Node33&#45;&gt;Node35</title>
<path fill="none" stroke="#63b8ff" d="M1543.82,-230.6C1560.15,-221.53 1579.67,-210.68 1597.06,-201.02"/>
<polygon fill="#63b8ff" stroke="#63b8ff" points="1598.64,-204.15 1605.69,-196.23 1595.25,-198.03 1598.64,-204.15"/>
</g>
<!-- Node34&#45;&gt;Node6 -->
<g id="edge54" class="edge">
<title>Node34&#45;&gt;Node6</title>
<path fill="none" stroke="#63b8ff" d="M1560.4,-118.29C1568.5,-150.53 1582.11,-216.36 1575,-272 1570.52,-307.07 1581.82,-325.96 1555,-349 1527.14,-372.92 1291.97,-386.17 1180.36,-391.16"/>
<polygon fill="#63b8ff" stroke="#63b8ff" points="1180.33,-387.66 1170.5,-391.6 1180.64,-394.65 1180.33,-387.66"/>
</g>
<!-- Node34&#45;&gt;Node9 -->
<g id="edge55" class="edge">
<title>Node34&#45;&gt;Node9</title>
<path fill="none" stroke="#63b8ff" d="M1555,-76.79C1555,-69.45 1555,-60.91 1555,-52.78"/>
<polygon fill="#63b8ff" stroke="#63b8ff" points="1558.5,-52.85 1555,-42.85 1551.5,-52.85 1558.5,-52.85"/>
</g>
<!-- Node34&#45;&gt;Node33 -->
<g id="edge56" class="edge">
<title>Node34&#45;&gt;Node33</title>
<path fill="none" stroke="#63b8ff" d="M1553.59,-118.38C1547.96,-144.32 1534.1,-189.99 1522.87,-220.24"/>
<polygon fill="#63b8ff" stroke="#63b8ff" points="1519.75,-218.63 1519.42,-229.22 1526.28,-221.14 1519.75,-218.63"/>
</g>
<!-- Node34&#45;&gt;Node35 -->
<g id="edge57" class="edge">
<title>Node34&#45;&gt;Node35</title>
<path fill="none" stroke="#63b8ff" d="M1584.31,-118.33C1595.1,-126.89 1607.17,-137.05 1617.6,-146.29"/>
<polygon fill="#63b8ff" stroke="#63b8ff" points="1615.01,-148.68 1624.78,-152.78 1619.7,-143.48 1615.01,-148.68"/>
</g>
<!-- Node35&#45;&gt;Node6 -->
<g id="edge58" class="edge">
<title>Node35&#45;&gt;Node6</title>
<path fill="none" stroke="#63b8ff" d="M1645.76,-195.22C1649.64,-231.7 1651.9,-309.59 1608,-349 1576.73,-377.07 1302.16,-388.36 1180.08,-392.02"/>
<polygon fill="#63b8ff" stroke="#63b8ff" points="1180.16,-388.51 1170.27,-392.3 1180.37,-395.51 1180.16,-388.51"/>
</g>
<!-- Node35&#45;&gt;Node9 -->
<g id="edge59" class="edge">
<title>Node35&#45;&gt;Node9</title>
<path fill="none" stroke="#63b8ff" d="M1642.43,-153.62C1641.01,-133.07 1636.44,-100.73 1622,-77 1615.45,-66.23 1606.05,-56.59 1596.35,-48.48"/>
<polygon fill="#63b8ff" stroke="#63b8ff" points="1598.65,-45.83 1588.63,-42.41 1594.33,-51.34 1598.65,-45.83"/>
</g>
<!-- Node35&#45;&gt;Node34 -->
<g id="edge60" class="edge">
<title>Node35&#45;&gt;Node34</title>
<path fill="none" stroke="#63b8ff" d="M1613.86,-153.79C1603.08,-145.25 1591,-135.1 1580.56,-125.84"/>
<polygon fill="#63b8ff" stroke="#63b8ff" points="1583.13,-123.45 1573.36,-119.35 1578.44,-128.65 1583.13,-123.45"/>
</g>
</g>
</svg>
        <g id="navigator" transform="translate(0 0)" fill="#404254">
                <rect fill="#f2f5e9" fill-opacity="0.5" stroke="#606060" stroke-width=".5" x="0" y="0" width="60" height="60"/>
                <use id="zoomplus" xlink:href="#zoomPlus" x="17" y="9" onmousedown="handleZoom(evt,'in')"/>
                <use id="zoomminus" xlink:href="#zoomMin" x="42" y="9" onmousedown="handleZoom(evt,'out')"/>
                <use id="reset" xlink:href="#resetDef" x="30" y="36" onmousedown="handleReset()"/>
                <g id="arrowUp" xlink:href="#dirArrow" transform="translate(30 24)" onmousedown="handlePan(0,-1)">
                  <use xlink:href="#rim" fill="#404040">
                        <set attributeName="fill" to="#808080" begin="arrowUp.mouseover" end="arrowUp.mouseout"/>
                  </use>
                  <path fill="none" stroke="white" stroke-width="1.5" d="M0,-3.0v7 M-2.5,-0.5L0,-3.0L2.5,-0.5"/>
                </g>
                <g id="arrowRight" xlink:href="#dirArrow" transform="rotate(90) translate(36 -43)" onmousedown="handlePan(1,0)">
                  <use xlink:href="#rim" fill="#404040">
                        <set attributeName="fill" to="#808080" begin="arrowRight.mouseover" end="arrowRight.mouseout"/>
                  </use>
                  <path fill="none" stroke="white" stroke-width="1.5" d="M0,-3.0v7 M-2.5,-0.5L0,-3.0L2.5,-0.5"/>
                </g>
                <g id="arrowDown" xlink:href="#dirArrow" transform="rotate(180) translate(-30 -48)" onmousedown="handlePan(0,1)">
                  <use xlink:href="#rim" fill="#404040">
                        <set attributeName="fill" to="#808080" begin="arrowDown.mouseover" end="arrowDown.mouseout"/>
                  </use>
                  <path fill="none" stroke="white" stroke-width="1.5" d="M0,-3.0v7 M-2.5,-0.5L0,-3.0L2.5,-0.5"/>
                </g>
                <g id="arrowLeft" xlink:href="#dirArrow" transform="rotate(270) translate(-36 17)" onmousedown="handlePan(-1,0)">
                  <use xlink:href="#rim" fill="#404040">
                        <set attributeName="fill" to="#808080" begin="arrowLeft.mouseover" end="arrowLeft.mouseout"/>
                  </use>
                  <path fill="none" stroke="white" stroke-width="1.5" d="M0,-3.0v7 M-2.5,-0.5L0,-3.0L2.5,-0.5"/>
                </g>
        </g>
        <svg viewBox="0 0 15 15" width="100%" height="30px" preserveAspectRatio="xMaxYMin meet">
         <g id="arrow_out" transform="scale(0.3 0.3)">
          <a xlink:href="_instruction__observer_8h__incl_org.svg" target="_base">
           <rect id="button" ry="5" rx="5" y="6" x="6" height="38" width="38"
                fill="#f2f5e9" fill-opacity="0.5" stroke="#606060" stroke-width="1.0"/>
           <path id="arrow"
             d="M 11.500037,31.436501 C 11.940474,20.09759 22.043105,11.32322 32.158766,21.979434 L 37.068811,17.246167 C 37.068811,17.246167 37.088388,32 37.088388,32 L 22.160133,31.978069 C 22.160133,31.978069 26.997745,27.140456 26.997745,27.140456 C 18.528582,18.264221 13.291696,25.230495 11.500037,31.436501 z"
             style="fill:#404040;"/>
          </a>
         </g>
        </svg>
</svg>
