<?xml version="1.0" encoding="UTF-8" standalone="no"?>
<!DOCTYPE svg PUBLIC "-//W3C//DTD SVG 1.1//EN"
 "http://www.w3.org/Graphics/SVG/1.1/DTD/svg11.dtd">
<!-- Generated by graphviz version 7.0.2 (20221119.0110)
 -->
<!-- Title: C:/Users/juanh/OneDrive/Escritorio/Facultad/Beca/Proyecto/LAL_Control/src/observer_pattern/Instruction_observer.cpp Pages: 1 -->
<svg width="1764pt" height="566pt"
 viewBox="0.00 0.00 1764.40 566.00" xmlns="http://www.w3.org/2000/svg" xmlns:xlink="http://www.w3.org/1999/xlink">
<g id="graph0" class="graph" transform="scale(1 1) rotate(0) translate(4 562)">
<title>C:/Users/juanh/OneDrive/Escritorio/Facultad/Beca/Proyecto/LAL_Control/src/observer_pattern/Instruction_observer.cpp</title>
<!-- Node1 -->
<g id="node1" class="node">
<title>Node1</title>
<g id="a_node1"><a xlink:title=" ">
<polygon fill="#999999" stroke="#666666" points="1151.5,-558 1012.5,-558 1012.5,-495 1151.5,-495 1151.5,-558"/>
<text text-anchor="start" x="1020.5" y="-546" font-family="Helvetica,sans-Serif" font-size="10.00">C:/Users/juanh/OneDrive</text>
<text text-anchor="start" x="1020.5" y="-535" font-family="Helvetica,sans-Serif" font-size="10.00">/Escritorio/Facultad/Beca</text>
<text text-anchor="start" x="1020.5" y="-524" font-family="Helvetica,sans-Serif" font-size="10.00">/Proyecto/LAL_Control/src</text>
<text text-anchor="start" x="1020.5" y="-513" font-family="Helvetica,sans-Serif" font-size="10.00">/observer_pattern/Instruction</text>
<text text-anchor="middle" x="1082" y="-502" font-family="Helvetica,sans-Serif" font-size="10.00">_observer.cpp</text>
</a>
</g>
</g>
<!-- Node2 -->
<g id="node2" class="node">
<title>Node2</title>
<g id="a_node2"><a xlink:href="_instruction__observer_8h.html" target="_top" xlink:title="Observador de instrucciones.">
<polygon fill="white" stroke="#666666" points="1148,-459 1016,-459 1016,-429 1148,-429 1148,-459"/>
<text text-anchor="start" x="1024" y="-447" font-family="Helvetica,sans-Serif" font-size="10.00">observer_pattern/observers</text>
<text text-anchor="middle" x="1082" y="-436" font-family="Helvetica,sans-Serif" font-size="10.00">/Instruction_observer.h</text>
</a>
</g>
</g>
<!-- Node1&#45;&gt;Node2 -->
<g id="edge1" class="edge">
<title>Node1&#45;&gt;Node2</title>
<path fill="none" stroke="#63b8ff" d="M1082,-494.61C1082,-486.67 1082,-478.22 1082,-470.59"/>
<polygon fill="#63b8ff" stroke="#63b8ff" points="1085.5,-470.62 1082,-460.62 1078.5,-470.62 1085.5,-470.62"/>
</g>
<!-- Node3 -->
<g id="node3" class="node">
<title>Node3</title>
<g id="a_node3"><a xlink:href="_system__observer_8h.html" target="_top" xlink:title="Clase observador del sistema de control.">
<polygon fill="white" stroke="#666666" points="1101,-393 969,-393 969,-363 1101,-363 1101,-393"/>
<text text-anchor="start" x="977" y="-381" font-family="Helvetica,sans-Serif" font-size="10.00">observer_pattern/observers</text>
<text text-anchor="middle" x="1035" y="-370" font-family="Helvetica,sans-Serif" font-size="10.00">/System_observer.h</text>
</a>
</g>
</g>
<!-- Node2&#45;&gt;Node3 -->
<g id="edge2" class="edge">
<title>Node2&#45;&gt;Node3</title>
<path fill="none" stroke="#63b8ff" d="M1071.57,-428.8C1065.85,-421.01 1058.61,-411.16 1052.09,-402.28"/>
<polygon fill="#63b8ff" stroke="#63b8ff" points="1055.04,-400.37 1046.3,-394.38 1049.4,-404.52 1055.04,-400.37"/>
</g>
<!-- Node7 -->
<g id="node7" class="node">
<title>Node7</title>
<g id="a_node7"><a xlink:href="_control__system_8h_source.html" target="_top" xlink:title=" ">
<polygon fill="white" stroke="#666666" points="1147.5,-327 1054.5,-327 1054.5,-308 1147.5,-308 1147.5,-327"/>
<text text-anchor="middle" x="1101" y="-315" font-family="Helvetica,sans-Serif" font-size="10.00">Control_system.h</text>
</a>
</g>
</g>
<!-- Node2&#45;&gt;Node7 -->
<g id="edge50" class="edge">
<title>Node2&#45;&gt;Node7</title>
<path fill="none" stroke="#63b8ff" d="M1092.72,-428.55C1099.12,-418.99 1106.63,-405.9 1110,-393 1114.78,-374.7 1111.24,-353.19 1107.28,-338"/>
<polygon fill="#63b8ff" stroke="#63b8ff" points="1110.76,-337.43 1104.6,-328.81 1104.04,-339.39 1110.76,-337.43"/>
</g>
<!-- Node4 -->
<g id="node4" class="node">
<title>Node4</title>
<g id="a_node4"><a xlink:href="_observer_8h.html" target="_top" xlink:title="Clase observador.">
<polygon fill="white" stroke="#666666" points="132,-266.5 0,-266.5 0,-236.5 132,-236.5 132,-266.5"/>
<text text-anchor="start" x="8" y="-254.5" font-family="Helvetica,sans-Serif" font-size="10.00">observer_pattern/observers</text>
<text text-anchor="middle" x="66" y="-243.5" font-family="Helvetica,sans-Serif" font-size="10.00">/Observer.h</text>
</a>
</g>
</g>
<!-- Node3&#45;&gt;Node4 -->
<g id="edge3" class="edge">
<title>Node3&#45;&gt;Node4</title>
<path fill="none" stroke="#63b8ff" d="M968.64,-372.34C819.65,-361.21 447.6,-329.58 141,-272 137,-271.25 132.89,-270.4 128.76,-269.49"/>
<polygon fill="#63b8ff" stroke="#63b8ff" points="129.84,-266.15 119.31,-267.31 128.27,-272.97 129.84,-266.15"/>
</g>
<!-- Node3&#45;&gt;Node7 -->
<g id="edge6" class="edge">
<title>Node3&#45;&gt;Node7</title>
<path fill="none" stroke="#63b8ff" d="M1045.4,-362.54C1054.11,-353.87 1066.51,-342.85 1077.48,-334"/>
<polygon fill="#63b8ff" stroke="#63b8ff" points="1079.31,-337.01 1085.05,-328.1 1075.01,-331.48 1079.31,-337.01"/>
</g>
<!-- Node5 -->
<g id="node5" class="node">
<title>Node5</title>
<g id="a_node5"><a xlink:href="_subject__interface_8h.html" target="_top" xlink:title="Clase para interfaz para implementar el sujeto.">
<polygon fill="white" stroke="#666666" points="129,-189.5 1,-189.5 1,-159.5 129,-159.5 129,-189.5"/>
<text text-anchor="start" x="9" y="-177.5" font-family="Helvetica,sans-Serif" font-size="10.00">observer_pattern/subjects</text>
<text text-anchor="middle" x="65" y="-166.5" font-family="Helvetica,sans-Serif" font-size="10.00">/Subject_interface.h</text>
</a>
</g>
</g>
<!-- Node4&#45;&gt;Node5 -->
<g id="edge4" class="edge">
<title>Node4&#45;&gt;Node5</title>
<path fill="none" stroke="#63b8ff" d="M65.81,-236.04C65.68,-226.18 65.5,-212.86 65.34,-201.22"/>
<polygon fill="#63b8ff" stroke="#63b8ff" points="68.85,-201.38 65.21,-191.43 61.85,-201.48 68.85,-201.38"/>
</g>
<!-- Node6 -->
<g id="node6" class="node">
<title>Node6</title>
<g id="a_node6"><a xlink:href="_observer__interface_8h.html" target="_top" xlink:title="Clase para interfaz para implementar el observador.">
<polygon fill="white" stroke="#666666" points="279,-189.5 147,-189.5 147,-159.5 279,-159.5 279,-189.5"/>
<text text-anchor="start" x="155" y="-177.5" font-family="Helvetica,sans-Serif" font-size="10.00">observer_pattern/observers</text>
<text text-anchor="middle" x="213" y="-166.5" font-family="Helvetica,sans-Serif" font-size="10.00">/Observer_interface.h</text>
</a>
</g>
</g>
<!-- Node4&#45;&gt;Node6 -->
<g id="edge5" class="edge">
<title>Node4&#45;&gt;Node6</title>
<path fill="none" stroke="#63b8ff" d="M94.34,-236.04C117.22,-224.37 149.63,-207.83 174.8,-194.99"/>
<polygon fill="#63b8ff" stroke="#63b8ff" points="176.08,-198.27 183.4,-190.6 172.9,-192.03 176.08,-198.27"/>
</g>
<!-- Node7&#45;&gt;Node3 -->
<g id="edge19" class="edge">
<title>Node7&#45;&gt;Node3</title>
<path fill="none" stroke="#63b8ff" d="M1096.18,-327.18C1089.4,-334.6 1077.51,-345.6 1065.93,-355.38"/>
<polygon fill="#63b8ff" stroke="#63b8ff" points="1063.9,-352.52 1058.4,-361.58 1068.35,-357.93 1063.9,-352.52"/>
</g>
<!-- Node8 -->
<g id="node8" class="node">
<title>Node8</title>
<g id="a_node8"><a xlink:href="_subject_8h.html" target="_top" xlink:title=" ">
<polygon fill="white" stroke="#666666" points="278,-266.5 150,-266.5 150,-236.5 278,-236.5 278,-266.5"/>
<text text-anchor="start" x="158" y="-254.5" font-family="Helvetica,sans-Serif" font-size="10.00">observer_pattern/subjects</text>
<text text-anchor="middle" x="214" y="-243.5" font-family="Helvetica,sans-Serif" font-size="10.00">/Subject.h</text>
</a>
</g>
</g>
<!-- Node7&#45;&gt;Node8 -->
<g id="edge7" class="edge">
<title>Node7&#45;&gt;Node8</title>
<path fill="none" stroke="#63b8ff" d="M1054.38,-311.65C1040.73,-310.34 1025.78,-309 1012,-308 692.89,-284.78 609.55,-318.55 293,-272 287.99,-271.26 282.83,-270.35 277.67,-269.33"/>
<polygon fill="#63b8ff" stroke="#63b8ff" points="278.4,-265.9 267.89,-267.24 276.95,-272.75 278.4,-265.9"/>
</g>
<!-- Node9 -->
<g id="node9" class="node">
<title>Node9</title>
<g id="a_node9"><a xlink:href="_machine_8h.html" target="_top" xlink:title="Clase de máquina abstracta.">
<polygon fill="white" stroke="#666666" points="964,-112.5 848,-112.5 848,-82.5 964,-82.5 964,-112.5"/>
<text text-anchor="start" x="856" y="-100.5" font-family="Helvetica,sans-Serif" font-size="10.00">machine_state_pattern</text>
<text text-anchor="middle" x="906" y="-89.5" font-family="Helvetica,sans-Serif" font-size="10.00">/Machine.h</text>
</a>
</g>
</g>
<!-- Node7&#45;&gt;Node9 -->
<g id="edge10" class="edge">
<title>Node7&#45;&gt;Node9</title>
<path fill="none" stroke="#63b8ff" d="M1054.04,-315.31C929.96,-311.82 595.64,-300.02 489,-272 411.51,-251.64 368.88,-262.68 326,-195 316.25,-179.61 313.74,-167.48 326,-154 359.74,-116.88 689.47,-103.96 836.2,-100.03"/>
<polygon fill="#63b8ff" stroke="#63b8ff" points="836.29,-103.53 846.2,-99.77 836.11,-96.53 836.29,-103.53"/>
</g>
<!-- Node11 -->
<g id="node11" class="node">
<title>Node11</title>
<g id="a_node11"><a xlink:href="_display_8h.html" target="_top" xlink:title="Controlador de LCD hd44780 por interfaz I2C.">
<polygon fill="white" stroke="#666666" points="586,-261 498,-261 498,-242 586,-242 586,-261"/>
<text text-anchor="middle" x="542" y="-249" font-family="Helvetica,sans-Serif" font-size="10.00">drivers/Display.h</text>
</a>
</g>
</g>
<!-- Node7&#45;&gt;Node11 -->
<g id="edge12" class="edge">
<title>Node7&#45;&gt;Node11</title>
<path fill="none" stroke="#63b8ff" d="M1054.3,-311.15C951.79,-299.42 707.44,-271.44 597.4,-258.84"/>
<polygon fill="#63b8ff" stroke="#63b8ff" points="598.07,-255.4 587.74,-257.74 597.27,-262.35 598.07,-255.4"/>
</g>
<!-- Node16 -->
<g id="node16" class="node">
<title>Node16</title>
<g id="a_node16"><a xlink:href="user__messages_8h.html" target="_top" xlink:title="Archivo para la configuración de interfaz con el usuario.">
<polygon fill="white" stroke="#666666" points="825,-261 731,-261 731,-242 825,-242 825,-261"/>
<text text-anchor="middle" x="778" y="-249" font-family="Helvetica,sans-Serif" font-size="10.00">user_messages.h</text>
</a>
</g>
</g>
<!-- Node7&#45;&gt;Node16 -->
<g id="edge17" class="edge">
<title>Node7&#45;&gt;Node16</title>
<path fill="none" stroke="#63b8ff" d="M1054.2,-311.15C1000.49,-304.44 910.04,-291.42 834,-272 826.65,-270.12 818.89,-267.71 811.56,-265.22"/>
<polygon fill="#63b8ff" stroke="#63b8ff" points="812.91,-261.99 802.32,-261.96 810.58,-268.59 812.91,-261.99"/>
</g>
<!-- Node18 -->
<g id="node18" class="node">
<title>Node18</title>
<g id="a_node18"><a xlink:href="_temperature__sensor_8h.html" target="_top" xlink:title="Controlador para sensor de temperatura DS18B20.">
<polygon fill="white" stroke="#666666" points="944.5,-266.5 843.5,-266.5 843.5,-236.5 944.5,-236.5 944.5,-266.5"/>
<text text-anchor="start" x="851.5" y="-254.5" font-family="Helvetica,sans-Serif" font-size="10.00">drivers/Temperature</text>
<text text-anchor="middle" x="894" y="-243.5" font-family="Helvetica,sans-Serif" font-size="10.00">_sensor.h</text>
</a>
</g>
</g>
<!-- Node7&#45;&gt;Node18 -->
<g id="edge20" class="edge">
<title>Node7&#45;&gt;Node18</title>
<path fill="none" stroke="#63b8ff" d="M1072.22,-307.6C1041.15,-297.99 990.84,-282.44 951.58,-270.3"/>
<polygon fill="#63b8ff" stroke="#63b8ff" points="952.86,-267.03 942.27,-267.42 950.79,-273.72 952.86,-267.03"/>
</g>
<!-- Node22 -->
<g id="node22" class="node">
<title>Node22</title>
<g id="a_node22"><a xlink:href="_moisture__sensor_8h.html" target="_top" xlink:title="Controlador de sensor de humedad analógico.">
<polygon fill="white" stroke="#666666" points="1342,-261 1214,-261 1214,-242 1342,-242 1342,-261"/>
<text text-anchor="middle" x="1278" y="-249" font-family="Helvetica,sans-Serif" font-size="10.00">drivers/Moisture_sensor.h</text>
</a>
</g>
</g>
<!-- Node7&#45;&gt;Node22 -->
<g id="edge24" class="edge">
<title>Node7&#45;&gt;Node22</title>
<path fill="none" stroke="#63b8ff" d="M1125.61,-307.6C1156.04,-296.6 1208.04,-277.8 1242.71,-265.26"/>
<polygon fill="#63b8ff" stroke="#63b8ff" points="1243.68,-268.63 1251.89,-261.94 1241.3,-262.05 1243.68,-268.63"/>
</g>
<!-- Node24 -->
<g id="node24" class="node">
<title>Node24</title>
<g id="a_node24"><a xlink:href="types_8h.html" target="_top" xlink:title="Archivo de definición de tipos de dato.">
<polygon fill="white" stroke="#666666" points="1093.5,-184 1044.5,-184 1044.5,-165 1093.5,-165 1093.5,-184"/>
<text text-anchor="middle" x="1069" y="-172" font-family="Helvetica,sans-Serif" font-size="10.00">types.h</text>
</a>
</g>
</g>
<!-- Node7&#45;&gt;Node24 -->
<g id="edge26" class="edge">
<title>Node7&#45;&gt;Node24</title>
<path fill="none" stroke="#63b8ff" d="M1054.1,-309.7C1031.31,-303.78 1005.91,-292.7 992,-272 981.84,-256.87 983.7,-247.22 992,-231 997.68,-219.89 1023.58,-202.51 1043.79,-190.16"/>
<polygon fill="#63b8ff" stroke="#63b8ff" points="1045.35,-193.31 1052.13,-185.16 1041.75,-187.3 1045.35,-193.31"/>
</g>
<!-- Node25 -->
<g id="node25" class="node">
<title>Node25</title>
<g id="a_node25"><a xlink:href="_buzzer_8h.html" target="_top" xlink:title="Controlador de Buzzer de 12 milimetros.">
<polygon fill="white" stroke="#666666" points="1446,-261 1360,-261 1360,-242 1446,-242 1446,-261"/>
<text text-anchor="middle" x="1403" y="-249" font-family="Helvetica,sans-Serif" font-size="10.00">drivers/Buzzer.h</text>
</a>
</g>
</g>
<!-- Node7&#45;&gt;Node25 -->
<g id="edge27" class="edge">
<title>Node7&#45;&gt;Node25</title>
<path fill="none" stroke="#63b8ff" d="M1147.64,-310.79C1198.28,-304 1281.27,-291.11 1351,-272 1357.61,-270.19 1364.56,-267.88 1371.15,-265.49"/>
<polygon fill="#63b8ff" stroke="#63b8ff" points="1372.26,-268.81 1380.37,-262 1369.78,-262.27 1372.26,-268.81"/>
</g>
<!-- Node27 -->
<g id="node27" class="node">
<title>Node27</title>
<g id="a_node27"><a xlink:href="_motor_8h.html" target="_top" xlink:title="Controlador de motor de 220 VAC.">
<polygon fill="white" stroke="#666666" points="1544,-261 1464,-261 1464,-242 1544,-242 1544,-261"/>
<text text-anchor="middle" x="1504" y="-249" font-family="Helvetica,sans-Serif" font-size="10.00">drivers/Motor.h</text>
</a>
</g>
</g>
<!-- Node7&#45;&gt;Node27 -->
<g id="edge30" class="edge">
<title>Node7&#45;&gt;Node27</title>
<path fill="none" stroke="#63b8ff" d="M1147.81,-314.39C1216.24,-310.47 1347.17,-299.75 1455,-272 1461.48,-270.33 1468.24,-268.03 1474.61,-265.59"/>
<polygon fill="#63b8ff" stroke="#63b8ff" points="1475.48,-269.02 1483.42,-262.01 1472.84,-262.53 1475.48,-269.02"/>
</g>
<!-- Node28 -->
<g id="node28" class="node">
<title>Node28</title>
<g id="a_node28"><a xlink:href="_dual___l_e_d_8h.html" target="_top" xlink:title="Controlador de LED RG.">
<polygon fill="white" stroke="#666666" points="1094.5,-261 1001.5,-261 1001.5,-242 1094.5,-242 1094.5,-261"/>
<text text-anchor="middle" x="1048" y="-249" font-family="Helvetica,sans-Serif" font-size="10.00">drivers/Dual_led.h</text>
</a>
</g>
</g>
<!-- Node7&#45;&gt;Node28 -->
<g id="edge33" class="edge">
<title>Node7&#45;&gt;Node28</title>
<path fill="none" stroke="#63b8ff" d="M1093.63,-307.6C1085.64,-297.95 1072.68,-282.31 1062.61,-270.15"/>
<polygon fill="#63b8ff" stroke="#63b8ff" points="1065.35,-267.96 1056.27,-262.49 1059.95,-272.42 1065.35,-267.96"/>
</g>
<!-- Node29 -->
<g id="node29" class="node">
<title>Node29</title>
<g id="a_node29"><a xlink:href="_cooler_8h.html" target="_top" xlink:title="Controlador de ventilador de 12 volts y 5 milímteros.">
<polygon fill="white" stroke="#666666" points="1195.5,-261 1112.5,-261 1112.5,-242 1195.5,-242 1195.5,-261"/>
<text text-anchor="middle" x="1154" y="-249" font-family="Helvetica,sans-Serif" font-size="10.00">drivers/Cooler.h</text>
</a>
</g>
</g>
<!-- Node7&#45;&gt;Node29 -->
<g id="edge37" class="edge">
<title>Node7&#45;&gt;Node29</title>
<path fill="none" stroke="#63b8ff" d="M1108.37,-307.6C1116.36,-297.95 1129.32,-282.31 1139.39,-270.15"/>
<polygon fill="#63b8ff" stroke="#63b8ff" points="1142.05,-272.42 1145.73,-262.49 1136.65,-267.96 1142.05,-272.42"/>
</g>
<!-- Node30 -->
<g id="node30" class="node">
<title>Node30</title>
<g id="a_node30"><a xlink:href="_shutdown__state_8h.html" target="_top" xlink:title="Clase de estado de apagado del sistema.">
<polygon fill="white" stroke="#666666" points="1696,-272 1562,-272 1562,-231 1696,-231 1696,-272"/>
<text text-anchor="start" x="1570" y="-260" font-family="Helvetica,sans-Serif" font-size="10.00">machine_state_pattern</text>
<text text-anchor="start" x="1570" y="-249" font-family="Helvetica,sans-Serif" font-size="10.00">/machine_states/Shutdown</text>
<text text-anchor="middle" x="1629" y="-238" font-family="Helvetica,sans-Serif" font-size="10.00">_state.h</text>
</a>
</g>
</g>
<!-- Node7&#45;&gt;Node30 -->
<g id="edge40" class="edge">
<title>Node7&#45;&gt;Node30</title>
<path fill="none" stroke="#63b8ff" d="M1147.92,-313.94C1229.2,-309.23 1400.73,-297.28 1544,-272 1546.16,-271.62 1548.36,-271.21 1550.57,-270.77"/>
<polygon fill="#63b8ff" stroke="#63b8ff" points="1551.19,-274.22 1560.25,-268.73 1549.75,-267.37 1551.19,-274.22"/>
</g>
<!-- Node8&#45;&gt;Node5 -->
<g id="edge8" class="edge">
<title>Node8&#45;&gt;Node5</title>
<path fill="none" stroke="#63b8ff" d="M185.27,-236.04C162.08,-224.37 129.23,-207.83 103.72,-194.99"/>
<polygon fill="#63b8ff" stroke="#63b8ff" points="105.5,-191.97 94.99,-190.6 102.35,-198.22 105.5,-191.97"/>
</g>
<!-- Node8&#45;&gt;Node6 -->
<g id="edge9" class="edge">
<title>Node8&#45;&gt;Node6</title>
<path fill="none" stroke="#63b8ff" d="M213.81,-236.04C213.68,-226.18 213.5,-212.86 213.34,-201.22"/>
<polygon fill="#63b8ff" stroke="#63b8ff" points="216.85,-201.38 213.21,-191.43 209.85,-201.48 216.85,-201.38"/>
</g>
<!-- Node10 -->
<g id="node10" class="node">
<title>Node10</title>
<g id="a_node10"><a xlink:href="_abstract__state_8h.html" target="_top" xlink:title="Clase de estado abstracta.">
<polygon fill="white" stroke="#666666" points="1654,-41 1526,-41 1526,0 1654,0 1654,-41"/>
<text text-anchor="start" x="1534" y="-29" font-family="Helvetica,sans-Serif" font-size="10.00">machine_state_pattern</text>
<text text-anchor="start" x="1534" y="-18" font-family="Helvetica,sans-Serif" font-size="10.00">/machine_states/Abstract</text>
<text text-anchor="middle" x="1590" y="-7" font-family="Helvetica,sans-Serif" font-size="10.00">_state.h</text>
</a>
</g>
</g>
<!-- Node9&#45;&gt;Node10 -->
<g id="edge11" class="edge">
<title>Node9&#45;&gt;Node10</title>
<path fill="none" stroke="#63b8ff" d="M964.32,-90.11C1088.05,-76.54 1376.76,-44.88 1514.41,-29.79"/>
<polygon fill="#63b8ff" stroke="#63b8ff" points="1514.59,-33.29 1524.14,-28.72 1513.82,-26.33 1514.59,-33.29"/>
</g>
<!-- Node12 -->
<g id="node12" class="node">
<title>Node12</title>
<g id="a_node12"><a xlink:title=" ">
<polygon fill="#e0e0e0" stroke="#999999" points="380.5,-184 335.5,-184 335.5,-165 380.5,-165 380.5,-184"/>
<text text-anchor="middle" x="358" y="-172" font-family="Helvetica,sans-Serif" font-size="10.00">Wire.h</text>
</a>
</g>
</g>
<!-- Node11&#45;&gt;Node12 -->
<g id="edge13" class="edge">
<title>Node11&#45;&gt;Node12</title>
<path fill="none" stroke="#63b8ff" d="M512.16,-241.53C480.98,-231.72 431.01,-214.74 390,-195 387.03,-193.57 383.99,-191.95 381.01,-190.26"/>
<polygon fill="#63b8ff" stroke="#63b8ff" points="383.04,-187.39 372.67,-185.24 379.44,-193.39 383.04,-187.39"/>
</g>
<!-- Node13 -->
<g id="node13" class="node">
<title>Node13</title>
<g id="a_node13"><a xlink:title=" ">
<polygon fill="#e0e0e0" stroke="#999999" points="461,-184 399,-184 399,-165 461,-165 461,-184"/>
<text text-anchor="middle" x="430" y="-172" font-family="Helvetica,sans-Serif" font-size="10.00">hd44780.h</text>
</a>
</g>
</g>
<!-- Node11&#45;&gt;Node13 -->
<g id="edge14" class="edge">
<title>Node11&#45;&gt;Node13</title>
<path fill="none" stroke="#63b8ff" d="M528.71,-241.6C509.94,-229.03 475.39,-205.89 452.55,-190.6"/>
<polygon fill="#63b8ff" stroke="#63b8ff" points="454.78,-187.88 444.53,-185.23 450.89,-193.7 454.78,-187.88"/>
</g>
<!-- Node14 -->
<g id="node14" class="node">
<title>Node14</title>
<g id="a_node14"><a xlink:title=" ">
<polygon fill="#e0e0e0" stroke="#999999" points="604.5,-189.5 479.5,-189.5 479.5,-159.5 604.5,-159.5 604.5,-189.5"/>
<text text-anchor="start" x="487.5" y="-177.5" font-family="Helvetica,sans-Serif" font-size="10.00">hd44780ioClass/hd44780</text>
<text text-anchor="middle" x="542" y="-166.5" font-family="Helvetica,sans-Serif" font-size="10.00">_I2Cexp.h</text>
</a>
</g>
</g>
<!-- Node11&#45;&gt;Node14 -->
<g id="edge15" class="edge">
<title>Node11&#45;&gt;Node14</title>
<path fill="none" stroke="#63b8ff" d="M542,-241.6C542,-231.7 542,-215.24 542,-201.23"/>
<polygon fill="#63b8ff" stroke="#63b8ff" points="545.5,-201.28 542,-191.28 538.5,-201.28 545.5,-201.28"/>
</g>
<!-- Node15 -->
<g id="node15" class="node">
<title>Node15</title>
<g id="a_node15"><a xlink:href="display__settings_8h.html" target="_top" xlink:title="Archivo de configuración de la pantalla.">
<polygon fill="white" stroke="#666666" points="717.5,-184 622.5,-184 622.5,-165 717.5,-165 717.5,-184"/>
<text text-anchor="middle" x="670" y="-172" font-family="Helvetica,sans-Serif" font-size="10.00">display_settings.h</text>
</a>
</g>
</g>
<!-- Node11&#45;&gt;Node15 -->
<g id="edge16" class="edge">
<title>Node11&#45;&gt;Node15</title>
<path fill="none" stroke="#63b8ff" d="M557.19,-241.6C578.84,-228.92 618.84,-205.48 644.93,-190.19"/>
<polygon fill="#63b8ff" stroke="#63b8ff" points="646.67,-193.23 653.53,-185.15 643.13,-187.19 646.67,-193.23"/>
</g>
<!-- Node17 -->
<g id="node17" class="node">
<title>Node17</title>
<g id="a_node17"><a xlink:title=" ">
<polygon fill="#e0e0e0" stroke="#999999" points="820.5,-184 735.5,-184 735.5,-165 820.5,-165 820.5,-184"/>
<text text-anchor="middle" x="778" y="-172" font-family="Helvetica,sans-Serif" font-size="10.00">avr/pgmspace.h</text>
</a>
</g>
</g>
<!-- Node16&#45;&gt;Node17 -->
<g id="edge18" class="edge">
<title>Node16&#45;&gt;Node17</title>
<path fill="none" stroke="#63b8ff" d="M778,-241.6C778,-230.33 778,-210.55 778,-195.56"/>
<polygon fill="#63b8ff" stroke="#63b8ff" points="781.5,-195.9 778,-185.9 774.5,-195.9 781.5,-195.9"/>
</g>
<!-- Node19 -->
<g id="node19" class="node">
<title>Node19</title>
<g id="a_node19"><a xlink:href="system__settings_8h.html" target="_top" xlink:title="Archivo para la definición de constantes del sistema.">
<polygon fill="white" stroke="#666666" points="1208.5,-184 1111.5,-184 1111.5,-165 1208.5,-165 1208.5,-184"/>
<text text-anchor="middle" x="1160" y="-172" font-family="Helvetica,sans-Serif" font-size="10.00">system_settings.h</text>
</a>
</g>
</g>
<!-- Node18&#45;&gt;Node19 -->
<g id="edge21" class="edge">
<title>Node18&#45;&gt;Node19</title>
<path fill="none" stroke="#63b8ff" d="M944.69,-237.93C986.96,-227.23 1048.68,-211.06 1102,-195 1109.01,-192.89 1116.45,-190.5 1123.58,-188.14"/>
<polygon fill="#63b8ff" stroke="#63b8ff" points="1124.62,-191.48 1132.98,-184.97 1122.39,-184.85 1124.62,-191.48"/>
</g>
<!-- Node20 -->
<g id="node20" class="node">
<title>Node20</title>
<g id="a_node20"><a xlink:title=" ">
<polygon fill="#e0e0e0" stroke="#999999" points="901.5,-184 838.5,-184 838.5,-165 901.5,-165 901.5,-184"/>
<text text-anchor="middle" x="870" y="-172" font-family="Helvetica,sans-Serif" font-size="10.00">OneWire.h</text>
</a>
</g>
</g>
<!-- Node18&#45;&gt;Node20 -->
<g id="edge22" class="edge">
<title>Node18&#45;&gt;Node20</title>
<path fill="none" stroke="#63b8ff" d="M889.37,-236.04C885.66,-224.43 880.4,-208 876.3,-195.19"/>
<polygon fill="#63b8ff" stroke="#63b8ff" points="879.65,-194.19 873.27,-185.73 872.99,-196.32 879.65,-194.19"/>
</g>
<!-- Node21 -->
<g id="node21" class="node">
<title>Node21</title>
<g id="a_node21"><a xlink:title=" ">
<polygon fill="#e0e0e0" stroke="#999999" points="1026,-184 920,-184 920,-165 1026,-165 1026,-184"/>
<text text-anchor="middle" x="973" y="-172" font-family="Helvetica,sans-Serif" font-size="10.00">DallasTemperature.h</text>
</a>
</g>
</g>
<!-- Node18&#45;&gt;Node21 -->
<g id="edge23" class="edge">
<title>Node18&#45;&gt;Node21</title>
<path fill="none" stroke="#63b8ff" d="M909.23,-236.04C922.47,-223.47 941.65,-205.26 955.52,-192.1"/>
<polygon fill="#63b8ff" stroke="#63b8ff" points="957.8,-194.75 962.65,-185.33 952.98,-189.68 957.8,-194.75"/>
</g>
<!-- Node23 -->
<g id="node23" class="node">
<title>Node23</title>
<g id="a_node23"><a xlink:title=" ">
<polygon fill="#e0e0e0" stroke="#999999" points="1307,-184 1249,-184 1249,-165 1307,-165 1307,-184"/>
<text text-anchor="middle" x="1278" y="-172" font-family="Helvetica,sans-Serif" font-size="10.00">Arduino.h</text>
</a>
</g>
</g>
<!-- Node22&#45;&gt;Node23 -->
<g id="edge25" class="edge">
<title>Node22&#45;&gt;Node23</title>
<path fill="none" stroke="#63b8ff" d="M1278,-241.6C1278,-230.33 1278,-210.55 1278,-195.56"/>
<polygon fill="#63b8ff" stroke="#63b8ff" points="1281.5,-195.9 1278,-185.9 1274.5,-195.9 1281.5,-195.9"/>
</g>
<!-- Node25&#45;&gt;Node23 -->
<g id="edge28" class="edge">
<title>Node25&#45;&gt;Node23</title>
<path fill="none" stroke="#63b8ff" d="M1388.17,-241.6C1367.03,-228.92 1327.96,-205.48 1302.48,-190.19"/>
<polygon fill="#63b8ff" stroke="#63b8ff" points="1304.48,-187.31 1294.11,-185.17 1300.88,-193.31 1304.48,-187.31"/>
</g>
<!-- Node26 -->
<g id="node26" class="node">
<title>Node26</title>
<g id="a_node26"><a xlink:href="port__config_8h.html" target="_top" xlink:title="Archivo de configuración para los puertos de la placa donde se implementará el sistema.">
<polygon fill="white" stroke="#666666" points="1501,-184 1429,-184 1429,-165 1501,-165 1501,-184"/>
<text text-anchor="middle" x="1465" y="-172" font-family="Helvetica,sans-Serif" font-size="10.00">port_config.h</text>
</a>
</g>
</g>
<!-- Node25&#45;&gt;Node26 -->
<g id="edge29" class="edge">
<title>Node25&#45;&gt;Node26</title>
<path fill="none" stroke="#63b8ff" d="M1410.36,-241.6C1420.24,-229.65 1438.01,-208.15 1450.6,-192.92"/>
<polygon fill="#63b8ff" stroke="#63b8ff" points="1453.02,-195.49 1456.69,-185.55 1447.62,-191.03 1453.02,-195.49"/>
</g>
<!-- Node27&#45;&gt;Node23 -->
<g id="edge31" class="edge">
<title>Node27&#45;&gt;Node23</title>
<path fill="none" stroke="#63b8ff" d="M1482.67,-241.61C1474.12,-238.15 1464.15,-234.25 1455,-231 1408.59,-214.51 1354.45,-197.92 1318.39,-187.23"/>
<polygon fill="#63b8ff" stroke="#63b8ff" points="1319.38,-183.87 1308.8,-184.4 1317.4,-190.58 1319.38,-183.87"/>
</g>
<!-- Node27&#45;&gt;Node26 -->
<g id="edge32" class="edge">
<title>Node27&#45;&gt;Node26</title>
<path fill="none" stroke="#63b8ff" d="M1499.37,-241.6C1493.33,-229.99 1482.61,-209.36 1474.74,-194.23"/>
<polygon fill="#63b8ff" stroke="#63b8ff" points="1478.04,-192.99 1470.32,-185.73 1471.83,-196.22 1478.04,-192.99"/>
</g>
<!-- Node28&#45;&gt;Node19 -->
<g id="edge36" class="edge">
<title>Node28&#45;&gt;Node19</title>
<path fill="none" stroke="#63b8ff" d="M1061.29,-241.6C1080.06,-229.03 1114.61,-205.89 1137.45,-190.6"/>
<polygon fill="#63b8ff" stroke="#63b8ff" points="1139.11,-193.7 1145.47,-185.23 1135.22,-187.88 1139.11,-193.7"/>
</g>
<!-- Node28&#45;&gt;Node23 -->
<g id="edge34" class="edge">
<title>Node28&#45;&gt;Node23</title>
<path fill="none" stroke="#63b8ff" d="M1072.58,-241.58C1082.06,-238.19 1093.01,-234.35 1103,-231 1153.38,-214.12 1166.36,-211.09 1217,-195 1224.18,-192.72 1231.83,-190.28 1239.2,-187.93"/>
<polygon fill="#63b8ff" stroke="#63b8ff" points="1240.17,-191.29 1248.63,-184.91 1238.04,-184.62 1240.17,-191.29"/>
</g>
<!-- Node28&#45;&gt;Node24 -->
<g id="edge35" class="edge">
<title>Node28&#45;&gt;Node24</title>
<path fill="none" stroke="#63b8ff" d="M1050.49,-241.6C1053.68,-230.21 1059.3,-210.16 1063.51,-195.11"/>
<polygon fill="#63b8ff" stroke="#63b8ff" points="1066.78,-196.42 1066.1,-185.84 1060.04,-194.53 1066.78,-196.42"/>
</g>
<!-- Node29&#45;&gt;Node19 -->
<g id="edge39" class="edge">
<title>Node29&#45;&gt;Node19</title>
<path fill="none" stroke="#63b8ff" d="M1154.71,-241.6C1155.61,-230.33 1157.2,-210.55 1158.4,-195.56"/>
<polygon fill="#63b8ff" stroke="#63b8ff" points="1161.86,-196.14 1159.17,-185.9 1154.88,-195.58 1161.86,-196.14"/>
</g>
<!-- Node29&#45;&gt;Node23 -->
<g id="edge38" class="edge">
<title>Node29&#45;&gt;Node23</title>
<path fill="none" stroke="#63b8ff" d="M1168.71,-241.6C1189.69,-228.92 1228.44,-205.48 1253.71,-190.19"/>
<polygon fill="#63b8ff" stroke="#63b8ff" points="1255.27,-193.34 1262.01,-185.17 1251.64,-187.35 1255.27,-193.34"/>
</g>
<!-- Node30&#45;&gt;Node7 -->
<g id="edge41" class="edge">
<title>Node30&#45;&gt;Node7</title>
<path fill="none" stroke="#63b8ff" d="M1561.56,-272.08C1418.4,-297.3 1247.15,-309.24 1159.22,-313.94"/>
<polygon fill="#63b8ff" stroke="#63b8ff" points="1159.21,-310.43 1149.4,-314.45 1159.57,-317.43 1159.21,-310.43"/>
</g>
<!-- Node30&#45;&gt;Node10 -->
<g id="edge42" class="edge">
<title>Node30&#45;&gt;Node10</title>
<path fill="none" stroke="#63b8ff" d="M1620.51,-230.55C1616.42,-220.13 1611.79,-207.07 1609,-195 1597.66,-146.01 1593.04,-87.64 1591.19,-52.62"/>
<polygon fill="#63b8ff" stroke="#63b8ff" points="1594.69,-52.6 1590.72,-42.78 1587.7,-52.94 1594.69,-52.6"/>
</g>
<!-- Node31 -->
<g id="node31" class="node">
<title>Node31</title>
<g id="a_node31"><a xlink:href="_idle__state_8h.html" target="_top" xlink:title="Clase de estado de reposo.">
<polygon fill="white" stroke="#666666" points="1734,-195 1618,-195 1618,-154 1734,-154 1734,-195"/>
<text text-anchor="start" x="1626" y="-183" font-family="Helvetica,sans-Serif" font-size="10.00">machine_state_pattern</text>
<text text-anchor="start" x="1626" y="-172" font-family="Helvetica,sans-Serif" font-size="10.00">/machine_states/Idle</text>
<text text-anchor="middle" x="1676" y="-161" font-family="Helvetica,sans-Serif" font-size="10.00">_state.h</text>
</a>
</g>
</g>
<!-- Node30&#45;&gt;Node31 -->
<g id="edge43" class="edge">
<title>Node30&#45;&gt;Node31</title>
<path fill="none" stroke="#63b8ff" d="M1641.35,-230.79C1646.27,-222.93 1652.05,-213.71 1657.46,-205.08"/>
<polygon fill="#63b8ff" stroke="#63b8ff" points="1660.42,-206.95 1662.77,-196.62 1654.49,-203.23 1660.42,-206.95"/>
</g>
<!-- Node31&#45;&gt;Node7 -->
<g id="edge44" class="edge">
<title>Node31&#45;&gt;Node7</title>
<path fill="none" stroke="#63b8ff" d="M1691.84,-195.4C1706.92,-216.88 1724.65,-250.85 1705,-272 1668.33,-311.47 1303.25,-316.26 1159.1,-316.61"/>
<polygon fill="#63b8ff" stroke="#63b8ff" points="1159.4,-313.11 1149.4,-316.62 1159.41,-320.1 1159.4,-313.11"/>
</g>
<!-- Node31&#45;&gt;Node10 -->
<g id="edge45" class="edge">
<title>Node31&#45;&gt;Node10</title>
<path fill="none" stroke="#63b8ff" d="M1655.98,-153.72C1646.59,-143.66 1635.78,-130.86 1628,-118 1615.46,-97.27 1605.6,-71.66 1599.07,-52.04"/>
<polygon fill="#63b8ff" stroke="#63b8ff" points="1602.46,-51.15 1596.08,-42.7 1595.8,-53.29 1602.46,-51.15"/>
</g>
<!-- Node32 -->
<g id="node32" class="node">
<title>Node32</title>
<g id="a_node32"><a xlink:href="_motor__control__state_8h.html" target="_top" xlink:title="Clase de estado de control del motor.">
<polygon fill="white" stroke="#666666" points="1753,-118 1637,-118 1637,-77 1753,-77 1753,-118"/>
<text text-anchor="start" x="1645" y="-106" font-family="Helvetica,sans-Serif" font-size="10.00">machine_state_pattern</text>
<text text-anchor="start" x="1645" y="-95" font-family="Helvetica,sans-Serif" font-size="10.00">/machine_states/Motor</text>
<text text-anchor="middle" x="1695" y="-84" font-family="Helvetica,sans-Serif" font-size="10.00">_control_state.h</text>
</a>
</g>
</g>
<!-- Node31&#45;&gt;Node32 -->
<g id="edge46" class="edge">
<title>Node31&#45;&gt;Node32</title>
<path fill="none" stroke="#63b8ff" d="M1674.97,-153.79C1676.21,-146.28 1678.22,-137.51 1680.57,-129.21"/>
<polygon fill="#63b8ff" stroke="#63b8ff" points="1683.87,-130.37 1683.49,-119.78 1677.19,-128.3 1683.87,-130.37"/>
</g>
<!-- Node32&#45;&gt;Node7 -->
<g id="edge47" class="edge">
<title>Node32&#45;&gt;Node7</title>
<path fill="none" stroke="#63b8ff" d="M1718.5,-118.48C1728.03,-128.12 1737.98,-140.51 1743,-154 1761.57,-203.85 1763.89,-237.98 1723,-272 1680.26,-307.57 1305.56,-314.71 1159.21,-316.14"/>
<polygon fill="#63b8ff" stroke="#63b8ff" points="1159.31,-312.64 1149.35,-316.23 1159.38,-319.64 1159.31,-312.64"/>
</g>
<!-- Node32&#45;&gt;Node10 -->
<g id="edge48" class="edge">
<title>Node32&#45;&gt;Node10</title>
<path fill="none" stroke="#63b8ff" d="M1667.14,-76.6C1654.92,-67.87 1640.39,-57.49 1627.26,-48.11"/>
<polygon fill="#63b8ff" stroke="#63b8ff" points="1629.4,-45.34 1619.22,-42.37 1625.33,-51.03 1629.4,-45.34"/>
</g>
<!-- Node32&#45;&gt;Node31 -->
<g id="edge49" class="edge">
<title>Node32&#45;&gt;Node31</title>
<path fill="none" stroke="#63b8ff" d="M1696.01,-118.33C1694.76,-125.87 1692.74,-134.63 1690.39,-142.93"/>
<polygon fill="#63b8ff" stroke="#63b8ff" points="1687.09,-141.76 1687.46,-152.35 1693.77,-143.84 1687.09,-141.76"/>
</g>
</g>
</svg>
