<?xml version="1.0" encoding="UTF-8" standalone="no"?>
<!DOCTYPE svg PUBLIC "-//W3C//DTD SVG 1.1//EN"
 "http://www.w3.org/Graphics/SVG/1.1/DTD/svg11.dtd">
<!-- Generated by graphviz version 7.0.2 (20221119.0110)
 -->
<!-- Title: C:/Users/juanh/OneDrive/Escritorio/Sistemas Embebidos/Proyecto final/LAL Control MbedOS/src/Port/observer_pattern/Instruction_observer.cpp Pages: 1 -->
<!--zoomable 643 -->
<svg id="main" version="1.1" xmlns="http://www.w3.org/2000/svg" xmlns:xlink="http://www.w3.org/1999/xlink" xml:space="preserve" onload="init(evt)">
<style type="text/css"><![CDATA[
.edge:hover path { stroke: red; }
.edge:hover polygon { stroke: red; fill: red; }
]]></style>
<script type="text/javascript"><![CDATA[
var edges = document.getElementsByTagName('g');
if (edges && edges.length) {
  for (var i=0;i<edges.length;i++) {
    if (edges[i].id.substr(0,4)=='edge') {
      edges[i].setAttribute('class','edge');
    }
  }
}
]]></script>
        <defs>
                <circle id="rim" cx="0" cy="0" r="7"/>
                <circle id="rim2" cx="0" cy="0" r="3.5"/>
                <g id="zoomPlus">
                        <use xlink:href="#rim" fill="#404040">
                                <set attributeName="fill" to="#808080" begin="zoomplus.mouseover" end="zoomplus.mouseout"/>
                        </use>
                        <path d="M-4,0h8M0,-4v8" fill="none" stroke="white" stroke-width="1.5" pointer-events="none"/>
                </g>
                <g id="zoomMin">
                        <use xlink:href="#rim" fill="#404040">
                                <set attributeName="fill" to="#808080" begin="zoomminus.mouseover" end="zoomminus.mouseout"/>
                        </use>
                        <path d="M-4,0h8" fill="none" stroke="white" stroke-width="1.5" pointer-events="none"/>
                </g>
                <g id="dirArrow">
                        <path fill="none" stroke="white" stroke-width="1.5" d="M0,-3.0v7 M-2.5,-0.5L0,-3.0L2.5,-0.5"/>
                </g>
               <g id="resetDef">
                       <use xlink:href="#rim2" fill="#404040">
                               <set attributeName="fill" to="#808080" begin="reset.mouseover" end="reset.mouseout"/>
                       </use>
               </g>
        </defs>

<script type="text/javascript">
var viewWidth = 1700;
var viewHeight = 643;
var sectionId = 'dynsection-0';
</script>
<script xlink:href="svgpan.js"/>
<svg id="graph" class="graph">
<g id="viewport">
<title>C:/Users/juanh/OneDrive/Escritorio/Sistemas Embebidos/Proyecto final/LAL Control MbedOS/src/Port/observer_pattern/Instruction_observer.cpp</title>
<!-- Node1 -->
<g id="node1" class="node">
<title>Node1</title>
<g id="a_node1"><a xlink:title="Implementación de Instruction_observer.h.">
<polygon fill="#999999" stroke="#666666" points="1090,-635 920,-635 920,-572 1090,-572 1090,-635"/>
<text text-anchor="start" x="928" y="-623" font-family="Helvetica,sans-Serif" font-size="10.00">C:/Users/juanh/OneDrive</text>
<text text-anchor="start" x="928" y="-612" font-family="Helvetica,sans-Serif" font-size="10.00">/Escritorio/Sistemas Embebidos</text>
<text text-anchor="start" x="928" y="-601" font-family="Helvetica,sans-Serif" font-size="10.00">/Proyecto final/LAL Control</text>
<text text-anchor="start" x="928" y="-590" font-family="Helvetica,sans-Serif" font-size="10.00"> MbedOS/src/Port/observer_pattern</text>
<text text-anchor="middle" x="1005" y="-579" font-family="Helvetica,sans-Serif" font-size="10.00">/Instruction_observer.cpp</text>
</a>
</g>
</g>
<!-- Node2 -->
<g id="node2" class="node">
<title>Node2</title>
<g id="a_node2"><a xlink:href="_instruction__observer_8h.html" target="_top" xlink:title="Observador de instrucciones.">
<polygon fill="white" stroke="#666666" points="1071,-536 939,-536 939,-506 1071,-506 1071,-536"/>
<text text-anchor="start" x="947" y="-524" font-family="Helvetica,sans-Serif" font-size="10.00">observer_pattern/observers</text>
<text text-anchor="middle" x="1005" y="-513" font-family="Helvetica,sans-Serif" font-size="10.00">/Instruction_observer.h</text>
</a>
</g>
</g>
<!-- Node1&#45;&gt;Node2 -->
<g id="edge1" class="edge">
<title>Node1&#45;&gt;Node2</title>
<path fill="none" stroke="#63b8ff" d="M1005,-571.61C1005,-563.67 1005,-555.22 1005,-547.59"/>
<polygon fill="#63b8ff" stroke="#63b8ff" points="1008.5,-547.62 1005,-537.62 1001.5,-547.62 1008.5,-547.62"/>
</g>
<!-- Node3 -->
<g id="node3" class="node">
<title>Node3</title>
<g id="a_node3"><a xlink:href="_system__observer_8h.html" target="_top" xlink:title="Clase observador del sistema de control.">
<polygon fill="white" stroke="#666666" points="1024,-470 892,-470 892,-440 1024,-440 1024,-470"/>
<text text-anchor="start" x="900" y="-458" font-family="Helvetica,sans-Serif" font-size="10.00">observer_pattern/observers</text>
<text text-anchor="middle" x="958" y="-447" font-family="Helvetica,sans-Serif" font-size="10.00">/System_observer.h</text>
</a>
</g>
</g>
<!-- Node2&#45;&gt;Node3 -->
<g id="edge2" class="edge">
<title>Node2&#45;&gt;Node3</title>
<path fill="none" stroke="#63b8ff" d="M994.57,-505.8C988.85,-498.01 981.61,-488.16 975.09,-479.28"/>
<polygon fill="#63b8ff" stroke="#63b8ff" points="978.04,-477.37 969.3,-471.38 972.4,-481.52 978.04,-477.37"/>
</g>
<!-- Node7 -->
<g id="node7" class="node">
<title>Node7</title>
<g id="a_node7"><a xlink:href="_control__system_8h_source.html" target="_top" xlink:title=" ">
<polygon fill="white" stroke="#666666" points="1070.5,-404 977.5,-404 977.5,-385 1070.5,-385 1070.5,-404"/>
<text text-anchor="middle" x="1024" y="-392" font-family="Helvetica,sans-Serif" font-size="10.00">Control_system.h</text>
</a>
</g>
</g>
<!-- Node2&#45;&gt;Node7 -->
<g id="edge64" class="edge">
<title>Node2&#45;&gt;Node7</title>
<path fill="none" stroke="#63b8ff" d="M1015.72,-505.55C1022.12,-495.99 1029.63,-482.9 1033,-470 1037.78,-451.7 1034.24,-430.19 1030.28,-415"/>
<polygon fill="#63b8ff" stroke="#63b8ff" points="1033.76,-414.43 1027.6,-405.81 1027.04,-416.39 1033.76,-414.43"/>
</g>
<!-- Node4 -->
<g id="node4" class="node">
<title>Node4</title>
<g id="a_node4"><a xlink:href="_observer_8h.html" target="_top" xlink:title="Clase observador.">
<polygon fill="white" stroke="#666666" points="132,-343.5 0,-343.5 0,-313.5 132,-313.5 132,-343.5"/>
<text text-anchor="start" x="8" y="-331.5" font-family="Helvetica,sans-Serif" font-size="10.00">observer_pattern/observers</text>
<text text-anchor="middle" x="66" y="-320.5" font-family="Helvetica,sans-Serif" font-size="10.00">/Observer.h</text>
</a>
</g>
</g>
<!-- Node3&#45;&gt;Node4 -->
<g id="edge3" class="edge">
<title>Node3&#45;&gt;Node4</title>
<path fill="none" stroke="#63b8ff" d="M891.62,-448.34C751.88,-435.8 417.42,-402.47 141,-349 137.19,-348.26 133.28,-347.44 129.35,-346.57"/>
<polygon fill="#63b8ff" stroke="#63b8ff" points="130.27,-343.19 119.73,-344.33 128.68,-350.01 130.27,-343.19"/>
</g>
<!-- Node3&#45;&gt;Node7 -->
<g id="edge6" class="edge">
<title>Node3&#45;&gt;Node7</title>
<path fill="none" stroke="#63b8ff" d="M968.4,-439.54C977.11,-430.87 989.51,-419.85 1000.48,-411"/>
<polygon fill="#63b8ff" stroke="#63b8ff" points="1002.31,-414.01 1008.05,-405.1 998.01,-408.48 1002.31,-414.01"/>
</g>
<!-- Node5 -->
<g id="node5" class="node">
<title>Node5</title>
<g id="a_node5"><a xlink:href="_subject__interface_8h.html" target="_top" xlink:title="Clase para interfaz para implementar el sujeto.">
<polygon fill="white" stroke="#666666" points="128,-266.5 0,-266.5 0,-236.5 128,-236.5 128,-266.5"/>
<text text-anchor="start" x="8" y="-254.5" font-family="Helvetica,sans-Serif" font-size="10.00">observer_pattern/subjects</text>
<text text-anchor="middle" x="64" y="-243.5" font-family="Helvetica,sans-Serif" font-size="10.00">/Subject_interface.h</text>
</a>
</g>
</g>
<!-- Node4&#45;&gt;Node5 -->
<g id="edge4" class="edge">
<title>Node4&#45;&gt;Node5</title>
<path fill="none" stroke="#63b8ff" d="M65.61,-313.04C65.35,-303.18 65,-289.86 64.69,-278.22"/>
<polygon fill="#63b8ff" stroke="#63b8ff" points="68.19,-278.33 64.42,-268.43 61.19,-278.52 68.19,-278.33"/>
</g>
<!-- Node6 -->
<g id="node6" class="node">
<title>Node6</title>
<g id="a_node6"><a xlink:href="_observer__interface_8h.html" target="_top" xlink:title="Clase para interfaz para implementar el observador.">
<polygon fill="white" stroke="#666666" points="278,-266.5 146,-266.5 146,-236.5 278,-236.5 278,-266.5"/>
<text text-anchor="start" x="154" y="-254.5" font-family="Helvetica,sans-Serif" font-size="10.00">observer_pattern/observers</text>
<text text-anchor="middle" x="212" y="-243.5" font-family="Helvetica,sans-Serif" font-size="10.00">/Observer_interface.h</text>
</a>
</g>
</g>
<!-- Node4&#45;&gt;Node6 -->
<g id="edge5" class="edge">
<title>Node4&#45;&gt;Node6</title>
<path fill="none" stroke="#63b8ff" d="M94.15,-313.04C116.77,-301.42 148.78,-284.98 173.72,-272.16"/>
<polygon fill="#63b8ff" stroke="#63b8ff" points="175.29,-275.29 182.59,-267.61 172.1,-269.06 175.29,-275.29"/>
</g>
<!-- Node7&#45;&gt;Node3 -->
<g id="edge26" class="edge">
<title>Node7&#45;&gt;Node3</title>
<path fill="none" stroke="#63b8ff" d="M1019.18,-404.18C1012.4,-411.6 1000.51,-422.6 988.93,-432.38"/>
<polygon fill="#63b8ff" stroke="#63b8ff" points="986.9,-429.52 981.4,-438.58 991.35,-434.93 986.9,-429.52"/>
</g>
<!-- Node8 -->
<g id="node8" class="node">
<title>Node8</title>
<g id="a_node8"><a xlink:href="_subject_8h.html" target="_top" xlink:title=" ">
<polygon fill="white" stroke="#666666" points="278,-343.5 150,-343.5 150,-313.5 278,-313.5 278,-343.5"/>
<text text-anchor="start" x="158" y="-331.5" font-family="Helvetica,sans-Serif" font-size="10.00">observer_pattern/subjects</text>
<text text-anchor="middle" x="214" y="-320.5" font-family="Helvetica,sans-Serif" font-size="10.00">/Subject.h</text>
</a>
</g>
</g>
<!-- Node7&#45;&gt;Node8 -->
<g id="edge7" class="edge">
<title>Node7&#45;&gt;Node8</title>
<path fill="none" stroke="#63b8ff" d="M977.38,-388.7C963.73,-387.39 948.77,-386.04 935,-385 649.15,-363.37 574.37,-392.39 291,-349 286.32,-348.28 281.52,-347.41 276.7,-346.43"/>
<polygon fill="#63b8ff" stroke="#63b8ff" points="277.49,-343.02 266.97,-344.31 276,-349.86 277.49,-343.02"/>
</g>
<!-- Node9 -->
<g id="node9" class="node">
<title>Node9</title>
<g id="a_node9"><a xlink:href="_machine_8h.html" target="_top" xlink:title="Clase de máquina abstracta.">
<polygon fill="white" stroke="#666666" points="1692,-189.5 1576,-189.5 1576,-159.5 1692,-159.5 1692,-189.5"/>
<text text-anchor="start" x="1584" y="-177.5" font-family="Helvetica,sans-Serif" font-size="10.00">machine_state_pattern</text>
<text text-anchor="middle" x="1634" y="-166.5" font-family="Helvetica,sans-Serif" font-size="10.00">/Machine.h</text>
</a>
</g>
</g>
<!-- Node7&#45;&gt;Node9 -->
<g id="edge10" class="edge">
<title>Node7&#45;&gt;Node9</title>
<path fill="none" stroke="#63b8ff" d="M1070.83,-393.5C1174.15,-392.79 1418.16,-387.01 1490,-349 1554.2,-315.03 1600.99,-239.15 1621.87,-199.97"/>
<polygon fill="#63b8ff" stroke="#63b8ff" points="1624.87,-201.78 1626.37,-191.3 1618.66,-198.56 1624.87,-201.78"/>
</g>
<!-- Node11 -->
<g id="node11" class="node">
<title>Node11</title>
<g id="a_node11"><a xlink:href="_display_8h.html" target="_top" xlink:title="Controlador de LCD hd44780 por interfaz I2C.">
<polygon fill="white" stroke="#666666" points="388,-338 300,-338 300,-319 388,-319 388,-338"/>
<text text-anchor="middle" x="344" y="-326" font-family="Helvetica,sans-Serif" font-size="10.00">drivers/Display.h</text>
</a>
</g>
</g>
<!-- Node7&#45;&gt;Node11 -->
<g id="edge12" class="edge">
<title>Node7&#45;&gt;Node11</title>
<path fill="none" stroke="#63b8ff" d="M977.37,-388.79C963.72,-387.49 948.77,-386.12 935,-385 696.14,-365.61 631.4,-398.88 397,-349 389.7,-347.45 382.05,-345.09 374.92,-342.55"/>
<polygon fill="#63b8ff" stroke="#63b8ff" points="376.24,-339.31 365.65,-339.03 373.75,-345.85 376.24,-339.31"/>
</g>
<!-- Node21 -->
<g id="node21" class="node">
<title>Node21</title>
<g id="a_node21"><a xlink:href="user__messages_8h.html" target="_top" xlink:title="Archivo para la configuración de interfaz con el usuario.">
<polygon fill="white" stroke="#666666" points="500,-338 406,-338 406,-319 500,-319 500,-338"/>
<text text-anchor="middle" x="453" y="-326" font-family="Helvetica,sans-Serif" font-size="10.00">user_messages.h</text>
</a>
</g>
</g>
<!-- Node7&#45;&gt;Node21 -->
<g id="edge25" class="edge">
<title>Node7&#45;&gt;Node21</title>
<path fill="none" stroke="#63b8ff" d="M977.36,-388.95C963.71,-387.64 948.76,-386.24 935,-385 745.76,-367.97 694.85,-388.55 509,-349 501.22,-347.34 493.03,-344.91 485.4,-342.32"/>
<polygon fill="#63b8ff" stroke="#63b8ff" points="486.73,-339.08 476.14,-339 484.37,-345.67 486.73,-339.08"/>
</g>
<!-- Node22 -->
<g id="node22" class="node">
<title>Node22</title>
<g id="a_node22"><a xlink:href="_temperature__sensor_8h.html" target="_top" xlink:title="Controlador para sensor de temperatura DS18B20.">
<polygon fill="white" stroke="#666666" points="922.5,-343.5 821.5,-343.5 821.5,-313.5 922.5,-313.5 922.5,-343.5"/>
<text text-anchor="start" x="829.5" y="-331.5" font-family="Helvetica,sans-Serif" font-size="10.00">drivers/Temperature</text>
<text text-anchor="middle" x="872" y="-320.5" font-family="Helvetica,sans-Serif" font-size="10.00">_sensor.h</text>
</a>
</g>
</g>
<!-- Node7&#45;&gt;Node22 -->
<g id="edge27" class="edge">
<title>Node7&#45;&gt;Node22</title>
<path fill="none" stroke="#63b8ff" d="M1002.87,-384.6C980.73,-375.28 945.3,-360.36 916.89,-348.4"/>
<polygon fill="#63b8ff" stroke="#63b8ff" points="918.35,-345.22 907.78,-344.56 915.64,-351.67 918.35,-345.22"/>
</g>
<!-- Node25 -->
<g id="node25" class="node">
<title>Node25</title>
<g id="a_node25"><a xlink:href="_moisture__sensor_8h.html" target="_top" xlink:title="Controlador de sensor de humedad analógico.">
<polygon fill="white" stroke="#666666" points="1249,-184 1121,-184 1121,-165 1249,-165 1249,-184"/>
<text text-anchor="middle" x="1185" y="-172" font-family="Helvetica,sans-Serif" font-size="10.00">drivers/Moisture_sensor.h</text>
</a>
</g>
</g>
<!-- Node7&#45;&gt;Node25 -->
<g id="edge30" class="edge">
<title>Node7&#45;&gt;Node25</title>
<path fill="none" stroke="#63b8ff" d="M1070.62,-387.94C1116.42,-381.4 1181.61,-368.85 1197,-349 1232.4,-303.34 1208.17,-228.99 1193.68,-194.36"/>
<polygon fill="#63b8ff" stroke="#63b8ff" points="1197.07,-193.38 1189.85,-185.62 1190.66,-196.19 1197.07,-193.38"/>
</g>
<!-- Node26 -->
<g id="node26" class="node">
<title>Node26</title>
<g id="a_node26"><a xlink:href="types_8h.html" target="_top" xlink:title="Archivo de definición de tipos de dato.">
<polygon fill="white" stroke="#666666" points="1064.5,-261 1015.5,-261 1015.5,-242 1064.5,-242 1064.5,-261"/>
<text text-anchor="middle" x="1040" y="-249" font-family="Helvetica,sans-Serif" font-size="10.00">types.h</text>
</a>
</g>
</g>
<!-- Node7&#45;&gt;Node26 -->
<g id="edge32" class="edge">
<title>Node7&#45;&gt;Node26</title>
<path fill="none" stroke="#63b8ff" d="M1028.79,-384.61C1033.22,-375.85 1039.48,-361.92 1042,-349 1047.07,-322.96 1045.1,-292.22 1042.86,-272.55"/>
<polygon fill="#63b8ff" stroke="#63b8ff" points="1046.37,-272.36 1041.62,-262.89 1039.43,-273.25 1046.37,-272.36"/>
</g>
<!-- Node27 -->
<g id="node27" class="node">
<title>Node27</title>
<g id="a_node27"><a xlink:href="_buzzer_8h.html" target="_top" xlink:title="Controlador de Buzzer de 12 milimetros sin oscilador.">
<polygon fill="white" stroke="#666666" points="604,-338 518,-338 518,-319 604,-319 604,-338"/>
<text text-anchor="middle" x="561" y="-326" font-family="Helvetica,sans-Serif" font-size="10.00">drivers/Buzzer.h</text>
</a>
</g>
</g>
<!-- Node7&#45;&gt;Node27 -->
<g id="edge33" class="edge">
<title>Node7&#45;&gt;Node27</title>
<path fill="none" stroke="#63b8ff" d="M977.28,-388.76C873.3,-378.16 630.52,-353.16 613,-349 605.98,-347.33 598.63,-344.97 591.73,-342.47"/>
<polygon fill="#63b8ff" stroke="#63b8ff" points="593.38,-339.36 582.79,-339.04 590.87,-345.89 593.38,-339.36"/>
</g>
<!-- Node29 -->
<g id="node29" class="node">
<title>Node29</title>
<g id="a_node29"><a xlink:href="_motor_8h.html" target="_top" xlink:title="Controlador de motor de 220 VAC.">
<polygon fill="white" stroke="#666666" points="702,-338 622,-338 622,-319 702,-319 702,-338"/>
<text text-anchor="middle" x="662" y="-326" font-family="Helvetica,sans-Serif" font-size="10.00">drivers/Motor.h</text>
</a>
</g>
</g>
<!-- Node7&#45;&gt;Node29 -->
<g id="edge36" class="edge">
<title>Node7&#45;&gt;Node29</title>
<path fill="none" stroke="#63b8ff" d="M977.05,-388.21C902.44,-379.57 760.2,-362.09 711,-349 704.54,-347.28 697.78,-344.96 691.41,-342.51"/>
<polygon fill="#63b8ff" stroke="#63b8ff" points="693.18,-339.45 682.6,-338.94 690.55,-345.94 693.18,-339.45"/>
</g>
<!-- Node30 -->
<g id="node30" class="node">
<title>Node30</title>
<g id="a_node30"><a xlink:href="_dual___l_e_d_8h.html" target="_top" xlink:title="Controlador de LED RG con PWM.">
<polygon fill="white" stroke="#666666" points="1033.5,-338 940.5,-338 940.5,-319 1033.5,-319 1033.5,-338"/>
<text text-anchor="middle" x="987" y="-326" font-family="Helvetica,sans-Serif" font-size="10.00">drivers/Dual_led.h</text>
</a>
</g>
</g>
<!-- Node7&#45;&gt;Node30 -->
<g id="edge39" class="edge">
<title>Node7&#45;&gt;Node30</title>
<path fill="none" stroke="#63b8ff" d="M1018.86,-384.6C1013.44,-375.24 1004.77,-360.23 997.83,-348.24"/>
<polygon fill="#63b8ff" stroke="#63b8ff" points="1000.89,-346.54 992.86,-339.63 994.83,-350.04 1000.89,-346.54"/>
</g>
<!-- Node31 -->
<g id="node31" class="node">
<title>Node31</title>
<g id="a_node31"><a xlink:href="_digital__dual___l_e_d_8h_source.html" target="_top" xlink:title=" ">
<polygon fill="white" stroke="#666666" points="1188,-343.5 1090,-343.5 1090,-313.5 1188,-313.5 1188,-343.5"/>
<text text-anchor="start" x="1098" y="-331.5" font-family="Helvetica,sans-Serif" font-size="10.00">drivers/Digital_dual</text>
<text text-anchor="middle" x="1139" y="-320.5" font-family="Helvetica,sans-Serif" font-size="10.00">_led.h</text>
</a>
</g>
</g>
<!-- Node7&#45;&gt;Node31 -->
<g id="edge43" class="edge">
<title>Node7&#45;&gt;Node31</title>
<path fill="none" stroke="#63b8ff" d="M1039.99,-384.6C1056.22,-375.57 1081.9,-361.28 1103.03,-349.52"/>
<polygon fill="#63b8ff" stroke="#63b8ff" points="1104.63,-352.63 1111.66,-344.71 1101.22,-346.52 1104.63,-352.63"/>
</g>
<!-- Node32 -->
<g id="node32" class="node">
<title>Node32</title>
<g id="a_node32"><a xlink:href="_cooler_8h.html" target="_top" xlink:title="Controlador de ventilador de 12 volts y 5 milímteros.">
<polygon fill="white" stroke="#666666" points="803.5,-338 720.5,-338 720.5,-319 803.5,-319 803.5,-338"/>
<text text-anchor="middle" x="762" y="-326" font-family="Helvetica,sans-Serif" font-size="10.00">drivers/Cooler.h</text>
</a>
</g>
</g>
<!-- Node7&#45;&gt;Node32 -->
<g id="edge46" class="edge">
<title>Node7&#45;&gt;Node32</title>
<path fill="none" stroke="#63b8ff" d="M977.13,-385.95C933.8,-378.44 867.87,-365.63 812,-349 805.86,-347.17 799.41,-344.92 793.26,-342.6"/>
<polygon fill="#63b8ff" stroke="#63b8ff" points="794.65,-339.39 784.06,-338.99 792.09,-345.9 794.65,-339.39"/>
</g>
<!-- Node33 -->
<g id="node33" class="node">
<title>Node33</title>
<g id="a_node33"><a xlink:href="_shutdown__state_8h.html" target="_top" xlink:title="Clase de estado de apagado del sistema.">
<polygon fill="white" stroke="#666666" points="1378,-349 1244,-349 1244,-308 1378,-308 1378,-349"/>
<text text-anchor="start" x="1252" y="-337" font-family="Helvetica,sans-Serif" font-size="10.00">machine_state_pattern</text>
<text text-anchor="start" x="1252" y="-326" font-family="Helvetica,sans-Serif" font-size="10.00">/machine_states/Shutdown</text>
<text text-anchor="middle" x="1311" y="-315" font-family="Helvetica,sans-Serif" font-size="10.00">_state.h</text>
</a>
</g>
</g>
<!-- Node7&#45;&gt;Node33 -->
<g id="edge49" class="edge">
<title>Node7&#45;&gt;Node33</title>
<path fill="none" stroke="#63b8ff" d="M1060.17,-384.5C1099.79,-375.72 1164.82,-361.83 1221,-349 1224.78,-348.14 1228.66,-347.24 1232.58,-346.33"/>
<polygon fill="#63b8ff" stroke="#63b8ff" points="1233.3,-349.75 1242.24,-344.07 1231.7,-342.94 1233.3,-349.75"/>
</g>
<!-- Node8&#45;&gt;Node5 -->
<g id="edge8" class="edge">
<title>Node8&#45;&gt;Node5</title>
<path fill="none" stroke="#63b8ff" d="M185.08,-313.04C161.73,-301.37 128.66,-284.83 102.98,-271.99"/>
<polygon fill="#63b8ff" stroke="#63b8ff" points="104.7,-268.93 94.19,-267.59 101.57,-275.2 104.7,-268.93"/>
</g>
<!-- Node8&#45;&gt;Node6 -->
<g id="edge9" class="edge">
<title>Node8&#45;&gt;Node6</title>
<path fill="none" stroke="#63b8ff" d="M213.61,-313.04C213.35,-303.18 213,-289.86 212.69,-278.22"/>
<polygon fill="#63b8ff" stroke="#63b8ff" points="216.19,-278.33 212.42,-268.43 209.19,-278.52 216.19,-278.33"/>
</g>
<!-- Node10 -->
<g id="node10" class="node">
<title>Node10</title>
<g id="a_node10"><a xlink:href="_abstract__state_8h.html" target="_top" xlink:title="Clase de estado abstracta.">
<polygon fill="white" stroke="#666666" points="1474,-41 1346,-41 1346,0 1474,0 1474,-41"/>
<text text-anchor="start" x="1354" y="-29" font-family="Helvetica,sans-Serif" font-size="10.00">machine_state_pattern</text>
<text text-anchor="start" x="1354" y="-18" font-family="Helvetica,sans-Serif" font-size="10.00">/machine_states/Abstract</text>
<text text-anchor="middle" x="1410" y="-7" font-family="Helvetica,sans-Serif" font-size="10.00">_state.h</text>
</a>
</g>
</g>
<!-- Node9&#45;&gt;Node10 -->
<g id="edge11" class="edge">
<title>Node9&#45;&gt;Node10</title>
<path fill="none" stroke="#63b8ff" d="M1614.6,-159.04C1588.61,-139.82 1540.92,-105.01 1499,-77 1483.97,-66.96 1467.22,-56.36 1452.34,-47.15"/>
<polygon fill="#63b8ff" stroke="#63b8ff" points="1454.5,-44.37 1444.15,-42.1 1450.83,-50.33 1454.5,-44.37"/>
</g>
<!-- Node12 -->
<g id="node12" class="node">
<title>Node12</title>
<g id="a_node12"><a xlink:href="display__settings_8h.html" target="_top" xlink:title="Archivo de configuración de la pantalla.">
<polygon fill="white" stroke="#666666" points="561.5,-184 466.5,-184 466.5,-165 561.5,-165 561.5,-184"/>
<text text-anchor="middle" x="514" y="-172" font-family="Helvetica,sans-Serif" font-size="10.00">display_settings.h</text>
</a>
</g>
</g>
<!-- Node11&#45;&gt;Node12 -->
<g id="edge13" class="edge">
<title>Node11&#45;&gt;Node12</title>
<path fill="none" stroke="#63b8ff" d="M361.83,-318.55C380.64,-308.64 410.59,-291.46 433,-272 460.69,-247.95 486.86,-214.01 501.62,-193.45"/>
<polygon fill="#63b8ff" stroke="#63b8ff" points="504.3,-195.71 507.2,-185.52 498.58,-191.68 504.3,-195.71"/>
</g>
<!-- Node13 -->
<g id="node13" class="node">
<title>Node13</title>
<g id="a_node13"><a xlink:href="hd44780___i2_cexp_8h.html" target="_top" xlink:title="Adaptación de la biblioteca TextLCD de MbedOS 5. Permite utilizar un LCD hd44780 con un expansor de p...">
<polygon fill="white" stroke="#666666" points="424,-261 296,-261 296,-242 424,-242 424,-261"/>
<text text-anchor="middle" x="360" y="-249" font-family="Helvetica,sans-Serif" font-size="10.00">drivers/hd44780_I2Cexp.h</text>
</a>
</g>
</g>
<!-- Node11&#45;&gt;Node13 -->
<g id="edge14" class="edge">
<title>Node11&#45;&gt;Node13</title>
<path fill="none" stroke="#63b8ff" d="M345.9,-318.6C348.3,-307.33 352.52,-287.55 355.72,-272.56"/>
<polygon fill="#63b8ff" stroke="#63b8ff" points="359.12,-273.38 357.79,-262.87 352.28,-271.92 359.12,-273.38"/>
</g>
<!-- Node13&#45;&gt;Node12 -->
<g id="edge24" class="edge">
<title>Node13&#45;&gt;Node12</title>
<path fill="none" stroke="#63b8ff" d="M378.27,-241.6C404.78,-228.69 454.17,-204.64 485.49,-189.38"/>
<polygon fill="#63b8ff" stroke="#63b8ff" points="486.93,-192.57 494.39,-185.05 483.87,-186.28 486.93,-192.57"/>
</g>
<!-- Node14 -->
<g id="node14" class="node">
<title>Node14</title>
<g id="a_node14"><a xlink:title=" ">
<polygon fill="#e0e0e0" stroke="#999999" points="761.5,-107 712.5,-107 712.5,-88 761.5,-88 761.5,-107"/>
<text text-anchor="middle" x="737" y="-95" font-family="Helvetica,sans-Serif" font-size="10.00">mbed.h</text>
</a>
</g>
</g>
<!-- Node13&#45;&gt;Node14 -->
<g id="edge15" class="edge">
<title>Node13&#45;&gt;Node14</title>
<path fill="none" stroke="#63b8ff" d="M369.8,-241.66C381.67,-230.87 402.16,-211.97 419,-195 436.5,-177.37 435.31,-166.12 457,-154 536,-109.86 644.76,-100.45 700.63,-98.69"/>
<polygon fill="#63b8ff" stroke="#63b8ff" points="700.62,-102.19 710.53,-98.45 700.45,-95.19 700.62,-102.19"/>
</g>
<!-- Node15 -->
<g id="node15" class="node">
<title>Node15</title>
<g id="a_node15"><a xlink:title=" ">
<polygon fill="#e0e0e0" stroke="#999999" points="224,-107 176,-107 176,-88 224,-88 224,-107"/>
<text text-anchor="middle" x="200" y="-95" font-family="Helvetica,sans-Serif" font-size="10.00">stdlib.h</text>
</a>
</g>
</g>
<!-- Node13&#45;&gt;Node15 -->
<g id="edge16" class="edge">
<title>Node13&#45;&gt;Node15</title>
<path fill="none" stroke="#63b8ff" d="M319.93,-241.53C292.68,-233.53 257.59,-219.23 235,-195 215.08,-173.64 206.32,-140.07 202.6,-118.68"/>
<polygon fill="#63b8ff" stroke="#63b8ff" points="206.08,-118.29 201.13,-108.92 199.15,-119.33 206.08,-118.29"/>
</g>
<!-- Node16 -->
<g id="node16" class="node">
<title>Node16</title>
<g id="a_node16"><a xlink:href="hd44780__instruction__set_8h.html" target="_top" xlink:title="Set de instrucciones del LCD HD44780.">
<polygon fill="white" stroke="#666666" points="410,-189.5 306,-189.5 306,-159.5 410,-159.5 410,-189.5"/>
<text text-anchor="start" x="314" y="-177.5" font-family="Helvetica,sans-Serif" font-size="10.00">hd44780_instruction</text>
<text text-anchor="middle" x="358" y="-166.5" font-family="Helvetica,sans-Serif" font-size="10.00">_set.h</text>
</a>
</g>
</g>
<!-- Node13&#45;&gt;Node16 -->
<g id="edge17" class="edge">
<title>Node13&#45;&gt;Node16</title>
<path fill="none" stroke="#63b8ff" d="M359.76,-241.6C359.5,-231.7 359.06,-215.24 358.69,-201.23"/>
<polygon fill="#63b8ff" stroke="#63b8ff" points="362.19,-201.18 358.42,-191.28 355.19,-201.37 362.19,-201.18"/>
</g>
<!-- Node17 -->
<g id="node17" class="node">
<title>Node17</title>
<g id="a_node17"><a xlink:href="utils_8h_source.html" target="_top" xlink:title=" ">
<polygon fill="white" stroke="#666666" points="287.5,-184 244.5,-184 244.5,-165 287.5,-165 287.5,-184"/>
<text text-anchor="middle" x="266" y="-172" font-family="Helvetica,sans-Serif" font-size="10.00">utils.h</text>
</a>
</g>
</g>
<!-- Node13&#45;&gt;Node17 -->
<g id="edge19" class="edge">
<title>Node13&#45;&gt;Node17</title>
<path fill="none" stroke="#63b8ff" d="M348.85,-241.6C333.37,-229.25 305.13,-206.72 285.97,-191.43"/>
<polygon fill="#63b8ff" stroke="#63b8ff" points="288.32,-188.83 278.32,-185.33 283.95,-194.3 288.32,-188.83"/>
</g>
<!-- Node16&#45;&gt;Node14 -->
<g id="edge18" class="edge">
<title>Node16&#45;&gt;Node14</title>
<path fill="none" stroke="#63b8ff" d="M404.7,-159C411.15,-157.2 417.72,-155.48 424,-154 523.25,-130.62 642.29,-112.07 700.84,-103.57"/>
<polygon fill="#63b8ff" stroke="#63b8ff" points="701.16,-107.06 710.56,-102.17 700.16,-100.13 701.16,-107.06"/>
</g>
<!-- Node17&#45;&gt;Node15 -->
<g id="edge22" class="edge">
<title>Node17&#45;&gt;Node15</title>
<path fill="none" stroke="#63b8ff" d="M258.17,-164.6C247.65,-152.65 228.73,-131.15 215.33,-115.92"/>
<polygon fill="#63b8ff" stroke="#63b8ff" points="218.05,-113.72 208.82,-108.52 212.8,-118.34 218.05,-113.72"/>
</g>
<!-- Node18 -->
<g id="node18" class="node">
<title>Node18</title>
<g id="a_node18"><a xlink:title=" ">
<polygon fill="#e0e0e0" stroke="#999999" points="289.5,-107 242.5,-107 242.5,-88 289.5,-88 289.5,-107"/>
<text text-anchor="middle" x="266" y="-95" font-family="Helvetica,sans-Serif" font-size="10.00">math.h</text>
</a>
</g>
</g>
<!-- Node17&#45;&gt;Node18 -->
<g id="edge20" class="edge">
<title>Node17&#45;&gt;Node18</title>
<path fill="none" stroke="#63b8ff" d="M266,-164.6C266,-153.33 266,-133.55 266,-118.56"/>
<polygon fill="#63b8ff" stroke="#63b8ff" points="269.5,-118.9 266,-108.9 262.5,-118.9 269.5,-118.9"/>
</g>
<!-- Node19 -->
<g id="node19" class="node">
<title>Node19</title>
<g id="a_node19"><a xlink:title=" ">
<polygon fill="#e0e0e0" stroke="#999999" points="354,-107 308,-107 308,-88 354,-88 354,-107"/>
<text text-anchor="middle" x="331" y="-95" font-family="Helvetica,sans-Serif" font-size="10.00">stdio.h</text>
</a>
</g>
</g>
<!-- Node17&#45;&gt;Node19 -->
<g id="edge21" class="edge">
<title>Node17&#45;&gt;Node19</title>
<path fill="none" stroke="#63b8ff" d="M273.71,-164.6C284.07,-152.65 302.7,-131.15 315.9,-115.92"/>
<polygon fill="#63b8ff" stroke="#63b8ff" points="318.4,-118.38 322.31,-108.53 313.11,-113.79 318.4,-118.38"/>
</g>
<!-- Node20 -->
<g id="node20" class="node">
<title>Node20</title>
<g id="a_node20"><a xlink:title=" ">
<polygon fill="#e0e0e0" stroke="#999999" points="421.5,-107 372.5,-107 372.5,-88 421.5,-88 421.5,-107"/>
<text text-anchor="middle" x="397" y="-95" font-family="Helvetica,sans-Serif" font-size="10.00">string.h</text>
</a>
</g>
</g>
<!-- Node17&#45;&gt;Node20 -->
<g id="edge23" class="edge">
<title>Node17&#45;&gt;Node20</title>
<path fill="none" stroke="#63b8ff" d="M279.78,-164.58C285.11,-161.19 291.3,-157.35 297,-154 325.82,-137.1 333.84,-134.31 363,-118 365.9,-116.38 368.92,-114.67 371.92,-112.96"/>
<polygon fill="#63b8ff" stroke="#63b8ff" points="373.55,-116.06 380.49,-108.06 370.08,-109.99 373.55,-116.06"/>
</g>
<!-- Node23 -->
<g id="node23" class="node">
<title>Node23</title>
<g id="a_node23"><a xlink:href="system__settings_8h.html" target="_top" xlink:title="Archivo para la definición de constantes del sistema.">
<polygon fill="white" stroke="#666666" points="958.5,-261 861.5,-261 861.5,-242 958.5,-242 958.5,-261"/>
<text text-anchor="middle" x="910" y="-249" font-family="Helvetica,sans-Serif" font-size="10.00">system_settings.h</text>
</a>
</g>
</g>
<!-- Node22&#45;&gt;Node23 -->
<g id="edge28" class="edge">
<title>Node22&#45;&gt;Node23</title>
<path fill="none" stroke="#63b8ff" d="M879.33,-313.04C885.33,-301.19 893.88,-284.32 900.42,-271.4"/>
<polygon fill="#63b8ff" stroke="#63b8ff" points="903.47,-273.14 904.86,-262.64 897.22,-269.98 903.47,-273.14"/>
</g>
<!-- Node24 -->
<g id="node24" class="node">
<title>Node24</title>
<g id="a_node24"><a xlink:title=" ">
<polygon fill="#e0e0e0" stroke="#999999" points="843.5,-261 784.5,-261 784.5,-242 843.5,-242 843.5,-261"/>
<text text-anchor="middle" x="814" y="-249" font-family="Helvetica,sans-Serif" font-size="10.00">DS1820.h</text>
</a>
</g>
</g>
<!-- Node22&#45;&gt;Node24 -->
<g id="edge29" class="edge">
<title>Node22&#45;&gt;Node24</title>
<path fill="none" stroke="#63b8ff" d="M860.82,-313.04C851.37,-300.83 837.81,-283.3 827.72,-270.24"/>
<polygon fill="#63b8ff" stroke="#63b8ff" points="830.61,-268.25 821.72,-262.48 825.07,-272.54 830.61,-268.25"/>
</g>
<!-- Node25&#45;&gt;Node14 -->
<g id="edge31" class="edge">
<title>Node25&#45;&gt;Node14</title>
<path fill="none" stroke="#63b8ff" d="M1152.14,-164.54C1138.28,-160.95 1121.92,-156.98 1107,-154 985.32,-129.72 839.21,-110.77 772.88,-102.72"/>
<polygon fill="#63b8ff" stroke="#63b8ff" points="773.67,-99.29 763.33,-101.57 772.84,-106.24 773.67,-99.29"/>
</g>
<!-- Node27&#45;&gt;Node14 -->
<g id="edge34" class="edge">
<title>Node27&#45;&gt;Node14</title>
<path fill="none" stroke="#63b8ff" d="M564.29,-318.75C571.12,-301.19 587.95,-260.81 609,-231 642.01,-184.26 691.39,-138.14 718.15,-114.59"/>
<polygon fill="#63b8ff" stroke="#63b8ff" points="720.21,-117.44 725.46,-108.24 715.62,-112.16 720.21,-117.44"/>
</g>
<!-- Node28 -->
<g id="node28" class="node">
<title>Node28</title>
<g id="a_node28"><a xlink:href="port__config_8h.html" target="_top" xlink:title="Archivo de configuración para los puertos de la placa donde se implementará el sistema.">
<polygon fill="white" stroke="#666666" points="690,-261 618,-261 618,-242 690,-242 690,-261"/>
<text text-anchor="middle" x="654" y="-249" font-family="Helvetica,sans-Serif" font-size="10.00">port_config.h</text>
</a>
</g>
</g>
<!-- Node27&#45;&gt;Node28 -->
<g id="edge35" class="edge">
<title>Node27&#45;&gt;Node28</title>
<path fill="none" stroke="#63b8ff" d="M572.03,-318.6C587.35,-306.25 615.29,-283.72 634.25,-268.43"/>
<polygon fill="#63b8ff" stroke="#63b8ff" points="636.22,-271.34 641.8,-262.34 631.82,-265.89 636.22,-271.34"/>
</g>
<!-- Node29&#45;&gt;Node14 -->
<g id="edge37" class="edge">
<title>Node29&#45;&gt;Node14</title>
<path fill="none" stroke="#63b8ff" d="M669.41,-318.68C677.83,-308.21 691.39,-289.91 699,-272 721.46,-219.14 731.36,-151.34 735.08,-118.34"/>
<polygon fill="#63b8ff" stroke="#63b8ff" points="738.53,-118.96 736.09,-108.65 731.57,-118.23 738.53,-118.96"/>
</g>
<!-- Node29&#45;&gt;Node28 -->
<g id="edge38" class="edge">
<title>Node29&#45;&gt;Node28</title>
<path fill="none" stroke="#63b8ff" d="M661.05,-318.6C659.85,-307.33 657.74,-287.55 656.14,-272.56"/>
<polygon fill="#63b8ff" stroke="#63b8ff" points="659.65,-272.46 655.11,-262.89 652.69,-273.21 659.65,-272.46"/>
</g>
<!-- Node30&#45;&gt;Node14 -->
<g id="edge40" class="edge">
<title>Node30&#45;&gt;Node14</title>
<path fill="none" stroke="#63b8ff" d="M987.46,-318.56C987.94,-300.3 986.66,-258.17 967,-231 918.29,-163.66 824.05,-125.44 772.61,-108.73"/>
<polygon fill="#63b8ff" stroke="#63b8ff" points="773.75,-105.42 763.16,-105.76 771.65,-112.1 773.75,-105.42"/>
</g>
<!-- Node30&#45;&gt;Node23 -->
<g id="edge42" class="edge">
<title>Node30&#45;&gt;Node23</title>
<path fill="none" stroke="#63b8ff" d="M977.86,-318.6C965.36,-306.42 942.68,-284.33 927,-269.06"/>
<polygon fill="#63b8ff" stroke="#63b8ff" points="929.81,-266.91 920.21,-262.44 924.93,-271.93 929.81,-266.91"/>
</g>
<!-- Node30&#45;&gt;Node26 -->
<g id="edge41" class="edge">
<title>Node30&#45;&gt;Node26</title>
<path fill="none" stroke="#63b8ff" d="M993.29,-318.6C1001.58,-306.87 1016.36,-285.96 1027.08,-270.79"/>
<polygon fill="#63b8ff" stroke="#63b8ff" points="1029.93,-272.81 1032.85,-262.62 1024.22,-268.77 1029.93,-272.81"/>
</g>
<!-- Node31&#45;&gt;Node14 -->
<g id="edge44" class="edge">
<title>Node31&#45;&gt;Node14</title>
<path fill="none" stroke="#63b8ff" d="M1132.1,-313.05C1121.72,-292.57 1100.35,-254.92 1073,-231 982.61,-151.95 839.43,-117.02 773.02,-104.44"/>
<polygon fill="#63b8ff" stroke="#63b8ff" points="773.88,-101.04 763.41,-102.68 772.62,-107.92 773.88,-101.04"/>
</g>
<!-- Node31&#45;&gt;Node26 -->
<g id="edge45" class="edge">
<title>Node31&#45;&gt;Node26</title>
<path fill="none" stroke="#63b8ff" d="M1119.91,-313.04C1102.84,-300.11 1077.9,-281.21 1060.44,-267.98"/>
<polygon fill="#63b8ff" stroke="#63b8ff" points="1062.89,-265.45 1052.81,-262.2 1058.66,-271.03 1062.89,-265.45"/>
</g>
<!-- Node32&#45;&gt;Node14 -->
<g id="edge47" class="edge">
<title>Node32&#45;&gt;Node14</title>
<path fill="none" stroke="#63b8ff" d="M761.02,-318.52C757.35,-284.89 744.35,-165.86 739.16,-118.32"/>
<polygon fill="#63b8ff" stroke="#63b8ff" points="742.68,-118.23 738.11,-108.67 735.72,-118.99 742.68,-118.23"/>
</g>
<!-- Node32&#45;&gt;Node23 -->
<g id="edge48" class="edge">
<title>Node32&#45;&gt;Node23</title>
<path fill="none" stroke="#63b8ff" d="M779.56,-318.6C804.93,-305.75 852.08,-281.85 882.21,-266.58"/>
<polygon fill="#63b8ff" stroke="#63b8ff" points="883.78,-269.71 891.11,-262.07 880.61,-263.47 883.78,-269.71"/>
</g>
<!-- Node33&#45;&gt;Node7 -->
<g id="edge50" class="edge">
<title>Node33&#45;&gt;Node7</title>
<path fill="none" stroke="#63b8ff" d="M1243.7,-347.92C1242.12,-348.29 1240.55,-348.65 1239,-349 1186.12,-361.08 1125.4,-374.09 1081.91,-382.9"/>
<polygon fill="#63b8ff" stroke="#63b8ff" points="1081.28,-379.46 1072.16,-384.86 1082.66,-386.32 1081.28,-379.46"/>
</g>
<!-- Node33&#45;&gt;Node10 -->
<g id="edge51" class="edge">
<title>Node33&#45;&gt;Node10</title>
<path fill="none" stroke="#63b8ff" d="M1304.29,-307.72C1301.08,-297.24 1297.6,-284.07 1296,-272 1284.44,-184.94 1279.11,-149.96 1328,-77 1335.85,-65.28 1347.1,-55.37 1358.75,-47.32"/>
<polygon fill="#63b8ff" stroke="#63b8ff" points="1360.36,-50.44 1366.86,-42.08 1356.56,-44.57 1360.36,-50.44"/>
</g>
<!-- Node34 -->
<g id="node34" class="node">
<title>Node34</title>
<g id="a_node34"><a xlink:href="_idle__state_8h.html" target="_top" xlink:title="Clase de estado de reposo.">
<polygon fill="white" stroke="#666666" points="1421,-272 1305,-272 1305,-231 1421,-231 1421,-272"/>
<text text-anchor="start" x="1313" y="-260" font-family="Helvetica,sans-Serif" font-size="10.00">machine_state_pattern</text>
<text text-anchor="start" x="1313" y="-249" font-family="Helvetica,sans-Serif" font-size="10.00">/machine_states/Idle</text>
<text text-anchor="middle" x="1363" y="-238" font-family="Helvetica,sans-Serif" font-size="10.00">_state.h</text>
</a>
</g>
</g>
<!-- Node33&#45;&gt;Node34 -->
<g id="edge52" class="edge">
<title>Node33&#45;&gt;Node34</title>
<path fill="none" stroke="#63b8ff" d="M1324.66,-307.79C1330.23,-299.76 1336.78,-290.31 1342.88,-281.52"/>
<polygon fill="#63b8ff" stroke="#63b8ff" points="1345.56,-283.79 1348.39,-273.58 1339.81,-279.8 1345.56,-283.79"/>
</g>
<!-- Node34&#45;&gt;Node7 -->
<g id="edge53" class="edge">
<title>Node34&#45;&gt;Node7</title>
<path fill="none" stroke="#63b8ff" d="M1377.1,-272.33C1390.45,-293.75 1405.88,-327.67 1387,-349 1367.16,-371.42 1179.57,-384.96 1082.14,-390.53"/>
<polygon fill="#63b8ff" stroke="#63b8ff" points="1082.02,-387.03 1072.23,-391.09 1082.41,-394.02 1082.02,-387.03"/>
</g>
<!-- Node34&#45;&gt;Node10 -->
<g id="edge54" class="edge">
<title>Node34&#45;&gt;Node10</title>
<path fill="none" stroke="#63b8ff" d="M1354.17,-230.66C1340.67,-197.24 1318.87,-128.31 1343,-77 1348.16,-66.02 1356.68,-56.47 1365.94,-48.52"/>
<polygon fill="#63b8ff" stroke="#63b8ff" points="1368.09,-51.29 1373.78,-42.35 1363.76,-45.79 1368.09,-51.29"/>
</g>
<!-- Node35 -->
<g id="node35" class="node">
<title>Node35</title>
<g id="a_node35"><a xlink:href="_alarm__state_8h.html" target="_top" xlink:title="Clase de estado de control del motor.">
<polygon fill="white" stroke="#666666" points="1468.5,-118 1351.5,-118 1351.5,-77 1468.5,-77 1468.5,-118"/>
<text text-anchor="start" x="1359.5" y="-106" font-family="Helvetica,sans-Serif" font-size="10.00">machine_state_pattern</text>
<text text-anchor="start" x="1359.5" y="-95" font-family="Helvetica,sans-Serif" font-size="10.00">/machine_states/Alarm</text>
<text text-anchor="middle" x="1410" y="-84" font-family="Helvetica,sans-Serif" font-size="10.00">_state.h</text>
</a>
</g>
</g>
<!-- Node34&#45;&gt;Node35 -->
<g id="edge55" class="edge">
<title>Node34&#45;&gt;Node35</title>
<path fill="none" stroke="#63b8ff" d="M1364.41,-230.63C1370.04,-204.68 1383.9,-159.02 1395.12,-128.76"/>
<polygon fill="#63b8ff" stroke="#63b8ff" points="1398.25,-130.38 1398.58,-119.79 1391.72,-127.86 1398.25,-130.38"/>
</g>
<!-- Node36 -->
<g id="node36" class="node">
<title>Node36</title>
<g id="a_node36"><a xlink:href="_check__instruction__state_8h_source.html" target="_top" xlink:title=" ">
<polygon fill="white" stroke="#666666" points="1557.5,-195 1438.5,-195 1438.5,-154 1557.5,-154 1557.5,-195"/>
<text text-anchor="start" x="1446.5" y="-183" font-family="Helvetica,sans-Serif" font-size="10.00">machine_state_pattern</text>
<text text-anchor="start" x="1446.5" y="-172" font-family="Helvetica,sans-Serif" font-size="10.00">/machine_states/Check</text>
<text text-anchor="middle" x="1498" y="-161" font-family="Helvetica,sans-Serif" font-size="10.00">_instruction_state.h</text>
</a>
</g>
</g>
<!-- Node34&#45;&gt;Node36 -->
<g id="edge63" class="edge">
<title>Node34&#45;&gt;Node36</title>
<path fill="none" stroke="#63b8ff" d="M1398.82,-230.6C1415.15,-221.53 1434.67,-210.68 1452.06,-201.02"/>
<polygon fill="#63b8ff" stroke="#63b8ff" points="1453.64,-204.15 1460.69,-196.23 1450.25,-198.03 1453.64,-204.15"/>
</g>
<!-- Node35&#45;&gt;Node7 -->
<g id="edge56" class="edge">
<title>Node35&#45;&gt;Node7</title>
<path fill="none" stroke="#63b8ff" d="M1413.91,-118.15C1418.82,-143.93 1426.97,-190.63 1430,-231 1431.36,-249.17 1432.85,-254 1430,-272 1424.38,-307.54 1432.83,-326.19 1405,-349 1356.92,-388.41 1176.3,-394 1082.05,-394.15"/>
<polygon fill="#63b8ff" stroke="#63b8ff" points="1082.24,-390.65 1072.24,-394.14 1082.24,-397.65 1082.24,-390.65"/>
</g>
<!-- Node35&#45;&gt;Node10 -->
<g id="edge57" class="edge">
<title>Node35&#45;&gt;Node10</title>
<path fill="none" stroke="#63b8ff" d="M1410,-76.79C1410,-69.45 1410,-60.91 1410,-52.78"/>
<polygon fill="#63b8ff" stroke="#63b8ff" points="1413.5,-52.85 1410,-42.85 1406.5,-52.85 1413.5,-52.85"/>
</g>
<!-- Node35&#45;&gt;Node34 -->
<g id="edge58" class="edge">
<title>Node35&#45;&gt;Node34</title>
<path fill="none" stroke="#63b8ff" d="M1408.59,-118.38C1402.96,-144.32 1389.1,-189.99 1377.87,-220.24"/>
<polygon fill="#63b8ff" stroke="#63b8ff" points="1374.75,-218.63 1374.42,-229.22 1381.28,-221.14 1374.75,-218.63"/>
</g>
<!-- Node35&#45;&gt;Node36 -->
<g id="edge59" class="edge">
<title>Node35&#45;&gt;Node36</title>
<path fill="none" stroke="#63b8ff" d="M1439.31,-118.33C1450.1,-126.89 1462.17,-137.05 1472.6,-146.29"/>
<polygon fill="#63b8ff" stroke="#63b8ff" points="1470.01,-148.68 1479.78,-152.78 1474.7,-143.48 1470.01,-148.68"/>
</g>
<!-- Node36&#45;&gt;Node7 -->
<g id="edge60" class="edge">
<title>Node36&#45;&gt;Node7</title>
<path fill="none" stroke="#63b8ff" d="M1500.76,-195.47C1504.55,-232 1506.6,-309.48 1463,-349 1435.32,-374.09 1194.97,-386.78 1082.1,-391.4"/>
<polygon fill="#63b8ff" stroke="#63b8ff" points="1082.3,-387.89 1072.44,-391.79 1082.58,-394.88 1082.3,-387.89"/>
</g>
<!-- Node36&#45;&gt;Node10 -->
<g id="edge61" class="edge">
<title>Node36&#45;&gt;Node10</title>
<path fill="none" stroke="#63b8ff" d="M1497.71,-153.61C1496.57,-133.05 1492.38,-100.7 1478,-77 1471.4,-66.13 1461.88,-56.45 1452.04,-48.33"/>
<polygon fill="#63b8ff" stroke="#63b8ff" points="1454.24,-45.61 1444.19,-42.26 1449.96,-51.15 1454.24,-45.61"/>
</g>
<!-- Node36&#45;&gt;Node35 -->
<g id="edge62" class="edge">
<title>Node36&#45;&gt;Node35</title>
<path fill="none" stroke="#63b8ff" d="M1468.86,-153.79C1458.08,-145.25 1446,-135.1 1435.56,-125.84"/>
<polygon fill="#63b8ff" stroke="#63b8ff" points="1438.13,-123.45 1428.36,-119.35 1433.44,-128.65 1438.13,-123.45"/>
</g>
</g>
</svg>
        <g id="navigator" transform="translate(0 0)" fill="#404254">
                <rect fill="#f2f5e9" fill-opacity="0.5" stroke="#606060" stroke-width=".5" x="0" y="0" width="60" height="60"/>
                <use id="zoomplus" xlink:href="#zoomPlus" x="17" y="9" onmousedown="handleZoom(evt,'in')"/>
                <use id="zoomminus" xlink:href="#zoomMin" x="42" y="9" onmousedown="handleZoom(evt,'out')"/>
                <use id="reset" xlink:href="#resetDef" x="30" y="36" onmousedown="handleReset()"/>
                <g id="arrowUp" xlink:href="#dirArrow" transform="translate(30 24)" onmousedown="handlePan(0,-1)">
                  <use xlink:href="#rim" fill="#404040">
                        <set attributeName="fill" to="#808080" begin="arrowUp.mouseover" end="arrowUp.mouseout"/>
                  </use>
                  <path fill="none" stroke="white" stroke-width="1.5" d="M0,-3.0v7 M-2.5,-0.5L0,-3.0L2.5,-0.5"/>
                </g>
                <g id="arrowRight" xlink:href="#dirArrow" transform="rotate(90) translate(36 -43)" onmousedown="handlePan(1,0)">
                  <use xlink:href="#rim" fill="#404040">
                        <set attributeName="fill" to="#808080" begin="arrowRight.mouseover" end="arrowRight.mouseout"/>
                  </use>
                  <path fill="none" stroke="white" stroke-width="1.5" d="M0,-3.0v7 M-2.5,-0.5L0,-3.0L2.5,-0.5"/>
                </g>
                <g id="arrowDown" xlink:href="#dirArrow" transform="rotate(180) translate(-30 -48)" onmousedown="handlePan(0,1)">
                  <use xlink:href="#rim" fill="#404040">
                        <set attributeName="fill" to="#808080" begin="arrowDown.mouseover" end="arrowDown.mouseout"/>
                  </use>
                  <path fill="none" stroke="white" stroke-width="1.5" d="M0,-3.0v7 M-2.5,-0.5L0,-3.0L2.5,-0.5"/>
                </g>
                <g id="arrowLeft" xlink:href="#dirArrow" transform="rotate(270) translate(-36 17)" onmousedown="handlePan(-1,0)">
                  <use xlink:href="#rim" fill="#404040">
                        <set attributeName="fill" to="#808080" begin="arrowLeft.mouseover" end="arrowLeft.mouseout"/>
                  </use>
                  <path fill="none" stroke="white" stroke-width="1.5" d="M0,-3.0v7 M-2.5,-0.5L0,-3.0L2.5,-0.5"/>
                </g>
        </g>
        <svg viewBox="0 0 15 15" width="100%" height="30px" preserveAspectRatio="xMaxYMin meet">
         <g id="arrow_out" transform="scale(0.3 0.3)">
          <a xlink:href="_instruction__observer_8cpp__incl_org.svg" target="_base">
           <rect id="button" ry="5" rx="5" y="6" x="6" height="38" width="38"
                fill="#f2f5e9" fill-opacity="0.5" stroke="#606060" stroke-width="1.0"/>
           <path id="arrow"
             d="M 11.500037,31.436501 C 11.940474,20.09759 22.043105,11.32322 32.158766,21.979434 L 37.068811,17.246167 C 37.068811,17.246167 37.088388,32 37.088388,32 L 22.160133,31.978069 C 22.160133,31.978069 26.997745,27.140456 26.997745,27.140456 C 18.528582,18.264221 13.291696,25.230495 11.500037,31.436501 z"
             style="fill:#404040;"/>
          </a>
         </g>
        </svg>
</svg>
