<?xml version="1.0" encoding="UTF-8" standalone="no"?>
<!DOCTYPE svg PUBLIC "-//W3C//DTD SVG 1.1//EN"
 "http://www.w3.org/Graphics/SVG/1.1/DTD/svg11.dtd">
<!-- Generated by graphviz version 7.0.2 (20221119.0110)
 -->
<!-- Title: C:/Users/juanh/OneDrive/Escritorio/Facultad/Beca/Proyecto/LAL_Control/include/machine_state_pattern/machine_states/Motor_control_state.h Pages: 1 -->
<!--zoomable 357 -->
<svg id="main" version="1.1" xmlns="http://www.w3.org/2000/svg" xmlns:xlink="http://www.w3.org/1999/xlink" xml:space="preserve" onload="init(evt)">
<style type="text/css"><![CDATA[
.edge:hover path { stroke: red; }
.edge:hover polygon { stroke: red; fill: red; }
]]></style>
<script type="text/javascript"><![CDATA[
var edges = document.getElementsByTagName('g');
if (edges && edges.length) {
  for (var i=0;i<edges.length;i++) {
    if (edges[i].id.substr(0,4)=='edge') {
      edges[i].setAttribute('class','edge');
    }
  }
}
]]></script>
        <defs>
                <circle id="rim" cx="0" cy="0" r="7"/>
                <circle id="rim2" cx="0" cy="0" r="3.5"/>
                <g id="zoomPlus">
                        <use xlink:href="#rim" fill="#404040">
                                <set attributeName="fill" to="#808080" begin="zoomplus.mouseover" end="zoomplus.mouseout"/>
                        </use>
                        <path d="M-4,0h8M0,-4v8" fill="none" stroke="white" stroke-width="1.5" pointer-events="none"/>
                </g>
                <g id="zoomMin">
                        <use xlink:href="#rim" fill="#404040">
                                <set attributeName="fill" to="#808080" begin="zoomminus.mouseover" end="zoomminus.mouseout"/>
                        </use>
                        <path d="M-4,0h8" fill="none" stroke="white" stroke-width="1.5" pointer-events="none"/>
                </g>
                <g id="dirArrow">
                        <path fill="none" stroke="white" stroke-width="1.5" d="M0,-3.0v7 M-2.5,-0.5L0,-3.0L2.5,-0.5"/>
                </g>
               <g id="resetDef">
                       <use xlink:href="#rim2" fill="#404040">
                               <set attributeName="fill" to="#808080" begin="reset.mouseover" end="reset.mouseout"/>
                       </use>
               </g>
        </defs>

<script type="text/javascript">
var viewWidth = 1691;
var viewHeight = 357;
var sectionId = 'dynsection-0';
</script>
<script xlink:href="svgpan.js"/>
<svg id="graph" class="graph">
<g id="viewport">
<title>C:/Users/juanh/OneDrive/Escritorio/Facultad/Beca/Proyecto/LAL_Control/include/machine_state_pattern/machine_states/Motor_control_state.h</title>
<!-- Node1 -->
<g id="node1" class="node">
<title>Node1</title>
<g id="a_node1"><a xlink:title="Clase de estado de control del motor.">
<polygon fill="#999999" stroke="#666666" points="158,-349 0,-349 0,-286 158,-286 158,-349"/>
<text text-anchor="start" x="8" y="-337" font-family="Helvetica,sans-Serif" font-size="10.00">C:/Users/juanh/OneDrive</text>
<text text-anchor="start" x="8" y="-326" font-family="Helvetica,sans-Serif" font-size="10.00">/Escritorio/Facultad/Beca</text>
<text text-anchor="start" x="8" y="-315" font-family="Helvetica,sans-Serif" font-size="10.00">/Proyecto/LAL_Control/include</text>
<text text-anchor="start" x="8" y="-304" font-family="Helvetica,sans-Serif" font-size="10.00">/machine_state_pattern/machine</text>
<text text-anchor="middle" x="79" y="-293" font-family="Helvetica,sans-Serif" font-size="10.00">_states/Motor_control_state.h</text>
</a>
</g>
</g>
<!-- Node2 -->
<g id="node2" class="node">
<title>Node2</title>
<g id="a_node2"><a xlink:href="_control__system_8h_source.html" target="_top" xlink:title=" ">
<polygon fill="white" stroke="#666666" points="848.5,-250 755.5,-250 755.5,-231 848.5,-231 848.5,-250"/>
<text text-anchor="middle" x="802" y="-238" font-family="Helvetica,sans-Serif" font-size="10.00">Control_system.h</text>
</a>
</g>
</g>
<!-- Node1&#45;&gt;Node2 -->
<g id="edge1" class="edge">
<title>Node1&#45;&gt;Node2</title>
<path fill="none" stroke="#63b8ff" d="M158.44,-308.26C305.15,-293.04 615.32,-260.86 744.08,-247.51"/>
<polygon fill="#63b8ff" stroke="#63b8ff" points="744.15,-251.02 753.73,-246.51 743.42,-244.06 744.15,-251.02"/>
</g>
<!-- Node7 -->
<g id="node7" class="node">
<title>Node7</title>
<g id="a_node7"><a xlink:href="_abstract__state_8h.html" target="_top" xlink:title="Clase de estado abstracta.">
<polygon fill="white" stroke="#666666" points="228,-41 100,-41 100,0 228,0 228,-41"/>
<text text-anchor="start" x="108" y="-29" font-family="Helvetica,sans-Serif" font-size="10.00">machine_state_pattern</text>
<text text-anchor="start" x="108" y="-18" font-family="Helvetica,sans-Serif" font-size="10.00">/machine_states/Abstract</text>
<text text-anchor="middle" x="164" y="-7" font-family="Helvetica,sans-Serif" font-size="10.00">_state.h</text>
</a>
</g>
</g>
<!-- Node1&#45;&gt;Node7 -->
<g id="edge46" class="edge">
<title>Node1&#45;&gt;Node7</title>
<path fill="none" stroke="#63b8ff" d="M64.61,-285.87C44.23,-237.57 13.68,-142.51 54,-77 62.47,-63.24 75.53,-52.76 89.72,-44.83"/>
<polygon fill="#63b8ff" stroke="#63b8ff" points="91.02,-48.1 98.34,-40.43 87.84,-41.86 91.02,-48.1"/>
</g>
<!-- Node30 -->
<g id="node30" class="node">
<title>Node30</title>
<g id="a_node30"><a xlink:href="_idle__state_8h.html" target="_top" xlink:title="Clase de estado de reposo.">
<polygon fill="white" stroke="#666666" points="179,-118 63,-118 63,-77 179,-77 179,-118"/>
<text text-anchor="start" x="71" y="-106" font-family="Helvetica,sans-Serif" font-size="10.00">machine_state_pattern</text>
<text text-anchor="start" x="71" y="-95" font-family="Helvetica,sans-Serif" font-size="10.00">/machine_states/Idle</text>
<text text-anchor="middle" x="121" y="-84" font-family="Helvetica,sans-Serif" font-size="10.00">_state.h</text>
</a>
</g>
</g>
<!-- Node1&#45;&gt;Node30 -->
<g id="edge47" class="edge">
<title>Node1&#45;&gt;Node30</title>
<path fill="none" stroke="#63b8ff" d="M80.06,-285.73C85.54,-244.3 99.66,-171 110.15,-129.47"/>
<polygon fill="#63b8ff" stroke="#63b8ff" points="113.51,-130.43 112.68,-119.87 106.75,-128.65 113.51,-130.43"/>
</g>
<!-- Node3 -->
<g id="node3" class="node">
<title>Node3</title>
<g id="a_node3"><a xlink:href="_subject_8h.html" target="_top" xlink:title=" ">
<polygon fill="white" stroke="#666666" points="1681,-112.5 1553,-112.5 1553,-82.5 1681,-82.5 1681,-112.5"/>
<text text-anchor="start" x="1561" y="-100.5" font-family="Helvetica,sans-Serif" font-size="10.00">observer_pattern/subjects</text>
<text text-anchor="middle" x="1617" y="-89.5" font-family="Helvetica,sans-Serif" font-size="10.00">/Subject.h</text>
</a>
</g>
</g>
<!-- Node2&#45;&gt;Node3 -->
<g id="edge2" class="edge">
<title>Node2&#45;&gt;Node3</title>
<path fill="none" stroke="#63b8ff" d="M848.84,-238.47C998.21,-234.94 1457.12,-221.99 1518,-195 1553.33,-179.34 1583.38,-145.21 1600.81,-122.03"/>
<polygon fill="#63b8ff" stroke="#63b8ff" points="1603.55,-124.23 1606.6,-114.08 1597.89,-120.11 1603.55,-124.23"/>
</g>
<!-- Node6 -->
<g id="node6" class="node">
<title>Node6</title>
<g id="a_node6"><a xlink:href="_machine_8h.html" target="_top" xlink:title="Clase de máquina abstracta.">
<polygon fill="white" stroke="#666666" points="422,-189.5 306,-189.5 306,-159.5 422,-159.5 422,-189.5"/>
<text text-anchor="start" x="314" y="-177.5" font-family="Helvetica,sans-Serif" font-size="10.00">machine_state_pattern</text>
<text text-anchor="middle" x="364" y="-166.5" font-family="Helvetica,sans-Serif" font-size="10.00">/Machine.h</text>
</a>
</g>
</g>
<!-- Node2&#45;&gt;Node6 -->
<g id="edge5" class="edge">
<title>Node2&#45;&gt;Node6</title>
<path fill="none" stroke="#63b8ff" d="M755.05,-236.35C684.25,-231.04 546.21,-218.51 431,-195 427.67,-194.32 424.26,-193.55 420.83,-192.73"/>
<polygon fill="#63b8ff" stroke="#63b8ff" points="421.91,-189.39 411.35,-190.3 420.17,-196.17 421.91,-189.39"/>
</g>
<!-- Node8 -->
<g id="node8" class="node">
<title>Node8</title>
<g id="a_node8"><a xlink:href="_display_8h.html" target="_top" xlink:title="Controlador de LCD hd44780 por interfaz I2C.">
<polygon fill="white" stroke="#666666" points="528,-184 440,-184 440,-165 528,-165 528,-184"/>
<text text-anchor="middle" x="484" y="-172" font-family="Helvetica,sans-Serif" font-size="10.00">drivers/Display.h</text>
</a>
</g>
</g>
<!-- Node2&#45;&gt;Node8 -->
<g id="edge7" class="edge">
<title>Node2&#45;&gt;Node8</title>
<path fill="none" stroke="#63b8ff" d="M755.01,-234.29C701.59,-227.76 612.07,-214.93 537,-195 530.1,-193.17 522.83,-190.8 515.97,-188.35"/>
<polygon fill="#63b8ff" stroke="#63b8ff" points="517.64,-185.23 507.04,-185.02 515.19,-191.79 517.64,-185.23"/>
</g>
<!-- Node13 -->
<g id="node13" class="node">
<title>Node13</title>
<g id="a_node13"><a xlink:href="user__messages_8h.html" target="_top" xlink:title="Archivo para la configuración de interfaz con el usuario.">
<polygon fill="white" stroke="#666666" points="640,-184 546,-184 546,-165 640,-165 640,-184"/>
<text text-anchor="middle" x="593" y="-172" font-family="Helvetica,sans-Serif" font-size="10.00">user_messages.h</text>
</a>
</g>
</g>
<!-- Node2&#45;&gt;Node13 -->
<g id="edge12" class="edge">
<title>Node2&#45;&gt;Node13</title>
<path fill="none" stroke="#63b8ff" d="M769.32,-230.53C738.24,-221.87 690.24,-208.17 649,-195 642.24,-192.84 635.07,-190.43 628.18,-188.06"/>
<polygon fill="#63b8ff" stroke="#63b8ff" points="629.74,-184.9 619.15,-184.92 627.44,-191.51 629.74,-184.9"/>
</g>
<!-- Node15 -->
<g id="node15" class="node">
<title>Node15</title>
<g id="a_node15"><a xlink:href="_system__observer_8h.html" target="_top" xlink:title="Clase observador del sistema de control.">
<polygon fill="white" stroke="#666666" points="1509,-189.5 1377,-189.5 1377,-159.5 1509,-159.5 1509,-189.5"/>
<text text-anchor="start" x="1385" y="-177.5" font-family="Helvetica,sans-Serif" font-size="10.00">observer_pattern/observers</text>
<text text-anchor="middle" x="1443" y="-166.5" font-family="Helvetica,sans-Serif" font-size="10.00">/System_observer.h</text>
</a>
</g>
</g>
<!-- Node2&#45;&gt;Node15 -->
<g id="edge14" class="edge">
<title>Node2&#45;&gt;Node15</title>
<path fill="none" stroke="#63b8ff" d="M848.73,-238.47C944.96,-235.8 1171.39,-226.51 1359,-195 1363.35,-194.27 1367.82,-193.4 1372.33,-192.45"/>
<polygon fill="#63b8ff" stroke="#63b8ff" points="1373.08,-195.87 1382.07,-190.27 1371.54,-189.04 1373.08,-195.87"/>
</g>
<!-- Node17 -->
<g id="node17" class="node">
<title>Node17</title>
<g id="a_node17"><a xlink:href="_temperature__sensor_8h.html" target="_top" xlink:title="Controlador para sensor de temperatura DS18B20.">
<polygon fill="white" stroke="#666666" points="1358.5,-189.5 1257.5,-189.5 1257.5,-159.5 1358.5,-159.5 1358.5,-189.5"/>
<text text-anchor="start" x="1265.5" y="-177.5" font-family="Helvetica,sans-Serif" font-size="10.00">drivers/Temperature</text>
<text text-anchor="middle" x="1308" y="-166.5" font-family="Helvetica,sans-Serif" font-size="10.00">_sensor.h</text>
</a>
</g>
</g>
<!-- Node2&#45;&gt;Node17 -->
<g id="edge19" class="edge">
<title>Node2&#45;&gt;Node17</title>
<path fill="none" stroke="#63b8ff" d="M848.78,-237.71C929.78,-233.97 1101.1,-223.18 1243,-195 1246.2,-194.37 1249.46,-193.64 1252.74,-192.85"/>
<polygon fill="#63b8ff" stroke="#63b8ff" points="1253.61,-196.24 1262.41,-190.34 1251.86,-189.47 1253.61,-196.24"/>
</g>
<!-- Node21 -->
<g id="node21" class="node">
<title>Node21</title>
<g id="a_node21"><a xlink:href="_moisture__sensor_8h.html" target="_top" xlink:title="Controlador de sensor de humedad analógico.">
<polygon fill="white" stroke="#666666" points="988,-184 860,-184 860,-165 988,-165 988,-184"/>
<text text-anchor="middle" x="924" y="-172" font-family="Helvetica,sans-Serif" font-size="10.00">drivers/Moisture_sensor.h</text>
</a>
</g>
</g>
<!-- Node2&#45;&gt;Node21 -->
<g id="edge23" class="edge">
<title>Node2&#45;&gt;Node21</title>
<path fill="none" stroke="#63b8ff" d="M818.96,-230.6C839.18,-220 873.2,-202.15 897.03,-189.65"/>
<polygon fill="#63b8ff" stroke="#63b8ff" points="898.61,-192.77 905.84,-185.03 895.36,-186.57 898.61,-192.77"/>
</g>
<!-- Node23 -->
<g id="node23" class="node">
<title>Node23</title>
<g id="a_node23"><a xlink:href="types_8h.html" target="_top" xlink:title="Archivo de definición de tipos de dato.">
<polygon fill="white" stroke="#666666" points="1178.5,-107 1129.5,-107 1129.5,-88 1178.5,-88 1178.5,-107"/>
<text text-anchor="middle" x="1154" y="-95" font-family="Helvetica,sans-Serif" font-size="10.00">types.h</text>
</a>
</g>
</g>
<!-- Node2&#45;&gt;Node23 -->
<g id="edge25" class="edge">
<title>Node2&#45;&gt;Node23</title>
<path fill="none" stroke="#63b8ff" d="M849,-237.84C951.16,-233.73 1186.24,-221.49 1210,-195 1232.38,-170.05 1198.92,-134.74 1174.89,-114.48"/>
<polygon fill="#63b8ff" stroke="#63b8ff" points="1177.12,-111.78 1167.14,-108.21 1172.71,-117.22 1177.12,-111.78"/>
</g>
<!-- Node24 -->
<g id="node24" class="node">
<title>Node24</title>
<g id="a_node24"><a xlink:href="_buzzer_8h.html" target="_top" xlink:title="Controlador de Buzzer de 12 milimetros.">
<polygon fill="white" stroke="#666666" points="744,-184 658,-184 658,-165 744,-165 744,-184"/>
<text text-anchor="middle" x="701" y="-172" font-family="Helvetica,sans-Serif" font-size="10.00">drivers/Buzzer.h</text>
</a>
</g>
</g>
<!-- Node2&#45;&gt;Node24 -->
<g id="edge26" class="edge">
<title>Node2&#45;&gt;Node24</title>
<path fill="none" stroke="#63b8ff" d="M787.96,-230.6C771.52,-220.19 744.07,-202.79 724.4,-190.33"/>
<polygon fill="#63b8ff" stroke="#63b8ff" points="726.52,-187.53 716.2,-185.13 722.78,-193.44 726.52,-187.53"/>
</g>
<!-- Node26 -->
<g id="node26" class="node">
<title>Node26</title>
<g id="a_node26"><a xlink:href="_motor_8h.html" target="_top" xlink:title="Controlador de motor de 220 VAC.">
<polygon fill="white" stroke="#666666" points="842,-184 762,-184 762,-165 842,-165 842,-184"/>
<text text-anchor="middle" x="802" y="-172" font-family="Helvetica,sans-Serif" font-size="10.00">drivers/Motor.h</text>
</a>
</g>
</g>
<!-- Node2&#45;&gt;Node26 -->
<g id="edge29" class="edge">
<title>Node2&#45;&gt;Node26</title>
<path fill="none" stroke="#63b8ff" d="M802,-230.6C802,-221.62 802,-207.45 802,-195.72"/>
<polygon fill="#63b8ff" stroke="#63b8ff" points="805.5,-195.84 802,-185.84 798.5,-195.84 805.5,-195.84"/>
</g>
<!-- Node27 -->
<g id="node27" class="node">
<title>Node27</title>
<g id="a_node27"><a xlink:href="_dual___l_e_d_8h.html" target="_top" xlink:title="Controlador de LED RG.">
<polygon fill="white" stroke="#666666" points="1200.5,-184 1107.5,-184 1107.5,-165 1200.5,-165 1200.5,-184"/>
<text text-anchor="middle" x="1154" y="-172" font-family="Helvetica,sans-Serif" font-size="10.00">drivers/Dual_led.h</text>
</a>
</g>
</g>
<!-- Node2&#45;&gt;Node27 -->
<g id="edge32" class="edge">
<title>Node2&#45;&gt;Node27</title>
<path fill="none" stroke="#63b8ff" d="M848.84,-235.29C907.83,-229.35 1011.99,-216.73 1099,-195 1106.22,-193.2 1113.83,-190.82 1121.01,-188.35"/>
<polygon fill="#63b8ff" stroke="#63b8ff" points="1122.17,-191.65 1130.4,-184.97 1119.8,-185.07 1122.17,-191.65"/>
</g>
<!-- Node28 -->
<g id="node28" class="node">
<title>Node28</title>
<g id="a_node28"><a xlink:href="_cooler_8h.html" target="_top" xlink:title="Controlador de ventilador de 12 volts y 5 milímteros.">
<polygon fill="white" stroke="#666666" points="1089.5,-184 1006.5,-184 1006.5,-165 1089.5,-165 1089.5,-184"/>
<text text-anchor="middle" x="1048" y="-172" font-family="Helvetica,sans-Serif" font-size="10.00">drivers/Cooler.h</text>
</a>
</g>
</g>
<!-- Node2&#45;&gt;Node28 -->
<g id="edge36" class="edge">
<title>Node2&#45;&gt;Node28</title>
<path fill="none" stroke="#63b8ff" d="M848.98,-230.71C888.78,-222.81 947.16,-210.13 997,-195 1003.39,-193.06 1010.13,-190.71 1016.54,-188.32"/>
<polygon fill="#63b8ff" stroke="#63b8ff" points="1017.4,-191.74 1025.48,-184.88 1014.89,-185.21 1017.4,-191.74"/>
</g>
<!-- Node29 -->
<g id="node29" class="node">
<title>Node29</title>
<g id="a_node29"><a xlink:href="_shutdown__state_8h.html" target="_top" xlink:title="Clase de estado de apagado del sistema.">
<polygon fill="white" stroke="#666666" points="288,-195 154,-195 154,-154 288,-154 288,-195"/>
<text text-anchor="start" x="162" y="-183" font-family="Helvetica,sans-Serif" font-size="10.00">machine_state_pattern</text>
<text text-anchor="start" x="162" y="-172" font-family="Helvetica,sans-Serif" font-size="10.00">/machine_states/Shutdown</text>
<text text-anchor="middle" x="221" y="-161" font-family="Helvetica,sans-Serif" font-size="10.00">_state.h</text>
</a>
</g>
</g>
<!-- Node2&#45;&gt;Node29 -->
<g id="edge39" class="edge">
<title>Node2&#45;&gt;Node29</title>
<path fill="none" stroke="#63b8ff" d="M755.19,-238.12C666.33,-234.83 467.64,-224.62 299.76,-196.98"/>
<polygon fill="#63b8ff" stroke="#63b8ff" points="300.43,-193.54 289.99,-195.34 299.27,-200.44 300.43,-193.54"/>
</g>
<!-- Node4 -->
<g id="node4" class="node">
<title>Node4</title>
<g id="a_node4"><a xlink:href="_subject__interface_8h.html" target="_top" xlink:title="Clase para interfaz para implementar el sujeto.">
<polygon fill="white" stroke="#666666" points="1533,-35.5 1405,-35.5 1405,-5.5 1533,-5.5 1533,-35.5"/>
<text text-anchor="start" x="1413" y="-23.5" font-family="Helvetica,sans-Serif" font-size="10.00">observer_pattern/subjects</text>
<text text-anchor="middle" x="1469" y="-12.5" font-family="Helvetica,sans-Serif" font-size="10.00">/Subject_interface.h</text>
</a>
</g>
</g>
<!-- Node3&#45;&gt;Node4 -->
<g id="edge3" class="edge">
<title>Node3&#45;&gt;Node4</title>
<path fill="none" stroke="#63b8ff" d="M1588.46,-82.04C1565.43,-70.37 1532.8,-53.83 1507.46,-40.99"/>
<polygon fill="#63b8ff" stroke="#63b8ff" points="1509.3,-38 1498.8,-36.6 1506.14,-44.24 1509.3,-38"/>
</g>
<!-- Node5 -->
<g id="node5" class="node">
<title>Node5</title>
<g id="a_node5"><a xlink:href="_observer__interface_8h.html" target="_top" xlink:title="Clase para interfaz para implementar el observador.">
<polygon fill="white" stroke="#666666" points="1683,-35.5 1551,-35.5 1551,-5.5 1683,-5.5 1683,-35.5"/>
<text text-anchor="start" x="1559" y="-23.5" font-family="Helvetica,sans-Serif" font-size="10.00">observer_pattern/observers</text>
<text text-anchor="middle" x="1617" y="-12.5" font-family="Helvetica,sans-Serif" font-size="10.00">/Observer_interface.h</text>
</a>
</g>
</g>
<!-- Node3&#45;&gt;Node5 -->
<g id="edge4" class="edge">
<title>Node3&#45;&gt;Node5</title>
<path fill="none" stroke="#63b8ff" d="M1617,-82.04C1617,-72.18 1617,-58.86 1617,-47.22"/>
<polygon fill="#63b8ff" stroke="#63b8ff" points="1620.5,-47.43 1617,-37.43 1613.5,-47.43 1620.5,-47.43"/>
</g>
<!-- Node6&#45;&gt;Node7 -->
<g id="edge6" class="edge">
<title>Node6&#45;&gt;Node7</title>
<path fill="none" stroke="#63b8ff" d="M333.44,-159.16C312.97,-148.94 285.87,-134.18 264,-118 236.34,-97.53 208.46,-69.92 189.19,-49.47"/>
<polygon fill="#63b8ff" stroke="#63b8ff" points="191.89,-47.24 182.52,-42.3 186.77,-52 191.89,-47.24"/>
</g>
<!-- Node9 -->
<g id="node9" class="node">
<title>Node9</title>
<g id="a_node9"><a xlink:title=" ">
<polygon fill="#e0e0e0" stroke="#999999" points="431.5,-107 386.5,-107 386.5,-88 431.5,-88 431.5,-107"/>
<text text-anchor="middle" x="409" y="-95" font-family="Helvetica,sans-Serif" font-size="10.00">Wire.h</text>
</a>
</g>
</g>
<!-- Node8&#45;&gt;Node9 -->
<g id="edge8" class="edge">
<title>Node8&#45;&gt;Node9</title>
<path fill="none" stroke="#63b8ff" d="M475.1,-164.6C463.04,-152.54 441.24,-130.74 425.99,-115.49"/>
<polygon fill="#63b8ff" stroke="#63b8ff" points="428.5,-113.05 418.96,-108.46 423.55,-118 428.5,-113.05"/>
</g>
<!-- Node10 -->
<g id="node10" class="node">
<title>Node10</title>
<g id="a_node10"><a xlink:title=" ">
<polygon fill="#e0e0e0" stroke="#999999" points="512,-107 450,-107 450,-88 512,-88 512,-107"/>
<text text-anchor="middle" x="481" y="-95" font-family="Helvetica,sans-Serif" font-size="10.00">hd44780.h</text>
</a>
</g>
</g>
<!-- Node8&#45;&gt;Node10 -->
<g id="edge9" class="edge">
<title>Node8&#45;&gt;Node10</title>
<path fill="none" stroke="#63b8ff" d="M483.64,-164.6C483.19,-153.33 482.4,-133.55 481.8,-118.56"/>
<polygon fill="#63b8ff" stroke="#63b8ff" points="485.31,-118.75 481.42,-108.9 478.32,-119.03 485.31,-118.75"/>
</g>
<!-- Node11 -->
<g id="node11" class="node">
<title>Node11</title>
<g id="a_node11"><a xlink:title=" ">
<polygon fill="#e0e0e0" stroke="#999999" points="655.5,-112.5 530.5,-112.5 530.5,-82.5 655.5,-82.5 655.5,-112.5"/>
<text text-anchor="start" x="538.5" y="-100.5" font-family="Helvetica,sans-Serif" font-size="10.00">hd44780ioClass/hd44780</text>
<text text-anchor="middle" x="593" y="-89.5" font-family="Helvetica,sans-Serif" font-size="10.00">_I2Cexp.h</text>
</a>
</g>
</g>
<!-- Node8&#45;&gt;Node11 -->
<g id="edge10" class="edge">
<title>Node8&#45;&gt;Node11</title>
<path fill="none" stroke="#63b8ff" d="M496.93,-164.6C513.07,-153.5 541.18,-134.16 562.84,-119.25"/>
<polygon fill="#63b8ff" stroke="#63b8ff" points="564.77,-122.18 571.02,-113.62 560.8,-116.41 564.77,-122.18"/>
</g>
<!-- Node12 -->
<g id="node12" class="node">
<title>Node12</title>
<g id="a_node12"><a xlink:href="display__settings_8h.html" target="_top" xlink:title="Archivo de configuración de la pantalla.">
<polygon fill="white" stroke="#666666" points="368.5,-107 273.5,-107 273.5,-88 368.5,-88 368.5,-107"/>
<text text-anchor="middle" x="321" y="-95" font-family="Helvetica,sans-Serif" font-size="10.00">display_settings.h</text>
</a>
</g>
</g>
<!-- Node8&#45;&gt;Node12 -->
<g id="edge11" class="edge">
<title>Node8&#45;&gt;Node12</title>
<path fill="none" stroke="#63b8ff" d="M464.66,-164.6C436.48,-151.63 383.87,-127.43 350.74,-112.18"/>
<polygon fill="#63b8ff" stroke="#63b8ff" points="352.24,-109.02 341.69,-108.02 349.31,-115.38 352.24,-109.02"/>
</g>
<!-- Node14 -->
<g id="node14" class="node">
<title>Node14</title>
<g id="a_node14"><a xlink:title=" ">
<polygon fill="#e0e0e0" stroke="#999999" points="758.5,-107 673.5,-107 673.5,-88 758.5,-88 758.5,-107"/>
<text text-anchor="middle" x="716" y="-95" font-family="Helvetica,sans-Serif" font-size="10.00">avr/pgmspace.h</text>
</a>
</g>
</g>
<!-- Node13&#45;&gt;Node14 -->
<g id="edge13" class="edge">
<title>Node13&#45;&gt;Node14</title>
<path fill="none" stroke="#63b8ff" d="M607.59,-164.6C628.4,-151.92 666.84,-128.48 691.91,-113.19"/>
<polygon fill="#63b8ff" stroke="#63b8ff" points="693.42,-116.37 700.13,-108.17 689.77,-110.39 693.42,-116.37"/>
</g>
<!-- Node15&#45;&gt;Node2 -->
<g id="edge18" class="edge">
<title>Node15&#45;&gt;Node2</title>
<path fill="none" stroke="#63b8ff" d="M1401.31,-189.94C1393.31,-191.88 1384.96,-193.66 1377,-195 1190.08,-226.4 964.62,-235.73 860.17,-238.44"/>
<polygon fill="#63b8ff" stroke="#63b8ff" points="860.37,-234.93 850.46,-238.68 860.54,-241.93 860.37,-234.93"/>
</g>
<!-- Node16 -->
<g id="node16" class="node">
<title>Node16</title>
<g id="a_node16"><a xlink:href="_observer_8h.html" target="_top" xlink:title="Clase observador.">
<polygon fill="white" stroke="#666666" points="1535,-112.5 1403,-112.5 1403,-82.5 1535,-82.5 1535,-112.5"/>
<text text-anchor="start" x="1411" y="-100.5" font-family="Helvetica,sans-Serif" font-size="10.00">observer_pattern/observers</text>
<text text-anchor="middle" x="1469" y="-89.5" font-family="Helvetica,sans-Serif" font-size="10.00">/Observer.h</text>
</a>
</g>
</g>
<!-- Node15&#45;&gt;Node16 -->
<g id="edge15" class="edge">
<title>Node15&#45;&gt;Node16</title>
<path fill="none" stroke="#63b8ff" d="M1448.01,-159.04C1451.5,-148.97 1456.24,-135.3 1460.34,-123.49"/>
<polygon fill="#63b8ff" stroke="#63b8ff" points="1463.54,-124.94 1463.51,-114.35 1456.92,-122.65 1463.54,-124.94"/>
</g>
<!-- Node16&#45;&gt;Node4 -->
<g id="edge16" class="edge">
<title>Node16&#45;&gt;Node4</title>
<path fill="none" stroke="#63b8ff" d="M1469,-82.04C1469,-72.18 1469,-58.86 1469,-47.22"/>
<polygon fill="#63b8ff" stroke="#63b8ff" points="1472.5,-47.43 1469,-37.43 1465.5,-47.43 1472.5,-47.43"/>
</g>
<!-- Node16&#45;&gt;Node5 -->
<g id="edge17" class="edge">
<title>Node16&#45;&gt;Node5</title>
<path fill="none" stroke="#63b8ff" d="M1497.54,-82.04C1520.57,-70.37 1553.2,-53.83 1578.54,-40.99"/>
<polygon fill="#63b8ff" stroke="#63b8ff" points="1579.86,-44.24 1587.2,-36.6 1576.7,-38 1579.86,-44.24"/>
</g>
<!-- Node18 -->
<g id="node18" class="node">
<title>Node18</title>
<g id="a_node18"><a xlink:href="system__settings_8h.html" target="_top" xlink:title="Archivo para la definición de constantes del sistema.">
<polygon fill="white" stroke="#666666" points="1111.5,-107 1014.5,-107 1014.5,-88 1111.5,-88 1111.5,-107"/>
<text text-anchor="middle" x="1063" y="-95" font-family="Helvetica,sans-Serif" font-size="10.00">system_settings.h</text>
</a>
</g>
</g>
<!-- Node17&#45;&gt;Node18 -->
<g id="edge20" class="edge">
<title>Node17&#45;&gt;Node18</title>
<path fill="none" stroke="#63b8ff" d="M1257.45,-159.03C1219.74,-148.1 1167.01,-132.56 1121,-118 1114.09,-115.81 1106.74,-113.41 1099.68,-111.05"/>
<polygon fill="#63b8ff" stroke="#63b8ff" points="1100.95,-107.79 1090.35,-107.92 1098.72,-114.42 1100.95,-107.79"/>
</g>
<!-- Node19 -->
<g id="node19" class="node">
<title>Node19</title>
<g id="a_node19"><a xlink:title=" ">
<polygon fill="#e0e0e0" stroke="#999999" points="1384.5,-107 1321.5,-107 1321.5,-88 1384.5,-88 1384.5,-107"/>
<text text-anchor="middle" x="1353" y="-95" font-family="Helvetica,sans-Serif" font-size="10.00">OneWire.h</text>
</a>
</g>
</g>
<!-- Node17&#45;&gt;Node19 -->
<g id="edge21" class="edge">
<title>Node17&#45;&gt;Node19</title>
<path fill="none" stroke="#63b8ff" d="M1316.68,-159.04C1323.86,-147.07 1334.11,-129.98 1341.89,-117.01"/>
<polygon fill="#63b8ff" stroke="#63b8ff" points="1344.81,-118.96 1346.95,-108.58 1338.8,-115.36 1344.81,-118.96"/>
</g>
<!-- Node20 -->
<g id="node20" class="node">
<title>Node20</title>
<g id="a_node20"><a xlink:title=" ">
<polygon fill="#e0e0e0" stroke="#999999" points="1303,-107 1197,-107 1197,-88 1303,-88 1303,-107"/>
<text text-anchor="middle" x="1250" y="-95" font-family="Helvetica,sans-Serif" font-size="10.00">DallasTemperature.h</text>
</a>
</g>
</g>
<!-- Node17&#45;&gt;Node20 -->
<g id="edge22" class="edge">
<title>Node17&#45;&gt;Node20</title>
<path fill="none" stroke="#63b8ff" d="M1296.82,-159.04C1287.37,-146.83 1273.81,-129.3 1263.72,-116.24"/>
<polygon fill="#63b8ff" stroke="#63b8ff" points="1266.61,-114.25 1257.72,-108.48 1261.07,-118.54 1266.61,-114.25"/>
</g>
<!-- Node22 -->
<g id="node22" class="node">
<title>Node22</title>
<g id="a_node22"><a xlink:title=" ">
<polygon fill="#e0e0e0" stroke="#999999" points="953,-107 895,-107 895,-88 953,-88 953,-107"/>
<text text-anchor="middle" x="924" y="-95" font-family="Helvetica,sans-Serif" font-size="10.00">Arduino.h</text>
</a>
</g>
</g>
<!-- Node21&#45;&gt;Node22 -->
<g id="edge24" class="edge">
<title>Node21&#45;&gt;Node22</title>
<path fill="none" stroke="#63b8ff" d="M924,-164.6C924,-153.33 924,-133.55 924,-118.56"/>
<polygon fill="#63b8ff" stroke="#63b8ff" points="927.5,-118.9 924,-108.9 920.5,-118.9 927.5,-118.9"/>
</g>
<!-- Node24&#45;&gt;Node22 -->
<g id="edge27" class="edge">
<title>Node24&#45;&gt;Node22</title>
<path fill="none" stroke="#63b8ff" d="M724.22,-164.54C733.18,-161.15 743.53,-157.31 753,-154 797.8,-138.34 849.7,-121.7 884.47,-110.78"/>
<polygon fill="#63b8ff" stroke="#63b8ff" points="885.18,-114.22 893.68,-107.89 883.09,-107.54 885.18,-114.22"/>
</g>
<!-- Node25 -->
<g id="node25" class="node">
<title>Node25</title>
<g id="a_node25"><a xlink:href="port__config_8h.html" target="_top" xlink:title="Archivo de configuración para los puertos de la placa donde se implementará el sistema.">
<polygon fill="white" stroke="#666666" points="849,-107 777,-107 777,-88 849,-88 849,-107"/>
<text text-anchor="middle" x="813" y="-95" font-family="Helvetica,sans-Serif" font-size="10.00">port_config.h</text>
</a>
</g>
</g>
<!-- Node24&#45;&gt;Node25 -->
<g id="edge28" class="edge">
<title>Node24&#45;&gt;Node25</title>
<path fill="none" stroke="#63b8ff" d="M714.29,-164.6C733.06,-152.03 767.61,-128.89 790.45,-113.6"/>
<polygon fill="#63b8ff" stroke="#63b8ff" points="792.11,-116.7 798.47,-108.23 788.22,-110.88 792.11,-116.7"/>
</g>
<!-- Node26&#45;&gt;Node22 -->
<g id="edge30" class="edge">
<title>Node26&#45;&gt;Node22</title>
<path fill="none" stroke="#63b8ff" d="M816.47,-164.6C837.02,-151.97 874.9,-128.68 899.77,-113.39"/>
<polygon fill="#63b8ff" stroke="#63b8ff" points="901.57,-116.4 908.26,-108.18 897.9,-110.43 901.57,-116.4"/>
</g>
<!-- Node26&#45;&gt;Node25 -->
<g id="edge31" class="edge">
<title>Node26&#45;&gt;Node25</title>
<path fill="none" stroke="#63b8ff" d="M803.31,-164.6C804.96,-153.33 807.86,-133.55 810.06,-118.56"/>
<polygon fill="#63b8ff" stroke="#63b8ff" points="813.49,-119.29 811.48,-108.88 806.56,-118.27 813.49,-119.29"/>
</g>
<!-- Node27&#45;&gt;Node18 -->
<g id="edge35" class="edge">
<title>Node27&#45;&gt;Node18</title>
<path fill="none" stroke="#63b8ff" d="M1143.2,-164.6C1128.29,-152.31 1101.13,-129.92 1082.58,-114.64"/>
<polygon fill="#63b8ff" stroke="#63b8ff" points="1084.89,-112.01 1074.95,-108.35 1080.44,-117.41 1084.89,-112.01"/>
</g>
<!-- Node27&#45;&gt;Node22 -->
<g id="edge33" class="edge">
<title>Node27&#45;&gt;Node22</title>
<path fill="none" stroke="#63b8ff" d="M1129.42,-164.59C1119.94,-161.2 1108.99,-157.35 1099,-154 1052.92,-138.53 999.64,-121.8 964.09,-110.79"/>
<polygon fill="#63b8ff" stroke="#63b8ff" points="965.24,-107.49 954.65,-107.88 963.17,-114.17 965.24,-107.49"/>
</g>
<!-- Node27&#45;&gt;Node23 -->
<g id="edge34" class="edge">
<title>Node27&#45;&gt;Node23</title>
<path fill="none" stroke="#63b8ff" d="M1154,-164.6C1154,-153.33 1154,-133.55 1154,-118.56"/>
<polygon fill="#63b8ff" stroke="#63b8ff" points="1157.5,-118.9 1154,-108.9 1150.5,-118.9 1157.5,-118.9"/>
</g>
<!-- Node28&#45;&gt;Node18 -->
<g id="edge38" class="edge">
<title>Node28&#45;&gt;Node18</title>
<path fill="none" stroke="#63b8ff" d="M1049.78,-164.6C1052.03,-153.33 1055.99,-133.55 1058.99,-118.56"/>
<polygon fill="#63b8ff" stroke="#63b8ff" points="1062.4,-119.36 1060.93,-108.87 1055.53,-117.99 1062.4,-119.36"/>
</g>
<!-- Node28&#45;&gt;Node22 -->
<g id="edge37" class="edge">
<title>Node28&#45;&gt;Node22</title>
<path fill="none" stroke="#63b8ff" d="M1033.29,-164.6C1012.31,-151.92 973.56,-128.48 948.29,-113.19"/>
<polygon fill="#63b8ff" stroke="#63b8ff" points="950.36,-110.35 939.99,-108.17 946.73,-116.34 950.36,-110.35"/>
</g>
<!-- Node29&#45;&gt;Node2 -->
<g id="edge40" class="edge">
<title>Node29&#45;&gt;Node2</title>
<path fill="none" stroke="#63b8ff" d="M288.25,-191.48C294.25,-192.81 300.23,-194.01 306,-195 463.03,-221.88 650.47,-232.99 743.63,-237.2"/>
<polygon fill="#63b8ff" stroke="#63b8ff" points="743.4,-240.69 753.54,-237.64 743.7,-233.7 743.4,-240.69"/>
</g>
<!-- Node29&#45;&gt;Node7 -->
<g id="edge41" class="edge">
<title>Node29&#45;&gt;Node7</title>
<path fill="none" stroke="#63b8ff" d="M214.75,-153.75C208.42,-134.13 198.15,-103.26 188,-77 184.83,-68.79 181.16,-60 177.65,-51.89"/>
<polygon fill="#63b8ff" stroke="#63b8ff" points="180.87,-50.52 173.66,-42.77 174.46,-53.33 180.87,-50.52"/>
</g>
<!-- Node29&#45;&gt;Node30 -->
<g id="edge42" class="edge">
<title>Node29&#45;&gt;Node30</title>
<path fill="none" stroke="#63b8ff" d="M194.46,-153.6C182.94,-144.95 169.26,-134.69 156.85,-125.39"/>
<polygon fill="#63b8ff" stroke="#63b8ff" points="158.97,-122.6 148.87,-119.4 154.77,-128.2 158.97,-122.6"/>
</g>
<!-- Node30&#45;&gt;Node1 -->
<g id="edge45" class="edge">
<title>Node30&#45;&gt;Node1</title>
<path fill="none" stroke="#63b8ff" d="M121.26,-118.41C117.48,-153.67 103.64,-227.82 92.5,-274.72"/>
<polygon fill="#63b8ff" stroke="#63b8ff" points="89.14,-273.71 90.16,-284.26 95.94,-275.38 89.14,-273.71"/>
</g>
<!-- Node30&#45;&gt;Node2 -->
<g id="edge43" class="edge">
<title>Node30&#45;&gt;Node2</title>
<path fill="none" stroke="#63b8ff" d="M119.68,-118.27C119.38,-140.64 122.77,-176.37 145,-195 190.32,-232.97 591.38,-238.63 743.68,-239.41"/>
<polygon fill="#63b8ff" stroke="#63b8ff" points="743.54,-242.91 753.55,-239.45 743.57,-235.91 743.54,-242.91"/>
</g>
<!-- Node30&#45;&gt;Node7 -->
<g id="edge44" class="edge">
<title>Node30&#45;&gt;Node7</title>
<path fill="none" stroke="#63b8ff" d="M132.3,-76.79C136.8,-68.93 142.09,-59.71 147.04,-51.08"/>
<polygon fill="#63b8ff" stroke="#63b8ff" points="149.94,-53.06 151.88,-42.65 143.87,-49.58 149.94,-53.06"/>
</g>
</g>
</svg>
        <g id="navigator" transform="translate(0 0)" fill="#404254">
                <rect fill="#f2f5e9" fill-opacity="0.5" stroke="#606060" stroke-width=".5" x="0" y="0" width="60" height="60"/>
                <use id="zoomplus" xlink:href="#zoomPlus" x="17" y="9" onmousedown="handleZoom(evt,'in')"/>
                <use id="zoomminus" xlink:href="#zoomMin" x="42" y="9" onmousedown="handleZoom(evt,'out')"/>
                <use id="reset" xlink:href="#resetDef" x="30" y="36" onmousedown="handleReset()"/>
                <g id="arrowUp" xlink:href="#dirArrow" transform="translate(30 24)" onmousedown="handlePan(0,-1)">
                  <use xlink:href="#rim" fill="#404040">
                        <set attributeName="fill" to="#808080" begin="arrowUp.mouseover" end="arrowUp.mouseout"/>
                  </use>
                  <path fill="none" stroke="white" stroke-width="1.5" d="M0,-3.0v7 M-2.5,-0.5L0,-3.0L2.5,-0.5"/>
                </g>
                <g id="arrowRight" xlink:href="#dirArrow" transform="rotate(90) translate(36 -43)" onmousedown="handlePan(1,0)">
                  <use xlink:href="#rim" fill="#404040">
                        <set attributeName="fill" to="#808080" begin="arrowRight.mouseover" end="arrowRight.mouseout"/>
                  </use>
                  <path fill="none" stroke="white" stroke-width="1.5" d="M0,-3.0v7 M-2.5,-0.5L0,-3.0L2.5,-0.5"/>
                </g>
                <g id="arrowDown" xlink:href="#dirArrow" transform="rotate(180) translate(-30 -48)" onmousedown="handlePan(0,1)">
                  <use xlink:href="#rim" fill="#404040">
                        <set attributeName="fill" to="#808080" begin="arrowDown.mouseover" end="arrowDown.mouseout"/>
                  </use>
                  <path fill="none" stroke="white" stroke-width="1.5" d="M0,-3.0v7 M-2.5,-0.5L0,-3.0L2.5,-0.5"/>
                </g>
                <g id="arrowLeft" xlink:href="#dirArrow" transform="rotate(270) translate(-36 17)" onmousedown="handlePan(-1,0)">
                  <use xlink:href="#rim" fill="#404040">
                        <set attributeName="fill" to="#808080" begin="arrowLeft.mouseover" end="arrowLeft.mouseout"/>
                  </use>
                  <path fill="none" stroke="white" stroke-width="1.5" d="M0,-3.0v7 M-2.5,-0.5L0,-3.0L2.5,-0.5"/>
                </g>
        </g>
        <svg viewBox="0 0 15 15" width="100%" height="30px" preserveAspectRatio="xMaxYMin meet">
         <g id="arrow_out" transform="scale(0.3 0.3)">
          <a xlink:href="_motor__control__state_8h__incl_org.svg" target="_base">
           <rect id="button" ry="5" rx="5" y="6" x="6" height="38" width="38"
                fill="#f2f5e9" fill-opacity="0.5" stroke="#606060" stroke-width="1.0"/>
           <path id="arrow"
             d="M 11.500037,31.436501 C 11.940474,20.09759 22.043105,11.32322 32.158766,21.979434 L 37.068811,17.246167 C 37.068811,17.246167 37.088388,32 37.088388,32 L 22.160133,31.978069 C 22.160133,31.978069 26.997745,27.140456 26.997745,27.140456 C 18.528582,18.264221 13.291696,25.230495 11.500037,31.436501 z"
             style="fill:#404040;"/>
          </a>
         </g>
        </svg>
</svg>
