<?xml version="1.0" encoding="UTF-8" standalone="no"?>
<!DOCTYPE svg PUBLIC "-//W3C//DTD SVG 1.1//EN"
 "http://www.w3.org/Graphics/SVG/1.1/DTD/svg11.dtd">
<!-- Generated by graphviz version 7.0.2 (20221119.0110)
 -->
<!-- Title: C:/Users/juanh/OneDrive/Escritorio/Sistemas Embebidos/Proyecto final/LAL Control MbedOS/include/observer_pattern/observers/Observer.h Pages: 1 -->
<svg width="1615pt" height="764pt"
 viewBox="0.00 0.00 1614.50 764.00" xmlns="http://www.w3.org/2000/svg" xmlns:xlink="http://www.w3.org/1999/xlink">
<g id="graph0" class="graph" transform="scale(1 1) rotate(0) translate(4 760)">
<title>C:/Users/juanh/OneDrive/Escritorio/Sistemas Embebidos/Proyecto final/LAL Control MbedOS/include/observer_pattern/observers/Observer.h</title>
<!-- Node1 -->
<g id="node1" class="node">
<title>Node1</title>
<g id="a_node1"><a xlink:title="Clase observador.">
<polygon fill="#999999" stroke="#666666" points="961.5,-756 795.5,-756 795.5,-693 961.5,-693 961.5,-756"/>
<text text-anchor="start" x="803.5" y="-744" font-family="Helvetica,sans-Serif" font-size="10.00">C:/Users/juanh/OneDrive</text>
<text text-anchor="start" x="803.5" y="-733" font-family="Helvetica,sans-Serif" font-size="10.00">/Escritorio/Sistemas Embebidos</text>
<text text-anchor="start" x="803.5" y="-722" font-family="Helvetica,sans-Serif" font-size="10.00">/Proyecto final/LAL Control</text>
<text text-anchor="start" x="803.5" y="-711" font-family="Helvetica,sans-Serif" font-size="10.00"> MbedOS/include/observer_pattern</text>
<text text-anchor="middle" x="878.5" y="-700" font-family="Helvetica,sans-Serif" font-size="10.00">/observers/Observer.h</text>
</a>
</g>
</g>
<!-- Node2 -->
<g id="node2" class="node">
<title>Node2</title>
<g id="a_node2"><a xlink:href="_system__observer_8h.html" target="_top" xlink:title="Clase observador del sistema de control.">
<polygon fill="white" stroke="#666666" points="961.5,-657 795.5,-657 795.5,-594 961.5,-594 961.5,-657"/>
<text text-anchor="start" x="803.5" y="-645" font-family="Helvetica,sans-Serif" font-size="10.00">C:/Users/juanh/OneDrive</text>
<text text-anchor="start" x="803.5" y="-634" font-family="Helvetica,sans-Serif" font-size="10.00">/Escritorio/Sistemas Embebidos</text>
<text text-anchor="start" x="803.5" y="-623" font-family="Helvetica,sans-Serif" font-size="10.00">/Proyecto final/LAL Control</text>
<text text-anchor="start" x="803.5" y="-612" font-family="Helvetica,sans-Serif" font-size="10.00"> MbedOS/include/observer_pattern</text>
<text text-anchor="middle" x="878.5" y="-601" font-family="Helvetica,sans-Serif" font-size="10.00">/observers/System_observer.h</text>
</a>
</g>
</g>
<!-- Node1&#45;&gt;Node2 -->
<g id="edge1" class="edge">
<title>Node1&#45;&gt;Node2</title>
<path fill="none" stroke="#63b8ff" d="M878.5,-681.15C878.5,-673.2 878.5,-665.02 878.5,-657.5"/>
<polygon fill="#63b8ff" stroke="#63b8ff" points="875,-681.03 878.5,-691.03 882,-681.03 875,-681.03"/>
</g>
<!-- Node3 -->
<g id="node3" class="node">
<title>Node3</title>
<g id="a_node3"><a xlink:href="_control__system_8h_source.html" target="_top" xlink:title=" ">
<polygon fill="white" stroke="#666666" points="796,-558 625,-558 625,-506 796,-506 796,-558"/>
<text text-anchor="start" x="633" y="-546" font-family="Helvetica,sans-Serif" font-size="10.00">C:/Users/juanh/OneDrive</text>
<text text-anchor="start" x="633" y="-535" font-family="Helvetica,sans-Serif" font-size="10.00">/Escritorio/Sistemas Embebidos</text>
<text text-anchor="start" x="633" y="-524" font-family="Helvetica,sans-Serif" font-size="10.00">/Proyecto final/LAL Control</text>
<text text-anchor="middle" x="710.5" y="-513" font-family="Helvetica,sans-Serif" font-size="10.00"> MbedOS/include/Control_system.h</text>
</a>
</g>
</g>
<!-- Node2&#45;&gt;Node3 -->
<g id="edge2" class="edge">
<title>Node2&#45;&gt;Node3</title>
<path fill="none" stroke="#63b8ff" d="M805.28,-588.23C786.72,-578.27 767.45,-567.68 751.15,-558.47"/>
<polygon fill="#63b8ff" stroke="#63b8ff" points="803.39,-591.19 813.86,-592.81 806.69,-585.01 803.39,-591.19"/>
</g>
<!-- Node13 -->
<g id="node13" class="node">
<title>Node13</title>
<g id="a_node13"><a xlink:href="_cooler__observer_8h_source.html" target="_top" xlink:title=" ">
<polygon fill="white" stroke="#666666" points="793.5,-470 627.5,-470 627.5,-407 793.5,-407 793.5,-470"/>
<text text-anchor="start" x="635.5" y="-458" font-family="Helvetica,sans-Serif" font-size="10.00">C:/Users/juanh/OneDrive</text>
<text text-anchor="start" x="635.5" y="-447" font-family="Helvetica,sans-Serif" font-size="10.00">/Escritorio/Sistemas Embebidos</text>
<text text-anchor="start" x="635.5" y="-436" font-family="Helvetica,sans-Serif" font-size="10.00">/Proyecto final/LAL Control</text>
<text text-anchor="start" x="635.5" y="-425" font-family="Helvetica,sans-Serif" font-size="10.00"> MbedOS/include/observer_pattern</text>
<text text-anchor="middle" x="710.5" y="-414" font-family="Helvetica,sans-Serif" font-size="10.00">/observers/Cooler_observer.h</text>
</a>
</g>
</g>
<!-- Node2&#45;&gt;Node13 -->
<g id="edge33" class="edge">
<title>Node2&#45;&gt;Node13</title>
<path fill="none" stroke="#63b8ff" d="M858.35,-583.75C845.12,-559.51 826.28,-529.07 804.5,-506 792.01,-492.77 776.52,-480.55 761.75,-470.28"/>
<polygon fill="#63b8ff" stroke="#63b8ff" points="855.16,-585.21 862.95,-592.39 861.33,-581.92 855.16,-585.21"/>
</g>
<!-- Node15 -->
<g id="node15" class="node">
<title>Node15</title>
<g id="a_node15"><a xlink:href="_instruction__observer_8h.html" target="_top" xlink:title="Observador de instrucciones.">
<polygon fill="white" stroke="#666666" points="1015.5,-470 849.5,-470 849.5,-407 1015.5,-407 1015.5,-470"/>
<text text-anchor="start" x="857.5" y="-458" font-family="Helvetica,sans-Serif" font-size="10.00">C:/Users/juanh/OneDrive</text>
<text text-anchor="start" x="857.5" y="-447" font-family="Helvetica,sans-Serif" font-size="10.00">/Escritorio/Sistemas Embebidos</text>
<text text-anchor="start" x="857.5" y="-436" font-family="Helvetica,sans-Serif" font-size="10.00">/Proyecto final/LAL Control</text>
<text text-anchor="start" x="857.5" y="-425" font-family="Helvetica,sans-Serif" font-size="10.00"> MbedOS/include/observer_pattern</text>
<text text-anchor="middle" x="932.5" y="-414" font-family="Helvetica,sans-Serif" font-size="10.00">/observers/Instruction_observer.h</text>
</a>
</g>
</g>
<!-- Node2&#45;&gt;Node15 -->
<g id="edge34" class="edge">
<title>Node2&#45;&gt;Node15</title>
<path fill="none" stroke="#63b8ff" d="M890.76,-582.5C900.73,-548.35 914.56,-500.96 923.52,-470.26"/>
<polygon fill="#63b8ff" stroke="#63b8ff" points="887.4,-581.5 887.96,-592.08 894.12,-583.46 887.4,-581.5"/>
</g>
<!-- Node17 -->
<g id="node17" class="node">
<title>Node17</title>
<g id="a_node17"><a xlink:href="_moisture__observer_8h.html" target="_top" xlink:title="Observador del sensor de temperatura.">
<polygon fill="white" stroke="#666666" points="1199.5,-470 1033.5,-470 1033.5,-407 1199.5,-407 1199.5,-470"/>
<text text-anchor="start" x="1041.5" y="-458" font-family="Helvetica,sans-Serif" font-size="10.00">C:/Users/juanh/OneDrive</text>
<text text-anchor="start" x="1041.5" y="-447" font-family="Helvetica,sans-Serif" font-size="10.00">/Escritorio/Sistemas Embebidos</text>
<text text-anchor="start" x="1041.5" y="-436" font-family="Helvetica,sans-Serif" font-size="10.00">/Proyecto final/LAL Control</text>
<text text-anchor="start" x="1041.5" y="-425" font-family="Helvetica,sans-Serif" font-size="10.00"> MbedOS/include/observer_pattern</text>
<text text-anchor="middle" x="1116.5" y="-414" font-family="Helvetica,sans-Serif" font-size="10.00">/observers/Moisture_observer.h</text>
</a>
</g>
</g>
<!-- Node2&#45;&gt;Node17 -->
<g id="edge35" class="edge">
<title>Node2&#45;&gt;Node17</title>
<path fill="none" stroke="#63b8ff" d="M927.17,-586.67C971.39,-552.3 1035.81,-502.22 1076.93,-470.26"/>
<polygon fill="#63b8ff" stroke="#63b8ff" points="925.28,-583.71 919.53,-592.61 929.57,-589.23 925.28,-583.71"/>
</g>
<!-- Node19 -->
<g id="node19" class="node">
<title>Node19</title>
<g id="a_node19"><a xlink:href="_temperature__observer_8h.html" target="_top" xlink:title="Observador del sensor de temperatura.">
<polygon fill="white" stroke="#666666" points="1385,-470 1218,-470 1218,-407 1385,-407 1385,-470"/>
<text text-anchor="start" x="1226" y="-458" font-family="Helvetica,sans-Serif" font-size="10.00">C:/Users/juanh/OneDrive</text>
<text text-anchor="start" x="1226" y="-447" font-family="Helvetica,sans-Serif" font-size="10.00">/Escritorio/Sistemas Embebidos</text>
<text text-anchor="start" x="1226" y="-436" font-family="Helvetica,sans-Serif" font-size="10.00">/Proyecto final/LAL Control</text>
<text text-anchor="start" x="1226" y="-425" font-family="Helvetica,sans-Serif" font-size="10.00"> MbedOS/include/observer_pattern</text>
<text text-anchor="middle" x="1301.5" y="-414" font-family="Helvetica,sans-Serif" font-size="10.00">/observers/Temperature_observer.h</text>
</a>
</g>
</g>
<!-- Node2&#45;&gt;Node19 -->
<g id="edge36" class="edge">
<title>Node2&#45;&gt;Node19</title>
<path fill="none" stroke="#63b8ff" d="M959.63,-589.02C1038.17,-554.67 1156.03,-503.12 1230.82,-470.41"/>
<polygon fill="#63b8ff" stroke="#63b8ff" points="958.45,-585.71 950.69,-592.93 961.25,-592.13 958.45,-585.71"/>
</g>
<!-- Node3&#45;&gt;Node2 -->
<g id="edge28" class="edge">
<title>Node3&#45;&gt;Node2</title>
<path fill="none" stroke="#63b8ff" d="M773.52,-563.83C791.53,-573.4 810.89,-583.94 828.05,-593.52"/>
<polygon fill="#63b8ff" stroke="#63b8ff" points="775.21,-560.76 764.73,-559.18 771.93,-566.95 775.21,-560.76"/>
</g>
<!-- Node4 -->
<g id="node4" class="node">
<title>Node4</title>
<g id="a_node4"><a xlink:href="_alarm__state_8h.html" target="_top" xlink:title="Clase de estado de control del motor.">
<polygon fill="white" stroke="#666666" points="570.5,-470 382.5,-470 382.5,-407 570.5,-407 570.5,-470"/>
<text text-anchor="start" x="390.5" y="-458" font-family="Helvetica,sans-Serif" font-size="10.00">C:/Users/juanh/OneDrive</text>
<text text-anchor="start" x="390.5" y="-447" font-family="Helvetica,sans-Serif" font-size="10.00">/Escritorio/Sistemas Embebidos</text>
<text text-anchor="start" x="390.5" y="-436" font-family="Helvetica,sans-Serif" font-size="10.00">/Proyecto final/LAL Control</text>
<text text-anchor="start" x="390.5" y="-425" font-family="Helvetica,sans-Serif" font-size="10.00"> MbedOS/include/machine_state</text>
<text text-anchor="middle" x="476.5" y="-414" font-family="Helvetica,sans-Serif" font-size="10.00">_pattern/machine_states/Alarm_state.h</text>
</a>
</g>
</g>
<!-- Node3&#45;&gt;Node4 -->
<g id="edge3" class="edge">
<title>Node3&#45;&gt;Node4</title>
<path fill="none" stroke="#63b8ff" d="M634.66,-501.34C609.32,-491.44 581.04,-480.38 555.47,-470.38"/>
<polygon fill="#63b8ff" stroke="#63b8ff" points="633.32,-504.58 643.91,-504.96 635.87,-498.06 633.32,-504.58"/>
</g>
<!-- Node5 -->
<g id="node5" class="node">
<title>Node5</title>
<g id="a_node5"><a xlink:href="_check__instruction__state_8h_source.html" target="_top" xlink:title=" ">
<polygon fill="white" stroke="#666666" points="678.5,-371 520.5,-371 520.5,-297 678.5,-297 678.5,-371"/>
<text text-anchor="start" x="528.5" y="-359" font-family="Helvetica,sans-Serif" font-size="10.00">C:/Users/juanh/OneDrive</text>
<text text-anchor="start" x="528.5" y="-348" font-family="Helvetica,sans-Serif" font-size="10.00">/Escritorio/Sistemas Embebidos</text>
<text text-anchor="start" x="528.5" y="-337" font-family="Helvetica,sans-Serif" font-size="10.00">/Proyecto final/LAL Control</text>
<text text-anchor="start" x="528.5" y="-326" font-family="Helvetica,sans-Serif" font-size="10.00"> MbedOS/include/machine_state</text>
<text text-anchor="start" x="528.5" y="-315" font-family="Helvetica,sans-Serif" font-size="10.00">_pattern/machine_states/Check</text>
<text text-anchor="middle" x="599.5" y="-304" font-family="Helvetica,sans-Serif" font-size="10.00">_instruction_state.h</text>
</a>
</g>
</g>
<!-- Node3&#45;&gt;Node5 -->
<g id="edge15" class="edge">
<title>Node3&#45;&gt;Node5</title>
<path fill="none" stroke="#63b8ff" d="M646.85,-499.27C635.87,-491.14 625.69,-481.4 618.5,-470 599.88,-440.47 596.41,-400.15 596.81,-371.28"/>
<polygon fill="#63b8ff" stroke="#63b8ff" points="644.75,-502.07 654.97,-504.86 648.72,-496.31 644.75,-502.07"/>
</g>
<!-- Node6 -->
<g id="node6" class="node">
<title>Node6</title>
<g id="a_node6"><a xlink:href="_idle__state_8h.html" target="_top" xlink:title="Clase de estado de reposo.">
<polygon fill="white" stroke="#666666" points="392,-261 215,-261 215,-198 392,-198 392,-261"/>
<text text-anchor="start" x="223" y="-249" font-family="Helvetica,sans-Serif" font-size="10.00">C:/Users/juanh/OneDrive</text>
<text text-anchor="start" x="223" y="-238" font-family="Helvetica,sans-Serif" font-size="10.00">/Escritorio/Sistemas Embebidos</text>
<text text-anchor="start" x="223" y="-227" font-family="Helvetica,sans-Serif" font-size="10.00">/Proyecto final/LAL Control</text>
<text text-anchor="start" x="223" y="-216" font-family="Helvetica,sans-Serif" font-size="10.00"> MbedOS/include/machine_state</text>
<text text-anchor="middle" x="303.5" y="-205" font-family="Helvetica,sans-Serif" font-size="10.00">_pattern/machine_states/Idle_state.h</text>
</a>
</g>
</g>
<!-- Node3&#45;&gt;Node6 -->
<g id="edge16" class="edge">
<title>Node3&#45;&gt;Node6</title>
<path fill="none" stroke="#63b8ff" d="M613.23,-522.11C527.98,-512.77 411.86,-495.8 373.5,-470 345.98,-451.49 353.47,-433.48 333.5,-407 320.61,-389.91 309.11,-391.01 301.5,-371 287.89,-335.2 291.72,-290.47 296.73,-261.22"/>
<polygon fill="#63b8ff" stroke="#63b8ff" points="612.69,-525.57 623.01,-523.16 613.44,-518.61 612.69,-525.57"/>
</g>
<!-- Node7 -->
<g id="node7" class="node">
<title>Node7</title>
<g id="a_node7"><a xlink:href="_shutdown__state_8h.html" target="_top" xlink:title="Clase de estado de apagado del sistema.">
<polygon fill="white" stroke="#666666" points="205,-162 0,-162 0,-99 205,-99 205,-162"/>
<text text-anchor="start" x="8" y="-150" font-family="Helvetica,sans-Serif" font-size="10.00">C:/Users/juanh/OneDrive</text>
<text text-anchor="start" x="8" y="-139" font-family="Helvetica,sans-Serif" font-size="10.00">/Escritorio/Sistemas Embebidos</text>
<text text-anchor="start" x="8" y="-128" font-family="Helvetica,sans-Serif" font-size="10.00">/Proyecto final/LAL Control</text>
<text text-anchor="start" x="8" y="-117" font-family="Helvetica,sans-Serif" font-size="10.00"> MbedOS/include/machine_state</text>
<text text-anchor="middle" x="102.5" y="-106" font-family="Helvetica,sans-Serif" font-size="10.00">_pattern/machine_states/Shutdown_state.h</text>
</a>
</g>
</g>
<!-- Node3&#45;&gt;Node7 -->
<g id="edge17" class="edge">
<title>Node3&#45;&gt;Node7</title>
<path fill="none" stroke="#63b8ff" d="M613.52,-527.68C455.03,-521.15 154.94,-504.2 121.5,-470 39.66,-386.32 67.9,-228.89 88.91,-162.39"/>
<polygon fill="#63b8ff" stroke="#63b8ff" points="613.03,-531.16 623.17,-528.07 613.32,-524.17 613.03,-531.16"/>
</g>
<!-- Node12 -->
<g id="node12" class="node">
<title>Node12</title>
<g id="a_node12"><a xlink:href="main_8h.html" target="_top" xlink:title="Archivo principal del programa.">
<polygon fill="white" stroke="#666666" points="1042,-360 885,-360 885,-308 1042,-308 1042,-360"/>
<text text-anchor="start" x="893" y="-348" font-family="Helvetica,sans-Serif" font-size="10.00">C:/Users/juanh/OneDrive</text>
<text text-anchor="start" x="893" y="-337" font-family="Helvetica,sans-Serif" font-size="10.00">/Escritorio/Sistemas Embebidos</text>
<text text-anchor="start" x="893" y="-326" font-family="Helvetica,sans-Serif" font-size="10.00">/Proyecto final/LAL Control</text>
<text text-anchor="middle" x="963.5" y="-315" font-family="Helvetica,sans-Serif" font-size="10.00"> MbedOS/include/main.h</text>
</a>
</g>
</g>
<!-- Node3&#45;&gt;Node12 -->
<g id="edge18" class="edge">
<title>Node3&#45;&gt;Node12</title>
<path fill="none" stroke="#63b8ff" d="M766.66,-499.48C779.29,-490.9 792.04,-480.92 802.5,-470 825.12,-446.39 817.23,-429.97 840.5,-407 859.61,-388.14 884.61,-372.34 907.09,-360.38"/>
<polygon fill="#63b8ff" stroke="#63b8ff" points="764.77,-496.53 758.32,-504.94 768.6,-502.39 764.77,-496.53"/>
</g>
<!-- Node3&#45;&gt;Node13 -->
<g id="edge19" class="edge">
<title>Node3&#45;&gt;Node13</title>
<path fill="none" stroke="#63b8ff" d="M710.5,-494.01C710.5,-486.17 710.5,-477.97 710.5,-470.38"/>
<polygon fill="#63b8ff" stroke="#63b8ff" points="707,-494 710.5,-504 714,-494 707,-494"/>
</g>
<!-- Node3&#45;&gt;Node15 -->
<g id="edge22" class="edge">
<title>Node3&#45;&gt;Node15</title>
<path fill="none" stroke="#63b8ff" d="M782.78,-501.21C806.73,-491.34 833.43,-480.33 857.58,-470.38"/>
<polygon fill="#63b8ff" stroke="#63b8ff" points="781.65,-497.89 773.74,-504.94 784.32,-504.36 781.65,-497.89"/>
</g>
<!-- Node3&#45;&gt;Node17 -->
<g id="edge25" class="edge">
<title>Node3&#45;&gt;Node17</title>
<path fill="none" stroke="#63b8ff" d="M807.48,-515.47C869.91,-504.66 952.53,-488.84 1024.5,-470 1027.43,-469.23 1030.4,-468.42 1033.4,-467.58"/>
<polygon fill="#63b8ff" stroke="#63b8ff" points="807.22,-511.96 797.95,-517.11 808.4,-518.86 807.22,-511.96"/>
</g>
<!-- Node3&#45;&gt;Node19 -->
<g id="edge29" class="edge">
<title>Node3&#45;&gt;Node19</title>
<path fill="none" stroke="#63b8ff" d="M807.8,-524.72C908.89,-516.89 1071.18,-500.62 1208.5,-470 1211.49,-469.33 1214.51,-468.61 1217.56,-467.84"/>
<polygon fill="#63b8ff" stroke="#63b8ff" points="807.61,-521.22 797.9,-525.47 808.14,-528.2 807.61,-521.22"/>
</g>
<!-- Node21 -->
<g id="node21" class="node">
<title>Node21</title>
<g id="a_node21"><a xlink:href="_control__system_8cpp.html" target="_top" xlink:title="Implementación de Control_system.h.">
<polygon fill="white" stroke="#666666" points="325,-464.5 140,-464.5 140,-412.5 325,-412.5 325,-464.5"/>
<text text-anchor="start" x="148" y="-452.5" font-family="Helvetica,sans-Serif" font-size="10.00">C:/Users/juanh/OneDrive</text>
<text text-anchor="start" x="148" y="-441.5" font-family="Helvetica,sans-Serif" font-size="10.00">/Escritorio/Sistemas Embebidos</text>
<text text-anchor="start" x="148" y="-430.5" font-family="Helvetica,sans-Serif" font-size="10.00">/Proyecto final/LAL Control</text>
<text text-anchor="middle" x="232.5" y="-419.5" font-family="Helvetica,sans-Serif" font-size="10.00"> MbedOS/src/Port/Control_system.cpp</text>
</a>
</g>
</g>
<!-- Node3&#45;&gt;Node21 -->
<g id="edge32" class="edge">
<title>Node3&#45;&gt;Node21</title>
<path fill="none" stroke="#63b8ff" d="M613.54,-518.17C538.35,-507.46 431.74,-490.66 339.5,-470 332.71,-468.48 325.72,-466.78 318.71,-464.99"/>
<polygon fill="#63b8ff" stroke="#63b8ff" points="612.98,-521.62 623.37,-519.55 613.96,-514.69 612.98,-521.62"/>
</g>
<!-- Node4&#45;&gt;Node5 -->
<g id="edge4" class="edge">
<title>Node4&#45;&gt;Node5</title>
<path fill="none" stroke="#63b8ff" d="M515.59,-399.47C526.41,-390.21 538.3,-380.32 549.64,-371.14"/>
<polygon fill="#63b8ff" stroke="#63b8ff" points="513.59,-396.57 508.3,-405.76 518.16,-401.87 513.59,-396.57"/>
</g>
<!-- Node4&#45;&gt;Node6 -->
<g id="edge13" class="edge">
<title>Node4&#45;&gt;Node6</title>
<path fill="none" stroke="#63b8ff" d="M371.78,-409.06C352.96,-399.62 335.31,-387.21 322.5,-371 297.75,-339.68 293.03,-292.41 295.17,-261.49"/>
<polygon fill="#63b8ff" stroke="#63b8ff" points="370.1,-412.14 380.64,-413.23 373.08,-405.81 370.1,-412.14"/>
</g>
<!-- Node11 -->
<g id="node11" class="node">
<title>Node11</title>
<g id="a_node11"><a xlink:href="_alarm_8cpp.html" target="_top" xlink:title="Implementación de Alarm_state.h.">
<polygon fill="white" stroke="#666666" points="502.5,-365.5 340.5,-365.5 340.5,-302.5 502.5,-302.5 502.5,-365.5"/>
<text text-anchor="start" x="348.5" y="-353.5" font-family="Helvetica,sans-Serif" font-size="10.00">C:/Users/juanh/OneDrive</text>
<text text-anchor="start" x="348.5" y="-342.5" font-family="Helvetica,sans-Serif" font-size="10.00">/Escritorio/Sistemas Embebidos</text>
<text text-anchor="start" x="348.5" y="-331.5" font-family="Helvetica,sans-Serif" font-size="10.00">/Proyecto final/LAL Control</text>
<text text-anchor="start" x="348.5" y="-320.5" font-family="Helvetica,sans-Serif" font-size="10.00"> MbedOS/src/Port/machine_state</text>
<text text-anchor="middle" x="421.5" y="-309.5" font-family="Helvetica,sans-Serif" font-size="10.00">_pattern/Alarm.cpp</text>
</a>
</g>
</g>
<!-- Node4&#45;&gt;Node11 -->
<g id="edge14" class="edge">
<title>Node4&#45;&gt;Node11</title>
<path fill="none" stroke="#63b8ff" d="M454.6,-396.69C449.06,-386.37 443.21,-375.46 437.99,-365.73"/>
<polygon fill="#63b8ff" stroke="#63b8ff" points="451.47,-398.26 459.28,-405.41 457.64,-394.95 451.47,-398.26"/>
</g>
<!-- Node5&#45;&gt;Node4 -->
<g id="edge5" class="edge">
<title>Node5&#45;&gt;Node4</title>
<path fill="none" stroke="#63b8ff" d="M554.16,-378.35C542.88,-387.9 530.83,-397.82 519.65,-406.75"/>
<polygon fill="#63b8ff" stroke="#63b8ff" points="556.12,-381.28 561.46,-372.13 551.58,-375.95 556.12,-381.28"/>
</g>
<!-- Node5&#45;&gt;Node6 -->
<g id="edge6" class="edge">
<title>Node5&#45;&gt;Node6</title>
<path fill="none" stroke="#63b8ff" d="M509.91,-296.5C466.35,-280.82 426.64,-267.93 392.33,-257.21"/>
<polygon fill="#63b8ff" stroke="#63b8ff" points="508.44,-299.69 519.04,-299.81 510.83,-293.11 508.44,-299.69"/>
</g>
<!-- Node10 -->
<g id="node10" class="node">
<title>Node10</title>
<g id="a_node10"><a xlink:href="_check__instruction__state_8cpp.html" target="_top" xlink:title="Implementación de Check_instruction_state.h.">
<polygon fill="white" stroke="#666666" points="689,-261 510,-261 510,-198 689,-198 689,-261"/>
<text text-anchor="start" x="518" y="-249" font-family="Helvetica,sans-Serif" font-size="10.00">C:/Users/juanh/OneDrive</text>
<text text-anchor="start" x="518" y="-238" font-family="Helvetica,sans-Serif" font-size="10.00">/Escritorio/Sistemas Embebidos</text>
<text text-anchor="start" x="518" y="-227" font-family="Helvetica,sans-Serif" font-size="10.00">/Proyecto final/LAL Control</text>
<text text-anchor="start" x="518" y="-216" font-family="Helvetica,sans-Serif" font-size="10.00"> MbedOS/src/Port/machine_state</text>
<text text-anchor="middle" x="599.5" y="-205" font-family="Helvetica,sans-Serif" font-size="10.00">_pattern/Check_instruction_state.cpp</text>
</a>
</g>
</g>
<!-- Node5&#45;&gt;Node10 -->
<g id="edge12" class="edge">
<title>Node5&#45;&gt;Node10</title>
<path fill="none" stroke="#63b8ff" d="M599.5,-285.26C599.5,-277.15 599.5,-268.92 599.5,-261.38"/>
<polygon fill="#63b8ff" stroke="#63b8ff" points="596,-285.06 599.5,-295.06 603,-285.06 596,-285.06"/>
</g>
<!-- Node6&#45;&gt;Node4 -->
<g id="edge7" class="edge">
<title>Node6&#45;&gt;Node4</title>
<path fill="none" stroke="#63b8ff" d="M309.63,-272.58C312.35,-302.91 318.55,-343.23 340.5,-371 352.26,-385.88 368.11,-397.56 384.85,-406.69"/>
<polygon fill="#63b8ff" stroke="#63b8ff" points="313.15,-272.69 308.85,-263 306.17,-273.25 313.15,-272.69"/>
</g>
<!-- Node6&#45;&gt;Node7 -->
<g id="edge8" class="edge">
<title>Node6&#45;&gt;Node7</title>
<path fill="none" stroke="#63b8ff" d="M229.12,-192.6C208.63,-182.72 186.59,-172.08 166.73,-162.5"/>
<polygon fill="#63b8ff" stroke="#63b8ff" points="227.46,-195.69 237.99,-196.88 230.5,-189.39 227.46,-195.69"/>
</g>
<!-- Node9 -->
<g id="node9" class="node">
<title>Node9</title>
<g id="a_node9"><a xlink:href="_idle__state_8cpp.html" target="_top" xlink:title="Implementación de Idle_state.h.">
<polygon fill="white" stroke="#666666" points="385.5,-162 223.5,-162 223.5,-99 385.5,-99 385.5,-162"/>
<text text-anchor="start" x="231.5" y="-150" font-family="Helvetica,sans-Serif" font-size="10.00">C:/Users/juanh/OneDrive</text>
<text text-anchor="start" x="231.5" y="-139" font-family="Helvetica,sans-Serif" font-size="10.00">/Escritorio/Sistemas Embebidos</text>
<text text-anchor="start" x="231.5" y="-128" font-family="Helvetica,sans-Serif" font-size="10.00">/Proyecto final/LAL Control</text>
<text text-anchor="start" x="231.5" y="-117" font-family="Helvetica,sans-Serif" font-size="10.00"> MbedOS/src/Port/machine_state</text>
<text text-anchor="middle" x="304.5" y="-106" font-family="Helvetica,sans-Serif" font-size="10.00">_pattern/Idle_state.cpp</text>
</a>
</g>
</g>
<!-- Node6&#45;&gt;Node9 -->
<g id="edge11" class="edge">
<title>Node6&#45;&gt;Node9</title>
<path fill="none" stroke="#63b8ff" d="M303.94,-186.15C304.02,-178.2 304.1,-170.02 304.18,-162.5"/>
<polygon fill="#63b8ff" stroke="#63b8ff" points="300.44,-185.99 303.83,-196.03 307.44,-186.07 300.44,-185.99"/>
</g>
<!-- Node7&#45;&gt;Node3 -->
<g id="edge9" class="edge">
<title>Node7&#45;&gt;Node3</title>
<path fill="none" stroke="#63b8ff" d="M96.41,-173.65C83.23,-245.29 61.97,-390.73 139.5,-470 172.97,-504.23 473.54,-521.17 624.66,-527.69"/>
<polygon fill="#63b8ff" stroke="#63b8ff" points="99.84,-174.36 98.24,-163.88 92.96,-173.07 99.84,-174.36"/>
</g>
<!-- Node8 -->
<g id="node8" class="node">
<title>Node8</title>
<g id="a_node8"><a xlink:href="_shutdown__state_8cpp.html" target="_top" xlink:title="Implementación de Shutdown_state.h.">
<polygon fill="white" stroke="#666666" points="183.5,-63 21.5,-63 21.5,0 183.5,0 183.5,-63"/>
<text text-anchor="start" x="29.5" y="-51" font-family="Helvetica,sans-Serif" font-size="10.00">C:/Users/juanh/OneDrive</text>
<text text-anchor="start" x="29.5" y="-40" font-family="Helvetica,sans-Serif" font-size="10.00">/Escritorio/Sistemas Embebidos</text>
<text text-anchor="start" x="29.5" y="-29" font-family="Helvetica,sans-Serif" font-size="10.00">/Proyecto final/LAL Control</text>
<text text-anchor="start" x="29.5" y="-18" font-family="Helvetica,sans-Serif" font-size="10.00"> MbedOS/src/Port/machine_state</text>
<text text-anchor="middle" x="102.5" y="-7" font-family="Helvetica,sans-Serif" font-size="10.00">_pattern/Shutdown_state.cpp</text>
</a>
</g>
</g>
<!-- Node7&#45;&gt;Node8 -->
<g id="edge10" class="edge">
<title>Node7&#45;&gt;Node8</title>
<path fill="none" stroke="#63b8ff" d="M102.5,-87.15C102.5,-79.2 102.5,-71.02 102.5,-63.5"/>
<polygon fill="#63b8ff" stroke="#63b8ff" points="99,-87.03 102.5,-97.03 106,-87.03 99,-87.03"/>
</g>
<!-- Node13&#45;&gt;Node12 -->
<g id="edge20" class="edge">
<title>Node13&#45;&gt;Node12</title>
<path fill="none" stroke="#63b8ff" d="M797.93,-402.36C822.99,-392.26 850.34,-381.22 875.5,-371 883.91,-367.58 892.77,-363.97 901.5,-360.41"/>
<polygon fill="#63b8ff" stroke="#63b8ff" points="796.72,-399.08 788.75,-406.06 799.33,-405.57 796.72,-399.08"/>
</g>
<!-- Node14 -->
<g id="node14" class="node">
<title>Node14</title>
<g id="a_node14"><a xlink:href="_cooler__observer_8cpp.html" target="_top" xlink:title="Implementación de Cooler_observer.h.">
<polygon fill="white" stroke="#666666" points="866.5,-365.5 696.5,-365.5 696.5,-302.5 866.5,-302.5 866.5,-365.5"/>
<text text-anchor="start" x="704.5" y="-353.5" font-family="Helvetica,sans-Serif" font-size="10.00">C:/Users/juanh/OneDrive</text>
<text text-anchor="start" x="704.5" y="-342.5" font-family="Helvetica,sans-Serif" font-size="10.00">/Escritorio/Sistemas Embebidos</text>
<text text-anchor="start" x="704.5" y="-331.5" font-family="Helvetica,sans-Serif" font-size="10.00">/Proyecto final/LAL Control</text>
<text text-anchor="start" x="704.5" y="-320.5" font-family="Helvetica,sans-Serif" font-size="10.00"> MbedOS/src/Port/observer_pattern</text>
<text text-anchor="middle" x="781.5" y="-309.5" font-family="Helvetica,sans-Serif" font-size="10.00">/Cooler_observer.cpp</text>
</a>
</g>
</g>
<!-- Node13&#45;&gt;Node14 -->
<g id="edge21" class="edge">
<title>Node13&#45;&gt;Node14</title>
<path fill="none" stroke="#63b8ff" d="M738.32,-397.33C745.6,-386.82 753.33,-375.66 760.21,-365.73"/>
<polygon fill="#63b8ff" stroke="#63b8ff" points="735.48,-395.29 732.66,-405.5 741.24,-399.27 735.48,-395.29"/>
</g>
<!-- Node15&#45;&gt;Node12 -->
<g id="edge23" class="edge">
<title>Node15&#45;&gt;Node12</title>
<path fill="none" stroke="#63b8ff" d="M945.07,-395.93C948.73,-383.83 952.62,-370.98 955.87,-360.22"/>
<polygon fill="#63b8ff" stroke="#63b8ff" points="941.78,-394.71 942.24,-405.3 948.48,-396.74 941.78,-394.71"/>
</g>
<!-- Node16 -->
<g id="node16" class="node">
<title>Node16</title>
<g id="a_node16"><a xlink:href="_instruction__observer_8cpp.html" target="_top" xlink:title="Implementación de Instruction_observer.h.">
<polygon fill="white" stroke="#666666" points="1230.5,-365.5 1060.5,-365.5 1060.5,-302.5 1230.5,-302.5 1230.5,-365.5"/>
<text text-anchor="start" x="1068.5" y="-353.5" font-family="Helvetica,sans-Serif" font-size="10.00">C:/Users/juanh/OneDrive</text>
<text text-anchor="start" x="1068.5" y="-342.5" font-family="Helvetica,sans-Serif" font-size="10.00">/Escritorio/Sistemas Embebidos</text>
<text text-anchor="start" x="1068.5" y="-331.5" font-family="Helvetica,sans-Serif" font-size="10.00">/Proyecto final/LAL Control</text>
<text text-anchor="start" x="1068.5" y="-320.5" font-family="Helvetica,sans-Serif" font-size="10.00"> MbedOS/src/Port/observer_pattern</text>
<text text-anchor="middle" x="1145.5" y="-309.5" font-family="Helvetica,sans-Serif" font-size="10.00">/Instruction_observer.cpp</text>
</a>
</g>
</g>
<!-- Node15&#45;&gt;Node16 -->
<g id="edge24" class="edge">
<title>Node15&#45;&gt;Node16</title>
<path fill="none" stroke="#63b8ff" d="M1006.94,-401.68C1031.23,-389.99 1057.98,-377.12 1081.44,-365.83"/>
<polygon fill="#63b8ff" stroke="#63b8ff" points="1005.55,-398.46 998.06,-405.95 1008.59,-404.77 1005.55,-398.46"/>
</g>
<!-- Node17&#45;&gt;Node12 -->
<g id="edge26" class="edge">
<title>Node17&#45;&gt;Node12</title>
<path fill="none" stroke="#63b8ff" d="M1061.06,-400.36C1041.24,-387.08 1019.39,-372.44 1001.39,-360.39"/>
<polygon fill="#63b8ff" stroke="#63b8ff" points="1059.08,-403.25 1069.34,-405.9 1062.98,-397.43 1059.08,-403.25"/>
</g>
<!-- Node18 -->
<g id="node18" class="node">
<title>Node18</title>
<g id="a_node18"><a xlink:href="_moisture__observer_8cpp.html" target="_top" xlink:title="Implementación de Moisture_observer.h.">
<polygon fill="white" stroke="#666666" points="1418.5,-365.5 1248.5,-365.5 1248.5,-302.5 1418.5,-302.5 1418.5,-365.5"/>
<text text-anchor="start" x="1256.5" y="-353.5" font-family="Helvetica,sans-Serif" font-size="10.00">C:/Users/juanh/OneDrive</text>
<text text-anchor="start" x="1256.5" y="-342.5" font-family="Helvetica,sans-Serif" font-size="10.00">/Escritorio/Sistemas Embebidos</text>
<text text-anchor="start" x="1256.5" y="-331.5" font-family="Helvetica,sans-Serif" font-size="10.00">/Proyecto final/LAL Control</text>
<text text-anchor="start" x="1256.5" y="-320.5" font-family="Helvetica,sans-Serif" font-size="10.00"> MbedOS/src/Port/observer_pattern</text>
<text text-anchor="middle" x="1333.5" y="-309.5" font-family="Helvetica,sans-Serif" font-size="10.00">/Moisture_observer.cpp</text>
</a>
</g>
</g>
<!-- Node17&#45;&gt;Node18 -->
<g id="edge27" class="edge">
<title>Node17&#45;&gt;Node18</title>
<path fill="none" stroke="#63b8ff" d="M1192.01,-401.83C1216.84,-390.1 1244.22,-377.17 1268.23,-365.83"/>
<polygon fill="#63b8ff" stroke="#63b8ff" points="1190.82,-398.53 1183.27,-405.96 1193.81,-404.85 1190.82,-398.53"/>
</g>
<!-- Node19&#45;&gt;Node12 -->
<g id="edge30" class="edge">
<title>Node19&#45;&gt;Node12</title>
<path fill="none" stroke="#63b8ff" d="M1206.66,-406.62C1137.48,-388.23 1116.41,-391.57 1051.5,-371 1041.74,-367.91 1031.55,-364.2 1021.71,-360.36"/>
<polygon fill="#63b8ff" stroke="#63b8ff" points="1205.68,-409.98 1216.25,-409.23 1207.52,-403.23 1205.68,-409.98"/>
</g>
<!-- Node20 -->
<g id="node20" class="node">
<title>Node20</title>
<g id="a_node20"><a xlink:href="_temperature__observer_8cpp.html" target="_top" xlink:title="Implementación de Temperature_observer.h.">
<polygon fill="white" stroke="#666666" points="1606.5,-365.5 1436.5,-365.5 1436.5,-302.5 1606.5,-302.5 1606.5,-365.5"/>
<text text-anchor="start" x="1444.5" y="-353.5" font-family="Helvetica,sans-Serif" font-size="10.00">C:/Users/juanh/OneDrive</text>
<text text-anchor="start" x="1444.5" y="-342.5" font-family="Helvetica,sans-Serif" font-size="10.00">/Escritorio/Sistemas Embebidos</text>
<text text-anchor="start" x="1444.5" y="-331.5" font-family="Helvetica,sans-Serif" font-size="10.00">/Proyecto final/LAL Control</text>
<text text-anchor="start" x="1444.5" y="-320.5" font-family="Helvetica,sans-Serif" font-size="10.00"> MbedOS/src/Port/observer_pattern</text>
<text text-anchor="middle" x="1521.5" y="-309.5" font-family="Helvetica,sans-Serif" font-size="10.00">/Temperature_observer.cpp</text>
</a>
</g>
</g>
<!-- Node19&#45;&gt;Node20 -->
<g id="edge31" class="edge">
<title>Node19&#45;&gt;Node20</title>
<path fill="none" stroke="#63b8ff" d="M1378.05,-401.83C1403.23,-390.1 1430.99,-377.17 1455.33,-365.83"/>
<polygon fill="#63b8ff" stroke="#63b8ff" points="1376.76,-398.57 1369.18,-405.97 1379.72,-404.92 1376.76,-398.57"/>
</g>
</g>
</svg>
