<?xml version="1.0" encoding="UTF-8" standalone="no"?>
<!DOCTYPE svg PUBLIC "-//W3C//DTD SVG 1.1//EN"
 "http://www.w3.org/Graphics/SVG/1.1/DTD/svg11.dtd">
<!-- Generated by graphviz version 7.0.2 (20221119.0110)
 -->
<!-- Title: C:/Users/juanh/OneDrive/Escritorio/Facultad/Beca/Proyecto/LAL Control Arduino/include/observer_pattern/observers/Observer.h Pages: 1 -->
<svg width="1050pt" height="555pt"
 viewBox="0.00 0.00 1049.50 555.00" xmlns="http://www.w3.org/2000/svg" xmlns:xlink="http://www.w3.org/1999/xlink">
<g id="graph0" class="graph" transform="scale(1 1) rotate(0) translate(4 551)">
<title>C:/Users/juanh/OneDrive/Escritorio/Facultad/Beca/Proyecto/LAL Control Arduino/include/observer_pattern/observers/Observer.h</title>
<!-- Node1 -->
<g id="node1" class="node">
<title>Node1</title>
<g id="a_node1"><a xlink:title="Clase observador.">
<polygon fill="#999999" stroke="#666666" points="667.5,-547 498.5,-547 498.5,-484 667.5,-484 667.5,-547"/>
<text text-anchor="start" x="506.5" y="-535" font-family="Helvetica,sans-Serif" font-size="10.00">C:/Users/juanh/OneDrive</text>
<text text-anchor="start" x="506.5" y="-524" font-family="Helvetica,sans-Serif" font-size="10.00">/Escritorio/Facultad/Beca</text>
<text text-anchor="start" x="506.5" y="-513" font-family="Helvetica,sans-Serif" font-size="10.00">/Proyecto/LAL Control Arduino</text>
<text text-anchor="start" x="506.5" y="-502" font-family="Helvetica,sans-Serif" font-size="10.00">/include/observer_pattern/observers</text>
<text text-anchor="middle" x="583" y="-491" font-family="Helvetica,sans-Serif" font-size="10.00">/Observer.h</text>
</a>
</g>
</g>
<!-- Node2 -->
<g id="node2" class="node">
<title>Node2</title>
<g id="a_node2"><a xlink:href="_system__observer_8h.html" target="_top" xlink:title="Clase observador del sistema de control.">
<polygon fill="white" stroke="#666666" points="667.5,-448 498.5,-448 498.5,-385 667.5,-385 667.5,-448"/>
<text text-anchor="start" x="506.5" y="-436" font-family="Helvetica,sans-Serif" font-size="10.00">C:/Users/juanh/OneDrive</text>
<text text-anchor="start" x="506.5" y="-425" font-family="Helvetica,sans-Serif" font-size="10.00">/Escritorio/Facultad/Beca</text>
<text text-anchor="start" x="506.5" y="-414" font-family="Helvetica,sans-Serif" font-size="10.00">/Proyecto/LAL Control Arduino</text>
<text text-anchor="start" x="506.5" y="-403" font-family="Helvetica,sans-Serif" font-size="10.00">/include/observer_pattern/observers</text>
<text text-anchor="middle" x="583" y="-392" font-family="Helvetica,sans-Serif" font-size="10.00">/System_observer.h</text>
</a>
</g>
</g>
<!-- Node1&#45;&gt;Node2 -->
<g id="edge1" class="edge">
<title>Node1&#45;&gt;Node2</title>
<path fill="none" stroke="#63b8ff" d="M583,-472.15C583,-464.2 583,-456.02 583,-448.5"/>
<polygon fill="#63b8ff" stroke="#63b8ff" points="579.5,-472.03 583,-482.03 586.5,-472.03 579.5,-472.03"/>
</g>
<!-- Node3 -->
<g id="node3" class="node">
<title>Node3</title>
<g id="a_node3"><a xlink:href="_control__system_8h.html" target="_top" xlink:title="Clase para el sistema de control.">
<polygon fill="white" stroke="#666666" points="525.5,-349 376.5,-349 376.5,-297 525.5,-297 525.5,-349"/>
<text text-anchor="start" x="384.5" y="-337" font-family="Helvetica,sans-Serif" font-size="10.00">C:/Users/juanh/OneDrive</text>
<text text-anchor="start" x="384.5" y="-326" font-family="Helvetica,sans-Serif" font-size="10.00">/Escritorio/Facultad/Beca</text>
<text text-anchor="start" x="384.5" y="-315" font-family="Helvetica,sans-Serif" font-size="10.00">/Proyecto/LAL Control Arduino</text>
<text text-anchor="middle" x="451" y="-304" font-family="Helvetica,sans-Serif" font-size="10.00">/include/Control_system.h</text>
</a>
</g>
</g>
<!-- Node2&#45;&gt;Node3 -->
<g id="edge2" class="edge">
<title>Node2&#45;&gt;Node3</title>
<path fill="none" stroke="#63b8ff" d="M522.63,-378.26C508.43,-368.59 493.89,-358.39 481.63,-349.47"/>
<polygon fill="#63b8ff" stroke="#63b8ff" points="520.39,-380.97 530.63,-383.67 524.31,-375.17 520.39,-380.97"/>
</g>
<!-- Node9 -->
<g id="node9" class="node">
<title>Node9</title>
<g id="a_node9"><a xlink:href="_cooler__observer_8h_source.html" target="_top" xlink:title=" ">
<polygon fill="white" stroke="#666666" points="667.5,-261 498.5,-261 498.5,-198 667.5,-198 667.5,-261"/>
<text text-anchor="start" x="506.5" y="-249" font-family="Helvetica,sans-Serif" font-size="10.00">C:/Users/juanh/OneDrive</text>
<text text-anchor="start" x="506.5" y="-238" font-family="Helvetica,sans-Serif" font-size="10.00">/Escritorio/Facultad/Beca</text>
<text text-anchor="start" x="506.5" y="-227" font-family="Helvetica,sans-Serif" font-size="10.00">/Proyecto/LAL Control Arduino</text>
<text text-anchor="start" x="506.5" y="-216" font-family="Helvetica,sans-Serif" font-size="10.00">/include/observer_pattern/observers</text>
<text text-anchor="middle" x="583" y="-205" font-family="Helvetica,sans-Serif" font-size="10.00">/Cooler_observer.h</text>
</a>
</g>
</g>
<!-- Node2&#45;&gt;Node9 -->
<g id="edge21" class="edge">
<title>Node2&#45;&gt;Node9</title>
<path fill="none" stroke="#63b8ff" d="M583,-373.06C583,-338.94 583,-291.82 583,-261.26"/>
<polygon fill="#63b8ff" stroke="#63b8ff" points="579.5,-373.02 583,-383.02 586.5,-373.02 579.5,-373.02"/>
</g>
<!-- Node10 -->
<g id="node10" class="node">
<title>Node10</title>
<g id="a_node10"><a xlink:href="_moisture__observer_8h.html" target="_top" xlink:title="Observador del sensor de temperatura.">
<polygon fill="white" stroke="#666666" points="854.5,-261 685.5,-261 685.5,-198 854.5,-198 854.5,-261"/>
<text text-anchor="start" x="693.5" y="-249" font-family="Helvetica,sans-Serif" font-size="10.00">C:/Users/juanh/OneDrive</text>
<text text-anchor="start" x="693.5" y="-238" font-family="Helvetica,sans-Serif" font-size="10.00">/Escritorio/Facultad/Beca</text>
<text text-anchor="start" x="693.5" y="-227" font-family="Helvetica,sans-Serif" font-size="10.00">/Proyecto/LAL Control Arduino</text>
<text text-anchor="start" x="693.5" y="-216" font-family="Helvetica,sans-Serif" font-size="10.00">/include/observer_pattern/observers</text>
<text text-anchor="middle" x="770" y="-205" font-family="Helvetica,sans-Serif" font-size="10.00">/Moisture_observer.h</text>
</a>
</g>
</g>
<!-- Node2&#45;&gt;Node10 -->
<g id="edge22" class="edge">
<title>Node2&#45;&gt;Node10</title>
<path fill="none" stroke="#63b8ff" d="M622.34,-376.58C657.04,-342.25 706.93,-292.89 738.91,-261.26"/>
<polygon fill="#63b8ff" stroke="#63b8ff" points="620.02,-373.95 615.38,-383.47 624.95,-378.93 620.02,-373.95"/>
</g>
<!-- Node11 -->
<g id="node11" class="node">
<title>Node11</title>
<g id="a_node11"><a xlink:href="_temperature__observer_8h.html" target="_top" xlink:title="Observador del sensor de temperatura.">
<polygon fill="white" stroke="#666666" points="1041.5,-261 872.5,-261 872.5,-198 1041.5,-198 1041.5,-261"/>
<text text-anchor="start" x="880.5" y="-249" font-family="Helvetica,sans-Serif" font-size="10.00">C:/Users/juanh/OneDrive</text>
<text text-anchor="start" x="880.5" y="-238" font-family="Helvetica,sans-Serif" font-size="10.00">/Escritorio/Facultad/Beca</text>
<text text-anchor="start" x="880.5" y="-227" font-family="Helvetica,sans-Serif" font-size="10.00">/Proyecto/LAL Control Arduino</text>
<text text-anchor="start" x="880.5" y="-216" font-family="Helvetica,sans-Serif" font-size="10.00">/include/observer_pattern/observers</text>
<text text-anchor="middle" x="957" y="-205" font-family="Helvetica,sans-Serif" font-size="10.00">/Temperature_observer.h</text>
</a>
</g>
</g>
<!-- Node2&#45;&gt;Node11 -->
<g id="edge23" class="edge">
<title>Node2&#45;&gt;Node11</title>
<path fill="none" stroke="#63b8ff" d="M655.59,-379.59C725.03,-345.25 828.65,-293.99 894.51,-261.41"/>
<polygon fill="#63b8ff" stroke="#63b8ff" points="654.37,-376.29 646.96,-383.86 657.47,-382.57 654.37,-376.29"/>
</g>
<!-- Node3&#45;&gt;Node2 -->
<g id="edge18" class="edge">
<title>Node3&#45;&gt;Node2</title>
<path fill="none" stroke="#63b8ff" d="M503.29,-355.76C517.12,-365.08 531.79,-375.25 544.74,-384.52"/>
<polygon fill="#63b8ff" stroke="#63b8ff" points="505.39,-352.96 495.13,-350.31 501.5,-358.78 505.39,-352.96"/>
</g>
<!-- Node4 -->
<g id="node4" class="node">
<title>Node4</title>
<g id="a_node4"><a xlink:href="_alarm__state_8h.html" target="_top" xlink:title="Clase de estado de control del motor.">
<polygon fill="white" stroke="#666666" points="404,-261 252,-261 252,-198 404,-198 404,-261"/>
<text text-anchor="start" x="260" y="-249" font-family="Helvetica,sans-Serif" font-size="10.00">C:/Users/juanh/OneDrive</text>
<text text-anchor="start" x="260" y="-238" font-family="Helvetica,sans-Serif" font-size="10.00">/Escritorio/Facultad/Beca</text>
<text text-anchor="start" x="260" y="-227" font-family="Helvetica,sans-Serif" font-size="10.00">/Proyecto/LAL Control Arduino</text>
<text text-anchor="start" x="260" y="-216" font-family="Helvetica,sans-Serif" font-size="10.00">/include/machine_state_pattern</text>
<text text-anchor="middle" x="328" y="-205" font-family="Helvetica,sans-Serif" font-size="10.00">/machine_states/Alarm_state.h</text>
</a>
</g>
</g>
<!-- Node3&#45;&gt;Node4 -->
<g id="edge3" class="edge">
<title>Node3&#45;&gt;Node4</title>
<path fill="none" stroke="#63b8ff" d="M407.53,-289.66C395.17,-280.47 381.75,-270.48 369.51,-261.38"/>
<polygon fill="#63b8ff" stroke="#63b8ff" points="405.41,-292.45 415.52,-295.61 409.59,-286.83 405.41,-292.45"/>
</g>
<!-- Node5 -->
<g id="node5" class="node">
<title>Node5</title>
<g id="a_node5"><a xlink:href="_check__instruction__state_8h_source.html" target="_top" xlink:title=" ">
<polygon fill="white" stroke="#666666" points="327.5,-162 122.5,-162 122.5,-99 327.5,-99 327.5,-162"/>
<text text-anchor="start" x="130.5" y="-150" font-family="Helvetica,sans-Serif" font-size="10.00">C:/Users/juanh/OneDrive</text>
<text text-anchor="start" x="130.5" y="-139" font-family="Helvetica,sans-Serif" font-size="10.00">/Escritorio/Facultad/Beca</text>
<text text-anchor="start" x="130.5" y="-128" font-family="Helvetica,sans-Serif" font-size="10.00">/Proyecto/LAL Control Arduino</text>
<text text-anchor="start" x="130.5" y="-117" font-family="Helvetica,sans-Serif" font-size="10.00">/include/machine_state_pattern</text>
<text text-anchor="middle" x="225" y="-106" font-family="Helvetica,sans-Serif" font-size="10.00">/machine_states/Check_instruction_state.h</text>
</a>
</g>
</g>
<!-- Node3&#45;&gt;Node5 -->
<g id="edge10" class="edge">
<title>Node3&#45;&gt;Node5</title>
<path fill="none" stroke="#63b8ff" d="M364.87,-319.14C319.12,-313.2 265.96,-298.05 234,-261 210.65,-233.93 209.22,-191.15 213.67,-162.24"/>
<polygon fill="#63b8ff" stroke="#63b8ff" points="364.18,-322.58 374.52,-320.25 364.98,-315.63 364.18,-322.58"/>
</g>
<!-- Node6 -->
<g id="node6" class="node">
<title>Node6</title>
<g id="a_node6"><a xlink:href="_idle__state_8h.html" target="_top" xlink:title="Clase de estado de reposo.">
<polygon fill="white" stroke="#666666" points="498,-162 346,-162 346,-99 498,-99 498,-162"/>
<text text-anchor="start" x="354" y="-150" font-family="Helvetica,sans-Serif" font-size="10.00">C:/Users/juanh/OneDrive</text>
<text text-anchor="start" x="354" y="-139" font-family="Helvetica,sans-Serif" font-size="10.00">/Escritorio/Facultad/Beca</text>
<text text-anchor="start" x="354" y="-128" font-family="Helvetica,sans-Serif" font-size="10.00">/Proyecto/LAL Control Arduino</text>
<text text-anchor="start" x="354" y="-117" font-family="Helvetica,sans-Serif" font-size="10.00">/include/machine_state_pattern</text>
<text text-anchor="middle" x="422" y="-106" font-family="Helvetica,sans-Serif" font-size="10.00">/machine_states/Idle_state.h</text>
</a>
</g>
</g>
<!-- Node3&#45;&gt;Node6 -->
<g id="edge11" class="edge">
<title>Node3&#45;&gt;Node6</title>
<path fill="none" stroke="#63b8ff" d="M445.42,-285.33C439.98,-249.58 431.8,-195.85 426.68,-162.27"/>
<polygon fill="#63b8ff" stroke="#63b8ff" points="441.96,-285.85 446.92,-295.21 448.88,-284.79 441.96,-285.85"/>
</g>
<!-- Node7 -->
<g id="node7" class="node">
<title>Node7</title>
<g id="a_node7"><a xlink:href="_shutdown__state_8h.html" target="_top" xlink:title="Clase de estado de apagado del sistema.">
<polygon fill="white" stroke="#666666" points="170,-63 0,-63 0,0 170,0 170,-63"/>
<text text-anchor="start" x="8" y="-51" font-family="Helvetica,sans-Serif" font-size="10.00">C:/Users/juanh/OneDrive</text>
<text text-anchor="start" x="8" y="-40" font-family="Helvetica,sans-Serif" font-size="10.00">/Escritorio/Facultad/Beca</text>
<text text-anchor="start" x="8" y="-29" font-family="Helvetica,sans-Serif" font-size="10.00">/Proyecto/LAL Control Arduino</text>
<text text-anchor="start" x="8" y="-18" font-family="Helvetica,sans-Serif" font-size="10.00">/include/machine_state_pattern</text>
<text text-anchor="middle" x="85" y="-7" font-family="Helvetica,sans-Serif" font-size="10.00">/machine_states/Shutdown_state.h</text>
</a>
</g>
</g>
<!-- Node3&#45;&gt;Node7 -->
<g id="edge12" class="edge">
<title>Node3&#45;&gt;Node7</title>
<path fill="none" stroke="#63b8ff" d="M364.99,-311.76C316.46,-303.16 256.16,-287.8 208,-261 152.24,-229.96 135.24,-217.65 104,-162 86.72,-131.21 80.09,-90.78 79.5,-63.35"/>
<polygon fill="#63b8ff" stroke="#63b8ff" points="364.18,-315.17 374.62,-313.39 365.35,-308.27 364.18,-315.17"/>
</g>
<!-- Node8 -->
<g id="node8" class="node">
<title>Node8</title>
<g id="a_node8"><a xlink:href="main_8h.html" target="_top" xlink:title="Archivo principal del programa.">
<polygon fill="white" stroke="#666666" points="749.5,-156.5 600.5,-156.5 600.5,-104.5 749.5,-104.5 749.5,-156.5"/>
<text text-anchor="start" x="608.5" y="-144.5" font-family="Helvetica,sans-Serif" font-size="10.00">C:/Users/juanh/OneDrive</text>
<text text-anchor="start" x="608.5" y="-133.5" font-family="Helvetica,sans-Serif" font-size="10.00">/Escritorio/Facultad/Beca</text>
<text text-anchor="start" x="608.5" y="-122.5" font-family="Helvetica,sans-Serif" font-size="10.00">/Proyecto/LAL Control Arduino</text>
<text text-anchor="middle" x="675" y="-111.5" font-family="Helvetica,sans-Serif" font-size="10.00">/include/main.h</text>
</a>
</g>
</g>
<!-- Node3&#45;&gt;Node8 -->
<g id="edge13" class="edge">
<title>Node3&#45;&gt;Node8</title>
<path fill="none" stroke="#63b8ff" d="M453.53,-285.49C457.28,-258.16 466.48,-221.58 489,-198 518.13,-167.5 562.21,-150.95 600.14,-142"/>
<polygon fill="#63b8ff" stroke="#63b8ff" points="450.1,-284.73 452.42,-295.07 457.05,-285.54 450.1,-284.73"/>
</g>
<!-- Node3&#45;&gt;Node9 -->
<g id="edge14" class="edge">
<title>Node3&#45;&gt;Node9</title>
<path fill="none" stroke="#63b8ff" d="M496.87,-290.2C510.35,-280.86 525.06,-270.66 538.45,-261.38"/>
<polygon fill="#63b8ff" stroke="#63b8ff" points="495.24,-287.08 489.01,-295.65 499.23,-292.83 495.24,-287.08"/>
</g>
<!-- Node3&#45;&gt;Node10 -->
<g id="edge16" class="edge">
<title>Node3&#45;&gt;Node10</title>
<path fill="none" stroke="#63b8ff" d="M536.8,-299.8C578.88,-288.64 630.24,-274.62 676,-261 678.96,-260.12 681.97,-259.21 685,-258.28"/>
<polygon fill="#63b8ff" stroke="#63b8ff" points="535.98,-296.39 527.21,-302.33 537.77,-303.16 535.98,-296.39"/>
</g>
<!-- Node3&#45;&gt;Node11 -->
<g id="edge19" class="edge">
<title>Node3&#45;&gt;Node11</title>
<path fill="none" stroke="#63b8ff" d="M537.02,-313.49C620.92,-304.21 751.78,-287.08 863,-261 866.01,-260.29 869.06,-259.54 872.12,-258.74"/>
<polygon fill="#63b8ff" stroke="#63b8ff" points="536.82,-309.99 527.26,-314.56 537.58,-316.95 536.82,-309.99"/>
</g>
<!-- Node4&#45;&gt;Node5 -->
<g id="edge4" class="edge">
<title>Node4&#45;&gt;Node5</title>
<path fill="none" stroke="#63b8ff" d="M286.84,-189.74C277.23,-180.69 267.11,-171.16 257.91,-162.5"/>
<polygon fill="#63b8ff" stroke="#63b8ff" points="284.35,-192.2 294.03,-196.5 289.14,-187.1 284.35,-192.2"/>
</g>
<!-- Node4&#45;&gt;Node6 -->
<g id="edge6" class="edge">
<title>Node4&#45;&gt;Node6</title>
<path fill="none" stroke="#63b8ff" d="M359.45,-189.19C367.85,-180.3 376.98,-170.99 385.62,-162.5"/>
<polygon fill="#63b8ff" stroke="#63b8ff" points="356.96,-186.74 352.69,-196.44 362.07,-191.51 356.96,-186.74"/>
</g>
<!-- Node5&#45;&gt;Node3 -->
<g id="edge5" class="edge">
<title>Node5&#45;&gt;Node3</title>
<path fill="none" stroke="#63b8ff" d="M227.5,-173.67C227.92,-201.6 231.57,-237.31 252,-261 282.91,-296.83 333.64,-312.18 376.2,-318.52"/>
<polygon fill="#63b8ff" stroke="#63b8ff" points="231,-173.75 227.48,-163.75 224,-173.76 231,-173.75"/>
</g>
<!-- Node6&#45;&gt;Node4 -->
<g id="edge7" class="edge">
<title>Node6&#45;&gt;Node4</title>
<path fill="none" stroke="#63b8ff" d="M390.51,-170.85C382.11,-179.74 372.98,-189.05 364.34,-197.54"/>
<polygon fill="#63b8ff" stroke="#63b8ff" points="393.01,-173.3 397.27,-163.6 387.89,-168.53 393.01,-173.3"/>
</g>
<!-- Node6&#45;&gt;Node7 -->
<g id="edge8" class="edge">
<title>Node6&#45;&gt;Node7</title>
<path fill="none" stroke="#63b8ff" d="M334.76,-98.71C274.3,-80.23 216.34,-64.89 170.31,-53.26"/>
<polygon fill="#63b8ff" stroke="#63b8ff" points="333.64,-102.02 344.23,-101.62 335.7,-95.33 333.64,-102.02"/>
</g>
<!-- Node7&#45;&gt;Node3 -->
<g id="edge9" class="edge">
<title>Node7&#45;&gt;Node3</title>
<path fill="none" stroke="#63b8ff" d="M95.48,-74.56C99.98,-101.05 106.95,-135.18 122,-162 153.24,-217.65 170.24,-229.96 226,-261 272.59,-286.93 330.54,-302.15 376.02,-310.9"/>
<polygon fill="#63b8ff" stroke="#63b8ff" points="98.95,-74.14 93.87,-64.84 92.05,-75.28 98.95,-74.14"/>
</g>
<!-- Node9&#45;&gt;Node8 -->
<g id="edge15" class="edge">
<title>Node9&#45;&gt;Node8</title>
<path fill="none" stroke="#63b8ff" d="M620.12,-189.36C630.47,-178.45 641.44,-166.88 650.84,-156.98"/>
<polygon fill="#63b8ff" stroke="#63b8ff" points="617.75,-186.78 613.4,-196.44 622.82,-191.6 617.75,-186.78"/>
</g>
<!-- Node10&#45;&gt;Node8 -->
<g id="edge17" class="edge">
<title>Node10&#45;&gt;Node8</title>
<path fill="none" stroke="#63b8ff" d="M731.67,-189.36C720.98,-178.45 709.65,-166.88 699.95,-156.98"/>
<polygon fill="#63b8ff" stroke="#63b8ff" points="729.12,-191.77 738.62,-196.46 734.12,-186.87 729.12,-191.77"/>
</g>
<!-- Node11&#45;&gt;Node8 -->
<g id="edge20" class="edge">
<title>Node11&#45;&gt;Node8</title>
<path fill="none" stroke="#63b8ff" d="M861.27,-195.57C824.54,-182.94 783.21,-168.72 748.83,-156.9"/>
<polygon fill="#63b8ff" stroke="#63b8ff" points="859.98,-198.83 870.58,-198.77 862.26,-192.21 859.98,-198.83"/>
</g>
</g>
</svg>
