<?xml version="1.0" encoding="UTF-8" standalone="no"?>
<!DOCTYPE svg PUBLIC "-//W3C//DTD SVG 1.1//EN"
 "http://www.w3.org/Graphics/SVG/1.1/DTD/svg11.dtd">
<!-- Generated by graphviz version 7.0.2 (20221119.0110)
 -->
<!-- Title: C:/Users/juanh/OneDrive/Escritorio/Sistemas Embebidos/Proyecto final/LAL Control MbedOS/src/Port/PC_serial_interface.cpp Pages: 1 -->
<svg width="321pt" height="225pt"
 viewBox="0.00 0.00 320.50 225.00" xmlns="http://www.w3.org/2000/svg" xmlns:xlink="http://www.w3.org/1999/xlink">
<g id="graph0" class="graph" transform="scale(1 1) rotate(0) translate(4 221)">
<title>C:/Users/juanh/OneDrive/Escritorio/Sistemas Embebidos/Proyecto final/LAL Control MbedOS/src/Port/PC_serial_interface.cpp</title>
<!-- Node1 -->
<g id="node1" class="node">
<title>Node1</title>
<g id="a_node1"><a xlink:title="Implementación de PC_serial_interface.h.">
<polygon fill="#999999" stroke="#666666" points="201,-217 0,-217 0,-165 201,-165 201,-217"/>
<text text-anchor="start" x="8" y="-205" font-family="Helvetica,sans-Serif" font-size="10.00">C:/Users/juanh/OneDrive</text>
<text text-anchor="start" x="8" y="-194" font-family="Helvetica,sans-Serif" font-size="10.00">/Escritorio/Sistemas Embebidos</text>
<text text-anchor="start" x="8" y="-183" font-family="Helvetica,sans-Serif" font-size="10.00">/Proyecto final/LAL Control</text>
<text text-anchor="middle" x="100.5" y="-172" font-family="Helvetica,sans-Serif" font-size="10.00"> MbedOS/src/Port/PC_serial_interface.cpp</text>
</a>
</g>
</g>
<!-- Node2 -->
<g id="node2" class="node">
<title>Node2</title>
<g id="a_node2"><a xlink:href="_p_c__serial__interface_8h_source.html" target="_top" xlink:title=" ">
<polygon fill="white" stroke="#666666" points="155,-129 46,-129 46,-110 155,-110 155,-129"/>
<text text-anchor="middle" x="100.5" y="-117" font-family="Helvetica,sans-Serif" font-size="10.00">PC_serial_interface.h</text>
</a>
</g>
</g>
<!-- Node1&#45;&gt;Node2 -->
<g id="edge1" class="edge">
<title>Node1&#45;&gt;Node2</title>
<path fill="none" stroke="#63b8ff" d="M100.5,-164.52C100.5,-156.67 100.5,-148.15 100.5,-140.71"/>
<polygon fill="#63b8ff" stroke="#63b8ff" points="104,-140.71 100.5,-130.71 97,-140.71 104,-140.71"/>
</g>
<!-- Node3 -->
<g id="node3" class="node">
<title>Node3</title>
<g id="a_node3"><a xlink:title=" ">
<polygon fill="#e0e0e0" stroke="#999999" points="72,-74 23,-74 23,-55 72,-55 72,-74"/>
<text text-anchor="middle" x="47.5" y="-62" font-family="Helvetica,sans-Serif" font-size="10.00">mbed.h</text>
</a>
</g>
</g>
<!-- Node2&#45;&gt;Node3 -->
<g id="edge2" class="edge">
<title>Node2&#45;&gt;Node3</title>
<path fill="none" stroke="#63b8ff" d="M91.75,-109.75C84.35,-102.35 73.54,-91.54 64.45,-82.45"/>
<polygon fill="#63b8ff" stroke="#63b8ff" points="67.06,-80.11 57.51,-75.51 62.11,-85.06 67.06,-80.11"/>
</g>
<!-- Node4 -->
<g id="node4" class="node">
<title>Node4</title>
<g id="a_node4"><a xlink:title=" ">
<polygon fill="#e0e0e0" stroke="#999999" points="117,-19 68,-19 68,0 117,0 117,-19"/>
<text text-anchor="middle" x="92.5" y="-7" font-family="Helvetica,sans-Serif" font-size="10.00">string.h</text>
</a>
</g>
</g>
<!-- Node2&#45;&gt;Node4 -->
<g id="edge3" class="edge">
<title>Node2&#45;&gt;Node4</title>
<path fill="none" stroke="#63b8ff" d="M99.85,-109.66C98.58,-92.57 95.77,-54.61 94.01,-30.92"/>
<polygon fill="#63b8ff" stroke="#63b8ff" points="97.5,-30.68 93.28,-20.97 90.52,-31.2 97.5,-30.68"/>
</g>
<!-- Node5 -->
<g id="node5" class="node">
<title>Node5</title>
<g id="a_node5"><a xlink:href="utils_8h_source.html" target="_top" xlink:title=" ">
<polygon fill="white" stroke="#666666" points="180,-74 137,-74 137,-55 180,-55 180,-74"/>
<text text-anchor="middle" x="158.5" y="-62" font-family="Helvetica,sans-Serif" font-size="10.00">utils.h</text>
</a>
</g>
</g>
<!-- Node2&#45;&gt;Node5 -->
<g id="edge4" class="edge">
<title>Node2&#45;&gt;Node5</title>
<path fill="none" stroke="#63b8ff" d="M110.34,-109.51C118.55,-102 130.48,-91.1 140.41,-82.03"/>
<polygon fill="#63b8ff" stroke="#63b8ff" points="142.67,-84.71 147.69,-75.38 137.95,-79.54 142.67,-84.71"/>
</g>
<!-- Node5&#45;&gt;Node4 -->
<g id="edge8" class="edge">
<title>Node5&#45;&gt;Node4</title>
<path fill="none" stroke="#63b8ff" d="M147.3,-54.51C137.76,-46.85 123.83,-35.66 112.39,-26.47"/>
<polygon fill="#63b8ff" stroke="#63b8ff" points="114.7,-23.84 104.71,-20.31 110.32,-29.3 114.7,-23.84"/>
</g>
<!-- Node6 -->
<g id="node6" class="node">
<title>Node6</title>
<g id="a_node6"><a xlink:title=" ">
<polygon fill="#e0e0e0" stroke="#999999" points="182,-19 135,-19 135,0 182,0 182,-19"/>
<text text-anchor="middle" x="158.5" y="-7" font-family="Helvetica,sans-Serif" font-size="10.00">math.h</text>
</a>
</g>
</g>
<!-- Node5&#45;&gt;Node6 -->
<g id="edge5" class="edge">
<title>Node5&#45;&gt;Node6</title>
<path fill="none" stroke="#63b8ff" d="M158.5,-54.75C158.5,-48.27 158.5,-39.16 158.5,-30.9"/>
<polygon fill="#63b8ff" stroke="#63b8ff" points="162,-30.96 158.5,-20.96 155,-30.96 162,-30.96"/>
</g>
<!-- Node7 -->
<g id="node7" class="node">
<title>Node7</title>
<g id="a_node7"><a xlink:title=" ">
<polygon fill="#e0e0e0" stroke="#999999" points="246.5,-19 200.5,-19 200.5,0 246.5,0 246.5,-19"/>
<text text-anchor="middle" x="223.5" y="-7" font-family="Helvetica,sans-Serif" font-size="10.00">stdio.h</text>
</a>
</g>
</g>
<!-- Node5&#45;&gt;Node7 -->
<g id="edge6" class="edge">
<title>Node5&#45;&gt;Node7</title>
<path fill="none" stroke="#63b8ff" d="M169.53,-54.51C178.92,-46.85 192.65,-35.66 203.91,-26.47"/>
<polygon fill="#63b8ff" stroke="#63b8ff" points="205.93,-29.35 211.46,-20.31 201.5,-23.92 205.93,-29.35"/>
</g>
<!-- Node8 -->
<g id="node8" class="node">
<title>Node8</title>
<g id="a_node8"><a xlink:title=" ">
<polygon fill="#e0e0e0" stroke="#999999" points="312.5,-19 264.5,-19 264.5,0 312.5,0 312.5,-19"/>
<text text-anchor="middle" x="288.5" y="-7" font-family="Helvetica,sans-Serif" font-size="10.00">stdlib.h</text>
</a>
</g>
</g>
<!-- Node5&#45;&gt;Node8 -->
<g id="edge7" class="edge">
<title>Node5&#45;&gt;Node8</title>
<path fill="none" stroke="#63b8ff" d="M180.26,-54.63C200.98,-46.18 232.42,-33.36 256.08,-23.72"/>
<polygon fill="#63b8ff" stroke="#63b8ff" points="257.33,-26.99 265.27,-19.97 254.69,-20.51 257.33,-26.99"/>
</g>
</g>
</svg>
