<?xml version="1.0" encoding="UTF-8" standalone="no"?>
<!DOCTYPE svg PUBLIC "-//W3C//DTD SVG 1.1//EN"
 "http://www.w3.org/Graphics/SVG/1.1/DTD/svg11.dtd">
<!-- Generated by graphviz version 7.0.2 (20221119.0110)
 -->
<!-- Title: C:/Users/juanh/OneDrive/Escritorio/Sistemas Embebidos/Proyecto final/LAL Control MbedOS/include/machine_state_pattern/machine_states/Shutdown_state.h Pages: 1 -->
<svg width="1410pt" height="621pt"
 viewBox="0.00 0.00 1410.00 621.00" xmlns="http://www.w3.org/2000/svg" xmlns:xlink="http://www.w3.org/1999/xlink">
<g id="graph0" class="graph" transform="scale(1 1) rotate(0) translate(4 617)">
<title>C:/Users/juanh/OneDrive/Escritorio/Sistemas Embebidos/Proyecto final/LAL Control MbedOS/include/machine_state_pattern/machine_states/Shutdown_state.h</title>
<!-- Node1 -->
<g id="node1" class="node">
<title>Node1</title>
<g id="a_node1"><a xlink:title="Clase de estado de apagado del sistema.">
<polygon fill="#999999" stroke="#666666" points="944.5,-613 739.5,-613 739.5,-550 944.5,-550 944.5,-613"/>
<text text-anchor="start" x="747.5" y="-601" font-family="Helvetica,sans-Serif" font-size="10.00">C:/Users/juanh/OneDrive</text>
<text text-anchor="start" x="747.5" y="-590" font-family="Helvetica,sans-Serif" font-size="10.00">/Escritorio/Sistemas Embebidos</text>
<text text-anchor="start" x="747.5" y="-579" font-family="Helvetica,sans-Serif" font-size="10.00">/Proyecto final/LAL Control</text>
<text text-anchor="start" x="747.5" y="-568" font-family="Helvetica,sans-Serif" font-size="10.00"> MbedOS/include/machine_state</text>
<text text-anchor="middle" x="842" y="-557" font-family="Helvetica,sans-Serif" font-size="10.00">_pattern/machine_states/Shutdown_state.h</text>
</a>
</g>
</g>
<!-- Node2 -->
<g id="node2" class="node">
<title>Node2</title>
<g id="a_node2"><a xlink:href="_control__system_8h_source.html" target="_top" xlink:title=" ">
<polygon fill="white" stroke="#666666" points="778.5,-283 685.5,-283 685.5,-264 778.5,-264 778.5,-283"/>
<text text-anchor="middle" x="732" y="-271" font-family="Helvetica,sans-Serif" font-size="10.00">Control_system.h</text>
</a>
</g>
</g>
<!-- Node1&#45;&gt;Node2 -->
<g id="edge1" class="edge">
<title>Node1&#45;&gt;Node2</title>
<path fill="none" stroke="#63b8ff" d="M824.74,-549.86C806.19,-507.31 777.22,-427.89 753,-360 745.04,-337.7 736.07,-312.06 731.86,-294.72"/>
<polygon fill="#63b8ff" stroke="#63b8ff" points="735.31,-294.14 729.97,-284.98 728.44,-295.47 735.31,-294.14"/>
</g>
<!-- Node7 -->
<g id="node7" class="node">
<title>Node7</title>
<g id="a_node7"><a xlink:href="_abstract__state_8h.html" target="_top" xlink:title="Clase de estado abstracta.">
<polygon fill="white" stroke="#666666" points="1390,-162 1262,-162 1262,-121 1390,-121 1390,-162"/>
<text text-anchor="start" x="1270" y="-150" font-family="Helvetica,sans-Serif" font-size="10.00">machine_state_pattern</text>
<text text-anchor="start" x="1270" y="-139" font-family="Helvetica,sans-Serif" font-size="10.00">/machine_states/Abstract</text>
<text text-anchor="middle" x="1326" y="-128" font-family="Helvetica,sans-Serif" font-size="10.00">_state.h</text>
</a>
</g>
</g>
<!-- Node1&#45;&gt;Node7 -->
<g id="edge48" class="edge">
<title>Node1&#45;&gt;Node7</title>
<path fill="none" stroke="#63b8ff" d="M944.71,-571.73C1106.38,-555.05 1402,-511.67 1402,-417.5 1402,-417.5 1402,-417.5 1402,-272.5 1402,-233.38 1376.04,-195.58 1354.46,-170.92"/>
<polygon fill="#63b8ff" stroke="#63b8ff" points="1357.1,-168.62 1347.79,-163.57 1351.92,-173.33 1357.1,-168.62"/>
</g>
<!-- Node32 -->
<g id="node32" class="node">
<title>Node32</title>
<g id="a_node32"><a xlink:href="_idle__state_8h.html" target="_top" xlink:title="Clase de estado de reposo.">
<polygon fill="white" stroke="#666666" points="943,-514 827,-514 827,-473 943,-473 943,-514"/>
<text text-anchor="start" x="835" y="-502" font-family="Helvetica,sans-Serif" font-size="10.00">machine_state_pattern</text>
<text text-anchor="start" x="835" y="-491" font-family="Helvetica,sans-Serif" font-size="10.00">/machine_states/Idle</text>
<text text-anchor="middle" x="885" y="-480" font-family="Helvetica,sans-Serif" font-size="10.00">_state.h</text>
</a>
</g>
</g>
<!-- Node1&#45;&gt;Node32 -->
<g id="edge49" class="edge">
<title>Node1&#45;&gt;Node32</title>
<path fill="none" stroke="#63b8ff" d="M857.28,-549.94C861.38,-541.75 865.8,-532.9 869.89,-524.72"/>
<polygon fill="#63b8ff" stroke="#63b8ff" points="872.99,-526.35 874.33,-515.84 866.73,-523.22 872.99,-526.35"/>
</g>
<!-- Node2&#45;&gt;Node1 -->
<g id="edge47" class="edge">
<title>Node2&#45;&gt;Node1</title>
<path fill="none" stroke="#63b8ff" d="M740.56,-283.5C749.54,-299.09 761.06,-332.15 771,-360 793.28,-422.45 819.59,-494.66 833.46,-538.95"/>
<polygon fill="#63b8ff" stroke="#63b8ff" points="830.08,-539.87 836.35,-548.41 836.78,-537.83 830.08,-539.87"/>
</g>
<!-- Node3 -->
<g id="node3" class="node">
<title>Node3</title>
<g id="a_node3"><a xlink:href="_subject_8h.html" target="_top" xlink:title=" ">
<polygon fill="white" stroke="#666666" points="692,-156.5 564,-156.5 564,-126.5 692,-126.5 692,-156.5"/>
<text text-anchor="start" x="572" y="-144.5" font-family="Helvetica,sans-Serif" font-size="10.00">observer_pattern/subjects</text>
<text text-anchor="middle" x="628" y="-133.5" font-family="Helvetica,sans-Serif" font-size="10.00">/Subject.h</text>
</a>
</g>
</g>
<!-- Node2&#45;&gt;Node3 -->
<g id="edge2" class="edge">
<title>Node2&#45;&gt;Node3</title>
<path fill="none" stroke="#63b8ff" d="M720.44,-263.76C709.73,-255.33 693.73,-241.83 682,-228 665.84,-208.95 650.97,-184.67 640.94,-166.85"/>
<polygon fill="#63b8ff" stroke="#63b8ff" points="644.1,-165.34 636.21,-158.27 637.97,-168.72 644.1,-165.34"/>
</g>
<!-- Node6 -->
<g id="node6" class="node">
<title>Node6</title>
<g id="a_node6"><a xlink:href="_machine_8h.html" target="_top" xlink:title="Clase de máquina abstracta.">
<polygon fill="white" stroke="#666666" points="1148,-228 1032,-228 1032,-198 1148,-198 1148,-228"/>
<text text-anchor="start" x="1040" y="-216" font-family="Helvetica,sans-Serif" font-size="10.00">machine_state_pattern</text>
<text text-anchor="middle" x="1090" y="-205" font-family="Helvetica,sans-Serif" font-size="10.00">/Machine.h</text>
</a>
</g>
</g>
<!-- Node2&#45;&gt;Node6 -->
<g id="edge5" class="edge">
<title>Node2&#45;&gt;Node6</title>
<path fill="none" stroke="#63b8ff" d="M778.75,-266.15C834.1,-258.45 929.32,-244.66 1020.48,-228.4"/>
<polygon fill="#63b8ff" stroke="#63b8ff" points="1020.86,-231.89 1030.08,-226.67 1019.62,-225 1020.86,-231.89"/>
</g>
<!-- Node8 -->
<g id="node8" class="node">
<title>Node8</title>
<g id="a_node8"><a xlink:href="_display_8h.html" target="_top" xlink:title="Controlador de LCD hd44780 por interfaz I2C.">
<polygon fill="white" stroke="#666666" points="1014,-222.5 926,-222.5 926,-203.5 1014,-203.5 1014,-222.5"/>
<text text-anchor="middle" x="970" y="-210.5" font-family="Helvetica,sans-Serif" font-size="10.00">drivers/Display.h</text>
</a>
</g>
</g>
<!-- Node2&#45;&gt;Node8 -->
<g id="edge7" class="edge">
<title>Node2&#45;&gt;Node8</title>
<path fill="none" stroke="#63b8ff" d="M770.33,-263.54C807.78,-254.73 866.39,-240.77 917,-228 919.75,-227.31 922.57,-226.59 925.41,-225.85"/>
<polygon fill="#63b8ff" stroke="#63b8ff" points="926.12,-229.29 934.92,-223.38 924.36,-222.51 926.12,-229.29"/>
</g>
<!-- Node18 -->
<g id="node18" class="node">
<title>Node18</title>
<g id="a_node18"><a xlink:href="user__messages_8h.html" target="_top" xlink:title="Archivo para la configuración de interfaz con el usuario.">
<polygon fill="white" stroke="#666666" points="1260,-222.5 1166,-222.5 1166,-203.5 1260,-203.5 1260,-222.5"/>
<text text-anchor="middle" x="1213" y="-210.5" font-family="Helvetica,sans-Serif" font-size="10.00">user_messages.h</text>
</a>
</g>
</g>
<!-- Node2&#45;&gt;Node18 -->
<g id="edge19" class="edge">
<title>Node2&#45;&gt;Node18</title>
<path fill="none" stroke="#63b8ff" d="M778.84,-269.76C857.45,-264.67 1020.74,-252.04 1157,-228 1161.04,-227.29 1165.21,-226.45 1169.38,-225.53"/>
<polygon fill="#63b8ff" stroke="#63b8ff" points="1169.88,-229.01 1178.82,-223.34 1168.29,-222.19 1169.88,-229.01"/>
</g>
<!-- Node19 -->
<g id="node19" class="node">
<title>Node19</title>
<g id="a_node19"><a xlink:href="_system__observer_8h.html" target="_top" xlink:title="Clase observador del sistema de control.">
<polygon fill="white" stroke="#666666" points="630,-228 498,-228 498,-198 630,-198 630,-228"/>
<text text-anchor="start" x="506" y="-216" font-family="Helvetica,sans-Serif" font-size="10.00">observer_pattern/observers</text>
<text text-anchor="middle" x="564" y="-205" font-family="Helvetica,sans-Serif" font-size="10.00">/System_observer.h</text>
</a>
</g>
</g>
<!-- Node2&#45;&gt;Node19 -->
<g id="edge20" class="edge">
<title>Node2&#45;&gt;Node19</title>
<path fill="none" stroke="#63b8ff" d="M701.48,-263.62C675.97,-255.34 639.36,-242.75 610.29,-232.32"/>
<polygon fill="#63b8ff" stroke="#63b8ff" points="611.57,-229.06 600.98,-228.95 609.19,-235.64 611.57,-229.06"/>
</g>
<!-- Node21 -->
<g id="node21" class="node">
<title>Node21</title>
<g id="a_node21"><a xlink:href="_temperature__sensor_8h.html" target="_top" xlink:title="Controlador para sensor de temperatura DS18B20.">
<polygon fill="white" stroke="#666666" points="366.5,-228 265.5,-228 265.5,-198 366.5,-198 366.5,-228"/>
<text text-anchor="start" x="273.5" y="-216" font-family="Helvetica,sans-Serif" font-size="10.00">drivers/Temperature</text>
<text text-anchor="middle" x="316" y="-205" font-family="Helvetica,sans-Serif" font-size="10.00">_sensor.h</text>
</a>
</g>
</g>
<!-- Node2&#45;&gt;Node21 -->
<g id="edge25" class="edge">
<title>Node2&#45;&gt;Node21</title>
<path fill="none" stroke="#63b8ff" d="M685.26,-268.31C618.96,-262.02 493.63,-248.79 377.94,-228.41"/>
<polygon fill="#63b8ff" stroke="#63b8ff" points="378.72,-225 368.26,-226.69 377.49,-231.89 378.72,-225"/>
</g>
<!-- Node24 -->
<g id="node24" class="node">
<title>Node24</title>
<g id="a_node24"><a xlink:href="_moisture__sensor_8h.html" target="_top" xlink:title="Controlador de sensor de humedad analógico.">
<polygon fill="white" stroke="#666666" points="829,-79.5 701,-79.5 701,-60.5 829,-60.5 829,-79.5"/>
<text text-anchor="middle" x="765" y="-67.5" font-family="Helvetica,sans-Serif" font-size="10.00">drivers/Moisture_sensor.h</text>
</a>
</g>
</g>
<!-- Node2&#45;&gt;Node24 -->
<g id="edge28" class="edge">
<title>Node2&#45;&gt;Node24</title>
<path fill="none" stroke="#63b8ff" d="M727.48,-263.58C723.29,-254.79 717.37,-240.85 715,-228 712.58,-214.89 712.51,-211.1 715,-198 722.63,-157.8 742.71,-114.06 754.98,-89.84"/>
<polygon fill="#63b8ff" stroke="#63b8ff" points="757.94,-91.72 759.44,-81.23 751.73,-88.5 757.94,-91.72"/>
</g>
<!-- Node25 -->
<g id="node25" class="node">
<title>Node25</title>
<g id="a_node25"><a xlink:href="types_8h.html" target="_top" xlink:title="Archivo de definición de tipos de dato.">
<polygon fill="white" stroke="#666666" points="126.5,-151 77.5,-151 77.5,-132 126.5,-132 126.5,-151"/>
<text text-anchor="middle" x="102" y="-139" font-family="Helvetica,sans-Serif" font-size="10.00">types.h</text>
</a>
</g>
</g>
<!-- Node2&#45;&gt;Node25 -->
<g id="edge30" class="edge">
<title>Node2&#45;&gt;Node25</title>
<path fill="none" stroke="#63b8ff" d="M685.34,-271.58C554.28,-268.62 189.47,-257.79 145,-228 122.59,-212.99 111.31,-182.64 106.06,-162.44"/>
<polygon fill="#63b8ff" stroke="#63b8ff" points="109.51,-161.84 103.86,-152.88 102.69,-163.41 109.51,-161.84"/>
</g>
<!-- Node26 -->
<g id="node26" class="node">
<title>Node26</title>
<g id="a_node26"><a xlink:href="_buzzer_8h.html" target="_top" xlink:title="Controlador de Buzzer de 12 milimetros sin oscilador.">
<polygon fill="white" stroke="#666666" points="810,-222.5 724,-222.5 724,-203.5 810,-203.5 810,-222.5"/>
<text text-anchor="middle" x="767" y="-210.5" font-family="Helvetica,sans-Serif" font-size="10.00">drivers/Buzzer.h</text>
</a>
</g>
</g>
<!-- Node2&#45;&gt;Node26 -->
<g id="edge31" class="edge">
<title>Node2&#45;&gt;Node26</title>
<path fill="none" stroke="#63b8ff" d="M737.16,-263.87C742.13,-255.57 749.78,-242.78 756.1,-232.22"/>
<polygon fill="#63b8ff" stroke="#63b8ff" points="758.91,-234.34 761.04,-223.97 752.9,-230.75 758.91,-234.34"/>
</g>
<!-- Node28 -->
<g id="node28" class="node">
<title>Node28</title>
<g id="a_node28"><a xlink:href="_motor_8h.html" target="_top" xlink:title="Controlador de motor de 220 VAC.">
<polygon fill="white" stroke="#666666" points="908,-222.5 828,-222.5 828,-203.5 908,-203.5 908,-222.5"/>
<text text-anchor="middle" x="868" y="-210.5" font-family="Helvetica,sans-Serif" font-size="10.00">drivers/Motor.h</text>
</a>
</g>
</g>
<!-- Node2&#45;&gt;Node28 -->
<g id="edge34" class="edge">
<title>Node2&#45;&gt;Node28</title>
<path fill="none" stroke="#63b8ff" d="M752.66,-263.62C775.02,-253.99 810.96,-238.54 836.77,-227.43"/>
<polygon fill="#63b8ff" stroke="#63b8ff" points="837.96,-230.73 845.76,-223.57 835.19,-224.3 837.96,-230.73"/>
</g>
<!-- Node29 -->
<g id="node29" class="node">
<title>Node29</title>
<g id="a_node29"><a xlink:href="_dual___l_e_d_8h.html" target="_top" xlink:title="Controlador de LED RG.">
<polygon fill="white" stroke="#666666" points="247.5,-222.5 154.5,-222.5 154.5,-203.5 247.5,-203.5 247.5,-222.5"/>
<text text-anchor="middle" x="201" y="-210.5" font-family="Helvetica,sans-Serif" font-size="10.00">drivers/Dual_led.h</text>
</a>
</g>
</g>
<!-- Node2&#45;&gt;Node29 -->
<g id="edge37" class="edge">
<title>Node2&#45;&gt;Node29</title>
<path fill="none" stroke="#63b8ff" d="M685.06,-270.54C599.31,-266.43 411.8,-254.94 256,-228 251.98,-227.3 247.82,-226.47 243.66,-225.55"/>
<polygon fill="#63b8ff" stroke="#63b8ff" points="244.82,-222.23 234.28,-223.34 243.21,-229.04 244.82,-222.23"/>
</g>
<!-- Node30 -->
<g id="node30" class="node">
<title>Node30</title>
<g id="a_node30"><a xlink:href="_digital__dual___l_e_d_8h_source.html" target="_top" xlink:title=" ">
<polygon fill="white" stroke="#666666" points="98,-228 0,-228 0,-198 98,-198 98,-228"/>
<text text-anchor="start" x="8" y="-216" font-family="Helvetica,sans-Serif" font-size="10.00">drivers/Digital_dual</text>
<text text-anchor="middle" x="49" y="-205" font-family="Helvetica,sans-Serif" font-size="10.00">_led.h</text>
</a>
</g>
</g>
<!-- Node2&#45;&gt;Node30 -->
<g id="edge41" class="edge">
<title>Node2&#45;&gt;Node30</title>
<path fill="none" stroke="#63b8ff" d="M685.08,-271.48C581.27,-268.72 324.49,-259.06 112,-228 111.17,-227.88 110.33,-227.75 109.49,-227.62"/>
<polygon fill="#63b8ff" stroke="#63b8ff" points="110.34,-224.22 99.89,-225.96 109.14,-231.11 110.34,-224.22"/>
</g>
<!-- Node31 -->
<g id="node31" class="node">
<title>Node31</title>
<g id="a_node31"><a xlink:href="_cooler_8h.html" target="_top" xlink:title="Controlador de ventilador de 12 volts y 5 milímteros.">
<polygon fill="white" stroke="#666666" points="467.5,-222.5 384.5,-222.5 384.5,-203.5 467.5,-203.5 467.5,-222.5"/>
<text text-anchor="middle" x="426" y="-210.5" font-family="Helvetica,sans-Serif" font-size="10.00">drivers/Cooler.h</text>
</a>
</g>
</g>
<!-- Node2&#45;&gt;Node31 -->
<g id="edge44" class="edge">
<title>Node2&#45;&gt;Node31</title>
<path fill="none" stroke="#63b8ff" d="M685.32,-264.49C636.32,-255.95 557.1,-241.8 489,-228 484.92,-227.17 480.69,-226.29 476.45,-225.39"/>
<polygon fill="#63b8ff" stroke="#63b8ff" points="477.26,-221.98 466.75,-223.29 475.78,-228.82 477.26,-221.98"/>
</g>
<!-- Node4 -->
<g id="node4" class="node">
<title>Node4</title>
<g id="a_node4"><a xlink:href="_subject__interface_8h.html" target="_top" xlink:title="Clase para interfaz para implementar el sujeto.">
<polygon fill="white" stroke="#666666" points="683,-85 555,-85 555,-55 683,-55 683,-85"/>
<text text-anchor="start" x="563" y="-73" font-family="Helvetica,sans-Serif" font-size="10.00">observer_pattern/subjects</text>
<text text-anchor="middle" x="619" y="-62" font-family="Helvetica,sans-Serif" font-size="10.00">/Subject_interface.h</text>
</a>
</g>
</g>
<!-- Node3&#45;&gt;Node4 -->
<g id="edge3" class="edge">
<title>Node3&#45;&gt;Node4</title>
<path fill="none" stroke="#63b8ff" d="M626.14,-126.1C625.04,-117.62 623.62,-106.64 622.33,-96.72"/>
<polygon fill="#63b8ff" stroke="#63b8ff" points="625.81,-96.35 621.06,-86.88 618.87,-97.25 625.81,-96.35"/>
</g>
<!-- Node5 -->
<g id="node5" class="node">
<title>Node5</title>
<g id="a_node5"><a xlink:href="_observer__interface_8h.html" target="_top" xlink:title="Clase para interfaz para implementar el observador.">
<polygon fill="white" stroke="#666666" points="537,-85 405,-85 405,-55 537,-55 537,-85"/>
<text text-anchor="start" x="413" y="-73" font-family="Helvetica,sans-Serif" font-size="10.00">observer_pattern/observers</text>
<text text-anchor="middle" x="471" y="-62" font-family="Helvetica,sans-Serif" font-size="10.00">/Observer_interface.h</text>
</a>
</g>
</g>
<!-- Node3&#45;&gt;Node5 -->
<g id="edge4" class="edge">
<title>Node3&#45;&gt;Node5</title>
<path fill="none" stroke="#63b8ff" d="M595.47,-126.1C571.79,-115.62 539.49,-101.32 513.72,-89.91"/>
<polygon fill="#63b8ff" stroke="#63b8ff" points="515.43,-86.84 504.87,-85.99 512.6,-93.24 515.43,-86.84"/>
</g>
<!-- Node6&#45;&gt;Node7 -->
<g id="edge6" class="edge">
<title>Node6&#45;&gt;Node7</title>
<path fill="none" stroke="#63b8ff" d="M1139.19,-197.52C1171.52,-187.99 1214.46,-175.35 1251.01,-164.58"/>
<polygon fill="#63b8ff" stroke="#63b8ff" points="1251.58,-168.07 1260.18,-161.88 1249.6,-161.35 1251.58,-168.07"/>
</g>
<!-- Node9 -->
<g id="node9" class="node">
<title>Node9</title>
<g id="a_node9"><a xlink:href="display__settings_8h.html" target="_top" xlink:title="Archivo de configuración de la pantalla.">
<polygon fill="white" stroke="#666666" points="1177.5,-151 1082.5,-151 1082.5,-132 1177.5,-132 1177.5,-151"/>
<text text-anchor="middle" x="1130" y="-139" font-family="Helvetica,sans-Serif" font-size="10.00">display_settings.h</text>
</a>
</g>
</g>
<!-- Node8&#45;&gt;Node9 -->
<g id="edge8" class="edge">
<title>Node8&#45;&gt;Node9</title>
<path fill="none" stroke="#63b8ff" d="M990.59,-203.06C1018.07,-191.12 1066.98,-169.87 1098.95,-155.99"/>
<polygon fill="#63b8ff" stroke="#63b8ff" points="1100.32,-159.21 1108.1,-152.01 1097.53,-152.79 1100.32,-159.21"/>
</g>
<!-- Node10 -->
<g id="node10" class="node">
<title>Node10</title>
<g id="a_node10"><a xlink:href="hd44780___i2_cexp_8h_source.html" target="_top" xlink:title=" ">
<polygon fill="white" stroke="#666666" points="1064,-151 936,-151 936,-132 1064,-132 1064,-151"/>
<text text-anchor="middle" x="1000" y="-139" font-family="Helvetica,sans-Serif" font-size="10.00">drivers/hd44780_I2Cexp.h</text>
</a>
</g>
</g>
<!-- Node8&#45;&gt;Node10 -->
<g id="edge9" class="edge">
<title>Node8&#45;&gt;Node10</title>
<path fill="none" stroke="#63b8ff" d="M973.8,-203.2C978.28,-192.81 985.87,-175.24 991.73,-161.66"/>
<polygon fill="#63b8ff" stroke="#63b8ff" points="994.79,-163.41 995.54,-152.84 988.36,-160.63 994.79,-163.41"/>
</g>
<!-- Node11 -->
<g id="node11" class="node">
<title>Node11</title>
<g id="a_node11"><a xlink:title=" ">
<polygon fill="#e0e0e0" stroke="#999999" points="835.5,-19 786.5,-19 786.5,0 835.5,0 835.5,-19"/>
<text text-anchor="middle" x="811" y="-7" font-family="Helvetica,sans-Serif" font-size="10.00">mbed.h</text>
</a>
</g>
</g>
<!-- Node10&#45;&gt;Node11 -->
<g id="edge10" class="edge">
<title>Node10&#45;&gt;Node11</title>
<path fill="none" stroke="#63b8ff" d="M992.49,-131.75C977.83,-115.06 943.76,-78.29 909,-55 889.57,-41.99 865.72,-31.06 846.41,-23.29"/>
<polygon fill="#63b8ff" stroke="#63b8ff" points="847.92,-20.13 837.34,-19.75 845.38,-26.65 847.92,-20.13"/>
</g>
<!-- Node12 -->
<g id="node12" class="node">
<title>Node12</title>
<g id="a_node12"><a xlink:title=" ">
<polygon fill="#e0e0e0" stroke="#999999" points="1108,-19 1060,-19 1060,0 1108,0 1108,-19"/>
<text text-anchor="middle" x="1084" y="-7" font-family="Helvetica,sans-Serif" font-size="10.00">stdlib.h</text>
</a>
</g>
</g>
<!-- Node10&#45;&gt;Node12 -->
<g id="edge11" class="edge">
<title>Node10&#45;&gt;Node12</title>
<path fill="none" stroke="#63b8ff" d="M1019.25,-131.6C1036.62,-122.49 1061.33,-106.61 1074,-85 1083.69,-68.48 1085.55,-46.41 1085.38,-30.59"/>
<polygon fill="#63b8ff" stroke="#63b8ff" points="1088.9,-30.83 1084.98,-20.98 1081.9,-31.12 1088.9,-30.83"/>
</g>
<!-- Node13 -->
<g id="node13" class="node">
<title>Node13</title>
<g id="a_node13"><a xlink:href="hd44780__instruction__set_8h_source.html" target="_top" xlink:title=" ">
<polygon fill="white" stroke="#666666" points="1065,-85 961,-85 961,-55 1065,-55 1065,-85"/>
<text text-anchor="start" x="969" y="-73" font-family="Helvetica,sans-Serif" font-size="10.00">hd44780_instruction</text>
<text text-anchor="middle" x="1013" y="-62" font-family="Helvetica,sans-Serif" font-size="10.00">_set.h</text>
</a>
</g>
</g>
<!-- Node10&#45;&gt;Node13 -->
<g id="edge12" class="edge">
<title>Node10&#45;&gt;Node13</title>
<path fill="none" stroke="#63b8ff" d="M1001.65,-131.7C1003.3,-122.84 1005.94,-108.76 1008.25,-96.38"/>
<polygon fill="#63b8ff" stroke="#63b8ff" points="1011.65,-97.23 1010.05,-86.76 1004.77,-95.95 1011.65,-97.23"/>
</g>
<!-- Node14 -->
<g id="node14" class="node">
<title>Node14</title>
<g id="a_node14"><a xlink:href="utils_8h_source.html" target="_top" xlink:title=" ">
<polygon fill="white" stroke="#666666" points="1172.5,-79.5 1129.5,-79.5 1129.5,-60.5 1172.5,-60.5 1172.5,-79.5"/>
<text text-anchor="middle" x="1151" y="-67.5" font-family="Helvetica,sans-Serif" font-size="10.00">utils.h</text>
</a>
</g>
</g>
<!-- Node10&#45;&gt;Node14 -->
<g id="edge14" class="edge">
<title>Node10&#45;&gt;Node14</title>
<path fill="none" stroke="#63b8ff" d="M1019.43,-131.56C1045.25,-119.67 1091.12,-98.56 1121.3,-84.67"/>
<polygon fill="#63b8ff" stroke="#63b8ff" points="1122.65,-87.9 1130.27,-80.54 1119.72,-81.54 1122.65,-87.9"/>
</g>
<!-- Node13&#45;&gt;Node11 -->
<g id="edge13" class="edge">
<title>Node13&#45;&gt;Node11</title>
<path fill="none" stroke="#63b8ff" d="M963.07,-54.54C926.91,-44.07 878.9,-30.16 846.57,-20.8"/>
<polygon fill="#63b8ff" stroke="#63b8ff" points="847.87,-17.54 837.3,-18.12 845.93,-24.26 847.87,-17.54"/>
</g>
<!-- Node14&#45;&gt;Node12 -->
<g id="edge17" class="edge">
<title>Node14&#45;&gt;Node12</title>
<path fill="none" stroke="#63b8ff" d="M1140.82,-60.12C1130.79,-51.35 1115.21,-37.75 1102.9,-27"/>
<polygon fill="#63b8ff" stroke="#63b8ff" points="1105.25,-24.4 1095.41,-20.46 1100.64,-29.68 1105.25,-24.4"/>
</g>
<!-- Node15 -->
<g id="node15" class="node">
<title>Node15</title>
<g id="a_node15"><a xlink:title=" ">
<polygon fill="#e0e0e0" stroke="#999999" points="1240.5,-19 1193.5,-19 1193.5,0 1240.5,0 1240.5,-19"/>
<text text-anchor="middle" x="1217" y="-7" font-family="Helvetica,sans-Serif" font-size="10.00">math.h</text>
</a>
</g>
</g>
<!-- Node14&#45;&gt;Node15 -->
<g id="edge15" class="edge">
<title>Node14&#45;&gt;Node15</title>
<path fill="none" stroke="#63b8ff" d="M1161.02,-60.12C1170.91,-51.35 1186.26,-37.75 1198.38,-27"/>
<polygon fill="#63b8ff" stroke="#63b8ff" points="1200.59,-29.72 1205.75,-20.47 1195.94,-24.49 1200.59,-29.72"/>
</g>
<!-- Node16 -->
<g id="node16" class="node">
<title>Node16</title>
<g id="a_node16"><a xlink:title=" ">
<polygon fill="#e0e0e0" stroke="#999999" points="1305,-19 1259,-19 1259,0 1305,0 1305,-19"/>
<text text-anchor="middle" x="1282" y="-7" font-family="Helvetica,sans-Serif" font-size="10.00">stdio.h</text>
</a>
</g>
</g>
<!-- Node14&#45;&gt;Node16 -->
<g id="edge16" class="edge">
<title>Node14&#45;&gt;Node16</title>
<path fill="none" stroke="#63b8ff" d="M1170.9,-60.12C1192.34,-50.54 1226.74,-35.18 1251.59,-24.08"/>
<polygon fill="#63b8ff" stroke="#63b8ff" points="1252.83,-27.36 1260.53,-20.09 1249.98,-20.97 1252.83,-27.36"/>
</g>
<!-- Node17 -->
<g id="node17" class="node">
<title>Node17</title>
<g id="a_node17"><a xlink:title=" ">
<polygon fill="#e0e0e0" stroke="#999999" points="1175.5,-19 1126.5,-19 1126.5,0 1175.5,0 1175.5,-19"/>
<text text-anchor="middle" x="1151" y="-7" font-family="Helvetica,sans-Serif" font-size="10.00">string.h</text>
</a>
</g>
</g>
<!-- Node14&#45;&gt;Node17 -->
<g id="edge18" class="edge">
<title>Node14&#45;&gt;Node17</title>
<path fill="none" stroke="#63b8ff" d="M1151,-60.37C1151,-52.5 1151,-40.6 1151,-30.39"/>
<polygon fill="#63b8ff" stroke="#63b8ff" points="1154.5,-30.68 1151,-20.68 1147.5,-30.68 1154.5,-30.68"/>
</g>
<!-- Node19&#45;&gt;Node2 -->
<g id="edge24" class="edge">
<title>Node19&#45;&gt;Node2</title>
<path fill="none" stroke="#63b8ff" d="M611.38,-228.44C640,-237.99 675.59,-250.41 700.74,-259.63"/>
<polygon fill="#63b8ff" stroke="#63b8ff" points="699.48,-262.89 710.07,-263.09 701.91,-256.33 699.48,-262.89"/>
</g>
<!-- Node20 -->
<g id="node20" class="node">
<title>Node20</title>
<g id="a_node20"><a xlink:href="_observer_8h.html" target="_top" xlink:title="Clase observador.">
<polygon fill="white" stroke="#666666" points="546,-156.5 414,-156.5 414,-126.5 546,-126.5 546,-156.5"/>
<text text-anchor="start" x="422" y="-144.5" font-family="Helvetica,sans-Serif" font-size="10.00">observer_pattern/observers</text>
<text text-anchor="middle" x="480" y="-133.5" font-family="Helvetica,sans-Serif" font-size="10.00">/Observer.h</text>
</a>
</g>
</g>
<!-- Node19&#45;&gt;Node20 -->
<g id="edge21" class="edge">
<title>Node19&#45;&gt;Node20</title>
<path fill="none" stroke="#63b8ff" d="M546.6,-197.6C534.88,-187.91 519.23,-174.96 506.04,-164.04"/>
<polygon fill="#63b8ff" stroke="#63b8ff" points="508.48,-161.52 498.55,-157.85 504.02,-166.92 508.48,-161.52"/>
</g>
<!-- Node20&#45;&gt;Node4 -->
<g id="edge22" class="edge">
<title>Node20&#45;&gt;Node4</title>
<path fill="none" stroke="#63b8ff" d="M508.8,-126.1C529.4,-115.8 557.35,-101.82 579.95,-90.52"/>
<polygon fill="#63b8ff" stroke="#63b8ff" points="581.5,-93.66 588.88,-86.06 578.37,-87.4 581.5,-93.66"/>
</g>
<!-- Node20&#45;&gt;Node5 -->
<g id="edge23" class="edge">
<title>Node20&#45;&gt;Node5</title>
<path fill="none" stroke="#63b8ff" d="M478.14,-126.1C477.04,-117.62 475.62,-106.64 474.33,-96.72"/>
<polygon fill="#63b8ff" stroke="#63b8ff" points="477.81,-96.35 473.06,-86.88 470.87,-97.25 477.81,-96.35"/>
</g>
<!-- Node22 -->
<g id="node22" class="node">
<title>Node22</title>
<g id="a_node22"><a xlink:href="system__settings_8h.html" target="_top" xlink:title="Archivo para la definición de constantes del sistema.">
<polygon fill="white" stroke="#666666" points="357.5,-151 260.5,-151 260.5,-132 357.5,-132 357.5,-151"/>
<text text-anchor="middle" x="309" y="-139" font-family="Helvetica,sans-Serif" font-size="10.00">system_settings.h</text>
</a>
</g>
</g>
<!-- Node21&#45;&gt;Node22 -->
<g id="edge26" class="edge">
<title>Node21&#45;&gt;Node22</title>
<path fill="none" stroke="#63b8ff" d="M314.55,-197.6C313.53,-187.43 312.14,-173.67 311.01,-162.45"/>
<polygon fill="#63b8ff" stroke="#63b8ff" points="314.51,-162.28 310.03,-152.69 307.55,-162.99 314.51,-162.28"/>
</g>
<!-- Node23 -->
<g id="node23" class="node">
<title>Node23</title>
<g id="a_node23"><a xlink:title=" ">
<polygon fill="#e0e0e0" stroke="#999999" points="242.5,-151 183.5,-151 183.5,-132 242.5,-132 242.5,-151"/>
<text text-anchor="middle" x="213" y="-139" font-family="Helvetica,sans-Serif" font-size="10.00">DS1820.h</text>
</a>
</g>
</g>
<!-- Node21&#45;&gt;Node23 -->
<g id="edge27" class="edge">
<title>Node21&#45;&gt;Node23</title>
<path fill="none" stroke="#63b8ff" d="M294.66,-197.6C277.42,-185.97 253.22,-169.64 235.64,-157.78"/>
<polygon fill="#63b8ff" stroke="#63b8ff" points="237.66,-154.92 227.41,-152.22 233.74,-160.72 237.66,-154.92"/>
</g>
<!-- Node24&#45;&gt;Node11 -->
<g id="edge29" class="edge">
<title>Node24&#45;&gt;Node11</title>
<path fill="none" stroke="#63b8ff" d="M771.79,-60.37C778.45,-51.9 788.79,-38.74 797.19,-28.07"/>
<polygon fill="#63b8ff" stroke="#63b8ff" points="799.82,-30.38 803.25,-20.36 794.32,-26.05 799.82,-30.38"/>
</g>
<!-- Node26&#45;&gt;Node11 -->
<g id="edge32" class="edge">
<title>Node26&#45;&gt;Node11</title>
<path fill="none" stroke="#63b8ff" d="M766.76,-203.16C766.71,-185.9 768.7,-147.09 786,-121 801.53,-97.57 824.95,-109.9 838,-85 847.74,-66.41 836.28,-43.51 825.43,-28.05"/>
<polygon fill="#63b8ff" stroke="#63b8ff" points="828.37,-26.13 819.53,-20.29 822.79,-30.37 828.37,-26.13"/>
</g>
<!-- Node27 -->
<g id="node27" class="node">
<title>Node27</title>
<g id="a_node27"><a xlink:href="port__config_8h.html" target="_top" xlink:title="Archivo de configuración para los puertos de la placa donde se implementará el sistema.">
<polygon fill="white" stroke="#666666" points="867,-151 795,-151 795,-132 867,-132 867,-151"/>
<text text-anchor="middle" x="831" y="-139" font-family="Helvetica,sans-Serif" font-size="10.00">port_config.h</text>
</a>
</g>
</g>
<!-- Node26&#45;&gt;Node27 -->
<g id="edge33" class="edge">
<title>Node26&#45;&gt;Node27</title>
<path fill="none" stroke="#63b8ff" d="M775.11,-203.2C785.15,-192.29 802.49,-173.46 815.2,-159.66"/>
<polygon fill="#63b8ff" stroke="#63b8ff" points="817.53,-162.29 821.73,-152.56 812.38,-157.55 817.53,-162.29"/>
</g>
<!-- Node28&#45;&gt;Node11 -->
<g id="edge35" class="edge">
<title>Node28&#45;&gt;Node11</title>
<path fill="none" stroke="#63b8ff" d="M870.22,-203.16C874.01,-186.84 880.85,-150.9 876,-121 871.05,-90.48 870.03,-81.44 854,-55 847.7,-44.61 838.58,-34.72 830.35,-26.91"/>
<polygon fill="#63b8ff" stroke="#63b8ff" points="832.85,-24.44 823.08,-20.34 828.15,-29.64 832.85,-24.44"/>
</g>
<!-- Node28&#45;&gt;Node27 -->
<g id="edge36" class="edge">
<title>Node28&#45;&gt;Node27</title>
<path fill="none" stroke="#63b8ff" d="M863.31,-203.2C857.73,-192.71 848.24,-174.88 840.99,-161.26"/>
<polygon fill="#63b8ff" stroke="#63b8ff" points="844.26,-159.97 836.48,-152.79 838.09,-163.26 844.26,-159.97"/>
</g>
<!-- Node29&#45;&gt;Node11 -->
<g id="edge38" class="edge">
<title>Node29&#45;&gt;Node11</title>
<path fill="none" stroke="#63b8ff" d="M193.7,-203.12C180.39,-185.78 155.17,-146.84 174,-121 245.4,-23 650,-11.71 774.53,-10.57"/>
<polygon fill="#63b8ff" stroke="#63b8ff" points="774.53,-14.07 784.5,-10.5 774.48,-7.07 774.53,-14.07"/>
</g>
<!-- Node29&#45;&gt;Node22 -->
<g id="edge40" class="edge">
<title>Node29&#45;&gt;Node22</title>
<path fill="none" stroke="#63b8ff" d="M214.68,-203.2C232.51,-191.72 263.99,-171.47 285.64,-157.53"/>
<polygon fill="#63b8ff" stroke="#63b8ff" points="287.3,-160.62 293.82,-152.27 283.52,-154.74 287.3,-160.62"/>
</g>
<!-- Node29&#45;&gt;Node25 -->
<g id="edge39" class="edge">
<title>Node29&#45;&gt;Node25</title>
<path fill="none" stroke="#63b8ff" d="M188.46,-203.2C172.26,-191.82 143.78,-171.83 123.96,-157.91"/>
<polygon fill="#63b8ff" stroke="#63b8ff" points="126.18,-155.2 115.99,-152.32 122.16,-160.93 126.18,-155.2"/>
</g>
<!-- Node30&#45;&gt;Node11 -->
<g id="edge42" class="edge">
<title>Node30&#45;&gt;Node11</title>
<path fill="none" stroke="#63b8ff" d="M48.13,-197.65C47.72,-178.12 49.86,-143.06 68,-121 115.82,-62.85 150.84,-72.75 224,-55 329.53,-29.4 664.35,-15.64 775.07,-11.7"/>
<polygon fill="#63b8ff" stroke="#63b8ff" points="774.87,-15.21 784.74,-11.36 774.63,-8.21 774.87,-15.21"/>
</g>
<!-- Node30&#45;&gt;Node25 -->
<g id="edge43" class="edge">
<title>Node30&#45;&gt;Node25</title>
<path fill="none" stroke="#63b8ff" d="M59.98,-197.6C68.24,-186.77 79.59,-171.88 88.42,-160.31"/>
<polygon fill="#63b8ff" stroke="#63b8ff" points="91.18,-162.46 94.46,-152.38 85.62,-158.21 91.18,-162.46"/>
</g>
<!-- Node31&#45;&gt;Node11 -->
<g id="edge45" class="edge">
<title>Node31&#45;&gt;Node11</title>
<path fill="none" stroke="#63b8ff" d="M419.92,-203.19C402.62,-176.97 356.87,-98.55 396,-55 421.14,-27.02 678.47,-15.16 774.83,-11.67"/>
<polygon fill="#63b8ff" stroke="#63b8ff" points="774.9,-15.17 784.77,-11.32 774.65,-8.17 774.9,-15.17"/>
</g>
<!-- Node31&#45;&gt;Node22 -->
<g id="edge46" class="edge">
<title>Node31&#45;&gt;Node22</title>
<path fill="none" stroke="#63b8ff" d="M411.18,-203.2C391.68,-191.62 357.15,-171.1 333.68,-157.16"/>
<polygon fill="#63b8ff" stroke="#63b8ff" points="335.75,-154.32 325.37,-152.22 332.18,-160.34 335.75,-154.32"/>
</g>
<!-- Node32&#45;&gt;Node2 -->
<g id="edge50" class="edge">
<title>Node32&#45;&gt;Node2</title>
<path fill="none" stroke="#63b8ff" d="M871.15,-472.77C841.65,-430.73 772.98,-332.88 744.61,-292.46"/>
<polygon fill="#63b8ff" stroke="#63b8ff" points="747.65,-290.7 739.04,-284.53 741.92,-294.72 747.65,-290.7"/>
</g>
<!-- Node32&#45;&gt;Node7 -->
<g id="edge51" class="edge">
<title>Node32&#45;&gt;Node7</title>
<path fill="none" stroke="#63b8ff" d="M943.26,-486.44C1070.91,-471.55 1364,-427.86 1364,-340.5 1364,-340.5 1364,-340.5 1364,-272.5 1364,-237.11 1350.87,-198.4 1340.04,-172.51"/>
<polygon fill="#63b8ff" stroke="#63b8ff" points="1343.38,-171.41 1336.19,-163.63 1336.96,-174.2 1343.38,-171.41"/>
</g>
<!-- Node33 -->
<g id="node33" class="node">
<title>Node33</title>
<g id="a_node33"><a xlink:href="_motor__control__state_8h.html" target="_top" xlink:title="Clase de estado de control del motor.">
<polygon fill="white" stroke="#666666" points="986,-437 870,-437 870,-396 986,-396 986,-437"/>
<text text-anchor="start" x="878" y="-425" font-family="Helvetica,sans-Serif" font-size="10.00">machine_state_pattern</text>
<text text-anchor="start" x="878" y="-414" font-family="Helvetica,sans-Serif" font-size="10.00">/machine_states/Motor</text>
<text text-anchor="middle" x="928" y="-403" font-family="Helvetica,sans-Serif" font-size="10.00">_control_state.h</text>
</a>
</g>
</g>
<!-- Node32&#45;&gt;Node33 -->
<g id="edge52" class="edge">
<title>Node32&#45;&gt;Node33</title>
<path fill="none" stroke="#63b8ff" d="M890.27,-472.79C894.13,-464.85 899.29,-455.51 904.6,-446.8"/>
<polygon fill="#63b8ff" stroke="#63b8ff" points="907.39,-448.93 909.78,-438.61 901.48,-445.19 907.39,-448.93"/>
</g>
<!-- Node34 -->
<g id="node34" class="node">
<title>Node34</title>
<g id="a_node34"><a xlink:href="_check__instruction__state_8h_source.html" target="_top" xlink:title=" ">
<polygon fill="white" stroke="#666666" points="926.5,-360 807.5,-360 807.5,-319 926.5,-319 926.5,-360"/>
<text text-anchor="start" x="815.5" y="-348" font-family="Helvetica,sans-Serif" font-size="10.00">machine_state_pattern</text>
<text text-anchor="start" x="815.5" y="-337" font-family="Helvetica,sans-Serif" font-size="10.00">/machine_states/Check</text>
<text text-anchor="middle" x="867" y="-326" font-family="Helvetica,sans-Serif" font-size="10.00">_instruction_state.h</text>
</a>
</g>
</g>
<!-- Node32&#45;&gt;Node34 -->
<g id="edge60" class="edge">
<title>Node32&#45;&gt;Node34</title>
<path fill="none" stroke="#63b8ff" d="M874.04,-472.6C868.99,-462.3 863.55,-449.34 861,-437 856.54,-415.46 858.22,-390.68 860.92,-371.63"/>
<polygon fill="#63b8ff" stroke="#63b8ff" points="864.37,-372.23 862.5,-361.8 857.46,-371.12 864.37,-372.23"/>
</g>
<!-- Node33&#45;&gt;Node2 -->
<g id="edge53" class="edge">
<title>Node33&#45;&gt;Node2</title>
<path fill="none" stroke="#63b8ff" d="M936.61,-395.77C944.44,-374.44 952.37,-340.59 935,-319 917.09,-296.74 843.64,-284.99 790.23,-279.27"/>
<polygon fill="#63b8ff" stroke="#63b8ff" points="790.64,-275.79 780.33,-278.26 789.93,-282.75 790.64,-275.79"/>
</g>
<!-- Node33&#45;&gt;Node7 -->
<g id="edge54" class="edge">
<title>Node33&#45;&gt;Node7</title>
<path fill="none" stroke="#63b8ff" d="M986.44,-401.56C1067.93,-379.07 1214.82,-326.95 1296,-228 1308.79,-212.41 1316.29,-191 1320.6,-173.5"/>
<polygon fill="#63b8ff" stroke="#63b8ff" points="1323.98,-174.4 1322.71,-163.88 1317.15,-172.9 1323.98,-174.4"/>
</g>
<!-- Node33&#45;&gt;Node32 -->
<g id="edge55" class="edge">
<title>Node33&#45;&gt;Node32</title>
<path fill="none" stroke="#63b8ff" d="M922.66,-437.33C918.79,-445.3 913.63,-454.63 908.32,-463.34"/>
<polygon fill="#63b8ff" stroke="#63b8ff" points="905.53,-461.2 903.13,-471.52 911.44,-464.95 905.53,-461.2"/>
</g>
<!-- Node33&#45;&gt;Node34 -->
<g id="edge56" class="edge">
<title>Node33&#45;&gt;Node34</title>
<path fill="none" stroke="#63b8ff" d="M905.95,-395.79C898.71,-387.76 890.83,-378.31 884.01,-369.52"/>
<polygon fill="#63b8ff" stroke="#63b8ff" points="886.82,-367.43 878.01,-361.54 881.22,-371.64 886.82,-367.43"/>
</g>
<!-- Node34&#45;&gt;Node2 -->
<g id="edge57" class="edge">
<title>Node34&#45;&gt;Node2</title>
<path fill="none" stroke="#63b8ff" d="M825.03,-318.6C804.19,-308.72 779.55,-297.04 760.87,-288.19"/>
<polygon fill="#63b8ff" stroke="#63b8ff" points="762.53,-285.1 751.99,-283.98 759.53,-291.43 762.53,-285.1"/>
</g>
<!-- Node34&#45;&gt;Node7 -->
<g id="edge58" class="edge">
<title>Node34&#45;&gt;Node7</title>
<path fill="none" stroke="#63b8ff" d="M926.78,-335.02C1010.57,-327.46 1164.41,-303.54 1269,-228 1288.46,-213.94 1303.22,-191.03 1312.83,-172.47"/>
<polygon fill="#63b8ff" stroke="#63b8ff" points="1315.97,-174.01 1317.23,-163.5 1309.69,-170.93 1315.97,-174.01"/>
</g>
<!-- Node34&#45;&gt;Node33 -->
<g id="edge59" class="edge">
<title>Node34&#45;&gt;Node33</title>
<path fill="none" stroke="#63b8ff" d="M889.17,-360.33C896.41,-368.38 904.29,-377.83 911.1,-386.62"/>
<polygon fill="#63b8ff" stroke="#63b8ff" points="908.28,-388.69 917.09,-394.58 913.88,-384.49 908.28,-388.69"/>
</g>
</g>
</svg>
