<?xml version="1.0" encoding="UTF-8" standalone="no"?>
<!DOCTYPE svg PUBLIC "-//W3C//DTD SVG 1.1//EN"
 "http://www.w3.org/Graphics/SVG/1.1/DTD/svg11.dtd">
<!-- Generated by graphviz version 7.0.2 (20221119.0110)
 -->
<!-- Title: C:/Users/juanh/OneDrive/Escritorio/Facultad/Beca/Proyecto/LAL Control Arduino/include/machine_state_pattern/machine_states/Shutdown_state.h Pages: 1 -->
<svg width="1656pt" height="434pt"
 viewBox="0.00 0.00 1655.56 434.00" xmlns="http://www.w3.org/2000/svg" xmlns:xlink="http://www.w3.org/1999/xlink">
<g id="graph0" class="graph" transform="scale(1 1) rotate(0) translate(4 430)">
<title>C:/Users/juanh/OneDrive/Escritorio/Facultad/Beca/Proyecto/LAL Control Arduino/include/machine_state_pattern/machine_states/Shutdown_state.h</title>
<!-- Node1 -->
<g id="node1" class="node">
<title>Node1</title>
<g id="a_node1"><a xlink:title="Clase de estado de apagado del sistema.">
<polygon fill="#999999" stroke="#666666" points="944,-426 774,-426 774,-363 944,-363 944,-426"/>
<text text-anchor="start" x="782" y="-414" font-family="Helvetica,sans-Serif" font-size="10.00">C:/Users/juanh/OneDrive</text>
<text text-anchor="start" x="782" y="-403" font-family="Helvetica,sans-Serif" font-size="10.00">/Escritorio/Facultad/Beca</text>
<text text-anchor="start" x="782" y="-392" font-family="Helvetica,sans-Serif" font-size="10.00">/Proyecto/LAL Control Arduino</text>
<text text-anchor="start" x="782" y="-381" font-family="Helvetica,sans-Serif" font-size="10.00">/include/machine_state_pattern</text>
<text text-anchor="middle" x="859" y="-370" font-family="Helvetica,sans-Serif" font-size="10.00">/machine_states/Shutdown_state.h</text>
</a>
</g>
</g>
<!-- Node2 -->
<g id="node2" class="node">
<title>Node2</title>
<g id="a_node2"><a xlink:href="_control__system_8h.html" target="_top" xlink:title="Clase para el sistema de control.">
<polygon fill="white" stroke="#666666" points="905.5,-327 812.5,-327 812.5,-308 905.5,-308 905.5,-327"/>
<text text-anchor="middle" x="859" y="-315" font-family="Helvetica,sans-Serif" font-size="10.00">Control_system.h</text>
</a>
</g>
</g>
<!-- Node1&#45;&gt;Node2 -->
<g id="edge1" class="edge">
<title>Node1&#45;&gt;Node2</title>
<path fill="none" stroke="#63b8ff" d="M852.34,-362.56C852.11,-354.49 852.31,-346.01 852.94,-338.66"/>
<polygon fill="#63b8ff" stroke="#63b8ff" points="856.4,-339.2 854.26,-328.82 849.46,-338.27 856.4,-339.2"/>
</g>
<!-- Node7 -->
<g id="node7" class="node">
<title>Node7</title>
<g id="a_node7"><a xlink:href="_abstract__state_8h.html" target="_top" xlink:title="Clase de estado abstracta.">
<polygon fill="white" stroke="#666666" points="246,-41 118,-41 118,0 246,0 246,-41"/>
<text text-anchor="start" x="126" y="-29" font-family="Helvetica,sans-Serif" font-size="10.00">machine_state_pattern</text>
<text text-anchor="start" x="126" y="-18" font-family="Helvetica,sans-Serif" font-size="10.00">/machine_states/Abstract</text>
<text text-anchor="middle" x="182" y="-7" font-family="Helvetica,sans-Serif" font-size="10.00">_state.h</text>
</a>
</g>
</g>
<!-- Node1&#45;&gt;Node7 -->
<g id="edge51" class="edge">
<title>Node1&#45;&gt;Node7</title>
<path fill="none" stroke="#63b8ff" d="M944.13,-387.06C1147.35,-370.55 1644,-322.99 1644,-252.5 1644,-252.5 1644,-252.5 1644,-173.5 1644,-129.79 1658.22,-105.41 1625,-77 1572.67,-32.26 547.47,-23.44 257.7,-21.83"/>
<polygon fill="#63b8ff" stroke="#63b8ff" points="258.01,-18.33 247.99,-21.78 257.97,-25.33 258.01,-18.33"/>
</g>
<!-- Node31 -->
<g id="node31" class="node">
<title>Node31</title>
<g id="a_node31"><a xlink:href="_idle__state_8h.html" target="_top" xlink:title="Clase de estado de reposo.">
<polygon fill="white" stroke="#666666" points="116,-118 0,-118 0,-77 116,-77 116,-118"/>
<text text-anchor="start" x="8" y="-106" font-family="Helvetica,sans-Serif" font-size="10.00">machine_state_pattern</text>
<text text-anchor="start" x="8" y="-95" font-family="Helvetica,sans-Serif" font-size="10.00">/machine_states/Idle</text>
<text text-anchor="middle" x="58" y="-84" font-family="Helvetica,sans-Serif" font-size="10.00">_state.h</text>
</a>
</g>
</g>
<!-- Node1&#45;&gt;Node31 -->
<g id="edge52" class="edge">
<title>Node1&#45;&gt;Node31</title>
<path fill="none" stroke="#63b8ff" d="M773.63,-390.73C590.07,-383.21 165.36,-356.86 53,-272 9.35,-239.03 1.2,-206.06 18,-154 21.04,-144.58 26.35,-135.4 32.11,-127.32"/>
<polygon fill="#63b8ff" stroke="#63b8ff" points="34.75,-129.64 38.07,-119.58 29.2,-125.37 34.75,-129.64"/>
</g>
<!-- Node2&#45;&gt;Node1 -->
<g id="edge40" class="edge">
<title>Node2&#45;&gt;Node1</title>
<path fill="none" stroke="#63b8ff" d="M863.54,-327.32C864.79,-333.43 865.51,-342.07 865.7,-351.09"/>
<polygon fill="#63b8ff" stroke="#63b8ff" points="862.2,-351.04 865.66,-361.05 869.2,-351.06 862.2,-351.04"/>
</g>
<!-- Node3 -->
<g id="node3" class="node">
<title>Node3</title>
<g id="a_node3"><a xlink:href="_subject_8h.html" target="_top" xlink:title=" ">
<polygon fill="white" stroke="#666666" points="1554,-189.5 1426,-189.5 1426,-159.5 1554,-159.5 1554,-189.5"/>
<text text-anchor="start" x="1434" y="-177.5" font-family="Helvetica,sans-Serif" font-size="10.00">observer_pattern/subjects</text>
<text text-anchor="middle" x="1490" y="-166.5" font-family="Helvetica,sans-Serif" font-size="10.00">/Subject.h</text>
</a>
</g>
</g>
<!-- Node2&#45;&gt;Node3 -->
<g id="edge2" class="edge">
<title>Node2&#45;&gt;Node3</title>
<path fill="none" stroke="#63b8ff" d="M906,-316.97C1050.8,-317.94 1482.9,-317.01 1525,-272 1544.09,-251.59 1526.66,-219.98 1510.29,-198.55"/>
<polygon fill="#63b8ff" stroke="#63b8ff" points="1513.17,-196.54 1504.17,-190.95 1507.72,-200.93 1513.17,-196.54"/>
</g>
<!-- Node6 -->
<g id="node6" class="node">
<title>Node6</title>
<g id="a_node6"><a xlink:href="_machine_8h.html" target="_top" xlink:title="Clase de máquina abstracta.">
<polygon fill="white" stroke="#666666" points="1616,-112.5 1500,-112.5 1500,-82.5 1616,-82.5 1616,-112.5"/>
<text text-anchor="start" x="1508" y="-100.5" font-family="Helvetica,sans-Serif" font-size="10.00">machine_state_pattern</text>
<text text-anchor="middle" x="1558" y="-89.5" font-family="Helvetica,sans-Serif" font-size="10.00">/Machine.h</text>
</a>
</g>
</g>
<!-- Node2&#45;&gt;Node6 -->
<g id="edge5" class="edge">
<title>Node2&#45;&gt;Node6</title>
<path fill="none" stroke="#63b8ff" d="M905.76,-316.57C1052.04,-316.38 1494.1,-312.42 1543,-272 1585.76,-236.65 1574.92,-162.82 1565.36,-123.85"/>
<polygon fill="#63b8ff" stroke="#63b8ff" points="1568.81,-123.2 1562.88,-114.42 1562.04,-124.98 1568.81,-123.2"/>
</g>
<!-- Node8 -->
<g id="node8" class="node">
<title>Node8</title>
<g id="a_node8"><a xlink:href="_display_8h.html" target="_top" xlink:title="Controlador de LCD hd44780 por interfaz I2C.">
<polygon fill="white" stroke="#666666" points="530,-261 442,-261 442,-242 530,-242 530,-261"/>
<text text-anchor="middle" x="486" y="-249" font-family="Helvetica,sans-Serif" font-size="10.00">drivers/Display.h</text>
</a>
</g>
</g>
<!-- Node2&#45;&gt;Node8 -->
<g id="edge7" class="edge">
<title>Node2&#45;&gt;Node8</title>
<path fill="none" stroke="#63b8ff" d="M812.07,-312.59C750.08,-306.81 637.79,-294.19 544,-272 536.22,-270.16 528,-267.72 520.28,-265.18"/>
<polygon fill="#63b8ff" stroke="#63b8ff" points="521.45,-261.88 510.85,-261.96 519.18,-268.51 521.45,-261.88"/>
</g>
<!-- Node14 -->
<g id="node14" class="node">
<title>Node14</title>
<g id="a_node14"><a xlink:href="user__messages_8h.html" target="_top" xlink:title="Archivo para la configuración de interfaz con el usuario.">
<polygon fill="white" stroke="#666666" points="1366,-261 1272,-261 1272,-242 1366,-242 1366,-261"/>
<text text-anchor="middle" x="1319" y="-249" font-family="Helvetica,sans-Serif" font-size="10.00">user_messages.h</text>
</a>
</g>
</g>
<!-- Node2&#45;&gt;Node14 -->
<g id="edge13" class="edge">
<title>Node2&#45;&gt;Node14</title>
<path fill="none" stroke="#63b8ff" d="M905.92,-314.76C981.81,-311.18 1135.85,-300.75 1263,-272 1270.69,-270.26 1278.79,-267.82 1286.37,-265.25"/>
<polygon fill="#63b8ff" stroke="#63b8ff" points="1287.32,-268.62 1295.57,-261.96 1284.97,-262.03 1287.32,-268.62"/>
</g>
<!-- Node16 -->
<g id="node16" class="node">
<title>Node16</title>
<g id="a_node16"><a xlink:href="_system__observer_8h.html" target="_top" xlink:title="Clase observador del sistema de control.">
<polygon fill="white" stroke="#666666" points="1516,-266.5 1384,-266.5 1384,-236.5 1516,-236.5 1516,-266.5"/>
<text text-anchor="start" x="1392" y="-254.5" font-family="Helvetica,sans-Serif" font-size="10.00">observer_pattern/observers</text>
<text text-anchor="middle" x="1450" y="-243.5" font-family="Helvetica,sans-Serif" font-size="10.00">/System_observer.h</text>
</a>
</g>
</g>
<!-- Node2&#45;&gt;Node16 -->
<g id="edge15" class="edge">
<title>Node2&#45;&gt;Node16</title>
<path fill="none" stroke="#63b8ff" d="M905.67,-314.91C995.48,-311.41 1197.85,-300.9 1366,-272 1370.28,-271.26 1374.67,-270.41 1379.1,-269.46"/>
<polygon fill="#63b8ff" stroke="#63b8ff" points="1379.66,-272.92 1388.65,-267.31 1378.12,-266.1 1379.66,-272.92"/>
</g>
<!-- Node18 -->
<g id="node18" class="node">
<title>Node18</title>
<g id="a_node18"><a xlink:href="_temperature__sensor_8h.html" target="_top" xlink:title="Controlador para sensor de temperatura DS18B20.">
<polygon fill="white" stroke="#666666" points="654.5,-266.5 553.5,-266.5 553.5,-236.5 654.5,-236.5 654.5,-266.5"/>
<text text-anchor="start" x="561.5" y="-254.5" font-family="Helvetica,sans-Serif" font-size="10.00">drivers/Temperature</text>
<text text-anchor="middle" x="604" y="-243.5" font-family="Helvetica,sans-Serif" font-size="10.00">_sensor.h</text>
</a>
</g>
</g>
<!-- Node2&#45;&gt;Node18 -->
<g id="edge20" class="edge">
<title>Node2&#45;&gt;Node18</title>
<path fill="none" stroke="#63b8ff" d="M813.93,-307.55C774.01,-299.32 714.27,-286.26 663,-272 661.02,-271.45 659.01,-270.87 656.98,-270.28"/>
<polygon fill="#63b8ff" stroke="#63b8ff" points="658.1,-266.96 647.52,-267.39 656.06,-273.66 658.1,-266.96"/>
</g>
<!-- Node21 -->
<g id="node21" class="node">
<title>Node21</title>
<g id="a_node21"><a xlink:href="_moisture__sensor_8h.html" target="_top" xlink:title="Controlador de sensor de humedad analógico.">
<polygon fill="white" stroke="#666666" points="1052,-261 924,-261 924,-242 1052,-242 1052,-261"/>
<text text-anchor="middle" x="988" y="-249" font-family="Helvetica,sans-Serif" font-size="10.00">drivers/Moisture_sensor.h</text>
</a>
</g>
</g>
<!-- Node2&#45;&gt;Node21 -->
<g id="edge24" class="edge">
<title>Node2&#45;&gt;Node21</title>
<path fill="none" stroke="#63b8ff" d="M876.94,-307.6C898.5,-296.9 934.94,-278.83 960.17,-266.31"/>
<polygon fill="#63b8ff" stroke="#63b8ff" points="961.46,-269.58 968.86,-262 958.35,-263.31 961.46,-269.58"/>
</g>
<!-- Node23 -->
<g id="node23" class="node">
<title>Node23</title>
<g id="a_node23"><a xlink:href="types_8h.html" target="_top" xlink:title="Archivo de definición de tipos de dato.">
<polygon fill="white" stroke="#666666" points="979.5,-184 930.5,-184 930.5,-165 979.5,-165 979.5,-184"/>
<text text-anchor="middle" x="955" y="-172" font-family="Helvetica,sans-Serif" font-size="10.00">types.h</text>
</a>
</g>
</g>
<!-- Node2&#45;&gt;Node23 -->
<g id="edge26" class="edge">
<title>Node2&#45;&gt;Node23</title>
<path fill="none" stroke="#63b8ff" d="M841,-307.57C828.07,-300.05 811.62,-287.96 804,-272 796.15,-255.55 793.16,-245.64 804,-231 836.63,-186.93 871.82,-217.1 922,-195 925.24,-193.57 928.57,-191.89 931.8,-190.13"/>
<polygon fill="#63b8ff" stroke="#63b8ff" points="933.4,-193.24 940.27,-185.18 929.87,-187.2 933.4,-193.24"/>
</g>
<!-- Node24 -->
<g id="node24" class="node">
<title>Node24</title>
<g id="a_node24"><a xlink:href="_buzzer_8h.html" target="_top" xlink:title="Controlador de Buzzer de 12 milimetros.">
<polygon fill="white" stroke="#666666" points="1156,-261 1070,-261 1070,-242 1156,-242 1156,-261"/>
<text text-anchor="middle" x="1113" y="-249" font-family="Helvetica,sans-Serif" font-size="10.00">drivers/Buzzer.h</text>
</a>
</g>
</g>
<!-- Node2&#45;&gt;Node24 -->
<g id="edge27" class="edge">
<title>Node2&#45;&gt;Node24</title>
<path fill="none" stroke="#63b8ff" d="M905.61,-308.18C946.86,-300.36 1008.49,-287.54 1061,-272 1067.46,-270.09 1074.26,-267.77 1080.74,-265.41"/>
<polygon fill="#63b8ff" stroke="#63b8ff" points="1081.68,-268.79 1089.81,-261.99 1079.21,-262.24 1081.68,-268.79"/>
</g>
<!-- Node26 -->
<g id="node26" class="node">
<title>Node26</title>
<g id="a_node26"><a xlink:href="_motor_8h.html" target="_top" xlink:title="Controlador de motor de 220 VAC.">
<polygon fill="white" stroke="#666666" points="1254,-261 1174,-261 1174,-242 1254,-242 1254,-261"/>
<text text-anchor="middle" x="1214" y="-249" font-family="Helvetica,sans-Serif" font-size="10.00">drivers/Motor.h</text>
</a>
</g>
</g>
<!-- Node2&#45;&gt;Node26 -->
<g id="edge30" class="edge">
<title>Node2&#45;&gt;Node26</title>
<path fill="none" stroke="#63b8ff" d="M905.82,-313.12C966.46,-307.96 1075.03,-296.09 1165,-272 1171.46,-270.27 1178.22,-267.94 1184.59,-265.49"/>
<polygon fill="#63b8ff" stroke="#63b8ff" points="1185.45,-268.92 1193.4,-261.92 1182.82,-262.43 1185.45,-268.92"/>
</g>
<!-- Node27 -->
<g id="node27" class="node">
<title>Node27</title>
<g id="a_node27"><a xlink:href="_dual___l_e_d_8h.html" target="_top" xlink:title="Controlador de LED RG.">
<polygon fill="white" stroke="#666666" points="905.5,-261 812.5,-261 812.5,-242 905.5,-242 905.5,-261"/>
<text text-anchor="middle" x="859" y="-249" font-family="Helvetica,sans-Serif" font-size="10.00">drivers/Dual_led.h</text>
</a>
</g>
</g>
<!-- Node2&#45;&gt;Node27 -->
<g id="edge33" class="edge">
<title>Node2&#45;&gt;Node27</title>
<path fill="none" stroke="#63b8ff" d="M859,-307.6C859,-298.62 859,-284.45 859,-272.72"/>
<polygon fill="#63b8ff" stroke="#63b8ff" points="862.5,-272.84 859,-262.84 855.5,-272.84 862.5,-272.84"/>
</g>
<!-- Node28 -->
<g id="node28" class="node">
<title>Node28</title>
<g id="a_node28"><a xlink:href="_cooler_8h.html" target="_top" xlink:title="Controlador de ventilador de 12 volts y 5 milímteros.">
<polygon fill="white" stroke="#666666" points="755.5,-261 672.5,-261 672.5,-242 755.5,-242 755.5,-261"/>
<text text-anchor="middle" x="714" y="-249" font-family="Helvetica,sans-Serif" font-size="10.00">drivers/Cooler.h</text>
</a>
</g>
</g>
<!-- Node2&#45;&gt;Node28 -->
<g id="edge37" class="edge">
<title>Node2&#45;&gt;Node28</title>
<path fill="none" stroke="#63b8ff" d="M838.84,-307.6C814.27,-296.76 772.54,-278.34 744.15,-265.81"/>
<polygon fill="#63b8ff" stroke="#63b8ff" points="745.94,-262.77 735.38,-261.93 743.11,-269.17 745.94,-262.77"/>
</g>
<!-- Node29 -->
<g id="node29" class="node">
<title>Node29</title>
<g id="a_node29"><a xlink:href="_check__instruction__state_8h_source.html" target="_top" xlink:title=" ">
<polygon fill="white" stroke="#666666" points="379.5,-272 260.5,-272 260.5,-231 379.5,-231 379.5,-272"/>
<text text-anchor="start" x="268.5" y="-260" font-family="Helvetica,sans-Serif" font-size="10.00">machine_state_pattern</text>
<text text-anchor="start" x="268.5" y="-249" font-family="Helvetica,sans-Serif" font-size="10.00">/machine_states/Check</text>
<text text-anchor="middle" x="320" y="-238" font-family="Helvetica,sans-Serif" font-size="10.00">_instruction_state.h</text>
</a>
</g>
</g>
<!-- Node2&#45;&gt;Node29 -->
<g id="edge41" class="edge">
<title>Node2&#45;&gt;Node29</title>
<path fill="none" stroke="#63b8ff" d="M812.19,-313.09C732.14,-306.62 564.5,-291.44 424,-272 413.32,-270.52 402.09,-268.8 391.12,-266.99"/>
<polygon fill="#63b8ff" stroke="#63b8ff" points="391.75,-263.55 381.31,-265.34 390.59,-270.45 391.75,-263.55"/>
</g>
<!-- Node4 -->
<g id="node4" class="node">
<title>Node4</title>
<g id="a_node4"><a xlink:href="_subject__interface_8h.html" target="_top" xlink:title="Clase para interfaz para implementar el sujeto.">
<polygon fill="white" stroke="#666666" points="1482,-112.5 1354,-112.5 1354,-82.5 1482,-82.5 1482,-112.5"/>
<text text-anchor="start" x="1362" y="-100.5" font-family="Helvetica,sans-Serif" font-size="10.00">observer_pattern/subjects</text>
<text text-anchor="middle" x="1418" y="-89.5" font-family="Helvetica,sans-Serif" font-size="10.00">/Subject_interface.h</text>
</a>
</g>
</g>
<!-- Node3&#45;&gt;Node4 -->
<g id="edge3" class="edge">
<title>Node3&#45;&gt;Node4</title>
<path fill="none" stroke="#63b8ff" d="M1476.12,-159.04C1465.76,-148.25 1451.41,-133.3 1439.56,-120.96"/>
<polygon fill="#63b8ff" stroke="#63b8ff" points="1442.34,-118.8 1432.89,-114.01 1437.29,-123.65 1442.34,-118.8"/>
</g>
<!-- Node5 -->
<g id="node5" class="node">
<title>Node5</title>
<g id="a_node5"><a xlink:href="_observer__interface_8h.html" target="_top" xlink:title="Clase para interfaz para implementar el observador.">
<polygon fill="white" stroke="#666666" points="1336,-112.5 1204,-112.5 1204,-82.5 1336,-82.5 1336,-112.5"/>
<text text-anchor="start" x="1212" y="-100.5" font-family="Helvetica,sans-Serif" font-size="10.00">observer_pattern/observers</text>
<text text-anchor="middle" x="1270" y="-89.5" font-family="Helvetica,sans-Serif" font-size="10.00">/Observer_interface.h</text>
</a>
</g>
</g>
<!-- Node3&#45;&gt;Node5 -->
<g id="edge4" class="edge">
<title>Node3&#45;&gt;Node5</title>
<path fill="none" stroke="#63b8ff" d="M1447.58,-159.04C1411.97,-146.9 1360.94,-129.5 1322.71,-116.47"/>
<polygon fill="#63b8ff" stroke="#63b8ff" points="1324.32,-113.32 1313.72,-113.4 1322.06,-119.94 1324.32,-113.32"/>
</g>
<!-- Node6&#45;&gt;Node7 -->
<g id="edge6" class="edge">
<title>Node6&#45;&gt;Node7</title>
<path fill="none" stroke="#63b8ff" d="M1514.02,-82.07C1506.41,-80.05 1498.53,-78.24 1491,-77 1251.12,-37.6 499.24,-25.3 257.59,-22.32"/>
<polygon fill="#63b8ff" stroke="#63b8ff" points="257.69,-18.82 247.65,-22.2 257.61,-25.82 257.69,-18.82"/>
</g>
<!-- Node9 -->
<g id="node9" class="node">
<title>Node9</title>
<g id="a_node9"><a xlink:title=" ">
<polygon fill="#e0e0e0" stroke="#999999" points="591.5,-184 546.5,-184 546.5,-165 591.5,-165 591.5,-184"/>
<text text-anchor="middle" x="569" y="-172" font-family="Helvetica,sans-Serif" font-size="10.00">Wire.h</text>
</a>
</g>
</g>
<!-- Node8&#45;&gt;Node9 -->
<g id="edge8" class="edge">
<title>Node8&#45;&gt;Node9</title>
<path fill="none" stroke="#63b8ff" d="M495.85,-241.6C509.33,-229.42 533.77,-207.33 550.67,-192.06"/>
<polygon fill="#63b8ff" stroke="#63b8ff" points="552.97,-194.7 558.04,-185.4 548.28,-189.51 552.97,-194.7"/>
</g>
<!-- Node10 -->
<g id="node10" class="node">
<title>Node10</title>
<g id="a_node10"><a xlink:title=" ">
<polygon fill="#e0e0e0" stroke="#999999" points="272,-184 210,-184 210,-165 272,-165 272,-184"/>
<text text-anchor="middle" x="241" y="-172" font-family="Helvetica,sans-Serif" font-size="10.00">hd44780.h</text>
</a>
</g>
</g>
<!-- Node8&#45;&gt;Node10 -->
<g id="edge9" class="edge">
<title>Node8&#45;&gt;Node10</title>
<path fill="none" stroke="#63b8ff" d="M443.65,-241.51C401.68,-232.02 335.89,-215.6 281,-195 276.65,-193.37 272.13,-191.42 267.77,-189.41"/>
<polygon fill="#63b8ff" stroke="#63b8ff" points="269.31,-186.27 258.79,-185.04 266.25,-192.56 269.31,-186.27"/>
</g>
<!-- Node11 -->
<g id="node11" class="node">
<title>Node11</title>
<g id="a_node11"><a xlink:title=" ">
<polygon fill="#e0e0e0" stroke="#999999" points="415.5,-189.5 290.5,-189.5 290.5,-159.5 415.5,-159.5 415.5,-189.5"/>
<text text-anchor="start" x="298.5" y="-177.5" font-family="Helvetica,sans-Serif" font-size="10.00">hd44780ioClass/hd44780</text>
<text text-anchor="middle" x="353" y="-166.5" font-family="Helvetica,sans-Serif" font-size="10.00">_I2Cexp.h</text>
</a>
</g>
</g>
<!-- Node8&#45;&gt;Node11 -->
<g id="edge10" class="edge">
<title>Node8&#45;&gt;Node11</title>
<path fill="none" stroke="#63b8ff" d="M470.22,-241.6C450.09,-230.25 414.68,-210.28 388.03,-195.25"/>
<polygon fill="#63b8ff" stroke="#63b8ff" points="390.05,-192.37 379.62,-190.51 386.61,-198.47 390.05,-192.37"/>
</g>
<!-- Node12 -->
<g id="node12" class="node">
<title>Node12</title>
<g id="a_node12"><a xlink:href="display__settings_8h.html" target="_top" xlink:title="Archivo de configuración de la pantalla.">
<polygon fill="white" stroke="#666666" points="528.5,-184 433.5,-184 433.5,-165 528.5,-165 528.5,-184"/>
<text text-anchor="middle" x="481" y="-172" font-family="Helvetica,sans-Serif" font-size="10.00">display_settings.h</text>
</a>
</g>
</g>
<!-- Node8&#45;&gt;Node12 -->
<g id="edge11" class="edge">
<title>Node8&#45;&gt;Node12</title>
<path fill="none" stroke="#63b8ff" d="M485.41,-241.6C484.66,-230.33 483.34,-210.55 482.34,-195.56"/>
<polygon fill="#63b8ff" stroke="#63b8ff" points="485.85,-195.64 481.69,-185.9 478.87,-196.11 485.85,-195.64"/>
</g>
<!-- Node13 -->
<g id="node13" class="node">
<title>Node13</title>
<g id="a_node13"><a xlink:href="system__settings_8h.html" target="_top" xlink:title="Archivo para la definición de constantes del sistema.">
<polygon fill="white" stroke="#666666" points="912.5,-184 815.5,-184 815.5,-165 912.5,-165 912.5,-184"/>
<text text-anchor="middle" x="864" y="-172" font-family="Helvetica,sans-Serif" font-size="10.00">system_settings.h</text>
</a>
</g>
</g>
<!-- Node8&#45;&gt;Node13 -->
<g id="edge12" class="edge">
<title>Node8&#45;&gt;Node13</title>
<path fill="none" stroke="#63b8ff" d="M509.41,-241.51C519.87,-237.79 532.42,-233.71 544,-231 658.87,-204.08 692.2,-222.22 807,-195 814.73,-193.17 822.88,-190.71 830.54,-188.15"/>
<polygon fill="#63b8ff" stroke="#63b8ff" points="831.56,-191.5 839.85,-184.9 829.25,-184.89 831.56,-191.5"/>
</g>
<!-- Node15 -->
<g id="node15" class="node">
<title>Node15</title>
<g id="a_node15"><a xlink:title=" ">
<polygon fill="#e0e0e0" stroke="#999999" points="1257.5,-184 1172.5,-184 1172.5,-165 1257.5,-165 1257.5,-184"/>
<text text-anchor="middle" x="1215" y="-172" font-family="Helvetica,sans-Serif" font-size="10.00">avr/pgmspace.h</text>
</a>
</g>
</g>
<!-- Node14&#45;&gt;Node15 -->
<g id="edge14" class="edge">
<title>Node14&#45;&gt;Node15</title>
<path fill="none" stroke="#63b8ff" d="M1306.66,-241.6C1289.38,-229.14 1257.72,-206.31 1236.51,-191.01"/>
<polygon fill="#63b8ff" stroke="#63b8ff" points="1238.71,-188.28 1228.55,-185.27 1234.61,-193.96 1238.71,-188.28"/>
</g>
<!-- Node16&#45;&gt;Node2 -->
<g id="edge19" class="edge">
<title>Node16&#45;&gt;Node2</title>
<path fill="none" stroke="#63b8ff" d="M1407.9,-266.98C1400.02,-268.9 1391.82,-270.66 1384,-272 1216.24,-300.83 1014.43,-311.36 917.02,-314.88"/>
<polygon fill="#63b8ff" stroke="#63b8ff" points="917.06,-311.38 907.18,-315.23 917.3,-318.38 917.06,-311.38"/>
</g>
<!-- Node17 -->
<g id="node17" class="node">
<title>Node17</title>
<g id="a_node17"><a xlink:href="_observer_8h.html" target="_top" xlink:title="Clase observador.">
<polygon fill="white" stroke="#666666" points="1408,-189.5 1276,-189.5 1276,-159.5 1408,-159.5 1408,-189.5"/>
<text text-anchor="start" x="1284" y="-177.5" font-family="Helvetica,sans-Serif" font-size="10.00">observer_pattern/observers</text>
<text text-anchor="middle" x="1342" y="-166.5" font-family="Helvetica,sans-Serif" font-size="10.00">/Observer.h</text>
</a>
</g>
</g>
<!-- Node16&#45;&gt;Node17 -->
<g id="edge16" class="edge">
<title>Node16&#45;&gt;Node17</title>
<path fill="none" stroke="#63b8ff" d="M1429.18,-236.04C1412.97,-224.78 1390.24,-209 1372.06,-196.37"/>
<polygon fill="#63b8ff" stroke="#63b8ff" points="1374.21,-193.61 1364,-190.78 1370.22,-199.36 1374.21,-193.61"/>
</g>
<!-- Node17&#45;&gt;Node4 -->
<g id="edge17" class="edge">
<title>Node17&#45;&gt;Node4</title>
<path fill="none" stroke="#63b8ff" d="M1356.65,-159.04C1367.59,-148.25 1382.73,-133.3 1395.24,-120.96"/>
<polygon fill="#63b8ff" stroke="#63b8ff" points="1397.65,-123.49 1402.31,-113.98 1392.74,-118.51 1397.65,-123.49"/>
</g>
<!-- Node17&#45;&gt;Node5 -->
<g id="edge18" class="edge">
<title>Node17&#45;&gt;Node5</title>
<path fill="none" stroke="#63b8ff" d="M1328.12,-159.04C1317.76,-148.25 1303.41,-133.3 1291.56,-120.96"/>
<polygon fill="#63b8ff" stroke="#63b8ff" points="1294.34,-118.8 1284.89,-114.01 1289.29,-123.65 1294.34,-118.8"/>
</g>
<!-- Node18&#45;&gt;Node13 -->
<g id="edge21" class="edge">
<title>Node18&#45;&gt;Node13</title>
<path fill="none" stroke="#63b8ff" d="M646.42,-236.06C651.98,-234.29 657.61,-232.56 663,-231 726.36,-212.64 743.73,-213.69 807,-195 814.04,-192.92 821.51,-190.51 828.64,-188.12"/>
<polygon fill="#63b8ff" stroke="#63b8ff" points="829.7,-191.45 838.02,-184.9 827.43,-184.83 829.7,-191.45"/>
</g>
<!-- Node19 -->
<g id="node19" class="node">
<title>Node19</title>
<g id="a_node19"><a xlink:title=" ">
<polygon fill="#e0e0e0" stroke="#999999" points="797.5,-184 734.5,-184 734.5,-165 797.5,-165 797.5,-184"/>
<text text-anchor="middle" x="766" y="-172" font-family="Helvetica,sans-Serif" font-size="10.00">OneWire.h</text>
</a>
</g>
</g>
<!-- Node18&#45;&gt;Node19 -->
<g id="edge22" class="edge">
<title>Node18&#45;&gt;Node19</title>
<path fill="none" stroke="#63b8ff" d="M635.9,-236.01C660.33,-224.88 694.85,-209.08 725,-195 728.87,-193.19 732.94,-191.28 736.95,-189.38"/>
<polygon fill="#63b8ff" stroke="#63b8ff" points="738.35,-192.59 745.88,-185.14 735.35,-186.26 738.35,-192.59"/>
</g>
<!-- Node20 -->
<g id="node20" class="node">
<title>Node20</title>
<g id="a_node20"><a xlink:title=" ">
<polygon fill="#e0e0e0" stroke="#999999" points="716,-184 610,-184 610,-165 716,-165 716,-184"/>
<text text-anchor="middle" x="663" y="-172" font-family="Helvetica,sans-Serif" font-size="10.00">DallasTemperature.h</text>
</a>
</g>
</g>
<!-- Node18&#45;&gt;Node20 -->
<g id="edge23" class="edge">
<title>Node18&#45;&gt;Node20</title>
<path fill="none" stroke="#63b8ff" d="M615.38,-236.04C624.98,-223.83 638.77,-206.3 649.05,-193.24"/>
<polygon fill="#63b8ff" stroke="#63b8ff" points="651.72,-195.5 655.15,-185.48 646.22,-191.17 651.72,-195.5"/>
</g>
<!-- Node22 -->
<g id="node22" class="node">
<title>Node22</title>
<g id="a_node22"><a xlink:title=" ">
<polygon fill="#e0e0e0" stroke="#999999" points="1056,-184 998,-184 998,-165 1056,-165 1056,-184"/>
<text text-anchor="middle" x="1027" y="-172" font-family="Helvetica,sans-Serif" font-size="10.00">Arduino.h</text>
</a>
</g>
</g>
<!-- Node21&#45;&gt;Node22 -->
<g id="edge25" class="edge">
<title>Node21&#45;&gt;Node22</title>
<path fill="none" stroke="#63b8ff" d="M992.63,-241.6C998.67,-229.99 1009.39,-209.36 1017.26,-194.23"/>
<polygon fill="#63b8ff" stroke="#63b8ff" points="1020.17,-196.22 1021.68,-185.73 1013.96,-192.99 1020.17,-196.22"/>
</g>
<!-- Node24&#45;&gt;Node22 -->
<g id="edge28" class="edge">
<title>Node24&#45;&gt;Node22</title>
<path fill="none" stroke="#63b8ff" d="M1102.8,-241.6C1088.7,-229.31 1063.03,-206.92 1045.51,-191.64"/>
<polygon fill="#63b8ff" stroke="#63b8ff" points="1048.17,-189.32 1038.33,-185.38 1043.57,-194.59 1048.17,-189.32"/>
</g>
<!-- Node25 -->
<g id="node25" class="node">
<title>Node25</title>
<g id="a_node25"><a xlink:href="port__config_8h.html" target="_top" xlink:title="Archivo de configuración para los puertos de la placa donde se implementará el sistema.">
<polygon fill="white" stroke="#666666" points="1152,-184 1080,-184 1080,-165 1152,-165 1152,-184"/>
<text text-anchor="middle" x="1116" y="-172" font-family="Helvetica,sans-Serif" font-size="10.00">port_config.h</text>
</a>
</g>
</g>
<!-- Node24&#45;&gt;Node25 -->
<g id="edge29" class="edge">
<title>Node24&#45;&gt;Node25</title>
<path fill="none" stroke="#63b8ff" d="M1113.36,-241.6C1113.81,-230.33 1114.6,-210.55 1115.2,-195.56"/>
<polygon fill="#63b8ff" stroke="#63b8ff" points="1118.68,-196.03 1115.58,-185.9 1111.69,-195.75 1118.68,-196.03"/>
</g>
<!-- Node26&#45;&gt;Node22 -->
<g id="edge31" class="edge">
<title>Node26&#45;&gt;Node22</title>
<path fill="none" stroke="#63b8ff" d="M1191.58,-241.51C1183.25,-238.18 1173.7,-234.4 1165,-231 1123.33,-214.73 1112.35,-212.07 1071,-195 1066.48,-193.14 1061.73,-191.1 1057.09,-189.08"/>
<polygon fill="#63b8ff" stroke="#63b8ff" points="1058.57,-185.91 1048,-185.07 1055.74,-192.31 1058.57,-185.91"/>
</g>
<!-- Node26&#45;&gt;Node25 -->
<g id="edge32" class="edge">
<title>Node26&#45;&gt;Node25</title>
<path fill="none" stroke="#63b8ff" d="M1202.37,-241.6C1186.16,-229.2 1156.52,-206.51 1136.54,-191.22"/>
<polygon fill="#63b8ff" stroke="#63b8ff" points="1138.88,-188.6 1128.81,-185.31 1134.63,-194.16 1138.88,-188.6"/>
</g>
<!-- Node27&#45;&gt;Node13 -->
<g id="edge36" class="edge">
<title>Node27&#45;&gt;Node13</title>
<path fill="none" stroke="#63b8ff" d="M859.59,-241.6C860.34,-230.33 861.66,-210.55 862.66,-195.56"/>
<polygon fill="#63b8ff" stroke="#63b8ff" points="866.13,-196.11 863.31,-185.9 859.15,-195.64 866.13,-196.11"/>
</g>
<!-- Node27&#45;&gt;Node22 -->
<g id="edge34" class="edge">
<title>Node27&#45;&gt;Node22</title>
<path fill="none" stroke="#63b8ff" d="M881.29,-241.54C907.36,-230.94 951.68,-212.52 989,-195 992.6,-193.31 996.36,-191.47 1000.05,-189.62"/>
<polygon fill="#63b8ff" stroke="#63b8ff" points="1001.44,-192.85 1008.75,-185.18 998.26,-186.61 1001.44,-192.85"/>
</g>
<!-- Node27&#45;&gt;Node23 -->
<g id="edge35" class="edge">
<title>Node27&#45;&gt;Node23</title>
<path fill="none" stroke="#63b8ff" d="M870.39,-241.6C886.2,-229.25 915.04,-206.72 934.61,-191.43"/>
<polygon fill="#63b8ff" stroke="#63b8ff" points="936.71,-194.23 942.43,-185.32 932.4,-188.72 936.71,-194.23"/>
</g>
<!-- Node28&#45;&gt;Node13 -->
<g id="edge39" class="edge">
<title>Node28&#45;&gt;Node13</title>
<path fill="none" stroke="#63b8ff" d="M731.8,-241.6C757.62,-228.69 805.72,-204.64 836.23,-189.38"/>
<polygon fill="#63b8ff" stroke="#63b8ff" points="837.49,-192.67 844.87,-185.06 834.36,-186.4 837.49,-192.67"/>
</g>
<!-- Node28&#45;&gt;Node22 -->
<g id="edge38" class="edge">
<title>Node28&#45;&gt;Node22</title>
<path fill="none" stroke="#63b8ff" d="M754.28,-241.58C769.81,-238.19 787.71,-234.35 804,-231 886.05,-214.13 909.84,-222.39 989,-195 993.29,-193.51 997.71,-191.62 1001.94,-189.61"/>
<polygon fill="#63b8ff" stroke="#63b8ff" points="1003.26,-192.86 1010.56,-185.18 1000.06,-186.63 1003.26,-192.86"/>
</g>
<!-- Node29&#45;&gt;Node2 -->
<g id="edge42" class="edge">
<title>Node29&#45;&gt;Node2</title>
<path fill="none" stroke="#63b8ff" d="M379.78,-262.11C399.64,-265.52 421.79,-269.2 442,-272 569.78,-289.68 719.99,-303.83 800.76,-311.12"/>
<polygon fill="#63b8ff" stroke="#63b8ff" points="800.38,-314.6 810.66,-312.01 801.01,-307.63 800.38,-314.6"/>
</g>
<!-- Node29&#45;&gt;Node7 -->
<g id="edge43" class="edge">
<title>Node29&#45;&gt;Node7</title>
<path fill="none" stroke="#63b8ff" d="M260.12,-236.01C238.11,-227.65 215.14,-214.73 201,-195 170.9,-152.99 172.47,-89.96 176.88,-52.55"/>
<polygon fill="#63b8ff" stroke="#63b8ff" points="180.31,-53.24 178.17,-42.87 173.38,-52.32 180.31,-53.24"/>
</g>
<!-- Node30 -->
<g id="node30" class="node">
<title>Node30</title>
<g id="a_node30"><a xlink:href="_alarm__state_8h.html" target="_top" xlink:title="Clase de estado de control del motor.">
<polygon fill="white" stroke="#666666" points="153.5,-195 36.5,-195 36.5,-154 153.5,-154 153.5,-195"/>
<text text-anchor="start" x="44.5" y="-183" font-family="Helvetica,sans-Serif" font-size="10.00">machine_state_pattern</text>
<text text-anchor="start" x="44.5" y="-172" font-family="Helvetica,sans-Serif" font-size="10.00">/machine_states/Alarm</text>
<text text-anchor="middle" x="95" y="-161" font-family="Helvetica,sans-Serif" font-size="10.00">_state.h</text>
</a>
</g>
</g>
<!-- Node29&#45;&gt;Node30 -->
<g id="edge44" class="edge">
<title>Node29&#45;&gt;Node30</title>
<path fill="none" stroke="#63b8ff" d="M260.29,-230.6C230.83,-220.78 195.12,-208.87 164.44,-198.65"/>
<polygon fill="#63b8ff" stroke="#63b8ff" points="165.84,-195.43 155.25,-195.58 163.63,-202.07 165.84,-195.43"/>
</g>
<!-- Node30&#45;&gt;Node2 -->
<g id="edge45" class="edge">
<title>Node30&#45;&gt;Node2</title>
<path fill="none" stroke="#63b8ff" d="M118.81,-195.4C147.91,-218.45 199.65,-255.35 251,-272 352.15,-304.79 669.09,-313.52 800.75,-315.76"/>
<polygon fill="#63b8ff" stroke="#63b8ff" points="800.59,-319.26 810.64,-315.92 800.7,-312.26 800.59,-319.26"/>
</g>
<!-- Node30&#45;&gt;Node7 -->
<g id="edge46" class="edge">
<title>Node30&#45;&gt;Node7</title>
<path fill="none" stroke="#63b8ff" d="M106.37,-153.63C121.29,-127.57 147.59,-81.62 164.91,-51.37"/>
<polygon fill="#63b8ff" stroke="#63b8ff" points="167.94,-53.11 169.87,-42.69 161.87,-49.63 167.94,-53.11"/>
</g>
<!-- Node30&#45;&gt;Node31 -->
<g id="edge47" class="edge">
<title>Node30&#45;&gt;Node31</title>
<path fill="none" stroke="#63b8ff" d="M79.26,-153.79C74.78,-146.1 70.14,-137.11 66.24,-128.65"/>
<polygon fill="#63b8ff" stroke="#63b8ff" points="69.55,-127.49 62.35,-119.72 63.14,-130.29 69.55,-127.49"/>
</g>
<!-- Node31&#45;&gt;Node2 -->
<g id="edge48" class="edge">
<title>Node31&#45;&gt;Node2</title>
<path fill="none" stroke="#63b8ff" d="M42.4,-118.43C28.56,-138.73 12.58,-170.61 27,-195 63.14,-256.13 98.82,-252.13 167,-272 285.3,-306.47 656.88,-314.27 801.04,-316.01"/>
<polygon fill="#63b8ff" stroke="#63b8ff" points="800.69,-319.5 810.73,-316.12 800.77,-312.5 800.69,-319.5"/>
</g>
<!-- Node31&#45;&gt;Node7 -->
<g id="edge49" class="edge">
<title>Node31&#45;&gt;Node7</title>
<path fill="none" stroke="#63b8ff" d="M90.9,-76.6C105.76,-67.61 123.49,-56.89 139.35,-47.29"/>
<polygon fill="#63b8ff" stroke="#63b8ff" points="140.9,-50.45 147.65,-42.28 137.28,-44.46 140.9,-50.45"/>
</g>
<!-- Node31&#45;&gt;Node30 -->
<g id="edge50" class="edge">
<title>Node31&#45;&gt;Node30</title>
<path fill="none" stroke="#63b8ff" d="M73.82,-118.33C78.29,-126.04 82.93,-135.03 86.83,-143.5"/>
<polygon fill="#63b8ff" stroke="#63b8ff" points="83.5,-144.63 90.7,-152.41 89.92,-141.84 83.5,-144.63"/>
</g>
</g>
</svg>
