<?xml version="1.0" encoding="UTF-8" standalone="no"?>
<!DOCTYPE svg PUBLIC "-//W3C//DTD SVG 1.1//EN"
 "http://www.w3.org/Graphics/SVG/1.1/DTD/svg11.dtd">
<!-- Generated by graphviz version 7.0.2 (20221119.0110)
 -->
<!-- Title: C:/Users/juanh/OneDrive/Escritorio/Facultad/Beca/Proyecto/LAL Control Arduino/include/machine_state_pattern/machine_states/Shutdown_state.h Pages: 1 -->
<svg width="966pt" height="445pt"
 viewBox="0.00 0.00 965.72 445.00" xmlns="http://www.w3.org/2000/svg" xmlns:xlink="http://www.w3.org/1999/xlink">
<g id="graph0" class="graph" transform="scale(1 1) rotate(0) translate(4 441)">
<title>C:/Users/juanh/OneDrive/Escritorio/Facultad/Beca/Proyecto/LAL Control Arduino/include/machine_state_pattern/machine_states/Shutdown_state.h</title>
<!-- Node1 -->
<g id="node1" class="node">
<title>Node1</title>
<g id="a_node1"><a xlink:title="Clase de estado de apagado del sistema.">
<polygon fill="#999999" stroke="#666666" points="545,-437 375,-437 375,-374 545,-374 545,-437"/>
<text text-anchor="start" x="383" y="-425" font-family="Helvetica,sans-Serif" font-size="10.00">C:/Users/juanh/OneDrive</text>
<text text-anchor="start" x="383" y="-414" font-family="Helvetica,sans-Serif" font-size="10.00">/Escritorio/Facultad/Beca</text>
<text text-anchor="start" x="383" y="-403" font-family="Helvetica,sans-Serif" font-size="10.00">/Proyecto/LAL Control Arduino</text>
<text text-anchor="start" x="383" y="-392" font-family="Helvetica,sans-Serif" font-size="10.00">/include/machine_state_pattern</text>
<text text-anchor="middle" x="460" y="-381" font-family="Helvetica,sans-Serif" font-size="10.00">/machine_states/Shutdown_state.h</text>
</a>
</g>
</g>
<!-- Node2 -->
<g id="node2" class="node">
<title>Node2</title>
<g id="a_node2"><a xlink:href="_control__system_8h.html" target="_top" xlink:title="Clase para el sistema de control.">
<polygon fill="white" stroke="#666666" points="534.5,-338 385.5,-338 385.5,-286 534.5,-286 534.5,-338"/>
<text text-anchor="start" x="393.5" y="-326" font-family="Helvetica,sans-Serif" font-size="10.00">C:/Users/juanh/OneDrive</text>
<text text-anchor="start" x="393.5" y="-315" font-family="Helvetica,sans-Serif" font-size="10.00">/Escritorio/Facultad/Beca</text>
<text text-anchor="start" x="393.5" y="-304" font-family="Helvetica,sans-Serif" font-size="10.00">/Proyecto/LAL Control Arduino</text>
<text text-anchor="middle" x="460" y="-293" font-family="Helvetica,sans-Serif" font-size="10.00">/include/Control_system.h</text>
</a>
</g>
</g>
<!-- Node1&#45;&gt;Node2 -->
<g id="edge1" class="edge">
<title>Node1&#45;&gt;Node2</title>
<path fill="none" stroke="#63b8ff" d="M453.27,-362.25C453.19,-354.13 453.39,-345.86 453.88,-338.47"/>
<polygon fill="#63b8ff" stroke="#63b8ff" points="449.76,-362.11 453.53,-372.01 456.76,-361.92 449.76,-362.11"/>
</g>
<!-- Node2&#45;&gt;Node1 -->
<g id="edge10" class="edge">
<title>Node2&#45;&gt;Node1</title>
<path fill="none" stroke="#63b8ff" d="M466.64,-349.95C466.84,-357.77 466.77,-365.95 466.43,-373.52"/>
<polygon fill="#63b8ff" stroke="#63b8ff" points="470.14,-349.82 466.19,-339.98 463.14,-350.13 470.14,-349.82"/>
</g>
<!-- Node3 -->
<g id="node3" class="node">
<title>Node3</title>
<g id="a_node3"><a xlink:href="_alarm__state_8h.html" target="_top" xlink:title="Clase de estado de control del motor.">
<polygon fill="white" stroke="#666666" points="322,-250 170,-250 170,-187 322,-187 322,-250"/>
<text text-anchor="start" x="178" y="-238" font-family="Helvetica,sans-Serif" font-size="10.00">C:/Users/juanh/OneDrive</text>
<text text-anchor="start" x="178" y="-227" font-family="Helvetica,sans-Serif" font-size="10.00">/Escritorio/Facultad/Beca</text>
<text text-anchor="start" x="178" y="-216" font-family="Helvetica,sans-Serif" font-size="10.00">/Proyecto/LAL Control Arduino</text>
<text text-anchor="start" x="178" y="-205" font-family="Helvetica,sans-Serif" font-size="10.00">/include/machine_state_pattern</text>
<text text-anchor="middle" x="246" y="-194" font-family="Helvetica,sans-Serif" font-size="10.00">/machine_states/Alarm_state.h</text>
</a>
</g>
</g>
<!-- Node2&#45;&gt;Node3 -->
<g id="edge2" class="edge">
<title>Node2&#45;&gt;Node3</title>
<path fill="none" stroke="#63b8ff" d="M390.02,-281.08C367.01,-271.24 341.39,-260.29 318.22,-250.38"/>
<polygon fill="#63b8ff" stroke="#63b8ff" points="388.43,-284.2 399,-284.92 391.18,-277.77 388.43,-284.2"/>
</g>
<!-- Node4 -->
<g id="node4" class="node">
<title>Node4</title>
<g id="a_node4"><a xlink:href="_check__instruction__state_8h_source.html" target="_top" xlink:title=" ">
<polygon fill="white" stroke="#666666" points="375.5,-151 170.5,-151 170.5,-88 375.5,-88 375.5,-151"/>
<text text-anchor="start" x="178.5" y="-139" font-family="Helvetica,sans-Serif" font-size="10.00">C:/Users/juanh/OneDrive</text>
<text text-anchor="start" x="178.5" y="-128" font-family="Helvetica,sans-Serif" font-size="10.00">/Escritorio/Facultad/Beca</text>
<text text-anchor="start" x="178.5" y="-117" font-family="Helvetica,sans-Serif" font-size="10.00">/Proyecto/LAL Control Arduino</text>
<text text-anchor="start" x="178.5" y="-106" font-family="Helvetica,sans-Serif" font-size="10.00">/include/machine_state_pattern</text>
<text text-anchor="middle" x="273" y="-95" font-family="Helvetica,sans-Serif" font-size="10.00">/machine_states/Check_instruction_state.h</text>
</a>
</g>
</g>
<!-- Node2&#45;&gt;Node4 -->
<g id="edge8" class="edge">
<title>Node2&#45;&gt;Node4</title>
<path fill="none" stroke="#63b8ff" d="M422.34,-277.99C385.31,-242.34 330.06,-186.02 298.08,-151.27"/>
<polygon fill="#63b8ff" stroke="#63b8ff" points="419.67,-280.28 429.31,-284.66 424.5,-275.22 419.67,-280.28"/>
</g>
<!-- Node5 -->
<g id="node5" class="node">
<title>Node5</title>
<g id="a_node5"><a xlink:href="_idle__state_8h.html" target="_top" xlink:title="Clase de estado de reposo.">
<polygon fill="white" stroke="#666666" points="152,-151 0,-151 0,-88 152,-88 152,-151"/>
<text text-anchor="start" x="8" y="-139" font-family="Helvetica,sans-Serif" font-size="10.00">C:/Users/juanh/OneDrive</text>
<text text-anchor="start" x="8" y="-128" font-family="Helvetica,sans-Serif" font-size="10.00">/Escritorio/Facultad/Beca</text>
<text text-anchor="start" x="8" y="-117" font-family="Helvetica,sans-Serif" font-size="10.00">/Proyecto/LAL Control Arduino</text>
<text text-anchor="start" x="8" y="-106" font-family="Helvetica,sans-Serif" font-size="10.00">/include/machine_state_pattern</text>
<text text-anchor="middle" x="76" y="-95" font-family="Helvetica,sans-Serif" font-size="10.00">/machine_states/Idle_state.h</text>
</a>
</g>
</g>
<!-- Node2&#45;&gt;Node5 -->
<g id="edge9" class="edge">
<title>Node2&#45;&gt;Node5</title>
<path fill="none" stroke="#63b8ff" d="M374.19,-300.93C298.54,-290.73 195.17,-273.16 161,-250 125.38,-225.86 101.08,-181.31 87.87,-151.29"/>
<polygon fill="#63b8ff" stroke="#63b8ff" points="373.27,-304.34 383.64,-302.18 374.19,-297.4 373.27,-304.34"/>
</g>
<!-- Node6 -->
<g id="node6" class="node">
<title>Node6</title>
<g id="a_node6"><a xlink:href="main_8h.html" target="_top" xlink:title="Archivo principal del programa.">
<polygon fill="white" stroke="#666666" points="832.5,-52 683.5,-52 683.5,0 832.5,0 832.5,-52"/>
<text text-anchor="start" x="691.5" y="-40" font-family="Helvetica,sans-Serif" font-size="10.00">C:/Users/juanh/OneDrive</text>
<text text-anchor="start" x="691.5" y="-29" font-family="Helvetica,sans-Serif" font-size="10.00">/Escritorio/Facultad/Beca</text>
<text text-anchor="start" x="691.5" y="-18" font-family="Helvetica,sans-Serif" font-size="10.00">/Proyecto/LAL Control Arduino</text>
<text text-anchor="middle" x="758" y="-7" font-family="Helvetica,sans-Serif" font-size="10.00">/include/main.h</text>
</a>
</g>
</g>
<!-- Node2&#45;&gt;Node6 -->
<g id="edge11" class="edge">
<title>Node2&#45;&gt;Node6</title>
<path fill="none" stroke="#63b8ff" d="M545.79,-300.15C606.54,-290.87 689.28,-274.98 759,-250 847.53,-218.28 897.49,-231.56 946,-151 960.44,-127.01 962.46,-110.65 946,-88 920.18,-52.47 873.18,-37.22 832.63,-30.85"/>
<polygon fill="#63b8ff" stroke="#63b8ff" points="545.58,-296.64 536.21,-301.58 546.62,-303.56 545.58,-296.64"/>
</g>
<!-- Node7 -->
<g id="node7" class="node">
<title>Node7</title>
<g id="a_node7"><a xlink:href="_cooler__observer_8h_source.html" target="_top" xlink:title=" ">
<polygon fill="white" stroke="#666666" points="936.5,-151 767.5,-151 767.5,-88 936.5,-88 936.5,-151"/>
<text text-anchor="start" x="775.5" y="-139" font-family="Helvetica,sans-Serif" font-size="10.00">C:/Users/juanh/OneDrive</text>
<text text-anchor="start" x="775.5" y="-128" font-family="Helvetica,sans-Serif" font-size="10.00">/Escritorio/Facultad/Beca</text>
<text text-anchor="start" x="775.5" y="-117" font-family="Helvetica,sans-Serif" font-size="10.00">/Proyecto/LAL Control Arduino</text>
<text text-anchor="start" x="775.5" y="-106" font-family="Helvetica,sans-Serif" font-size="10.00">/include/observer_pattern/observers</text>
<text text-anchor="middle" x="852" y="-95" font-family="Helvetica,sans-Serif" font-size="10.00">/Cooler_observer.h</text>
</a>
</g>
</g>
<!-- Node2&#45;&gt;Node7 -->
<g id="edge12" class="edge">
<title>Node2&#45;&gt;Node7</title>
<path fill="none" stroke="#63b8ff" d="M546,-299.91C594.7,-291.15 655.57,-275.93 705,-250 752.89,-224.88 798,-181.01 825.31,-151.37"/>
<polygon fill="#63b8ff" stroke="#63b8ff" points="545.6,-296.43 536.34,-301.58 546.8,-303.32 545.6,-296.43"/>
</g>
<!-- Node8 -->
<g id="node8" class="node">
<title>Node8</title>
<g id="a_node8"><a xlink:href="_moisture__observer_8h.html" target="_top" xlink:title="Observador del sensor de temperatura.">
<polygon fill="white" stroke="#666666" points="562.5,-151 393.5,-151 393.5,-88 562.5,-88 562.5,-151"/>
<text text-anchor="start" x="401.5" y="-139" font-family="Helvetica,sans-Serif" font-size="10.00">C:/Users/juanh/OneDrive</text>
<text text-anchor="start" x="401.5" y="-128" font-family="Helvetica,sans-Serif" font-size="10.00">/Escritorio/Facultad/Beca</text>
<text text-anchor="start" x="401.5" y="-117" font-family="Helvetica,sans-Serif" font-size="10.00">/Proyecto/LAL Control Arduino</text>
<text text-anchor="start" x="401.5" y="-106" font-family="Helvetica,sans-Serif" font-size="10.00">/include/observer_pattern/observers</text>
<text text-anchor="middle" x="478" y="-95" font-family="Helvetica,sans-Serif" font-size="10.00">/Moisture_observer.h</text>
</a>
</g>
</g>
<!-- Node2&#45;&gt;Node8 -->
<g id="edge14" class="edge">
<title>Node2&#45;&gt;Node8</title>
<path fill="none" stroke="#63b8ff" d="M463.47,-274.33C466.84,-238.58 471.92,-184.85 475.09,-151.27"/>
<polygon fill="#63b8ff" stroke="#63b8ff" points="459.99,-273.91 462.53,-284.2 466.96,-274.57 459.99,-273.91"/>
</g>
<!-- Node9 -->
<g id="node9" class="node">
<title>Node9</title>
<g id="a_node9"><a xlink:href="_system__observer_8h.html" target="_top" xlink:title="Clase observador del sistema de control.">
<polygon fill="white" stroke="#666666" points="695.5,-250 526.5,-250 526.5,-187 695.5,-187 695.5,-250"/>
<text text-anchor="start" x="534.5" y="-238" font-family="Helvetica,sans-Serif" font-size="10.00">C:/Users/juanh/OneDrive</text>
<text text-anchor="start" x="534.5" y="-227" font-family="Helvetica,sans-Serif" font-size="10.00">/Escritorio/Facultad/Beca</text>
<text text-anchor="start" x="534.5" y="-216" font-family="Helvetica,sans-Serif" font-size="10.00">/Proyecto/LAL Control Arduino</text>
<text text-anchor="start" x="534.5" y="-205" font-family="Helvetica,sans-Serif" font-size="10.00">/include/observer_pattern/observers</text>
<text text-anchor="middle" x="611" y="-194" font-family="Helvetica,sans-Serif" font-size="10.00">/System_observer.h</text>
</a>
</g>
</g>
<!-- Node2&#45;&gt;Node9 -->
<g id="edge16" class="edge">
<title>Node2&#45;&gt;Node9</title>
<path fill="none" stroke="#63b8ff" d="M505.58,-279.47C520.7,-270.06 537.72,-259.75 553.62,-250.38"/>
<polygon fill="#63b8ff" stroke="#63b8ff" points="503.84,-276.43 497.22,-284.71 507.55,-282.36 503.84,-276.43"/>
</g>
<!-- Node10 -->
<g id="node10" class="node">
<title>Node10</title>
<g id="a_node10"><a xlink:href="_temperature__observer_8h.html" target="_top" xlink:title="Observador del sensor de temperatura.">
<polygon fill="white" stroke="#666666" points="749.5,-151 580.5,-151 580.5,-88 749.5,-88 749.5,-151"/>
<text text-anchor="start" x="588.5" y="-139" font-family="Helvetica,sans-Serif" font-size="10.00">C:/Users/juanh/OneDrive</text>
<text text-anchor="start" x="588.5" y="-128" font-family="Helvetica,sans-Serif" font-size="10.00">/Escritorio/Facultad/Beca</text>
<text text-anchor="start" x="588.5" y="-117" font-family="Helvetica,sans-Serif" font-size="10.00">/Proyecto/LAL Control Arduino</text>
<text text-anchor="start" x="588.5" y="-106" font-family="Helvetica,sans-Serif" font-size="10.00">/include/observer_pattern/observers</text>
<text text-anchor="middle" x="665" y="-95" font-family="Helvetica,sans-Serif" font-size="10.00">/Temperature_observer.h</text>
</a>
</g>
</g>
<!-- Node2&#45;&gt;Node10 -->
<g id="edge22" class="edge">
<title>Node2&#45;&gt;Node10</title>
<path fill="none" stroke="#63b8ff" d="M473.27,-275.03C485.56,-243.26 503.87,-200.02 517,-187 527.6,-176.49 554.8,-163.28 583.03,-151.41"/>
<polygon fill="#63b8ff" stroke="#63b8ff" points="470.02,-273.72 469.73,-284.31 476.56,-276.21 470.02,-273.72"/>
</g>
<!-- Node3&#45;&gt;Node4 -->
<g id="edge3" class="edge">
<title>Node3&#45;&gt;Node4</title>
<path fill="none" stroke="#63b8ff" d="M257.63,-175.71C259.89,-167.58 262.23,-159.2 264.37,-151.5"/>
<polygon fill="#63b8ff" stroke="#63b8ff" points="254.33,-174.51 255.02,-185.08 261.08,-176.39 254.33,-174.51"/>
</g>
<!-- Node3&#45;&gt;Node5 -->
<g id="edge5" class="edge">
<title>Node3&#45;&gt;Node5</title>
<path fill="none" stroke="#63b8ff" d="M175.82,-181.2C158.38,-171.43 140.09,-160.95 123.98,-151.5"/>
<polygon fill="#63b8ff" stroke="#63b8ff" points="173.64,-183.99 184.08,-185.8 177.05,-177.88 173.64,-183.99"/>
</g>
<!-- Node4&#45;&gt;Node2 -->
<g id="edge4" class="edge">
<title>Node4&#45;&gt;Node2</title>
<path fill="none" stroke="#63b8ff" d="M316.37,-159.03C355.28,-196.8 410.47,-253.29 439.93,-285.7"/>
<polygon fill="#63b8ff" stroke="#63b8ff" points="319.04,-156.75 309.42,-152.32 314.18,-161.78 319.04,-156.75"/>
</g>
<!-- Node5&#45;&gt;Node1 -->
<g id="edge7" class="edge">
<title>Node5&#45;&gt;Node1</title>
<path fill="none" stroke="#63b8ff" d="M75.19,-162.66C76.79,-190.27 83.13,-225.62 103,-250 170.96,-333.36 292.51,-372.79 374.69,-390.7"/>
<polygon fill="#63b8ff" stroke="#63b8ff" points="78.7,-162.73 74.83,-152.87 71.7,-162.99 78.7,-162.73"/>
</g>
<!-- Node5&#45;&gt;Node3 -->
<g id="edge6" class="edge">
<title>Node5&#45;&gt;Node3</title>
<path fill="none" stroke="#63b8ff" d="M146.25,-156.84C163.69,-166.62 181.98,-177.09 198.08,-186.54"/>
<polygon fill="#63b8ff" stroke="#63b8ff" points="148.43,-154.05 137.99,-152.23 145.02,-160.16 148.43,-154.05"/>
</g>
<!-- Node7&#45;&gt;Node6 -->
<g id="edge13" class="edge">
<title>Node7&#45;&gt;Node6</title>
<path fill="none" stroke="#63b8ff" d="M812.03,-79.6C802.61,-70.42 792.8,-60.88 784.17,-52.47"/>
<polygon fill="#63b8ff" stroke="#63b8ff" points="809.48,-82 819.09,-86.47 814.37,-76.98 809.48,-82"/>
</g>
<!-- Node8&#45;&gt;Node6 -->
<g id="edge15" class="edge">
<title>Node8&#45;&gt;Node6</title>
<path fill="none" stroke="#63b8ff" d="M573.7,-87.23C609.42,-75.55 649.43,-62.48 683.02,-51.5"/>
<polygon fill="#63b8ff" stroke="#63b8ff" points="572.63,-83.9 564.21,-90.33 574.8,-90.55 572.63,-83.9"/>
</g>
<!-- Node9&#45;&gt;Node2 -->
<g id="edge17" class="edge">
<title>Node9&#45;&gt;Node2</title>
<path fill="none" stroke="#63b8ff" d="M556.78,-256.38C540.9,-266.15 523.67,-276.49 508.19,-285.51"/>
<polygon fill="#63b8ff" stroke="#63b8ff" points="558.52,-259.42 565.18,-251.18 554.83,-253.47 558.52,-259.42"/>
</g>
<!-- Node9&#45;&gt;Node7 -->
<g id="edge18" class="edge">
<title>Node9&#45;&gt;Node7</title>
<path fill="none" stroke="#63b8ff" d="M698.51,-182.28C723.54,-172.2 750.63,-161.3 774.99,-151.5"/>
<polygon fill="#63b8ff" stroke="#63b8ff" points="697.29,-179 689.32,-185.98 699.9,-185.49 697.29,-179"/>
</g>
<!-- Node9&#45;&gt;Node8 -->
<g id="edge19" class="edge">
<title>Node9&#45;&gt;Node8</title>
<path fill="none" stroke="#63b8ff" d="M559.36,-179.84C546.5,-170.46 532.86,-160.51 520.5,-151.5"/>
<polygon fill="#63b8ff" stroke="#63b8ff" points="557.19,-182.59 567.33,-185.65 561.31,-176.93 557.19,-182.59"/>
</g>
<!-- Node9&#45;&gt;Node10 -->
<g id="edge20" class="edge">
<title>Node9&#45;&gt;Node10</title>
<path fill="none" stroke="#63b8ff" d="M633.8,-176.54C638.47,-168.15 643.31,-159.46 647.74,-151.5"/>
<polygon fill="#63b8ff" stroke="#63b8ff" points="630.78,-174.78 628.97,-185.22 636.89,-178.18 630.78,-174.78"/>
</g>
<!-- Node10&#45;&gt;Node6 -->
<g id="edge21" class="edge">
<title>Node10&#45;&gt;Node6</title>
<path fill="none" stroke="#63b8ff" d="M704.54,-79.6C713.86,-70.42 723.57,-60.88 732.11,-52.47"/>
<polygon fill="#63b8ff" stroke="#63b8ff" points="702.24,-76.95 697.56,-86.46 707.15,-81.94 702.24,-76.95"/>
</g>
</g>
</svg>
