<?xml version="1.0" encoding="UTF-8" standalone="no"?>
<!DOCTYPE svg PUBLIC "-//W3C//DTD SVG 1.1//EN"
 "http://www.w3.org/Graphics/SVG/1.1/DTD/svg11.dtd">
<!-- Generated by graphviz version 7.0.2 (20221119.0110)
 -->
<!-- Title: C:/Users/juanh/OneDrive/Escritorio/Sistemas Embebidos/Proyecto final/LAL Control MbedOS/include/machine_state_pattern/machine_states/Shutdown_state.h Pages: 1 -->
<!--zoomable 577 -->
<svg id="main" version="1.1" xmlns="http://www.w3.org/2000/svg" xmlns:xlink="http://www.w3.org/1999/xlink" xml:space="preserve" onload="init(evt)">
<style type="text/css"><![CDATA[
.edge:hover path { stroke: red; }
.edge:hover polygon { stroke: red; fill: red; }
]]></style>
<script type="text/javascript"><![CDATA[
var edges = document.getElementsByTagName('g');
if (edges && edges.length) {
  for (var i=0;i<edges.length;i++) {
    if (edges[i].id.substr(0,4)=='edge') {
      edges[i].setAttribute('class','edge');
    }
  }
}
]]></script>
        <defs>
                <circle id="rim" cx="0" cy="0" r="7"/>
                <circle id="rim2" cx="0" cy="0" r="3.5"/>
                <g id="zoomPlus">
                        <use xlink:href="#rim" fill="#404040">
                                <set attributeName="fill" to="#808080" begin="zoomplus.mouseover" end="zoomplus.mouseout"/>
                        </use>
                        <path d="M-4,0h8M0,-4v8" fill="none" stroke="white" stroke-width="1.5" pointer-events="none"/>
                </g>
                <g id="zoomMin">
                        <use xlink:href="#rim" fill="#404040">
                                <set attributeName="fill" to="#808080" begin="zoomminus.mouseover" end="zoomminus.mouseout"/>
                        </use>
                        <path d="M-4,0h8" fill="none" stroke="white" stroke-width="1.5" pointer-events="none"/>
                </g>
                <g id="dirArrow">
                        <path fill="none" stroke="white" stroke-width="1.5" d="M0,-3.0v7 M-2.5,-0.5L0,-3.0L2.5,-0.5"/>
                </g>
               <g id="resetDef">
                       <use xlink:href="#rim2" fill="#404040">
                               <set attributeName="fill" to="#808080" begin="reset.mouseover" end="reset.mouseout"/>
                       </use>
               </g>
        </defs>

<script type="text/javascript">
var viewWidth = 1358;
var viewHeight = 577;
var sectionId = 'dynsection-1';
</script>
<script xlink:href="svgpan.js"/>
<svg id="graph" class="graph">
<g id="viewport">
<title>C:/Users/juanh/OneDrive/Escritorio/Sistemas Embebidos/Proyecto final/LAL Control MbedOS/include/machine_state_pattern/machine_states/Shutdown_state.h</title>
<!-- Node1 -->
<g id="node1" class="node">
<title>Node1</title>
<g id="a_node1"><a xlink:title="Clase de estado de apagado del sistema.">
<polygon fill="#999999" stroke="#666666" points="642,-569 437,-569 437,-506 642,-506 642,-569"/>
<text text-anchor="start" x="445" y="-557" font-family="Helvetica,sans-Serif" font-size="10.00">C:/Users/juanh/OneDrive</text>
<text text-anchor="start" x="445" y="-546" font-family="Helvetica,sans-Serif" font-size="10.00">/Escritorio/Sistemas Embebidos</text>
<text text-anchor="start" x="445" y="-535" font-family="Helvetica,sans-Serif" font-size="10.00">/Proyecto final/LAL Control</text>
<text text-anchor="start" x="445" y="-524" font-family="Helvetica,sans-Serif" font-size="10.00"> MbedOS/include/machine_state</text>
<text text-anchor="middle" x="539.5" y="-513" font-family="Helvetica,sans-Serif" font-size="10.00">_pattern/machine_states/Shutdown_state.h</text>
</a>
</g>
</g>
<!-- Node2 -->
<g id="node2" class="node">
<title>Node2</title>
<g id="a_node2"><a xlink:href="_control__system_8h_source.html" target="_top" xlink:title=" ">
<polygon fill="white" stroke="#666666" points="718,-464.5 547,-464.5 547,-412.5 718,-412.5 718,-464.5"/>
<text text-anchor="start" x="555" y="-452.5" font-family="Helvetica,sans-Serif" font-size="10.00">C:/Users/juanh/OneDrive</text>
<text text-anchor="start" x="555" y="-441.5" font-family="Helvetica,sans-Serif" font-size="10.00">/Escritorio/Sistemas Embebidos</text>
<text text-anchor="start" x="555" y="-430.5" font-family="Helvetica,sans-Serif" font-size="10.00">/Proyecto final/LAL Control</text>
<text text-anchor="middle" x="632.5" y="-419.5" font-family="Helvetica,sans-Serif" font-size="10.00"> MbedOS/include/Control_system.h</text>
</a>
</g>
</g>
<!-- Node1&#45;&gt;Node2 -->
<g id="edge1" class="edge">
<title>Node1&#45;&gt;Node2</title>
<path fill="none" stroke="#63b8ff" d="M570.39,-497.36C580.58,-486.45 591.88,-474.88 602.05,-464.98"/>
<polygon fill="#63b8ff" stroke="#63b8ff" points="568.08,-494.71 563.87,-504.43 573.22,-499.45 568.08,-494.71"/>
</g>
<!-- Node20 -->
<g id="node20" class="node">
<title>Node20</title>
<g id="a_node20"><a xlink:href="_shutdown__state_8cpp.html" target="_top" xlink:title="Implementación de Shutdown_state.h.">
<polygon fill="white" stroke="#666666" points="528.5,-470 366.5,-470 366.5,-407 528.5,-407 528.5,-470"/>
<text text-anchor="start" x="374.5" y="-458" font-family="Helvetica,sans-Serif" font-size="10.00">C:/Users/juanh/OneDrive</text>
<text text-anchor="start" x="374.5" y="-447" font-family="Helvetica,sans-Serif" font-size="10.00">/Escritorio/Sistemas Embebidos</text>
<text text-anchor="start" x="374.5" y="-436" font-family="Helvetica,sans-Serif" font-size="10.00">/Proyecto final/LAL Control</text>
<text text-anchor="start" x="374.5" y="-425" font-family="Helvetica,sans-Serif" font-size="10.00"> MbedOS/src/Port/machine_state</text>
<text text-anchor="middle" x="447.5" y="-414" font-family="Helvetica,sans-Serif" font-size="10.00">_pattern/Shutdown_state.cpp</text>
</a>
</g>
</g>
<!-- Node1&#45;&gt;Node20 -->
<g id="edge35" class="edge">
<title>Node1&#45;&gt;Node20</title>
<path fill="none" stroke="#63b8ff" d="M502.22,-497.19C493.79,-488.3 484.95,-478.99 476.9,-470.5"/>
<polygon fill="#63b8ff" stroke="#63b8ff" points="499.68,-499.6 509.1,-504.44 504.75,-494.78 499.68,-499.6"/>
</g>
<!-- Node2&#45;&gt;Node1 -->
<g id="edge14" class="edge">
<title>Node2&#45;&gt;Node1</title>
<path fill="none" stroke="#63b8ff" d="M606.41,-473.46C596.82,-483.89 585.82,-495.32 575.52,-505.54"/>
<polygon fill="#63b8ff" stroke="#63b8ff" points="608.96,-475.86 613.08,-466.1 603.77,-471.16 608.96,-475.86"/>
</g>
<!-- Node3 -->
<g id="node3" class="node">
<title>Node3</title>
<g id="a_node3"><a xlink:href="_alarm__state_8h.html" target="_top" xlink:title="Clase de estado de control del motor.">
<polygon fill="white" stroke="#666666" points="328.5,-371 140.5,-371 140.5,-308 328.5,-308 328.5,-371"/>
<text text-anchor="start" x="148.5" y="-359" font-family="Helvetica,sans-Serif" font-size="10.00">C:/Users/juanh/OneDrive</text>
<text text-anchor="start" x="148.5" y="-348" font-family="Helvetica,sans-Serif" font-size="10.00">/Escritorio/Sistemas Embebidos</text>
<text text-anchor="start" x="148.5" y="-337" font-family="Helvetica,sans-Serif" font-size="10.00">/Proyecto final/LAL Control</text>
<text text-anchor="start" x="148.5" y="-326" font-family="Helvetica,sans-Serif" font-size="10.00"> MbedOS/include/machine_state</text>
<text text-anchor="middle" x="234.5" y="-315" font-family="Helvetica,sans-Serif" font-size="10.00">_pattern/machine_states/Alarm_state.h</text>
</a>
</g>
</g>
<!-- Node2&#45;&gt;Node3 -->
<g id="edge2" class="edge">
<title>Node2&#45;&gt;Node3</title>
<path fill="none" stroke="#63b8ff" d="M544.33,-408.88C542.03,-408.24 539.75,-407.61 537.5,-407 468.21,-388.32 388.96,-371.07 328.89,-358.82"/>
<polygon fill="#63b8ff" stroke="#63b8ff" points="543.14,-412.18 553.72,-411.59 545.08,-405.45 543.14,-412.18"/>
</g>
<!-- Node4 -->
<g id="node4" class="node">
<title>Node4</title>
<g id="a_node4"><a xlink:href="_check__instruction__state_8h_source.html" target="_top" xlink:title=" ">
<polygon fill="white" stroke="#666666" points="463.5,-272 305.5,-272 305.5,-198 463.5,-198 463.5,-272"/>
<text text-anchor="start" x="313.5" y="-260" font-family="Helvetica,sans-Serif" font-size="10.00">C:/Users/juanh/OneDrive</text>
<text text-anchor="start" x="313.5" y="-249" font-family="Helvetica,sans-Serif" font-size="10.00">/Escritorio/Sistemas Embebidos</text>
<text text-anchor="start" x="313.5" y="-238" font-family="Helvetica,sans-Serif" font-size="10.00">/Proyecto final/LAL Control</text>
<text text-anchor="start" x="313.5" y="-227" font-family="Helvetica,sans-Serif" font-size="10.00"> MbedOS/include/machine_state</text>
<text text-anchor="start" x="313.5" y="-216" font-family="Helvetica,sans-Serif" font-size="10.00">_pattern/machine_states/Check</text>
<text text-anchor="middle" x="384.5" y="-205" font-family="Helvetica,sans-Serif" font-size="10.00">_instruction_state.h</text>
</a>
</g>
</g>
<!-- Node2&#45;&gt;Node4 -->
<g id="edge12" class="edge">
<title>Node2&#45;&gt;Node4</title>
<path fill="none" stroke="#63b8ff" d="M592.51,-405.01C547.82,-368.7 475.65,-310.06 429.15,-272.28"/>
<polygon fill="#63b8ff" stroke="#63b8ff" points="590.2,-407.64 600.17,-411.23 594.61,-402.21 590.2,-407.64"/>
</g>
<!-- Node5 -->
<g id="node5" class="node">
<title>Node5</title>
<g id="a_node5"><a xlink:href="_idle__state_8h.html" target="_top" xlink:title="Clase de estado de reposo.">
<polygon fill="white" stroke="#666666" points="177,-162 0,-162 0,-99 177,-99 177,-162"/>
<text text-anchor="start" x="8" y="-150" font-family="Helvetica,sans-Serif" font-size="10.00">C:/Users/juanh/OneDrive</text>
<text text-anchor="start" x="8" y="-139" font-family="Helvetica,sans-Serif" font-size="10.00">/Escritorio/Sistemas Embebidos</text>
<text text-anchor="start" x="8" y="-128" font-family="Helvetica,sans-Serif" font-size="10.00">/Proyecto final/LAL Control</text>
<text text-anchor="start" x="8" y="-117" font-family="Helvetica,sans-Serif" font-size="10.00"> MbedOS/include/machine_state</text>
<text text-anchor="middle" x="88.5" y="-106" font-family="Helvetica,sans-Serif" font-size="10.00">_pattern/machine_states/Idle_state.h</text>
</a>
</g>
</g>
<!-- Node2&#45;&gt;Node5 -->
<g id="edge13" class="edge">
<title>Node2&#45;&gt;Node5</title>
<path fill="none" stroke="#63b8ff" d="M547.61,-409.23C544.21,-408.42 540.83,-407.67 537.5,-407 448.72,-389.05 205.19,-423.67 131.5,-371 66.37,-324.45 74.1,-215.58 82.51,-162.16"/>
<polygon fill="#63b8ff" stroke="#63b8ff" points="546.48,-412.56 557.03,-411.63 548.2,-405.77 546.48,-412.56"/>
</g>
<!-- Node9 -->
<g id="node9" class="node">
<title>Node9</title>
<g id="a_node9"><a xlink:href="main_8h.html" target="_top" xlink:title="Archivo principal del programa.">
<polygon fill="white" stroke="#666666" points="973,-156.5 816,-156.5 816,-104.5 973,-104.5 973,-156.5"/>
<text text-anchor="start" x="824" y="-144.5" font-family="Helvetica,sans-Serif" font-size="10.00">C:/Users/juanh/OneDrive</text>
<text text-anchor="start" x="824" y="-133.5" font-family="Helvetica,sans-Serif" font-size="10.00">/Escritorio/Sistemas Embebidos</text>
<text text-anchor="start" x="824" y="-122.5" font-family="Helvetica,sans-Serif" font-size="10.00">/Proyecto final/LAL Control</text>
<text text-anchor="middle" x="894.5" y="-111.5" font-family="Helvetica,sans-Serif" font-size="10.00"> MbedOS/include/main.h</text>
</a>
</g>
</g>
<!-- Node2&#45;&gt;Node9 -->
<g id="edge15" class="edge">
<title>Node2&#45;&gt;Node9</title>
<path fill="none" stroke="#63b8ff" d="M633.47,-400.7C636.27,-371.45 644.96,-331.65 670.5,-308 727.17,-255.52 781.74,-322.12 840.5,-272 858.44,-256.69 877.93,-193.12 887.86,-156.96"/>
<polygon fill="#63b8ff" stroke="#63b8ff" points="629.98,-400.38 632.73,-410.61 636.96,-400.9 629.98,-400.38"/>
</g>
<!-- Node10 -->
<g id="node10" class="node">
<title>Node10</title>
<g id="a_node10"><a xlink:href="_cooler__observer_8h_source.html" target="_top" xlink:title=" ">
<polygon fill="white" stroke="#666666" points="647.5,-266.5 481.5,-266.5 481.5,-203.5 647.5,-203.5 647.5,-266.5"/>
<text text-anchor="start" x="489.5" y="-254.5" font-family="Helvetica,sans-Serif" font-size="10.00">C:/Users/juanh/OneDrive</text>
<text text-anchor="start" x="489.5" y="-243.5" font-family="Helvetica,sans-Serif" font-size="10.00">/Escritorio/Sistemas Embebidos</text>
<text text-anchor="start" x="489.5" y="-232.5" font-family="Helvetica,sans-Serif" font-size="10.00">/Proyecto final/LAL Control</text>
<text text-anchor="start" x="489.5" y="-221.5" font-family="Helvetica,sans-Serif" font-size="10.00"> MbedOS/include/observer_pattern</text>
<text text-anchor="middle" x="564.5" y="-210.5" font-family="Helvetica,sans-Serif" font-size="10.00">/observers/Cooler_observer.h</text>
</a>
</g>
</g>
<!-- Node2&#45;&gt;Node10 -->
<g id="edge16" class="edge">
<title>Node2&#45;&gt;Node10</title>
<path fill="none" stroke="#63b8ff" d="M613.16,-401.93C608.28,-392.09 603.34,-381.29 599.5,-371 586.51,-336.18 576.51,-294.58 570.59,-266.85"/>
<polygon fill="#63b8ff" stroke="#63b8ff" points="610.02,-403.49 617.69,-410.81 616.26,-400.31 610.02,-403.49"/>
</g>
<!-- Node12 -->
<g id="node12" class="node">
<title>Node12</title>
<g id="a_node12"><a xlink:href="_instruction__observer_8h.html" target="_top" xlink:title="Observador de instrucciones.">
<polygon fill="white" stroke="#666666" points="831.5,-266.5 665.5,-266.5 665.5,-203.5 831.5,-203.5 831.5,-266.5"/>
<text text-anchor="start" x="673.5" y="-254.5" font-family="Helvetica,sans-Serif" font-size="10.00">C:/Users/juanh/OneDrive</text>
<text text-anchor="start" x="673.5" y="-243.5" font-family="Helvetica,sans-Serif" font-size="10.00">/Escritorio/Sistemas Embebidos</text>
<text text-anchor="start" x="673.5" y="-232.5" font-family="Helvetica,sans-Serif" font-size="10.00">/Proyecto final/LAL Control</text>
<text text-anchor="start" x="673.5" y="-221.5" font-family="Helvetica,sans-Serif" font-size="10.00"> MbedOS/include/observer_pattern</text>
<text text-anchor="middle" x="748.5" y="-210.5" font-family="Helvetica,sans-Serif" font-size="10.00">/observers/Instruction_observer.h</text>
</a>
</g>
</g>
<!-- Node2&#45;&gt;Node12 -->
<g id="edge19" class="edge">
<title>Node2&#45;&gt;Node12</title>
<path fill="none" stroke="#63b8ff" d="M625.37,-401.21C621.91,-373.81 621.44,-336.24 637.5,-308 647.09,-291.13 662.45,-277.55 678.71,-266.93"/>
<polygon fill="#63b8ff" stroke="#63b8ff" points="621.85,-401.39 626.77,-410.78 628.78,-400.38 621.85,-401.39"/>
</g>
<!-- Node14 -->
<g id="node14" class="node">
<title>Node14</title>
<g id="a_node14"><a xlink:href="_moisture__observer_8h.html" target="_top" xlink:title="Observador del sensor de temperatura.">
<polygon fill="white" stroke="#666666" points="1053.5,-266.5 887.5,-266.5 887.5,-203.5 1053.5,-203.5 1053.5,-266.5"/>
<text text-anchor="start" x="895.5" y="-254.5" font-family="Helvetica,sans-Serif" font-size="10.00">C:/Users/juanh/OneDrive</text>
<text text-anchor="start" x="895.5" y="-243.5" font-family="Helvetica,sans-Serif" font-size="10.00">/Escritorio/Sistemas Embebidos</text>
<text text-anchor="start" x="895.5" y="-232.5" font-family="Helvetica,sans-Serif" font-size="10.00">/Proyecto final/LAL Control</text>
<text text-anchor="start" x="895.5" y="-221.5" font-family="Helvetica,sans-Serif" font-size="10.00"> MbedOS/include/observer_pattern</text>
<text text-anchor="middle" x="970.5" y="-210.5" font-family="Helvetica,sans-Serif" font-size="10.00">/observers/Moisture_observer.h</text>
</a>
</g>
</g>
<!-- Node2&#45;&gt;Node14 -->
<g id="edge22" class="edge">
<title>Node2&#45;&gt;Node14</title>
<path fill="none" stroke="#63b8ff" d="M729.63,-436.42C842.03,-432.86 1017.03,-419.45 1058.5,-371 1076.71,-349.73 1070.49,-333.3 1058.5,-308 1050.81,-291.77 1037.46,-277.98 1023.46,-266.94"/>
<polygon fill="#63b8ff" stroke="#63b8ff" points="729.69,-432.91 719.79,-436.71 729.89,-439.91 729.69,-432.91"/>
</g>
<!-- Node16 -->
<g id="node16" class="node">
<title>Node16</title>
<g id="a_node16"><a xlink:href="_system__observer_8h.html" target="_top" xlink:title="Clase observador del sistema de control.">
<polygon fill="white" stroke="#666666" points="1049.5,-371 883.5,-371 883.5,-308 1049.5,-308 1049.5,-371"/>
<text text-anchor="start" x="891.5" y="-359" font-family="Helvetica,sans-Serif" font-size="10.00">C:/Users/juanh/OneDrive</text>
<text text-anchor="start" x="891.5" y="-348" font-family="Helvetica,sans-Serif" font-size="10.00">/Escritorio/Sistemas Embebidos</text>
<text text-anchor="start" x="891.5" y="-337" font-family="Helvetica,sans-Serif" font-size="10.00">/Proyecto final/LAL Control</text>
<text text-anchor="start" x="891.5" y="-326" font-family="Helvetica,sans-Serif" font-size="10.00"> MbedOS/include/observer_pattern</text>
<text text-anchor="middle" x="966.5" y="-315" font-family="Helvetica,sans-Serif" font-size="10.00">/observers/System_observer.h</text>
</a>
</g>
</g>
<!-- Node2&#45;&gt;Node16 -->
<g id="edge25" class="edge">
<title>Node2&#45;&gt;Node16</title>
<path fill="none" stroke="#63b8ff" d="M729.46,-409.61C771.12,-398.1 820.25,-384.35 864.5,-371 870.52,-369.18 876.74,-367.26 883.01,-365.29"/>
<polygon fill="#63b8ff" stroke="#63b8ff" points="728.65,-406.2 719.94,-412.24 730.52,-412.95 728.65,-406.2"/>
</g>
<!-- Node17 -->
<g id="node17" class="node">
<title>Node17</title>
<g id="a_node17"><a xlink:href="_temperature__observer_8h.html" target="_top" xlink:title="Observador del sensor de temperatura.">
<polygon fill="white" stroke="#666666" points="1239,-266.5 1072,-266.5 1072,-203.5 1239,-203.5 1239,-266.5"/>
<text text-anchor="start" x="1080" y="-254.5" font-family="Helvetica,sans-Serif" font-size="10.00">C:/Users/juanh/OneDrive</text>
<text text-anchor="start" x="1080" y="-243.5" font-family="Helvetica,sans-Serif" font-size="10.00">/Escritorio/Sistemas Embebidos</text>
<text text-anchor="start" x="1080" y="-232.5" font-family="Helvetica,sans-Serif" font-size="10.00">/Proyecto final/LAL Control</text>
<text text-anchor="start" x="1080" y="-221.5" font-family="Helvetica,sans-Serif" font-size="10.00"> MbedOS/include/observer_pattern</text>
<text text-anchor="middle" x="1155.5" y="-210.5" font-family="Helvetica,sans-Serif" font-size="10.00">/observers/Temperature_observer.h</text>
</a>
</g>
</g>
<!-- Node2&#45;&gt;Node17 -->
<g id="edge33" class="edge">
<title>Node2&#45;&gt;Node17</title>
<path fill="none" stroke="#63b8ff" d="M729.81,-432.83C843.58,-425.71 1023.38,-408.73 1078.5,-371 1114.68,-346.23 1135.95,-298.51 1146.67,-266.96"/>
<polygon fill="#63b8ff" stroke="#63b8ff" points="729.61,-429.34 719.84,-433.44 730.03,-436.33 729.61,-429.34"/>
</g>
<!-- Node19 -->
<g id="node19" class="node">
<title>Node19</title>
<g id="a_node19"><a xlink:href="_control__system_8cpp.html" target="_top" xlink:title="Implementación de Control_system.h.">
<polygon fill="white" stroke="#666666" points="865,-365.5 680,-365.5 680,-313.5 865,-313.5 865,-365.5"/>
<text text-anchor="start" x="688" y="-353.5" font-family="Helvetica,sans-Serif" font-size="10.00">C:/Users/juanh/OneDrive</text>
<text text-anchor="start" x="688" y="-342.5" font-family="Helvetica,sans-Serif" font-size="10.00">/Escritorio/Sistemas Embebidos</text>
<text text-anchor="start" x="688" y="-331.5" font-family="Helvetica,sans-Serif" font-size="10.00">/Proyecto final/LAL Control</text>
<text text-anchor="middle" x="772.5" y="-320.5" font-family="Helvetica,sans-Serif" font-size="10.00"> MbedOS/src/Port/Control_system.cpp</text>
</a>
</g>
</g>
<!-- Node2&#45;&gt;Node19 -->
<g id="edge34" class="edge">
<title>Node2&#45;&gt;Node19</title>
<path fill="none" stroke="#63b8ff" d="M678.74,-405.46C697.34,-392.58 718.47,-377.93 735.96,-365.82"/>
<polygon fill="#63b8ff" stroke="#63b8ff" points="676.75,-402.58 670.53,-411.15 680.74,-408.33 676.75,-402.58"/>
</g>
<!-- Node3&#45;&gt;Node4 -->
<g id="edge3" class="edge">
<title>Node3&#45;&gt;Node4</title>
<path fill="none" stroke="#63b8ff" d="M282.37,-301.33C295.89,-291.88 310.74,-281.74 324.85,-272.33"/>
<polygon fill="#63b8ff" stroke="#63b8ff" points="280.66,-298.26 274.5,-306.88 284.69,-303.98 280.66,-298.26"/>
</g>
<!-- Node3&#45;&gt;Node5 -->
<g id="edge10" class="edge">
<title>Node3&#45;&gt;Node5</title>
<path fill="none" stroke="#63b8ff" d="M138.92,-301.57C126.86,-293.33 115.86,-283.53 107.5,-272 84.15,-239.78 79.05,-192.95 80.7,-162.36"/>
<polygon fill="#63b8ff" stroke="#63b8ff" points="136.73,-304.32 147.04,-306.75 140.49,-298.42 136.73,-304.32"/>
</g>
<!-- Node8 -->
<g id="node8" class="node">
<title>Node8</title>
<g id="a_node8"><a xlink:href="_alarm_8cpp.html" target="_top" xlink:title="Implementación de Alarm_state.h.">
<polygon fill="white" stroke="#666666" points="287.5,-266.5 125.5,-266.5 125.5,-203.5 287.5,-203.5 287.5,-266.5"/>
<text text-anchor="start" x="133.5" y="-254.5" font-family="Helvetica,sans-Serif" font-size="10.00">C:/Users/juanh/OneDrive</text>
<text text-anchor="start" x="133.5" y="-243.5" font-family="Helvetica,sans-Serif" font-size="10.00">/Escritorio/Sistemas Embebidos</text>
<text text-anchor="start" x="133.5" y="-232.5" font-family="Helvetica,sans-Serif" font-size="10.00">/Proyecto final/LAL Control</text>
<text text-anchor="start" x="133.5" y="-221.5" font-family="Helvetica,sans-Serif" font-size="10.00"> MbedOS/src/Port/machine_state</text>
<text text-anchor="middle" x="206.5" y="-210.5" font-family="Helvetica,sans-Serif" font-size="10.00">_pattern/Alarm.cpp</text>
</a>
</g>
</g>
<!-- Node3&#45;&gt;Node8 -->
<g id="edge11" class="edge">
<title>Node3&#45;&gt;Node8</title>
<path fill="none" stroke="#63b8ff" d="M223.09,-296.72C220.35,-286.69 217.47,-276.16 214.89,-266.73"/>
<polygon fill="#63b8ff" stroke="#63b8ff" points="219.69,-297.56 225.7,-306.29 226.44,-295.72 219.69,-297.56"/>
</g>
<!-- Node4&#45;&gt;Node3 -->
<g id="edge4" class="edge">
<title>Node4&#45;&gt;Node3</title>
<path fill="none" stroke="#63b8ff" d="M328.73,-278.66C314.65,-288.42 299.6,-298.6 285.75,-307.75"/>
<polygon fill="#63b8ff" stroke="#63b8ff" points="330.38,-281.78 336.58,-273.19 326.38,-276.04 330.38,-281.78"/>
</g>
<!-- Node4&#45;&gt;Node5 -->
<g id="edge5" class="edge">
<title>Node4&#45;&gt;Node5</title>
<path fill="none" stroke="#63b8ff" d="M294.91,-197.5C251.35,-181.82 211.64,-168.93 177.33,-158.21"/>
<polygon fill="#63b8ff" stroke="#63b8ff" points="293.44,-200.69 304.04,-200.81 295.83,-194.11 293.44,-200.69"/>
</g>
<!-- Node7 -->
<g id="node7" class="node">
<title>Node7</title>
<g id="a_node7"><a xlink:href="_check__instruction__state_8cpp.html" target="_top" xlink:title="Implementación de Check_instruction_state.h.">
<polygon fill="white" stroke="#666666" points="421,-162 242,-162 242,-99 421,-99 421,-162"/>
<text text-anchor="start" x="250" y="-150" font-family="Helvetica,sans-Serif" font-size="10.00">C:/Users/juanh/OneDrive</text>
<text text-anchor="start" x="250" y="-139" font-family="Helvetica,sans-Serif" font-size="10.00">/Escritorio/Sistemas Embebidos</text>
<text text-anchor="start" x="250" y="-128" font-family="Helvetica,sans-Serif" font-size="10.00">/Proyecto final/LAL Control</text>
<text text-anchor="start" x="250" y="-117" font-family="Helvetica,sans-Serif" font-size="10.00"> MbedOS/src/Port/machine_state</text>
<text text-anchor="middle" x="331.5" y="-106" font-family="Helvetica,sans-Serif" font-size="10.00">_pattern/Check_instruction_state.cpp</text>
</a>
</g>
</g>
<!-- Node4&#45;&gt;Node7 -->
<g id="edge9" class="edge">
<title>Node4&#45;&gt;Node7</title>
<path fill="none" stroke="#63b8ff" d="M360.4,-187.38C356.01,-178.91 351.54,-170.26 347.47,-162.38"/>
<polygon fill="#63b8ff" stroke="#63b8ff" points="357.27,-188.95 364.97,-196.23 363.49,-185.74 357.27,-188.95"/>
</g>
<!-- Node5&#45;&gt;Node1 -->
<g id="edge7" class="edge">
<title>Node5&#45;&gt;Node1</title>
<path fill="none" stroke="#63b8ff" d="M73.44,-173.03C57.46,-225.14 40.08,-314.5 84.5,-371 169.18,-478.71 330.49,-516.35 436.51,-529.49"/>
<polygon fill="#63b8ff" stroke="#63b8ff" points="76.73,-174.22 76.45,-163.63 70.07,-172.09 76.73,-174.22"/>
</g>
<!-- Node5&#45;&gt;Node3 -->
<g id="edge6" class="edge">
<title>Node5&#45;&gt;Node3</title>
<path fill="none" stroke="#63b8ff" d="M95.4,-173.73C98.49,-203.73 104.88,-243.55 125.5,-272 135.99,-286.47 150.65,-298.21 165.84,-307.57"/>
<polygon fill="#63b8ff" stroke="#63b8ff" points="98.89,-173.49 94.45,-163.87 91.92,-174.16 98.89,-173.49"/>
</g>
<!-- Node6 -->
<g id="node6" class="node">
<title>Node6</title>
<g id="a_node6"><a xlink:href="_idle__state_8cpp.html" target="_top" xlink:title="Implementación de Idle_state.h.">
<polygon fill="white" stroke="#666666" points="169.5,-63 7.5,-63 7.5,0 169.5,0 169.5,-63"/>
<text text-anchor="start" x="15.5" y="-51" font-family="Helvetica,sans-Serif" font-size="10.00">C:/Users/juanh/OneDrive</text>
<text text-anchor="start" x="15.5" y="-40" font-family="Helvetica,sans-Serif" font-size="10.00">/Escritorio/Sistemas Embebidos</text>
<text text-anchor="start" x="15.5" y="-29" font-family="Helvetica,sans-Serif" font-size="10.00">/Proyecto final/LAL Control</text>
<text text-anchor="start" x="15.5" y="-18" font-family="Helvetica,sans-Serif" font-size="10.00"> MbedOS/src/Port/machine_state</text>
<text text-anchor="middle" x="88.5" y="-7" font-family="Helvetica,sans-Serif" font-size="10.00">_pattern/Idle_state.cpp</text>
</a>
</g>
</g>
<!-- Node5&#45;&gt;Node6 -->
<g id="edge8" class="edge">
<title>Node5&#45;&gt;Node6</title>
<path fill="none" stroke="#63b8ff" d="M88.5,-87.15C88.5,-79.2 88.5,-71.02 88.5,-63.5"/>
<polygon fill="#63b8ff" stroke="#63b8ff" points="85,-87.03 88.5,-97.03 92,-87.03 85,-87.03"/>
</g>
<!-- Node10&#45;&gt;Node9 -->
<g id="edge17" class="edge">
<title>Node10&#45;&gt;Node9</title>
<path fill="none" stroke="#63b8ff" d="M651.79,-199.51C653.37,-198.99 654.94,-198.49 656.5,-198 721.91,-177.46 740.7,-181.25 806.5,-162 811.93,-160.41 817.52,-158.69 823.13,-156.89"/>
<polygon fill="#63b8ff" stroke="#63b8ff" points="651.06,-196.06 642.71,-202.57 653.3,-202.69 651.06,-196.06"/>
</g>
<!-- Node11 -->
<g id="node11" class="node">
<title>Node11</title>
<g id="a_node11"><a xlink:href="_cooler__observer_8cpp.html" target="_top" xlink:title="Implementación de Cooler_observer.h.">
<polygon fill="white" stroke="#666666" points="609.5,-162 439.5,-162 439.5,-99 609.5,-99 609.5,-162"/>
<text text-anchor="start" x="447.5" y="-150" font-family="Helvetica,sans-Serif" font-size="10.00">C:/Users/juanh/OneDrive</text>
<text text-anchor="start" x="447.5" y="-139" font-family="Helvetica,sans-Serif" font-size="10.00">/Escritorio/Sistemas Embebidos</text>
<text text-anchor="start" x="447.5" y="-128" font-family="Helvetica,sans-Serif" font-size="10.00">/Proyecto final/LAL Control</text>
<text text-anchor="start" x="447.5" y="-117" font-family="Helvetica,sans-Serif" font-size="10.00"> MbedOS/src/Port/observer_pattern</text>
<text text-anchor="middle" x="524.5" y="-106" font-family="Helvetica,sans-Serif" font-size="10.00">/Cooler_observer.cpp</text>
</a>
</g>
</g>
<!-- Node10&#45;&gt;Node11 -->
<g id="edge18" class="edge">
<title>Node10&#45;&gt;Node11</title>
<path fill="none" stroke="#63b8ff" d="M548.32,-192.54C544.37,-182.42 540.21,-171.76 536.49,-162.23"/>
<polygon fill="#63b8ff" stroke="#63b8ff" points="545.05,-193.79 551.95,-201.84 551.57,-191.25 545.05,-193.79"/>
</g>
<!-- Node12&#45;&gt;Node9 -->
<g id="edge20" class="edge">
<title>Node12&#45;&gt;Node9</title>
<path fill="none" stroke="#63b8ff" d="M801.7,-196.65C820.62,-183.37 841.45,-168.74 858.58,-156.72"/>
<polygon fill="#63b8ff" stroke="#63b8ff" points="799.72,-193.77 793.54,-202.38 803.74,-199.5 799.72,-193.77"/>
</g>
<!-- Node13 -->
<g id="node13" class="node">
<title>Node13</title>
<g id="a_node13"><a xlink:href="_instruction__observer_8cpp.html" target="_top" xlink:title="Implementación de Instruction_observer.h.">
<polygon fill="white" stroke="#666666" points="797.5,-162 627.5,-162 627.5,-99 797.5,-99 797.5,-162"/>
<text text-anchor="start" x="635.5" y="-150" font-family="Helvetica,sans-Serif" font-size="10.00">C:/Users/juanh/OneDrive</text>
<text text-anchor="start" x="635.5" y="-139" font-family="Helvetica,sans-Serif" font-size="10.00">/Escritorio/Sistemas Embebidos</text>
<text text-anchor="start" x="635.5" y="-128" font-family="Helvetica,sans-Serif" font-size="10.00">/Proyecto final/LAL Control</text>
<text text-anchor="start" x="635.5" y="-117" font-family="Helvetica,sans-Serif" font-size="10.00"> MbedOS/src/Port/observer_pattern</text>
<text text-anchor="middle" x="712.5" y="-106" font-family="Helvetica,sans-Serif" font-size="10.00">/Instruction_observer.cpp</text>
</a>
</g>
</g>
<!-- Node12&#45;&gt;Node13 -->
<g id="edge21" class="edge">
<title>Node12&#45;&gt;Node13</title>
<path fill="none" stroke="#63b8ff" d="M733.94,-192.54C730.38,-182.42 726.64,-171.76 723.29,-162.23"/>
<polygon fill="#63b8ff" stroke="#63b8ff" points="730.58,-193.54 737.2,-201.82 737.19,-191.22 730.58,-193.54"/>
</g>
<!-- Node14&#45;&gt;Node9 -->
<g id="edge23" class="edge">
<title>Node14&#45;&gt;Node9</title>
<path fill="none" stroke="#63b8ff" d="M941.04,-194.27C931.68,-181.64 921.58,-168.03 913.2,-156.72"/>
<polygon fill="#63b8ff" stroke="#63b8ff" points="938.03,-196.08 946.8,-202.03 943.65,-191.91 938.03,-196.08"/>
</g>
<!-- Node15 -->
<g id="node15" class="node">
<title>Node15</title>
<g id="a_node15"><a xlink:href="_moisture__observer_8cpp.html" target="_top" xlink:title="Implementación de Moisture_observer.h.">
<polygon fill="white" stroke="#666666" points="1161.5,-162 991.5,-162 991.5,-99 1161.5,-99 1161.5,-162"/>
<text text-anchor="start" x="999.5" y="-150" font-family="Helvetica,sans-Serif" font-size="10.00">C:/Users/juanh/OneDrive</text>
<text text-anchor="start" x="999.5" y="-139" font-family="Helvetica,sans-Serif" font-size="10.00">/Escritorio/Sistemas Embebidos</text>
<text text-anchor="start" x="999.5" y="-128" font-family="Helvetica,sans-Serif" font-size="10.00">/Proyecto final/LAL Control</text>
<text text-anchor="start" x="999.5" y="-117" font-family="Helvetica,sans-Serif" font-size="10.00"> MbedOS/src/Port/observer_pattern</text>
<text text-anchor="middle" x="1076.5" y="-106" font-family="Helvetica,sans-Serif" font-size="10.00">/Moisture_observer.cpp</text>
</a>
</g>
</g>
<!-- Node14&#45;&gt;Node15 -->
<g id="edge24" class="edge">
<title>Node14&#45;&gt;Node15</title>
<path fill="none" stroke="#63b8ff" d="M1010.38,-195.44C1021.72,-184.47 1033.93,-172.67 1044.72,-162.23"/>
<polygon fill="#63b8ff" stroke="#63b8ff" points="1008.15,-192.73 1003.39,-202.19 1013.01,-197.76 1008.15,-192.73"/>
</g>
<!-- Node16&#45;&gt;Node2 -->
<g id="edge26" class="edge">
<title>Node16&#45;&gt;Node2</title>
<path fill="none" stroke="#63b8ff" d="M872.75,-373.92C820.51,-389.5 763.82,-405.08 718.46,-416.95"/>
<polygon fill="#63b8ff" stroke="#63b8ff" points="873.46,-377.36 882.03,-371.14 871.44,-370.66 873.46,-377.36"/>
</g>
<!-- Node16&#45;&gt;Node10 -->
<g id="edge27" class="edge">
<title>Node16&#45;&gt;Node10</title>
<path fill="none" stroke="#63b8ff" d="M871.99,-307.81C776.46,-285.61 747.35,-297.02 656.5,-272 651.04,-270.5 645.46,-268.78 639.89,-266.94"/>
<polygon fill="#63b8ff" stroke="#63b8ff" points="871.01,-311.18 881.55,-310.1 872.64,-304.37 871.01,-311.18"/>
</g>
<!-- Node16&#45;&gt;Node12 -->
<g id="edge28" class="edge">
<title>Node16&#45;&gt;Node12</title>
<path fill="none" stroke="#63b8ff" d="M890.65,-302.83C865.7,-291.1 838.19,-278.17 814.07,-266.83"/>
<polygon fill="#63b8ff" stroke="#63b8ff" points="888.89,-305.88 899.43,-306.96 891.87,-299.54 888.89,-305.88"/>
</g>
<!-- Node16&#45;&gt;Node14 -->
<g id="edge29" class="edge">
<title>Node16&#45;&gt;Node14</title>
<path fill="none" stroke="#63b8ff" d="M968.14,-296.4C968.53,-286.46 968.94,-276.05 969.3,-266.73"/>
<polygon fill="#63b8ff" stroke="#63b8ff" points="964.65,-296.11 967.76,-306.23 971.65,-296.38 964.65,-296.11"/>
</g>
<!-- Node16&#45;&gt;Node17 -->
<g id="edge30" class="edge">
<title>Node16&#45;&gt;Node17</title>
<path fill="none" stroke="#63b8ff" d="M1033.42,-302.21C1054.74,-290.64 1078.12,-277.97 1098.65,-266.83"/>
<polygon fill="#63b8ff" stroke="#63b8ff" points="1031.91,-299.04 1024.79,-306.89 1035.25,-305.2 1031.91,-299.04"/>
</g>
<!-- Node17&#45;&gt;Node9 -->
<g id="edge31" class="edge">
<title>Node17&#45;&gt;Node9</title>
<path fill="none" stroke="#63b8ff" d="M1066.57,-199.08C1031.41,-185.27 991.77,-169.7 959.4,-156.99"/>
<polygon fill="#63b8ff" stroke="#63b8ff" points="1064.84,-202.16 1075.43,-202.55 1067.4,-195.64 1064.84,-202.16"/>
</g>
<!-- Node18 -->
<g id="node18" class="node">
<title>Node18</title>
<g id="a_node18"><a xlink:href="_temperature__observer_8cpp.html" target="_top" xlink:title="Implementación de Temperature_observer.h.">
<polygon fill="white" stroke="#666666" points="1349.5,-162 1179.5,-162 1179.5,-99 1349.5,-99 1349.5,-162"/>
<text text-anchor="start" x="1187.5" y="-150" font-family="Helvetica,sans-Serif" font-size="10.00">C:/Users/juanh/OneDrive</text>
<text text-anchor="start" x="1187.5" y="-139" font-family="Helvetica,sans-Serif" font-size="10.00">/Escritorio/Sistemas Embebidos</text>
<text text-anchor="start" x="1187.5" y="-128" font-family="Helvetica,sans-Serif" font-size="10.00">/Proyecto final/LAL Control</text>
<text text-anchor="start" x="1187.5" y="-117" font-family="Helvetica,sans-Serif" font-size="10.00"> MbedOS/src/Port/observer_pattern</text>
<text text-anchor="middle" x="1264.5" y="-106" font-family="Helvetica,sans-Serif" font-size="10.00">/Temperature_observer.cpp</text>
</a>
</g>
</g>
<!-- Node17&#45;&gt;Node18 -->
<g id="edge32" class="edge">
<title>Node17&#45;&gt;Node18</title>
<path fill="none" stroke="#63b8ff" d="M1196.51,-195.44C1208.17,-184.47 1220.72,-172.67 1231.82,-162.23"/>
<polygon fill="#63b8ff" stroke="#63b8ff" points="1194.19,-192.81 1189.31,-202.21 1198.99,-197.91 1194.19,-192.81"/>
</g>
</g>
</svg>
        <g id="navigator" transform="translate(0 0)" fill="#404254">
                <rect fill="#f2f5e9" fill-opacity="0.5" stroke="#606060" stroke-width=".5" x="0" y="0" width="60" height="60"/>
                <use id="zoomplus" xlink:href="#zoomPlus" x="17" y="9" onmousedown="handleZoom(evt,'in')"/>
                <use id="zoomminus" xlink:href="#zoomMin" x="42" y="9" onmousedown="handleZoom(evt,'out')"/>
                <use id="reset" xlink:href="#resetDef" x="30" y="36" onmousedown="handleReset()"/>
                <g id="arrowUp" xlink:href="#dirArrow" transform="translate(30 24)" onmousedown="handlePan(0,-1)">
                  <use xlink:href="#rim" fill="#404040">
                        <set attributeName="fill" to="#808080" begin="arrowUp.mouseover" end="arrowUp.mouseout"/>
                  </use>
                  <path fill="none" stroke="white" stroke-width="1.5" d="M0,-3.0v7 M-2.5,-0.5L0,-3.0L2.5,-0.5"/>
                </g>
                <g id="arrowRight" xlink:href="#dirArrow" transform="rotate(90) translate(36 -43)" onmousedown="handlePan(1,0)">
                  <use xlink:href="#rim" fill="#404040">
                        <set attributeName="fill" to="#808080" begin="arrowRight.mouseover" end="arrowRight.mouseout"/>
                  </use>
                  <path fill="none" stroke="white" stroke-width="1.5" d="M0,-3.0v7 M-2.5,-0.5L0,-3.0L2.5,-0.5"/>
                </g>
                <g id="arrowDown" xlink:href="#dirArrow" transform="rotate(180) translate(-30 -48)" onmousedown="handlePan(0,1)">
                  <use xlink:href="#rim" fill="#404040">
                        <set attributeName="fill" to="#808080" begin="arrowDown.mouseover" end="arrowDown.mouseout"/>
                  </use>
                  <path fill="none" stroke="white" stroke-width="1.5" d="M0,-3.0v7 M-2.5,-0.5L0,-3.0L2.5,-0.5"/>
                </g>
                <g id="arrowLeft" xlink:href="#dirArrow" transform="rotate(270) translate(-36 17)" onmousedown="handlePan(-1,0)">
                  <use xlink:href="#rim" fill="#404040">
                        <set attributeName="fill" to="#808080" begin="arrowLeft.mouseover" end="arrowLeft.mouseout"/>
                  </use>
                  <path fill="none" stroke="white" stroke-width="1.5" d="M0,-3.0v7 M-2.5,-0.5L0,-3.0L2.5,-0.5"/>
                </g>
        </g>
        <svg viewBox="0 0 15 15" width="100%" height="30px" preserveAspectRatio="xMaxYMin meet">
         <g id="arrow_out" transform="scale(0.3 0.3)">
          <a xlink:href="_shutdown__state_8h__dep__incl_org.svg" target="_base">
           <rect id="button" ry="5" rx="5" y="6" x="6" height="38" width="38"
                fill="#f2f5e9" fill-opacity="0.5" stroke="#606060" stroke-width="1.0"/>
           <path id="arrow"
             d="M 11.500037,31.436501 C 11.940474,20.09759 22.043105,11.32322 32.158766,21.979434 L 37.068811,17.246167 C 37.068811,17.246167 37.088388,32 37.088388,32 L 22.160133,31.978069 C 22.160133,31.978069 26.997745,27.140456 26.997745,27.140456 C 18.528582,18.264221 13.291696,25.230495 11.500037,31.436501 z"
             style="fill:#404040;"/>
          </a>
         </g>
        </svg>
</svg>
