<?xml version="1.0" encoding="UTF-8" standalone="no"?>
<!DOCTYPE svg PUBLIC "-//W3C//DTD SVG 1.1//EN"
 "http://www.w3.org/Graphics/SVG/1.1/DTD/svg11.dtd">
<!-- Generated by graphviz version 7.0.2 (20221119.0110)
 -->
<!-- Title: C:/Users/juanh/OneDrive/Escritorio/Sistemas Embebidos/Proyecto final/LAL Control MbedOS/include/observer_pattern/subjects/Subject_interface.h Pages: 1 -->
<svg width="1198pt" height="676pt"
 viewBox="0.00 0.00 1197.50 676.00" xmlns="http://www.w3.org/2000/svg" xmlns:xlink="http://www.w3.org/1999/xlink">
<g id="graph0" class="graph" transform="scale(1 1) rotate(0) translate(4 672)">
<title>C:/Users/juanh/OneDrive/Escritorio/Sistemas Embebidos/Proyecto final/LAL Control MbedOS/include/observer_pattern/subjects/Subject_interface.h</title>
<!-- Node1 -->
<g id="node1" class="node">
<title>Node1</title>
<g id="a_node1"><a xlink:title="Clase para interfaz para implementar el sujeto.">
<polygon fill="#999999" stroke="#666666" points="630,-668 464,-668 464,-605 630,-605 630,-668"/>
<text text-anchor="start" x="472" y="-656" font-family="Helvetica,sans-Serif" font-size="10.00">C:/Users/juanh/OneDrive</text>
<text text-anchor="start" x="472" y="-645" font-family="Helvetica,sans-Serif" font-size="10.00">/Escritorio/Sistemas Embebidos</text>
<text text-anchor="start" x="472" y="-634" font-family="Helvetica,sans-Serif" font-size="10.00">/Proyecto final/LAL Control</text>
<text text-anchor="start" x="472" y="-623" font-family="Helvetica,sans-Serif" font-size="10.00"> MbedOS/include/observer_pattern</text>
<text text-anchor="middle" x="547" y="-612" font-family="Helvetica,sans-Serif" font-size="10.00">/subjects/Subject_interface.h</text>
</a>
</g>
</g>
<!-- Node2 -->
<g id="node2" class="node">
<title>Node2</title>
<g id="a_node2"><a xlink:href="_observer_8h.html" target="_top" xlink:title="Clase observador.">
<polygon fill="white" stroke="#666666" points="538,-569 372,-569 372,-506 538,-506 538,-569"/>
<text text-anchor="start" x="380" y="-557" font-family="Helvetica,sans-Serif" font-size="10.00">C:/Users/juanh/OneDrive</text>
<text text-anchor="start" x="380" y="-546" font-family="Helvetica,sans-Serif" font-size="10.00">/Escritorio/Sistemas Embebidos</text>
<text text-anchor="start" x="380" y="-535" font-family="Helvetica,sans-Serif" font-size="10.00">/Proyecto final/LAL Control</text>
<text text-anchor="start" x="380" y="-524" font-family="Helvetica,sans-Serif" font-size="10.00"> MbedOS/include/observer_pattern</text>
<text text-anchor="middle" x="455" y="-513" font-family="Helvetica,sans-Serif" font-size="10.00">/observers/Observer.h</text>
</a>
</g>
</g>
<!-- Node1&#45;&gt;Node2 -->
<g id="edge1" class="edge">
<title>Node1&#45;&gt;Node2</title>
<path fill="none" stroke="#63b8ff" d="M509.72,-596.19C501.29,-587.3 492.45,-577.99 484.4,-569.5"/>
<polygon fill="#63b8ff" stroke="#63b8ff" points="507.18,-598.6 516.6,-603.44 512.25,-593.78 507.18,-598.6"/>
</g>
<!-- Node15 -->
<g id="node15" class="node">
<title>Node15</title>
<g id="a_node15"><a xlink:href="_subject_8h.html" target="_top" xlink:title=" ">
<polygon fill="white" stroke="#666666" points="723,-569 557,-569 557,-506 723,-506 723,-569"/>
<text text-anchor="start" x="565" y="-557" font-family="Helvetica,sans-Serif" font-size="10.00">C:/Users/juanh/OneDrive</text>
<text text-anchor="start" x="565" y="-546" font-family="Helvetica,sans-Serif" font-size="10.00">/Escritorio/Sistemas Embebidos</text>
<text text-anchor="start" x="565" y="-535" font-family="Helvetica,sans-Serif" font-size="10.00">/Proyecto final/LAL Control</text>
<text text-anchor="start" x="565" y="-524" font-family="Helvetica,sans-Serif" font-size="10.00"> MbedOS/include/observer_pattern</text>
<text text-anchor="middle" x="640" y="-513" font-family="Helvetica,sans-Serif" font-size="10.00">/subjects/Subject.h</text>
</a>
</g>
</g>
<!-- Node1&#45;&gt;Node15 -->
<g id="edge30" class="edge">
<title>Node1&#45;&gt;Node15</title>
<path fill="none" stroke="#63b8ff" d="M584.42,-596.47C593.03,-587.5 602.06,-578.07 610.28,-569.5"/>
<polygon fill="#63b8ff" stroke="#63b8ff" points="582.12,-593.81 577.73,-603.45 587.18,-598.65 582.12,-593.81"/>
</g>
<!-- Node3 -->
<g id="node3" class="node">
<title>Node3</title>
<g id="a_node3"><a xlink:href="_system__observer_8h.html" target="_top" xlink:title="Clase observador del sistema de control.">
<polygon fill="white" stroke="#666666" points="537,-470 371,-470 371,-407 537,-407 537,-470"/>
<text text-anchor="start" x="379" y="-458" font-family="Helvetica,sans-Serif" font-size="10.00">C:/Users/juanh/OneDrive</text>
<text text-anchor="start" x="379" y="-447" font-family="Helvetica,sans-Serif" font-size="10.00">/Escritorio/Sistemas Embebidos</text>
<text text-anchor="start" x="379" y="-436" font-family="Helvetica,sans-Serif" font-size="10.00">/Proyecto final/LAL Control</text>
<text text-anchor="start" x="379" y="-425" font-family="Helvetica,sans-Serif" font-size="10.00"> MbedOS/include/observer_pattern</text>
<text text-anchor="middle" x="454" y="-414" font-family="Helvetica,sans-Serif" font-size="10.00">/observers/System_observer.h</text>
</a>
</g>
</g>
<!-- Node2&#45;&gt;Node3 -->
<g id="edge2" class="edge">
<title>Node2&#45;&gt;Node3</title>
<path fill="none" stroke="#63b8ff" d="M454.56,-494.15C454.48,-486.2 454.4,-478.02 454.32,-470.5"/>
<polygon fill="#63b8ff" stroke="#63b8ff" points="451.06,-494.07 454.67,-504.03 458.06,-493.99 451.06,-494.07"/>
</g>
<!-- Node4 -->
<g id="node4" class="node">
<title>Node4</title>
<g id="a_node4"><a xlink:href="_control__system_8h_source.html" target="_top" xlink:title=" ">
<polygon fill="white" stroke="#666666" points="835.5,-371 664.5,-371 664.5,-319 835.5,-319 835.5,-371"/>
<text text-anchor="start" x="672.5" y="-359" font-family="Helvetica,sans-Serif" font-size="10.00">C:/Users/juanh/OneDrive</text>
<text text-anchor="start" x="672.5" y="-348" font-family="Helvetica,sans-Serif" font-size="10.00">/Escritorio/Sistemas Embebidos</text>
<text text-anchor="start" x="672.5" y="-337" font-family="Helvetica,sans-Serif" font-size="10.00">/Proyecto final/LAL Control</text>
<text text-anchor="middle" x="750" y="-326" font-family="Helvetica,sans-Serif" font-size="10.00"> MbedOS/include/Control_system.h</text>
</a>
</g>
</g>
<!-- Node3&#45;&gt;Node4 -->
<g id="edge3" class="edge">
<title>Node3&#45;&gt;Node4</title>
<path fill="none" stroke="#63b8ff" d="M548.09,-403.52C586.79,-391.43 628.73,-378.88 664.35,-368.6"/>
<polygon fill="#63b8ff" stroke="#63b8ff" points="547.2,-400.13 538.71,-406.46 549.3,-406.81 547.2,-400.13"/>
</g>
<!-- Node10 -->
<g id="node10" class="node">
<title>Node10</title>
<g id="a_node10"><a xlink:href="_cooler__observer_8h_source.html" target="_top" xlink:title=" ">
<polygon fill="white" stroke="#666666" points="722,-277.5 556,-277.5 556,-214.5 722,-214.5 722,-277.5"/>
<text text-anchor="start" x="564" y="-265.5" font-family="Helvetica,sans-Serif" font-size="10.00">C:/Users/juanh/OneDrive</text>
<text text-anchor="start" x="564" y="-254.5" font-family="Helvetica,sans-Serif" font-size="10.00">/Escritorio/Sistemas Embebidos</text>
<text text-anchor="start" x="564" y="-243.5" font-family="Helvetica,sans-Serif" font-size="10.00">/Proyecto final/LAL Control</text>
<text text-anchor="start" x="564" y="-232.5" font-family="Helvetica,sans-Serif" font-size="10.00"> MbedOS/include/observer_pattern</text>
<text text-anchor="middle" x="639" y="-221.5" font-family="Helvetica,sans-Serif" font-size="10.00">/observers/Cooler_observer.h</text>
</a>
</g>
</g>
<!-- Node3&#45;&gt;Node10 -->
<g id="edge26" class="edge">
<title>Node3&#45;&gt;Node10</title>
<path fill="none" stroke="#63b8ff" d="M491.73,-398.65C526.39,-362.96 577.09,-310.75 609.04,-277.85"/>
<polygon fill="#63b8ff" stroke="#63b8ff" points="489.23,-396.19 484.78,-405.81 494.26,-401.07 489.23,-396.19"/>
</g>
<!-- Node11 -->
<g id="node11" class="node">
<title>Node11</title>
<g id="a_node11"><a xlink:href="_instruction__observer_8h.html" target="_top" xlink:title="Observador de instrucciones.">
<polygon fill="white" stroke="#666666" points="168,-277.5 2,-277.5 2,-214.5 168,-214.5 168,-277.5"/>
<text text-anchor="start" x="10" y="-265.5" font-family="Helvetica,sans-Serif" font-size="10.00">C:/Users/juanh/OneDrive</text>
<text text-anchor="start" x="10" y="-254.5" font-family="Helvetica,sans-Serif" font-size="10.00">/Escritorio/Sistemas Embebidos</text>
<text text-anchor="start" x="10" y="-243.5" font-family="Helvetica,sans-Serif" font-size="10.00">/Proyecto final/LAL Control</text>
<text text-anchor="start" x="10" y="-232.5" font-family="Helvetica,sans-Serif" font-size="10.00"> MbedOS/include/observer_pattern</text>
<text text-anchor="middle" x="85" y="-221.5" font-family="Helvetica,sans-Serif" font-size="10.00">/observers/Instruction_observer.h</text>
</a>
</g>
</g>
<!-- Node3&#45;&gt;Node11 -->
<g id="edge27" class="edge">
<title>Node3&#45;&gt;Node11</title>
<path fill="none" stroke="#63b8ff" d="M384.37,-401.56C315.26,-365.87 210.43,-311.75 144.92,-277.93"/>
<polygon fill="#63b8ff" stroke="#63b8ff" points="382.47,-404.51 392.96,-405.99 385.68,-398.29 382.47,-404.51"/>
</g>
<!-- Node13 -->
<g id="node13" class="node">
<title>Node13</title>
<g id="a_node13"><a xlink:href="_moisture__observer_8h.html" target="_top" xlink:title="Observador del sensor de temperatura.">
<polygon fill="white" stroke="#666666" points="352,-277.5 186,-277.5 186,-214.5 352,-214.5 352,-277.5"/>
<text text-anchor="start" x="194" y="-265.5" font-family="Helvetica,sans-Serif" font-size="10.00">C:/Users/juanh/OneDrive</text>
<text text-anchor="start" x="194" y="-254.5" font-family="Helvetica,sans-Serif" font-size="10.00">/Escritorio/Sistemas Embebidos</text>
<text text-anchor="start" x="194" y="-243.5" font-family="Helvetica,sans-Serif" font-size="10.00">/Proyecto final/LAL Control</text>
<text text-anchor="start" x="194" y="-232.5" font-family="Helvetica,sans-Serif" font-size="10.00"> MbedOS/include/observer_pattern</text>
<text text-anchor="middle" x="269" y="-221.5" font-family="Helvetica,sans-Serif" font-size="10.00">/observers/Moisture_observer.h</text>
</a>
</g>
</g>
<!-- Node3&#45;&gt;Node13 -->
<g id="edge28" class="edge">
<title>Node3&#45;&gt;Node13</title>
<path fill="none" stroke="#63b8ff" d="M416.27,-398.65C381.61,-362.96 330.91,-310.75 298.96,-277.85"/>
<polygon fill="#63b8ff" stroke="#63b8ff" points="413.74,-401.07 423.22,-405.81 418.77,-396.19 413.74,-401.07"/>
</g>
<!-- Node14 -->
<g id="node14" class="node">
<title>Node14</title>
<g id="a_node14"><a xlink:href="_temperature__observer_8h.html" target="_top" xlink:title="Observador del sensor de temperatura.">
<polygon fill="white" stroke="#666666" points="537.5,-277.5 370.5,-277.5 370.5,-214.5 537.5,-214.5 537.5,-277.5"/>
<text text-anchor="start" x="378.5" y="-265.5" font-family="Helvetica,sans-Serif" font-size="10.00">C:/Users/juanh/OneDrive</text>
<text text-anchor="start" x="378.5" y="-254.5" font-family="Helvetica,sans-Serif" font-size="10.00">/Escritorio/Sistemas Embebidos</text>
<text text-anchor="start" x="378.5" y="-243.5" font-family="Helvetica,sans-Serif" font-size="10.00">/Proyecto final/LAL Control</text>
<text text-anchor="start" x="378.5" y="-232.5" font-family="Helvetica,sans-Serif" font-size="10.00"> MbedOS/include/observer_pattern</text>
<text text-anchor="middle" x="454" y="-221.5" font-family="Helvetica,sans-Serif" font-size="10.00">/observers/Temperature_observer.h</text>
</a>
</g>
</g>
<!-- Node3&#45;&gt;Node14 -->
<g id="edge29" class="edge">
<title>Node3&#45;&gt;Node14</title>
<path fill="none" stroke="#63b8ff" d="M454,-395.44C454,-359.89 454,-309.78 454,-277.85"/>
<polygon fill="#63b8ff" stroke="#63b8ff" points="450.5,-395.38 454,-405.38 457.5,-395.38 450.5,-395.38"/>
</g>
<!-- Node4&#45;&gt;Node3 -->
<g id="edge23" class="edge">
<title>Node4&#45;&gt;Node3</title>
<path fill="none" stroke="#63b8ff" d="M660.68,-374.61C627.47,-384.64 589.52,-396.12 555,-407 549.3,-408.8 543.42,-410.68 537.48,-412.59"/>
<polygon fill="#63b8ff" stroke="#63b8ff" points="661.27,-378.09 669.83,-371.85 659.25,-371.39 661.27,-378.09"/>
</g>
<!-- Node5 -->
<g id="node5" class="node">
<title>Node5</title>
<g id="a_node5"><a xlink:href="_check__instruction__state_8h_source.html" target="_top" xlink:title=" ">
<polygon fill="white" stroke="#666666" points="974,-283 816,-283 816,-209 974,-209 974,-283"/>
<text text-anchor="start" x="824" y="-271" font-family="Helvetica,sans-Serif" font-size="10.00">C:/Users/juanh/OneDrive</text>
<text text-anchor="start" x="824" y="-260" font-family="Helvetica,sans-Serif" font-size="10.00">/Escritorio/Sistemas Embebidos</text>
<text text-anchor="start" x="824" y="-249" font-family="Helvetica,sans-Serif" font-size="10.00">/Proyecto final/LAL Control</text>
<text text-anchor="start" x="824" y="-238" font-family="Helvetica,sans-Serif" font-size="10.00"> MbedOS/include/machine_state</text>
<text text-anchor="start" x="824" y="-227" font-family="Helvetica,sans-Serif" font-size="10.00">_pattern/machine_states/Check</text>
<text text-anchor="middle" x="895" y="-216" font-family="Helvetica,sans-Serif" font-size="10.00">_instruction_state.h</text>
</a>
</g>
</g>
<!-- Node4&#45;&gt;Node5 -->
<g id="edge4" class="edge">
<title>Node4&#45;&gt;Node5</title>
<path fill="none" stroke="#63b8ff" d="M797.39,-312.3C811.18,-303.08 826.34,-292.93 840.53,-283.44"/>
<polygon fill="#63b8ff" stroke="#63b8ff" points="795.72,-309.2 789.36,-317.67 799.61,-315.02 795.72,-309.2"/>
</g>
<!-- Node6 -->
<g id="node6" class="node">
<title>Node6</title>
<g id="a_node6"><a xlink:href="_idle__state_8h.html" target="_top" xlink:title="Clase de estado de reposo.">
<polygon fill="white" stroke="#666666" points="1049.5,-173 872.5,-173 872.5,-110 1049.5,-110 1049.5,-173"/>
<text text-anchor="start" x="880.5" y="-161" font-family="Helvetica,sans-Serif" font-size="10.00">C:/Users/juanh/OneDrive</text>
<text text-anchor="start" x="880.5" y="-150" font-family="Helvetica,sans-Serif" font-size="10.00">/Escritorio/Sistemas Embebidos</text>
<text text-anchor="start" x="880.5" y="-139" font-family="Helvetica,sans-Serif" font-size="10.00">/Proyecto final/LAL Control</text>
<text text-anchor="start" x="880.5" y="-128" font-family="Helvetica,sans-Serif" font-size="10.00"> MbedOS/include/machine_state</text>
<text text-anchor="middle" x="961" y="-117" font-family="Helvetica,sans-Serif" font-size="10.00">_pattern/machine_states/Idle_state.h</text>
</a>
</g>
</g>
<!-- Node4&#45;&gt;Node6 -->
<g id="edge12" class="edge">
<title>Node4&#45;&gt;Node6</title>
<path fill="none" stroke="#63b8ff" d="M846.87,-330.72C903.01,-320.81 965.9,-305.15 983,-283 1007.21,-251.63 992.42,-204.37 978.01,-173.47"/>
<polygon fill="#63b8ff" stroke="#63b8ff" points="846.5,-327.23 837.24,-332.36 847.68,-334.13 846.5,-327.23"/>
</g>
<!-- Node7 -->
<g id="node7" class="node">
<title>Node7</title>
<g id="a_node7"><a xlink:href="_motor__control__state_8h.html" target="_top" xlink:title="Clase de estado de control del motor.">
<polygon fill="white" stroke="#666666" points="914,-74 756,-74 756,0 914,0 914,-74"/>
<text text-anchor="start" x="764" y="-62" font-family="Helvetica,sans-Serif" font-size="10.00">C:/Users/juanh/OneDrive</text>
<text text-anchor="start" x="764" y="-51" font-family="Helvetica,sans-Serif" font-size="10.00">/Escritorio/Sistemas Embebidos</text>
<text text-anchor="start" x="764" y="-40" font-family="Helvetica,sans-Serif" font-size="10.00">/Proyecto final/LAL Control</text>
<text text-anchor="start" x="764" y="-29" font-family="Helvetica,sans-Serif" font-size="10.00"> MbedOS/include/machine_state</text>
<text text-anchor="start" x="764" y="-18" font-family="Helvetica,sans-Serif" font-size="10.00">_pattern/machine_states/Motor</text>
<text text-anchor="middle" x="835" y="-7" font-family="Helvetica,sans-Serif" font-size="10.00">_control_state.h</text>
</a>
</g>
</g>
<!-- Node4&#45;&gt;Node7 -->
<g id="edge13" class="edge">
<title>Node4&#45;&gt;Node7</title>
<path fill="none" stroke="#63b8ff" d="M760.08,-307.73C776.41,-248.92 808.49,-133.44 824.86,-74.49"/>
<polygon fill="#63b8ff" stroke="#63b8ff" points="756.74,-306.67 757.43,-317.24 763.48,-308.54 756.74,-306.67"/>
</g>
<!-- Node8 -->
<g id="node8" class="node">
<title>Node8</title>
<g id="a_node8"><a xlink:href="_shutdown__state_8h.html" target="_top" xlink:title="Clase de estado de apagado del sistema.">
<polygon fill="white" stroke="#666666" points="1189.5,-68.5 984.5,-68.5 984.5,-5.5 1189.5,-5.5 1189.5,-68.5"/>
<text text-anchor="start" x="992.5" y="-56.5" font-family="Helvetica,sans-Serif" font-size="10.00">C:/Users/juanh/OneDrive</text>
<text text-anchor="start" x="992.5" y="-45.5" font-family="Helvetica,sans-Serif" font-size="10.00">/Escritorio/Sistemas Embebidos</text>
<text text-anchor="start" x="992.5" y="-34.5" font-family="Helvetica,sans-Serif" font-size="10.00">/Proyecto final/LAL Control</text>
<text text-anchor="start" x="992.5" y="-23.5" font-family="Helvetica,sans-Serif" font-size="10.00"> MbedOS/include/machine_state</text>
<text text-anchor="middle" x="1087" y="-12.5" font-family="Helvetica,sans-Serif" font-size="10.00">_pattern/machine_states/Shutdown_state.h</text>
</a>
</g>
</g>
<!-- Node4&#45;&gt;Node8 -->
<g id="edge14" class="edge">
<title>Node4&#45;&gt;Node8</title>
<path fill="none" stroke="#63b8ff" d="M846.91,-338.7C895.3,-331.53 952.22,-315.98 994,-283 1060.71,-230.34 1074.7,-121.9 1081.08,-68.74"/>
<polygon fill="#63b8ff" stroke="#63b8ff" points="846.7,-335.2 837.27,-340.02 847.65,-342.13 846.7,-335.2"/>
</g>
<!-- Node9 -->
<g id="node9" class="node">
<title>Node9</title>
<g id="a_node9"><a xlink:href="main_8h.html" target="_top" xlink:title="Archivo principal del programa.">
<polygon fill="white" stroke="#666666" points="532.5,-167.5 375.5,-167.5 375.5,-115.5 532.5,-115.5 532.5,-167.5"/>
<text text-anchor="start" x="383.5" y="-155.5" font-family="Helvetica,sans-Serif" font-size="10.00">C:/Users/juanh/OneDrive</text>
<text text-anchor="start" x="383.5" y="-144.5" font-family="Helvetica,sans-Serif" font-size="10.00">/Escritorio/Sistemas Embebidos</text>
<text text-anchor="start" x="383.5" y="-133.5" font-family="Helvetica,sans-Serif" font-size="10.00">/Proyecto final/LAL Control</text>
<text text-anchor="middle" x="454" y="-122.5" font-family="Helvetica,sans-Serif" font-size="10.00"> MbedOS/include/main.h</text>
</a>
</g>
</g>
<!-- Node4&#45;&gt;Node9 -->
<g id="edge15" class="edge">
<title>Node4&#45;&gt;Node9</title>
<path fill="none" stroke="#63b8ff" d="M755.2,-307.29C757.3,-277.15 754.89,-235.29 731,-209 704.69,-180.04 605.06,-161.47 532.81,-151.51"/>
<polygon fill="#63b8ff" stroke="#63b8ff" points="751.73,-306.83 754.31,-317.11 758.7,-307.47 751.73,-306.83"/>
</g>
<!-- Node4&#45;&gt;Node10 -->
<g id="edge16" class="edge">
<title>Node4&#45;&gt;Node10</title>
<path fill="none" stroke="#63b8ff" d="M712.17,-310.95C699.91,-300.23 686.37,-288.39 674.3,-277.85"/>
<polygon fill="#63b8ff" stroke="#63b8ff" points="709.86,-313.57 719.7,-317.52 714.47,-308.3 709.86,-313.57"/>
</g>
<!-- Node4&#45;&gt;Node11 -->
<g id="edge18" class="edge">
<title>Node4&#45;&gt;Node11</title>
<path fill="none" stroke="#63b8ff" d="M653.1,-341.54C538.06,-336.83 341.12,-323.08 177,-283 171.17,-281.58 165.21,-279.87 159.27,-277.98"/>
<polygon fill="#63b8ff" stroke="#63b8ff" points="652.67,-345.03 662.8,-341.92 652.95,-338.03 652.67,-345.03"/>
</g>
<!-- Node4&#45;&gt;Node13 -->
<g id="edge21" class="edge">
<title>Node4&#45;&gt;Node13</title>
<path fill="none" stroke="#63b8ff" d="M653.3,-334.75C573.84,-325.75 458.84,-309.48 361,-283 355.54,-281.52 349.95,-279.83 344.37,-277.99"/>
<polygon fill="#63b8ff" stroke="#63b8ff" points="652.44,-338.18 662.77,-335.81 653.22,-331.22 652.44,-338.18"/>
</g>
<!-- Node4&#45;&gt;Node14 -->
<g id="edge24" class="edge">
<title>Node4&#45;&gt;Node14</title>
<path fill="none" stroke="#63b8ff" d="M653.28,-316.6C619.48,-306.58 581.39,-294.8 547,-283 542.33,-281.4 537.55,-279.71 532.74,-277.97"/>
<polygon fill="#63b8ff" stroke="#63b8ff" points="652.06,-319.89 662.64,-319.36 654.04,-313.17 652.06,-319.89"/>
</g>
<!-- Node5&#45;&gt;Node6 -->
<g id="edge5" class="edge">
<title>Node5&#45;&gt;Node6</title>
<path fill="none" stroke="#63b8ff" d="M924.66,-198.94C930.23,-190.29 935.93,-181.44 941.11,-173.38"/>
<polygon fill="#63b8ff" stroke="#63b8ff" points="921.75,-197 919.27,-207.3 927.63,-200.79 921.75,-197"/>
</g>
<!-- Node5&#45;&gt;Node7 -->
<g id="edge11" class="edge">
<title>Node5&#45;&gt;Node7</title>
<path fill="none" stroke="#63b8ff" d="M864.45,-198.25C860.91,-189.94 857.65,-181.3 855,-173 844.54,-140.23 836.69,-101.78 833.4,-74.31"/>
<polygon fill="#63b8ff" stroke="#63b8ff" points="861.16,-199.46 868.45,-207.15 867.55,-196.59 861.16,-199.46"/>
</g>
<!-- Node6&#45;&gt;Node7 -->
<g id="edge6" class="edge">
<title>Node6&#45;&gt;Node7</title>
<path fill="none" stroke="#63b8ff" d="M908.06,-102.75C896.27,-93.4 884,-83.41 872.95,-74.14"/>
<polygon fill="#63b8ff" stroke="#63b8ff" points="905.74,-105.38 915.76,-108.81 910.07,-99.88 905.74,-105.38"/>
</g>
<!-- Node6&#45;&gt;Node8 -->
<g id="edge9" class="edge">
<title>Node6&#45;&gt;Node8</title>
<path fill="none" stroke="#63b8ff" d="M1007.62,-102.57C1021.33,-91.43 1036.14,-79.37 1049.22,-68.73"/>
<polygon fill="#63b8ff" stroke="#63b8ff" points="1005.53,-99.77 999.98,-108.79 1009.94,-105.2 1005.53,-99.77"/>
</g>
<!-- Node7&#45;&gt;Node5 -->
<g id="edge7" class="edge">
<title>Node7&#45;&gt;Node5</title>
<path fill="none" stroke="#63b8ff" d="M850.8,-85.45C856.76,-111.6 863.88,-144.45 873,-173 876.77,-184.8 881.77,-197.31 886.26,-208.53"/>
<polygon fill="#63b8ff" stroke="#63b8ff" points="854.23,-84.75 848.57,-75.79 847.41,-86.32 854.23,-84.75"/>
</g>
<!-- Node7&#45;&gt;Node6 -->
<g id="edge8" class="edge">
<title>Node7&#45;&gt;Node6</title>
<path fill="none" stroke="#63b8ff" d="M894.62,-81.07C906.64,-90.7 918.83,-100.73 929.44,-109.75"/>
<polygon fill="#63b8ff" stroke="#63b8ff" points="897.1,-78.57 887.1,-75.09 892.74,-84.05 897.1,-78.57"/>
</g>
<!-- Node8&#45;&gt;Node4 -->
<g id="edge10" class="edge">
<title>Node8&#45;&gt;Node4</title>
<path fill="none" stroke="#63b8ff" d="M1091.8,-80.03C1090.61,-136.05 1074.28,-233.84 1012,-283 962.35,-322.19 891.34,-336.76 835.71,-341.92"/>
<polygon fill="#63b8ff" stroke="#63b8ff" points="1095.3,-80.26 1091.83,-70.25 1088.3,-80.24 1095.3,-80.26"/>
</g>
<!-- Node10&#45;&gt;Node9 -->
<g id="edge17" class="edge">
<title>Node10&#45;&gt;Node9</title>
<path fill="none" stroke="#63b8ff" d="M573.39,-208.65C549.12,-195.2 522.16,-180.26 500,-167.99"/>
<polygon fill="#63b8ff" stroke="#63b8ff" points="571.48,-211.59 581.92,-213.37 574.87,-205.47 571.48,-211.59"/>
</g>
<!-- Node11&#45;&gt;Node9 -->
<g id="edge19" class="edge">
<title>Node11&#45;&gt;Node9</title>
<path fill="none" stroke="#63b8ff" d="M172.29,-210.51C173.87,-209.99 175.44,-209.49 177,-209 242.82,-188.33 319.16,-170.44 375.01,-158.44"/>
<polygon fill="#63b8ff" stroke="#63b8ff" points="171.56,-207.06 163.21,-213.58 173.8,-213.69 171.56,-207.06"/>
</g>
<!-- Node12 -->
<g id="node12" class="node">
<title>Node12</title>
<g id="a_node12"><a xlink:href="_instruction__observer_8cpp.html" target="_top" xlink:title=" ">
<polygon fill="white" stroke="#666666" points="170,-173 0,-173 0,-110 170,-110 170,-173"/>
<text text-anchor="start" x="8" y="-161" font-family="Helvetica,sans-Serif" font-size="10.00">C:/Users/juanh/OneDrive</text>
<text text-anchor="start" x="8" y="-150" font-family="Helvetica,sans-Serif" font-size="10.00">/Escritorio/Sistemas Embebidos</text>
<text text-anchor="start" x="8" y="-139" font-family="Helvetica,sans-Serif" font-size="10.00">/Proyecto final/LAL Control</text>
<text text-anchor="start" x="8" y="-128" font-family="Helvetica,sans-Serif" font-size="10.00"> MbedOS/src/Port/observer_pattern</text>
<text text-anchor="middle" x="85" y="-117" font-family="Helvetica,sans-Serif" font-size="10.00">/Instruction_observer.cpp</text>
</a>
</g>
</g>
<!-- Node11&#45;&gt;Node12 -->
<g id="edge20" class="edge">
<title>Node11&#45;&gt;Node12</title>
<path fill="none" stroke="#63b8ff" d="M85,-202.9C85,-192.96 85,-182.55 85,-173.23"/>
<polygon fill="#63b8ff" stroke="#63b8ff" points="81.5,-202.73 85,-212.73 88.5,-202.73 81.5,-202.73"/>
</g>
<!-- Node13&#45;&gt;Node9 -->
<g id="edge22" class="edge">
<title>Node13&#45;&gt;Node9</title>
<path fill="none" stroke="#63b8ff" d="M334.61,-208.65C358.88,-195.2 385.84,-180.26 408,-167.99"/>
<polygon fill="#63b8ff" stroke="#63b8ff" points="333.13,-205.47 326.08,-213.37 336.52,-211.59 333.13,-205.47"/>
</g>
<!-- Node14&#45;&gt;Node9 -->
<g id="edge25" class="edge">
<title>Node14&#45;&gt;Node9</title>
<path fill="none" stroke="#63b8ff" d="M454,-203.06C454,-191.06 454,-178.37 454,-167.72"/>
<polygon fill="#63b8ff" stroke="#63b8ff" points="450.5,-202.73 454,-212.73 457.5,-202.73 450.5,-202.73"/>
</g>
<!-- Node15&#45;&gt;Node4 -->
<g id="edge31" class="edge">
<title>Node15&#45;&gt;Node4</title>
<path fill="none" stroke="#63b8ff" d="M708.45,-498.66C718.4,-490.43 727.46,-480.86 734,-470 752.24,-439.68 753.74,-397.7 752.42,-371.2"/>
<polygon fill="#63b8ff" stroke="#63b8ff" points="706.5,-495.75 700.73,-504.64 710.78,-501.29 706.5,-495.75"/>
</g>
<!-- Node16 -->
<g id="node16" class="node">
<title>Node16</title>
<g id="a_node16"><a xlink:href="_subject_8cpp.html" target="_top" xlink:title=" ">
<polygon fill="white" stroke="#666666" points="725,-470 555,-470 555,-407 725,-407 725,-470"/>
<text text-anchor="start" x="563" y="-458" font-family="Helvetica,sans-Serif" font-size="10.00">C:/Users/juanh/OneDrive</text>
<text text-anchor="start" x="563" y="-447" font-family="Helvetica,sans-Serif" font-size="10.00">/Escritorio/Sistemas Embebidos</text>
<text text-anchor="start" x="563" y="-436" font-family="Helvetica,sans-Serif" font-size="10.00">/Proyecto final/LAL Control</text>
<text text-anchor="start" x="563" y="-425" font-family="Helvetica,sans-Serif" font-size="10.00"> MbedOS/src/Port/observer_pattern</text>
<text text-anchor="middle" x="640" y="-414" font-family="Helvetica,sans-Serif" font-size="10.00">/Subject.cpp</text>
</a>
</g>
</g>
<!-- Node15&#45;&gt;Node16 -->
<g id="edge32" class="edge">
<title>Node15&#45;&gt;Node16</title>
<path fill="none" stroke="#63b8ff" d="M640,-494.15C640,-486.2 640,-478.02 640,-470.5"/>
<polygon fill="#63b8ff" stroke="#63b8ff" points="636.5,-494.03 640,-504.03 643.5,-494.03 636.5,-494.03"/>
</g>
</g>
</svg>
