<?xml version="1.0" encoding="UTF-8" standalone="no"?>
<!DOCTYPE svg PUBLIC "-//W3C//DTD SVG 1.1//EN"
 "http://www.w3.org/Graphics/SVG/1.1/DTD/svg11.dtd">
<!-- Generated by graphviz version 7.0.2 (20221119.0110)
 -->
<!-- Title: C:/Users/juanh/OneDrive/Escritorio/Facultad/Beca/Proyecto/LAL Control Arduino/include/observer_pattern/subjects/Subject_interface.h Pages: 1 -->
<svg width="999pt" height="654pt"
 viewBox="0.00 0.00 998.50 654.00" xmlns="http://www.w3.org/2000/svg" xmlns:xlink="http://www.w3.org/1999/xlink">
<g id="graph0" class="graph" transform="scale(1 1) rotate(0) translate(4 650)">
<title>C:/Users/juanh/OneDrive/Escritorio/Facultad/Beca/Proyecto/LAL Control Arduino/include/observer_pattern/subjects/Subject_interface.h</title>
<!-- Node1 -->
<g id="node1" class="node">
<title>Node1</title>
<g id="a_node1"><a xlink:title="Clase para interfaz para implementar el sujeto.">
<polygon fill="#999999" stroke="#666666" points="532.5,-646 368.5,-646 368.5,-583 532.5,-583 532.5,-646"/>
<text text-anchor="start" x="376.5" y="-634" font-family="Helvetica,sans-Serif" font-size="10.00">C:/Users/juanh/OneDrive</text>
<text text-anchor="start" x="376.5" y="-623" font-family="Helvetica,sans-Serif" font-size="10.00">/Escritorio/Facultad/Beca</text>
<text text-anchor="start" x="376.5" y="-612" font-family="Helvetica,sans-Serif" font-size="10.00">/Proyecto/LAL Control Arduino</text>
<text text-anchor="start" x="376.5" y="-601" font-family="Helvetica,sans-Serif" font-size="10.00">/include/observer_pattern/subjects</text>
<text text-anchor="middle" x="450.5" y="-590" font-family="Helvetica,sans-Serif" font-size="10.00">/Subject_interface.h</text>
</a>
</g>
</g>
<!-- Node2 -->
<g id="node2" class="node">
<title>Node2</title>
<g id="a_node2"><a xlink:href="_observer_8h.html" target="_top" xlink:title="Clase observador.">
<polygon fill="white" stroke="#666666" points="443,-547 274,-547 274,-484 443,-484 443,-547"/>
<text text-anchor="start" x="282" y="-535" font-family="Helvetica,sans-Serif" font-size="10.00">C:/Users/juanh/OneDrive</text>
<text text-anchor="start" x="282" y="-524" font-family="Helvetica,sans-Serif" font-size="10.00">/Escritorio/Facultad/Beca</text>
<text text-anchor="start" x="282" y="-513" font-family="Helvetica,sans-Serif" font-size="10.00">/Proyecto/LAL Control Arduino</text>
<text text-anchor="start" x="282" y="-502" font-family="Helvetica,sans-Serif" font-size="10.00">/include/observer_pattern/observers</text>
<text text-anchor="middle" x="358.5" y="-491" font-family="Helvetica,sans-Serif" font-size="10.00">/Observer.h</text>
</a>
</g>
</g>
<!-- Node1&#45;&gt;Node2 -->
<g id="edge1" class="edge">
<title>Node1&#45;&gt;Node2</title>
<path fill="none" stroke="#63b8ff" d="M413.22,-574.19C404.79,-565.3 395.95,-555.99 387.9,-547.5"/>
<polygon fill="#63b8ff" stroke="#63b8ff" points="410.68,-576.6 420.1,-581.44 415.75,-571.78 410.68,-576.6"/>
</g>
<!-- Node13 -->
<g id="node13" class="node">
<title>Node13</title>
<g id="a_node13"><a xlink:href="_subject_8h.html" target="_top" xlink:title=" ">
<polygon fill="white" stroke="#666666" points="625.5,-547 461.5,-547 461.5,-484 625.5,-484 625.5,-547"/>
<text text-anchor="start" x="469.5" y="-535" font-family="Helvetica,sans-Serif" font-size="10.00">C:/Users/juanh/OneDrive</text>
<text text-anchor="start" x="469.5" y="-524" font-family="Helvetica,sans-Serif" font-size="10.00">/Escritorio/Facultad/Beca</text>
<text text-anchor="start" x="469.5" y="-513" font-family="Helvetica,sans-Serif" font-size="10.00">/Proyecto/LAL Control Arduino</text>
<text text-anchor="start" x="469.5" y="-502" font-family="Helvetica,sans-Serif" font-size="10.00">/include/observer_pattern/subjects</text>
<text text-anchor="middle" x="543.5" y="-491" font-family="Helvetica,sans-Serif" font-size="10.00">/Subject.h</text>
</a>
</g>
</g>
<!-- Node1&#45;&gt;Node13 -->
<g id="edge25" class="edge">
<title>Node1&#45;&gt;Node13</title>
<path fill="none" stroke="#63b8ff" d="M487.92,-574.47C496.53,-565.5 505.56,-556.07 513.78,-547.5"/>
<polygon fill="#63b8ff" stroke="#63b8ff" points="485.62,-571.81 481.23,-581.45 490.68,-576.65 485.62,-571.81"/>
</g>
<!-- Node3 -->
<g id="node3" class="node">
<title>Node3</title>
<g id="a_node3"><a xlink:href="_system__observer_8h.html" target="_top" xlink:title="Clase observador del sistema de control.">
<polygon fill="white" stroke="#666666" points="443,-448 274,-448 274,-385 443,-385 443,-448"/>
<text text-anchor="start" x="282" y="-436" font-family="Helvetica,sans-Serif" font-size="10.00">C:/Users/juanh/OneDrive</text>
<text text-anchor="start" x="282" y="-425" font-family="Helvetica,sans-Serif" font-size="10.00">/Escritorio/Facultad/Beca</text>
<text text-anchor="start" x="282" y="-414" font-family="Helvetica,sans-Serif" font-size="10.00">/Proyecto/LAL Control Arduino</text>
<text text-anchor="start" x="282" y="-403" font-family="Helvetica,sans-Serif" font-size="10.00">/include/observer_pattern/observers</text>
<text text-anchor="middle" x="358.5" y="-392" font-family="Helvetica,sans-Serif" font-size="10.00">/System_observer.h</text>
</a>
</g>
</g>
<!-- Node2&#45;&gt;Node3 -->
<g id="edge2" class="edge">
<title>Node2&#45;&gt;Node3</title>
<path fill="none" stroke="#63b8ff" d="M358.5,-472.15C358.5,-464.2 358.5,-456.02 358.5,-448.5"/>
<polygon fill="#63b8ff" stroke="#63b8ff" points="355,-472.03 358.5,-482.03 362,-472.03 355,-472.03"/>
</g>
<!-- Node4 -->
<g id="node4" class="node">
<title>Node4</title>
<g id="a_node4"><a xlink:href="_control__system_8h.html" target="_top" xlink:title="Clase para el sistema de control.">
<polygon fill="white" stroke="#666666" points="693,-349 544,-349 544,-297 693,-297 693,-349"/>
<text text-anchor="start" x="552" y="-337" font-family="Helvetica,sans-Serif" font-size="10.00">C:/Users/juanh/OneDrive</text>
<text text-anchor="start" x="552" y="-326" font-family="Helvetica,sans-Serif" font-size="10.00">/Escritorio/Facultad/Beca</text>
<text text-anchor="start" x="552" y="-315" font-family="Helvetica,sans-Serif" font-size="10.00">/Proyecto/LAL Control Arduino</text>
<text text-anchor="middle" x="618.5" y="-304" font-family="Helvetica,sans-Serif" font-size="10.00">/include/Control_system.h</text>
</a>
</g>
</g>
<!-- Node3&#45;&gt;Node4 -->
<g id="edge3" class="edge">
<title>Node3&#45;&gt;Node4</title>
<path fill="none" stroke="#63b8ff" d="M450.75,-380.72C481.27,-369.86 514.81,-358.12 543.85,-348.15"/>
<polygon fill="#63b8ff" stroke="#63b8ff" points="449.76,-377.36 441.52,-384.01 452.12,-383.95 449.76,-377.36"/>
</g>
<!-- Node10 -->
<g id="node10" class="node">
<title>Node10</title>
<g id="a_node10"><a xlink:href="_cooler__observer_8h_source.html" target="_top" xlink:title=" ">
<polygon fill="white" stroke="#666666" points="356,-261 187,-261 187,-198 356,-198 356,-261"/>
<text text-anchor="start" x="195" y="-249" font-family="Helvetica,sans-Serif" font-size="10.00">C:/Users/juanh/OneDrive</text>
<text text-anchor="start" x="195" y="-238" font-family="Helvetica,sans-Serif" font-size="10.00">/Escritorio/Facultad/Beca</text>
<text text-anchor="start" x="195" y="-227" font-family="Helvetica,sans-Serif" font-size="10.00">/Proyecto/LAL Control Arduino</text>
<text text-anchor="start" x="195" y="-216" font-family="Helvetica,sans-Serif" font-size="10.00">/include/observer_pattern/observers</text>
<text text-anchor="middle" x="271.5" y="-205" font-family="Helvetica,sans-Serif" font-size="10.00">/Cooler_observer.h</text>
</a>
</g>
</g>
<!-- Node3&#45;&gt;Node10 -->
<g id="edge22" class="edge">
<title>Node3&#45;&gt;Node10</title>
<path fill="none" stroke="#63b8ff" d="M339.17,-374.39C323.08,-340.18 300.53,-292.22 285.96,-261.26"/>
<polygon fill="#63b8ff" stroke="#63b8ff" points="335.87,-375.61 343.29,-383.17 342.21,-372.63 335.87,-375.61"/>
</g>
<!-- Node11 -->
<g id="node11" class="node">
<title>Node11</title>
<g id="a_node11"><a xlink:href="_moisture__observer_8h.html" target="_top" xlink:title="Observador del sensor de temperatura.">
<polygon fill="white" stroke="#666666" points="543,-261 374,-261 374,-198 543,-198 543,-261"/>
<text text-anchor="start" x="382" y="-249" font-family="Helvetica,sans-Serif" font-size="10.00">C:/Users/juanh/OneDrive</text>
<text text-anchor="start" x="382" y="-238" font-family="Helvetica,sans-Serif" font-size="10.00">/Escritorio/Facultad/Beca</text>
<text text-anchor="start" x="382" y="-227" font-family="Helvetica,sans-Serif" font-size="10.00">/Proyecto/LAL Control Arduino</text>
<text text-anchor="start" x="382" y="-216" font-family="Helvetica,sans-Serif" font-size="10.00">/include/observer_pattern/observers</text>
<text text-anchor="middle" x="458.5" y="-205" font-family="Helvetica,sans-Serif" font-size="10.00">/Moisture_observer.h</text>
</a>
</g>
</g>
<!-- Node3&#45;&gt;Node11 -->
<g id="edge23" class="edge">
<title>Node3&#45;&gt;Node11</title>
<path fill="none" stroke="#63b8ff" d="M380.48,-374.83C398.99,-340.59 425.06,-292.36 441.87,-261.26"/>
<polygon fill="#63b8ff" stroke="#63b8ff" points="377.63,-372.74 375.96,-383.2 383.79,-376.07 377.63,-372.74"/>
</g>
<!-- Node12 -->
<g id="node12" class="node">
<title>Node12</title>
<g id="a_node12"><a xlink:href="_temperature__observer_8h.html" target="_top" xlink:title="Observador del sensor de temperatura.">
<polygon fill="white" stroke="#666666" points="169,-261 0,-261 0,-198 169,-198 169,-261"/>
<text text-anchor="start" x="8" y="-249" font-family="Helvetica,sans-Serif" font-size="10.00">C:/Users/juanh/OneDrive</text>
<text text-anchor="start" x="8" y="-238" font-family="Helvetica,sans-Serif" font-size="10.00">/Escritorio/Facultad/Beca</text>
<text text-anchor="start" x="8" y="-227" font-family="Helvetica,sans-Serif" font-size="10.00">/Proyecto/LAL Control Arduino</text>
<text text-anchor="start" x="8" y="-216" font-family="Helvetica,sans-Serif" font-size="10.00">/include/observer_pattern/observers</text>
<text text-anchor="middle" x="84.5" y="-205" font-family="Helvetica,sans-Serif" font-size="10.00">/Temperature_observer.h</text>
</a>
</g>
</g>
<!-- Node3&#45;&gt;Node12 -->
<g id="edge24" class="edge">
<title>Node3&#45;&gt;Node12</title>
<path fill="none" stroke="#63b8ff" d="M303.1,-378.1C252.18,-343.72 177.6,-293.36 130.05,-261.26"/>
<polygon fill="#63b8ff" stroke="#63b8ff" points="301.14,-380.99 311.38,-383.69 305.05,-375.19 301.14,-380.99"/>
</g>
<!-- Node4&#45;&gt;Node3 -->
<g id="edge19" class="edge">
<title>Node4&#45;&gt;Node3</title>
<path fill="none" stroke="#63b8ff" d="M541.67,-353.27C510.8,-364.33 475.12,-376.88 443.47,-387.8"/>
<polygon fill="#63b8ff" stroke="#63b8ff" points="542.73,-356.61 550.95,-349.94 540.36,-350.02 542.73,-356.61"/>
</g>
<!-- Node5 -->
<g id="node5" class="node">
<title>Node5</title>
<g id="a_node5"><a xlink:href="_alarm__state_8h.html" target="_top" xlink:title="Clase de estado de control del motor.">
<polygon fill="white" stroke="#666666" points="807.5,-261 655.5,-261 655.5,-198 807.5,-198 807.5,-261"/>
<text text-anchor="start" x="663.5" y="-249" font-family="Helvetica,sans-Serif" font-size="10.00">C:/Users/juanh/OneDrive</text>
<text text-anchor="start" x="663.5" y="-238" font-family="Helvetica,sans-Serif" font-size="10.00">/Escritorio/Facultad/Beca</text>
<text text-anchor="start" x="663.5" y="-227" font-family="Helvetica,sans-Serif" font-size="10.00">/Proyecto/LAL Control Arduino</text>
<text text-anchor="start" x="663.5" y="-216" font-family="Helvetica,sans-Serif" font-size="10.00">/include/machine_state_pattern</text>
<text text-anchor="middle" x="731.5" y="-205" font-family="Helvetica,sans-Serif" font-size="10.00">/machine_states/Alarm_state.h</text>
</a>
</g>
</g>
<!-- Node4&#45;&gt;Node5 -->
<g id="edge4" class="edge">
<title>Node4&#45;&gt;Node5</title>
<path fill="none" stroke="#63b8ff" d="M658.77,-289.39C670.03,-280.28 682.23,-270.4 693.36,-261.38"/>
<polygon fill="#63b8ff" stroke="#63b8ff" points="656.72,-286.55 651.15,-295.56 661.13,-291.99 656.72,-286.55"/>
</g>
<!-- Node6 -->
<g id="node6" class="node">
<title>Node6</title>
<g id="a_node6"><a xlink:href="_check__instruction__state_8h_source.html" target="_top" xlink:title=" ">
<polygon fill="white" stroke="#666666" points="698,-162 493,-162 493,-99 698,-99 698,-162"/>
<text text-anchor="start" x="501" y="-150" font-family="Helvetica,sans-Serif" font-size="10.00">C:/Users/juanh/OneDrive</text>
<text text-anchor="start" x="501" y="-139" font-family="Helvetica,sans-Serif" font-size="10.00">/Escritorio/Facultad/Beca</text>
<text text-anchor="start" x="501" y="-128" font-family="Helvetica,sans-Serif" font-size="10.00">/Proyecto/LAL Control Arduino</text>
<text text-anchor="start" x="501" y="-117" font-family="Helvetica,sans-Serif" font-size="10.00">/include/machine_state_pattern</text>
<text text-anchor="middle" x="595.5" y="-106" font-family="Helvetica,sans-Serif" font-size="10.00">/machine_states/Check_instruction_state.h</text>
</a>
</g>
</g>
<!-- Node4&#45;&gt;Node6 -->
<g id="edge11" class="edge">
<title>Node4&#45;&gt;Node6</title>
<path fill="none" stroke="#63b8ff" d="M608.7,-285.79C602.53,-250.05 596.1,-195.99 594.09,-162.27"/>
<polygon fill="#63b8ff" stroke="#63b8ff" points="605.18,-286 610.41,-295.21 612.06,-284.75 605.18,-286"/>
</g>
<!-- Node7 -->
<g id="node7" class="node">
<title>Node7</title>
<g id="a_node7"><a xlink:href="_idle__state_8h.html" target="_top" xlink:title="Clase de estado de reposo.">
<polygon fill="white" stroke="#666666" points="868.5,-162 716.5,-162 716.5,-99 868.5,-99 868.5,-162"/>
<text text-anchor="start" x="724.5" y="-150" font-family="Helvetica,sans-Serif" font-size="10.00">C:/Users/juanh/OneDrive</text>
<text text-anchor="start" x="724.5" y="-139" font-family="Helvetica,sans-Serif" font-size="10.00">/Escritorio/Facultad/Beca</text>
<text text-anchor="start" x="724.5" y="-128" font-family="Helvetica,sans-Serif" font-size="10.00">/Proyecto/LAL Control Arduino</text>
<text text-anchor="start" x="724.5" y="-117" font-family="Helvetica,sans-Serif" font-size="10.00">/include/machine_state_pattern</text>
<text text-anchor="middle" x="792.5" y="-106" font-family="Helvetica,sans-Serif" font-size="10.00">/machine_states/Idle_state.h</text>
</a>
</g>
</g>
<!-- Node4&#45;&gt;Node7 -->
<g id="edge12" class="edge">
<title>Node4&#45;&gt;Node7</title>
<path fill="none" stroke="#63b8ff" d="M704.4,-318.15C745.26,-311.47 790.72,-295.91 816.5,-261 837.62,-232.4 824.23,-190.76 810.46,-162.48"/>
<polygon fill="#63b8ff" stroke="#63b8ff" points="703.9,-314.69 694.51,-319.6 704.91,-321.62 703.9,-314.69"/>
</g>
<!-- Node8 -->
<g id="node8" class="node">
<title>Node8</title>
<g id="a_node8"><a xlink:href="_shutdown__state_8h.html" target="_top" xlink:title="Clase de estado de apagado del sistema.">
<polygon fill="white" stroke="#666666" points="990.5,-63 820.5,-63 820.5,0 990.5,0 990.5,-63"/>
<text text-anchor="start" x="828.5" y="-51" font-family="Helvetica,sans-Serif" font-size="10.00">C:/Users/juanh/OneDrive</text>
<text text-anchor="start" x="828.5" y="-40" font-family="Helvetica,sans-Serif" font-size="10.00">/Escritorio/Facultad/Beca</text>
<text text-anchor="start" x="828.5" y="-29" font-family="Helvetica,sans-Serif" font-size="10.00">/Proyecto/LAL Control Arduino</text>
<text text-anchor="start" x="828.5" y="-18" font-family="Helvetica,sans-Serif" font-size="10.00">/include/machine_state_pattern</text>
<text text-anchor="middle" x="905.5" y="-7" font-family="Helvetica,sans-Serif" font-size="10.00">/machine_states/Shutdown_state.h</text>
</a>
</g>
</g>
<!-- Node4&#45;&gt;Node8 -->
<g id="edge13" class="edge">
<title>Node4&#45;&gt;Node8</title>
<path fill="none" stroke="#63b8ff" d="M704.59,-313.92C745.53,-306.05 792.73,-290.73 826.5,-261 884.27,-210.15 895.07,-113.02 900.07,-63.37"/>
<polygon fill="#63b8ff" stroke="#63b8ff" points="704.22,-310.43 694.99,-315.64 705.45,-317.32 704.22,-310.43"/>
</g>
<!-- Node9 -->
<g id="node9" class="node">
<title>Node9</title>
<g id="a_node9"><a xlink:href="main_8h.html" target="_top" xlink:title="Archivo principal del programa.">
<polygon fill="white" stroke="#666666" points="422,-156.5 273,-156.5 273,-104.5 422,-104.5 422,-156.5"/>
<text text-anchor="start" x="281" y="-144.5" font-family="Helvetica,sans-Serif" font-size="10.00">C:/Users/juanh/OneDrive</text>
<text text-anchor="start" x="281" y="-133.5" font-family="Helvetica,sans-Serif" font-size="10.00">/Escritorio/Facultad/Beca</text>
<text text-anchor="start" x="281" y="-122.5" font-family="Helvetica,sans-Serif" font-size="10.00">/Proyecto/LAL Control Arduino</text>
<text text-anchor="middle" x="347.5" y="-111.5" font-family="Helvetica,sans-Serif" font-size="10.00">/include/main.h</text>
</a>
</g>
</g>
<!-- Node4&#45;&gt;Node9 -->
<g id="edge14" class="edge">
<title>Node4&#45;&gt;Node9</title>
<path fill="none" stroke="#63b8ff" d="M607.6,-285.85C597.5,-258.16 579.85,-220.93 552.5,-198 532.32,-181.08 472.36,-162.67 422.47,-149.51"/>
<polygon fill="#63b8ff" stroke="#63b8ff" points="604.28,-286.96 610.85,-295.26 610.89,-284.67 604.28,-286.96"/>
</g>
<!-- Node4&#45;&gt;Node10 -->
<g id="edge15" class="edge">
<title>Node4&#45;&gt;Node10</title>
<path fill="none" stroke="#63b8ff" d="M532.65,-303.21C483.22,-291.93 420.07,-276.76 364.5,-261 361.8,-260.24 359.07,-259.44 356.31,-258.63"/>
<polygon fill="#63b8ff" stroke="#63b8ff" points="531.62,-306.56 542.14,-305.36 533.17,-299.74 531.62,-306.56"/>
</g>
<!-- Node4&#45;&gt;Node11 -->
<g id="edge17" class="edge">
<title>Node4&#45;&gt;Node11</title>
<path fill="none" stroke="#63b8ff" d="M564.31,-291.01C547.6,-281.45 529.2,-270.93 512.5,-261.38"/>
<polygon fill="#63b8ff" stroke="#63b8ff" points="562.2,-293.83 572.62,-295.76 565.67,-287.76 562.2,-293.83"/>
</g>
<!-- Node4&#45;&gt;Node12 -->
<g id="edge20" class="edge">
<title>Node4&#45;&gt;Node12</title>
<path fill="none" stroke="#63b8ff" d="M532.18,-314.68C442.66,-306.02 299.06,-289.1 177.5,-261 174.85,-260.39 172.17,-259.73 169.47,-259.04"/>
<polygon fill="#63b8ff" stroke="#63b8ff" points="531.84,-318.16 542.12,-315.63 532.5,-311.2 531.84,-318.16"/>
</g>
<!-- Node5&#45;&gt;Node6 -->
<g id="edge5" class="edge">
<title>Node5&#45;&gt;Node6</title>
<path fill="none" stroke="#63b8ff" d="M679.08,-191.11C665.82,-181.65 651.72,-171.6 638.96,-162.5"/>
<polygon fill="#63b8ff" stroke="#63b8ff" points="676.69,-193.71 686.86,-196.66 680.75,-188.01 676.69,-193.71"/>
</g>
<!-- Node5&#45;&gt;Node7 -->
<g id="edge7" class="edge">
<title>Node5&#45;&gt;Node7</title>
<path fill="none" stroke="#63b8ff" d="M750.41,-187.81C755.57,-179.34 761.21,-170.55 766.66,-162.5"/>
<polygon fill="#63b8ff" stroke="#63b8ff" points="747.51,-185.86 745.4,-196.24 753.52,-189.44 747.51,-185.86"/>
</g>
<!-- Node6&#45;&gt;Node4 -->
<g id="edge6" class="edge">
<title>Node6&#45;&gt;Node4</title>
<path fill="none" stroke="#63b8ff" d="M606.26,-173.4C612.47,-211.09 618.7,-265.24 620.21,-296.7"/>
<polygon fill="#63b8ff" stroke="#63b8ff" points="609.75,-173.02 604.6,-163.76 602.85,-174.21 609.75,-173.02"/>
</g>
<!-- Node7&#45;&gt;Node5 -->
<g id="edge8" class="edge">
<title>Node7&#45;&gt;Node5</title>
<path fill="none" stroke="#63b8ff" d="M773.56,-172.23C768.4,-180.7 762.76,-189.49 757.31,-197.54"/>
<polygon fill="#63b8ff" stroke="#63b8ff" points="776.47,-174.18 778.58,-163.8 770.46,-170.6 776.47,-174.18"/>
</g>
<!-- Node7&#45;&gt;Node8 -->
<g id="edge9" class="edge">
<title>Node7&#45;&gt;Node8</title>
<path fill="none" stroke="#63b8ff" d="M837.01,-91.29C847.75,-82.07 859.09,-72.34 869.39,-63.5"/>
<polygon fill="#63b8ff" stroke="#63b8ff" points="835.02,-88.39 829.71,-97.56 839.58,-93.7 835.02,-88.39"/>
</g>
<!-- Node8&#45;&gt;Node4 -->
<g id="edge10" class="edge">
<title>Node8&#45;&gt;Node4</title>
<path fill="none" stroke="#63b8ff" d="M911.41,-74.84C911.27,-126.81 898.1,-213.82 844.5,-261 803.23,-297.33 741.9,-312.16 693.47,-318.14"/>
<polygon fill="#63b8ff" stroke="#63b8ff" points="914.91,-74.83 911.24,-64.89 907.91,-74.94 914.91,-74.83"/>
</g>
<!-- Node10&#45;&gt;Node9 -->
<g id="edge16" class="edge">
<title>Node10&#45;&gt;Node9</title>
<path fill="none" stroke="#63b8ff" d="M302.67,-188.72C311.07,-178 319.93,-166.68 327.54,-156.98"/>
<polygon fill="#63b8ff" stroke="#63b8ff" points="300.1,-186.32 296.69,-196.35 305.61,-190.64 300.1,-186.32"/>
</g>
<!-- Node11&#45;&gt;Node9 -->
<g id="edge18" class="edge">
<title>Node11&#45;&gt;Node9</title>
<path fill="none" stroke="#63b8ff" d="M414.45,-190C401.75,-178.9 388.21,-167.07 376.65,-156.98"/>
<polygon fill="#63b8ff" stroke="#63b8ff" points="412.1,-192.6 421.93,-196.55 416.71,-187.33 412.1,-192.6"/>
</g>
<!-- Node12&#45;&gt;Node9 -->
<g id="edge21" class="edge">
<title>Node12&#45;&gt;Node9</title>
<path fill="none" stroke="#63b8ff" d="M178.97,-193.66C211.82,-181.54 248.02,-168.19 278.43,-156.98"/>
<polygon fill="#63b8ff" stroke="#63b8ff" points="178.03,-190.27 169.86,-197.02 180.45,-196.84 178.03,-190.27"/>
</g>
<!-- Node13&#45;&gt;Node4 -->
<g id="edge26" class="edge">
<title>Node13&#45;&gt;Node4</title>
<path fill="none" stroke="#63b8ff" d="M609.8,-476.54C618.96,-468.34 627.07,-458.83 632.5,-448 648.22,-416.62 638.44,-375.3 629.14,-349.19"/>
<polygon fill="#63b8ff" stroke="#63b8ff" points="607.78,-473.66 602.3,-482.73 612.24,-479.06 607.78,-473.66"/>
</g>
<!-- Node14 -->
<g id="node14" class="node">
<title>Node14</title>
<g id="a_node14"><a xlink:href="_subject_8cpp.html" target="_top" xlink:title=" ">
<polygon fill="white" stroke="#666666" points="623.5,-442.5 461.5,-442.5 461.5,-390.5 623.5,-390.5 623.5,-442.5"/>
<text text-anchor="start" x="469.5" y="-430.5" font-family="Helvetica,sans-Serif" font-size="10.00">C:/Users/juanh/OneDrive</text>
<text text-anchor="start" x="469.5" y="-419.5" font-family="Helvetica,sans-Serif" font-size="10.00">/Escritorio/Facultad/Beca</text>
<text text-anchor="start" x="469.5" y="-408.5" font-family="Helvetica,sans-Serif" font-size="10.00">/Proyecto/LAL Control Arduino</text>
<text text-anchor="middle" x="542.5" y="-397.5" font-family="Helvetica,sans-Serif" font-size="10.00">/src/observer_pattern/Subject.cpp</text>
</a>
</g>
</g>
<!-- Node13&#45;&gt;Node14 -->
<g id="edge27" class="edge">
<title>Node13&#45;&gt;Node14</title>
<path fill="none" stroke="#63b8ff" d="M543.06,-472.14C542.96,-462.2 542.85,-451.91 542.76,-442.98"/>
<polygon fill="#63b8ff" stroke="#63b8ff" points="539.56,-472.07 543.17,-482.03 546.56,-471.99 539.56,-472.07"/>
</g>
</g>
</svg>
