<?xml version="1.0" encoding="UTF-8" standalone="no"?>
<!DOCTYPE svg PUBLIC "-//W3C//DTD SVG 1.1//EN"
 "http://www.w3.org/Graphics/SVG/1.1/DTD/svg11.dtd">
<!-- Generated by graphviz version 7.0.2 (20221119.0110)
 -->
<!-- Title: C:/Users/juanh/OneDrive/Escritorio/Sistemas Embebidos/Proyecto final/LAL Control MbedOS/include/observer_pattern/subjects/Subject_interface.h Pages: 1 -->
<svg width="1628pt" height="863pt"
 viewBox="0.00 0.00 1627.50 863.00" xmlns="http://www.w3.org/2000/svg" xmlns:xlink="http://www.w3.org/1999/xlink">
<g id="graph0" class="graph" transform="scale(1 1) rotate(0) translate(4 859)">
<title>C:/Users/juanh/OneDrive/Escritorio/Sistemas Embebidos/Proyecto final/LAL Control MbedOS/include/observer_pattern/subjects/Subject_interface.h</title>
<!-- Node1 -->
<g id="node1" class="node">
<title>Node1</title>
<g id="a_node1"><a xlink:title="Clase para interfaz para implementar el sujeto.">
<polygon fill="#999999" stroke="#666666" points="781,-855 615,-855 615,-792 781,-792 781,-855"/>
<text text-anchor="start" x="623" y="-843" font-family="Helvetica,sans-Serif" font-size="10.00">C:/Users/juanh/OneDrive</text>
<text text-anchor="start" x="623" y="-832" font-family="Helvetica,sans-Serif" font-size="10.00">/Escritorio/Sistemas Embebidos</text>
<text text-anchor="start" x="623" y="-821" font-family="Helvetica,sans-Serif" font-size="10.00">/Proyecto final/LAL Control</text>
<text text-anchor="start" x="623" y="-810" font-family="Helvetica,sans-Serif" font-size="10.00"> MbedOS/include/observer_pattern</text>
<text text-anchor="middle" x="698" y="-799" font-family="Helvetica,sans-Serif" font-size="10.00">/subjects/Subject_interface.h</text>
</a>
</g>
</g>
<!-- Node2 -->
<g id="node2" class="node">
<title>Node2</title>
<g id="a_node2"><a xlink:href="_observer_8h.html" target="_top" xlink:title="Clase observador.">
<polygon fill="white" stroke="#666666" points="689,-756 523,-756 523,-693 689,-693 689,-756"/>
<text text-anchor="start" x="531" y="-744" font-family="Helvetica,sans-Serif" font-size="10.00">C:/Users/juanh/OneDrive</text>
<text text-anchor="start" x="531" y="-733" font-family="Helvetica,sans-Serif" font-size="10.00">/Escritorio/Sistemas Embebidos</text>
<text text-anchor="start" x="531" y="-722" font-family="Helvetica,sans-Serif" font-size="10.00">/Proyecto final/LAL Control</text>
<text text-anchor="start" x="531" y="-711" font-family="Helvetica,sans-Serif" font-size="10.00"> MbedOS/include/observer_pattern</text>
<text text-anchor="middle" x="606" y="-700" font-family="Helvetica,sans-Serif" font-size="10.00">/observers/Observer.h</text>
</a>
</g>
</g>
<!-- Node1&#45;&gt;Node2 -->
<g id="edge1" class="edge">
<title>Node1&#45;&gt;Node2</title>
<path fill="none" stroke="#63b8ff" d="M660.72,-783.19C652.29,-774.3 643.45,-764.99 635.4,-756.5"/>
<polygon fill="#63b8ff" stroke="#63b8ff" points="658.18,-785.6 667.6,-790.44 663.25,-780.78 658.18,-785.6"/>
</g>
<!-- Node23 -->
<g id="node23" class="node">
<title>Node23</title>
<g id="a_node23"><a xlink:href="_subject_8h.html" target="_top" xlink:title=" ">
<polygon fill="white" stroke="#666666" points="874,-756 708,-756 708,-693 874,-693 874,-756"/>
<text text-anchor="start" x="716" y="-744" font-family="Helvetica,sans-Serif" font-size="10.00">C:/Users/juanh/OneDrive</text>
<text text-anchor="start" x="716" y="-733" font-family="Helvetica,sans-Serif" font-size="10.00">/Escritorio/Sistemas Embebidos</text>
<text text-anchor="start" x="716" y="-722" font-family="Helvetica,sans-Serif" font-size="10.00">/Proyecto final/LAL Control</text>
<text text-anchor="start" x="716" y="-711" font-family="Helvetica,sans-Serif" font-size="10.00"> MbedOS/include/observer_pattern</text>
<text text-anchor="middle" x="791" y="-700" font-family="Helvetica,sans-Serif" font-size="10.00">/subjects/Subject.h</text>
</a>
</g>
</g>
<!-- Node1&#45;&gt;Node23 -->
<g id="edge38" class="edge">
<title>Node1&#45;&gt;Node23</title>
<path fill="none" stroke="#63b8ff" d="M735.42,-783.47C744.03,-774.5 753.06,-765.07 761.28,-756.5"/>
<polygon fill="#63b8ff" stroke="#63b8ff" points="733.12,-780.81 728.73,-790.45 738.18,-785.65 733.12,-780.81"/>
</g>
<!-- Node3 -->
<g id="node3" class="node">
<title>Node3</title>
<g id="a_node3"><a xlink:href="_system__observer_8h.html" target="_top" xlink:title="Clase observador del sistema de control.">
<polygon fill="white" stroke="#666666" points="688,-657 522,-657 522,-594 688,-594 688,-657"/>
<text text-anchor="start" x="530" y="-645" font-family="Helvetica,sans-Serif" font-size="10.00">C:/Users/juanh/OneDrive</text>
<text text-anchor="start" x="530" y="-634" font-family="Helvetica,sans-Serif" font-size="10.00">/Escritorio/Sistemas Embebidos</text>
<text text-anchor="start" x="530" y="-623" font-family="Helvetica,sans-Serif" font-size="10.00">/Proyecto final/LAL Control</text>
<text text-anchor="start" x="530" y="-612" font-family="Helvetica,sans-Serif" font-size="10.00"> MbedOS/include/observer_pattern</text>
<text text-anchor="middle" x="605" y="-601" font-family="Helvetica,sans-Serif" font-size="10.00">/observers/System_observer.h</text>
</a>
</g>
</g>
<!-- Node2&#45;&gt;Node3 -->
<g id="edge2" class="edge">
<title>Node2&#45;&gt;Node3</title>
<path fill="none" stroke="#63b8ff" d="M605.56,-681.15C605.48,-673.2 605.4,-665.02 605.32,-657.5"/>
<polygon fill="#63b8ff" stroke="#63b8ff" points="602.06,-681.07 605.67,-691.03 609.06,-680.99 602.06,-681.07"/>
</g>
<!-- Node4 -->
<g id="node4" class="node">
<title>Node4</title>
<g id="a_node4"><a xlink:href="_control__system_8h_source.html" target="_top" xlink:title=" ">
<polygon fill="white" stroke="#666666" points="987.5,-558 816.5,-558 816.5,-506 987.5,-506 987.5,-558"/>
<text text-anchor="start" x="824.5" y="-546" font-family="Helvetica,sans-Serif" font-size="10.00">C:/Users/juanh/OneDrive</text>
<text text-anchor="start" x="824.5" y="-535" font-family="Helvetica,sans-Serif" font-size="10.00">/Escritorio/Sistemas Embebidos</text>
<text text-anchor="start" x="824.5" y="-524" font-family="Helvetica,sans-Serif" font-size="10.00">/Proyecto final/LAL Control</text>
<text text-anchor="middle" x="902" y="-513" font-family="Helvetica,sans-Serif" font-size="10.00"> MbedOS/include/Control_system.h</text>
</a>
</g>
</g>
<!-- Node3&#45;&gt;Node4 -->
<g id="edge3" class="edge">
<title>Node3&#45;&gt;Node4</title>
<path fill="none" stroke="#63b8ff" d="M699.19,-590.5C738.24,-578.33 780.58,-565.73 816.46,-555.43"/>
<polygon fill="#63b8ff" stroke="#63b8ff" points="698.21,-587.14 689.71,-593.46 700.3,-593.82 698.21,-587.14"/>
</g>
<!-- Node14 -->
<g id="node14" class="node">
<title>Node14</title>
<g id="a_node14"><a xlink:href="_cooler__observer_8h_source.html" target="_top" xlink:title=" ">
<polygon fill="white" stroke="#666666" points="688,-470 522,-470 522,-407 688,-407 688,-470"/>
<text text-anchor="start" x="530" y="-458" font-family="Helvetica,sans-Serif" font-size="10.00">C:/Users/juanh/OneDrive</text>
<text text-anchor="start" x="530" y="-447" font-family="Helvetica,sans-Serif" font-size="10.00">/Escritorio/Sistemas Embebidos</text>
<text text-anchor="start" x="530" y="-436" font-family="Helvetica,sans-Serif" font-size="10.00">/Proyecto final/LAL Control</text>
<text text-anchor="start" x="530" y="-425" font-family="Helvetica,sans-Serif" font-size="10.00"> MbedOS/include/observer_pattern</text>
<text text-anchor="middle" x="605" y="-414" font-family="Helvetica,sans-Serif" font-size="10.00">/observers/Cooler_observer.h</text>
</a>
</g>
</g>
<!-- Node3&#45;&gt;Node14 -->
<g id="edge34" class="edge">
<title>Node3&#45;&gt;Node14</title>
<path fill="none" stroke="#63b8ff" d="M605,-582.06C605,-547.94 605,-500.82 605,-470.26"/>
<polygon fill="#63b8ff" stroke="#63b8ff" points="601.5,-582.02 605,-592.02 608.5,-582.02 601.5,-582.02"/>
</g>
<!-- Node16 -->
<g id="node16" class="node">
<title>Node16</title>
<g id="a_node16"><a xlink:href="_instruction__observer_8h.html" target="_top" xlink:title="Observador de instrucciones.">
<polygon fill="white" stroke="#666666" points="872,-470 706,-470 706,-407 872,-407 872,-470"/>
<text text-anchor="start" x="714" y="-458" font-family="Helvetica,sans-Serif" font-size="10.00">C:/Users/juanh/OneDrive</text>
<text text-anchor="start" x="714" y="-447" font-family="Helvetica,sans-Serif" font-size="10.00">/Escritorio/Sistemas Embebidos</text>
<text text-anchor="start" x="714" y="-436" font-family="Helvetica,sans-Serif" font-size="10.00">/Proyecto final/LAL Control</text>
<text text-anchor="start" x="714" y="-425" font-family="Helvetica,sans-Serif" font-size="10.00"> MbedOS/include/observer_pattern</text>
<text text-anchor="middle" x="789" y="-414" font-family="Helvetica,sans-Serif" font-size="10.00">/observers/Instruction_observer.h</text>
</a>
</g>
</g>
<!-- Node3&#45;&gt;Node16 -->
<g id="edge35" class="edge">
<title>Node3&#45;&gt;Node16</title>
<path fill="none" stroke="#63b8ff" d="M643.7,-585.58C677.85,-551.25 726.95,-501.89 758.41,-470.26"/>
<polygon fill="#63b8ff" stroke="#63b8ff" points="641.44,-582.9 636.86,-592.46 646.4,-587.84 641.44,-582.9"/>
</g>
<!-- Node18 -->
<g id="node18" class="node">
<title>Node18</title>
<g id="a_node18"><a xlink:href="_moisture__observer_8h.html" target="_top" xlink:title="Observador del sensor de temperatura.">
<polygon fill="white" stroke="#666666" points="318,-470 152,-470 152,-407 318,-407 318,-470"/>
<text text-anchor="start" x="160" y="-458" font-family="Helvetica,sans-Serif" font-size="10.00">C:/Users/juanh/OneDrive</text>
<text text-anchor="start" x="160" y="-447" font-family="Helvetica,sans-Serif" font-size="10.00">/Escritorio/Sistemas Embebidos</text>
<text text-anchor="start" x="160" y="-436" font-family="Helvetica,sans-Serif" font-size="10.00">/Proyecto final/LAL Control</text>
<text text-anchor="start" x="160" y="-425" font-family="Helvetica,sans-Serif" font-size="10.00"> MbedOS/include/observer_pattern</text>
<text text-anchor="middle" x="235" y="-414" font-family="Helvetica,sans-Serif" font-size="10.00">/observers/Moisture_observer.h</text>
</a>
</g>
</g>
<!-- Node3&#45;&gt;Node18 -->
<g id="edge36" class="edge">
<title>Node3&#45;&gt;Node18</title>
<path fill="none" stroke="#63b8ff" d="M533.19,-588.59C464.49,-554.25 361.98,-502.99 296.82,-470.41"/>
<polygon fill="#63b8ff" stroke="#63b8ff" points="531.21,-591.52 541.72,-592.86 534.34,-585.26 531.21,-591.52"/>
</g>
<!-- Node20 -->
<g id="node20" class="node">
<title>Node20</title>
<g id="a_node20"><a xlink:href="_temperature__observer_8h.html" target="_top" xlink:title="Observador del sensor de temperatura.">
<polygon fill="white" stroke="#666666" points="503.5,-470 336.5,-470 336.5,-407 503.5,-407 503.5,-470"/>
<text text-anchor="start" x="344.5" y="-458" font-family="Helvetica,sans-Serif" font-size="10.00">C:/Users/juanh/OneDrive</text>
<text text-anchor="start" x="344.5" y="-447" font-family="Helvetica,sans-Serif" font-size="10.00">/Escritorio/Sistemas Embebidos</text>
<text text-anchor="start" x="344.5" y="-436" font-family="Helvetica,sans-Serif" font-size="10.00">/Proyecto final/LAL Control</text>
<text text-anchor="start" x="344.5" y="-425" font-family="Helvetica,sans-Serif" font-size="10.00"> MbedOS/include/observer_pattern</text>
<text text-anchor="middle" x="420" y="-414" font-family="Helvetica,sans-Serif" font-size="10.00">/observers/Temperature_observer.h</text>
</a>
</g>
</g>
<!-- Node3&#45;&gt;Node20 -->
<g id="edge37" class="edge">
<title>Node3&#45;&gt;Node20</title>
<path fill="none" stroke="#63b8ff" d="M566.08,-585.58C531.75,-551.25 482.39,-501.89 450.76,-470.26"/>
<polygon fill="#63b8ff" stroke="#63b8ff" points="563.42,-587.87 572.96,-592.46 568.37,-582.92 563.42,-587.87"/>
</g>
<!-- Node4&#45;&gt;Node3 -->
<g id="edge29" class="edge">
<title>Node4&#45;&gt;Node3</title>
<path fill="none" stroke="#63b8ff" d="M812.19,-561.58C778.82,-571.61 740.68,-583.09 706,-594 700.3,-595.79 694.41,-597.67 688.48,-599.59"/>
<polygon fill="#63b8ff" stroke="#63b8ff" points="812.83,-565.04 821.4,-558.81 810.82,-558.34 812.83,-565.04"/>
</g>
<!-- Node5 -->
<g id="node5" class="node">
<title>Node5</title>
<g id="a_node5"><a xlink:href="_alarm__state_8h.html" target="_top" xlink:title="Clase de estado de control del motor.">
<polygon fill="white" stroke="#666666" points="1242,-470 1054,-470 1054,-407 1242,-407 1242,-470"/>
<text text-anchor="start" x="1062" y="-458" font-family="Helvetica,sans-Serif" font-size="10.00">C:/Users/juanh/OneDrive</text>
<text text-anchor="start" x="1062" y="-447" font-family="Helvetica,sans-Serif" font-size="10.00">/Escritorio/Sistemas Embebidos</text>
<text text-anchor="start" x="1062" y="-436" font-family="Helvetica,sans-Serif" font-size="10.00">/Proyecto final/LAL Control</text>
<text text-anchor="start" x="1062" y="-425" font-family="Helvetica,sans-Serif" font-size="10.00"> MbedOS/include/machine_state</text>
<text text-anchor="middle" x="1148" y="-414" font-family="Helvetica,sans-Serif" font-size="10.00">_pattern/machine_states/Alarm_state.h</text>
</a>
</g>
</g>
<!-- Node4&#45;&gt;Node5 -->
<g id="edge4" class="edge">
<title>Node4&#45;&gt;Node5</title>
<path fill="none" stroke="#63b8ff" d="M981.02,-501.61C1007.83,-491.63 1037.86,-480.47 1064.98,-470.38"/>
<polygon fill="#63b8ff" stroke="#63b8ff" points="980.1,-498.22 971.94,-504.98 982.54,-504.78 980.1,-498.22"/>
</g>
<!-- Node6 -->
<g id="node6" class="node">
<title>Node6</title>
<g id="a_node6"><a xlink:href="_check__instruction__state_8h_source.html" target="_top" xlink:title=" ">
<polygon fill="white" stroke="#666666" points="1142,-371 984,-371 984,-297 1142,-297 1142,-371"/>
<text text-anchor="start" x="992" y="-359" font-family="Helvetica,sans-Serif" font-size="10.00">C:/Users/juanh/OneDrive</text>
<text text-anchor="start" x="992" y="-348" font-family="Helvetica,sans-Serif" font-size="10.00">/Escritorio/Sistemas Embebidos</text>
<text text-anchor="start" x="992" y="-337" font-family="Helvetica,sans-Serif" font-size="10.00">/Proyecto final/LAL Control</text>
<text text-anchor="start" x="992" y="-326" font-family="Helvetica,sans-Serif" font-size="10.00"> MbedOS/include/machine_state</text>
<text text-anchor="start" x="992" y="-315" font-family="Helvetica,sans-Serif" font-size="10.00">_pattern/machine_states/Check</text>
<text text-anchor="middle" x="1063" y="-304" font-family="Helvetica,sans-Serif" font-size="10.00">_instruction_state.h</text>
</a>
</g>
</g>
<!-- Node4&#45;&gt;Node6 -->
<g id="edge16" class="edge">
<title>Node4&#45;&gt;Node6</title>
<path fill="none" stroke="#63b8ff" d="M941.64,-498.29C951.35,-489.53 961.41,-479.76 970,-470 997.35,-438.91 1023.65,-399.55 1041.26,-371.36"/>
<polygon fill="#63b8ff" stroke="#63b8ff" points="939.55,-495.47 934.38,-504.71 944.19,-500.71 939.55,-495.47"/>
</g>
<!-- Node7 -->
<g id="node7" class="node">
<title>Node7</title>
<g id="a_node7"><a xlink:href="_idle__state_8h.html" target="_top" xlink:title="Clase de estado de reposo.">
<polygon fill="white" stroke="#666666" points="1358.5,-261 1181.5,-261 1181.5,-198 1358.5,-198 1358.5,-261"/>
<text text-anchor="start" x="1189.5" y="-249" font-family="Helvetica,sans-Serif" font-size="10.00">C:/Users/juanh/OneDrive</text>
<text text-anchor="start" x="1189.5" y="-238" font-family="Helvetica,sans-Serif" font-size="10.00">/Escritorio/Sistemas Embebidos</text>
<text text-anchor="start" x="1189.5" y="-227" font-family="Helvetica,sans-Serif" font-size="10.00">/Proyecto final/LAL Control</text>
<text text-anchor="start" x="1189.5" y="-216" font-family="Helvetica,sans-Serif" font-size="10.00"> MbedOS/include/machine_state</text>
<text text-anchor="middle" x="1270" y="-205" font-family="Helvetica,sans-Serif" font-size="10.00">_pattern/machine_states/Idle_state.h</text>
</a>
</g>
</g>
<!-- Node4&#45;&gt;Node7 -->
<g id="edge17" class="edge">
<title>Node4&#45;&gt;Node7</title>
<path fill="none" stroke="#63b8ff" d="M999.21,-525.86C1071.14,-519.27 1170.24,-504.25 1251,-470 1319.83,-440.81 1353.09,-437.63 1387,-371 1401.92,-341.69 1403.54,-325.43 1387,-297 1378.48,-282.36 1365.4,-270.68 1351.03,-261.45"/>
<polygon fill="#63b8ff" stroke="#63b8ff" points="999.07,-522.36 989.41,-526.71 999.68,-529.33 999.07,-522.36"/>
</g>
<!-- Node8 -->
<g id="node8" class="node">
<title>Node8</title>
<g id="a_node8"><a xlink:href="_shutdown__state_8h.html" target="_top" xlink:title="Clase de estado de apagado del sistema.">
<polygon fill="white" stroke="#666666" points="1049.5,-162 844.5,-162 844.5,-99 1049.5,-99 1049.5,-162"/>
<text text-anchor="start" x="852.5" y="-150" font-family="Helvetica,sans-Serif" font-size="10.00">C:/Users/juanh/OneDrive</text>
<text text-anchor="start" x="852.5" y="-139" font-family="Helvetica,sans-Serif" font-size="10.00">/Escritorio/Sistemas Embebidos</text>
<text text-anchor="start" x="852.5" y="-128" font-family="Helvetica,sans-Serif" font-size="10.00">/Proyecto final/LAL Control</text>
<text text-anchor="start" x="852.5" y="-117" font-family="Helvetica,sans-Serif" font-size="10.00"> MbedOS/include/machine_state</text>
<text text-anchor="middle" x="947" y="-106" font-family="Helvetica,sans-Serif" font-size="10.00">_pattern/machine_states/Shutdown_state.h</text>
</a>
</g>
</g>
<!-- Node4&#45;&gt;Node8 -->
<g id="edge18" class="edge">
<title>Node4&#45;&gt;Node8</title>
<path fill="none" stroke="#63b8ff" d="M902.01,-494.55C907.16,-416.62 927.71,-234.96 939.71,-162.32"/>
<polygon fill="#63b8ff" stroke="#63b8ff" points="898.54,-494 901.43,-504.2 905.53,-494.42 898.54,-494"/>
</g>
<!-- Node13 -->
<g id="node13" class="node">
<title>Node13</title>
<g id="a_node13"><a xlink:href="main_8h.html" target="_top" xlink:title="Archivo principal del programa.">
<polygon fill="white" stroke="#666666" points="721.5,-360 564.5,-360 564.5,-308 721.5,-308 721.5,-360"/>
<text text-anchor="start" x="572.5" y="-348" font-family="Helvetica,sans-Serif" font-size="10.00">C:/Users/juanh/OneDrive</text>
<text text-anchor="start" x="572.5" y="-337" font-family="Helvetica,sans-Serif" font-size="10.00">/Escritorio/Sistemas Embebidos</text>
<text text-anchor="start" x="572.5" y="-326" font-family="Helvetica,sans-Serif" font-size="10.00">/Proyecto final/LAL Control</text>
<text text-anchor="middle" x="643" y="-315" font-family="Helvetica,sans-Serif" font-size="10.00"> MbedOS/include/main.h</text>
</a>
</g>
</g>
<!-- Node4&#45;&gt;Node13 -->
<g id="edge19" class="edge">
<title>Node4&#45;&gt;Node13</title>
<path fill="none" stroke="#63b8ff" d="M905.77,-494.47C906.5,-466.97 902.65,-430.17 881,-407 834.19,-356.91 796.25,-392.04 731,-371 721.42,-367.91 711.4,-364.25 701.71,-360.46"/>
<polygon fill="#63b8ff" stroke="#63b8ff" points="902.29,-493.94 905.29,-504.11 909.28,-494.29 902.29,-493.94"/>
</g>
<!-- Node4&#45;&gt;Node14 -->
<g id="edge20" class="edge">
<title>Node4&#45;&gt;Node14</title>
<path fill="none" stroke="#63b8ff" d="M805.1,-502.83C770.87,-492.71 732.16,-481.06 697,-470 694.11,-469.09 691.17,-468.16 688.21,-467.21"/>
<polygon fill="#63b8ff" stroke="#63b8ff" points="804.01,-506.16 814.59,-505.64 805.99,-499.45 804.01,-506.16"/>
</g>
<!-- Node4&#45;&gt;Node16 -->
<g id="edge23" class="edge">
<title>Node4&#45;&gt;Node16</title>
<path fill="none" stroke="#63b8ff" d="M861.73,-498.39C850.47,-489.28 838.27,-479.4 827.14,-470.38"/>
<polygon fill="#63b8ff" stroke="#63b8ff" points="859.37,-500.99 869.35,-504.56 863.78,-495.55 859.37,-500.99"/>
</g>
<!-- Node4&#45;&gt;Node18 -->
<g id="edge26" class="edge">
<title>Node4&#45;&gt;Node18</title>
<path fill="none" stroke="#63b8ff" d="M805.11,-527.06C690.01,-520.93 492.7,-505.82 327,-470 324.12,-469.38 321.21,-468.7 318.27,-467.97"/>
<polygon fill="#63b8ff" stroke="#63b8ff" points="804.65,-530.54 814.82,-527.56 805.02,-523.55 804.65,-530.54"/>
</g>
<!-- Node4&#45;&gt;Node20 -->
<g id="edge30" class="edge">
<title>Node4&#45;&gt;Node20</title>
<path fill="none" stroke="#63b8ff" d="M804.81,-520.18C725.6,-510.31 611.19,-493.64 513,-470 510.03,-469.28 507.01,-468.52 503.97,-467.71"/>
<polygon fill="#63b8ff" stroke="#63b8ff" points="804.38,-523.65 814.73,-521.4 805.23,-516.71 804.38,-523.65"/>
</g>
<!-- Node22 -->
<g id="node22" class="node">
<title>Node22</title>
<g id="a_node22"><a xlink:href="_control__system_8cpp.html" target="_top" xlink:title="Implementación de Control_system.h.">
<polygon fill="white" stroke="#666666" points="1619.5,-464.5 1434.5,-464.5 1434.5,-412.5 1619.5,-412.5 1619.5,-464.5"/>
<text text-anchor="start" x="1442.5" y="-452.5" font-family="Helvetica,sans-Serif" font-size="10.00">C:/Users/juanh/OneDrive</text>
<text text-anchor="start" x="1442.5" y="-441.5" font-family="Helvetica,sans-Serif" font-size="10.00">/Escritorio/Sistemas Embebidos</text>
<text text-anchor="start" x="1442.5" y="-430.5" font-family="Helvetica,sans-Serif" font-size="10.00">/Proyecto final/LAL Control</text>
<text text-anchor="middle" x="1527" y="-419.5" font-family="Helvetica,sans-Serif" font-size="10.00"> MbedOS/src/Port/Control_system.cpp</text>
</a>
</g>
</g>
<!-- Node4&#45;&gt;Node22 -->
<g id="edge33" class="edge">
<title>Node4&#45;&gt;Node22</title>
<path fill="none" stroke="#63b8ff" d="M999.07,-524.25C1103.71,-515.88 1274.79,-499.05 1420,-470 1427.29,-468.54 1434.81,-466.83 1442.32,-464.98"/>
<polygon fill="#63b8ff" stroke="#63b8ff" points="999.11,-520.73 989.41,-525.01 999.66,-527.71 999.11,-520.73"/>
</g>
<!-- Node5&#45;&gt;Node6 -->
<g id="edge5" class="edge">
<title>Node5&#45;&gt;Node6</title>
<path fill="none" stroke="#63b8ff" d="M1108.73,-398.09C1101.14,-389.23 1093.41,-379.87 1086.49,-371.14"/>
<polygon fill="#63b8ff" stroke="#63b8ff" points="1106.06,-400.35 1115.26,-405.6 1111.34,-395.76 1106.06,-400.35"/>
</g>
<!-- Node5&#45;&gt;Node7 -->
<g id="edge14" class="edge">
<title>Node5&#45;&gt;Node7</title>
<path fill="none" stroke="#63b8ff" d="M1153.55,-395.61C1162.23,-366.6 1177.9,-327.81 1198,-297 1206.25,-284.35 1217.06,-271.93 1227.84,-261.31"/>
<polygon fill="#63b8ff" stroke="#63b8ff" points="1150.21,-394.57 1150.88,-405.15 1156.95,-396.46 1150.21,-394.57"/>
</g>
<!-- Node12 -->
<g id="node12" class="node">
<title>Node12</title>
<g id="a_node12"><a xlink:href="_alarm_8cpp.html" target="_top" xlink:title="Implementación de Alarm_state.h.">
<polygon fill="white" stroke="#666666" points="1378,-365.5 1216,-365.5 1216,-302.5 1378,-302.5 1378,-365.5"/>
<text text-anchor="start" x="1224" y="-353.5" font-family="Helvetica,sans-Serif" font-size="10.00">C:/Users/juanh/OneDrive</text>
<text text-anchor="start" x="1224" y="-342.5" font-family="Helvetica,sans-Serif" font-size="10.00">/Escritorio/Sistemas Embebidos</text>
<text text-anchor="start" x="1224" y="-331.5" font-family="Helvetica,sans-Serif" font-size="10.00">/Proyecto final/LAL Control</text>
<text text-anchor="start" x="1224" y="-320.5" font-family="Helvetica,sans-Serif" font-size="10.00"> MbedOS/src/Port/machine_state</text>
<text text-anchor="middle" x="1297" y="-309.5" font-family="Helvetica,sans-Serif" font-size="10.00">_pattern/Alarm.cpp</text>
</a>
</g>
</g>
<!-- Node5&#45;&gt;Node12 -->
<g id="edge15" class="edge">
<title>Node5&#45;&gt;Node12</title>
<path fill="none" stroke="#63b8ff" d="M1202.16,-400.24C1218.55,-388.97 1236.36,-376.72 1252.07,-365.91"/>
<polygon fill="#63b8ff" stroke="#63b8ff" points="1200.21,-397.34 1193.95,-405.89 1204.17,-403.1 1200.21,-397.34"/>
</g>
<!-- Node6&#45;&gt;Node5 -->
<g id="edge6" class="edge">
<title>Node6&#45;&gt;Node5</title>
<path fill="none" stroke="#63b8ff" d="M1106.82,-379.76C1114.51,-388.87 1122.14,-398.26 1128.74,-406.75"/>
<polygon fill="#63b8ff" stroke="#63b8ff" points="1109.6,-377.62 1100.44,-372.29 1104.28,-382.17 1109.6,-377.62"/>
</g>
<!-- Node6&#45;&gt;Node7 -->
<g id="edge7" class="edge">
<title>Node6&#45;&gt;Node7</title>
<path fill="none" stroke="#63b8ff" d="M1146.76,-291.52C1167.1,-281.46 1188.48,-270.86 1207.63,-261.38"/>
<polygon fill="#63b8ff" stroke="#63b8ff" points="1145.33,-288.33 1137.92,-295.9 1148.43,-294.6 1145.33,-288.33"/>
</g>
<!-- Node11 -->
<g id="node11" class="node">
<title>Node11</title>
<g id="a_node11"><a xlink:href="_check__instruction__state_8cpp.html" target="_top" xlink:title="Implementación de Check_instruction_state.h.">
<polygon fill="white" stroke="#666666" points="1163.5,-261 984.5,-261 984.5,-198 1163.5,-198 1163.5,-261"/>
<text text-anchor="start" x="992.5" y="-249" font-family="Helvetica,sans-Serif" font-size="10.00">C:/Users/juanh/OneDrive</text>
<text text-anchor="start" x="992.5" y="-238" font-family="Helvetica,sans-Serif" font-size="10.00">/Escritorio/Sistemas Embebidos</text>
<text text-anchor="start" x="992.5" y="-227" font-family="Helvetica,sans-Serif" font-size="10.00">/Proyecto final/LAL Control</text>
<text text-anchor="start" x="992.5" y="-216" font-family="Helvetica,sans-Serif" font-size="10.00"> MbedOS/src/Port/machine_state</text>
<text text-anchor="middle" x="1074" y="-205" font-family="Helvetica,sans-Serif" font-size="10.00">_pattern/Check_instruction_state.cpp</text>
</a>
</g>
</g>
<!-- Node6&#45;&gt;Node11 -->
<g id="edge13" class="edge">
<title>Node6&#45;&gt;Node11</title>
<path fill="none" stroke="#63b8ff" d="M1068.12,-285.26C1068.99,-277.15 1069.88,-268.92 1070.69,-261.38"/>
<polygon fill="#63b8ff" stroke="#63b8ff" points="1064.66,-284.75 1067.07,-295.07 1071.62,-285.5 1064.66,-284.75"/>
</g>
<!-- Node7&#45;&gt;Node5 -->
<g id="edge8" class="edge">
<title>Node7&#45;&gt;Node5</title>
<path fill="none" stroke="#63b8ff" d="M1237.4,-269.58C1229.82,-278.15 1222.19,-287.51 1216,-297 1193.24,-331.9 1176.15,-377.04 1164.28,-406.61"/>
<polygon fill="#63b8ff" stroke="#63b8ff" points="1239.77,-272.18 1243.9,-262.43 1234.59,-267.48 1239.77,-272.18"/>
</g>
<!-- Node7&#45;&gt;Node8 -->
<g id="edge9" class="edge">
<title>Node7&#45;&gt;Node8</title>
<path fill="none" stroke="#63b8ff" d="M1170.22,-197.17C1126.07,-183.78 1085.51,-171.78 1049.78,-161.31"/>
<polygon fill="#63b8ff" stroke="#63b8ff" points="1169.18,-200.51 1179.77,-200.07 1171.22,-193.81 1169.18,-200.51"/>
</g>
<!-- Node10 -->
<g id="node10" class="node">
<title>Node10</title>
<g id="a_node10"><a xlink:href="_idle__state_8cpp.html" target="_top" xlink:title="Implementación de Idle_state.h.">
<polygon fill="white" stroke="#666666" points="1351,-162 1189,-162 1189,-99 1351,-99 1351,-162"/>
<text text-anchor="start" x="1197" y="-150" font-family="Helvetica,sans-Serif" font-size="10.00">C:/Users/juanh/OneDrive</text>
<text text-anchor="start" x="1197" y="-139" font-family="Helvetica,sans-Serif" font-size="10.00">/Escritorio/Sistemas Embebidos</text>
<text text-anchor="start" x="1197" y="-128" font-family="Helvetica,sans-Serif" font-size="10.00">/Proyecto final/LAL Control</text>
<text text-anchor="start" x="1197" y="-117" font-family="Helvetica,sans-Serif" font-size="10.00"> MbedOS/src/Port/machine_state</text>
<text text-anchor="middle" x="1270" y="-106" font-family="Helvetica,sans-Serif" font-size="10.00">_pattern/Idle_state.cpp</text>
</a>
</g>
</g>
<!-- Node7&#45;&gt;Node10 -->
<g id="edge12" class="edge">
<title>Node7&#45;&gt;Node10</title>
<path fill="none" stroke="#63b8ff" d="M1270,-186.15C1270,-178.2 1270,-170.02 1270,-162.5"/>
<polygon fill="#63b8ff" stroke="#63b8ff" points="1266.5,-186.03 1270,-196.03 1273.5,-186.03 1266.5,-186.03"/>
</g>
<!-- Node8&#45;&gt;Node4 -->
<g id="edge10" class="edge">
<title>Node8&#45;&gt;Node4</title>
<path fill="none" stroke="#63b8ff" d="M946.6,-173.58C940.73,-256.49 919.92,-438.77 908.35,-505.71"/>
<polygon fill="#63b8ff" stroke="#63b8ff" points="950.08,-174.04 947.24,-163.83 943.09,-173.58 950.08,-174.04"/>
</g>
<!-- Node9 -->
<g id="node9" class="node">
<title>Node9</title>
<g id="a_node9"><a xlink:href="_shutdown__state_8cpp.html" target="_top" xlink:title="Implementación de Shutdown_state.h.">
<polygon fill="white" stroke="#666666" points="1028,-63 866,-63 866,0 1028,0 1028,-63"/>
<text text-anchor="start" x="874" y="-51" font-family="Helvetica,sans-Serif" font-size="10.00">C:/Users/juanh/OneDrive</text>
<text text-anchor="start" x="874" y="-40" font-family="Helvetica,sans-Serif" font-size="10.00">/Escritorio/Sistemas Embebidos</text>
<text text-anchor="start" x="874" y="-29" font-family="Helvetica,sans-Serif" font-size="10.00">/Proyecto final/LAL Control</text>
<text text-anchor="start" x="874" y="-18" font-family="Helvetica,sans-Serif" font-size="10.00"> MbedOS/src/Port/machine_state</text>
<text text-anchor="middle" x="947" y="-7" font-family="Helvetica,sans-Serif" font-size="10.00">_pattern/Shutdown_state.cpp</text>
</a>
</g>
</g>
<!-- Node8&#45;&gt;Node9 -->
<g id="edge11" class="edge">
<title>Node8&#45;&gt;Node9</title>
<path fill="none" stroke="#63b8ff" d="M947,-87.15C947,-79.2 947,-71.02 947,-63.5"/>
<polygon fill="#63b8ff" stroke="#63b8ff" points="943.5,-87.03 947,-97.03 950.5,-87.03 943.5,-87.03"/>
</g>
<!-- Node14&#45;&gt;Node13 -->
<g id="edge21" class="edge">
<title>Node14&#45;&gt;Node13</title>
<path fill="none" stroke="#63b8ff" d="M620.28,-396.3C624.8,-384.09 629.62,-371.09 633.65,-360.22"/>
<polygon fill="#63b8ff" stroke="#63b8ff" points="617.12,-394.73 616.93,-405.33 623.69,-397.17 617.12,-394.73"/>
</g>
<!-- Node15 -->
<g id="node15" class="node">
<title>Node15</title>
<g id="a_node15"><a xlink:href="_cooler__observer_8cpp.html" target="_top" xlink:title="Implementación de Cooler_observer.h.">
<polygon fill="white" stroke="#666666" points="546,-365.5 376,-365.5 376,-302.5 546,-302.5 546,-365.5"/>
<text text-anchor="start" x="384" y="-353.5" font-family="Helvetica,sans-Serif" font-size="10.00">C:/Users/juanh/OneDrive</text>
<text text-anchor="start" x="384" y="-342.5" font-family="Helvetica,sans-Serif" font-size="10.00">/Escritorio/Sistemas Embebidos</text>
<text text-anchor="start" x="384" y="-331.5" font-family="Helvetica,sans-Serif" font-size="10.00">/Proyecto final/LAL Control</text>
<text text-anchor="start" x="384" y="-320.5" font-family="Helvetica,sans-Serif" font-size="10.00"> MbedOS/src/Port/observer_pattern</text>
<text text-anchor="middle" x="461" y="-309.5" font-family="Helvetica,sans-Serif" font-size="10.00">/Cooler_observer.cpp</text>
</a>
</g>
</g>
<!-- Node14&#45;&gt;Node15 -->
<g id="edge22" class="edge">
<title>Node14&#45;&gt;Node15</title>
<path fill="none" stroke="#63b8ff" d="M552.61,-400.21C536.7,-388.88 519.41,-376.57 504.17,-365.73"/>
<polygon fill="#63b8ff" stroke="#63b8ff" points="550.39,-402.92 560.56,-405.87 554.44,-397.22 550.39,-402.92"/>
</g>
<!-- Node16&#45;&gt;Node13 -->
<g id="edge24" class="edge">
<title>Node16&#45;&gt;Node13</title>
<path fill="none" stroke="#63b8ff" d="M735.8,-400.15C716.88,-386.87 696.05,-372.24 678.92,-360.22"/>
<polygon fill="#63b8ff" stroke="#63b8ff" points="733.76,-403 743.96,-405.88 737.78,-397.27 733.76,-403"/>
</g>
<!-- Node17 -->
<g id="node17" class="node">
<title>Node17</title>
<g id="a_node17"><a xlink:href="_instruction__observer_8cpp.html" target="_top" xlink:title="Implementación de Instruction_observer.h.">
<polygon fill="white" stroke="#666666" points="910,-365.5 740,-365.5 740,-302.5 910,-302.5 910,-365.5"/>
<text text-anchor="start" x="748" y="-353.5" font-family="Helvetica,sans-Serif" font-size="10.00">C:/Users/juanh/OneDrive</text>
<text text-anchor="start" x="748" y="-342.5" font-family="Helvetica,sans-Serif" font-size="10.00">/Escritorio/Sistemas Embebidos</text>
<text text-anchor="start" x="748" y="-331.5" font-family="Helvetica,sans-Serif" font-size="10.00">/Proyecto final/LAL Control</text>
<text text-anchor="start" x="748" y="-320.5" font-family="Helvetica,sans-Serif" font-size="10.00"> MbedOS/src/Port/observer_pattern</text>
<text text-anchor="middle" x="825" y="-309.5" font-family="Helvetica,sans-Serif" font-size="10.00">/Instruction_observer.cpp</text>
</a>
</g>
</g>
<!-- Node16&#45;&gt;Node17 -->
<g id="edge25" class="edge">
<title>Node16&#45;&gt;Node17</title>
<path fill="none" stroke="#63b8ff" d="M803.56,-396.04C807.12,-385.92 810.86,-375.26 814.21,-365.73"/>
<polygon fill="#63b8ff" stroke="#63b8ff" points="800.31,-394.72 800.3,-405.32 806.92,-397.04 800.31,-394.72"/>
</g>
<!-- Node18&#45;&gt;Node13 -->
<g id="edge27" class="edge">
<title>Node18&#45;&gt;Node13</title>
<path fill="none" stroke="#63b8ff" d="M329.46,-406.58C428.85,-383.84 459.67,-397.64 555,-371 565.33,-368.11 576.09,-364.37 586.4,-360.39"/>
<polygon fill="#63b8ff" stroke="#63b8ff" points="328.72,-403.16 319.79,-408.87 330.33,-409.97 328.72,-403.16"/>
</g>
<!-- Node19 -->
<g id="node19" class="node">
<title>Node19</title>
<g id="a_node19"><a xlink:href="_moisture__observer_8cpp.html" target="_top" xlink:title="Implementación de Moisture_observer.h.">
<polygon fill="white" stroke="#666666" points="170,-365.5 0,-365.5 0,-302.5 170,-302.5 170,-365.5"/>
<text text-anchor="start" x="8" y="-353.5" font-family="Helvetica,sans-Serif" font-size="10.00">C:/Users/juanh/OneDrive</text>
<text text-anchor="start" x="8" y="-342.5" font-family="Helvetica,sans-Serif" font-size="10.00">/Escritorio/Sistemas Embebidos</text>
<text text-anchor="start" x="8" y="-331.5" font-family="Helvetica,sans-Serif" font-size="10.00">/Proyecto final/LAL Control</text>
<text text-anchor="start" x="8" y="-320.5" font-family="Helvetica,sans-Serif" font-size="10.00"> MbedOS/src/Port/observer_pattern</text>
<text text-anchor="middle" x="85" y="-309.5" font-family="Helvetica,sans-Serif" font-size="10.00">/Moisture_observer.cpp</text>
</a>
</g>
</g>
<!-- Node18&#45;&gt;Node19 -->
<g id="edge28" class="edge">
<title>Node18&#45;&gt;Node19</title>
<path fill="none" stroke="#63b8ff" d="M180.94,-400.56C164.31,-389.2 146.2,-376.82 130.23,-365.91"/>
<polygon fill="#63b8ff" stroke="#63b8ff" points="178.51,-403.14 188.75,-405.89 182.46,-397.36 178.51,-403.14"/>
</g>
<!-- Node20&#45;&gt;Node13 -->
<g id="edge31" class="edge">
<title>Node20&#45;&gt;Node13</title>
<path fill="none" stroke="#63b8ff" d="M497.53,-401.86C527.18,-388.24 560.37,-372.98 587.55,-360.49"/>
<polygon fill="#63b8ff" stroke="#63b8ff" points="496.21,-398.62 488.58,-405.98 499.13,-404.98 496.21,-398.62"/>
</g>
<!-- Node21 -->
<g id="node21" class="node">
<title>Node21</title>
<g id="a_node21"><a xlink:href="_temperature__observer_8cpp.html" target="_top" xlink:title="Implementación de Temperature_observer.h.">
<polygon fill="white" stroke="#666666" points="358,-365.5 188,-365.5 188,-302.5 358,-302.5 358,-365.5"/>
<text text-anchor="start" x="196" y="-353.5" font-family="Helvetica,sans-Serif" font-size="10.00">C:/Users/juanh/OneDrive</text>
<text text-anchor="start" x="196" y="-342.5" font-family="Helvetica,sans-Serif" font-size="10.00">/Escritorio/Sistemas Embebidos</text>
<text text-anchor="start" x="196" y="-331.5" font-family="Helvetica,sans-Serif" font-size="10.00">/Proyecto final/LAL Control</text>
<text text-anchor="start" x="196" y="-320.5" font-family="Helvetica,sans-Serif" font-size="10.00"> MbedOS/src/Port/observer_pattern</text>
<text text-anchor="middle" x="273" y="-309.5" font-family="Helvetica,sans-Serif" font-size="10.00">/Temperature_observer.cpp</text>
</a>
</g>
</g>
<!-- Node20&#45;&gt;Node21 -->
<g id="edge32" class="edge">
<title>Node20&#45;&gt;Node21</title>
<path fill="none" stroke="#63b8ff" d="M366.56,-400.24C350.4,-388.97 332.83,-376.72 317.33,-365.91"/>
<polygon fill="#63b8ff" stroke="#63b8ff" points="364.45,-403.03 374.65,-405.88 368.45,-397.29 364.45,-403.03"/>
</g>
<!-- Node23&#45;&gt;Node4 -->
<g id="edge39" class="edge">
<title>Node23&#45;&gt;Node4</title>
<path fill="none" stroke="#63b8ff" d="M859.38,-685.62C869.33,-677.39 878.42,-667.84 885,-657 903.38,-626.72 905.25,-584.73 904.18,-558.22"/>
<polygon fill="#63b8ff" stroke="#63b8ff" points="857.43,-682.71 851.65,-691.59 861.71,-688.25 857.43,-682.71"/>
</g>
<!-- Node24 -->
<g id="node24" class="node">
<title>Node24</title>
<g id="a_node24"><a xlink:href="_subject_8cpp.html" target="_top" xlink:title="Implementación de Subject.h.">
<polygon fill="white" stroke="#666666" points="876,-657 706,-657 706,-594 876,-594 876,-657"/>
<text text-anchor="start" x="714" y="-645" font-family="Helvetica,sans-Serif" font-size="10.00">C:/Users/juanh/OneDrive</text>
<text text-anchor="start" x="714" y="-634" font-family="Helvetica,sans-Serif" font-size="10.00">/Escritorio/Sistemas Embebidos</text>
<text text-anchor="start" x="714" y="-623" font-family="Helvetica,sans-Serif" font-size="10.00">/Proyecto final/LAL Control</text>
<text text-anchor="start" x="714" y="-612" font-family="Helvetica,sans-Serif" font-size="10.00"> MbedOS/src/Port/observer_pattern</text>
<text text-anchor="middle" x="791" y="-601" font-family="Helvetica,sans-Serif" font-size="10.00">/Subject.cpp</text>
</a>
</g>
</g>
<!-- Node23&#45;&gt;Node24 -->
<g id="edge40" class="edge">
<title>Node23&#45;&gt;Node24</title>
<path fill="none" stroke="#63b8ff" d="M791,-681.15C791,-673.2 791,-665.02 791,-657.5"/>
<polygon fill="#63b8ff" stroke="#63b8ff" points="787.5,-681.03 791,-691.03 794.5,-681.03 787.5,-681.03"/>
</g>
</g>
</svg>
