<?xml version="1.0" encoding="UTF-8" standalone="no"?>
<!DOCTYPE svg PUBLIC "-//W3C//DTD SVG 1.1//EN"
 "http://www.w3.org/Graphics/SVG/1.1/DTD/svg11.dtd">
<!-- Generated by graphviz version 7.0.2 (20221119.0110)
 -->
<!-- Title: C:/Users/juanh/OneDrive/Escritorio/Facultad/Beca/Proyecto/LAL Control Arduino/include/observer_pattern/observers/System_observer.h Pages: 1 -->
<svg width="1693pt" height="434pt"
 viewBox="0.00 0.00 1693.00 434.00" xmlns="http://www.w3.org/2000/svg" xmlns:xlink="http://www.w3.org/1999/xlink">
<g id="graph0" class="graph" transform="scale(1 1) rotate(0) translate(4 430)">
<title>C:/Users/juanh/OneDrive/Escritorio/Facultad/Beca/Proyecto/LAL Control Arduino/include/observer_pattern/observers/System_observer.h</title>
<!-- Node1 -->
<g id="node1" class="node">
<title>Node1</title>
<g id="a_node1"><a xlink:title="Clase observador del sistema de control.">
<polygon fill="#999999" stroke="#666666" points="817.5,-426 648.5,-426 648.5,-363 817.5,-363 817.5,-426"/>
<text text-anchor="start" x="656.5" y="-414" font-family="Helvetica,sans-Serif" font-size="10.00">C:/Users/juanh/OneDrive</text>
<text text-anchor="start" x="656.5" y="-403" font-family="Helvetica,sans-Serif" font-size="10.00">/Escritorio/Facultad/Beca</text>
<text text-anchor="start" x="656.5" y="-392" font-family="Helvetica,sans-Serif" font-size="10.00">/Proyecto/LAL Control Arduino</text>
<text text-anchor="start" x="656.5" y="-381" font-family="Helvetica,sans-Serif" font-size="10.00">/include/observer_pattern/observers</text>
<text text-anchor="middle" x="733" y="-370" font-family="Helvetica,sans-Serif" font-size="10.00">/System_observer.h</text>
</a>
</g>
</g>
<!-- Node2 -->
<g id="node2" class="node">
<title>Node2</title>
<g id="a_node2"><a xlink:href="_observer_8h.html" target="_top" xlink:title="Clase observador.">
<polygon fill="white" stroke="#666666" points="132,-266.5 0,-266.5 0,-236.5 132,-236.5 132,-266.5"/>
<text text-anchor="start" x="8" y="-254.5" font-family="Helvetica,sans-Serif" font-size="10.00">observer_pattern/observers</text>
<text text-anchor="middle" x="66" y="-243.5" font-family="Helvetica,sans-Serif" font-size="10.00">/Observer.h</text>
</a>
</g>
</g>
<!-- Node1&#45;&gt;Node2 -->
<g id="edge1" class="edge">
<title>Node1&#45;&gt;Node2</title>
<path fill="none" stroke="#63b8ff" d="M648.39,-377.57C533.23,-355.56 320.86,-313.81 141,-272 137.87,-271.27 134.67,-270.51 131.44,-269.73"/>
<polygon fill="#63b8ff" stroke="#63b8ff" points="132.42,-266.36 121.87,-267.36 130.74,-273.16 132.42,-266.36"/>
</g>
<!-- Node5 -->
<g id="node5" class="node">
<title>Node5</title>
<g id="a_node5"><a xlink:href="_control__system_8h.html" target="_top" xlink:title="Clase para el sistema de control.">
<polygon fill="white" stroke="#666666" points="779.5,-327 686.5,-327 686.5,-308 779.5,-308 779.5,-327"/>
<text text-anchor="middle" x="733" y="-315" font-family="Helvetica,sans-Serif" font-size="10.00">Control_system.h</text>
</a>
</g>
</g>
<!-- Node1&#45;&gt;Node5 -->
<g id="edge4" class="edge">
<title>Node1&#45;&gt;Node5</title>
<path fill="none" stroke="#63b8ff" d="M726.34,-362.56C726.11,-354.49 726.31,-346.01 726.94,-338.66"/>
<polygon fill="#63b8ff" stroke="#63b8ff" points="730.4,-339.2 728.26,-328.82 723.46,-338.27 730.4,-339.2"/>
</g>
<!-- Node3 -->
<g id="node3" class="node">
<title>Node3</title>
<g id="a_node3"><a xlink:href="_subject__interface_8h.html" target="_top" xlink:title="Clase para interfaz para implementar el sujeto.">
<polygon fill="white" stroke="#666666" points="129,-189.5 1,-189.5 1,-159.5 129,-159.5 129,-189.5"/>
<text text-anchor="start" x="9" y="-177.5" font-family="Helvetica,sans-Serif" font-size="10.00">observer_pattern/subjects</text>
<text text-anchor="middle" x="65" y="-166.5" font-family="Helvetica,sans-Serif" font-size="10.00">/Subject_interface.h</text>
</a>
</g>
</g>
<!-- Node2&#45;&gt;Node3 -->
<g id="edge2" class="edge">
<title>Node2&#45;&gt;Node3</title>
<path fill="none" stroke="#63b8ff" d="M65.81,-236.04C65.68,-226.18 65.5,-212.86 65.34,-201.22"/>
<polygon fill="#63b8ff" stroke="#63b8ff" points="68.85,-201.38 65.21,-191.43 61.85,-201.48 68.85,-201.38"/>
</g>
<!-- Node4 -->
<g id="node4" class="node">
<title>Node4</title>
<g id="a_node4"><a xlink:href="_observer__interface_8h.html" target="_top" xlink:title="Clase para interfaz para implementar el observador.">
<polygon fill="white" stroke="#666666" points="279,-189.5 147,-189.5 147,-159.5 279,-159.5 279,-189.5"/>
<text text-anchor="start" x="155" y="-177.5" font-family="Helvetica,sans-Serif" font-size="10.00">observer_pattern/observers</text>
<text text-anchor="middle" x="213" y="-166.5" font-family="Helvetica,sans-Serif" font-size="10.00">/Observer_interface.h</text>
</a>
</g>
</g>
<!-- Node2&#45;&gt;Node4 -->
<g id="edge3" class="edge">
<title>Node2&#45;&gt;Node4</title>
<path fill="none" stroke="#63b8ff" d="M94.34,-236.04C117.22,-224.37 149.63,-207.83 174.8,-194.99"/>
<polygon fill="#63b8ff" stroke="#63b8ff" points="176.08,-198.27 183.4,-190.6 172.9,-192.03 176.08,-198.27"/>
</g>
<!-- Node5&#45;&gt;Node1 -->
<g id="edge18" class="edge">
<title>Node5&#45;&gt;Node1</title>
<path fill="none" stroke="#63b8ff" d="M737.54,-327.32C738.79,-333.43 739.51,-342.07 739.7,-351.09"/>
<polygon fill="#63b8ff" stroke="#63b8ff" points="736.2,-351.04 739.66,-361.05 743.2,-351.06 736.2,-351.04"/>
</g>
<!-- Node6 -->
<g id="node6" class="node">
<title>Node6</title>
<g id="a_node6"><a xlink:href="_subject_8h.html" target="_top" xlink:title=" ">
<polygon fill="white" stroke="#666666" points="278,-266.5 150,-266.5 150,-236.5 278,-236.5 278,-266.5"/>
<text text-anchor="start" x="158" y="-254.5" font-family="Helvetica,sans-Serif" font-size="10.00">observer_pattern/subjects</text>
<text text-anchor="middle" x="214" y="-243.5" font-family="Helvetica,sans-Serif" font-size="10.00">/Subject.h</text>
</a>
</g>
</g>
<!-- Node5&#45;&gt;Node6 -->
<g id="edge5" class="edge">
<title>Node5&#45;&gt;Node6</title>
<path fill="none" stroke="#63b8ff" d="M686.14,-313.94C605.4,-309.04 435.04,-296.59 293,-272 288.46,-271.21 283.79,-270.31 279.1,-269.34"/>
<polygon fill="#63b8ff" stroke="#63b8ff" points="280.18,-265.99 269.66,-267.27 278.68,-272.83 280.18,-265.99"/>
</g>
<!-- Node7 -->
<g id="node7" class="node">
<title>Node7</title>
<g id="a_node7"><a xlink:href="_machine_8h.html" target="_top" xlink:title="Clase de máquina abstracta.">
<polygon fill="white" stroke="#666666" points="336,-112.5 220,-112.5 220,-82.5 336,-82.5 336,-112.5"/>
<text text-anchor="start" x="228" y="-100.5" font-family="Helvetica,sans-Serif" font-size="10.00">machine_state_pattern</text>
<text text-anchor="middle" x="278" y="-89.5" font-family="Helvetica,sans-Serif" font-size="10.00">/Machine.h</text>
</a>
</g>
</g>
<!-- Node5&#45;&gt;Node7 -->
<g id="edge8" class="edge">
<title>Node5&#45;&gt;Node7</title>
<path fill="none" stroke="#63b8ff" d="M686.22,-314.31C585.09,-309.16 353,-294.97 326,-272 314.58,-262.29 293.32,-169.69 283.38,-123.89"/>
<polygon fill="#63b8ff" stroke="#63b8ff" points="286.84,-123.35 281.32,-114.31 280,-124.82 286.84,-123.35"/>
</g>
<!-- Node9 -->
<g id="node9" class="node">
<title>Node9</title>
<g id="a_node9"><a xlink:href="_display_8h.html" target="_top" xlink:title="Controlador de LCD hd44780 por interfaz I2C.">
<polygon fill="white" stroke="#666666" points="846,-261 758,-261 758,-242 846,-242 846,-261"/>
<text text-anchor="middle" x="802" y="-249" font-family="Helvetica,sans-Serif" font-size="10.00">drivers/Display.h</text>
</a>
</g>
</g>
<!-- Node5&#45;&gt;Node9 -->
<g id="edge10" class="edge">
<title>Node5&#45;&gt;Node9</title>
<path fill="none" stroke="#63b8ff" d="M742.59,-307.6C753.31,-297.67 770.87,-281.37 784.13,-269.07"/>
<polygon fill="#63b8ff" stroke="#63b8ff" points="786.43,-271.72 791.38,-262.35 781.67,-266.59 786.43,-271.72"/>
</g>
<!-- Node15 -->
<g id="node15" class="node">
<title>Node15</title>
<g id="a_node15"><a xlink:href="user__messages_8h.html" target="_top" xlink:title="Archivo para la configuración de interfaz con el usuario.">
<polygon fill="white" stroke="#666666" points="1685,-261 1591,-261 1591,-242 1685,-242 1685,-261"/>
<text text-anchor="middle" x="1638" y="-249" font-family="Helvetica,sans-Serif" font-size="10.00">user_messages.h</text>
</a>
</g>
</g>
<!-- Node5&#45;&gt;Node15 -->
<g id="edge16" class="edge">
<title>Node5&#45;&gt;Node15</title>
<path fill="none" stroke="#63b8ff" d="M779.81,-315.58C933.44,-312.32 1421.23,-299.96 1576,-272 1585.13,-270.35 1594.8,-267.75 1603.71,-264.97"/>
<polygon fill="#63b8ff" stroke="#63b8ff" points="1604.66,-268.35 1613.07,-261.9 1602.47,-261.7 1604.66,-268.35"/>
</g>
<!-- Node17 -->
<g id="node17" class="node">
<title>Node17</title>
<g id="a_node17"><a xlink:href="_temperature__sensor_8h.html" target="_top" xlink:title="Controlador para sensor de temperatura DS18B20.">
<polygon fill="white" stroke="#666666" points="973.5,-266.5 872.5,-266.5 872.5,-236.5 973.5,-236.5 973.5,-266.5"/>
<text text-anchor="start" x="880.5" y="-254.5" font-family="Helvetica,sans-Serif" font-size="10.00">drivers/Temperature</text>
<text text-anchor="middle" x="923" y="-243.5" font-family="Helvetica,sans-Serif" font-size="10.00">_sensor.h</text>
</a>
</g>
</g>
<!-- Node5&#45;&gt;Node17 -->
<g id="edge19" class="edge">
<title>Node5&#45;&gt;Node17</title>
<path fill="none" stroke="#63b8ff" d="M759.42,-307.6C787.7,-298.08 833.33,-282.7 869.22,-270.61"/>
<polygon fill="#63b8ff" stroke="#63b8ff" points="870.23,-273.97 878.59,-267.46 867.99,-267.34 870.23,-273.97"/>
</g>
<!-- Node20 -->
<g id="node20" class="node">
<title>Node20</title>
<g id="a_node20"><a xlink:href="_moisture__sensor_8h.html" target="_top" xlink:title="Controlador de sensor de humedad analógico.">
<polygon fill="white" stroke="#666666" points="1332,-261 1204,-261 1204,-242 1332,-242 1332,-261"/>
<text text-anchor="middle" x="1268" y="-249" font-family="Helvetica,sans-Serif" font-size="10.00">drivers/Moisture_sensor.h</text>
</a>
</g>
</g>
<!-- Node5&#45;&gt;Node20 -->
<g id="edge23" class="edge">
<title>Node5&#45;&gt;Node20</title>
<path fill="none" stroke="#63b8ff" d="M779.8,-314.48C863.47,-310.32 1044.01,-298.82 1194,-272 1204.97,-270.04 1216.69,-267.27 1227.5,-264.43"/>
<polygon fill="#63b8ff" stroke="#63b8ff" points="1228.17,-267.88 1236.9,-261.88 1226.33,-261.12 1228.17,-267.88"/>
</g>
<!-- Node22 -->
<g id="node22" class="node">
<title>Node22</title>
<g id="a_node22"><a xlink:href="types_8h.html" target="_top" xlink:title="Archivo de definición de tipos de dato.">
<polygon fill="white" stroke="#666666" points="1579.5,-184 1530.5,-184 1530.5,-165 1579.5,-165 1579.5,-184"/>
<text text-anchor="middle" x="1555" y="-172" font-family="Helvetica,sans-Serif" font-size="10.00">types.h</text>
</a>
</g>
</g>
<!-- Node5&#45;&gt;Node22 -->
<g id="edge25" class="edge">
<title>Node5&#45;&gt;Node22</title>
<path fill="none" stroke="#63b8ff" d="M779.97,-315.57C948.59,-312.01 1514.98,-298.16 1543,-272 1563.63,-252.75 1562.44,-217.5 1559.12,-195.35"/>
<polygon fill="#63b8ff" stroke="#63b8ff" points="1562.62,-195.02 1557.4,-185.8 1555.73,-196.26 1562.62,-195.02"/>
</g>
<!-- Node23 -->
<g id="node23" class="node">
<title>Node23</title>
<g id="a_node23"><a xlink:href="_buzzer_8h.html" target="_top" xlink:title="Controlador de Buzzer de 12 milimetros.">
<polygon fill="white" stroke="#666666" points="1436,-261 1350,-261 1350,-242 1436,-242 1436,-261"/>
<text text-anchor="middle" x="1393" y="-249" font-family="Helvetica,sans-Serif" font-size="10.00">drivers/Buzzer.h</text>
</a>
</g>
</g>
<!-- Node5&#45;&gt;Node23 -->
<g id="edge26" class="edge">
<title>Node5&#45;&gt;Node23</title>
<path fill="none" stroke="#63b8ff" d="M779.98,-314.8C903.32,-310.04 1234.13,-295.44 1341,-272 1348.08,-270.45 1355.49,-268.12 1362.43,-265.61"/>
<polygon fill="#63b8ff" stroke="#63b8ff" points="1363.68,-268.88 1371.74,-262.01 1361.16,-262.35 1363.68,-268.88"/>
</g>
<!-- Node25 -->
<g id="node25" class="node">
<title>Node25</title>
<g id="a_node25"><a xlink:href="_motor_8h.html" target="_top" xlink:title="Controlador de motor de 220 VAC.">
<polygon fill="white" stroke="#666666" points="1534,-261 1454,-261 1454,-242 1534,-242 1534,-261"/>
<text text-anchor="middle" x="1494" y="-249" font-family="Helvetica,sans-Serif" font-size="10.00">drivers/Motor.h</text>
</a>
</g>
</g>
<!-- Node5&#45;&gt;Node25 -->
<g id="edge29" class="edge">
<title>Node5&#45;&gt;Node25</title>
<path fill="none" stroke="#63b8ff" d="M779.94,-315.5C917.44,-312.25 1317.65,-300.56 1445,-272 1451.75,-270.49 1458.79,-268.17 1465.36,-265.65"/>
<polygon fill="#63b8ff" stroke="#63b8ff" points="1466.52,-268.95 1474.43,-261.91 1463.85,-262.48 1466.52,-268.95"/>
</g>
<!-- Node26 -->
<g id="node26" class="node">
<title>Node26</title>
<g id="a_node26"><a xlink:href="_dual___l_e_d_8h.html" target="_top" xlink:title="Controlador de LED RG.">
<polygon fill="white" stroke="#666666" points="1185.5,-261 1092.5,-261 1092.5,-242 1185.5,-242 1185.5,-261"/>
<text text-anchor="middle" x="1139" y="-249" font-family="Helvetica,sans-Serif" font-size="10.00">drivers/Dual_led.h</text>
</a>
</g>
</g>
<!-- Node5&#45;&gt;Node26 -->
<g id="edge32" class="edge">
<title>Node5&#45;&gt;Node26</title>
<path fill="none" stroke="#63b8ff" d="M779.98,-313.65C847.67,-308.84 976.26,-297.08 1083,-272 1090.52,-270.23 1098.44,-267.83 1105.89,-265.31"/>
<polygon fill="#63b8ff" stroke="#63b8ff" points="1107.02,-268.62 1115.28,-261.97 1104.68,-262.02 1107.02,-268.62"/>
</g>
<!-- Node27 -->
<g id="node27" class="node">
<title>Node27</title>
<g id="a_node27"><a xlink:href="_cooler_8h.html" target="_top" xlink:title="Controlador de ventilador de 12 volts y 5 milímteros.">
<polygon fill="white" stroke="#666666" points="1074.5,-261 991.5,-261 991.5,-242 1074.5,-242 1074.5,-261"/>
<text text-anchor="middle" x="1033" y="-249" font-family="Helvetica,sans-Serif" font-size="10.00">drivers/Cooler.h</text>
</a>
</g>
</g>
<!-- Node5&#45;&gt;Node27 -->
<g id="edge36" class="edge">
<title>Node5&#45;&gt;Node27</title>
<path fill="none" stroke="#63b8ff" d="M779.94,-310.8C830.44,-304.04 912.82,-291.22 982,-272 988.55,-270.18 995.44,-267.85 1001.96,-265.43"/>
<polygon fill="#63b8ff" stroke="#63b8ff" points="1002.98,-268.79 1011.04,-261.92 1000.45,-262.26 1002.98,-268.79"/>
</g>
<!-- Node28 -->
<g id="node28" class="node">
<title>Node28</title>
<g id="a_node28"><a xlink:href="_shutdown__state_8h.html" target="_top" xlink:title="Clase de estado de apagado del sistema.">
<polygon fill="white" stroke="#666666" points="469,-272 335,-272 335,-231 469,-231 469,-272"/>
<text text-anchor="start" x="343" y="-260" font-family="Helvetica,sans-Serif" font-size="10.00">machine_state_pattern</text>
<text text-anchor="start" x="343" y="-249" font-family="Helvetica,sans-Serif" font-size="10.00">/machine_states/Shutdown</text>
<text text-anchor="middle" x="402" y="-238" font-family="Helvetica,sans-Serif" font-size="10.00">_state.h</text>
</a>
</g>
</g>
<!-- Node5&#45;&gt;Node28 -->
<g id="edge39" class="edge">
<title>Node5&#45;&gt;Node28</title>
<path fill="none" stroke="#63b8ff" d="M686.25,-310.07C636.49,-302.4 555.6,-288.75 480.34,-273.29"/>
<polygon fill="#63b8ff" stroke="#63b8ff" points="481.27,-269.91 470.77,-271.31 479.85,-276.76 481.27,-269.91"/>
</g>
<!-- Node31 -->
<g id="node31" class="node">
<title>Node31</title>
<g id="a_node31"><a xlink:href="_check__instruction__state_8h_source.html" target="_top" xlink:title=" ">
<polygon fill="white" stroke="#666666" points="723.5,-272 604.5,-272 604.5,-231 723.5,-231 723.5,-272"/>
<text text-anchor="start" x="612.5" y="-260" font-family="Helvetica,sans-Serif" font-size="10.00">machine_state_pattern</text>
<text text-anchor="start" x="612.5" y="-249" font-family="Helvetica,sans-Serif" font-size="10.00">/machine_states/Check</text>
<text text-anchor="middle" x="664" y="-238" font-family="Helvetica,sans-Serif" font-size="10.00">_instruction_state.h</text>
</a>
</g>
</g>
<!-- Node5&#45;&gt;Node31 -->
<g id="edge49" class="edge">
<title>Node5&#45;&gt;Node31</title>
<path fill="none" stroke="#63b8ff" d="M718.56,-307.6C709.45,-300.52 697.71,-290.2 687.38,-280.4"/>
<polygon fill="#63b8ff" stroke="#63b8ff" points="689.82,-277.9 680.22,-273.43 684.94,-282.91 689.82,-277.9"/>
</g>
<!-- Node6&#45;&gt;Node3 -->
<g id="edge6" class="edge">
<title>Node6&#45;&gt;Node3</title>
<path fill="none" stroke="#63b8ff" d="M185.27,-236.04C162.08,-224.37 129.23,-207.83 103.72,-194.99"/>
<polygon fill="#63b8ff" stroke="#63b8ff" points="105.5,-191.97 94.99,-190.6 102.35,-198.22 105.5,-191.97"/>
</g>
<!-- Node6&#45;&gt;Node4 -->
<g id="edge7" class="edge">
<title>Node6&#45;&gt;Node4</title>
<path fill="none" stroke="#63b8ff" d="M213.81,-236.04C213.68,-226.18 213.5,-212.86 213.34,-201.22"/>
<polygon fill="#63b8ff" stroke="#63b8ff" points="216.85,-201.38 213.21,-191.43 209.85,-201.48 216.85,-201.38"/>
</g>
<!-- Node8 -->
<g id="node8" class="node">
<title>Node8</title>
<g id="a_node8"><a xlink:href="_abstract__state_8h.html" target="_top" xlink:title="Clase de estado abstracta.">
<polygon fill="white" stroke="#666666" points="514,-41 386,-41 386,0 514,0 514,-41"/>
<text text-anchor="start" x="394" y="-29" font-family="Helvetica,sans-Serif" font-size="10.00">machine_state_pattern</text>
<text text-anchor="start" x="394" y="-18" font-family="Helvetica,sans-Serif" font-size="10.00">/machine_states/Abstract</text>
<text text-anchor="middle" x="450" y="-7" font-family="Helvetica,sans-Serif" font-size="10.00">_state.h</text>
</a>
</g>
</g>
<!-- Node7&#45;&gt;Node8 -->
<g id="edge9" class="edge">
<title>Node7&#45;&gt;Node8</title>
<path fill="none" stroke="#63b8ff" d="M311.16,-82.04C334.62,-71.81 366.64,-57.85 394.02,-45.91"/>
<polygon fill="#63b8ff" stroke="#63b8ff" points="395.11,-49.26 402.87,-42.05 392.31,-42.84 395.11,-49.26"/>
</g>
<!-- Node10 -->
<g id="node10" class="node">
<title>Node10</title>
<g id="a_node10"><a xlink:title=" ">
<polygon fill="#e0e0e0" stroke="#999999" points="687.5,-184 642.5,-184 642.5,-165 687.5,-165 687.5,-184"/>
<text text-anchor="middle" x="665" y="-172" font-family="Helvetica,sans-Serif" font-size="10.00">Wire.h</text>
</a>
</g>
</g>
<!-- Node9&#45;&gt;Node10 -->
<g id="edge11" class="edge">
<title>Node9&#45;&gt;Node10</title>
<path fill="none" stroke="#63b8ff" d="M784.36,-241.59C763.35,-230.89 727.3,-212.22 697,-195 694.33,-193.49 691.57,-191.87 688.82,-190.24"/>
<polygon fill="#63b8ff" stroke="#63b8ff" points="690.89,-187.39 680.52,-185.21 687.26,-193.38 690.89,-187.39"/>
</g>
<!-- Node11 -->
<g id="node11" class="node">
<title>Node11</title>
<g id="a_node11"><a xlink:title=" ">
<polygon fill="#e0e0e0" stroke="#999999" points="768,-184 706,-184 706,-165 768,-165 768,-184"/>
<text text-anchor="middle" x="737" y="-172" font-family="Helvetica,sans-Serif" font-size="10.00">hd44780.h</text>
</a>
</g>
</g>
<!-- Node9&#45;&gt;Node11 -->
<g id="edge12" class="edge">
<title>Node9&#45;&gt;Node11</title>
<path fill="none" stroke="#63b8ff" d="M794.29,-241.6C783.93,-229.65 765.3,-208.15 752.1,-192.92"/>
<polygon fill="#63b8ff" stroke="#63b8ff" points="754.89,-190.79 745.69,-185.53 749.6,-195.38 754.89,-190.79"/>
</g>
<!-- Node12 -->
<g id="node12" class="node">
<title>Node12</title>
<g id="a_node12"><a xlink:title=" ">
<polygon fill="#e0e0e0" stroke="#999999" points="911.5,-189.5 786.5,-189.5 786.5,-159.5 911.5,-159.5 911.5,-189.5"/>
<text text-anchor="start" x="794.5" y="-177.5" font-family="Helvetica,sans-Serif" font-size="10.00">hd44780ioClass/hd44780</text>
<text text-anchor="middle" x="849" y="-166.5" font-family="Helvetica,sans-Serif" font-size="10.00">_I2Cexp.h</text>
</a>
</g>
</g>
<!-- Node9&#45;&gt;Node12 -->
<g id="edge13" class="edge">
<title>Node9&#45;&gt;Node12</title>
<path fill="none" stroke="#63b8ff" d="M807.58,-241.6C814.1,-231.2 825.15,-213.56 834.2,-199.12"/>
<polygon fill="#63b8ff" stroke="#63b8ff" points="836.91,-201.38 839.26,-191.05 830.98,-197.66 836.91,-201.38"/>
</g>
<!-- Node13 -->
<g id="node13" class="node">
<title>Node13</title>
<g id="a_node13"><a xlink:href="display__settings_8h.html" target="_top" xlink:title="Archivo de configuración de la pantalla.">
<polygon fill="white" stroke="#666666" points="1024.5,-184 929.5,-184 929.5,-165 1024.5,-165 1024.5,-184"/>
<text text-anchor="middle" x="977" y="-172" font-family="Helvetica,sans-Serif" font-size="10.00">display_settings.h</text>
</a>
</g>
</g>
<!-- Node9&#45;&gt;Node13 -->
<g id="edge14" class="edge">
<title>Node9&#45;&gt;Node13</title>
<path fill="none" stroke="#63b8ff" d="M822.76,-241.6C853.28,-228.52 910.48,-204.01 945.99,-188.79"/>
<polygon fill="#63b8ff" stroke="#63b8ff" points="947.06,-192.14 954.87,-184.98 944.3,-185.7 947.06,-192.14"/>
</g>
<!-- Node14 -->
<g id="node14" class="node">
<title>Node14</title>
<g id="a_node14"><a xlink:href="system__settings_8h.html" target="_top" xlink:title="Archivo para la definición de constantes del sistema.">
<polygon fill="white" stroke="#666666" points="1345.5,-184 1248.5,-184 1248.5,-165 1345.5,-165 1345.5,-184"/>
<text text-anchor="middle" x="1297" y="-172" font-family="Helvetica,sans-Serif" font-size="10.00">system_settings.h</text>
</a>
</g>
</g>
<!-- Node9&#45;&gt;Node14 -->
<g id="edge15" class="edge">
<title>Node9&#45;&gt;Node14</title>
<path fill="none" stroke="#63b8ff" d="M826.02,-241.51C837.13,-237.69 850.58,-233.55 863,-231 1027.45,-197.25 1074.81,-229.98 1239,-195 1247.12,-193.27 1255.69,-190.78 1263.68,-188.15"/>
<polygon fill="#63b8ff" stroke="#63b8ff" points="1264.74,-191.49 1273.04,-184.91 1262.45,-184.87 1264.74,-191.49"/>
</g>
<!-- Node16 -->
<g id="node16" class="node">
<title>Node16</title>
<g id="a_node16"><a xlink:title=" ">
<polygon fill="#e0e0e0" stroke="#999999" points="1682.5,-184 1597.5,-184 1597.5,-165 1682.5,-165 1682.5,-184"/>
<text text-anchor="middle" x="1640" y="-172" font-family="Helvetica,sans-Serif" font-size="10.00">avr/pgmspace.h</text>
</a>
</g>
</g>
<!-- Node15&#45;&gt;Node16 -->
<g id="edge17" class="edge">
<title>Node15&#45;&gt;Node16</title>
<path fill="none" stroke="#63b8ff" d="M1638.24,-241.6C1638.54,-230.33 1639.07,-210.55 1639.47,-195.56"/>
<polygon fill="#63b8ff" stroke="#63b8ff" points="1642.95,-195.99 1639.72,-185.9 1635.96,-195.8 1642.95,-195.99"/>
</g>
<!-- Node17&#45;&gt;Node14 -->
<g id="edge20" class="edge">
<title>Node17&#45;&gt;Node14</title>
<path fill="none" stroke="#63b8ff" d="M963.67,-236C969.76,-234.14 976.01,-232.4 982,-231 1094.32,-204.8 1126.75,-221.49 1239,-195 1246.78,-193.16 1255,-190.72 1262.72,-188.19"/>
<polygon fill="#63b8ff" stroke="#63b8ff" points="1263.82,-191.51 1272.15,-184.96 1261.56,-184.89 1263.82,-191.51"/>
</g>
<!-- Node18 -->
<g id="node18" class="node">
<title>Node18</title>
<g id="a_node18"><a xlink:title=" ">
<polygon fill="#e0e0e0" stroke="#999999" points="1105.5,-184 1042.5,-184 1042.5,-165 1105.5,-165 1105.5,-184"/>
<text text-anchor="middle" x="1074" y="-172" font-family="Helvetica,sans-Serif" font-size="10.00">OneWire.h</text>
</a>
</g>
</g>
<!-- Node17&#45;&gt;Node18 -->
<g id="edge21" class="edge">
<title>Node17&#45;&gt;Node18</title>
<path fill="none" stroke="#63b8ff" d="M952.11,-236.04C979.23,-222.57 1019.38,-202.63 1046.1,-189.36"/>
<polygon fill="#63b8ff" stroke="#63b8ff" points="1047.55,-192.54 1054.95,-184.96 1044.44,-186.27 1047.55,-192.54"/>
</g>
<!-- Node19 -->
<g id="node19" class="node">
<title>Node19</title>
<g id="a_node19"><a xlink:title=" ">
<polygon fill="#e0e0e0" stroke="#999999" points="1230,-184 1124,-184 1124,-165 1230,-165 1230,-184"/>
<text text-anchor="middle" x="1177" y="-172" font-family="Helvetica,sans-Serif" font-size="10.00">DallasTemperature.h</text>
</a>
</g>
</g>
<!-- Node17&#45;&gt;Node19 -->
<g id="edge22" class="edge">
<title>Node17&#45;&gt;Node19</title>
<path fill="none" stroke="#63b8ff" d="M965.77,-236.07C971.22,-234.32 976.73,-232.59 982,-231 1040.22,-213.45 1055.61,-211.99 1114,-195 1121.77,-192.74 1130.05,-190.24 1137.97,-187.81"/>
<polygon fill="#63b8ff" stroke="#63b8ff" points="1138.87,-191.19 1147.39,-184.89 1136.8,-184.5 1138.87,-191.19"/>
</g>
<!-- Node21 -->
<g id="node21" class="node">
<title>Node21</title>
<g id="a_node21"><a xlink:title=" ">
<polygon fill="#e0e0e0" stroke="#999999" points="1422,-184 1364,-184 1364,-165 1422,-165 1422,-184"/>
<text text-anchor="middle" x="1393" y="-172" font-family="Helvetica,sans-Serif" font-size="10.00">Arduino.h</text>
</a>
</g>
</g>
<!-- Node20&#45;&gt;Node21 -->
<g id="edge24" class="edge">
<title>Node20&#45;&gt;Node21</title>
<path fill="none" stroke="#63b8ff" d="M1282.83,-241.6C1303.97,-228.92 1343.04,-205.48 1368.52,-190.19"/>
<polygon fill="#63b8ff" stroke="#63b8ff" points="1370.12,-193.31 1376.89,-185.17 1366.52,-187.31 1370.12,-193.31"/>
</g>
<!-- Node23&#45;&gt;Node21 -->
<g id="edge27" class="edge">
<title>Node23&#45;&gt;Node21</title>
<path fill="none" stroke="#63b8ff" d="M1393,-241.6C1393,-230.33 1393,-210.55 1393,-195.56"/>
<polygon fill="#63b8ff" stroke="#63b8ff" points="1396.5,-195.9 1393,-185.9 1389.5,-195.9 1396.5,-195.9"/>
</g>
<!-- Node24 -->
<g id="node24" class="node">
<title>Node24</title>
<g id="a_node24"><a xlink:href="port__config_8h.html" target="_top" xlink:title="Archivo de configuración para los puertos de la placa donde se implementará el sistema.">
<polygon fill="white" stroke="#666666" points="1512,-184 1440,-184 1440,-165 1512,-165 1512,-184"/>
<text text-anchor="middle" x="1476" y="-172" font-family="Helvetica,sans-Serif" font-size="10.00">port_config.h</text>
</a>
</g>
</g>
<!-- Node23&#45;&gt;Node24 -->
<g id="edge28" class="edge">
<title>Node23&#45;&gt;Node24</title>
<path fill="none" stroke="#63b8ff" d="M1402.85,-241.6C1416.33,-229.42 1440.77,-207.33 1457.67,-192.06"/>
<polygon fill="#63b8ff" stroke="#63b8ff" points="1459.97,-194.7 1465.04,-185.4 1455.28,-189.51 1459.97,-194.7"/>
</g>
<!-- Node25&#45;&gt;Node21 -->
<g id="edge30" class="edge">
<title>Node25&#45;&gt;Node21</title>
<path fill="none" stroke="#63b8ff" d="M1482.02,-241.6C1465.31,-229.2 1434.76,-206.51 1414.17,-191.22"/>
<polygon fill="#63b8ff" stroke="#63b8ff" points="1416.3,-188.44 1406.18,-185.29 1412.12,-194.06 1416.3,-188.44"/>
</g>
<!-- Node25&#45;&gt;Node24 -->
<g id="edge31" class="edge">
<title>Node25&#45;&gt;Node24</title>
<path fill="none" stroke="#63b8ff" d="M1491.86,-241.6C1489.16,-230.33 1484.41,-210.55 1480.81,-195.56"/>
<polygon fill="#63b8ff" stroke="#63b8ff" points="1484.22,-194.77 1478.49,-185.86 1477.42,-196.4 1484.22,-194.77"/>
</g>
<!-- Node26&#45;&gt;Node14 -->
<g id="edge35" class="edge">
<title>Node26&#45;&gt;Node14</title>
<path fill="none" stroke="#63b8ff" d="M1157.75,-241.6C1185.07,-228.63 1236.06,-204.43 1268.17,-189.18"/>
<polygon fill="#63b8ff" stroke="#63b8ff" points="1269.38,-192.49 1276.91,-185.04 1266.38,-186.16 1269.38,-192.49"/>
</g>
<!-- Node26&#45;&gt;Node21 -->
<g id="edge33" class="edge">
<title>Node26&#45;&gt;Node21</title>
<path fill="none" stroke="#63b8ff" d="M1162.79,-241.55C1172.67,-238.01 1184.31,-234.06 1195,-231 1264.66,-211.06 1285.77,-219.38 1354,-195 1358.37,-193.44 1362.88,-191.51 1367.21,-189.48"/>
<polygon fill="#63b8ff" stroke="#63b8ff" points="1368.71,-192.64 1376.09,-185.04 1365.58,-186.38 1368.71,-192.64"/>
</g>
<!-- Node26&#45;&gt;Node22 -->
<g id="edge34" class="edge">
<title>Node26&#45;&gt;Node22</title>
<path fill="none" stroke="#63b8ff" d="M1161.01,-241.55C1171.2,-237.74 1183.55,-233.59 1195,-231 1337.18,-198.83 1382.42,-240.21 1521,-195 1524.87,-193.74 1528.79,-192 1532.52,-190.08"/>
<polygon fill="#63b8ff" stroke="#63b8ff" points="1534.12,-193.2 1541.04,-185.18 1530.62,-187.13 1534.12,-193.2"/>
</g>
<!-- Node27&#45;&gt;Node14 -->
<g id="edge38" class="edge">
<title>Node27&#45;&gt;Node14</title>
<path fill="none" stroke="#63b8ff" d="M1053.68,-241.66C1062.6,-238.05 1073.21,-234.02 1083,-231 1150.99,-210.02 1170.53,-214.36 1239,-195 1246.26,-192.95 1253.96,-190.53 1261.3,-188.11"/>
<polygon fill="#63b8ff" stroke="#63b8ff" points="1262.25,-191.48 1270.61,-184.97 1260.02,-184.85 1262.25,-191.48"/>
</g>
<!-- Node27&#45;&gt;Node21 -->
<g id="edge37" class="edge">
<title>Node27&#45;&gt;Node21</title>
<path fill="none" stroke="#63b8ff" d="M1052.59,-241.6C1061.67,-237.8 1072.71,-233.65 1083,-231 1200.67,-200.71 1237.85,-230.66 1354,-195 1358.72,-193.55 1363.57,-191.57 1368.17,-189.43"/>
<polygon fill="#63b8ff" stroke="#63b8ff" points="1369.61,-192.63 1376.95,-184.99 1366.44,-186.38 1369.61,-192.63"/>
</g>
<!-- Node28&#45;&gt;Node5 -->
<g id="edge40" class="edge">
<title>Node28&#45;&gt;Node5</title>
<path fill="none" stroke="#63b8ff" d="M469.23,-266.98C476.92,-268.74 484.64,-270.46 492,-272 554.32,-285.04 625.89,-297.53 674.82,-305.94"/>
<polygon fill="#63b8ff" stroke="#63b8ff" points="674.2,-309.38 684.65,-307.62 675.38,-302.48 674.2,-309.38"/>
</g>
<!-- Node28&#45;&gt;Node8 -->
<g id="edge41" class="edge">
<title>Node28&#45;&gt;Node8</title>
<path fill="none" stroke="#63b8ff" d="M393.35,-230.66C380.14,-197.22 358.89,-128.28 383,-77 388.16,-66.02 396.68,-56.47 405.94,-48.52"/>
<polygon fill="#63b8ff" stroke="#63b8ff" points="408.09,-51.29 413.78,-42.35 403.76,-45.79 408.09,-51.29"/>
</g>
<!-- Node29 -->
<g id="node29" class="node">
<title>Node29</title>
<g id="a_node29"><a xlink:href="_idle__state_8h.html" target="_top" xlink:title="Clase de estado de reposo.">
<polygon fill="white" stroke="#666666" points="508,-118 392,-118 392,-77 508,-77 508,-118"/>
<text text-anchor="start" x="400" y="-106" font-family="Helvetica,sans-Serif" font-size="10.00">machine_state_pattern</text>
<text text-anchor="start" x="400" y="-95" font-family="Helvetica,sans-Serif" font-size="10.00">/machine_states/Idle</text>
<text text-anchor="middle" x="450" y="-84" font-family="Helvetica,sans-Serif" font-size="10.00">_state.h</text>
</a>
</g>
</g>
<!-- Node28&#45;&gt;Node29 -->
<g id="edge42" class="edge">
<title>Node28&#45;&gt;Node29</title>
<path fill="none" stroke="#63b8ff" d="M405.94,-230.64C410.08,-210.93 417.21,-180 426,-154 428.8,-145.73 432.31,-136.97 435.78,-128.92"/>
<polygon fill="#63b8ff" stroke="#63b8ff" points="438.94,-130.43 439.8,-119.87 432.54,-127.59 438.94,-130.43"/>
</g>
<!-- Node29&#45;&gt;Node5 -->
<g id="edge43" class="edge">
<title>Node29&#45;&gt;Node5</title>
<path fill="none" stroke="#63b8ff" d="M447.55,-118.26C445.95,-138.71 446.14,-170.97 459,-195 484.64,-242.92 505.36,-247.76 554,-272 592.02,-290.95 638.69,-302.21 674.85,-308.66"/>
<polygon fill="#63b8ff" stroke="#63b8ff" points="674.26,-312.11 684.7,-310.33 675.43,-305.21 674.26,-312.11"/>
</g>
<!-- Node29&#45;&gt;Node8 -->
<g id="edge44" class="edge">
<title>Node29&#45;&gt;Node8</title>
<path fill="none" stroke="#63b8ff" d="M450,-76.79C450,-69.45 450,-60.91 450,-52.78"/>
<polygon fill="#63b8ff" stroke="#63b8ff" points="453.5,-52.85 450,-42.85 446.5,-52.85 453.5,-52.85"/>
</g>
<!-- Node30 -->
<g id="node30" class="node">
<title>Node30</title>
<g id="a_node30"><a xlink:href="_alarm__state_8h.html" target="_top" xlink:title="Clase de estado de control del motor.">
<polygon fill="white" stroke="#666666" points="585.5,-195 468.5,-195 468.5,-154 585.5,-154 585.5,-195"/>
<text text-anchor="start" x="476.5" y="-183" font-family="Helvetica,sans-Serif" font-size="10.00">machine_state_pattern</text>
<text text-anchor="start" x="476.5" y="-172" font-family="Helvetica,sans-Serif" font-size="10.00">/machine_states/Alarm</text>
<text text-anchor="middle" x="527" y="-161" font-family="Helvetica,sans-Serif" font-size="10.00">_state.h</text>
</a>
</g>
</g>
<!-- Node29&#45;&gt;Node30 -->
<g id="edge45" class="edge">
<title>Node29&#45;&gt;Node30</title>
<path fill="none" stroke="#63b8ff" d="M476.4,-118.33C485.74,-126.72 496.1,-136.64 505.04,-145.74"/>
<polygon fill="#63b8ff" stroke="#63b8ff" points="502.29,-147.92 511.74,-152.7 507.33,-143.07 502.29,-147.92"/>
</g>
<!-- Node30&#45;&gt;Node5 -->
<g id="edge46" class="edge">
<title>Node30&#45;&gt;Node5</title>
<path fill="none" stroke="#63b8ff" d="M536.14,-195.42C547.14,-217.25 567.6,-251.83 595,-272 618.42,-289.23 648.79,-299.97 675.09,-306.57"/>
<polygon fill="#63b8ff" stroke="#63b8ff" points="674.06,-309.93 684.6,-308.81 675.66,-303.11 674.06,-309.93"/>
</g>
<!-- Node30&#45;&gt;Node8 -->
<g id="edge47" class="edge">
<title>Node30&#45;&gt;Node8</title>
<path fill="none" stroke="#63b8ff" d="M529.15,-153.75C530.45,-133.31 529.87,-101.06 517,-77 511.11,-65.99 502.03,-56.3 492.45,-48.23"/>
<polygon fill="#63b8ff" stroke="#63b8ff" points="494.8,-45.62 484.77,-42.21 490.48,-51.13 494.8,-45.62"/>
</g>
<!-- Node30&#45;&gt;Node29 -->
<g id="edge48" class="edge">
<title>Node30&#45;&gt;Node29</title>
<path fill="none" stroke="#63b8ff" d="M500.75,-153.79C491.41,-145.42 481.06,-135.51 472.1,-126.4"/>
<polygon fill="#63b8ff" stroke="#63b8ff" points="474.84,-124.2 465.38,-119.42 469.79,-129.06 474.84,-124.2"/>
</g>
<!-- Node31&#45;&gt;Node5 -->
<g id="edge50" class="edge">
<title>Node31&#45;&gt;Node5</title>
<path fill="none" stroke="#63b8ff" d="M691.73,-272.38C701.74,-281.04 712.49,-291.08 720.62,-299.4"/>
<polygon fill="#63b8ff" stroke="#63b8ff" points="717.84,-301.56 727.22,-306.49 722.97,-296.79 717.84,-301.56"/>
</g>
<!-- Node31&#45;&gt;Node8 -->
<g id="edge51" class="edge">
<title>Node31&#45;&gt;Node8</title>
<path fill="none" stroke="#63b8ff" d="M652.9,-230.69C632.99,-196.38 588.45,-125 537,-77 525.19,-65.99 510.92,-55.85 497.37,-47.33"/>
<polygon fill="#63b8ff" stroke="#63b8ff" points="499.34,-44.43 488.98,-42.22 495.7,-50.41 499.34,-44.43"/>
</g>
<!-- Node31&#45;&gt;Node30 -->
<g id="edge52" class="edge">
<title>Node31&#45;&gt;Node30</title>
<path fill="none" stroke="#63b8ff" d="M627.65,-230.6C611.08,-221.53 591.27,-210.68 573.62,-201.02"/>
<polygon fill="#63b8ff" stroke="#63b8ff" points="575.3,-197.95 564.85,-196.22 571.94,-204.09 575.3,-197.95"/>
</g>
</g>
</svg>
