<?xml version="1.0" encoding="UTF-8" standalone="no"?>
<!DOCTYPE svg PUBLIC "-//W3C//DTD SVG 1.1//EN"
 "http://www.w3.org/Graphics/SVG/1.1/DTD/svg11.dtd">
<!-- Generated by graphviz version 7.0.2 (20221119.0110)
 -->
<!-- Title: C:/Users/juanh/OneDrive/Escritorio/Facultad/Beca/Proyecto/LAL Control Arduino/include/observer_pattern/observers/Temperature_observer.h Pages: 1 -->
<svg width="1741pt" height="500pt"
 viewBox="0.00 0.00 1741.00 500.00" xmlns="http://www.w3.org/2000/svg" xmlns:xlink="http://www.w3.org/1999/xlink">
<g id="graph0" class="graph" transform="scale(1 1) rotate(0) translate(4 496)">
<title>C:/Users/juanh/OneDrive/Escritorio/Facultad/Beca/Proyecto/LAL Control Arduino/include/observer_pattern/observers/Temperature_observer.h</title>
<!-- Node1 -->
<g id="node1" class="node">
<title>Node1</title>
<g id="a_node1"><a xlink:title="Observador del sensor de temperatura.">
<polygon fill="#999999" stroke="#666666" points="901.5,-492 732.5,-492 732.5,-429 901.5,-429 901.5,-492"/>
<text text-anchor="start" x="740.5" y="-480" font-family="Helvetica,sans-Serif" font-size="10.00">C:/Users/juanh/OneDrive</text>
<text text-anchor="start" x="740.5" y="-469" font-family="Helvetica,sans-Serif" font-size="10.00">/Escritorio/Facultad/Beca</text>
<text text-anchor="start" x="740.5" y="-458" font-family="Helvetica,sans-Serif" font-size="10.00">/Proyecto/LAL Control Arduino</text>
<text text-anchor="start" x="740.5" y="-447" font-family="Helvetica,sans-Serif" font-size="10.00">/include/observer_pattern/observers</text>
<text text-anchor="middle" x="817" y="-436" font-family="Helvetica,sans-Serif" font-size="10.00">/Temperature_observer.h</text>
</a>
</g>
</g>
<!-- Node2 -->
<g id="node2" class="node">
<title>Node2</title>
<g id="a_node2"><a xlink:href="_system__observer_8h.html" target="_top" xlink:title="Clase observador del sistema de control.">
<polygon fill="white" stroke="#666666" points="751,-393 619,-393 619,-363 751,-363 751,-393"/>
<text text-anchor="start" x="627" y="-381" font-family="Helvetica,sans-Serif" font-size="10.00">observer_pattern/observers</text>
<text text-anchor="middle" x="685" y="-370" font-family="Helvetica,sans-Serif" font-size="10.00">/System_observer.h</text>
</a>
</g>
</g>
<!-- Node1&#45;&gt;Node2 -->
<g id="edge1" class="edge">
<title>Node1&#45;&gt;Node2</title>
<path fill="none" stroke="#63b8ff" d="M766.34,-428.61C750.16,-418.74 732.67,-408.07 718.07,-399.17"/>
<polygon fill="#63b8ff" stroke="#63b8ff" points="720.13,-396.32 709.77,-394.1 716.48,-402.3 720.13,-396.32"/>
</g>
<!-- Node6 -->
<g id="node6" class="node">
<title>Node6</title>
<g id="a_node6"><a xlink:href="_control__system_8h.html" target="_top" xlink:title="Clase para el sistema de control.">
<polygon fill="white" stroke="#666666" points="759.5,-327 666.5,-327 666.5,-308 759.5,-308 759.5,-327"/>
<text text-anchor="middle" x="713" y="-315" font-family="Helvetica,sans-Serif" font-size="10.00">Control_system.h</text>
</a>
</g>
</g>
<!-- Node1&#45;&gt;Node6 -->
<g id="edge55" class="edge">
<title>Node1&#45;&gt;Node6</title>
<path fill="none" stroke="#63b8ff" d="M801.58,-428.53C791.11,-408.87 776.26,-383.39 760,-363 751.89,-352.83 741.5,-342.75 732.55,-334.77"/>
<polygon fill="#63b8ff" stroke="#63b8ff" points="734.91,-332.18 725.05,-328.28 730.33,-337.47 734.91,-332.18"/>
</g>
<!-- Node15 -->
<g id="node15" class="node">
<title>Node15</title>
<g id="a_node15"><a xlink:href="system__settings_8h.html" target="_top" xlink:title="Archivo para la definición de constantes del sistema.">
<polygon fill="white" stroke="#666666" points="1147.5,-184 1050.5,-184 1050.5,-165 1147.5,-165 1147.5,-184"/>
<text text-anchor="middle" x="1099" y="-172" font-family="Helvetica,sans-Serif" font-size="10.00">system_settings.h</text>
</a>
</g>
</g>
<!-- Node1&#45;&gt;Node15 -->
<g id="edge56" class="edge">
<title>Node1&#45;&gt;Node15</title>
<path fill="none" stroke="#63b8ff" d="M809.03,-428.68C798.47,-379.98 786.48,-285.24 836,-231 898.37,-162.69 951.35,-217.8 1041,-195 1048.61,-193.06 1056.66,-190.62 1064.26,-188.12"/>
<polygon fill="#63b8ff" stroke="#63b8ff" points="1065.2,-191.5 1073.54,-184.97 1062.95,-184.87 1065.2,-191.5"/>
</g>
<!-- Node22 -->
<g id="node22" class="node">
<title>Node22</title>
<g id="a_node22"><a xlink:title=" ">
<polygon fill="#e0e0e0" stroke="#999999" points="1429,-184 1371,-184 1371,-165 1429,-165 1429,-184"/>
<text text-anchor="middle" x="1400" y="-172" font-family="Helvetica,sans-Serif" font-size="10.00">Arduino.h</text>
</a>
</g>
</g>
<!-- Node1&#45;&gt;Node22 -->
<g id="edge54" class="edge">
<title>Node1&#45;&gt;Node22</title>
<path fill="none" stroke="#63b8ff" d="M902,-440.74C1005.92,-414.95 1184.01,-361.28 1314,-272 1318.28,-269.06 1361.36,-219.89 1384.88,-192.9"/>
<polygon fill="#63b8ff" stroke="#63b8ff" points="1387.36,-195.37 1391.29,-185.53 1382.08,-190.78 1387.36,-195.37"/>
</g>
<!-- Node23 -->
<g id="node23" class="node">
<title>Node23</title>
<g id="a_node23"><a xlink:href="types_8h.html" target="_top" xlink:title="Archivo de definición de tipos de dato.">
<polygon fill="white" stroke="#666666" points="1597.5,-184 1548.5,-184 1548.5,-165 1597.5,-165 1597.5,-184"/>
<text text-anchor="middle" x="1573" y="-172" font-family="Helvetica,sans-Serif" font-size="10.00">types.h</text>
</a>
</g>
</g>
<!-- Node1&#45;&gt;Node23 -->
<g id="edge57" class="edge">
<title>Node1&#45;&gt;Node23</title>
<path fill="none" stroke="#63b8ff" d="M901.76,-451.63C1082.37,-432.9 1495.41,-379.07 1578,-272 1594.95,-250.02 1587.9,-216.15 1580.8,-194.93"/>
<polygon fill="#63b8ff" stroke="#63b8ff" points="1584.16,-193.93 1577.41,-185.76 1577.59,-196.36 1584.16,-193.93"/>
</g>
<!-- Node3 -->
<g id="node3" class="node">
<title>Node3</title>
<g id="a_node3"><a xlink:href="_observer_8h.html" target="_top" xlink:title="Clase observador.">
<polygon fill="white" stroke="#666666" points="132,-266.5 0,-266.5 0,-236.5 132,-236.5 132,-266.5"/>
<text text-anchor="start" x="8" y="-254.5" font-family="Helvetica,sans-Serif" font-size="10.00">observer_pattern/observers</text>
<text text-anchor="middle" x="66" y="-243.5" font-family="Helvetica,sans-Serif" font-size="10.00">/Observer.h</text>
</a>
</g>
</g>
<!-- Node2&#45;&gt;Node3 -->
<g id="edge2" class="edge">
<title>Node2&#45;&gt;Node3</title>
<path fill="none" stroke="#63b8ff" d="M618.56,-365.58C515.78,-347.61 312.21,-310.74 141,-272 137.69,-271.25 134.31,-270.46 130.9,-269.65"/>
<polygon fill="#63b8ff" stroke="#63b8ff" points="131.99,-266.31 121.44,-267.33 130.33,-273.11 131.99,-266.31"/>
</g>
<!-- Node2&#45;&gt;Node6 -->
<g id="edge5" class="edge">
<title>Node2&#45;&gt;Node6</title>
<path fill="none" stroke="#63b8ff" d="M686.01,-362.54C688.78,-354.74 693.3,-345.03 697.98,-336.71"/>
<polygon fill="#63b8ff" stroke="#63b8ff" points="700.8,-338.81 703.09,-328.46 694.85,-335.12 700.8,-338.81"/>
</g>
<!-- Node4 -->
<g id="node4" class="node">
<title>Node4</title>
<g id="a_node4"><a xlink:href="_subject__interface_8h.html" target="_top" xlink:title="Clase para interfaz para implementar el sujeto.">
<polygon fill="white" stroke="#666666" points="129,-189.5 1,-189.5 1,-159.5 129,-159.5 129,-189.5"/>
<text text-anchor="start" x="9" y="-177.5" font-family="Helvetica,sans-Serif" font-size="10.00">observer_pattern/subjects</text>
<text text-anchor="middle" x="65" y="-166.5" font-family="Helvetica,sans-Serif" font-size="10.00">/Subject_interface.h</text>
</a>
</g>
</g>
<!-- Node3&#45;&gt;Node4 -->
<g id="edge3" class="edge">
<title>Node3&#45;&gt;Node4</title>
<path fill="none" stroke="#63b8ff" d="M65.81,-236.04C65.68,-226.18 65.5,-212.86 65.34,-201.22"/>
<polygon fill="#63b8ff" stroke="#63b8ff" points="68.85,-201.38 65.21,-191.43 61.85,-201.48 68.85,-201.38"/>
</g>
<!-- Node5 -->
<g id="node5" class="node">
<title>Node5</title>
<g id="a_node5"><a xlink:href="_observer__interface_8h.html" target="_top" xlink:title="Clase para interfaz para implementar el observador.">
<polygon fill="white" stroke="#666666" points="279,-189.5 147,-189.5 147,-159.5 279,-159.5 279,-189.5"/>
<text text-anchor="start" x="155" y="-177.5" font-family="Helvetica,sans-Serif" font-size="10.00">observer_pattern/observers</text>
<text text-anchor="middle" x="213" y="-166.5" font-family="Helvetica,sans-Serif" font-size="10.00">/Observer_interface.h</text>
</a>
</g>
</g>
<!-- Node3&#45;&gt;Node5 -->
<g id="edge4" class="edge">
<title>Node3&#45;&gt;Node5</title>
<path fill="none" stroke="#63b8ff" d="M94.34,-236.04C117.22,-224.37 149.63,-207.83 174.8,-194.99"/>
<polygon fill="#63b8ff" stroke="#63b8ff" points="176.08,-198.27 183.4,-190.6 172.9,-192.03 176.08,-198.27"/>
</g>
<!-- Node6&#45;&gt;Node2 -->
<g id="edge19" class="edge">
<title>Node6&#45;&gt;Node2</title>
<path fill="none" stroke="#63b8ff" d="M713.81,-327.18C712.05,-333.87 708.02,-343.48 703.41,-352.47"/>
<polygon fill="#63b8ff" stroke="#63b8ff" points="700.35,-350.77 698.57,-361.22 706.48,-354.16 700.35,-350.77"/>
</g>
<!-- Node7 -->
<g id="node7" class="node">
<title>Node7</title>
<g id="a_node7"><a xlink:href="_subject_8h.html" target="_top" xlink:title=" ">
<polygon fill="white" stroke="#666666" points="278,-266.5 150,-266.5 150,-236.5 278,-236.5 278,-266.5"/>
<text text-anchor="start" x="158" y="-254.5" font-family="Helvetica,sans-Serif" font-size="10.00">observer_pattern/subjects</text>
<text text-anchor="middle" x="214" y="-243.5" font-family="Helvetica,sans-Serif" font-size="10.00">/Subject.h</text>
</a>
</g>
</g>
<!-- Node6&#45;&gt;Node7 -->
<g id="edge6" class="edge">
<title>Node6&#45;&gt;Node7</title>
<path fill="none" stroke="#63b8ff" d="M666.1,-313.63C588.18,-308.39 427.33,-295.58 293,-272 288.46,-271.2 283.79,-270.29 279.11,-269.31"/>
<polygon fill="#63b8ff" stroke="#63b8ff" points="280.19,-265.96 269.67,-267.23 278.68,-272.8 280.19,-265.96"/>
</g>
<!-- Node8 -->
<g id="node8" class="node">
<title>Node8</title>
<g id="a_node8"><a xlink:href="_machine_8h.html" target="_top" xlink:title="Clase de máquina abstracta.">
<polygon fill="white" stroke="#666666" points="344,-112.5 228,-112.5 228,-82.5 344,-82.5 344,-112.5"/>
<text text-anchor="start" x="236" y="-100.5" font-family="Helvetica,sans-Serif" font-size="10.00">machine_state_pattern</text>
<text text-anchor="middle" x="286" y="-89.5" font-family="Helvetica,sans-Serif" font-size="10.00">/Machine.h</text>
</a>
</g>
</g>
<!-- Node6&#45;&gt;Node8 -->
<g id="edge9" class="edge">
<title>Node6&#45;&gt;Node8</title>
<path fill="none" stroke="#63b8ff" d="M666.25,-314.12C568.82,-308.73 350.96,-294.31 326,-272 304.24,-252.55 292.82,-167.42 288.32,-124.06"/>
<polygon fill="#63b8ff" stroke="#63b8ff" points="291.83,-123.91 287.36,-114.3 284.86,-124.59 291.83,-123.91"/>
</g>
<!-- Node10 -->
<g id="node10" class="node">
<title>Node10</title>
<g id="a_node10"><a xlink:href="_display_8h.html" target="_top" xlink:title="Controlador de LCD hd44780 por interfaz I2C.">
<polygon fill="white" stroke="#666666" points="789,-261 701,-261 701,-242 789,-242 789,-261"/>
<text text-anchor="middle" x="745" y="-249" font-family="Helvetica,sans-Serif" font-size="10.00">drivers/Display.h</text>
</a>
</g>
</g>
<!-- Node6&#45;&gt;Node10 -->
<g id="edge11" class="edge">
<title>Node6&#45;&gt;Node10</title>
<path fill="none" stroke="#63b8ff" d="M717.45,-307.6C722.08,-298.34 729.48,-283.54 735.45,-271.61"/>
<polygon fill="#63b8ff" stroke="#63b8ff" points="738.57,-273.19 739.91,-262.68 732.31,-270.06 738.57,-273.19"/>
</g>
<!-- Node16 -->
<g id="node16" class="node">
<title>Node16</title>
<g id="a_node16"><a xlink:href="user__messages_8h.html" target="_top" xlink:title="Archivo para la configuración de interfaz con el usuario.">
<polygon fill="white" stroke="#666666" points="1733,-261 1639,-261 1639,-242 1733,-242 1733,-261"/>
<text text-anchor="middle" x="1686" y="-249" font-family="Helvetica,sans-Serif" font-size="10.00">user_messages.h</text>
</a>
</g>
</g>
<!-- Node6&#45;&gt;Node16 -->
<g id="edge17" class="edge">
<title>Node6&#45;&gt;Node16</title>
<path fill="none" stroke="#63b8ff" d="M759.63,-316.48C890.57,-315.9 1272.6,-310.76 1587,-272 1603.09,-270.02 1620.48,-266.92 1636.13,-263.77"/>
<polygon fill="#63b8ff" stroke="#63b8ff" points="1636.62,-267.25 1645.7,-261.79 1635.2,-260.39 1636.62,-267.25"/>
</g>
<!-- Node18 -->
<g id="node18" class="node">
<title>Node18</title>
<g id="a_node18"><a xlink:href="_temperature__sensor_8h.html" target="_top" xlink:title="Controlador para sensor de temperatura DS18B20.">
<polygon fill="white" stroke="#666666" points="946.5,-266.5 845.5,-266.5 845.5,-236.5 946.5,-236.5 946.5,-266.5"/>
<text text-anchor="start" x="853.5" y="-254.5" font-family="Helvetica,sans-Serif" font-size="10.00">drivers/Temperature</text>
<text text-anchor="middle" x="896" y="-243.5" font-family="Helvetica,sans-Serif" font-size="10.00">_sensor.h</text>
</a>
</g>
</g>
<!-- Node6&#45;&gt;Node18 -->
<g id="edge20" class="edge">
<title>Node6&#45;&gt;Node18</title>
<path fill="none" stroke="#63b8ff" d="M738.45,-307.6C765.56,-298.12 809.25,-282.84 843.76,-270.77"/>
<polygon fill="#63b8ff" stroke="#63b8ff" points="844.89,-274.08 853.17,-267.48 842.58,-267.47 844.89,-274.08"/>
</g>
<!-- Node21 -->
<g id="node21" class="node">
<title>Node21</title>
<g id="a_node21"><a xlink:href="_moisture__sensor_8h.html" target="_top" xlink:title="Controlador de sensor de humedad analógico.">
<polygon fill="white" stroke="#666666" points="1305,-261 1177,-261 1177,-242 1305,-242 1305,-261"/>
<text text-anchor="middle" x="1241" y="-249" font-family="Helvetica,sans-Serif" font-size="10.00">drivers/Moisture_sensor.h</text>
</a>
</g>
</g>
<!-- Node6&#45;&gt;Node21 -->
<g id="edge24" class="edge">
<title>Node6&#45;&gt;Node21</title>
<path fill="none" stroke="#63b8ff" d="M759.74,-314.39C842.43,-310.1 1019.67,-298.46 1167,-272 1177.97,-270.03 1189.69,-267.26 1200.5,-264.42"/>
<polygon fill="#63b8ff" stroke="#63b8ff" points="1201.16,-267.87 1209.9,-261.87 1199.33,-261.11 1201.16,-267.87"/>
</g>
<!-- Node6&#45;&gt;Node23 -->
<g id="edge26" class="edge">
<title>Node6&#45;&gt;Node23</title>
<path fill="none" stroke="#63b8ff" d="M759.91,-315.6C932.5,-312.08 1523.84,-298.17 1554,-272 1575.46,-253.39 1577.05,-218.22 1575.54,-195.87"/>
<polygon fill="#63b8ff" stroke="#63b8ff" points="1579.02,-195.53 1574.56,-185.92 1572.05,-196.21 1579.02,-195.53"/>
</g>
<!-- Node24 -->
<g id="node24" class="node">
<title>Node24</title>
<g id="a_node24"><a xlink:href="_buzzer_8h.html" target="_top" xlink:title="Controlador de Buzzer de 12 milimetros.">
<polygon fill="white" stroke="#666666" points="1447,-261 1361,-261 1361,-242 1447,-242 1447,-261"/>
<text text-anchor="middle" x="1404" y="-249" font-family="Helvetica,sans-Serif" font-size="10.00">drivers/Buzzer.h</text>
</a>
</g>
</g>
<!-- Node6&#45;&gt;Node24 -->
<g id="edge27" class="edge">
<title>Node6&#45;&gt;Node24</title>
<path fill="none" stroke="#63b8ff" d="M760,-315.25C861.58,-312.06 1108.97,-301.65 1314,-272 1328.09,-269.96 1343.27,-266.98 1357.08,-263.96"/>
<polygon fill="#63b8ff" stroke="#63b8ff" points="1357.83,-267.38 1366.82,-261.77 1356.3,-260.55 1357.83,-267.38"/>
</g>
<!-- Node26 -->
<g id="node26" class="node">
<title>Node26</title>
<g id="a_node26"><a xlink:href="_motor_8h.html" target="_top" xlink:title="Controlador de motor de 220 VAC.">
<polygon fill="white" stroke="#666666" points="1545,-261 1465,-261 1465,-242 1545,-242 1545,-261"/>
<text text-anchor="middle" x="1505" y="-249" font-family="Helvetica,sans-Serif" font-size="10.00">drivers/Motor.h</text>
</a>
</g>
</g>
<!-- Node6&#45;&gt;Node26 -->
<g id="edge30" class="edge">
<title>Node6&#45;&gt;Node26</title>
<path fill="none" stroke="#63b8ff" d="M759.95,-315.64C901.49,-312.73 1322.46,-301.76 1456,-272 1462.76,-270.49 1469.79,-268.18 1476.36,-265.66"/>
<polygon fill="#63b8ff" stroke="#63b8ff" points="1477.52,-268.97 1485.43,-261.92 1474.85,-262.5 1477.52,-268.97"/>
</g>
<!-- Node27 -->
<g id="node27" class="node">
<title>Node27</title>
<g id="a_node27"><a xlink:href="_dual___l_e_d_8h.html" target="_top" xlink:title="Controlador de LED RG.">
<polygon fill="white" stroke="#666666" points="1158.5,-261 1065.5,-261 1065.5,-242 1158.5,-242 1158.5,-261"/>
<text text-anchor="middle" x="1112" y="-249" font-family="Helvetica,sans-Serif" font-size="10.00">drivers/Dual_led.h</text>
</a>
</g>
</g>
<!-- Node6&#45;&gt;Node27 -->
<g id="edge33" class="edge">
<title>Node6&#45;&gt;Node27</title>
<path fill="none" stroke="#63b8ff" d="M759.87,-313.49C826.43,-308.53 951.83,-296.62 1056,-272 1063.52,-270.22 1071.44,-267.81 1078.88,-265.29"/>
<polygon fill="#63b8ff" stroke="#63b8ff" points="1080.02,-268.6 1088.27,-261.96 1077.68,-262.01 1080.02,-268.6"/>
</g>
<!-- Node28 -->
<g id="node28" class="node">
<title>Node28</title>
<g id="a_node28"><a xlink:href="_cooler_8h.html" target="_top" xlink:title="Controlador de ventilador de 12 volts y 5 milímteros.">
<polygon fill="white" stroke="#666666" points="1047.5,-261 964.5,-261 964.5,-242 1047.5,-242 1047.5,-261"/>
<text text-anchor="middle" x="1006" y="-249" font-family="Helvetica,sans-Serif" font-size="10.00">drivers/Cooler.h</text>
</a>
</g>
</g>
<!-- Node6&#45;&gt;Node28 -->
<g id="edge37" class="edge">
<title>Node6&#45;&gt;Node28</title>
<path fill="none" stroke="#63b8ff" d="M759.97,-310.47C809.16,-303.55 888.37,-290.69 955,-272 961.55,-270.16 968.43,-267.82 974.95,-265.41"/>
<polygon fill="#63b8ff" stroke="#63b8ff" points="975.97,-268.77 984.04,-261.89 973.45,-262.24 975.97,-268.77"/>
</g>
<!-- Node29 -->
<g id="node29" class="node">
<title>Node29</title>
<g id="a_node29"><a xlink:href="_shutdown__state_8h.html" target="_top" xlink:title="Clase de estado de apagado del sistema.">
<polygon fill="white" stroke="#666666" points="469,-272 335,-272 335,-231 469,-231 469,-272"/>
<text text-anchor="start" x="343" y="-260" font-family="Helvetica,sans-Serif" font-size="10.00">machine_state_pattern</text>
<text text-anchor="start" x="343" y="-249" font-family="Helvetica,sans-Serif" font-size="10.00">/machine_states/Shutdown</text>
<text text-anchor="middle" x="402" y="-238" font-family="Helvetica,sans-Serif" font-size="10.00">_state.h</text>
</a>
</g>
</g>
<!-- Node6&#45;&gt;Node29 -->
<g id="edge40" class="edge">
<title>Node6&#45;&gt;Node29</title>
<path fill="none" stroke="#63b8ff" d="M666.06,-309.25C620.03,-301.29 547.96,-287.82 480.14,-273.31"/>
<polygon fill="#63b8ff" stroke="#63b8ff" points="481.29,-269.97 470.77,-271.29 479.81,-276.82 481.29,-269.97"/>
</g>
<!-- Node32 -->
<g id="node32" class="node">
<title>Node32</title>
<g id="a_node32"><a xlink:href="_check__instruction__state_8h_source.html" target="_top" xlink:title=" ">
<polygon fill="white" stroke="#666666" points="682.5,-272 563.5,-272 563.5,-231 682.5,-231 682.5,-272"/>
<text text-anchor="start" x="571.5" y="-260" font-family="Helvetica,sans-Serif" font-size="10.00">machine_state_pattern</text>
<text text-anchor="start" x="571.5" y="-249" font-family="Helvetica,sans-Serif" font-size="10.00">/machine_states/Check</text>
<text text-anchor="middle" x="623" y="-238" font-family="Helvetica,sans-Serif" font-size="10.00">_instruction_state.h</text>
</a>
</g>
</g>
<!-- Node6&#45;&gt;Node32 -->
<g id="edge50" class="edge">
<title>Node6&#45;&gt;Node32</title>
<path fill="none" stroke="#63b8ff" d="M695.64,-307.6C683.63,-300.16 667.55,-289.16 653.52,-278.94"/>
<polygon fill="#63b8ff" stroke="#63b8ff" points="655.99,-276.41 645.87,-273.28 651.83,-282.04 655.99,-276.41"/>
</g>
<!-- Node7&#45;&gt;Node4 -->
<g id="edge7" class="edge">
<title>Node7&#45;&gt;Node4</title>
<path fill="none" stroke="#63b8ff" d="M185.27,-236.04C162.08,-224.37 129.23,-207.83 103.72,-194.99"/>
<polygon fill="#63b8ff" stroke="#63b8ff" points="105.5,-191.97 94.99,-190.6 102.35,-198.22 105.5,-191.97"/>
</g>
<!-- Node7&#45;&gt;Node5 -->
<g id="edge8" class="edge">
<title>Node7&#45;&gt;Node5</title>
<path fill="none" stroke="#63b8ff" d="M213.81,-236.04C213.68,-226.18 213.5,-212.86 213.34,-201.22"/>
<polygon fill="#63b8ff" stroke="#63b8ff" points="216.85,-201.38 213.21,-191.43 209.85,-201.48 216.85,-201.38"/>
</g>
<!-- Node9 -->
<g id="node9" class="node">
<title>Node9</title>
<g id="a_node9"><a xlink:href="_abstract__state_8h.html" target="_top" xlink:title="Clase de estado abstracta.">
<polygon fill="white" stroke="#666666" points="522,-41 394,-41 394,0 522,0 522,-41"/>
<text text-anchor="start" x="402" y="-29" font-family="Helvetica,sans-Serif" font-size="10.00">machine_state_pattern</text>
<text text-anchor="start" x="402" y="-18" font-family="Helvetica,sans-Serif" font-size="10.00">/machine_states/Abstract</text>
<text text-anchor="middle" x="458" y="-7" font-family="Helvetica,sans-Serif" font-size="10.00">_state.h</text>
</a>
</g>
</g>
<!-- Node8&#45;&gt;Node9 -->
<g id="edge10" class="edge">
<title>Node8&#45;&gt;Node9</title>
<path fill="none" stroke="#63b8ff" d="M319.16,-82.04C342.62,-71.81 374.64,-57.85 402.02,-45.91"/>
<polygon fill="#63b8ff" stroke="#63b8ff" points="403.11,-49.26 410.87,-42.05 400.31,-42.84 403.11,-49.26"/>
</g>
<!-- Node11 -->
<g id="node11" class="node">
<title>Node11</title>
<g id="a_node11"><a xlink:title=" ">
<polygon fill="#e0e0e0" stroke="#999999" points="695.5,-184 650.5,-184 650.5,-165 695.5,-165 695.5,-184"/>
<text text-anchor="middle" x="673" y="-172" font-family="Helvetica,sans-Serif" font-size="10.00">Wire.h</text>
</a>
</g>
</g>
<!-- Node10&#45;&gt;Node11 -->
<g id="edge12" class="edge">
<title>Node10&#45;&gt;Node11</title>
<path fill="none" stroke="#63b8ff" d="M736.46,-241.6C724.87,-229.54 703.95,-207.74 689.31,-192.49"/>
<polygon fill="#63b8ff" stroke="#63b8ff" points="692.03,-190.27 682.58,-185.48 686.98,-195.12 692.03,-190.27"/>
</g>
<!-- Node12 -->
<g id="node12" class="node">
<title>Node12</title>
<g id="a_node12"><a xlink:title=" ">
<polygon fill="#e0e0e0" stroke="#999999" points="776,-184 714,-184 714,-165 776,-165 776,-184"/>
<text text-anchor="middle" x="745" y="-172" font-family="Helvetica,sans-Serif" font-size="10.00">hd44780.h</text>
</a>
</g>
</g>
<!-- Node10&#45;&gt;Node12 -->
<g id="edge13" class="edge">
<title>Node10&#45;&gt;Node12</title>
<path fill="none" stroke="#63b8ff" d="M745,-241.6C745,-230.33 745,-210.55 745,-195.56"/>
<polygon fill="#63b8ff" stroke="#63b8ff" points="748.5,-195.9 745,-185.9 741.5,-195.9 748.5,-195.9"/>
</g>
<!-- Node13 -->
<g id="node13" class="node">
<title>Node13</title>
<g id="a_node13"><a xlink:title=" ">
<polygon fill="#e0e0e0" stroke="#999999" points="919.5,-189.5 794.5,-189.5 794.5,-159.5 919.5,-159.5 919.5,-189.5"/>
<text text-anchor="start" x="802.5" y="-177.5" font-family="Helvetica,sans-Serif" font-size="10.00">hd44780ioClass/hd44780</text>
<text text-anchor="middle" x="857" y="-166.5" font-family="Helvetica,sans-Serif" font-size="10.00">_I2Cexp.h</text>
</a>
</g>
</g>
<!-- Node10&#45;&gt;Node13 -->
<g id="edge14" class="edge">
<title>Node10&#45;&gt;Node13</title>
<path fill="none" stroke="#63b8ff" d="M758.29,-241.6C774.94,-230.45 804.01,-210.98 826.31,-196.05"/>
<polygon fill="#63b8ff" stroke="#63b8ff" points="828.08,-199.08 834.44,-190.61 824.18,-193.26 828.08,-199.08"/>
</g>
<!-- Node14 -->
<g id="node14" class="node">
<title>Node14</title>
<g id="a_node14"><a xlink:href="display__settings_8h.html" target="_top" xlink:title="Archivo de configuración de la pantalla.">
<polygon fill="white" stroke="#666666" points="1032.5,-184 937.5,-184 937.5,-165 1032.5,-165 1032.5,-184"/>
<text text-anchor="middle" x="985" y="-172" font-family="Helvetica,sans-Serif" font-size="10.00">display_settings.h</text>
</a>
</g>
</g>
<!-- Node10&#45;&gt;Node14 -->
<g id="edge15" class="edge">
<title>Node10&#45;&gt;Node14</title>
<path fill="none" stroke="#63b8ff" d="M770.91,-241.52C780.9,-238.13 792.45,-234.29 803,-231 858.19,-213.78 872.85,-212.36 928,-195 934.87,-192.84 942.18,-190.42 949.18,-188.05"/>
<polygon fill="#63b8ff" stroke="#63b8ff" points="950.07,-191.45 958.4,-184.9 947.81,-184.82 950.07,-191.45"/>
</g>
<!-- Node10&#45;&gt;Node15 -->
<g id="edge16" class="edge">
<title>Node10&#45;&gt;Node15</title>
<path fill="none" stroke="#63b8ff" d="M768.43,-241.59C778.89,-237.88 791.44,-233.8 803,-231 906.98,-205.86 937.02,-220.14 1041,-195 1048.77,-193.12 1056.98,-190.66 1064.71,-188.13"/>
<polygon fill="#63b8ff" stroke="#63b8ff" points="1065.81,-191.45 1074.14,-184.9 1063.54,-184.83 1065.81,-191.45"/>
</g>
<!-- Node17 -->
<g id="node17" class="node">
<title>Node17</title>
<g id="a_node17"><a xlink:title=" ">
<polygon fill="#e0e0e0" stroke="#999999" points="1728.5,-184 1643.5,-184 1643.5,-165 1728.5,-165 1728.5,-184"/>
<text text-anchor="middle" x="1686" y="-172" font-family="Helvetica,sans-Serif" font-size="10.00">avr/pgmspace.h</text>
</a>
</g>
</g>
<!-- Node16&#45;&gt;Node17 -->
<g id="edge18" class="edge">
<title>Node16&#45;&gt;Node17</title>
<path fill="none" stroke="#63b8ff" d="M1686,-241.6C1686,-230.33 1686,-210.55 1686,-195.56"/>
<polygon fill="#63b8ff" stroke="#63b8ff" points="1689.5,-195.9 1686,-185.9 1682.5,-195.9 1689.5,-195.9"/>
</g>
<!-- Node18&#45;&gt;Node15 -->
<g id="edge21" class="edge">
<title>Node18&#45;&gt;Node15</title>
<path fill="none" stroke="#63b8ff" d="M935.14,-236.04C972.62,-222.19 1028.63,-201.5 1064.49,-188.25"/>
<polygon fill="#63b8ff" stroke="#63b8ff" points="1065.34,-191.67 1073.51,-184.92 1062.92,-185.1 1065.34,-191.67"/>
</g>
<!-- Node19 -->
<g id="node19" class="node">
<title>Node19</title>
<g id="a_node19"><a xlink:title=" ">
<polygon fill="#e0e0e0" stroke="#999999" points="1228.5,-184 1165.5,-184 1165.5,-165 1228.5,-165 1228.5,-184"/>
<text text-anchor="middle" x="1197" y="-172" font-family="Helvetica,sans-Serif" font-size="10.00">OneWire.h</text>
</a>
</g>
</g>
<!-- Node18&#45;&gt;Node19 -->
<g id="edge22" class="edge">
<title>Node18&#45;&gt;Node19</title>
<path fill="none" stroke="#63b8ff" d="M937.36,-236.01C943.24,-234.19 949.25,-232.46 955,-231 1042.97,-208.7 1069.59,-222.74 1156,-195 1160.95,-193.41 1166.06,-191.35 1170.93,-189.16"/>
<polygon fill="#63b8ff" stroke="#63b8ff" points="1172.18,-192.45 1179.68,-184.96 1169.15,-186.14 1172.18,-192.45"/>
</g>
<!-- Node20 -->
<g id="node20" class="node">
<title>Node20</title>
<g id="a_node20"><a xlink:title=" ">
<polygon fill="#e0e0e0" stroke="#999999" points="1353,-184 1247,-184 1247,-165 1353,-165 1353,-184"/>
<text text-anchor="middle" x="1300" y="-172" font-family="Helvetica,sans-Serif" font-size="10.00">DallasTemperature.h</text>
</a>
</g>
</g>
<!-- Node18&#45;&gt;Node20 -->
<g id="edge23" class="edge">
<title>Node18&#45;&gt;Node20</title>
<path fill="none" stroke="#63b8ff" d="M936.34,-236.03C942.53,-234.14 948.9,-232.38 955,-231 1078.22,-203.05 1113.52,-221.78 1237,-195 1245.71,-193.11 1254.96,-190.57 1263.6,-187.94"/>
<polygon fill="#63b8ff" stroke="#63b8ff" points="1264.6,-191.3 1273.08,-184.94 1262.49,-184.62 1264.6,-191.3"/>
</g>
<!-- Node21&#45;&gt;Node22 -->
<g id="edge25" class="edge">
<title>Node21&#45;&gt;Node22</title>
<path fill="none" stroke="#63b8ff" d="M1261.25,-241.54C1285.39,-230.78 1326.87,-212.06 1362,-195 1365.58,-193.26 1369.32,-191.4 1373.01,-189.53"/>
<polygon fill="#63b8ff" stroke="#63b8ff" points="1374.4,-192.76 1381.71,-185.09 1371.21,-186.52 1374.4,-192.76"/>
</g>
<!-- Node24&#45;&gt;Node22 -->
<g id="edge28" class="edge">
<title>Node24&#45;&gt;Node22</title>
<path fill="none" stroke="#63b8ff" d="M1403.53,-241.6C1402.92,-230.33 1401.87,-210.55 1401.07,-195.56"/>
<polygon fill="#63b8ff" stroke="#63b8ff" points="1404.58,-195.7 1400.55,-185.9 1397.59,-196.07 1404.58,-195.7"/>
</g>
<!-- Node25 -->
<g id="node25" class="node">
<title>Node25</title>
<g id="a_node25"><a xlink:href="port__config_8h.html" target="_top" xlink:title="Archivo de configuración para los puertos de la placa donde se implementará el sistema.">
<polygon fill="white" stroke="#666666" points="1525,-184 1453,-184 1453,-165 1525,-165 1525,-184"/>
<text text-anchor="middle" x="1489" y="-172" font-family="Helvetica,sans-Serif" font-size="10.00">port_config.h</text>
</a>
</g>
</g>
<!-- Node24&#45;&gt;Node25 -->
<g id="edge29" class="edge">
<title>Node24&#45;&gt;Node25</title>
<path fill="none" stroke="#63b8ff" d="M1414.08,-241.6C1428.02,-229.31 1453.39,-206.92 1470.71,-191.64"/>
<polygon fill="#63b8ff" stroke="#63b8ff" points="1472.61,-194.63 1477.79,-185.39 1467.98,-189.38 1472.61,-194.63"/>
</g>
<!-- Node26&#45;&gt;Node22 -->
<g id="edge31" class="edge">
<title>Node26&#45;&gt;Node22</title>
<path fill="none" stroke="#63b8ff" d="M1492.54,-241.6C1475.1,-229.14 1443.13,-206.31 1421.72,-191.01"/>
<polygon fill="#63b8ff" stroke="#63b8ff" points="1423.84,-188.23 1413.67,-185.27 1419.78,-193.93 1423.84,-188.23"/>
</g>
<!-- Node26&#45;&gt;Node25 -->
<g id="edge32" class="edge">
<title>Node26&#45;&gt;Node25</title>
<path fill="none" stroke="#63b8ff" d="M1503.1,-241.6C1500.7,-230.33 1496.48,-210.55 1493.28,-195.56"/>
<polygon fill="#63b8ff" stroke="#63b8ff" points="1496.72,-194.92 1491.21,-185.87 1489.88,-196.38 1496.72,-194.92"/>
</g>
<!-- Node27&#45;&gt;Node15 -->
<g id="edge36" class="edge">
<title>Node27&#45;&gt;Node15</title>
<path fill="none" stroke="#63b8ff" d="M1110.46,-241.6C1108.5,-230.33 1105.08,-210.55 1102.48,-195.56"/>
<polygon fill="#63b8ff" stroke="#63b8ff" points="1105.96,-195.13 1100.8,-185.88 1099.06,-196.33 1105.96,-195.13"/>
</g>
<!-- Node27&#45;&gt;Node22 -->
<g id="edge34" class="edge">
<title>Node27&#45;&gt;Node22</title>
<path fill="none" stroke="#63b8ff" d="M1135.19,-241.54C1145.18,-237.91 1157.05,-233.9 1168,-231 1252.76,-208.52 1279,-223.32 1362,-195 1366.38,-193.51 1370.87,-191.59 1375.17,-189.53"/>
<polygon fill="#63b8ff" stroke="#63b8ff" points="1376.65,-192.71 1383.93,-185.02 1373.44,-186.49 1376.65,-192.71"/>
</g>
<!-- Node27&#45;&gt;Node23 -->
<g id="edge35" class="edge">
<title>Node27&#45;&gt;Node23</title>
<path fill="none" stroke="#63b8ff" d="M1133.73,-241.58C1143.96,-237.74 1156.44,-233.54 1168,-231 1327.63,-195.88 1376.95,-240.3 1534,-195 1538.75,-193.63 1543.61,-191.69 1548.21,-189.57"/>
<polygon fill="#63b8ff" stroke="#63b8ff" points="1549.65,-192.76 1556.99,-185.12 1546.48,-186.52 1549.65,-192.76"/>
</g>
<!-- Node28&#45;&gt;Node15 -->
<g id="edge39" class="edge">
<title>Node28&#45;&gt;Node15</title>
<path fill="none" stroke="#63b8ff" d="M1017.03,-241.6C1032.35,-229.25 1060.29,-206.72 1079.25,-191.43"/>
<polygon fill="#63b8ff" stroke="#63b8ff" points="1081.22,-194.34 1086.8,-185.34 1076.82,-188.89 1081.22,-194.34"/>
</g>
<!-- Node28&#45;&gt;Node22 -->
<g id="edge38" class="edge">
<title>Node28&#45;&gt;Node22</title>
<path fill="none" stroke="#63b8ff" d="M1025.57,-241.53C1034.65,-237.72 1045.69,-233.57 1056,-231 1188.87,-197.85 1231,-234.89 1362,-195 1366.63,-193.59 1371.37,-191.63 1375.86,-189.5"/>
<polygon fill="#63b8ff" stroke="#63b8ff" points="1377.12,-192.79 1384.38,-185.07 1373.89,-186.58 1377.12,-192.79"/>
</g>
<!-- Node29&#45;&gt;Node6 -->
<g id="edge41" class="edge">
<title>Node29&#45;&gt;Node6</title>
<path fill="none" stroke="#63b8ff" d="M469.25,-266.87C476.94,-268.65 484.65,-270.41 492,-272 548.86,-284.34 613.99,-296.78 658.82,-305.36"/>
<polygon fill="#63b8ff" stroke="#63b8ff" points="658.08,-308.78 668.56,-307.23 659.4,-301.91 658.08,-308.78"/>
</g>
<!-- Node29&#45;&gt;Node9 -->
<g id="edge42" class="edge">
<title>Node29&#45;&gt;Node9</title>
<path fill="none" stroke="#63b8ff" d="M394.8,-230.61C383.92,-197.11 366.99,-128.08 391,-77 396.16,-66.02 404.68,-56.47 413.94,-48.52"/>
<polygon fill="#63b8ff" stroke="#63b8ff" points="416.09,-51.29 421.78,-42.35 411.76,-45.79 416.09,-51.29"/>
</g>
<!-- Node30 -->
<g id="node30" class="node">
<title>Node30</title>
<g id="a_node30"><a xlink:href="_idle__state_8h.html" target="_top" xlink:title="Clase de estado de reposo.">
<polygon fill="white" stroke="#666666" points="516,-118 400,-118 400,-77 516,-77 516,-118"/>
<text text-anchor="start" x="408" y="-106" font-family="Helvetica,sans-Serif" font-size="10.00">machine_state_pattern</text>
<text text-anchor="start" x="408" y="-95" font-family="Helvetica,sans-Serif" font-size="10.00">/machine_states/Idle</text>
<text text-anchor="middle" x="458" y="-84" font-family="Helvetica,sans-Serif" font-size="10.00">_state.h</text>
</a>
</g>
</g>
<!-- Node29&#45;&gt;Node30 -->
<g id="edge43" class="edge">
<title>Node29&#45;&gt;Node30</title>
<path fill="none" stroke="#63b8ff" d="M408,-230.73C414.08,-211.1 424,-180.22 434,-154 437.14,-145.77 440.79,-136.98 444.29,-128.87"/>
<polygon fill="#63b8ff" stroke="#63b8ff" points="447.48,-130.31 448.3,-119.75 441.07,-127.5 447.48,-130.31"/>
</g>
<!-- Node30&#45;&gt;Node6 -->
<g id="edge44" class="edge">
<title>Node30&#45;&gt;Node6</title>
<path fill="none" stroke="#63b8ff" d="M456.47,-118.18C455.67,-138.29 456.52,-170.02 467,-195 484.32,-236.3 493.95,-248.39 532,-272 569.13,-295.04 617.45,-306.15 654.82,-311.51"/>
<polygon fill="#63b8ff" stroke="#63b8ff" points="654.17,-314.96 664.54,-312.8 655.09,-308.02 654.17,-314.96"/>
</g>
<!-- Node30&#45;&gt;Node9 -->
<g id="edge45" class="edge">
<title>Node30&#45;&gt;Node9</title>
<path fill="none" stroke="#63b8ff" d="M458,-76.79C458,-69.45 458,-60.91 458,-52.78"/>
<polygon fill="#63b8ff" stroke="#63b8ff" points="461.5,-52.85 458,-42.85 454.5,-52.85 461.5,-52.85"/>
</g>
<!-- Node31 -->
<g id="node31" class="node">
<title>Node31</title>
<g id="a_node31"><a xlink:href="_alarm__state_8h.html" target="_top" xlink:title="Clase de estado de control del motor.">
<polygon fill="white" stroke="#666666" points="593.5,-195 476.5,-195 476.5,-154 593.5,-154 593.5,-195"/>
<text text-anchor="start" x="484.5" y="-183" font-family="Helvetica,sans-Serif" font-size="10.00">machine_state_pattern</text>
<text text-anchor="start" x="484.5" y="-172" font-family="Helvetica,sans-Serif" font-size="10.00">/machine_states/Alarm</text>
<text text-anchor="middle" x="535" y="-161" font-family="Helvetica,sans-Serif" font-size="10.00">_state.h</text>
</a>
</g>
</g>
<!-- Node30&#45;&gt;Node31 -->
<g id="edge46" class="edge">
<title>Node30&#45;&gt;Node31</title>
<path fill="none" stroke="#63b8ff" d="M484.4,-118.33C493.74,-126.72 504.1,-136.64 513.04,-145.74"/>
<polygon fill="#63b8ff" stroke="#63b8ff" points="510.29,-147.92 519.74,-152.7 515.33,-143.07 510.29,-147.92"/>
</g>
<!-- Node31&#45;&gt;Node6 -->
<g id="edge47" class="edge">
<title>Node31&#45;&gt;Node6</title>
<path fill="none" stroke="#63b8ff" d="M533.26,-195.18C532.48,-216.79 534.76,-251.19 554,-272 579.61,-299.7 620.92,-310.68 655.01,-314.81"/>
<polygon fill="#63b8ff" stroke="#63b8ff" points="654.45,-318.27 664.76,-315.81 655.16,-311.31 654.45,-318.27"/>
</g>
<!-- Node31&#45;&gt;Node9 -->
<g id="edge48" class="edge">
<title>Node31&#45;&gt;Node9</title>
<path fill="none" stroke="#63b8ff" d="M537.15,-153.75C538.45,-133.31 537.87,-101.06 525,-77 519.11,-65.99 510.03,-56.3 500.45,-48.23"/>
<polygon fill="#63b8ff" stroke="#63b8ff" points="502.8,-45.62 492.77,-42.21 498.48,-51.13 502.8,-45.62"/>
</g>
<!-- Node31&#45;&gt;Node30 -->
<g id="edge49" class="edge">
<title>Node31&#45;&gt;Node30</title>
<path fill="none" stroke="#63b8ff" d="M508.75,-153.79C499.41,-145.42 489.06,-135.51 480.1,-126.4"/>
<polygon fill="#63b8ff" stroke="#63b8ff" points="482.84,-124.2 473.38,-119.42 477.79,-129.06 482.84,-124.2"/>
</g>
<!-- Node32&#45;&gt;Node6 -->
<g id="edge51" class="edge">
<title>Node32&#45;&gt;Node6</title>
<path fill="none" stroke="#63b8ff" d="M657.25,-272.38C670.65,-281.4 685.35,-291.94 696.38,-300.45"/>
<polygon fill="#63b8ff" stroke="#63b8ff" points="694.15,-303.15 704.15,-306.66 698.52,-297.68 694.15,-303.15"/>
</g>
<!-- Node32&#45;&gt;Node9 -->
<g id="edge52" class="edge">
<title>Node32&#45;&gt;Node9</title>
<path fill="none" stroke="#63b8ff" d="M621.14,-230.51C618.7,-210.43 613.33,-178.98 602,-154 584.41,-115.22 576.13,-106.05 545,-77 533.19,-65.99 518.92,-55.85 505.37,-47.33"/>
<polygon fill="#63b8ff" stroke="#63b8ff" points="507.34,-44.43 496.98,-42.22 503.7,-50.41 507.34,-44.43"/>
</g>
<!-- Node32&#45;&gt;Node31 -->
<g id="edge53" class="edge">
<title>Node32&#45;&gt;Node31</title>
<path fill="none" stroke="#63b8ff" d="M599.88,-230.79C589.75,-222.16 577.71,-211.9 566.76,-202.57"/>
<polygon fill="#63b8ff" stroke="#63b8ff" points="569.31,-200.14 559.42,-196.32 564.76,-205.47 569.31,-200.14"/>
</g>
</g>
</svg>
