<?xml version="1.0" encoding="UTF-8" standalone="no"?>
<!DOCTYPE svg PUBLIC "-//W3C//DTD SVG 1.1//EN"
 "http://www.w3.org/Graphics/SVG/1.1/DTD/svg11.dtd">
<!-- Generated by graphviz version 7.0.2 (20221119.0110)
 -->
<!-- Title: Motor::turn_off Pages: 1 -->
<svg width="245pt" height="76pt"
 viewBox="0.00 0.00 245.00 75.50" xmlns="http://www.w3.org/2000/svg" xmlns:xlink="http://www.w3.org/1999/xlink">
<g id="graph0" class="graph" transform="scale(1 1) rotate(0) translate(4 71.5)">
<title>Motor::turn_off</title>
<!-- Node1 -->
<g id="node1" class="node">
<title>Node1</title>
<g id="a_node1"><a xlink:title="Apaga el motor.">
<polygon fill="#999999" stroke="#666666" points="237,-40 158,-40 158,-21 237,-21 237,-40"/>
<text text-anchor="middle" x="197.5" y="-28" font-family="Helvetica,sans-Serif" font-size="10.00">Motor::turn_off</text>
</a>
</g>
</g>
<!-- Node2 -->
<g id="node2" class="node">
<title>Node2</title>
<g id="a_node2"><a xlink:href="class_check__instruction__state.html#ae13ba3789ab274a7dddf19be0a413b55" target="_top" xlink:title="Método que se llama al ingresar al estado.">
<polygon fill="white" stroke="#666666" points="122,-67.5 0,-67.5 0,-37.5 122,-37.5 122,-67.5"/>
<text text-anchor="start" x="8" y="-55.5" font-family="Helvetica,sans-Serif" font-size="10.00">Check_instruction_state</text>
<text text-anchor="middle" x="61" y="-44.5" font-family="Helvetica,sans-Serif" font-size="10.00">::enter</text>
</a>
</g>
</g>
<!-- Node1&#45;&gt;Node2 -->
<g id="edge1" class="edge">
<title>Node1&#45;&gt;Node2</title>
<path fill="none" stroke="#63b8ff" d="M146.41,-38.69C138.57,-39.98 130.39,-41.31 122.36,-42.63"/>
<polygon fill="#63b8ff" stroke="#63b8ff" points="146.8,-42.18 156.1,-37.11 145.67,-35.27 146.8,-42.18"/>
</g>
<!-- Node3 -->
<g id="node3" class="node">
<title>Node3</title>
<g id="a_node3"><a xlink:href="class_shutdown__state.html#a2756e0a67cb9371a3c8d722b2a661efa" target="_top" xlink:title="Entrada al estado, apaga los LEDS, la pantalla y apaga el motor.">
<polygon fill="white" stroke="#666666" points="118,-19 4,-19 4,0 118,0 118,-19"/>
<text text-anchor="middle" x="61" y="-7" font-family="Helvetica,sans-Serif" font-size="10.00">Shutdown_state::enter</text>
</a>
</g>
</g>
<!-- Node1&#45;&gt;Node3 -->
<g id="edge2" class="edge">
<title>Node1&#45;&gt;Node3</title>
<path fill="none" stroke="#63b8ff" d="M146.33,-22.67C137.2,-21.24 127.62,-19.75 118.32,-18.29"/>
<polygon fill="#63b8ff" stroke="#63b8ff" points="145.68,-26.11 156.1,-24.19 146.76,-19.19 145.68,-26.11"/>
</g>
</g>
</svg>
