<?xml version="1.0" encoding="UTF-8" standalone="no"?>
<!DOCTYPE svg PUBLIC "-//W3C//DTD SVG 1.1//EN"
 "http://www.w3.org/Graphics/SVG/1.1/DTD/svg11.dtd">
<!-- Generated by graphviz version 7.0.2 (20221119.0110)
 -->
<!-- Title: Motor_control_state::update Pages: 1 -->
<svg width="403pt" height="150pt"
 viewBox="0.00 0.00 403.00 149.50" xmlns="http://www.w3.org/2000/svg" xmlns:xlink="http://www.w3.org/1999/xlink">
<g id="graph0" class="graph" transform="scale(1 1) rotate(0) translate(4 145.5)">
<title>Motor_control_state::update</title>
<!-- Node1 -->
<g id="node1" class="node">
<title>Node1</title>
<g id="a_node1"><a xlink:title="Actualización, cambia el color del LED según el estado del motor y hace sonar la alarma....">
<polygon fill="#999999" stroke="#666666" points="103,-79.5 0,-79.5 0,-49.5 103,-49.5 103,-79.5"/>
<text text-anchor="start" x="8" y="-67.5" font-family="Helvetica,sans-Serif" font-size="10.00">Motor_control_state</text>
<text text-anchor="middle" x="51.5" y="-56.5" font-family="Helvetica,sans-Serif" font-size="10.00">::update</text>
</a>
</g>
</g>
<!-- Node2 -->
<g id="node2" class="node">
<title>Node2</title>
<g id="a_node2"><a xlink:href="class_control__system.html#ab7912068a11d44b07eef3b3f56ce0598" target="_top" xlink:title="Método virtual puro para que las clases herederas implementen la actualización de observadores.">
<polygon fill="white" stroke="#666666" points="253,-141.5 139,-141.5 139,-111.5 253,-111.5 253,-141.5"/>
<text text-anchor="start" x="147" y="-129.5" font-family="Helvetica,sans-Serif" font-size="10.00">Control_system::notify</text>
<text text-anchor="middle" x="196" y="-118.5" font-family="Helvetica,sans-Serif" font-size="10.00">_observers</text>
</a>
</g>
</g>
<!-- Node1&#45;&gt;Node2 -->
<g id="edge1" class="edge">
<title>Node1&#45;&gt;Node2</title>
<path fill="none" stroke="#63b8ff" d="M87.4,-79.92C103.15,-86.85 122,-95.12 139,-102.5 142.1,-103.85 145.3,-105.23 148.53,-106.62"/>
<polygon fill="#63b8ff" stroke="#63b8ff" points="146.87,-109.72 157.44,-110.46 149.64,-103.29 146.87,-109.72"/>
</g>
<!-- Node3 -->
<g id="node3" class="node">
<title>Node3</title>
<g id="a_node3"><a xlink:href="class_dual___l_e_d.html#ab1cd238e00901ca9556914a38d3a064c" target="_top" xlink:title="Enciende el LED en verde.">
<polygon fill="white" stroke="#666666" points="252,-93 140,-93 140,-74 252,-74 252,-93"/>
<text text-anchor="middle" x="196" y="-81" font-family="Helvetica,sans-Serif" font-size="10.00">Dual_LED::turn_green</text>
</a>
</g>
</g>
<!-- Node1&#45;&gt;Node3 -->
<g id="edge2" class="edge">
<title>Node1&#45;&gt;Node3</title>
<path fill="none" stroke="#63b8ff" d="M103.14,-71.25C111.37,-72.35 120.01,-73.5 128.55,-74.64"/>
<polygon fill="#63b8ff" stroke="#63b8ff" points="127.81,-78.07 138.18,-75.92 128.73,-71.13 127.81,-78.07"/>
</g>
<!-- Node6 -->
<g id="node6" class="node">
<title>Node6</title>
<g id="a_node6"><a xlink:href="class_buzzer.html#a9ba28d9ca8b3dd80541d9a13a8b0f625" target="_top" xlink:title="Enciende el buzzer con con una duración en milisegundos duration, por defecto enciende el buzzer por ...">
<polygon fill="white" stroke="#666666" points="239,-56 153,-56 153,-37 239,-37 239,-56"/>
<text text-anchor="middle" x="196" y="-44" font-family="Helvetica,sans-Serif" font-size="10.00">Buzzer::turn_on</text>
</a>
</g>
</g>
<!-- Node1&#45;&gt;Node6 -->
<g id="edge5" class="edge">
<title>Node1&#45;&gt;Node6</title>
<path fill="none" stroke="#63b8ff" d="M103.14,-58.1C115.51,-56.54 128.79,-54.86 141.3,-53.28"/>
<polygon fill="#63b8ff" stroke="#63b8ff" points="141.54,-56.78 151.02,-52.05 140.66,-49.84 141.54,-56.78"/>
</g>
<!-- Node7 -->
<g id="node7" class="node">
<title>Node7</title>
<g id="a_node7"><a xlink:href="class_display.html#ad2740b779d61e461c4dcaaf34f1fcd8f" target="_top" xlink:title="Actualiza los valores en pantalla con los parámetros previamente fijados. Solo actualiza la pantalla ...">
<polygon fill="white" stroke="#666666" points="238,-19 154,-19 154,0 238,0 238,-19"/>
<text text-anchor="middle" x="196" y="-7" font-family="Helvetica,sans-Serif" font-size="10.00">Display::update</text>
</a>
</g>
</g>
<!-- Node1&#45;&gt;Node7 -->
<g id="edge6" class="edge">
<title>Node1&#45;&gt;Node7</title>
<path fill="none" stroke="#63b8ff" d="M86.3,-49.17C102.16,-42.21 121.4,-34.07 139,-27.5 143.08,-25.98 147.36,-24.46 151.65,-22.99"/>
<polygon fill="#63b8ff" stroke="#63b8ff" points="152.43,-26.42 160.81,-19.94 150.22,-19.78 152.43,-26.42"/>
</g>
<!-- Node4 -->
<g id="node4" class="node">
<title>Node4</title>
<g id="a_node4"><a xlink:href="class_dual___l_e_d.html#aeb163748acf071a1652c56ae1dff9d52" target="_top" xlink:title="Fija el color del led, no enciende el led,.">
<polygon fill="white" stroke="#666666" points="395,-111 289,-111 289,-92 395,-92 395,-111"/>
<text text-anchor="middle" x="342" y="-99" font-family="Helvetica,sans-Serif" font-size="10.00">Dual_LED::set_color</text>
</a>
</g>
</g>
<!-- Node3&#45;&gt;Node4 -->
<g id="edge3" class="edge">
<title>Node3&#45;&gt;Node4</title>
<path fill="none" stroke="#63b8ff" d="M252.26,-90.41C260.55,-91.44 269.15,-92.52 277.59,-93.57"/>
<polygon fill="#63b8ff" stroke="#63b8ff" points="277.1,-97.04 287.46,-94.81 277.97,-90.09 277.1,-97.04"/>
</g>
<!-- Node5 -->
<g id="node5" class="node">
<title>Node5</title>
<g id="a_node5"><a xlink:href="class_dual___l_e_d.html#a8b13294b883897eb83f91bf90a3a11cd" target="_top" xlink:title="Enciende el LED en el color actual.">
<polygon fill="white" stroke="#666666" points="391,-74 293,-74 293,-55 391,-55 391,-74"/>
<text text-anchor="middle" x="342" y="-62" font-family="Helvetica,sans-Serif" font-size="10.00">Dual_LED::turn_on</text>
</a>
</g>
</g>
<!-- Node3&#45;&gt;Node5 -->
<g id="edge4" class="edge">
<title>Node3&#45;&gt;Node5</title>
<path fill="none" stroke="#63b8ff" d="M252.26,-76.21C261.84,-74.94 271.83,-73.63 281.52,-72.35"/>
<polygon fill="#63b8ff" stroke="#63b8ff" points="281.74,-75.85 291.2,-71.07 280.83,-68.91 281.74,-75.85"/>
</g>
</g>
</svg>
