<?xml version="1.0" encoding="UTF-8" standalone="no"?>
<!DOCTYPE svg PUBLIC "-//W3C//DTD SVG 1.1//EN"
 "http://www.w3.org/Graphics/SVG/1.1/DTD/svg11.dtd">
<!-- Generated by graphviz version 7.0.2 (20221119.0110)
 -->
<!-- Title: Shutdown_state::exit Pages: 1 -->
<svg width="544pt" height="156pt"
 viewBox="0.00 0.00 544.00 156.00" xmlns="http://www.w3.org/2000/svg" xmlns:xlink="http://www.w3.org/1999/xlink">
<g id="graph0" class="graph" transform="scale(1 1) rotate(0) translate(4 152)">
<title>Shutdown_state::exit</title>
<!-- Node1 -->
<g id="node1" class="node">
<title>Node1</title>
<g id="a_node1"><a xlink:title="Salida del estado, resetea las variables del sistema e incializa la pantalla.">
<polygon fill="#999999" stroke="#666666" points="108,-110 0,-110 0,-91 108,-91 108,-110"/>
<text text-anchor="middle" x="54" y="-98" font-family="Helvetica,sans-Serif" font-size="10.00">Shutdown_state::exit</text>
</a>
</g>
</g>
<!-- Node2 -->
<g id="node2" class="node">
<title>Node2</title>
<g id="a_node2"><a xlink:href="class_control__system.html#aad36c88c9e5589336213848de7837091" target="_top" xlink:title="Inicializa el display lcd del sistema.">
<polygon fill="white" stroke="#666666" points="252.5,-145.5 148.5,-145.5 148.5,-115.5 252.5,-115.5 252.5,-145.5"/>
<text text-anchor="start" x="156.5" y="-133.5" font-family="Helvetica,sans-Serif" font-size="10.00">Control_system::init</text>
<text text-anchor="middle" x="200.5" y="-122.5" font-family="Helvetica,sans-Serif" font-size="10.00">_display</text>
</a>
</g>
</g>
<!-- Node1&#45;&gt;Node2 -->
<g id="edge1" class="edge">
<title>Node1&#45;&gt;Node2</title>
<path fill="none" stroke="#63b8ff" d="M103.12,-110.49C113.95,-112.74 125.61,-115.16 136.94,-117.51"/>
<polygon fill="#63b8ff" stroke="#63b8ff" points="136.14,-120.92 146.64,-119.53 137.56,-114.07 136.14,-120.92"/>
</g>
<!-- Node4 -->
<g id="node4" class="node">
<title>Node4</title>
<g id="a_node4"><a xlink:href="class_control__system.html#a4704fee6ca6fe180a5dc292315ec3b31" target="_top" xlink:title="Apaga todos los periféricos a excepción del display. Asigna false a solictudes de alarma,...">
<polygon fill="white" stroke="#666666" points="257,-89 144,-89 144,-70 257,-70 257,-89"/>
<text text-anchor="middle" x="200.5" y="-77" font-family="Helvetica,sans-Serif" font-size="10.00">Control_system::reset</text>
</a>
</g>
</g>
<!-- Node1&#45;&gt;Node4 -->
<g id="edge3" class="edge">
<title>Node1&#45;&gt;Node4</title>
<path fill="none" stroke="#63b8ff" d="M108.4,-92.74C116.26,-91.6 124.45,-90.41 132.55,-89.23"/>
<polygon fill="#63b8ff" stroke="#63b8ff" points="133.01,-92.7 142.41,-87.8 132.01,-85.77 133.01,-92.7"/>
</g>
<!-- Node3 -->
<g id="node3" class="node">
<title>Node3</title>
<g id="a_node3"><a xlink:href="class_display.html#aacbf91b9f8c57fc2cb892c45fd44e655" target="_top" xlink:title="Método para inicializar el objeto, sólo se puede luego o en setup().">
<polygon fill="white" stroke="#666666" points="377.5,-148 309.5,-148 309.5,-129 377.5,-129 377.5,-148"/>
<text text-anchor="middle" x="343.5" y="-136" font-family="Helvetica,sans-Serif" font-size="10.00">Display::init</text>
</a>
</g>
</g>
<!-- Node2&#45;&gt;Node3 -->
<g id="edge2" class="edge">
<title>Node2&#45;&gt;Node3</title>
<path fill="none" stroke="#63b8ff" d="M252.8,-133.41C267.59,-134.25 283.6,-135.16 297.94,-135.97"/>
<polygon fill="#63b8ff" stroke="#63b8ff" points="297.34,-139.44 307.52,-136.52 297.73,-132.45 297.34,-139.44"/>
</g>
<!-- Node5 -->
<g id="node5" class="node">
<title>Node5</title>
<g id="a_node5"><a xlink:href="class_cooler.html#a3aa26bc227fa7a2bdcff9fe607990104" target="_top" xlink:title="Apaga el ventilador.">
<polygon fill="white" stroke="#666666" points="384.5,-111 302.5,-111 302.5,-92 384.5,-92 384.5,-111"/>
<text text-anchor="middle" x="343.5" y="-99" font-family="Helvetica,sans-Serif" font-size="10.00">Cooler::turn_off</text>
</a>
</g>
</g>
<!-- Node4&#45;&gt;Node5 -->
<g id="edge4" class="edge">
<title>Node4&#45;&gt;Node5</title>
<path fill="none" stroke="#63b8ff" d="M257.23,-88.19C268.42,-89.94 280.14,-91.77 291.18,-93.49"/>
<polygon fill="#63b8ff" stroke="#63b8ff" points="290.47,-96.92 300.89,-95.01 291.55,-90.01 290.47,-96.92"/>
</g>
<!-- Node6 -->
<g id="node6" class="node">
<title>Node6</title>
<g id="a_node6"><a xlink:href="class_dual___l_e_d.html#a4226b64f8b1c00f3e4c649a8be2e64c9" target="_top" xlink:title="Apaga el LED.">
<polygon fill="white" stroke="#666666" points="392.5,-74 294.5,-74 294.5,-55 392.5,-55 392.5,-74"/>
<text text-anchor="middle" x="343.5" y="-62" font-family="Helvetica,sans-Serif" font-size="10.00">Dual_LED::turn_off</text>
</a>
</g>
</g>
<!-- Node4&#45;&gt;Node6 -->
<g id="edge5" class="edge">
<title>Node4&#45;&gt;Node6</title>
<path fill="none" stroke="#63b8ff" d="M257.23,-73.57C265.59,-72.68 274.24,-71.76 282.68,-70.86"/>
<polygon fill="#63b8ff" stroke="#63b8ff" points="282.94,-74.36 292.51,-69.82 282.2,-67.4 282.94,-74.36"/>
</g>
<!-- Node7 -->
<g id="node7" class="node">
<title>Node7</title>
<g id="a_node7"><a xlink:href="class_dual___l_e_d.html#a8734a816df04661d86e3ccbf88159eb0" target="_top" xlink:title="Enciende el LED en rojo.">
<polygon fill="white" stroke="#666666" points="394,-37 293,-37 293,-18 394,-18 394,-37"/>
<text text-anchor="middle" x="343.5" y="-25" font-family="Helvetica,sans-Serif" font-size="10.00">Dual_LED::turn_red</text>
</a>
</g>
</g>
<!-- Node4&#45;&gt;Node7 -->
<g id="edge6" class="edge">
<title>Node4&#45;&gt;Node7</title>
<path fill="none" stroke="#63b8ff" d="M227.91,-69.63C246.18,-62.82 271.05,-53.57 293,-45.5 296.67,-44.15 300.5,-42.75 304.33,-41.35"/>
<polygon fill="#63b8ff" stroke="#63b8ff" points="305.38,-44.69 313.57,-37.98 302.98,-38.12 305.38,-44.69"/>
</g>
<!-- Node8 -->
<g id="node8" class="node">
<title>Node8</title>
<g id="a_node8"><a xlink:href="class_dual___l_e_d.html#aeb163748acf071a1652c56ae1dff9d52" target="_top" xlink:title="Fija el color del led, no enciende el led,.">
<polygon fill="white" stroke="#666666" points="536,-56 430,-56 430,-37 536,-37 536,-56"/>
<text text-anchor="middle" x="483" y="-44" font-family="Helvetica,sans-Serif" font-size="10.00">Dual_LED::set_color</text>
</a>
</g>
</g>
<!-- Node7&#45;&gt;Node8 -->
<g id="edge7" class="edge">
<title>Node7&#45;&gt;Node8</title>
<path fill="none" stroke="#63b8ff" d="M394.14,-34.36C401.98,-35.44 410.19,-36.58 418.3,-37.7"/>
<polygon fill="#63b8ff" stroke="#63b8ff" points="417.77,-41.16 428.15,-39.06 418.72,-34.22 417.77,-41.16"/>
</g>
<!-- Node9 -->
<g id="node9" class="node">
<title>Node9</title>
<g id="a_node9"><a xlink:href="class_dual___l_e_d.html#a8b13294b883897eb83f91bf90a3a11cd" target="_top" xlink:title="Enciende el LED en el color actual.">
<polygon fill="white" stroke="#666666" points="532,-19 434,-19 434,0 532,0 532,-19"/>
<text text-anchor="middle" x="483" y="-7" font-family="Helvetica,sans-Serif" font-size="10.00">Dual_LED::turn_on</text>
</a>
</g>
</g>
<!-- Node7&#45;&gt;Node9 -->
<g id="edge8" class="edge">
<title>Node7&#45;&gt;Node9</title>
<path fill="none" stroke="#63b8ff" d="M394.14,-21C403.33,-19.8 413.01,-18.53 422.46,-17.29"/>
<polygon fill="#63b8ff" stroke="#63b8ff" points="422.85,-20.77 432.31,-16 421.94,-13.83 422.85,-20.77"/>
</g>
</g>
</svg>
