<?xml version="1.0" encoding="UTF-8" standalone="no"?>
<!DOCTYPE svg PUBLIC "-//W3C//DTD SVG 1.1//EN"
 "http://www.w3.org/Graphics/SVG/1.1/DTD/svg11.dtd">
<!-- Generated by graphviz version 7.0.2 (20221119.0110)
 -->
<!-- Title: Temperature_observer::update Pages: 1 -->
<svg width="425pt" height="230pt"
 viewBox="0.00 0.00 425.00 230.00" xmlns="http://www.w3.org/2000/svg" xmlns:xlink="http://www.w3.org/1999/xlink">
<g id="graph0" class="graph" transform="scale(1 1) rotate(0) translate(4 226)">
<title>Temperature_observer::update</title>
<!-- Node1 -->
<g id="node1" class="node">
<title>Node1</title>
<g id="a_node1"><a xlink:title="Actualización del observador, mide la temperatura: si excede el umbral OVERTEMP_ALARM_TRESHOLD,...">
<polygon fill="#999999" stroke="#666666" points="112,-126 0,-126 0,-96 112,-96 112,-126"/>
<text text-anchor="start" x="8" y="-114" font-family="Helvetica,sans-Serif" font-size="10.00">Temperature_observer</text>
<text text-anchor="middle" x="56" y="-103" font-family="Helvetica,sans-Serif" font-size="10.00">::update</text>
</a>
</g>
</g>
<!-- Node2 -->
<g id="node2" class="node">
<title>Node2</title>
<g id="a_node2"><a xlink:href="class_control__system.html#af7e1048dcc938de30589f961d0b14ee1" target="_top" xlink:title="Devuelve el estado del indicador de muestreo de sensores.">
<polygon fill="white" stroke="#666666" points="274.5,-222 149.5,-222 149.5,-192 274.5,-192 274.5,-222"/>
<text text-anchor="start" x="157.5" y="-210" font-family="Helvetica,sans-Serif" font-size="10.00">Control_system::is</text>
<text text-anchor="middle" x="212" y="-199" font-family="Helvetica,sans-Serif" font-size="10.00">_poll_sensors_requested</text>
</a>
</g>
</g>
<!-- Node1&#45;&gt;Node2 -->
<g id="edge1" class="edge">
<title>Node1&#45;&gt;Node2</title>
<path fill="none" stroke="#63b8ff" d="M73.32,-126.47C90.72,-142.33 119.62,-166.88 148,-183 150.32,-184.32 152.72,-185.59 155.18,-186.82"/>
<polygon fill="#63b8ff" stroke="#63b8ff" points="153.57,-189.93 164.12,-190.95 156.51,-183.57 153.57,-189.93"/>
</g>
<!-- Node3 -->
<g id="node3" class="node">
<title>Node3</title>
<g id="a_node3"><a xlink:href="class_control__system.html#a4c3ebc85aafb8c9b8c0d7554bc7d6058" target="_top" xlink:title="Obtiene la temperatura del objeto temp_sensor.">
<polygon fill="white" stroke="#666666" points="276,-174 148,-174 148,-144 276,-144 276,-174"/>
<text text-anchor="start" x="156" y="-162" font-family="Helvetica,sans-Serif" font-size="10.00">Control_system::measure</text>
<text text-anchor="middle" x="212" y="-151" font-family="Helvetica,sans-Serif" font-size="10.00">_temperature</text>
</a>
</g>
</g>
<!-- Node1&#45;&gt;Node3 -->
<g id="edge2" class="edge">
<title>Node1&#45;&gt;Node3</title>
<path fill="none" stroke="#63b8ff" d="M106.57,-126.45C120.59,-130.82 136,-135.62 150.57,-140.17"/>
<polygon fill="#63b8ff" stroke="#63b8ff" points="149.49,-143.49 160.07,-143.13 151.57,-136.81 149.49,-143.49"/>
</g>
<!-- Node6 -->
<g id="node6" class="node">
<title>Node6</title>
<g id="a_node6"><a xlink:href="class_control__system.html#af5985ea3ad848a1631ff6c12ef4b3941" target="_top" xlink:title="Solicita una alarma.">
<polygon fill="white" stroke="#666666" points="273.5,-126 150.5,-126 150.5,-96 273.5,-96 273.5,-126"/>
<text text-anchor="start" x="158.5" y="-114" font-family="Helvetica,sans-Serif" font-size="10.00">Control_system::request</text>
<text text-anchor="middle" x="212" y="-103" font-family="Helvetica,sans-Serif" font-size="10.00">_alarm</text>
</a>
</g>
</g>
<!-- Node1&#45;&gt;Node6 -->
<g id="edge5" class="edge">
<title>Node1&#45;&gt;Node6</title>
<path fill="none" stroke="#63b8ff" d="M112.16,-111C120.84,-111 129.92,-111 138.91,-111"/>
<polygon fill="#63b8ff" stroke="#63b8ff" points="138.7,-114.5 148.7,-111 138.7,-107.5 138.7,-114.5"/>
</g>
<!-- Node7 -->
<g id="node7" class="node">
<title>Node7</title>
<g id="a_node7"><a xlink:href="class_control__system.html#a331f6ac8aca48fcc0b7cd23a3510911c" target="_top" xlink:title="Solicita una advertencia.">
<polygon fill="white" stroke="#666666" points="273.5,-78 150.5,-78 150.5,-48 273.5,-48 273.5,-78"/>
<text text-anchor="start" x="158.5" y="-66" font-family="Helvetica,sans-Serif" font-size="10.00">Control_system::request</text>
<text text-anchor="middle" x="212" y="-55" font-family="Helvetica,sans-Serif" font-size="10.00">_warning</text>
</a>
</g>
</g>
<!-- Node1&#45;&gt;Node7 -->
<g id="edge6" class="edge">
<title>Node1&#45;&gt;Node7</title>
<path fill="none" stroke="#63b8ff" d="M106.57,-95.55C120.59,-91.18 136,-86.38 150.57,-81.83"/>
<polygon fill="#63b8ff" stroke="#63b8ff" points="151.57,-85.19 160.07,-78.87 149.49,-78.51 151.57,-85.19"/>
</g>
<!-- Node8 -->
<g id="node8" class="node">
<title>Node8</title>
<g id="a_node8"><a xlink:href="class_control__system.html#a2d34912d34a642c819356bf566612686" target="_top" xlink:title="Fija el valor del indicador de advertencia.">
<polygon fill="white" stroke="#666666" points="264,-30 160,-30 160,0 264,0 264,-30"/>
<text text-anchor="start" x="168" y="-18" font-family="Helvetica,sans-Serif" font-size="10.00">Control_system::set</text>
<text text-anchor="middle" x="212" y="-7" font-family="Helvetica,sans-Serif" font-size="10.00">_warning_flag</text>
</a>
</g>
</g>
<!-- Node1&#45;&gt;Node8 -->
<g id="edge7" class="edge">
<title>Node1&#45;&gt;Node8</title>
<path fill="none" stroke="#63b8ff" d="M73.32,-95.53C90.72,-79.67 119.62,-55.12 148,-39 150.32,-37.68 152.72,-36.41 155.18,-35.18"/>
<polygon fill="#63b8ff" stroke="#63b8ff" points="156.51,-38.43 164.12,-31.05 153.57,-32.07 156.51,-38.43"/>
</g>
<!-- Node4 -->
<g id="node4" class="node">
<title>Node4</title>
<g id="a_node4"><a xlink:href="class_temperature__sensor.html#a43bcc39aa92d0bdb58defd6e4aefb3d5" target="_top" xlink:title="Obtiene la Temperatura de todos los sensores como un promedio simple (Celsius).">
<polygon fill="white" stroke="#666666" points="417,-195 312,-195 312,-165 417,-165 417,-195"/>
<text text-anchor="start" x="320" y="-183" font-family="Helvetica,sans-Serif" font-size="10.00">Temperature_sensor</text>
<text text-anchor="middle" x="364.5" y="-172" font-family="Helvetica,sans-Serif" font-size="10.00">::get_reading</text>
</a>
</g>
</g>
<!-- Node3&#45;&gt;Node4 -->
<g id="edge3" class="edge">
<title>Node3&#45;&gt;Node4</title>
<path fill="none" stroke="#63b8ff" d="M276.39,-167.85C284.27,-168.94 292.33,-170.07 300.21,-171.17"/>
<polygon fill="#63b8ff" stroke="#63b8ff" points="299.69,-174.63 310.08,-172.55 300.66,-167.7 299.69,-174.63"/>
</g>
<!-- Node5 -->
<g id="node5" class="node">
<title>Node5</title>
<g id="a_node5"><a xlink:href="class_display.html#abe8e63e4def12a48cde5679ce008f402" target="_top" xlink:title="Fija el valor de temperatura a actualizar (no la imprime en pantalla), la ubicación se da con las con...">
<polygon fill="white" stroke="#666666" points="412,-146.5 317,-146.5 317,-127.5 412,-127.5 412,-146.5"/>
<text text-anchor="middle" x="364.5" y="-134.5" font-family="Helvetica,sans-Serif" font-size="10.00">Display::set_temp</text>
</a>
</g>
</g>
<!-- Node3&#45;&gt;Node5 -->
<g id="edge4" class="edge">
<title>Node3&#45;&gt;Node5</title>
<path fill="none" stroke="#63b8ff" d="M276.39,-149.73C285.98,-148.33 295.84,-146.89 305.32,-145.5"/>
<polygon fill="#63b8ff" stroke="#63b8ff" points="305.76,-148.98 315.15,-144.07 304.75,-142.05 305.76,-148.98"/>
</g>
</g>
</svg>
