<?xml version="1.0" encoding="UTF-8" standalone="no"?>
<!DOCTYPE svg PUBLIC "-//W3C//DTD SVG 1.1//EN"
 "http://www.w3.org/Graphics/SVG/1.1/DTD/svg11.dtd">
<!-- Generated by graphviz version 7.0.2 (20221119.0110)
 -->
<!-- Title: Display::init Pages: 1 -->
<svg width="528pt" height="38pt"
 viewBox="0.00 0.00 528.00 38.00" xmlns="http://www.w3.org/2000/svg" xmlns:xlink="http://www.w3.org/1999/xlink">
<g id="graph0" class="graph" transform="scale(1 1) rotate(0) translate(4 34)">
<title>Display::init</title>
<!-- Node1 -->
<g id="node1" class="node">
<title>Node1</title>
<g id="a_node1"><a xlink:title="Método para inicializar el objeto, sólo se puede luego o en setup().">
<polygon fill="#999999" stroke="#666666" points="520,-24.5 452,-24.5 452,-5.5 520,-5.5 520,-24.5"/>
<text text-anchor="middle" x="486" y="-12.5" font-family="Helvetica,sans-Serif" font-size="10.00">Display::init</text>
</a>
</g>
</g>
<!-- Node2 -->
<g id="node2" class="node">
<title>Node2</title>
<g id="a_node2"><a xlink:href="class_control__system.html#aad36c88c9e5589336213848de7837091" target="_top" xlink:title="Inicializa el display lcd del sistema.">
<polygon fill="white" stroke="#666666" points="416,-30 312,-30 312,0 416,0 416,-30"/>
<text text-anchor="start" x="320" y="-18" font-family="Helvetica,sans-Serif" font-size="10.00">Control_system::init</text>
<text text-anchor="middle" x="364" y="-7" font-family="Helvetica,sans-Serif" font-size="10.00">_display</text>
</a>
</g>
</g>
<!-- Node1&#45;&gt;Node2 -->
<g id="edge1" class="edge">
<title>Node1&#45;&gt;Node2</title>
<path fill="none" stroke="#63b8ff" d="M440.1,-15C432.31,-15 424.16,-15 416.21,-15"/>
<polygon fill="#63b8ff" stroke="#63b8ff" points="440.06,-18.5 450.06,-15 440.06,-11.5 440.06,-18.5"/>
</g>
<!-- Node3 -->
<g id="node3" class="node">
<title>Node3</title>
<g id="a_node3"><a xlink:href="class_shutdown__state.html#accbc4c856709e26453e2e23c5c1e4f8e" target="_top" xlink:title="Salida del estado, resetea las variables del sistema e incializa la pantalla.">
<polygon fill="white" stroke="#666666" points="276,-24.5 168,-24.5 168,-5.5 276,-5.5 276,-24.5"/>
<text text-anchor="middle" x="222" y="-12.5" font-family="Helvetica,sans-Serif" font-size="10.00">Shutdown_state::exit</text>
</a>
</g>
</g>
<!-- Node2&#45;&gt;Node3 -->
<g id="edge2" class="edge">
<title>Node2&#45;&gt;Node3</title>
<path fill="none" stroke="#63b8ff" d="M300.39,-15C292.31,-15 284.11,-15 276.21,-15"/>
<polygon fill="#63b8ff" stroke="#63b8ff" points="300.15,-18.5 310.15,-15 300.15,-11.5 300.15,-18.5"/>
</g>
<!-- Node4 -->
<g id="node4" class="node">
<title>Node4</title>
<g id="a_node4"><a xlink:href="class_shutdown__state.html#ae02b2fd80173aa50afcd73faba01b9be" target="_top" xlink:title="Transicion de estados.">
<polygon fill="white" stroke="#666666" points="132,-24.5 0,-24.5 0,-5.5 132,-5.5 132,-24.5"/>
<text text-anchor="middle" x="66" y="-12.5" font-family="Helvetica,sans-Serif" font-size="10.00">Shutdown_state::transition</text>
</a>
</g>
</g>
<!-- Node3&#45;&gt;Node4 -->
<g id="edge3" class="edge">
<title>Node3&#45;&gt;Node4</title>
<path fill="none" stroke="#63b8ff" d="M156.16,-15C148.26,-15 140.19,-15 132.28,-15"/>
<polygon fill="#63b8ff" stroke="#63b8ff" points="156.06,-18.5 166.06,-15 156.06,-11.5 156.06,-18.5"/>
</g>
</g>
</svg>
