<?xml version="1.0" encoding="UTF-8" standalone="no"?>
<!DOCTYPE svg PUBLIC "-//W3C//DTD SVG 1.1//EN"
 "http://www.w3.org/Graphics/SVG/1.1/DTD/svg11.dtd">
<!-- Generated by graphviz version 7.0.2 (20221119.0110)
 -->
<!-- Title: Control_system::is_poll_sensors_requested Pages: 1 -->
<svg width="290pt" height="124pt"
 viewBox="0.00 0.00 290.00 123.50" xmlns="http://www.w3.org/2000/svg" xmlns:xlink="http://www.w3.org/1999/xlink">
<g id="graph0" class="graph" transform="scale(1 1) rotate(0) translate(4 119.5)">
<title>Control_system::is_poll_sensors_requested</title>
<!-- Node1 -->
<g id="node1" class="node">
<title>Node1</title>
<g id="a_node1"><a xlink:title="Devuelve el estado del indicador de muestreo de sensores.">
<polygon fill="#999999" stroke="#666666" points="282,-78 157,-78 157,-48 282,-48 282,-78"/>
<text text-anchor="start" x="165" y="-66" font-family="Helvetica,sans-Serif" font-size="10.00">Control_system::is</text>
<text text-anchor="middle" x="219.5" y="-55" font-family="Helvetica,sans-Serif" font-size="10.00">_poll_sensors_requested</text>
</a>
</g>
</g>
<!-- Node2 -->
<g id="node2" class="node">
<title>Node2</title>
<g id="a_node2"><a xlink:href="class_cooler__observer.html#aca9bdbbc11981c1ec178090622caaee4" target="_top" xlink:title="Si el indicador de próximo paso del usuario está activo y el acceso a la próxima instrucción no esté ...">
<polygon fill="white" stroke="#666666" points="121,-115.5 0,-115.5 0,-96.5 121,-96.5 121,-115.5"/>
<text text-anchor="middle" x="60.5" y="-103.5" font-family="Helvetica,sans-Serif" font-size="10.00">Cooler_observer::update</text>
</a>
</g>
</g>
<!-- Node1&#45;&gt;Node2 -->
<g id="edge1" class="edge">
<title>Node1&#45;&gt;Node2</title>
<path fill="none" stroke="#63b8ff" d="M151.27,-81.41C132.9,-86.44 113.69,-91.71 97.77,-96.06"/>
<polygon fill="#63b8ff" stroke="#63b8ff" points="152.08,-84.82 160.8,-78.8 150.23,-78.07 152.08,-84.82"/>
</g>
<!-- Node3 -->
<g id="node3" class="node">
<title>Node3</title>
<g id="a_node3"><a xlink:href="class_moisture__observer.html#a84cf4888942ad6ce66a9baaf337d9994" target="_top" xlink:title="Actualización del observador, mide la humedad y, si excede el umbral MOISTURE_ALARM_THRESHOLD,...">
<polygon fill="white" stroke="#666666" points="111,-78 10,-78 10,-48 111,-48 111,-78"/>
<text text-anchor="start" x="18" y="-66" font-family="Helvetica,sans-Serif" font-size="10.00">Moisture_observer::</text>
<text text-anchor="middle" x="60.5" y="-55" font-family="Helvetica,sans-Serif" font-size="10.00">update</text>
</a>
</g>
</g>
<!-- Node1&#45;&gt;Node3 -->
<g id="edge2" class="edge">
<title>Node1&#45;&gt;Node3</title>
<path fill="none" stroke="#63b8ff" d="M145.43,-63C133.88,-63 122.16,-63 111.3,-63"/>
<polygon fill="#63b8ff" stroke="#63b8ff" points="145.39,-66.5 155.39,-63 145.39,-59.5 145.39,-66.5"/>
</g>
<!-- Node4 -->
<g id="node4" class="node">
<title>Node4</title>
<g id="a_node4"><a xlink:href="class_temperature__observer.html#ab90488fcff2880baae583cfe7aefb3d8" target="_top" xlink:title="Actualización del observador, mide la temperatura: si excede el umbral OVERTEMP_ALARM_TRESHOLD,...">
<polygon fill="white" stroke="#666666" points="116.5,-30 4.5,-30 4.5,0 116.5,0 116.5,-30"/>
<text text-anchor="start" x="12.5" y="-18" font-family="Helvetica,sans-Serif" font-size="10.00">Temperature_observer</text>
<text text-anchor="middle" x="60.5" y="-7" font-family="Helvetica,sans-Serif" font-size="10.00">::update</text>
</a>
</g>
</g>
<!-- Node1&#45;&gt;Node4 -->
<g id="edge3" class="edge">
<title>Node1&#45;&gt;Node4</title>
<path fill="none" stroke="#63b8ff" d="M157.23,-44.27C142.24,-39.68 126.37,-34.83 111.95,-30.42"/>
<polygon fill="#63b8ff" stroke="#63b8ff" points="155.93,-47.53 166.51,-47.11 157.97,-40.83 155.93,-47.53"/>
</g>
</g>
</svg>
