<?xml version="1.0" encoding="UTF-8" standalone="no"?>
<!DOCTYPE svg PUBLIC "-//W3C//DTD SVG 1.1//EN"
 "http://www.w3.org/Graphics/SVG/1.1/DTD/svg11.dtd">
<!-- Generated by graphviz version 7.0.2 (20221119.0110)
 -->
<!-- Title: Buzzer::turn_off Pages: 1 -->
<svg width="548pt" height="139pt"
 viewBox="0.00 0.00 548.00 139.00" xmlns="http://www.w3.org/2000/svg" xmlns:xlink="http://www.w3.org/1999/xlink">
<g id="graph0" class="graph" transform="scale(1 1) rotate(0) translate(4 135)">
<title>Buzzer::turn_off</title>
<!-- Node1 -->
<g id="node1" class="node">
<title>Node1</title>
<g id="a_node1"><a xlink:title="Apaga el buzzer.">
<polygon fill="#999999" stroke="#666666" points="540,-93 455,-93 455,-74 540,-74 540,-93"/>
<text text-anchor="middle" x="497.5" y="-81" font-family="Helvetica,sans-Serif" font-size="10.00">Buzzer::turn_off</text>
</a>
</g>
</g>
<!-- Node2 -->
<g id="node2" class="node">
<title>Node2</title>
<g id="a_node2"><a xlink:href="class_alarm__state.html#acf39d27a3ccd1c25ade55e08918650f8" target="_top" xlink:title="Salida del estado, apaga LEDs y Buzzer.">
<polygon fill="white" stroke="#666666" points="419,-131 328,-131 328,-112 419,-112 419,-131"/>
<text text-anchor="middle" x="373.5" y="-119" font-family="Helvetica,sans-Serif" font-size="10.00">Alarm_state::exit</text>
</a>
</g>
</g>
<!-- Node1&#45;&gt;Node2 -->
<g id="edge1" class="edge">
<title>Node1&#45;&gt;Node2</title>
<path fill="none" stroke="#63b8ff" d="M453.51,-96.89C437.98,-101.73 420.74,-107.1 406.34,-111.58"/>
<polygon fill="#63b8ff" stroke="#63b8ff" points="454.49,-100.25 463,-93.93 452.41,-93.57 454.49,-100.25"/>
</g>
<!-- Node4 -->
<g id="node4" class="node">
<title>Node4</title>
<g id="a_node4"><a xlink:href="class_buzzer.html#a7d0275af89ab487903752edc29a5bf2c" target="_top" xlink:title="Permuta el estado del led, si estaba encendido pasará a apagado y viceversa.">
<polygon fill="white" stroke="#666666" points="265,-93 185,-93 185,-74 265,-74 265,-93"/>
<text text-anchor="middle" x="225" y="-81" font-family="Helvetica,sans-Serif" font-size="10.00">Buzzer::toggle</text>
</a>
</g>
</g>
<!-- Node1&#45;&gt;Node4 -->
<g id="edge3" class="edge">
<title>Node1&#45;&gt;Node4</title>
<path fill="none" stroke="#63b8ff" d="M443.14,-83.5C390.83,-83.5 312.33,-83.5 265.43,-83.5"/>
<polygon fill="#63b8ff" stroke="#63b8ff" points="443.02,-87 453.02,-83.5 443.02,-80 443.02,-87"/>
</g>
<!-- Node5 -->
<g id="node5" class="node">
<title>Node5</title>
<g id="a_node5"><a xlink:href="class_buzzer.html#a9ba28d9ca8b3dd80541d9a13a8b0f625" target="_top" xlink:title="Enciende el buzzer con con una duración en milisegundos duration, por defecto enciende el buzzer por ...">
<polygon fill="white" stroke="#666666" points="416.5,-55 330.5,-55 330.5,-36 416.5,-36 416.5,-55"/>
<text text-anchor="middle" x="373.5" y="-43" font-family="Helvetica,sans-Serif" font-size="10.00">Buzzer::turn_on</text>
</a>
</g>
</g>
<!-- Node1&#45;&gt;Node5 -->
<g id="edge4" class="edge">
<title>Node1&#45;&gt;Node5</title>
<path fill="none" stroke="#63b8ff" d="M453.51,-70.11C437.98,-65.27 420.74,-59.9 406.34,-55.42"/>
<polygon fill="#63b8ff" stroke="#63b8ff" points="452.41,-73.43 463,-73.07 454.49,-66.75 452.41,-73.43"/>
</g>
<!-- Node3 -->
<g id="node3" class="node">
<title>Node3</title>
<g id="a_node3"><a xlink:href="class_alarm__state.html#adb40defa4c50d289290b44b2a4f41189" target="_top" xlink:title="Transición de estados.">
<polygon fill="white" stroke="#666666" points="282.5,-131 167.5,-131 167.5,-112 282.5,-112 282.5,-131"/>
<text text-anchor="middle" x="225" y="-119" font-family="Helvetica,sans-Serif" font-size="10.00">Alarm_state::transition</text>
</a>
</g>
</g>
<!-- Node2&#45;&gt;Node3 -->
<g id="edge2" class="edge">
<title>Node2&#45;&gt;Node3</title>
<path fill="none" stroke="#63b8ff" d="M316.53,-121.5C305.52,-121.5 293.96,-121.5 282.93,-121.5"/>
<polygon fill="#63b8ff" stroke="#63b8ff" points="316.24,-125 326.24,-121.5 316.24,-118 316.24,-125"/>
</g>
<!-- Node5&#45;&gt;Node4 -->
<g id="edge7" class="edge">
<title>Node5&#45;&gt;Node4</title>
<path fill="none" stroke="#63b8ff" d="M323.08,-58.32C303.96,-63.28 282.42,-68.87 264.49,-73.52"/>
<polygon fill="#63b8ff" stroke="#63b8ff" points="323.74,-61.76 332.54,-55.86 321.99,-54.99 323.74,-61.76"/>
</g>
<!-- Node6 -->
<g id="node6" class="node">
<title>Node6</title>
<g id="a_node6"><a xlink:href="class_control__system.html#aa98b33b5c57a47fb55e211516e49088b" target="_top" xlink:title="Enciende el buzzer por 100ms (bloqueante) y, si no esta anulado el próximo paso, avanza hacia la sigu...">
<polygon fill="white" stroke="#666666" points="292,-56 158,-56 158,-37 292,-37 292,-56"/>
<text text-anchor="middle" x="225" y="-44" font-family="Helvetica,sans-Serif" font-size="10.00">Control_system::next_step</text>
</a>
</g>
</g>
<!-- Node5&#45;&gt;Node6 -->
<g id="edge5" class="edge">
<title>Node5&#45;&gt;Node6</title>
<path fill="none" stroke="#63b8ff" d="M318.7,-45.87C310.11,-45.93 301.13,-45.99 292.29,-46.05"/>
<polygon fill="#63b8ff" stroke="#63b8ff" points="318.64,-49.37 328.61,-45.8 318.59,-42.37 318.64,-49.37"/>
</g>
<!-- Node8 -->
<g id="node8" class="node">
<title>Node8</title>
<g id="a_node8"><a xlink:href="class_alarm__state.html#acea6eee2b8d267b67192bbce9e495038" target="_top" xlink:title="Actualización, cambia el color del LED según el estado del motor y hace sonar la alarma....">
<polygon fill="white" stroke="#666666" points="277,-19 173,-19 173,0 277,0 277,-19"/>
<text text-anchor="middle" x="225" y="-7" font-family="Helvetica,sans-Serif" font-size="10.00">Alarm_state::update</text>
</a>
</g>
</g>
<!-- Node5&#45;&gt;Node8 -->
<g id="edge8" class="edge">
<title>Node5&#45;&gt;Node8</title>
<path fill="none" stroke="#63b8ff" d="M320.97,-32.84C303.12,-28.45 283.38,-23.6 266.54,-19.46"/>
<polygon fill="#63b8ff" stroke="#63b8ff" points="320.06,-36.22 330.61,-35.21 321.73,-29.42 320.06,-36.22"/>
</g>
<!-- Node7 -->
<g id="node7" class="node">
<title>Node7</title>
<g id="a_node7"><a xlink:href="class_check__instruction__state.html#ae13ba3789ab274a7dddf19be0a413b55" target="_top" xlink:title="Entrada del estado, resuelve las instrucciones a realizar en cada paso: &#45;WELCOME_STEP: Primer paso,...">
<polygon fill="white" stroke="#666666" points="122,-61.5 0,-61.5 0,-31.5 122,-31.5 122,-61.5"/>
<text text-anchor="start" x="8" y="-49.5" font-family="Helvetica,sans-Serif" font-size="10.00">Check_instruction_state</text>
<text text-anchor="middle" x="61" y="-38.5" font-family="Helvetica,sans-Serif" font-size="10.00">::enter</text>
</a>
</g>
</g>
<!-- Node6&#45;&gt;Node7 -->
<g id="edge6" class="edge">
<title>Node6&#45;&gt;Node7</title>
<path fill="none" stroke="#63b8ff" d="M146.29,-46.5C138.22,-46.5 130.11,-46.5 122.27,-46.5"/>
<polygon fill="#63b8ff" stroke="#63b8ff" points="146.13,-50 156.13,-46.5 146.13,-43 146.13,-50"/>
</g>
</g>
</svg>
