<?xml version="1.0" encoding="UTF-8" standalone="no"?>
<!DOCTYPE svg PUBLIC "-//W3C//DTD SVG 1.1//EN"
 "http://www.w3.org/Graphics/SVG/1.1/DTD/svg11.dtd">
<!-- Generated by graphviz version 7.0.2 (20221119.0110)
 -->
<!-- Title: Motor::turn_off Pages: 1 -->
<svg width="385pt" height="124pt"
 viewBox="0.00 0.00 385.00 124.00" xmlns="http://www.w3.org/2000/svg" xmlns:xlink="http://www.w3.org/1999/xlink">
<g id="graph0" class="graph" transform="scale(1 1) rotate(0) translate(4 120)">
<title>Motor::turn_off</title>
<!-- Node1 -->
<g id="node1" class="node">
<title>Node1</title>
<g id="a_node1"><a xlink:title="Apaga el motor.">
<polygon fill="#999999" stroke="#666666" points="377,-67.5 298,-67.5 298,-48.5 377,-48.5 377,-67.5"/>
<text text-anchor="middle" x="337.5" y="-55.5" font-family="Helvetica,sans-Serif" font-size="10.00">Motor::turn_off</text>
</a>
</g>
</g>
<!-- Node2 -->
<g id="node2" class="node">
<title>Node2</title>
<g id="a_node2"><a xlink:href="class_check__instruction__state.html#ae13ba3789ab274a7dddf19be0a413b55" target="_top" xlink:title="Entrada del estado, resuelve las instrucciones a realizar en cada paso: &#45;WELCOME_STEP: Primer paso,...">
<polygon fill="white" stroke="#666666" points="262,-116 140,-116 140,-86 262,-86 262,-116"/>
<text text-anchor="start" x="148" y="-104" font-family="Helvetica,sans-Serif" font-size="10.00">Check_instruction_state</text>
<text text-anchor="middle" x="201" y="-93" font-family="Helvetica,sans-Serif" font-size="10.00">::enter</text>
</a>
</g>
</g>
<!-- Node1&#45;&gt;Node2 -->
<g id="edge1" class="edge">
<title>Node1&#45;&gt;Node2</title>
<path fill="none" stroke="#63b8ff" d="M294.51,-71.42C280.53,-75.89 264.84,-80.91 250.42,-85.52"/>
<polygon fill="#63b8ff" stroke="#63b8ff" points="295.4,-74.81 303.86,-68.43 293.27,-68.15 295.4,-74.81"/>
</g>
<!-- Node3 -->
<g id="node3" class="node">
<title>Node3</title>
<g id="a_node3"><a xlink:href="class_shutdown__state.html#a2756e0a67cb9371a3c8d722b2a661efa" target="_top" xlink:title="Entrada al estado, apaga los LEDS, la pantalla y apaga el motor.">
<polygon fill="white" stroke="#666666" points="258,-67.5 144,-67.5 144,-48.5 258,-48.5 258,-67.5"/>
<text text-anchor="middle" x="201" y="-55.5" font-family="Helvetica,sans-Serif" font-size="10.00">Shutdown_state::enter</text>
</a>
</g>
</g>
<!-- Node1&#45;&gt;Node3 -->
<g id="edge2" class="edge">
<title>Node1&#45;&gt;Node3</title>
<path fill="none" stroke="#63b8ff" d="M286.33,-58C277.2,-58 267.62,-58 258.32,-58"/>
<polygon fill="#63b8ff" stroke="#63b8ff" points="286.08,-61.5 296.08,-58 286.08,-54.5 286.08,-61.5"/>
</g>
<!-- Node4 -->
<g id="node4" class="node">
<title>Node4</title>
<g id="a_node4"><a xlink:href="class_control__system.html#ab4bd82b7c907b415fdc102ed1fa89c7c" target="_top" xlink:title="Según la variable context.current_alarm resuelve el comportamiento de la alarma.">
<polygon fill="white" stroke="#666666" points="260.5,-30 141.5,-30 141.5,0 260.5,0 260.5,-30"/>
<text text-anchor="start" x="149.5" y="-18" font-family="Helvetica,sans-Serif" font-size="10.00">Control_system::handle</text>
<text text-anchor="middle" x="201" y="-7" font-family="Helvetica,sans-Serif" font-size="10.00">_alarm</text>
</a>
</g>
</g>
<!-- Node1&#45;&gt;Node4 -->
<g id="edge3" class="edge">
<title>Node1&#45;&gt;Node4</title>
<path fill="none" stroke="#63b8ff" d="M294.51,-44.58C280.53,-40.11 264.84,-35.09 250.42,-30.48"/>
<polygon fill="#63b8ff" stroke="#63b8ff" points="293.27,-47.85 303.86,-47.57 295.4,-41.19 293.27,-47.85"/>
</g>
<!-- Node5 -->
<g id="node5" class="node">
<title>Node5</title>
<g id="a_node5"><a xlink:href="class_alarm__state.html#acea6eee2b8d267b67192bbce9e495038" target="_top" xlink:title="Actualización, cambia el color del LED según el estado del motor y hace sonar la alarma....">
<polygon fill="white" stroke="#666666" points="104,-24.5 0,-24.5 0,-5.5 104,-5.5 104,-24.5"/>
<text text-anchor="middle" x="52" y="-12.5" font-family="Helvetica,sans-Serif" font-size="10.00">Alarm_state::update</text>
</a>
</g>
</g>
<!-- Node4&#45;&gt;Node5 -->
<g id="edge4" class="edge">
<title>Node4&#45;&gt;Node5</title>
<path fill="none" stroke="#63b8ff" d="M129.56,-15C121.06,-15 112.52,-15 104.37,-15"/>
<polygon fill="#63b8ff" stroke="#63b8ff" points="129.54,-18.5 139.54,-15 129.54,-11.5 129.54,-18.5"/>
</g>
</g>
</svg>
