<?xml version="1.0" encoding="UTF-8" standalone="no"?>
<!DOCTYPE svg PUBLIC "-//W3C//DTD SVG 1.1//EN"
 "http://www.w3.org/Graphics/SVG/1.1/DTD/svg11.dtd">
<!-- Generated by graphviz version 7.0.2 (20221119.0110)
 -->
<!-- Title: Motor_control_state::transition Pages: 1 -->
<svg width="384pt" height="64pt"
 viewBox="0.00 0.00 384.00 64.00" xmlns="http://www.w3.org/2000/svg" xmlns:xlink="http://www.w3.org/1999/xlink">
<g id="graph0" class="graph" transform="scale(1 1) rotate(0) translate(4 60)">
<title>Motor_control_state::transition</title>
<!-- Node1 -->
<g id="node1" class="node">
<title>Node1</title>
<g id="a_node1"><a xlink:title="Transición de estados.">
<polygon fill="#999999" stroke="#666666" points="103,-42.5 0,-42.5 0,-12.5 103,-12.5 103,-42.5"/>
<text text-anchor="start" x="8" y="-30.5" font-family="Helvetica,sans-Serif" font-size="10.00">Motor_control_state</text>
<text text-anchor="middle" x="51.5" y="-19.5" font-family="Helvetica,sans-Serif" font-size="10.00">::transition</text>
</a>
</g>
</g>
<!-- Node2 -->
<g id="node2" class="node">
<title>Node2</title>
<g id="a_node2"><a xlink:href="class_motor__control__state.html#aad1d65bba61eca448757e07e4e7dcb2b" target="_top" xlink:title="Salida del estado, apaga LEDs y Buzzer.">
<polygon fill="white" stroke="#666666" points="242,-42.5 139,-42.5 139,-12.5 242,-12.5 242,-42.5"/>
<text text-anchor="start" x="147" y="-30.5" font-family="Helvetica,sans-Serif" font-size="10.00">Motor_control_state</text>
<text text-anchor="middle" x="190.5" y="-19.5" font-family="Helvetica,sans-Serif" font-size="10.00">::exit</text>
</a>
</g>
</g>
<!-- Node1&#45;&gt;Node2 -->
<g id="edge1" class="edge">
<title>Node1&#45;&gt;Node2</title>
<path fill="none" stroke="#63b8ff" d="M103.12,-27.5C111,-27.5 119.21,-27.5 127.31,-27.5"/>
<polygon fill="#63b8ff" stroke="#63b8ff" points="127.11,-31 137.11,-27.5 127.11,-24 127.11,-31"/>
</g>
<!-- Node3 -->
<g id="node3" class="node">
<title>Node3</title>
<g id="a_node3"><a xlink:href="class_buzzer.html#a5809a2b7b52e74f509c31214257f3af0" target="_top" xlink:title="Apaga el buzzer.">
<polygon fill="white" stroke="#666666" points="369.5,-56 284.5,-56 284.5,-37 369.5,-37 369.5,-56"/>
<text text-anchor="middle" x="327" y="-44" font-family="Helvetica,sans-Serif" font-size="10.00">Buzzer::turn_off</text>
</a>
</g>
</g>
<!-- Node2&#45;&gt;Node3 -->
<g id="edge2" class="edge">
<title>Node2&#45;&gt;Node3</title>
<path fill="none" stroke="#63b8ff" d="M242.35,-34.68C252.4,-36.1 262.98,-37.6 273.1,-39.03"/>
<polygon fill="#63b8ff" stroke="#63b8ff" points="272.39,-42.46 282.78,-40.39 273.36,-35.53 272.39,-42.46"/>
</g>
<!-- Node4 -->
<g id="node4" class="node">
<title>Node4</title>
<g id="a_node4"><a xlink:href="class_dual___l_e_d.html#a4226b64f8b1c00f3e4c649a8be2e64c9" target="_top" xlink:title="Apaga el LED.">
<polygon fill="white" stroke="#666666" points="376,-19 278,-19 278,0 376,0 376,-19"/>
<text text-anchor="middle" x="327" y="-7" font-family="Helvetica,sans-Serif" font-size="10.00">Dual_LED::turn_off</text>
</a>
</g>
</g>
<!-- Node2&#45;&gt;Node4 -->
<g id="edge3" class="edge">
<title>Node2&#45;&gt;Node4</title>
<path fill="none" stroke="#63b8ff" d="M242.35,-20.69C250.24,-19.64 258.44,-18.54 266.5,-17.46"/>
<polygon fill="#63b8ff" stroke="#63b8ff" points="266.8,-20.95 276.25,-16.16 265.87,-14.02 266.8,-20.95"/>
</g>
</g>
</svg>
