<?xml version="1.0" encoding="UTF-8" standalone="no"?>
<!DOCTYPE svg PUBLIC "-//W3C//DTD SVG 1.1//EN"
 "http://www.w3.org/Graphics/SVG/1.1/DTD/svg11.dtd">
<!-- Generated by graphviz version 7.0.2 (20221119.0110)
 -->
<!-- Title: Check_instruction_state::enter Pages: 1 -->
<svg width="594pt" height="452pt"
 viewBox="0.00 0.00 594.00 451.50" xmlns="http://www.w3.org/2000/svg" xmlns:xlink="http://www.w3.org/1999/xlink">
<g id="graph0" class="graph" transform="scale(1 1) rotate(0) translate(4 447.5)">
<title>Check_instruction_state::enter</title>
<!-- Node1 -->
<g id="node1" class="node">
<title>Node1</title>
<g id="a_node1"><a xlink:title="Método que se llama al ingresar al estado.">
<polygon fill="#999999" stroke="#666666" points="122,-174.5 0,-174.5 0,-144.5 122,-144.5 122,-174.5"/>
<text text-anchor="start" x="8" y="-162.5" font-family="Helvetica,sans-Serif" font-size="10.00">Check_instruction_state</text>
<text text-anchor="middle" x="61" y="-151.5" font-family="Helvetica,sans-Serif" font-size="10.00">::enter</text>
</a>
</g>
</g>
<!-- Node2 -->
<g id="node2" class="node">
<title>Node2</title>
<g id="a_node2"><a xlink:href="class_control__system.html#aa98b33b5c57a47fb55e211516e49088b" target="_top" xlink:title="Enciende el buzzer por 100ms (bloqueante) y, si no esta anulado el próximo paso, avanza hacia la sigu...">
<polygon fill="white" stroke="#666666" points="292,-360 158,-360 158,-341 292,-341 292,-360"/>
<text text-anchor="middle" x="225" y="-348" font-family="Helvetica,sans-Serif" font-size="10.00">Control_system::next_step</text>
</a>
</g>
</g>
<!-- Node1&#45;&gt;Node2 -->
<g id="edge1" class="edge">
<title>Node1&#45;&gt;Node2</title>
<path fill="none" stroke="#63b8ff" d="M66.74,-174.77C77.6,-207.3 107.31,-283.9 158,-326.5 162.38,-330.18 167.37,-333.32 172.6,-335.99"/>
<polygon fill="#63b8ff" stroke="#63b8ff" points="170.92,-339.07 181.48,-339.95 173.77,-332.68 170.92,-339.07"/>
</g>
<!-- Node7 -->
<g id="node7" class="node">
<title>Node7</title>
<g id="a_node7"><a xlink:href="class_p_c__serial__interface.html#ad7c7d6bf178e7e5b01dcbd40e079a044" target="_top" xlink:title="Imprime en la interfaz serie.">
<polygon fill="white" stroke="#666666" points="275.5,-317.5 174.5,-317.5 174.5,-287.5 275.5,-287.5 275.5,-317.5"/>
<text text-anchor="start" x="182.5" y="-305.5" font-family="Helvetica,sans-Serif" font-size="10.00">PC_serial_interface</text>
<text text-anchor="middle" x="225" y="-294.5" font-family="Helvetica,sans-Serif" font-size="10.00">::println</text>
</a>
</g>
</g>
<!-- Node1&#45;&gt;Node7 -->
<g id="edge6" class="edge">
<title>Node1&#45;&gt;Node7</title>
<path fill="none" stroke="#63b8ff" d="M73.4,-174.98C90.16,-197.01 123.25,-237.8 158,-265.5 165.3,-271.32 173.64,-276.76 181.87,-281.59"/>
<polygon fill="#63b8ff" stroke="#63b8ff" points="180.03,-284.57 190.47,-286.41 183.46,-278.46 180.03,-284.57"/>
</g>
<!-- Node9 -->
<g id="node9" class="node">
<title>Node9</title>
<g id="a_node9"><a xlink:href="class_control__system.html#a46298a6a5f4ba43857baa6ae23d00dbc" target="_top" xlink:title="Fija el valor de velocidad del ventilador.">
<polygon fill="white" stroke="#666666" points="277,-217.5 173,-217.5 173,-187.5 277,-187.5 277,-217.5"/>
<text text-anchor="start" x="181" y="-205.5" font-family="Helvetica,sans-Serif" font-size="10.00">Control_system::set</text>
<text text-anchor="middle" x="225" y="-194.5" font-family="Helvetica,sans-Serif" font-size="10.00">_cooler_speed</text>
</a>
</g>
</g>
<!-- Node1&#45;&gt;Node9 -->
<g id="edge8" class="edge">
<title>Node1&#45;&gt;Node9</title>
<path fill="none" stroke="#63b8ff" d="M120.03,-174.9C133.57,-178.5 148.04,-182.34 161.76,-185.98"/>
<polygon fill="#63b8ff" stroke="#63b8ff" points="160.53,-189.27 171.1,-188.46 162.33,-182.51 160.53,-189.27"/>
</g>
<!-- Node10 -->
<g id="node10" class="node">
<title>Node10</title>
<g id="a_node10"><a xlink:href="class_digital__dual___l_e_d.html#a50e4648932cd01835f25e627cbe93ba6" target="_top" xlink:title="Enciende el LED en verde.">
<polygon fill="white" stroke="#666666" points="450.5,-272.5 337.5,-272.5 337.5,-242.5 450.5,-242.5 450.5,-272.5"/>
<text text-anchor="start" x="345.5" y="-260.5" font-family="Helvetica,sans-Serif" font-size="10.00">Digital_dual_LED::turn</text>
<text text-anchor="middle" x="394" y="-249.5" font-family="Helvetica,sans-Serif" font-size="10.00">_green</text>
</a>
</g>
</g>
<!-- Node1&#45;&gt;Node10 -->
<g id="edge14" class="edge">
<title>Node1&#45;&gt;Node10</title>
<path fill="none" stroke="#63b8ff" d="M78.58,-174.86C96.64,-190.63 127.12,-214.51 158,-226.5 211.98,-247.45 277.63,-254.74 325.8,-257.05"/>
<polygon fill="#63b8ff" stroke="#63b8ff" points="325.38,-260.54 335.52,-257.45 325.67,-253.54 325.38,-260.54"/>
</g>
<!-- Node12 -->
<g id="node12" class="node">
<title>Node12</title>
<g id="a_node12"><a xlink:href="class_cooler.html#a3aa26bc227fa7a2bdcff9fe607990104" target="_top" xlink:title="Apaga el ventilador.">
<polygon fill="white" stroke="#666666" points="582,-169 500,-169 500,-150 582,-150 582,-169"/>
<text text-anchor="middle" x="541" y="-157" font-family="Helvetica,sans-Serif" font-size="10.00">Cooler::turn_off</text>
</a>
</g>
</g>
<!-- Node1&#45;&gt;Node12 -->
<g id="edge18" class="edge">
<title>Node1&#45;&gt;Node12</title>
<path fill="none" stroke="#63b8ff" d="M122.2,-150.97C200.31,-141.23 340.73,-128.25 460,-141.5 470.6,-142.68 481.84,-144.71 492.45,-146.99"/>
<polygon fill="#63b8ff" stroke="#63b8ff" points="491.64,-150.4 502.17,-149.2 493.2,-143.57 491.64,-150.4"/>
</g>
<!-- Node13 -->
<g id="node13" class="node">
<title>Node13</title>
<g id="a_node13"><a xlink:href="class_digital__dual___l_e_d.html#a601fc70878c221a056d74dc643806a91" target="_top" xlink:title="Fija el color del led, no enciende el led,.">
<polygon fill="white" stroke="#666666" points="460,-169 328,-169 328,-150 460,-150 460,-169"/>
<text text-anchor="middle" x="394" y="-157" font-family="Helvetica,sans-Serif" font-size="10.00">Digital_dual_LED::turn_red</text>
</a>
</g>
</g>
<!-- Node1&#45;&gt;Node13 -->
<g id="edge21" class="edge">
<title>Node1&#45;&gt;Node13</title>
<path fill="none" stroke="#63b8ff" d="M122.33,-159.5C176.78,-159.5 257.17,-159.5 316.2,-159.5"/>
<polygon fill="#63b8ff" stroke="#63b8ff" points="316.19,-163 326.19,-159.5 316.19,-156 316.19,-163"/>
</g>
<!-- Node14 -->
<g id="node14" class="node">
<title>Node14</title>
<g id="a_node14"><a xlink:href="class_dual___l_e_d.html#ab1cd238e00901ca9556914a38d3a064c" target="_top" xlink:title="Enciende el LED en verde.">
<polygon fill="white" stroke="#666666" points="281,-93 169,-93 169,-74 281,-74 281,-93"/>
<text text-anchor="middle" x="225" y="-81" font-family="Helvetica,sans-Serif" font-size="10.00">Dual_LED::turn_green</text>
</a>
</g>
</g>
<!-- Node1&#45;&gt;Node14 -->
<g id="edge15" class="edge">
<title>Node1&#45;&gt;Node14</title>
<path fill="none" stroke="#63b8ff" d="M87.96,-144.08C106.98,-133.12 133.63,-118.46 158,-107.5 165.96,-103.92 174.64,-100.46 183,-97.34"/>
<polygon fill="#63b8ff" stroke="#63b8ff" points="184.1,-100.67 192.31,-93.97 181.71,-94.09 184.1,-100.67"/>
</g>
<!-- Node17 -->
<g id="node17" class="node">
<title>Node17</title>
<g id="a_node17"><a xlink:href="class_motor.html#a9a1613b24a5dd07a8c515e82d8e0edeb" target="_top" xlink:title="Apaga el motor.">
<polygon fill="white" stroke="#666666" points="264.5,-56 185.5,-56 185.5,-37 264.5,-37 264.5,-56"/>
<text text-anchor="middle" x="225" y="-44" font-family="Helvetica,sans-Serif" font-size="10.00">Motor::turn_off</text>
</a>
</g>
</g>
<!-- Node1&#45;&gt;Node17 -->
<g id="edge19" class="edge">
<title>Node1&#45;&gt;Node17</title>
<path fill="none" stroke="#63b8ff" d="M73.24,-144.22C89.56,-123.14 121.85,-85.35 158,-64.5 163.21,-61.5 168.94,-58.98 174.78,-56.87"/>
<polygon fill="#63b8ff" stroke="#63b8ff" points="175.42,-60.33 183.88,-53.96 173.29,-53.67 175.42,-60.33"/>
</g>
<!-- Node18 -->
<g id="node18" class="node">
<title>Node18</title>
<g id="a_node18"><a xlink:href="class_motor.html#a3a871f05d0b017ff32052eb946a56f38" target="_top" xlink:title="Enciende el motor con con una duración en milisegundos duration, por defecto enciende el motor por un...">
<polygon fill="white" stroke="#666666" points="265,-19 185,-19 185,0 265,0 265,-19"/>
<text text-anchor="middle" x="225" y="-7" font-family="Helvetica,sans-Serif" font-size="10.00">Motor::turn_on</text>
</a>
</g>
</g>
<!-- Node1&#45;&gt;Node18 -->
<g id="edge20" class="edge">
<title>Node1&#45;&gt;Node18</title>
<path fill="none" stroke="#63b8ff" d="M68.81,-144.24C81.94,-116.59 113.46,-58.24 158,-27.5 162.82,-24.17 168.24,-21.45 173.85,-19.24"/>
<polygon fill="#63b8ff" stroke="#63b8ff" points="174.95,-22.56 183.31,-16.06 172.71,-15.93 174.95,-22.56"/>
</g>
<!-- Node3 -->
<g id="node3" class="node">
<title>Node3</title>
<g id="a_node3"><a xlink:href="class_control__system.html#ac1cd148e897c5ce2ef405dd45ddf964f" target="_top" xlink:title="Muestra en pantalla el paso del procedimientoa actual.">
<polygon fill="white" stroke="#666666" points="450.5,-443.5 337.5,-443.5 337.5,-413.5 450.5,-413.5 450.5,-443.5"/>
<text text-anchor="start" x="345.5" y="-431.5" font-family="Helvetica,sans-Serif" font-size="10.00">Control_system::show</text>
<text text-anchor="middle" x="394" y="-420.5" font-family="Helvetica,sans-Serif" font-size="10.00">_current_step</text>
</a>
</g>
</g>
<!-- Node2&#45;&gt;Node3 -->
<g id="edge2" class="edge">
<title>Node2&#45;&gt;Node3</title>
<path fill="none" stroke="#63b8ff" d="M242.98,-360.39C262.94,-371.8 297.27,-390.76 328,-404.5 331.29,-405.97 334.71,-407.43 338.17,-408.85"/>
<polygon fill="#63b8ff" stroke="#63b8ff" points="336.63,-412.01 347.22,-412.46 339.22,-405.51 336.63,-412.01"/>
</g>
<!-- Node5 -->
<g id="node5" class="node">
<title>Node5</title>
<g id="a_node5"><a xlink:href="class_buzzer.html#a5809a2b7b52e74f509c31214257f3af0" target="_top" xlink:title="Apaga el buzzer.">
<polygon fill="white" stroke="#666666" points="436.5,-395 351.5,-395 351.5,-376 436.5,-376 436.5,-395"/>
<text text-anchor="middle" x="394" y="-383" font-family="Helvetica,sans-Serif" font-size="10.00">Buzzer::turn_off</text>
</a>
</g>
</g>
<!-- Node2&#45;&gt;Node5 -->
<g id="edge4" class="edge">
<title>Node2&#45;&gt;Node5</title>
<path fill="none" stroke="#63b8ff" d="M273.41,-360.44C294.17,-364.79 318.62,-369.91 339.98,-374.39"/>
<polygon fill="#63b8ff" stroke="#63b8ff" points="339.18,-377.8 349.68,-376.42 340.61,-370.94 339.18,-377.8"/>
</g>
<!-- Node6 -->
<g id="node6" class="node">
<title>Node6</title>
<g id="a_node6"><a xlink:href="class_buzzer.html#a9ba28d9ca8b3dd80541d9a13a8b0f625" target="_top" xlink:title="Enciende el buzzer con con una duración en milisegundos duration, por defecto enciende el buzzer por ...">
<polygon fill="white" stroke="#666666" points="437,-358 351,-358 351,-339 437,-339 437,-358"/>
<text text-anchor="middle" x="394" y="-346" font-family="Helvetica,sans-Serif" font-size="10.00">Buzzer::turn_on</text>
</a>
</g>
</g>
<!-- Node2&#45;&gt;Node6 -->
<g id="edge5" class="edge">
<title>Node2&#45;&gt;Node6</title>
<path fill="none" stroke="#63b8ff" d="M292.48,-349.7C308.14,-349.52 324.63,-349.32 339.62,-349.14"/>
<polygon fill="#63b8ff" stroke="#63b8ff" points="339.29,-352.64 349.24,-349.02 339.2,-345.64 339.29,-352.64"/>
</g>
<!-- Node4 -->
<g id="node4" class="node">
<title>Node4</title>
<g id="a_node4"><a xlink:href="class_display.html#a87d1e7bf73a1d14b5e76c9ab647a9e93" target="_top" xlink:title="Fija el el texto a actualizar, no lo imprime en pantalla. La ubicación se da con las constantes de of...">
<polygon fill="white" stroke="#666666" points="586,-438 496,-438 496,-419 586,-419 586,-438"/>
<text text-anchor="middle" x="541" y="-426" font-family="Helvetica,sans-Serif" font-size="10.00">Display::set_text</text>
</a>
</g>
</g>
<!-- Node3&#45;&gt;Node4 -->
<g id="edge3" class="edge">
<title>Node3&#45;&gt;Node4</title>
<path fill="none" stroke="#63b8ff" d="M450.65,-428.5C461.67,-428.5 473.25,-428.5 484.27,-428.5"/>
<polygon fill="#63b8ff" stroke="#63b8ff" points="484.01,-432 494.01,-428.5 484.01,-425 484.01,-432"/>
</g>
<!-- Node8 -->
<g id="node8" class="node">
<title>Node8</title>
<g id="a_node8"><a xlink:href="class_p_c__serial__interface.html#a52ab40d5831945344a22e6ef117d8b3f" target="_top" xlink:title="Imprime en la interfaz serie.">
<polygon fill="white" stroke="#666666" points="444.5,-320.5 343.5,-320.5 343.5,-290.5 444.5,-290.5 444.5,-320.5"/>
<text text-anchor="start" x="351.5" y="-308.5" font-family="Helvetica,sans-Serif" font-size="10.00">PC_serial_interface</text>
<text text-anchor="middle" x="394" y="-297.5" font-family="Helvetica,sans-Serif" font-size="10.00">::print</text>
</a>
</g>
</g>
<!-- Node7&#45;&gt;Node8 -->
<g id="edge7" class="edge">
<title>Node7&#45;&gt;Node8</title>
<path fill="none" stroke="#63b8ff" d="M275.65,-303.39C293.33,-303.71 313.44,-304.07 331.96,-304.4"/>
<polygon fill="#63b8ff" stroke="#63b8ff" points="331.68,-307.9 341.74,-304.58 331.8,-300.9 331.68,-307.9"/>
</g>
<!-- Node9&#45;&gt;Node10 -->
<g id="edge9" class="edge">
<title>Node9&#45;&gt;Node10</title>
<path fill="none" stroke="#63b8ff" d="M272.96,-217.97C292.34,-224.35 315,-231.81 335.37,-238.52"/>
<polygon fill="#63b8ff" stroke="#63b8ff" points="334.07,-241.78 344.66,-241.58 336.26,-235.13 334.07,-241.78"/>
</g>
<!-- Node11 -->
<g id="node11" class="node">
<title>Node11</title>
<g id="a_node11"><a xlink:href="class_cooler.html#aa98fd302dc7933fc21c046ca3ea48346" target="_top" xlink:title="Enciende el ventilador. Si el ciclo de trabajo deseado es menor que FAN_MINIMUM_DUTY_CYCLE apaga el v...">
<polygon fill="white" stroke="#666666" points="435.5,-206 352.5,-206 352.5,-187 435.5,-187 435.5,-206"/>
<text text-anchor="middle" x="394" y="-194" font-family="Helvetica,sans-Serif" font-size="10.00">Cooler::turn_on</text>
</a>
</g>
</g>
<!-- Node9&#45;&gt;Node11 -->
<g id="edge10" class="edge">
<title>Node9&#45;&gt;Node11</title>
<path fill="none" stroke="#63b8ff" d="M277.47,-200.65C297.5,-199.93 320.42,-199.11 340.54,-198.38"/>
<polygon fill="#63b8ff" stroke="#63b8ff" points="340.64,-201.88 350.51,-198.03 340.39,-194.89 340.64,-201.88"/>
</g>
<!-- Node9&#45;&gt;Node13 -->
<g id="edge13" class="edge">
<title>Node9&#45;&gt;Node13</title>
<path fill="none" stroke="#63b8ff" d="M277.47,-189.25C298.33,-183.88 322.34,-177.69 343.04,-172.36"/>
<polygon fill="#63b8ff" stroke="#63b8ff" points="343.89,-175.76 352.7,-169.88 342.14,-168.98 343.89,-175.76"/>
</g>
<!-- Node11&#45;&gt;Node11 -->
<g id="edge12" class="edge">
<title>Node11&#45;&gt;Node11</title>
<path fill="none" stroke="#63b8ff" d="M370.99,-206.37C360.49,-214.94 368.16,-224 394,-224 408.13,-224 416.83,-221.29 420.09,-217.43"/>
<polygon fill="#63b8ff" stroke="#63b8ff" points="423.47,-216.52 417.42,-207.83 416.73,-218.4 423.47,-216.52"/>
</g>
<!-- Node11&#45;&gt;Node12 -->
<g id="edge11" class="edge">
<title>Node11&#45;&gt;Node12</title>
<path fill="none" stroke="#63b8ff" d="M433.86,-186.58C451.09,-182.19 471.57,-176.96 489.93,-172.28"/>
<polygon fill="#63b8ff" stroke="#63b8ff" points="490.74,-175.68 499.57,-169.82 489.01,-168.9 490.74,-175.68"/>
</g>
<!-- Node15 -->
<g id="node15" class="node">
<title>Node15</title>
<g id="a_node15"><a xlink:href="class_dual___l_e_d.html#aeb163748acf071a1652c56ae1dff9d52" target="_top" xlink:title="Fija el color del led, no enciende el led,.">
<polygon fill="white" stroke="#666666" points="447,-93 341,-93 341,-74 447,-74 447,-93"/>
<text text-anchor="middle" x="394" y="-81" font-family="Helvetica,sans-Serif" font-size="10.00">Dual_LED::set_color</text>
</a>
</g>
</g>
<!-- Node14&#45;&gt;Node15 -->
<g id="edge16" class="edge">
<title>Node14&#45;&gt;Node15</title>
<path fill="none" stroke="#63b8ff" d="M281.14,-83.5C296.59,-83.5 313.5,-83.5 329.39,-83.5"/>
<polygon fill="#63b8ff" stroke="#63b8ff" points="329.23,-87 339.23,-83.5 329.23,-80 329.23,-87"/>
</g>
<!-- Node16 -->
<g id="node16" class="node">
<title>Node16</title>
<g id="a_node16"><a xlink:href="class_dual___l_e_d.html#a8b13294b883897eb83f91bf90a3a11cd" target="_top" xlink:title="Enciende el LED en el color actual.">
<polygon fill="white" stroke="#666666" points="443,-56 345,-56 345,-37 443,-37 443,-56"/>
<text text-anchor="middle" x="394" y="-44" font-family="Helvetica,sans-Serif" font-size="10.00">Dual_LED::turn_on</text>
</a>
</g>
</g>
<!-- Node14&#45;&gt;Node16 -->
<g id="edge17" class="edge">
<title>Node14&#45;&gt;Node16</title>
<path fill="none" stroke="#63b8ff" d="M270.75,-73.58C291.16,-69.06 315.53,-63.66 337.12,-58.88"/>
<polygon fill="#63b8ff" stroke="#63b8ff" points="337.64,-62.35 346.65,-56.77 336.13,-55.52 337.64,-62.35"/>
</g>
</g>
</svg>
