<?xml version="1.0" encoding="UTF-8" standalone="no"?>
<!DOCTYPE svg PUBLIC "-//W3C//DTD SVG 1.1//EN"
 "http://www.w3.org/Graphics/SVG/1.1/DTD/svg11.dtd">
<!-- Generated by graphviz version 7.0.2 (20221119.0110)
 -->
<!-- Title: Check_instruction_state::update Pages: 1 -->
<!--zoomable 337 -->
<svg id="main" version="1.1" xmlns="http://www.w3.org/2000/svg" xmlns:xlink="http://www.w3.org/1999/xlink" xml:space="preserve" onload="init(evt)">
<style type="text/css"><![CDATA[
.edge:hover path { stroke: red; }
.edge:hover polygon { stroke: red; fill: red; }
]]></style>
<script type="text/javascript"><![CDATA[
var edges = document.getElementsByTagName('g');
if (edges && edges.length) {
  for (var i=0;i<edges.length;i++) {
    if (edges[i].id.substr(0,4)=='edge') {
      edges[i].setAttribute('class','edge');
    }
  }
}
]]></script>
        <defs>
                <circle id="rim" cx="0" cy="0" r="7"/>
                <circle id="rim2" cx="0" cy="0" r="3.5"/>
                <g id="zoomPlus">
                        <use xlink:href="#rim" fill="#404040">
                                <set attributeName="fill" to="#808080" begin="zoomplus.mouseover" end="zoomplus.mouseout"/>
                        </use>
                        <path d="M-4,0h8M0,-4v8" fill="none" stroke="white" stroke-width="1.5" pointer-events="none"/>
                </g>
                <g id="zoomMin">
                        <use xlink:href="#rim" fill="#404040">
                                <set attributeName="fill" to="#808080" begin="zoomminus.mouseover" end="zoomminus.mouseout"/>
                        </use>
                        <path d="M-4,0h8" fill="none" stroke="white" stroke-width="1.5" pointer-events="none"/>
                </g>
                <g id="dirArrow">
                        <path fill="none" stroke="white" stroke-width="1.5" d="M0,-3.0v7 M-2.5,-0.5L0,-3.0L2.5,-0.5"/>
                </g>
               <g id="resetDef">
                       <use xlink:href="#rim2" fill="#404040">
                               <set attributeName="fill" to="#808080" begin="reset.mouseover" end="reset.mouseout"/>
                       </use>
               </g>
        </defs>

<script type="text/javascript">
var viewWidth = 777;
var viewHeight = 337;
var sectionId = 'dynsection-5';
</script>
<script xlink:href="svgpan.js"/>
<svg id="graph" class="graph">
<g id="viewport">
<title>Check_instruction_state::update</title>
<!-- Node1 -->
<g id="node1" class="node">
<title>Node1</title>
<g id="a_node1"><a xlink:title="Método para actualizar el estado.">
<polygon fill="#999999" stroke="#666666" points="122,-211.5 0,-211.5 0,-181.5 122,-181.5 122,-211.5"/>
<text text-anchor="start" x="8" y="-199.5" font-family="Helvetica,sans-Serif" font-size="10.00">Check_instruction_state</text>
<text text-anchor="middle" x="61" y="-188.5" font-family="Helvetica,sans-Serif" font-size="10.00">::update</text>
</a>
</g>
</g>
<!-- Node2 -->
<g id="node2" class="node">
<title>Node2</title>
<g id="a_node2"><a xlink:href="class_control__system.html#ab7912068a11d44b07eef3b3f56ce0598" target="_top" xlink:title="Itera sobre todos los observadores, llamando a su método de actualización.">
<polygon fill="white" stroke="#666666" points="272,-285.5 158,-285.5 158,-255.5 272,-255.5 272,-285.5"/>
<text text-anchor="start" x="166" y="-273.5" font-family="Helvetica,sans-Serif" font-size="10.00">Control_system::notify</text>
<text text-anchor="middle" x="215" y="-262.5" font-family="Helvetica,sans-Serif" font-size="10.00">_observers</text>
</a>
</g>
</g>
<!-- Node1&#45;&gt;Node2 -->
<g id="edge1" class="edge">
<title>Node1&#45;&gt;Node2</title>
<path fill="none" stroke="#63b8ff" d="M93.49,-211.83C116.24,-222.91 147.21,-237.98 172.05,-250.08"/>
<polygon fill="#63b8ff" stroke="#63b8ff" points="170.4,-253.17 180.92,-254.4 173.46,-246.87 170.4,-253.17"/>
</g>
<!-- Node9 -->
<g id="node9" class="node">
<title>Node9</title>
<g id="a_node9"><a xlink:href="class_control__system.html#aeb1d67b1383d77bd11276f0eef97228b" target="_top" xlink:title="Resetea las variables de contexto.">
<polygon fill="white" stroke="#666666" points="271.5,-211.5 158.5,-211.5 158.5,-181.5 271.5,-181.5 271.5,-211.5"/>
<text text-anchor="start" x="166.5" y="-199.5" font-family="Helvetica,sans-Serif" font-size="10.00">Control_system::reset</text>
<text text-anchor="middle" x="215" y="-188.5" font-family="Helvetica,sans-Serif" font-size="10.00">_context</text>
</a>
</g>
</g>
<!-- Node1&#45;&gt;Node9 -->
<g id="edge8" class="edge">
<title>Node1&#45;&gt;Node9</title>
<path fill="none" stroke="#63b8ff" d="M122.07,-196.5C130.2,-196.5 138.57,-196.5 146.81,-196.5"/>
<polygon fill="#63b8ff" stroke="#63b8ff" points="146.8,-200 156.8,-196.5 146.8,-193 146.8,-200"/>
</g>
<!-- Node13 -->
<g id="node13" class="node">
<title>Node13</title>
<g id="a_node13"><a xlink:href="class_display.html#ad2740b779d61e461c4dcaaf34f1fcd8f" target="_top" xlink:title="Actualiza los valores en pantalla con los parámetros previamente fijados. Solo actualiza la pantalla ...">
<polygon fill="white" stroke="#666666" points="257,-94 173,-94 173,-75 257,-75 257,-94"/>
<text text-anchor="middle" x="215" y="-82" font-family="Helvetica,sans-Serif" font-size="10.00">Display::update</text>
</a>
</g>
</g>
<!-- Node1&#45;&gt;Node13 -->
<g id="edge12" class="edge">
<title>Node1&#45;&gt;Node13</title>
<path fill="none" stroke="#63b8ff" d="M82.82,-181.16C111.31,-160.17 162.24,-122.64 191.56,-101.04"/>
<polygon fill="#63b8ff" stroke="#63b8ff" points="193.41,-104.02 199.39,-95.27 189.26,-98.38 193.41,-104.02"/>
</g>
<!-- Node3 -->
<g id="node3" class="node">
<title>Node3</title>
<g id="a_node3"><a xlink:href="class_control__system.html#a251677ee7c18269d85579da7a000ceab" target="_top" xlink:title="Fija el valor del flag de muestro de sensores.">
<polygon fill="white" stroke="#666666" points="426,-328.5 322,-328.5 322,-298.5 426,-298.5 426,-328.5"/>
<text text-anchor="start" x="330" y="-316.5" font-family="Helvetica,sans-Serif" font-size="10.00">Control_system::set</text>
<text text-anchor="middle" x="374" y="-305.5" font-family="Helvetica,sans-Serif" font-size="10.00">_poll_sensors_flag</text>
</a>
</g>
</g>
<!-- Node2&#45;&gt;Node3 -->
<g id="edge2" class="edge">
<title>Node2&#45;&gt;Node3</title>
<path fill="none" stroke="#63b8ff" d="M272.24,-285.9C284.69,-289.31 297.96,-292.95 310.64,-296.42"/>
<polygon fill="#63b8ff" stroke="#63b8ff" points="309.57,-299.76 320.14,-299.02 311.42,-293 309.57,-299.76"/>
</g>
<!-- Node4 -->
<g id="node4" class="node">
<title>Node4</title>
<g id="a_node4"><a xlink:href="class_control__system.html#a4bfd2d8427f35a8cd4e4e10573aa5604" target="_top" xlink:title="Realiza la transición de estados y actualiza el estado.">
<polygon fill="white" stroke="#666666" points="434,-280 314,-280 314,-261 434,-261 434,-280"/>
<text text-anchor="middle" x="374" y="-268" font-family="Helvetica,sans-Serif" font-size="10.00">Control_system::update</text>
</a>
</g>
</g>
<!-- Node2&#45;&gt;Node4 -->
<g id="edge3" class="edge">
<title>Node2&#45;&gt;Node4</title>
<path fill="none" stroke="#63b8ff" d="M272.24,-270.5C282.02,-270.5 292.3,-270.5 302.41,-270.5"/>
<polygon fill="#63b8ff" stroke="#63b8ff" points="302.2,-274 312.2,-270.5 302.2,-267 302.2,-274"/>
</g>
<!-- Node5 -->
<g id="node5" class="node">
<title>Node5</title>
<g id="a_node5"><a xlink:href="class_control__system.html#ab3a3e36bda029f2a5d0c4ffdf8ff984c" target="_top" xlink:title="Realiza la transición de estados en caso de ser necesario.">
<polygon fill="white" stroke="#666666" points="607,-306.5 476,-306.5 476,-276.5 607,-276.5 607,-306.5"/>
<text text-anchor="start" x="484" y="-294.5" font-family="Helvetica,sans-Serif" font-size="10.00">Control_system::transition</text>
<text text-anchor="middle" x="541.5" y="-283.5" font-family="Helvetica,sans-Serif" font-size="10.00">_state</text>
</a>
</g>
</g>
<!-- Node4&#45;&gt;Node5 -->
<g id="edge4" class="edge">
<title>Node4&#45;&gt;Node5</title>
<path fill="none" stroke="#63b8ff" d="M434.28,-278.02C444.05,-279.26 454.3,-280.56 464.41,-281.85"/>
<polygon fill="#63b8ff" stroke="#63b8ff" points="463.88,-285.31 474.24,-283.09 464.76,-278.36 463.88,-285.31"/>
</g>
<!-- Node8 -->
<g id="node8" class="node">
<title>Node8</title>
<g id="a_node8"><a xlink:href="class_abstract__state.html#a993232854cd166a601b6c5b4ba7befcc" target="_top" xlink:title="Método para actualizar el estado.">
<polygon fill="white" stroke="#666666" points="599.5,-258 483.5,-258 483.5,-239 599.5,-239 599.5,-258"/>
<text text-anchor="middle" x="541.5" y="-246" font-family="Helvetica,sans-Serif" font-size="10.00">Abstract_state::update</text>
</a>
</g>
</g>
<!-- Node4&#45;&gt;Node8 -->
<g id="edge7" class="edge">
<title>Node4&#45;&gt;Node8</title>
<path fill="none" stroke="#63b8ff" d="M434.28,-262.62C446.42,-261.01 459.3,-259.29 471.75,-257.64"/>
<polygon fill="#63b8ff" stroke="#63b8ff" points="472.07,-261.13 481.52,-256.34 471.14,-254.19 472.07,-261.13"/>
</g>
<!-- Node6 -->
<g id="node6" class="node">
<title>Node6</title>
<g id="a_node6"><a xlink:href="class_abstract__state.html#a1c001b0cb46c11126cb9ff77f8ad3016" target="_top" xlink:title="Método que se llama al ingresar al estado.">
<polygon fill="white" stroke="#666666" points="760,-319 652,-319 652,-300 760,-300 760,-319"/>
<text text-anchor="middle" x="706" y="-307" font-family="Helvetica,sans-Serif" font-size="10.00">Abstract_state::enter</text>
</a>
</g>
</g>
<!-- Node5&#45;&gt;Node6 -->
<g id="edge5" class="edge">
<title>Node5&#45;&gt;Node6</title>
<path fill="none" stroke="#63b8ff" d="M607.19,-298.67C618.16,-299.88 629.55,-301.14 640.52,-302.36"/>
<polygon fill="#63b8ff" stroke="#63b8ff" points="639.92,-305.81 650.25,-303.44 640.7,-298.86 639.92,-305.81"/>
</g>
<!-- Node7 -->
<g id="node7" class="node">
<title>Node7</title>
<g id="a_node7"><a xlink:href="class_abstract__state.html#a130d61765e2fcdf3bb0500943221efbe" target="_top" xlink:title="Método para cambiar de estado.">
<polygon fill="white" stroke="#666666" points="769,-282 643,-282 643,-263 769,-263 769,-282"/>
<text text-anchor="middle" x="706" y="-270" font-family="Helvetica,sans-Serif" font-size="10.00">Abstract_state::transition</text>
</a>
</g>
</g>
<!-- Node5&#45;&gt;Node7 -->
<g id="edge6" class="edge">
<title>Node5&#45;&gt;Node7</title>
<path fill="none" stroke="#63b8ff" d="M607.19,-283.94C615.13,-283.01 623.29,-282.05 631.35,-281.11"/>
<polygon fill="#63b8ff" stroke="#63b8ff" points="631.62,-284.6 641.15,-279.97 630.81,-277.65 631.62,-284.6"/>
</g>
<!-- Node10 -->
<g id="node10" class="node">
<title>Node10</title>
<g id="a_node10"><a xlink:href="class_cooler.html#a3aa26bc227fa7a2bdcff9fe607990104" target="_top" xlink:title="Apaga el ventilador.">
<polygon fill="white" stroke="#666666" points="415,-243 333,-243 333,-224 415,-224 415,-243"/>
<text text-anchor="middle" x="374" y="-231" font-family="Helvetica,sans-Serif" font-size="10.00">Cooler::turn_off</text>
</a>
</g>
</g>
<!-- Node9&#45;&gt;Node10 -->
<g id="edge9" class="edge">
<title>Node9&#45;&gt;Node10</title>
<path fill="none" stroke="#63b8ff" d="M271.79,-209.65C288.12,-213.5 305.88,-217.68 321.9,-221.46"/>
<polygon fill="#63b8ff" stroke="#63b8ff" points="320.67,-224.76 331.2,-223.65 322.27,-217.95 320.67,-224.76"/>
</g>
<!-- Node11 -->
<g id="node11" class="node">
<title>Node11</title>
<g id="a_node11"><a xlink:href="class_dual___l_e_d.html#a4226b64f8b1c00f3e4c649a8be2e64c9" target="_top" xlink:title="Apaga el LED.">
<polygon fill="white" stroke="#666666" points="423,-206 325,-206 325,-187 423,-187 423,-206"/>
<text text-anchor="middle" x="374" y="-194" font-family="Helvetica,sans-Serif" font-size="10.00">Dual_LED::turn_off</text>
</a>
</g>
</g>
<!-- Node9&#45;&gt;Node11 -->
<g id="edge10" class="edge">
<title>Node9&#45;&gt;Node11</title>
<path fill="none" stroke="#63b8ff" d="M271.79,-196.5C285.29,-196.5 299.77,-196.5 313.43,-196.5"/>
<polygon fill="#63b8ff" stroke="#63b8ff" points="313.16,-200 323.16,-196.5 313.16,-193 313.16,-200"/>
</g>
<!-- Node12 -->
<g id="node12" class="node">
<title>Node12</title>
<g id="a_node12"><a xlink:href="class_digital__dual___l_e_d.html#a601fc70878c221a056d74dc643806a91" target="_top" xlink:title="Fija el color del led, no enciende el led,.">
<polygon fill="white" stroke="#666666" points="440,-169 308,-169 308,-150 440,-150 440,-169"/>
<text text-anchor="middle" x="374" y="-157" font-family="Helvetica,sans-Serif" font-size="10.00">Digital_dual_LED::turn_red</text>
</a>
</g>
</g>
<!-- Node9&#45;&gt;Node12 -->
<g id="edge11" class="edge">
<title>Node9&#45;&gt;Node12</title>
<path fill="none" stroke="#63b8ff" d="M271.79,-183.35C287.4,-179.67 304.31,-175.69 319.76,-172.05"/>
<polygon fill="#63b8ff" stroke="#63b8ff" points="320.31,-175.51 329.24,-169.81 318.7,-168.7 320.31,-175.51"/>
</g>
<!-- Node14 -->
<g id="node14" class="node">
<title>Node14</title>
<g id="a_node14"><a xlink:href="classhd44780___i2_cexp.html#a9f885fdf91ca52fd05158387ee4bedcd" target="_top" xlink:title="Borra el texto de la pantalla.">
<polygon fill="white" stroke="#666666" points="432,-132 316,-132 316,-113 432,-113 432,-132"/>
<text text-anchor="middle" x="374" y="-120" font-family="Helvetica,sans-Serif" font-size="10.00">hd44780_I2Cexp::clear</text>
</a>
</g>
</g>
<!-- Node13&#45;&gt;Node14 -->
<g id="edge13" class="edge">
<title>Node13&#45;&gt;Node14</title>
<path fill="none" stroke="#63b8ff" d="M257.25,-94.48C276.64,-99.18 299.99,-104.83 320.62,-109.82"/>
<polygon fill="#63b8ff" stroke="#63b8ff" points="319.74,-113.21 330.28,-112.16 321.39,-106.41 319.74,-113.21"/>
</g>
<!-- Node15 -->
<g id="node15" class="node">
<title>Node15</title>
<g id="a_node15"><a xlink:href="classhd44780___i2_cexp.html#a13020db13c26b6d7ba6ff2ebb42e4053" target="_top" xlink:title="Mueve el cursor.">
<polygon fill="white" stroke="#666666" points="602.5,-56 480.5,-56 480.5,-37 602.5,-37 602.5,-56"/>
<text text-anchor="middle" x="541.5" y="-44" font-family="Helvetica,sans-Serif" font-size="10.00">hd44780_I2Cexp::cursor</text>
</a>
</g>
</g>
<!-- Node13&#45;&gt;Node15 -->
<g id="edge14" class="edge">
<title>Node13&#45;&gt;Node15</title>
<path fill="none" stroke="#63b8ff" d="M257.42,-82.26C302.49,-79.52 376.58,-74.16 440,-65.5 453.61,-63.64 468.17,-61.17 481.86,-58.63"/>
<polygon fill="#63b8ff" stroke="#63b8ff" points="482.46,-62.08 491.63,-56.77 481.15,-55.2 482.46,-62.08"/>
</g>
<!-- Node16 -->
<g id="node16" class="node">
<title>Node16</title>
<g id="a_node16"><a xlink:href="classhd44780___i2_cexp.html#ab25b744a9de62f700d5736864640d21b" target="_top" xlink:title="Lleva el cursor al origen de coordenadas.">
<polygon fill="white" stroke="#666666" points="433.5,-56 314.5,-56 314.5,-37 433.5,-37 433.5,-56"/>
<text text-anchor="middle" x="374" y="-44" font-family="Helvetica,sans-Serif" font-size="10.00">hd44780_I2Cexp::home</text>
</a>
</g>
</g>
<!-- Node13&#45;&gt;Node16 -->
<g id="edge15" class="edge">
<title>Node13&#45;&gt;Node16</title>
<path fill="none" stroke="#63b8ff" d="M257.25,-74.52C276.64,-69.82 299.99,-64.17 320.62,-59.18"/>
<polygon fill="#63b8ff" stroke="#63b8ff" points="321.39,-62.59 330.28,-56.84 319.74,-55.79 321.39,-62.59"/>
</g>
<!-- Node17 -->
<g id="node17" class="node">
<title>Node17</title>
<g id="a_node17"><a xlink:href="classhd44780___i2_cexp.html#a284e20a480ae9d5ae529fc4676d14dd3" target="_top" xlink:title="Imprime una cadena de texto en la posición actual del cursor.">
<polygon fill="white" stroke="#666666" points="430.5,-19 317.5,-19 317.5,0 430.5,0 430.5,-19"/>
<text text-anchor="middle" x="374" y="-7" font-family="Helvetica,sans-Serif" font-size="10.00">hd44780_I2Cexp::print</text>
</a>
</g>
</g>
<!-- Node13&#45;&gt;Node17 -->
<g id="edge17" class="edge">
<title>Node13&#45;&gt;Node17</title>
<path fill="none" stroke="#63b8ff" d="M229.35,-74.52C246.67,-61.98 278.22,-40.53 308,-27.5 311.76,-25.85 315.71,-24.32 319.73,-22.9"/>
<polygon fill="#63b8ff" stroke="#63b8ff" points="320.57,-26.31 328.99,-19.88 318.4,-19.65 320.57,-26.31"/>
</g>
<!-- Node16&#45;&gt;Node15 -->
<g id="edge16" class="edge">
<title>Node16&#45;&gt;Node15</title>
<path fill="none" stroke="#63b8ff" d="M433.82,-46.5C445.1,-46.5 457.04,-46.5 468.69,-46.5"/>
<polygon fill="#63b8ff" stroke="#63b8ff" points="468.68,-50 478.68,-46.5 468.68,-43 468.68,-50"/>
</g>
<!-- Node17&#45;&gt;Node15 -->
<g id="edge18" class="edge">
<title>Node17&#45;&gt;Node15</title>
<path fill="none" stroke="#63b8ff" d="M419.35,-19.42C439.48,-23.92 463.5,-29.29 484.83,-34.05"/>
<polygon fill="#63b8ff" stroke="#63b8ff" points="484.03,-37.46 494.55,-36.23 485.55,-30.63 484.03,-37.46"/>
</g>
</g>
</svg>
        <g id="navigator" transform="translate(0 0)" fill="#404254">
                <rect fill="#f2f5e9" fill-opacity="0.5" stroke="#606060" stroke-width=".5" x="0" y="0" width="60" height="60"/>
                <use id="zoomplus" xlink:href="#zoomPlus" x="17" y="9" onmousedown="handleZoom(evt,'in')"/>
                <use id="zoomminus" xlink:href="#zoomMin" x="42" y="9" onmousedown="handleZoom(evt,'out')"/>
                <use id="reset" xlink:href="#resetDef" x="30" y="36" onmousedown="handleReset()"/>
                <g id="arrowUp" xlink:href="#dirArrow" transform="translate(30 24)" onmousedown="handlePan(0,-1)">
                  <use xlink:href="#rim" fill="#404040">
                        <set attributeName="fill" to="#808080" begin="arrowUp.mouseover" end="arrowUp.mouseout"/>
                  </use>
                  <path fill="none" stroke="white" stroke-width="1.5" d="M0,-3.0v7 M-2.5,-0.5L0,-3.0L2.5,-0.5"/>
                </g>
                <g id="arrowRight" xlink:href="#dirArrow" transform="rotate(90) translate(36 -43)" onmousedown="handlePan(1,0)">
                  <use xlink:href="#rim" fill="#404040">
                        <set attributeName="fill" to="#808080" begin="arrowRight.mouseover" end="arrowRight.mouseout"/>
                  </use>
                  <path fill="none" stroke="white" stroke-width="1.5" d="M0,-3.0v7 M-2.5,-0.5L0,-3.0L2.5,-0.5"/>
                </g>
                <g id="arrowDown" xlink:href="#dirArrow" transform="rotate(180) translate(-30 -48)" onmousedown="handlePan(0,1)">
                  <use xlink:href="#rim" fill="#404040">
                        <set attributeName="fill" to="#808080" begin="arrowDown.mouseover" end="arrowDown.mouseout"/>
                  </use>
                  <path fill="none" stroke="white" stroke-width="1.5" d="M0,-3.0v7 M-2.5,-0.5L0,-3.0L2.5,-0.5"/>
                </g>
                <g id="arrowLeft" xlink:href="#dirArrow" transform="rotate(270) translate(-36 17)" onmousedown="handlePan(-1,0)">
                  <use xlink:href="#rim" fill="#404040">
                        <set attributeName="fill" to="#808080" begin="arrowLeft.mouseover" end="arrowLeft.mouseout"/>
                  </use>
                  <path fill="none" stroke="white" stroke-width="1.5" d="M0,-3.0v7 M-2.5,-0.5L0,-3.0L2.5,-0.5"/>
                </g>
        </g>
        <svg viewBox="0 0 15 15" width="100%" height="30px" preserveAspectRatio="xMaxYMin meet">
         <g id="arrow_out" transform="scale(0.3 0.3)">
          <a xlink:href="class_check__instruction__state_a161d1ccae3db7c6ac372b56877dc05f2_cgraph_org.svg" target="_base">
           <rect id="button" ry="5" rx="5" y="6" x="6" height="38" width="38"
                fill="#f2f5e9" fill-opacity="0.5" stroke="#606060" stroke-width="1.0"/>
           <path id="arrow"
             d="M 11.500037,31.436501 C 11.940474,20.09759 22.043105,11.32322 32.158766,21.979434 L 37.068811,17.246167 C 37.068811,17.246167 37.088388,32 37.088388,32 L 22.160133,31.978069 C 22.160133,31.978069 26.997745,27.140456 26.997745,27.140456 C 18.528582,18.264221 13.291696,25.230495 11.500037,31.436501 z"
             style="fill:#404040;"/>
          </a>
         </g>
        </svg>
</svg>
