<?xml version="1.0" encoding="UTF-8" standalone="no"?>
<!DOCTYPE svg PUBLIC "-//W3C//DTD SVG 1.1//EN"
 "http://www.w3.org/Graphics/SVG/1.1/DTD/svg11.dtd">
<!-- Generated by graphviz version 7.0.2 (20221119.0110)
 -->
<!-- Title: Subject_interface Pages: 1 -->
<svg width="100pt" height="137pt"
 viewBox="0.00 0.00 100.00 137.00" xmlns="http://www.w3.org/2000/svg" xmlns:xlink="http://www.w3.org/1999/xlink">
<g id="graph0" class="graph" transform="scale(1 1) rotate(0) translate(4 133)">
<title>Subject_interface</title>
<!-- Node1 -->
<g id="node1" class="node">
<title>Node1</title>
<g id="a_node1"><a xlink:title="Clase interfaz para implementar el patrón de diseño Observer.">
<polygon fill="#999999" stroke="#666666" points="92,-129 0,-129 0,-110 92,-110 92,-129"/>
<text text-anchor="middle" x="46" y="-117" font-family="Helvetica,sans-Serif" font-size="10.00">Subject_interface</text>
</a>
</g>
</g>
<!-- Node2 -->
<g id="node2" class="node">
<title>Node2</title>
<g id="a_node2"><a xlink:href="class_subject.html" target="_top" xlink:title="Clase base para crear sujetos a observar, hereda de la interfaz Subject_interface.">
<polygon fill="white" stroke="#666666" points="71,-74 21,-74 21,-55 71,-55 71,-74"/>
<text text-anchor="middle" x="46" y="-62" font-family="Helvetica,sans-Serif" font-size="10.00">Subject</text>
</a>
</g>
</g>
<!-- Node1&#45;&gt;Node2 -->
<g id="edge1" class="edge">
<title>Node1&#45;&gt;Node2</title>
<path fill="none" stroke="#63b8ff" d="M46,-98.35C46,-90.1 46,-80.97 46,-74.44"/>
<polygon fill="#63b8ff" stroke="#63b8ff" points="42.5,-98.23 46,-108.23 49.5,-98.23 42.5,-98.23"/>
</g>
<!-- Node3 -->
<g id="node3" class="node">
<title>Node3</title>
<g id="a_node3"><a xlink:href="class_control__system.html" target="_top" xlink:title="Clase control_system. Tiene de clases amigas todos los estados del sistema.">
<polygon fill="white" stroke="#666666" points="88.5,-19 3.5,-19 3.5,0 88.5,0 88.5,-19"/>
<text text-anchor="middle" x="46" y="-7" font-family="Helvetica,sans-Serif" font-size="10.00">Control_system</text>
</a>
</g>
</g>
<!-- Node2&#45;&gt;Node3 -->
<g id="edge2" class="edge">
<title>Node2&#45;&gt;Node3</title>
<path fill="none" stroke="#63b8ff" d="M46,-43.35C46,-35.1 46,-25.97 46,-19.44"/>
<polygon fill="#63b8ff" stroke="#63b8ff" points="42.5,-43.23 46,-53.23 49.5,-43.23 42.5,-43.23"/>
</g>
</g>
</svg>
