<?xml version="1.0" encoding="UTF-8" standalone="no"?>
<!DOCTYPE svg PUBLIC "-//W3C//DTD SVG 1.1//EN"
 "http://www.w3.org/Graphics/SVG/1.1/DTD/svg11.dtd">
<!-- Generated by graphviz version 7.0.2 (20221119.0110)
 -->
<!-- Title: hd44780_I2Cexp::cursor Pages: 1 -->
<svg width="904pt" height="162pt"
 viewBox="0.00 0.00 904.00 161.50" xmlns="http://www.w3.org/2000/svg" xmlns:xlink="http://www.w3.org/1999/xlink">
<g id="graph0" class="graph" transform="scale(1 1) rotate(0) translate(4 157.5)">
<title>hd44780_I2Cexp::cursor</title>
<!-- Node1 -->
<g id="node1" class="node">
<title>Node1</title>
<g id="a_node1"><a xlink:title="Mueve el cursor.">
<polygon fill="#999999" stroke="#666666" points="896,-74 774,-74 774,-55 896,-55 896,-74"/>
<text text-anchor="middle" x="835" y="-62" font-family="Helvetica,sans-Serif" font-size="10.00">hd44780_I2Cexp::cursor</text>
</a>
</g>
</g>
<!-- Node2 -->
<g id="node2" class="node">
<title>Node2</title>
<g id="a_node2"><a xlink:href="classhd44780___i2_cexp.html#ab25b744a9de62f700d5736864640d21b" target="_top" xlink:title="Lleva el cursor al origen de coordenadas.">
<polygon fill="white" stroke="#666666" points="738,-112 619,-112 619,-93 738,-93 738,-112"/>
<text text-anchor="middle" x="678.5" y="-100" font-family="Helvetica,sans-Serif" font-size="10.00">hd44780_I2Cexp::home</text>
</a>
</g>
</g>
<!-- Node1&#45;&gt;Node2 -->
<g id="edge1" class="edge">
<title>Node1&#45;&gt;Node2</title>
<path fill="none" stroke="#63b8ff" d="M782.45,-77.18C762.15,-82.17 739.17,-87.82 720.09,-92.52"/>
<polygon fill="#63b8ff" stroke="#63b8ff" points="783.06,-80.63 791.94,-74.85 781.39,-73.84 783.06,-80.63"/>
</g>
<!-- Node7 -->
<g id="node7" class="node">
<title>Node7</title>
<g id="a_node7"><a xlink:href="class_display.html#ad2740b779d61e461c4dcaaf34f1fcd8f" target="_top" xlink:title="Actualiza los valores en pantalla con los parámetros previamente fijados. Solo actualiza la pantalla ...">
<polygon fill="white" stroke="#666666" points="568.5,-74 484.5,-74 484.5,-55 568.5,-55 568.5,-74"/>
<text text-anchor="middle" x="526.5" y="-62" font-family="Helvetica,sans-Serif" font-size="10.00">Display::update</text>
</a>
</g>
</g>
<!-- Node1&#45;&gt;Node7 -->
<g id="edge13" class="edge">
<title>Node1&#45;&gt;Node7</title>
<path fill="none" stroke="#63b8ff" d="M762.5,-64.5C702.36,-64.5 618.49,-64.5 568.91,-64.5"/>
<polygon fill="#63b8ff" stroke="#63b8ff" points="762.3,-68 772.3,-64.5 762.3,-61 762.3,-68"/>
</g>
<!-- Node11 -->
<g id="node11" class="node">
<title>Node11</title>
<g id="a_node11"><a xlink:href="classhd44780___i2_cexp.html#a284e20a480ae9d5ae529fc4676d14dd3" target="_top" xlink:title="Imprime una cadena de texto en la posición actual del cursor.">
<polygon fill="white" stroke="#666666" points="735,-36 622,-36 622,-17 735,-17 735,-36"/>
<text text-anchor="middle" x="678.5" y="-24" font-family="Helvetica,sans-Serif" font-size="10.00">hd44780_I2Cexp::print</text>
</a>
</g>
</g>
<!-- Node1&#45;&gt;Node11 -->
<g id="edge10" class="edge">
<title>Node1&#45;&gt;Node11</title>
<path fill="none" stroke="#63b8ff" d="M782.45,-51.82C762.15,-46.83 739.17,-41.18 720.09,-36.48"/>
<polygon fill="#63b8ff" stroke="#63b8ff" points="781.39,-55.16 791.94,-54.15 783.06,-48.37 781.39,-55.16"/>
</g>
<!-- Node3 -->
<g id="node3" class="node">
<title>Node3</title>
<g id="a_node3"><a xlink:href="class_display.html#aacbf91b9f8c57fc2cb892c45fd44e655" target="_top" xlink:title="Método para inicializar el objeto, sólo se puede luego o en setup().">
<polygon fill="white" stroke="#666666" points="560.5,-136 492.5,-136 492.5,-117 560.5,-117 560.5,-136"/>
<text text-anchor="middle" x="526.5" y="-124" font-family="Helvetica,sans-Serif" font-size="10.00">Display::init</text>
</a>
</g>
</g>
<!-- Node2&#45;&gt;Node3 -->
<g id="edge2" class="edge">
<title>Node2&#45;&gt;Node3</title>
<path fill="none" stroke="#63b8ff" d="M607.44,-113.71C591.12,-116.32 574.5,-118.98 560.66,-121.19"/>
<polygon fill="#63b8ff" stroke="#63b8ff" points="607.83,-117.19 617.15,-112.16 606.72,-110.28 607.83,-117.19"/>
</g>
<!-- Node2&#45;&gt;Node7 -->
<g id="edge6" class="edge">
<title>Node2&#45;&gt;Node7</title>
<path fill="none" stroke="#63b8ff" d="M627.17,-89.75C607.53,-84.77 585.35,-79.16 566.91,-74.48"/>
<polygon fill="#63b8ff" stroke="#63b8ff" points="626.07,-93.08 636.62,-92.14 627.79,-86.3 626.07,-93.08"/>
</g>
<!-- Node4 -->
<g id="node4" class="node">
<title>Node4</title>
<g id="a_node4"><a xlink:href="class_control__system.html#aad36c88c9e5589336213848de7837091" target="_top" xlink:title="Inicializa el display lcd del sistema.">
<polygon fill="white" stroke="#666666" points="425,-153.5 321,-153.5 321,-123.5 425,-123.5 425,-153.5"/>
<text text-anchor="start" x="329" y="-141.5" font-family="Helvetica,sans-Serif" font-size="10.00">Control_system::init</text>
<text text-anchor="middle" x="373" y="-130.5" font-family="Helvetica,sans-Serif" font-size="10.00">_display</text>
</a>
</g>
</g>
<!-- Node3&#45;&gt;Node4 -->
<g id="edge3" class="edge">
<title>Node3&#45;&gt;Node4</title>
<path fill="none" stroke="#63b8ff" d="M481.2,-130.01C463.7,-131.4 443.47,-133 425.34,-134.43"/>
<polygon fill="#63b8ff" stroke="#63b8ff" points="481.05,-133.53 490.74,-129.25 480.5,-126.55 481.05,-133.53"/>
</g>
<!-- Node5 -->
<g id="node5" class="node">
<title>Node5</title>
<g id="a_node5"><a xlink:href="class_shutdown__state.html#accbc4c856709e26453e2e23c5c1e4f8e" target="_top" xlink:title="Salida del estado, resetea las variables del sistema e incializa la pantalla.">
<polygon fill="white" stroke="#666666" points="276,-148 168,-148 168,-129 276,-129 276,-148"/>
<text text-anchor="middle" x="222" y="-136" font-family="Helvetica,sans-Serif" font-size="10.00">Shutdown_state::exit</text>
</a>
</g>
</g>
<!-- Node4&#45;&gt;Node5 -->
<g id="edge4" class="edge">
<title>Node4&#45;&gt;Node5</title>
<path fill="none" stroke="#63b8ff" d="M309.44,-138.5C298.45,-138.5 287.11,-138.5 276.4,-138.5"/>
<polygon fill="#63b8ff" stroke="#63b8ff" points="309.21,-142 319.21,-138.5 309.21,-135 309.21,-142"/>
</g>
<!-- Node6 -->
<g id="node6" class="node">
<title>Node6</title>
<g id="a_node6"><a xlink:href="class_shutdown__state.html#ae02b2fd80173aa50afcd73faba01b9be" target="_top" xlink:title="Transicion de estados.">
<polygon fill="white" stroke="#666666" points="132,-148 0,-148 0,-129 132,-129 132,-148"/>
<text text-anchor="middle" x="66" y="-136" font-family="Helvetica,sans-Serif" font-size="10.00">Shutdown_state::transition</text>
</a>
</g>
</g>
<!-- Node5&#45;&gt;Node6 -->
<g id="edge5" class="edge">
<title>Node5&#45;&gt;Node6</title>
<path fill="none" stroke="#63b8ff" d="M156.16,-138.5C148.26,-138.5 140.19,-138.5 132.28,-138.5"/>
<polygon fill="#63b8ff" stroke="#63b8ff" points="156.06,-142 166.06,-138.5 156.06,-135 156.06,-142"/>
</g>
<!-- Node8 -->
<g id="node8" class="node">
<title>Node8</title>
<g id="a_node8"><a xlink:href="class_alarm__state.html#acea6eee2b8d267b67192bbce9e495038" target="_top" xlink:title="Actualización, cambia el color del LED según el estado del motor y hace sonar la alarma....">
<polygon fill="white" stroke="#666666" points="425,-105 321,-105 321,-86 425,-86 425,-105"/>
<text text-anchor="middle" x="373" y="-93" font-family="Helvetica,sans-Serif" font-size="10.00">Alarm_state::update</text>
</a>
</g>
</g>
<!-- Node7&#45;&gt;Node8 -->
<g id="edge7" class="edge">
<title>Node7&#45;&gt;Node8</title>
<path fill="none" stroke="#63b8ff" d="M473.06,-75.23C456.69,-78.58 438.7,-82.26 422.6,-85.56"/>
<polygon fill="#63b8ff" stroke="#63b8ff" points="473.52,-78.71 482.62,-73.27 472.12,-71.85 473.52,-78.71"/>
</g>
<!-- Node9 -->
<g id="node9" class="node">
<title>Node9</title>
<g id="a_node9"><a xlink:href="class_check__instruction__state.html#a161d1ccae3db7c6ac372b56877dc05f2" target="_top" xlink:title="Método para actualizar el estado.">
<polygon fill="white" stroke="#666666" points="434,-67.5 312,-67.5 312,-37.5 434,-37.5 434,-67.5"/>
<text text-anchor="start" x="320" y="-55.5" font-family="Helvetica,sans-Serif" font-size="10.00">Check_instruction_state</text>
<text text-anchor="middle" x="373" y="-44.5" font-family="Helvetica,sans-Serif" font-size="10.00">::update</text>
</a>
</g>
</g>
<!-- Node7&#45;&gt;Node9 -->
<g id="edge8" class="edge">
<title>Node7&#45;&gt;Node9</title>
<path fill="none" stroke="#63b8ff" d="M472.97,-60.34C460.52,-59.35 447.15,-58.29 434.38,-57.28"/>
<polygon fill="#63b8ff" stroke="#63b8ff" points="472.35,-63.8 482.59,-61.1 472.9,-56.82 472.35,-63.8"/>
</g>
<!-- Node10 -->
<g id="node10" class="node">
<title>Node10</title>
<g id="a_node10"><a xlink:href="class_idle__state.html#a92217c98eda8e3bd47eb3a8ff602efc2" target="_top" xlink:title="Método para actualizar el sistema cuando está en estado de reposo. Actualiza la pantalla y los observ...">
<polygon fill="white" stroke="#666666" points="420,-19 326,-19 326,0 420,0 420,-19"/>
<text text-anchor="middle" x="373" y="-7" font-family="Helvetica,sans-Serif" font-size="10.00">Idle_state::update</text>
</a>
</g>
</g>
<!-- Node7&#45;&gt;Node10 -->
<g id="edge9" class="edge">
<title>Node7&#45;&gt;Node10</title>
<path fill="none" stroke="#63b8ff" d="M485.78,-50.58C480.46,-48.6 475.08,-46.54 470,-44.5 453.75,-37.97 450.37,-34.71 434,-28.5 425.62,-25.32 416.46,-22.23 407.86,-19.5"/>
<polygon fill="#63b8ff" stroke="#63b8ff" points="484.53,-53.85 495.12,-53.99 486.93,-47.28 484.53,-53.85"/>
</g>
<!-- Node11&#45;&gt;Node7 -->
<g id="edge12" class="edge">
<title>Node11&#45;&gt;Node7</title>
<path fill="none" stroke="#63b8ff" d="M627.17,-39.25C607.53,-44.23 585.35,-49.84 566.91,-54.52"/>
<polygon fill="#63b8ff" stroke="#63b8ff" points="627.79,-42.7 636.62,-36.86 626.07,-35.92 627.79,-42.7"/>
</g>
<!-- Node12 -->
<g id="node12" class="node">
<title>Node12</title>
<g id="a_node12"><a xlink:href="classhd44780___i2_cexp.html#a09bc6db023d62c79fe753d85cc0567ee" target="_top" xlink:title="Imprime un número entero en la posición actual del cursor.">
<polygon fill="white" stroke="#666666" points="583,-36 470,-36 470,-17 583,-17 583,-36"/>
<text text-anchor="middle" x="526.5" y="-24" font-family="Helvetica,sans-Serif" font-size="10.00">hd44780_I2Cexp::print</text>
</a>
</g>
</g>
<!-- Node11&#45;&gt;Node12 -->
<g id="edge11" class="edge">
<title>Node11&#45;&gt;Node12</title>
<path fill="none" stroke="#63b8ff" d="M610.36,-26.5C601.35,-26.5 592.19,-26.5 583.4,-26.5"/>
<polygon fill="#63b8ff" stroke="#63b8ff" points="610.13,-30 620.13,-26.5 610.13,-23 610.13,-30"/>
</g>
</g>
</svg>
