<?xml version="1.0" encoding="UTF-8" standalone="no"?>
<!DOCTYPE svg PUBLIC "-//W3C//DTD SVG 1.1//EN"
 "http://www.w3.org/Graphics/SVG/1.1/DTD/svg11.dtd">
<!-- Generated by graphviz version 7.0.2 (20221119.0110)
 -->
<!-- Title: Control_system::handle_alarm Pages: 1 -->
<svg width="420pt" height="307pt"
 viewBox="0.00 0.00 420.00 306.65" xmlns="http://www.w3.org/2000/svg" xmlns:xlink="http://www.w3.org/1999/xlink">
<g id="graph0" class="graph" transform="scale(1 1) rotate(0) translate(4 302.65)">
<title>Control_system::handle_alarm</title>
<!-- Node1 -->
<g id="node1" class="node">
<title>Node1</title>
<g id="a_node1"><a xlink:title="Según la variable context.current_alarm resuelve el comportamiento de la alarma.">
<polygon fill="#999999" stroke="#666666" points="119,-173.5 0,-173.5 0,-143.5 119,-143.5 119,-173.5"/>
<text text-anchor="start" x="8" y="-161.5" font-family="Helvetica,sans-Serif" font-size="10.00">Control_system::handle</text>
<text text-anchor="middle" x="59.5" y="-150.5" font-family="Helvetica,sans-Serif" font-size="10.00">_alarm</text>
</a>
</g>
</g>
<!-- Node2 -->
<g id="node2" class="node">
<title>Node2</title>
<g id="a_node2"><a xlink:href="class_display.html#a87d1e7bf73a1d14b5e76c9ab647a9e93" target="_top" xlink:title="Fija el el texto a actualizar, no lo imprime en pantalla. La ubicación se da con las constantes de of...">
<polygon fill="white" stroke="#666666" points="404,-288 314,-288 314,-269 404,-269 404,-288"/>
<text text-anchor="middle" x="359" y="-276" font-family="Helvetica,sans-Serif" font-size="10.00">Display::set_text</text>
</a>
</g>
</g>
<!-- Node1&#45;&gt;Node2 -->
<g id="edge1" class="edge">
<title>Node1&#45;&gt;Node2</title>
<path fill="none" stroke="#63b8ff" d="M66.76,-173.87C78.97,-201.49 108.86,-258.77 155,-281.5 203.94,-305.62 267.93,-299.47 310.86,-290.84"/>
<polygon fill="#63b8ff" stroke="#63b8ff" points="311.59,-294.26 320.63,-288.74 310.12,-287.42 311.59,-294.26"/>
</g>
<!-- Node3 -->
<g id="node3" class="node">
<title>Node3</title>
<g id="a_node3"><a xlink:href="class_control__system.html#a62a2c6a8167ade6a6ae054393b91d381" target="_top" xlink:title="Muestra el mensaje de error por pantalla.">
<polygon fill="white" stroke="#666666" points="269,-272.5 156,-272.5 156,-242.5 269,-242.5 269,-272.5"/>
<text text-anchor="start" x="164" y="-260.5" font-family="Helvetica,sans-Serif" font-size="10.00">Control_system::show</text>
<text text-anchor="middle" x="212.5" y="-249.5" font-family="Helvetica,sans-Serif" font-size="10.00">_error_msg</text>
</a>
</g>
</g>
<!-- Node1&#45;&gt;Node3 -->
<g id="edge2" class="edge">
<title>Node1&#45;&gt;Node3</title>
<path fill="none" stroke="#63b8ff" d="M76.9,-173.8C94.99,-190.11 125.47,-215.95 155,-233.5 157,-234.69 159.08,-235.85 161.2,-236.98"/>
<polygon fill="#63b8ff" stroke="#63b8ff" points="159.46,-240.03 169.97,-241.35 162.58,-233.76 159.46,-240.03"/>
</g>
<!-- Node4 -->
<g id="node4" class="node">
<title>Node4</title>
<g id="a_node4"><a xlink:href="class_dual___l_e_d.html#ab1cd238e00901ca9556914a38d3a064c" target="_top" xlink:title="Enciende el LED en verde.">
<polygon fill="white" stroke="#666666" points="268.5,-224 156.5,-224 156.5,-205 268.5,-205 268.5,-224"/>
<text text-anchor="middle" x="212.5" y="-212" font-family="Helvetica,sans-Serif" font-size="10.00">Dual_LED::turn_green</text>
</a>
</g>
</g>
<!-- Node1&#45;&gt;Node4 -->
<g id="edge4" class="edge">
<title>Node1&#45;&gt;Node4</title>
<path fill="none" stroke="#63b8ff" d="M97.06,-173.93C114.49,-181.1 135.7,-189.56 155,-196.5 159.19,-198.01 163.57,-199.52 167.96,-200.99"/>
<polygon fill="#63b8ff" stroke="#63b8ff" points="166.76,-204.28 177.36,-204.06 168.94,-197.63 166.76,-204.28"/>
</g>
<!-- Node7 -->
<g id="node7" class="node">
<title>Node7</title>
<g id="a_node7"><a xlink:href="class_cooler.html#a3aa26bc227fa7a2bdcff9fe607990104" target="_top" xlink:title="Apaga el ventilador.">
<polygon fill="white" stroke="#666666" points="400,-84 318,-84 318,-65 400,-65 400,-84"/>
<text text-anchor="middle" x="359" y="-72" font-family="Helvetica,sans-Serif" font-size="10.00">Cooler::turn_off</text>
</a>
</g>
</g>
<!-- Node1&#45;&gt;Node7 -->
<g id="edge7" class="edge">
<title>Node1&#45;&gt;Node7</title>
<path fill="none" stroke="#63b8ff" d="M97.36,-143.16C114.67,-136.3 135.7,-128.43 155,-122.5 205.79,-106.9 265.03,-93.41 306.36,-84.74"/>
<polygon fill="#63b8ff" stroke="#63b8ff" points="306.96,-88.19 316.04,-82.74 305.54,-81.34 306.96,-88.19"/>
</g>
<!-- Node8 -->
<g id="node8" class="node">
<title>Node8</title>
<g id="a_node8"><a xlink:href="class_motor.html#a9a1613b24a5dd07a8c515e82d8e0edeb" target="_top" xlink:title="Apaga el motor.">
<polygon fill="white" stroke="#666666" points="252,-19 173,-19 173,0 252,0 252,-19"/>
<text text-anchor="middle" x="212.5" y="-7" font-family="Helvetica,sans-Serif" font-size="10.00">Motor::turn_off</text>
</a>
</g>
</g>
<!-- Node1&#45;&gt;Node8 -->
<g id="edge8" class="edge">
<title>Node1&#45;&gt;Node8</title>
<path fill="none" stroke="#63b8ff" d="M67.5,-143.1C80.7,-115.78 111.86,-58.77 155,-27.5 157.3,-25.83 159.76,-24.32 162.31,-22.94"/>
<polygon fill="#63b8ff" stroke="#63b8ff" points="163.51,-26.24 171.16,-18.9 160.61,-19.87 163.51,-26.24"/>
</g>
<!-- Node9 -->
<g id="node9" class="node">
<title>Node9</title>
<g id="a_node9"><a xlink:href="class_cooler.html#aa98fd302dc7933fc21c046ca3ea48346" target="_top" xlink:title="Enciende el ventilador. Si el ciclo de trabajo deseado es menor que FAN_MINIMUM_DUTY_CYCLE apaga el v...">
<polygon fill="white" stroke="#666666" points="254,-56 171,-56 171,-37 254,-37 254,-56"/>
<text text-anchor="middle" x="212.5" y="-44" font-family="Helvetica,sans-Serif" font-size="10.00">Cooler::turn_on</text>
</a>
</g>
</g>
<!-- Node1&#45;&gt;Node9 -->
<g id="edge9" class="edge">
<title>Node1&#45;&gt;Node9</title>
<path fill="none" stroke="#63b8ff" d="M81.18,-143.16C109.48,-122.17 160.08,-84.64 189.2,-63.04"/>
<polygon fill="#63b8ff" stroke="#63b8ff" points="191.03,-66.04 196.98,-57.27 186.86,-60.42 191.03,-66.04"/>
</g>
<!-- Node10 -->
<g id="node10" class="node">
<title>Node10</title>
<g id="a_node10"><a xlink:href="class_dual___l_e_d.html#a8734a816df04661d86e3ccbf88159eb0" target="_top" xlink:title="Enciende el LED en rojo.">
<polygon fill="white" stroke="#666666" points="263,-187 162,-187 162,-168 263,-168 263,-187"/>
<text text-anchor="middle" x="212.5" y="-175" font-family="Helvetica,sans-Serif" font-size="10.00">Dual_LED::turn_red</text>
</a>
</g>
</g>
<!-- Node1&#45;&gt;Node10 -->
<g id="edge12" class="edge">
<title>Node1&#45;&gt;Node10</title>
<path fill="none" stroke="#63b8ff" d="M119.31,-165.9C129.54,-167.19 140.2,-168.53 150.49,-169.82"/>
<polygon fill="#63b8ff" stroke="#63b8ff" points="150.04,-173.29 160.4,-171.07 150.91,-166.35 150.04,-173.29"/>
</g>
<!-- Node11 -->
<g id="node11" class="node">
<title>Node11</title>
<g id="a_node11"><a xlink:href="class_dual___l_e_d.html#aabc0462521bcc08ea7f6f04642f7e89d" target="_top" xlink:title="Enciende el LED en amarillo. El comportamiento es indefinido para pines no PWM.">
<polygon fill="white" stroke="#666666" points="270,-150 155,-150 155,-131 270,-131 270,-150"/>
<text text-anchor="middle" x="212.5" y="-138" font-family="Helvetica,sans-Serif" font-size="10.00">Dual_LED::turn_yellow</text>
</a>
</g>
</g>
<!-- Node1&#45;&gt;Node11 -->
<g id="edge15" class="edge">
<title>Node1&#45;&gt;Node11</title>
<path fill="none" stroke="#63b8ff" d="M119.31,-151.49C127.19,-150.55 135.33,-149.58 143.35,-148.62"/>
<polygon fill="#63b8ff" stroke="#63b8ff" points="143.56,-152.12 153.08,-147.46 142.73,-145.17 143.56,-152.12"/>
</g>
<!-- Node3&#45;&gt;Node2 -->
<g id="edge3" class="edge">
<title>Node3&#45;&gt;Node2</title>
<path fill="none" stroke="#63b8ff" d="M269.37,-265.62C280.33,-267.21 291.83,-268.88 302.77,-270.47"/>
<polygon fill="#63b8ff" stroke="#63b8ff" points="302.03,-273.9 312.43,-271.88 303.04,-266.98 302.03,-273.9"/>
</g>
<!-- Node5 -->
<g id="node5" class="node">
<title>Node5</title>
<g id="a_node5"><a xlink:href="class_dual___l_e_d.html#aeb163748acf071a1652c56ae1dff9d52" target="_top" xlink:title="Fija el color del led, no enciende el led,.">
<polygon fill="white" stroke="#666666" points="412,-205 306,-205 306,-186 412,-186 412,-205"/>
<text text-anchor="middle" x="359" y="-193" font-family="Helvetica,sans-Serif" font-size="10.00">Dual_LED::set_color</text>
</a>
</g>
</g>
<!-- Node4&#45;&gt;Node5 -->
<g id="edge5" class="edge">
<title>Node4&#45;&gt;Node5</title>
<path fill="none" stroke="#63b8ff" d="M268.95,-207.21C277.27,-206.11 285.9,-204.98 294.37,-203.87"/>
<polygon fill="#63b8ff" stroke="#63b8ff" points="294.82,-207.34 304.28,-202.56 293.91,-200.4 294.82,-207.34"/>
</g>
<!-- Node6 -->
<g id="node6" class="node">
<title>Node6</title>
<g id="a_node6"><a xlink:href="class_dual___l_e_d.html#a8b13294b883897eb83f91bf90a3a11cd" target="_top" xlink:title="Enciende el LED en el color actual.">
<polygon fill="white" stroke="#666666" points="408,-168 310,-168 310,-149 408,-149 408,-168"/>
<text text-anchor="middle" x="359" y="-156" font-family="Helvetica,sans-Serif" font-size="10.00">Dual_LED::turn_on</text>
</a>
</g>
</g>
<!-- Node4&#45;&gt;Node6 -->
<g id="edge6" class="edge">
<title>Node4&#45;&gt;Node6</title>
<path fill="none" stroke="#63b8ff" d="M248.21,-204.51C255.5,-202.12 263.07,-199.41 270,-196.5 286.68,-189.5 289.47,-184.84 306,-177.5 309.83,-175.8 313.86,-174.13 317.91,-172.53"/>
<polygon fill="#63b8ff" stroke="#63b8ff" points="319.06,-175.83 327.16,-169.01 316.57,-169.29 319.06,-175.83"/>
</g>
<!-- Node9&#45;&gt;Node7 -->
<g id="edge10" class="edge">
<title>Node9&#45;&gt;Node7</title>
<path fill="none" stroke="#63b8ff" d="M254.14,-54.37C270.43,-57.53 289.4,-61.21 306.64,-64.55"/>
<polygon fill="#63b8ff" stroke="#63b8ff" points="305.7,-67.93 316.18,-66.4 307.03,-61.06 305.7,-67.93"/>
</g>
<!-- Node9&#45;&gt;Node9 -->
<g id="edge11" class="edge">
<title>Node9&#45;&gt;Node9</title>
<path fill="none" stroke="#63b8ff" d="M189.56,-56.37C179.1,-64.94 186.75,-74 212.5,-74 226.58,-74 235.25,-71.29 238.5,-67.43"/>
<polygon fill="#63b8ff" stroke="#63b8ff" points="241.89,-66.53 235.84,-57.83 235.14,-68.4 241.89,-66.53"/>
</g>
<!-- Node10&#45;&gt;Node5 -->
<g id="edge13" class="edge">
<title>Node10&#45;&gt;Node5</title>
<path fill="none" stroke="#63b8ff" d="M263.23,-183.69C273.3,-184.95 284.02,-186.28 294.49,-187.59"/>
<polygon fill="#63b8ff" stroke="#63b8ff" points="293.86,-191.04 304.22,-188.8 294.72,-184.09 293.86,-191.04"/>
</g>
<!-- Node10&#45;&gt;Node6 -->
<g id="edge14" class="edge">
<title>Node10&#45;&gt;Node6</title>
<path fill="none" stroke="#63b8ff" d="M263.23,-170.96C274.61,-169.46 286.82,-167.86 298.57,-166.31"/>
<polygon fill="#63b8ff" stroke="#63b8ff" points="298.69,-169.83 308.14,-165.06 297.77,-162.89 298.69,-169.83"/>
</g>
<!-- Node11&#45;&gt;Node5 -->
<g id="edge16" class="edge">
<title>Node11&#45;&gt;Node5</title>
<path fill="none" stroke="#63b8ff" d="M245.76,-150.49C253.76,-153.2 262.26,-156.28 270,-159.5 286.52,-166.37 289.51,-170.56 306,-177.5 309.39,-178.93 312.94,-180.33 316.52,-181.69"/>
<polygon fill="#63b8ff" stroke="#63b8ff" points="315.21,-184.94 325.81,-185.07 317.61,-178.36 315.21,-184.94"/>
</g>
<!-- Node11&#45;&gt;Node6 -->
<g id="edge17" class="edge">
<title>Node11&#45;&gt;Node6</title>
<path fill="none" stroke="#63b8ff" d="M270.2,-147.56C279.53,-148.72 289.22,-149.93 298.62,-151.1"/>
<polygon fill="#63b8ff" stroke="#63b8ff" points="298.02,-154.56 308.38,-152.32 298.89,-147.61 298.02,-154.56"/>
</g>
</g>
</svg>
