<?xml version="1.0" encoding="UTF-8" standalone="no"?>
<!DOCTYPE svg PUBLIC "-//W3C//DTD SVG 1.1//EN"
 "http://www.w3.org/Graphics/SVG/1.1/DTD/svg11.dtd">
<!-- Generated by graphviz version 7.0.2 (20221119.0110)
 -->
<!-- Title: Observer Pages: 1 -->
<svg width="338pt" height="192pt"
 viewBox="0.00 0.00 338.00 192.00" xmlns="http://www.w3.org/2000/svg" xmlns:xlink="http://www.w3.org/1999/xlink">
<g id="graph0" class="graph" transform="scale(1 1) rotate(0) translate(4 188)">
<title>Observer</title>
<!-- Node1 -->
<g id="node1" class="node">
<title>Node1</title>
<g id="a_node1"><a xlink:title="Clase Observer, utilizada como base del observador en una implementación del patrón de diseño Observe...">
<polygon fill="#999999" stroke="#666666" points="179.5,-129 124.5,-129 124.5,-110 179.5,-110 179.5,-129"/>
<text text-anchor="middle" x="152" y="-117" font-family="Helvetica,sans-Serif" font-size="10.00">Observer</text>
</a>
</g>
</g>
<!-- Node3 -->
<g id="node3" class="node">
<title>Node3</title>
<g id="a_node3"><a xlink:href="class_system__observer.html" target="_top" xlink:title="Clase interfaz para implementar observadores para sujetos de la clase Control_system.">
<polygon fill="white" stroke="#666666" points="198,-74 106,-74 106,-55 198,-55 198,-74"/>
<text text-anchor="middle" x="152" y="-62" font-family="Helvetica,sans-Serif" font-size="10.00">System_observer</text>
</a>
</g>
</g>
<!-- Node1&#45;&gt;Node3 -->
<g id="edge2" class="edge">
<title>Node1&#45;&gt;Node3</title>
<path fill="none" stroke="#63b8ff" d="M152,-98.35C152,-90.1 152,-80.97 152,-74.44"/>
<polygon fill="#63b8ff" stroke="#63b8ff" points="148.5,-98.23 152,-108.23 155.5,-98.23 148.5,-98.23"/>
</g>
<!-- Node2 -->
<g id="node2" class="node">
<title>Node2</title>
<g id="a_node2"><a xlink:href="class_observer__interface.html" target="_top" xlink:title="Interfaz para implementar el patrón de diseño Observer.">
<polygon fill="white" stroke="#666666" points="200.5,-184 103.5,-184 103.5,-165 200.5,-165 200.5,-184"/>
<text text-anchor="middle" x="152" y="-172" font-family="Helvetica,sans-Serif" font-size="10.00">Observer_interface</text>
</a>
</g>
</g>
<!-- Node2&#45;&gt;Node1 -->
<g id="edge1" class="edge">
<title>Node2&#45;&gt;Node1</title>
<path fill="none" stroke="#63b8ff" d="M152,-153.35C152,-145.1 152,-135.97 152,-129.44"/>
<polygon fill="#63b8ff" stroke="#63b8ff" points="148.5,-153.23 152,-163.23 155.5,-153.23 148.5,-153.23"/>
</g>
<!-- Node4 -->
<g id="node4" class="node">
<title>Node4</title>
<g id="a_node4"><a xlink:href="class_cooler__observer.html" target="_top" xlink:title="Clase heredera de System_observer, creada para observar el estado de las instrucciones.">
<polygon fill="white" stroke="#666666" points="86,-19 0,-19 0,0 86,0 86,-19"/>
<text text-anchor="middle" x="43" y="-7" font-family="Helvetica,sans-Serif" font-size="10.00">Cooler_observer</text>
</a>
</g>
</g>
<!-- Node3&#45;&gt;Node4 -->
<g id="edge3" class="edge">
<title>Node3&#45;&gt;Node4</title>
<path fill="none" stroke="#63b8ff" d="M123.28,-49.53C103.62,-39.97 78.14,-27.59 61.22,-19.36"/>
<polygon fill="#63b8ff" stroke="#63b8ff" points="121.62,-52.62 132.15,-53.85 124.69,-46.33 121.62,-52.62"/>
</g>
<!-- Node5 -->
<g id="node5" class="node">
<title>Node5</title>
<g id="a_node5"><a xlink:href="class_moisture__observer.html" target="_top" xlink:title="Clase heredera de System_observer, creada para observar el estado de los sensores de humedad.">
<polygon fill="white" stroke="#666666" points="199.5,-19 104.5,-19 104.5,0 199.5,0 199.5,-19"/>
<text text-anchor="middle" x="152" y="-7" font-family="Helvetica,sans-Serif" font-size="10.00">Moisture_observer</text>
</a>
</g>
</g>
<!-- Node3&#45;&gt;Node5 -->
<g id="edge4" class="edge">
<title>Node3&#45;&gt;Node5</title>
<path fill="none" stroke="#63b8ff" d="M152,-43.35C152,-35.1 152,-25.97 152,-19.44"/>
<polygon fill="#63b8ff" stroke="#63b8ff" points="148.5,-43.23 152,-53.23 155.5,-43.23 148.5,-43.23"/>
</g>
<!-- Node6 -->
<g id="node6" class="node">
<title>Node6</title>
<g id="a_node6"><a xlink:href="class_temperature__observer.html" target="_top" xlink:title="Clase heredera de System_observer, creada para observar el estado de los sensores de temperatura.">
<polygon fill="white" stroke="#666666" points="330,-19 218,-19 218,0 330,0 330,-19"/>
<text text-anchor="middle" x="274" y="-7" font-family="Helvetica,sans-Serif" font-size="10.00">Temperature_observer</text>
</a>
</g>
</g>
<!-- Node3&#45;&gt;Node6 -->
<g id="edge5" class="edge">
<title>Node3&#45;&gt;Node6</title>
<path fill="none" stroke="#63b8ff" d="M183.24,-49.93C205.36,-40.32 234.41,-27.7 253.61,-19.36"/>
<polygon fill="#63b8ff" stroke="#63b8ff" points="181.86,-46.71 174.08,-53.91 184.65,-53.13 181.86,-46.71"/>
</g>
</g>
</svg>
