<?xml version="1.0" encoding="UTF-8" standalone="no"?>
<!DOCTYPE svg PUBLIC "-//W3C//DTD SVG 1.1//EN"
 "http://www.w3.org/Graphics/SVG/1.1/DTD/svg11.dtd">
<!-- Generated by graphviz version 7.0.2 (20221119.0110)
 -->
<!-- Title: Control_system::notify_observers Pages: 1 -->
<svg width="280pt" height="124pt"
 viewBox="0.00 0.00 280.00 124.00" xmlns="http://www.w3.org/2000/svg" xmlns:xlink="http://www.w3.org/1999/xlink">
<g id="graph0" class="graph" transform="scale(1 1) rotate(0) translate(4 120)">
<title>Control_system::notify_observers</title>
<!-- Node1 -->
<g id="node1" class="node">
<title>Node1</title>
<g id="a_node1"><a xlink:title="Método virtual puro para que las clases herederas implementen la actualización de observadores.">
<polygon fill="#999999" stroke="#666666" points="272,-73 158,-73 158,-43 272,-43 272,-73"/>
<text text-anchor="start" x="166" y="-61" font-family="Helvetica,sans-Serif" font-size="10.00">Control_system::notify</text>
<text text-anchor="middle" x="215" y="-50" font-family="Helvetica,sans-Serif" font-size="10.00">_observers</text>
</a>
</g>
</g>
<!-- Node2 -->
<g id="node2" class="node">
<title>Node2</title>
<g id="a_node2"><a xlink:href="class_check__instruction__state.html#a161d1ccae3db7c6ac372b56877dc05f2" target="_top" xlink:title="Método para actualizar el estado.">
<polygon fill="white" stroke="#666666" points="122,-116 0,-116 0,-86 122,-86 122,-116"/>
<text text-anchor="start" x="8" y="-104" font-family="Helvetica,sans-Serif" font-size="10.00">Check_instruction_state</text>
<text text-anchor="middle" x="61" y="-93" font-family="Helvetica,sans-Serif" font-size="10.00">::update</text>
</a>
</g>
</g>
<!-- Node1&#45;&gt;Node2 -->
<g id="edge1" class="edge">
<title>Node1&#45;&gt;Node2</title>
<path fill="none" stroke="#63b8ff" d="M148.57,-76.51C137.9,-79.53 126.95,-82.63 116.58,-85.56"/>
<polygon fill="#63b8ff" stroke="#63b8ff" points="149.43,-79.9 158.1,-73.81 147.52,-73.17 149.43,-79.9"/>
</g>
<!-- Node3 -->
<g id="node3" class="node">
<title>Node3</title>
<g id="a_node3"><a xlink:href="class_idle__state.html#a92217c98eda8e3bd47eb3a8ff602efc2" target="_top" xlink:title="Método para actualizar el sistema cuando está en estado de reposo. Actualiza la pantalla y los observ...">
<polygon fill="white" stroke="#666666" points="108,-67.5 14,-67.5 14,-48.5 108,-48.5 108,-67.5"/>
<text text-anchor="middle" x="61" y="-55.5" font-family="Helvetica,sans-Serif" font-size="10.00">Idle_state::update</text>
</a>
</g>
</g>
<!-- Node1&#45;&gt;Node3 -->
<g id="edge2" class="edge">
<title>Node1&#45;&gt;Node3</title>
<path fill="none" stroke="#63b8ff" d="M146.63,-58C133.75,-58 120.53,-58 108.48,-58"/>
<polygon fill="#63b8ff" stroke="#63b8ff" points="146.32,-61.5 156.32,-58 146.32,-54.5 146.32,-61.5"/>
</g>
<!-- Node4 -->
<g id="node4" class="node">
<title>Node4</title>
<g id="a_node4"><a xlink:href="class_motor__control__state.html#a958e3393b9937ddea35e85efdd21e342" target="_top" xlink:title="Actualización, cambia el color del LED según el estado del motor y hace sonar la alarma....">
<polygon fill="white" stroke="#666666" points="112.5,-30 9.5,-30 9.5,0 112.5,0 112.5,-30"/>
<text text-anchor="start" x="17.5" y="-18" font-family="Helvetica,sans-Serif" font-size="10.00">Motor_control_state</text>
<text text-anchor="middle" x="61" y="-7" font-family="Helvetica,sans-Serif" font-size="10.00">::update</text>
</a>
</g>
</g>
<!-- Node1&#45;&gt;Node4 -->
<g id="edge3" class="edge">
<title>Node1&#45;&gt;Node4</title>
<path fill="none" stroke="#63b8ff" d="M148.66,-39.52C136.65,-36.12 124.27,-32.62 112.77,-29.36"/>
<polygon fill="#63b8ff" stroke="#63b8ff" points="147.52,-42.83 158.1,-42.19 149.43,-36.1 147.52,-42.83"/>
</g>
</g>
</svg>
