<?xml version="1.0" encoding="UTF-8" standalone="no"?>
<!DOCTYPE svg PUBLIC "-//W3C//DTD SVG 1.1//EN"
 "http://www.w3.org/Graphics/SVG/1.1/DTD/svg11.dtd">
<!-- Generated by graphviz version 7.0.2 (20221119.0110)
 -->
<!-- Title: Display::update Pages: 1 -->
<svg width="405pt" height="140pt"
 viewBox="0.00 0.00 405.00 140.00" xmlns="http://www.w3.org/2000/svg" xmlns:xlink="http://www.w3.org/1999/xlink">
<g id="graph0" class="graph" transform="scale(1 1) rotate(0) translate(4 136)">
<title>Display::update</title>
<!-- Node1 -->
<g id="node1" class="node">
<title>Node1</title>
<g id="a_node1"><a xlink:title="Actualiza los valores en pantalla con los parámetros previamente fijados. Solo actualiza la pantalla ...">
<polygon fill="#999999" stroke="#666666" points="84,-75 0,-75 0,-56 84,-56 84,-75"/>
<text text-anchor="middle" x="42" y="-63" font-family="Helvetica,sans-Serif" font-size="10.00">Display::update</text>
</a>
</g>
</g>
<!-- Node2 -->
<g id="node2" class="node">
<title>Node2</title>
<g id="a_node2"><a xlink:href="classhd44780___i2_cexp.html#a9f885fdf91ca52fd05158387ee4bedcd" target="_top" xlink:title="Borra el texto de la pantalla.">
<polygon fill="white" stroke="#666666" points="237.5,-132 121.5,-132 121.5,-113 237.5,-113 237.5,-132"/>
<text text-anchor="middle" x="179.5" y="-120" font-family="Helvetica,sans-Serif" font-size="10.00">hd44780_I2Cexp::clear</text>
</a>
</g>
</g>
<!-- Node1&#45;&gt;Node2 -->
<g id="edge1" class="edge">
<title>Node1&#45;&gt;Node2</title>
<path fill="none" stroke="#63b8ff" d="M65.87,-75.41C81.17,-82.01 101.76,-90.85 120,-98.5 127.57,-101.67 135.71,-105.04 143.44,-108.22"/>
<polygon fill="#63b8ff" stroke="#63b8ff" points="142.01,-111.42 152.59,-111.97 144.66,-104.94 142.01,-111.42"/>
</g>
<!-- Node3 -->
<g id="node3" class="node">
<title>Node3</title>
<g id="a_node3"><a xlink:href="classhd44780___i2_cexp.html#a13020db13c26b6d7ba6ff2ebb42e4053" target="_top" xlink:title="Mueve el cursor.">
<polygon fill="white" stroke="#666666" points="397,-56 275,-56 275,-37 397,-37 397,-56"/>
<text text-anchor="middle" x="336" y="-44" font-family="Helvetica,sans-Serif" font-size="10.00">hd44780_I2Cexp::cursor</text>
</a>
</g>
</g>
<!-- Node1&#45;&gt;Node3 -->
<g id="edge2" class="edge">
<title>Node1&#45;&gt;Node3</title>
<path fill="none" stroke="#63b8ff" d="M84.41,-67.84C124.16,-69.53 185.83,-70.71 239,-65.5 253.41,-64.09 268.86,-61.51 283.07,-58.7"/>
<polygon fill="#63b8ff" stroke="#63b8ff" points="283.58,-62.17 292.67,-56.72 282.17,-55.31 283.58,-62.17"/>
</g>
<!-- Node4 -->
<g id="node4" class="node">
<title>Node4</title>
<g id="a_node4"><a xlink:href="classhd44780___i2_cexp.html#ab25b744a9de62f700d5736864640d21b" target="_top" xlink:title="Lleva el cursor al origen de coordenadas.">
<polygon fill="white" stroke="#666666" points="239,-56 120,-56 120,-37 239,-37 239,-56"/>
<text text-anchor="middle" x="179.5" y="-44" font-family="Helvetica,sans-Serif" font-size="10.00">hd44780_I2Cexp::home</text>
</a>
</g>
</g>
<!-- Node1&#45;&gt;Node4 -->
<g id="edge3" class="edge">
<title>Node1&#45;&gt;Node4</title>
<path fill="none" stroke="#63b8ff" d="M84.39,-59.7C92.1,-58.62 100.34,-57.46 108.63,-56.3"/>
<polygon fill="#63b8ff" stroke="#63b8ff" points="108.99,-59.78 118.41,-54.93 108.02,-52.85 108.99,-59.78"/>
</g>
<!-- Node5 -->
<g id="node5" class="node">
<title>Node5</title>
<g id="a_node5"><a xlink:href="classhd44780___i2_cexp.html#a284e20a480ae9d5ae529fc4676d14dd3" target="_top" xlink:title="Imprime una cadena de texto en la posición actual del cursor.">
<polygon fill="white" stroke="#666666" points="236,-19 123,-19 123,0 236,0 236,-19"/>
<text text-anchor="middle" x="179.5" y="-7" font-family="Helvetica,sans-Serif" font-size="10.00">hd44780_I2Cexp::print</text>
</a>
</g>
</g>
<!-- Node1&#45;&gt;Node5 -->
<g id="edge5" class="edge">
<title>Node1&#45;&gt;Node5</title>
<path fill="none" stroke="#63b8ff" d="M61.67,-55.66C77.07,-47.75 99.62,-36.66 120,-28.5 124.64,-26.64 129.54,-24.83 134.45,-23.1"/>
<polygon fill="#63b8ff" stroke="#63b8ff" points="135.34,-26.5 143.69,-19.97 133.09,-19.87 135.34,-26.5"/>
</g>
<!-- Node4&#45;&gt;Node3 -->
<g id="edge4" class="edge">
<title>Node4&#45;&gt;Node3</title>
<path fill="none" stroke="#63b8ff" d="M239.35,-46.5C247.18,-46.5 255.27,-46.5 263.28,-46.5"/>
<polygon fill="#63b8ff" stroke="#63b8ff" points="263.01,-50 273.01,-46.5 263,-43 263.01,-50"/>
</g>
<!-- Node5&#45;&gt;Node3 -->
<g id="edge6" class="edge">
<title>Node5&#45;&gt;Node3</title>
<path fill="none" stroke="#63b8ff" d="M221.9,-19.42C240.52,-23.87 262.71,-29.19 282.48,-33.92"/>
<polygon fill="#63b8ff" stroke="#63b8ff" points="281.47,-37.28 292.01,-36.2 283.1,-30.47 281.47,-37.28"/>
</g>
</g>
</svg>
