<?xml version="1.0" encoding="UTF-8" standalone="no"?>
<!DOCTYPE svg PUBLIC "-//W3C//DTD SVG 1.1//EN"
 "http://www.w3.org/Graphics/SVG/1.1/DTD/svg11.dtd">
<!-- Generated by graphviz version 7.0.2 (20221119.0110)
 -->
<!-- Title: Dual_LED::set_color Pages: 1 -->
<svg width="423pt" height="131pt"
 viewBox="0.00 0.00 423.00 130.50" xmlns="http://www.w3.org/2000/svg" xmlns:xlink="http://www.w3.org/1999/xlink">
<g id="graph0" class="graph" transform="scale(1 1) rotate(0) translate(4 126.5)">
<title>Dual_LED::set_color</title>
<!-- Node1 -->
<g id="node1" class="node">
<title>Node1</title>
<g id="a_node1"><a xlink:title="Fija el color del led, no enciende el led,.">
<polygon fill="#999999" stroke="#666666" points="415,-56 309,-56 309,-37 415,-37 415,-56"/>
<text text-anchor="middle" x="362" y="-44" font-family="Helvetica,sans-Serif" font-size="10.00">Dual_LED::set_color</text>
</a>
</g>
</g>
<!-- Node2 -->
<g id="node2" class="node">
<title>Node2</title>
<g id="a_node2"><a xlink:href="class_dual___l_e_d.html#ab1cd238e00901ca9556914a38d3a064c" target="_top" xlink:title="Enciende el LED en verde.">
<polygon fill="white" stroke="#666666" points="271.5,-93 159.5,-93 159.5,-74 271.5,-74 271.5,-93"/>
<text text-anchor="middle" x="215.5" y="-81" font-family="Helvetica,sans-Serif" font-size="10.00">Dual_LED::turn_green</text>
</a>
</g>
</g>
<!-- Node1&#45;&gt;Node2 -->
<g id="edge1" class="edge">
<title>Node1&#45;&gt;Node2</title>
<path fill="none" stroke="#63b8ff" d="M311.21,-59.25C292.93,-63.93 272.51,-69.16 255.33,-73.56"/>
<polygon fill="#63b8ff" stroke="#63b8ff" points="311.99,-62.66 320.81,-56.79 310.25,-55.88 311.99,-62.66"/>
</g>
<!-- Node5 -->
<g id="node5" class="node">
<title>Node5</title>
<g id="a_node5"><a xlink:href="class_dual___l_e_d.html#a8734a816df04661d86e3ccbf88159eb0" target="_top" xlink:title="Enciende el LED en rojo.">
<polygon fill="white" stroke="#666666" points="266,-56 165,-56 165,-37 266,-37 266,-56"/>
<text text-anchor="middle" x="215.5" y="-44" font-family="Helvetica,sans-Serif" font-size="10.00">Dual_LED::turn_red</text>
</a>
</g>
</g>
<!-- Node1&#45;&gt;Node5 -->
<g id="edge4" class="edge">
<title>Node1&#45;&gt;Node5</title>
<path fill="none" stroke="#63b8ff" d="M297.57,-46.5C287.05,-46.5 276.29,-46.5 266.18,-46.5"/>
<polygon fill="#63b8ff" stroke="#63b8ff" points="297.32,-50 307.32,-46.5 297.32,-43 297.32,-50"/>
</g>
<!-- Node6 -->
<g id="node6" class="node">
<title>Node6</title>
<g id="a_node6"><a xlink:href="class_dual___l_e_d.html#aabc0462521bcc08ea7f6f04642f7e89d" target="_top" xlink:title="Enciende el LED en amarillo. El comportamiento es indefinido para pines no PWM.">
<polygon fill="white" stroke="#666666" points="273,-19 158,-19 158,0 273,0 273,-19"/>
<text text-anchor="middle" x="215.5" y="-7" font-family="Helvetica,sans-Serif" font-size="10.00">Dual_LED::turn_yellow</text>
</a>
</g>
</g>
<!-- Node1&#45;&gt;Node6 -->
<g id="edge5" class="edge">
<title>Node1&#45;&gt;Node6</title>
<path fill="none" stroke="#63b8ff" d="M311.21,-33.75C292.93,-29.07 272.51,-23.84 255.33,-19.44"/>
<polygon fill="#63b8ff" stroke="#63b8ff" points="310.25,-37.12 320.81,-36.21 311.99,-30.34 310.25,-37.12"/>
</g>
<!-- Node3 -->
<g id="node3" class="node">
<title>Node3</title>
<g id="a_node3"><a xlink:href="class_check__instruction__state.html#ae13ba3789ab274a7dddf19be0a413b55" target="_top" xlink:title="Método que se llama al ingresar al estado.">
<polygon fill="white" stroke="#666666" points="122,-122.5 0,-122.5 0,-92.5 122,-92.5 122,-122.5"/>
<text text-anchor="start" x="8" y="-110.5" font-family="Helvetica,sans-Serif" font-size="10.00">Check_instruction_state</text>
<text text-anchor="middle" x="61" y="-99.5" font-family="Helvetica,sans-Serif" font-size="10.00">::enter</text>
</a>
</g>
</g>
<!-- Node2&#45;&gt;Node3 -->
<g id="edge2" class="edge">
<title>Node2&#45;&gt;Node3</title>
<path fill="none" stroke="#63b8ff" d="M147.66,-94.02C139.23,-95.35 130.65,-96.7 122.34,-98"/>
<polygon fill="#63b8ff" stroke="#63b8ff" points="148.18,-97.48 157.52,-92.47 147.09,-90.57 148.18,-97.48"/>
</g>
<!-- Node4 -->
<g id="node4" class="node">
<title>Node4</title>
<g id="a_node4"><a xlink:href="class_motor__control__state.html#a958e3393b9937ddea35e85efdd21e342" target="_top" xlink:title="Actualización, cambia el color del LED según el estado del motor y hace sonar la alarma....">
<polygon fill="white" stroke="#666666" points="112.5,-74.5 9.5,-74.5 9.5,-44.5 112.5,-44.5 112.5,-74.5"/>
<text text-anchor="start" x="17.5" y="-62.5" font-family="Helvetica,sans-Serif" font-size="10.00">Motor_control_state</text>
<text text-anchor="middle" x="61" y="-51.5" font-family="Helvetica,sans-Serif" font-size="10.00">::update</text>
</a>
</g>
</g>
<!-- Node2&#45;&gt;Node4 -->
<g id="edge3" class="edge">
<title>Node2&#45;&gt;Node4</title>
<path fill="none" stroke="#63b8ff" d="M147.89,-73.02C136.15,-71.17 124.11,-69.27 112.89,-67.51"/>
<polygon fill="#63b8ff" stroke="#63b8ff" points="147.09,-76.43 157.52,-74.53 148.18,-69.52 147.09,-76.43"/>
</g>
</g>
</svg>
