<?xml version="1.0" encoding="UTF-8" standalone="no"?>
<!DOCTYPE svg PUBLIC "-//W3C//DTD SVG 1.1//EN"
 "http://www.w3.org/Graphics/SVG/1.1/DTD/svg11.dtd">
<!-- Generated by graphviz version 7.0.2 (20221119.0110)
 -->
<!-- Title: Control_system::next_step Pages: 1 -->
<svg width="417pt" height="76pt"
 viewBox="0.00 0.00 417.00 75.50" xmlns="http://www.w3.org/2000/svg" xmlns:xlink="http://www.w3.org/1999/xlink">
<g id="graph0" class="graph" transform="scale(1 1) rotate(0) translate(4 71.5)">
<title>Control_system::next_step</title>
<!-- Node1 -->
<g id="node1" class="node">
<title>Node1</title>
<g id="a_node1"><a xlink:title="Enciende el buzzer por 100ms (bloqueante) y, si no esta anulado el próximo paso, avanza hacia la sigu...">
<polygon fill="#999999" stroke="#666666" points="134,-40 0,-40 0,-21 134,-21 134,-40"/>
<text text-anchor="middle" x="67" y="-28" font-family="Helvetica,sans-Serif" font-size="10.00">Control_system::next_step</text>
</a>
</g>
</g>
<!-- Node2 -->
<g id="node2" class="node">
<title>Node2</title>
<g id="a_node2"><a xlink:href="class_control__system.html#ac1cd148e897c5ce2ef405dd45ddf964f" target="_top" xlink:title="Muestra en pantalla el paso del procedimientoa actual.">
<polygon fill="white" stroke="#666666" points="283,-67.5 170,-67.5 170,-37.5 283,-37.5 283,-67.5"/>
<text text-anchor="start" x="178" y="-55.5" font-family="Helvetica,sans-Serif" font-size="10.00">Control_system::show</text>
<text text-anchor="middle" x="226.5" y="-44.5" font-family="Helvetica,sans-Serif" font-size="10.00">_current_step</text>
</a>
</g>
</g>
<!-- Node1&#45;&gt;Node2 -->
<g id="edge1" class="edge">
<title>Node1&#45;&gt;Node2</title>
<path fill="none" stroke="#63b8ff" d="M134.34,-39.77C142.34,-40.88 150.51,-42.03 158.52,-43.14"/>
<polygon fill="#63b8ff" stroke="#63b8ff" points="157.81,-46.58 168.2,-44.5 158.78,-39.65 157.81,-46.58"/>
</g>
<!-- Node4 -->
<g id="node4" class="node">
<title>Node4</title>
<g id="a_node4"><a xlink:href="class_buzzer.html#a9ba28d9ca8b3dd80541d9a13a8b0f625" target="_top" xlink:title="Enciende el buzzer con con una duración en milisegundos duration, por defecto enciende el buzzer por ...">
<polygon fill="white" stroke="#666666" points="269.5,-19 183.5,-19 183.5,0 269.5,0 269.5,-19"/>
<text text-anchor="middle" x="226.5" y="-7" font-family="Helvetica,sans-Serif" font-size="10.00">Buzzer::turn_on</text>
</a>
</g>
</g>
<!-- Node1&#45;&gt;Node4 -->
<g id="edge3" class="edge">
<title>Node1&#45;&gt;Node4</title>
<path fill="none" stroke="#63b8ff" d="M134.34,-21.65C146.82,-19.99 159.74,-18.27 171.78,-16.66"/>
<polygon fill="#63b8ff" stroke="#63b8ff" points="172.07,-20.16 181.52,-15.36 171.14,-13.22 172.07,-20.16"/>
</g>
<!-- Node3 -->
<g id="node3" class="node">
<title>Node3</title>
<g id="a_node3"><a xlink:href="class_display.html#a87d1e7bf73a1d14b5e76c9ab647a9e93" target="_top" xlink:title="Fija el el texto a actualizar, no lo imprime en pantalla. La ubicación se da con las constantes de of...">
<polygon fill="white" stroke="#666666" points="409,-62 319,-62 319,-43 409,-43 409,-62"/>
<text text-anchor="middle" x="364" y="-50" font-family="Helvetica,sans-Serif" font-size="10.00">Display::set_text</text>
</a>
</g>
</g>
<!-- Node2&#45;&gt;Node3 -->
<g id="edge2" class="edge">
<title>Node2&#45;&gt;Node3</title>
<path fill="none" stroke="#63b8ff" d="M283.4,-52.5C291.33,-52.5 299.49,-52.5 307.42,-52.5"/>
<polygon fill="#63b8ff" stroke="#63b8ff" points="307.3,-56 317.3,-52.5 307.3,-49 307.3,-56"/>
</g>
<!-- Node5 -->
<g id="node5" class="node">
<title>Node5</title>
<g id="a_node5"><a xlink:href="class_buzzer.html#a5809a2b7b52e74f509c31214257f3af0" target="_top" xlink:title="Apaga el buzzer.">
<polygon fill="white" stroke="#666666" points="406.5,-19 321.5,-19 321.5,0 406.5,0 406.5,-19"/>
<text text-anchor="middle" x="364" y="-7" font-family="Helvetica,sans-Serif" font-size="10.00">Buzzer::turn_off</text>
</a>
</g>
</g>
<!-- Node4&#45;&gt;Node5 -->
<g id="edge4" class="edge">
<title>Node4&#45;&gt;Node5</title>
<path fill="none" stroke="#63b8ff" d="M269.63,-9.5C282.37,-9.5 296.52,-9.5 309.88,-9.5"/>
<polygon fill="#63b8ff" stroke="#63b8ff" points="309.85,-13 319.85,-9.5 309.85,-6 309.85,-13"/>
</g>
</g>
</svg>
