<?xml version="1.0" encoding="UTF-8" standalone="no"?>
<!DOCTYPE svg PUBLIC "-//W3C//DTD SVG 1.1//EN"
 "http://www.w3.org/Graphics/SVG/1.1/DTD/svg11.dtd">
<!-- Generated by graphviz version 7.0.2 (20221119.0110)
 -->
<!-- Title: Alarm_state::update Pages: 1 -->
<!--zoomable 568 -->
<svg id="main" version="1.1" xmlns="http://www.w3.org/2000/svg" xmlns:xlink="http://www.w3.org/1999/xlink" xml:space="preserve" onload="init(evt)">
<style type="text/css"><![CDATA[
.edge:hover path { stroke: red; }
.edge:hover polygon { stroke: red; fill: red; }
]]></style>
<script type="text/javascript"><![CDATA[
var edges = document.getElementsByTagName('g');
if (edges && edges.length) {
  for (var i=0;i<edges.length;i++) {
    if (edges[i].id.substr(0,4)=='edge') {
      edges[i].setAttribute('class','edge');
    }
  }
}
]]></script>
        <defs>
                <circle id="rim" cx="0" cy="0" r="7"/>
                <circle id="rim2" cx="0" cy="0" r="3.5"/>
                <g id="zoomPlus">
                        <use xlink:href="#rim" fill="#404040">
                                <set attributeName="fill" to="#808080" begin="zoomplus.mouseover" end="zoomplus.mouseout"/>
                        </use>
                        <path d="M-4,0h8M0,-4v8" fill="none" stroke="white" stroke-width="1.5" pointer-events="none"/>
                </g>
                <g id="zoomMin">
                        <use xlink:href="#rim" fill="#404040">
                                <set attributeName="fill" to="#808080" begin="zoomminus.mouseover" end="zoomminus.mouseout"/>
                        </use>
                        <path d="M-4,0h8" fill="none" stroke="white" stroke-width="1.5" pointer-events="none"/>
                </g>
                <g id="dirArrow">
                        <path fill="none" stroke="white" stroke-width="1.5" d="M0,-3.0v7 M-2.5,-0.5L0,-3.0L2.5,-0.5"/>
                </g>
               <g id="resetDef">
                       <use xlink:href="#rim2" fill="#404040">
                               <set attributeName="fill" to="#808080" begin="reset.mouseover" end="reset.mouseout"/>
                       </use>
               </g>
        </defs>

<script type="text/javascript">
var viewWidth = 752;
var viewHeight = 568;
var sectionId = 'dynsection-5';
</script>
<script xlink:href="svgpan.js"/>
<svg id="graph" class="graph">
<g id="viewport">
<title>Alarm_state::update</title>
<!-- Node1 -->
<g id="node1" class="node">
<title>Node1</title>
<g id="a_node1"><a xlink:title="Actualización, cambia el color del LED según el estado del motor y hace sonar la alarma....">
<polygon fill="#999999" stroke="#666666" points="104,-233 0,-233 0,-214 104,-214 104,-233"/>
<text text-anchor="middle" x="52" y="-221" font-family="Helvetica,sans-Serif" font-size="10.00">Alarm_state::update</text>
</a>
</g>
</g>
<!-- Node2 -->
<g id="node2" class="node">
<title>Node2</title>
<g id="a_node2"><a xlink:href="class_control__system.html#ab4bd82b7c907b415fdc102ed1fa89c7c" target="_top" xlink:title="Según la variable context.current_alarm resuelve el comportamiento de la alarma.">
<polygon fill="white" stroke="#666666" points="259,-371.5 140,-371.5 140,-341.5 259,-341.5 259,-371.5"/>
<text text-anchor="start" x="148" y="-359.5" font-family="Helvetica,sans-Serif" font-size="10.00">Control_system::handle</text>
<text text-anchor="middle" x="199.5" y="-348.5" font-family="Helvetica,sans-Serif" font-size="10.00">_alarm</text>
</a>
</g>
</g>
<!-- Node1&#45;&gt;Node2 -->
<g id="edge1" class="edge">
<title>Node1&#45;&gt;Node2</title>
<path fill="none" stroke="#63b8ff" d="M63.94,-233.5C87.01,-254.59 141.2,-304.12 173.33,-333.49"/>
<polygon fill="#63b8ff" stroke="#63b8ff" points="170.9,-336.02 180.65,-340.18 175.63,-330.85 170.9,-336.02"/>
</g>
<!-- Node5 -->
<g id="node5" class="node">
<title>Node5</title>
<g id="a_node5"><a xlink:href="class_dual___l_e_d.html#ab1cd238e00901ca9556914a38d3a064c" target="_top" xlink:title="Enciende el LED en verde.">
<polygon fill="white" stroke="#666666" points="411,-255 299,-255 299,-236 411,-236 411,-255"/>
<text text-anchor="middle" x="355" y="-243" font-family="Helvetica,sans-Serif" font-size="10.00">Dual_LED::turn_green</text>
</a>
</g>
</g>
<!-- Node1&#45;&gt;Node5 -->
<g id="edge28" class="edge">
<title>Node1&#45;&gt;Node5</title>
<path fill="none" stroke="#63b8ff" d="M104.4,-227.26C154.88,-230.95 232.13,-236.59 287.31,-240.63"/>
<polygon fill="#63b8ff" stroke="#63b8ff" points="286.99,-244.11 297.22,-241.35 287.5,-237.13 286.99,-244.11"/>
</g>
<!-- Node13 -->
<g id="node13" class="node">
<title>Node13</title>
<g id="a_node13"><a xlink:href="class_control__system.html#ab7912068a11d44b07eef3b3f56ce0598" target="_top" xlink:title="Itera sobre todos los observadores, llamando a su método de actualización.">
<polygon fill="white" stroke="#666666" points="256.5,-217.5 142.5,-217.5 142.5,-187.5 256.5,-187.5 256.5,-217.5"/>
<text text-anchor="start" x="150.5" y="-205.5" font-family="Helvetica,sans-Serif" font-size="10.00">Control_system::notify</text>
<text text-anchor="middle" x="199.5" y="-194.5" font-family="Helvetica,sans-Serif" font-size="10.00">_observers</text>
</a>
</g>
</g>
<!-- Node1&#45;&gt;Node13 -->
<g id="edge19" class="edge">
<title>Node1&#45;&gt;Node13</title>
<path fill="none" stroke="#63b8ff" d="M104.3,-216.1C112.93,-214.85 122,-213.54 130.96,-212.25"/>
<polygon fill="#63b8ff" stroke="#63b8ff" points="131.33,-215.73 140.72,-210.84 130.33,-208.8 131.33,-215.73"/>
</g>
<!-- Node20 -->
<g id="node20" class="node">
<title>Node20</title>
<g id="a_node20"><a xlink:href="class_control__system.html#ac1cd148e897c5ce2ef405dd45ddf964f" target="_top" xlink:title="Muestra en pantalla el paso del procedimientoa actual.">
<polygon fill="white" stroke="#666666" points="256,-504.5 143,-504.5 143,-474.5 256,-474.5 256,-504.5"/>
<text text-anchor="start" x="151" y="-492.5" font-family="Helvetica,sans-Serif" font-size="10.00">Control_system::show</text>
<text text-anchor="middle" x="199.5" y="-481.5" font-family="Helvetica,sans-Serif" font-size="10.00">_current_step</text>
</a>
</g>
</g>
<!-- Node1&#45;&gt;Node20 -->
<g id="edge26" class="edge">
<title>Node1&#45;&gt;Node20</title>
<path fill="none" stroke="#63b8ff" d="M58.35,-233.28C78.97,-270.97 153.64,-407.48 184.75,-464.36"/>
<polygon fill="#63b8ff" stroke="#63b8ff" points="181.6,-465.89 189.47,-472.98 187.74,-462.53 181.6,-465.89"/>
</g>
<!-- Node21 -->
<g id="node21" class="node">
<title>Node21</title>
<g id="a_node21"><a xlink:href="class_buzzer.html#a9ba28d9ca8b3dd80541d9a13a8b0f625" target="_top" xlink:title="Enciende el buzzer con con una duración en milisegundos duration, por defecto enciende el buzzer por ...">
<polygon fill="white" stroke="#666666" points="242.5,-169 156.5,-169 156.5,-150 242.5,-150 242.5,-169"/>
<text text-anchor="middle" x="199.5" y="-157" font-family="Helvetica,sans-Serif" font-size="10.00">Buzzer::turn_on</text>
</a>
</g>
</g>
<!-- Node1&#45;&gt;Node21 -->
<g id="edge29" class="edge">
<title>Node1&#45;&gt;Node21</title>
<path fill="none" stroke="#63b8ff" d="M70.26,-213.5C87.53,-203.76 115.05,-188.92 140,-178.5 144.56,-176.6 149.38,-174.76 154.22,-173.03"/>
<polygon fill="#63b8ff" stroke="#63b8ff" points="154.99,-176.47 163.31,-169.91 152.72,-169.84 154.99,-176.47"/>
</g>
<!-- Node22 -->
<g id="node22" class="node">
<title>Node22</title>
<g id="a_node22"><a xlink:href="class_display.html#ad2740b779d61e461c4dcaaf34f1fcd8f" target="_top" xlink:title="Actualiza los valores en pantalla con los parámetros previamente fijados. Solo actualiza la pantalla ...">
<polygon fill="white" stroke="#666666" points="241.5,-95 157.5,-95 157.5,-76 241.5,-76 241.5,-95"/>
<text text-anchor="middle" x="199.5" y="-83" font-family="Helvetica,sans-Serif" font-size="10.00">Display::update</text>
</a>
</g>
</g>
<!-- Node1&#45;&gt;Node22 -->
<g id="edge30" class="edge">
<title>Node1&#45;&gt;Node22</title>
<path fill="none" stroke="#63b8ff" d="M63.46,-213.58C87.9,-190.4 148.97,-132.47 179.91,-103.13"/>
<polygon fill="#63b8ff" stroke="#63b8ff" points="182.19,-105.8 187.03,-96.38 177.37,-100.72 182.19,-105.8"/>
</g>
<!-- Node3 -->
<g id="node3" class="node">
<title>Node3</title>
<g id="a_node3"><a xlink:href="class_display.html#a87d1e7bf73a1d14b5e76c9ab647a9e93" target="_top" xlink:title="Fija el el texto a actualizar, no lo imprime en pantalla. La ubicación se da con las constantes de of...">
<polygon fill="white" stroke="#666666" points="561.5,-546 471.5,-546 471.5,-527 561.5,-527 561.5,-546"/>
<text text-anchor="middle" x="516.5" y="-534" font-family="Helvetica,sans-Serif" font-size="10.00">Display::set_text</text>
</a>
</g>
</g>
<!-- Node2&#45;&gt;Node3 -->
<g id="edge2" class="edge">
<title>Node2&#45;&gt;Node3</title>
<path fill="none" stroke="#63b8ff" d="M208.44,-371.79C228.55,-410.25 280.92,-508.61 295,-517.5 344.23,-548.57 412.42,-549.52 459.89,-545.12"/>
<polygon fill="#63b8ff" stroke="#63b8ff" points="460.1,-548.61 469.68,-544.09 459.37,-541.65 460.1,-548.61"/>
</g>
<!-- Node4 -->
<g id="node4" class="node">
<title>Node4</title>
<g id="a_node4"><a xlink:href="class_control__system.html#a62a2c6a8167ade6a6ae054393b91d381" target="_top" xlink:title="Muestra el mensaje de error por pantalla.">
<polygon fill="white" stroke="#666666" points="411.5,-508.5 298.5,-508.5 298.5,-478.5 411.5,-478.5 411.5,-508.5"/>
<text text-anchor="start" x="306.5" y="-496.5" font-family="Helvetica,sans-Serif" font-size="10.00">Control_system::show</text>
<text text-anchor="middle" x="355" y="-485.5" font-family="Helvetica,sans-Serif" font-size="10.00">_error_msg</text>
</a>
</g>
</g>
<!-- Node2&#45;&gt;Node4 -->
<g id="edge3" class="edge">
<title>Node2&#45;&gt;Node4</title>
<path fill="none" stroke="#63b8ff" d="M209.7,-371.71C224.8,-395.52 256.99,-441.76 295,-469.5 296.37,-470.5 297.78,-471.46 299.24,-472.39"/>
<polygon fill="#63b8ff" stroke="#63b8ff" points="297.5,-475.43 307.93,-477.32 300.95,-469.34 297.5,-475.43"/>
</g>
<!-- Node2&#45;&gt;Node5 -->
<g id="edge5" class="edge">
<title>Node2&#45;&gt;Node5</title>
<path fill="none" stroke="#63b8ff" d="M212.3,-341.25C228.75,-320.97 260.47,-285.28 295,-264.5 297.81,-262.81 300.79,-261.25 303.85,-259.82"/>
<polygon fill="#63b8ff" stroke="#63b8ff" points="305.18,-263.06 313.09,-256 302.51,-256.59 305.18,-263.06"/>
</g>
<!-- Node8 -->
<g id="node8" class="node">
<title>Node8</title>
<g id="a_node8"><a xlink:href="class_cooler.html#a3aa26bc227fa7a2bdcff9fe607990104" target="_top" xlink:title="Apaga el ventilador.">
<polygon fill="white" stroke="#666666" points="557.5,-423 475.5,-423 475.5,-404 557.5,-404 557.5,-423"/>
<text text-anchor="middle" x="516.5" y="-411" font-family="Helvetica,sans-Serif" font-size="10.00">Cooler::turn_off</text>
</a>
</g>
</g>
<!-- Node2&#45;&gt;Node8 -->
<g id="edge8" class="edge">
<title>Node2&#45;&gt;Node8</title>
<path fill="none" stroke="#63b8ff" d="M259.43,-368.61C271.2,-370.96 283.48,-373.35 295,-375.5 352.79,-386.29 419.3,-397.6 464.04,-405.05"/>
<polygon fill="#63b8ff" stroke="#63b8ff" points="463.27,-408.47 473.71,-406.65 464.42,-401.56 463.27,-408.47"/>
</g>
<!-- Node9 -->
<g id="node9" class="node">
<title>Node9</title>
<g id="a_node9"><a xlink:href="class_motor.html#a9a1613b24a5dd07a8c515e82d8e0edeb" target="_top" xlink:title="Apaga el motor.">
<polygon fill="white" stroke="#666666" points="394.5,-329 315.5,-329 315.5,-310 394.5,-310 394.5,-329"/>
<text text-anchor="middle" x="355" y="-317" font-family="Helvetica,sans-Serif" font-size="10.00">Motor::turn_off</text>
</a>
</g>
</g>
<!-- Node2&#45;&gt;Node9 -->
<g id="edge9" class="edge">
<title>Node2&#45;&gt;Node9</title>
<path fill="none" stroke="#63b8ff" d="M259.41,-342.3C274.22,-338.73 289.97,-334.93 304.28,-331.49"/>
<polygon fill="#63b8ff" stroke="#63b8ff" points="305.03,-334.9 313.93,-329.16 303.39,-328.1 305.03,-334.9"/>
</g>
<!-- Node10 -->
<g id="node10" class="node">
<title>Node10</title>
<g id="a_node10"><a xlink:href="class_cooler.html#aa98fd302dc7933fc21c046ca3ea48346" target="_top" xlink:title="Enciende el ventilador. Si el ciclo de trabajo deseado es menor que FAN_MINIMUM_DUTY_CYCLE apaga el v...">
<polygon fill="white" stroke="#666666" points="396.5,-442 313.5,-442 313.5,-423 396.5,-423 396.5,-442"/>
<text text-anchor="middle" x="355" y="-430" font-family="Helvetica,sans-Serif" font-size="10.00">Cooler::turn_on</text>
</a>
</g>
</g>
<!-- Node2&#45;&gt;Node10 -->
<g id="edge10" class="edge">
<title>Node2&#45;&gt;Node10</title>
<path fill="none" stroke="#63b8ff" d="M226.55,-371.91C245.29,-382.73 271.33,-397.22 295,-408.5 302.04,-411.86 309.68,-415.18 317.06,-418.25"/>
<polygon fill="#63b8ff" stroke="#63b8ff" points="315.59,-421.43 326.17,-421.94 318.22,-414.94 315.59,-421.43"/>
</g>
<!-- Node11 -->
<g id="node11" class="node">
<title>Node11</title>
<g id="a_node11"><a xlink:href="class_dual___l_e_d.html#a8734a816df04661d86e3ccbf88159eb0" target="_top" xlink:title="Enciende el LED en rojo.">
<polygon fill="white" stroke="#666666" points="405.5,-366 304.5,-366 304.5,-347 405.5,-347 405.5,-366"/>
<text text-anchor="middle" x="355" y="-354" font-family="Helvetica,sans-Serif" font-size="10.00">Dual_LED::turn_red</text>
</a>
</g>
</g>
<!-- Node2&#45;&gt;Node11 -->
<g id="edge13" class="edge">
<title>Node2&#45;&gt;Node11</title>
<path fill="none" stroke="#63b8ff" d="M259.41,-356.5C270.45,-356.5 282.02,-356.5 293.12,-356.5"/>
<polygon fill="#63b8ff" stroke="#63b8ff" points="292.97,-360 302.97,-356.5 292.97,-353 292.97,-360"/>
</g>
<!-- Node12 -->
<g id="node12" class="node">
<title>Node12</title>
<g id="a_node12"><a xlink:href="class_dual___l_e_d.html#aabc0462521bcc08ea7f6f04642f7e89d" target="_top" xlink:title="Enciende el LED en amarillo. El comportamiento es indefinido para pines no PWM.">
<polygon fill="white" stroke="#666666" points="412.5,-292 297.5,-292 297.5,-273 412.5,-273 412.5,-292"/>
<text text-anchor="middle" x="355" y="-280" font-family="Helvetica,sans-Serif" font-size="10.00">Dual_LED::turn_yellow</text>
</a>
</g>
</g>
<!-- Node2&#45;&gt;Node12 -->
<g id="edge16" class="edge">
<title>Node2&#45;&gt;Node12</title>
<path fill="none" stroke="#63b8ff" d="M223.83,-341.01C242.51,-329.09 269.69,-312.78 295,-301.5 299.26,-299.6 303.76,-297.8 308.31,-296.12"/>
<polygon fill="#63b8ff" stroke="#63b8ff" points="309.18,-299.53 317.47,-292.93 306.88,-292.92 309.18,-299.53"/>
</g>
<!-- Node4&#45;&gt;Node3 -->
<g id="edge4" class="edge">
<title>Node4&#45;&gt;Node3</title>
<path fill="none" stroke="#63b8ff" d="M411.79,-508.54C430.09,-513.47 450.24,-518.91 467.88,-523.66"/>
<polygon fill="#63b8ff" stroke="#63b8ff" points="466.47,-526.91 477.04,-526.13 468.29,-520.15 466.47,-526.91"/>
</g>
<!-- Node6 -->
<g id="node6" class="node">
<title>Node6</title>
<g id="a_node6"><a xlink:href="class_dual___l_e_d.html#aeb163748acf071a1652c56ae1dff9d52" target="_top" xlink:title="Fija el color del led, no enciende el led,.">
<polygon fill="white" stroke="#666666" points="569.5,-310 463.5,-310 463.5,-291 569.5,-291 569.5,-310"/>
<text text-anchor="middle" x="516.5" y="-298" font-family="Helvetica,sans-Serif" font-size="10.00">Dual_LED::set_color</text>
</a>
</g>
</g>
<!-- Node5&#45;&gt;Node6 -->
<g id="edge6" class="edge">
<title>Node5&#45;&gt;Node6</title>
<path fill="none" stroke="#63b8ff" d="M390.01,-255.48C398.28,-258.17 407.03,-261.25 415,-264.5 431.56,-271.26 434.31,-276.07 451,-282.5 455.33,-284.17 459.88,-285.76 464.48,-287.25"/>
<polygon fill="#63b8ff" stroke="#63b8ff" points="463.16,-290.5 473.75,-290.09 465.22,-283.81 463.16,-290.5"/>
</g>
<!-- Node7 -->
<g id="node7" class="node">
<title>Node7</title>
<g id="a_node7"><a xlink:href="class_dual___l_e_d.html#a8b13294b883897eb83f91bf90a3a11cd" target="_top" xlink:title="Enciende el LED en el color actual.">
<polygon fill="white" stroke="#666666" points="565.5,-273 467.5,-273 467.5,-254 565.5,-254 565.5,-273"/>
<text text-anchor="middle" x="516.5" y="-261" font-family="Helvetica,sans-Serif" font-size="10.00">Dual_LED::turn_on</text>
</a>
</g>
</g>
<!-- Node5&#45;&gt;Node7 -->
<g id="edge7" class="edge">
<title>Node5&#45;&gt;Node7</title>
<path fill="none" stroke="#63b8ff" d="M411.34,-251.75C425.68,-253.36 441.19,-255.11 455.74,-256.76"/>
<polygon fill="#63b8ff" stroke="#63b8ff" points="455.34,-260.23 465.67,-257.88 456.12,-253.28 455.34,-260.23"/>
</g>
<!-- Node10&#45;&gt;Node8 -->
<g id="edge11" class="edge">
<title>Node10&#45;&gt;Node8</title>
<path fill="none" stroke="#63b8ff" d="M396.66,-427.66C417.08,-425.22 442.04,-422.25 463.81,-419.66"/>
<polygon fill="#63b8ff" stroke="#63b8ff" points="464.17,-423.14 473.69,-418.48 463.34,-416.19 464.17,-423.14"/>
</g>
<!-- Node10&#45;&gt;Node10 -->
<g id="edge12" class="edge">
<title>Node10&#45;&gt;Node10</title>
<path fill="none" stroke="#63b8ff" d="M330.66,-442.37C319.55,-450.94 327.67,-460 355,-460 370.38,-460 379.67,-457.13 382.88,-453.1"/>
<polygon fill="#63b8ff" stroke="#63b8ff" points="386.27,-452.21 379.82,-443.81 379.63,-454.4 386.27,-452.21"/>
</g>
<!-- Node11&#45;&gt;Node6 -->
<g id="edge14" class="edge">
<title>Node11&#45;&gt;Node6</title>
<path fill="none" stroke="#63b8ff" d="M390.13,-346.5C398.31,-343.99 406.99,-341.23 415,-338.5 436.69,-331.1 460.72,-322.05 479.84,-314.63"/>
<polygon fill="#63b8ff" stroke="#63b8ff" points="481.02,-317.93 489.06,-311.04 478.47,-311.41 481.02,-317.93"/>
</g>
<!-- Node11&#45;&gt;Node7 -->
<g id="edge15" class="edge">
<title>Node11&#45;&gt;Node7</title>
<path fill="none" stroke="#63b8ff" d="M400.83,-346.57C405.88,-344.39 410.73,-341.73 415,-338.5 438.59,-320.65 427.32,-300.24 451,-282.5 453.01,-280.99 455.14,-279.61 457.35,-278.33"/>
<polygon fill="#63b8ff" stroke="#63b8ff" points="458.67,-281.58 466.13,-274.06 455.61,-275.29 458.67,-281.58"/>
</g>
<!-- Node12&#45;&gt;Node6 -->
<g id="edge17" class="edge">
<title>Node12&#45;&gt;Node6</title>
<path fill="none" stroke="#63b8ff" d="M412.68,-288.9C425.43,-290.33 439.03,-291.87 452.03,-293.34"/>
<polygon fill="#63b8ff" stroke="#63b8ff" points="451.43,-296.79 461.76,-294.43 452.21,-289.84 451.43,-296.79"/>
</g>
<!-- Node12&#45;&gt;Node7 -->
<g id="edge18" class="edge">
<title>Node12&#45;&gt;Node7</title>
<path fill="none" stroke="#63b8ff" d="M412.68,-275.75C426.74,-274.07 441.85,-272.27 456.04,-270.58"/>
<polygon fill="#63b8ff" stroke="#63b8ff" points="456.16,-274.09 465.68,-269.43 455.34,-267.14 456.16,-274.09"/>
</g>
<!-- Node14 -->
<g id="node14" class="node">
<title>Node14</title>
<g id="a_node14"><a xlink:href="class_control__system.html#a251677ee7c18269d85579da7a000ceab" target="_top" xlink:title="Fija el valor del flag de muestro de sensores.">
<polygon fill="white" stroke="#666666" points="407,-217.5 303,-217.5 303,-187.5 407,-187.5 407,-217.5"/>
<text text-anchor="start" x="311" y="-205.5" font-family="Helvetica,sans-Serif" font-size="10.00">Control_system::set</text>
<text text-anchor="middle" x="355" y="-194.5" font-family="Helvetica,sans-Serif" font-size="10.00">_poll_sensors_flag</text>
</a>
</g>
</g>
<!-- Node13&#45;&gt;Node14 -->
<g id="edge20" class="edge">
<title>Node13&#45;&gt;Node14</title>
<path fill="none" stroke="#63b8ff" d="M256.79,-202.5C268.02,-202.5 279.88,-202.5 291.31,-202.5"/>
<polygon fill="#63b8ff" stroke="#63b8ff" points="291.04,-206 301.04,-202.5 291.04,-199 291.04,-206"/>
</g>
<!-- Node15 -->
<g id="node15" class="node">
<title>Node15</title>
<g id="a_node15"><a xlink:href="class_control__system.html#a4bfd2d8427f35a8cd4e4e10573aa5604" target="_top" xlink:title="Realiza la transición de estados y actualiza el estado.">
<polygon fill="white" stroke="#666666" points="415,-169 295,-169 295,-150 415,-150 415,-169"/>
<text text-anchor="middle" x="355" y="-157" font-family="Helvetica,sans-Serif" font-size="10.00">Control_system::update</text>
</a>
</g>
</g>
<!-- Node13&#45;&gt;Node15 -->
<g id="edge21" class="edge">
<title>Node13&#45;&gt;Node15</title>
<path fill="none" stroke="#63b8ff" d="M255.48,-187.1C272.54,-182.32 291.16,-177.1 307.57,-172.51"/>
<polygon fill="#63b8ff" stroke="#63b8ff" points="308.39,-175.91 317.08,-169.84 306.5,-169.17 308.39,-175.91"/>
</g>
<!-- Node16 -->
<g id="node16" class="node">
<title>Node16</title>
<g id="a_node16"><a xlink:href="class_control__system.html#ab3a3e36bda029f2a5d0c4ffdf8ff984c" target="_top" xlink:title="Realiza la transición de estados en caso de ser necesario.">
<polygon fill="white" stroke="#666666" points="582,-152.5 451,-152.5 451,-122.5 582,-122.5 582,-152.5"/>
<text text-anchor="start" x="459" y="-140.5" font-family="Helvetica,sans-Serif" font-size="10.00">Control_system::transition</text>
<text text-anchor="middle" x="516.5" y="-129.5" font-family="Helvetica,sans-Serif" font-size="10.00">_state</text>
</a>
</g>
</g>
<!-- Node15&#45;&gt;Node16 -->
<g id="edge22" class="edge">
<title>Node15&#45;&gt;Node16</title>
<path fill="none" stroke="#63b8ff" d="M415.39,-151.31C423.22,-150.23 431.32,-149.11 439.38,-148"/>
<polygon fill="#63b8ff" stroke="#63b8ff" points="439.78,-151.48 449.2,-146.64 438.82,-144.54 439.78,-151.48"/>
</g>
<!-- Node19 -->
<g id="node19" class="node">
<title>Node19</title>
<g id="a_node19"><a xlink:href="class_abstract__state.html#a993232854cd166a601b6c5b4ba7befcc" target="_top" xlink:title="Método para actualizar el estado.">
<polygon fill="white" stroke="#666666" points="574.5,-190 458.5,-190 458.5,-171 574.5,-171 574.5,-190"/>
<text text-anchor="middle" x="516.5" y="-178" font-family="Helvetica,sans-Serif" font-size="10.00">Abstract_state::update</text>
</a>
</g>
</g>
<!-- Node15&#45;&gt;Node19 -->
<g id="edge25" class="edge">
<title>Node15&#45;&gt;Node19</title>
<path fill="none" stroke="#63b8ff" d="M415.39,-167.32C425.67,-168.67 436.43,-170.09 446.93,-171.47"/>
<polygon fill="#63b8ff" stroke="#63b8ff" points="446.31,-174.92 456.68,-172.76 447.22,-167.98 446.31,-174.92"/>
</g>
<!-- Node17 -->
<g id="node17" class="node">
<title>Node17</title>
<g id="a_node17"><a xlink:href="class_abstract__state.html#a1c001b0cb46c11126cb9ff77f8ad3016" target="_top" xlink:title="Método que se llama al ingresar al estado.">
<polygon fill="white" stroke="#666666" points="735,-165 627,-165 627,-146 735,-146 735,-165"/>
<text text-anchor="middle" x="681" y="-153" font-family="Helvetica,sans-Serif" font-size="10.00">Abstract_state::enter</text>
</a>
</g>
</g>
<!-- Node16&#45;&gt;Node17 -->
<g id="edge23" class="edge">
<title>Node16&#45;&gt;Node17</title>
<path fill="none" stroke="#63b8ff" d="M582.19,-144.67C593.16,-145.88 604.55,-147.14 615.52,-148.36"/>
<polygon fill="#63b8ff" stroke="#63b8ff" points="614.92,-151.81 625.25,-149.44 615.7,-144.86 614.92,-151.81"/>
</g>
<!-- Node18 -->
<g id="node18" class="node">
<title>Node18</title>
<g id="a_node18"><a xlink:href="class_abstract__state.html#a130d61765e2fcdf3bb0500943221efbe" target="_top" xlink:title="Método para cambiar de estado.">
<polygon fill="white" stroke="#666666" points="744,-128 618,-128 618,-109 744,-109 744,-128"/>
<text text-anchor="middle" x="681" y="-116" font-family="Helvetica,sans-Serif" font-size="10.00">Abstract_state::transition</text>
</a>
</g>
</g>
<!-- Node16&#45;&gt;Node18 -->
<g id="edge24" class="edge">
<title>Node16&#45;&gt;Node18</title>
<path fill="none" stroke="#63b8ff" d="M582.19,-129.94C590.13,-129.01 598.29,-128.05 606.35,-127.11"/>
<polygon fill="#63b8ff" stroke="#63b8ff" points="606.62,-130.6 616.15,-125.97 605.81,-123.65 606.62,-130.6"/>
</g>
<!-- Node20&#45;&gt;Node3 -->
<g id="edge27" class="edge">
<title>Node20&#45;&gt;Node3</title>
<path fill="none" stroke="#63b8ff" d="M217.42,-504.79C235.24,-519.78 264.84,-541.61 295,-550.5 352.66,-567.49 422.36,-558.43 467.75,-548.85"/>
<polygon fill="#63b8ff" stroke="#63b8ff" points="468.26,-552.32 477.27,-546.75 466.75,-545.49 468.26,-552.32"/>
</g>
<!-- Node23 -->
<g id="node23" class="node">
<title>Node23</title>
<g id="a_node23"><a xlink:href="classhd44780___i2_cexp.html#a9f885fdf91ca52fd05158387ee4bedcd" target="_top" xlink:title="Borra el texto de la pantalla.">
<polygon fill="white" stroke="#666666" points="413,-95 297,-95 297,-76 413,-76 413,-95"/>
<text text-anchor="middle" x="355" y="-83" font-family="Helvetica,sans-Serif" font-size="10.00">hd44780_I2Cexp::clear</text>
</a>
</g>
</g>
<!-- Node22&#45;&gt;Node23 -->
<g id="edge31" class="edge">
<title>Node22&#45;&gt;Node23</title>
<path fill="none" stroke="#63b8ff" d="M241.64,-85.5C255.08,-85.5 270.4,-85.5 285.31,-85.5"/>
<polygon fill="#63b8ff" stroke="#63b8ff" points="285.08,-89 295.08,-85.5 285.08,-82 285.08,-89"/>
</g>
<!-- Node24 -->
<g id="node24" class="node">
<title>Node24</title>
<g id="a_node24"><a xlink:href="classhd44780___i2_cexp.html#a13020db13c26b6d7ba6ff2ebb42e4053" target="_top" xlink:title="Mueve el cursor.">
<polygon fill="white" stroke="#666666" points="577.5,-57 455.5,-57 455.5,-38 577.5,-38 577.5,-57"/>
<text text-anchor="middle" x="516.5" y="-45" font-family="Helvetica,sans-Serif" font-size="10.00">hd44780_I2Cexp::cursor</text>
</a>
</g>
</g>
<!-- Node22&#45;&gt;Node24 -->
<g id="edge32" class="edge">
<title>Node22&#45;&gt;Node24</title>
<path fill="none" stroke="#63b8ff" d="M241.75,-76.73C258.25,-73.47 277.47,-69.96 295,-67.5 344.62,-60.54 400.88,-55.48 444.15,-52.2"/>
<polygon fill="#63b8ff" stroke="#63b8ff" points="444.2,-55.7 453.91,-51.47 443.68,-48.72 444.2,-55.7"/>
</g>
<!-- Node25 -->
<g id="node25" class="node">
<title>Node25</title>
<g id="a_node25"><a xlink:href="classhd44780___i2_cexp.html#ab25b744a9de62f700d5736864640d21b" target="_top" xlink:title="Lleva el cursor al origen de coordenadas.">
<polygon fill="white" stroke="#666666" points="414.5,-19 295.5,-19 295.5,0 414.5,0 414.5,-19"/>
<text text-anchor="middle" x="355" y="-7" font-family="Helvetica,sans-Serif" font-size="10.00">hd44780_I2Cexp::home</text>
</a>
</g>
</g>
<!-- Node22&#45;&gt;Node25 -->
<g id="edge33" class="edge">
<title>Node22&#45;&gt;Node25</title>
<path fill="none" stroke="#63b8ff" d="M216.92,-75.7C235.53,-64.77 266.94,-46.87 295,-33.5 302.04,-30.14 309.68,-26.82 317.06,-23.75"/>
<polygon fill="#63b8ff" stroke="#63b8ff" points="318.22,-27.06 326.17,-20.06 315.59,-20.57 318.22,-27.06"/>
</g>
<!-- Node26 -->
<g id="node26" class="node">
<title>Node26</title>
<g id="a_node26"><a xlink:href="classhd44780___i2_cexp.html#a284e20a480ae9d5ae529fc4676d14dd3" target="_top" xlink:title="Imprime una cadena de texto en la posición actual del cursor.">
<polygon fill="white" stroke="#666666" points="411.5,-132 298.5,-132 298.5,-113 411.5,-113 411.5,-132"/>
<text text-anchor="middle" x="355" y="-120" font-family="Helvetica,sans-Serif" font-size="10.00">hd44780_I2Cexp::print</text>
</a>
</g>
</g>
<!-- Node22&#45;&gt;Node26 -->
<g id="edge35" class="edge">
<title>Node22&#45;&gt;Node26</title>
<path fill="none" stroke="#63b8ff" d="M241.64,-95.42C260.13,-99.87 282.17,-105.19 301.82,-109.92"/>
<polygon fill="#63b8ff" stroke="#63b8ff" points="300.74,-113.26 311.28,-112.2 302.38,-106.46 300.74,-113.26"/>
</g>
<!-- Node25&#45;&gt;Node24 -->
<g id="edge34" class="edge">
<title>Node25&#45;&gt;Node24</title>
<path fill="none" stroke="#63b8ff" d="M397.91,-19.48C417.7,-24.2 441.54,-29.88 462.57,-34.89"/>
<polygon fill="#63b8ff" stroke="#63b8ff" points="461.59,-38.25 472.12,-37.17 463.21,-31.44 461.59,-38.25"/>
</g>
<!-- Node26&#45;&gt;Node24 -->
<g id="edge36" class="edge">
<title>Node26&#45;&gt;Node24</title>
<path fill="none" stroke="#63b8ff" d="M392.96,-112.59C400.37,-110.22 408.01,-107.5 415,-104.5 441.99,-92.9 471,-75.91 490.87,-63.5"/>
<polygon fill="#63b8ff" stroke="#63b8ff" points="492.52,-66.6 499.1,-58.29 488.78,-60.69 492.52,-66.6"/>
</g>
</g>
</svg>
        <g id="navigator" transform="translate(0 0)" fill="#404254">
                <rect fill="#f2f5e9" fill-opacity="0.5" stroke="#606060" stroke-width=".5" x="0" y="0" width="60" height="60"/>
                <use id="zoomplus" xlink:href="#zoomPlus" x="17" y="9" onmousedown="handleZoom(evt,'in')"/>
                <use id="zoomminus" xlink:href="#zoomMin" x="42" y="9" onmousedown="handleZoom(evt,'out')"/>
                <use id="reset" xlink:href="#resetDef" x="30" y="36" onmousedown="handleReset()"/>
                <g id="arrowUp" xlink:href="#dirArrow" transform="translate(30 24)" onmousedown="handlePan(0,-1)">
                  <use xlink:href="#rim" fill="#404040">
                        <set attributeName="fill" to="#808080" begin="arrowUp.mouseover" end="arrowUp.mouseout"/>
                  </use>
                  <path fill="none" stroke="white" stroke-width="1.5" d="M0,-3.0v7 M-2.5,-0.5L0,-3.0L2.5,-0.5"/>
                </g>
                <g id="arrowRight" xlink:href="#dirArrow" transform="rotate(90) translate(36 -43)" onmousedown="handlePan(1,0)">
                  <use xlink:href="#rim" fill="#404040">
                        <set attributeName="fill" to="#808080" begin="arrowRight.mouseover" end="arrowRight.mouseout"/>
                  </use>
                  <path fill="none" stroke="white" stroke-width="1.5" d="M0,-3.0v7 M-2.5,-0.5L0,-3.0L2.5,-0.5"/>
                </g>
                <g id="arrowDown" xlink:href="#dirArrow" transform="rotate(180) translate(-30 -48)" onmousedown="handlePan(0,1)">
                  <use xlink:href="#rim" fill="#404040">
                        <set attributeName="fill" to="#808080" begin="arrowDown.mouseover" end="arrowDown.mouseout"/>
                  </use>
                  <path fill="none" stroke="white" stroke-width="1.5" d="M0,-3.0v7 M-2.5,-0.5L0,-3.0L2.5,-0.5"/>
                </g>
                <g id="arrowLeft" xlink:href="#dirArrow" transform="rotate(270) translate(-36 17)" onmousedown="handlePan(-1,0)">
                  <use xlink:href="#rim" fill="#404040">
                        <set attributeName="fill" to="#808080" begin="arrowLeft.mouseover" end="arrowLeft.mouseout"/>
                  </use>
                  <path fill="none" stroke="white" stroke-width="1.5" d="M0,-3.0v7 M-2.5,-0.5L0,-3.0L2.5,-0.5"/>
                </g>
        </g>
        <svg viewBox="0 0 15 15" width="100%" height="30px" preserveAspectRatio="xMaxYMin meet">
         <g id="arrow_out" transform="scale(0.3 0.3)">
          <a xlink:href="class_alarm__state_acea6eee2b8d267b67192bbce9e495038_cgraph_org.svg" target="_base">
           <rect id="button" ry="5" rx="5" y="6" x="6" height="38" width="38"
                fill="#f2f5e9" fill-opacity="0.5" stroke="#606060" stroke-width="1.0"/>
           <path id="arrow"
             d="M 11.500037,31.436501 C 11.940474,20.09759 22.043105,11.32322 32.158766,21.979434 L 37.068811,17.246167 C 37.068811,17.246167 37.088388,32 37.088388,32 L 22.160133,31.978069 C 22.160133,31.978069 26.997745,27.140456 26.997745,27.140456 C 18.528582,18.264221 13.291696,25.230495 11.500037,31.436501 z"
             style="fill:#404040;"/>
          </a>
         </g>
        </svg>
</svg>
