<?xml version="1.0" encoding="UTF-8" standalone="no"?>
<!DOCTYPE svg PUBLIC "-//W3C//DTD SVG 1.1//EN"
 "http://www.w3.org/Graphics/SVG/1.1/DTD/svg11.dtd">
<!-- Generated by graphviz version 7.0.2 (20221119.0110)
 -->
<!-- Title: Cooler_observer::update_speed Pages: 1 -->
<svg width="460pt" height="38pt"
 viewBox="0.00 0.00 460.00 38.00" xmlns="http://www.w3.org/2000/svg" xmlns:xlink="http://www.w3.org/1999/xlink">
<g id="graph0" class="graph" transform="scale(1 1) rotate(0) translate(4 34)">
<title>Cooler_observer::update_speed</title>
<!-- Node1 -->
<g id="node1" class="node">
<title>Node1</title>
<g id="a_node1"><a xlink:title="Actualiza la medición de velocidad.">
<polygon fill="#999999" stroke="#666666" points="121,-30 0,-30 0,0 121,0 121,-30"/>
<text text-anchor="start" x="8" y="-18" font-family="Helvetica,sans-Serif" font-size="10.00">Cooler_observer::update</text>
<text text-anchor="middle" x="60.5" y="-7" font-family="Helvetica,sans-Serif" font-size="10.00">_speed</text>
</a>
</g>
</g>
<!-- Node2 -->
<g id="node2" class="node">
<title>Node2</title>
<g id="a_node2"><a xlink:href="class_control__system.html#a914b54af513cf38a2600b3c710ab5c87" target="_top" xlink:title="Fija velocidades en el display de los ventiladores.">
<polygon fill="white" stroke="#666666" points="279,-30 157,-30 157,0 279,0 279,-30"/>
<text text-anchor="start" x="165" y="-18" font-family="Helvetica,sans-Serif" font-size="10.00">Control_system::display</text>
<text text-anchor="middle" x="218" y="-7" font-family="Helvetica,sans-Serif" font-size="10.00">_cooler_speed</text>
</a>
</g>
</g>
<!-- Node1&#45;&gt;Node2 -->
<g id="edge1" class="edge">
<title>Node1&#45;&gt;Node2</title>
<path fill="none" stroke="#63b8ff" d="M121.18,-15C129.09,-15 137.27,-15 145.37,-15"/>
<polygon fill="#63b8ff" stroke="#63b8ff" points="145.2,-18.5 155.2,-15 145.2,-11.5 145.2,-18.5"/>
</g>
<!-- Node3 -->
<g id="node3" class="node">
<title>Node3</title>
<g id="a_node3"><a xlink:href="class_display.html#a4c22cf2f0125cb737bf93136caa32de3" target="_top" xlink:title="Fija el valor del porcentaje de velocidad, no lo imprie en pantalla. La ubicación se da con las const...">
<polygon fill="white" stroke="#666666" points="452,-24.5 315,-24.5 315,-5.5 452,-5.5 452,-24.5"/>
<text text-anchor="middle" x="383.5" y="-12.5" font-family="Helvetica,sans-Serif" font-size="10.00">Display::set_fan_speed_pct</text>
</a>
</g>
</g>
<!-- Node2&#45;&gt;Node3 -->
<g id="edge2" class="edge">
<title>Node2&#45;&gt;Node3</title>
<path fill="none" stroke="#63b8ff" d="M279.42,-15C287.21,-15 295.28,-15 303.31,-15"/>
<polygon fill="#63b8ff" stroke="#63b8ff" points="303.1,-18.5 313.1,-15 303.1,-11.5 303.1,-18.5"/>
</g>
</g>
</svg>
