<?xml version="1.0" encoding="UTF-8" standalone="no"?>
<!DOCTYPE svg PUBLIC "-//W3C//DTD SVG 1.1//EN"
 "http://www.w3.org/Graphics/SVG/1.1/DTD/svg11.dtd">
<!-- Generated by graphviz version 7.0.2 (20221119.0110)
 -->
<!-- Title: Control_system Pages: 1 -->
<svg width="151pt" height="137pt"
 viewBox="0.00 0.00 150.50 137.00" xmlns="http://www.w3.org/2000/svg" xmlns:xlink="http://www.w3.org/1999/xlink">
<g id="graph0" class="graph" transform="scale(1 1) rotate(0) translate(4 133)">
<title>Control_system</title>
<!-- Node1 -->
<g id="node1" class="node">
<title>Node1</title>
<g id="a_node1"><a xlink:title="Clase control_system. Tiene de clases amigas todos los estados del sistema.">
<polygon fill="#999999" stroke="#666666" points="123.5,-19 38.5,-19 38.5,0 123.5,0 123.5,-19"/>
<text text-anchor="middle" x="81" y="-7" font-family="Helvetica,sans-Serif" font-size="10.00">Control_system</text>
</a>
</g>
</g>
<!-- Node2 -->
<g id="node2" class="node">
<title>Node2</title>
<g id="a_node2"><a xlink:href="class_subject.html" target="_top" xlink:title="Clase base para crear sujetos a observar, hereda de la interfaz Subject_interface.">
<polygon fill="white" stroke="#666666" points="71,-74 21,-74 21,-55 71,-55 71,-74"/>
<text text-anchor="middle" x="46" y="-62" font-family="Helvetica,sans-Serif" font-size="10.00">Subject</text>
</a>
</g>
</g>
<!-- Node2&#45;&gt;Node1 -->
<g id="edge1" class="edge">
<title>Node2&#45;&gt;Node1</title>
<path fill="none" stroke="#63b8ff" d="M57.98,-45.36C63.75,-36.62 70.43,-26.51 75.09,-19.44"/>
<polygon fill="#63b8ff" stroke="#63b8ff" points="55.2,-43.21 52.61,-53.49 61.04,-47.07 55.2,-43.21"/>
</g>
<!-- Node3 -->
<g id="node3" class="node">
<title>Node3</title>
<g id="a_node3"><a xlink:href="class_subject__interface.html" target="_top" xlink:title="Clase interfaz para implementar el patr칩n de dise침o Observer.">
<polygon fill="white" stroke="#666666" points="92,-129 0,-129 0,-110 92,-110 92,-129"/>
<text text-anchor="middle" x="46" y="-117" font-family="Helvetica,sans-Serif" font-size="10.00">Subject_interface</text>
</a>
</g>
</g>
<!-- Node3&#45;&gt;Node2 -->
<g id="edge2" class="edge">
<title>Node3&#45;&gt;Node2</title>
<path fill="none" stroke="#63b8ff" d="M46,-98.35C46,-90.1 46,-80.97 46,-74.44"/>
<polygon fill="#63b8ff" stroke="#63b8ff" points="42.5,-98.23 46,-108.23 49.5,-98.23 42.5,-98.23"/>
</g>
<!-- Node4 -->
<g id="node4" class="node">
<title>Node4</title>
<g id="a_node4"><a xlink:href="class_machine.html" target="_top" xlink:title="Clase para base para la implementaci칩n de una m치quina de estados finita.">
<polygon fill="white" stroke="#666666" points="142.5,-74 89.5,-74 89.5,-55 142.5,-55 142.5,-74"/>
<text text-anchor="middle" x="116" y="-62" font-family="Helvetica,sans-Serif" font-size="10.00">Machine</text>
</a>
</g>
</g>
<!-- Node4&#45;&gt;Node1 -->
<g id="edge3" class="edge">
<title>Node4&#45;&gt;Node1</title>
<path fill="none" stroke="#63b8ff" d="M104.02,-45.36C98.25,-36.62 91.57,-26.51 86.91,-19.44"/>
<polygon fill="#63b8ff" stroke="#63b8ff" points="100.96,-47.07 109.39,-53.49 106.8,-43.21 100.96,-47.07"/>
</g>
</g>
</svg>
