<?xml version="1.0" encoding="UTF-8" standalone="no"?>
<!DOCTYPE svg PUBLIC "-//W3C//DTD SVG 1.1//EN"
 "http://www.w3.org/Graphics/SVG/1.1/DTD/svg11.dtd">
<!-- Generated by graphviz version 7.0.2 (20221119.0110)
 -->
<!-- Title: Digital_dual_LED::turn_red Pages: 1 -->
<svg width="615pt" height="167pt"
 viewBox="0.00 0.00 615.00 167.00" xmlns="http://www.w3.org/2000/svg" xmlns:xlink="http://www.w3.org/1999/xlink">
<g id="graph0" class="graph" transform="scale(1 1) rotate(0) translate(4 163)">
<title>Digital_dual_LED::turn_red</title>
<!-- Node1 -->
<g id="node1" class="node">
<title>Node1</title>
<g id="a_node1"><a xlink:title="Fija el color del led, no enciende el led,.">
<polygon fill="#999999" stroke="#666666" points="607,-115.5 475,-115.5 475,-96.5 607,-96.5 607,-115.5"/>
<text text-anchor="middle" x="541" y="-103.5" font-family="Helvetica,sans-Serif" font-size="10.00">Digital_dual_LED::turn_red</text>
</a>
</g>
</g>
<!-- Node2 -->
<g id="node2" class="node">
<title>Node2</title>
<g id="a_node2"><a xlink:href="class_check__instruction__state.html#ae13ba3789ab274a7dddf19be0a413b55" target="_top" xlink:title="Método que se llama al ingresar al estado.">
<polygon fill="white" stroke="#666666" points="290,-159 168,-159 168,-129 290,-129 290,-159"/>
<text text-anchor="start" x="176" y="-147" font-family="Helvetica,sans-Serif" font-size="10.00">Check_instruction_state</text>
<text text-anchor="middle" x="229" y="-136" font-family="Helvetica,sans-Serif" font-size="10.00">::enter</text>
</a>
</g>
</g>
<!-- Node1&#45;&gt;Node2 -->
<g id="edge1" class="edge">
<title>Node1&#45;&gt;Node2</title>
<path fill="none" stroke="#63b8ff" d="M493.92,-118.66C476.79,-122.91 457.13,-127.26 439,-130 389.2,-137.53 332.11,-141.01 290.2,-142.62"/>
<polygon fill="#63b8ff" stroke="#63b8ff" points="494.46,-122.13 503.29,-116.27 492.74,-115.35 494.46,-122.13"/>
</g>
<!-- Node3 -->
<g id="node3" class="node">
<title>Node3</title>
<g id="a_node3"><a xlink:href="class_control__system.html#aeb1d67b1383d77bd11276f0eef97228b" target="_top" xlink:title="Resetea las variables de contexto.">
<polygon fill="white" stroke="#666666" points="439,-73 326,-73 326,-43 439,-43 439,-73"/>
<text text-anchor="start" x="334" y="-61" font-family="Helvetica,sans-Serif" font-size="10.00">Control_system::reset</text>
<text text-anchor="middle" x="382.5" y="-50" font-family="Helvetica,sans-Serif" font-size="10.00">_context</text>
</a>
</g>
</g>
<!-- Node1&#45;&gt;Node3 -->
<g id="edge2" class="edge">
<title>Node1&#45;&gt;Node3</title>
<path fill="none" stroke="#63b8ff" d="M496.57,-92.68C477.09,-86.7 453.99,-79.62 433.76,-73.42"/>
<polygon fill="#63b8ff" stroke="#63b8ff" points="495.54,-96.02 506.13,-95.61 497.59,-89.33 495.54,-96.02"/>
</g>
<!-- Node8 -->
<g id="node8" class="node">
<title>Node8</title>
<g id="a_node8"><a xlink:href="class_control__system.html#a46298a6a5f4ba43857baa6ae23d00dbc" target="_top" xlink:title="Fija el valor de velocidad del ventilador.">
<polygon fill="white" stroke="#666666" points="434.5,-121 330.5,-121 330.5,-91 434.5,-91 434.5,-121"/>
<text text-anchor="start" x="338.5" y="-109" font-family="Helvetica,sans-Serif" font-size="10.00">Control_system::set</text>
<text text-anchor="middle" x="382.5" y="-98" font-family="Helvetica,sans-Serif" font-size="10.00">_cooler_speed</text>
</a>
</g>
</g>
<!-- Node1&#45;&gt;Node8 -->
<g id="edge7" class="edge">
<title>Node1&#45;&gt;Node8</title>
<path fill="none" stroke="#63b8ff" d="M463.29,-106C453.66,-106 444,-106 434.9,-106"/>
<polygon fill="#63b8ff" stroke="#63b8ff" points="463.02,-109.5 473.02,-106 463.02,-102.5 463.02,-109.5"/>
</g>
<!-- Node4 -->
<g id="node4" class="node">
<title>Node4</title>
<g id="a_node4"><a xlink:href="class_shutdown__state.html#accbc4c856709e26453e2e23c5c1e4f8e" target="_top" xlink:title="Salida del estado, resetea las variables del sistema e incializa la pantalla.">
<polygon fill="white" stroke="#666666" points="283,-104.5 175,-104.5 175,-85.5 283,-85.5 283,-104.5"/>
<text text-anchor="middle" x="229" y="-92.5" font-family="Helvetica,sans-Serif" font-size="10.00">Shutdown_state::exit</text>
</a>
</g>
</g>
<!-- Node3&#45;&gt;Node4 -->
<g id="edge3" class="edge">
<title>Node3&#45;&gt;Node4</title>
<path fill="none" stroke="#63b8ff" d="M314.7,-74.32C299.67,-77.98 284.17,-81.77 270.61,-85.08"/>
<polygon fill="#63b8ff" stroke="#63b8ff" points="315.16,-77.8 324.05,-72.03 313.5,-71 315.16,-77.8"/>
</g>
<!-- Node6 -->
<g id="node6" class="node">
<title>Node6</title>
<g id="a_node6"><a xlink:href="class_control__system.html#a660ab5ac86df7cdefbbfe0942b00e13b" target="_top" xlink:title="Inicializa el sistema con el estado de apagado.">
<polygon fill="white" stroke="#666666" points="281,-67.5 177,-67.5 177,-48.5 281,-48.5 281,-67.5"/>
<text text-anchor="middle" x="229" y="-55.5" font-family="Helvetica,sans-Serif" font-size="10.00">Control_system::init</text>
</a>
</g>
</g>
<!-- Node3&#45;&gt;Node6 -->
<g id="edge5" class="edge">
<title>Node3&#45;&gt;Node6</title>
<path fill="none" stroke="#63b8ff" d="M314.14,-58C303.09,-58 291.81,-58 281.24,-58"/>
<polygon fill="#63b8ff" stroke="#63b8ff" points="314,-61.5 324,-58 314,-54.5 314,-61.5"/>
</g>
<!-- Node7 -->
<g id="node7" class="node">
<title>Node7</title>
<g id="a_node7"><a xlink:href="class_check__instruction__state.html#a161d1ccae3db7c6ac372b56877dc05f2" target="_top" xlink:title="Método para actualizar el estado.">
<polygon fill="white" stroke="#666666" points="290,-30 168,-30 168,0 290,0 290,-30"/>
<text text-anchor="start" x="176" y="-18" font-family="Helvetica,sans-Serif" font-size="10.00">Check_instruction_state</text>
<text text-anchor="middle" x="229" y="-7" font-family="Helvetica,sans-Serif" font-size="10.00">::update</text>
</a>
</g>
</g>
<!-- Node3&#45;&gt;Node7 -->
<g id="edge6" class="edge">
<title>Node3&#45;&gt;Node7</title>
<path fill="none" stroke="#63b8ff" d="M316.29,-39.49C305.65,-36.47 294.74,-33.37 284.4,-30.44"/>
<polygon fill="#63b8ff" stroke="#63b8ff" points="315.2,-42.82 325.78,-42.18 317.11,-36.09 315.2,-42.82"/>
</g>
<!-- Node5 -->
<g id="node5" class="node">
<title>Node5</title>
<g id="a_node5"><a xlink:href="class_shutdown__state.html#ae02b2fd80173aa50afcd73faba01b9be" target="_top" xlink:title="Transicion de estados.">
<polygon fill="white" stroke="#666666" points="132,-104.5 0,-104.5 0,-85.5 132,-85.5 132,-104.5"/>
<text text-anchor="middle" x="66" y="-92.5" font-family="Helvetica,sans-Serif" font-size="10.00">Shutdown_state::transition</text>
</a>
</g>
</g>
<!-- Node4&#45;&gt;Node5 -->
<g id="edge4" class="edge">
<title>Node4&#45;&gt;Node5</title>
<path fill="none" stroke="#63b8ff" d="M163.49,-95C153.27,-95 142.7,-95 132.46,-95"/>
<polygon fill="#63b8ff" stroke="#63b8ff" points="163.32,-98.5 173.32,-95 163.32,-91.5 163.32,-98.5"/>
</g>
<!-- Node8&#45;&gt;Node2 -->
<g id="edge8" class="edge">
<title>Node8&#45;&gt;Node2</title>
<path fill="none" stroke="#63b8ff" d="M319.21,-121.62C309.69,-124.01 299.88,-126.47 290.4,-128.85"/>
<polygon fill="#63b8ff" stroke="#63b8ff" points="319.89,-125.06 328.74,-119.23 318.19,-118.27 319.89,-125.06"/>
</g>
</g>
</svg>
