<?xml version="1.0" encoding="UTF-8" standalone="no"?>
<!DOCTYPE svg PUBLIC "-//W3C//DTD SVG 1.1//EN"
 "http://www.w3.org/Graphics/SVG/1.1/DTD/svg11.dtd">
<!-- Generated by graphviz version 7.0.2 (20221119.0110)
 -->
<!-- Title: Buzzer::turn_on Pages: 1 -->
<svg width="422pt" height="107pt"
 viewBox="0.00 0.00 422.00 106.50" xmlns="http://www.w3.org/2000/svg" xmlns:xlink="http://www.w3.org/1999/xlink">
<g id="graph0" class="graph" transform="scale(1 1) rotate(0) translate(4 102.5)">
<title>Buzzer::turn_on</title>
<!-- Node1 -->
<g id="node1" class="node">
<title>Node1</title>
<g id="a_node1"><a xlink:title="Enciende el buzzer con con una duración en milisegundos duration, por defecto enciende el buzzer por ...">
<polygon fill="#999999" stroke="#666666" points="414,-56 328,-56 328,-37 414,-37 414,-56"/>
<text text-anchor="middle" x="371" y="-44" font-family="Helvetica,sans-Serif" font-size="10.00">Buzzer::turn_on</text>
</a>
</g>
</g>
<!-- Node2 -->
<g id="node2" class="node">
<title>Node2</title>
<g id="a_node2"><a xlink:href="class_control__system.html#aa98b33b5c57a47fb55e211516e49088b" target="_top" xlink:title="Enciende el buzzer por 100ms (bloqueante) y, si no esta anulado el próximo paso, avanza hacia la sigu...">
<polygon fill="white" stroke="#666666" points="292,-93 158,-93 158,-74 292,-74 292,-93"/>
<text text-anchor="middle" x="225" y="-81" font-family="Helvetica,sans-Serif" font-size="10.00">Control_system::next_step</text>
</a>
</g>
</g>
<!-- Node1&#45;&gt;Node2 -->
<g id="edge1" class="edge">
<title>Node1&#45;&gt;Node2</title>
<path fill="none" stroke="#63b8ff" d="M320.39,-59.25C302.17,-63.93 281.82,-69.16 264.7,-73.56"/>
<polygon fill="#63b8ff" stroke="#63b8ff" points="321.13,-62.67 329.94,-56.79 319.39,-55.89 321.13,-62.67"/>
</g>
<!-- Node4 -->
<g id="node4" class="node">
<title>Node4</title>
<g id="a_node4"><a xlink:href="class_buzzer.html#a7d0275af89ab487903752edc29a5bf2c" target="_top" xlink:title="Permuta el estado del led, si estaba encendido pasará a apagado y viceversa.">
<polygon fill="white" stroke="#666666" points="265,-56 185,-56 185,-37 265,-37 265,-56"/>
<text text-anchor="middle" x="225" y="-44" font-family="Helvetica,sans-Serif" font-size="10.00">Buzzer::toggle</text>
</a>
</g>
</g>
<!-- Node1&#45;&gt;Node4 -->
<g id="edge3" class="edge">
<title>Node1&#45;&gt;Node4</title>
<path fill="none" stroke="#63b8ff" d="M316.14,-46.5C299.22,-46.5 280.87,-46.5 265.17,-46.5"/>
<polygon fill="#63b8ff" stroke="#63b8ff" points="316.06,-50 326.06,-46.5 316.06,-43 316.06,-50"/>
</g>
<!-- Node5 -->
<g id="node5" class="node">
<title>Node5</title>
<g id="a_node5"><a xlink:href="class_alarm__state.html#acea6eee2b8d267b67192bbce9e495038" target="_top" xlink:title="Actualización, cambia el color del LED según el estado del motor y hace sonar la alarma....">
<polygon fill="white" stroke="#666666" points="277,-19 173,-19 173,0 277,0 277,-19"/>
<text text-anchor="middle" x="225" y="-7" font-family="Helvetica,sans-Serif" font-size="10.00">Alarm_state::update</text>
</a>
</g>
</g>
<!-- Node1&#45;&gt;Node5 -->
<g id="edge4" class="edge">
<title>Node1&#45;&gt;Node5</title>
<path fill="none" stroke="#63b8ff" d="M320.39,-33.75C302.17,-29.07 281.82,-23.84 264.7,-19.44"/>
<polygon fill="#63b8ff" stroke="#63b8ff" points="319.39,-37.11 329.94,-36.21 321.13,-30.33 319.39,-37.11"/>
</g>
<!-- Node3 -->
<g id="node3" class="node">
<title>Node3</title>
<g id="a_node3"><a xlink:href="class_check__instruction__state.html#ae13ba3789ab274a7dddf19be0a413b55" target="_top" xlink:title="Entrada del estado, resuelve las instrucciones a realizar en cada paso: &#45;WELCOME_STEP: Primer paso,...">
<polygon fill="white" stroke="#666666" points="122,-98.5 0,-98.5 0,-68.5 122,-68.5 122,-98.5"/>
<text text-anchor="start" x="8" y="-86.5" font-family="Helvetica,sans-Serif" font-size="10.00">Check_instruction_state</text>
<text text-anchor="middle" x="61" y="-75.5" font-family="Helvetica,sans-Serif" font-size="10.00">::enter</text>
</a>
</g>
</g>
<!-- Node2&#45;&gt;Node3 -->
<g id="edge2" class="edge">
<title>Node2&#45;&gt;Node3</title>
<path fill="none" stroke="#63b8ff" d="M146.29,-83.5C138.22,-83.5 130.11,-83.5 122.27,-83.5"/>
<polygon fill="#63b8ff" stroke="#63b8ff" points="146.13,-87 156.13,-83.5 146.13,-80 146.13,-87"/>
</g>
</g>
</svg>
