<?xml version="1.0" encoding="UTF-8" standalone="no"?>
<!DOCTYPE svg PUBLIC "-//W3C//DTD SVG 1.1//EN"
 "http://www.w3.org/Graphics/SVG/1.1/DTD/svg11.dtd">
<!-- Generated by graphviz version 7.0.2 (20221119.0110)
 -->
<!-- Title: Control_system::init Pages: 1 -->
<svg width="540pt" height="119pt"
 viewBox="0.00 0.00 540.00 119.00" xmlns="http://www.w3.org/2000/svg" xmlns:xlink="http://www.w3.org/1999/xlink">
<g id="graph0" class="graph" transform="scale(1 1) rotate(0) translate(4 115)">
<title>Control_system::init</title>
<!-- Node1 -->
<g id="node1" class="node">
<title>Node1</title>
<g id="a_node1"><a xlink:title="Inicializa el sistema en estado apagado.">
<polygon fill="#999999" stroke="#666666" points="104,-92 0,-92 0,-73 104,-73 104,-92"/>
<text text-anchor="middle" x="52" y="-80" font-family="Helvetica,sans-Serif" font-size="10.00">Control_system::init</text>
</a>
</g>
</g>
<!-- Node2 -->
<g id="node2" class="node">
<title>Node2</title>
<g id="a_node2"><a xlink:href="class_abstract__state.html#a1c001b0cb46c11126cb9ff77f8ad3016" target="_top" xlink:title="Método que se llama al ingresar al estado.">
<polygon fill="white" stroke="#666666" points="250.5,-111 142.5,-111 142.5,-92 250.5,-92 250.5,-111"/>
<text text-anchor="middle" x="196.5" y="-99" font-family="Helvetica,sans-Serif" font-size="10.00">Abstract_state::enter</text>
</a>
</g>
</g>
<!-- Node1&#45;&gt;Node2 -->
<g id="edge1" class="edge">
<title>Node1&#45;&gt;Node2</title>
<path fill="none" stroke="#63b8ff" d="M104.45,-89.36C113.08,-90.51 122.13,-91.72 131.04,-92.91"/>
<polygon fill="#63b8ff" stroke="#63b8ff" points="130.34,-96.34 140.71,-94.19 131.26,-89.4 130.34,-96.34"/>
</g>
<!-- Node3 -->
<g id="node3" class="node">
<title>Node3</title>
<g id="a_node3"><a xlink:href="class_control__system.html#a4704fee6ca6fe180a5dc292315ec3b31" target="_top" xlink:title="Apaga todos los periféricos a excepción del display. Asigna false a solictudes de alarma,...">
<polygon fill="white" stroke="#666666" points="253,-74 140,-74 140,-55 253,-55 253,-74"/>
<text text-anchor="middle" x="196.5" y="-62" font-family="Helvetica,sans-Serif" font-size="10.00">Control_system::reset</text>
</a>
</g>
</g>
<!-- Node1&#45;&gt;Node3 -->
<g id="edge2" class="edge">
<title>Node1&#45;&gt;Node3</title>
<path fill="none" stroke="#63b8ff" d="M104.45,-76C112.25,-75.02 120.4,-73.99 128.47,-72.97"/>
<polygon fill="#63b8ff" stroke="#63b8ff" points="128.81,-76.45 138.29,-71.73 127.93,-69.51 128.81,-76.45"/>
</g>
<!-- Node4 -->
<g id="node4" class="node">
<title>Node4</title>
<g id="a_node4"><a xlink:href="class_cooler.html#a3aa26bc227fa7a2bdcff9fe607990104" target="_top" xlink:title="Apaga el ventilador.">
<polygon fill="white" stroke="#666666" points="380.5,-111 298.5,-111 298.5,-92 380.5,-92 380.5,-111"/>
<text text-anchor="middle" x="339.5" y="-99" font-family="Helvetica,sans-Serif" font-size="10.00">Cooler::turn_off</text>
</a>
</g>
</g>
<!-- Node3&#45;&gt;Node4 -->
<g id="edge3" class="edge">
<title>Node3&#45;&gt;Node4</title>
<path fill="none" stroke="#63b8ff" d="M235.29,-74.42C251.96,-78.79 271.77,-83.99 289.56,-88.66"/>
<polygon fill="#63b8ff" stroke="#63b8ff" points="288.59,-92.02 299.15,-91.17 290.36,-85.25 288.59,-92.02"/>
</g>
<!-- Node5 -->
<g id="node5" class="node">
<title>Node5</title>
<g id="a_node5"><a xlink:href="class_dual___l_e_d.html#a4226b64f8b1c00f3e4c649a8be2e64c9" target="_top" xlink:title="Apaga el LED.">
<polygon fill="white" stroke="#666666" points="388.5,-74 290.5,-74 290.5,-55 388.5,-55 388.5,-74"/>
<text text-anchor="middle" x="339.5" y="-62" font-family="Helvetica,sans-Serif" font-size="10.00">Dual_LED::turn_off</text>
</a>
</g>
</g>
<!-- Node3&#45;&gt;Node5 -->
<g id="edge4" class="edge">
<title>Node3&#45;&gt;Node5</title>
<path fill="none" stroke="#63b8ff" d="M253.23,-64.5C261.59,-64.5 270.24,-64.5 278.68,-64.5"/>
<polygon fill="#63b8ff" stroke="#63b8ff" points="278.51,-68 288.51,-64.5 278.51,-61 278.51,-68"/>
</g>
<!-- Node6 -->
<g id="node6" class="node">
<title>Node6</title>
<g id="a_node6"><a xlink:href="class_dual___l_e_d.html#a8734a816df04661d86e3ccbf88159eb0" target="_top" xlink:title="Enciende el LED en rojo.">
<polygon fill="white" stroke="#666666" points="390,-37 289,-37 289,-18 390,-18 390,-37"/>
<text text-anchor="middle" x="339.5" y="-25" font-family="Helvetica,sans-Serif" font-size="10.00">Dual_LED::turn_red</text>
</a>
</g>
</g>
<!-- Node3&#45;&gt;Node6 -->
<g id="edge5" class="edge">
<title>Node3&#45;&gt;Node6</title>
<path fill="none" stroke="#63b8ff" d="M235.29,-54.58C251.96,-50.21 271.77,-45.01 289.56,-40.34"/>
<polygon fill="#63b8ff" stroke="#63b8ff" points="290.36,-43.75 299.15,-37.83 288.59,-36.98 290.36,-43.75"/>
</g>
<!-- Node7 -->
<g id="node7" class="node">
<title>Node7</title>
<g id="a_node7"><a xlink:href="class_dual___l_e_d.html#aeb163748acf071a1652c56ae1dff9d52" target="_top" xlink:title="Fija el color del led, no enciende el led,.">
<polygon fill="white" stroke="#666666" points="532,-56 426,-56 426,-37 532,-37 532,-56"/>
<text text-anchor="middle" x="479" y="-44" font-family="Helvetica,sans-Serif" font-size="10.00">Dual_LED::set_color</text>
</a>
</g>
</g>
<!-- Node6&#45;&gt;Node7 -->
<g id="edge6" class="edge">
<title>Node6&#45;&gt;Node7</title>
<path fill="none" stroke="#63b8ff" d="M390.14,-34.36C397.98,-35.44 406.19,-36.58 414.3,-37.7"/>
<polygon fill="#63b8ff" stroke="#63b8ff" points="413.77,-41.16 424.15,-39.06 414.72,-34.22 413.77,-41.16"/>
</g>
<!-- Node8 -->
<g id="node8" class="node">
<title>Node8</title>
<g id="a_node8"><a xlink:href="class_dual___l_e_d.html#a8b13294b883897eb83f91bf90a3a11cd" target="_top" xlink:title="Enciende el LED en el color actual.">
<polygon fill="white" stroke="#666666" points="528,-19 430,-19 430,0 528,0 528,-19"/>
<text text-anchor="middle" x="479" y="-7" font-family="Helvetica,sans-Serif" font-size="10.00">Dual_LED::turn_on</text>
</a>
</g>
</g>
<!-- Node6&#45;&gt;Node8 -->
<g id="edge7" class="edge">
<title>Node6&#45;&gt;Node8</title>
<path fill="none" stroke="#63b8ff" d="M390.14,-21C399.33,-19.8 409.01,-18.53 418.46,-17.29"/>
<polygon fill="#63b8ff" stroke="#63b8ff" points="418.85,-20.77 428.31,-16 417.94,-13.83 418.85,-20.77"/>
</g>
</g>
</svg>
