<?xml version="1.0" encoding="UTF-8" standalone="no"?>
<!DOCTYPE svg PUBLIC "-//W3C//DTD SVG 1.1//EN"
 "http://www.w3.org/Graphics/SVG/1.1/DTD/svg11.dtd">
<!-- Generated by graphviz version 7.0.2 (20221119.0110)
 -->
<!-- Title: Motor_control_state::update Pages: 1 -->
<svg width="404pt" height="336pt"
 viewBox="0.00 0.00 404.00 335.50" xmlns="http://www.w3.org/2000/svg" xmlns:xlink="http://www.w3.org/1999/xlink">
<g id="graph0" class="graph" transform="scale(1 1) rotate(0) translate(4 331.5)">
<title>Motor_control_state::update</title>
<!-- Node1 -->
<g id="node1" class="node">
<title>Node1</title>
<g id="a_node1"><a xlink:title="Actualización, cambia el color del LED según el estado del motor y hace sonar la alarma....">
<polygon fill="#999999" stroke="#666666" points="103,-172.5 0,-172.5 0,-142.5 103,-142.5 103,-172.5"/>
<text text-anchor="start" x="8" y="-160.5" font-family="Helvetica,sans-Serif" font-size="10.00">Motor_control_state</text>
<text text-anchor="middle" x="51.5" y="-149.5" font-family="Helvetica,sans-Serif" font-size="10.00">::update</text>
</a>
</g>
</g>
<!-- Node2 -->
<g id="node2" class="node">
<title>Node2</title>
<g id="a_node2"><a xlink:href="class_control__system.html#ab7912068a11d44b07eef3b3f56ce0598" target="_top" xlink:title="Método virtual puro para que las clases herederas implementen la actualización de observadores.">
<polygon fill="white" stroke="#666666" points="253.5,-327.5 139.5,-327.5 139.5,-297.5 253.5,-297.5 253.5,-327.5"/>
<text text-anchor="start" x="147.5" y="-315.5" font-family="Helvetica,sans-Serif" font-size="10.00">Control_system::notify</text>
<text text-anchor="middle" x="196.5" y="-304.5" font-family="Helvetica,sans-Serif" font-size="10.00">_observers</text>
</a>
</g>
</g>
<!-- Node1&#45;&gt;Node2 -->
<g id="edge1" class="edge">
<title>Node1&#45;&gt;Node2</title>
<path fill="none" stroke="#63b8ff" d="M59.85,-172.88C72.77,-198.6 101.75,-250.72 139,-283.5 142.12,-286.25 145.55,-288.81 149.13,-291.2"/>
<polygon fill="#63b8ff" stroke="#63b8ff" points="147.17,-294.1 157.54,-296.27 150.79,-288.11 147.17,-294.1"/>
</g>
<!-- Node3 -->
<g id="node3" class="node">
<title>Node3</title>
<g id="a_node3"><a xlink:href="class_buzzer.html#a7d0275af89ab487903752edc29a5bf2c" target="_top" xlink:title="Permuta el estado del led, si estaba encendido pasará a apagado y viceversa.">
<polygon fill="white" stroke="#666666" points="236.5,-241 156.5,-241 156.5,-222 236.5,-222 236.5,-241"/>
<text text-anchor="middle" x="196.5" y="-229" font-family="Helvetica,sans-Serif" font-size="10.00">Buzzer::toggle</text>
</a>
</g>
</g>
<!-- Node1&#45;&gt;Node3 -->
<g id="edge2" class="edge">
<title>Node1&#45;&gt;Node3</title>
<path fill="none" stroke="#63b8ff" d="M73.35,-172.79C90.37,-184.77 115.39,-201.23 139,-212.5 142.77,-214.3 146.76,-216 150.8,-217.6"/>
<polygon fill="#63b8ff" stroke="#63b8ff" points="149.5,-220.85 160.09,-221.03 151.92,-214.28 149.5,-220.85"/>
</g>
<!-- Node4 -->
<g id="node4" class="node">
<title>Node4</title>
<g id="a_node4"><a xlink:href="class_buzzer.html#a5809a2b7b52e74f509c31214257f3af0" target="_top" xlink:title="Apaga el buzzer.">
<polygon fill="white" stroke="#666666" points="385.5,-278 300.5,-278 300.5,-259 385.5,-259 385.5,-278"/>
<text text-anchor="middle" x="343" y="-266" font-family="Helvetica,sans-Serif" font-size="10.00">Buzzer::turn_off</text>
</a>
</g>
</g>
<!-- Node1&#45;&gt;Node4 -->
<g id="edge8" class="edge">
<title>Node1&#45;&gt;Node4</title>
<path fill="none" stroke="#63b8ff" d="M61.65,-172.97C75.38,-194.6 103.55,-233.15 139,-250.5 185.87,-273.43 246.11,-275.92 288.76,-273.9"/>
<polygon fill="#63b8ff" stroke="#63b8ff" points="288.73,-277.41 298.51,-273.33 288.32,-270.42 288.73,-277.41"/>
</g>
<!-- Node6 -->
<g id="node6" class="node">
<title>Node6</title>
<g id="a_node6"><a xlink:href="class_dual___l_e_d.html#ab1cd238e00901ca9556914a38d3a064c" target="_top" xlink:title="Enciende el LED en verde.">
<polygon fill="white" stroke="#666666" points="252.5,-204 140.5,-204 140.5,-185 252.5,-185 252.5,-204"/>
<text text-anchor="middle" x="196.5" y="-192" font-family="Helvetica,sans-Serif" font-size="10.00">Dual_LED::turn_green</text>
</a>
</g>
</g>
<!-- Node1&#45;&gt;Node6 -->
<g id="edge5" class="edge">
<title>Node1&#45;&gt;Node6</title>
<path fill="none" stroke="#63b8ff" d="M103.32,-170.65C117.25,-174.25 132.34,-178.16 146.19,-181.74"/>
<polygon fill="#63b8ff" stroke="#63b8ff" points="144.96,-185.04 155.52,-184.16 146.71,-178.26 144.96,-185.04"/>
</g>
<!-- Node9 -->
<g id="node9" class="node">
<title>Node9</title>
<g id="a_node9"><a xlink:href="class_motor.html#a9a1613b24a5dd07a8c515e82d8e0edeb" target="_top" xlink:title="Apaga el motor.">
<polygon fill="white" stroke="#666666" points="236,-93 157,-93 157,-74 236,-74 236,-93"/>
<text text-anchor="middle" x="196.5" y="-81" font-family="Helvetica,sans-Serif" font-size="10.00">Motor::turn_off</text>
</a>
</g>
</g>
<!-- Node1&#45;&gt;Node9 -->
<g id="edge9" class="edge">
<title>Node1&#45;&gt;Node9</title>
<path fill="none" stroke="#63b8ff" d="M72.91,-142.05C89.89,-129.76 115.06,-112.81 139,-101.5 142.11,-100.03 145.37,-98.64 148.69,-97.33"/>
<polygon fill="#63b8ff" stroke="#63b8ff" points="149.77,-100.66 157.96,-93.94 147.37,-94.08 149.77,-100.66"/>
</g>
<!-- Node10 -->
<g id="node10" class="node">
<title>Node10</title>
<g id="a_node10"><a xlink:href="class_motor.html#a3a871f05d0b017ff32052eb946a56f38" target="_top" xlink:title="Enciende el motor con con una duración en milisegundos duration, por defecto enciende el motor por un...">
<polygon fill="white" stroke="#666666" points="236.5,-56 156.5,-56 156.5,-37 236.5,-37 236.5,-56"/>
<text text-anchor="middle" x="196.5" y="-44" font-family="Helvetica,sans-Serif" font-size="10.00">Motor::turn_on</text>
</a>
</g>
</g>
<!-- Node1&#45;&gt;Node10 -->
<g id="edge10" class="edge">
<title>Node1&#45;&gt;Node10</title>
<path fill="none" stroke="#63b8ff" d="M62.96,-142.02C77.63,-121.44 106.22,-85.28 139,-64.5 141.12,-63.16 143.35,-61.91 145.64,-60.74"/>
<polygon fill="#63b8ff" stroke="#63b8ff" points="146.9,-64.02 154.64,-56.79 144.08,-57.61 146.9,-64.02"/>
</g>
<!-- Node11 -->
<g id="node11" class="node">
<title>Node11</title>
<g id="a_node11"><a xlink:href="class_dual___l_e_d.html#a8734a816df04661d86e3ccbf88159eb0" target="_top" xlink:title="Enciende el LED en rojo.">
<polygon fill="white" stroke="#666666" points="247,-167 146,-167 146,-148 247,-148 247,-167"/>
<text text-anchor="middle" x="196.5" y="-155" font-family="Helvetica,sans-Serif" font-size="10.00">Dual_LED::turn_red</text>
</a>
</g>
</g>
<!-- Node1&#45;&gt;Node11 -->
<g id="edge11" class="edge">
<title>Node1&#45;&gt;Node11</title>
<path fill="none" stroke="#63b8ff" d="M103.32,-157.5C113.35,-157.5 123.98,-157.5 134.31,-157.5"/>
<polygon fill="#63b8ff" stroke="#63b8ff" points="134.29,-161 144.29,-157.5 134.29,-154 134.29,-161"/>
</g>
<!-- Node12 -->
<g id="node12" class="node">
<title>Node12</title>
<g id="a_node12"><a xlink:href="class_dual___l_e_d.html#aabc0462521bcc08ea7f6f04642f7e89d" target="_top" xlink:title="Enciende el LED en amarillo. El comportamiento es indefinido para pines no PWM.">
<polygon fill="white" stroke="#666666" points="254,-130 139,-130 139,-111 254,-111 254,-130"/>
<text text-anchor="middle" x="196.5" y="-118" font-family="Helvetica,sans-Serif" font-size="10.00">Dual_LED::turn_yellow</text>
</a>
</g>
</g>
<!-- Node1&#45;&gt;Node12 -->
<g id="edge14" class="edge">
<title>Node1&#45;&gt;Node12</title>
<path fill="none" stroke="#63b8ff" d="M103.32,-144.35C117.25,-140.75 132.34,-136.84 146.19,-133.26"/>
<polygon fill="#63b8ff" stroke="#63b8ff" points="146.71,-136.74 155.52,-130.84 144.96,-129.96 146.71,-136.74"/>
</g>
<!-- Node13 -->
<g id="node13" class="node">
<title>Node13</title>
<g id="a_node13"><a xlink:href="class_display.html#ad2740b779d61e461c4dcaaf34f1fcd8f" target="_top" xlink:title="Actualiza los valores en pantalla con los parámetros previamente fijados. Solo actualiza la pantalla ...">
<polygon fill="white" stroke="#666666" points="238.5,-19 154.5,-19 154.5,0 238.5,0 238.5,-19"/>
<text text-anchor="middle" x="196.5" y="-7" font-family="Helvetica,sans-Serif" font-size="10.00">Display::update</text>
</a>
</g>
</g>
<!-- Node1&#45;&gt;Node13 -->
<g id="edge17" class="edge">
<title>Node1&#45;&gt;Node13</title>
<path fill="none" stroke="#63b8ff" d="M58.58,-142.22C70.15,-115.1 97.87,-58.51 139,-27.5 140.55,-26.33 142.19,-25.23 143.88,-24.2"/>
<polygon fill="#63b8ff" stroke="#63b8ff" points="145.37,-27.37 152.71,-19.74 142.21,-21.13 145.37,-27.37"/>
</g>
<!-- Node3&#45;&gt;Node4 -->
<g id="edge3" class="edge">
<title>Node3&#45;&gt;Node4</title>
<path fill="none" stroke="#63b8ff" d="M236.22,-241.42C253.39,-245.81 273.81,-251.04 292.1,-255.72"/>
<polygon fill="#63b8ff" stroke="#63b8ff" points="291.15,-259.09 301.7,-258.18 292.88,-252.31 291.15,-259.09"/>
</g>
<!-- Node5 -->
<g id="node5" class="node">
<title>Node5</title>
<g id="a_node5"><a xlink:href="class_buzzer.html#a9ba28d9ca8b3dd80541d9a13a8b0f625" target="_top" xlink:title="Enciende el buzzer con con una duración en milisegundos duration, por defecto enciende el buzzer por ...">
<polygon fill="white" stroke="#666666" points="386,-241 300,-241 300,-222 386,-222 386,-241"/>
<text text-anchor="middle" x="343" y="-229" font-family="Helvetica,sans-Serif" font-size="10.00">Buzzer::turn_on</text>
</a>
</g>
</g>
<!-- Node3&#45;&gt;Node5 -->
<g id="edge4" class="edge">
<title>Node3&#45;&gt;Node5</title>
<path fill="none" stroke="#63b8ff" d="M236.99,-231.5C252.74,-231.5 271.12,-231.5 288.07,-231.5"/>
<polygon fill="#63b8ff" stroke="#63b8ff" points="288.01,-235 298.01,-231.5 288.01,-228 288.01,-235"/>
</g>
<!-- Node7 -->
<g id="node7" class="node">
<title>Node7</title>
<g id="a_node7"><a xlink:href="class_dual___l_e_d.html#aeb163748acf071a1652c56ae1dff9d52" target="_top" xlink:title="Fija el color del led, no enciende el led,.">
<polygon fill="white" stroke="#666666" points="396,-185 290,-185 290,-166 396,-166 396,-185"/>
<text text-anchor="middle" x="343" y="-173" font-family="Helvetica,sans-Serif" font-size="10.00">Dual_LED::set_color</text>
</a>
</g>
</g>
<!-- Node6&#45;&gt;Node7 -->
<g id="edge6" class="edge">
<title>Node6&#45;&gt;Node7</title>
<path fill="none" stroke="#63b8ff" d="M252.95,-187.21C261.27,-186.11 269.9,-184.98 278.37,-183.87"/>
<polygon fill="#63b8ff" stroke="#63b8ff" points="278.82,-187.34 288.28,-182.56 277.91,-180.4 278.82,-187.34"/>
</g>
<!-- Node8 -->
<g id="node8" class="node">
<title>Node8</title>
<g id="a_node8"><a xlink:href="class_dual___l_e_d.html#a8b13294b883897eb83f91bf90a3a11cd" target="_top" xlink:title="Enciende el LED en el color actual.">
<polygon fill="white" stroke="#666666" points="392,-148 294,-148 294,-129 392,-129 392,-148"/>
<text text-anchor="middle" x="343" y="-136" font-family="Helvetica,sans-Serif" font-size="10.00">Dual_LED::turn_on</text>
</a>
</g>
</g>
<!-- Node6&#45;&gt;Node8 -->
<g id="edge7" class="edge">
<title>Node6&#45;&gt;Node8</title>
<path fill="none" stroke="#63b8ff" d="M230.11,-184.53C238.02,-181.84 246.39,-178.76 254,-175.5 270.63,-168.37 273.4,-163.7 290,-156.5 293.18,-155.12 296.51,-153.77 299.88,-152.46"/>
<polygon fill="#63b8ff" stroke="#63b8ff" points="301.04,-155.76 309.21,-149.02 298.62,-149.2 301.04,-155.76"/>
</g>
<!-- Node11&#45;&gt;Node7 -->
<g id="edge12" class="edge">
<title>Node11&#45;&gt;Node7</title>
<path fill="none" stroke="#63b8ff" d="M247.23,-163.69C257.3,-164.95 268.02,-166.28 278.49,-167.59"/>
<polygon fill="#63b8ff" stroke="#63b8ff" points="277.86,-171.04 288.22,-168.8 278.72,-164.09 277.86,-171.04"/>
</g>
<!-- Node11&#45;&gt;Node8 -->
<g id="edge13" class="edge">
<title>Node11&#45;&gt;Node8</title>
<path fill="none" stroke="#63b8ff" d="M247.23,-150.96C258.61,-149.46 270.82,-147.86 282.57,-146.31"/>
<polygon fill="#63b8ff" stroke="#63b8ff" points="282.69,-149.83 292.14,-145.06 281.77,-142.89 282.69,-149.83"/>
</g>
<!-- Node12&#45;&gt;Node7 -->
<g id="edge15" class="edge">
<title>Node12&#45;&gt;Node7</title>
<path fill="none" stroke="#63b8ff" d="M231.57,-130.41C239.04,-132.84 246.85,-135.59 254,-138.5 270.57,-145.24 273.57,-149.42 290,-156.5 294.01,-158.23 298.23,-159.94 302.46,-161.59"/>
<polygon fill="#63b8ff" stroke="#63b8ff" points="300.88,-164.73 311.47,-164.99 303.35,-158.18 300.88,-164.73"/>
</g>
<!-- Node12&#45;&gt;Node8 -->
<g id="edge16" class="edge">
<title>Node12&#45;&gt;Node8</title>
<path fill="none" stroke="#63b8ff" d="M254.2,-127.56C263.53,-128.72 273.22,-129.93 282.62,-131.1"/>
<polygon fill="#63b8ff" stroke="#63b8ff" points="282.02,-134.56 292.38,-132.32 282.89,-127.61 282.02,-134.56"/>
</g>
</g>
</svg>
