<?xml version="1.0" encoding="UTF-8" standalone="no"?>
<!DOCTYPE svg PUBLIC "-//W3C//DTD SVG 1.1//EN"
 "http://www.w3.org/Graphics/SVG/1.1/DTD/svg11.dtd">
<!-- Generated by graphviz version 7.0.2 (20221119.0110)
 -->
<!-- Title: Abstract_state Pages: 1 -->
<svg width="400pt" height="82pt"
 viewBox="0.00 0.00 399.50 82.00" xmlns="http://www.w3.org/2000/svg" xmlns:xlink="http://www.w3.org/1999/xlink">
<g id="graph0" class="graph" transform="scale(1 1) rotate(0) translate(4 78)">
<title>Abstract_state</title>
<!-- Node1 -->
<g id="node1" class="node">
<title>Node1</title>
<g id="a_node1"><a xlink:title="Clase base para implementar los estados de Control_system. Cada estado se debe ocupar de su comportam...">
<polygon fill="#999999" stroke="#666666" points="242.5,-74 162.5,-74 162.5,-55 242.5,-55 242.5,-74"/>
<text text-anchor="middle" x="202.5" y="-62" font-family="Helvetica,sans-Serif" font-size="10.00">Abstract_state</text>
</a>
</g>
</g>
<!-- Node2 -->
<g id="node2" class="node">
<title>Node2</title>
<g id="a_node2"><a xlink:href="class_alarm__state.html" target="_top" xlink:title=" ">
<polygon fill="white" stroke="#bfbfbf" points="69,-19 0,-19 0,0 69,0 69,-19"/>
<text text-anchor="middle" x="34.5" y="-7" font-family="Helvetica,sans-Serif" font-size="10.00">Alarm_state</text>
</a>
</g>
</g>
<!-- Node1&#45;&gt;Node2 -->
<g id="edge1" class="edge">
<title>Node1&#45;&gt;Node2</title>
<path fill="none" stroke="#63b8ff" d="M163.23,-51.11C132.47,-41.41 90.41,-28.14 62.86,-19.45"/>
<polygon fill="#63b8ff" stroke="#63b8ff" points="161.97,-54.38 172.56,-54.05 164.07,-47.71 161.97,-54.38"/>
</g>
<!-- Node3 -->
<g id="node3" class="node">
<title>Node3</title>
<g id="a_node3"><a xlink:href="class_check__instruction__state.html" target="_top" xlink:title=" ">
<polygon fill="white" stroke="#bfbfbf" points="209.5,-19 87.5,-19 87.5,0 209.5,0 209.5,-19"/>
<text text-anchor="middle" x="148.5" y="-7" font-family="Helvetica,sans-Serif" font-size="10.00">Check_instruction_state</text>
</a>
</g>
</g>
<!-- Node1&#45;&gt;Node3 -->
<g id="edge2" class="edge">
<title>Node1&#45;&gt;Node3</title>
<path fill="none" stroke="#63b8ff" d="M185.46,-46.78C176.24,-37.72 165.21,-26.9 157.61,-19.44"/>
<polygon fill="#63b8ff" stroke="#63b8ff" points="182.91,-49.18 192.5,-53.69 187.82,-44.19 182.91,-49.18"/>
</g>
<!-- Node4 -->
<g id="node4" class="node">
<title>Node4</title>
<g id="a_node4"><a xlink:href="class_idle__state.html" target="_top" xlink:title="Clase para implementar el estado de reposo del sistema (Sin alarmas ni advertencias,...">
<polygon fill="white" stroke="#666666" points="287,-19 228,-19 228,0 287,0 287,-19"/>
<text text-anchor="middle" x="257.5" y="-7" font-family="Helvetica,sans-Serif" font-size="10.00">Idle_state</text>
</a>
</g>
</g>
<!-- Node1&#45;&gt;Node4 -->
<g id="edge3" class="edge">
<title>Node1&#45;&gt;Node4</title>
<path fill="none" stroke="#63b8ff" d="M219.85,-46.78C229.25,-37.72 240.48,-26.9 248.22,-19.44"/>
<polygon fill="#63b8ff" stroke="#63b8ff" points="217.44,-44.24 212.67,-53.7 222.3,-49.28 217.44,-44.24"/>
</g>
<!-- Node5 -->
<g id="node5" class="node">
<title>Node5</title>
<g id="a_node5"><a xlink:href="class_shutdown__state.html" target="_top" xlink:title=" ">
<polygon fill="white" stroke="#bfbfbf" points="391.5,-19 305.5,-19 305.5,0 391.5,0 391.5,-19"/>
<text text-anchor="middle" x="348.5" y="-7" font-family="Helvetica,sans-Serif" font-size="10.00">Shutdown_state</text>
</a>
</g>
</g>
<!-- Node1&#45;&gt;Node5 -->
<g id="edge4" class="edge">
<title>Node1&#45;&gt;Node5</title>
<path fill="none" stroke="#63b8ff" d="M238.08,-50.58C264.76,-40.9 300.59,-27.89 324.1,-19.36"/>
<polygon fill="#63b8ff" stroke="#63b8ff" points="236.9,-47.29 228.69,-53.99 239.28,-53.87 236.9,-47.29"/>
</g>
</g>
</svg>
