<?xml version="1.0" encoding="UTF-8" standalone="no"?>
<!DOCTYPE svg PUBLIC "-//W3C//DTD SVG 1.1//EN"
 "http://www.w3.org/Graphics/SVG/1.1/DTD/svg11.dtd">
<!-- Generated by graphviz version 7.0.2 (20221119.0110)
 -->
<!-- Title: Idle_state::exit Pages: 1 -->
<svg width="222pt" height="64pt"
 viewBox="0.00 0.00 222.00 64.00" xmlns="http://www.w3.org/2000/svg" xmlns:xlink="http://www.w3.org/1999/xlink">
<g id="graph0" class="graph" transform="scale(1 1) rotate(0) translate(4 60)">
<title>Idle_state::exit</title>
<!-- Node1 -->
<g id="node1" class="node">
<title>Node1</title>
<g id="a_node1"><a xlink:title="Método llamada al salir del estado. Apaga los led indicadores y el buzzer.">
<polygon fill="#999999" stroke="#666666" points="80,-37 0,-37 0,-18 80,-18 80,-37"/>
<text text-anchor="middle" x="40" y="-25" font-family="Helvetica,sans-Serif" font-size="10.00">Idle_state::exit</text>
</a>
</g>
</g>
<!-- Node2 -->
<g id="node2" class="node">
<title>Node2</title>
<g id="a_node2"><a xlink:href="class_buzzer.html#a5809a2b7b52e74f509c31214257f3af0" target="_top" xlink:title="Apaga el buzzer.">
<polygon fill="white" stroke="#666666" points="207.5,-56 122.5,-56 122.5,-37 207.5,-37 207.5,-56"/>
<text text-anchor="middle" x="165" y="-44" font-family="Helvetica,sans-Serif" font-size="10.00">Buzzer::turn_off</text>
</a>
</g>
</g>
<!-- Node1&#45;&gt;Node2 -->
<g id="edge1" class="edge">
<title>Node1&#45;&gt;Node2</title>
<path fill="none" stroke="#63b8ff" d="M80.26,-33.56C89.96,-35.06 100.52,-36.69 110.77,-38.28"/>
<polygon fill="#63b8ff" stroke="#63b8ff" points="110.23,-41.74 120.65,-39.8 111.3,-34.82 110.23,-41.74"/>
</g>
<!-- Node3 -->
<g id="node3" class="node">
<title>Node3</title>
<g id="a_node3"><a xlink:href="class_dual___l_e_d.html#a4226b64f8b1c00f3e4c649a8be2e64c9" target="_top" xlink:title="Apaga el LED.">
<polygon fill="white" stroke="#666666" points="214,-19 116,-19 116,0 214,0 214,-19"/>
<text text-anchor="middle" x="165" y="-7" font-family="Helvetica,sans-Serif" font-size="10.00">Dual_LED::turn_off</text>
</a>
</g>
</g>
<!-- Node1&#45;&gt;Node3 -->
<g id="edge2" class="edge">
<title>Node1&#45;&gt;Node3</title>
<path fill="none" stroke="#63b8ff" d="M80.26,-21.76C87.99,-20.62 96.27,-19.41 104.49,-18.21"/>
<polygon fill="#63b8ff" stroke="#63b8ff" points="104.74,-21.71 114.13,-16.8 103.73,-14.78 104.74,-21.71"/>
</g>
</g>
</svg>
