<?xml version="1.0" encoding="UTF-8" standalone="no"?>
<!DOCTYPE svg PUBLIC "-//W3C//DTD SVG 1.1//EN"
 "http://www.w3.org/Graphics/SVG/1.1/DTD/svg11.dtd">
<!-- Generated by graphviz version 7.0.2 (20221119.0110)
 -->
<!-- Title: Moisture_observer::update Pages: 1 -->
<svg width="417pt" height="134pt"
 viewBox="0.00 0.00 417.00 134.00" xmlns="http://www.w3.org/2000/svg" xmlns:xlink="http://www.w3.org/1999/xlink">
<g id="graph0" class="graph" transform="scale(1 1) rotate(0) translate(4 130)">
<title>Moisture_observer::update</title>
<!-- Node1 -->
<g id="node1" class="node">
<title>Node1</title>
<g id="a_node1"><a xlink:title="Actualización del observador, mide la humedad y, si excede el umbral MOISTURE_ALARM_THRESHOLD,...">
<polygon fill="#999999" stroke="#666666" points="101,-78 0,-78 0,-48 101,-48 101,-78"/>
<text text-anchor="start" x="8" y="-66" font-family="Helvetica,sans-Serif" font-size="10.00">Moisture_observer::</text>
<text text-anchor="middle" x="50.5" y="-55" font-family="Helvetica,sans-Serif" font-size="10.00">update</text>
</a>
</g>
</g>
<!-- Node2 -->
<g id="node2" class="node">
<title>Node2</title>
<g id="a_node2"><a xlink:href="class_control__system.html#af7e1048dcc938de30589f961d0b14ee1" target="_top" xlink:title="Devuelve el estado del indicador de muestreo de sensores.">
<polygon fill="white" stroke="#666666" points="263.5,-126 138.5,-126 138.5,-96 263.5,-96 263.5,-126"/>
<text text-anchor="start" x="146.5" y="-114" font-family="Helvetica,sans-Serif" font-size="10.00">Control_system::is</text>
<text text-anchor="middle" x="201" y="-103" font-family="Helvetica,sans-Serif" font-size="10.00">_poll_sensors_requested</text>
</a>
</g>
</g>
<!-- Node1&#45;&gt;Node2 -->
<g id="edge1" class="edge">
<title>Node1&#45;&gt;Node2</title>
<path fill="none" stroke="#63b8ff" d="M99.3,-78.45C112.82,-82.82 127.67,-87.62 141.73,-92.17"/>
<polygon fill="#63b8ff" stroke="#63b8ff" points="140.25,-95.37 150.85,-95.11 142.41,-88.71 140.25,-95.37"/>
</g>
<!-- Node3 -->
<g id="node3" class="node">
<title>Node3</title>
<g id="a_node3"><a xlink:href="class_control__system.html#ac57cf749db659ed80fa4a37b1f27c284" target="_top" xlink:title="Obtiene la humedad del objeto mois_sensor.">
<polygon fill="white" stroke="#666666" points="265,-78 137,-78 137,-48 265,-48 265,-78"/>
<text text-anchor="start" x="145" y="-66" font-family="Helvetica,sans-Serif" font-size="10.00">Control_system::measure</text>
<text text-anchor="middle" x="201" y="-55" font-family="Helvetica,sans-Serif" font-size="10.00">_moisture</text>
</a>
</g>
</g>
<!-- Node1&#45;&gt;Node3 -->
<g id="edge2" class="edge">
<title>Node1&#45;&gt;Node3</title>
<path fill="none" stroke="#63b8ff" d="M101.36,-63C109.04,-63 117.1,-63 125.18,-63"/>
<polygon fill="#63b8ff" stroke="#63b8ff" points="125.04,-66.5 135.04,-63 125.04,-59.5 125.04,-66.5"/>
</g>
<!-- Node5 -->
<g id="node5" class="node">
<title>Node5</title>
<g id="a_node5"><a xlink:href="class_control__system.html#af5985ea3ad848a1631ff6c12ef4b3941" target="_top" xlink:title="Solicita una alarma.">
<polygon fill="white" stroke="#666666" points="262.5,-30 139.5,-30 139.5,0 262.5,0 262.5,-30"/>
<text text-anchor="start" x="147.5" y="-18" font-family="Helvetica,sans-Serif" font-size="10.00">Control_system::request</text>
<text text-anchor="middle" x="201" y="-7" font-family="Helvetica,sans-Serif" font-size="10.00">_alarm</text>
</a>
</g>
</g>
<!-- Node1&#45;&gt;Node5 -->
<g id="edge4" class="edge">
<title>Node1&#45;&gt;Node5</title>
<path fill="none" stroke="#63b8ff" d="M99.3,-47.55C112.82,-43.18 127.67,-38.38 141.73,-33.83"/>
<polygon fill="#63b8ff" stroke="#63b8ff" points="142.41,-37.29 150.85,-30.89 140.25,-30.63 142.41,-37.29"/>
</g>
<!-- Node4 -->
<g id="node4" class="node">
<title>Node4</title>
<g id="a_node4"><a xlink:href="class_moisture__sensor.html#acd72c51f63ca144ecb419b7cca849974" target="_top" xlink:title="Devuelve la lectura realizada.">
<polygon fill="white" stroke="#666666" points="409,-78 301,-78 301,-48 409,-48 409,-78"/>
<text text-anchor="start" x="309" y="-66" font-family="Helvetica,sans-Serif" font-size="10.00">Moisture_sensor::get</text>
<text text-anchor="middle" x="355" y="-55" font-family="Helvetica,sans-Serif" font-size="10.00">_reading</text>
</a>
</g>
</g>
<!-- Node3&#45;&gt;Node4 -->
<g id="edge3" class="edge">
<title>Node3&#45;&gt;Node4</title>
<path fill="none" stroke="#63b8ff" d="M265.14,-63C273.24,-63 281.53,-63 289.64,-63"/>
<polygon fill="#63b8ff" stroke="#63b8ff" points="289.44,-66.5 299.44,-63 289.44,-59.5 289.44,-66.5"/>
</g>
</g>
</svg>
