<?xml version="1.0" encoding="UTF-8" standalone="no"?>
<!DOCTYPE svg PUBLIC "-//W3C//DTD SVG 1.1//EN"
 "http://www.w3.org/Graphics/SVG/1.1/DTD/svg11.dtd">
<!-- Generated by graphviz version 7.0.2 (20221119.0110)
 -->
<!-- Title: Digital_dual_LED::turn_green Pages: 1 -->
<svg width="419pt" height="59pt"
 viewBox="0.00 0.00 419.00 59.00" xmlns="http://www.w3.org/2000/svg" xmlns:xlink="http://www.w3.org/1999/xlink">
<g id="graph0" class="graph" transform="scale(1 1) rotate(0) translate(4 55)">
<title>Digital_dual_LED::turn_green</title>
<!-- Node1 -->
<g id="node1" class="node">
<title>Node1</title>
<g id="a_node1"><a xlink:title="Enciende el LED en verde.">
<polygon fill="#999999" stroke="#666666" points="411,-51 298,-51 298,-21 411,-21 411,-51"/>
<text text-anchor="start" x="306" y="-39" font-family="Helvetica,sans-Serif" font-size="10.00">Digital_dual_LED::turn</text>
<text text-anchor="middle" x="354.5" y="-28" font-family="Helvetica,sans-Serif" font-size="10.00">_green</text>
</a>
</g>
</g>
<!-- Node2 -->
<g id="node2" class="node">
<title>Node2</title>
<g id="a_node2"><a xlink:href="class_check__instruction__state.html#ae13ba3789ab274a7dddf19be0a413b55" target="_top" xlink:title="Método que se llama al ingresar al estado.">
<polygon fill="white" stroke="#666666" points="122,-51 0,-51 0,-21 122,-21 122,-51"/>
<text text-anchor="start" x="8" y="-39" font-family="Helvetica,sans-Serif" font-size="10.00">Check_instruction_state</text>
<text text-anchor="middle" x="61" y="-28" font-family="Helvetica,sans-Serif" font-size="10.00">::enter</text>
</a>
</g>
</g>
<!-- Node1&#45;&gt;Node2 -->
<g id="edge1" class="edge">
<title>Node1&#45;&gt;Node2</title>
<path fill="none" stroke="#63b8ff" d="M286.35,-38.45C278.15,-38.68 269.89,-38.87 262,-39 215.78,-39.76 204.22,-39.72 158,-39 146.5,-38.82 134.22,-38.52 122.42,-38.18"/>
<polygon fill="#63b8ff" stroke="#63b8ff" points="286.46,-41.95 296.35,-38.16 286.25,-34.96 286.46,-41.95"/>
</g>
<!-- Node3 -->
<g id="node3" class="node">
<title>Node3</title>
<g id="a_node3"><a xlink:href="class_control__system.html#a46298a6a5f4ba43857baa6ae23d00dbc" target="_top" xlink:title="Fija el valor de velocidad del ventilador.">
<polygon fill="white" stroke="#666666" points="262,-30 158,-30 158,0 262,0 262,-30"/>
<text text-anchor="start" x="166" y="-18" font-family="Helvetica,sans-Serif" font-size="10.00">Control_system::set</text>
<text text-anchor="middle" x="210" y="-7" font-family="Helvetica,sans-Serif" font-size="10.00">_cooler_speed</text>
</a>
</g>
</g>
<!-- Node1&#45;&gt;Node3 -->
<g id="edge2" class="edge">
<title>Node1&#45;&gt;Node3</title>
<path fill="none" stroke="#63b8ff" d="M286.22,-26.08C278.11,-24.89 269.93,-23.68 262.11,-22.53"/>
<polygon fill="#63b8ff" stroke="#63b8ff" points="285.69,-29.54 296.09,-27.54 286.71,-22.62 285.69,-29.54"/>
</g>
<!-- Node3&#45;&gt;Node2 -->
<g id="edge3" class="edge">
<title>Node3&#45;&gt;Node2</title>
<path fill="none" stroke="#63b8ff" d="M146.21,-23.97C138.34,-25.09 130.3,-26.24 122.46,-27.36"/>
<polygon fill="#63b8ff" stroke="#63b8ff" points="146.68,-27.44 156.09,-22.56 145.69,-20.51 146.68,-27.44"/>
</g>
</g>
</svg>
