<?xml version="1.0" encoding="UTF-8" standalone="no"?>
<!DOCTYPE svg PUBLIC "-//W3C//DTD SVG 1.1//EN"
 "http://www.w3.org/Graphics/SVG/1.1/DTD/svg11.dtd">
<!-- Generated by graphviz version 7.0.2 (20221119.0110)
 -->
<!-- Title: Buzzer::toggle Pages: 1 -->
<svg width="210pt" height="64pt"
 viewBox="0.00 0.00 210.00 64.00" xmlns="http://www.w3.org/2000/svg" xmlns:xlink="http://www.w3.org/1999/xlink">
<g id="graph0" class="graph" transform="scale(1 1) rotate(0) translate(4 60)">
<title>Buzzer::toggle</title>
<!-- Node1 -->
<g id="node1" class="node">
<title>Node1</title>
<g id="a_node1"><a xlink:title="Permuta el estado del led, si estaba encendido pasará a apagado y viceversa.">
<polygon fill="#999999" stroke="#666666" points="80,-37 0,-37 0,-18 80,-18 80,-37"/>
<text text-anchor="middle" x="40" y="-25" font-family="Helvetica,sans-Serif" font-size="10.00">Buzzer::toggle</text>
</a>
</g>
</g>
<!-- Node2 -->
<g id="node2" class="node">
<title>Node2</title>
<g id="a_node2"><a xlink:href="class_buzzer.html#a5809a2b7b52e74f509c31214257f3af0" target="_top" xlink:title="Apaga el buzzer.">
<polygon fill="white" stroke="#666666" points="201.5,-56 116.5,-56 116.5,-37 201.5,-37 201.5,-56"/>
<text text-anchor="middle" x="159" y="-44" font-family="Helvetica,sans-Serif" font-size="10.00">Buzzer::turn_off</text>
</a>
</g>
</g>
<!-- Node1&#45;&gt;Node2 -->
<g id="edge1" class="edge">
<title>Node1&#45;&gt;Node2</title>
<path fill="none" stroke="#63b8ff" d="M80.28,-33.88C88.23,-35.17 96.7,-36.55 105.02,-37.9"/>
<polygon fill="#63b8ff" stroke="#63b8ff" points="104.29,-41.32 114.72,-39.47 105.41,-34.41 104.29,-41.32"/>
</g>
<!-- Node3 -->
<g id="node3" class="node">
<title>Node3</title>
<g id="a_node3"><a xlink:href="class_buzzer.html#a9ba28d9ca8b3dd80541d9a13a8b0f625" target="_top" xlink:title="Enciende el buzzer con con una duración en milisegundos duration, por defecto enciende el buzzer por ...">
<polygon fill="white" stroke="#666666" points="202,-19 116,-19 116,0 202,0 202,-19"/>
<text text-anchor="middle" x="159" y="-7" font-family="Helvetica,sans-Serif" font-size="10.00">Buzzer::turn_on</text>
</a>
</g>
</g>
<!-- Node1&#45;&gt;Node3 -->
<g id="edge2" class="edge">
<title>Node1&#45;&gt;Node3</title>
<path fill="none" stroke="#63b8ff" d="M80.28,-21.46C88.05,-20.26 96.31,-18.99 104.45,-17.74"/>
<polygon fill="#63b8ff" stroke="#63b8ff" points="104.96,-21.2 114.31,-16.22 103.9,-14.28 104.96,-21.2"/>
</g>
</g>
</svg>
