<?xml version="1.0" encoding="UTF-8" standalone="no"?>
<!DOCTYPE svg PUBLIC "-//W3C//DTD SVG 1.1//EN"
 "http://www.w3.org/Graphics/SVG/1.1/DTD/svg11.dtd">
<!-- Generated by graphviz version 7.0.2 (20221119.0110)
 -->
<!-- Title: Display::set_fan_speed_pct Pages: 1 -->
<svg width="617pt" height="38pt"
 viewBox="0.00 0.00 617.00 38.00" xmlns="http://www.w3.org/2000/svg" xmlns:xlink="http://www.w3.org/1999/xlink">
<g id="graph0" class="graph" transform="scale(1 1) rotate(0) translate(4 34)">
<title>Display::set_fan_speed_pct</title>
<!-- Node1 -->
<g id="node1" class="node">
<title>Node1</title>
<g id="a_node1"><a xlink:title="Fija el valor del porcentaje de velocidad, no lo imprie en pantalla. La ubicación se da con las const...">
<polygon fill="#999999" stroke="#666666" points="609,-24.5 472,-24.5 472,-5.5 609,-5.5 609,-24.5"/>
<text text-anchor="middle" x="540.5" y="-12.5" font-family="Helvetica,sans-Serif" font-size="10.00">Display::set_fan_speed_pct</text>
</a>
</g>
</g>
<!-- Node2 -->
<g id="node2" class="node">
<title>Node2</title>
<g id="a_node2"><a xlink:href="class_control__system.html#a914b54af513cf38a2600b3c710ab5c87" target="_top" xlink:title="Fija velocidades en el display de los ventiladores.">
<polygon fill="white" stroke="#666666" points="436,-30 314,-30 314,0 436,0 436,-30"/>
<text text-anchor="start" x="322" y="-18" font-family="Helvetica,sans-Serif" font-size="10.00">Control_system::display</text>
<text text-anchor="middle" x="375" y="-7" font-family="Helvetica,sans-Serif" font-size="10.00">_cooler_speed</text>
</a>
</g>
</g>
<!-- Node1&#45;&gt;Node2 -->
<g id="edge1" class="edge">
<title>Node1&#45;&gt;Node2</title>
<path fill="none" stroke="#63b8ff" d="M460.28,-15C452.25,-15 444.19,-15 436.4,-15"/>
<polygon fill="#63b8ff" stroke="#63b8ff" points="460.07,-18.5 470.07,-15 460.07,-11.5 460.07,-18.5"/>
</g>
<!-- Node3 -->
<g id="node3" class="node">
<title>Node3</title>
<g id="a_node3"><a xlink:href="class_cooler__observer.html#a1b030ab9893e310f4ae0edd870706ee5" target="_top" xlink:title="Actualiza la medición de velocidad.">
<polygon fill="white" stroke="#666666" points="278,-30 157,-30 157,0 278,0 278,-30"/>
<text text-anchor="start" x="165" y="-18" font-family="Helvetica,sans-Serif" font-size="10.00">Cooler_observer::update</text>
<text text-anchor="middle" x="217.5" y="-7" font-family="Helvetica,sans-Serif" font-size="10.00">_speed</text>
</a>
</g>
</g>
<!-- Node2&#45;&gt;Node3 -->
<g id="edge2" class="edge">
<title>Node2&#45;&gt;Node3</title>
<path fill="none" stroke="#63b8ff" d="M302.58,-15C294.51,-15 286.36,-15 278.46,-15"/>
<polygon fill="#63b8ff" stroke="#63b8ff" points="302.37,-18.5 312.37,-15 302.37,-11.5 302.37,-18.5"/>
</g>
<!-- Node4 -->
<g id="node4" class="node">
<title>Node4</title>
<g id="a_node4"><a xlink:href="class_cooler__observer.html#aca9bdbbc11981c1ec178090622caaee4" target="_top" xlink:title="Si el indicador de próximo paso del usuario está activo y el acceso a la próxima instrucción no esté ...">
<polygon fill="white" stroke="#666666" points="121,-24.5 0,-24.5 0,-5.5 121,-5.5 121,-24.5"/>
<text text-anchor="middle" x="60.5" y="-12.5" font-family="Helvetica,sans-Serif" font-size="10.00">Cooler_observer::update</text>
</a>
</g>
</g>
<!-- Node3&#45;&gt;Node4 -->
<g id="edge3" class="edge">
<title>Node3&#45;&gt;Node4</title>
<path fill="none" stroke="#63b8ff" d="M145.31,-15C137.27,-15 129.14,-15 121.27,-15"/>
<polygon fill="#63b8ff" stroke="#63b8ff" points="145.06,-18.5 155.06,-15 145.06,-11.5 145.06,-18.5"/>
</g>
</g>
</svg>
