<?xml version="1.0" encoding="UTF-8" standalone="no"?>
<!DOCTYPE svg PUBLIC "-//W3C//DTD SVG 1.1//EN"
 "http://www.w3.org/Graphics/SVG/1.1/DTD/svg11.dtd">
<!-- Generated by graphviz version 7.0.2 (20221119.0110)
 -->
<!-- Title: Control_system::show_current_step Pages: 1 -->
<svg width="449pt" height="138pt"
 viewBox="0.00 0.00 449.00 138.00" xmlns="http://www.w3.org/2000/svg" xmlns:xlink="http://www.w3.org/1999/xlink">
<g id="graph0" class="graph" transform="scale(1 1) rotate(0) translate(4 134)">
<title>Control_system::show_current_step</title>
<!-- Node1 -->
<g id="node1" class="node">
<title>Node1</title>
<g id="a_node1"><a xlink:title="Muestra en pantalla el paso del procedimientoa actual.">
<polygon fill="#999999" stroke="#666666" points="441,-79.5 328,-79.5 328,-49.5 441,-49.5 441,-79.5"/>
<text text-anchor="start" x="336" y="-67.5" font-family="Helvetica,sans-Serif" font-size="10.00">Control_system::show</text>
<text text-anchor="middle" x="384.5" y="-56.5" font-family="Helvetica,sans-Serif" font-size="10.00">_current_step</text>
</a>
</g>
</g>
<!-- Node2 -->
<g id="node2" class="node">
<title>Node2</title>
<g id="a_node2"><a xlink:href="class_idle__state.html#ad6d70e591dd39da724656a4261013e4f" target="_top" xlink:title="Método llamado al ingresar al estado. Actualiza la pantalla con el paso del procedimiento actual.">
<polygon fill="white" stroke="#666666" points="268,-130 182,-130 182,-111 268,-111 268,-130"/>
<text text-anchor="middle" x="225" y="-118" font-family="Helvetica,sans-Serif" font-size="10.00">Idle_state::enter</text>
</a>
</g>
</g>
<!-- Node1&#45;&gt;Node2 -->
<g id="edge1" class="edge">
<title>Node1&#45;&gt;Node2</title>
<path fill="none" stroke="#63b8ff" d="M338.77,-84.41C324.03,-90.61 307.45,-97.21 292,-102.5 283.57,-105.39 274.42,-108.13 265.69,-110.56"/>
<polygon fill="#63b8ff" stroke="#63b8ff" points="339.92,-87.73 347.75,-80.58 337.18,-81.29 339.92,-87.73"/>
</g>
<!-- Node3 -->
<g id="node3" class="node">
<title>Node3</title>
<g id="a_node3"><a xlink:href="class_control__system.html#aa98b33b5c57a47fb55e211516e49088b" target="_top" xlink:title="Enciende el buzzer por 100ms (bloqueante) y, si no esta anulado el próximo paso, avanza hacia la sigu...">
<polygon fill="white" stroke="#666666" points="292,-93 158,-93 158,-74 292,-74 292,-93"/>
<text text-anchor="middle" x="225" y="-81" font-family="Helvetica,sans-Serif" font-size="10.00">Control_system::next_step</text>
</a>
</g>
</g>
<!-- Node1&#45;&gt;Node3 -->
<g id="edge2" class="edge">
<title>Node1&#45;&gt;Node3</title>
<path fill="none" stroke="#63b8ff" d="M316.11,-72.63C308.22,-73.58 300.17,-74.55 292.29,-75.5"/>
<polygon fill="#63b8ff" stroke="#63b8ff" points="316.52,-76.11 326.03,-71.43 315.68,-69.16 316.52,-76.11"/>
</g>
<!-- Node5 -->
<g id="node5" class="node">
<title>Node5</title>
<g id="a_node5"><a xlink:href="class_alarm__state.html#acea6eee2b8d267b67192bbce9e495038" target="_top" xlink:title="Actualización, cambia el color del LED según el estado del motor y hace sonar la alarma....">
<polygon fill="white" stroke="#666666" points="277,-56 173,-56 173,-37 277,-37 277,-56"/>
<text text-anchor="middle" x="225" y="-44" font-family="Helvetica,sans-Serif" font-size="10.00">Alarm_state::update</text>
</a>
</g>
</g>
<!-- Node1&#45;&gt;Node5 -->
<g id="edge4" class="edge">
<title>Node1&#45;&gt;Node5</title>
<path fill="none" stroke="#63b8ff" d="M316.23,-56.81C303.2,-55.32 289.74,-53.78 277.32,-52.37"/>
<polygon fill="#63b8ff" stroke="#63b8ff" points="315.69,-60.27 326.02,-57.93 316.49,-53.32 315.69,-60.27"/>
</g>
<!-- Node6 -->
<g id="node6" class="node">
<title>Node6</title>
<g id="a_node6"><a xlink:href="class_idle__state.html#a92217c98eda8e3bd47eb3a8ff602efc2" target="_top" xlink:title="Método para actualizar el sistema cuando está en estado de reposo. Actualiza la pantalla y los observ...">
<polygon fill="white" stroke="#666666" points="272,-19 178,-19 178,0 272,0 272,-19"/>
<text text-anchor="middle" x="225" y="-7" font-family="Helvetica,sans-Serif" font-size="10.00">Idle_state::update</text>
</a>
</g>
</g>
<!-- Node1&#45;&gt;Node6 -->
<g id="edge5" class="edge">
<title>Node1&#45;&gt;Node6</title>
<path fill="none" stroke="#63b8ff" d="M336.35,-44.96C322.19,-39.37 306.55,-33.45 292,-28.5 282.63,-25.32 272.4,-22.2 262.85,-19.44"/>
<polygon fill="#63b8ff" stroke="#63b8ff" points="334.85,-48.14 345.44,-48.6 337.45,-41.64 334.85,-48.14"/>
</g>
<!-- Node4 -->
<g id="node4" class="node">
<title>Node4</title>
<g id="a_node4"><a xlink:href="class_check__instruction__state.html#ae13ba3789ab274a7dddf19be0a413b55" target="_top" xlink:title="Entrada del estado, resuelve las instrucciones a realizar en cada paso: &#45;WELCOME_STEP: Primer paso,...">
<polygon fill="white" stroke="#666666" points="122,-98.5 0,-98.5 0,-68.5 122,-68.5 122,-98.5"/>
<text text-anchor="start" x="8" y="-86.5" font-family="Helvetica,sans-Serif" font-size="10.00">Check_instruction_state</text>
<text text-anchor="middle" x="61" y="-75.5" font-family="Helvetica,sans-Serif" font-size="10.00">::enter</text>
</a>
</g>
</g>
<!-- Node3&#45;&gt;Node4 -->
<g id="edge3" class="edge">
<title>Node3&#45;&gt;Node4</title>
<path fill="none" stroke="#63b8ff" d="M146.29,-83.5C138.22,-83.5 130.11,-83.5 122.27,-83.5"/>
<polygon fill="#63b8ff" stroke="#63b8ff" points="146.13,-87 156.13,-83.5 146.13,-80 146.13,-87"/>
</g>
</g>
</svg>
