<?xml version="1.0" encoding="UTF-8" standalone="no"?>
<!DOCTYPE svg PUBLIC "-//W3C//DTD SVG 1.1//EN"
 "http://www.w3.org/Graphics/SVG/1.1/DTD/svg11.dtd">
<!-- Generated by graphviz version 7.0.2 (20221119.0110)
 -->
<!-- Title: PC_serial_interface::echo Pages: 1 -->
<svg width="246pt" height="86pt"
 viewBox="0.00 0.00 246.00 86.00" xmlns="http://www.w3.org/2000/svg" xmlns:xlink="http://www.w3.org/1999/xlink">
<g id="graph0" class="graph" transform="scale(1 1) rotate(0) translate(4 82)">
<title>PC_serial_interface::echo</title>
<!-- Node1 -->
<g id="node1" class="node">
<title>Node1</title>
<g id="a_node1"><a xlink:title="repite caracter a caracter lo leido de la interfaz serie.">
<polygon fill="#999999" stroke="#666666" points="101,-54 0,-54 0,-24 101,-24 101,-54"/>
<text text-anchor="start" x="8" y="-42" font-family="Helvetica,sans-Serif" font-size="10.00">PC_serial_interface</text>
<text text-anchor="middle" x="50.5" y="-31" font-family="Helvetica,sans-Serif" font-size="10.00">::echo</text>
</a>
</g>
</g>
<!-- Node2 -->
<g id="node2" class="node">
<title>Node2</title>
<g id="a_node2"><a xlink:href="class_p_c__serial__interface.html#a52ab40d5831945344a22e6ef117d8b3f" target="_top" xlink:title="Imprime en la interfaz serie.">
<polygon fill="white" stroke="#666666" points="238,-78 137,-78 137,-48 238,-48 238,-78"/>
<text text-anchor="start" x="145" y="-66" font-family="Helvetica,sans-Serif" font-size="10.00">PC_serial_interface</text>
<text text-anchor="middle" x="187.5" y="-55" font-family="Helvetica,sans-Serif" font-size="10.00">::print</text>
</a>
</g>
</g>
<!-- Node1&#45;&gt;Node2 -->
<g id="edge1" class="edge">
<title>Node1&#45;&gt;Node2</title>
<path fill="none" stroke="#63b8ff" d="M101.39,-47.87C109.25,-49.27 117.45,-50.72 125.53,-52.16"/>
<polygon fill="#63b8ff" stroke="#63b8ff" points="124.87,-55.6 135.33,-53.9 126.1,-48.71 124.87,-55.6"/>
</g>
<!-- Node3 -->
<g id="node3" class="node">
<title>Node3</title>
<g id="a_node3"><a xlink:href="class_p_c__serial__interface.html#a5921c585d7a5930774b83f738536313e" target="_top" xlink:title="Lee una cadena de texto de la interfaz serie.">
<polygon fill="white" stroke="#666666" points="238,-30 137,-30 137,0 238,0 238,-30"/>
<text text-anchor="start" x="145" y="-18" font-family="Helvetica,sans-Serif" font-size="10.00">PC_serial_interface</text>
<text text-anchor="middle" x="187.5" y="-7" font-family="Helvetica,sans-Serif" font-size="10.00">::read</text>
</a>
</g>
</g>
<!-- Node1&#45;&gt;Node3 -->
<g id="edge2" class="edge">
<title>Node1&#45;&gt;Node3</title>
<path fill="none" stroke="#63b8ff" d="M101.39,-30.13C109.25,-28.73 117.45,-27.28 125.53,-25.84"/>
<polygon fill="#63b8ff" stroke="#63b8ff" points="126.1,-29.29 135.33,-24.1 124.87,-22.4 126.1,-29.29"/>
</g>
</g>
</svg>
