<?xml version="1.0" encoding="UTF-8" standalone="no"?>
<!DOCTYPE svg PUBLIC "-//W3C//DTD SVG 1.1//EN"
 "http://www.w3.org/Graphics/SVG/1.1/DTD/svg11.dtd">
<!-- Generated by graphviz version 7.0.2 (20221119.0110)
 -->
<!-- Title: Idle_state::update Pages: 1 -->
<svg width="560pt" height="161pt"
 viewBox="0.00 0.00 560.00 160.50" xmlns="http://www.w3.org/2000/svg" xmlns:xlink="http://www.w3.org/1999/xlink">
<g id="graph0" class="graph" transform="scale(1 1) rotate(0) translate(4 156.5)">
<title>Idle_state::update</title>
<!-- Node1 -->
<g id="node1" class="node">
<title>Node1</title>
<g id="a_node1"><a xlink:title="Método para actualizar el sistema cuando está en estado de reposo. Actualiza la pantalla y los observ...">
<polygon fill="#999999" stroke="#666666" points="94,-62 0,-62 0,-43 94,-43 94,-62"/>
<text text-anchor="middle" x="47" y="-50" font-family="Helvetica,sans-Serif" font-size="10.00">Idle_state::update</text>
</a>
</g>
</g>
<!-- Node2 -->
<g id="node2" class="node">
<title>Node2</title>
<g id="a_node2"><a xlink:href="class_control__system.html#ab7912068a11d44b07eef3b3f56ce0598" target="_top" xlink:title="Itera sobre todos los observadores, llamando a su método de actualización.">
<polygon fill="white" stroke="#666666" points="244,-115.5 130,-115.5 130,-85.5 244,-85.5 244,-115.5"/>
<text text-anchor="start" x="138" y="-103.5" font-family="Helvetica,sans-Serif" font-size="10.00">Control_system::notify</text>
<text text-anchor="middle" x="187" y="-92.5" font-family="Helvetica,sans-Serif" font-size="10.00">_observers</text>
</a>
</g>
</g>
<!-- Node1&#45;&gt;Node2 -->
<g id="edge1" class="edge">
<title>Node1&#45;&gt;Node2</title>
<path fill="none" stroke="#63b8ff" d="M76.59,-62.45C92.3,-67.91 112.32,-74.87 130.93,-81.35"/>
<polygon fill="#63b8ff" stroke="#63b8ff" points="129.66,-84.61 140.25,-84.59 131.96,-78 129.66,-84.61"/>
</g>
<!-- Node6 -->
<g id="node6" class="node">
<title>Node6</title>
<g id="a_node6"><a xlink:href="class_control__system.html#ac1cd148e897c5ce2ef405dd45ddf964f" target="_top" xlink:title="Muestra en pantalla el paso del procedimientoa actual.">
<polygon fill="white" stroke="#666666" points="243.5,-67.5 130.5,-67.5 130.5,-37.5 243.5,-37.5 243.5,-67.5"/>
<text text-anchor="start" x="138.5" y="-55.5" font-family="Helvetica,sans-Serif" font-size="10.00">Control_system::show</text>
<text text-anchor="middle" x="187" y="-44.5" font-family="Helvetica,sans-Serif" font-size="10.00">_current_step</text>
</a>
</g>
</g>
<!-- Node1&#45;&gt;Node6 -->
<g id="edge5" class="edge">
<title>Node1&#45;&gt;Node6</title>
<path fill="none" stroke="#63b8ff" d="M94.34,-52.5C102.3,-52.5 110.72,-52.5 119.1,-52.5"/>
<polygon fill="#63b8ff" stroke="#63b8ff" points="118.94,-56 128.94,-52.5 118.94,-49 118.94,-56"/>
</g>
<!-- Node8 -->
<g id="node8" class="node">
<title>Node8</title>
<g id="a_node8"><a xlink:href="class_display.html#ad2740b779d61e461c4dcaaf34f1fcd8f" target="_top" xlink:title="Actualiza los valores en pantalla con los parámetros previamente fijados. Solo actualiza la pantalla ...">
<polygon fill="white" stroke="#666666" points="229,-19 145,-19 145,0 229,0 229,-19"/>
<text text-anchor="middle" x="187" y="-7" font-family="Helvetica,sans-Serif" font-size="10.00">Display::update</text>
</a>
</g>
</g>
<!-- Node1&#45;&gt;Node8 -->
<g id="edge7" class="edge">
<title>Node1&#45;&gt;Node8</title>
<path fill="none" stroke="#63b8ff" d="M80.01,-42.53C98.82,-36.67 122.84,-29.18 143.25,-22.82"/>
<polygon fill="#63b8ff" stroke="#63b8ff" points="144.22,-26.19 152.72,-19.87 142.13,-19.5 144.22,-26.19"/>
</g>
<!-- Node3 -->
<g id="node3" class="node">
<title>Node3</title>
<g id="a_node3"><a xlink:href="class_control__system.html#a251677ee7c18269d85579da7a000ceab" target="_top" xlink:title="Fija el valor del flag de muestro de sensores.">
<polygon fill="white" stroke="#666666" points="392,-152.5 288,-152.5 288,-122.5 392,-122.5 392,-152.5"/>
<text text-anchor="start" x="296" y="-140.5" font-family="Helvetica,sans-Serif" font-size="10.00">Control_system::set</text>
<text text-anchor="middle" x="340" y="-129.5" font-family="Helvetica,sans-Serif" font-size="10.00">_poll_sensors_flag</text>
</a>
</g>
</g>
<!-- Node2&#45;&gt;Node3 -->
<g id="edge2" class="edge">
<title>Node2&#45;&gt;Node3</title>
<path fill="none" stroke="#63b8ff" d="M244.23,-114.28C254.81,-116.87 265.93,-119.59 276.68,-122.23"/>
<polygon fill="#63b8ff" stroke="#63b8ff" points="275.7,-125.59 286.24,-124.57 277.36,-118.79 275.7,-125.59"/>
</g>
<!-- Node4 -->
<g id="node4" class="node">
<title>Node4</title>
<g id="a_node4"><a xlink:href="class_control__system.html#a4bfd2d8427f35a8cd4e4e10573aa5604" target="_top" xlink:title="Actualización del sistema. De ser necesario realiza la transición de estados y actualiza el estado ac...">
<polygon fill="white" stroke="#666666" points="400,-104 280,-104 280,-85 400,-85 400,-104"/>
<text text-anchor="middle" x="340" y="-92" font-family="Helvetica,sans-Serif" font-size="10.00">Control_system::update</text>
</a>
</g>
</g>
<!-- Node2&#45;&gt;Node4 -->
<g id="edge3" class="edge">
<title>Node2&#45;&gt;Node4</title>
<path fill="none" stroke="#63b8ff" d="M244.23,-98.27C252.09,-97.95 260.26,-97.63 268.35,-97.31"/>
<polygon fill="#63b8ff" stroke="#63b8ff" points="268.33,-100.81 278.18,-96.92 268.05,-93.82 268.33,-100.81"/>
</g>
<!-- Node5 -->
<g id="node5" class="node">
<title>Node5</title>
<g id="a_node5"><a xlink:href="class_abstract__state.html#a993232854cd166a601b6c5b4ba7befcc" target="_top" xlink:title="Método para actualizar el estado.">
<polygon fill="white" stroke="#666666" points="552,-104 436,-104 436,-85 552,-85 552,-104"/>
<text text-anchor="middle" x="494" y="-92" font-family="Helvetica,sans-Serif" font-size="10.00">Abstract_state::update</text>
</a>
</g>
</g>
<!-- Node4&#45;&gt;Node5 -->
<g id="edge4" class="edge">
<title>Node4&#45;&gt;Node5</title>
<path fill="none" stroke="#63b8ff" d="M400.2,-94.5C408.13,-94.5 416.32,-94.5 424.4,-94.5"/>
<polygon fill="#63b8ff" stroke="#63b8ff" points="424.19,-98 434.19,-94.5 424.19,-91 424.19,-98"/>
</g>
<!-- Node7 -->
<g id="node7" class="node">
<title>Node7</title>
<g id="a_node7"><a xlink:href="class_display.html#a87d1e7bf73a1d14b5e76c9ab647a9e93" target="_top" xlink:title="Fija el el texto a actualizar, no lo imprime en pantalla. La ubicación se da con las constantes de of...">
<polygon fill="white" stroke="#666666" points="385,-62 295,-62 295,-43 385,-43 385,-62"/>
<text text-anchor="middle" x="340" y="-50" font-family="Helvetica,sans-Serif" font-size="10.00">Display::set_text</text>
</a>
</g>
</g>
<!-- Node6&#45;&gt;Node7 -->
<g id="edge6" class="edge">
<title>Node6&#45;&gt;Node7</title>
<path fill="none" stroke="#63b8ff" d="M243.8,-52.5C256.79,-52.5 270.63,-52.5 283.6,-52.5"/>
<polygon fill="#63b8ff" stroke="#63b8ff" points="283.23,-56 293.23,-52.5 283.23,-49 283.23,-56"/>
</g>
</g>
</svg>
