<?xml version="1.0" encoding="UTF-8" standalone="no"?>
<!DOCTYPE svg PUBLIC "-//W3C//DTD SVG 1.1//EN"
 "http://www.w3.org/Graphics/SVG/1.1/DTD/svg11.dtd">
<!-- Generated by graphviz version 7.0.2 (20221119.0110)
 -->
<!-- Title: Dual_LED::turn_green Pages: 1 -->
<svg width="433pt" height="126pt"
 viewBox="0.00 0.00 433.00 125.65" xmlns="http://www.w3.org/2000/svg" xmlns:xlink="http://www.w3.org/1999/xlink">
<g id="graph0" class="graph" transform="scale(1 1) rotate(0) translate(4 121.65)">
<title>Dual_LED::turn_green</title>
<!-- Node1 -->
<g id="node1" class="node">
<title>Node1</title>
<g id="a_node1"><a xlink:title="Enciende el LED en verde.">
<polygon fill="#999999" stroke="#666666" points="425,-67.15 313,-67.15 313,-48.15 425,-48.15 425,-67.15"/>
<text text-anchor="middle" x="369" y="-55.15" font-family="Helvetica,sans-Serif" font-size="10.00">Dual_LED::turn_green</text>
</a>
</g>
</g>
<!-- Node2 -->
<g id="node2" class="node">
<title>Node2</title>
<g id="a_node2"><a xlink:href="class_check__instruction__state.html#ae13ba3789ab274a7dddf19be0a413b55" target="_top" xlink:title="Entrada del estado, resuelve las instrucciones a realizar en cada paso: &#45;WELCOME_STEP: Primer paso,...">
<polygon fill="white" stroke="#666666" points="122,-117.65 0,-117.65 0,-87.65 122,-87.65 122,-117.65"/>
<text text-anchor="start" x="8" y="-105.65" font-family="Helvetica,sans-Serif" font-size="10.00">Check_instruction_state</text>
<text text-anchor="middle" x="61" y="-94.65" font-family="Helvetica,sans-Serif" font-size="10.00">::enter</text>
</a>
</g>
</g>
<!-- Node1&#45;&gt;Node2 -->
<g id="edge1" class="edge">
<title>Node1&#45;&gt;Node2</title>
<path fill="none" stroke="#63b8ff" d="M344.93,-73.88C327.26,-85.27 301.78,-99.52 277,-105.65 225.91,-118.3 165.87,-116.11 122.25,-111.58"/>
<polygon fill="#63b8ff" stroke="#63b8ff" points="346.73,-76.89 353.11,-68.43 342.85,-71.06 346.73,-76.89"/>
</g>
<!-- Node3 -->
<g id="node3" class="node">
<title>Node3</title>
<g id="a_node3"><a xlink:href="class_control__system.html#ab4bd82b7c907b415fdc102ed1fa89c7c" target="_top" xlink:title="Según la variable context.current_alarm resuelve el comportamiento de la alarma.">
<polygon fill="white" stroke="#666666" points="277,-48.65 158,-48.65 158,-18.65 277,-18.65 277,-48.65"/>
<text text-anchor="start" x="166" y="-36.65" font-family="Helvetica,sans-Serif" font-size="10.00">Control_system::handle</text>
<text text-anchor="middle" x="217.5" y="-25.65" font-family="Helvetica,sans-Serif" font-size="10.00">_alarm</text>
</a>
</g>
</g>
<!-- Node1&#45;&gt;Node3 -->
<g id="edge2" class="edge">
<title>Node1&#45;&gt;Node3</title>
<path fill="none" stroke="#63b8ff" d="M301.48,-46.98C293.42,-45.68 285.22,-44.37 277.28,-43.09"/>
<polygon fill="#63b8ff" stroke="#63b8ff" points="300.83,-50.42 311.26,-48.55 301.94,-43.51 300.83,-50.42"/>
</g>
<!-- Node4 -->
<g id="node4" class="node">
<title>Node4</title>
<g id="a_node4"><a xlink:href="class_alarm__state.html#acea6eee2b8d267b67192bbce9e495038" target="_top" xlink:title="Actualización, cambia el color del LED según el estado del motor y hace sonar la alarma....">
<polygon fill="white" stroke="#666666" points="113,-22.15 9,-22.15 9,-3.15 113,-3.15 113,-22.15"/>
<text text-anchor="middle" x="61" y="-10.15" font-family="Helvetica,sans-Serif" font-size="10.00">Alarm_state::update</text>
</a>
</g>
</g>
<!-- Node1&#45;&gt;Node4 -->
<g id="edge6" class="edge">
<title>Node1&#45;&gt;Node4</title>
<path fill="none" stroke="#63b8ff" d="M344.93,-41.43C327.26,-30.04 301.78,-15.79 277,-9.65 222.28,3.89 157.31,0.41 113.22,-4.72"/>
<polygon fill="#63b8ff" stroke="#63b8ff" points="342.85,-44.25 353.11,-46.88 346.73,-38.42 342.85,-44.25"/>
</g>
<!-- Node5 -->
<g id="node5" class="node">
<title>Node5</title>
<g id="a_node5"><a xlink:href="class_control__system.html#a46298a6a5f4ba43857baa6ae23d00dbc" target="_top" xlink:title="Fija el valor de velocidad del ventilador.">
<polygon fill="white" stroke="#666666" points="269.5,-96.65 165.5,-96.65 165.5,-66.65 269.5,-66.65 269.5,-96.65"/>
<text text-anchor="start" x="173.5" y="-84.65" font-family="Helvetica,sans-Serif" font-size="10.00">Control_system::set</text>
<text text-anchor="middle" x="217.5" y="-73.65" font-family="Helvetica,sans-Serif" font-size="10.00">_cooler_speed</text>
</a>
</g>
</g>
<!-- Node1&#45;&gt;Node5 -->
<g id="edge4" class="edge">
<title>Node1&#45;&gt;Node5</title>
<path fill="none" stroke="#63b8ff" d="M301.66,-68.31C290.89,-70.03 279.89,-71.8 269.56,-73.46"/>
<polygon fill="#63b8ff" stroke="#63b8ff" points="301.94,-71.8 311.26,-66.76 300.83,-64.89 301.94,-71.8"/>
</g>
<!-- Node3&#45;&gt;Node4 -->
<g id="edge3" class="edge">
<title>Node3&#45;&gt;Node4</title>
<path fill="none" stroke="#63b8ff" d="M146.51,-24.14C135.26,-22.61 123.81,-21.06 113.11,-19.6"/>
<polygon fill="#63b8ff" stroke="#63b8ff" points="145.77,-27.57 156.15,-25.45 146.71,-20.64 145.77,-27.57"/>
</g>
<!-- Node5&#45;&gt;Node2 -->
<g id="edge5" class="edge">
<title>Node5&#45;&gt;Node2</title>
<path fill="none" stroke="#63b8ff" d="M153.92,-90.16C143.49,-91.58 132.69,-93.05 122.32,-94.46"/>
<polygon fill="#63b8ff" stroke="#63b8ff" points="154.12,-93.67 163.55,-88.85 153.17,-86.73 154.12,-93.67"/>
</g>
</g>
</svg>
