<?xml version="1.0" encoding="UTF-8" standalone="no"?>
<!DOCTYPE svg PUBLIC "-//W3C//DTD SVG 1.1//EN"
 "http://www.w3.org/Graphics/SVG/1.1/DTD/svg11.dtd">
<!-- Generated by graphviz version 7.0.2 (20221119.0110)
 -->
<!-- Title: Buzzer::toggle Pages: 1 -->
<svg width="331pt" height="46pt"
 viewBox="0.00 0.00 331.00 46.00" xmlns="http://www.w3.org/2000/svg" xmlns:xlink="http://www.w3.org/1999/xlink">
<g id="graph0" class="graph" transform="scale(1 1) rotate(0) translate(4 42)">
<title>Buzzer::toggle</title>
<!-- Node1 -->
<g id="node1" class="node">
<title>Node1</title>
<g id="a_node1"><a xlink:title="Permuta el estado del led, si estaba encendido pasará a apagado y viceversa.">
<polygon fill="#999999" stroke="#666666" points="80,-38 0,-38 0,-19 80,-19 80,-38"/>
<text text-anchor="middle" x="40" y="-26" font-family="Helvetica,sans-Serif" font-size="10.00">Buzzer::toggle</text>
</a>
</g>
</g>
<!-- Node2 -->
<g id="node2" class="node">
<title>Node2</title>
<g id="a_node2"><a xlink:href="class_buzzer.html#a5809a2b7b52e74f509c31214257f3af0" target="_top" xlink:title="Apaga el buzzer.">
<polygon fill="white" stroke="#666666" points="323,-38 238,-38 238,-19 323,-19 323,-38"/>
<text text-anchor="middle" x="280.5" y="-26" font-family="Helvetica,sans-Serif" font-size="10.00">Buzzer::turn_off</text>
</a>
</g>
</g>
<!-- Node1&#45;&gt;Node2 -->
<g id="edge1" class="edge">
<title>Node1&#45;&gt;Node2</title>
<path fill="none" stroke="#63b8ff" d="M80.38,-28.5C120.22,-28.5 182.06,-28.5 226.25,-28.5"/>
<polygon fill="#63b8ff" stroke="#63b8ff" points="226.14,-32 236.14,-28.5 226.14,-25 226.14,-32"/>
</g>
<!-- Node3 -->
<g id="node3" class="node">
<title>Node3</title>
<g id="a_node3"><a xlink:href="class_buzzer.html#a9ba28d9ca8b3dd80541d9a13a8b0f625" target="_top" xlink:title="Enciende el buzzer con con una duración en milisegundos duration, por defecto enciende el buzzer por ...">
<polygon fill="white" stroke="#666666" points="202,-19 116,-19 116,0 202,0 202,-19"/>
<text text-anchor="middle" x="159" y="-7" font-family="Helvetica,sans-Serif" font-size="10.00">Buzzer::turn_on</text>
</a>
</g>
</g>
<!-- Node1&#45;&gt;Node3 -->
<g id="edge2" class="edge">
<title>Node1&#45;&gt;Node3</title>
<path fill="none" stroke="#63b8ff" d="M80.28,-22.12C88.05,-20.86 96.31,-19.52 104.45,-18.2"/>
<polygon fill="#63b8ff" stroke="#63b8ff" points="105.01,-21.65 114.32,-16.59 103.88,-14.74 105.01,-21.65"/>
</g>
<!-- Node3&#45;&gt;Node2 -->
<g id="edge3" class="edge">
<title>Node3&#45;&gt;Node2</title>
<path fill="none" stroke="#63b8ff" d="M202.47,-16.25C210.22,-17.48 218.4,-18.78 226.41,-20.06"/>
<polygon fill="#63b8ff" stroke="#63b8ff" points="225.65,-23.48 236.08,-21.6 226.75,-16.57 225.65,-23.48"/>
</g>
</g>
</svg>
