<?xml version="1.0" encoding="UTF-8" standalone="no"?>
<!DOCTYPE svg PUBLIC "-//W3C//DTD SVG 1.1//EN"
 "http://www.w3.org/Graphics/SVG/1.1/DTD/svg11.dtd">
<!-- Generated by graphviz version 7.0.2 (20221119.0110)
 -->
<!-- Title: Control_system::init Pages: 1 -->
<svg width="429pt" height="107pt"
 viewBox="0.00 0.00 429.00 107.00" xmlns="http://www.w3.org/2000/svg" xmlns:xlink="http://www.w3.org/1999/xlink">
<g id="graph0" class="graph" transform="scale(1 1) rotate(0) translate(4 103)">
<title>Control_system::init</title>
<!-- Node1 -->
<g id="node1" class="node">
<title>Node1</title>
<g id="a_node1"><a xlink:title="Inicializa el sistema con el estado de apagado.">
<polygon fill="#999999" stroke="#666666" points="104,-77 0,-77 0,-58 104,-58 104,-77"/>
<text text-anchor="middle" x="52" y="-65" font-family="Helvetica,sans-Serif" font-size="10.00">Control_system::init</text>
</a>
</g>
</g>
<!-- Node2 -->
<g id="node2" class="node">
<title>Node2</title>
<g id="a_node2"><a xlink:href="class_abstract__state.html#a1c001b0cb46c11126cb9ff77f8ad3016" target="_top" xlink:title="Método que se llama al ingresar al estado.">
<polygon fill="white" stroke="#666666" points="250.5,-99 142.5,-99 142.5,-80 250.5,-80 250.5,-99"/>
<text text-anchor="middle" x="196.5" y="-87" font-family="Helvetica,sans-Serif" font-size="10.00">Abstract_state::enter</text>
</a>
</g>
</g>
<!-- Node1&#45;&gt;Node2 -->
<g id="edge1" class="edge">
<title>Node1&#45;&gt;Node2</title>
<path fill="none" stroke="#63b8ff" d="M104.45,-75.44C113.08,-76.78 122.13,-78.17 131.04,-79.55"/>
<polygon fill="#63b8ff" stroke="#63b8ff" points="130.3,-82.98 140.71,-81.04 131.37,-76.06 130.3,-82.98"/>
</g>
<!-- Node3 -->
<g id="node3" class="node">
<title>Node3</title>
<g id="a_node3"><a xlink:href="class_control__system.html#aeb1d67b1383d77bd11276f0eef97228b" target="_top" xlink:title="Resetea las variables de contexto.">
<polygon fill="white" stroke="#666666" points="253,-61.5 140,-61.5 140,-31.5 253,-31.5 253,-61.5"/>
<text text-anchor="start" x="148" y="-49.5" font-family="Helvetica,sans-Serif" font-size="10.00">Control_system::reset</text>
<text text-anchor="middle" x="196.5" y="-38.5" font-family="Helvetica,sans-Serif" font-size="10.00">_context</text>
</a>
</g>
</g>
<!-- Node1&#45;&gt;Node3 -->
<g id="edge2" class="edge">
<title>Node1&#45;&gt;Node3</title>
<path fill="none" stroke="#63b8ff" d="M104.45,-59.92C112.25,-58.77 120.4,-57.57 128.47,-56.38"/>
<polygon fill="#63b8ff" stroke="#63b8ff" points="128.91,-59.85 138.3,-54.93 127.89,-52.93 128.91,-59.85"/>
</g>
<!-- Node4 -->
<g id="node4" class="node">
<title>Node4</title>
<g id="a_node4"><a xlink:href="class_cooler.html#a3aa26bc227fa7a2bdcff9fe607990104" target="_top" xlink:title="Apaga el ventilador.">
<polygon fill="white" stroke="#666666" points="396,-93 314,-93 314,-74 396,-74 396,-93"/>
<text text-anchor="middle" x="355" y="-81" font-family="Helvetica,sans-Serif" font-size="10.00">Cooler::turn_off</text>
</a>
</g>
</g>
<!-- Node3&#45;&gt;Node4 -->
<g id="edge3" class="edge">
<title>Node3&#45;&gt;Node4</title>
<path fill="none" stroke="#63b8ff" d="M253.12,-59.65C269.24,-63.46 286.76,-67.6 302.6,-71.35"/>
<polygon fill="#63b8ff" stroke="#63b8ff" points="301.8,-74.75 312.33,-73.65 303.41,-67.94 301.8,-74.75"/>
</g>
<!-- Node5 -->
<g id="node5" class="node">
<title>Node5</title>
<g id="a_node5"><a xlink:href="class_dual___l_e_d.html#a4226b64f8b1c00f3e4c649a8be2e64c9" target="_top" xlink:title="Apaga el LED.">
<polygon fill="white" stroke="#666666" points="404,-56 306,-56 306,-37 404,-37 404,-56"/>
<text text-anchor="middle" x="355" y="-44" font-family="Helvetica,sans-Serif" font-size="10.00">Dual_LED::turn_off</text>
</a>
</g>
</g>
<!-- Node3&#45;&gt;Node5 -->
<g id="edge4" class="edge">
<title>Node3&#45;&gt;Node5</title>
<path fill="none" stroke="#63b8ff" d="M253.12,-46.5C266.5,-46.5 280.85,-46.5 294.41,-46.5"/>
<polygon fill="#63b8ff" stroke="#63b8ff" points="294.06,-50 304.06,-46.5 294.06,-43 294.06,-50"/>
</g>
<!-- Node6 -->
<g id="node6" class="node">
<title>Node6</title>
<g id="a_node6"><a xlink:href="class_digital__dual___l_e_d.html#a601fc70878c221a056d74dc643806a91" target="_top" xlink:title="Fija el color del led, no enciende el led,.">
<polygon fill="white" stroke="#666666" points="421,-19 289,-19 289,0 421,0 421,-19"/>
<text text-anchor="middle" x="355" y="-7" font-family="Helvetica,sans-Serif" font-size="10.00">Digital_dual_LED::turn_red</text>
</a>
</g>
</g>
<!-- Node3&#45;&gt;Node6 -->
<g id="edge5" class="edge">
<title>Node3&#45;&gt;Node6</title>
<path fill="none" stroke="#63b8ff" d="M253.12,-33.35C268.67,-29.67 285.53,-25.69 300.93,-22.05"/>
<polygon fill="#63b8ff" stroke="#63b8ff" points="301.45,-25.52 310.38,-19.81 299.84,-18.71 301.45,-25.52"/>
</g>
</g>
</svg>
