<?xml version="1.0" encoding="UTF-8" standalone="no"?>
<!DOCTYPE svg PUBLIC "-//W3C//DTD SVG 1.1//EN"
 "http://www.w3.org/Graphics/SVG/1.1/DTD/svg11.dtd">
<!-- Generated by graphviz version 7.0.2 (20221119.0110)
 -->
<!-- Title: Dual_LED::turn_off Pages: 1 -->
<svg width="582pt" height="119pt"
 viewBox="0.00 0.00 582.00 118.50" xmlns="http://www.w3.org/2000/svg" xmlns:xlink="http://www.w3.org/1999/xlink">
<g id="graph0" class="graph" transform="scale(1 1) rotate(0) translate(4 114.5)">
<title>Dual_LED::turn_off</title>
<!-- Node1 -->
<g id="node1" class="node">
<title>Node1</title>
<g id="a_node1"><a xlink:title="Apaga el LED.">
<polygon fill="#999999" stroke="#666666" points="574,-67.5 476,-67.5 476,-48.5 574,-48.5 574,-67.5"/>
<text text-anchor="middle" x="525" y="-55.5" font-family="Helvetica,sans-Serif" font-size="10.00">Dual_LED::turn_off</text>
</a>
</g>
</g>
<!-- Node2 -->
<g id="node2" class="node">
<title>Node2</title>
<g id="a_node2"><a xlink:href="class_shutdown__state.html#a2756e0a67cb9371a3c8d722b2a661efa" target="_top" xlink:title="Entrada al estado, apaga los LEDS, la pantalla y apaga el motor.">
<polygon fill="white" stroke="#666666" points="440,-110.5 326,-110.5 326,-91.5 440,-91.5 440,-110.5"/>
<text text-anchor="middle" x="383" y="-98.5" font-family="Helvetica,sans-Serif" font-size="10.00">Shutdown_state::enter</text>
</a>
</g>
</g>
<!-- Node1&#45;&gt;Node2 -->
<g id="edge1" class="edge">
<title>Node1&#45;&gt;Node2</title>
<path fill="none" stroke="#63b8ff" d="M480.73,-71.29C459.93,-77.68 435.43,-85.2 416.29,-91.08"/>
<polygon fill="#63b8ff" stroke="#63b8ff" points="481.55,-74.7 490.08,-68.42 479.5,-68.01 481.55,-74.7"/>
</g>
<!-- Node3 -->
<g id="node3" class="node">
<title>Node3</title>
<g id="a_node3"><a xlink:href="class_control__system.html#aeb1d67b1383d77bd11276f0eef97228b" target="_top" xlink:title="Resetea las variables de contexto.">
<polygon fill="white" stroke="#666666" points="439.5,-73 326.5,-73 326.5,-43 439.5,-43 439.5,-73"/>
<text text-anchor="start" x="334.5" y="-61" font-family="Helvetica,sans-Serif" font-size="10.00">Control_system::reset</text>
<text text-anchor="middle" x="383" y="-50" font-family="Helvetica,sans-Serif" font-size="10.00">_context</text>
</a>
</g>
</g>
<!-- Node1&#45;&gt;Node3 -->
<g id="edge2" class="edge">
<title>Node1&#45;&gt;Node3</title>
<path fill="none" stroke="#63b8ff" d="M464.5,-58C456.37,-58 448.04,-58 439.98,-58"/>
<polygon fill="#63b8ff" stroke="#63b8ff" points="464.31,-61.5 474.31,-58 464.31,-54.5 464.31,-61.5"/>
</g>
<!-- Node8 -->
<g id="node8" class="node">
<title>Node8</title>
<g id="a_node8"><a xlink:href="class_dual___l_e_d.html#ac56cb66fdbb2a682a90091f2f9a0d385" target="_top" xlink:title="Permuta el estado del LED.">
<polygon fill="white" stroke="#666666" points="429,-24.5 337,-24.5 337,-5.5 429,-5.5 429,-24.5"/>
<text text-anchor="middle" x="383" y="-12.5" font-family="Helvetica,sans-Serif" font-size="10.00">Dual_LED::toggle</text>
</a>
</g>
</g>
<!-- Node1&#45;&gt;Node8 -->
<g id="edge7" class="edge">
<title>Node1&#45;&gt;Node8</title>
<path fill="none" stroke="#63b8ff" d="M480.73,-44.71C459.93,-38.32 435.43,-30.8 416.29,-24.92"/>
<polygon fill="#63b8ff" stroke="#63b8ff" points="479.5,-47.99 490.08,-47.58 481.55,-41.3 479.5,-47.99"/>
</g>
<!-- Node4 -->
<g id="node4" class="node">
<title>Node4</title>
<g id="a_node4"><a xlink:href="class_shutdown__state.html#accbc4c856709e26453e2e23c5c1e4f8e" target="_top" xlink:title="Salida del estado, resetea las variables del sistema e incializa la pantalla.">
<polygon fill="white" stroke="#666666" points="283,-104.5 175,-104.5 175,-85.5 283,-85.5 283,-104.5"/>
<text text-anchor="middle" x="229" y="-92.5" font-family="Helvetica,sans-Serif" font-size="10.00">Shutdown_state::exit</text>
</a>
</g>
</g>
<!-- Node3&#45;&gt;Node4 -->
<g id="edge3" class="edge">
<title>Node3&#45;&gt;Node4</title>
<path fill="none" stroke="#63b8ff" d="M315.38,-74.22C300.27,-77.9 284.65,-81.7 270.97,-85.03"/>
<polygon fill="#63b8ff" stroke="#63b8ff" points="315.9,-77.69 324.79,-71.93 314.25,-70.89 315.9,-77.69"/>
</g>
<!-- Node6 -->
<g id="node6" class="node">
<title>Node6</title>
<g id="a_node6"><a xlink:href="class_control__system.html#a660ab5ac86df7cdefbbfe0942b00e13b" target="_top" xlink:title="Inicializa el sistema con el estado de apagado.">
<polygon fill="white" stroke="#666666" points="281,-67.5 177,-67.5 177,-48.5 281,-48.5 281,-67.5"/>
<text text-anchor="middle" x="229" y="-55.5" font-family="Helvetica,sans-Serif" font-size="10.00">Control_system::init</text>
</a>
</g>
</g>
<!-- Node3&#45;&gt;Node6 -->
<g id="edge5" class="edge">
<title>Node3&#45;&gt;Node6</title>
<path fill="none" stroke="#63b8ff" d="M314.75,-58C303.58,-58 292.15,-58 281.44,-58"/>
<polygon fill="#63b8ff" stroke="#63b8ff" points="314.75,-61.5 324.75,-58 314.75,-54.5 314.75,-61.5"/>
</g>
<!-- Node7 -->
<g id="node7" class="node">
<title>Node7</title>
<g id="a_node7"><a xlink:href="class_check__instruction__state.html#a161d1ccae3db7c6ac372b56877dc05f2" target="_top" xlink:title="Método para actualizar el estado.">
<polygon fill="white" stroke="#666666" points="290,-30 168,-30 168,0 290,0 290,-30"/>
<text text-anchor="start" x="176" y="-18" font-family="Helvetica,sans-Serif" font-size="10.00">Check_instruction_state</text>
<text text-anchor="middle" x="229" y="-7" font-family="Helvetica,sans-Serif" font-size="10.00">::update</text>
</a>
</g>
</g>
<!-- Node3&#45;&gt;Node7 -->
<g id="edge6" class="edge">
<title>Node3&#45;&gt;Node7</title>
<path fill="none" stroke="#63b8ff" d="M316.57,-39.49C305.9,-36.47 294.95,-33.37 284.58,-30.44"/>
<polygon fill="#63b8ff" stroke="#63b8ff" points="315.52,-42.83 326.1,-42.19 317.43,-36.1 315.52,-42.83"/>
</g>
<!-- Node5 -->
<g id="node5" class="node">
<title>Node5</title>
<g id="a_node5"><a xlink:href="class_shutdown__state.html#ae02b2fd80173aa50afcd73faba01b9be" target="_top" xlink:title="Transicion de estados.">
<polygon fill="white" stroke="#666666" points="132,-104.5 0,-104.5 0,-85.5 132,-85.5 132,-104.5"/>
<text text-anchor="middle" x="66" y="-92.5" font-family="Helvetica,sans-Serif" font-size="10.00">Shutdown_state::transition</text>
</a>
</g>
</g>
<!-- Node4&#45;&gt;Node5 -->
<g id="edge4" class="edge">
<title>Node4&#45;&gt;Node5</title>
<path fill="none" stroke="#63b8ff" d="M163.49,-95C153.27,-95 142.7,-95 132.46,-95"/>
<polygon fill="#63b8ff" stroke="#63b8ff" points="163.32,-98.5 173.32,-95 163.32,-91.5 163.32,-98.5"/>
</g>
</g>
</svg>
