<?xml version="1.0" encoding="UTF-8" standalone="no"?>
<!DOCTYPE svg PUBLIC "-//W3C//DTD SVG 1.1//EN"
 "http://www.w3.org/Graphics/SVG/1.1/DTD/svg11.dtd">
<!-- Generated by graphviz version 7.0.2 (20221119.0110)
 -->
<!-- Title: Buzzer::turn_off Pages: 1 -->
<svg width="421pt" height="106pt"
 viewBox="0.00 0.00 421.00 106.00" xmlns="http://www.w3.org/2000/svg" xmlns:xlink="http://www.w3.org/1999/xlink">
<g id="graph0" class="graph" transform="scale(1 1) rotate(0) translate(4 102)">
<title>Buzzer::turn_off</title>
<!-- Node1 -->
<g id="node1" class="node">
<title>Node1</title>
<g id="a_node1"><a xlink:title="Apaga el buzzer.">
<polygon fill="#999999" stroke="#666666" points="413,-56 328,-56 328,-37 413,-37 413,-56"/>
<text text-anchor="middle" x="370.5" y="-44" font-family="Helvetica,sans-Serif" font-size="10.00">Buzzer::turn_off</text>
</a>
</g>
</g>
<!-- Node2 -->
<g id="node2" class="node">
<title>Node2</title>
<g id="a_node2"><a xlink:href="class_alarm__state.html#acf39d27a3ccd1c25ade55e08918650f8" target="_top" xlink:title="Salida del estado, apaga LEDs y Buzzer.">
<polygon fill="white" stroke="#666666" points="270.5,-96 179.5,-96 179.5,-77 270.5,-77 270.5,-96"/>
<text text-anchor="middle" x="225" y="-84" font-family="Helvetica,sans-Serif" font-size="10.00">Alarm_state::exit</text>
</a>
</g>
</g>
<!-- Node1&#45;&gt;Node2 -->
<g id="edge1" class="edge">
<title>Node1&#45;&gt;Node2</title>
<path fill="none" stroke="#63b8ff" d="M322.63,-59.56C302.7,-65.12 279.86,-71.49 261.38,-76.64"/>
<polygon fill="#63b8ff" stroke="#63b8ff" points="323.51,-62.95 332.2,-56.9 321.63,-56.21 323.51,-62.95"/>
</g>
<!-- Node4 -->
<g id="node4" class="node">
<title>Node4</title>
<g id="a_node4"><a xlink:href="class_control__system.html#aa98b33b5c57a47fb55e211516e49088b" target="_top" xlink:title="Enciende el buzzer por 100ms (bloqueante) y, si no esta anulado el próximo paso, avanza hacia la sigu...">
<polygon fill="white" stroke="#666666" points="292,-56 158,-56 158,-37 292,-37 292,-56"/>
<text text-anchor="middle" x="225" y="-44" font-family="Helvetica,sans-Serif" font-size="10.00">Control_system::next_step</text>
</a>
</g>
</g>
<!-- Node1&#45;&gt;Node4 -->
<g id="edge3" class="edge">
<title>Node1&#45;&gt;Node4</title>
<path fill="none" stroke="#63b8ff" d="M316.1,-46.5C308.32,-46.5 300.24,-46.5 292.25,-46.5"/>
<polygon fill="#63b8ff" stroke="#63b8ff" points="316.09,-50 326.09,-46.5 316.09,-43 316.09,-50"/>
</g>
<!-- Node6 -->
<g id="node6" class="node">
<title>Node6</title>
<g id="a_node6"><a xlink:href="class_buzzer.html#a7d0275af89ab487903752edc29a5bf2c" target="_top" xlink:title="Permuta el estado del led, si estaba encendido pasará a apagado y viceversa.">
<polygon fill="white" stroke="#666666" points="265,-19 185,-19 185,0 265,0 265,-19"/>
<text text-anchor="middle" x="225" y="-7" font-family="Helvetica,sans-Serif" font-size="10.00">Buzzer::toggle</text>
</a>
</g>
</g>
<!-- Node1&#45;&gt;Node6 -->
<g id="edge5" class="edge">
<title>Node1&#45;&gt;Node6</title>
<path fill="none" stroke="#63b8ff" d="M320.06,-33.75C301.9,-29.07 281.63,-23.84 264.56,-19.44"/>
<polygon fill="#63b8ff" stroke="#63b8ff" points="319.02,-37.1 329.58,-36.21 320.77,-30.32 319.02,-37.1"/>
</g>
<!-- Node3 -->
<g id="node3" class="node">
<title>Node3</title>
<g id="a_node3"><a xlink:href="class_alarm__state.html#adb40defa4c50d289290b44b2a4f41189" target="_top" xlink:title="Transición de estados.">
<polygon fill="white" stroke="#666666" points="118.5,-98 3.5,-98 3.5,-79 118.5,-79 118.5,-98"/>
<text text-anchor="middle" x="61" y="-86" font-family="Helvetica,sans-Serif" font-size="10.00">Alarm_state::transition</text>
</a>
</g>
</g>
<!-- Node2&#45;&gt;Node3 -->
<g id="edge2" class="edge">
<title>Node2&#45;&gt;Node3</title>
<path fill="none" stroke="#63b8ff" d="M168,-87.19C152.06,-87.39 134.7,-87.6 118.72,-87.8"/>
<polygon fill="#63b8ff" stroke="#63b8ff" points="167.83,-90.69 177.79,-87.07 167.75,-83.69 167.83,-90.69"/>
</g>
<!-- Node5 -->
<g id="node5" class="node">
<title>Node5</title>
<g id="a_node5"><a xlink:href="class_check__instruction__state.html#ae13ba3789ab274a7dddf19be0a413b55" target="_top" xlink:title="Método que se llama al ingresar al estado.">
<polygon fill="white" stroke="#666666" points="122,-60.5 0,-60.5 0,-30.5 122,-30.5 122,-60.5"/>
<text text-anchor="start" x="8" y="-48.5" font-family="Helvetica,sans-Serif" font-size="10.00">Check_instruction_state</text>
<text text-anchor="middle" x="61" y="-37.5" font-family="Helvetica,sans-Serif" font-size="10.00">::enter</text>
</a>
</g>
</g>
<!-- Node4&#45;&gt;Node5 -->
<g id="edge4" class="edge">
<title>Node4&#45;&gt;Node5</title>
<path fill="none" stroke="#63b8ff" d="M146.29,-46.02C138.22,-45.97 130.11,-45.92 122.27,-45.87"/>
<polygon fill="#63b8ff" stroke="#63b8ff" points="146.11,-49.52 156.13,-46.08 146.15,-42.52 146.11,-49.52"/>
</g>
</g>
</svg>
