<?xml version="1.0" encoding="UTF-8" standalone="no"?>
<!DOCTYPE svg PUBLIC "-//W3C//DTD SVG 1.1//EN"
 "http://www.w3.org/Graphics/SVG/1.1/DTD/svg11.dtd">
<!-- Generated by graphviz version 7.0.2 (20221119.0110)
 -->
<!-- Title: Cooler::turn_on Pages: 1 -->
<svg width="209pt" height="45pt"
 viewBox="0.00 0.00 209.00 45.00" xmlns="http://www.w3.org/2000/svg" xmlns:xlink="http://www.w3.org/1999/xlink">
<g id="graph0" class="graph" transform="scale(1 1) rotate(0) translate(4 41)">
<title>Cooler::turn_on</title>
<!-- Node1 -->
<g id="node1" class="node">
<title>Node1</title>
<g id="a_node1"><a xlink:title="Enciende el ventilador. Si el ciclo de trabajo deseado es menor que FAN_MINIMUM_DUTY_CYCLE apaga el v...">
<polygon fill="#999999" stroke="#666666" points="83,-19 0,-19 0,0 83,0 83,-19"/>
<text text-anchor="middle" x="41.5" y="-7" font-family="Helvetica,sans-Serif" font-size="10.00">Cooler::turn_on</text>
</a>
</g>
</g>
<!-- Node1&#45;&gt;Node1 -->
<g id="edge2" class="edge">
<title>Node1&#45;&gt;Node1</title>
<path fill="none" stroke="#63b8ff" d="M22.95,-19.37C14.49,-27.94 20.67,-37 41.5,-37 52.89,-37 59.9,-34.29 62.53,-30.43"/>
<polygon fill="#63b8ff" stroke="#63b8ff" points="65.99,-29.84 60.38,-20.85 59.16,-31.37 65.99,-29.84"/>
</g>
<!-- Node2 -->
<g id="node2" class="node">
<title>Node2</title>
<g id="a_node2"><a xlink:href="class_cooler.html#a3aa26bc227fa7a2bdcff9fe607990104" target="_top" xlink:title="Apaga el ventilador.">
<polygon fill="white" stroke="#666666" points="201,-19 119,-19 119,0 201,0 201,-19"/>
<text text-anchor="middle" x="160" y="-7" font-family="Helvetica,sans-Serif" font-size="10.00">Cooler::turn_off</text>
</a>
</g>
</g>
<!-- Node1&#45;&gt;Node2 -->
<g id="edge1" class="edge">
<title>Node1&#45;&gt;Node2</title>
<path fill="none" stroke="#63b8ff" d="M83.25,-9.5C91.1,-9.5 99.41,-9.5 107.55,-9.5"/>
<polygon fill="#63b8ff" stroke="#63b8ff" points="107.35,-13 117.35,-9.5 107.35,-6 107.35,-13"/>
</g>
</g>
</svg>
