<?xml version="1.0" encoding="UTF-8" standalone="no"?>
<!DOCTYPE svg PUBLIC "-//W3C//DTD SVG 1.1//EN"
 "http://www.w3.org/Graphics/SVG/1.1/DTD/svg11.dtd">
<!-- Generated by graphviz version 7.0.2 (20221119.0110)
 -->
<!-- Title: Control_system Pages: 1 -->
<svg width="221pt" height="215pt"
 viewBox="0.00 0.00 220.50 215.00" xmlns="http://www.w3.org/2000/svg" xmlns:xlink="http://www.w3.org/1999/xlink">
<g id="graph0" class="graph" transform="scale(1 1) rotate(0) translate(4 211)">
<title>Control_system</title>
<!-- Node1 -->
<g id="node1" class="node">
<title>Node1</title>
<g id="a_node1"><a xlink:title=" ">
<polygon fill="#999999" stroke="#666666" points="147,-19 62,-19 62,0 147,0 147,-19"/>
<text text-anchor="middle" x="104.5" y="-7" font-family="Helvetica,sans-Serif" font-size="10.00">Control_system</text>
</a>
</g>
</g>
<!-- Node2 -->
<g id="node2" class="node">
<title>Node2</title>
<g id="a_node2"><a xlink:href="class_subject.html" target="_top" xlink:title="Clase base para crear sujetos a observar, hereda de la interfaz Subject_interface.">
<polygon fill="white" stroke="#666666" points="95.5,-75 45.5,-75 45.5,-56 95.5,-56 95.5,-75"/>
<text text-anchor="middle" x="70.5" y="-63" font-family="Helvetica,sans-Serif" font-size="10.00">Subject</text>
</a>
</g>
</g>
<!-- Node2&#45;&gt;Node1 -->
<g id="edge1" class="edge">
<title>Node2&#45;&gt;Node1</title>
<path fill="none" stroke="#63b8ff" d="M82.21,-45.9C87.9,-36.86 94.47,-26.44 98.99,-19.25"/>
<polygon fill="#63b8ff" stroke="#63b8ff" points="79.29,-43.97 76.92,-54.3 85.21,-47.7 79.29,-43.97"/>
</g>
<!-- Node3 -->
<g id="node3" class="node">
<title>Node3</title>
<g id="a_node3"><a xlink:href="class_subject__interface.html" target="_top" xlink:title="Clase interfaz para implementar el patrón de diseño Observer.">
<polygon fill="white" stroke="#666666" points="94.5,-141 2.5,-141 2.5,-122 94.5,-122 94.5,-141"/>
<text text-anchor="middle" x="48.5" y="-129" font-family="Helvetica,sans-Serif" font-size="10.00">Subject_interface</text>
</a>
</g>
</g>
<!-- Node3&#45;&gt;Node2 -->
<g id="edge2" class="edge">
<title>Node3&#45;&gt;Node2</title>
<path fill="none" stroke="#63b8ff" d="M55.23,-110.93C59.31,-99.05 64.32,-84.46 67.47,-75.32"/>
<polygon fill="#63b8ff" stroke="#63b8ff" points="51.99,-109.58 52.05,-120.17 58.61,-111.85 51.99,-109.58"/>
</g>
<!-- Node4 -->
<g id="node4" class="node">
<title>Node4</title>
<g id="a_node4"><a xlink:href="class_observer__interface.html" target="_top" xlink:title="Interfaz para implementar el patrón de diseño Observer.">
<polygon fill="white" stroke="#666666" points="97,-207 0,-207 0,-188 97,-188 97,-207"/>
<text text-anchor="middle" x="48.5" y="-195" font-family="Helvetica,sans-Serif" font-size="10.00">Observer_interface</text>
</a>
</g>
</g>
<!-- Node4&#45;&gt;Node3 -->
<g id="edge3" class="edge">
<title>Node4&#45;&gt;Node3</title>
<path fill="none" stroke="#9a32cd" stroke-dasharray="5,2" d="M48.5,-176.18C48.5,-164.44 48.5,-150.27 48.5,-141.32"/>
<polygon fill="#9a32cd" stroke="#9a32cd" points="45,-176.09 48.5,-186.09 52,-176.09 45,-176.09"/>
<text text-anchor="middle" x="71" y="-162" font-family="Helvetica,sans-Serif" font-size="10.00"> observers</text>
</g>
<!-- Node5 -->
<g id="node5" class="node">
<title>Node5</title>
<g id="a_node5"><a xlink:href="class_machine.html" target="_top" xlink:title="Clase para base para la implementación de una máquina de estados finita.">
<polygon fill="white" stroke="#666666" points="175,-75 122,-75 122,-56 175,-56 175,-75"/>
<text text-anchor="middle" x="148.5" y="-63" font-family="Helvetica,sans-Serif" font-size="10.00">Machine</text>
</a>
</g>
</g>
<!-- Node5&#45;&gt;Node1 -->
<g id="edge4" class="edge">
<title>Node5&#45;&gt;Node1</title>
<path fill="none" stroke="#63b8ff" d="M134.06,-46.77C126.54,-37.55 117.68,-26.67 111.63,-19.25"/>
<polygon fill="#63b8ff" stroke="#63b8ff" points="131.25,-48.87 140.28,-54.41 136.67,-44.45 131.25,-48.87"/>
</g>
<!-- Node6 -->
<g id="node6" class="node">
<title>Node6</title>
<g id="a_node6"><a xlink:href="class_abstract__state.html" target="_top" xlink:title="Clase base para implementar los estados de Control_system. Cada estado se debe ocupar de su comportam...">
<polygon fill="white" stroke="#666666" points="192.5,-141 112.5,-141 112.5,-122 192.5,-122 192.5,-141"/>
<text text-anchor="middle" x="152.5" y="-129" font-family="Helvetica,sans-Serif" font-size="10.00">Abstract_state</text>
</a>
</g>
</g>
<!-- Node6&#45;&gt;Node5 -->
<g id="edge5" class="edge">
<title>Node6&#45;&gt;Node5</title>
<path fill="none" stroke="#9a32cd" stroke-dasharray="5,2" d="M151.23,-110.18C150.5,-98.44 149.61,-84.27 149.05,-75.32"/>
<polygon fill="#9a32cd" stroke="#9a32cd" points="147.73,-110.33 151.85,-120.09 154.72,-109.89 147.73,-110.33"/>
<text text-anchor="middle" x="182" y="-96" font-family="Helvetica,sans-Serif" font-size="10.00"> current_state</text>
</g>
</g>
</svg>
