<?xml version="1.0" encoding="UTF-8" standalone="no"?>
<!DOCTYPE svg PUBLIC "-//W3C//DTD SVG 1.1//EN"
 "http://www.w3.org/Graphics/SVG/1.1/DTD/svg11.dtd">
<!-- Generated by graphviz version 7.0.2 (20221119.0110)
 -->
<!-- Title: Display::init Pages: 1 -->
<svg width="403pt" height="101pt"
 viewBox="0.00 0.00 403.00 101.00" xmlns="http://www.w3.org/2000/svg" xmlns:xlink="http://www.w3.org/1999/xlink">
<g id="graph0" class="graph" transform="scale(1 1) rotate(0) translate(4 97)">
<title>Display::init</title>
<!-- Node1 -->
<g id="node1" class="node">
<title>Node1</title>
<g id="a_node1"><a xlink:title="Método para inicializar el objeto, sólo se puede luego o en setup().">
<polygon fill="#999999" stroke="#666666" points="68,-56 0,-56 0,-37 68,-37 68,-56"/>
<text text-anchor="middle" x="34" y="-44" font-family="Helvetica,sans-Serif" font-size="10.00">Display::init</text>
</a>
</g>
</g>
<!-- Node2 -->
<g id="node2" class="node">
<title>Node2</title>
<g id="a_node2"><a xlink:href="classhd44780___i2_cexp.html#a54aa9784edbb1d73b80951e2f0c061fa" target="_top" xlink:title="Ejecuta la secuencia de inicialización del display.">
<polygon fill="white" stroke="#666666" points="229.5,-93 111.5,-93 111.5,-74 229.5,-74 229.5,-93"/>
<text text-anchor="middle" x="170.5" y="-81" font-family="Helvetica,sans-Serif" font-size="10.00">hd44780_I2Cexp::begin</text>
</a>
</g>
</g>
<!-- Node1&#45;&gt;Node2 -->
<g id="edge1" class="edge">
<title>Node1&#45;&gt;Node2</title>
<path fill="none" stroke="#63b8ff" d="M68.34,-55.68C79.66,-58.8 92.38,-62.3 104,-65.5 109.9,-67.12 116.1,-68.83 122.23,-70.51"/>
<polygon fill="#63b8ff" stroke="#63b8ff" points="121.09,-73.83 131.66,-73.11 122.95,-67.08 121.09,-73.83"/>
</g>
<!-- Node3 -->
<g id="node3" class="node">
<title>Node3</title>
<g id="a_node3"><a xlink:href="classhd44780___i2_cexp.html#ab25b744a9de62f700d5736864640d21b" target="_top" xlink:title="Lleva el cursor al origen de coordenadas.">
<polygon fill="white" stroke="#666666" points="230,-56 111,-56 111,-37 230,-37 230,-56"/>
<text text-anchor="middle" x="170.5" y="-44" font-family="Helvetica,sans-Serif" font-size="10.00">hd44780_I2Cexp::home</text>
</a>
</g>
</g>
<!-- Node1&#45;&gt;Node3 -->
<g id="edge2" class="edge">
<title>Node1&#45;&gt;Node3</title>
<path fill="none" stroke="#63b8ff" d="M68.25,-46.5C77.77,-46.5 88.54,-46.5 99.4,-46.5"/>
<polygon fill="#63b8ff" stroke="#63b8ff" points="99.19,-50 109.19,-46.5 99.19,-43 99.19,-50"/>
</g>
<!-- Node5 -->
<g id="node5" class="node">
<title>Node5</title>
<g id="a_node5"><a xlink:href="classhd44780___i2_cexp.html#afa96f48e955041cedc9cb4ccc7dc1c6c" target="_top" xlink:title="Habilita la envoltura de líneas automática. Cualquier oración que sea demasiado larga como para mostr...">
<polygon fill="white" stroke="#666666" points="237,-19 104,-19 104,0 237,0 237,-19"/>
<text text-anchor="middle" x="170.5" y="-7" font-family="Helvetica,sans-Serif" font-size="10.00">hd44780_I2Cexp::lineWrap</text>
</a>
</g>
</g>
<!-- Node1&#45;&gt;Node5 -->
<g id="edge4" class="edge">
<title>Node1&#45;&gt;Node5</title>
<path fill="none" stroke="#63b8ff" d="M68.25,-37.35C84.53,-32.87 104.43,-27.4 122.26,-22.5"/>
<polygon fill="#63b8ff" stroke="#63b8ff" points="123.16,-25.88 131.87,-19.85 121.3,-19.13 123.16,-25.88"/>
</g>
<!-- Node4 -->
<g id="node4" class="node">
<title>Node4</title>
<g id="a_node4"><a xlink:href="classhd44780___i2_cexp.html#a13020db13c26b6d7ba6ff2ebb42e4053" target="_top" xlink:title="Mueve el cursor.">
<polygon fill="white" stroke="#666666" points="395,-56 273,-56 273,-37 395,-37 395,-56"/>
<text text-anchor="middle" x="334" y="-44" font-family="Helvetica,sans-Serif" font-size="10.00">hd44780_I2Cexp::cursor</text>
</a>
</g>
</g>
<!-- Node3&#45;&gt;Node4 -->
<g id="edge3" class="edge">
<title>Node3&#45;&gt;Node4</title>
<path fill="none" stroke="#63b8ff" d="M230.26,-46.5C240.4,-46.5 251.03,-46.5 261.46,-46.5"/>
<polygon fill="#63b8ff" stroke="#63b8ff" points="261.14,-50 271.14,-46.5 261.14,-43 261.14,-50"/>
</g>
</g>
</svg>
