<?xml version="1.0" encoding="UTF-8" standalone="no"?>
<!DOCTYPE svg PUBLIC "-//W3C//DTD SVG 1.1//EN"
 "http://www.w3.org/Graphics/SVG/1.1/DTD/svg11.dtd">
<!-- Generated by graphviz version 7.0.2 (20221119.0110)
 -->
<!-- Title: Display::update Pages: 1 -->
<svg width="250pt" height="124pt"
 viewBox="0.00 0.00 250.00 124.00" xmlns="http://www.w3.org/2000/svg" xmlns:xlink="http://www.w3.org/1999/xlink">
<g id="graph0" class="graph" transform="scale(1 1) rotate(0) translate(4 120)">
<title>Display::update</title>
<!-- Node1 -->
<g id="node1" class="node">
<title>Node1</title>
<g id="a_node1"><a xlink:title="Actualiza los valores en pantalla con los parámetros previamente fijados. Solo actualiza la pantalla ...">
<polygon fill="#999999" stroke="#666666" points="242,-67.5 158,-67.5 158,-48.5 242,-48.5 242,-67.5"/>
<text text-anchor="middle" x="200" y="-55.5" font-family="Helvetica,sans-Serif" font-size="10.00">Display::update</text>
</a>
</g>
</g>
<!-- Node2 -->
<g id="node2" class="node">
<title>Node2</title>
<g id="a_node2"><a xlink:href="class_check__instruction__state.html#a161d1ccae3db7c6ac372b56877dc05f2" target="_top" xlink:title="Método para actualizar el estado.">
<polygon fill="white" stroke="#666666" points="122,-116 0,-116 0,-86 122,-86 122,-116"/>
<text text-anchor="start" x="8" y="-104" font-family="Helvetica,sans-Serif" font-size="10.00">Check_instruction_state</text>
<text text-anchor="middle" x="61" y="-93" font-family="Helvetica,sans-Serif" font-size="10.00">::update</text>
</a>
</g>
</g>
<!-- Node1&#45;&gt;Node2 -->
<g id="edge1" class="edge">
<title>Node1&#45;&gt;Node2</title>
<path fill="none" stroke="#63b8ff" d="M156.66,-71.29C142.31,-75.79 126.16,-80.86 111.31,-85.52"/>
<polygon fill="#63b8ff" stroke="#63b8ff" points="157.29,-74.76 165.78,-68.43 155.19,-68.08 157.29,-74.76"/>
</g>
<!-- Node3 -->
<g id="node3" class="node">
<title>Node3</title>
<g id="a_node3"><a xlink:href="class_idle__state.html#a92217c98eda8e3bd47eb3a8ff602efc2" target="_top" xlink:title="Método para actualizar el sistema cuando está en estado de reposo. Actualiza la pantalla y los observ...">
<polygon fill="white" stroke="#666666" points="108,-67.5 14,-67.5 14,-48.5 108,-48.5 108,-67.5"/>
<text text-anchor="middle" x="61" y="-55.5" font-family="Helvetica,sans-Serif" font-size="10.00">Idle_state::update</text>
</a>
</g>
</g>
<!-- Node1&#45;&gt;Node3 -->
<g id="edge2" class="edge">
<title>Node1&#45;&gt;Node3</title>
<path fill="none" stroke="#63b8ff" d="M146.25,-58C133.68,-58 120.36,-58 108.12,-58"/>
<polygon fill="#63b8ff" stroke="#63b8ff" points="146.01,-61.5 156.01,-58 146.01,-54.5 146.01,-61.5"/>
</g>
<!-- Node4 -->
<g id="node4" class="node">
<title>Node4</title>
<g id="a_node4"><a xlink:href="class_motor__control__state.html#a958e3393b9937ddea35e85efdd21e342" target="_top" xlink:title="Actualización, cambia el color del LED según el estado del motor y hace sonar la alarma....">
<polygon fill="white" stroke="#666666" points="112.5,-30 9.5,-30 9.5,0 112.5,0 112.5,-30"/>
<text text-anchor="start" x="17.5" y="-18" font-family="Helvetica,sans-Serif" font-size="10.00">Motor_control_state</text>
<text text-anchor="middle" x="61" y="-7" font-family="Helvetica,sans-Serif" font-size="10.00">::update</text>
</a>
</g>
</g>
<!-- Node1&#45;&gt;Node4 -->
<g id="edge3" class="edge">
<title>Node1&#45;&gt;Node4</title>
<path fill="none" stroke="#63b8ff" d="M156.66,-44.71C142.31,-40.21 126.16,-35.14 111.31,-30.48"/>
<polygon fill="#63b8ff" stroke="#63b8ff" points="155.19,-47.92 165.78,-47.57 157.29,-41.24 155.19,-47.92"/>
</g>
</g>
</svg>
