<?xml version="1.0" encoding="UTF-8" standalone="no"?>
<!DOCTYPE svg PUBLIC "-//W3C//DTD SVG 1.1//EN"
 "http://www.w3.org/Graphics/SVG/1.1/DTD/svg11.dtd">
<!-- Generated by graphviz version 7.0.2 (20221119.0110)
 -->
<!-- Title: Check_instruction_state::enter Pages: 1 -->
<svg width="591pt" height="318pt"
 viewBox="0.00 0.00 591.00 317.50" xmlns="http://www.w3.org/2000/svg" xmlns:xlink="http://www.w3.org/1999/xlink">
<g id="graph0" class="graph" transform="scale(1 1) rotate(0) translate(4 313.5)">
<title>Check_instruction_state::enter</title>
<!-- Node1 -->
<g id="node1" class="node">
<title>Node1</title>
<g id="a_node1"><a xlink:title="Entrada del estado, resuelve las instrucciones a realizar en cada paso: &#45;WELCOME_STEP: Primer paso,...">
<polygon fill="#999999" stroke="#666666" points="122,-147.5 0,-147.5 0,-117.5 122,-117.5 122,-147.5"/>
<text text-anchor="start" x="8" y="-135.5" font-family="Helvetica,sans-Serif" font-size="10.00">Check_instruction_state</text>
<text text-anchor="middle" x="61" y="-124.5" font-family="Helvetica,sans-Serif" font-size="10.00">::enter</text>
</a>
</g>
</g>
<!-- Node2 -->
<g id="node2" class="node">
<title>Node2</title>
<g id="a_node2"><a xlink:href="class_control__system.html#aa98b33b5c57a47fb55e211516e49088b" target="_top" xlink:title="Enciende el buzzer por 100ms (bloqueante) y, si no esta anulado el pr贸ximo paso, avanza hacia la sigu...">
<polygon fill="white" stroke="#666666" points="292,-261 158,-261 158,-242 292,-242 292,-261"/>
<text text-anchor="middle" x="225" y="-249" font-family="Helvetica,sans-Serif" font-size="10.00">Control_system::next_step</text>
</a>
</g>
</g>
<!-- Node1&#45;&gt;Node2 -->
<g id="edge1" class="edge">
<title>Node1&#45;&gt;Node2</title>
<path fill="none" stroke="#63b8ff" d="M73.77,-147.71C90.47,-168.38 122.94,-205.3 158,-227.5 164.02,-231.31 170.72,-234.63 177.49,-237.49"/>
<polygon fill="#63b8ff" stroke="#63b8ff" points="176.09,-240.7 186.68,-241.05 178.62,-234.17 176.09,-240.7"/>
</g>
<!-- Node7 -->
<g id="node7" class="node">
<title>Node7</title>
<g id="a_node7"><a xlink:href="class_control__system.html#a46298a6a5f4ba43857baa6ae23d00dbc" target="_top" xlink:title="Fija el valor de velocidad del ventilador.">
<polygon fill="white" stroke="#666666" points="277,-147.5 173,-147.5 173,-117.5 277,-117.5 277,-147.5"/>
<text text-anchor="start" x="181" y="-135.5" font-family="Helvetica,sans-Serif" font-size="10.00">Control_system::set</text>
<text text-anchor="middle" x="225" y="-124.5" font-family="Helvetica,sans-Serif" font-size="10.00">_cooler_speed</text>
</a>
</g>
</g>
<!-- Node1&#45;&gt;Node7 -->
<g id="edge6" class="edge">
<title>Node1&#45;&gt;Node7</title>
<path fill="none" stroke="#63b8ff" d="M122.32,-132.5C135,-132.5 148.39,-132.5 161.16,-132.5"/>
<polygon fill="#63b8ff" stroke="#63b8ff" points="161.15,-136 171.15,-132.5 161.15,-129 161.15,-136"/>
</g>
<!-- Node8 -->
<g id="node8" class="node">
<title>Node8</title>
<g id="a_node8"><a xlink:href="class_dual___l_e_d.html#ab1cd238e00901ca9556914a38d3a064c" target="_top" xlink:title="Enciende el LED en verde.">
<polygon fill="white" stroke="#666666" points="440.5,-224 328.5,-224 328.5,-205 440.5,-205 440.5,-224"/>
<text text-anchor="middle" x="384.5" y="-212" font-family="Helvetica,sans-Serif" font-size="10.00">Dual_LED::turn_green</text>
</a>
</g>
</g>
<!-- Node1&#45;&gt;Node8 -->
<g id="edge16" class="edge">
<title>Node1&#45;&gt;Node8</title>
<path fill="none" stroke="#63b8ff" d="M88.87,-147.97C107.66,-158.13 133.65,-170.9 158,-178.5 210.16,-194.78 271.51,-203.97 317.05,-208.98"/>
<polygon fill="#63b8ff" stroke="#63b8ff" points="316.45,-212.43 326.76,-210 317.18,-205.47 316.45,-212.43"/>
</g>
<!-- Node12 -->
<g id="node12" class="node">
<title>Node12</title>
<g id="a_node12"><a xlink:href="class_cooler.html#a3aa26bc227fa7a2bdcff9fe607990104" target="_top" xlink:title="Apaga el ventilador.">
<polygon fill="white" stroke="#666666" points="571,-113 489,-113 489,-94 571,-94 571,-113"/>
<text text-anchor="middle" x="530" y="-101" font-family="Helvetica,sans-Serif" font-size="10.00">Cooler::turn_off</text>
</a>
</g>
</g>
<!-- Node1&#45;&gt;Node12 -->
<g id="edge17" class="edge">
<title>Node1&#45;&gt;Node12</title>
<path fill="none" stroke="#63b8ff" d="M115.17,-117.04C129,-113.62 143.96,-110.44 158,-108.5 271.03,-92.89 405.27,-96.49 477.25,-100.19"/>
<polygon fill="#63b8ff" stroke="#63b8ff" points="476.99,-103.68 487.17,-100.72 477.37,-96.69 476.99,-103.68"/>
</g>
<!-- Node13 -->
<g id="node13" class="node">
<title>Node13</title>
<g id="a_node13"><a xlink:href="class_dual___l_e_d.html#a8734a816df04661d86e3ccbf88159eb0" target="_top" xlink:title="Enciende el LED en rojo.">
<polygon fill="white" stroke="#666666" points="435,-187 334,-187 334,-168 435,-168 435,-187"/>
<text text-anchor="middle" x="384.5" y="-175" font-family="Helvetica,sans-Serif" font-size="10.00">Dual_LED::turn_red</text>
</a>
</g>
</g>
<!-- Node1&#45;&gt;Node13 -->
<g id="edge20" class="edge">
<title>Node1&#45;&gt;Node13</title>
<path fill="none" stroke="#63b8ff" d="M117.79,-147.97C130.9,-151.18 144.88,-154.26 158,-156.5 213.09,-165.89 276.51,-171.33 322.04,-174.31"/>
<polygon fill="#63b8ff" stroke="#63b8ff" points="321.79,-177.8 331.99,-174.94 322.23,-170.81 321.79,-177.8"/>
</g>
<!-- Node14 -->
<g id="node14" class="node">
<title>Node14</title>
<g id="a_node14"><a xlink:href="class_motor.html#a9a1613b24a5dd07a8c515e82d8e0edeb" target="_top" xlink:title="Apaga el motor.">
<polygon fill="white" stroke="#666666" points="264.5,-56 185.5,-56 185.5,-37 264.5,-37 264.5,-56"/>
<text text-anchor="middle" x="225" y="-44" font-family="Helvetica,sans-Serif" font-size="10.00">Motor::turn_off</text>
</a>
</g>
</g>
<!-- Node1&#45;&gt;Node14 -->
<g id="edge18" class="edge">
<title>Node1&#45;&gt;Node14</title>
<path fill="none" stroke="#63b8ff" d="M82.91,-117.03C101.83,-103.51 130.81,-84.01 158,-70.5 165.43,-66.81 173.58,-63.38 181.53,-60.34"/>
<polygon fill="#63b8ff" stroke="#63b8ff" points="182.56,-63.69 190.75,-56.97 180.16,-57.12 182.56,-63.69"/>
</g>
<!-- Node15 -->
<g id="node15" class="node">
<title>Node15</title>
<g id="a_node15"><a xlink:href="class_motor.html#a3a871f05d0b017ff32052eb946a56f38" target="_top" xlink:title="Enciende el motor con con una duraci贸n en milisegundos duration, por defecto enciende el motor por un...">
<polygon fill="white" stroke="#666666" points="265,-19 185,-19 185,0 265,0 265,-19"/>
<text text-anchor="middle" x="225" y="-7" font-family="Helvetica,sans-Serif" font-size="10.00">Motor::turn_on</text>
</a>
</g>
</g>
<!-- Node1&#45;&gt;Node15 -->
<g id="edge19" class="edge">
<title>Node1&#45;&gt;Node15</title>
<path fill="none" stroke="#63b8ff" d="M71.81,-117.12C87.3,-94.11 119.63,-50.93 158,-27.5 162.94,-24.48 168.39,-21.96 173.98,-19.86"/>
<polygon fill="#63b8ff" stroke="#63b8ff" points="174.96,-23.22 183.37,-16.78 172.78,-16.57 174.96,-23.22"/>
</g>
<!-- Node3 -->
<g id="node3" class="node">
<title>Node3</title>
<g id="a_node3"><a xlink:href="class_control__system.html#ac1cd148e897c5ce2ef405dd45ddf964f" target="_top" xlink:title="Muestra en pantalla el paso del procedimientoa actual.">
<polygon fill="white" stroke="#666666" points="441,-309.5 328,-309.5 328,-279.5 441,-279.5 441,-309.5"/>
<text text-anchor="start" x="336" y="-297.5" font-family="Helvetica,sans-Serif" font-size="10.00">Control_system::show</text>
<text text-anchor="middle" x="384.5" y="-286.5" font-family="Helvetica,sans-Serif" font-size="10.00">_current_step</text>
</a>
</g>
</g>
<!-- Node2&#45;&gt;Node3 -->
<g id="edge2" class="edge">
<title>Node2&#45;&gt;Node3</title>
<path fill="none" stroke="#63b8ff" d="M262.53,-261.47C278.63,-265.87 298.08,-271.18 316.63,-276.24"/>
<polygon fill="#63b8ff" stroke="#63b8ff" points="315.69,-279.62 326.26,-278.87 317.54,-272.86 315.69,-279.62"/>
</g>
<!-- Node5 -->
<g id="node5" class="node">
<title>Node5</title>
<g id="a_node5"><a xlink:href="class_buzzer.html#a9ba28d9ca8b3dd80541d9a13a8b0f625" target="_top" xlink:title="Enciende el buzzer con con una duraci贸n en milisegundos duration, por defecto enciende el buzzer por ...">
<polygon fill="white" stroke="#666666" points="427.5,-261 341.5,-261 341.5,-242 427.5,-242 427.5,-261"/>
<text text-anchor="middle" x="384.5" y="-249" font-family="Helvetica,sans-Serif" font-size="10.00">Buzzer::turn_on</text>
</a>
</g>
</g>
<!-- Node2&#45;&gt;Node5 -->
<g id="edge4" class="edge">
<title>Node2&#45;&gt;Node5</title>
<path fill="none" stroke="#63b8ff" d="M292.34,-251.5C304.82,-251.5 317.74,-251.5 329.78,-251.5"/>
<polygon fill="#63b8ff" stroke="#63b8ff" points="329.5,-255 339.5,-251.5 329.5,-248 329.5,-255"/>
</g>
<!-- Node4 -->
<g id="node4" class="node">
<title>Node4</title>
<g id="a_node4"><a xlink:href="class_display.html#a87d1e7bf73a1d14b5e76c9ab647a9e93" target="_top" xlink:title="Fija el el texto a actualizar, no lo imprime en pantalla. La ubicaci贸n se da con las constantes de of...">
<polygon fill="white" stroke="#666666" points="575,-304 485,-304 485,-285 575,-285 575,-304"/>
<text text-anchor="middle" x="530" y="-292" font-family="Helvetica,sans-Serif" font-size="10.00">Display::set_text</text>
</a>
</g>
</g>
<!-- Node3&#45;&gt;Node4 -->
<g id="edge3" class="edge">
<title>Node3&#45;&gt;Node4</title>
<path fill="none" stroke="#63b8ff" d="M441.39,-294.5C451.8,-294.5 462.67,-294.5 473.08,-294.5"/>
<polygon fill="#63b8ff" stroke="#63b8ff" points="473.07,-298 483.07,-294.5 473.07,-291 473.07,-298"/>
</g>
<!-- Node6 -->
<g id="node6" class="node">
<title>Node6</title>
<g id="a_node6"><a xlink:href="class_buzzer.html#a5809a2b7b52e74f509c31214257f3af0" target="_top" xlink:title="Apaga el buzzer.">
<polygon fill="white" stroke="#666666" points="572.5,-261 487.5,-261 487.5,-242 572.5,-242 572.5,-261"/>
<text text-anchor="middle" x="530" y="-249" font-family="Helvetica,sans-Serif" font-size="10.00">Buzzer::turn_off</text>
</a>
</g>
</g>
<!-- Node5&#45;&gt;Node6 -->
<g id="edge5" class="edge">
<title>Node5&#45;&gt;Node6</title>
<path fill="none" stroke="#63b8ff" d="M427.78,-251.5C442.81,-251.5 459.94,-251.5 475.77,-251.5"/>
<polygon fill="#63b8ff" stroke="#63b8ff" points="475.51,-255 485.51,-251.5 475.51,-248 475.51,-255"/>
</g>
<!-- Node7&#45;&gt;Node8 -->
<g id="edge7" class="edge">
<title>Node7&#45;&gt;Node8</title>
<path fill="none" stroke="#63b8ff" d="M247.48,-147.74C267.59,-161.53 298.83,-181.71 328,-195.5 331.77,-197.28 335.75,-198.98 339.78,-200.57"/>
<polygon fill="#63b8ff" stroke="#63b8ff" points="338.43,-203.8 349.02,-204.01 340.87,-197.24 338.43,-203.8"/>
</g>
<!-- Node11 -->
<g id="node11" class="node">
<title>Node11</title>
<g id="a_node11"><a xlink:href="class_cooler.html#aa98fd302dc7933fc21c046ca3ea48346" target="_top" xlink:title="Enciende el ventilador. Si el ciclo de trabajo deseado es menor que FAN_MINIMUM_DUTY_CYCLE apaga el v...">
<polygon fill="white" stroke="#666666" points="426,-132 343,-132 343,-113 426,-113 426,-132"/>
<text text-anchor="middle" x="384.5" y="-120" font-family="Helvetica,sans-Serif" font-size="10.00">Cooler::turn_on</text>
</a>
</g>
</g>
<!-- Node7&#45;&gt;Node11 -->
<g id="edge10" class="edge">
<title>Node7&#45;&gt;Node11</title>
<path fill="none" stroke="#63b8ff" d="M277.14,-129.25C294.52,-128.15 313.97,-126.91 331.43,-125.81"/>
<polygon fill="#63b8ff" stroke="#63b8ff" points="331.31,-129.32 341.07,-125.19 330.87,-122.33 331.31,-129.32"/>
</g>
<!-- Node7&#45;&gt;Node13 -->
<g id="edge13" class="edge">
<title>Node7&#45;&gt;Node13</title>
<path fill="none" stroke="#63b8ff" d="M277.14,-147.11C296.57,-152.66 318.57,-158.95 337.49,-164.36"/>
<polygon fill="#63b8ff" stroke="#63b8ff" points="336.5,-167.71 347.08,-167.09 338.43,-160.98 336.5,-167.71"/>
</g>
<!-- Node9 -->
<g id="node9" class="node">
<title>Node9</title>
<g id="a_node9"><a xlink:href="class_dual___l_e_d.html#aeb163748acf071a1652c56ae1dff9d52" target="_top" xlink:title="Fija el color del led, no enciende el led,.">
<polygon fill="white" stroke="#666666" points="583,-224 477,-224 477,-205 583,-205 583,-224"/>
<text text-anchor="middle" x="530" y="-212" font-family="Helvetica,sans-Serif" font-size="10.00">Dual_LED::set_color</text>
</a>
</g>
</g>
<!-- Node8&#45;&gt;Node9 -->
<g id="edge8" class="edge">
<title>Node8&#45;&gt;Node9</title>
<path fill="none" stroke="#63b8ff" d="M440.98,-214.5C449.02,-214.5 457.35,-214.5 465.53,-214.5"/>
<polygon fill="#63b8ff" stroke="#63b8ff" points="465.45,-218 475.45,-214.5 465.45,-211 465.45,-218"/>
</g>
<!-- Node10 -->
<g id="node10" class="node">
<title>Node10</title>
<g id="a_node10"><a xlink:href="class_dual___l_e_d.html#a8b13294b883897eb83f91bf90a3a11cd" target="_top" xlink:title="Enciende el LED en el color actual.">
<polygon fill="white" stroke="#666666" points="579,-187 481,-187 481,-168 579,-168 579,-187"/>
<text text-anchor="middle" x="530" y="-175" font-family="Helvetica,sans-Serif" font-size="10.00">Dual_LED::turn_on</text>
</a>
</g>
</g>
<!-- Node8&#45;&gt;Node10 -->
<g id="edge9" class="edge">
<title>Node8&#45;&gt;Node10</title>
<path fill="none" stroke="#63b8ff" d="M423.96,-204.58C441.01,-200.19 461.28,-194.96 479.45,-190.28"/>
<polygon fill="#63b8ff" stroke="#63b8ff" points="480.16,-193.71 488.97,-187.82 478.42,-186.93 480.16,-193.71"/>
</g>
<!-- Node11&#45;&gt;Node11 -->
<g id="edge12" class="edge">
<title>Node11&#45;&gt;Node11</title>
<path fill="none" stroke="#63b8ff" d="M361.72,-132.37C351.33,-140.94 358.92,-150 384.5,-150 398.49,-150 407.1,-147.29 410.33,-143.43"/>
<polygon fill="#63b8ff" stroke="#63b8ff" points="413.71,-142.54 407.68,-133.83 406.96,-144.4 413.71,-142.54"/>
</g>
<!-- Node11&#45;&gt;Node12 -->
<g id="edge11" class="edge">
<title>Node11&#45;&gt;Node12</title>
<path fill="none" stroke="#63b8ff" d="M426.24,-117.11C442.13,-115 460.53,-112.57 477.33,-110.34"/>
<polygon fill="#63b8ff" stroke="#63b8ff" points="477.7,-113.82 487.16,-109.04 476.78,-106.88 477.7,-113.82"/>
</g>
<!-- Node13&#45;&gt;Node9 -->
<g id="edge14" class="edge">
<title>Node13&#45;&gt;Node9</title>
<path fill="none" stroke="#63b8ff" d="M423.96,-187.42C441.01,-191.81 461.28,-197.04 479.45,-201.72"/>
<polygon fill="#63b8ff" stroke="#63b8ff" points="478.42,-205.07 488.97,-204.18 480.16,-198.29 478.42,-205.07"/>
</g>
<!-- Node13&#45;&gt;Node10 -->
<g id="edge15" class="edge">
<title>Node13&#45;&gt;Node10</title>
<path fill="none" stroke="#63b8ff" d="M435.29,-177.5C446.34,-177.5 458.15,-177.5 469.55,-177.5"/>
<polygon fill="#63b8ff" stroke="#63b8ff" points="469.24,-181 479.24,-177.5 469.24,-174 469.24,-181"/>
</g>
</g>
</svg>
