<?xml version="1.0" encoding="UTF-8" standalone="no"?>
<!DOCTYPE svg PUBLIC "-//W3C//DTD SVG 1.1//EN"
 "http://www.w3.org/Graphics/SVG/1.1/DTD/svg11.dtd">
<!-- Generated by graphviz version 7.0.2 (20221119.0110)
 -->
<!-- Title: Check_instruction_state::enter Pages: 1 -->
<svg width="440pt" height="187pt"
 viewBox="0.00 0.00 440.00 186.50" xmlns="http://www.w3.org/2000/svg" xmlns:xlink="http://www.w3.org/1999/xlink">
<g id="graph0" class="graph" transform="scale(1 1) rotate(0) translate(4 182.5)">
<title>Check_instruction_state::enter</title>
<!-- Node1 -->
<g id="node1" class="node">
<title>Node1</title>
<g id="a_node1"><a xlink:title="Método que se llama al ingresar al estado.">
<polygon fill="#999999" stroke="#666666" points="122,-98.5 0,-98.5 0,-68.5 122,-68.5 122,-98.5"/>
<text text-anchor="start" x="8" y="-86.5" font-family="Helvetica,sans-Serif" font-size="10.00">Check_instruction_state</text>
<text text-anchor="middle" x="61" y="-75.5" font-family="Helvetica,sans-Serif" font-size="10.00">::enter</text>
</a>
</g>
</g>
<!-- Node2 -->
<g id="node2" class="node">
<title>Node2</title>
<g id="a_node2"><a xlink:href="class_digital__dual___l_e_d.html#a50e4648932cd01835f25e627cbe93ba6" target="_top" xlink:title="Enciende el LED en verde.">
<polygon fill="white" stroke="#666666" points="280.5,-178.5 167.5,-178.5 167.5,-148.5 280.5,-148.5 280.5,-178.5"/>
<text text-anchor="start" x="175.5" y="-166.5" font-family="Helvetica,sans-Serif" font-size="10.00">Digital_dual_LED::turn</text>
<text text-anchor="middle" x="224" y="-155.5" font-family="Helvetica,sans-Serif" font-size="10.00">_green</text>
</a>
</g>
</g>
<!-- Node1&#45;&gt;Node2 -->
<g id="edge1" class="edge">
<title>Node1&#45;&gt;Node2</title>
<path fill="none" stroke="#63b8ff" d="M85.83,-98.97C104.88,-110.95 132.52,-127.48 158,-139.5 161.11,-140.97 164.33,-142.41 167.61,-143.8"/>
<polygon fill="#63b8ff" stroke="#63b8ff" points="166.19,-147 176.77,-147.55 168.83,-140.52 166.19,-147"/>
</g>
<!-- Node3 -->
<g id="node3" class="node">
<title>Node3</title>
<g id="a_node3"><a xlink:href="class_dual___l_e_d.html#ab1cd238e00901ca9556914a38d3a064c" target="_top" xlink:title="Enciende el LED en verde.">
<polygon fill="white" stroke="#666666" points="280,-130 168,-130 168,-111 280,-111 280,-130"/>
<text text-anchor="middle" x="224" y="-118" font-family="Helvetica,sans-Serif" font-size="10.00">Dual_LED::turn_green</text>
</a>
</g>
</g>
<!-- Node1&#45;&gt;Node3 -->
<g id="edge2" class="edge">
<title>Node1&#45;&gt;Node3</title>
<path fill="none" stroke="#63b8ff" d="M122.41,-97.38C137.62,-100.88 153.86,-104.61 168.76,-108.03"/>
<polygon fill="#63b8ff" stroke="#63b8ff" points="167.84,-111.41 178.37,-110.24 169.41,-104.59 167.84,-111.41"/>
</g>
<!-- Node6 -->
<g id="node6" class="node">
<title>Node6</title>
<g id="a_node6"><a xlink:href="class_motor.html#a9a1613b24a5dd07a8c515e82d8e0edeb" target="_top" xlink:title="Apaga el motor.">
<polygon fill="white" stroke="#666666" points="263.5,-93 184.5,-93 184.5,-74 263.5,-74 263.5,-93"/>
<text text-anchor="middle" x="224" y="-81" font-family="Helvetica,sans-Serif" font-size="10.00">Motor::turn_off</text>
</a>
</g>
</g>
<!-- Node1&#45;&gt;Node6 -->
<g id="edge5" class="edge">
<title>Node1&#45;&gt;Node6</title>
<path fill="none" stroke="#63b8ff" d="M122.41,-83.5C139.07,-83.5 156.95,-83.5 172.95,-83.5"/>
<polygon fill="#63b8ff" stroke="#63b8ff" points="172.71,-87 182.71,-83.5 172.71,-80 172.71,-87"/>
</g>
<!-- Node7 -->
<g id="node7" class="node">
<title>Node7</title>
<g id="a_node7"><a xlink:href="class_motor.html#a3a871f05d0b017ff32052eb946a56f38" target="_top" xlink:title="Enciende el motor con con una duración en milisegundos duration, por defecto enciende el motor por un...">
<polygon fill="white" stroke="#666666" points="264,-56 184,-56 184,-37 264,-37 264,-56"/>
<text text-anchor="middle" x="224" y="-44" font-family="Helvetica,sans-Serif" font-size="10.00">Motor::turn_on</text>
</a>
</g>
</g>
<!-- Node1&#45;&gt;Node7 -->
<g id="edge6" class="edge">
<title>Node1&#45;&gt;Node7</title>
<path fill="none" stroke="#63b8ff" d="M122.41,-69.62C138.92,-65.82 156.64,-61.75 172.54,-58.1"/>
<polygon fill="#63b8ff" stroke="#63b8ff" points="173.31,-61.51 182.27,-55.86 171.74,-54.69 173.31,-61.51"/>
</g>
<!-- Node8 -->
<g id="node8" class="node">
<title>Node8</title>
<g id="a_node8"><a xlink:href="class_digital__dual___l_e_d.html#a601fc70878c221a056d74dc643806a91" target="_top" xlink:title="Fija el color del led, no enciende el led,.">
<polygon fill="white" stroke="#666666" points="290,-19 158,-19 158,0 290,0 290,-19"/>
<text text-anchor="middle" x="224" y="-7" font-family="Helvetica,sans-Serif" font-size="10.00">Digital_dual_LED::turn_red</text>
</a>
</g>
</g>
<!-- Node1&#45;&gt;Node8 -->
<g id="edge7" class="edge">
<title>Node1&#45;&gt;Node8</title>
<path fill="none" stroke="#63b8ff" d="M84.41,-68.18C103.33,-55.81 131.51,-38.67 158,-27.5 161.84,-25.88 165.87,-24.36 169.96,-22.95"/>
<polygon fill="#63b8ff" stroke="#63b8ff" points="170.95,-26.31 179.41,-19.92 168.81,-19.64 170.95,-26.31"/>
</g>
<!-- Node4 -->
<g id="node4" class="node">
<title>Node4</title>
<g id="a_node4"><a xlink:href="class_dual___l_e_d.html#aeb163748acf071a1652c56ae1dff9d52" target="_top" xlink:title="Fija el color del led, no enciende el led,.">
<polygon fill="white" stroke="#666666" points="432,-148 326,-148 326,-129 432,-129 432,-148"/>
<text text-anchor="middle" x="379" y="-136" font-family="Helvetica,sans-Serif" font-size="10.00">Dual_LED::set_color</text>
</a>
</g>
</g>
<!-- Node3&#45;&gt;Node4 -->
<g id="edge3" class="edge">
<title>Node3&#45;&gt;Node4</title>
<path fill="none" stroke="#63b8ff" d="M280.24,-127C291.34,-128.31 303.1,-129.69 314.46,-131.02"/>
<polygon fill="#63b8ff" stroke="#63b8ff" points="313.81,-134.47 324.15,-132.16 314.63,-127.52 313.81,-134.47"/>
</g>
<!-- Node5 -->
<g id="node5" class="node">
<title>Node5</title>
<g id="a_node5"><a xlink:href="class_dual___l_e_d.html#a8b13294b883897eb83f91bf90a3a11cd" target="_top" xlink:title="Enciende el LED en el color actual.">
<polygon fill="white" stroke="#666666" points="428,-111 330,-111 330,-92 428,-92 428,-111"/>
<text text-anchor="middle" x="379" y="-99" font-family="Helvetica,sans-Serif" font-size="10.00">Dual_LED::turn_on</text>
</a>
</g>
</g>
<!-- Node3&#45;&gt;Node5 -->
<g id="edge4" class="edge">
<title>Node3&#45;&gt;Node5</title>
<path fill="none" stroke="#63b8ff" d="M280.24,-113.64C292.69,-112.09 305.96,-110.45 318.57,-108.88"/>
<polygon fill="#63b8ff" stroke="#63b8ff" points="318.94,-112.36 328.43,-107.66 318.07,-105.42 318.94,-112.36"/>
</g>
</g>
</svg>
