<?xml version="1.0" encoding="UTF-8" standalone="no"?>
<!DOCTYPE svg PUBLIC "-//W3C//DTD SVG 1.1//EN"
 "http://www.w3.org/Graphics/SVG/1.1/DTD/svg11.dtd">
<!-- Generated by graphviz version 7.0.2 (20221119.0110)
 -->
<!-- Title: Subject Pages: 1 -->
<svg width="105pt" height="149pt"
 viewBox="0.00 0.00 105.00 149.00" xmlns="http://www.w3.org/2000/svg" xmlns:xlink="http://www.w3.org/1999/xlink">
<g id="graph0" class="graph" transform="scale(1 1) rotate(0) translate(4 145)">
<title>Subject</title>
<!-- Node1 -->
<g id="node1" class="node">
<title>Node1</title>
<g id="a_node1"><a xlink:title="Clase base para crear sujetos a observar, hereda de la interfaz Subject_interface.">
<polygon fill="#999999" stroke="#666666" points="73.5,-19 23.5,-19 23.5,0 73.5,0 73.5,-19"/>
<text text-anchor="middle" x="48.5" y="-7" font-family="Helvetica,sans-Serif" font-size="10.00">Subject</text>
</a>
</g>
</g>
<!-- Node2 -->
<g id="node2" class="node">
<title>Node2</title>
<g id="a_node2"><a xlink:href="class_subject__interface.html" target="_top" xlink:title="Clase interfaz para implementar el patr칩n de dise침o Observer.">
<polygon fill="white" stroke="#666666" points="94.5,-75 2.5,-75 2.5,-56 94.5,-56 94.5,-75"/>
<text text-anchor="middle" x="48.5" y="-63" font-family="Helvetica,sans-Serif" font-size="10.00">Subject_interface</text>
</a>
</g>
</g>
<!-- Node2&#45;&gt;Node1 -->
<g id="edge1" class="edge">
<title>Node2&#45;&gt;Node1</title>
<path fill="none" stroke="#63b8ff" d="M48.5,-44.11C48.5,-35.52 48.5,-25.97 48.5,-19.25"/>
<polygon fill="#63b8ff" stroke="#63b8ff" points="45,-44.07 48.5,-54.07 52,-44.07 45,-44.07"/>
</g>
<!-- Node3 -->
<g id="node3" class="node">
<title>Node3</title>
<g id="a_node3"><a xlink:href="class_observer__interface.html" target="_top" xlink:title="Interfaz para implementar el patr칩n de dise침o Observer.">
<polygon fill="white" stroke="#666666" points="97,-141 0,-141 0,-122 97,-122 97,-141"/>
<text text-anchor="middle" x="48.5" y="-129" font-family="Helvetica,sans-Serif" font-size="10.00">Observer_interface</text>
</a>
</g>
</g>
<!-- Node3&#45;&gt;Node2 -->
<g id="edge2" class="edge">
<title>Node3&#45;&gt;Node2</title>
<path fill="none" stroke="#9a32cd" stroke-dasharray="5,2" d="M48.5,-110.18C48.5,-98.44 48.5,-84.27 48.5,-75.32"/>
<polygon fill="#9a32cd" stroke="#9a32cd" points="45,-110.09 48.5,-120.09 52,-110.09 45,-110.09"/>
<text text-anchor="middle" x="71" y="-96" font-family="Helvetica,sans-Serif" font-size="10.00"> observers</text>
</g>
</g>
</svg>
