<?xml version="1.0" encoding="UTF-8" standalone="no"?>
<!DOCTYPE svg PUBLIC "-//W3C//DTD SVG 1.1//EN"
 "http://www.w3.org/Graphics/SVG/1.1/DTD/svg11.dtd">
<!-- Generated by graphviz version 7.0.2 (20221119.0110)
 -->
<!-- Title: Buzzer::turn_off Pages: 1 -->
<!--zoomable 139 -->
<svg id="main" version="1.1" xmlns="http://www.w3.org/2000/svg" xmlns:xlink="http://www.w3.org/1999/xlink" xml:space="preserve" onload="init(evt)">
<style type="text/css"><![CDATA[
.edge:hover path { stroke: red; }
.edge:hover polygon { stroke: red; fill: red; }
]]></style>
<script type="text/javascript"><![CDATA[
var edges = document.getElementsByTagName('g');
if (edges && edges.length) {
  for (var i=0;i<edges.length;i++) {
    if (edges[i].id.substr(0,4)=='edge') {
      edges[i].setAttribute('class','edge');
    }
  }
}
]]></script>
        <defs>
                <circle id="rim" cx="0" cy="0" r="7"/>
                <circle id="rim2" cx="0" cy="0" r="3.5"/>
                <g id="zoomPlus">
                        <use xlink:href="#rim" fill="#404040">
                                <set attributeName="fill" to="#808080" begin="zoomplus.mouseover" end="zoomplus.mouseout"/>
                        </use>
                        <path d="M-4,0h8M0,-4v8" fill="none" stroke="white" stroke-width="1.5" pointer-events="none"/>
                </g>
                <g id="zoomMin">
                        <use xlink:href="#rim" fill="#404040">
                                <set attributeName="fill" to="#808080" begin="zoomminus.mouseover" end="zoomminus.mouseout"/>
                        </use>
                        <path d="M-4,0h8" fill="none" stroke="white" stroke-width="1.5" pointer-events="none"/>
                </g>
                <g id="dirArrow">
                        <path fill="none" stroke="white" stroke-width="1.5" d="M0,-3.0v7 M-2.5,-0.5L0,-3.0L2.5,-0.5"/>
                </g>
               <g id="resetDef">
                       <use xlink:href="#rim2" fill="#404040">
                               <set attributeName="fill" to="#808080" begin="reset.mouseover" end="reset.mouseout"/>
                       </use>
               </g>
        </defs>

<script type="text/javascript">
var viewWidth = 548;
var viewHeight = 139;
var sectionId = 'dynsection-1';
</script>
<script xlink:href="svgpan.js"/>
<svg id="graph" class="graph">
<g id="viewport">
<title>Buzzer::turn_off</title>
<!-- Node1 -->
<g id="node1" class="node">
<title>Node1</title>
<g id="a_node1"><a xlink:title="Apaga el buzzer.">
<polygon fill="#999999" stroke="#666666" points="540,-93 455,-93 455,-74 540,-74 540,-93"/>
<text text-anchor="middle" x="497.5" y="-81" font-family="Helvetica,sans-Serif" font-size="10.00">Buzzer::turn_off</text>
</a>
</g>
</g>
<!-- Node2 -->
<g id="node2" class="node">
<title>Node2</title>
<g id="a_node2"><a xlink:href="class_alarm__state.html#acf39d27a3ccd1c25ade55e08918650f8" target="_top" xlink:title="Salida del estado, apaga LEDs y Buzzer.">
<polygon fill="white" stroke="#666666" points="419,-131 328,-131 328,-112 419,-112 419,-131"/>
<text text-anchor="middle" x="373.5" y="-119" font-family="Helvetica,sans-Serif" font-size="10.00">Alarm_state::exit</text>
</a>
</g>
</g>
<!-- Node1&#45;&gt;Node2 -->
<g id="edge1" class="edge">
<title>Node1&#45;&gt;Node2</title>
<path fill="none" stroke="#63b8ff" d="M453.51,-96.89C437.98,-101.73 420.74,-107.1 406.34,-111.58"/>
<polygon fill="#63b8ff" stroke="#63b8ff" points="454.49,-100.25 463,-93.93 452.41,-93.57 454.49,-100.25"/>
</g>
<!-- Node4 -->
<g id="node4" class="node">
<title>Node4</title>
<g id="a_node4"><a xlink:href="class_buzzer.html#a7d0275af89ab487903752edc29a5bf2c" target="_top" xlink:title="Permuta el estado del led, si estaba encendido pasará a apagado y viceversa.">
<polygon fill="white" stroke="#666666" points="265,-93 185,-93 185,-74 265,-74 265,-93"/>
<text text-anchor="middle" x="225" y="-81" font-family="Helvetica,sans-Serif" font-size="10.00">Buzzer::toggle</text>
</a>
</g>
</g>
<!-- Node1&#45;&gt;Node4 -->
<g id="edge3" class="edge">
<title>Node1&#45;&gt;Node4</title>
<path fill="none" stroke="#63b8ff" d="M443.14,-83.5C390.83,-83.5 312.33,-83.5 265.43,-83.5"/>
<polygon fill="#63b8ff" stroke="#63b8ff" points="443.02,-87 453.02,-83.5 443.02,-80 443.02,-87"/>
</g>
<!-- Node5 -->
<g id="node5" class="node">
<title>Node5</title>
<g id="a_node5"><a xlink:href="class_buzzer.html#a9ba28d9ca8b3dd80541d9a13a8b0f625" target="_top" xlink:title="Enciende el buzzer con con una duración en milisegundos duration, por defecto enciende el buzzer por ...">
<polygon fill="white" stroke="#666666" points="416.5,-55 330.5,-55 330.5,-36 416.5,-36 416.5,-55"/>
<text text-anchor="middle" x="373.5" y="-43" font-family="Helvetica,sans-Serif" font-size="10.00">Buzzer::turn_on</text>
</a>
</g>
</g>
<!-- Node1&#45;&gt;Node5 -->
<g id="edge4" class="edge">
<title>Node1&#45;&gt;Node5</title>
<path fill="none" stroke="#63b8ff" d="M453.51,-70.11C437.98,-65.27 420.74,-59.9 406.34,-55.42"/>
<polygon fill="#63b8ff" stroke="#63b8ff" points="452.41,-73.43 463,-73.07 454.49,-66.75 452.41,-73.43"/>
</g>
<!-- Node3 -->
<g id="node3" class="node">
<title>Node3</title>
<g id="a_node3"><a xlink:href="class_alarm__state.html#adb40defa4c50d289290b44b2a4f41189" target="_top" xlink:title="Transición de estados.">
<polygon fill="white" stroke="#666666" points="282.5,-131 167.5,-131 167.5,-112 282.5,-112 282.5,-131"/>
<text text-anchor="middle" x="225" y="-119" font-family="Helvetica,sans-Serif" font-size="10.00">Alarm_state::transition</text>
</a>
</g>
</g>
<!-- Node2&#45;&gt;Node3 -->
<g id="edge2" class="edge">
<title>Node2&#45;&gt;Node3</title>
<path fill="none" stroke="#63b8ff" d="M316.53,-121.5C305.52,-121.5 293.96,-121.5 282.93,-121.5"/>
<polygon fill="#63b8ff" stroke="#63b8ff" points="316.24,-125 326.24,-121.5 316.24,-118 316.24,-125"/>
</g>
<!-- Node5&#45;&gt;Node4 -->
<g id="edge7" class="edge">
<title>Node5&#45;&gt;Node4</title>
<path fill="none" stroke="#63b8ff" d="M323.08,-58.32C303.96,-63.28 282.42,-68.87 264.49,-73.52"/>
<polygon fill="#63b8ff" stroke="#63b8ff" points="323.74,-61.76 332.54,-55.86 321.99,-54.99 323.74,-61.76"/>
</g>
<!-- Node6 -->
<g id="node6" class="node">
<title>Node6</title>
<g id="a_node6"><a xlink:href="class_control__system.html#aa98b33b5c57a47fb55e211516e49088b" target="_top" xlink:title="Enciende el buzzer por 100ms (bloqueante) y, si no esta anulado el próximo paso, avanza hacia la sigu...">
<polygon fill="white" stroke="#666666" points="292,-56 158,-56 158,-37 292,-37 292,-56"/>
<text text-anchor="middle" x="225" y="-44" font-family="Helvetica,sans-Serif" font-size="10.00">Control_system::next_step</text>
</a>
</g>
</g>
<!-- Node5&#45;&gt;Node6 -->
<g id="edge5" class="edge">
<title>Node5&#45;&gt;Node6</title>
<path fill="none" stroke="#63b8ff" d="M318.7,-45.87C310.11,-45.93 301.13,-45.99 292.29,-46.05"/>
<polygon fill="#63b8ff" stroke="#63b8ff" points="318.64,-49.37 328.61,-45.8 318.59,-42.37 318.64,-49.37"/>
</g>
<!-- Node8 -->
<g id="node8" class="node">
<title>Node8</title>
<g id="a_node8"><a xlink:href="class_alarm__state.html#acea6eee2b8d267b67192bbce9e495038" target="_top" xlink:title="Actualización, cambia el color del LED según el estado del motor y hace sonar la alarma....">
<polygon fill="white" stroke="#666666" points="277,-19 173,-19 173,0 277,0 277,-19"/>
<text text-anchor="middle" x="225" y="-7" font-family="Helvetica,sans-Serif" font-size="10.00">Alarm_state::update</text>
</a>
</g>
</g>
<!-- Node5&#45;&gt;Node8 -->
<g id="edge8" class="edge">
<title>Node5&#45;&gt;Node8</title>
<path fill="none" stroke="#63b8ff" d="M320.97,-32.84C303.12,-28.45 283.38,-23.6 266.54,-19.46"/>
<polygon fill="#63b8ff" stroke="#63b8ff" points="320.06,-36.22 330.61,-35.21 321.73,-29.42 320.06,-36.22"/>
</g>
<!-- Node7 -->
<g id="node7" class="node">
<title>Node7</title>
<g id="a_node7"><a xlink:href="class_check__instruction__state.html#ae13ba3789ab274a7dddf19be0a413b55" target="_top" xlink:title="Entrada del estado, resuelve las instrucciones a realizar en cada paso: &#45;WELCOME_STEP: Primer paso,...">
<polygon fill="white" stroke="#666666" points="122,-61.5 0,-61.5 0,-31.5 122,-31.5 122,-61.5"/>
<text text-anchor="start" x="8" y="-49.5" font-family="Helvetica,sans-Serif" font-size="10.00">Check_instruction_state</text>
<text text-anchor="middle" x="61" y="-38.5" font-family="Helvetica,sans-Serif" font-size="10.00">::enter</text>
</a>
</g>
</g>
<!-- Node6&#45;&gt;Node7 -->
<g id="edge6" class="edge">
<title>Node6&#45;&gt;Node7</title>
<path fill="none" stroke="#63b8ff" d="M146.29,-46.5C138.22,-46.5 130.11,-46.5 122.27,-46.5"/>
<polygon fill="#63b8ff" stroke="#63b8ff" points="146.13,-50 156.13,-46.5 146.13,-43 146.13,-50"/>
</g>
</g>
</svg>
        <g id="navigator" transform="translate(0 0)" fill="#404254">
                <rect fill="#f2f5e9" fill-opacity="0.5" stroke="#606060" stroke-width=".5" x="0" y="0" width="60" height="60"/>
                <use id="zoomplus" xlink:href="#zoomPlus" x="17" y="9" onmousedown="handleZoom(evt,'in')"/>
                <use id="zoomminus" xlink:href="#zoomMin" x="42" y="9" onmousedown="handleZoom(evt,'out')"/>
                <use id="reset" xlink:href="#resetDef" x="30" y="36" onmousedown="handleReset()"/>
                <g id="arrowUp" xlink:href="#dirArrow" transform="translate(30 24)" onmousedown="handlePan(0,-1)">
                  <use xlink:href="#rim" fill="#404040">
                        <set attributeName="fill" to="#808080" begin="arrowUp.mouseover" end="arrowUp.mouseout"/>
                  </use>
                  <path fill="none" stroke="white" stroke-width="1.5" d="M0,-3.0v7 M-2.5,-0.5L0,-3.0L2.5,-0.5"/>
                </g>
                <g id="arrowRight" xlink:href="#dirArrow" transform="rotate(90) translate(36 -43)" onmousedown="handlePan(1,0)">
                  <use xlink:href="#rim" fill="#404040">
                        <set attributeName="fill" to="#808080" begin="arrowRight.mouseover" end="arrowRight.mouseout"/>
                  </use>
                  <path fill="none" stroke="white" stroke-width="1.5" d="M0,-3.0v7 M-2.5,-0.5L0,-3.0L2.5,-0.5"/>
                </g>
                <g id="arrowDown" xlink:href="#dirArrow" transform="rotate(180) translate(-30 -48)" onmousedown="handlePan(0,1)">
                  <use xlink:href="#rim" fill="#404040">
                        <set attributeName="fill" to="#808080" begin="arrowDown.mouseover" end="arrowDown.mouseout"/>
                  </use>
                  <path fill="none" stroke="white" stroke-width="1.5" d="M0,-3.0v7 M-2.5,-0.5L0,-3.0L2.5,-0.5"/>
                </g>
                <g id="arrowLeft" xlink:href="#dirArrow" transform="rotate(270) translate(-36 17)" onmousedown="handlePan(-1,0)">
                  <use xlink:href="#rim" fill="#404040">
                        <set attributeName="fill" to="#808080" begin="arrowLeft.mouseover" end="arrowLeft.mouseout"/>
                  </use>
                  <path fill="none" stroke="white" stroke-width="1.5" d="M0,-3.0v7 M-2.5,-0.5L0,-3.0L2.5,-0.5"/>
                </g>
        </g>
        <svg viewBox="0 0 15 15" width="100%" height="30px" preserveAspectRatio="xMaxYMin meet">
         <g id="arrow_out" transform="scale(0.3 0.3)">
          <a xlink:href="class_buzzer_a5809a2b7b52e74f509c31214257f3af0_icgraph_org.svg" target="_base">
           <rect id="button" ry="5" rx="5" y="6" x="6" height="38" width="38"
                fill="#f2f5e9" fill-opacity="0.5" stroke="#606060" stroke-width="1.0"/>
           <path id="arrow"
             d="M 11.500037,31.436501 C 11.940474,20.09759 22.043105,11.32322 32.158766,21.979434 L 37.068811,17.246167 C 37.068811,17.246167 37.088388,32 37.088388,32 L 22.160133,31.978069 C 22.160133,31.978069 26.997745,27.140456 26.997745,27.140456 C 18.528582,18.264221 13.291696,25.230495 11.500037,31.436501 z"
             style="fill:#404040;"/>
          </a>
         </g>
        </svg>
</svg>
