<?xml version="1.0" encoding="UTF-8" standalone="no"?>
<!DOCTYPE svg PUBLIC "-//W3C//DTD SVG 1.1//EN"
 "http://www.w3.org/Graphics/SVG/1.1/DTD/svg11.dtd">
<!-- Generated by graphviz version 7.0.2 (20221119.0110)
 -->
<!-- Title: Control_system::notify_observers Pages: 1 -->
<svg width="430pt" height="76pt"
 viewBox="0.00 0.00 430.00 75.50" xmlns="http://www.w3.org/2000/svg" xmlns:xlink="http://www.w3.org/1999/xlink">
<g id="graph0" class="graph" transform="scale(1 1) rotate(0) translate(4 71.5)">
<title>Control_system::notify_observers</title>
<!-- Node1 -->
<g id="node1" class="node">
<title>Node1</title>
<g id="a_node1"><a xlink:title="Itera sobre todos los observadores, llamando a su método de actualización.">
<polygon fill="#999999" stroke="#666666" points="114,-45.5 0,-45.5 0,-15.5 114,-15.5 114,-45.5"/>
<text text-anchor="start" x="8" y="-33.5" font-family="Helvetica,sans-Serif" font-size="10.00">Control_system::notify</text>
<text text-anchor="middle" x="57" y="-22.5" font-family="Helvetica,sans-Serif" font-size="10.00">_observers</text>
</a>
</g>
</g>
<!-- Node2 -->
<g id="node2" class="node">
<title>Node2</title>
<g id="a_node2"><a xlink:href="class_control__system.html#a251677ee7c18269d85579da7a000ceab" target="_top" xlink:title="Fija el valor del flag de muestro de sensores.">
<polygon fill="white" stroke="#666666" points="262,-67.5 158,-67.5 158,-37.5 262,-37.5 262,-67.5"/>
<text text-anchor="start" x="166" y="-55.5" font-family="Helvetica,sans-Serif" font-size="10.00">Control_system::set</text>
<text text-anchor="middle" x="210" y="-44.5" font-family="Helvetica,sans-Serif" font-size="10.00">_poll_sensors_flag</text>
</a>
</g>
</g>
<!-- Node1&#45;&gt;Node2 -->
<g id="edge1" class="edge">
<title>Node1&#45;&gt;Node2</title>
<path fill="none" stroke="#63b8ff" d="M114.23,-38.69C124.7,-40.22 135.69,-41.82 146.34,-43.37"/>
<polygon fill="#63b8ff" stroke="#63b8ff" points="145.82,-46.83 156.22,-44.81 146.83,-39.9 145.82,-46.83"/>
</g>
<!-- Node3 -->
<g id="node3" class="node">
<title>Node3</title>
<g id="a_node3"><a xlink:href="class_control__system.html#a4bfd2d8427f35a8cd4e4e10573aa5604" target="_top" xlink:title="Actualización del sistema. De ser necesario realiza la transición de estados y actualiza el estado ac...">
<polygon fill="white" stroke="#666666" points="270,-19 150,-19 150,0 270,0 270,-19"/>
<text text-anchor="middle" x="210" y="-7" font-family="Helvetica,sans-Serif" font-size="10.00">Control_system::update</text>
</a>
</g>
</g>
<!-- Node1&#45;&gt;Node3 -->
<g id="edge2" class="edge">
<title>Node1&#45;&gt;Node3</title>
<path fill="none" stroke="#63b8ff" d="M114.23,-22.68C122.09,-21.59 130.26,-20.45 138.35,-19.33"/>
<polygon fill="#63b8ff" stroke="#63b8ff" points="138.77,-22.8 148.19,-17.96 137.81,-15.87 138.77,-22.8"/>
</g>
<!-- Node4 -->
<g id="node4" class="node">
<title>Node4</title>
<g id="a_node4"><a xlink:href="class_abstract__state.html#a993232854cd166a601b6c5b4ba7befcc" target="_top" xlink:title="Método para actualizar el estado.">
<polygon fill="white" stroke="#666666" points="422,-19 306,-19 306,0 422,0 422,-19"/>
<text text-anchor="middle" x="364" y="-7" font-family="Helvetica,sans-Serif" font-size="10.00">Abstract_state::update</text>
</a>
</g>
</g>
<!-- Node3&#45;&gt;Node4 -->
<g id="edge3" class="edge">
<title>Node3&#45;&gt;Node4</title>
<path fill="none" stroke="#63b8ff" d="M270.2,-9.5C278.13,-9.5 286.32,-9.5 294.4,-9.5"/>
<polygon fill="#63b8ff" stroke="#63b8ff" points="294.19,-13 304.19,-9.5 294.19,-6 294.19,-13"/>
</g>
</g>
</svg>
