<?xml version="1.0" encoding="UTF-8" standalone="no"?>
<!DOCTYPE svg PUBLIC "-//W3C//DTD SVG 1.1//EN"
 "http://www.w3.org/Graphics/SVG/1.1/DTD/svg11.dtd">
<!-- Generated by graphviz version 7.0.2 (20221119.0110)
 -->
<!-- Title: Shutdown_state::enter Pages: 1 -->
<svg width="256pt" height="138pt"
 viewBox="0.00 0.00 256.00 138.00" xmlns="http://www.w3.org/2000/svg" xmlns:xlink="http://www.w3.org/1999/xlink">
<g id="graph0" class="graph" transform="scale(1 1) rotate(0) translate(4 134)">
<title>Shutdown_state::enter</title>
<!-- Node1 -->
<g id="node1" class="node">
<title>Node1</title>
<g id="a_node1"><a xlink:title="Entrada al estado, apaga los LEDS, la pantalla y apaga el motor.">
<polygon fill="#999999" stroke="#666666" points="114,-74 0,-74 0,-55 114,-55 114,-74"/>
<text text-anchor="middle" x="57" y="-62" font-family="Helvetica,sans-Serif" font-size="10.00">Shutdown_state::enter</text>
</a>
</g>
</g>
<!-- Node2 -->
<g id="node2" class="node">
<title>Node2</title>
<g id="a_node2"><a xlink:href="class_motor.html#a20180eb7ef0d0bce876ee0ab220451f0" target="_top" xlink:title="Devuelve el estado del motor.">
<polygon fill="white" stroke="#666666" points="241.5,-130 156.5,-130 156.5,-111 241.5,-111 241.5,-130"/>
<text text-anchor="middle" x="199" y="-118" font-family="Helvetica,sans-Serif" font-size="10.00">Motor::is_active</text>
</a>
</g>
</g>
<!-- Node1&#45;&gt;Node2 -->
<g id="edge1" class="edge">
<title>Node1&#45;&gt;Node2</title>
<path fill="none" stroke="#63b8ff" d="M81.36,-74.4C99.9,-82.19 126.53,-93.25 150,-102.5 153.4,-103.84 156.93,-105.21 160.48,-106.57"/>
<polygon fill="#63b8ff" stroke="#63b8ff" points="159.02,-109.76 169.61,-110.03 161.5,-103.21 159.02,-109.76"/>
</g>
<!-- Node3 -->
<g id="node3" class="node">
<title>Node3</title>
<g id="a_node3"><a xlink:href="class_display.html#a140c7f61de37b0b01e29d36005dc0048" target="_top" xlink:title="limpia los caracteres de la pantalla y apaga la retroiluminación, no inhibe la escritura en pantalla.">
<polygon fill="white" stroke="#666666" points="242,-93 156,-93 156,-74 242,-74 242,-93"/>
<text text-anchor="middle" x="199" y="-81" font-family="Helvetica,sans-Serif" font-size="10.00">Display::turn_off</text>
</a>
</g>
</g>
<!-- Node1&#45;&gt;Node3 -->
<g id="edge2" class="edge">
<title>Node1&#45;&gt;Node3</title>
<path fill="none" stroke="#63b8ff" d="M114.14,-72.12C124.09,-73.47 134.43,-74.87 144.31,-76.21"/>
<polygon fill="#63b8ff" stroke="#63b8ff" points="143.77,-79.67 154.15,-77.55 144.71,-72.74 143.77,-79.67"/>
</g>
<!-- Node4 -->
<g id="node4" class="node">
<title>Node4</title>
<g id="a_node4"><a xlink:href="class_dual___l_e_d.html#a4226b64f8b1c00f3e4c649a8be2e64c9" target="_top" xlink:title="Apaga el LED.">
<polygon fill="white" stroke="#666666" points="248,-56 150,-56 150,-37 248,-37 248,-56"/>
<text text-anchor="middle" x="199" y="-44" font-family="Helvetica,sans-Serif" font-size="10.00">Dual_LED::turn_off</text>
</a>
</g>
</g>
<!-- Node1&#45;&gt;Node4 -->
<g id="edge3" class="edge">
<title>Node1&#45;&gt;Node4</title>
<path fill="none" stroke="#63b8ff" d="M114.14,-57.28C122.1,-56.26 130.31,-55.2 138.34,-54.17"/>
<polygon fill="#63b8ff" stroke="#63b8ff" points="138.54,-57.67 148.02,-52.93 137.65,-50.73 138.54,-57.67"/>
</g>
<!-- Node5 -->
<g id="node5" class="node">
<title>Node5</title>
<g id="a_node5"><a xlink:href="class_motor.html#a9a1613b24a5dd07a8c515e82d8e0edeb" target="_top" xlink:title="Apaga el motor.">
<polygon fill="white" stroke="#666666" points="238.5,-19 159.5,-19 159.5,0 238.5,0 238.5,-19"/>
<text text-anchor="middle" x="199" y="-7" font-family="Helvetica,sans-Serif" font-size="10.00">Motor::turn_off</text>
</a>
</g>
</g>
<!-- Node1&#45;&gt;Node5 -->
<g id="edge4" class="edge">
<title>Node1&#45;&gt;Node5</title>
<path fill="none" stroke="#63b8ff" d="M83.35,-54.54C105.45,-45.86 137.75,-33.17 162.43,-23.47"/>
<polygon fill="#63b8ff" stroke="#63b8ff" points="163.4,-26.85 171.43,-19.94 160.84,-20.34 163.4,-26.85"/>
</g>
</g>
</svg>
