<?xml version="1.0" encoding="UTF-8" standalone="no"?>
<!DOCTYPE svg PUBLIC "-//W3C//DTD SVG 1.1//EN"
 "http://www.w3.org/Graphics/SVG/1.1/DTD/svg11.dtd">
<!-- Generated by graphviz version 7.0.2 (20221119.0110)
 -->
<!-- Title: Control_system::measure_temperature Pages: 1 -->
<svg width="277pt" height="76pt"
 viewBox="0.00 0.00 277.00 75.50" xmlns="http://www.w3.org/2000/svg" xmlns:xlink="http://www.w3.org/1999/xlink">
<g id="graph0" class="graph" transform="scale(1 1) rotate(0) translate(4 71.5)">
<title>Control_system::measure_temperature</title>
<!-- Node1 -->
<g id="node1" class="node">
<title>Node1</title>
<g id="a_node1"><a xlink:title="Obtiene la temperatura del objeto temp_sensor.">
<polygon fill="#999999" stroke="#666666" points="128,-45.5 0,-45.5 0,-15.5 128,-15.5 128,-45.5"/>
<text text-anchor="start" x="8" y="-33.5" font-family="Helvetica,sans-Serif" font-size="10.00">Control_system::measure</text>
<text text-anchor="middle" x="64" y="-22.5" font-family="Helvetica,sans-Serif" font-size="10.00">_temperature</text>
</a>
</g>
</g>
<!-- Node2 -->
<g id="node2" class="node">
<title>Node2</title>
<g id="a_node2"><a xlink:href="class_temperature__sensor.html#a43bcc39aa92d0bdb58defd6e4aefb3d5" target="_top" xlink:title="Obtiene la Temperatura de todos los sensores como un promedio simple (Celsius).">
<polygon fill="white" stroke="#666666" points="269,-67.5 164,-67.5 164,-37.5 269,-37.5 269,-67.5"/>
<text text-anchor="start" x="172" y="-55.5" font-family="Helvetica,sans-Serif" font-size="10.00">Temperature_sensor</text>
<text text-anchor="middle" x="216.5" y="-44.5" font-family="Helvetica,sans-Serif" font-size="10.00">::get_reading</text>
</a>
</g>
</g>
<!-- Node1&#45;&gt;Node2 -->
<g id="edge1" class="edge">
<title>Node1&#45;&gt;Node2</title>
<path fill="none" stroke="#63b8ff" d="M128.39,-39.77C136.27,-40.92 144.33,-42.1 152.21,-43.25"/>
<polygon fill="#63b8ff" stroke="#63b8ff" points="151.68,-46.71 162.08,-44.69 152.69,-39.78 151.68,-46.71"/>
</g>
<!-- Node3 -->
<g id="node3" class="node">
<title>Node3</title>
<g id="a_node3"><a xlink:href="class_display.html#abe8e63e4def12a48cde5679ce008f402" target="_top" xlink:title="Fija el valor de temperatura a actualizar (no la imprime en pantalla), la ubicación se da con las con...">
<polygon fill="white" stroke="#666666" points="264,-19 169,-19 169,0 264,0 264,-19"/>
<text text-anchor="middle" x="216.5" y="-7" font-family="Helvetica,sans-Serif" font-size="10.00">Display::set_temp</text>
</a>
</g>
</g>
<!-- Node1&#45;&gt;Node3 -->
<g id="edge2" class="edge">
<title>Node1&#45;&gt;Node3</title>
<path fill="none" stroke="#63b8ff" d="M128.39,-21.65C137.98,-20.32 147.84,-18.94 157.32,-17.62"/>
<polygon fill="#63b8ff" stroke="#63b8ff" points="157.73,-21.1 167.15,-16.25 156.76,-14.16 157.73,-21.1"/>
</g>
</g>
</svg>
