<?xml version="1.0" encoding="UTF-8" standalone="no"?>
<!DOCTYPE svg PUBLIC "-//W3C//DTD SVG 1.1//EN"
 "http://www.w3.org/Graphics/SVG/1.1/DTD/svg11.dtd">
<!-- Generated by graphviz version 7.0.2 (20221119.0110)
 -->
<!-- Title: hd44780_I2Cexp::home Pages: 1 -->
<svg width="717pt" height="162pt"
 viewBox="0.00 0.00 717.00 161.50" xmlns="http://www.w3.org/2000/svg" xmlns:xlink="http://www.w3.org/1999/xlink">
<g id="graph0" class="graph" transform="scale(1 1) rotate(0) translate(4 157.5)">
<title>hd44780_I2Cexp::home</title>
<!-- Node1 -->
<g id="node1" class="node">
<title>Node1</title>
<g id="a_node1"><a xlink:title="Lleva el cursor al origen de coordenadas.">
<polygon fill="#999999" stroke="#666666" points="709,-101 590,-101 590,-82 709,-82 709,-101"/>
<text text-anchor="middle" x="649.5" y="-89" font-family="Helvetica,sans-Serif" font-size="10.00">hd44780_I2Cexp::home</text>
</a>
</g>
</g>
<!-- Node2 -->
<g id="node2" class="node">
<title>Node2</title>
<g id="a_node2"><a xlink:href="class_display.html#aacbf91b9f8c57fc2cb892c45fd44e655" target="_top" xlink:title="Método para inicializar el objeto, sólo se puede luego o en setup().">
<polygon fill="white" stroke="#666666" points="546,-134 478,-134 478,-115 546,-115 546,-134"/>
<text text-anchor="middle" x="512" y="-122" font-family="Helvetica,sans-Serif" font-size="10.00">Display::init</text>
</a>
</g>
</g>
<!-- Node1&#45;&gt;Node2 -->
<g id="edge1" class="edge">
<title>Node1&#45;&gt;Node2</title>
<path fill="none" stroke="#63b8ff" d="M596.6,-104.14C579.67,-108.26 561.33,-112.73 546.16,-116.42"/>
<polygon fill="#63b8ff" stroke="#63b8ff" points="597.12,-107.62 606.01,-101.85 595.46,-100.81 597.12,-107.62"/>
</g>
<!-- Node6 -->
<g id="node6" class="node">
<title>Node6</title>
<g id="a_node6"><a xlink:href="class_display.html#ad2740b779d61e461c4dcaaf34f1fcd8f" target="_top" xlink:title="Actualiza los valores en pantalla con los parámetros previamente fijados. Solo actualiza la pantalla ...">
<polygon fill="white" stroke="#666666" points="554,-83 470,-83 470,-64 554,-64 554,-83"/>
<text text-anchor="middle" x="512" y="-71" font-family="Helvetica,sans-Serif" font-size="10.00">Display::update</text>
</a>
</g>
</g>
<!-- Node1&#45;&gt;Node6 -->
<g id="edge5" class="edge">
<title>Node1&#45;&gt;Node6</title>
<path fill="none" stroke="#63b8ff" d="M578.52,-82.2C570.2,-81.1 561.92,-80 554.19,-78.97"/>
<polygon fill="#63b8ff" stroke="#63b8ff" points="577.98,-85.66 588.36,-83.51 578.9,-78.72 577.98,-85.66"/>
</g>
<!-- Node3 -->
<g id="node3" class="node">
<title>Node3</title>
<g id="a_node3"><a xlink:href="class_control__system.html#aad36c88c9e5589336213848de7837091" target="_top" xlink:title="Inicializa el display lcd del sistema.">
<polygon fill="white" stroke="#666666" points="425,-153.5 321,-153.5 321,-123.5 425,-123.5 425,-153.5"/>
<text text-anchor="start" x="329" y="-141.5" font-family="Helvetica,sans-Serif" font-size="10.00">Control_system::init</text>
<text text-anchor="middle" x="373" y="-130.5" font-family="Helvetica,sans-Serif" font-size="10.00">_display</text>
</a>
</g>
</g>
<!-- Node2&#45;&gt;Node3 -->
<g id="edge2" class="edge">
<title>Node2&#45;&gt;Node3</title>
<path fill="none" stroke="#63b8ff" d="M466.65,-129.03C453.46,-130.38 438.9,-131.87 425.3,-133.26"/>
<polygon fill="#63b8ff" stroke="#63b8ff" points="466.74,-132.54 476.33,-128.04 466.03,-125.58 466.74,-132.54"/>
</g>
<!-- Node4 -->
<g id="node4" class="node">
<title>Node4</title>
<g id="a_node4"><a xlink:href="class_shutdown__state.html#accbc4c856709e26453e2e23c5c1e4f8e" target="_top" xlink:title="Salida del estado, resetea las variables del sistema e incializa la pantalla.">
<polygon fill="white" stroke="#666666" points="276,-148 168,-148 168,-129 276,-129 276,-148"/>
<text text-anchor="middle" x="222" y="-136" font-family="Helvetica,sans-Serif" font-size="10.00">Shutdown_state::exit</text>
</a>
</g>
</g>
<!-- Node3&#45;&gt;Node4 -->
<g id="edge3" class="edge">
<title>Node3&#45;&gt;Node4</title>
<path fill="none" stroke="#63b8ff" d="M309.44,-138.5C298.45,-138.5 287.11,-138.5 276.4,-138.5"/>
<polygon fill="#63b8ff" stroke="#63b8ff" points="309.21,-142 319.21,-138.5 309.21,-135 309.21,-142"/>
</g>
<!-- Node5 -->
<g id="node5" class="node">
<title>Node5</title>
<g id="a_node5"><a xlink:href="class_shutdown__state.html#ae02b2fd80173aa50afcd73faba01b9be" target="_top" xlink:title="Transicion de estados.">
<polygon fill="white" stroke="#666666" points="132,-148 0,-148 0,-129 132,-129 132,-148"/>
<text text-anchor="middle" x="66" y="-136" font-family="Helvetica,sans-Serif" font-size="10.00">Shutdown_state::transition</text>
</a>
</g>
</g>
<!-- Node4&#45;&gt;Node5 -->
<g id="edge4" class="edge">
<title>Node4&#45;&gt;Node5</title>
<path fill="none" stroke="#63b8ff" d="M156.16,-138.5C148.26,-138.5 140.19,-138.5 132.28,-138.5"/>
<polygon fill="#63b8ff" stroke="#63b8ff" points="156.06,-142 166.06,-138.5 156.06,-135 156.06,-142"/>
</g>
<!-- Node7 -->
<g id="node7" class="node">
<title>Node7</title>
<g id="a_node7"><a xlink:href="class_alarm__state.html#acea6eee2b8d267b67192bbce9e495038" target="_top" xlink:title="Actualización, cambia el color del LED según el estado del motor y hace sonar la alarma....">
<polygon fill="white" stroke="#666666" points="425,-105 321,-105 321,-86 425,-86 425,-105"/>
<text text-anchor="middle" x="373" y="-93" font-family="Helvetica,sans-Serif" font-size="10.00">Alarm_state::update</text>
</a>
</g>
</g>
<!-- Node6&#45;&gt;Node7 -->
<g id="edge6" class="edge">
<title>Node6&#45;&gt;Node7</title>
<path fill="none" stroke="#63b8ff" d="M458.37,-81.95C447.43,-83.71 435.91,-85.56 425.02,-87.31"/>
<polygon fill="#63b8ff" stroke="#63b8ff" points="458.71,-85.44 468.03,-80.4 457.6,-78.53 458.71,-85.44"/>
</g>
<!-- Node8 -->
<g id="node8" class="node">
<title>Node8</title>
<g id="a_node8"><a xlink:href="class_check__instruction__state.html#a161d1ccae3db7c6ac372b56877dc05f2" target="_top" xlink:title="Método para actualizar el estado.">
<polygon fill="white" stroke="#666666" points="434,-67.5 312,-67.5 312,-37.5 434,-37.5 434,-67.5"/>
<text text-anchor="start" x="320" y="-55.5" font-family="Helvetica,sans-Serif" font-size="10.00">Check_instruction_state</text>
<text text-anchor="middle" x="373" y="-44.5" font-family="Helvetica,sans-Serif" font-size="10.00">::update</text>
</a>
</g>
</g>
<!-- Node6&#45;&gt;Node8 -->
<g id="edge7" class="edge">
<title>Node6&#45;&gt;Node8</title>
<path fill="none" stroke="#63b8ff" d="M458.28,-65.42C450.43,-64.22 442.28,-62.97 434.29,-61.74"/>
<polygon fill="#63b8ff" stroke="#63b8ff" points="457.61,-68.86 468.03,-66.91 458.67,-61.94 457.61,-68.86"/>
</g>
<!-- Node9 -->
<g id="node9" class="node">
<title>Node9</title>
<g id="a_node9"><a xlink:href="class_idle__state.html#a92217c98eda8e3bd47eb3a8ff602efc2" target="_top" xlink:title="Método para actualizar el sistema cuando está en estado de reposo. Actualiza la pantalla y los observ...">
<polygon fill="white" stroke="#666666" points="420,-19 326,-19 326,0 420,0 420,-19"/>
<text text-anchor="middle" x="373" y="-7" font-family="Helvetica,sans-Serif" font-size="10.00">Idle_state::update</text>
</a>
</g>
</g>
<!-- Node6&#45;&gt;Node9 -->
<g id="edge8" class="edge">
<title>Node6&#45;&gt;Node9</title>
<path fill="none" stroke="#63b8ff" d="M486.77,-57.46C471.97,-48.14 452.4,-36.67 434,-28.5 426.41,-25.13 418.04,-22.09 410.02,-19.47"/>
<polygon fill="#63b8ff" stroke="#63b8ff" points="484.61,-60.23 494.92,-62.69 488.39,-54.34 484.61,-60.23"/>
</g>
</g>
</svg>
