<?xml version="1.0" encoding="UTF-8" standalone="no"?>
<!DOCTYPE svg PUBLIC "-//W3C//DTD SVG 1.1//EN"
 "http://www.w3.org/Graphics/SVG/1.1/DTD/svg11.dtd">
<!-- Generated by graphviz version 7.0.2 (20221119.0110)
 -->
<!-- Title: Moisture_sensor::get_reading Pages: 1 -->
<svg width="417pt" height="38pt"
 viewBox="0.00 0.00 417.00 38.00" xmlns="http://www.w3.org/2000/svg" xmlns:xlink="http://www.w3.org/1999/xlink">
<g id="graph0" class="graph" transform="scale(1 1) rotate(0) translate(4 34)">
<title>Moisture_sensor::get_reading</title>
<!-- Node1 -->
<g id="node1" class="node">
<title>Node1</title>
<g id="a_node1"><a xlink:title="Devuelve la lectura realizada.">
<polygon fill="#999999" stroke="#666666" points="409,-30 301,-30 301,0 409,0 409,-30"/>
<text text-anchor="start" x="309" y="-18" font-family="Helvetica,sans-Serif" font-size="10.00">Moisture_sensor::get</text>
<text text-anchor="middle" x="355" y="-7" font-family="Helvetica,sans-Serif" font-size="10.00">_reading</text>
</a>
</g>
</g>
<!-- Node2 -->
<g id="node2" class="node">
<title>Node2</title>
<g id="a_node2"><a xlink:href="class_control__system.html#ac57cf749db659ed80fa4a37b1f27c284" target="_top" xlink:title="Obtiene la humedad del objeto mois_sensor.">
<polygon fill="white" stroke="#666666" points="265,-30 137,-30 137,0 265,0 265,-30"/>
<text text-anchor="start" x="145" y="-18" font-family="Helvetica,sans-Serif" font-size="10.00">Control_system::measure</text>
<text text-anchor="middle" x="201" y="-7" font-family="Helvetica,sans-Serif" font-size="10.00">_moisture</text>
</a>
</g>
</g>
<!-- Node1&#45;&gt;Node2 -->
<g id="edge1" class="edge">
<title>Node1&#45;&gt;Node2</title>
<path fill="none" stroke="#63b8ff" d="M289.34,-15C281.38,-15 273.25,-15 265.31,-15"/>
<polygon fill="#63b8ff" stroke="#63b8ff" points="289.32,-18.5 299.32,-15 289.32,-11.5 289.32,-18.5"/>
</g>
<!-- Node3 -->
<g id="node3" class="node">
<title>Node3</title>
<g id="a_node3"><a xlink:href="class_moisture__observer.html#a84cf4888942ad6ce66a9baaf337d9994" target="_top" xlink:title="Actualización del observador, mide la humedad y, si excede el umbral MOISTURE_ALARM_THRESHOLD,...">
<polygon fill="white" stroke="#666666" points="101,-30 0,-30 0,0 101,0 101,-30"/>
<text text-anchor="start" x="8" y="-18" font-family="Helvetica,sans-Serif" font-size="10.00">Moisture_observer::</text>
<text text-anchor="middle" x="50.5" y="-7" font-family="Helvetica,sans-Serif" font-size="10.00">update</text>
</a>
</g>
</g>
<!-- Node2&#45;&gt;Node3 -->
<g id="edge2" class="edge">
<title>Node2&#45;&gt;Node3</title>
<path fill="none" stroke="#63b8ff" d="M125.15,-15C117.04,-15 108.94,-15 101.23,-15"/>
<polygon fill="#63b8ff" stroke="#63b8ff" points="125.08,-18.5 135.08,-15 125.08,-11.5 125.08,-18.5"/>
</g>
</g>
</svg>
