<?xml version="1.0" encoding="UTF-8" standalone="no"?>
<!DOCTYPE svg PUBLIC "-//W3C//DTD SVG 1.1//EN"
 "http://www.w3.org/Graphics/SVG/1.1/DTD/svg11.dtd">
<!-- Generated by graphviz version 7.0.2 (20221119.0110)
 -->
<!-- Title: Control_system::notify_observers Pages: 1 -->
<svg width="607pt" height="97pt"
 viewBox="0.00 0.00 607.00 96.50" xmlns="http://www.w3.org/2000/svg" xmlns:xlink="http://www.w3.org/1999/xlink">
<g id="graph0" class="graph" transform="scale(1 1) rotate(0) translate(4 92.5)">
<title>Control_system::notify_observers</title>
<!-- Node1 -->
<g id="node1" class="node">
<title>Node1</title>
<g id="a_node1"><a xlink:title="Itera sobre todos los observadores, llamando a su método de actualización.">
<polygon fill="#999999" stroke="#666666" points="114,-66.5 0,-66.5 0,-36.5 114,-36.5 114,-66.5"/>
<text text-anchor="start" x="8" y="-54.5" font-family="Helvetica,sans-Serif" font-size="10.00">Control_system::notify</text>
<text text-anchor="middle" x="57" y="-43.5" font-family="Helvetica,sans-Serif" font-size="10.00">_observers</text>
</a>
</g>
</g>
<!-- Node2 -->
<g id="node2" class="node">
<title>Node2</title>
<g id="a_node2"><a xlink:href="class_control__system.html#a251677ee7c18269d85579da7a000ceab" target="_top" xlink:title="Fija el valor del flag de muestro de sensores.">
<polygon fill="white" stroke="#666666" points="262,-88.5 158,-88.5 158,-58.5 262,-58.5 262,-88.5"/>
<text text-anchor="start" x="166" y="-76.5" font-family="Helvetica,sans-Serif" font-size="10.00">Control_system::set</text>
<text text-anchor="middle" x="210" y="-65.5" font-family="Helvetica,sans-Serif" font-size="10.00">_poll_sensors_flag</text>
</a>
</g>
</g>
<!-- Node1&#45;&gt;Node2 -->
<g id="edge1" class="edge">
<title>Node1&#45;&gt;Node2</title>
<path fill="none" stroke="#63b8ff" d="M114.23,-59.69C124.7,-61.22 135.69,-62.82 146.34,-64.37"/>
<polygon fill="#63b8ff" stroke="#63b8ff" points="145.82,-67.83 156.22,-65.81 146.83,-60.9 145.82,-67.83"/>
</g>
<!-- Node3 -->
<g id="node3" class="node">
<title>Node3</title>
<g id="a_node3"><a xlink:href="class_control__system.html#a4bfd2d8427f35a8cd4e4e10573aa5604" target="_top" xlink:title="Realiza la transición de estados y actualiza el estado.">
<polygon fill="white" stroke="#666666" points="270,-40 150,-40 150,-21 270,-21 270,-40"/>
<text text-anchor="middle" x="210" y="-28" font-family="Helvetica,sans-Serif" font-size="10.00">Control_system::update</text>
</a>
</g>
</g>
<!-- Node1&#45;&gt;Node3 -->
<g id="edge2" class="edge">
<title>Node1&#45;&gt;Node3</title>
<path fill="none" stroke="#63b8ff" d="M114.23,-43.68C122.09,-42.59 130.26,-41.45 138.35,-40.33"/>
<polygon fill="#63b8ff" stroke="#63b8ff" points="138.77,-43.8 148.19,-38.96 137.81,-36.87 138.77,-43.8"/>
</g>
<!-- Node4 -->
<g id="node4" class="node">
<title>Node4</title>
<g id="a_node4"><a xlink:href="class_control__system.html#ab3a3e36bda029f2a5d0c4ffdf8ff984c" target="_top" xlink:title="Realiza la transición de estados en caso de ser necesario.">
<polygon fill="white" stroke="#666666" points="437,-67.5 306,-67.5 306,-37.5 437,-37.5 437,-67.5"/>
<text text-anchor="start" x="314" y="-55.5" font-family="Helvetica,sans-Serif" font-size="10.00">Control_system::transition</text>
<text text-anchor="middle" x="371.5" y="-44.5" font-family="Helvetica,sans-Serif" font-size="10.00">_state</text>
</a>
</g>
</g>
<!-- Node3&#45;&gt;Node4 -->
<g id="edge3" class="edge">
<title>Node3&#45;&gt;Node4</title>
<path fill="none" stroke="#63b8ff" d="M270.39,-38.69C278.22,-39.77 286.32,-40.89 294.38,-42"/>
<polygon fill="#63b8ff" stroke="#63b8ff" points="293.82,-45.46 304.2,-43.36 294.78,-38.52 293.82,-45.46"/>
</g>
<!-- Node7 -->
<g id="node7" class="node">
<title>Node7</title>
<g id="a_node7"><a xlink:href="class_abstract__state.html#a993232854cd166a601b6c5b4ba7befcc" target="_top" xlink:title="Método para actualizar el estado.">
<polygon fill="white" stroke="#666666" points="429.5,-19 313.5,-19 313.5,0 429.5,0 429.5,-19"/>
<text text-anchor="middle" x="371.5" y="-7" font-family="Helvetica,sans-Serif" font-size="10.00">Abstract_state::update</text>
</a>
</g>
</g>
<!-- Node3&#45;&gt;Node7 -->
<g id="edge6" class="edge">
<title>Node3&#45;&gt;Node7</title>
<path fill="none" stroke="#63b8ff" d="M270.39,-22.68C280.67,-21.33 291.43,-19.91 301.93,-18.53"/>
<polygon fill="#63b8ff" stroke="#63b8ff" points="302.22,-22.02 311.68,-17.24 301.31,-15.08 302.22,-22.02"/>
</g>
<!-- Node5 -->
<g id="node5" class="node">
<title>Node5</title>
<g id="a_node5"><a xlink:href="class_abstract__state.html#a1c001b0cb46c11126cb9ff77f8ad3016" target="_top" xlink:title="Método que se llama al ingresar al estado.">
<polygon fill="white" stroke="#666666" points="590,-80 482,-80 482,-61 590,-61 590,-80"/>
<text text-anchor="middle" x="536" y="-68" font-family="Helvetica,sans-Serif" font-size="10.00">Abstract_state::enter</text>
</a>
</g>
</g>
<!-- Node4&#45;&gt;Node5 -->
<g id="edge4" class="edge">
<title>Node4&#45;&gt;Node5</title>
<path fill="none" stroke="#63b8ff" d="M437.19,-59.67C448.16,-60.88 459.55,-62.14 470.52,-63.36"/>
<polygon fill="#63b8ff" stroke="#63b8ff" points="469.92,-66.81 480.25,-64.44 470.7,-59.86 469.92,-66.81"/>
</g>
<!-- Node6 -->
<g id="node6" class="node">
<title>Node6</title>
<g id="a_node6"><a xlink:href="class_abstract__state.html#a130d61765e2fcdf3bb0500943221efbe" target="_top" xlink:title="Método para cambiar de estado.">
<polygon fill="white" stroke="#666666" points="599,-43 473,-43 473,-24 599,-24 599,-43"/>
<text text-anchor="middle" x="536" y="-31" font-family="Helvetica,sans-Serif" font-size="10.00">Abstract_state::transition</text>
</a>
</g>
</g>
<!-- Node4&#45;&gt;Node6 -->
<g id="edge5" class="edge">
<title>Node4&#45;&gt;Node6</title>
<path fill="none" stroke="#63b8ff" d="M437.19,-44.94C445.13,-44.01 453.29,-43.05 461.35,-42.11"/>
<polygon fill="#63b8ff" stroke="#63b8ff" points="461.62,-45.6 471.15,-40.97 460.81,-38.65 461.62,-45.6"/>
</g>
</g>
</svg>
