<?xml version="1.0" encoding="UTF-8" standalone="no"?>
<!DOCTYPE svg PUBLIC "-//W3C//DTD SVG 1.1//EN"
 "http://www.w3.org/Graphics/SVG/1.1/DTD/svg11.dtd">
<!-- Generated by graphviz version 7.0.2 (20221119.0110)
 -->
<!-- Title: Dual_LED::set_color Pages: 1 -->
<svg width="563pt" height="150pt"
 viewBox="0.00 0.00 563.00 149.50" xmlns="http://www.w3.org/2000/svg" xmlns:xlink="http://www.w3.org/1999/xlink">
<g id="graph0" class="graph" transform="scale(1 1) rotate(0) translate(4 145.5)">
<title>Dual_LED::set_color</title>
<!-- Node1 -->
<g id="node1" class="node">
<title>Node1</title>
<g id="a_node1"><a xlink:title="Fija el color del led, no enciende el led,.">
<polygon fill="#999999" stroke="#666666" points="555,-56 449,-56 449,-37 555,-37 555,-56"/>
<text text-anchor="middle" x="502" y="-44" font-family="Helvetica,sans-Serif" font-size="10.00">Dual_LED::set_color</text>
</a>
</g>
</g>
<!-- Node2 -->
<g id="node2" class="node">
<title>Node2</title>
<g id="a_node2"><a xlink:href="class_dual___l_e_d.html#ab1cd238e00901ca9556914a38d3a064c" target="_top" xlink:title="Enciende el LED en verde.">
<polygon fill="white" stroke="#666666" points="411.5,-93 299.5,-93 299.5,-74 411.5,-74 411.5,-93"/>
<text text-anchor="middle" x="355.5" y="-81" font-family="Helvetica,sans-Serif" font-size="10.00">Dual_LED::turn_green</text>
</a>
</g>
</g>
<!-- Node1&#45;&gt;Node2 -->
<g id="edge1" class="edge">
<title>Node1&#45;&gt;Node2</title>
<path fill="none" stroke="#63b8ff" d="M451.21,-59.25C432.93,-63.93 412.51,-69.16 395.33,-73.56"/>
<polygon fill="#63b8ff" stroke="#63b8ff" points="451.99,-62.66 460.81,-56.79 450.25,-55.88 451.99,-62.66"/>
</g>
<!-- Node6 -->
<g id="node6" class="node">
<title>Node6</title>
<g id="a_node6"><a xlink:href="class_dual___l_e_d.html#a8734a816df04661d86e3ccbf88159eb0" target="_top" xlink:title="Enciende el LED en rojo.">
<polygon fill="white" stroke="#666666" points="406,-56 305,-56 305,-37 406,-37 406,-56"/>
<text text-anchor="middle" x="355.5" y="-44" font-family="Helvetica,sans-Serif" font-size="10.00">Dual_LED::turn_red</text>
</a>
</g>
</g>
<!-- Node1&#45;&gt;Node6 -->
<g id="edge6" class="edge">
<title>Node1&#45;&gt;Node6</title>
<path fill="none" stroke="#63b8ff" d="M437.57,-46.5C427.05,-46.5 416.29,-46.5 406.18,-46.5"/>
<polygon fill="#63b8ff" stroke="#63b8ff" points="437.32,-50 447.32,-46.5 437.32,-43 437.32,-50"/>
</g>
<!-- Node7 -->
<g id="node7" class="node">
<title>Node7</title>
<g id="a_node7"><a xlink:href="class_dual___l_e_d.html#aabc0462521bcc08ea7f6f04642f7e89d" target="_top" xlink:title="Enciende el LED en amarillo. El comportamiento es indefinido para pines no PWM.">
<polygon fill="white" stroke="#666666" points="413,-19 298,-19 298,0 413,0 413,-19"/>
<text text-anchor="middle" x="355.5" y="-7" font-family="Helvetica,sans-Serif" font-size="10.00">Dual_LED::turn_yellow</text>
</a>
</g>
</g>
<!-- Node1&#45;&gt;Node7 -->
<g id="edge8" class="edge">
<title>Node1&#45;&gt;Node7</title>
<path fill="none" stroke="#63b8ff" d="M451.21,-33.75C432.93,-29.07 412.51,-23.84 395.33,-19.44"/>
<polygon fill="#63b8ff" stroke="#63b8ff" points="450.25,-37.12 460.81,-36.21 451.99,-30.34 450.25,-37.12"/>
</g>
<!-- Node3 -->
<g id="node3" class="node">
<title>Node3</title>
<g id="a_node3"><a xlink:href="class_check__instruction__state.html#ae13ba3789ab274a7dddf19be0a413b55" target="_top" xlink:title="Método que se llama al ingresar al estado.">
<polygon fill="white" stroke="#666666" points="262,-141.5 140,-141.5 140,-111.5 262,-111.5 262,-141.5"/>
<text text-anchor="start" x="148" y="-129.5" font-family="Helvetica,sans-Serif" font-size="10.00">Check_instruction_state</text>
<text text-anchor="middle" x="201" y="-118.5" font-family="Helvetica,sans-Serif" font-size="10.00">::enter</text>
</a>
</g>
</g>
<!-- Node2&#45;&gt;Node3 -->
<g id="edge2" class="edge">
<title>Node2&#45;&gt;Node3</title>
<path fill="none" stroke="#63b8ff" d="M308.3,-96.53C292.1,-101.1 273.74,-106.27 256.89,-111.02"/>
<polygon fill="#63b8ff" stroke="#63b8ff" points="309,-99.97 317.67,-93.88 307.1,-93.23 309,-99.97"/>
</g>
<!-- Node4 -->
<g id="node4" class="node">
<title>Node4</title>
<g id="a_node4"><a xlink:href="class_control__system.html#ab4bd82b7c907b415fdc102ed1fa89c7c" target="_top" xlink:title="Según la variable context.current_alarm resuelve el comportamiento de la alarma.">
<polygon fill="white" stroke="#666666" points="260.5,-55.5 141.5,-55.5 141.5,-25.5 260.5,-25.5 260.5,-55.5"/>
<text text-anchor="start" x="149.5" y="-43.5" font-family="Helvetica,sans-Serif" font-size="10.00">Control_system::handle</text>
<text text-anchor="middle" x="201" y="-32.5" font-family="Helvetica,sans-Serif" font-size="10.00">_alarm</text>
</a>
</g>
</g>
<!-- Node2&#45;&gt;Node4 -->
<g id="edge3" class="edge">
<title>Node2&#45;&gt;Node4</title>
<path fill="none" stroke="#63b8ff" d="M308.3,-70.47C292.1,-65.9 273.74,-60.73 256.89,-55.98"/>
<polygon fill="#63b8ff" stroke="#63b8ff" points="307.1,-73.77 317.67,-73.12 309,-67.03 307.1,-73.77"/>
</g>
<!-- Node5 -->
<g id="node5" class="node">
<title>Node5</title>
<g id="a_node5"><a xlink:href="class_alarm__state.html#acea6eee2b8d267b67192bbce9e495038" target="_top" xlink:title="Actualización, cambia el color del LED según el estado del motor y hace sonar la alarma....">
<polygon fill="white" stroke="#666666" points="104,-71 0,-71 0,-52 104,-52 104,-71"/>
<text text-anchor="middle" x="52" y="-59" font-family="Helvetica,sans-Serif" font-size="10.00">Alarm_state::update</text>
</a>
</g>
</g>
<!-- Node2&#45;&gt;Node5 -->
<g id="edge5" class="edge">
<title>Node2&#45;&gt;Node5</title>
<path fill="none" stroke="#63b8ff" d="M287.75,-78.63C232.46,-74.59 155,-68.94 104.43,-65.25"/>
<polygon fill="#63b8ff" stroke="#63b8ff" points="287.46,-82.12 297.69,-79.35 287.97,-75.14 287.46,-82.12"/>
</g>
<!-- Node4&#45;&gt;Node5 -->
<g id="edge4" class="edge">
<title>Node4&#45;&gt;Node5</title>
<path fill="none" stroke="#63b8ff" d="M129.84,-50.52C121.26,-51.75 112.61,-52.98 104.37,-54.16"/>
<polygon fill="#63b8ff" stroke="#63b8ff" points="130.15,-54.01 139.56,-49.13 129.16,-47.08 130.15,-54.01"/>
</g>
<!-- Node6&#45;&gt;Node4 -->
<g id="edge7" class="edge">
<title>Node6&#45;&gt;Node4</title>
<path fill="none" stroke="#63b8ff" d="M293.18,-44.09C282.5,-43.67 271.41,-43.23 260.8,-42.81"/>
<polygon fill="#63b8ff" stroke="#63b8ff" points="292.92,-47.58 303.05,-44.48 293.2,-40.59 292.92,-47.58"/>
</g>
<!-- Node7&#45;&gt;Node4 -->
<g id="edge9" class="edge">
<title>Node7&#45;&gt;Node4</title>
<path fill="none" stroke="#63b8ff" d="M294.18,-21.76C283.21,-23.99 271.78,-26.31 260.86,-28.54"/>
<polygon fill="#63b8ff" stroke="#63b8ff" points="294.82,-25.2 303.93,-19.78 293.43,-18.34 294.82,-25.2"/>
</g>
</g>
</svg>
