<?xml version="1.0" encoding="UTF-8" standalone="no"?>
<!DOCTYPE svg PUBLIC "-//W3C//DTD SVG 1.1//EN"
 "http://www.w3.org/Graphics/SVG/1.1/DTD/svg11.dtd">
<!-- Generated by graphviz version 7.0.2 (20221119.0110)
 -->
<!-- Title: Dual_LED::turn_green Pages: 1 -->
<svg width="418pt" height="103pt"
 viewBox="0.00 0.00 418.00 102.50" xmlns="http://www.w3.org/2000/svg" xmlns:xlink="http://www.w3.org/1999/xlink">
<g id="graph0" class="graph" transform="scale(1 1) rotate(0) translate(4 98.5)">
<title>Dual_LED::turn_green</title>
<!-- Node1 -->
<g id="node1" class="node">
<title>Node1</title>
<g id="a_node1"><a xlink:title="Enciende el LED en verde.">
<polygon fill="#999999" stroke="#666666" points="410,-41 298,-41 298,-22 410,-22 410,-41"/>
<text text-anchor="middle" x="354" y="-29" font-family="Helvetica,sans-Serif" font-size="10.00">Dual_LED::turn_green</text>
</a>
</g>
</g>
<!-- Node2 -->
<g id="node2" class="node">
<title>Node2</title>
<g id="a_node2"><a xlink:href="class_check__instruction__state.html#ae13ba3789ab274a7dddf19be0a413b55" target="_top" xlink:title="Método que se llama al ingresar al estado.">
<polygon fill="white" stroke="#666666" points="262,-94.5 140,-94.5 140,-64.5 262,-64.5 262,-94.5"/>
<text text-anchor="start" x="148" y="-82.5" font-family="Helvetica,sans-Serif" font-size="10.00">Check_instruction_state</text>
<text text-anchor="middle" x="201" y="-71.5" font-family="Helvetica,sans-Serif" font-size="10.00">::enter</text>
</a>
</g>
</g>
<!-- Node1&#45;&gt;Node2 -->
<g id="edge1" class="edge">
<title>Node1&#45;&gt;Node2</title>
<path fill="none" stroke="#63b8ff" d="M310.83,-44.9C292.09,-50.86 269.92,-57.91 250.49,-64.08"/>
<polygon fill="#63b8ff" stroke="#63b8ff" points="311.8,-48.27 320.27,-41.9 309.68,-41.6 311.8,-48.27"/>
</g>
<!-- Node3 -->
<g id="node3" class="node">
<title>Node3</title>
<g id="a_node3"><a xlink:href="class_control__system.html#ab4bd82b7c907b415fdc102ed1fa89c7c" target="_top" xlink:title="Según la variable context.current_alarm resuelve el comportamiento de la alarma.">
<polygon fill="white" stroke="#666666" points="260.5,-46.5 141.5,-46.5 141.5,-16.5 260.5,-16.5 260.5,-46.5"/>
<text text-anchor="start" x="149.5" y="-34.5" font-family="Helvetica,sans-Serif" font-size="10.00">Control_system::handle</text>
<text text-anchor="middle" x="201" y="-23.5" font-family="Helvetica,sans-Serif" font-size="10.00">_alarm</text>
</a>
</g>
</g>
<!-- Node1&#45;&gt;Node3 -->
<g id="edge2" class="edge">
<title>Node1&#45;&gt;Node3</title>
<path fill="none" stroke="#63b8ff" d="M286.25,-31.5C277.81,-31.5 269.22,-31.5 260.92,-31.5"/>
<polygon fill="#63b8ff" stroke="#63b8ff" points="286.12,-35 296.12,-31.5 286.12,-28 286.12,-35"/>
</g>
<!-- Node4 -->
<g id="node4" class="node">
<title>Node4</title>
<g id="a_node4"><a xlink:href="class_alarm__state.html#acea6eee2b8d267b67192bbce9e495038" target="_top" xlink:title="Actualización, cambia el color del LED según el estado del motor y hace sonar la alarma....">
<polygon fill="white" stroke="#666666" points="104,-19 0,-19 0,0 104,0 104,-19"/>
<text text-anchor="middle" x="52" y="-7" font-family="Helvetica,sans-Serif" font-size="10.00">Alarm_state::update</text>
</a>
</g>
</g>
<!-- Node1&#45;&gt;Node4 -->
<g id="edge4" class="edge">
<title>Node1&#45;&gt;Node4</title>
<path fill="none" stroke="#63b8ff" d="M312.22,-18.35C296.68,-13.97 278.69,-9.66 262,-7.5 208.56,-0.57 146.79,-2.35 104.34,-5.07"/>
<polygon fill="#63b8ff" stroke="#63b8ff" points="311.02,-21.64 321.6,-21.09 312.99,-14.92 311.02,-21.64"/>
</g>
<!-- Node3&#45;&gt;Node4 -->
<g id="edge3" class="edge">
<title>Node3&#45;&gt;Node4</title>
<path fill="none" stroke="#63b8ff" d="M129.84,-21C121.26,-19.72 112.61,-18.42 104.37,-17.19"/>
<polygon fill="#63b8ff" stroke="#63b8ff" points="129.15,-24.44 139.56,-22.45 130.19,-17.51 129.15,-24.44"/>
</g>
</g>
</svg>
