<?xml version="1.0" encoding="UTF-8" standalone="no"?>
<!DOCTYPE svg PUBLIC "-//W3C//DTD SVG 1.1//EN"
 "http://www.w3.org/Graphics/SVG/1.1/DTD/svg11.dtd">
<!-- Generated by graphviz version 7.0.2 (20221119.0110)
 -->
<!-- Title: Dual_LED::set_color Pages: 1 -->
<!--zoomable 286 -->
<svg id="main" version="1.1" xmlns="http://www.w3.org/2000/svg" xmlns:xlink="http://www.w3.org/1999/xlink" xml:space="preserve" onload="init(evt)">
<style type="text/css"><![CDATA[
.edge:hover path { stroke: red; }
.edge:hover polygon { stroke: red; fill: red; }
]]></style>
<script type="text/javascript"><![CDATA[
var edges = document.getElementsByTagName('g');
if (edges && edges.length) {
  for (var i=0;i<edges.length;i++) {
    if (edges[i].id.substr(0,4)=='edge') {
      edges[i].setAttribute('class','edge');
    }
  }
}
]]></script>
        <defs>
                <circle id="rim" cx="0" cy="0" r="7"/>
                <circle id="rim2" cx="0" cy="0" r="3.5"/>
                <g id="zoomPlus">
                        <use xlink:href="#rim" fill="#404040">
                                <set attributeName="fill" to="#808080" begin="zoomplus.mouseover" end="zoomplus.mouseout"/>
                        </use>
                        <path d="M-4,0h8M0,-4v8" fill="none" stroke="white" stroke-width="1.5" pointer-events="none"/>
                </g>
                <g id="zoomMin">
                        <use xlink:href="#rim" fill="#404040">
                                <set attributeName="fill" to="#808080" begin="zoomminus.mouseover" end="zoomminus.mouseout"/>
                        </use>
                        <path d="M-4,0h8" fill="none" stroke="white" stroke-width="1.5" pointer-events="none"/>
                </g>
                <g id="dirArrow">
                        <path fill="none" stroke="white" stroke-width="1.5" d="M0,-3.0v7 M-2.5,-0.5L0,-3.0L2.5,-0.5"/>
                </g>
               <g id="resetDef">
                       <use xlink:href="#rim2" fill="#404040">
                               <set attributeName="fill" to="#808080" begin="reset.mouseover" end="reset.mouseout"/>
                       </use>
               </g>
        </defs>

<script type="text/javascript">
var viewWidth = 746;
var viewHeight = 286;
var sectionId = 'dynsection-0';
</script>
<script xlink:href="svgpan.js"/>
<svg id="graph" class="graph">
<g id="viewport">
<title>Dual_LED::set_color</title>
<!-- Node1 -->
<g id="node1" class="node">
<title>Node1</title>
<g id="a_node1"><a xlink:title="Fija el color del led, no enciende el led,.">
<polygon fill="#999999" stroke="#666666" points="738,-202.5 632,-202.5 632,-183.5 738,-183.5 738,-202.5"/>
<text text-anchor="middle" x="685" y="-190.5" font-family="Helvetica,sans-Serif" font-size="10.00">Dual_LED::set_color</text>
</a>
</g>
</g>
<!-- Node2 -->
<g id="node2" class="node">
<title>Node2</title>
<g id="a_node2"><a xlink:href="class_dual___l_e_d.html#ab1cd238e00901ca9556914a38d3a064c" target="_top" xlink:title="Enciende el LED en verde.">
<polygon fill="white" stroke="#666666" points="594.5,-202.5 482.5,-202.5 482.5,-183.5 594.5,-183.5 594.5,-202.5"/>
<text text-anchor="middle" x="538.5" y="-190.5" font-family="Helvetica,sans-Serif" font-size="10.00">Dual_LED::turn_green</text>
</a>
</g>
</g>
<!-- Node1&#45;&gt;Node2 -->
<g id="edge1" class="edge">
<title>Node1&#45;&gt;Node2</title>
<path fill="none" stroke="#63b8ff" d="M620.56,-193C611.88,-193 603.03,-193 594.52,-193"/>
<polygon fill="#63b8ff" stroke="#63b8ff" points="620.32,-196.5 630.32,-193 620.32,-189.5 620.32,-196.5"/>
</g>
<!-- Node7 -->
<g id="node7" class="node">
<title>Node7</title>
<g id="a_node7"><a xlink:href="class_dual___l_e_d.html#a8734a816df04661d86e3ccbf88159eb0" target="_top" xlink:title="Enciende el LED en rojo.">
<polygon fill="white" stroke="#666666" points="589,-148.5 488,-148.5 488,-129.5 589,-129.5 589,-148.5"/>
<text text-anchor="middle" x="538.5" y="-136.5" font-family="Helvetica,sans-Serif" font-size="10.00">Dual_LED::turn_red</text>
</a>
</g>
</g>
<!-- Node1&#45;&gt;Node7 -->
<g id="edge8" class="edge">
<title>Node1&#45;&gt;Node7</title>
<path fill="none" stroke="#63b8ff" d="M646.8,-179.1C621.45,-169.62 588.5,-157.31 565.84,-148.84"/>
<polygon fill="#63b8ff" stroke="#63b8ff" points="645.49,-182.34 656.08,-182.57 647.94,-175.79 645.49,-182.34"/>
</g>
<!-- Node13 -->
<g id="node13" class="node">
<title>Node13</title>
<g id="a_node13"><a xlink:href="class_dual___l_e_d.html#aabc0462521bcc08ea7f6f04642f7e89d" target="_top" xlink:title="Enciende el LED en amarillo. El comportamiento es indefinido para pines no PWM.">
<polygon fill="white" stroke="#666666" points="596,-261.5 481,-261.5 481,-242.5 596,-242.5 596,-261.5"/>
<text text-anchor="middle" x="538.5" y="-249.5" font-family="Helvetica,sans-Serif" font-size="10.00">Dual_LED::turn_yellow</text>
</a>
</g>
</g>
<!-- Node1&#45;&gt;Node13 -->
<g id="edge17" class="edge">
<title>Node1&#45;&gt;Node13</title>
<path fill="none" stroke="#63b8ff" d="M649.48,-207.1C623.04,-217.89 587.24,-232.51 563.76,-242.09"/>
<polygon fill="#63b8ff" stroke="#63b8ff" points="650.48,-210.47 658.41,-203.45 647.83,-203.99 650.48,-210.47"/>
</g>
<!-- Node3 -->
<g id="node3" class="node">
<title>Node3</title>
<g id="a_node3"><a xlink:href="class_check__instruction__state.html#ae13ba3789ab274a7dddf19be0a413b55" target="_top" xlink:title="Entrada del estado, resuelve las instrucciones a realizar en cada paso: &#45;WELCOME_STEP: Primer paso,...">
<polygon fill="white" stroke="#666666" points="290,-154 168,-154 168,-124 290,-124 290,-154"/>
<text text-anchor="start" x="176" y="-142" font-family="Helvetica,sans-Serif" font-size="10.00">Check_instruction_state</text>
<text text-anchor="middle" x="229" y="-131" font-family="Helvetica,sans-Serif" font-size="10.00">::enter</text>
</a>
</g>
</g>
<!-- Node2&#45;&gt;Node3 -->
<g id="edge2" class="edge">
<title>Node2&#45;&gt;Node3</title>
<path fill="none" stroke="#63b8ff" d="M470.6,-185.32C428.84,-180.08 374.08,-172.39 326,-163 313.52,-160.56 300.24,-157.53 287.65,-154.45"/>
<polygon fill="#63b8ff" stroke="#63b8ff" points="470.16,-188.79 480.51,-186.55 471.02,-181.84 470.16,-188.79"/>
</g>
<!-- Node4 -->
<g id="node4" class="node">
<title>Node4</title>
<g id="a_node4"><a xlink:href="class_control__system.html#ab4bd82b7c907b415fdc102ed1fa89c7c" target="_top" xlink:title="Según la variable context.current_alarm resuelve el comportamiento de la alarma.">
<polygon fill="white" stroke="#666666" points="445,-278 326,-278 326,-248 445,-248 445,-278"/>
<text text-anchor="start" x="334" y="-266" font-family="Helvetica,sans-Serif" font-size="10.00">Control_system::handle</text>
<text text-anchor="middle" x="385.5" y="-255" font-family="Helvetica,sans-Serif" font-size="10.00">_alarm</text>
</a>
</g>
</g>
<!-- Node2&#45;&gt;Node4 -->
<g id="edge3" class="edge">
<title>Node2&#45;&gt;Node4</title>
<path fill="none" stroke="#63b8ff" d="M506.07,-207.57C480.88,-219.25 445.63,-235.59 419.93,-247.5"/>
<polygon fill="#63b8ff" stroke="#63b8ff" points="507.21,-210.9 514.81,-203.52 504.27,-204.55 507.21,-210.9"/>
</g>
<!-- Node5 -->
<g id="node5" class="node">
<title>Node5</title>
<g id="a_node5"><a xlink:href="class_alarm__state.html#acea6eee2b8d267b67192bbce9e495038" target="_top" xlink:title="Actualización, cambia el color del LED según el estado del motor y hace sonar la alarma....">
<polygon fill="white" stroke="#666666" points="281,-250.5 177,-250.5 177,-231.5 281,-231.5 281,-250.5"/>
<text text-anchor="middle" x="229" y="-238.5" font-family="Helvetica,sans-Serif" font-size="10.00">Alarm_state::update</text>
</a>
</g>
</g>
<!-- Node2&#45;&gt;Node5 -->
<g id="edge7" class="edge">
<title>Node2&#45;&gt;Node5</title>
<path fill="none" stroke="#63b8ff" d="M471.12,-203.36C414.2,-212.25 333.38,-224.86 281.31,-232.99"/>
<polygon fill="#63b8ff" stroke="#63b8ff" points="471.33,-206.87 480.67,-201.87 470.25,-199.95 471.33,-206.87"/>
</g>
<!-- Node6 -->
<g id="node6" class="node">
<title>Node6</title>
<g id="a_node6"><a xlink:href="class_control__system.html#a46298a6a5f4ba43857baa6ae23d00dbc" target="_top" xlink:title="Fija el valor de velocidad del ventilador.">
<polygon fill="white" stroke="#666666" points="437.5,-154 333.5,-154 333.5,-124 437.5,-124 437.5,-154"/>
<text text-anchor="start" x="341.5" y="-142" font-family="Helvetica,sans-Serif" font-size="10.00">Control_system::set</text>
<text text-anchor="middle" x="385.5" y="-131" font-family="Helvetica,sans-Serif" font-size="10.00">_cooler_speed</text>
</a>
</g>
</g>
<!-- Node2&#45;&gt;Node6 -->
<g id="edge5" class="edge">
<title>Node2&#45;&gt;Node6</title>
<path fill="none" stroke="#63b8ff" d="M499.25,-179.32C478.07,-171.75 451.67,-162.3 429.74,-154.46"/>
<polygon fill="#63b8ff" stroke="#63b8ff" points="497.78,-182.51 508.38,-182.59 500.14,-175.92 497.78,-182.51"/>
</g>
<!-- Node4&#45;&gt;Node5 -->
<g id="edge4" class="edge">
<title>Node4&#45;&gt;Node5</title>
<path fill="none" stroke="#63b8ff" d="M314.51,-253.03C303.26,-251.43 291.81,-249.8 281.11,-248.28"/>
<polygon fill="#63b8ff" stroke="#63b8ff" points="313.76,-256.46 324.15,-254.41 314.74,-249.53 313.76,-256.46"/>
</g>
<!-- Node6&#45;&gt;Node3 -->
<g id="edge6" class="edge">
<title>Node6&#45;&gt;Node3</title>
<path fill="none" stroke="#63b8ff" d="M321.59,-139C311.26,-139 300.58,-139 290.32,-139"/>
<polygon fill="#63b8ff" stroke="#63b8ff" points="321.54,-142.5 331.54,-139 321.54,-135.5 321.54,-142.5"/>
</g>
<!-- Node7&#45;&gt;Node3 -->
<g id="edge9" class="edge">
<title>Node7&#45;&gt;Node3</title>
<path fill="none" stroke="#63b8ff" d="M496.04,-125.85C480.24,-121.47 461.95,-117.16 445,-115 392.54,-108.3 378.49,-108.54 326,-115 311.51,-116.78 296.05,-120.03 281.88,-123.57"/>
<polygon fill="#63b8ff" stroke="#63b8ff" points="495.02,-129.2 505.59,-128.6 496.95,-122.47 495.02,-129.2"/>
</g>
<!-- Node7&#45;&gt;Node4 -->
<g id="edge10" class="edge">
<title>Node7&#45;&gt;Node4</title>
<path fill="none" stroke="#63b8ff" d="M510.34,-154.91C500.81,-160.85 490.19,-167.89 481,-175 450.86,-198.32 419.08,-229.48 401.12,-247.78"/>
<polygon fill="#63b8ff" stroke="#63b8ff" points="512.13,-157.91 518.85,-149.72 508.49,-151.93 512.13,-157.91"/>
</g>
<!-- Node7&#45;&gt;Node6 -->
<g id="edge16" class="edge">
<title>Node7&#45;&gt;Node6</title>
<path fill="none" stroke="#63b8ff" d="M476.16,-139C463.45,-139 450.17,-139 437.86,-139"/>
<polygon fill="#63b8ff" stroke="#63b8ff" points="476.12,-142.5 486.12,-139 476.12,-135.5 476.12,-142.5"/>
</g>
<!-- Node8 -->
<g id="node8" class="node">
<title>Node8</title>
<g id="a_node8"><a xlink:href="class_control__system.html#a4704fee6ca6fe180a5dc292315ec3b31" target="_top" xlink:title="Apaga todos los periféricos a excepción del display. Asigna false a solictudes de alarma,...">
<polygon fill="white" stroke="#666666" points="442,-67.5 329,-67.5 329,-48.5 442,-48.5 442,-67.5"/>
<text text-anchor="middle" x="385.5" y="-55.5" font-family="Helvetica,sans-Serif" font-size="10.00">Control_system::reset</text>
</a>
</g>
</g>
<!-- Node7&#45;&gt;Node8 -->
<g id="edge11" class="edge">
<title>Node7&#45;&gt;Node8</title>
<path fill="none" stroke="#63b8ff" d="M513.63,-122.79C495.31,-110.73 469.14,-94.29 445,-82 434.92,-76.87 423.48,-71.98 413.41,-67.98"/>
<polygon fill="#63b8ff" stroke="#63b8ff" points="511.66,-125.69 521.93,-128.32 515.55,-119.86 511.66,-125.69"/>
</g>
<!-- Node9 -->
<g id="node9" class="node">
<title>Node9</title>
<g id="a_node9"><a xlink:href="class_shutdown__state.html#accbc4c856709e26453e2e23c5c1e4f8e" target="_top" xlink:title="Salida del estado, resetea las variables del sistema e incializa la pantalla.">
<polygon fill="white" stroke="#666666" points="283,-104.5 175,-104.5 175,-85.5 283,-85.5 283,-104.5"/>
<text text-anchor="middle" x="229" y="-92.5" font-family="Helvetica,sans-Serif" font-size="10.00">Shutdown_state::exit</text>
</a>
</g>
</g>
<!-- Node8&#45;&gt;Node9 -->
<g id="edge12" class="edge">
<title>Node8&#45;&gt;Node9</title>
<path fill="none" stroke="#63b8ff" d="M332.1,-70.55C312.34,-75.28 290.15,-80.6 271.52,-85.06"/>
<polygon fill="#63b8ff" stroke="#63b8ff" points="332.72,-74 341.62,-68.27 331.08,-67.19 332.72,-74"/>
</g>
<!-- Node11 -->
<g id="node11" class="node">
<title>Node11</title>
<g id="a_node11"><a xlink:href="class_control__system.html#a660ab5ac86df7cdefbbfe0942b00e13b" target="_top" xlink:title="Inicializa el sistema en estado apagado.">
<polygon fill="white" stroke="#666666" points="281,-67.5 177,-67.5 177,-48.5 281,-48.5 281,-67.5"/>
<text text-anchor="middle" x="229" y="-55.5" font-family="Helvetica,sans-Serif" font-size="10.00">Control_system::init</text>
</a>
</g>
</g>
<!-- Node8&#45;&gt;Node11 -->
<g id="edge14" class="edge">
<title>Node8&#45;&gt;Node11</title>
<path fill="none" stroke="#63b8ff" d="M317.3,-58C305.24,-58 292.85,-58 281.33,-58"/>
<polygon fill="#63b8ff" stroke="#63b8ff" points="317.21,-61.5 327.21,-58 317.21,-54.5 317.21,-61.5"/>
</g>
<!-- Node12 -->
<g id="node12" class="node">
<title>Node12</title>
<g id="a_node12"><a xlink:href="class_check__instruction__state.html#a161d1ccae3db7c6ac372b56877dc05f2" target="_top" xlink:title="Actualización de estado, si existe una solicitud de apagado el sistema se resetea.">
<polygon fill="white" stroke="#666666" points="290,-30 168,-30 168,0 290,0 290,-30"/>
<text text-anchor="start" x="176" y="-18" font-family="Helvetica,sans-Serif" font-size="10.00">Check_instruction_state</text>
<text text-anchor="middle" x="229" y="-7" font-family="Helvetica,sans-Serif" font-size="10.00">::update</text>
</a>
</g>
</g>
<!-- Node8&#45;&gt;Node12 -->
<g id="edge15" class="edge">
<title>Node8&#45;&gt;Node12</title>
<path fill="none" stroke="#63b8ff" d="M337.7,-44.97C321.28,-40.4 302.68,-35.23 285.61,-30.48"/>
<polygon fill="#63b8ff" stroke="#63b8ff" points="336.64,-48.31 347.21,-47.62 338.51,-41.57 336.64,-48.31"/>
</g>
<!-- Node10 -->
<g id="node10" class="node">
<title>Node10</title>
<g id="a_node10"><a xlink:href="class_shutdown__state.html#ae02b2fd80173aa50afcd73faba01b9be" target="_top" xlink:title="Transicion de estados.">
<polygon fill="white" stroke="#666666" points="132,-104.5 0,-104.5 0,-85.5 132,-85.5 132,-104.5"/>
<text text-anchor="middle" x="66" y="-92.5" font-family="Helvetica,sans-Serif" font-size="10.00">Shutdown_state::transition</text>
</a>
</g>
</g>
<!-- Node9&#45;&gt;Node10 -->
<g id="edge13" class="edge">
<title>Node9&#45;&gt;Node10</title>
<path fill="none" stroke="#63b8ff" d="M163.49,-95C153.27,-95 142.7,-95 132.46,-95"/>
<polygon fill="#63b8ff" stroke="#63b8ff" points="163.32,-98.5 173.32,-95 163.32,-91.5 163.32,-98.5"/>
</g>
<!-- Node13&#45;&gt;Node4 -->
<g id="edge18" class="edge">
<title>Node13&#45;&gt;Node4</title>
<path fill="none" stroke="#63b8ff" d="M469.59,-256.95C461.55,-257.53 453.39,-258.13 445.49,-258.7"/>
<polygon fill="#63b8ff" stroke="#63b8ff" points="469.61,-260.45 479.33,-256.24 469.11,-253.47 469.61,-260.45"/>
</g>
</g>
</svg>
        <g id="navigator" transform="translate(0 0)" fill="#404254">
                <rect fill="#f2f5e9" fill-opacity="0.5" stroke="#606060" stroke-width=".5" x="0" y="0" width="60" height="60"/>
                <use id="zoomplus" xlink:href="#zoomPlus" x="17" y="9" onmousedown="handleZoom(evt,'in')"/>
                <use id="zoomminus" xlink:href="#zoomMin" x="42" y="9" onmousedown="handleZoom(evt,'out')"/>
                <use id="reset" xlink:href="#resetDef" x="30" y="36" onmousedown="handleReset()"/>
                <g id="arrowUp" xlink:href="#dirArrow" transform="translate(30 24)" onmousedown="handlePan(0,-1)">
                  <use xlink:href="#rim" fill="#404040">
                        <set attributeName="fill" to="#808080" begin="arrowUp.mouseover" end="arrowUp.mouseout"/>
                  </use>
                  <path fill="none" stroke="white" stroke-width="1.5" d="M0,-3.0v7 M-2.5,-0.5L0,-3.0L2.5,-0.5"/>
                </g>
                <g id="arrowRight" xlink:href="#dirArrow" transform="rotate(90) translate(36 -43)" onmousedown="handlePan(1,0)">
                  <use xlink:href="#rim" fill="#404040">
                        <set attributeName="fill" to="#808080" begin="arrowRight.mouseover" end="arrowRight.mouseout"/>
                  </use>
                  <path fill="none" stroke="white" stroke-width="1.5" d="M0,-3.0v7 M-2.5,-0.5L0,-3.0L2.5,-0.5"/>
                </g>
                <g id="arrowDown" xlink:href="#dirArrow" transform="rotate(180) translate(-30 -48)" onmousedown="handlePan(0,1)">
                  <use xlink:href="#rim" fill="#404040">
                        <set attributeName="fill" to="#808080" begin="arrowDown.mouseover" end="arrowDown.mouseout"/>
                  </use>
                  <path fill="none" stroke="white" stroke-width="1.5" d="M0,-3.0v7 M-2.5,-0.5L0,-3.0L2.5,-0.5"/>
                </g>
                <g id="arrowLeft" xlink:href="#dirArrow" transform="rotate(270) translate(-36 17)" onmousedown="handlePan(-1,0)">
                  <use xlink:href="#rim" fill="#404040">
                        <set attributeName="fill" to="#808080" begin="arrowLeft.mouseover" end="arrowLeft.mouseout"/>
                  </use>
                  <path fill="none" stroke="white" stroke-width="1.5" d="M0,-3.0v7 M-2.5,-0.5L0,-3.0L2.5,-0.5"/>
                </g>
        </g>
        <svg viewBox="0 0 15 15" width="100%" height="30px" preserveAspectRatio="xMaxYMin meet">
         <g id="arrow_out" transform="scale(0.3 0.3)">
          <a xlink:href="class_dual___l_e_d_aeb163748acf071a1652c56ae1dff9d52_icgraph_org.svg" target="_base">
           <rect id="button" ry="5" rx="5" y="6" x="6" height="38" width="38"
                fill="#f2f5e9" fill-opacity="0.5" stroke="#606060" stroke-width="1.0"/>
           <path id="arrow"
             d="M 11.500037,31.436501 C 11.940474,20.09759 22.043105,11.32322 32.158766,21.979434 L 37.068811,17.246167 C 37.068811,17.246167 37.088388,32 37.088388,32 L 22.160133,31.978069 C 22.160133,31.978069 26.997745,27.140456 26.997745,27.140456 C 18.528582,18.264221 13.291696,25.230495 11.500037,31.436501 z"
             style="fill:#404040;"/>
          </a>
         </g>
        </svg>
</svg>
