<?xml version="1.0" encoding="UTF-8" standalone="no"?>
<!DOCTYPE svg PUBLIC "-//W3C//DTD SVG 1.1//EN"
 "http://www.w3.org/Graphics/SVG/1.1/DTD/svg11.dtd">
<!-- Generated by graphviz version 7.0.2 (20221119.0110)
 -->
<!-- Title: C:/Users/juanh/OneDrive/Escritorio/Facultad/Beca/Proyecto/LAL Control Arduino/src Pages: 1 -->
<svg width="372pt" height="98pt"
 viewBox="0.00 0.00 372.00 98.00" xmlns="http://www.w3.org/2000/svg" xmlns:xlink="http://www.w3.org/1999/xlink">
<g id="graph0" class="graph" transform="scale(1 1) rotate(0) translate(4 94)">
<title>C:/Users/juanh/OneDrive/Escritorio/Facultad/Beca/Proyecto/LAL Control Arduino/src</title>
<g id="clust1" class="cluster">
<title>clusterdir_68267d1309a1af8e8297ef4c3efbcdba</title>
<g id="a_clust1"><a xlink:href="dir_68267d1309a1af8e8297ef4c3efbcdba.html" target="_top">
<polygon fill="#edf0f7" stroke="#404040" stroke-width="2" points="8,-47 8,-82 356,-82 356,-47 8,-47"/>
</a>
</g>
</g>
<!-- dir_68267d1309a1af8e8297ef4c3efbcdba -->
<g id="node1" class="node">
<title>dir_68267d1309a1af8e8297ef4c3efbcdba</title>
<text text-anchor="middle" x="333" y="-62" font-family="Helvetica,sans-Serif" font-size="10.00">src</text>
</g>
<!-- dir_d44c64559bbebec7f509842c48db8b23 -->
<g id="node5" class="node">
<title>dir_d44c64559bbebec7f509842c48db8b23</title>
<g id="a_node5"><a xlink:href="dir_d44c64559bbebec7f509842c48db8b23.html" target="_top" xlink:title="include">
<polygon fill="#edf0f7" stroke="red" points="252.5,-19 205.5,-19 205.5,0 252.5,0 252.5,-19"/>
<text text-anchor="middle" x="229" y="-7" font-family="Helvetica,sans-Serif" font-size="10.00">include</text>
</a>
</g>
</g>
<!-- dir_68267d1309a1af8e8297ef4c3efbcdba&#45;&gt;dir_d44c64559bbebec7f509842c48db8b23 -->
<g id="edge1" class="edge">
<title>dir_68267d1309a1af8e8297ef4c3efbcdba&#45;&gt;dir_d44c64559bbebec7f509842c48db8b23</title>
<path fill="none" stroke="#63b8ff" d="M321.54,-55.02C317.66,-52.31 313.22,-49.39 309,-47 293.82,-38.41 276.25,-30.21 261.45,-23.77"/>
<polygon fill="#63b8ff" stroke="#63b8ff" points="263.2,-20.71 252.63,-20.01 260.46,-27.15 263.2,-20.71"/>
<g id="a_edge1&#45;headlabel"><a xlink:href="dir_000009_000002.html" target="_top" xlink:title="17">
<text text-anchor="middle" x="266.23" y="-16.42" font-family="Helvetica,sans-Serif" font-size="10.00" fill="#63b8ff">17</text>
</a>
</g>
</g>
<!-- dir_c718a368270b13c54d94892d20736f45 -->
<g id="node2" class="node">
<title>dir_c718a368270b13c54d94892d20736f45</title>
<g id="a_node2"><a xlink:href="dir_c718a368270b13c54d94892d20736f45.html" target="_top" xlink:title="drivers">
<polygon fill="#a2b4d6" stroke="#404040" points="300,-74 256,-74 256,-55 300,-55 300,-74"/>
<text text-anchor="middle" x="278" y="-62" font-family="Helvetica,sans-Serif" font-size="10.00">drivers</text>
</a>
</g>
</g>
<!-- dir_c718a368270b13c54d94892d20736f45&#45;&gt;dir_d44c64559bbebec7f509842c48db8b23 -->
<g id="edge2" class="edge">
<title>dir_c718a368270b13c54d94892d20736f45&#45;&gt;dir_d44c64559bbebec7f509842c48db8b23</title>
<path fill="none" stroke="#63b8ff" d="M269.91,-54.75C263.14,-47.43 253.28,-36.76 244.94,-27.74"/>
<polygon fill="#63b8ff" stroke="#63b8ff" points="247.65,-25.52 238.29,-20.55 242.51,-30.27 247.65,-25.52"/>
<g id="a_edge2&#45;headlabel"><a xlink:href="dir_000001_000002.html" target="_top" xlink:title="7">
<text text-anchor="middle" x="251.15" y="-22.62" font-family="Helvetica,sans-Serif" font-size="10.00" fill="#63b8ff">7</text>
</a>
</g>
</g>
<!-- dir_9eb7036b00ead296f3c467c69450289d -->
<g id="node3" class="node">
<title>dir_9eb7036b00ead296f3c467c69450289d</title>
<g id="a_node3"><a xlink:href="dir_9eb7036b00ead296f3c467c69450289d.html" target="_top" xlink:title="machine_state_pattern">
<polygon fill="#a2b4d6" stroke="#404040" points="238,-74 122,-74 122,-55 238,-55 238,-74"/>
<text text-anchor="middle" x="180" y="-62" font-family="Helvetica,sans-Serif" font-size="10.00">machine_state_pattern</text>
</a>
</g>
</g>
<!-- dir_9eb7036b00ead296f3c467c69450289d&#45;&gt;dir_d44c64559bbebec7f509842c48db8b23 -->
<g id="edge3" class="edge">
<title>dir_9eb7036b00ead296f3c467c69450289d&#45;&gt;dir_d44c64559bbebec7f509842c48db8b23</title>
<path fill="none" stroke="#63b8ff" d="M188.09,-54.75C194.86,-47.43 204.72,-36.76 213.06,-27.74"/>
<polygon fill="#63b8ff" stroke="#63b8ff" points="215.49,-30.27 219.71,-20.55 210.35,-25.52 215.49,-30.27"/>
<g id="a_edge3&#45;headlabel"><a xlink:href="dir_000004_000002.html" target="_top" xlink:title="4">
<text text-anchor="middle" x="216.16" y="-31.23" font-family="Helvetica,sans-Serif" font-size="10.00" fill="#63b8ff">4</text>
</a>
</g>
</g>
<!-- dir_899b913dbb47909508b56f7817732640 -->
<g id="node4" class="node">
<title>dir_899b913dbb47909508b56f7817732640</title>
<g id="a_node4"><a xlink:href="dir_899b913dbb47909508b56f7817732640.html" target="_top" xlink:title="observer_pattern">
<polygon fill="#a2b4d6" stroke="#404040" points="104,-74 16,-74 16,-55 104,-55 104,-74"/>
<text text-anchor="middle" x="60" y="-62" font-family="Helvetica,sans-Serif" font-size="10.00">observer_pattern</text>
</a>
</g>
</g>
<!-- dir_899b913dbb47909508b56f7817732640&#45;&gt;dir_d44c64559bbebec7f509842c48db8b23 -->
<g id="edge4" class="edge">
<title>dir_899b913dbb47909508b56f7817732640&#45;&gt;dir_d44c64559bbebec7f509842c48db8b23</title>
<path fill="none" stroke="#63b8ff" d="M88.67,-54.51C117.86,-45.36 163.13,-31.16 194.32,-21.38"/>
<polygon fill="#63b8ff" stroke="#63b8ff" points="195.18,-24.77 203.67,-18.44 193.08,-18.1 195.18,-24.77"/>
<g id="a_edge4&#45;headlabel"><a xlink:href="dir_000007_000002.html" target="_top" xlink:title="3">
<text text-anchor="middle" x="194.04" y="-25.61" font-family="Helvetica,sans-Serif" font-size="10.00" fill="#63b8ff">3</text>
</a>
</g>
</g>
</g>
</svg>
