<?xml version="1.0" encoding="UTF-8" standalone="no"?>
<!DOCTYPE svg PUBLIC "-//W3C//DTD SVG 1.1//EN"
 "http://www.w3.org/Graphics/SVG/1.1/DTD/svg11.dtd">
<!-- Generated by graphviz version 7.0.2 (20221119.0110)
 -->
<!-- Title: C:/Users/juanh/OneDrive/Escritorio/Sistemas Embebidos/Proyecto final/LAL Control MbedOS/src/Port Pages: 1 -->
<svg width="394pt" height="125pt"
 viewBox="0.00 0.00 394.00 125.00" xmlns="http://www.w3.org/2000/svg" xmlns:xlink="http://www.w3.org/1999/xlink">
<g id="graph0" class="graph" transform="scale(1 1) rotate(0) translate(4 121)">
<title>C:/Users/juanh/OneDrive/Escritorio/Sistemas Embebidos/Proyecto final/LAL Control MbedOS/src/Port</title>
<g id="clust1" class="cluster">
<title>clusterdir_68267d1309a1af8e8297ef4c3efbcdba</title>
<g id="a_clust1"><a xlink:href="dir_68267d1309a1af8e8297ef4c3efbcdba.html" target="_top" xlink:title="src">
<polygon fill="#edf0f7" stroke="#404040" stroke-dasharray="5,2" points="8,-39 8,-109 378,-109 378,-39 8,-39"/>
<text text-anchor="middle" x="193" y="-97" font-family="Helvetica,sans-Serif" font-size="10.00">src</text>
</a>
</g>
</g>
<g id="clust2" class="cluster">
<title>clusterdir_ad35be4ee14ea9b1b6905985f522e814</title>
<g id="a_clust2"><a xlink:href="dir_ad35be4ee14ea9b1b6905985f522e814.html" target="_top">
<polygon fill="#edf0f7" stroke="#404040" stroke-width="2" points="16,-47 16,-82 370,-82 370,-47 16,-47"/>
</a>
</g>
</g>
<!-- dir_ad35be4ee14ea9b1b6905985f522e814 -->
<g id="node1" class="node">
<title>dir_ad35be4ee14ea9b1b6905985f522e814</title>
<text text-anchor="middle" x="344" y="-62" font-family="Helvetica,sans-Serif" font-size="10.00">Port</text>
</g>
<!-- dir_d44c64559bbebec7f509842c48db8b23 -->
<g id="node5" class="node">
<title>dir_d44c64559bbebec7f509842c48db8b23</title>
<g id="a_node5"><a xlink:href="dir_d44c64559bbebec7f509842c48db8b23.html" target="_top" xlink:title="include">
<polygon fill="#edf0f7" stroke="red" points="260.5,-19 213.5,-19 213.5,0 260.5,0 260.5,-19"/>
<text text-anchor="middle" x="237" y="-7" font-family="Helvetica,sans-Serif" font-size="10.00">include</text>
</a>
</g>
</g>
<!-- dir_ad35be4ee14ea9b1b6905985f522e814&#45;&gt;dir_d44c64559bbebec7f509842c48db8b23 -->
<g id="edge1" class="edge">
<title>dir_ad35be4ee14ea9b1b6905985f522e814&#45;&gt;dir_d44c64559bbebec7f509842c48db8b23</title>
<path fill="none" stroke="#63b8ff" d="M336.63,-55.31C331.54,-50.06 324.39,-43.42 317,-39 302.99,-30.61 286.13,-24.14 271.5,-19.51"/>
<polygon fill="#63b8ff" stroke="#63b8ff" points="272.87,-16.27 262.29,-16.75 270.87,-22.97 272.87,-16.27"/>
<g id="a_edge1&#45;headlabel"><a xlink:href="dir_000010_000003.html" target="_top" xlink:title="17">
<text text-anchor="middle" x="275.68" y="-11.64" font-family="Helvetica,sans-Serif" font-size="10.00" fill="#63b8ff">17</text>
</a>
</g>
</g>
<!-- dir_45471736bd14c0f5ef155129cdd4a5b7 -->
<g id="node2" class="node">
<title>dir_45471736bd14c0f5ef155129cdd4a5b7</title>
<g id="a_node2"><a xlink:href="dir_45471736bd14c0f5ef155129cdd4a5b7.html" target="_top" xlink:title="drivers">
<polygon fill="#a2b4d6" stroke="#404040" points="308,-74 264,-74 264,-55 308,-55 308,-74"/>
<text text-anchor="middle" x="286" y="-62" font-family="Helvetica,sans-Serif" font-size="10.00">drivers</text>
</a>
</g>
</g>
<!-- dir_45471736bd14c0f5ef155129cdd4a5b7&#45;&gt;dir_d44c64559bbebec7f509842c48db8b23 -->
<g id="edge2" class="edge">
<title>dir_45471736bd14c0f5ef155129cdd4a5b7&#45;&gt;dir_d44c64559bbebec7f509842c48db8b23</title>
<path fill="none" stroke="#63b8ff" d="M277.91,-54.75C271.14,-47.43 261.28,-36.76 252.94,-27.74"/>
<polygon fill="#63b8ff" stroke="#63b8ff" points="255.65,-25.52 246.29,-20.55 250.51,-30.27 255.65,-25.52"/>
<g id="a_edge2&#45;headlabel"><a xlink:href="dir_000001_000003.html" target="_top" xlink:title="8">
<text text-anchor="middle" x="259.15" y="-22.62" font-family="Helvetica,sans-Serif" font-size="10.00" fill="#63b8ff">8</text>
</a>
</g>
</g>
<!-- dir_ca40fbbc5117cbda0ff06db0b3f828bf -->
<g id="node3" class="node">
<title>dir_ca40fbbc5117cbda0ff06db0b3f828bf</title>
<g id="a_node3"><a xlink:href="dir_ca40fbbc5117cbda0ff06db0b3f828bf.html" target="_top" xlink:title="machine_state_pattern">
<polygon fill="#a2b4d6" stroke="#404040" points="246,-74 130,-74 130,-55 246,-55 246,-74"/>
<text text-anchor="middle" x="188" y="-62" font-family="Helvetica,sans-Serif" font-size="10.00">machine_state_pattern</text>
</a>
</g>
</g>
<!-- dir_ca40fbbc5117cbda0ff06db0b3f828bf&#45;&gt;dir_d44c64559bbebec7f509842c48db8b23 -->
<g id="edge3" class="edge">
<title>dir_ca40fbbc5117cbda0ff06db0b3f828bf&#45;&gt;dir_d44c64559bbebec7f509842c48db8b23</title>
<path fill="none" stroke="#63b8ff" d="M196.09,-54.75C202.86,-47.43 212.72,-36.76 221.06,-27.74"/>
<polygon fill="#63b8ff" stroke="#63b8ff" points="223.49,-30.27 227.71,-20.55 218.35,-25.52 223.49,-30.27"/>
<g id="a_edge3&#45;headlabel"><a xlink:href="dir_000005_000003.html" target="_top" xlink:title="4">
<text text-anchor="middle" x="224.16" y="-31.23" font-family="Helvetica,sans-Serif" font-size="10.00" fill="#63b8ff">4</text>
</a>
</g>
</g>
<!-- dir_571b754fa87a9b641516e4b4506415a5 -->
<g id="node4" class="node">
<title>dir_571b754fa87a9b641516e4b4506415a5</title>
<g id="a_node4"><a xlink:href="dir_571b754fa87a9b641516e4b4506415a5.html" target="_top" xlink:title="observer_pattern">
<polygon fill="#a2b4d6" stroke="#404040" points="112,-74 24,-74 24,-55 112,-55 112,-74"/>
<text text-anchor="middle" x="68" y="-62" font-family="Helvetica,sans-Serif" font-size="10.00">observer_pattern</text>
</a>
</g>
</g>
<!-- dir_571b754fa87a9b641516e4b4506415a5&#45;&gt;dir_d44c64559bbebec7f509842c48db8b23 -->
<g id="edge4" class="edge">
<title>dir_571b754fa87a9b641516e4b4506415a5&#45;&gt;dir_d44c64559bbebec7f509842c48db8b23</title>
<path fill="none" stroke="#63b8ff" d="M84.84,-54.7C95.09,-49.61 108.56,-43.36 121,-39 147.62,-29.67 178.7,-22.21 201.99,-17.27"/>
<polygon fill="#63b8ff" stroke="#63b8ff" points="202.49,-20.74 211.58,-15.29 201.08,-13.88 202.49,-20.74"/>
<g id="a_edge4&#45;headlabel"><a xlink:href="dir_000008_000003.html" target="_top" xlink:title="4">
<text text-anchor="middle" x="201.03" y="-21.44" font-family="Helvetica,sans-Serif" font-size="10.00" fill="#63b8ff">4</text>
</a>
</g>
</g>
</g>
</svg>
