<?xml version="1.0" encoding="UTF-8" standalone="no"?>
<!DOCTYPE svg PUBLIC "-//W3C//DTD SVG 1.1//EN"
 "http://www.w3.org/Graphics/SVG/1.1/DTD/svg11.dtd">
<!-- Generated by graphviz version 7.0.2 (20221119.0110)
 -->
<!-- Title: C:/Users/juanh/OneDrive/Escritorio/Sistemas Embebidos/Proyecto final/LAL Control MbedOS/include/drivers/hd44780_I2Cexp.h Pages: 1 -->
<svg width="360pt" height="192pt"
 viewBox="0.00 0.00 359.77 192.00" xmlns="http://www.w3.org/2000/svg" xmlns:xlink="http://www.w3.org/1999/xlink">
<g id="graph0" class="graph" transform="scale(1 1) rotate(0) translate(4 188)">
<title>C:/Users/juanh/OneDrive/Escritorio/Sistemas Embebidos/Proyecto final/LAL Control MbedOS/include/drivers/hd44780_I2Cexp.h</title>
<!-- Node1 -->
<g id="node1" class="node">
<title>Node1</title>
<g id="a_node1"><a xlink:title="Adaptación de la biblioteca TextLCD de MbedOS 5. Permite utilizar un LCD hd44780 con un expansor de p...">
<polygon fill="#999999" stroke="#666666" points="227.27,-184 65.27,-184 65.27,-121 227.27,-121 227.27,-184"/>
<text text-anchor="start" x="73.27" y="-172" font-family="Helvetica,sans-Serif" font-size="10.00">C:/Users/juanh/OneDrive</text>
<text text-anchor="start" x="73.27" y="-161" font-family="Helvetica,sans-Serif" font-size="10.00">/Escritorio/Sistemas Embebidos</text>
<text text-anchor="start" x="73.27" y="-150" font-family="Helvetica,sans-Serif" font-size="10.00">/Proyecto final/LAL Control</text>
<text text-anchor="start" x="73.27" y="-139" font-family="Helvetica,sans-Serif" font-size="10.00"> MbedOS/include/drivers/hd44780</text>
<text text-anchor="middle" x="146.27" y="-128" font-family="Helvetica,sans-Serif" font-size="10.00">_I2Cexp.h</text>
</a>
</g>
</g>
<!-- Node2 -->
<g id="node2" class="node">
<title>Node2</title>
<g id="a_node2"><a xlink:title=" ">
<polygon fill="#e0e0e0" stroke="#999999" points="49.77,-19 0.77,-19 0.77,0 49.77,0 49.77,-19"/>
<text text-anchor="middle" x="25.27" y="-7" font-family="Helvetica,sans-Serif" font-size="10.00">mbed.h</text>
</a>
</g>
</g>
<!-- Node1&#45;&gt;Node2 -->
<g id="edge1" class="edge">
<title>Node1&#45;&gt;Node2</title>
<path fill="none" stroke="#63b8ff" d="M65.08,-131.29C41.76,-121.32 18.97,-106.6 5.27,-85 -5.57,-67.91 3.36,-45.03 12.5,-29.16"/>
<polygon fill="#63b8ff" stroke="#63b8ff" points="15.44,-31.05 17.81,-20.73 9.52,-27.32 15.44,-31.05"/>
</g>
<!-- Node3 -->
<g id="node3" class="node">
<title>Node3</title>
<g id="a_node3"><a xlink:title=" ">
<polygon fill="#e0e0e0" stroke="#999999" points="154.27,-19 106.27,-19 106.27,0 154.27,0 154.27,-19"/>
<text text-anchor="middle" x="130.27" y="-7" font-family="Helvetica,sans-Serif" font-size="10.00">stdlib.h</text>
</a>
</g>
</g>
<!-- Node1&#45;&gt;Node3 -->
<g id="edge2" class="edge">
<title>Node1&#45;&gt;Node3</title>
<path fill="none" stroke="#63b8ff" d="M142.76,-120.56C139.66,-93.2 135.22,-54.09 132.55,-30.6"/>
<polygon fill="#63b8ff" stroke="#63b8ff" points="136.05,-30.39 131.45,-20.84 129.1,-31.17 136.05,-30.39"/>
</g>
<!-- Node4 -->
<g id="node4" class="node">
<title>Node4</title>
<g id="a_node4"><a xlink:href="hd44780__instruction__set_8h.html" target="_top" xlink:title="Set de instrucciones del LCD HD44780.">
<polygon fill="white" stroke="#666666" points="118.27,-85 14.27,-85 14.27,-55 118.27,-55 118.27,-85"/>
<text text-anchor="start" x="22.27" y="-73" font-family="Helvetica,sans-Serif" font-size="10.00">hd44780_instruction</text>
<text text-anchor="middle" x="66.27" y="-62" font-family="Helvetica,sans-Serif" font-size="10.00">_set.h</text>
</a>
</g>
</g>
<!-- Node1&#45;&gt;Node4 -->
<g id="edge3" class="edge">
<title>Node1&#45;&gt;Node4</title>
<path fill="none" stroke="#63b8ff" d="M115.57,-120.61C106.45,-111.43 96.65,-101.56 88.2,-93.07"/>
<polygon fill="#63b8ff" stroke="#63b8ff" points="90.89,-90.8 81.35,-86.18 85.92,-95.74 90.89,-90.8"/>
</g>
<!-- Node5 -->
<g id="node5" class="node">
<title>Node5</title>
<g id="a_node5"><a xlink:href="utils_8h_source.html" target="_top" xlink:title=" ">
<polygon fill="white" stroke="#666666" points="217.77,-79.5 174.77,-79.5 174.77,-60.5 217.77,-60.5 217.77,-79.5"/>
<text text-anchor="middle" x="196.27" y="-67.5" font-family="Helvetica,sans-Serif" font-size="10.00">utils.h</text>
</a>
</g>
</g>
<!-- Node1&#45;&gt;Node5 -->
<g id="edge5" class="edge">
<title>Node1&#45;&gt;Node5</title>
<path fill="none" stroke="#63b8ff" d="M165.46,-120.61C171.95,-110.15 179,-98.81 184.71,-89.61"/>
<polygon fill="#63b8ff" stroke="#63b8ff" points="187.59,-91.61 189.9,-81.27 181.65,-87.91 187.59,-91.61"/>
</g>
<!-- Node9 -->
<g id="node9" class="node">
<title>Node9</title>
<g id="a_node9"><a xlink:href="display__settings_8h.html" target="_top" xlink:title="Archivo de configuración de la pantalla.">
<polygon fill="white" stroke="#666666" points="330.77,-79.5 235.77,-79.5 235.77,-60.5 330.77,-60.5 330.77,-79.5"/>
<text text-anchor="middle" x="283.27" y="-67.5" font-family="Helvetica,sans-Serif" font-size="10.00">display_settings.h</text>
</a>
</g>
</g>
<!-- Node1&#45;&gt;Node9 -->
<g id="edge10" class="edge">
<title>Node1&#45;&gt;Node9</title>
<path fill="none" stroke="#63b8ff" d="M198.85,-120.61C219.34,-108.56 241.85,-95.34 258.47,-85.57"/>
<polygon fill="#63b8ff" stroke="#63b8ff" points="259.83,-88.83 266.68,-80.75 256.29,-82.8 259.83,-88.83"/>
</g>
<!-- Node4&#45;&gt;Node2 -->
<g id="edge4" class="edge">
<title>Node4&#45;&gt;Node2</title>
<path fill="none" stroke="#63b8ff" d="M56.14,-54.54C50.61,-46.65 43.71,-36.81 37.84,-28.44"/>
<polygon fill="#63b8ff" stroke="#63b8ff" points="40.83,-26.59 32.22,-20.41 35.09,-30.61 40.83,-26.59"/>
</g>
<!-- Node5&#45;&gt;Node3 -->
<g id="edge8" class="edge">
<title>Node5&#45;&gt;Node3</title>
<path fill="none" stroke="#63b8ff" d="M186.25,-60.12C176.36,-51.35 161.02,-37.75 148.89,-27"/>
<polygon fill="#63b8ff" stroke="#63b8ff" points="151.33,-24.49 141.52,-20.47 146.68,-29.72 151.33,-24.49"/>
</g>
<!-- Node6 -->
<g id="node6" class="node">
<title>Node6</title>
<g id="a_node6"><a xlink:title=" ">
<polygon fill="#e0e0e0" stroke="#999999" points="219.77,-19 172.77,-19 172.77,0 219.77,0 219.77,-19"/>
<text text-anchor="middle" x="196.27" y="-7" font-family="Helvetica,sans-Serif" font-size="10.00">math.h</text>
</a>
</g>
</g>
<!-- Node5&#45;&gt;Node6 -->
<g id="edge6" class="edge">
<title>Node5&#45;&gt;Node6</title>
<path fill="none" stroke="#63b8ff" d="M196.27,-60.37C196.27,-52.5 196.27,-40.6 196.27,-30.39"/>
<polygon fill="#63b8ff" stroke="#63b8ff" points="199.77,-30.68 196.27,-20.68 192.77,-30.68 199.77,-30.68"/>
</g>
<!-- Node7 -->
<g id="node7" class="node">
<title>Node7</title>
<g id="a_node7"><a xlink:title=" ">
<polygon fill="#e0e0e0" stroke="#999999" points="284.27,-19 238.27,-19 238.27,0 284.27,0 284.27,-19"/>
<text text-anchor="middle" x="261.27" y="-7" font-family="Helvetica,sans-Serif" font-size="10.00">stdio.h</text>
</a>
</g>
</g>
<!-- Node5&#45;&gt;Node7 -->
<g id="edge7" class="edge">
<title>Node5&#45;&gt;Node7</title>
<path fill="none" stroke="#63b8ff" d="M206.14,-60.12C215.88,-51.35 230.99,-37.75 242.93,-27"/>
<polygon fill="#63b8ff" stroke="#63b8ff" points="245.09,-29.77 250.18,-20.48 240.41,-24.57 245.09,-29.77"/>
</g>
<!-- Node8 -->
<g id="node8" class="node">
<title>Node8</title>
<g id="a_node8"><a xlink:title=" ">
<polygon fill="#e0e0e0" stroke="#999999" points="351.77,-19 302.77,-19 302.77,0 351.77,0 351.77,-19"/>
<text text-anchor="middle" x="327.27" y="-7" font-family="Helvetica,sans-Serif" font-size="10.00">string.h</text>
</a>
</g>
</g>
<!-- Node5&#45;&gt;Node8 -->
<g id="edge9" class="edge">
<title>Node5&#45;&gt;Node8</title>
<path fill="none" stroke="#63b8ff" d="M215.94,-60.1C219.7,-58.4 223.61,-56.64 227.27,-55 250.68,-44.51 277.21,-32.7 297.06,-23.89"/>
<polygon fill="#63b8ff" stroke="#63b8ff" points="298.23,-27.2 305.95,-19.95 295.39,-20.8 298.23,-27.2"/>
</g>
</g>
</svg>
