<?xml version="1.0" encoding="UTF-8" standalone="no"?>
<!DOCTYPE svg PUBLIC "-//W3C//DTD SVG 1.1//EN"
 "http://www.w3.org/Graphics/SVG/1.1/DTD/svg11.dtd">
<!-- Generated by graphviz version 7.0.2 (20221119.0110)
 -->
<!-- Title: Graphical Class Hierarchy Pages: 1 -->
<svg width="310pt" height="64pt"
 viewBox="0.00 0.00 310.00 64.00" xmlns="http://www.w3.org/2000/svg" xmlns:xlink="http://www.w3.org/1999/xlink">
<g id="graph0" class="graph" transform="scale(1 1) rotate(0) translate(4 60)">
<title>Graphical Class Hierarchy</title>
<!-- Node0 -->
<g id="node1" class="node">
<title>Node0</title>
<g id="a_node1"><a xlink:href="class_machine.html" target="_top" xlink:title="Clase para base para la implementaci칩n de una m치quina de estados finita.">
<polygon fill="white" stroke="#666666" points="181,-56 128,-56 128,-37 181,-37 181,-56"/>
<text text-anchor="middle" x="154.5" y="-44" font-family="Helvetica,sans-Serif" font-size="10.00">Machine</text>
</a>
</g>
</g>
<!-- Node1 -->
<g id="node2" class="node">
<title>Node1</title>
<g id="a_node2"><a xlink:href="class_control__system.html" target="_top" xlink:title="Clase control_system. Tiene de clases amigas todos los estados del sistema.">
<polygon fill="white" stroke="#666666" points="302,-37 217,-37 217,-18 302,-18 302,-37"/>
<text text-anchor="middle" x="259.5" y="-25" font-family="Helvetica,sans-Serif" font-size="10.00">Control_system</text>
</a>
</g>
</g>
<!-- Node0&#45;&gt;Node1 -->
<g id="edge1" class="edge">
<title>Node0&#45;&gt;Node1</title>
<path fill="none" stroke="#63b8ff" d="M192.59,-39.66C200.47,-38.2 208.85,-36.66 216.88,-35.18"/>
<polygon fill="#63b8ff" stroke="#63b8ff" points="192.18,-36.17 182.98,-41.43 193.45,-43.06 192.18,-36.17"/>
</g>
<!-- Node3 -->
<g id="node3" class="node">
<title>Node3</title>
<g id="a_node3"><a xlink:href="class_subject__interface.html" target="_top" xlink:title="Clase interfaz para implementar el patr칩n de dise침o Observer.">
<polygon fill="white" stroke="#666666" points="92,-19 0,-19 0,0 92,0 92,-19"/>
<text text-anchor="middle" x="46" y="-7" font-family="Helvetica,sans-Serif" font-size="10.00">Subject_interface</text>
</a>
</g>
</g>
<!-- Node2 -->
<g id="node4" class="node">
<title>Node2</title>
<g id="a_node4"><a xlink:href="class_subject.html" target="_top" xlink:title="Clase base para crear sujetos a observar, hereda de la interfaz Subject_interface.">
<polygon fill="white" stroke="#666666" points="179.5,-19 129.5,-19 129.5,0 179.5,0 179.5,-19"/>
<text text-anchor="middle" x="154.5" y="-7" font-family="Helvetica,sans-Serif" font-size="10.00">Subject</text>
</a>
</g>
</g>
<!-- Node3&#45;&gt;Node2 -->
<g id="edge2" class="edge">
<title>Node3&#45;&gt;Node2</title>
<path fill="none" stroke="#63b8ff" d="M103.73,-9.5C112.63,-9.5 121.39,-9.5 129.02,-9.5"/>
<polygon fill="#63b8ff" stroke="#63b8ff" points="103.99,-6 93.99,-9.5 103.99,-13 103.99,-6"/>
</g>
<!-- Node2&#45;&gt;Node1 -->
<g id="edge3" class="edge">
<title>Node2&#45;&gt;Node1</title>
<path fill="none" stroke="#63b8ff" d="M191.03,-15.71C199.25,-17.15 208.07,-18.69 216.54,-20.17"/>
<polygon fill="#63b8ff" stroke="#63b8ff" points="191.85,-12.3 181.4,-14.03 190.65,-19.2 191.85,-12.3"/>
</g>
</g>
</svg>
