<?xml version="1.0" encoding="UTF-8" standalone="no"?>
<!DOCTYPE svg PUBLIC "-//W3C//DTD SVG 1.1//EN"
 "http://www.w3.org/Graphics/SVG/1.1/DTD/svg11.dtd">
<!-- Generated by graphviz version 7.0.2 (20221119.0110)
 -->
<!-- Title: Graphical Class Hierarchy Pages: 1 -->
<svg width="472pt" height="101pt"
 viewBox="0.00 0.00 472.00 101.00" xmlns="http://www.w3.org/2000/svg" xmlns:xlink="http://www.w3.org/1999/xlink">
<g id="graph0" class="graph" transform="scale(1 1) rotate(0) translate(4 97)">
<title>Graphical Class Hierarchy</title>
<!-- Node0 -->
<g id="node1" class="node">
<title>Node0</title>
<g id="a_node1"><a xlink:href="class_observer__interface.html" target="_top" xlink:title="Interfaz para implementar el patrón de diseño Observer.">
<polygon fill="white" stroke="#666666" points="97,-56 0,-56 0,-37 97,-37 97,-56"/>
<text text-anchor="middle" x="48.5" y="-44" font-family="Helvetica,sans-Serif" font-size="10.00">Observer_interface</text>
</a>
</g>
</g>
<!-- Node1 -->
<g id="node2" class="node">
<title>Node1</title>
<g id="a_node2"><a xlink:href="class_observer.html" target="_top" xlink:title="Clase Observer, utilizada como base del observador en una implementación del patrón de diseño Observe...">
<polygon fill="white" stroke="#666666" points="188,-56 133,-56 133,-37 188,-37 188,-56"/>
<text text-anchor="middle" x="160.5" y="-44" font-family="Helvetica,sans-Serif" font-size="10.00">Observer</text>
</a>
</g>
</g>
<!-- Node0&#45;&gt;Node1 -->
<g id="edge1" class="edge">
<title>Node0&#45;&gt;Node1</title>
<path fill="none" stroke="#63b8ff" d="M108.78,-46.5C117.1,-46.5 125.29,-46.5 132.57,-46.5"/>
<polygon fill="#63b8ff" stroke="#63b8ff" points="108.94,-43 98.94,-46.5 108.94,-50 108.94,-43"/>
</g>
<!-- Node2 -->
<g id="node3" class="node">
<title>Node2</title>
<g id="a_node3"><a xlink:href="class_system__observer.html" target="_top" xlink:title="Clase interfaz para implementar observadores para sujetos de la clase Control_system.">
<polygon fill="white" stroke="#666666" points="316,-56 224,-56 224,-37 316,-37 316,-56"/>
<text text-anchor="middle" x="270" y="-44" font-family="Helvetica,sans-Serif" font-size="10.00">System_observer</text>
</a>
</g>
</g>
<!-- Node1&#45;&gt;Node2 -->
<g id="edge2" class="edge">
<title>Node1&#45;&gt;Node2</title>
<path fill="none" stroke="#63b8ff" d="M199.68,-46.5C207.45,-46.5 215.7,-46.5 223.69,-46.5"/>
<polygon fill="#63b8ff" stroke="#63b8ff" points="199.86,-43 189.86,-46.5 199.86,-50 199.86,-43"/>
</g>
<!-- Node3 -->
<g id="node4" class="node">
<title>Node3</title>
<g id="a_node4"><a xlink:href="class_cooler__observer.html" target="_top" xlink:title="Clase heredera de System_observer, creada para observar el estado de las instrucciones.">
<polygon fill="white" stroke="#666666" points="451,-93 365,-93 365,-74 451,-74 451,-93"/>
<text text-anchor="middle" x="408" y="-81" font-family="Helvetica,sans-Serif" font-size="10.00">Cooler_observer</text>
</a>
</g>
</g>
<!-- Node2&#45;&gt;Node3 -->
<g id="edge3" class="edge">
<title>Node2&#45;&gt;Node3</title>
<path fill="none" stroke="#63b8ff" d="M318.34,-59.38C335.43,-64.03 354.43,-69.2 370.45,-73.56"/>
<polygon fill="#63b8ff" stroke="#63b8ff" points="319.47,-56.06 308.91,-56.81 317.64,-62.82 319.47,-56.06"/>
</g>
<!-- Node4 -->
<g id="node5" class="node">
<title>Node4</title>
<g id="a_node5"><a xlink:href="class_moisture__observer.html" target="_top" xlink:title="Clase heredera de System_observer, creada para observar el estado de los sensores de humedad.">
<polygon fill="white" stroke="#666666" points="455.5,-56 360.5,-56 360.5,-37 455.5,-37 455.5,-56"/>
<text text-anchor="middle" x="408" y="-44" font-family="Helvetica,sans-Serif" font-size="10.00">Moisture_observer</text>
</a>
</g>
</g>
<!-- Node2&#45;&gt;Node4 -->
<g id="edge4" class="edge">
<title>Node2&#45;&gt;Node4</title>
<path fill="none" stroke="#63b8ff" d="M327.75,-46.5C338.5,-46.5 349.64,-46.5 360.05,-46.5"/>
<polygon fill="#63b8ff" stroke="#63b8ff" points="327.8,-43 317.8,-46.5 327.8,-50 327.8,-43"/>
</g>
<!-- Node5 -->
<g id="node6" class="node">
<title>Node5</title>
<g id="a_node6"><a xlink:href="class_temperature__observer.html" target="_top" xlink:title="Clase heredera de System_observer, creada para observar el estado de los sensores de temperatura.">
<polygon fill="white" stroke="#666666" points="464,-19 352,-19 352,0 464,0 464,-19"/>
<text text-anchor="middle" x="408" y="-7" font-family="Helvetica,sans-Serif" font-size="10.00">Temperature_observer</text>
</a>
</g>
</g>
<!-- Node2&#45;&gt;Node5 -->
<g id="edge5" class="edge">
<title>Node2&#45;&gt;Node5</title>
<path fill="none" stroke="#63b8ff" d="M318.34,-33.62C335.43,-28.97 354.43,-23.8 370.45,-19.44"/>
<polygon fill="#63b8ff" stroke="#63b8ff" points="317.64,-30.18 308.91,-36.19 319.47,-36.94 317.64,-30.18"/>
</g>
</g>
</svg>
