<?xml version="1.0" encoding="UTF-8" standalone="no"?>
<!DOCTYPE svg PUBLIC "-//W3C//DTD SVG 1.1//EN"
 "http://www.w3.org/Graphics/SVG/1.1/DTD/svg11.dtd">
<!-- Generated by graphviz version 7.0.2 (20221119.0110)
 -->
<!-- Title: C:/Users/juanh/OneDrive/Escritorio/Facultad/Beca/Proyecto/LAL Control Arduino/include/main.h Pages: 1 -->
<svg width="2016pt" height="489pt"
 viewBox="0.00 0.00 2016.10 489.00" xmlns="http://www.w3.org/2000/svg" xmlns:xlink="http://www.w3.org/1999/xlink">
<g id="graph0" class="graph" transform="scale(1 1) rotate(0) translate(4 485)">
<title>C:/Users/juanh/OneDrive/Escritorio/Facultad/Beca/Proyecto/LAL Control Arduino/include/main.h</title>
<!-- Node1 -->
<g id="node1" class="node">
<title>Node1</title>
<g id="a_node1"><a xlink:title="Archivo principal del programa.">
<polygon fill="#999999" stroke="#666666" points="1817.34,-481 1668.34,-481 1668.34,-429 1817.34,-429 1817.34,-481"/>
<text text-anchor="start" x="1676.34" y="-469" font-family="Helvetica,sans-Serif" font-size="10.00">C:/Users/juanh/OneDrive</text>
<text text-anchor="start" x="1676.34" y="-458" font-family="Helvetica,sans-Serif" font-size="10.00">/Escritorio/Facultad/Beca</text>
<text text-anchor="start" x="1676.34" y="-447" font-family="Helvetica,sans-Serif" font-size="10.00">/Proyecto/LAL Control Arduino</text>
<text text-anchor="middle" x="1742.84" y="-436" font-family="Helvetica,sans-Serif" font-size="10.00">/include/main.h</text>
</a>
</g>
</g>
<!-- Node2 -->
<g id="node2" class="node">
<title>Node2</title>
<g id="a_node2"><a xlink:title=" ">
<polygon fill="#e0e0e0" stroke="#999999" points="1414.84,-184 1356.84,-184 1356.84,-165 1414.84,-165 1414.84,-184"/>
<text text-anchor="middle" x="1385.84" y="-172" font-family="Helvetica,sans-Serif" font-size="10.00">Arduino.h</text>
</a>
</g>
</g>
<!-- Node1&#45;&gt;Node2 -->
<g id="edge1" class="edge">
<title>Node1&#45;&gt;Node2</title>
<path fill="none" stroke="#63b8ff" d="M1817.69,-443.22C1905.26,-426.74 2034.03,-388.35 1997.84,-308 1976.64,-260.92 1958.42,-251.07 1910.84,-231 1710.87,-146.65 1632.79,-253.72 1423.84,-195 1419.11,-193.67 1414.27,-191.72 1409.71,-189.56"/>
<polygon fill="#63b8ff" stroke="#63b8ff" points="1411.55,-186.57 1401.06,-185.03 1408.3,-192.77 1411.55,-186.57"/>
</g>
<!-- Node3 -->
<g id="node3" class="node">
<title>Node3</title>
<g id="a_node3"><a xlink:href="_control__system_8h.html" target="_top" xlink:title="Clase para el sistema de control.">
<polygon fill="white" stroke="#666666" points="1094.34,-327 1001.34,-327 1001.34,-308 1094.34,-308 1094.34,-327"/>
<text text-anchor="middle" x="1047.84" y="-315" font-family="Helvetica,sans-Serif" font-size="10.00">Control_system.h</text>
</a>
</g>
</g>
<!-- Node1&#45;&gt;Node3 -->
<g id="edge2" class="edge">
<title>Node1&#45;&gt;Node3</title>
<path fill="none" stroke="#63b8ff" d="M1668.05,-439.84C1603.38,-427.57 1507.42,-409.27 1423.84,-393 1310.22,-370.88 1177.41,-344.42 1103.95,-329.74"/>
<polygon fill="#63b8ff" stroke="#63b8ff" points="1104.66,-326.31 1094.16,-327.78 1103.28,-333.17 1104.66,-326.31"/>
</g>
<!-- Node14 -->
<g id="node14" class="node">
<title>Node14</title>
<g id="a_node14"><a xlink:href="system__settings_8h.html" target="_top" xlink:title="Archivo para la definición de constantes del sistema.">
<polygon fill="white" stroke="#666666" points="1338.34,-184 1241.34,-184 1241.34,-165 1338.34,-165 1338.34,-184"/>
<text text-anchor="middle" x="1289.84" y="-172" font-family="Helvetica,sans-Serif" font-size="10.00">system_settings.h</text>
</a>
</g>
</g>
<!-- Node1&#45;&gt;Node14 -->
<g id="edge55" class="edge">
<title>Node1&#45;&gt;Node14</title>
<path fill="none" stroke="#63b8ff" d="M1747.5,-428.83C1754.5,-382.25 1761.66,-282.62 1706.84,-231 1648.47,-176.03 1426.22,-211.88 1347.84,-195 1339.8,-193.27 1331.31,-190.8 1323.38,-188.19"/>
<polygon fill="#63b8ff" stroke="#63b8ff" points="1324.68,-184.94 1314.09,-184.98 1322.39,-191.56 1324.68,-184.94"/>
</g>
<!-- Node33 -->
<g id="node33" class="node">
<title>Node33</title>
<g id="a_node33"><a xlink:href="interrupts_8h.html" target="_top" xlink:title="Configuración de interrupciones.">
<polygon fill="white" stroke="#666666" points="1988.34,-327 1923.34,-327 1923.34,-308 1988.34,-308 1988.34,-327"/>
<text text-anchor="middle" x="1955.84" y="-315" font-family="Helvetica,sans-Serif" font-size="10.00">interrupts.h</text>
</a>
</g>
</g>
<!-- Node1&#45;&gt;Node33 -->
<g id="edge56" class="edge">
<title>Node1&#45;&gt;Node33</title>
<path fill="none" stroke="#63b8ff" d="M1817.57,-438.97C1849.23,-429.75 1884.94,-415.29 1911.84,-393 1929.53,-378.35 1941.78,-354.62 1948.79,-337.89"/>
<polygon fill="#63b8ff" stroke="#63b8ff" points="1952.04,-339.17 1952.41,-328.58 1945.52,-336.63 1952.04,-339.17"/>
</g>
<!-- Node34 -->
<g id="node34" class="node">
<title>Node34</title>
<g id="a_node34"><a xlink:href="_temperature__observer_8h.html" target="_top" xlink:title="Observador del sensor de temperatura.">
<polygon fill="white" stroke="#666666" points="1902.84,-393 1770.84,-393 1770.84,-363 1902.84,-363 1902.84,-393"/>
<text text-anchor="start" x="1778.84" y="-381" font-family="Helvetica,sans-Serif" font-size="10.00">observer_pattern/observers</text>
<text text-anchor="middle" x="1836.84" y="-370" font-family="Helvetica,sans-Serif" font-size="10.00">/Temperature_observer.h</text>
</a>
</g>
</g>
<!-- Node1&#45;&gt;Node34 -->
<g id="edge58" class="edge">
<title>Node1&#45;&gt;Node34</title>
<path fill="none" stroke="#63b8ff" d="M1774.67,-428.61C1786.15,-419.45 1798.99,-409.2 1810.01,-400.41"/>
<polygon fill="#63b8ff" stroke="#63b8ff" points="1811.94,-403.34 1817.58,-394.37 1807.58,-397.87 1811.94,-403.34"/>
</g>
<!-- Node35 -->
<g id="node35" class="node">
<title>Node35</title>
<g id="a_node35"><a xlink:href="_moisture__observer_8h.html" target="_top" xlink:title="Observador del sensor de temperatura.">
<polygon fill="white" stroke="#666666" points="1714.84,-393 1582.84,-393 1582.84,-363 1714.84,-363 1714.84,-393"/>
<text text-anchor="start" x="1590.84" y="-381" font-family="Helvetica,sans-Serif" font-size="10.00">observer_pattern/observers</text>
<text text-anchor="middle" x="1648.84" y="-370" font-family="Helvetica,sans-Serif" font-size="10.00">/Moisture_observer.h</text>
</a>
</g>
</g>
<!-- Node1&#45;&gt;Node35 -->
<g id="edge64" class="edge">
<title>Node1&#45;&gt;Node35</title>
<path fill="none" stroke="#63b8ff" d="M1711.02,-428.61C1699.53,-419.45 1686.7,-409.2 1675.68,-400.41"/>
<polygon fill="#63b8ff" stroke="#63b8ff" points="1678.11,-397.87 1668.11,-394.37 1673.74,-403.34 1678.11,-397.87"/>
</g>
<!-- Node36 -->
<g id="node36" class="node">
<title>Node36</title>
<g id="a_node36"><a xlink:href="_cooler__observer_8h_source.html" target="_top" xlink:title=" ">
<polygon fill="white" stroke="#666666" points="1564.84,-393 1432.84,-393 1432.84,-363 1564.84,-363 1564.84,-393"/>
<text text-anchor="start" x="1440.84" y="-381" font-family="Helvetica,sans-Serif" font-size="10.00">observer_pattern/observers</text>
<text text-anchor="middle" x="1498.84" y="-370" font-family="Helvetica,sans-Serif" font-size="10.00">/Cooler_observer.h</text>
</a>
</g>
</g>
<!-- Node1&#45;&gt;Node36 -->
<g id="edge70" class="edge">
<title>Node1&#45;&gt;Node36</title>
<path fill="none" stroke="#63b8ff" d="M1667.98,-430.99C1632.23,-420 1590.11,-407.05 1556.84,-396.83"/>
<polygon fill="#63b8ff" stroke="#63b8ff" points="1557.96,-393.51 1547.37,-393.92 1555.9,-400.2 1557.96,-393.51"/>
</g>
<!-- Node4 -->
<g id="node4" class="node">
<title>Node4</title>
<g id="a_node4"><a xlink:href="_subject_8h.html" target="_top" xlink:title=" ">
<polygon fill="white" stroke="#666666" points="1560.84,-189.5 1432.84,-189.5 1432.84,-159.5 1560.84,-159.5 1560.84,-189.5"/>
<text text-anchor="start" x="1440.84" y="-177.5" font-family="Helvetica,sans-Serif" font-size="10.00">observer_pattern/subjects</text>
<text text-anchor="middle" x="1496.84" y="-166.5" font-family="Helvetica,sans-Serif" font-size="10.00">/Subject.h</text>
</a>
</g>
</g>
<!-- Node3&#45;&gt;Node4 -->
<g id="edge3" class="edge">
<title>Node3&#45;&gt;Node4</title>
<path fill="none" stroke="#63b8ff" d="M1094.68,-317.33C1190.09,-318.11 1402.71,-314.83 1458.84,-272 1480.95,-255.14 1490.21,-223.51 1494.08,-201.06"/>
<polygon fill="#63b8ff" stroke="#63b8ff" points="1497.54,-201.59 1495.51,-191.19 1490.62,-200.58 1497.54,-201.59"/>
</g>
<!-- Node7 -->
<g id="node7" class="node">
<title>Node7</title>
<g id="a_node7"><a xlink:href="_machine_8h.html" target="_top" xlink:title="Clase de máquina abstracta.">
<polygon fill="white" stroke="#666666" points="555.84,-112.5 439.84,-112.5 439.84,-82.5 555.84,-82.5 555.84,-112.5"/>
<text text-anchor="start" x="447.84" y="-100.5" font-family="Helvetica,sans-Serif" font-size="10.00">machine_state_pattern</text>
<text text-anchor="middle" x="497.84" y="-89.5" font-family="Helvetica,sans-Serif" font-size="10.00">/Machine.h</text>
</a>
</g>
</g>
<!-- Node3&#45;&gt;Node7 -->
<g id="edge6" class="edge">
<title>Node3&#45;&gt;Node7</title>
<path fill="none" stroke="#63b8ff" d="M1001.11,-314.29C904.33,-309.25 689.01,-295.51 665.84,-272 628.84,-234.45 686.38,-195.48 653.84,-154 632.97,-127.39 598.35,-113.52 567.01,-106.3"/>
<polygon fill="#63b8ff" stroke="#63b8ff" points="568.08,-102.94 557.57,-104.32 566.64,-109.8 568.08,-102.94"/>
</g>
<!-- Node9 -->
<g id="node9" class="node">
<title>Node9</title>
<g id="a_node9"><a xlink:href="_display_8h.html" target="_top" xlink:title="Controlador de LCD hd44780 por interfaz I2C.">
<polygon fill="white" stroke="#666666" points="565.84,-261 477.84,-261 477.84,-242 565.84,-242 565.84,-261"/>
<text text-anchor="middle" x="521.84" y="-249" font-family="Helvetica,sans-Serif" font-size="10.00">drivers/Display.h</text>
</a>
</g>
</g>
<!-- Node3&#45;&gt;Node9 -->
<g id="edge8" class="edge">
<title>Node3&#45;&gt;Node9</title>
<path fill="none" stroke="#63b8ff" d="M1001.04,-312.51C924.05,-305.72 765.94,-290.8 632.84,-272 614.81,-269.45 595.21,-266.18 577.57,-263.04"/>
<polygon fill="#63b8ff" stroke="#63b8ff" points="578.25,-259.61 567.78,-261.28 577,-266.5 578.25,-259.61"/>
</g>
<!-- Node15 -->
<g id="node15" class="node">
<title>Node15</title>
<g id="a_node15"><a xlink:href="user__messages_8h.html" target="_top" xlink:title="Archivo para la configuración de interfaz con el usuario.">
<polygon fill="white" stroke="#666666" points="768.84,-261 674.84,-261 674.84,-242 768.84,-242 768.84,-261"/>
<text text-anchor="middle" x="721.84" y="-249" font-family="Helvetica,sans-Serif" font-size="10.00">user_messages.h</text>
</a>
</g>
</g>
<!-- Node3&#45;&gt;Node15 -->
<g id="edge14" class="edge">
<title>Node3&#45;&gt;Node15</title>
<path fill="none" stroke="#63b8ff" d="M1001,-311.26C946.75,-304.62 854.96,-291.63 777.84,-272 770.49,-270.13 762.73,-267.72 755.4,-265.23"/>
<polygon fill="#63b8ff" stroke="#63b8ff" points="756.75,-262 746.16,-261.97 754.42,-268.6 756.75,-262"/>
</g>
<!-- Node17 -->
<g id="node17" class="node">
<title>Node17</title>
<g id="a_node17"><a xlink:href="_system__observer_8h.html" target="_top" xlink:title="Clase observador del sistema de control.">
<polygon fill="white" stroke="#666666" points="1676.84,-266.5 1544.84,-266.5 1544.84,-236.5 1676.84,-236.5 1676.84,-266.5"/>
<text text-anchor="start" x="1552.84" y="-254.5" font-family="Helvetica,sans-Serif" font-size="10.00">observer_pattern/observers</text>
<text text-anchor="middle" x="1610.84" y="-243.5" font-family="Helvetica,sans-Serif" font-size="10.00">/System_observer.h</text>
</a>
</g>
</g>
<!-- Node3&#45;&gt;Node17 -->
<g id="edge16" class="edge">
<title>Node3&#45;&gt;Node17</title>
<path fill="none" stroke="#63b8ff" d="M1094.51,-314.22C1179.9,-309.76 1366.32,-297.97 1521.84,-272 1526.44,-271.23 1531.17,-270.34 1535.94,-269.38"/>
<polygon fill="#63b8ff" stroke="#63b8ff" points="1536.55,-272.82 1545.6,-267.32 1535.09,-265.98 1536.55,-272.82"/>
</g>
<!-- Node19 -->
<g id="node19" class="node">
<title>Node19</title>
<g id="a_node19"><a xlink:href="_temperature__sensor_8h.html" target="_top" xlink:title="Controlador para sensor de temperatura DS18B20.">
<polygon fill="white" stroke="#666666" points="888.34,-266.5 787.34,-266.5 787.34,-236.5 888.34,-236.5 888.34,-266.5"/>
<text text-anchor="start" x="795.34" y="-254.5" font-family="Helvetica,sans-Serif" font-size="10.00">drivers/Temperature</text>
<text text-anchor="middle" x="837.84" y="-243.5" font-family="Helvetica,sans-Serif" font-size="10.00">_sensor.h</text>
</a>
</g>
</g>
<!-- Node3&#45;&gt;Node19 -->
<g id="edge21" class="edge">
<title>Node3&#45;&gt;Node19</title>
<path fill="none" stroke="#63b8ff" d="M1016.75,-307.53C986.36,-298.7 938.83,-284.74 897.84,-272 896.13,-271.47 894.39,-270.92 892.63,-270.37"/>
<polygon fill="#63b8ff" stroke="#63b8ff" points="893.74,-267.05 883.15,-267.36 891.63,-273.72 893.74,-267.05"/>
</g>
<!-- Node22 -->
<g id="node22" class="node">
<title>Node22</title>
<g id="a_node22"><a xlink:href="_moisture__sensor_8h.html" target="_top" xlink:title="Controlador de sensor de humedad analógico.">
<polygon fill="white" stroke="#666666" points="1338.84,-261 1210.84,-261 1210.84,-242 1338.84,-242 1338.84,-261"/>
<text text-anchor="middle" x="1274.84" y="-249" font-family="Helvetica,sans-Serif" font-size="10.00">drivers/Moisture_sensor.h</text>
</a>
</g>
</g>
<!-- Node3&#45;&gt;Node22 -->
<g id="edge25" class="edge">
<title>Node3&#45;&gt;Node22</title>
<path fill="none" stroke="#63b8ff" d="M1079.41,-307.6C1119.19,-296.38 1187.73,-277.06 1232.16,-264.53"/>
<polygon fill="#63b8ff" stroke="#63b8ff" points="1233.05,-267.92 1241.73,-261.84 1231.15,-261.18 1233.05,-267.92"/>
</g>
<!-- Node23 -->
<g id="node23" class="node">
<title>Node23</title>
<g id="a_node23"><a xlink:href="types_8h.html" target="_top" xlink:title="Archivo de definición de tipos de dato.">
<polygon fill="white" stroke="#666666" points="1876.34,-184 1827.34,-184 1827.34,-165 1876.34,-165 1876.34,-184"/>
<text text-anchor="middle" x="1851.84" y="-172" font-family="Helvetica,sans-Serif" font-size="10.00">types.h</text>
</a>
</g>
</g>
<!-- Node3&#45;&gt;Node23 -->
<g id="edge27" class="edge">
<title>Node3&#45;&gt;Node23</title>
<path fill="none" stroke="#63b8ff" d="M1094.47,-315.22C1192.56,-311.97 1416.96,-301.46 1486.84,-272 1513.01,-260.97 1510.1,-242.97 1535.84,-231 1561,-219.3 1738.46,-192.19 1815.87,-180.74"/>
<polygon fill="#63b8ff" stroke="#63b8ff" points="1816.09,-184.25 1825.47,-179.33 1815.07,-177.33 1816.09,-184.25"/>
</g>
<!-- Node24 -->
<g id="node24" class="node">
<title>Node24</title>
<g id="a_node24"><a xlink:href="_buzzer_8h.html" target="_top" xlink:title="Controlador de Buzzer de 12 milimetros.">
<polygon fill="white" stroke="#666666" points="1090.84,-261 1004.84,-261 1004.84,-242 1090.84,-242 1090.84,-261"/>
<text text-anchor="middle" x="1047.84" y="-249" font-family="Helvetica,sans-Serif" font-size="10.00">drivers/Buzzer.h</text>
</a>
</g>
</g>
<!-- Node3&#45;&gt;Node24 -->
<g id="edge28" class="edge">
<title>Node3&#45;&gt;Node24</title>
<path fill="none" stroke="#63b8ff" d="M1047.84,-307.6C1047.84,-298.62 1047.84,-284.45 1047.84,-272.72"/>
<polygon fill="#63b8ff" stroke="#63b8ff" points="1051.34,-272.84 1047.84,-262.84 1044.34,-272.84 1051.34,-272.84"/>
</g>
<!-- Node26 -->
<g id="node26" class="node">
<title>Node26</title>
<g id="a_node26"><a xlink:href="_motor_8h.html" target="_top" xlink:title="Controlador de motor de 220 VAC.">
<polygon fill="white" stroke="#666666" points="986.84,-261 906.84,-261 906.84,-242 986.84,-242 986.84,-261"/>
<text text-anchor="middle" x="946.84" y="-249" font-family="Helvetica,sans-Serif" font-size="10.00">drivers/Motor.h</text>
</a>
</g>
</g>
<!-- Node3&#45;&gt;Node26 -->
<g id="edge31" class="edge">
<title>Node3&#45;&gt;Node26</title>
<path fill="none" stroke="#63b8ff" d="M1033.8,-307.6C1017.37,-297.19 989.91,-279.79 970.24,-267.33"/>
<polygon fill="#63b8ff" stroke="#63b8ff" points="972.37,-264.53 962.05,-262.13 968.62,-270.44 972.37,-264.53"/>
</g>
<!-- Node27 -->
<g id="node27" class="node">
<title>Node27</title>
<g id="a_node27"><a xlink:href="_dual___l_e_d_8h.html" target="_top" xlink:title="Controlador de LED RG.">
<polygon fill="white" stroke="#666666" points="1450.34,-261 1357.34,-261 1357.34,-242 1450.34,-242 1450.34,-261"/>
<text text-anchor="middle" x="1403.84" y="-249" font-family="Helvetica,sans-Serif" font-size="10.00">drivers/Dual_led.h</text>
</a>
</g>
</g>
<!-- Node3&#45;&gt;Node27 -->
<g id="edge34" class="edge">
<title>Node3&#45;&gt;Node27</title>
<path fill="none" stroke="#63b8ff" d="M1094.62,-312.31C1154.09,-306.36 1259.65,-293.69 1347.84,-272 1355.28,-270.17 1363.12,-267.76 1370.5,-265.26"/>
<polygon fill="#63b8ff" stroke="#63b8ff" points="1371.56,-268.6 1379.82,-261.96 1369.23,-262 1371.56,-268.6"/>
</g>
<!-- Node28 -->
<g id="node28" class="node">
<title>Node28</title>
<g id="a_node28"><a xlink:href="_cooler_8h.html" target="_top" xlink:title="Controlador de ventilador de 12 volts y 5 milímteros.">
<polygon fill="white" stroke="#666666" points="1192.34,-261 1109.34,-261 1109.34,-242 1192.34,-242 1192.34,-261"/>
<text text-anchor="middle" x="1150.84" y="-249" font-family="Helvetica,sans-Serif" font-size="10.00">drivers/Cooler.h</text>
</a>
</g>
</g>
<!-- Node3&#45;&gt;Node28 -->
<g id="edge38" class="edge">
<title>Node3&#45;&gt;Node28</title>
<path fill="none" stroke="#63b8ff" d="M1062.17,-307.6C1078.92,-297.19 1106.93,-279.79 1126.98,-267.33"/>
<polygon fill="#63b8ff" stroke="#63b8ff" points="1128.71,-270.37 1135.36,-262.12 1125.02,-264.43 1128.71,-270.37"/>
</g>
<!-- Node29 -->
<g id="node29" class="node">
<title>Node29</title>
<g id="a_node29"><a xlink:href="_shutdown__state_8h.html" target="_top" xlink:title="Clase de estado de apagado del sistema.">
<polygon fill="white" stroke="#666666" points="290.84,-272 156.84,-272 156.84,-231 290.84,-231 290.84,-272"/>
<text text-anchor="start" x="164.84" y="-260" font-family="Helvetica,sans-Serif" font-size="10.00">machine_state_pattern</text>
<text text-anchor="start" x="164.84" y="-249" font-family="Helvetica,sans-Serif" font-size="10.00">/machine_states/Shutdown</text>
<text text-anchor="middle" x="223.84" y="-238" font-family="Helvetica,sans-Serif" font-size="10.00">_state.h</text>
</a>
</g>
</g>
<!-- Node3&#45;&gt;Node29 -->
<g id="edge41" class="edge">
<title>Node3&#45;&gt;Node29</title>
<path fill="none" stroke="#63b8ff" d="M1001.16,-315.71C885.07,-313.23 574.87,-303.79 318.84,-272 313.49,-271.33 307.99,-270.57 302.46,-269.72"/>
<polygon fill="#63b8ff" stroke="#63b8ff" points="303.06,-266.27 292.63,-268.15 301.95,-273.19 303.06,-266.27"/>
</g>
<!-- Node32 -->
<g id="node32" class="node">
<title>Node32</title>
<g id="a_node32"><a xlink:href="_check__instruction__state_8h_source.html" target="_top" xlink:title=" ">
<polygon fill="white" stroke="#666666" points="456.34,-272 337.34,-272 337.34,-231 456.34,-231 456.34,-272"/>
<text text-anchor="start" x="345.34" y="-260" font-family="Helvetica,sans-Serif" font-size="10.00">machine_state_pattern</text>
<text text-anchor="start" x="345.34" y="-249" font-family="Helvetica,sans-Serif" font-size="10.00">/machine_states/Check</text>
<text text-anchor="middle" x="396.84" y="-238" font-family="Helvetica,sans-Serif" font-size="10.00">_instruction_state.h</text>
</a>
</g>
</g>
<!-- Node3&#45;&gt;Node32 -->
<g id="edge51" class="edge">
<title>Node3&#45;&gt;Node32</title>
<path fill="none" stroke="#63b8ff" d="M1001.04,-315.96C902.64,-314.19 667.73,-306.56 468.05,-273.36"/>
<polygon fill="#63b8ff" stroke="#63b8ff" points="468.7,-269.92 458.26,-271.7 467.53,-276.82 468.7,-269.92"/>
</g>
<!-- Node5 -->
<g id="node5" class="node">
<title>Node5</title>
<g id="a_node5"><a xlink:href="_subject__interface_8h.html" target="_top" xlink:title="Clase para interfaz para implementar el sujeto.">
<polygon fill="white" stroke="#666666" points="1560.84,-112.5 1432.84,-112.5 1432.84,-82.5 1560.84,-82.5 1560.84,-112.5"/>
<text text-anchor="start" x="1440.84" y="-100.5" font-family="Helvetica,sans-Serif" font-size="10.00">observer_pattern/subjects</text>
<text text-anchor="middle" x="1496.84" y="-89.5" font-family="Helvetica,sans-Serif" font-size="10.00">/Subject_interface.h</text>
</a>
</g>
</g>
<!-- Node4&#45;&gt;Node5 -->
<g id="edge4" class="edge">
<title>Node4&#45;&gt;Node5</title>
<path fill="none" stroke="#63b8ff" d="M1496.84,-159.04C1496.84,-149.18 1496.84,-135.86 1496.84,-124.22"/>
<polygon fill="#63b8ff" stroke="#63b8ff" points="1500.34,-124.43 1496.84,-114.43 1493.34,-124.43 1500.34,-124.43"/>
</g>
<!-- Node6 -->
<g id="node6" class="node">
<title>Node6</title>
<g id="a_node6"><a xlink:href="_observer__interface_8h.html" target="_top" xlink:title="Clase para interfaz para implementar el observador.">
<polygon fill="white" stroke="#666666" points="1710.84,-112.5 1578.84,-112.5 1578.84,-82.5 1710.84,-82.5 1710.84,-112.5"/>
<text text-anchor="start" x="1586.84" y="-100.5" font-family="Helvetica,sans-Serif" font-size="10.00">observer_pattern/observers</text>
<text text-anchor="middle" x="1644.84" y="-89.5" font-family="Helvetica,sans-Serif" font-size="10.00">/Observer_interface.h</text>
</a>
</g>
</g>
<!-- Node4&#45;&gt;Node6 -->
<g id="edge5" class="edge">
<title>Node4&#45;&gt;Node6</title>
<path fill="none" stroke="#63b8ff" d="M1525.38,-159.04C1548.41,-147.37 1581.04,-130.83 1606.38,-117.99"/>
<polygon fill="#63b8ff" stroke="#63b8ff" points="1607.71,-121.24 1615.05,-113.6 1604.54,-115 1607.71,-121.24"/>
</g>
<!-- Node8 -->
<g id="node8" class="node">
<title>Node8</title>
<g id="a_node8"><a xlink:href="_abstract__state_8h.html" target="_top" xlink:title="Clase de estado abstracta.">
<polygon fill="white" stroke="#666666" points="260.84,-41 132.84,-41 132.84,0 260.84,0 260.84,-41"/>
<text text-anchor="start" x="140.84" y="-29" font-family="Helvetica,sans-Serif" font-size="10.00">machine_state_pattern</text>
<text text-anchor="start" x="140.84" y="-18" font-family="Helvetica,sans-Serif" font-size="10.00">/machine_states/Abstract</text>
<text text-anchor="middle" x="196.84" y="-7" font-family="Helvetica,sans-Serif" font-size="10.00">_state.h</text>
</a>
</g>
</g>
<!-- Node7&#45;&gt;Node8 -->
<g id="edge7" class="edge">
<title>Node7&#45;&gt;Node8</title>
<path fill="none" stroke="#63b8ff" d="M439.81,-82.04C392.14,-70.16 324.27,-53.25 272.37,-40.32"/>
<polygon fill="#63b8ff" stroke="#63b8ff" points="273.24,-36.93 262.69,-37.91 271.55,-43.72 273.24,-36.93"/>
</g>
<!-- Node10 -->
<g id="node10" class="node">
<title>Node10</title>
<g id="a_node10"><a xlink:title=" ">
<polygon fill="#e0e0e0" stroke="#999999" points="308.34,-184 263.34,-184 263.34,-165 308.34,-165 308.34,-184"/>
<text text-anchor="middle" x="285.84" y="-172" font-family="Helvetica,sans-Serif" font-size="10.00">Wire.h</text>
</a>
</g>
</g>
<!-- Node9&#45;&gt;Node10 -->
<g id="edge9" class="edge">
<title>Node9&#45;&gt;Node10</title>
<path fill="none" stroke="#63b8ff" d="M497.31,-241.57C487.3,-238.07 475.58,-234.15 464.84,-231 400.29,-212.09 379.96,-220.8 317.84,-195 314.58,-193.65 311.27,-191.99 308.07,-190.22"/>
<polygon fill="#63b8ff" stroke="#63b8ff" points="310.11,-187.36 299.74,-185.2 306.49,-193.36 310.11,-187.36"/>
</g>
<!-- Node11 -->
<g id="node11" class="node">
<title>Node11</title>
<g id="a_node11"><a xlink:title=" ">
<polygon fill="#e0e0e0" stroke="#999999" points="388.84,-184 326.84,-184 326.84,-165 388.84,-165 388.84,-184"/>
<text text-anchor="middle" x="357.84" y="-172" font-family="Helvetica,sans-Serif" font-size="10.00">hd44780.h</text>
</a>
</g>
</g>
<!-- Node9&#45;&gt;Node11 -->
<g id="edge10" class="edge">
<title>Node9&#45;&gt;Node11</title>
<path fill="none" stroke="#63b8ff" d="M501.56,-241.67C476.93,-230.88 434.17,-211.98 397.84,-195 393.98,-193.19 389.92,-191.26 385.92,-189.33"/>
<polygon fill="#63b8ff" stroke="#63b8ff" points="387.59,-186.25 377.07,-185.02 384.53,-192.55 387.59,-186.25"/>
</g>
<!-- Node12 -->
<g id="node12" class="node">
<title>Node12</title>
<g id="a_node12"><a xlink:title=" ">
<polygon fill="#e0e0e0" stroke="#999999" points="532.34,-189.5 407.34,-189.5 407.34,-159.5 532.34,-159.5 532.34,-189.5"/>
<text text-anchor="start" x="415.34" y="-177.5" font-family="Helvetica,sans-Serif" font-size="10.00">hd44780ioClass/hd44780</text>
<text text-anchor="middle" x="469.84" y="-166.5" font-family="Helvetica,sans-Serif" font-size="10.00">_I2Cexp.h</text>
</a>
</g>
</g>
<!-- Node9&#45;&gt;Node12 -->
<g id="edge11" class="edge">
<title>Node9&#45;&gt;Node12</title>
<path fill="none" stroke="#63b8ff" d="M515.67,-241.6C508.46,-231.2 496.23,-213.56 486.22,-199.12"/>
<polygon fill="#63b8ff" stroke="#63b8ff" points="489.17,-197.23 480.6,-191.01 483.42,-201.22 489.17,-197.23"/>
</g>
<!-- Node13 -->
<g id="node13" class="node">
<title>Node13</title>
<g id="a_node13"><a xlink:href="display__settings_8h.html" target="_top" xlink:title="Archivo de configuración de la pantalla.">
<polygon fill="white" stroke="#666666" points="645.34,-184 550.34,-184 550.34,-165 645.34,-165 645.34,-184"/>
<text text-anchor="middle" x="597.84" y="-172" font-family="Helvetica,sans-Serif" font-size="10.00">display_settings.h</text>
</a>
</g>
</g>
<!-- Node9&#45;&gt;Node13 -->
<g id="edge12" class="edge">
<title>Node9&#45;&gt;Node13</title>
<path fill="none" stroke="#63b8ff" d="M530.86,-241.6C543.2,-229.42 565.58,-207.33 581.06,-192.06"/>
<polygon fill="#63b8ff" stroke="#63b8ff" points="583.1,-194.96 587.76,-185.45 578.19,-189.98 583.1,-194.96"/>
</g>
<!-- Node9&#45;&gt;Node14 -->
<g id="edge13" class="edge">
<title>Node9&#45;&gt;Node14</title>
<path fill="none" stroke="#63b8ff" d="M566.21,-243.9C594.64,-239.82 632.37,-234.68 665.84,-231 855.16,-210.21 903.19,-212.38 1092.84,-195 1138.69,-190.8 1190.5,-185.65 1229.48,-181.7"/>
<polygon fill="#63b8ff" stroke="#63b8ff" points="1229.78,-185.19 1239.38,-180.7 1229.07,-178.23 1229.78,-185.19"/>
</g>
<!-- Node16 -->
<g id="node16" class="node">
<title>Node16</title>
<g id="a_node16"><a xlink:title=" ">
<polygon fill="#e0e0e0" stroke="#999999" points="787.34,-184 702.34,-184 702.34,-165 787.34,-165 787.34,-184"/>
<text text-anchor="middle" x="744.84" y="-172" font-family="Helvetica,sans-Serif" font-size="10.00">avr/pgmspace.h</text>
</a>
</g>
</g>
<!-- Node15&#45;&gt;Node16 -->
<g id="edge15" class="edge">
<title>Node15&#45;&gt;Node16</title>
<path fill="none" stroke="#63b8ff" d="M724.57,-241.6C728.07,-230.21 734.22,-210.16 738.83,-195.11"/>
<polygon fill="#63b8ff" stroke="#63b8ff" points="742.09,-196.42 741.67,-185.83 735.4,-194.37 742.09,-196.42"/>
</g>
<!-- Node17&#45;&gt;Node3 -->
<g id="edge20" class="edge">
<title>Node17&#45;&gt;Node3</title>
<path fill="none" stroke="#63b8ff" d="M1564.87,-267C1556.6,-268.89 1548.02,-270.63 1539.84,-272 1384.72,-297.91 1198.87,-309.7 1106.19,-314.18"/>
<polygon fill="#63b8ff" stroke="#63b8ff" points="1106.15,-310.68 1096.33,-314.64 1106.48,-317.67 1106.15,-310.68"/>
</g>
<!-- Node18 -->
<g id="node18" class="node">
<title>Node18</title>
<g id="a_node18"><a xlink:href="_observer_8h.html" target="_top" xlink:title="Clase observador.">
<polygon fill="white" stroke="#666666" points="1710.84,-189.5 1578.84,-189.5 1578.84,-159.5 1710.84,-159.5 1710.84,-189.5"/>
<text text-anchor="start" x="1586.84" y="-177.5" font-family="Helvetica,sans-Serif" font-size="10.00">observer_pattern/observers</text>
<text text-anchor="middle" x="1644.84" y="-166.5" font-family="Helvetica,sans-Serif" font-size="10.00">/Observer.h</text>
</a>
</g>
</g>
<!-- Node17&#45;&gt;Node18 -->
<g id="edge17" class="edge">
<title>Node17&#45;&gt;Node18</title>
<path fill="none" stroke="#63b8ff" d="M1617.4,-236.04C1622.01,-225.87 1628.29,-212.01 1633.68,-200.12"/>
<polygon fill="#63b8ff" stroke="#63b8ff" points="1636.74,-201.85 1637.68,-191.29 1630.37,-198.96 1636.74,-201.85"/>
</g>
<!-- Node18&#45;&gt;Node5 -->
<g id="edge18" class="edge">
<title>Node18&#45;&gt;Node5</title>
<path fill="none" stroke="#63b8ff" d="M1616.31,-159.04C1593.27,-147.37 1560.64,-130.83 1535.31,-117.99"/>
<polygon fill="#63b8ff" stroke="#63b8ff" points="1537.14,-115 1526.64,-113.6 1533.98,-121.24 1537.14,-115"/>
</g>
<!-- Node18&#45;&gt;Node6 -->
<g id="edge19" class="edge">
<title>Node18&#45;&gt;Node6</title>
<path fill="none" stroke="#63b8ff" d="M1644.84,-159.04C1644.84,-149.18 1644.84,-135.86 1644.84,-124.22"/>
<polygon fill="#63b8ff" stroke="#63b8ff" points="1648.34,-124.43 1644.84,-114.43 1641.34,-124.43 1648.34,-124.43"/>
</g>
<!-- Node19&#45;&gt;Node14 -->
<g id="edge22" class="edge">
<title>Node19&#45;&gt;Node14</title>
<path fill="none" stroke="#63b8ff" d="M879.22,-236.02C885.41,-234.16 891.76,-232.41 897.84,-231 1013.77,-204.17 1152.16,-188.25 1229.63,-180.75"/>
<polygon fill="#63b8ff" stroke="#63b8ff" points="1229.94,-184.24 1239.56,-179.8 1229.27,-177.27 1229.94,-184.24"/>
</g>
<!-- Node20 -->
<g id="node20" class="node">
<title>Node20</title>
<g id="a_node20"><a xlink:title=" ">
<polygon fill="#e0e0e0" stroke="#999999" points="993.34,-184 930.34,-184 930.34,-165 993.34,-165 993.34,-184"/>
<text text-anchor="middle" x="961.84" y="-172" font-family="Helvetica,sans-Serif" font-size="10.00">OneWire.h</text>
</a>
</g>
</g>
<!-- Node19&#45;&gt;Node20 -->
<g id="edge23" class="edge">
<title>Node19&#45;&gt;Node20</title>
<path fill="none" stroke="#63b8ff" d="M861.75,-236.04C883.62,-222.81 915.82,-203.34 937.75,-190.07"/>
<polygon fill="#63b8ff" stroke="#63b8ff" points="939.28,-193.24 946.02,-185.07 935.65,-187.25 939.28,-193.24"/>
</g>
<!-- Node21 -->
<g id="node21" class="node">
<title>Node21</title>
<g id="a_node21"><a xlink:title=" ">
<polygon fill="#e0e0e0" stroke="#999999" points="911.84,-184 805.84,-184 805.84,-165 911.84,-165 911.84,-184"/>
<text text-anchor="middle" x="858.84" y="-172" font-family="Helvetica,sans-Serif" font-size="10.00">DallasTemperature.h</text>
</a>
</g>
</g>
<!-- Node19&#45;&gt;Node21 -->
<g id="edge24" class="edge">
<title>Node19&#45;&gt;Node21</title>
<path fill="none" stroke="#63b8ff" d="M841.89,-236.04C845.14,-224.43 849.74,-208 853.33,-195.19"/>
<polygon fill="#63b8ff" stroke="#63b8ff" points="856.65,-196.32 855.98,-185.74 849.91,-194.43 856.65,-196.32"/>
</g>
<!-- Node22&#45;&gt;Node2 -->
<g id="edge26" class="edge">
<title>Node22&#45;&gt;Node2</title>
<path fill="none" stroke="#63b8ff" d="M1288.01,-241.6C1306.54,-229.08 1340.56,-206.1 1363.19,-190.81"/>
<polygon fill="#63b8ff" stroke="#63b8ff" points="1365.11,-193.73 1371.44,-185.23 1361.19,-187.93 1365.11,-193.73"/>
</g>
<!-- Node24&#45;&gt;Node2 -->
<g id="edge29" class="edge">
<title>Node24&#45;&gt;Node2</title>
<path fill="none" stroke="#63b8ff" d="M1068.27,-241.68C1077.72,-237.9 1089.2,-233.74 1099.84,-231 1207.28,-203.37 1241,-228.23 1346.84,-195 1351.48,-193.55 1356.23,-191.6 1360.76,-189.49"/>
<polygon fill="#63b8ff" stroke="#63b8ff" points="1362.05,-192.76 1369.41,-185.14 1358.9,-186.51 1362.05,-192.76"/>
</g>
<!-- Node25 -->
<g id="node25" class="node">
<title>Node25</title>
<g id="a_node25"><a xlink:href="port__config_8h.html" target="_top" xlink:title="Archivo de configuración para los puertos de la placa donde se implementará el sistema.">
<polygon fill="white" stroke="#666666" points="1083.84,-184 1011.84,-184 1011.84,-165 1083.84,-165 1083.84,-184"/>
<text text-anchor="middle" x="1047.84" y="-172" font-family="Helvetica,sans-Serif" font-size="10.00">port_config.h</text>
</a>
</g>
</g>
<!-- Node24&#45;&gt;Node25 -->
<g id="edge30" class="edge">
<title>Node24&#45;&gt;Node25</title>
<path fill="none" stroke="#63b8ff" d="M1047.84,-241.6C1047.84,-230.33 1047.84,-210.55 1047.84,-195.56"/>
<polygon fill="#63b8ff" stroke="#63b8ff" points="1051.34,-195.9 1047.84,-185.9 1044.34,-195.9 1051.34,-195.9"/>
</g>
<!-- Node26&#45;&gt;Node2 -->
<g id="edge32" class="edge">
<title>Node26&#45;&gt;Node2</title>
<path fill="none" stroke="#63b8ff" d="M965.52,-241.65C974.5,-237.77 985.53,-233.53 995.84,-231 1148.15,-193.65 1196.26,-238.78 1346.84,-195 1351.59,-193.62 1356.45,-191.68 1361.05,-189.55"/>
<polygon fill="#63b8ff" stroke="#63b8ff" points="1362.49,-192.75 1369.82,-185.1 1359.32,-186.5 1362.49,-192.75"/>
</g>
<!-- Node26&#45;&gt;Node25 -->
<g id="edge33" class="edge">
<title>Node26&#45;&gt;Node25</title>
<path fill="none" stroke="#63b8ff" d="M958.83,-241.6C975.53,-229.2 1006.08,-206.51 1026.67,-191.22"/>
<polygon fill="#63b8ff" stroke="#63b8ff" points="1028.72,-194.06 1034.66,-185.29 1024.55,-188.44 1028.72,-194.06"/>
</g>
<!-- Node27&#45;&gt;Node2 -->
<g id="edge35" class="edge">
<title>Node27&#45;&gt;Node2</title>
<path fill="none" stroke="#63b8ff" d="M1401.71,-241.6C1399,-230.33 1394.26,-210.55 1390.66,-195.56"/>
<polygon fill="#63b8ff" stroke="#63b8ff" points="1394.07,-194.77 1388.33,-185.86 1387.26,-196.4 1394.07,-194.77"/>
</g>
<!-- Node27&#45;&gt;Node14 -->
<g id="edge37" class="edge">
<title>Node27&#45;&gt;Node14</title>
<path fill="none" stroke="#63b8ff" d="M1390.32,-241.6C1371.21,-229.03 1336.04,-205.89 1312.8,-190.6"/>
<polygon fill="#63b8ff" stroke="#63b8ff" points="1314.89,-187.79 1304.62,-185.22 1311.05,-193.64 1314.89,-187.79"/>
</g>
<!-- Node27&#45;&gt;Node23 -->
<g id="edge36" class="edge">
<title>Node27&#45;&gt;Node23</title>
<path fill="none" stroke="#63b8ff" d="M1447.64,-241.51C1464.83,-238.08 1484.73,-234.22 1502.84,-231 1616.9,-210.7 1752.58,-190.15 1815.93,-180.77"/>
<polygon fill="#63b8ff" stroke="#63b8ff" points="1816.37,-184.24 1825.75,-179.31 1815.35,-177.31 1816.37,-184.24"/>
</g>
<!-- Node28&#45;&gt;Node2 -->
<g id="edge39" class="edge">
<title>Node28&#45;&gt;Node2</title>
<path fill="none" stroke="#63b8ff" d="M1172.48,-241.56C1181.47,-238.02 1192.08,-234.07 1201.84,-231 1265.19,-211.11 1284.55,-217.99 1346.84,-195 1351.12,-193.42 1355.53,-191.51 1359.79,-189.51"/>
<polygon fill="#63b8ff" stroke="#63b8ff" points="1361.14,-192.75 1368.53,-185.16 1358.01,-186.48 1361.14,-192.75"/>
</g>
<!-- Node28&#45;&gt;Node14 -->
<g id="edge40" class="edge">
<title>Node28&#45;&gt;Node14</title>
<path fill="none" stroke="#63b8ff" d="M1167.33,-241.6C1191.06,-228.8 1235.06,-205.06 1263.37,-189.79"/>
<polygon fill="#63b8ff" stroke="#63b8ff" points="1264.9,-192.93 1272.04,-185.11 1261.58,-186.77 1264.9,-192.93"/>
</g>
<!-- Node29&#45;&gt;Node3 -->
<g id="edge42" class="edge">
<title>Node29&#45;&gt;Node3</title>
<path fill="none" stroke="#63b8ff" d="M291.21,-264.81C306.24,-267.54 322.08,-270.17 336.84,-272 578.55,-302.01 868.53,-312.11 990.01,-315.23"/>
<polygon fill="#63b8ff" stroke="#63b8ff" points="989.64,-318.72 999.72,-315.47 989.81,-311.72 989.64,-318.72"/>
</g>
<!-- Node29&#45;&gt;Node8 -->
<g id="edge43" class="edge">
<title>Node29&#45;&gt;Node8</title>
<path fill="none" stroke="#63b8ff" d="M221.49,-230.58C216.78,-190.55 206.11,-100.13 200.48,-52.38"/>
<polygon fill="#63b8ff" stroke="#63b8ff" points="203.99,-52.24 199.35,-42.72 197.04,-53.06 203.99,-52.24"/>
</g>
<!-- Node30 -->
<g id="node30" class="node">
<title>Node30</title>
<g id="a_node30"><a xlink:href="_idle__state_8h.html" target="_top" xlink:title="Clase de estado de reposo.">
<polygon fill="white" stroke="#666666" points="130.84,-195 14.84,-195 14.84,-154 130.84,-154 130.84,-195"/>
<text text-anchor="start" x="22.84" y="-183" font-family="Helvetica,sans-Serif" font-size="10.00">machine_state_pattern</text>
<text text-anchor="start" x="22.84" y="-172" font-family="Helvetica,sans-Serif" font-size="10.00">/machine_states/Idle</text>
<text text-anchor="middle" x="72.84" y="-161" font-family="Helvetica,sans-Serif" font-size="10.00">_state.h</text>
</a>
</g>
</g>
<!-- Node29&#45;&gt;Node30 -->
<g id="edge44" class="edge">
<title>Node29&#45;&gt;Node30</title>
<path fill="none" stroke="#63b8ff" d="M183.77,-230.6C165.17,-221.36 142.86,-210.28 123.14,-200.48"/>
<polygon fill="#63b8ff" stroke="#63b8ff" points="124.97,-197.48 114.46,-196.17 121.85,-203.75 124.97,-197.48"/>
</g>
<!-- Node30&#45;&gt;Node3 -->
<g id="edge45" class="edge">
<title>Node30&#45;&gt;Node3</title>
<path fill="none" stroke="#63b8ff" d="M81.72,-195.22C93.27,-218.26 115.84,-255.35 147.84,-272 222.18,-310.68 802.55,-315.78 989.81,-316.42"/>
<polygon fill="#63b8ff" stroke="#63b8ff" points="989.52,-319.92 999.53,-316.45 989.54,-312.92 989.52,-319.92"/>
</g>
<!-- Node30&#45;&gt;Node8 -->
<g id="edge46" class="edge">
<title>Node30&#45;&gt;Node8</title>
<path fill="none" stroke="#63b8ff" d="M100.36,-153.71C112.96,-143.84 127.57,-131.21 138.84,-118 156.27,-97.58 171.69,-71.3 182.24,-51.32"/>
<polygon fill="#63b8ff" stroke="#63b8ff" points="185.28,-53.07 186.75,-42.58 179.05,-49.86 185.28,-53.07"/>
</g>
<!-- Node31 -->
<g id="node31" class="node">
<title>Node31</title>
<g id="a_node31"><a xlink:href="_alarm__state_8h.html" target="_top" xlink:title="Clase de estado de control del motor.">
<polygon fill="white" stroke="#666666" points="130.34,-118 13.34,-118 13.34,-77 130.34,-77 130.34,-118"/>
<text text-anchor="start" x="21.34" y="-106" font-family="Helvetica,sans-Serif" font-size="10.00">machine_state_pattern</text>
<text text-anchor="start" x="21.34" y="-95" font-family="Helvetica,sans-Serif" font-size="10.00">/machine_states/Alarm</text>
<text text-anchor="middle" x="71.84" y="-84" font-family="Helvetica,sans-Serif" font-size="10.00">_state.h</text>
</a>
</g>
</g>
<!-- Node30&#45;&gt;Node31 -->
<g id="edge47" class="edge">
<title>Node30&#45;&gt;Node31</title>
<path fill="none" stroke="#63b8ff" d="M66.56,-153.79C65.81,-146.45 65.48,-137.91 65.59,-129.78"/>
<polygon fill="#63b8ff" stroke="#63b8ff" points="69.09,-129.98 66.01,-119.85 62.09,-129.69 69.09,-129.98"/>
</g>
<!-- Node31&#45;&gt;Node3 -->
<g id="edge48" class="edge">
<title>Node31&#45;&gt;Node3</title>
<path fill="none" stroke="#63b8ff" d="M37.67,-118.26C25.25,-127.4 12.61,-139.48 5.84,-154 -1.85,-170.52 -2,-178.55 5.84,-195 29.23,-244.06 50.06,-252.65 100.84,-272 183.6,-303.53 796.58,-313.5 989.73,-315.87"/>
<polygon fill="#63b8ff" stroke="#63b8ff" points="989.48,-319.37 999.52,-315.99 989.56,-312.37 989.48,-319.37"/>
</g>
<!-- Node31&#45;&gt;Node8 -->
<g id="edge49" class="edge">
<title>Node31&#45;&gt;Node8</title>
<path fill="none" stroke="#63b8ff" d="M105.01,-76.6C119.99,-67.61 137.87,-56.89 153.85,-47.29"/>
<polygon fill="#63b8ff" stroke="#63b8ff" points="155.45,-50.42 162.22,-42.27 151.85,-44.42 155.45,-50.42"/>
</g>
<!-- Node31&#45;&gt;Node30 -->
<g id="edge50" class="edge">
<title>Node31&#45;&gt;Node30</title>
<path fill="none" stroke="#63b8ff" d="M78.14,-118.33C78.88,-125.7 79.21,-134.24 79.09,-142.36"/>
<polygon fill="#63b8ff" stroke="#63b8ff" points="75.6,-142.14 78.67,-152.28 82.59,-142.44 75.6,-142.14"/>
</g>
<!-- Node32&#45;&gt;Node3 -->
<g id="edge52" class="edge">
<title>Node32&#45;&gt;Node3</title>
<path fill="none" stroke="#63b8ff" d="M456.63,-267.55C463.76,-269.26 470.95,-270.81 477.84,-272 663.2,-303.93 885.89,-312.96 989.58,-315.5"/>
<polygon fill="#63b8ff" stroke="#63b8ff" points="989.44,-319 999.52,-315.73 989.6,-312 989.44,-319"/>
</g>
<!-- Node32&#45;&gt;Node8 -->
<g id="edge53" class="edge">
<title>Node32&#45;&gt;Node8</title>
<path fill="none" stroke="#63b8ff" d="M337.19,-240.29C308.35,-232.46 275.4,-218.77 253.84,-195 217.26,-154.66 239.03,-128.33 220.84,-77 217.9,-68.7 214.31,-59.88 210.82,-51.77"/>
<polygon fill="#63b8ff" stroke="#63b8ff" points="214.03,-50.39 206.78,-42.66 207.63,-53.22 214.03,-50.39"/>
</g>
<!-- Node32&#45;&gt;Node31 -->
<g id="edge54" class="edge">
<title>Node32&#45;&gt;Node31</title>
<path fill="none" stroke="#63b8ff" d="M337.08,-235.96C302.29,-226.45 258.09,-212.54 220.84,-195 179.46,-175.51 135.97,-146.18 106.73,-124.97"/>
<polygon fill="#63b8ff" stroke="#63b8ff" points="109.12,-122.38 98.98,-119.29 104.98,-128.02 109.12,-122.38"/>
</g>
<!-- Node33&#45;&gt;Node2 -->
<g id="edge57" class="edge">
<title>Node33&#45;&gt;Node2</title>
<path fill="none" stroke="#63b8ff" d="M1950.34,-307.73C1938.42,-289.63 1908.25,-248.35 1870.84,-231 1690.04,-147.13 1615.54,-249.55 1423.84,-195 1419.11,-193.65 1414.28,-191.69 1409.71,-189.53"/>
<polygon fill="#63b8ff" stroke="#63b8ff" points="1411.55,-186.54 1401.07,-185 1408.31,-192.74 1411.55,-186.54"/>
</g>
<!-- Node34&#45;&gt;Node2 -->
<g id="edge60" class="edge">
<title>Node34&#45;&gt;Node2</title>
<path fill="none" stroke="#63b8ff" d="M1831.98,-362.75C1820.86,-332.58 1790.48,-262.42 1738.84,-231 1618.47,-157.74 1558.71,-235.83 1423.84,-195 1419.21,-193.6 1414.47,-191.64 1409.98,-189.51"/>
<polygon fill="#63b8ff" stroke="#63b8ff" points="1411.95,-186.59 1401.46,-185.08 1408.72,-192.8 1411.95,-186.59"/>
</g>
<!-- Node34&#45;&gt;Node3 -->
<g id="edge61" class="edge">
<title>Node34&#45;&gt;Node3</title>
<path fill="none" stroke="#63b8ff" d="M1770.59,-368.14C1755.26,-366.28 1739,-364.44 1723.84,-363 1495.51,-341.36 1222.79,-326.87 1105.79,-321.19"/>
<polygon fill="#63b8ff" stroke="#63b8ff" points="1106.3,-317.71 1096.14,-320.72 1105.96,-324.7 1106.3,-317.71"/>
</g>
<!-- Node34&#45;&gt;Node14 -->
<g id="edge62" class="edge">
<title>Node34&#45;&gt;Node14</title>
<path fill="none" stroke="#63b8ff" d="M1826.81,-362.87C1820,-353.02 1810.97,-339.46 1803.84,-327 1780.27,-285.76 1796.01,-257.89 1756.84,-231 1681.63,-179.36 1437.15,-213.67 1347.84,-195 1339.72,-193.3 1331.14,-190.82 1323.16,-188.2"/>
<polygon fill="#63b8ff" stroke="#63b8ff" points="1324.39,-184.92 1313.79,-184.95 1322.1,-191.53 1324.39,-184.92"/>
</g>
<!-- Node34&#45;&gt;Node17 -->
<g id="edge59" class="edge">
<title>Node34&#45;&gt;Node17</title>
<path fill="none" stroke="#63b8ff" d="M1810.92,-362.72C1770.6,-340.51 1692.77,-297.63 1646.97,-272.4"/>
<polygon fill="#63b8ff" stroke="#63b8ff" points="1648.94,-269.49 1638.49,-267.73 1645.56,-275.62 1648.94,-269.49"/>
</g>
<!-- Node34&#45;&gt;Node23 -->
<g id="edge63" class="edge">
<title>Node34&#45;&gt;Node23</title>
<path fill="none" stroke="#63b8ff" d="M1903.13,-374.26C1937.25,-369.07 1976.15,-356.46 1997.84,-327 2039.17,-270.89 1937.82,-214.27 1883.49,-189.06"/>
<polygon fill="#63b8ff" stroke="#63b8ff" points="1885.24,-186.01 1874.69,-185.07 1882.35,-192.39 1885.24,-186.01"/>
</g>
<!-- Node35&#45;&gt;Node2 -->
<g id="edge66" class="edge">
<title>Node35&#45;&gt;Node2</title>
<path fill="none" stroke="#63b8ff" d="M1665.53,-362.64C1696.15,-334.62 1754.99,-271.83 1718.84,-231 1675.06,-181.55 1486.98,-214.38 1423.84,-195 1419.22,-193.58 1414.48,-191.62 1409.99,-189.48"/>
<polygon fill="#63b8ff" stroke="#63b8ff" points="1411.96,-186.56 1401.47,-185.05 1408.73,-192.77 1411.96,-186.56"/>
</g>
<!-- Node35&#45;&gt;Node3 -->
<g id="edge67" class="edge">
<title>Node35&#45;&gt;Node3</title>
<path fill="none" stroke="#63b8ff" d="M1582.65,-364.27C1579.68,-363.82 1576.73,-363.39 1573.84,-363 1404.76,-340.12 1203.4,-326.99 1106.15,-321.52"/>
<polygon fill="#63b8ff" stroke="#63b8ff" points="1106.5,-318.03 1096.32,-320.98 1106.11,-325.02 1106.5,-318.03"/>
</g>
<!-- Node35&#45;&gt;Node14 -->
<g id="edge68" class="edge">
<title>Node35&#45;&gt;Node14</title>
<path fill="none" stroke="#63b8ff" d="M1659.95,-362.54C1680.62,-333.78 1719.94,-268.92 1685.84,-231 1635.34,-174.83 1421.64,-211.13 1347.84,-195 1339.8,-193.24 1331.32,-190.76 1323.39,-188.16"/>
<polygon fill="#63b8ff" stroke="#63b8ff" points="1324.69,-184.9 1314.09,-184.95 1322.4,-191.52 1324.69,-184.9"/>
</g>
<!-- Node35&#45;&gt;Node17 -->
<g id="edge65" class="edge">
<title>Node35&#45;&gt;Node17</title>
<path fill="none" stroke="#63b8ff" d="M1644.48,-362.72C1638.16,-342 1626.35,-303.31 1618.54,-277.72"/>
<polygon fill="#63b8ff" stroke="#63b8ff" points="1621.98,-276.99 1615.71,-268.45 1615.28,-279.03 1621.98,-276.99"/>
</g>
<!-- Node35&#45;&gt;Node23 -->
<g id="edge69" class="edge">
<title>Node35&#45;&gt;Node23</title>
<path fill="none" stroke="#63b8ff" d="M1715.19,-366.91C1761.34,-358.47 1817.27,-344.93 1832.84,-327 1864.92,-290.06 1860.62,-227.63 1855.72,-195.67"/>
<polygon fill="#63b8ff" stroke="#63b8ff" points="1859.18,-195.09 1854.02,-185.84 1852.28,-196.29 1859.18,-195.09"/>
</g>
<!-- Node36&#45;&gt;Node3 -->
<g id="edge72" class="edge">
<title>Node36&#45;&gt;Node3</title>
<path fill="none" stroke="#63b8ff" d="M1432.78,-368.43C1344.69,-357 1190.12,-336.96 1106.15,-326.06"/>
<polygon fill="#63b8ff" stroke="#63b8ff" points="1106.65,-322.6 1096.28,-324.78 1105.75,-329.54 1106.65,-322.6"/>
</g>
<!-- Node36&#45;&gt;Node17 -->
<g id="edge71" class="edge">
<title>Node36&#45;&gt;Node17</title>
<path fill="none" stroke="#63b8ff" d="M1511.69,-362.72C1530.91,-341.35 1567.35,-300.85 1590.3,-275.34"/>
<polygon fill="#63b8ff" stroke="#63b8ff" points="1592.7,-277.9 1596.79,-268.12 1587.5,-273.22 1592.7,-277.9"/>
</g>
</g>
</svg>
