<?xml version="1.0" encoding="UTF-8" standalone="no"?>
<!DOCTYPE svg PUBLIC "-//W3C//DTD SVG 1.1//EN"
 "http://www.w3.org/Graphics/SVG/1.1/DTD/svg11.dtd">
<!-- Generated by graphviz version 7.0.2 (20221119.0110)
 -->
<!-- Title: C:/Users/juanh/OneDrive/Escritorio/Sistemas Embebidos/Proyecto final/LAL Control MbedOS/include/port_config.h Pages: 1 -->
<svg width="1603pt" height="742pt"
 viewBox="0.00 0.00 1602.50 742.00" xmlns="http://www.w3.org/2000/svg" xmlns:xlink="http://www.w3.org/1999/xlink">
<g id="graph0" class="graph" transform="scale(1 1) rotate(0) translate(4 738)">
<title>C:/Users/juanh/OneDrive/Escritorio/Sistemas Embebidos/Proyecto final/LAL Control MbedOS/include/port_config.h</title>
<!-- Node1 -->
<g id="node1" class="node">
<title>Node1</title>
<g id="a_node1"><a xlink:title="Archivo de configuración para los puertos de la placa donde se implementará el sistema.">
<polygon fill="#999999" stroke="#666666" points="1297,-734 1140,-734 1140,-682 1297,-682 1297,-734"/>
<text text-anchor="start" x="1148" y="-722" font-family="Helvetica,sans-Serif" font-size="10.00">C:/Users/juanh/OneDrive</text>
<text text-anchor="start" x="1148" y="-711" font-family="Helvetica,sans-Serif" font-size="10.00">/Escritorio/Sistemas Embebidos</text>
<text text-anchor="start" x="1148" y="-700" font-family="Helvetica,sans-Serif" font-size="10.00">/Proyecto final/LAL Control</text>
<text text-anchor="middle" x="1218.5" y="-689" font-family="Helvetica,sans-Serif" font-size="10.00"> MbedOS/include/port_config.h</text>
</a>
</g>
</g>
<!-- Node2 -->
<g id="node2" class="node">
<title>Node2</title>
<g id="a_node2"><a xlink:href="_buzzer_8h.html" target="_top" xlink:title="Controlador de Buzzer de 12 milimetros sin oscilador.">
<polygon fill="white" stroke="#666666" points="846.5,-646 682.5,-646 682.5,-594 846.5,-594 846.5,-646"/>
<text text-anchor="start" x="690.5" y="-634" font-family="Helvetica,sans-Serif" font-size="10.00">C:/Users/juanh/OneDrive</text>
<text text-anchor="start" x="690.5" y="-623" font-family="Helvetica,sans-Serif" font-size="10.00">/Escritorio/Sistemas Embebidos</text>
<text text-anchor="start" x="690.5" y="-612" font-family="Helvetica,sans-Serif" font-size="10.00">/Proyecto final/LAL Control</text>
<text text-anchor="middle" x="764.5" y="-601" font-family="Helvetica,sans-Serif" font-size="10.00"> MbedOS/include/drivers/Buzzer.h</text>
</a>
</g>
</g>
<!-- Node1&#45;&gt;Node2 -->
<g id="edge1" class="edge">
<title>Node1&#45;&gt;Node2</title>
<path fill="none" stroke="#63b8ff" d="M1128.37,-689.93C1046.42,-674.4 926.47,-651.68 846.99,-636.63"/>
<polygon fill="#63b8ff" stroke="#63b8ff" points="1127.71,-693.36 1138.19,-691.79 1129.02,-686.49 1127.71,-693.36"/>
</g>
<!-- Node12 -->
<g id="node12" class="node">
<title>Node12</title>
<g id="a_node12"><a xlink:href="main_8h.html" target="_top" xlink:title="Archivo principal del programa.">
<polygon fill="white" stroke="#666666" points="1283,-255.5 1126,-255.5 1126,-203.5 1283,-203.5 1283,-255.5"/>
<text text-anchor="start" x="1134" y="-243.5" font-family="Helvetica,sans-Serif" font-size="10.00">C:/Users/juanh/OneDrive</text>
<text text-anchor="start" x="1134" y="-232.5" font-family="Helvetica,sans-Serif" font-size="10.00">/Escritorio/Sistemas Embebidos</text>
<text text-anchor="start" x="1134" y="-221.5" font-family="Helvetica,sans-Serif" font-size="10.00">/Proyecto final/LAL Control</text>
<text text-anchor="middle" x="1204.5" y="-210.5" font-family="Helvetica,sans-Serif" font-size="10.00"> MbedOS/include/main.h</text>
</a>
</g>
</g>
<!-- Node1&#45;&gt;Node12 -->
<g id="edge43" class="edge">
<title>Node1&#45;&gt;Node12</title>
<path fill="none" stroke="#63b8ff" d="M1279.13,-675.8C1327.25,-646.22 1386.5,-596.84 1386.5,-533 1386.5,-533 1386.5,-533 1386.5,-437.5 1386.5,-374.49 1406.08,-346.82 1367.5,-297 1361.23,-288.9 1316.87,-271.06 1276,-255.9"/>
<polygon fill="#63b8ff" stroke="#63b8ff" points="1277.45,-672.72 1270.66,-680.85 1281.04,-678.73 1277.45,-672.72"/>
</g>
<!-- Node25 -->
<g id="node25" class="node">
<title>Node25</title>
<g id="a_node25"><a xlink:href="_motor_8h.html" target="_top" xlink:title="Controlador de motor de 220 VAC.">
<polygon fill="white" stroke="#666666" points="1240.5,-646 1082.5,-646 1082.5,-594 1240.5,-594 1240.5,-646"/>
<text text-anchor="start" x="1090.5" y="-634" font-family="Helvetica,sans-Serif" font-size="10.00">C:/Users/juanh/OneDrive</text>
<text text-anchor="start" x="1090.5" y="-623" font-family="Helvetica,sans-Serif" font-size="10.00">/Escritorio/Sistemas Embebidos</text>
<text text-anchor="start" x="1090.5" y="-612" font-family="Helvetica,sans-Serif" font-size="10.00">/Proyecto final/LAL Control</text>
<text text-anchor="middle" x="1161.5" y="-601" font-family="Helvetica,sans-Serif" font-size="10.00"> MbedOS/include/drivers/Motor.h</text>
</a>
</g>
</g>
<!-- Node1&#45;&gt;Node25 -->
<g id="edge40" class="edge">
<title>Node1&#45;&gt;Node25</title>
<path fill="none" stroke="#63b8ff" d="M1195.44,-672.21C1189.73,-663.6 1183.72,-654.53 1178.37,-646.45"/>
<polygon fill="#63b8ff" stroke="#63b8ff" points="1192.43,-674 1200.87,-680.4 1198.26,-670.13 1192.43,-674"/>
</g>
<!-- Node27 -->
<g id="node27" class="node">
<title>Node27</title>
<g id="a_node27"><a xlink:href="_display_8cpp.html" target="_top" xlink:title="Implementación de Display.h.">
<polygon fill="white" stroke="#666666" points="1594.5,-646 1414.5,-646 1414.5,-594 1594.5,-594 1594.5,-646"/>
<text text-anchor="start" x="1422.5" y="-634" font-family="Helvetica,sans-Serif" font-size="10.00">C:/Users/juanh/OneDrive</text>
<text text-anchor="start" x="1422.5" y="-623" font-family="Helvetica,sans-Serif" font-size="10.00">/Escritorio/Sistemas Embebidos</text>
<text text-anchor="start" x="1422.5" y="-612" font-family="Helvetica,sans-Serif" font-size="10.00">/Proyecto final/LAL Control</text>
<text text-anchor="middle" x="1504.5" y="-601" font-family="Helvetica,sans-Serif" font-size="10.00"> MbedOS/src/Port/drivers/Display.cpp</text>
</a>
</g>
</g>
<!-- Node1&#45;&gt;Node27 -->
<g id="edge44" class="edge">
<title>Node1&#45;&gt;Node27</title>
<path fill="none" stroke="#63b8ff" d="M1308.29,-680C1343.94,-669.28 1384.72,-657.02 1419.84,-646.46"/>
<polygon fill="#63b8ff" stroke="#63b8ff" points="1307.43,-676.61 1298.86,-682.84 1309.44,-683.31 1307.43,-676.61"/>
</g>
<!-- Node3 -->
<g id="node3" class="node">
<title>Node3</title>
<g id="a_node3"><a xlink:href="_control__system_8h_source.html" target="_top" xlink:title=" ">
<polygon fill="white" stroke="#666666" points="946,-558 775,-558 775,-506 946,-506 946,-558"/>
<text text-anchor="start" x="783" y="-546" font-family="Helvetica,sans-Serif" font-size="10.00">C:/Users/juanh/OneDrive</text>
<text text-anchor="start" x="783" y="-535" font-family="Helvetica,sans-Serif" font-size="10.00">/Escritorio/Sistemas Embebidos</text>
<text text-anchor="start" x="783" y="-524" font-family="Helvetica,sans-Serif" font-size="10.00">/Proyecto final/LAL Control</text>
<text text-anchor="middle" x="860.5" y="-513" font-family="Helvetica,sans-Serif" font-size="10.00"> MbedOS/include/Control_system.h</text>
</a>
</g>
</g>
<!-- Node2&#45;&gt;Node3 -->
<g id="edge2" class="edge">
<title>Node2&#45;&gt;Node3</title>
<path fill="none" stroke="#63b8ff" d="M801.17,-586.15C811.42,-576.97 822.4,-567.13 832.09,-558.45"/>
<polygon fill="#63b8ff" stroke="#63b8ff" points="799.02,-583.37 793.91,-592.65 803.7,-588.59 799.02,-583.37"/>
</g>
<!-- Node23 -->
<g id="node23" class="node">
<title>Node23</title>
<g id="a_node23"><a xlink:href="src_2_port_2drivers_2_buzzer_8cpp.html" target="_top" xlink:title="Implementación de Buzzer.h.">
<polygon fill="white" stroke="#666666" points="757,-558 578,-558 578,-506 757,-506 757,-558"/>
<text text-anchor="start" x="586" y="-546" font-family="Helvetica,sans-Serif" font-size="10.00">C:/Users/juanh/OneDrive</text>
<text text-anchor="start" x="586" y="-535" font-family="Helvetica,sans-Serif" font-size="10.00">/Escritorio/Sistemas Embebidos</text>
<text text-anchor="start" x="586" y="-524" font-family="Helvetica,sans-Serif" font-size="10.00">/Proyecto final/LAL Control</text>
<text text-anchor="middle" x="667.5" y="-513" font-family="Helvetica,sans-Serif" font-size="10.00"> MbedOS/src/Port/drivers/Buzzer.cpp</text>
</a>
</g>
</g>
<!-- Node2&#45;&gt;Node23 -->
<g id="edge38" class="edge">
<title>Node2&#45;&gt;Node23</title>
<path fill="none" stroke="#63b8ff" d="M727.44,-586.15C717.09,-576.97 706,-567.13 696.21,-558.45"/>
<polygon fill="#63b8ff" stroke="#63b8ff" points="724.98,-588.64 734.79,-592.66 729.63,-583.41 724.98,-588.64"/>
</g>
<!-- Node24 -->
<g id="node24" class="node">
<title>Node24</title>
<g id="a_node24"><a xlink:href="test_2drivers_2_buzzer_8cpp.html" target="_top" xlink:title=" ">
<polygon fill="white" stroke="#666666" points="560,-558 399,-558 399,-506 560,-506 560,-558"/>
<text text-anchor="start" x="407" y="-546" font-family="Helvetica,sans-Serif" font-size="10.00">C:/Users/juanh/OneDrive</text>
<text text-anchor="start" x="407" y="-535" font-family="Helvetica,sans-Serif" font-size="10.00">/Escritorio/Sistemas Embebidos</text>
<text text-anchor="start" x="407" y="-524" font-family="Helvetica,sans-Serif" font-size="10.00">/Proyecto final/LAL Control</text>
<text text-anchor="middle" x="479.5" y="-513" font-family="Helvetica,sans-Serif" font-size="10.00"> MbedOS/test/drivers/Buzzer.cpp</text>
</a>
</g>
</g>
<!-- Node2&#45;&gt;Node24 -->
<g id="edge39" class="edge">
<title>Node2&#45;&gt;Node24</title>
<path fill="none" stroke="#63b8ff" d="M671.12,-590.82C635.31,-580.02 594.8,-567.79 560.27,-557.37"/>
<polygon fill="#63b8ff" stroke="#63b8ff" points="670.03,-594.15 680.62,-593.69 672.05,-587.45 670.03,-594.15"/>
</g>
<!-- Node4 -->
<g id="node4" class="node">
<title>Node4</title>
<g id="a_node4"><a xlink:href="_alarm__state_8h.html" target="_top" xlink:title="Clase de estado de control del motor.">
<polygon fill="white" stroke="#666666" points="442.5,-470 254.5,-470 254.5,-407 442.5,-407 442.5,-470"/>
<text text-anchor="start" x="262.5" y="-458" font-family="Helvetica,sans-Serif" font-size="10.00">C:/Users/juanh/OneDrive</text>
<text text-anchor="start" x="262.5" y="-447" font-family="Helvetica,sans-Serif" font-size="10.00">/Escritorio/Sistemas Embebidos</text>
<text text-anchor="start" x="262.5" y="-436" font-family="Helvetica,sans-Serif" font-size="10.00">/Proyecto final/LAL Control</text>
<text text-anchor="start" x="262.5" y="-425" font-family="Helvetica,sans-Serif" font-size="10.00"> MbedOS/include/machine_state</text>
<text text-anchor="middle" x="348.5" y="-414" font-family="Helvetica,sans-Serif" font-size="10.00">_pattern/machine_states/Alarm_state.h</text>
</a>
</g>
</g>
<!-- Node3&#45;&gt;Node4 -->
<g id="edge3" class="edge">
<title>Node3&#45;&gt;Node4</title>
<path fill="none" stroke="#63b8ff" d="M763.44,-505.69C689.58,-490.91 541.14,-468.14 442.94,-453.45"/>
<polygon fill="#63b8ff" stroke="#63b8ff" points="762.65,-509.11 773.15,-507.69 764.06,-502.25 762.65,-509.11"/>
</g>
<!-- Node5 -->
<g id="node5" class="node">
<title>Node5</title>
<g id="a_node5"><a xlink:href="_check__instruction__state_8h_source.html" target="_top" xlink:title=" ">
<polygon fill="white" stroke="#666666" points="308.5,-371 150.5,-371 150.5,-297 308.5,-297 308.5,-371"/>
<text text-anchor="start" x="158.5" y="-359" font-family="Helvetica,sans-Serif" font-size="10.00">C:/Users/juanh/OneDrive</text>
<text text-anchor="start" x="158.5" y="-348" font-family="Helvetica,sans-Serif" font-size="10.00">/Escritorio/Sistemas Embebidos</text>
<text text-anchor="start" x="158.5" y="-337" font-family="Helvetica,sans-Serif" font-size="10.00">/Proyecto final/LAL Control</text>
<text text-anchor="start" x="158.5" y="-326" font-family="Helvetica,sans-Serif" font-size="10.00"> MbedOS/include/machine_state</text>
<text text-anchor="start" x="158.5" y="-315" font-family="Helvetica,sans-Serif" font-size="10.00">_pattern/machine_states/Check</text>
<text text-anchor="middle" x="229.5" y="-304" font-family="Helvetica,sans-Serif" font-size="10.00">_instruction_state.h</text>
</a>
</g>
</g>
<!-- Node3&#45;&gt;Node5 -->
<g id="edge15" class="edge">
<title>Node3&#45;&gt;Node5</title>
<path fill="none" stroke="#63b8ff" d="M763.39,-506.27C670.51,-497.7 285.52,-508.11 245.5,-470 219.52,-445.26 218.75,-402.31 222.41,-371.49"/>
<polygon fill="#63b8ff" stroke="#63b8ff" points="762.84,-509.73 773.19,-507.46 763.69,-502.78 762.84,-509.73"/>
</g>
<!-- Node6 -->
<g id="node6" class="node">
<title>Node6</title>
<g id="a_node6"><a xlink:href="_idle__state_8h.html" target="_top" xlink:title="Clase de estado de reposo.">
<polygon fill="white" stroke="#666666" points="514,-261 337,-261 337,-198 514,-198 514,-261"/>
<text text-anchor="start" x="345" y="-249" font-family="Helvetica,sans-Serif" font-size="10.00">C:/Users/juanh/OneDrive</text>
<text text-anchor="start" x="345" y="-238" font-family="Helvetica,sans-Serif" font-size="10.00">/Escritorio/Sistemas Embebidos</text>
<text text-anchor="start" x="345" y="-227" font-family="Helvetica,sans-Serif" font-size="10.00">/Proyecto final/LAL Control</text>
<text text-anchor="start" x="345" y="-216" font-family="Helvetica,sans-Serif" font-size="10.00"> MbedOS/include/machine_state</text>
<text text-anchor="middle" x="425.5" y="-205" font-family="Helvetica,sans-Serif" font-size="10.00">_pattern/machine_states/Idle_state.h</text>
</a>
</g>
</g>
<!-- Node3&#45;&gt;Node6 -->
<g id="edge16" class="edge">
<title>Node3&#45;&gt;Node6</title>
<path fill="none" stroke="#63b8ff" d="M763.49,-505.73C699.26,-491.97 669.98,-510.54 623.5,-470 560.99,-415.48 609.31,-358.36 553.5,-297 540.44,-282.64 523.56,-270.88 506.36,-261.47"/>
<polygon fill="#63b8ff" stroke="#63b8ff" points="762.54,-509.1 773.08,-508 764.15,-502.29 762.54,-509.1"/>
</g>
<!-- Node7 -->
<g id="node7" class="node">
<title>Node7</title>
<g id="a_node7"><a xlink:href="_shutdown__state_8h.html" target="_top" xlink:title="Clase de estado de apagado del sistema.">
<polygon fill="white" stroke="#666666" points="205,-162 0,-162 0,-99 205,-99 205,-162"/>
<text text-anchor="start" x="8" y="-150" font-family="Helvetica,sans-Serif" font-size="10.00">C:/Users/juanh/OneDrive</text>
<text text-anchor="start" x="8" y="-139" font-family="Helvetica,sans-Serif" font-size="10.00">/Escritorio/Sistemas Embebidos</text>
<text text-anchor="start" x="8" y="-128" font-family="Helvetica,sans-Serif" font-size="10.00">/Proyecto final/LAL Control</text>
<text text-anchor="start" x="8" y="-117" font-family="Helvetica,sans-Serif" font-size="10.00"> MbedOS/include/machine_state</text>
<text text-anchor="middle" x="102.5" y="-106" font-family="Helvetica,sans-Serif" font-size="10.00">_pattern/machine_states/Shutdown_state.h</text>
</a>
</g>
</g>
<!-- Node3&#45;&gt;Node7 -->
<g id="edge17" class="edge">
<title>Node3&#45;&gt;Node7</title>
<path fill="none" stroke="#63b8ff" d="M763.47,-507.21C761.13,-506.78 758.8,-506.37 756.5,-506 636.05,-486.38 316.13,-527.53 208.5,-470 97.93,-410.9 90.25,-234.31 96.35,-162.44"/>
<polygon fill="#63b8ff" stroke="#63b8ff" points="762.56,-510.6 773.05,-509.12 763.93,-503.74 762.56,-510.6"/>
</g>
<!-- Node3&#45;&gt;Node12 -->
<g id="edge18" class="edge">
<title>Node3&#45;&gt;Node12</title>
<path fill="none" stroke="#63b8ff" d="M957.48,-521.08C999.83,-512.82 1048.04,-497.69 1084.5,-470 1121.53,-441.87 1173.94,-311.51 1195.1,-255.83"/>
<polygon fill="#63b8ff" stroke="#63b8ff" points="956.97,-517.62 947.77,-522.86 958.23,-524.5 956.97,-517.62"/>
</g>
<!-- Node13 -->
<g id="node13" class="node">
<title>Node13</title>
<g id="a_node13"><a xlink:href="_cooler__observer_8h_source.html" target="_top" xlink:title=" ">
<polygon fill="white" stroke="#666666" points="766.5,-365.5 600.5,-365.5 600.5,-302.5 766.5,-302.5 766.5,-365.5"/>
<text text-anchor="start" x="608.5" y="-353.5" font-family="Helvetica,sans-Serif" font-size="10.00">C:/Users/juanh/OneDrive</text>
<text text-anchor="start" x="608.5" y="-342.5" font-family="Helvetica,sans-Serif" font-size="10.00">/Escritorio/Sistemas Embebidos</text>
<text text-anchor="start" x="608.5" y="-331.5" font-family="Helvetica,sans-Serif" font-size="10.00">/Proyecto final/LAL Control</text>
<text text-anchor="start" x="608.5" y="-320.5" font-family="Helvetica,sans-Serif" font-size="10.00"> MbedOS/include/observer_pattern</text>
<text text-anchor="middle" x="683.5" y="-309.5" font-family="Helvetica,sans-Serif" font-size="10.00">/observers/Cooler_observer.h</text>
</a>
</g>
</g>
<!-- Node3&#45;&gt;Node13 -->
<g id="edge19" class="edge">
<title>Node3&#45;&gt;Node13</title>
<path fill="none" stroke="#63b8ff" d="M763.51,-505.16C703.85,-489.15 638.55,-471.38 637.5,-470 613.84,-439 636.7,-395.04 657.8,-365.81"/>
<polygon fill="#63b8ff" stroke="#63b8ff" points="762.54,-508.52 773.11,-507.73 764.36,-501.76 762.54,-508.52"/>
</g>
<!-- Node15 -->
<g id="node15" class="node">
<title>Node15</title>
<g id="a_node15"><a xlink:href="_instruction__observer_8h.html" target="_top" xlink:title="Observador de instrucciones.">
<polygon fill="white" stroke="#666666" points="950.5,-365.5 784.5,-365.5 784.5,-302.5 950.5,-302.5 950.5,-365.5"/>
<text text-anchor="start" x="792.5" y="-353.5" font-family="Helvetica,sans-Serif" font-size="10.00">C:/Users/juanh/OneDrive</text>
<text text-anchor="start" x="792.5" y="-342.5" font-family="Helvetica,sans-Serif" font-size="10.00">/Escritorio/Sistemas Embebidos</text>
<text text-anchor="start" x="792.5" y="-331.5" font-family="Helvetica,sans-Serif" font-size="10.00">/Proyecto final/LAL Control</text>
<text text-anchor="start" x="792.5" y="-320.5" font-family="Helvetica,sans-Serif" font-size="10.00"> MbedOS/include/observer_pattern</text>
<text text-anchor="middle" x="867.5" y="-309.5" font-family="Helvetica,sans-Serif" font-size="10.00">/observers/Instruction_observer.h</text>
</a>
</g>
</g>
<!-- Node3&#45;&gt;Node15 -->
<g id="edge22" class="edge">
<title>Node3&#45;&gt;Node15</title>
<path fill="none" stroke="#63b8ff" d="M861.8,-494.5C863.13,-457.48 865.15,-400.81 866.4,-365.93"/>
<polygon fill="#63b8ff" stroke="#63b8ff" points="858.31,-494.15 861.45,-504.27 865.31,-494.4 858.31,-494.15"/>
</g>
<!-- Node17 -->
<g id="node17" class="node">
<title>Node17</title>
<g id="a_node17"><a xlink:href="_moisture__observer_8h.html" target="_top" xlink:title="Observador del sensor de temperatura.">
<polygon fill="white" stroke="#666666" points="1134.5,-365.5 968.5,-365.5 968.5,-302.5 1134.5,-302.5 1134.5,-365.5"/>
<text text-anchor="start" x="976.5" y="-353.5" font-family="Helvetica,sans-Serif" font-size="10.00">C:/Users/juanh/OneDrive</text>
<text text-anchor="start" x="976.5" y="-342.5" font-family="Helvetica,sans-Serif" font-size="10.00">/Escritorio/Sistemas Embebidos</text>
<text text-anchor="start" x="976.5" y="-331.5" font-family="Helvetica,sans-Serif" font-size="10.00">/Proyecto final/LAL Control</text>
<text text-anchor="start" x="976.5" y="-320.5" font-family="Helvetica,sans-Serif" font-size="10.00"> MbedOS/include/observer_pattern</text>
<text text-anchor="middle" x="1051.5" y="-309.5" font-family="Helvetica,sans-Serif" font-size="10.00">/observers/Moisture_observer.h</text>
</a>
</g>
</g>
<!-- Node3&#45;&gt;Node17 -->
<g id="edge25" class="edge">
<title>Node3&#45;&gt;Node17</title>
<path fill="none" stroke="#63b8ff" d="M957.67,-513.27C1003.06,-502.81 1050.06,-488.07 1063.5,-470 1085.76,-440.07 1075.85,-395.45 1065.08,-365.81"/>
<polygon fill="#63b8ff" stroke="#63b8ff" points="956.96,-509.84 947.97,-515.44 958.49,-516.67 956.96,-509.84"/>
</g>
<!-- Node19 -->
<g id="node19" class="node">
<title>Node19</title>
<g id="a_node19"><a xlink:href="_system__observer_8h.html" target="_top" xlink:title="Clase observador del sistema de control.">
<polygon fill="white" stroke="#666666" points="1054.5,-470 888.5,-470 888.5,-407 1054.5,-407 1054.5,-470"/>
<text text-anchor="start" x="896.5" y="-458" font-family="Helvetica,sans-Serif" font-size="10.00">C:/Users/juanh/OneDrive</text>
<text text-anchor="start" x="896.5" y="-447" font-family="Helvetica,sans-Serif" font-size="10.00">/Escritorio/Sistemas Embebidos</text>
<text text-anchor="start" x="896.5" y="-436" font-family="Helvetica,sans-Serif" font-size="10.00">/Proyecto final/LAL Control</text>
<text text-anchor="start" x="896.5" y="-425" font-family="Helvetica,sans-Serif" font-size="10.00"> MbedOS/include/observer_pattern</text>
<text text-anchor="middle" x="971.5" y="-414" font-family="Helvetica,sans-Serif" font-size="10.00">/observers/System_observer.h</text>
</a>
</g>
</g>
<!-- Node3&#45;&gt;Node19 -->
<g id="edge28" class="edge">
<title>Node3&#45;&gt;Node19</title>
<path fill="none" stroke="#63b8ff" d="M893.88,-498.12C904.5,-489.08 916.38,-479.31 927.62,-470.38"/>
<polygon fill="#63b8ff" stroke="#63b8ff" points="891.74,-495.35 886.44,-504.52 896.3,-500.65 891.74,-495.35"/>
</g>
<!-- Node20 -->
<g id="node20" class="node">
<title>Node20</title>
<g id="a_node20"><a xlink:href="_temperature__observer_8h.html" target="_top" xlink:title="Observador del sensor de temperatura.">
<polygon fill="white" stroke="#666666" points="1358,-365.5 1191,-365.5 1191,-302.5 1358,-302.5 1358,-365.5"/>
<text text-anchor="start" x="1199" y="-353.5" font-family="Helvetica,sans-Serif" font-size="10.00">C:/Users/juanh/OneDrive</text>
<text text-anchor="start" x="1199" y="-342.5" font-family="Helvetica,sans-Serif" font-size="10.00">/Escritorio/Sistemas Embebidos</text>
<text text-anchor="start" x="1199" y="-331.5" font-family="Helvetica,sans-Serif" font-size="10.00">/Proyecto final/LAL Control</text>
<text text-anchor="start" x="1199" y="-320.5" font-family="Helvetica,sans-Serif" font-size="10.00"> MbedOS/include/observer_pattern</text>
<text text-anchor="middle" x="1274.5" y="-309.5" font-family="Helvetica,sans-Serif" font-size="10.00">/observers/Temperature_observer.h</text>
</a>
</g>
</g>
<!-- Node3&#45;&gt;Node20 -->
<g id="edge36" class="edge">
<title>Node3&#45;&gt;Node20</title>
<path fill="none" stroke="#63b8ff" d="M957.44,-520.19C1036.52,-509.94 1140.77,-492.74 1176.5,-470 1216.2,-444.73 1244.99,-397.15 1260.72,-365.76"/>
<polygon fill="#63b8ff" stroke="#63b8ff" points="957.44,-516.66 947.96,-521.4 958.33,-523.6 957.44,-516.66"/>
</g>
<!-- Node22 -->
<g id="node22" class="node">
<title>Node22</title>
<g id="a_node22"><a xlink:href="_control__system_8cpp.html" target="_top" xlink:title="Implementación de Control_system.h.">
<polygon fill="white" stroke="#666666" points="832,-464.5 647,-464.5 647,-412.5 832,-412.5 832,-464.5"/>
<text text-anchor="start" x="655" y="-452.5" font-family="Helvetica,sans-Serif" font-size="10.00">C:/Users/juanh/OneDrive</text>
<text text-anchor="start" x="655" y="-441.5" font-family="Helvetica,sans-Serif" font-size="10.00">/Escritorio/Sistemas Embebidos</text>
<text text-anchor="start" x="655" y="-430.5" font-family="Helvetica,sans-Serif" font-size="10.00">/Proyecto final/LAL Control</text>
<text text-anchor="middle" x="739.5" y="-419.5" font-family="Helvetica,sans-Serif" font-size="10.00"> MbedOS/src/Port/Control_system.cpp</text>
</a>
</g>
</g>
<!-- Node3&#45;&gt;Node22 -->
<g id="edge37" class="edge">
<title>Node3&#45;&gt;Node22</title>
<path fill="none" stroke="#63b8ff" d="M817.87,-498.76C803.16,-487.64 786.9,-475.35 773.02,-464.85"/>
<polygon fill="#63b8ff" stroke="#63b8ff" points="815.5,-501.36 825.59,-504.6 819.72,-495.78 815.5,-501.36"/>
</g>
<!-- Node4&#45;&gt;Node5 -->
<g id="edge4" class="edge">
<title>Node4&#45;&gt;Node5</title>
<path fill="none" stroke="#63b8ff" d="M297.81,-399.47C286.76,-390.21 275.3,-380.32 264.98,-371.14"/>
<polygon fill="#63b8ff" stroke="#63b8ff" points="295.46,-402.08 305.39,-405.78 299.94,-396.69 295.46,-402.08"/>
</g>
<!-- Node4&#45;&gt;Node6 -->
<g id="edge13" class="edge">
<title>Node4&#45;&gt;Node6</title>
<path fill="none" stroke="#63b8ff" d="M343.06,-395.36C344.39,-366.6 350.56,-328.22 364.5,-297 370.18,-284.29 378.8,-271.85 387.86,-261.24"/>
<polygon fill="#63b8ff" stroke="#63b8ff" points="339.57,-395.06 342.82,-405.14 346.57,-395.23 339.57,-395.06"/>
</g>
<!-- Node11 -->
<g id="node11" class="node">
<title>Node11</title>
<g id="a_node11"><a xlink:href="_alarm_8cpp.html" target="_top" xlink:title="Implementación de Alarm_state.h.">
<polygon fill="white" stroke="#666666" points="544.5,-365.5 382.5,-365.5 382.5,-302.5 544.5,-302.5 544.5,-365.5"/>
<text text-anchor="start" x="390.5" y="-353.5" font-family="Helvetica,sans-Serif" font-size="10.00">C:/Users/juanh/OneDrive</text>
<text text-anchor="start" x="390.5" y="-342.5" font-family="Helvetica,sans-Serif" font-size="10.00">/Escritorio/Sistemas Embebidos</text>
<text text-anchor="start" x="390.5" y="-331.5" font-family="Helvetica,sans-Serif" font-size="10.00">/Proyecto final/LAL Control</text>
<text text-anchor="start" x="390.5" y="-320.5" font-family="Helvetica,sans-Serif" font-size="10.00"> MbedOS/src/Port/machine_state</text>
<text text-anchor="middle" x="463.5" y="-309.5" font-family="Helvetica,sans-Serif" font-size="10.00">_pattern/Alarm.cpp</text>
</a>
</g>
</g>
<!-- Node4&#45;&gt;Node11 -->
<g id="edge14" class="edge">
<title>Node4&#45;&gt;Node11</title>
<path fill="none" stroke="#63b8ff" d="M391.41,-399.26C403.82,-388.2 417.2,-376.27 429.02,-365.73"/>
<polygon fill="#63b8ff" stroke="#63b8ff" points="389.27,-396.47 384.13,-405.74 393.93,-401.7 389.27,-396.47"/>
</g>
<!-- Node5&#45;&gt;Node4 -->
<g id="edge5" class="edge">
<title>Node5&#45;&gt;Node4</title>
<path fill="none" stroke="#63b8ff" d="M286.51,-378.35C297.76,-387.9 309.14,-397.82 319.04,-406.75"/>
<polygon fill="#63b8ff" stroke="#63b8ff" points="289.01,-375.88 279.1,-372.12 284.5,-381.24 289.01,-375.88"/>
</g>
<!-- Node5&#45;&gt;Node6 -->
<g id="edge6" class="edge">
<title>Node5&#45;&gt;Node6</title>
<path fill="none" stroke="#63b8ff" d="M309.34,-291.25C328.43,-281.26 348.48,-270.78 366.44,-261.38"/>
<polygon fill="#63b8ff" stroke="#63b8ff" points="307.73,-288.14 300.5,-295.87 310.98,-294.34 307.73,-288.14"/>
</g>
<!-- Node10 -->
<g id="node10" class="node">
<title>Node10</title>
<g id="a_node10"><a xlink:href="_check__instruction__state_8cpp.html" target="_top" xlink:title="Implementación de Check_instruction_state.h.">
<polygon fill="white" stroke="#666666" points="319,-261 140,-261 140,-198 319,-198 319,-261"/>
<text text-anchor="start" x="148" y="-249" font-family="Helvetica,sans-Serif" font-size="10.00">C:/Users/juanh/OneDrive</text>
<text text-anchor="start" x="148" y="-238" font-family="Helvetica,sans-Serif" font-size="10.00">/Escritorio/Sistemas Embebidos</text>
<text text-anchor="start" x="148" y="-227" font-family="Helvetica,sans-Serif" font-size="10.00">/Proyecto final/LAL Control</text>
<text text-anchor="start" x="148" y="-216" font-family="Helvetica,sans-Serif" font-size="10.00"> MbedOS/src/Port/machine_state</text>
<text text-anchor="middle" x="229.5" y="-205" font-family="Helvetica,sans-Serif" font-size="10.00">_pattern/Check_instruction_state.cpp</text>
</a>
</g>
</g>
<!-- Node5&#45;&gt;Node10 -->
<g id="edge12" class="edge">
<title>Node5&#45;&gt;Node10</title>
<path fill="none" stroke="#63b8ff" d="M229.5,-285.26C229.5,-277.15 229.5,-268.92 229.5,-261.38"/>
<polygon fill="#63b8ff" stroke="#63b8ff" points="226,-285.06 229.5,-295.06 233,-285.06 226,-285.06"/>
</g>
<!-- Node6&#45;&gt;Node4 -->
<g id="edge7" class="edge">
<title>Node6&#45;&gt;Node4</title>
<path fill="none" stroke="#63b8ff" d="M398.23,-270.32C392.3,-278.67 386.62,-287.76 382.5,-297 366.64,-332.52 360.83,-377.32 356.63,-406.65"/>
<polygon fill="#63b8ff" stroke="#63b8ff" points="400.91,-272.58 404.04,-262.45 395.28,-268.41 400.91,-272.58"/>
</g>
<!-- Node6&#45;&gt;Node7 -->
<g id="edge8" class="edge">
<title>Node6&#45;&gt;Node7</title>
<path fill="none" stroke="#63b8ff" d="M325.77,-197.49C281.16,-183.98 240.88,-172.03 205.36,-161.56"/>
<polygon fill="#63b8ff" stroke="#63b8ff" points="324.55,-200.77 335.13,-200.33 326.58,-194.08 324.55,-200.77"/>
</g>
<!-- Node9 -->
<g id="node9" class="node">
<title>Node9</title>
<g id="a_node9"><a xlink:href="_idle__state_8cpp.html" target="_top" xlink:title="Implementación de Idle_state.h.">
<polygon fill="white" stroke="#666666" points="506.5,-162 344.5,-162 344.5,-99 506.5,-99 506.5,-162"/>
<text text-anchor="start" x="352.5" y="-150" font-family="Helvetica,sans-Serif" font-size="10.00">C:/Users/juanh/OneDrive</text>
<text text-anchor="start" x="352.5" y="-139" font-family="Helvetica,sans-Serif" font-size="10.00">/Escritorio/Sistemas Embebidos</text>
<text text-anchor="start" x="352.5" y="-128" font-family="Helvetica,sans-Serif" font-size="10.00">/Proyecto final/LAL Control</text>
<text text-anchor="start" x="352.5" y="-117" font-family="Helvetica,sans-Serif" font-size="10.00"> MbedOS/src/Port/machine_state</text>
<text text-anchor="middle" x="425.5" y="-106" font-family="Helvetica,sans-Serif" font-size="10.00">_pattern/Idle_state.cpp</text>
</a>
</g>
</g>
<!-- Node6&#45;&gt;Node9 -->
<g id="edge11" class="edge">
<title>Node6&#45;&gt;Node9</title>
<path fill="none" stroke="#63b8ff" d="M425.5,-186.15C425.5,-178.2 425.5,-170.02 425.5,-162.5"/>
<polygon fill="#63b8ff" stroke="#63b8ff" points="422,-186.03 425.5,-196.03 429,-186.03 422,-186.03"/>
</g>
<!-- Node7&#45;&gt;Node3 -->
<g id="edge9" class="edge">
<title>Node7&#45;&gt;Node3</title>
<path fill="none" stroke="#63b8ff" d="M105.96,-173.69C109.25,-251.28 121.33,-413.79 226.5,-470 334.03,-527.47 653.42,-486.46 774.15,-505.94"/>
<polygon fill="#63b8ff" stroke="#63b8ff" points="109.47,-173.81 105.57,-163.95 102.47,-174.09 109.47,-173.81"/>
</g>
<!-- Node8 -->
<g id="node8" class="node">
<title>Node8</title>
<g id="a_node8"><a xlink:href="_shutdown__state_8cpp.html" target="_top" xlink:title="Implementación de Shutdown_state.h.">
<polygon fill="white" stroke="#666666" points="183.5,-63 21.5,-63 21.5,0 183.5,0 183.5,-63"/>
<text text-anchor="start" x="29.5" y="-51" font-family="Helvetica,sans-Serif" font-size="10.00">C:/Users/juanh/OneDrive</text>
<text text-anchor="start" x="29.5" y="-40" font-family="Helvetica,sans-Serif" font-size="10.00">/Escritorio/Sistemas Embebidos</text>
<text text-anchor="start" x="29.5" y="-29" font-family="Helvetica,sans-Serif" font-size="10.00">/Proyecto final/LAL Control</text>
<text text-anchor="start" x="29.5" y="-18" font-family="Helvetica,sans-Serif" font-size="10.00"> MbedOS/src/Port/machine_state</text>
<text text-anchor="middle" x="102.5" y="-7" font-family="Helvetica,sans-Serif" font-size="10.00">_pattern/Shutdown_state.cpp</text>
</a>
</g>
</g>
<!-- Node7&#45;&gt;Node8 -->
<g id="edge10" class="edge">
<title>Node7&#45;&gt;Node8</title>
<path fill="none" stroke="#63b8ff" d="M102.5,-87.15C102.5,-79.2 102.5,-71.02 102.5,-63.5"/>
<polygon fill="#63b8ff" stroke="#63b8ff" points="99,-87.03 102.5,-97.03 106,-87.03 99,-87.03"/>
</g>
<!-- Node13&#45;&gt;Node12 -->
<g id="edge20" class="edge">
<title>Node13&#45;&gt;Node12</title>
<path fill="none" stroke="#63b8ff" d="M768.62,-298.79C770.92,-298.15 773.22,-297.56 775.5,-297 923.56,-260.91 967.76,-294.17 1116.5,-261 1122.81,-259.59 1129.3,-257.88 1135.76,-255.99"/>
<polygon fill="#63b8ff" stroke="#63b8ff" points="767.81,-295.38 759.22,-301.58 769.81,-302.09 767.81,-295.38"/>
</g>
<!-- Node14 -->
<g id="node14" class="node">
<title>Node14</title>
<g id="a_node14"><a xlink:href="_cooler__observer_8cpp.html" target="_top" xlink:title="Implementación de Cooler_observer.h.">
<polygon fill="white" stroke="#666666" points="731.5,-261 561.5,-261 561.5,-198 731.5,-198 731.5,-261"/>
<text text-anchor="start" x="569.5" y="-249" font-family="Helvetica,sans-Serif" font-size="10.00">C:/Users/juanh/OneDrive</text>
<text text-anchor="start" x="569.5" y="-238" font-family="Helvetica,sans-Serif" font-size="10.00">/Escritorio/Sistemas Embebidos</text>
<text text-anchor="start" x="569.5" y="-227" font-family="Helvetica,sans-Serif" font-size="10.00">/Proyecto final/LAL Control</text>
<text text-anchor="start" x="569.5" y="-216" font-family="Helvetica,sans-Serif" font-size="10.00"> MbedOS/src/Port/observer_pattern</text>
<text text-anchor="middle" x="646.5" y="-205" font-family="Helvetica,sans-Serif" font-size="10.00">/Cooler_observer.cpp</text>
</a>
</g>
</g>
<!-- Node13&#45;&gt;Node14 -->
<g id="edge21" class="edge">
<title>Node13&#45;&gt;Node14</title>
<path fill="none" stroke="#63b8ff" d="M668.54,-291.54C664.88,-281.42 661.03,-270.76 657.59,-261.23"/>
<polygon fill="#63b8ff" stroke="#63b8ff" points="665.2,-292.61 671.88,-300.82 671.78,-290.23 665.2,-292.61"/>
</g>
<!-- Node15&#45;&gt;Node12 -->
<g id="edge23" class="edge">
<title>Node15&#45;&gt;Node12</title>
<path fill="none" stroke="#63b8ff" d="M954.78,-298.49C956.36,-297.98 957.94,-297.48 959.5,-297 1027.91,-275.9 1047.69,-280.75 1116.5,-261 1121.94,-259.44 1127.54,-257.73 1133.15,-255.95"/>
<polygon fill="#63b8ff" stroke="#63b8ff" points="954.07,-295.03 945.69,-301.52 956.29,-301.67 954.07,-295.03"/>
</g>
<!-- Node16 -->
<g id="node16" class="node">
<title>Node16</title>
<g id="a_node16"><a xlink:href="_instruction__observer_8cpp.html" target="_top" xlink:title="Implementación de Instruction_observer.h.">
<polygon fill="white" stroke="#666666" points="919.5,-261 749.5,-261 749.5,-198 919.5,-198 919.5,-261"/>
<text text-anchor="start" x="757.5" y="-249" font-family="Helvetica,sans-Serif" font-size="10.00">C:/Users/juanh/OneDrive</text>
<text text-anchor="start" x="757.5" y="-238" font-family="Helvetica,sans-Serif" font-size="10.00">/Escritorio/Sistemas Embebidos</text>
<text text-anchor="start" x="757.5" y="-227" font-family="Helvetica,sans-Serif" font-size="10.00">/Proyecto final/LAL Control</text>
<text text-anchor="start" x="757.5" y="-216" font-family="Helvetica,sans-Serif" font-size="10.00"> MbedOS/src/Port/observer_pattern</text>
<text text-anchor="middle" x="834.5" y="-205" font-family="Helvetica,sans-Serif" font-size="10.00">/Instruction_observer.cpp</text>
</a>
</g>
</g>
<!-- Node15&#45;&gt;Node16 -->
<g id="edge24" class="edge">
<title>Node15&#45;&gt;Node16</title>
<path fill="none" stroke="#63b8ff" d="M854.15,-291.54C850.89,-281.42 847.46,-270.76 844.39,-261.23"/>
<polygon fill="#63b8ff" stroke="#63b8ff" points="850.74,-292.36 857.14,-300.81 857.4,-290.21 850.74,-292.36"/>
</g>
<!-- Node17&#45;&gt;Node12 -->
<g id="edge26" class="edge">
<title>Node17&#45;&gt;Node12</title>
<path fill="none" stroke="#63b8ff" d="M1106.94,-295.86C1126.76,-282.58 1148.61,-267.94 1166.61,-255.89"/>
<polygon fill="#63b8ff" stroke="#63b8ff" points="1105.02,-292.93 1098.66,-301.4 1108.92,-298.75 1105.02,-292.93"/>
</g>
<!-- Node18 -->
<g id="node18" class="node">
<title>Node18</title>
<g id="a_node18"><a xlink:href="_moisture__observer_8cpp.html" target="_top" xlink:title="Implementación de Moisture_observer.h.">
<polygon fill="white" stroke="#666666" points="1107.5,-261 937.5,-261 937.5,-198 1107.5,-198 1107.5,-261"/>
<text text-anchor="start" x="945.5" y="-249" font-family="Helvetica,sans-Serif" font-size="10.00">C:/Users/juanh/OneDrive</text>
<text text-anchor="start" x="945.5" y="-238" font-family="Helvetica,sans-Serif" font-size="10.00">/Escritorio/Sistemas Embebidos</text>
<text text-anchor="start" x="945.5" y="-227" font-family="Helvetica,sans-Serif" font-size="10.00">/Proyecto final/LAL Control</text>
<text text-anchor="start" x="945.5" y="-216" font-family="Helvetica,sans-Serif" font-size="10.00"> MbedOS/src/Port/observer_pattern</text>
<text text-anchor="middle" x="1022.5" y="-205" font-family="Helvetica,sans-Serif" font-size="10.00">/Moisture_observer.cpp</text>
</a>
</g>
</g>
<!-- Node17&#45;&gt;Node18 -->
<g id="edge27" class="edge">
<title>Node17&#45;&gt;Node18</title>
<path fill="none" stroke="#63b8ff" d="M1039.68,-291.22C1036.84,-281.19 1033.86,-270.66 1031.19,-261.23"/>
<polygon fill="#63b8ff" stroke="#63b8ff" points="1036.3,-292.12 1042.39,-300.79 1043.03,-290.22 1036.3,-292.12"/>
</g>
<!-- Node19&#45;&gt;Node3 -->
<g id="edge29" class="edge">
<title>Node19&#45;&gt;Node3</title>
<path fill="none" stroke="#63b8ff" d="M931.75,-477.76C920.6,-487.13 908.54,-496.92 897.54,-505.51"/>
<polygon fill="#63b8ff" stroke="#63b8ff" points="933.94,-480.49 939.31,-471.36 929.42,-475.15 933.94,-480.49"/>
</g>
<!-- Node19&#45;&gt;Node13 -->
<g id="edge30" class="edge">
<title>Node19&#45;&gt;Node13</title>
<path fill="none" stroke="#63b8ff" d="M877.41,-406.55C845,-395.63 808.56,-383.07 775.5,-371 770.99,-369.35 766.36,-367.64 761.7,-365.88"/>
<polygon fill="#63b8ff" stroke="#63b8ff" points="876.2,-409.84 886.8,-409.71 878.43,-403.2 876.2,-409.84"/>
</g>
<!-- Node19&#45;&gt;Node15 -->
<g id="edge31" class="edge">
<title>Node19&#45;&gt;Node15</title>
<path fill="none" stroke="#63b8ff" d="M932.37,-398.94C921.24,-387.97 909.27,-376.17 898.68,-365.73"/>
<polygon fill="#63b8ff" stroke="#63b8ff" points="929.64,-401.16 939.22,-405.68 934.55,-396.17 929.64,-401.16"/>
</g>
<!-- Node19&#45;&gt;Node17 -->
<g id="edge32" class="edge">
<title>Node19&#45;&gt;Node17</title>
<path fill="none" stroke="#63b8ff" d="M1002.35,-397.98C1010.7,-387.28 1019.61,-375.87 1027.51,-365.73"/>
<polygon fill="#63b8ff" stroke="#63b8ff" points="999.83,-395.52 996.43,-405.55 1005.35,-399.82 999.83,-395.52"/>
</g>
<!-- Node19&#45;&gt;Node20 -->
<g id="edge33" class="edge">
<title>Node19&#45;&gt;Node20</title>
<path fill="none" stroke="#63b8ff" d="M1065.54,-405.69C1105.56,-392.15 1151.87,-376.49 1190.7,-363.35"/>
<polygon fill="#63b8ff" stroke="#63b8ff" points="1064.48,-402.35 1056.13,-408.87 1066.72,-408.98 1064.48,-402.35"/>
</g>
<!-- Node20&#45;&gt;Node12 -->
<g id="edge34" class="edge">
<title>Node20&#45;&gt;Node12</title>
<path fill="none" stroke="#63b8ff" d="M1247.12,-292.9C1238.56,-280.38 1229.37,-266.92 1221.72,-255.72"/>
<polygon fill="#63b8ff" stroke="#63b8ff" points="1244.11,-294.71 1252.64,-301 1249.89,-290.76 1244.11,-294.71"/>
</g>
<!-- Node21 -->
<g id="node21" class="node">
<title>Node21</title>
<g id="a_node21"><a xlink:href="_temperature__observer_8cpp.html" target="_top" xlink:title="Implementación de Temperature_observer.h.">
<polygon fill="white" stroke="#666666" points="1471.5,-261 1301.5,-261 1301.5,-198 1471.5,-198 1471.5,-261"/>
<text text-anchor="start" x="1309.5" y="-249" font-family="Helvetica,sans-Serif" font-size="10.00">C:/Users/juanh/OneDrive</text>
<text text-anchor="start" x="1309.5" y="-238" font-family="Helvetica,sans-Serif" font-size="10.00">/Escritorio/Sistemas Embebidos</text>
<text text-anchor="start" x="1309.5" y="-227" font-family="Helvetica,sans-Serif" font-size="10.00">/Proyecto final/LAL Control</text>
<text text-anchor="start" x="1309.5" y="-216" font-family="Helvetica,sans-Serif" font-size="10.00"> MbedOS/src/Port/observer_pattern</text>
<text text-anchor="middle" x="1386.5" y="-205" font-family="Helvetica,sans-Serif" font-size="10.00">/Temperature_observer.cpp</text>
</a>
</g>
</g>
<!-- Node20&#45;&gt;Node21 -->
<g id="edge35" class="edge">
<title>Node20&#45;&gt;Node21</title>
<path fill="none" stroke="#63b8ff" d="M1316.29,-294.76C1328.37,-283.7 1341.4,-271.77 1352.92,-261.23"/>
<polygon fill="#63b8ff" stroke="#63b8ff" points="1314.23,-291.89 1309.22,-301.22 1318.96,-297.06 1314.23,-291.89"/>
</g>
<!-- Node25&#45;&gt;Node3 -->
<g id="edge41" class="edge">
<title>Node25&#45;&gt;Node3</title>
<path fill="none" stroke="#63b8ff" d="M1071.05,-593.16C1031.47,-581.85 985.26,-568.65 946.24,-557.5"/>
<polygon fill="#63b8ff" stroke="#63b8ff" points="1069.99,-596.49 1080.57,-595.88 1071.91,-589.76 1069.99,-596.49"/>
</g>
<!-- Node26 -->
<g id="node26" class="node">
<title>Node26</title>
<g id="a_node26"><a xlink:href="_motor_8cpp.html" target="_top" xlink:title="Implementación de Motor.h.">
<polygon fill="white" stroke="#666666" points="1248,-558 1075,-558 1075,-506 1248,-506 1248,-558"/>
<text text-anchor="start" x="1083" y="-546" font-family="Helvetica,sans-Serif" font-size="10.00">C:/Users/juanh/OneDrive</text>
<text text-anchor="start" x="1083" y="-535" font-family="Helvetica,sans-Serif" font-size="10.00">/Escritorio/Sistemas Embebidos</text>
<text text-anchor="start" x="1083" y="-524" font-family="Helvetica,sans-Serif" font-size="10.00">/Proyecto final/LAL Control</text>
<text text-anchor="middle" x="1161.5" y="-513" font-family="Helvetica,sans-Serif" font-size="10.00"> MbedOS/src/Port/drivers/Motor.cpp</text>
</a>
</g>
</g>
<!-- Node25&#45;&gt;Node26 -->
<g id="edge42" class="edge">
<title>Node25&#45;&gt;Node26</title>
<path fill="none" stroke="#63b8ff" d="M1161.5,-582.26C1161.5,-574.24 1161.5,-565.92 1161.5,-558.45"/>
<polygon fill="#63b8ff" stroke="#63b8ff" points="1158,-582.15 1161.5,-592.15 1165,-582.15 1158,-582.15"/>
</g>
</g>
</svg>
