<?xml version="1.0" encoding="UTF-8" standalone="no"?>
<!DOCTYPE svg PUBLIC "-//W3C//DTD SVG 1.1//EN"
 "http://www.w3.org/Graphics/SVG/1.1/DTD/svg11.dtd">
<!-- Generated by graphviz version 7.0.2 (20221119.0110)
 -->
<!-- Title: C:/Users/juanh/OneDrive/Escritorio/Sistemas Embebidos/Proyecto final/LAL Control MbedOS/include/port_config.h Pages: 1 -->
<svg width="1370pt" height="555pt"
 viewBox="0.00 0.00 1370.00 555.00" xmlns="http://www.w3.org/2000/svg" xmlns:xlink="http://www.w3.org/1999/xlink">
<g id="graph0" class="graph" transform="scale(1 1) rotate(0) translate(4 551)">
<title>C:/Users/juanh/OneDrive/Escritorio/Sistemas Embebidos/Proyecto final/LAL Control MbedOS/include/port_config.h</title>
<!-- Node1 -->
<g id="node1" class="node">
<title>Node1</title>
<g id="a_node1"><a xlink:title="Archivo de configuración para los puertos de la placa donde se implementará el sistema.">
<polygon fill="#999999" stroke="#666666" points="995.5,-547 838.5,-547 838.5,-495 995.5,-495 995.5,-547"/>
<text text-anchor="start" x="846.5" y="-535" font-family="Helvetica,sans-Serif" font-size="10.00">C:/Users/juanh/OneDrive</text>
<text text-anchor="start" x="846.5" y="-524" font-family="Helvetica,sans-Serif" font-size="10.00">/Escritorio/Sistemas Embebidos</text>
<text text-anchor="start" x="846.5" y="-513" font-family="Helvetica,sans-Serif" font-size="10.00">/Proyecto final/LAL Control</text>
<text text-anchor="middle" x="917" y="-502" font-family="Helvetica,sans-Serif" font-size="10.00"> MbedOS/include/port_config.h</text>
</a>
</g>
</g>
<!-- Node2 -->
<g id="node2" class="node">
<title>Node2</title>
<g id="a_node2"><a xlink:href="_buzzer_8h.html" target="_top" xlink:title="Controlador de Buzzer de 12 milimetros sin oscilador.">
<polygon fill="white" stroke="#666666" points="503,-459 339,-459 339,-407 503,-407 503,-459"/>
<text text-anchor="start" x="347" y="-447" font-family="Helvetica,sans-Serif" font-size="10.00">C:/Users/juanh/OneDrive</text>
<text text-anchor="start" x="347" y="-436" font-family="Helvetica,sans-Serif" font-size="10.00">/Escritorio/Sistemas Embebidos</text>
<text text-anchor="start" x="347" y="-425" font-family="Helvetica,sans-Serif" font-size="10.00">/Proyecto final/LAL Control</text>
<text text-anchor="middle" x="421" y="-414" font-family="Helvetica,sans-Serif" font-size="10.00"> MbedOS/include/drivers/Buzzer.h</text>
</a>
</g>
</g>
<!-- Node1&#45;&gt;Node2 -->
<g id="edge1" class="edge">
<title>Node1&#45;&gt;Node2</title>
<path fill="none" stroke="#63b8ff" d="M826.86,-504.37C734.62,-488.38 592.52,-463.74 503.26,-448.26"/>
<polygon fill="#63b8ff" stroke="#63b8ff" points="826.19,-507.81 836.64,-506.07 827.39,-500.91 826.19,-507.81"/>
</g>
<!-- Node8 -->
<g id="node8" class="node">
<title>Node8</title>
<g id="a_node8"><a xlink:href="main_8h.html" target="_top" xlink:title="Archivo principal del programa.">
<polygon fill="white" stroke="#666666" points="845.5,-63 688.5,-63 688.5,-11 845.5,-11 845.5,-63"/>
<text text-anchor="start" x="696.5" y="-51" font-family="Helvetica,sans-Serif" font-size="10.00">C:/Users/juanh/OneDrive</text>
<text text-anchor="start" x="696.5" y="-40" font-family="Helvetica,sans-Serif" font-size="10.00">/Escritorio/Sistemas Embebidos</text>
<text text-anchor="start" x="696.5" y="-29" font-family="Helvetica,sans-Serif" font-size="10.00">/Proyecto final/LAL Control</text>
<text text-anchor="middle" x="767" y="-18" font-family="Helvetica,sans-Serif" font-size="10.00"> MbedOS/include/main.h</text>
</a>
</g>
</g>
<!-- Node1&#45;&gt;Node8 -->
<g id="edge35" class="edge">
<title>Node1&#45;&gt;Node8</title>
<path fill="none" stroke="#63b8ff" d="M1006.56,-494.09C1073.68,-468.54 1154,-422.07 1154,-346 1154,-346 1154,-346 1154,-245 1154,-184.41 1176.73,-153.93 1135,-110 1077.01,-48.95 1031.63,-90.17 949,-74 915.18,-67.38 877.83,-60.01 845.82,-53.66"/>
<polygon fill="#63b8ff" stroke="#63b8ff" points="1005.51,-490.75 997.34,-497.49 1007.93,-497.32 1005.51,-490.75"/>
</g>
<!-- Node17 -->
<g id="node17" class="node">
<title>Node17</title>
<g id="a_node17"><a xlink:href="_motor_8h.html" target="_top" xlink:title="Controlador de motor de 220 VAC.">
<polygon fill="white" stroke="#666666" points="939,-459 781,-459 781,-407 939,-407 939,-459"/>
<text text-anchor="start" x="789" y="-447" font-family="Helvetica,sans-Serif" font-size="10.00">C:/Users/juanh/OneDrive</text>
<text text-anchor="start" x="789" y="-436" font-family="Helvetica,sans-Serif" font-size="10.00">/Escritorio/Sistemas Embebidos</text>
<text text-anchor="start" x="789" y="-425" font-family="Helvetica,sans-Serif" font-size="10.00">/Proyecto final/LAL Control</text>
<text text-anchor="middle" x="860" y="-414" font-family="Helvetica,sans-Serif" font-size="10.00"> MbedOS/include/drivers/Motor.h</text>
</a>
</g>
</g>
<!-- Node1&#45;&gt;Node17 -->
<g id="edge32" class="edge">
<title>Node1&#45;&gt;Node17</title>
<path fill="none" stroke="#63b8ff" d="M893.94,-485.21C888.23,-476.6 882.22,-467.53 876.87,-459.45"/>
<polygon fill="#63b8ff" stroke="#63b8ff" points="890.93,-487 899.37,-493.4 896.76,-483.13 890.93,-487"/>
</g>
<!-- Node19 -->
<g id="node19" class="node">
<title>Node19</title>
<g id="a_node19"><a xlink:href="_display_8cpp.html" target="_top" xlink:title=" ">
<polygon fill="white" stroke="#666666" points="1362,-459 1182,-459 1182,-407 1362,-407 1362,-459"/>
<text text-anchor="start" x="1190" y="-447" font-family="Helvetica,sans-Serif" font-size="10.00">C:/Users/juanh/OneDrive</text>
<text text-anchor="start" x="1190" y="-436" font-family="Helvetica,sans-Serif" font-size="10.00">/Escritorio/Sistemas Embebidos</text>
<text text-anchor="start" x="1190" y="-425" font-family="Helvetica,sans-Serif" font-size="10.00">/Proyecto final/LAL Control</text>
<text text-anchor="middle" x="1272" y="-414" font-family="Helvetica,sans-Serif" font-size="10.00"> MbedOS/src/Port/drivers/Display.cpp</text>
</a>
</g>
</g>
<!-- Node1&#45;&gt;Node19 -->
<g id="edge36" class="edge">
<title>Node1&#45;&gt;Node19</title>
<path fill="none" stroke="#63b8ff" d="M1006.97,-498.21C1060.42,-485.26 1128,-468.89 1181.54,-455.92"/>
<polygon fill="#63b8ff" stroke="#63b8ff" points="1006.15,-494.8 997.26,-500.56 1007.8,-501.6 1006.15,-494.8"/>
</g>
<!-- Node3 -->
<g id="node3" class="node">
<title>Node3</title>
<g id="a_node3"><a xlink:href="_control__system_8h_source.html" target="_top" xlink:title=" ">
<polygon fill="white" stroke="#666666" points="602.5,-371 431.5,-371 431.5,-319 602.5,-319 602.5,-371"/>
<text text-anchor="start" x="439.5" y="-359" font-family="Helvetica,sans-Serif" font-size="10.00">C:/Users/juanh/OneDrive</text>
<text text-anchor="start" x="439.5" y="-348" font-family="Helvetica,sans-Serif" font-size="10.00">/Escritorio/Sistemas Embebidos</text>
<text text-anchor="start" x="439.5" y="-337" font-family="Helvetica,sans-Serif" font-size="10.00">/Proyecto final/LAL Control</text>
<text text-anchor="middle" x="517" y="-326" font-family="Helvetica,sans-Serif" font-size="10.00"> MbedOS/include/Control_system.h</text>
</a>
</g>
</g>
<!-- Node2&#45;&gt;Node3 -->
<g id="edge2" class="edge">
<title>Node2&#45;&gt;Node3</title>
<path fill="none" stroke="#63b8ff" d="M457.67,-399.15C467.92,-389.97 478.9,-380.13 488.59,-371.45"/>
<polygon fill="#63b8ff" stroke="#63b8ff" points="455.52,-396.37 450.41,-405.65 460.2,-401.59 455.52,-396.37"/>
</g>
<!-- Node15 -->
<g id="node15" class="node">
<title>Node15</title>
<g id="a_node15"><a xlink:href="src_2_port_2drivers_2_buzzer_8cpp.html" target="_top" xlink:title=" ">
<polygon fill="white" stroke="#666666" points="413.5,-371 234.5,-371 234.5,-319 413.5,-319 413.5,-371"/>
<text text-anchor="start" x="242.5" y="-359" font-family="Helvetica,sans-Serif" font-size="10.00">C:/Users/juanh/OneDrive</text>
<text text-anchor="start" x="242.5" y="-348" font-family="Helvetica,sans-Serif" font-size="10.00">/Escritorio/Sistemas Embebidos</text>
<text text-anchor="start" x="242.5" y="-337" font-family="Helvetica,sans-Serif" font-size="10.00">/Proyecto final/LAL Control</text>
<text text-anchor="middle" x="324" y="-326" font-family="Helvetica,sans-Serif" font-size="10.00"> MbedOS/src/Port/drivers/Buzzer.cpp</text>
</a>
</g>
</g>
<!-- Node2&#45;&gt;Node15 -->
<g id="edge30" class="edge">
<title>Node2&#45;&gt;Node15</title>
<path fill="none" stroke="#63b8ff" d="M383.94,-399.15C373.59,-389.97 362.5,-380.13 352.71,-371.45"/>
<polygon fill="#63b8ff" stroke="#63b8ff" points="381.48,-401.64 391.29,-405.66 386.13,-396.41 381.48,-401.64"/>
</g>
<!-- Node16 -->
<g id="node16" class="node">
<title>Node16</title>
<g id="a_node16"><a xlink:href="test_2drivers_2_buzzer_8cpp.html" target="_top" xlink:title=" ">
<polygon fill="white" stroke="#666666" points="216.5,-371 55.5,-371 55.5,-319 216.5,-319 216.5,-371"/>
<text text-anchor="start" x="63.5" y="-359" font-family="Helvetica,sans-Serif" font-size="10.00">C:/Users/juanh/OneDrive</text>
<text text-anchor="start" x="63.5" y="-348" font-family="Helvetica,sans-Serif" font-size="10.00">/Escritorio/Sistemas Embebidos</text>
<text text-anchor="start" x="63.5" y="-337" font-family="Helvetica,sans-Serif" font-size="10.00">/Proyecto final/LAL Control</text>
<text text-anchor="middle" x="136" y="-326" font-family="Helvetica,sans-Serif" font-size="10.00"> MbedOS/test/drivers/Buzzer.cpp</text>
</a>
</g>
</g>
<!-- Node2&#45;&gt;Node16 -->
<g id="edge31" class="edge">
<title>Node2&#45;&gt;Node16</title>
<path fill="none" stroke="#63b8ff" d="M327.62,-403.82C291.81,-393.02 251.3,-380.79 216.77,-370.37"/>
<polygon fill="#63b8ff" stroke="#63b8ff" points="326.53,-407.15 337.12,-406.69 328.55,-400.45 326.53,-407.15"/>
</g>
<!-- Node4 -->
<g id="node4" class="node">
<title>Node4</title>
<g id="a_node4"><a xlink:href="_check__instruction__state_8h_source.html" target="_top" xlink:title=" ">
<polygon fill="white" stroke="#666666" points="228,-283 70,-283 70,-209 228,-209 228,-283"/>
<text text-anchor="start" x="78" y="-271" font-family="Helvetica,sans-Serif" font-size="10.00">C:/Users/juanh/OneDrive</text>
<text text-anchor="start" x="78" y="-260" font-family="Helvetica,sans-Serif" font-size="10.00">/Escritorio/Sistemas Embebidos</text>
<text text-anchor="start" x="78" y="-249" font-family="Helvetica,sans-Serif" font-size="10.00">/Proyecto final/LAL Control</text>
<text text-anchor="start" x="78" y="-238" font-family="Helvetica,sans-Serif" font-size="10.00"> MbedOS/include/machine_state</text>
<text text-anchor="start" x="78" y="-227" font-family="Helvetica,sans-Serif" font-size="10.00">_pattern/machine_states/Check</text>
<text text-anchor="middle" x="149" y="-216" font-family="Helvetica,sans-Serif" font-size="10.00">_instruction_state.h</text>
</a>
</g>
</g>
<!-- Node3&#45;&gt;Node4 -->
<g id="edge3" class="edge">
<title>Node3&#45;&gt;Node4</title>
<path fill="none" stroke="#63b8ff" d="M420.17,-318.61C348.86,-301.68 328.44,-301.34 261,-283 250.36,-280.11 239.22,-276.83 228.27,-273.47"/>
<polygon fill="#63b8ff" stroke="#63b8ff" points="419.06,-321.94 429.61,-320.88 420.7,-315.14 419.06,-321.94"/>
</g>
<!-- Node5 -->
<g id="node5" class="node">
<title>Node5</title>
<g id="a_node5"><a xlink:href="_idle__state_8h.html" target="_top" xlink:title="Clase de estado de reposo.">
<polygon fill="white" stroke="#666666" points="293.5,-173 116.5,-173 116.5,-110 293.5,-110 293.5,-173"/>
<text text-anchor="start" x="124.5" y="-161" font-family="Helvetica,sans-Serif" font-size="10.00">C:/Users/juanh/OneDrive</text>
<text text-anchor="start" x="124.5" y="-150" font-family="Helvetica,sans-Serif" font-size="10.00">/Escritorio/Sistemas Embebidos</text>
<text text-anchor="start" x="124.5" y="-139" font-family="Helvetica,sans-Serif" font-size="10.00">/Proyecto final/LAL Control</text>
<text text-anchor="start" x="124.5" y="-128" font-family="Helvetica,sans-Serif" font-size="10.00"> MbedOS/include/machine_state</text>
<text text-anchor="middle" x="205" y="-117" font-family="Helvetica,sans-Serif" font-size="10.00">_pattern/machine_states/Idle_state.h</text>
</a>
</g>
</g>
<!-- Node3&#45;&gt;Node5 -->
<g id="edge11" class="edge">
<title>Node3&#45;&gt;Node5</title>
<path fill="none" stroke="#63b8ff" d="M420,-317.17C367.82,-302.48 313.08,-286.56 308,-283 267.62,-254.71 236.91,-205.49 219.92,-173.46"/>
<polygon fill="#63b8ff" stroke="#63b8ff" points="419.05,-320.54 429.62,-319.87 420.94,-313.8 419.05,-320.54"/>
</g>
<!-- Node6 -->
<g id="node6" class="node">
<title>Node6</title>
<g id="a_node6"><a xlink:href="_motor__control__state_8h.html" target="_top" xlink:title="Clase de estado de control del motor.">
<polygon fill="white" stroke="#666666" points="158,-74 0,-74 0,0 158,0 158,-74"/>
<text text-anchor="start" x="8" y="-62" font-family="Helvetica,sans-Serif" font-size="10.00">C:/Users/juanh/OneDrive</text>
<text text-anchor="start" x="8" y="-51" font-family="Helvetica,sans-Serif" font-size="10.00">/Escritorio/Sistemas Embebidos</text>
<text text-anchor="start" x="8" y="-40" font-family="Helvetica,sans-Serif" font-size="10.00">/Proyecto final/LAL Control</text>
<text text-anchor="start" x="8" y="-29" font-family="Helvetica,sans-Serif" font-size="10.00"> MbedOS/include/machine_state</text>
<text text-anchor="start" x="8" y="-18" font-family="Helvetica,sans-Serif" font-size="10.00">_pattern/machine_states/Motor</text>
<text text-anchor="middle" x="79" y="-7" font-family="Helvetica,sans-Serif" font-size="10.00">_control_state.h</text>
</a>
</g>
</g>
<!-- Node3&#45;&gt;Node6 -->
<g id="edge12" class="edge">
<title>Node3&#45;&gt;Node6</title>
<path fill="none" stroke="#63b8ff" d="M419.9,-319.09C324.71,-307.59 112.94,-340.38 61,-283 9.34,-225.93 39.48,-127.54 61.75,-74.47"/>
<polygon fill="#63b8ff" stroke="#63b8ff" points="419.27,-322.53 429.68,-320.54 420.3,-315.61 419.27,-322.53"/>
</g>
<!-- Node7 -->
<g id="node7" class="node">
<title>Node7</title>
<g id="a_node7"><a xlink:href="_shutdown__state_8h.html" target="_top" xlink:title="Clase de estado de apagado del sistema.">
<polygon fill="white" stroke="#666666" points="433.5,-68.5 228.5,-68.5 228.5,-5.5 433.5,-5.5 433.5,-68.5"/>
<text text-anchor="start" x="236.5" y="-56.5" font-family="Helvetica,sans-Serif" font-size="10.00">C:/Users/juanh/OneDrive</text>
<text text-anchor="start" x="236.5" y="-45.5" font-family="Helvetica,sans-Serif" font-size="10.00">/Escritorio/Sistemas Embebidos</text>
<text text-anchor="start" x="236.5" y="-34.5" font-family="Helvetica,sans-Serif" font-size="10.00">/Proyecto final/LAL Control</text>
<text text-anchor="start" x="236.5" y="-23.5" font-family="Helvetica,sans-Serif" font-size="10.00"> MbedOS/include/machine_state</text>
<text text-anchor="middle" x="331" y="-12.5" font-family="Helvetica,sans-Serif" font-size="10.00">_pattern/machine_states/Shutdown_state.h</text>
</a>
</g>
</g>
<!-- Node3&#45;&gt;Node7 -->
<g id="edge13" class="edge">
<title>Node3&#45;&gt;Node7</title>
<path fill="none" stroke="#63b8ff" d="M420.7,-317.48C391.22,-307.04 364.17,-294.75 355,-283 305.89,-220.07 310.72,-119.25 320.49,-68.82"/>
<polygon fill="#63b8ff" stroke="#63b8ff" points="419.17,-320.66 429.76,-320.61 421.45,-314.04 419.17,-320.66"/>
</g>
<!-- Node3&#45;&gt;Node8 -->
<g id="edge14" class="edge">
<title>Node3&#45;&gt;Node8</title>
<path fill="none" stroke="#63b8ff" d="M477.71,-311.13C425.28,-263.32 344.74,-173.41 397,-110 433.16,-66.13 590.67,-48.64 688.16,-41.93"/>
<polygon fill="#63b8ff" stroke="#63b8ff" points="475.27,-313.64 485.06,-317.7 479.94,-308.42 475.27,-313.64"/>
</g>
<!-- Node9 -->
<g id="node9" class="node">
<title>Node9</title>
<g id="a_node9"><a xlink:href="_cooler__observer_8h_source.html" target="_top" xlink:title=" ">
<polygon fill="white" stroke="#666666" points="758,-173 592,-173 592,-110 758,-110 758,-173"/>
<text text-anchor="start" x="600" y="-161" font-family="Helvetica,sans-Serif" font-size="10.00">C:/Users/juanh/OneDrive</text>
<text text-anchor="start" x="600" y="-150" font-family="Helvetica,sans-Serif" font-size="10.00">/Escritorio/Sistemas Embebidos</text>
<text text-anchor="start" x="600" y="-139" font-family="Helvetica,sans-Serif" font-size="10.00">/Proyecto final/LAL Control</text>
<text text-anchor="start" x="600" y="-128" font-family="Helvetica,sans-Serif" font-size="10.00"> MbedOS/include/observer_pattern</text>
<text text-anchor="middle" x="675" y="-117" font-family="Helvetica,sans-Serif" font-size="10.00">/observers/Cooler_observer.h</text>
</a>
</g>
</g>
<!-- Node3&#45;&gt;Node9 -->
<g id="edge15" class="edge">
<title>Node3&#45;&gt;Node9</title>
<path fill="none" stroke="#63b8ff" d="M522.95,-307.61C529.27,-278.36 541.68,-237.59 565,-209 576.5,-194.91 591.82,-183.05 607.37,-173.43"/>
<polygon fill="#63b8ff" stroke="#63b8ff" points="519.58,-306.61 521.05,-317.11 526.45,-307.99 519.58,-306.61"/>
</g>
<!-- Node10 -->
<g id="node10" class="node">
<title>Node10</title>
<g id="a_node10"><a xlink:href="_instruction__observer_8h.html" target="_top" xlink:title="Observador de instrucciones.">
<polygon fill="white" stroke="#666666" points="1126,-173 960,-173 960,-110 1126,-110 1126,-173"/>
<text text-anchor="start" x="968" y="-161" font-family="Helvetica,sans-Serif" font-size="10.00">C:/Users/juanh/OneDrive</text>
<text text-anchor="start" x="968" y="-150" font-family="Helvetica,sans-Serif" font-size="10.00">/Escritorio/Sistemas Embebidos</text>
<text text-anchor="start" x="968" y="-139" font-family="Helvetica,sans-Serif" font-size="10.00">/Proyecto final/LAL Control</text>
<text text-anchor="start" x="968" y="-128" font-family="Helvetica,sans-Serif" font-size="10.00"> MbedOS/include/observer_pattern</text>
<text text-anchor="middle" x="1043" y="-117" font-family="Helvetica,sans-Serif" font-size="10.00">/observers/Instruction_observer.h</text>
</a>
</g>
</g>
<!-- Node3&#45;&gt;Node10 -->
<g id="edge17" class="edge">
<title>Node3&#45;&gt;Node10</title>
<path fill="none" stroke="#63b8ff" d="M614.07,-330.48C669.21,-320.95 738.83,-305.76 798,-283 872.59,-254.31 951.52,-205.19 999.03,-173.29"/>
<polygon fill="#63b8ff" stroke="#63b8ff" points="613.66,-327 604.38,-332.12 614.82,-333.9 613.66,-327"/>
</g>
<!-- Node12 -->
<g id="node12" class="node">
<title>Node12</title>
<g id="a_node12"><a xlink:href="_moisture__observer_8h.html" target="_top" xlink:title="Observador del sensor de temperatura.">
<polygon fill="white" stroke="#666666" points="942,-173 776,-173 776,-110 942,-110 942,-173"/>
<text text-anchor="start" x="784" y="-161" font-family="Helvetica,sans-Serif" font-size="10.00">C:/Users/juanh/OneDrive</text>
<text text-anchor="start" x="784" y="-150" font-family="Helvetica,sans-Serif" font-size="10.00">/Escritorio/Sistemas Embebidos</text>
<text text-anchor="start" x="784" y="-139" font-family="Helvetica,sans-Serif" font-size="10.00">/Proyecto final/LAL Control</text>
<text text-anchor="start" x="784" y="-128" font-family="Helvetica,sans-Serif" font-size="10.00"> MbedOS/include/observer_pattern</text>
<text text-anchor="middle" x="859" y="-117" font-family="Helvetica,sans-Serif" font-size="10.00">/observers/Moisture_observer.h</text>
</a>
</g>
</g>
<!-- Node3&#45;&gt;Node12 -->
<g id="edge20" class="edge">
<title>Node3&#45;&gt;Node12</title>
<path fill="none" stroke="#63b8ff" d="M614.21,-332.82C658.11,-324.3 708.99,-309.32 749,-283 791.32,-255.16 824.45,-205.57 842.87,-173.37"/>
<polygon fill="#63b8ff" stroke="#63b8ff" points="613.6,-329.37 604.4,-334.63 614.87,-336.26 613.6,-329.37"/>
</g>
<!-- Node13 -->
<g id="node13" class="node">
<title>Node13</title>
<g id="a_node13"><a xlink:href="_system__observer_8h.html" target="_top" xlink:title="Clase observador del sistema de control.">
<polygon fill="white" stroke="#666666" points="740,-277.5 574,-277.5 574,-214.5 740,-214.5 740,-277.5"/>
<text text-anchor="start" x="582" y="-265.5" font-family="Helvetica,sans-Serif" font-size="10.00">C:/Users/juanh/OneDrive</text>
<text text-anchor="start" x="582" y="-254.5" font-family="Helvetica,sans-Serif" font-size="10.00">/Escritorio/Sistemas Embebidos</text>
<text text-anchor="start" x="582" y="-243.5" font-family="Helvetica,sans-Serif" font-size="10.00">/Proyecto final/LAL Control</text>
<text text-anchor="start" x="582" y="-232.5" font-family="Helvetica,sans-Serif" font-size="10.00"> MbedOS/include/observer_pattern</text>
<text text-anchor="middle" x="657" y="-221.5" font-family="Helvetica,sans-Serif" font-size="10.00">/observers/System_observer.h</text>
</a>
</g>
</g>
<!-- Node3&#45;&gt;Node13 -->
<g id="edge22" class="edge">
<title>Node3&#45;&gt;Node13</title>
<path fill="none" stroke="#63b8ff" d="M556.97,-311.88C572.29,-300.92 589.95,-288.7 606.14,-277.85"/>
<polygon fill="#63b8ff" stroke="#63b8ff" points="555.05,-308.94 548.99,-317.63 559.15,-314.62 555.05,-308.94"/>
</g>
<!-- Node14 -->
<g id="node14" class="node">
<title>Node14</title>
<g id="a_node14"><a xlink:href="_temperature__observer_8h.html" target="_top" xlink:title="Observador del sensor de temperatura.">
<polygon fill="white" stroke="#666666" points="573.5,-173 406.5,-173 406.5,-110 573.5,-110 573.5,-173"/>
<text text-anchor="start" x="414.5" y="-161" font-family="Helvetica,sans-Serif" font-size="10.00">C:/Users/juanh/OneDrive</text>
<text text-anchor="start" x="414.5" y="-150" font-family="Helvetica,sans-Serif" font-size="10.00">/Escritorio/Sistemas Embebidos</text>
<text text-anchor="start" x="414.5" y="-139" font-family="Helvetica,sans-Serif" font-size="10.00">/Proyecto final/LAL Control</text>
<text text-anchor="start" x="414.5" y="-128" font-family="Helvetica,sans-Serif" font-size="10.00"> MbedOS/include/observer_pattern</text>
<text text-anchor="middle" x="490" y="-117" font-family="Helvetica,sans-Serif" font-size="10.00">/observers/Temperature_observer.h</text>
</a>
</g>
</g>
<!-- Node3&#45;&gt;Node14 -->
<g id="edge29" class="edge">
<title>Node3&#45;&gt;Node14</title>
<path fill="none" stroke="#63b8ff" d="M512.14,-307.71C506.99,-269.3 498.96,-209.36 494.12,-173.21"/>
<polygon fill="#63b8ff" stroke="#63b8ff" points="508.64,-307.94 513.43,-317.39 515.57,-307.01 508.64,-307.94"/>
</g>
<!-- Node4&#45;&gt;Node5 -->
<g id="edge4" class="edge">
<title>Node4&#45;&gt;Node5</title>
<path fill="none" stroke="#63b8ff" d="M174.32,-198.66C179,-190.1 183.78,-181.35 188.13,-173.38"/>
<polygon fill="#63b8ff" stroke="#63b8ff" points="171.35,-196.79 169.63,-207.25 177.49,-200.15 171.35,-196.79"/>
</g>
<!-- Node4&#45;&gt;Node6 -->
<g id="edge10" class="edge">
<title>Node4&#45;&gt;Node6</title>
<path fill="none" stroke="#63b8ff" d="M110.45,-199.11C105.69,-190.66 101.35,-181.74 98,-173 85.66,-140.82 78.34,-102.13 75.9,-74.43"/>
<polygon fill="#63b8ff" stroke="#63b8ff" points="107.31,-200.67 115.42,-207.48 113.32,-197.09 107.31,-200.67"/>
</g>
<!-- Node5&#45;&gt;Node6 -->
<g id="edge5" class="edge">
<title>Node5&#45;&gt;Node6</title>
<path fill="none" stroke="#63b8ff" d="M152.06,-102.75C140.27,-93.4 128,-83.41 116.95,-74.14"/>
<polygon fill="#63b8ff" stroke="#63b8ff" points="149.74,-105.38 159.76,-108.81 154.07,-99.88 149.74,-105.38"/>
</g>
<!-- Node5&#45;&gt;Node7 -->
<g id="edge8" class="edge">
<title>Node5&#45;&gt;Node7</title>
<path fill="none" stroke="#63b8ff" d="M251.62,-102.57C265.33,-91.43 280.14,-79.37 293.22,-68.73"/>
<polygon fill="#63b8ff" stroke="#63b8ff" points="249.53,-99.77 243.98,-108.79 253.94,-105.2 249.53,-99.77"/>
</g>
<!-- Node6&#45;&gt;Node4 -->
<g id="edge6" class="edge">
<title>Node6&#45;&gt;Node4</title>
<path fill="none" stroke="#63b8ff" d="M92.97,-85.65C98.31,-111.99 105.25,-144.97 116,-173 120.66,-185.16 127.24,-197.67 133.42,-208.78"/>
<polygon fill="#63b8ff" stroke="#63b8ff" points="96.41,-85.02 91,-75.91 89.55,-86.41 96.41,-85.02"/>
</g>
<!-- Node6&#45;&gt;Node5 -->
<g id="edge7" class="edge">
<title>Node6&#45;&gt;Node5</title>
<path fill="none" stroke="#63b8ff" d="M138.62,-81.07C150.64,-90.7 162.83,-100.73 173.44,-109.75"/>
<polygon fill="#63b8ff" stroke="#63b8ff" points="141.1,-78.57 131.1,-75.09 136.74,-84.05 141.1,-78.57"/>
</g>
<!-- Node7&#45;&gt;Node3 -->
<g id="edge9" class="edge">
<title>Node7&#45;&gt;Node3</title>
<path fill="none" stroke="#63b8ff" d="M330.97,-80.17C328.31,-133.24 327.34,-224.49 373,-283 382.5,-295.17 411.21,-307.93 440.57,-318.62"/>
<polygon fill="#63b8ff" stroke="#63b8ff" points="334.46,-80.51 331.5,-70.33 327.47,-80.13 334.46,-80.51"/>
</g>
<!-- Node9&#45;&gt;Node8 -->
<g id="edge16" class="edge">
<title>Node9&#45;&gt;Node8</title>
<path fill="none" stroke="#63b8ff" d="M710,-101.51C721.52,-88.67 734.02,-74.75 744.37,-63.22"/>
<polygon fill="#63b8ff" stroke="#63b8ff" points="707.69,-98.84 703.61,-108.62 712.9,-103.52 707.69,-98.84"/>
</g>
<!-- Node10&#45;&gt;Node8 -->
<g id="edge18" class="edge">
<title>Node10&#45;&gt;Node8</title>
<path fill="none" stroke="#63b8ff" d="M949.44,-105.75C912.14,-91.9 870,-76.25 835.63,-63.49"/>
<polygon fill="#63b8ff" stroke="#63b8ff" points="947.8,-108.88 958.4,-109.08 950.24,-102.32 947.8,-108.88"/>
</g>
<!-- Node11 -->
<g id="node11" class="node">
<title>Node11</title>
<g id="a_node11"><a xlink:href="_instruction__observer_8cpp.html" target="_top" xlink:title=" ">
<polygon fill="white" stroke="#666666" points="1128,-68.5 958,-68.5 958,-5.5 1128,-5.5 1128,-68.5"/>
<text text-anchor="start" x="966" y="-56.5" font-family="Helvetica,sans-Serif" font-size="10.00">C:/Users/juanh/OneDrive</text>
<text text-anchor="start" x="966" y="-45.5" font-family="Helvetica,sans-Serif" font-size="10.00">/Escritorio/Sistemas Embebidos</text>
<text text-anchor="start" x="966" y="-34.5" font-family="Helvetica,sans-Serif" font-size="10.00">/Proyecto final/LAL Control</text>
<text text-anchor="start" x="966" y="-23.5" font-family="Helvetica,sans-Serif" font-size="10.00"> MbedOS/src/Port/observer_pattern</text>
<text text-anchor="middle" x="1043" y="-12.5" font-family="Helvetica,sans-Serif" font-size="10.00">/Instruction_observer.cpp</text>
</a>
</g>
</g>
<!-- Node10&#45;&gt;Node11 -->
<g id="edge19" class="edge">
<title>Node10&#45;&gt;Node11</title>
<path fill="none" stroke="#63b8ff" d="M1043,-98.4C1043,-88.46 1043,-78.05 1043,-68.73"/>
<polygon fill="#63b8ff" stroke="#63b8ff" points="1039.5,-98.23 1043,-108.23 1046.5,-98.23 1039.5,-98.23"/>
</g>
<!-- Node12&#45;&gt;Node8 -->
<g id="edge21" class="edge">
<title>Node12&#45;&gt;Node8</title>
<path fill="none" stroke="#63b8ff" d="M824,-101.51C812.48,-88.67 799.98,-74.75 789.63,-63.22"/>
<polygon fill="#63b8ff" stroke="#63b8ff" points="821.1,-103.52 830.39,-108.62 826.31,-98.84 821.1,-103.52"/>
</g>
<!-- Node13&#45;&gt;Node3 -->
<g id="edge23" class="edge">
<title>Node13&#45;&gt;Node3</title>
<path fill="none" stroke="#63b8ff" d="M609.56,-284.44C593.44,-295.84 575.55,-308.1 559.81,-318.51"/>
<polygon fill="#63b8ff" stroke="#63b8ff" points="611.47,-287.37 617.58,-278.72 607.41,-281.67 611.47,-287.37"/>
</g>
<!-- Node13&#45;&gt;Node9 -->
<g id="edge24" class="edge">
<title>Node13&#45;&gt;Node9</title>
<path fill="none" stroke="#63b8ff" d="M664.34,-203.22C666.1,-193.19 667.95,-182.66 669.6,-173.23"/>
<polygon fill="#63b8ff" stroke="#63b8ff" points="660.94,-202.3 662.66,-212.76 667.84,-203.51 660.94,-202.3"/>
</g>
<!-- Node13&#45;&gt;Node10 -->
<g id="edge25" class="edge">
<title>Node13&#45;&gt;Node10</title>
<path fill="none" stroke="#63b8ff" d="M751.44,-223.9C809.35,-210.46 884.82,-192.04 951,-173 953.91,-172.16 956.87,-171.29 959.85,-170.4"/>
<polygon fill="#63b8ff" stroke="#63b8ff" points="750.9,-220.43 741.95,-226.09 752.48,-227.25 750.9,-220.43"/>
</g>
<!-- Node13&#45;&gt;Node12 -->
<g id="edge26" class="edge">
<title>Node13&#45;&gt;Node12</title>
<path fill="none" stroke="#63b8ff" d="M727.9,-209.02C750.86,-197.37 776.09,-184.57 798.24,-173.33"/>
<polygon fill="#63b8ff" stroke="#63b8ff" points="726.56,-205.78 719.23,-213.42 729.73,-212.02 726.56,-205.78"/>
</g>
<!-- Node13&#45;&gt;Node14 -->
<g id="edge27" class="edge">
<title>Node13&#45;&gt;Node14</title>
<path fill="none" stroke="#63b8ff" d="M597.32,-208.37C578.68,-196.93 558.3,-184.42 540.36,-173.41"/>
<polygon fill="#63b8ff" stroke="#63b8ff" points="595.25,-211.21 605.6,-213.45 598.91,-205.24 595.25,-211.21"/>
</g>
<!-- Node14&#45;&gt;Node8 -->
<g id="edge28" class="edge">
<title>Node14&#45;&gt;Node8</title>
<path fill="none" stroke="#63b8ff" d="M583.9,-105.75C621.33,-91.9 663.62,-76.25 698.13,-63.49"/>
<polygon fill="#63b8ff" stroke="#63b8ff" points="583.07,-102.33 574.9,-109.08 585.5,-108.89 583.07,-102.33"/>
</g>
<!-- Node17&#45;&gt;Node3 -->
<g id="edge33" class="edge">
<title>Node17&#45;&gt;Node3</title>
<path fill="none" stroke="#63b8ff" d="M769.74,-409.37C718.14,-396.43 653.79,-380.3 602.93,-367.55"/>
<polygon fill="#63b8ff" stroke="#63b8ff" points="768.86,-412.76 779.41,-411.79 770.56,-405.97 768.86,-412.76"/>
</g>
<!-- Node18 -->
<g id="node18" class="node">
<title>Node18</title>
<g id="a_node18"><a xlink:href="_motor_8cpp.html" target="_top" xlink:title=" ">
<polygon fill="white" stroke="#666666" points="946.5,-371 773.5,-371 773.5,-319 946.5,-319 946.5,-371"/>
<text text-anchor="start" x="781.5" y="-359" font-family="Helvetica,sans-Serif" font-size="10.00">C:/Users/juanh/OneDrive</text>
<text text-anchor="start" x="781.5" y="-348" font-family="Helvetica,sans-Serif" font-size="10.00">/Escritorio/Sistemas Embebidos</text>
<text text-anchor="start" x="781.5" y="-337" font-family="Helvetica,sans-Serif" font-size="10.00">/Proyecto final/LAL Control</text>
<text text-anchor="middle" x="860" y="-326" font-family="Helvetica,sans-Serif" font-size="10.00"> MbedOS/src/Port/drivers/Motor.cpp</text>
</a>
</g>
</g>
<!-- Node17&#45;&gt;Node18 -->
<g id="edge34" class="edge">
<title>Node17&#45;&gt;Node18</title>
<path fill="none" stroke="#63b8ff" d="M860,-395.26C860,-387.24 860,-378.92 860,-371.45"/>
<polygon fill="#63b8ff" stroke="#63b8ff" points="856.5,-395.15 860,-405.15 863.5,-395.15 856.5,-395.15"/>
</g>
</g>
</svg>
