<?xml version="1.0" encoding="UTF-8" standalone="no"?>
<!DOCTYPE svg PUBLIC "-//W3C//DTD SVG 1.1//EN"
 "http://www.w3.org/Graphics/SVG/1.1/DTD/svg11.dtd">
<!-- Generated by graphviz version 7.0.2 (20221119.0110)
 -->
<!-- Title: C:/Users/juanh/OneDrive/Escritorio/Facultad/Beca/Proyecto/LAL Control Arduino/include/system_settings.h Pages: 1 -->
<!--zoomable 544 -->
<svg id="main" version="1.1" xmlns="http://www.w3.org/2000/svg" xmlns:xlink="http://www.w3.org/1999/xlink" xml:space="preserve" onload="init(evt)">
<style type="text/css"><![CDATA[
.edge:hover path { stroke: red; }
.edge:hover polygon { stroke: red; fill: red; }
]]></style>
<script type="text/javascript"><![CDATA[
var edges = document.getElementsByTagName('g');
if (edges && edges.length) {
  for (var i=0;i<edges.length;i++) {
    if (edges[i].id.substr(0,4)=='edge') {
      edges[i].setAttribute('class','edge');
    }
  }
}
]]></script>
        <defs>
                <circle id="rim" cx="0" cy="0" r="7"/>
                <circle id="rim2" cx="0" cy="0" r="3.5"/>
                <g id="zoomPlus">
                        <use xlink:href="#rim" fill="#404040">
                                <set attributeName="fill" to="#808080" begin="zoomplus.mouseover" end="zoomplus.mouseout"/>
                        </use>
                        <path d="M-4,0h8M0,-4v8" fill="none" stroke="white" stroke-width="1.5" pointer-events="none"/>
                </g>
                <g id="zoomMin">
                        <use xlink:href="#rim" fill="#404040">
                                <set attributeName="fill" to="#808080" begin="zoomminus.mouseover" end="zoomminus.mouseout"/>
                        </use>
                        <path d="M-4,0h8" fill="none" stroke="white" stroke-width="1.5" pointer-events="none"/>
                </g>
                <g id="dirArrow">
                        <path fill="none" stroke="white" stroke-width="1.5" d="M0,-3.0v7 M-2.5,-0.5L0,-3.0L2.5,-0.5"/>
                </g>
               <g id="resetDef">
                       <use xlink:href="#rim2" fill="#404040">
                               <set attributeName="fill" to="#808080" begin="reset.mouseover" end="reset.mouseout"/>
                       </use>
               </g>
        </defs>

<script type="text/javascript">
var viewWidth = 1171;
var viewHeight = 544;
var sectionId = 'dynsection-0';
</script>
<script xlink:href="svgpan.js"/>
<svg id="graph" class="graph">
<g id="viewport">
<title>C:/Users/juanh/OneDrive/Escritorio/Facultad/Beca/Proyecto/LAL Control Arduino/include/system_settings.h</title>
<!-- Node1 -->
<g id="node1" class="node">
<title>Node1</title>
<g id="a_node1"><a xlink:title="Archivo para la definición de constantes del sistema.">
<polygon fill="#999999" stroke="#666666" points="401.78,-536 252.78,-536 252.78,-484 401.78,-484 401.78,-536"/>
<text text-anchor="start" x="260.78" y="-524" font-family="Helvetica,sans-Serif" font-size="10.00">C:/Users/juanh/OneDrive</text>
<text text-anchor="start" x="260.78" y="-513" font-family="Helvetica,sans-Serif" font-size="10.00">/Escritorio/Facultad/Beca</text>
<text text-anchor="start" x="260.78" y="-502" font-family="Helvetica,sans-Serif" font-size="10.00">/Proyecto/LAL Control Arduino</text>
<text text-anchor="middle" x="327.28" y="-491" font-family="Helvetica,sans-Serif" font-size="10.00">/include/system_settings.h</text>
</a>
</g>
</g>
<!-- Node2 -->
<g id="node2" class="node">
<title>Node2</title>
<g id="a_node2"><a xlink:href="_cooler_8h.html" target="_top" xlink:title="Controlador de ventilador de 12 volts y 5 milímteros.">
<polygon fill="white" stroke="#666666" points="735.78,-442.5 586.78,-442.5 586.78,-390.5 735.78,-390.5 735.78,-442.5"/>
<text text-anchor="start" x="594.78" y="-430.5" font-family="Helvetica,sans-Serif" font-size="10.00">C:/Users/juanh/OneDrive</text>
<text text-anchor="start" x="594.78" y="-419.5" font-family="Helvetica,sans-Serif" font-size="10.00">/Escritorio/Facultad/Beca</text>
<text text-anchor="start" x="594.78" y="-408.5" font-family="Helvetica,sans-Serif" font-size="10.00">/Proyecto/LAL Control Arduino</text>
<text text-anchor="middle" x="661.28" y="-397.5" font-family="Helvetica,sans-Serif" font-size="10.00">/include/drivers/Cooler.h</text>
</a>
</g>
</g>
<!-- Node1&#45;&gt;Node2 -->
<g id="edge1" class="edge">
<title>Node1&#45;&gt;Node2</title>
<path fill="none" stroke="#63b8ff" d="M413.17,-490.67C461.95,-479.63 523.95,-464.53 578.28,-448 583.42,-446.44 588.71,-444.73 594.01,-442.95"/>
<polygon fill="#63b8ff" stroke="#63b8ff" points="412.48,-487.24 403.49,-492.85 414.02,-494.07 412.48,-487.24"/>
</g>
<!-- Node8 -->
<g id="node8" class="node">
<title>Node8</title>
<g id="a_node8"><a xlink:href="main_8h.html" target="_top" xlink:title="Archivo principal del programa.">
<polygon fill="white" stroke="#666666" points="263.78,-57.5 114.78,-57.5 114.78,-5.5 263.78,-5.5 263.78,-57.5"/>
<text text-anchor="start" x="122.78" y="-45.5" font-family="Helvetica,sans-Serif" font-size="10.00">C:/Users/juanh/OneDrive</text>
<text text-anchor="start" x="122.78" y="-34.5" font-family="Helvetica,sans-Serif" font-size="10.00">/Escritorio/Facultad/Beca</text>
<text text-anchor="start" x="122.78" y="-23.5" font-family="Helvetica,sans-Serif" font-size="10.00">/Proyecto/LAL Control Arduino</text>
<text text-anchor="middle" x="189.28" y="-12.5" font-family="Helvetica,sans-Serif" font-size="10.00">/include/main.h</text>
</a>
</g>
</g>
<!-- Node1&#45;&gt;Node8 -->
<g id="edge34" class="edge">
<title>Node1&#45;&gt;Node8</title>
<path fill="none" stroke="#63b8ff" d="M241.24,-500.5C167.12,-491.48 67.57,-474.78 38.28,-448 -4.25,-409.1 0.28,-381.64 0.28,-324 0.28,-324 0.28,-324 0.28,-228.5 0.28,-149.08 81.68,-89.49 137.64,-57.91"/>
<polygon fill="#63b8ff" stroke="#63b8ff" points="240.59,-503.94 250.94,-501.65 241.42,-496.99 240.59,-503.94"/>
</g>
<!-- Node10 -->
<g id="node10" class="node">
<title>Node10</title>
<g id="a_node10"><a xlink:href="_moisture__observer_8h.html" target="_top" xlink:title="Observador del sensor de temperatura.">
<polygon fill="white" stroke="#666666" points="273.78,-162 104.78,-162 104.78,-99 273.78,-99 273.78,-162"/>
<text text-anchor="start" x="112.78" y="-150" font-family="Helvetica,sans-Serif" font-size="10.00">C:/Users/juanh/OneDrive</text>
<text text-anchor="start" x="112.78" y="-139" font-family="Helvetica,sans-Serif" font-size="10.00">/Escritorio/Facultad/Beca</text>
<text text-anchor="start" x="112.78" y="-128" font-family="Helvetica,sans-Serif" font-size="10.00">/Proyecto/LAL Control Arduino</text>
<text text-anchor="start" x="112.78" y="-117" font-family="Helvetica,sans-Serif" font-size="10.00">/include/observer_pattern/observers</text>
<text text-anchor="middle" x="189.28" y="-106" font-family="Helvetica,sans-Serif" font-size="10.00">/Moisture_observer.h</text>
</a>
</g>
</g>
<!-- Node1&#45;&gt;Node10 -->
<g id="edge35" class="edge">
<title>Node1&#45;&gt;Node10</title>
<path fill="none" stroke="#63b8ff" d="M241.18,-498.11C177.82,-488.32 98.93,-471.78 76.28,-448 29.64,-399.02 34.94,-360.84 57.28,-297 76.28,-242.71 121.38,-192.95 153.57,-162.47"/>
<polygon fill="#63b8ff" stroke="#63b8ff" points="240.5,-501.55 250.91,-499.58 241.55,-494.63 240.5,-501.55"/>
</g>
<!-- Node12 -->
<g id="node12" class="node">
<title>Node12</title>
<g id="a_node12"><a xlink:href="_temperature__observer_8h.html" target="_top" xlink:title="Observador del sensor de temperatura.">
<polygon fill="white" stroke="#666666" points="647.78,-162 478.78,-162 478.78,-99 647.78,-99 647.78,-162"/>
<text text-anchor="start" x="486.78" y="-150" font-family="Helvetica,sans-Serif" font-size="10.00">C:/Users/juanh/OneDrive</text>
<text text-anchor="start" x="486.78" y="-139" font-family="Helvetica,sans-Serif" font-size="10.00">/Escritorio/Facultad/Beca</text>
<text text-anchor="start" x="486.78" y="-128" font-family="Helvetica,sans-Serif" font-size="10.00">/Proyecto/LAL Control Arduino</text>
<text text-anchor="start" x="486.78" y="-117" font-family="Helvetica,sans-Serif" font-size="10.00">/include/observer_pattern/observers</text>
<text text-anchor="middle" x="563.28" y="-106" font-family="Helvetica,sans-Serif" font-size="10.00">/Temperature_observer.h</text>
</a>
</g>
</g>
<!-- Node1&#45;&gt;Node12 -->
<g id="edge36" class="edge">
<title>Node1&#45;&gt;Node12</title>
<path fill="none" stroke="#63b8ff" d="M413.58,-508.66C522.71,-506.24 701.67,-494.98 745.28,-448 790.99,-398.76 780.03,-358.18 752.28,-297 725.26,-237.42 665.02,-190.84 619.76,-162.48"/>
<polygon fill="#63b8ff" stroke="#63b8ff" points="413.71,-505.16 403.78,-508.86 413.85,-512.16 413.71,-505.16"/>
</g>
<!-- Node14 -->
<g id="node14" class="node">
<title>Node14</title>
<g id="a_node14"><a xlink:href="_display_8h.html" target="_top" xlink:title="Controlador de LCD hd44780 por interfaz I2C.">
<polygon fill="white" stroke="#666666" points="234.78,-442.5 85.78,-442.5 85.78,-390.5 234.78,-390.5 234.78,-442.5"/>
<text text-anchor="start" x="93.78" y="-430.5" font-family="Helvetica,sans-Serif" font-size="10.00">C:/Users/juanh/OneDrive</text>
<text text-anchor="start" x="93.78" y="-419.5" font-family="Helvetica,sans-Serif" font-size="10.00">/Escritorio/Facultad/Beca</text>
<text text-anchor="start" x="93.78" y="-408.5" font-family="Helvetica,sans-Serif" font-size="10.00">/Proyecto/LAL Control Arduino</text>
<text text-anchor="middle" x="160.28" y="-397.5" font-family="Helvetica,sans-Serif" font-size="10.00">/include/drivers/Display.h</text>
</a>
</g>
</g>
<!-- Node1&#45;&gt;Node14 -->
<g id="edge26" class="edge">
<title>Node1&#45;&gt;Node14</title>
<path fill="none" stroke="#63b8ff" d="M270.74,-478.02C249.84,-466.57 226.43,-453.74 206.55,-442.85"/>
<polygon fill="#63b8ff" stroke="#63b8ff" points="268.99,-481.05 279.44,-482.78 272.35,-474.91 268.99,-481.05"/>
</g>
<!-- Node16 -->
<g id="node16" class="node">
<title>Node16</title>
<g id="a_node16"><a xlink:href="_dual___l_e_d_8h.html" target="_top" xlink:title="Controlador de LED RG.">
<polygon fill="white" stroke="#666666" points="568.78,-442.5 419.78,-442.5 419.78,-390.5 568.78,-390.5 568.78,-442.5"/>
<text text-anchor="start" x="427.78" y="-430.5" font-family="Helvetica,sans-Serif" font-size="10.00">C:/Users/juanh/OneDrive</text>
<text text-anchor="start" x="427.78" y="-419.5" font-family="Helvetica,sans-Serif" font-size="10.00">/Escritorio/Facultad/Beca</text>
<text text-anchor="start" x="427.78" y="-408.5" font-family="Helvetica,sans-Serif" font-size="10.00">/Proyecto/LAL Control Arduino</text>
<text text-anchor="middle" x="494.28" y="-397.5" font-family="Helvetica,sans-Serif" font-size="10.00">/include/drivers/Dual_LED.h</text>
</a>
</g>
</g>
<!-- Node1&#45;&gt;Node16 -->
<g id="edge29" class="edge">
<title>Node1&#45;&gt;Node16</title>
<path fill="none" stroke="#63b8ff" d="M383.83,-478.02C404.72,-466.57 428.14,-453.74 448.01,-442.85"/>
<polygon fill="#63b8ff" stroke="#63b8ff" points="382.22,-474.91 375.13,-482.78 385.58,-481.05 382.22,-474.91"/>
</g>
<!-- Node17 -->
<g id="node17" class="node">
<title>Node17</title>
<g id="a_node17"><a xlink:href="_temperature__sensor_8h.html" target="_top" xlink:title="Controlador para sensor de temperatura DS18B20.">
<polygon fill="white" stroke="#666666" points="401.78,-448 252.78,-448 252.78,-385 401.78,-385 401.78,-448"/>
<text text-anchor="start" x="260.78" y="-436" font-family="Helvetica,sans-Serif" font-size="10.00">C:/Users/juanh/OneDrive</text>
<text text-anchor="start" x="260.78" y="-425" font-family="Helvetica,sans-Serif" font-size="10.00">/Escritorio/Facultad/Beca</text>
<text text-anchor="start" x="260.78" y="-414" font-family="Helvetica,sans-Serif" font-size="10.00">/Proyecto/LAL Control Arduino</text>
<text text-anchor="start" x="260.78" y="-403" font-family="Helvetica,sans-Serif" font-size="10.00">/include/drivers/Temperature</text>
<text text-anchor="middle" x="327.28" y="-392" font-family="Helvetica,sans-Serif" font-size="10.00">_sensor.h</text>
</a>
</g>
</g>
<!-- Node1&#45;&gt;Node17 -->
<g id="edge31" class="edge">
<title>Node1&#45;&gt;Node17</title>
<path fill="none" stroke="#63b8ff" d="M327.28,-472.01C327.28,-464.17 327.28,-455.97 327.28,-448.38"/>
<polygon fill="#63b8ff" stroke="#63b8ff" points="323.78,-472 327.28,-482 330.78,-472 323.78,-472"/>
</g>
<!-- Node3 -->
<g id="node3" class="node">
<title>Node3</title>
<g id="a_node3"><a xlink:href="_control__system_8h.html" target="_top" xlink:title="Clase para el sistema de control.">
<polygon fill="white" stroke="#666666" points="575.78,-349 426.78,-349 426.78,-297 575.78,-297 575.78,-349"/>
<text text-anchor="start" x="434.78" y="-337" font-family="Helvetica,sans-Serif" font-size="10.00">C:/Users/juanh/OneDrive</text>
<text text-anchor="start" x="434.78" y="-326" font-family="Helvetica,sans-Serif" font-size="10.00">/Escritorio/Facultad/Beca</text>
<text text-anchor="start" x="434.78" y="-315" font-family="Helvetica,sans-Serif" font-size="10.00">/Proyecto/LAL Control Arduino</text>
<text text-anchor="middle" x="501.28" y="-304" font-family="Helvetica,sans-Serif" font-size="10.00">/include/Control_system.h</text>
</a>
</g>
</g>
<!-- Node2&#45;&gt;Node3 -->
<g id="edge2" class="edge">
<title>Node2&#45;&gt;Node3</title>
<path fill="none" stroke="#63b8ff" d="M606.83,-384.36C586.89,-372.95 564.57,-360.19 545.61,-349.35"/>
<polygon fill="#63b8ff" stroke="#63b8ff" points="604.98,-387.33 615.4,-389.26 608.46,-381.26 604.98,-387.33"/>
</g>
<!-- Node13 -->
<g id="node13" class="node">
<title>Node13</title>
<g id="a_node13"><a xlink:href="_cooler_8cpp.html" target="_top" xlink:title=" ">
<polygon fill="white" stroke="#666666" points="742.78,-349 593.78,-349 593.78,-297 742.78,-297 742.78,-349"/>
<text text-anchor="start" x="601.78" y="-337" font-family="Helvetica,sans-Serif" font-size="10.00">C:/Users/juanh/OneDrive</text>
<text text-anchor="start" x="601.78" y="-326" font-family="Helvetica,sans-Serif" font-size="10.00">/Escritorio/Facultad/Beca</text>
<text text-anchor="start" x="601.78" y="-315" font-family="Helvetica,sans-Serif" font-size="10.00">/Proyecto/LAL Control Arduino</text>
<text text-anchor="middle" x="668.28" y="-304" font-family="Helvetica,sans-Serif" font-size="10.00">/src/drivers/Cooler.cpp</text>
</a>
</g>
</g>
<!-- Node2&#45;&gt;Node13 -->
<g id="edge25" class="edge">
<title>Node2&#45;&gt;Node13</title>
<path fill="none" stroke="#63b8ff" d="M664.09,-378.8C664.85,-368.92 665.65,-358.46 666.34,-349.35"/>
<polygon fill="#63b8ff" stroke="#63b8ff" points="660.62,-378.27 663.35,-388.5 667.6,-378.8 660.62,-378.27"/>
</g>
<!-- Node4 -->
<g id="node4" class="node">
<title>Node4</title>
<g id="a_node4"><a xlink:href="_alarm__state_8h.html" target="_top" xlink:title="Clase de estado de control del motor.">
<polygon fill="white" stroke="#666666" points="951.28,-261 799.28,-261 799.28,-198 951.28,-198 951.28,-261"/>
<text text-anchor="start" x="807.28" y="-249" font-family="Helvetica,sans-Serif" font-size="10.00">C:/Users/juanh/OneDrive</text>
<text text-anchor="start" x="807.28" y="-238" font-family="Helvetica,sans-Serif" font-size="10.00">/Escritorio/Facultad/Beca</text>
<text text-anchor="start" x="807.28" y="-227" font-family="Helvetica,sans-Serif" font-size="10.00">/Proyecto/LAL Control Arduino</text>
<text text-anchor="start" x="807.28" y="-216" font-family="Helvetica,sans-Serif" font-size="10.00">/include/machine_state_pattern</text>
<text text-anchor="middle" x="875.28" y="-205" font-family="Helvetica,sans-Serif" font-size="10.00">/machine_states/Alarm_state.h</text>
</a>
</g>
</g>
<!-- Node3&#45;&gt;Node4 -->
<g id="edge3" class="edge">
<title>Node3&#45;&gt;Node4</title>
<path fill="none" stroke="#63b8ff" d="M586.86,-296.65C664.74,-276.37 742.91,-258.76 798.94,-246.61"/>
<polygon fill="#63b8ff" stroke="#63b8ff" points="586.12,-293.23 577.33,-299.15 587.89,-300 586.12,-293.23"/>
</g>
<!-- Node5 -->
<g id="node5" class="node">
<title>Node5</title>
<g id="a_node5"><a xlink:href="_check__instruction__state_8h_source.html" target="_top" xlink:title=" ">
<polygon fill="white" stroke="#666666" points="870.78,-162 665.78,-162 665.78,-99 870.78,-99 870.78,-162"/>
<text text-anchor="start" x="673.78" y="-150" font-family="Helvetica,sans-Serif" font-size="10.00">C:/Users/juanh/OneDrive</text>
<text text-anchor="start" x="673.78" y="-139" font-family="Helvetica,sans-Serif" font-size="10.00">/Escritorio/Facultad/Beca</text>
<text text-anchor="start" x="673.78" y="-128" font-family="Helvetica,sans-Serif" font-size="10.00">/Proyecto/LAL Control Arduino</text>
<text text-anchor="start" x="673.78" y="-117" font-family="Helvetica,sans-Serif" font-size="10.00">/include/machine_state_pattern</text>
<text text-anchor="middle" x="768.28" y="-106" font-family="Helvetica,sans-Serif" font-size="10.00">/machine_states/Check_instruction_state.h</text>
</a>
</g>
</g>
<!-- Node3&#45;&gt;Node5 -->
<g id="edge10" class="edge">
<title>Node3&#45;&gt;Node5</title>
<path fill="none" stroke="#63b8ff" d="M541.37,-289.68C589.23,-254.05 668.99,-197.16 720.14,-162.2"/>
<polygon fill="#63b8ff" stroke="#63b8ff" points="539.36,-286.81 533.45,-295.6 543.56,-292.41 539.36,-286.81"/>
</g>
<!-- Node6 -->
<g id="node6" class="node">
<title>Node6</title>
<g id="a_node6"><a xlink:href="_idle__state_8h.html" target="_top" xlink:title="Clase de estado de reposo.">
<polygon fill="white" stroke="#666666" points="1041.28,-162 889.28,-162 889.28,-99 1041.28,-99 1041.28,-162"/>
<text text-anchor="start" x="897.28" y="-150" font-family="Helvetica,sans-Serif" font-size="10.00">C:/Users/juanh/OneDrive</text>
<text text-anchor="start" x="897.28" y="-139" font-family="Helvetica,sans-Serif" font-size="10.00">/Escritorio/Facultad/Beca</text>
<text text-anchor="start" x="897.28" y="-128" font-family="Helvetica,sans-Serif" font-size="10.00">/Proyecto/LAL Control Arduino</text>
<text text-anchor="start" x="897.28" y="-117" font-family="Helvetica,sans-Serif" font-size="10.00">/include/machine_state_pattern</text>
<text text-anchor="middle" x="965.28" y="-106" font-family="Helvetica,sans-Serif" font-size="10.00">/machine_states/Idle_state.h</text>
</a>
</g>
</g>
<!-- Node3&#45;&gt;Node6 -->
<g id="edge11" class="edge">
<title>Node3&#45;&gt;Node6</title>
<path fill="none" stroke="#63b8ff" d="M587.54,-297.08C685.57,-284.02 905.05,-319.49 960.28,-261 984.77,-235.07 980.85,-191.61 974.32,-162.26"/>
<polygon fill="#63b8ff" stroke="#63b8ff" points="587.01,-293.62 577.7,-298.68 588.14,-300.53 587.01,-293.62"/>
</g>
<!-- Node7 -->
<g id="node7" class="node">
<title>Node7</title>
<g id="a_node7"><a xlink:href="_shutdown__state_8h.html" target="_top" xlink:title="Clase de estado de apagado del sistema.">
<polygon fill="white" stroke="#666666" points="1163.28,-63 993.28,-63 993.28,0 1163.28,0 1163.28,-63"/>
<text text-anchor="start" x="1001.28" y="-51" font-family="Helvetica,sans-Serif" font-size="10.00">C:/Users/juanh/OneDrive</text>
<text text-anchor="start" x="1001.28" y="-40" font-family="Helvetica,sans-Serif" font-size="10.00">/Escritorio/Facultad/Beca</text>
<text text-anchor="start" x="1001.28" y="-29" font-family="Helvetica,sans-Serif" font-size="10.00">/Proyecto/LAL Control Arduino</text>
<text text-anchor="start" x="1001.28" y="-18" font-family="Helvetica,sans-Serif" font-size="10.00">/include/machine_state_pattern</text>
<text text-anchor="middle" x="1078.28" y="-7" font-family="Helvetica,sans-Serif" font-size="10.00">/machine_states/Shutdown_state.h</text>
</a>
</g>
</g>
<!-- Node3&#45;&gt;Node7 -->
<g id="edge12" class="edge">
<title>Node3&#45;&gt;Node7</title>
<path fill="none" stroke="#63b8ff" d="M587.72,-295.15C682.43,-282.25 900.93,-304.28 974.28,-261 1044.03,-219.85 1062.57,-115.41 1071.09,-63.2"/>
<polygon fill="#63b8ff" stroke="#63b8ff" points="587.35,-291.66 578.03,-296.71 588.46,-298.57 587.35,-291.66"/>
</g>
<!-- Node3&#45;&gt;Node8 -->
<g id="edge13" class="edge">
<title>Node3&#45;&gt;Node8</title>
<path fill="none" stroke="#63b8ff" d="M415.57,-296.76C261.82,-261.94 163.78,-297.18 95.28,-162 82.63,-137.02 82.41,-123.87 95.28,-99 104.1,-81.96 119.53,-68.34 135.36,-57.99"/>
<polygon fill="#63b8ff" stroke="#63b8ff" points="414.72,-300.16 425.26,-299.05 416.33,-293.35 414.72,-300.16"/>
</g>
<!-- Node9 -->
<g id="node9" class="node">
<title>Node9</title>
<g id="a_node9"><a xlink:href="_cooler__observer_8h_source.html" target="_top" xlink:title=" ">
<polygon fill="white" stroke="#666666" points="460.78,-162 291.78,-162 291.78,-99 460.78,-99 460.78,-162"/>
<text text-anchor="start" x="299.78" y="-150" font-family="Helvetica,sans-Serif" font-size="10.00">C:/Users/juanh/OneDrive</text>
<text text-anchor="start" x="299.78" y="-139" font-family="Helvetica,sans-Serif" font-size="10.00">/Escritorio/Facultad/Beca</text>
<text text-anchor="start" x="299.78" y="-128" font-family="Helvetica,sans-Serif" font-size="10.00">/Proyecto/LAL Control Arduino</text>
<text text-anchor="start" x="299.78" y="-117" font-family="Helvetica,sans-Serif" font-size="10.00">/include/observer_pattern/observers</text>
<text text-anchor="middle" x="376.28" y="-106" font-family="Helvetica,sans-Serif" font-size="10.00">/Cooler_observer.h</text>
</a>
</g>
</g>
<!-- Node3&#45;&gt;Node9 -->
<g id="edge14" class="edge">
<title>Node3&#45;&gt;Node9</title>
<path fill="none" stroke="#63b8ff" d="M503.44,-285.15C503.22,-258.85 499.19,-223.73 482.28,-198 472.86,-183.66 459.16,-171.83 444.72,-162.34"/>
<polygon fill="#63b8ff" stroke="#63b8ff" points="499.94,-284.99 503.32,-295.03 506.94,-285.07 499.94,-284.99"/>
</g>
<!-- Node3&#45;&gt;Node10 -->
<g id="edge16" class="edge">
<title>Node3&#45;&gt;Node10</title>
<path fill="none" stroke="#63b8ff" d="M415.82,-296.74C360.11,-282.1 338.93,-290.7 294.28,-261 256.09,-235.59 224.94,-192 206.75,-162.49"/>
<polygon fill="#63b8ff" stroke="#63b8ff" points="414.6,-300.04 425.18,-299.36 416.49,-293.3 414.6,-300.04"/>
</g>
<!-- Node11 -->
<g id="node11" class="node">
<title>Node11</title>
<g id="a_node11"><a xlink:href="_system__observer_8h.html" target="_top" xlink:title="Clase observador del sistema de control.">
<polygon fill="white" stroke="#666666" points="472.78,-261 303.78,-261 303.78,-198 472.78,-198 472.78,-261"/>
<text text-anchor="start" x="311.78" y="-249" font-family="Helvetica,sans-Serif" font-size="10.00">C:/Users/juanh/OneDrive</text>
<text text-anchor="start" x="311.78" y="-238" font-family="Helvetica,sans-Serif" font-size="10.00">/Escritorio/Facultad/Beca</text>
<text text-anchor="start" x="311.78" y="-227" font-family="Helvetica,sans-Serif" font-size="10.00">/Proyecto/LAL Control Arduino</text>
<text text-anchor="start" x="311.78" y="-216" font-family="Helvetica,sans-Serif" font-size="10.00">/include/observer_pattern/observers</text>
<text text-anchor="middle" x="388.28" y="-205" font-family="Helvetica,sans-Serif" font-size="10.00">/System_observer.h</text>
</a>
</g>
</g>
<!-- Node3&#45;&gt;Node11 -->
<g id="edge18" class="edge">
<title>Node3&#45;&gt;Node11</title>
<path fill="none" stroke="#63b8ff" d="M454.86,-289.66C443.14,-280.47 430.83,-270.48 420,-261.38"/>
<polygon fill="#63b8ff" stroke="#63b8ff" points="452.44,-292.22 462.49,-295.58 456.74,-286.69 452.44,-292.22"/>
</g>
<!-- Node3&#45;&gt;Node12 -->
<g id="edge24" class="edge">
<title>Node3&#45;&gt;Node12</title>
<path fill="none" stroke="#63b8ff" d="M513.07,-285.79C524.7,-250.05 542.29,-195.99 553.27,-162.27"/>
<polygon fill="#63b8ff" stroke="#63b8ff" points="509.75,-284.67 509.99,-295.26 516.41,-286.84 509.75,-284.67"/>
</g>
<!-- Node4&#45;&gt;Node5 -->
<g id="edge4" class="edge">
<title>Node4&#45;&gt;Node5</title>
<path fill="none" stroke="#63b8ff" d="M832.83,-190.02C822.75,-180.88 812.13,-171.25 802.48,-162.5"/>
<polygon fill="#63b8ff" stroke="#63b8ff" points="830.25,-192.4 840.01,-196.53 834.95,-187.22 830.25,-192.4"/>
</g>
<!-- Node4&#45;&gt;Node6 -->
<g id="edge6" class="edge">
<title>Node4&#45;&gt;Node6</title>
<path fill="none" stroke="#63b8ff" d="M905.11,-189.19C913.15,-180.3 921.89,-170.99 930.18,-162.5"/>
<polygon fill="#63b8ff" stroke="#63b8ff" points="902.72,-186.62 898.67,-196.41 907.94,-191.28 902.72,-186.62"/>
</g>
<!-- Node5&#45;&gt;Node3 -->
<g id="edge5" class="edge">
<title>Node5&#45;&gt;Node3</title>
<path fill="none" stroke="#63b8ff" d="M721.22,-169C670.27,-206.69 590.04,-263.77 541.79,-296.51"/>
<polygon fill="#63b8ff" stroke="#63b8ff" points="723.22,-171.87 729.16,-163.1 719.05,-166.25 723.22,-171.87"/>
</g>
<!-- Node6&#45;&gt;Node4 -->
<g id="edge7" class="edge">
<title>Node6&#45;&gt;Node4</title>
<path fill="none" stroke="#63b8ff" d="M935.42,-170.85C927.38,-179.74 918.64,-189.05 910.35,-197.54"/>
<polygon fill="#63b8ff" stroke="#63b8ff" points="937.81,-173.42 941.86,-163.63 932.59,-168.76 937.81,-173.42"/>
</g>
<!-- Node6&#45;&gt;Node7 -->
<g id="edge8" class="edge">
<title>Node6&#45;&gt;Node7</title>
<path fill="none" stroke="#63b8ff" d="M1009.8,-91.29C1020.53,-82.07 1031.88,-72.34 1042.17,-63.5"/>
<polygon fill="#63b8ff" stroke="#63b8ff" points="1007.8,-88.39 1002.5,-97.56 1012.36,-93.7 1007.8,-88.39"/>
</g>
<!-- Node7&#45;&gt;Node3 -->
<g id="edge9" class="edge">
<title>Node7&#45;&gt;Node3</title>
<path fill="none" stroke="#63b8ff" d="M1081.38,-74.6C1077.8,-129.39 1057.26,-222.66 992.28,-261 915.8,-306.13 681.5,-280.25 594.28,-297 588.31,-298.15 582.15,-299.55 575.97,-301.09"/>
<polygon fill="#63b8ff" stroke="#63b8ff" points="1084.87,-74.86 1081.84,-64.71 1077.88,-74.54 1084.87,-74.86"/>
</g>
<!-- Node9&#45;&gt;Node8 -->
<g id="edge15" class="edge">
<title>Node9&#45;&gt;Node8</title>
<path fill="none" stroke="#63b8ff" d="M306.68,-93.39C283.98,-81.62 259.27,-68.8 238.4,-57.98"/>
<polygon fill="#63b8ff" stroke="#63b8ff" points="304.77,-96.35 315.26,-97.84 307.99,-90.13 304.77,-96.35"/>
</g>
<!-- Node10&#45;&gt;Node8 -->
<g id="edge17" class="edge">
<title>Node10&#45;&gt;Node8</title>
<path fill="none" stroke="#63b8ff" d="M189.28,-87.14C189.28,-77.2 189.28,-66.91 189.28,-57.98"/>
<polygon fill="#63b8ff" stroke="#63b8ff" points="185.78,-87.03 189.28,-97.03 192.78,-87.03 185.78,-87.03"/>
</g>
<!-- Node11&#45;&gt;Node3 -->
<g id="edge19" class="edge">
<title>Node11&#45;&gt;Node3</title>
<path fill="none" stroke="#63b8ff" d="M441.86,-268.49C453.74,-277.93 465.78,-287.83 475.93,-296.51"/>
<polygon fill="#63b8ff" stroke="#63b8ff" points="444.05,-265.76 434.03,-262.32 439.72,-271.26 444.05,-265.76"/>
</g>
<!-- Node11&#45;&gt;Node9 -->
<g id="edge20" class="edge">
<title>Node11&#45;&gt;Node9</title>
<path fill="none" stroke="#63b8ff" d="M383.04,-186.15C382.06,-178.2 381.05,-170.02 380.12,-162.5"/>
<polygon fill="#63b8ff" stroke="#63b8ff" points="379.57,-186.55 384.27,-196.04 386.51,-185.69 379.57,-186.55"/>
</g>
<!-- Node11&#45;&gt;Node10 -->
<g id="edge21" class="edge">
<title>Node11&#45;&gt;Node10</title>
<path fill="none" stroke="#63b8ff" d="M314.64,-192.6C294.36,-182.72 272.54,-172.08 252.87,-162.5"/>
<polygon fill="#63b8ff" stroke="#63b8ff" points="312.89,-195.64 323.41,-196.88 315.96,-189.35 312.89,-195.64"/>
</g>
<!-- Node11&#45;&gt;Node12 -->
<g id="edge22" class="edge">
<title>Node11&#45;&gt;Node12</title>
<path fill="none" stroke="#63b8ff" d="M453.78,-192.2C471.41,-182.43 490.31,-171.95 507.36,-162.5"/>
<polygon fill="#63b8ff" stroke="#63b8ff" points="452.51,-188.9 445.46,-196.81 455.9,-195.02 452.51,-188.9"/>
</g>
<!-- Node12&#45;&gt;Node8 -->
<g id="edge23" class="edge">
<title>Node12&#45;&gt;Node8</title>
<path fill="none" stroke="#63b8ff" d="M467.58,-98.31C393.6,-77.77 318.47,-60.37 264.27,-48.44"/>
<polygon fill="#63b8ff" stroke="#63b8ff" points="466.45,-101.63 477.02,-100.95 468.34,-94.89 466.45,-101.63"/>
</g>
<!-- Node14&#45;&gt;Node3 -->
<g id="edge27" class="edge">
<title>Node14&#45;&gt;Node3</title>
<path fill="none" stroke="#63b8ff" d="M238.01,-386.55C239.78,-386.01 241.54,-385.5 243.28,-385 319.22,-363.32 340.7,-368.28 417.28,-349 420.38,-348.22 423.54,-347.4 426.72,-346.55"/>
<polygon fill="#63b8ff" stroke="#63b8ff" points="236.98,-383.2 228.49,-389.55 239.08,-389.88 236.98,-383.2"/>
</g>
<!-- Node15 -->
<g id="node15" class="node">
<title>Node15</title>
<g id="a_node15"><a xlink:href="_display_8cpp.html" target="_top" xlink:title=" ">
<polygon fill="white" stroke="#666666" points="215.78,-349 66.78,-349 66.78,-297 215.78,-297 215.78,-349"/>
<text text-anchor="start" x="74.78" y="-337" font-family="Helvetica,sans-Serif" font-size="10.00">C:/Users/juanh/OneDrive</text>
<text text-anchor="start" x="74.78" y="-326" font-family="Helvetica,sans-Serif" font-size="10.00">/Escritorio/Facultad/Beca</text>
<text text-anchor="start" x="74.78" y="-315" font-family="Helvetica,sans-Serif" font-size="10.00">/Proyecto/LAL Control Arduino</text>
<text text-anchor="middle" x="141.28" y="-304" font-family="Helvetica,sans-Serif" font-size="10.00">/src/drivers/Display.cpp</text>
</a>
</g>
</g>
<!-- Node14&#45;&gt;Node15 -->
<g id="edge28" class="edge">
<title>Node14&#45;&gt;Node15</title>
<path fill="none" stroke="#63b8ff" d="M152.66,-378.8C150.61,-368.92 148.44,-358.46 146.55,-349.35"/>
<polygon fill="#63b8ff" stroke="#63b8ff" points="149.22,-379.45 154.68,-388.53 156.08,-378.03 149.22,-379.45"/>
</g>
<!-- Node16&#45;&gt;Node3 -->
<g id="edge30" class="edge">
<title>Node16&#45;&gt;Node3</title>
<path fill="none" stroke="#63b8ff" d="M497.09,-378.8C497.85,-368.92 498.65,-358.46 499.34,-349.35"/>
<polygon fill="#63b8ff" stroke="#63b8ff" points="493.62,-378.27 496.35,-388.5 500.6,-378.8 493.62,-378.27"/>
</g>
<!-- Node17&#45;&gt;Node3 -->
<g id="edge32" class="edge">
<title>Node17&#45;&gt;Node3</title>
<path fill="none" stroke="#63b8ff" d="M396.26,-379.23C415.2,-369.27 435.33,-358.68 452.84,-349.47"/>
<polygon fill="#63b8ff" stroke="#63b8ff" points="394.75,-376.07 387.53,-383.82 398.01,-382.26 394.75,-376.07"/>
</g>
<!-- Node18 -->
<g id="node18" class="node">
<title>Node18</title>
<g id="a_node18"><a xlink:href="_temperature__sensor_8cpp.html" target="_top" xlink:title=" ">
<polygon fill="white" stroke="#666666" points="408.28,-349 234.28,-349 234.28,-297 408.28,-297 408.28,-349"/>
<text text-anchor="start" x="242.28" y="-337" font-family="Helvetica,sans-Serif" font-size="10.00">C:/Users/juanh/OneDrive</text>
<text text-anchor="start" x="242.28" y="-326" font-family="Helvetica,sans-Serif" font-size="10.00">/Escritorio/Facultad/Beca</text>
<text text-anchor="start" x="242.28" y="-315" font-family="Helvetica,sans-Serif" font-size="10.00">/Proyecto/LAL Control Arduino</text>
<text text-anchor="middle" x="321.28" y="-304" font-family="Helvetica,sans-Serif" font-size="10.00">/src/drivers/Temperature_sensor.cpp</text>
</a>
</g>
</g>
<!-- Node17&#45;&gt;Node18 -->
<g id="edge33" class="edge">
<title>Node17&#45;&gt;Node18</title>
<path fill="none" stroke="#63b8ff" d="M324.51,-373.25C323.98,-365.13 323.44,-356.86 322.95,-349.47"/>
<polygon fill="#63b8ff" stroke="#63b8ff" points="321.01,-373.26 325.15,-383.01 327.99,-372.8 321.01,-373.26"/>
</g>
</g>
</svg>
        <g id="navigator" transform="translate(0 0)" fill="#404254">
                <rect fill="#f2f5e9" fill-opacity="0.5" stroke="#606060" stroke-width=".5" x="0" y="0" width="60" height="60"/>
                <use id="zoomplus" xlink:href="#zoomPlus" x="17" y="9" onmousedown="handleZoom(evt,'in')"/>
                <use id="zoomminus" xlink:href="#zoomMin" x="42" y="9" onmousedown="handleZoom(evt,'out')"/>
                <use id="reset" xlink:href="#resetDef" x="30" y="36" onmousedown="handleReset()"/>
                <g id="arrowUp" xlink:href="#dirArrow" transform="translate(30 24)" onmousedown="handlePan(0,-1)">
                  <use xlink:href="#rim" fill="#404040">
                        <set attributeName="fill" to="#808080" begin="arrowUp.mouseover" end="arrowUp.mouseout"/>
                  </use>
                  <path fill="none" stroke="white" stroke-width="1.5" d="M0,-3.0v7 M-2.5,-0.5L0,-3.0L2.5,-0.5"/>
                </g>
                <g id="arrowRight" xlink:href="#dirArrow" transform="rotate(90) translate(36 -43)" onmousedown="handlePan(1,0)">
                  <use xlink:href="#rim" fill="#404040">
                        <set attributeName="fill" to="#808080" begin="arrowRight.mouseover" end="arrowRight.mouseout"/>
                  </use>
                  <path fill="none" stroke="white" stroke-width="1.5" d="M0,-3.0v7 M-2.5,-0.5L0,-3.0L2.5,-0.5"/>
                </g>
                <g id="arrowDown" xlink:href="#dirArrow" transform="rotate(180) translate(-30 -48)" onmousedown="handlePan(0,1)">
                  <use xlink:href="#rim" fill="#404040">
                        <set attributeName="fill" to="#808080" begin="arrowDown.mouseover" end="arrowDown.mouseout"/>
                  </use>
                  <path fill="none" stroke="white" stroke-width="1.5" d="M0,-3.0v7 M-2.5,-0.5L0,-3.0L2.5,-0.5"/>
                </g>
                <g id="arrowLeft" xlink:href="#dirArrow" transform="rotate(270) translate(-36 17)" onmousedown="handlePan(-1,0)">
                  <use xlink:href="#rim" fill="#404040">
                        <set attributeName="fill" to="#808080" begin="arrowLeft.mouseover" end="arrowLeft.mouseout"/>
                  </use>
                  <path fill="none" stroke="white" stroke-width="1.5" d="M0,-3.0v7 M-2.5,-0.5L0,-3.0L2.5,-0.5"/>
                </g>
        </g>
        <svg viewBox="0 0 15 15" width="100%" height="30px" preserveAspectRatio="xMaxYMin meet">
         <g id="arrow_out" transform="scale(0.3 0.3)">
          <a xlink:href="system__settings_8h__dep__incl_org.svg" target="_base">
           <rect id="button" ry="5" rx="5" y="6" x="6" height="38" width="38"
                fill="#f2f5e9" fill-opacity="0.5" stroke="#606060" stroke-width="1.0"/>
           <path id="arrow"
             d="M 11.500037,31.436501 C 11.940474,20.09759 22.043105,11.32322 32.158766,21.979434 L 37.068811,17.246167 C 37.068811,17.246167 37.088388,32 37.088388,32 L 22.160133,31.978069 C 22.160133,31.978069 26.997745,27.140456 26.997745,27.140456 C 18.528582,18.264221 13.291696,25.230495 11.500037,31.436501 z"
             style="fill:#404040;"/>
          </a>
         </g>
        </svg>
</svg>
