<?xml version="1.0" encoding="UTF-8" standalone="no"?>
<!DOCTYPE svg PUBLIC "-//W3C//DTD SVG 1.1//EN"
 "http://www.w3.org/Graphics/SVG/1.1/DTD/svg11.dtd">
<!-- Generated by graphviz version 7.0.2 (20221119.0110)
 -->
<!-- Title: C:/Users/juanh/OneDrive/Escritorio/Sistemas Embebidos/Proyecto final/LAL Control MbedOS/include/system_settings.h Pages: 1 -->
<svg width="1456pt" height="764pt"
 viewBox="0.00 0.00 1455.50 764.00" xmlns="http://www.w3.org/2000/svg" xmlns:xlink="http://www.w3.org/1999/xlink">
<g id="graph0" class="graph" transform="scale(1 1) rotate(0) translate(4 760)">
<title>C:/Users/juanh/OneDrive/Escritorio/Sistemas Embebidos/Proyecto final/LAL Control MbedOS/include/system_settings.h</title>
<!-- Node1 -->
<g id="node1" class="node">
<title>Node1</title>
<g id="a_node1"><a xlink:title="Archivo para la definición de constantes del sistema.">
<polygon fill="#999999" stroke="#666666" points="471.5,-756 296.5,-756 296.5,-704 471.5,-704 471.5,-756"/>
<text text-anchor="start" x="304.5" y="-744" font-family="Helvetica,sans-Serif" font-size="10.00">C:/Users/juanh/OneDrive</text>
<text text-anchor="start" x="304.5" y="-733" font-family="Helvetica,sans-Serif" font-size="10.00">/Escritorio/Sistemas Embebidos</text>
<text text-anchor="start" x="304.5" y="-722" font-family="Helvetica,sans-Serif" font-size="10.00">/Proyecto final/LAL Control</text>
<text text-anchor="middle" x="384" y="-711" font-family="Helvetica,sans-Serif" font-size="10.00"> MbedOS/include/system_settings.h</text>
</a>
</g>
</g>
<!-- Node2 -->
<g id="node2" class="node">
<title>Node2</title>
<g id="a_node2"><a xlink:href="_cooler_8h.html" target="_top" xlink:title="Controlador de ventilador de 12 volts y 5 milímteros.">
<polygon fill="white" stroke="#666666" points="371.5,-662.5 210.5,-662.5 210.5,-610.5 371.5,-610.5 371.5,-662.5"/>
<text text-anchor="start" x="218.5" y="-650.5" font-family="Helvetica,sans-Serif" font-size="10.00">C:/Users/juanh/OneDrive</text>
<text text-anchor="start" x="218.5" y="-639.5" font-family="Helvetica,sans-Serif" font-size="10.00">/Escritorio/Sistemas Embebidos</text>
<text text-anchor="start" x="218.5" y="-628.5" font-family="Helvetica,sans-Serif" font-size="10.00">/Proyecto final/LAL Control</text>
<text text-anchor="middle" x="291" y="-617.5" font-family="Helvetica,sans-Serif" font-size="10.00"> MbedOS/include/drivers/Cooler.h</text>
</a>
</g>
</g>
<!-- Node1&#45;&gt;Node2 -->
<g id="edge1" class="edge">
<title>Node1&#45;&gt;Node2</title>
<path fill="none" stroke="#63b8ff" d="M349.95,-695.5C338.99,-684.71 327.03,-672.95 316.77,-662.85"/>
<polygon fill="#63b8ff" stroke="#63b8ff" points="347.43,-697.93 357.02,-702.45 352.34,-692.94 347.43,-697.93"/>
</g>
<!-- Node12 -->
<g id="node12" class="node">
<title>Node12</title>
<g id="a_node12"><a xlink:href="main_8h.html" target="_top" xlink:title="Archivo principal del programa.">
<polygon fill="white" stroke="#666666" points="533.5,-255.5 376.5,-255.5 376.5,-203.5 533.5,-203.5 533.5,-255.5"/>
<text text-anchor="start" x="384.5" y="-243.5" font-family="Helvetica,sans-Serif" font-size="10.00">C:/Users/juanh/OneDrive</text>
<text text-anchor="start" x="384.5" y="-232.5" font-family="Helvetica,sans-Serif" font-size="10.00">/Escritorio/Sistemas Embebidos</text>
<text text-anchor="start" x="384.5" y="-221.5" font-family="Helvetica,sans-Serif" font-size="10.00">/Proyecto final/LAL Control</text>
<text text-anchor="middle" x="455" y="-210.5" font-family="Helvetica,sans-Serif" font-size="10.00"> MbedOS/include/main.h</text>
</a>
</g>
</g>
<!-- Node1&#45;&gt;Node12 -->
<g id="edge45" class="edge">
<title>Node1&#45;&gt;Node12</title>
<path fill="none" stroke="#63b8ff" d="M285.33,-715.7C185.88,-696.1 47,-648.95 47,-538.5 47,-538.5 47,-538.5 47,-437.5 47,-374.49 21.1,-341.21 66,-297 114,-249.73 301.35,-276.12 367,-261 373.3,-259.55 379.78,-257.81 386.24,-255.9"/>
<polygon fill="#63b8ff" stroke="#63b8ff" points="284.37,-719.08 294.85,-717.51 285.68,-712.2 284.37,-719.08"/>
</g>
<!-- Node17 -->
<g id="node17" class="node">
<title>Node17</title>
<g id="a_node17"><a xlink:href="_moisture__observer_8h.html" target="_top" xlink:title="Observador del sensor de temperatura.">
<polygon fill="white" stroke="#666666" points="908,-365.5 742,-365.5 742,-302.5 908,-302.5 908,-365.5"/>
<text text-anchor="start" x="750" y="-353.5" font-family="Helvetica,sans-Serif" font-size="10.00">C:/Users/juanh/OneDrive</text>
<text text-anchor="start" x="750" y="-342.5" font-family="Helvetica,sans-Serif" font-size="10.00">/Escritorio/Sistemas Embebidos</text>
<text text-anchor="start" x="750" y="-331.5" font-family="Helvetica,sans-Serif" font-size="10.00">/Proyecto final/LAL Control</text>
<text text-anchor="start" x="750" y="-320.5" font-family="Helvetica,sans-Serif" font-size="10.00"> MbedOS/include/observer_pattern</text>
<text text-anchor="middle" x="825" y="-309.5" font-family="Helvetica,sans-Serif" font-size="10.00">/observers/Moisture_observer.h</text>
</a>
</g>
</g>
<!-- Node1&#45;&gt;Node17 -->
<g id="edge46" class="edge">
<title>Node1&#45;&gt;Node17</title>
<path fill="none" stroke="#63b8ff" d="M483.07,-722.1C563.31,-714.49 678.46,-698.95 775,-668 868.31,-638.09 920.57,-652.41 972,-569 1017.07,-495.9 927.25,-410.62 869.13,-365.94"/>
<polygon fill="#63b8ff" stroke="#63b8ff" points="483.13,-718.58 473.49,-722.98 483.77,-725.55 483.13,-718.58"/>
</g>
<!-- Node20 -->
<g id="node20" class="node">
<title>Node20</title>
<g id="a_node20"><a xlink:href="_temperature__observer_8h.html" target="_top" xlink:title="Observador del sensor de temperatura.">
<polygon fill="white" stroke="#666666" points="242.5,-365.5 75.5,-365.5 75.5,-302.5 242.5,-302.5 242.5,-365.5"/>
<text text-anchor="start" x="83.5" y="-353.5" font-family="Helvetica,sans-Serif" font-size="10.00">C:/Users/juanh/OneDrive</text>
<text text-anchor="start" x="83.5" y="-342.5" font-family="Helvetica,sans-Serif" font-size="10.00">/Escritorio/Sistemas Embebidos</text>
<text text-anchor="start" x="83.5" y="-331.5" font-family="Helvetica,sans-Serif" font-size="10.00">/Proyecto final/LAL Control</text>
<text text-anchor="start" x="83.5" y="-320.5" font-family="Helvetica,sans-Serif" font-size="10.00"> MbedOS/include/observer_pattern</text>
<text text-anchor="middle" x="159" y="-309.5" font-family="Helvetica,sans-Serif" font-size="10.00">/observers/Temperature_observer.h</text>
</a>
</g>
</g>
<!-- Node1&#45;&gt;Node20 -->
<g id="edge47" class="edge">
<title>Node1&#45;&gt;Node20</title>
<path fill="none" stroke="#63b8ff" d="M285.28,-715.45C254.48,-706.61 222.88,-692.03 201,-668 123.51,-582.91 140.59,-430.91 152.44,-365.89"/>
<polygon fill="#63b8ff" stroke="#63b8ff" points="284.09,-718.75 294.66,-717.95 285.9,-711.99 284.09,-718.75"/>
</g>
<!-- Node24 -->
<g id="node24" class="node">
<title>Node24</title>
<g id="a_node24"><a xlink:href="_dual___l_e_d_8h.html" target="_top" xlink:title="Controlador de LED RG con PWM.">
<polygon fill="white" stroke="#666666" points="566.5,-662.5 389.5,-662.5 389.5,-610.5 566.5,-610.5 566.5,-662.5"/>
<text text-anchor="start" x="397.5" y="-650.5" font-family="Helvetica,sans-Serif" font-size="10.00">C:/Users/juanh/OneDrive</text>
<text text-anchor="start" x="397.5" y="-639.5" font-family="Helvetica,sans-Serif" font-size="10.00">/Escritorio/Sistemas Embebidos</text>
<text text-anchor="start" x="397.5" y="-628.5" font-family="Helvetica,sans-Serif" font-size="10.00">/Proyecto final/LAL Control</text>
<text text-anchor="middle" x="478" y="-617.5" font-family="Helvetica,sans-Serif" font-size="10.00"> MbedOS/include/drivers/Dual_LED.h</text>
</a>
</g>
</g>
<!-- Node1&#45;&gt;Node24 -->
<g id="edge39" class="edge">
<title>Node1&#45;&gt;Node24</title>
<path fill="none" stroke="#63b8ff" d="M418.42,-695.5C429.5,-684.71 441.58,-672.95 451.96,-662.85"/>
<polygon fill="#63b8ff" stroke="#63b8ff" points="415.99,-692.97 411.27,-702.46 420.88,-697.99 415.99,-692.97"/>
</g>
<!-- Node26 -->
<g id="node26" class="node">
<title>Node26</title>
<g id="a_node26"><a xlink:href="_temperature__sensor_8h.html" target="_top" xlink:title="Controlador para sensor de temperatura DS18B20.">
<polygon fill="white" stroke="#666666" points="765.5,-668 586.5,-668 586.5,-605 765.5,-605 765.5,-668"/>
<text text-anchor="start" x="594.5" y="-656" font-family="Helvetica,sans-Serif" font-size="10.00">C:/Users/juanh/OneDrive</text>
<text text-anchor="start" x="594.5" y="-645" font-family="Helvetica,sans-Serif" font-size="10.00">/Escritorio/Sistemas Embebidos</text>
<text text-anchor="start" x="594.5" y="-634" font-family="Helvetica,sans-Serif" font-size="10.00">/Proyecto final/LAL Control</text>
<text text-anchor="start" x="594.5" y="-623" font-family="Helvetica,sans-Serif" font-size="10.00"> MbedOS/include/drivers/Temperature</text>
<text text-anchor="middle" x="676" y="-612" font-family="Helvetica,sans-Serif" font-size="10.00">_sensor.h</text>
</a>
</g>
</g>
<!-- Node1&#45;&gt;Node26 -->
<g id="edge42" class="edge">
<title>Node1&#45;&gt;Node26</title>
<path fill="none" stroke="#63b8ff" d="M476.08,-700.15C511.21,-689.14 551.2,-676.61 586.12,-665.66"/>
<polygon fill="#63b8ff" stroke="#63b8ff" points="475.28,-696.73 466.78,-703.06 477.37,-703.41 475.28,-696.73"/>
</g>
<!-- Node3 -->
<g id="node3" class="node">
<title>Node3</title>
<g id="a_node3"><a xlink:href="_control__system_8h_source.html" target="_top" xlink:title=" ">
<polygon fill="white" stroke="#666666" points="761.5,-563.5 590.5,-563.5 590.5,-511.5 761.5,-511.5 761.5,-563.5"/>
<text text-anchor="start" x="598.5" y="-551.5" font-family="Helvetica,sans-Serif" font-size="10.00">C:/Users/juanh/OneDrive</text>
<text text-anchor="start" x="598.5" y="-540.5" font-family="Helvetica,sans-Serif" font-size="10.00">/Escritorio/Sistemas Embebidos</text>
<text text-anchor="start" x="598.5" y="-529.5" font-family="Helvetica,sans-Serif" font-size="10.00">/Proyecto final/LAL Control</text>
<text text-anchor="middle" x="676" y="-518.5" font-family="Helvetica,sans-Serif" font-size="10.00"> MbedOS/include/Control_system.h</text>
</a>
</g>
</g>
<!-- Node2&#45;&gt;Node3 -->
<g id="edge2" class="edge">
<title>Node2&#45;&gt;Node3</title>
<path fill="none" stroke="#63b8ff" d="M373.08,-606.86C375.4,-606.22 377.71,-605.59 380,-605 467.85,-582.22 492.93,-590.92 581,-569 587.14,-567.47 593.45,-565.76 599.77,-563.95"/>
<polygon fill="#63b8ff" stroke="#63b8ff" points="372.19,-603.48 363.57,-609.63 374.15,-610.2 372.19,-603.48"/>
</g>
<!-- Node23 -->
<g id="node23" class="node">
<title>Node23</title>
<g id="a_node23"><a xlink:href="_cooler_8cpp.html" target="_top" xlink:title="Implementación de Cooler.h.">
<polygon fill="white" stroke="#666666" points="363,-563.5 187,-563.5 187,-511.5 363,-511.5 363,-563.5"/>
<text text-anchor="start" x="195" y="-551.5" font-family="Helvetica,sans-Serif" font-size="10.00">C:/Users/juanh/OneDrive</text>
<text text-anchor="start" x="195" y="-540.5" font-family="Helvetica,sans-Serif" font-size="10.00">/Escritorio/Sistemas Embebidos</text>
<text text-anchor="start" x="195" y="-529.5" font-family="Helvetica,sans-Serif" font-size="10.00">/Proyecto final/LAL Control</text>
<text text-anchor="middle" x="275" y="-518.5" font-family="Helvetica,sans-Serif" font-size="10.00"> MbedOS/src/Port/drivers/Cooler.cpp</text>
</a>
</g>
</g>
<!-- Node2&#45;&gt;Node23 -->
<g id="edge38" class="edge">
<title>Node2&#45;&gt;Node23</title>
<path fill="none" stroke="#63b8ff" d="M284.94,-598.78C283.02,-587.12 280.94,-574.49 279.18,-563.82"/>
<polygon fill="#63b8ff" stroke="#63b8ff" points="281.47,-599.22 286.55,-608.52 288.38,-598.08 281.47,-599.22"/>
</g>
<!-- Node4 -->
<g id="node4" class="node">
<title>Node4</title>
<g id="a_node4"><a xlink:href="_alarm__state_8h.html" target="_top" xlink:title="Clase de estado de control del motor.">
<polygon fill="white" stroke="#666666" points="1290,-470 1102,-470 1102,-407 1290,-407 1290,-470"/>
<text text-anchor="start" x="1110" y="-458" font-family="Helvetica,sans-Serif" font-size="10.00">C:/Users/juanh/OneDrive</text>
<text text-anchor="start" x="1110" y="-447" font-family="Helvetica,sans-Serif" font-size="10.00">/Escritorio/Sistemas Embebidos</text>
<text text-anchor="start" x="1110" y="-436" font-family="Helvetica,sans-Serif" font-size="10.00">/Proyecto final/LAL Control</text>
<text text-anchor="start" x="1110" y="-425" font-family="Helvetica,sans-Serif" font-size="10.00"> MbedOS/include/machine_state</text>
<text text-anchor="middle" x="1196" y="-414" font-family="Helvetica,sans-Serif" font-size="10.00">_pattern/machine_states/Alarm_state.h</text>
</a>
</g>
</g>
<!-- Node3&#45;&gt;Node4 -->
<g id="edge3" class="edge">
<title>Node3&#45;&gt;Node4</title>
<path fill="none" stroke="#63b8ff" d="M762.06,-508.13C765.06,-507.38 768.05,-506.66 771,-506 889.97,-479.25 922.7,-489.93 1043,-470 1061.97,-466.86 1082.19,-463.11 1101.5,-459.34"/>
<polygon fill="#63b8ff" stroke="#63b8ff" points="761.34,-504.7 752.57,-510.64 763.14,-511.47 761.34,-504.7"/>
</g>
<!-- Node5 -->
<g id="node5" class="node">
<title>Node5</title>
<g id="a_node5"><a xlink:href="_check__instruction__state_8h_source.html" target="_top" xlink:title=" ">
<polygon fill="white" stroke="#666666" points="1142,-371 984,-371 984,-297 1142,-297 1142,-371"/>
<text text-anchor="start" x="992" y="-359" font-family="Helvetica,sans-Serif" font-size="10.00">C:/Users/juanh/OneDrive</text>
<text text-anchor="start" x="992" y="-348" font-family="Helvetica,sans-Serif" font-size="10.00">/Escritorio/Sistemas Embebidos</text>
<text text-anchor="start" x="992" y="-337" font-family="Helvetica,sans-Serif" font-size="10.00">/Proyecto final/LAL Control</text>
<text text-anchor="start" x="992" y="-326" font-family="Helvetica,sans-Serif" font-size="10.00"> MbedOS/include/machine_state</text>
<text text-anchor="start" x="992" y="-315" font-family="Helvetica,sans-Serif" font-size="10.00">_pattern/machine_states/Check</text>
<text text-anchor="middle" x="1063" y="-304" font-family="Helvetica,sans-Serif" font-size="10.00">_instruction_state.h</text>
</a>
</g>
</g>
<!-- Node3&#45;&gt;Node5 -->
<g id="edge15" class="edge">
<title>Node3&#45;&gt;Node5</title>
<path fill="none" stroke="#63b8ff" d="M763.15,-508.03C765.79,-507.33 768.41,-506.65 771,-506 858.2,-484.22 894.49,-518.75 970,-470 1006.7,-446.31 1032.83,-402.49 1047.86,-371.2"/>
<polygon fill="#63b8ff" stroke="#63b8ff" points="762.39,-504.61 753.69,-510.66 764.26,-511.36 762.39,-504.61"/>
</g>
<!-- Node6 -->
<g id="node6" class="node">
<title>Node6</title>
<g id="a_node6"><a xlink:href="_idle__state_8h.html" target="_top" xlink:title="Clase de estado de reposo.">
<polygon fill="white" stroke="#666666" points="1447.5,-261 1270.5,-261 1270.5,-198 1447.5,-198 1447.5,-261"/>
<text text-anchor="start" x="1278.5" y="-249" font-family="Helvetica,sans-Serif" font-size="10.00">C:/Users/juanh/OneDrive</text>
<text text-anchor="start" x="1278.5" y="-238" font-family="Helvetica,sans-Serif" font-size="10.00">/Escritorio/Sistemas Embebidos</text>
<text text-anchor="start" x="1278.5" y="-227" font-family="Helvetica,sans-Serif" font-size="10.00">/Proyecto final/LAL Control</text>
<text text-anchor="start" x="1278.5" y="-216" font-family="Helvetica,sans-Serif" font-size="10.00"> MbedOS/include/machine_state</text>
<text text-anchor="middle" x="1359" y="-205" font-family="Helvetica,sans-Serif" font-size="10.00">_pattern/machine_states/Idle_state.h</text>
</a>
</g>
</g>
<!-- Node3&#45;&gt;Node6 -->
<g id="edge16" class="edge">
<title>Node3&#45;&gt;Node6</title>
<path fill="none" stroke="#63b8ff" d="M760.16,-508.31C763.8,-507.46 767.43,-506.68 771,-506 886.5,-483.86 1196.85,-528.28 1299,-470 1345.36,-443.55 1351.18,-421.98 1367,-371 1378.3,-334.6 1372.86,-290.39 1366.88,-261.4"/>
<polygon fill="#63b8ff" stroke="#63b8ff" points="759.5,-504.87 750.66,-510.7 761.21,-511.66 759.5,-504.87"/>
</g>
<!-- Node7 -->
<g id="node7" class="node">
<title>Node7</title>
<g id="a_node7"><a xlink:href="_shutdown__state_8h.html" target="_top" xlink:title="Clase de estado de apagado del sistema.">
<polygon fill="white" stroke="#666666" points="1049.5,-162 844.5,-162 844.5,-99 1049.5,-99 1049.5,-162"/>
<text text-anchor="start" x="852.5" y="-150" font-family="Helvetica,sans-Serif" font-size="10.00">C:/Users/juanh/OneDrive</text>
<text text-anchor="start" x="852.5" y="-139" font-family="Helvetica,sans-Serif" font-size="10.00">/Escritorio/Sistemas Embebidos</text>
<text text-anchor="start" x="852.5" y="-128" font-family="Helvetica,sans-Serif" font-size="10.00">/Proyecto final/LAL Control</text>
<text text-anchor="start" x="852.5" y="-117" font-family="Helvetica,sans-Serif" font-size="10.00"> MbedOS/include/machine_state</text>
<text text-anchor="middle" x="947" y="-106" font-family="Helvetica,sans-Serif" font-size="10.00">_pattern/machine_states/Shutdown_state.h</text>
</a>
</g>
</g>
<!-- Node3&#45;&gt;Node7 -->
<g id="edge17" class="edge">
<title>Node3&#45;&gt;Node7</title>
<path fill="none" stroke="#63b8ff" d="M750.27,-506.37C805.77,-480.32 877.03,-436.43 908,-371 940.72,-301.88 942.03,-209.59 943.35,-162.3"/>
<polygon fill="#63b8ff" stroke="#63b8ff" points="749.12,-503.05 741.49,-510.4 752.03,-509.41 749.12,-503.05"/>
</g>
<!-- Node3&#45;&gt;Node12 -->
<g id="edge18" class="edge">
<title>Node3&#45;&gt;Node12</title>
<path fill="none" stroke="#63b8ff" d="M588.44,-507.95C585.94,-507.27 583.46,-506.62 581,-506 497.27,-484.76 445.14,-536.5 390,-470 372.13,-448.45 377.74,-432.17 390,-407 401.37,-383.66 423.09,-393.52 436,-371 456.63,-335.02 458.33,-285.53 457.09,-255.91"/>
<polygon fill="#63b8ff" stroke="#63b8ff" points="587.47,-511.31 598.04,-510.63 589.35,-504.57 587.47,-511.31"/>
</g>
<!-- Node13 -->
<g id="node13" class="node">
<title>Node13</title>
<g id="a_node13"><a xlink:href="_cooler__observer_8h_source.html" target="_top" xlink:title=" ">
<polygon fill="white" stroke="#666666" points="722,-365.5 556,-365.5 556,-302.5 722,-302.5 722,-365.5"/>
<text text-anchor="start" x="564" y="-353.5" font-family="Helvetica,sans-Serif" font-size="10.00">C:/Users/juanh/OneDrive</text>
<text text-anchor="start" x="564" y="-342.5" font-family="Helvetica,sans-Serif" font-size="10.00">/Escritorio/Sistemas Embebidos</text>
<text text-anchor="start" x="564" y="-331.5" font-family="Helvetica,sans-Serif" font-size="10.00">/Proyecto final/LAL Control</text>
<text text-anchor="start" x="564" y="-320.5" font-family="Helvetica,sans-Serif" font-size="10.00"> MbedOS/include/observer_pattern</text>
<text text-anchor="middle" x="639" y="-309.5" font-family="Helvetica,sans-Serif" font-size="10.00">/observers/Cooler_observer.h</text>
</a>
</g>
</g>
<!-- Node3&#45;&gt;Node13 -->
<g id="edge19" class="edge">
<title>Node3&#45;&gt;Node13</title>
<path fill="none" stroke="#63b8ff" d="M745.03,-505.04C758.26,-495.72 770.35,-484.12 778,-470 791.34,-445.38 792.55,-430.92 778,-407 770.2,-394.17 743.23,-379 715.1,-365.9"/>
<polygon fill="#63b8ff" stroke="#63b8ff" points="743.45,-501.9 737,-510.31 747.29,-507.75 743.45,-501.9"/>
</g>
<!-- Node15 -->
<g id="node15" class="node">
<title>Node15</title>
<g id="a_node15"><a xlink:href="_instruction__observer_8h.html" target="_top" xlink:title="Observador de instrucciones.">
<polygon fill="white" stroke="#666666" points="427,-365.5 261,-365.5 261,-302.5 427,-302.5 427,-365.5"/>
<text text-anchor="start" x="269" y="-353.5" font-family="Helvetica,sans-Serif" font-size="10.00">C:/Users/juanh/OneDrive</text>
<text text-anchor="start" x="269" y="-342.5" font-family="Helvetica,sans-Serif" font-size="10.00">/Escritorio/Sistemas Embebidos</text>
<text text-anchor="start" x="269" y="-331.5" font-family="Helvetica,sans-Serif" font-size="10.00">/Proyecto final/LAL Control</text>
<text text-anchor="start" x="269" y="-320.5" font-family="Helvetica,sans-Serif" font-size="10.00"> MbedOS/include/observer_pattern</text>
<text text-anchor="middle" x="344" y="-309.5" font-family="Helvetica,sans-Serif" font-size="10.00">/observers/Instruction_observer.h</text>
</a>
</g>
</g>
<!-- Node3&#45;&gt;Node15 -->
<g id="edge22" class="edge">
<title>Node3&#45;&gt;Node15</title>
<path fill="none" stroke="#63b8ff" d="M588.97,-507.99C586.29,-507.3 583.63,-506.63 581,-506 531.97,-494.26 391.5,-506.76 357,-470 331.14,-442.44 332.59,-396.38 337.28,-365.84"/>
<polygon fill="#63b8ff" stroke="#63b8ff" points="588.04,-511.36 598.6,-510.61 589.87,-504.61 588.04,-511.36"/>
</g>
<!-- Node3&#45;&gt;Node17 -->
<g id="edge25" class="edge">
<title>Node3&#45;&gt;Node17</title>
<path fill="none" stroke="#63b8ff" d="M755.68,-505.6C771.36,-496.27 786.26,-484.53 797,-470 819.48,-439.58 824.87,-395.29 825.71,-365.83"/>
<polygon fill="#63b8ff" stroke="#63b8ff" points="754.19,-502.42 747.17,-510.36 757.6,-508.53 754.19,-502.42"/>
</g>
<!-- Node19 -->
<g id="node19" class="node">
<title>Node19</title>
<g id="a_node19"><a xlink:href="_system__observer_8h.html" target="_top" xlink:title="Clase observador del sistema de control.">
<polygon fill="white" stroke="#666666" points="769,-470 603,-470 603,-407 769,-407 769,-470"/>
<text text-anchor="start" x="611" y="-458" font-family="Helvetica,sans-Serif" font-size="10.00">C:/Users/juanh/OneDrive</text>
<text text-anchor="start" x="611" y="-447" font-family="Helvetica,sans-Serif" font-size="10.00">/Escritorio/Sistemas Embebidos</text>
<text text-anchor="start" x="611" y="-436" font-family="Helvetica,sans-Serif" font-size="10.00">/Proyecto final/LAL Control</text>
<text text-anchor="start" x="611" y="-425" font-family="Helvetica,sans-Serif" font-size="10.00"> MbedOS/include/observer_pattern</text>
<text text-anchor="middle" x="686" y="-414" font-family="Helvetica,sans-Serif" font-size="10.00">/observers/System_observer.h</text>
</a>
</g>
</g>
<!-- Node3&#45;&gt;Node19 -->
<g id="edge28" class="edge">
<title>Node3&#45;&gt;Node19</title>
<path fill="none" stroke="#63b8ff" d="M673.22,-499.66C673.92,-489.99 675.07,-479.66 676.48,-470.35"/>
<polygon fill="#63b8ff" stroke="#63b8ff" points="669.74,-499.33 672.69,-509.5 676.73,-499.71 669.74,-499.33"/>
</g>
<!-- Node3&#45;&gt;Node20 -->
<g id="edge36" class="edge">
<title>Node3&#45;&gt;Node20</title>
<path fill="none" stroke="#63b8ff" d="M589.51,-508.07C586.65,-507.34 583.81,-506.65 581,-506 471.62,-480.75 434.21,-514.15 331,-470 274.11,-445.66 219.94,-397.59 188.08,-365.87"/>
<polygon fill="#63b8ff" stroke="#63b8ff" points="588.58,-511.44 599.15,-510.65 590.39,-504.68 588.58,-511.44"/>
</g>
<!-- Node22 -->
<g id="node22" class="node">
<title>Node22</title>
<g id="a_node22"><a xlink:href="_control__system_8cpp.html" target="_top" xlink:title="Implementación de Control_system.h.">
<polygon fill="white" stroke="#666666" points="584.5,-464.5 399.5,-464.5 399.5,-412.5 584.5,-412.5 584.5,-464.5"/>
<text text-anchor="start" x="407.5" y="-452.5" font-family="Helvetica,sans-Serif" font-size="10.00">C:/Users/juanh/OneDrive</text>
<text text-anchor="start" x="407.5" y="-441.5" font-family="Helvetica,sans-Serif" font-size="10.00">/Escritorio/Sistemas Embebidos</text>
<text text-anchor="start" x="407.5" y="-430.5" font-family="Helvetica,sans-Serif" font-size="10.00">/Proyecto final/LAL Control</text>
<text text-anchor="middle" x="492" y="-419.5" font-family="Helvetica,sans-Serif" font-size="10.00"> MbedOS/src/Port/Control_system.cpp</text>
</a>
</g>
</g>
<!-- Node3&#45;&gt;Node22 -->
<g id="edge37" class="edge">
<title>Node3&#45;&gt;Node22</title>
<path fill="none" stroke="#63b8ff" d="M617.61,-505.72C592.71,-492.59 564.02,-477.46 540.34,-464.98"/>
<polygon fill="#63b8ff" stroke="#63b8ff" points="615.84,-508.74 626.32,-510.31 619.1,-502.55 615.84,-508.74"/>
</g>
<!-- Node4&#45;&gt;Node5 -->
<g id="edge4" class="edge">
<title>Node4&#45;&gt;Node5</title>
<path fill="none" stroke="#63b8ff" d="M1140.84,-400.02C1128.3,-390.6 1115.22,-380.5 1103.42,-371.14"/>
<polygon fill="#63b8ff" stroke="#63b8ff" points="1138.53,-402.66 1148.64,-405.84 1142.72,-397.05 1138.53,-402.66"/>
</g>
<!-- Node4&#45;&gt;Node6 -->
<g id="edge13" class="edge">
<title>Node4&#45;&gt;Node6</title>
<path fill="none" stroke="#63b8ff" d="M1288.84,-400.65C1301.38,-392.51 1313,-382.72 1322,-371 1346.31,-339.34 1351.15,-292.15 1353.59,-261.35"/>
<polygon fill="#63b8ff" stroke="#63b8ff" points="1287.13,-397.6 1280.39,-405.77 1290.76,-403.58 1287.13,-397.6"/>
</g>
<!-- Node11 -->
<g id="node11" class="node">
<title>Node11</title>
<g id="a_node11"><a xlink:href="_alarm_8cpp.html" target="_top" xlink:title="Implementación de Alarm_state.h.">
<polygon fill="white" stroke="#666666" points="1322,-365.5 1160,-365.5 1160,-302.5 1322,-302.5 1322,-365.5"/>
<text text-anchor="start" x="1168" y="-353.5" font-family="Helvetica,sans-Serif" font-size="10.00">C:/Users/juanh/OneDrive</text>
<text text-anchor="start" x="1168" y="-342.5" font-family="Helvetica,sans-Serif" font-size="10.00">/Escritorio/Sistemas Embebidos</text>
<text text-anchor="start" x="1168" y="-331.5" font-family="Helvetica,sans-Serif" font-size="10.00">/Proyecto final/LAL Control</text>
<text text-anchor="start" x="1168" y="-320.5" font-family="Helvetica,sans-Serif" font-size="10.00"> MbedOS/src/Port/machine_state</text>
<text text-anchor="middle" x="1241" y="-309.5" font-family="Helvetica,sans-Serif" font-size="10.00">_pattern/Alarm.cpp</text>
</a>
</g>
</g>
<!-- Node4&#45;&gt;Node11 -->
<g id="edge14" class="edge">
<title>Node4&#45;&gt;Node11</title>
<path fill="none" stroke="#63b8ff" d="M1214.06,-396.37C1218.55,-386.14 1223.28,-375.36 1227.51,-365.73"/>
<polygon fill="#63b8ff" stroke="#63b8ff" points="1210.93,-394.8 1210.11,-405.36 1217.33,-397.61 1210.93,-394.8"/>
</g>
<!-- Node5&#45;&gt;Node4 -->
<g id="edge5" class="edge">
<title>Node5&#45;&gt;Node4</title>
<path fill="none" stroke="#63b8ff" d="M1125.56,-378.07C1138.24,-387.7 1151.11,-397.73 1162.34,-406.75"/>
<polygon fill="#63b8ff" stroke="#63b8ff" points="1127.68,-375.29 1117.59,-372.06 1123.46,-380.87 1127.68,-375.29"/>
</g>
<!-- Node5&#45;&gt;Node6 -->
<g id="edge6" class="edge">
<title>Node5&#45;&gt;Node6</title>
<path fill="none" stroke="#63b8ff" d="M1152.59,-296.5C1196.15,-280.82 1235.86,-267.93 1270.17,-257.21"/>
<polygon fill="#63b8ff" stroke="#63b8ff" points="1151.67,-293.11 1143.46,-299.81 1154.06,-299.69 1151.67,-293.11"/>
</g>
<!-- Node10 -->
<g id="node10" class="node">
<title>Node10</title>
<g id="a_node10"><a xlink:href="_check__instruction__state_8cpp.html" target="_top" xlink:title="Implementación de Check_instruction_state.h.">
<polygon fill="white" stroke="#666666" points="1163.5,-261 984.5,-261 984.5,-198 1163.5,-198 1163.5,-261"/>
<text text-anchor="start" x="992.5" y="-249" font-family="Helvetica,sans-Serif" font-size="10.00">C:/Users/juanh/OneDrive</text>
<text text-anchor="start" x="992.5" y="-238" font-family="Helvetica,sans-Serif" font-size="10.00">/Escritorio/Sistemas Embebidos</text>
<text text-anchor="start" x="992.5" y="-227" font-family="Helvetica,sans-Serif" font-size="10.00">/Proyecto final/LAL Control</text>
<text text-anchor="start" x="992.5" y="-216" font-family="Helvetica,sans-Serif" font-size="10.00"> MbedOS/src/Port/machine_state</text>
<text text-anchor="middle" x="1074" y="-205" font-family="Helvetica,sans-Serif" font-size="10.00">_pattern/Check_instruction_state.cpp</text>
</a>
</g>
</g>
<!-- Node5&#45;&gt;Node10 -->
<g id="edge12" class="edge">
<title>Node5&#45;&gt;Node10</title>
<path fill="none" stroke="#63b8ff" d="M1068.12,-285.26C1068.99,-277.15 1069.88,-268.92 1070.69,-261.38"/>
<polygon fill="#63b8ff" stroke="#63b8ff" points="1064.66,-284.75 1067.07,-295.07 1071.62,-285.5 1064.66,-284.75"/>
</g>
<!-- Node6&#45;&gt;Node4 -->
<g id="edge7" class="edge">
<title>Node6&#45;&gt;Node4</title>
<path fill="none" stroke="#63b8ff" d="M1367.55,-272.8C1367.75,-303 1361.46,-343.05 1340,-371 1327.27,-387.58 1309.31,-400.29 1290.36,-409.93"/>
<polygon fill="#63b8ff" stroke="#63b8ff" points="1371.05,-272.74 1367.2,-262.86 1364.05,-272.98 1371.05,-272.74"/>
</g>
<!-- Node6&#45;&gt;Node7 -->
<g id="edge8" class="edge">
<title>Node6&#45;&gt;Node7</title>
<path fill="none" stroke="#63b8ff" d="M1259.29,-205.03C1195.87,-190.09 1113.93,-170.8 1049.9,-155.73"/>
<polygon fill="#63b8ff" stroke="#63b8ff" points="1258.1,-208.34 1268.64,-207.22 1259.7,-201.53 1258.1,-208.34"/>
</g>
<!-- Node9 -->
<g id="node9" class="node">
<title>Node9</title>
<g id="a_node9"><a xlink:href="_idle__state_8cpp.html" target="_top" xlink:title="Implementación de Idle_state.h.">
<polygon fill="white" stroke="#666666" points="1440,-162 1278,-162 1278,-99 1440,-99 1440,-162"/>
<text text-anchor="start" x="1286" y="-150" font-family="Helvetica,sans-Serif" font-size="10.00">C:/Users/juanh/OneDrive</text>
<text text-anchor="start" x="1286" y="-139" font-family="Helvetica,sans-Serif" font-size="10.00">/Escritorio/Sistemas Embebidos</text>
<text text-anchor="start" x="1286" y="-128" font-family="Helvetica,sans-Serif" font-size="10.00">/Proyecto final/LAL Control</text>
<text text-anchor="start" x="1286" y="-117" font-family="Helvetica,sans-Serif" font-size="10.00"> MbedOS/src/Port/machine_state</text>
<text text-anchor="middle" x="1359" y="-106" font-family="Helvetica,sans-Serif" font-size="10.00">_pattern/Idle_state.cpp</text>
</a>
</g>
</g>
<!-- Node6&#45;&gt;Node9 -->
<g id="edge11" class="edge">
<title>Node6&#45;&gt;Node9</title>
<path fill="none" stroke="#63b8ff" d="M1359,-186.15C1359,-178.2 1359,-170.02 1359,-162.5"/>
<polygon fill="#63b8ff" stroke="#63b8ff" points="1355.5,-186.03 1359,-196.03 1362.5,-186.03 1355.5,-186.03"/>
</g>
<!-- Node7&#45;&gt;Node3 -->
<g id="edge9" class="edge">
<title>Node7&#45;&gt;Node3</title>
<path fill="none" stroke="#63b8ff" d="M955.87,-173.54C959.66,-223.16 956.29,-307.01 926,-371 893.1,-440.5 814.74,-485.71 754.38,-511.03"/>
<polygon fill="#63b8ff" stroke="#63b8ff" points="959.38,-173.44 954.97,-163.8 952.41,-174.08 959.38,-173.44"/>
</g>
<!-- Node8 -->
<g id="node8" class="node">
<title>Node8</title>
<g id="a_node8"><a xlink:href="_shutdown__state_8cpp.html" target="_top" xlink:title="Implementación de Shutdown_state.h.">
<polygon fill="white" stroke="#666666" points="1028,-63 866,-63 866,0 1028,0 1028,-63"/>
<text text-anchor="start" x="874" y="-51" font-family="Helvetica,sans-Serif" font-size="10.00">C:/Users/juanh/OneDrive</text>
<text text-anchor="start" x="874" y="-40" font-family="Helvetica,sans-Serif" font-size="10.00">/Escritorio/Sistemas Embebidos</text>
<text text-anchor="start" x="874" y="-29" font-family="Helvetica,sans-Serif" font-size="10.00">/Proyecto final/LAL Control</text>
<text text-anchor="start" x="874" y="-18" font-family="Helvetica,sans-Serif" font-size="10.00"> MbedOS/src/Port/machine_state</text>
<text text-anchor="middle" x="947" y="-7" font-family="Helvetica,sans-Serif" font-size="10.00">_pattern/Shutdown_state.cpp</text>
</a>
</g>
</g>
<!-- Node7&#45;&gt;Node8 -->
<g id="edge10" class="edge">
<title>Node7&#45;&gt;Node8</title>
<path fill="none" stroke="#63b8ff" d="M947,-87.15C947,-79.2 947,-71.02 947,-63.5"/>
<polygon fill="#63b8ff" stroke="#63b8ff" points="943.5,-87.03 947,-97.03 950.5,-87.03 943.5,-87.03"/>
</g>
<!-- Node13&#45;&gt;Node12 -->
<g id="edge20" class="edge">
<title>Node13&#45;&gt;Node12</title>
<path fill="none" stroke="#63b8ff" d="M573.95,-296.76C549.69,-283.25 522.7,-268.21 500.57,-255.89"/>
<polygon fill="#63b8ff" stroke="#63b8ff" points="572.03,-299.7 582.47,-301.51 575.44,-293.59 572.03,-299.7"/>
</g>
<!-- Node14 -->
<g id="node14" class="node">
<title>Node14</title>
<g id="a_node14"><a xlink:href="_cooler__observer_8cpp.html" target="_top" xlink:title="Implementación de Cooler_observer.h.">
<polygon fill="white" stroke="#666666" points="722,-261 552,-261 552,-198 722,-198 722,-261"/>
<text text-anchor="start" x="560" y="-249" font-family="Helvetica,sans-Serif" font-size="10.00">C:/Users/juanh/OneDrive</text>
<text text-anchor="start" x="560" y="-238" font-family="Helvetica,sans-Serif" font-size="10.00">/Escritorio/Sistemas Embebidos</text>
<text text-anchor="start" x="560" y="-227" font-family="Helvetica,sans-Serif" font-size="10.00">/Proyecto final/LAL Control</text>
<text text-anchor="start" x="560" y="-216" font-family="Helvetica,sans-Serif" font-size="10.00"> MbedOS/src/Port/observer_pattern</text>
<text text-anchor="middle" x="637" y="-205" font-family="Helvetica,sans-Serif" font-size="10.00">/Cooler_observer.cpp</text>
</a>
</g>
</g>
<!-- Node13&#45;&gt;Node14 -->
<g id="edge21" class="edge">
<title>Node13&#45;&gt;Node14</title>
<path fill="none" stroke="#63b8ff" d="M638.18,-290.9C637.98,-280.96 637.78,-270.55 637.6,-261.23"/>
<polygon fill="#63b8ff" stroke="#63b8ff" points="634.68,-290.8 638.37,-300.73 641.67,-290.67 634.68,-290.8"/>
</g>
<!-- Node15&#45;&gt;Node12 -->
<g id="edge23" class="edge">
<title>Node15&#45;&gt;Node12</title>
<path fill="none" stroke="#63b8ff" d="M385.43,-294.74C399.55,-281.7 414.97,-267.47 427.69,-255.72"/>
<polygon fill="#63b8ff" stroke="#63b8ff" points="383.39,-291.86 378.42,-301.22 388.14,-297.01 383.39,-291.86"/>
</g>
<!-- Node16 -->
<g id="node16" class="node">
<title>Node16</title>
<g id="a_node16"><a xlink:href="_instruction__observer_8cpp.html" target="_top" xlink:title="Implementación de Instruction_observer.h.">
<polygon fill="white" stroke="#666666" points="358,-261 188,-261 188,-198 358,-198 358,-261"/>
<text text-anchor="start" x="196" y="-249" font-family="Helvetica,sans-Serif" font-size="10.00">C:/Users/juanh/OneDrive</text>
<text text-anchor="start" x="196" y="-238" font-family="Helvetica,sans-Serif" font-size="10.00">/Escritorio/Sistemas Embebidos</text>
<text text-anchor="start" x="196" y="-227" font-family="Helvetica,sans-Serif" font-size="10.00">/Proyecto final/LAL Control</text>
<text text-anchor="start" x="196" y="-216" font-family="Helvetica,sans-Serif" font-size="10.00"> MbedOS/src/Port/observer_pattern</text>
<text text-anchor="middle" x="273" y="-205" font-family="Helvetica,sans-Serif" font-size="10.00">/Instruction_observer.cpp</text>
</a>
</g>
</g>
<!-- Node15&#45;&gt;Node16 -->
<g id="edge24" class="edge">
<title>Node15&#45;&gt;Node16</title>
<path fill="none" stroke="#63b8ff" d="M316.18,-292.83C308.9,-282.32 301.17,-271.16 294.29,-261.23"/>
<polygon fill="#63b8ff" stroke="#63b8ff" points="313.26,-294.77 321.84,-301 319.02,-290.79 313.26,-294.77"/>
</g>
<!-- Node17&#45;&gt;Node12 -->
<g id="edge26" class="edge">
<title>Node17&#45;&gt;Node12</title>
<path fill="none" stroke="#63b8ff" d="M736.59,-298.64C734.71,-298.07 732.85,-297.53 731,-297 649.18,-273.7 625.18,-282.99 543,-261 537.22,-259.45 531.27,-257.72 525.33,-255.88"/>
<polygon fill="#63b8ff" stroke="#63b8ff" points="735.36,-301.92 745.95,-301.61 737.47,-295.25 735.36,-301.92"/>
</g>
<!-- Node18 -->
<g id="node18" class="node">
<title>Node18</title>
<g id="a_node18"><a xlink:href="_moisture__observer_8cpp.html" target="_top" xlink:title="Implementación de Moisture_observer.h.">
<polygon fill="white" stroke="#666666" points="910,-261 740,-261 740,-198 910,-198 910,-261"/>
<text text-anchor="start" x="748" y="-249" font-family="Helvetica,sans-Serif" font-size="10.00">C:/Users/juanh/OneDrive</text>
<text text-anchor="start" x="748" y="-238" font-family="Helvetica,sans-Serif" font-size="10.00">/Escritorio/Sistemas Embebidos</text>
<text text-anchor="start" x="748" y="-227" font-family="Helvetica,sans-Serif" font-size="10.00">/Proyecto final/LAL Control</text>
<text text-anchor="start" x="748" y="-216" font-family="Helvetica,sans-Serif" font-size="10.00"> MbedOS/src/Port/observer_pattern</text>
<text text-anchor="middle" x="825" y="-205" font-family="Helvetica,sans-Serif" font-size="10.00">/Moisture_observer.cpp</text>
</a>
</g>
</g>
<!-- Node17&#45;&gt;Node18 -->
<g id="edge27" class="edge">
<title>Node17&#45;&gt;Node18</title>
<path fill="none" stroke="#63b8ff" d="M825,-290.9C825,-280.96 825,-270.55 825,-261.23"/>
<polygon fill="#63b8ff" stroke="#63b8ff" points="821.5,-290.73 825,-300.73 828.5,-290.73 821.5,-290.73"/>
</g>
<!-- Node19&#45;&gt;Node3 -->
<g id="edge29" class="edge">
<title>Node19&#45;&gt;Node3</title>
<path fill="none" stroke="#63b8ff" d="M688.34,-481.77C687.47,-491.74 686.19,-502.06 684.65,-511.01"/>
<polygon fill="#63b8ff" stroke="#63b8ff" points="691.83,-482.08 689.05,-471.86 684.85,-481.58 691.83,-482.08"/>
</g>
<!-- Node19&#45;&gt;Node13 -->
<g id="edge30" class="edge">
<title>Node19&#45;&gt;Node13</title>
<path fill="none" stroke="#63b8ff" d="M667.14,-396.37C662.45,-386.14 657.51,-375.36 653.09,-365.73"/>
<polygon fill="#63b8ff" stroke="#63b8ff" points="663.92,-397.74 671.27,-405.37 670.28,-394.82 663.92,-397.74"/>
</g>
<!-- Node19&#45;&gt;Node15 -->
<g id="edge31" class="edge">
<title>Node19&#45;&gt;Node15</title>
<path fill="none" stroke="#63b8ff" d="M591.68,-406.63C530.95,-388 472.96,-371.24 427.22,-358.27"/>
<polygon fill="#63b8ff" stroke="#63b8ff" points="590.61,-409.96 601.2,-409.56 592.67,-403.27 590.61,-409.96"/>
</g>
<!-- Node19&#45;&gt;Node17 -->
<g id="edge32" class="edge">
<title>Node19&#45;&gt;Node17</title>
<path fill="none" stroke="#63b8ff" d="M736.57,-400.21C751.93,-388.88 768.62,-376.57 783.32,-365.73"/>
<polygon fill="#63b8ff" stroke="#63b8ff" points="734.89,-397.1 728.92,-405.85 739.05,-402.73 734.89,-397.1"/>
</g>
<!-- Node19&#45;&gt;Node20 -->
<g id="edge33" class="edge">
<title>Node19&#45;&gt;Node20</title>
<path fill="none" stroke="#63b8ff" d="M591.61,-406.92C441.87,-376.53 396.66,-405.98 252,-371 246.11,-369.58 240.09,-367.87 234.09,-365.98"/>
<polygon fill="#63b8ff" stroke="#63b8ff" points="590.59,-410.29 601.1,-408.91 592.02,-403.43 590.59,-410.29"/>
</g>
<!-- Node20&#45;&gt;Node12 -->
<g id="edge34" class="edge">
<title>Node20&#45;&gt;Node12</title>
<path fill="none" stroke="#63b8ff" d="M248.55,-298.21C249.7,-297.81 250.86,-297.4 252,-297 302.56,-279.32 316.14,-277.77 367,-261 371.91,-259.38 376.97,-257.69 382.07,-255.97"/>
<polygon fill="#63b8ff" stroke="#63b8ff" points="247.66,-294.81 239.44,-301.49 250.03,-301.4 247.66,-294.81"/>
</g>
<!-- Node21 -->
<g id="node21" class="node">
<title>Node21</title>
<g id="a_node21"><a xlink:href="_temperature__observer_8cpp.html" target="_top" xlink:title="Implementación de Temperature_observer.h.">
<polygon fill="white" stroke="#666666" points="170,-261 0,-261 0,-198 170,-198 170,-261"/>
<text text-anchor="start" x="8" y="-249" font-family="Helvetica,sans-Serif" font-size="10.00">C:/Users/juanh/OneDrive</text>
<text text-anchor="start" x="8" y="-238" font-family="Helvetica,sans-Serif" font-size="10.00">/Escritorio/Sistemas Embebidos</text>
<text text-anchor="start" x="8" y="-227" font-family="Helvetica,sans-Serif" font-size="10.00">/Proyecto final/LAL Control</text>
<text text-anchor="start" x="8" y="-216" font-family="Helvetica,sans-Serif" font-size="10.00"> MbedOS/src/Port/observer_pattern</text>
<text text-anchor="middle" x="85" y="-205" font-family="Helvetica,sans-Serif" font-size="10.00">/Temperature_observer.cpp</text>
</a>
</g>
</g>
<!-- Node20&#45;&gt;Node21 -->
<g id="edge35" class="edge">
<title>Node20&#45;&gt;Node21</title>
<path fill="none" stroke="#63b8ff" d="M130.23,-293.15C122.58,-282.55 114.43,-271.26 107.19,-261.23"/>
<polygon fill="#63b8ff" stroke="#63b8ff" points="127.22,-294.96 135.91,-301.02 132.9,-290.86 127.22,-294.96"/>
</g>
<!-- Node24&#45;&gt;Node3 -->
<g id="edge40" class="edge">
<title>Node24&#45;&gt;Node3</title>
<path fill="none" stroke="#63b8ff" d="M540.12,-605.07C567.07,-591.86 598.28,-576.58 623.98,-563.98"/>
<polygon fill="#63b8ff" stroke="#63b8ff" points="538.82,-601.81 531.38,-609.35 541.9,-608.09 538.82,-601.81"/>
</g>
<!-- Node25 -->
<g id="node25" class="node">
<title>Node25</title>
<g id="a_node25"><a xlink:href="_dual___l_e_d_8cpp.html" target="_top" xlink:title="Implementación de Dual_LED.h.">
<polygon fill="white" stroke="#666666" points="572.5,-563.5 381.5,-563.5 381.5,-511.5 572.5,-511.5 572.5,-563.5"/>
<text text-anchor="start" x="389.5" y="-551.5" font-family="Helvetica,sans-Serif" font-size="10.00">C:/Users/juanh/OneDrive</text>
<text text-anchor="start" x="389.5" y="-540.5" font-family="Helvetica,sans-Serif" font-size="10.00">/Escritorio/Sistemas Embebidos</text>
<text text-anchor="start" x="389.5" y="-529.5" font-family="Helvetica,sans-Serif" font-size="10.00">/Proyecto final/LAL Control</text>
<text text-anchor="middle" x="477" y="-518.5" font-family="Helvetica,sans-Serif" font-size="10.00"> MbedOS/src/Port/drivers/Dual_LED.cpp</text>
</a>
</g>
</g>
<!-- Node24&#45;&gt;Node25 -->
<g id="edge41" class="edge">
<title>Node24&#45;&gt;Node25</title>
<path fill="none" stroke="#63b8ff" d="M477.62,-598.78C477.5,-587.12 477.37,-574.49 477.26,-563.82"/>
<polygon fill="#63b8ff" stroke="#63b8ff" points="474.12,-598.54 477.72,-608.5 481.12,-598.47 474.12,-598.54"/>
</g>
<!-- Node26&#45;&gt;Node3 -->
<g id="edge43" class="edge">
<title>Node26&#45;&gt;Node3</title>
<path fill="none" stroke="#63b8ff" d="M676,-593.14C676,-583.2 676,-572.91 676,-563.98"/>
<polygon fill="#63b8ff" stroke="#63b8ff" points="672.5,-593.03 676,-603.03 679.5,-593.03 672.5,-593.03"/>
</g>
<!-- Node27 -->
<g id="node27" class="node">
<title>Node27</title>
<g id="a_node27"><a xlink:href="_temperature__sensor_8cpp.html" target="_top" xlink:title="Implementación de Temperature_sensor.h.">
<polygon fill="white" stroke="#666666" points="962.5,-569 779.5,-569 779.5,-506 962.5,-506 962.5,-569"/>
<text text-anchor="start" x="787.5" y="-557" font-family="Helvetica,sans-Serif" font-size="10.00">C:/Users/juanh/OneDrive</text>
<text text-anchor="start" x="787.5" y="-546" font-family="Helvetica,sans-Serif" font-size="10.00">/Escritorio/Sistemas Embebidos</text>
<text text-anchor="start" x="787.5" y="-535" font-family="Helvetica,sans-Serif" font-size="10.00">/Proyecto final/LAL Control</text>
<text text-anchor="start" x="787.5" y="-524" font-family="Helvetica,sans-Serif" font-size="10.00"> MbedOS/src/Port/drivers/Temperature</text>
<text text-anchor="middle" x="871" y="-513" font-family="Helvetica,sans-Serif" font-size="10.00">_sensor.cpp</text>
</a>
</g>
</g>
<!-- Node26&#45;&gt;Node27 -->
<g id="edge44" class="edge">
<title>Node26&#45;&gt;Node27</title>
<path fill="none" stroke="#63b8ff" d="M748.43,-599.47C768.23,-589.62 789.51,-579.04 808.69,-569.5"/>
<polygon fill="#63b8ff" stroke="#63b8ff" points="746.99,-596.28 739.59,-603.87 750.1,-602.55 746.99,-596.28"/>
</g>
</g>
</svg>
