<?xml version="1.0" encoding="UTF-8" standalone="no"?>
<!DOCTYPE svg PUBLIC "-//W3C//DTD SVG 1.1//EN"
 "http://www.w3.org/Graphics/SVG/1.1/DTD/svg11.dtd">
<!-- Generated by graphviz version 7.0.2 (20221119.0110)
 -->
<!-- Title: C:/Users/juanh/OneDrive/Escritorio/Sistemas Embebidos/Proyecto final/LAL Control MbedOS/include/types.h Pages: 1 -->
<!--zoomable 764 -->
<svg id="main" version="1.1" xmlns="http://www.w3.org/2000/svg" xmlns:xlink="http://www.w3.org/1999/xlink" xml:space="preserve" onload="init(evt)">
<style type="text/css"><![CDATA[
.edge:hover path { stroke: red; }
.edge:hover polygon { stroke: red; fill: red; }
]]></style>
<script type="text/javascript"><![CDATA[
var edges = document.getElementsByTagName('g');
if (edges && edges.length) {
  for (var i=0;i<edges.length;i++) {
    if (edges[i].id.substr(0,4)=='edge') {
      edges[i].setAttribute('class','edge');
    }
  }
}
]]></script>
        <defs>
                <circle id="rim" cx="0" cy="0" r="7"/>
                <circle id="rim2" cx="0" cy="0" r="3.5"/>
                <g id="zoomPlus">
                        <use xlink:href="#rim" fill="#404040">
                                <set attributeName="fill" to="#808080" begin="zoomplus.mouseover" end="zoomplus.mouseout"/>
                        </use>
                        <path d="M-4,0h8M0,-4v8" fill="none" stroke="white" stroke-width="1.5" pointer-events="none"/>
                </g>
                <g id="zoomMin">
                        <use xlink:href="#rim" fill="#404040">
                                <set attributeName="fill" to="#808080" begin="zoomminus.mouseover" end="zoomminus.mouseout"/>
                        </use>
                        <path d="M-4,0h8" fill="none" stroke="white" stroke-width="1.5" pointer-events="none"/>
                </g>
                <g id="dirArrow">
                        <path fill="none" stroke="white" stroke-width="1.5" d="M0,-3.0v7 M-2.5,-0.5L0,-3.0L2.5,-0.5"/>
                </g>
               <g id="resetDef">
                       <use xlink:href="#rim2" fill="#404040">
                               <set attributeName="fill" to="#808080" begin="reset.mouseover" end="reset.mouseout"/>
                       </use>
               </g>
        </defs>

<script type="text/javascript">
var viewWidth = 1485;
var viewHeight = 764;
var sectionId = 'dynsection-0';
</script>
<script xlink:href="svgpan.js"/>
<svg id="graph" class="graph">
<g id="viewport">
<title>C:/Users/juanh/OneDrive/Escritorio/Sistemas Embebidos/Proyecto final/LAL Control MbedOS/include/types.h</title>
<!-- Node1 -->
<g id="node1" class="node">
<title>Node1</title>
<g id="a_node1"><a xlink:title="Archivo de definición de tipos de dato.">
<polygon fill="#999999" stroke="#666666" points="1059,-756 902,-756 902,-704 1059,-704 1059,-756"/>
<text text-anchor="start" x="910" y="-744" font-family="Helvetica,sans-Serif" font-size="10.00">C:/Users/juanh/OneDrive</text>
<text text-anchor="start" x="910" y="-733" font-family="Helvetica,sans-Serif" font-size="10.00">/Escritorio/Sistemas Embebidos</text>
<text text-anchor="start" x="910" y="-722" font-family="Helvetica,sans-Serif" font-size="10.00">/Proyecto final/LAL Control</text>
<text text-anchor="middle" x="980.5" y="-711" font-family="Helvetica,sans-Serif" font-size="10.00"> MbedOS/include/types.h</text>
</a>
</g>
</g>
<!-- Node2 -->
<g id="node2" class="node">
<title>Node2</title>
<g id="a_node2"><a xlink:href="_control__system_8h_source.html" target="_top" xlink:title=" ">
<polygon fill="white" stroke="#666666" points="696,-563.5 525,-563.5 525,-511.5 696,-511.5 696,-563.5"/>
<text text-anchor="start" x="533" y="-551.5" font-family="Helvetica,sans-Serif" font-size="10.00">C:/Users/juanh/OneDrive</text>
<text text-anchor="start" x="533" y="-540.5" font-family="Helvetica,sans-Serif" font-size="10.00">/Escritorio/Sistemas Embebidos</text>
<text text-anchor="start" x="533" y="-529.5" font-family="Helvetica,sans-Serif" font-size="10.00">/Proyecto final/LAL Control</text>
<text text-anchor="middle" x="610.5" y="-518.5" font-family="Helvetica,sans-Serif" font-size="10.00"> MbedOS/include/Control_system.h</text>
</a>
</g>
</g>
<!-- Node1&#45;&gt;Node2 -->
<g id="edge1" class="edge">
<title>Node1&#45;&gt;Node2</title>
<path fill="none" stroke="#63b8ff" d="M890.43,-725.08C833.48,-718.91 760.5,-703.89 705.5,-668 665.8,-642.1 636.93,-593.49 622.02,-563.76"/>
<polygon fill="#63b8ff" stroke="#63b8ff" points="889.79,-728.53 900.09,-726.05 890.49,-721.57 889.79,-728.53"/>
</g>
<!-- Node16 -->
<g id="node16" class="node">
<title>Node16</title>
<g id="a_node16"><a xlink:href="_moisture__observer_8h.html" target="_top" xlink:title="Observador del sensor de temperatura.">
<polygon fill="white" stroke="#666666" points="1177.5,-365.5 1011.5,-365.5 1011.5,-302.5 1177.5,-302.5 1177.5,-365.5"/>
<text text-anchor="start" x="1019.5" y="-353.5" font-family="Helvetica,sans-Serif" font-size="10.00">C:/Users/juanh/OneDrive</text>
<text text-anchor="start" x="1019.5" y="-342.5" font-family="Helvetica,sans-Serif" font-size="10.00">/Escritorio/Sistemas Embebidos</text>
<text text-anchor="start" x="1019.5" y="-331.5" font-family="Helvetica,sans-Serif" font-size="10.00">/Proyecto final/LAL Control</text>
<text text-anchor="start" x="1019.5" y="-320.5" font-family="Helvetica,sans-Serif" font-size="10.00"> MbedOS/include/observer_pattern</text>
<text text-anchor="middle" x="1094.5" y="-309.5" font-family="Helvetica,sans-Serif" font-size="10.00">/observers/Moisture_observer.h</text>
</a>
</g>
</g>
<!-- Node1&#45;&gt;Node16 -->
<g id="edge43" class="edge">
<title>Node1&#45;&gt;Node16</title>
<path fill="none" stroke="#63b8ff" d="M1049.35,-697.51C1060.72,-689.42 1071.16,-679.64 1078.5,-668 1138.83,-572.27 1116.35,-428.55 1102.35,-365.96"/>
<polygon fill="#63b8ff" stroke="#63b8ff" points="1047.76,-694.36 1041.35,-702.8 1051.62,-700.21 1047.76,-694.36"/>
</g>
<!-- Node19 -->
<g id="node19" class="node">
<title>Node19</title>
<g id="a_node19"><a xlink:href="_temperature__observer_8h.html" target="_top" xlink:title="Observador del sensor de temperatura.">
<polygon fill="white" stroke="#666666" points="1363,-365.5 1196,-365.5 1196,-302.5 1363,-302.5 1363,-365.5"/>
<text text-anchor="start" x="1204" y="-353.5" font-family="Helvetica,sans-Serif" font-size="10.00">C:/Users/juanh/OneDrive</text>
<text text-anchor="start" x="1204" y="-342.5" font-family="Helvetica,sans-Serif" font-size="10.00">/Escritorio/Sistemas Embebidos</text>
<text text-anchor="start" x="1204" y="-331.5" font-family="Helvetica,sans-Serif" font-size="10.00">/Proyecto final/LAL Control</text>
<text text-anchor="start" x="1204" y="-320.5" font-family="Helvetica,sans-Serif" font-size="10.00"> MbedOS/include/observer_pattern</text>
<text text-anchor="middle" x="1279.5" y="-309.5" font-family="Helvetica,sans-Serif" font-size="10.00">/observers/Temperature_observer.h</text>
</a>
</g>
</g>
<!-- Node1&#45;&gt;Node19 -->
<g id="edge44" class="edge">
<title>Node1&#45;&gt;Node19</title>
<path fill="none" stroke="#63b8ff" d="M1068.6,-699.41C1162.45,-662.45 1305.46,-589.16 1364.5,-470 1376.93,-444.91 1376.27,-432.4 1364.5,-407 1357.02,-390.86 1343.94,-377.02 1330.25,-365.91"/>
<polygon fill="#63b8ff" stroke="#63b8ff" points="1067.45,-696.1 1059.39,-702.97 1069.98,-702.63 1067.45,-696.1"/>
</g>
<!-- Node22 -->
<g id="node22" class="node">
<title>Node22</title>
<g id="a_node22"><a xlink:href="_digital__dual___l_e_d_8h_source.html" target="_top" xlink:title=" ">
<polygon fill="white" stroke="#666666" points="871,-668 714,-668 714,-605 871,-605 871,-668"/>
<text text-anchor="start" x="722" y="-656" font-family="Helvetica,sans-Serif" font-size="10.00">C:/Users/juanh/OneDrive</text>
<text text-anchor="start" x="722" y="-645" font-family="Helvetica,sans-Serif" font-size="10.00">/Escritorio/Sistemas Embebidos</text>
<text text-anchor="start" x="722" y="-634" font-family="Helvetica,sans-Serif" font-size="10.00">/Proyecto final/LAL Control</text>
<text text-anchor="start" x="722" y="-623" font-family="Helvetica,sans-Serif" font-size="10.00"> MbedOS/include/drivers/Digital</text>
<text text-anchor="middle" x="792.5" y="-612" font-family="Helvetica,sans-Serif" font-size="10.00">_dual_LED.h</text>
</a>
</g>
</g>
<!-- Node1&#45;&gt;Node22 -->
<g id="edge37" class="edge">
<title>Node1&#45;&gt;Node22</title>
<path fill="none" stroke="#63b8ff" d="M917.93,-698.55C898,-688.85 875.94,-678.11 855.95,-668.38"/>
<polygon fill="#63b8ff" stroke="#63b8ff" points="916.25,-701.62 926.77,-702.85 919.31,-695.33 916.25,-701.62"/>
</g>
<!-- Node24 -->
<g id="node24" class="node">
<title>Node24</title>
<g id="a_node24"><a xlink:href="_dual___l_e_d_8h.html" target="_top" xlink:title="Controlador de LED RG con PWM.">
<polygon fill="white" stroke="#666666" points="1069,-662.5 892,-662.5 892,-610.5 1069,-610.5 1069,-662.5"/>
<text text-anchor="start" x="900" y="-650.5" font-family="Helvetica,sans-Serif" font-size="10.00">C:/Users/juanh/OneDrive</text>
<text text-anchor="start" x="900" y="-639.5" font-family="Helvetica,sans-Serif" font-size="10.00">/Escritorio/Sistemas Embebidos</text>
<text text-anchor="start" x="900" y="-628.5" font-family="Helvetica,sans-Serif" font-size="10.00">/Proyecto final/LAL Control</text>
<text text-anchor="middle" x="980.5" y="-617.5" font-family="Helvetica,sans-Serif" font-size="10.00"> MbedOS/include/drivers/Dual_LED.h</text>
</a>
</g>
</g>
<!-- Node1&#45;&gt;Node24 -->
<g id="edge40" class="edge">
<title>Node1&#45;&gt;Node24</title>
<path fill="none" stroke="#63b8ff" d="M980.5,-692.3C980.5,-682.42 980.5,-671.96 980.5,-662.85"/>
<polygon fill="#63b8ff" stroke="#63b8ff" points="977,-692 980.5,-702 984,-692 977,-692"/>
</g>
<!-- Node3 -->
<g id="node3" class="node">
<title>Node3</title>
<g id="a_node3"><a xlink:href="_alarm__state_8h.html" target="_top" xlink:title="Clase de estado de control del motor.">
<polygon fill="white" stroke="#666666" points="452.5,-470 264.5,-470 264.5,-407 452.5,-407 452.5,-470"/>
<text text-anchor="start" x="272.5" y="-458" font-family="Helvetica,sans-Serif" font-size="10.00">C:/Users/juanh/OneDrive</text>
<text text-anchor="start" x="272.5" y="-447" font-family="Helvetica,sans-Serif" font-size="10.00">/Escritorio/Sistemas Embebidos</text>
<text text-anchor="start" x="272.5" y="-436" font-family="Helvetica,sans-Serif" font-size="10.00">/Proyecto final/LAL Control</text>
<text text-anchor="start" x="272.5" y="-425" font-family="Helvetica,sans-Serif" font-size="10.00"> MbedOS/include/machine_state</text>
<text text-anchor="middle" x="358.5" y="-414" font-family="Helvetica,sans-Serif" font-size="10.00">_pattern/machine_states/Alarm_state.h</text>
</a>
</g>
</g>
<!-- Node2&#45;&gt;Node3 -->
<g id="edge2" class="edge">
<title>Node2&#45;&gt;Node3</title>
<path fill="none" stroke="#63b8ff" d="M533.83,-506.99C503.7,-495.39 469.1,-482.07 438.63,-470.35"/>
<polygon fill="#63b8ff" stroke="#63b8ff" points="532.29,-510.14 542.88,-510.47 534.8,-503.61 532.29,-510.14"/>
</g>
<!-- Node4 -->
<g id="node4" class="node">
<title>Node4</title>
<g id="a_node4"><a xlink:href="_check__instruction__state_8h_source.html" target="_top" xlink:title=" ">
<polygon fill="white" stroke="#666666" points="587.5,-371 429.5,-371 429.5,-297 587.5,-297 587.5,-371"/>
<text text-anchor="start" x="437.5" y="-359" font-family="Helvetica,sans-Serif" font-size="10.00">C:/Users/juanh/OneDrive</text>
<text text-anchor="start" x="437.5" y="-348" font-family="Helvetica,sans-Serif" font-size="10.00">/Escritorio/Sistemas Embebidos</text>
<text text-anchor="start" x="437.5" y="-337" font-family="Helvetica,sans-Serif" font-size="10.00">/Proyecto final/LAL Control</text>
<text text-anchor="start" x="437.5" y="-326" font-family="Helvetica,sans-Serif" font-size="10.00"> MbedOS/include/machine_state</text>
<text text-anchor="start" x="437.5" y="-315" font-family="Helvetica,sans-Serif" font-size="10.00">_pattern/machine_states/Check</text>
<text text-anchor="middle" x="508.5" y="-304" font-family="Helvetica,sans-Serif" font-size="10.00">_instruction_state.h</text>
</a>
</g>
</g>
<!-- Node2&#45;&gt;Node4 -->
<g id="edge14" class="edge">
<title>Node2&#45;&gt;Node4</title>
<path fill="none" stroke="#63b8ff" d="M592.64,-501.22C574.2,-464.78 545.55,-408.19 526.9,-371.36"/>
<polygon fill="#63b8ff" stroke="#63b8ff" points="589.47,-502.7 597.1,-510.04 595.71,-499.53 589.47,-502.7"/>
</g>
<!-- Node5 -->
<g id="node5" class="node">
<title>Node5</title>
<g id="a_node5"><a xlink:href="_idle__state_8h.html" target="_top" xlink:title="Clase de estado de reposo.">
<polygon fill="white" stroke="#666666" points="317,-261 140,-261 140,-198 317,-198 317,-261"/>
<text text-anchor="start" x="148" y="-249" font-family="Helvetica,sans-Serif" font-size="10.00">C:/Users/juanh/OneDrive</text>
<text text-anchor="start" x="148" y="-238" font-family="Helvetica,sans-Serif" font-size="10.00">/Escritorio/Sistemas Embebidos</text>
<text text-anchor="start" x="148" y="-227" font-family="Helvetica,sans-Serif" font-size="10.00">/Proyecto final/LAL Control</text>
<text text-anchor="start" x="148" y="-216" font-family="Helvetica,sans-Serif" font-size="10.00"> MbedOS/include/machine_state</text>
<text text-anchor="middle" x="228.5" y="-205" font-family="Helvetica,sans-Serif" font-size="10.00">_pattern/machine_states/Idle_state.h</text>
</a>
</g>
</g>
<!-- Node2&#45;&gt;Node5 -->
<g id="edge15" class="edge">
<title>Node2&#45;&gt;Node5</title>
<path fill="none" stroke="#63b8ff" d="M513.68,-529.01C422.31,-520.1 293.8,-502.2 255.5,-470 195.13,-419.24 209.03,-313.38 220.55,-261.08"/>
<polygon fill="#63b8ff" stroke="#63b8ff" points="513.11,-532.47 523.4,-529.94 513.77,-525.5 513.11,-532.47"/>
</g>
<!-- Node6 -->
<g id="node6" class="node">
<title>Node6</title>
<g id="a_node6"><a xlink:href="_shutdown__state_8h.html" target="_top" xlink:title="Clase de estado de apagado del sistema.">
<polygon fill="white" stroke="#666666" points="205,-162 0,-162 0,-99 205,-99 205,-162"/>
<text text-anchor="start" x="8" y="-150" font-family="Helvetica,sans-Serif" font-size="10.00">C:/Users/juanh/OneDrive</text>
<text text-anchor="start" x="8" y="-139" font-family="Helvetica,sans-Serif" font-size="10.00">/Escritorio/Sistemas Embebidos</text>
<text text-anchor="start" x="8" y="-128" font-family="Helvetica,sans-Serif" font-size="10.00">/Proyecto final/LAL Control</text>
<text text-anchor="start" x="8" y="-117" font-family="Helvetica,sans-Serif" font-size="10.00"> MbedOS/include/machine_state</text>
<text text-anchor="middle" x="102.5" y="-106" font-family="Helvetica,sans-Serif" font-size="10.00">_pattern/machine_states/Shutdown_state.h</text>
</a>
</g>
</g>
<!-- Node2&#45;&gt;Node6 -->
<g id="edge16" class="edge">
<title>Node2&#45;&gt;Node6</title>
<path fill="none" stroke="#63b8ff" d="M513.59,-531.45C408.99,-524.05 251.36,-506.89 205.5,-470 109.28,-392.59 95.01,-230.26 97.66,-162.37"/>
<polygon fill="#63b8ff" stroke="#63b8ff" points="513.08,-534.93 523.29,-532.12 513.56,-527.94 513.08,-534.93"/>
</g>
<!-- Node11 -->
<g id="node11" class="node">
<title>Node11</title>
<g id="a_node11"><a xlink:href="main_8h.html" target="_top" xlink:title="Archivo principal del programa.">
<polygon fill="white" stroke="#666666" points="912,-255.5 755,-255.5 755,-203.5 912,-203.5 912,-255.5"/>
<text text-anchor="start" x="763" y="-243.5" font-family="Helvetica,sans-Serif" font-size="10.00">C:/Users/juanh/OneDrive</text>
<text text-anchor="start" x="763" y="-232.5" font-family="Helvetica,sans-Serif" font-size="10.00">/Escritorio/Sistemas Embebidos</text>
<text text-anchor="start" x="763" y="-221.5" font-family="Helvetica,sans-Serif" font-size="10.00">/Proyecto final/LAL Control</text>
<text text-anchor="middle" x="833.5" y="-210.5" font-family="Helvetica,sans-Serif" font-size="10.00"> MbedOS/include/main.h</text>
</a>
</g>
</g>
<!-- Node2&#45;&gt;Node11 -->
<g id="edge17" class="edge">
<title>Node2&#45;&gt;Node11</title>
<path fill="none" stroke="#63b8ff" d="M602.91,-499.98C594.49,-448.69 587.66,-355.1 634.5,-297 667.05,-256.62 696.33,-277.49 745.5,-261 750.41,-259.35 755.46,-257.64 760.55,-255.91"/>
<polygon fill="#63b8ff" stroke="#63b8ff" points="599.43,-500.43 604.62,-509.67 606.33,-499.22 599.43,-500.43"/>
</g>
<!-- Node12 -->
<g id="node12" class="node">
<title>Node12</title>
<g id="a_node12"><a xlink:href="_cooler__observer_8h_source.html" target="_top" xlink:title=" ">
<polygon fill="white" stroke="#666666" points="809.5,-365.5 643.5,-365.5 643.5,-302.5 809.5,-302.5 809.5,-365.5"/>
<text text-anchor="start" x="651.5" y="-353.5" font-family="Helvetica,sans-Serif" font-size="10.00">C:/Users/juanh/OneDrive</text>
<text text-anchor="start" x="651.5" y="-342.5" font-family="Helvetica,sans-Serif" font-size="10.00">/Escritorio/Sistemas Embebidos</text>
<text text-anchor="start" x="651.5" y="-331.5" font-family="Helvetica,sans-Serif" font-size="10.00">/Proyecto final/LAL Control</text>
<text text-anchor="start" x="651.5" y="-320.5" font-family="Helvetica,sans-Serif" font-size="10.00"> MbedOS/include/observer_pattern</text>
<text text-anchor="middle" x="726.5" y="-309.5" font-family="Helvetica,sans-Serif" font-size="10.00">/observers/Cooler_observer.h</text>
</a>
</g>
</g>
<!-- Node2&#45;&gt;Node12 -->
<g id="edge18" class="edge">
<title>Node2&#45;&gt;Node12</title>
<path fill="none" stroke="#63b8ff" d="M630.54,-501.69C652.61,-463.36 687.74,-402.32 708.82,-365.71"/>
<polygon fill="#63b8ff" stroke="#63b8ff" points="627.67,-499.66 625.71,-510.08 633.73,-503.16 627.67,-499.66"/>
</g>
<!-- Node14 -->
<g id="node14" class="node">
<title>Node14</title>
<g id="a_node14"><a xlink:href="_instruction__observer_8h.html" target="_top" xlink:title="Observador de instrucciones.">
<polygon fill="white" stroke="#666666" points="993.5,-365.5 827.5,-365.5 827.5,-302.5 993.5,-302.5 993.5,-365.5"/>
<text text-anchor="start" x="835.5" y="-353.5" font-family="Helvetica,sans-Serif" font-size="10.00">C:/Users/juanh/OneDrive</text>
<text text-anchor="start" x="835.5" y="-342.5" font-family="Helvetica,sans-Serif" font-size="10.00">/Escritorio/Sistemas Embebidos</text>
<text text-anchor="start" x="835.5" y="-331.5" font-family="Helvetica,sans-Serif" font-size="10.00">/Proyecto final/LAL Control</text>
<text text-anchor="start" x="835.5" y="-320.5" font-family="Helvetica,sans-Serif" font-size="10.00"> MbedOS/include/observer_pattern</text>
<text text-anchor="middle" x="910.5" y="-309.5" font-family="Helvetica,sans-Serif" font-size="10.00">/observers/Instruction_observer.h</text>
</a>
</g>
</g>
<!-- Node2&#45;&gt;Node14 -->
<g id="edge21" class="edge">
<title>Node2&#45;&gt;Node14</title>
<path fill="none" stroke="#63b8ff" d="M650.63,-504.17C685.04,-477.01 736.37,-437.82 783.5,-407 805.45,-392.64 830.42,-378.13 852.36,-365.92"/>
<polygon fill="#63b8ff" stroke="#63b8ff" points="648.68,-501.25 643.02,-510.21 653.03,-506.74 648.68,-501.25"/>
</g>
<!-- Node2&#45;&gt;Node16 -->
<g id="edge24" class="edge">
<title>Node2&#45;&gt;Node16</title>
<path fill="none" stroke="#63b8ff" d="M696.56,-508.15C699.57,-507.39 702.55,-506.67 705.5,-506 820.11,-479.94 863.04,-523.88 967.5,-470 1014.11,-445.95 1052.86,-397.8 1074.85,-365.98"/>
<polygon fill="#63b8ff" stroke="#63b8ff" points="695.84,-504.72 687.08,-510.68 697.64,-511.48 695.84,-504.72"/>
</g>
<!-- Node18 -->
<g id="node18" class="node">
<title>Node18</title>
<g id="a_node18"><a xlink:href="_system__observer_8h.html" target="_top" xlink:title="Clase observador del sistema de control.">
<polygon fill="white" stroke="#666666" points="958.5,-470 792.5,-470 792.5,-407 958.5,-407 958.5,-470"/>
<text text-anchor="start" x="800.5" y="-458" font-family="Helvetica,sans-Serif" font-size="10.00">C:/Users/juanh/OneDrive</text>
<text text-anchor="start" x="800.5" y="-447" font-family="Helvetica,sans-Serif" font-size="10.00">/Escritorio/Sistemas Embebidos</text>
<text text-anchor="start" x="800.5" y="-436" font-family="Helvetica,sans-Serif" font-size="10.00">/Proyecto final/LAL Control</text>
<text text-anchor="start" x="800.5" y="-425" font-family="Helvetica,sans-Serif" font-size="10.00"> MbedOS/include/observer_pattern</text>
<text text-anchor="middle" x="875.5" y="-414" font-family="Helvetica,sans-Serif" font-size="10.00">/observers/System_observer.h</text>
</a>
</g>
</g>
<!-- Node2&#45;&gt;Node18 -->
<g id="edge27" class="edge">
<title>Node2&#45;&gt;Node18</title>
<path fill="none" stroke="#63b8ff" d="M684.73,-507.04C718.17,-494.55 757.77,-480.06 792.22,-467.72"/>
<polygon fill="#63b8ff" stroke="#63b8ff" points="683.66,-503.7 675.52,-510.48 686.11,-510.26 683.66,-503.7"/>
</g>
<!-- Node2&#45;&gt;Node19 -->
<g id="edge35" class="edge">
<title>Node2&#45;&gt;Node19</title>
<path fill="none" stroke="#63b8ff" d="M695.99,-508.2C699.19,-507.42 702.37,-506.68 705.5,-506 841.94,-476.52 883.96,-510.63 1017.5,-470 1059.23,-457.3 1161.59,-401.64 1225.31,-365.87"/>
<polygon fill="#63b8ff" stroke="#63b8ff" points="695.32,-504.76 686.53,-510.67 697.09,-511.53 695.32,-504.76"/>
</g>
<!-- Node21 -->
<g id="node21" class="node">
<title>Node21</title>
<g id="a_node21"><a xlink:href="_control__system_8cpp.html" target="_top" xlink:title="Implementación de Control_system.h.">
<polygon fill="white" stroke="#666666" points="1355,-464.5 1170,-464.5 1170,-412.5 1355,-412.5 1355,-464.5"/>
<text text-anchor="start" x="1178" y="-452.5" font-family="Helvetica,sans-Serif" font-size="10.00">C:/Users/juanh/OneDrive</text>
<text text-anchor="start" x="1178" y="-441.5" font-family="Helvetica,sans-Serif" font-size="10.00">/Escritorio/Sistemas Embebidos</text>
<text text-anchor="start" x="1178" y="-430.5" font-family="Helvetica,sans-Serif" font-size="10.00">/Proyecto final/LAL Control</text>
<text text-anchor="middle" x="1262.5" y="-419.5" font-family="Helvetica,sans-Serif" font-size="10.00"> MbedOS/src/Port/Control_system.cpp</text>
</a>
</g>
</g>
<!-- Node2&#45;&gt;Node21 -->
<g id="edge36" class="edge">
<title>Node2&#45;&gt;Node21</title>
<path fill="none" stroke="#63b8ff" d="M695.26,-508.23C698.7,-507.41 702.13,-506.67 705.5,-506 902.33,-467.07 958.06,-505.67 1155.5,-470 1163.2,-468.61 1171.14,-466.89 1179.05,-464.99"/>
<polygon fill="#63b8ff" stroke="#63b8ff" points="694.53,-504.8 685.7,-510.64 696.25,-511.59 694.53,-504.8"/>
</g>
<!-- Node3&#45;&gt;Node4 -->
<g id="edge3" class="edge">
<title>Node3&#45;&gt;Node4</title>
<path fill="none" stroke="#63b8ff" d="M406.37,-400.33C419.89,-390.88 434.74,-380.74 448.85,-371.33"/>
<polygon fill="#63b8ff" stroke="#63b8ff" points="404.66,-397.26 398.5,-405.88 408.69,-402.98 404.66,-397.26"/>
</g>
<!-- Node3&#45;&gt;Node5 -->
<g id="edge12" class="edge">
<title>Node3&#45;&gt;Node5</title>
<path fill="none" stroke="#63b8ff" d="M260.5,-400.45C249.1,-392.29 238.93,-382.55 231.5,-371 210.38,-338.16 210.92,-291.7 216.5,-261.34"/>
<polygon fill="#63b8ff" stroke="#63b8ff" points="258.33,-403.21 268.6,-405.82 262.2,-397.38 258.33,-403.21"/>
</g>
<!-- Node10 -->
<g id="node10" class="node">
<title>Node10</title>
<g id="a_node10"><a xlink:href="_alarm_8cpp.html" target="_top" xlink:title="Implementación de Alarm_state.h.">
<polygon fill="white" stroke="#666666" points="411.5,-365.5 249.5,-365.5 249.5,-302.5 411.5,-302.5 411.5,-365.5"/>
<text text-anchor="start" x="257.5" y="-353.5" font-family="Helvetica,sans-Serif" font-size="10.00">C:/Users/juanh/OneDrive</text>
<text text-anchor="start" x="257.5" y="-342.5" font-family="Helvetica,sans-Serif" font-size="10.00">/Escritorio/Sistemas Embebidos</text>
<text text-anchor="start" x="257.5" y="-331.5" font-family="Helvetica,sans-Serif" font-size="10.00">/Proyecto final/LAL Control</text>
<text text-anchor="start" x="257.5" y="-320.5" font-family="Helvetica,sans-Serif" font-size="10.00"> MbedOS/src/Port/machine_state</text>
<text text-anchor="middle" x="330.5" y="-309.5" font-family="Helvetica,sans-Serif" font-size="10.00">_pattern/Alarm.cpp</text>
</a>
</g>
</g>
<!-- Node3&#45;&gt;Node10 -->
<g id="edge13" class="edge">
<title>Node3&#45;&gt;Node10</title>
<path fill="none" stroke="#63b8ff" d="M347.09,-395.72C344.35,-385.69 341.47,-375.16 338.89,-365.73"/>
<polygon fill="#63b8ff" stroke="#63b8ff" points="343.69,-396.56 349.7,-405.29 350.44,-394.72 343.69,-396.56"/>
</g>
<!-- Node4&#45;&gt;Node3 -->
<g id="edge4" class="edge">
<title>Node4&#45;&gt;Node3</title>
<path fill="none" stroke="#63b8ff" d="M452.73,-377.66C438.65,-387.42 423.6,-397.6 409.75,-406.75"/>
<polygon fill="#63b8ff" stroke="#63b8ff" points="454.38,-380.78 460.58,-372.19 450.38,-375.04 454.38,-380.78"/>
</g>
<!-- Node4&#45;&gt;Node5 -->
<g id="edge5" class="edge">
<title>Node4&#45;&gt;Node5</title>
<path fill="none" stroke="#63b8ff" d="M419.09,-296.52C380.94,-282.23 347.21,-270.37 317.28,-260.11"/>
<polygon fill="#63b8ff" stroke="#63b8ff" points="417.42,-299.63 428.01,-299.88 419.89,-293.08 417.42,-299.63"/>
</g>
<!-- Node9 -->
<g id="node9" class="node">
<title>Node9</title>
<g id="a_node9"><a xlink:href="_check__instruction__state_8cpp.html" target="_top" xlink:title="Implementación de Check_instruction_state.h.">
<polygon fill="white" stroke="#666666" points="548,-261 369,-261 369,-198 548,-198 548,-261"/>
<text text-anchor="start" x="377" y="-249" font-family="Helvetica,sans-Serif" font-size="10.00">C:/Users/juanh/OneDrive</text>
<text text-anchor="start" x="377" y="-238" font-family="Helvetica,sans-Serif" font-size="10.00">/Escritorio/Sistemas Embebidos</text>
<text text-anchor="start" x="377" y="-227" font-family="Helvetica,sans-Serif" font-size="10.00">/Proyecto final/LAL Control</text>
<text text-anchor="start" x="377" y="-216" font-family="Helvetica,sans-Serif" font-size="10.00"> MbedOS/src/Port/machine_state</text>
<text text-anchor="middle" x="458.5" y="-205" font-family="Helvetica,sans-Serif" font-size="10.00">_pattern/Check_instruction_state.cpp</text>
</a>
</g>
</g>
<!-- Node4&#45;&gt;Node9 -->
<g id="edge11" class="edge">
<title>Node4&#45;&gt;Node9</title>
<path fill="none" stroke="#63b8ff" d="M485.76,-286.38C481.63,-277.91 477.41,-269.26 473.57,-261.38"/>
<polygon fill="#63b8ff" stroke="#63b8ff" points="482.54,-287.76 490.07,-295.21 488.83,-284.69 482.54,-287.76"/>
</g>
<!-- Node5&#45;&gt;Node3 -->
<g id="edge6" class="edge">
<title>Node5&#45;&gt;Node3</title>
<path fill="none" stroke="#63b8ff" d="M229.78,-272.63C229.09,-302.4 230.86,-342 249.5,-371 258.91,-385.64 272.74,-397.37 287.43,-406.65"/>
<polygon fill="#63b8ff" stroke="#63b8ff" points="233.27,-272.96 230.1,-262.85 226.28,-272.73 233.27,-272.96"/>
</g>
<!-- Node5&#45;&gt;Node6 -->
<g id="edge7" class="edge">
<title>Node5&#45;&gt;Node6</title>
<path fill="none" stroke="#63b8ff" d="M179.22,-190.56C167.14,-181.27 154.36,-171.42 142.76,-162.5"/>
<polygon fill="#63b8ff" stroke="#63b8ff" points="177.03,-193.29 187.09,-196.62 181.3,-187.75 177.03,-193.29"/>
</g>
<!-- Node8 -->
<g id="node8" class="node">
<title>Node8</title>
<g id="a_node8"><a xlink:href="_idle__state_8cpp.html" target="_top" xlink:title="Implementación de Idle_state.h.">
<polygon fill="white" stroke="#666666" points="385.5,-162 223.5,-162 223.5,-99 385.5,-99 385.5,-162"/>
<text text-anchor="start" x="231.5" y="-150" font-family="Helvetica,sans-Serif" font-size="10.00">C:/Users/juanh/OneDrive</text>
<text text-anchor="start" x="231.5" y="-139" font-family="Helvetica,sans-Serif" font-size="10.00">/Escritorio/Sistemas Embebidos</text>
<text text-anchor="start" x="231.5" y="-128" font-family="Helvetica,sans-Serif" font-size="10.00">/Proyecto final/LAL Control</text>
<text text-anchor="start" x="231.5" y="-117" font-family="Helvetica,sans-Serif" font-size="10.00"> MbedOS/src/Port/machine_state</text>
<text text-anchor="middle" x="304.5" y="-106" font-family="Helvetica,sans-Serif" font-size="10.00">_pattern/Idle_state.cpp</text>
</a>
</g>
</g>
<!-- Node5&#45;&gt;Node8 -->
<g id="edge10" class="edge">
<title>Node5&#45;&gt;Node8</title>
<path fill="none" stroke="#63b8ff" d="M259.73,-188.64C266.56,-179.92 273.7,-170.81 280.21,-162.5"/>
<polygon fill="#63b8ff" stroke="#63b8ff" points="257.1,-186.32 253.69,-196.35 262.61,-190.64 257.1,-186.32"/>
</g>
<!-- Node6&#45;&gt;Node2 -->
<g id="edge8" class="edge">
<title>Node6&#45;&gt;Node2</title>
<path fill="none" stroke="#63b8ff" d="M108.11,-173.42C114.67,-246.53 132.17,-396.52 223.5,-470 269.13,-506.71 425.41,-523.88 524.92,-531.34"/>
<polygon fill="#63b8ff" stroke="#63b8ff" points="111.63,-173.54 107.27,-163.88 104.66,-174.15 111.63,-173.54"/>
</g>
<!-- Node7 -->
<g id="node7" class="node">
<title>Node7</title>
<g id="a_node7"><a xlink:href="_shutdown__state_8cpp.html" target="_top" xlink:title="Implementación de Shutdown_state.h.">
<polygon fill="white" stroke="#666666" points="183.5,-63 21.5,-63 21.5,0 183.5,0 183.5,-63"/>
<text text-anchor="start" x="29.5" y="-51" font-family="Helvetica,sans-Serif" font-size="10.00">C:/Users/juanh/OneDrive</text>
<text text-anchor="start" x="29.5" y="-40" font-family="Helvetica,sans-Serif" font-size="10.00">/Escritorio/Sistemas Embebidos</text>
<text text-anchor="start" x="29.5" y="-29" font-family="Helvetica,sans-Serif" font-size="10.00">/Proyecto final/LAL Control</text>
<text text-anchor="start" x="29.5" y="-18" font-family="Helvetica,sans-Serif" font-size="10.00"> MbedOS/src/Port/machine_state</text>
<text text-anchor="middle" x="102.5" y="-7" font-family="Helvetica,sans-Serif" font-size="10.00">_pattern/Shutdown_state.cpp</text>
</a>
</g>
</g>
<!-- Node6&#45;&gt;Node7 -->
<g id="edge9" class="edge">
<title>Node6&#45;&gt;Node7</title>
<path fill="none" stroke="#63b8ff" d="M102.5,-87.15C102.5,-79.2 102.5,-71.02 102.5,-63.5"/>
<polygon fill="#63b8ff" stroke="#63b8ff" points="99,-87.03 102.5,-97.03 106,-87.03 99,-87.03"/>
</g>
<!-- Node12&#45;&gt;Node11 -->
<g id="edge19" class="edge">
<title>Node12&#45;&gt;Node11</title>
<path fill="none" stroke="#63b8ff" d="M766.82,-294.37C780.33,-281.44 795.02,-267.36 807.17,-255.72"/>
<polygon fill="#63b8ff" stroke="#63b8ff" points="764.5,-291.75 759.7,-301.2 769.34,-296.81 764.5,-291.75"/>
</g>
<!-- Node13 -->
<g id="node13" class="node">
<title>Node13</title>
<g id="a_node13"><a xlink:href="_cooler__observer_8cpp.html" target="_top" xlink:title="Implementación de Cooler_observer.h.">
<polygon fill="white" stroke="#666666" points="736.5,-261 566.5,-261 566.5,-198 736.5,-198 736.5,-261"/>
<text text-anchor="start" x="574.5" y="-249" font-family="Helvetica,sans-Serif" font-size="10.00">C:/Users/juanh/OneDrive</text>
<text text-anchor="start" x="574.5" y="-238" font-family="Helvetica,sans-Serif" font-size="10.00">/Escritorio/Sistemas Embebidos</text>
<text text-anchor="start" x="574.5" y="-227" font-family="Helvetica,sans-Serif" font-size="10.00">/Proyecto final/LAL Control</text>
<text text-anchor="start" x="574.5" y="-216" font-family="Helvetica,sans-Serif" font-size="10.00"> MbedOS/src/Port/observer_pattern</text>
<text text-anchor="middle" x="651.5" y="-205" font-family="Helvetica,sans-Serif" font-size="10.00">/Cooler_observer.cpp</text>
</a>
</g>
</g>
<!-- Node12&#45;&gt;Node13 -->
<g id="edge20" class="edge">
<title>Node12&#45;&gt;Node13</title>
<path fill="none" stroke="#63b8ff" d="M697.34,-293.15C689.59,-282.55 681.33,-271.26 673.99,-261.23"/>
<polygon fill="#63b8ff" stroke="#63b8ff" points="694.37,-295.02 703.1,-301.03 700.02,-290.89 694.37,-295.02"/>
</g>
<!-- Node14&#45;&gt;Node11 -->
<g id="edge22" class="edge">
<title>Node14&#45;&gt;Node11</title>
<path fill="none" stroke="#63b8ff" d="M880.66,-293.27C871.17,-280.64 860.94,-267.03 852.44,-255.72"/>
<polygon fill="#63b8ff" stroke="#63b8ff" points="877.68,-295.14 886.49,-301.04 883.28,-290.94 877.68,-295.14"/>
</g>
<!-- Node15 -->
<g id="node15" class="node">
<title>Node15</title>
<g id="a_node15"><a xlink:href="_instruction__observer_8cpp.html" target="_top" xlink:title="Implementación de Instruction_observer.h.">
<polygon fill="white" stroke="#666666" points="1100.5,-261 930.5,-261 930.5,-198 1100.5,-198 1100.5,-261"/>
<text text-anchor="start" x="938.5" y="-249" font-family="Helvetica,sans-Serif" font-size="10.00">C:/Users/juanh/OneDrive</text>
<text text-anchor="start" x="938.5" y="-238" font-family="Helvetica,sans-Serif" font-size="10.00">/Escritorio/Sistemas Embebidos</text>
<text text-anchor="start" x="938.5" y="-227" font-family="Helvetica,sans-Serif" font-size="10.00">/Proyecto final/LAL Control</text>
<text text-anchor="start" x="938.5" y="-216" font-family="Helvetica,sans-Serif" font-size="10.00"> MbedOS/src/Port/observer_pattern</text>
<text text-anchor="middle" x="1015.5" y="-205" font-family="Helvetica,sans-Serif" font-size="10.00">/Instruction_observer.cpp</text>
</a>
</g>
</g>
<!-- Node14&#45;&gt;Node15 -->
<g id="edge23" class="edge">
<title>Node14&#45;&gt;Node15</title>
<path fill="none" stroke="#63b8ff" d="M950,-294.44C961.24,-283.47 973.33,-271.67 984.02,-261.23"/>
<polygon fill="#63b8ff" stroke="#63b8ff" points="947.8,-291.7 943.09,-301.19 952.69,-296.71 947.8,-291.7"/>
</g>
<!-- Node16&#45;&gt;Node11 -->
<g id="edge25" class="edge">
<title>Node16&#45;&gt;Node11</title>
<path fill="none" stroke="#63b8ff" d="M1005.57,-298.08C970.41,-284.27 930.77,-268.7 898.4,-255.99"/>
<polygon fill="#63b8ff" stroke="#63b8ff" points="1003.84,-301.16 1014.43,-301.55 1006.4,-294.64 1003.84,-301.16"/>
</g>
<!-- Node17 -->
<g id="node17" class="node">
<title>Node17</title>
<g id="a_node17"><a xlink:href="_moisture__observer_8cpp.html" target="_top" xlink:title="Implementación de Moisture_observer.h.">
<polygon fill="white" stroke="#666666" points="1288.5,-261 1118.5,-261 1118.5,-198 1288.5,-198 1288.5,-261"/>
<text text-anchor="start" x="1126.5" y="-249" font-family="Helvetica,sans-Serif" font-size="10.00">C:/Users/juanh/OneDrive</text>
<text text-anchor="start" x="1126.5" y="-238" font-family="Helvetica,sans-Serif" font-size="10.00">/Escritorio/Sistemas Embebidos</text>
<text text-anchor="start" x="1126.5" y="-227" font-family="Helvetica,sans-Serif" font-size="10.00">/Proyecto final/LAL Control</text>
<text text-anchor="start" x="1126.5" y="-216" font-family="Helvetica,sans-Serif" font-size="10.00"> MbedOS/src/Port/observer_pattern</text>
<text text-anchor="middle" x="1203.5" y="-205" font-family="Helvetica,sans-Serif" font-size="10.00">/Moisture_observer.cpp</text>
</a>
</g>
</g>
<!-- Node16&#45;&gt;Node17 -->
<g id="edge26" class="edge">
<title>Node16&#45;&gt;Node17</title>
<path fill="none" stroke="#63b8ff" d="M1135.51,-294.44C1147.17,-283.47 1159.72,-271.67 1170.82,-261.23"/>
<polygon fill="#63b8ff" stroke="#63b8ff" points="1133.19,-291.81 1128.31,-301.21 1137.99,-296.91 1133.19,-291.81"/>
</g>
<!-- Node18&#45;&gt;Node2 -->
<g id="edge28" class="edge">
<title>Node18&#45;&gt;Node2</title>
<path fill="none" stroke="#63b8ff" d="M787.1,-474.24C754.38,-486.38 717.64,-499.77 686.15,-511.01"/>
<polygon fill="#63b8ff" stroke="#63b8ff" points="788,-477.64 796.15,-470.87 785.56,-471.08 788,-477.64"/>
</g>
<!-- Node18&#45;&gt;Node12 -->
<g id="edge29" class="edge">
<title>Node18&#45;&gt;Node12</title>
<path fill="none" stroke="#63b8ff" d="M821.34,-400.24C804.95,-388.97 787.14,-376.72 771.43,-365.91"/>
<polygon fill="#63b8ff" stroke="#63b8ff" points="819.33,-403.1 829.55,-405.89 823.29,-397.34 819.33,-403.1"/>
</g>
<!-- Node18&#45;&gt;Node14 -->
<g id="edge30" class="edge">
<title>Node18&#45;&gt;Node14</title>
<path fill="none" stroke="#63b8ff" d="M889.66,-396.04C893.11,-385.92 896.75,-375.26 900.01,-365.73"/>
<polygon fill="#63b8ff" stroke="#63b8ff" points="886.41,-394.72 886.49,-405.31 893.03,-396.98 886.41,-394.72"/>
</g>
<!-- Node18&#45;&gt;Node16 -->
<g id="edge31" class="edge">
<title>Node18&#45;&gt;Node16</title>
<path fill="none" stroke="#63b8ff" d="M951.7,-401.83C976.77,-390.1 1004.4,-377.17 1028.63,-365.83"/>
<polygon fill="#63b8ff" stroke="#63b8ff" points="950.45,-398.56 942.88,-405.97 953.42,-404.9 950.45,-398.56"/>
</g>
<!-- Node18&#45;&gt;Node19 -->
<g id="edge32" class="edge">
<title>Node18&#45;&gt;Node19</title>
<path fill="none" stroke="#63b8ff" d="M969.87,-421.36C1032.04,-409.74 1114.88,-392.37 1186.5,-371 1191.64,-369.47 1196.9,-367.77 1202.18,-365.99"/>
<polygon fill="#63b8ff" stroke="#63b8ff" points="969.59,-417.85 960.39,-423.11 970.86,-424.73 969.59,-417.85"/>
</g>
<!-- Node19&#45;&gt;Node11 -->
<g id="edge33" class="edge">
<title>Node19&#45;&gt;Node11</title>
<path fill="none" stroke="#63b8ff" d="M1192.96,-298.75C1190.79,-298.14 1188.64,-297.55 1186.5,-297 1071.4,-267.34 1037.11,-288.6 921.5,-261 915.37,-259.54 909.06,-257.81 902.77,-255.94"/>
<polygon fill="#63b8ff" stroke="#63b8ff" points="1191.81,-302.06 1202.4,-301.61 1193.84,-295.36 1191.81,-302.06"/>
</g>
<!-- Node20 -->
<g id="node20" class="node">
<title>Node20</title>
<g id="a_node20"><a xlink:href="_temperature__observer_8cpp.html" target="_top" xlink:title="Implementación de Temperature_observer.h.">
<polygon fill="white" stroke="#666666" points="1476.5,-261 1306.5,-261 1306.5,-198 1476.5,-198 1476.5,-261"/>
<text text-anchor="start" x="1314.5" y="-249" font-family="Helvetica,sans-Serif" font-size="10.00">C:/Users/juanh/OneDrive</text>
<text text-anchor="start" x="1314.5" y="-238" font-family="Helvetica,sans-Serif" font-size="10.00">/Escritorio/Sistemas Embebidos</text>
<text text-anchor="start" x="1314.5" y="-227" font-family="Helvetica,sans-Serif" font-size="10.00">/Proyecto final/LAL Control</text>
<text text-anchor="start" x="1314.5" y="-216" font-family="Helvetica,sans-Serif" font-size="10.00"> MbedOS/src/Port/observer_pattern</text>
<text text-anchor="middle" x="1391.5" y="-205" font-family="Helvetica,sans-Serif" font-size="10.00">/Temperature_observer.cpp</text>
</a>
</g>
</g>
<!-- Node19&#45;&gt;Node20 -->
<g id="edge34" class="edge">
<title>Node19&#45;&gt;Node20</title>
<path fill="none" stroke="#63b8ff" d="M1321.29,-294.76C1333.37,-283.7 1346.4,-271.77 1357.92,-261.23"/>
<polygon fill="#63b8ff" stroke="#63b8ff" points="1319.23,-291.89 1314.22,-301.22 1323.96,-297.06 1319.23,-291.89"/>
</g>
<!-- Node22&#45;&gt;Node2 -->
<g id="edge38" class="edge">
<title>Node22&#45;&gt;Node2</title>
<path fill="none" stroke="#63b8ff" d="M724.46,-599.23C702.45,-587.5 678.52,-574.75 658.3,-563.98"/>
<polygon fill="#63b8ff" stroke="#63b8ff" points="722.61,-602.22 733.08,-603.83 725.9,-596.04 722.61,-602.22"/>
</g>
<!-- Node23 -->
<g id="node23" class="node">
<title>Node23</title>
<g id="a_node23"><a xlink:href="_digital__dual___l_e_d_8cpp.html" target="_top" xlink:title="Implementación de Digital_dual_LED.h.">
<polygon fill="white" stroke="#666666" points="871,-569 714,-569 714,-506 871,-506 871,-569"/>
<text text-anchor="start" x="722" y="-557" font-family="Helvetica,sans-Serif" font-size="10.00">C:/Users/juanh/OneDrive</text>
<text text-anchor="start" x="722" y="-546" font-family="Helvetica,sans-Serif" font-size="10.00">/Escritorio/Sistemas Embebidos</text>
<text text-anchor="start" x="722" y="-535" font-family="Helvetica,sans-Serif" font-size="10.00">/Proyecto final/LAL Control</text>
<text text-anchor="start" x="722" y="-524" font-family="Helvetica,sans-Serif" font-size="10.00"> MbedOS/src/Port/drivers/Digital</text>
<text text-anchor="middle" x="792.5" y="-513" font-family="Helvetica,sans-Serif" font-size="10.00">_dual_LED.cpp</text>
</a>
</g>
</g>
<!-- Node22&#45;&gt;Node23 -->
<g id="edge39" class="edge">
<title>Node22&#45;&gt;Node23</title>
<path fill="none" stroke="#63b8ff" d="M792.5,-593.15C792.5,-585.2 792.5,-577.02 792.5,-569.5"/>
<polygon fill="#63b8ff" stroke="#63b8ff" points="789,-593.03 792.5,-603.03 796,-593.03 789,-593.03"/>
</g>
<!-- Node24&#45;&gt;Node2 -->
<g id="edge41" class="edge">
<title>Node24&#45;&gt;Node2</title>
<path fill="none" stroke="#63b8ff" d="M888.38,-607.06C885.73,-606.35 883.1,-605.66 880.5,-605 803.55,-585.4 782.3,-589.17 705.5,-569 699.55,-567.44 693.43,-565.72 687.29,-563.93"/>
<polygon fill="#63b8ff" stroke="#63b8ff" points="887.33,-610.4 897.9,-609.66 889.18,-603.65 887.33,-610.4"/>
</g>
<!-- Node25 -->
<g id="node25" class="node">
<title>Node25</title>
<g id="a_node25"><a xlink:href="_dual___l_e_d_8cpp.html" target="_top" xlink:title="Implementación de Dual_LED.h.">
<polygon fill="white" stroke="#666666" points="1080,-563.5 889,-563.5 889,-511.5 1080,-511.5 1080,-563.5"/>
<text text-anchor="start" x="897" y="-551.5" font-family="Helvetica,sans-Serif" font-size="10.00">C:/Users/juanh/OneDrive</text>
<text text-anchor="start" x="897" y="-540.5" font-family="Helvetica,sans-Serif" font-size="10.00">/Escritorio/Sistemas Embebidos</text>
<text text-anchor="start" x="897" y="-529.5" font-family="Helvetica,sans-Serif" font-size="10.00">/Proyecto final/LAL Control</text>
<text text-anchor="middle" x="984.5" y="-518.5" font-family="Helvetica,sans-Serif" font-size="10.00"> MbedOS/src/Port/drivers/Dual_LED.cpp</text>
</a>
</g>
</g>
<!-- Node24&#45;&gt;Node25 -->
<g id="edge42" class="edge">
<title>Node24&#45;&gt;Node25</title>
<path fill="none" stroke="#63b8ff" d="M982.01,-598.78C982.5,-587.12 983.02,-574.49 983.46,-563.82"/>
<polygon fill="#63b8ff" stroke="#63b8ff" points="978.53,-598.37 981.61,-608.5 985.52,-598.65 978.53,-598.37"/>
</g>
</g>
</svg>
        <g id="navigator" transform="translate(0 0)" fill="#404254">
                <rect fill="#f2f5e9" fill-opacity="0.5" stroke="#606060" stroke-width=".5" x="0" y="0" width="60" height="60"/>
                <use id="zoomplus" xlink:href="#zoomPlus" x="17" y="9" onmousedown="handleZoom(evt,'in')"/>
                <use id="zoomminus" xlink:href="#zoomMin" x="42" y="9" onmousedown="handleZoom(evt,'out')"/>
                <use id="reset" xlink:href="#resetDef" x="30" y="36" onmousedown="handleReset()"/>
                <g id="arrowUp" xlink:href="#dirArrow" transform="translate(30 24)" onmousedown="handlePan(0,-1)">
                  <use xlink:href="#rim" fill="#404040">
                        <set attributeName="fill" to="#808080" begin="arrowUp.mouseover" end="arrowUp.mouseout"/>
                  </use>
                  <path fill="none" stroke="white" stroke-width="1.5" d="M0,-3.0v7 M-2.5,-0.5L0,-3.0L2.5,-0.5"/>
                </g>
                <g id="arrowRight" xlink:href="#dirArrow" transform="rotate(90) translate(36 -43)" onmousedown="handlePan(1,0)">
                  <use xlink:href="#rim" fill="#404040">
                        <set attributeName="fill" to="#808080" begin="arrowRight.mouseover" end="arrowRight.mouseout"/>
                  </use>
                  <path fill="none" stroke="white" stroke-width="1.5" d="M0,-3.0v7 M-2.5,-0.5L0,-3.0L2.5,-0.5"/>
                </g>
                <g id="arrowDown" xlink:href="#dirArrow" transform="rotate(180) translate(-30 -48)" onmousedown="handlePan(0,1)">
                  <use xlink:href="#rim" fill="#404040">
                        <set attributeName="fill" to="#808080" begin="arrowDown.mouseover" end="arrowDown.mouseout"/>
                  </use>
                  <path fill="none" stroke="white" stroke-width="1.5" d="M0,-3.0v7 M-2.5,-0.5L0,-3.0L2.5,-0.5"/>
                </g>
                <g id="arrowLeft" xlink:href="#dirArrow" transform="rotate(270) translate(-36 17)" onmousedown="handlePan(-1,0)">
                  <use xlink:href="#rim" fill="#404040">
                        <set attributeName="fill" to="#808080" begin="arrowLeft.mouseover" end="arrowLeft.mouseout"/>
                  </use>
                  <path fill="none" stroke="white" stroke-width="1.5" d="M0,-3.0v7 M-2.5,-0.5L0,-3.0L2.5,-0.5"/>
                </g>
        </g>
        <svg viewBox="0 0 15 15" width="100%" height="30px" preserveAspectRatio="xMaxYMin meet">
         <g id="arrow_out" transform="scale(0.3 0.3)">
          <a xlink:href="types_8h__dep__incl_org.svg" target="_base">
           <rect id="button" ry="5" rx="5" y="6" x="6" height="38" width="38"
                fill="#f2f5e9" fill-opacity="0.5" stroke="#606060" stroke-width="1.0"/>
           <path id="arrow"
             d="M 11.500037,31.436501 C 11.940474,20.09759 22.043105,11.32322 32.158766,21.979434 L 37.068811,17.246167 C 37.068811,17.246167 37.088388,32 37.088388,32 L 22.160133,31.978069 C 22.160133,31.978069 26.997745,27.140456 26.997745,27.140456 C 18.528582,18.264221 13.291696,25.230495 11.500037,31.436501 z"
             style="fill:#404040;"/>
          </a>
         </g>
        </svg>
</svg>
