<?xml version="1.0" encoding="UTF-8" standalone="no"?>
<!DOCTYPE svg PUBLIC "-//W3C//DTD SVG 1.1//EN"
 "http://www.w3.org/Graphics/SVG/1.1/DTD/svg11.dtd">
<!-- Generated by graphviz version 7.0.2 (20221119.0110)
 -->
<!-- Title: C:/Users/juanh/OneDrive/Escritorio/Facultad/Beca/Proyecto/LAL Control Arduino/include/types.h Pages: 1 -->
<svg width="1039pt" height="533pt"
 viewBox="0.00 0.00 1039.00 533.00" xmlns="http://www.w3.org/2000/svg" xmlns:xlink="http://www.w3.org/1999/xlink">
<g id="graph0" class="graph" transform="scale(1 1) rotate(0) translate(4 529)">
<title>C:/Users/juanh/OneDrive/Escritorio/Facultad/Beca/Proyecto/LAL Control Arduino/include/types.h</title>
<!-- Node1 -->
<g id="node1" class="node">
<title>Node1</title>
<g id="a_node1"><a xlink:title="Archivo de definición de tipos de dato.">
<polygon fill="#999999" stroke="#666666" points="789,-525 640,-525 640,-473 789,-473 789,-525"/>
<text text-anchor="start" x="648" y="-513" font-family="Helvetica,sans-Serif" font-size="10.00">C:/Users/juanh/OneDrive</text>
<text text-anchor="start" x="648" y="-502" font-family="Helvetica,sans-Serif" font-size="10.00">/Escritorio/Facultad/Beca</text>
<text text-anchor="start" x="648" y="-491" font-family="Helvetica,sans-Serif" font-size="10.00">/Proyecto/LAL Control Arduino</text>
<text text-anchor="middle" x="714.5" y="-480" font-family="Helvetica,sans-Serif" font-size="10.00">/include/types.h</text>
</a>
</g>
</g>
<!-- Node2 -->
<g id="node2" class="node">
<title>Node2</title>
<g id="a_node2"><a xlink:href="_control__system_8h.html" target="_top" xlink:title="Clase para el sistema de control.">
<polygon fill="white" stroke="#666666" points="551,-349 402,-349 402,-297 551,-297 551,-349"/>
<text text-anchor="start" x="410" y="-337" font-family="Helvetica,sans-Serif" font-size="10.00">C:/Users/juanh/OneDrive</text>
<text text-anchor="start" x="410" y="-326" font-family="Helvetica,sans-Serif" font-size="10.00">/Escritorio/Facultad/Beca</text>
<text text-anchor="start" x="410" y="-315" font-family="Helvetica,sans-Serif" font-size="10.00">/Proyecto/LAL Control Arduino</text>
<text text-anchor="middle" x="476.5" y="-304" font-family="Helvetica,sans-Serif" font-size="10.00">/include/Control_system.h</text>
</a>
</g>
</g>
<!-- Node1&#45;&gt;Node2 -->
<g id="edge1" class="edge">
<title>Node1&#45;&gt;Node2</title>
<path fill="none" stroke="#63b8ff" d="M633.63,-467.93C615.04,-459.29 595.92,-448.92 579.5,-437 545.13,-412.05 513.49,-374.14 494.59,-349.23"/>
<polygon fill="#63b8ff" stroke="#63b8ff" points="631.96,-471.01 642.51,-471.92 634.83,-464.63 631.96,-471.01"/>
</g>
<!-- Node9 -->
<g id="node9" class="node">
<title>Node9</title>
<g id="a_node9"><a xlink:href="_moisture__observer_8h.html" target="_top" xlink:title="Observador del sensor de temperatura.">
<polygon fill="white" stroke="#666666" points="844,-162 675,-162 675,-99 844,-99 844,-162"/>
<text text-anchor="start" x="683" y="-150" font-family="Helvetica,sans-Serif" font-size="10.00">C:/Users/juanh/OneDrive</text>
<text text-anchor="start" x="683" y="-139" font-family="Helvetica,sans-Serif" font-size="10.00">/Escritorio/Facultad/Beca</text>
<text text-anchor="start" x="683" y="-128" font-family="Helvetica,sans-Serif" font-size="10.00">/Proyecto/LAL Control Arduino</text>
<text text-anchor="start" x="683" y="-117" font-family="Helvetica,sans-Serif" font-size="10.00">/include/observer_pattern/observers</text>
<text text-anchor="middle" x="759.5" y="-106" font-family="Helvetica,sans-Serif" font-size="10.00">/Moisture_observer.h</text>
</a>
</g>
</g>
<!-- Node1&#45;&gt;Node9 -->
<g id="edge26" class="edge">
<title>Node1&#45;&gt;Node9</title>
<path fill="none" stroke="#63b8ff" d="M736.34,-462.7C740.43,-454.54 744.16,-445.69 746.5,-437 772.77,-339.34 767.14,-217.86 762.54,-162.08"/>
<polygon fill="#63b8ff" stroke="#63b8ff" points="733.38,-460.82 731.74,-471.29 739.55,-464.12 733.38,-460.82"/>
</g>
<!-- Node11 -->
<g id="node11" class="node">
<title>Node11</title>
<g id="a_node11"><a xlink:href="_temperature__observer_8h.html" target="_top" xlink:title="Observador del sensor de temperatura.">
<polygon fill="white" stroke="#666666" points="1031,-162 862,-162 862,-99 1031,-99 1031,-162"/>
<text text-anchor="start" x="870" y="-150" font-family="Helvetica,sans-Serif" font-size="10.00">C:/Users/juanh/OneDrive</text>
<text text-anchor="start" x="870" y="-139" font-family="Helvetica,sans-Serif" font-size="10.00">/Escritorio/Facultad/Beca</text>
<text text-anchor="start" x="870" y="-128" font-family="Helvetica,sans-Serif" font-size="10.00">/Proyecto/LAL Control Arduino</text>
<text text-anchor="start" x="870" y="-117" font-family="Helvetica,sans-Serif" font-size="10.00">/include/observer_pattern/observers</text>
<text text-anchor="middle" x="946.5" y="-106" font-family="Helvetica,sans-Serif" font-size="10.00">/Temperature_observer.h</text>
</a>
</g>
</g>
<!-- Node1&#45;&gt;Node11 -->
<g id="edge27" class="edge">
<title>Node1&#45;&gt;Node11</title>
<path fill="none" stroke="#63b8ff" d="M745.24,-464.05C752.51,-455.46 760.03,-446.08 766.5,-437 834.74,-341.25 901.35,-218.32 930.78,-162.07"/>
<polygon fill="#63b8ff" stroke="#63b8ff" points="742.66,-461.68 738.79,-471.54 747.97,-466.25 742.66,-461.68"/>
</g>
<!-- Node12 -->
<g id="node12" class="node">
<title>Node12</title>
<g id="a_node12"><a xlink:href="_dual___l_e_d_8h.html" target="_top" xlink:title="Controlador de LED RG.">
<polygon fill="white" stroke="#666666" points="738,-437 589,-437 589,-385 738,-385 738,-437"/>
<text text-anchor="start" x="597" y="-425" font-family="Helvetica,sans-Serif" font-size="10.00">C:/Users/juanh/OneDrive</text>
<text text-anchor="start" x="597" y="-414" font-family="Helvetica,sans-Serif" font-size="10.00">/Escritorio/Facultad/Beca</text>
<text text-anchor="start" x="597" y="-403" font-family="Helvetica,sans-Serif" font-size="10.00">/Proyecto/LAL Control Arduino</text>
<text text-anchor="middle" x="663.5" y="-392" font-family="Helvetica,sans-Serif" font-size="10.00">/include/drivers/Dual_LED.h</text>
</a>
</g>
</g>
<!-- Node1&#45;&gt;Node12 -->
<g id="edge24" class="edge">
<title>Node1&#45;&gt;Node12</title>
<path fill="none" stroke="#63b8ff" d="M693.7,-462.93C688.65,-454.4 683.33,-445.44 678.59,-437.45"/>
<polygon fill="#63b8ff" stroke="#63b8ff" points="690.59,-464.54 698.7,-471.36 696.61,-460.97 690.59,-464.54"/>
</g>
<!-- Node3 -->
<g id="node3" class="node">
<title>Node3</title>
<g id="a_node3"><a xlink:href="_alarm__state_8h.html" target="_top" xlink:title="Clase de estado de control del motor.">
<polygon fill="white" stroke="#666666" points="337.5,-261 185.5,-261 185.5,-198 337.5,-198 337.5,-261"/>
<text text-anchor="start" x="193.5" y="-249" font-family="Helvetica,sans-Serif" font-size="10.00">C:/Users/juanh/OneDrive</text>
<text text-anchor="start" x="193.5" y="-238" font-family="Helvetica,sans-Serif" font-size="10.00">/Escritorio/Facultad/Beca</text>
<text text-anchor="start" x="193.5" y="-227" font-family="Helvetica,sans-Serif" font-size="10.00">/Proyecto/LAL Control Arduino</text>
<text text-anchor="start" x="193.5" y="-216" font-family="Helvetica,sans-Serif" font-size="10.00">/include/machine_state_pattern</text>
<text text-anchor="middle" x="261.5" y="-205" font-family="Helvetica,sans-Serif" font-size="10.00">/machine_states/Alarm_state.h</text>
</a>
</g>
</g>
<!-- Node2&#45;&gt;Node3 -->
<g id="edge2" class="edge">
<title>Node2&#45;&gt;Node3</title>
<path fill="none" stroke="#63b8ff" d="M406.19,-292.08C383.07,-282.24 357.34,-271.29 334.06,-261.38"/>
<polygon fill="#63b8ff" stroke="#63b8ff" points="404.65,-295.22 415.22,-295.92 407.39,-288.78 404.65,-295.22"/>
</g>
<!-- Node4 -->
<g id="node4" class="node">
<title>Node4</title>
<g id="a_node4"><a xlink:href="_check__instruction__state_8h_source.html" target="_top" xlink:title=" ">
<polygon fill="white" stroke="#666666" points="205,-162 0,-162 0,-99 205,-99 205,-162"/>
<text text-anchor="start" x="8" y="-150" font-family="Helvetica,sans-Serif" font-size="10.00">C:/Users/juanh/OneDrive</text>
<text text-anchor="start" x="8" y="-139" font-family="Helvetica,sans-Serif" font-size="10.00">/Escritorio/Facultad/Beca</text>
<text text-anchor="start" x="8" y="-128" font-family="Helvetica,sans-Serif" font-size="10.00">/Proyecto/LAL Control Arduino</text>
<text text-anchor="start" x="8" y="-117" font-family="Helvetica,sans-Serif" font-size="10.00">/include/machine_state_pattern</text>
<text text-anchor="middle" x="102.5" y="-106" font-family="Helvetica,sans-Serif" font-size="10.00">/machine_states/Check_instruction_state.h</text>
</a>
</g>
</g>
<!-- Node2&#45;&gt;Node4 -->
<g id="edge9" class="edge">
<title>Node2&#45;&gt;Node4</title>
<path fill="none" stroke="#63b8ff" d="M390.2,-313.32C311.35,-303.65 202.08,-286.01 167.5,-261 133.93,-236.72 113.41,-192.2 104.95,-162.23"/>
<polygon fill="#63b8ff" stroke="#63b8ff" points="389.75,-316.79 400.1,-314.51 390.58,-309.84 389.75,-316.79"/>
</g>
<!-- Node5 -->
<g id="node5" class="node">
<title>Node5</title>
<g id="a_node5"><a xlink:href="_idle__state_8h.html" target="_top" xlink:title="Clase de estado de reposo.">
<polygon fill="white" stroke="#666666" points="375.5,-162 223.5,-162 223.5,-99 375.5,-99 375.5,-162"/>
<text text-anchor="start" x="231.5" y="-150" font-family="Helvetica,sans-Serif" font-size="10.00">C:/Users/juanh/OneDrive</text>
<text text-anchor="start" x="231.5" y="-139" font-family="Helvetica,sans-Serif" font-size="10.00">/Escritorio/Facultad/Beca</text>
<text text-anchor="start" x="231.5" y="-128" font-family="Helvetica,sans-Serif" font-size="10.00">/Proyecto/LAL Control Arduino</text>
<text text-anchor="start" x="231.5" y="-117" font-family="Helvetica,sans-Serif" font-size="10.00">/include/machine_state_pattern</text>
<text text-anchor="middle" x="299.5" y="-106" font-family="Helvetica,sans-Serif" font-size="10.00">/machine_states/Idle_state.h</text>
</a>
</g>
</g>
<!-- Node2&#45;&gt;Node5 -->
<g id="edge10" class="edge">
<title>Node2&#45;&gt;Node5</title>
<path fill="none" stroke="#63b8ff" d="M424.6,-290.19C412.4,-281.52 399.93,-271.56 389.5,-261 365.68,-236.88 365.84,-225.84 346.5,-198 338.35,-186.27 329.32,-173.45 321.37,-162.22"/>
<polygon fill="#63b8ff" stroke="#63b8ff" points="422.37,-292.91 432.59,-295.71 426.35,-287.15 422.37,-292.91"/>
</g>
<!-- Node6 -->
<g id="node6" class="node">
<title>Node6</title>
<g id="a_node6"><a xlink:href="_shutdown__state_8h.html" target="_top" xlink:title="Clase de estado de apagado del sistema.">
<polygon fill="white" stroke="#666666" points="497.5,-63 327.5,-63 327.5,0 497.5,0 497.5,-63"/>
<text text-anchor="start" x="335.5" y="-51" font-family="Helvetica,sans-Serif" font-size="10.00">C:/Users/juanh/OneDrive</text>
<text text-anchor="start" x="335.5" y="-40" font-family="Helvetica,sans-Serif" font-size="10.00">/Escritorio/Facultad/Beca</text>
<text text-anchor="start" x="335.5" y="-29" font-family="Helvetica,sans-Serif" font-size="10.00">/Proyecto/LAL Control Arduino</text>
<text text-anchor="start" x="335.5" y="-18" font-family="Helvetica,sans-Serif" font-size="10.00">/include/machine_state_pattern</text>
<text text-anchor="middle" x="412.5" y="-7" font-family="Helvetica,sans-Serif" font-size="10.00">/machine_states/Shutdown_state.h</text>
</a>
</g>
</g>
<!-- Node2&#45;&gt;Node6 -->
<g id="edge11" class="edge">
<title>Node2&#45;&gt;Node6</title>
<path fill="none" stroke="#63b8ff" d="M447.34,-286.68C443.06,-278.46 439.22,-269.6 436.5,-261 414.77,-192.41 407.29,-107.67 407.86,-63.14"/>
<polygon fill="#63b8ff" stroke="#63b8ff" points="444.27,-288.35 452.22,-295.35 450.37,-284.92 444.27,-288.35"/>
</g>
<!-- Node7 -->
<g id="node7" class="node">
<title>Node7</title>
<g id="a_node7"><a xlink:href="main_8h.html" target="_top" xlink:title="Archivo principal del programa.">
<polygon fill="white" stroke="#666666" points="749,-57.5 600,-57.5 600,-5.5 749,-5.5 749,-57.5"/>
<text text-anchor="start" x="608" y="-45.5" font-family="Helvetica,sans-Serif" font-size="10.00">C:/Users/juanh/OneDrive</text>
<text text-anchor="start" x="608" y="-34.5" font-family="Helvetica,sans-Serif" font-size="10.00">/Escritorio/Facultad/Beca</text>
<text text-anchor="start" x="608" y="-23.5" font-family="Helvetica,sans-Serif" font-size="10.00">/Proyecto/LAL Control Arduino</text>
<text text-anchor="middle" x="674.5" y="-12.5" font-family="Helvetica,sans-Serif" font-size="10.00">/include/main.h</text>
</a>
</g>
</g>
<!-- Node2&#45;&gt;Node7 -->
<g id="edge12" class="edge">
<title>Node2&#45;&gt;Node7</title>
<path fill="none" stroke="#63b8ff" d="M465.06,-285.69C452.44,-238.01 438.77,-153.91 478.5,-99 506.09,-60.86 556.77,-44.34 599.68,-37.3"/>
<polygon fill="#63b8ff" stroke="#63b8ff" points="461.67,-286.56 467.72,-295.25 468.41,-284.68 461.67,-286.56"/>
</g>
<!-- Node8 -->
<g id="node8" class="node">
<title>Node8</title>
<g id="a_node8"><a xlink:href="_cooler__observer_8h_source.html" target="_top" xlink:title=" ">
<polygon fill="white" stroke="#666666" points="657,-162 488,-162 488,-99 657,-99 657,-162"/>
<text text-anchor="start" x="496" y="-150" font-family="Helvetica,sans-Serif" font-size="10.00">C:/Users/juanh/OneDrive</text>
<text text-anchor="start" x="496" y="-139" font-family="Helvetica,sans-Serif" font-size="10.00">/Escritorio/Facultad/Beca</text>
<text text-anchor="start" x="496" y="-128" font-family="Helvetica,sans-Serif" font-size="10.00">/Proyecto/LAL Control Arduino</text>
<text text-anchor="start" x="496" y="-117" font-family="Helvetica,sans-Serif" font-size="10.00">/include/observer_pattern/observers</text>
<text text-anchor="middle" x="572.5" y="-106" font-family="Helvetica,sans-Serif" font-size="10.00">/Cooler_observer.h</text>
</a>
</g>
</g>
<!-- Node2&#45;&gt;Node8 -->
<g id="edge13" class="edge">
<title>Node2&#45;&gt;Node8</title>
<path fill="none" stroke="#63b8ff" d="M486.42,-285.8C494.15,-260.38 506.14,-226.04 521.5,-198 528.28,-185.62 537.25,-173.08 545.76,-162.27"/>
<polygon fill="#63b8ff" stroke="#63b8ff" points="483.08,-284.77 483.6,-295.35 489.79,-286.75 483.08,-284.77"/>
</g>
<!-- Node2&#45;&gt;Node9 -->
<g id="edge15" class="edge">
<title>Node2&#45;&gt;Node9</title>
<path fill="none" stroke="#63b8ff" d="M503.13,-287.82C509.42,-279.24 515.91,-269.93 521.5,-261 538.26,-234.2 530.34,-218.39 554.5,-198 554.5,-198 618.24,-177.32 674.64,-159.03"/>
<polygon fill="#63b8ff" stroke="#63b8ff" points="500.52,-285.47 497.35,-295.57 506.14,-289.65 500.52,-285.47"/>
</g>
<!-- Node10 -->
<g id="node10" class="node">
<title>Node10</title>
<g id="a_node10"><a xlink:href="_system__observer_8h.html" target="_top" xlink:title="Clase observador del sistema de control.">
<polygon fill="white" stroke="#666666" points="733,-261 564,-261 564,-198 733,-198 733,-261"/>
<text text-anchor="start" x="572" y="-249" font-family="Helvetica,sans-Serif" font-size="10.00">C:/Users/juanh/OneDrive</text>
<text text-anchor="start" x="572" y="-238" font-family="Helvetica,sans-Serif" font-size="10.00">/Escritorio/Facultad/Beca</text>
<text text-anchor="start" x="572" y="-227" font-family="Helvetica,sans-Serif" font-size="10.00">/Proyecto/LAL Control Arduino</text>
<text text-anchor="start" x="572" y="-216" font-family="Helvetica,sans-Serif" font-size="10.00">/include/observer_pattern/observers</text>
<text text-anchor="middle" x="648.5" y="-205" font-family="Helvetica,sans-Serif" font-size="10.00">/System_observer.h</text>
</a>
</g>
</g>
<!-- Node2&#45;&gt;Node10 -->
<g id="edge17" class="edge">
<title>Node2&#45;&gt;Node10</title>
<path fill="none" stroke="#63b8ff" d="M528.33,-291.01C545.86,-281.45 565.64,-270.93 584.03,-261.38"/>
<polygon fill="#63b8ff" stroke="#63b8ff" points="526.7,-287.91 519.62,-295.78 530.07,-294.05 526.7,-287.91"/>
</g>
<!-- Node2&#45;&gt;Node11 -->
<g id="edge23" class="edge">
<title>Node2&#45;&gt;Node11</title>
<path fill="none" stroke="#63b8ff" d="M562.46,-309.77C615.45,-300.41 684.03,-284.95 741.5,-261 803.09,-235.33 867,-191.81 906.74,-162.38"/>
<polygon fill="#63b8ff" stroke="#63b8ff" points="562.15,-306.28 552.89,-311.42 563.34,-313.17 562.15,-306.28"/>
</g>
<!-- Node3&#45;&gt;Node4 -->
<g id="edge3" class="edge">
<title>Node3&#45;&gt;Node4</title>
<path fill="none" stroke="#63b8ff" d="M201.1,-191.65C185.34,-182.04 168.52,-171.77 153.31,-162.5"/>
<polygon fill="#63b8ff" stroke="#63b8ff" points="199.1,-194.53 209.46,-196.75 202.75,-188.56 199.1,-194.53"/>
</g>
<!-- Node3&#45;&gt;Node5 -->
<g id="edge5" class="edge">
<title>Node3&#45;&gt;Node5</title>
<path fill="none" stroke="#63b8ff" d="M271.18,-186.71C274.22,-178.58 277.62,-170.2 281.01,-162.5"/>
<polygon fill="#63b8ff" stroke="#63b8ff" points="267.89,-185.52 267.8,-196.12 274.47,-187.89 267.89,-185.52"/>
</g>
<!-- Node4&#45;&gt;Node2 -->
<g id="edge4" class="edge">
<title>Node4&#45;&gt;Node2</title>
<path fill="none" stroke="#63b8ff" d="M123.06,-172.54C136.06,-201.7 155.6,-239.38 185.5,-261 219.74,-285.76 327.17,-303.3 401.52,-313.03"/>
<polygon fill="#63b8ff" stroke="#63b8ff" points="126.37,-171.38 119.16,-163.62 119.95,-174.18 126.37,-171.38"/>
</g>
<!-- Node5&#45;&gt;Node3 -->
<g id="edge6" class="edge">
<title>Node5&#45;&gt;Node3</title>
<path fill="none" stroke="#63b8ff" d="M289.91,-173.06C286.84,-181.27 283.4,-189.75 279.97,-197.54"/>
<polygon fill="#63b8ff" stroke="#63b8ff" points="293.1,-174.52 293.19,-163.92 286.51,-172.15 293.1,-174.52"/>
</g>
<!-- Node5&#45;&gt;Node6 -->
<g id="edge7" class="edge">
<title>Node5&#45;&gt;Node6</title>
<path fill="none" stroke="#63b8ff" d="M344.01,-91.29C354.75,-82.07 366.09,-72.34 376.39,-63.5"/>
<polygon fill="#63b8ff" stroke="#63b8ff" points="342.02,-88.39 336.71,-97.56 346.58,-93.7 342.02,-88.39"/>
</g>
<!-- Node6&#45;&gt;Node2 -->
<g id="edge8" class="edge">
<title>Node6&#45;&gt;Node2</title>
<path fill="none" stroke="#63b8ff" d="M421.02,-74.29C426.55,-120.81 434.47,-197.77 454.5,-261 458.37,-273.23 464.5,-286 469.61,-296.67"/>
<polygon fill="#63b8ff" stroke="#63b8ff" points="424.52,-74.15 419.84,-64.65 417.58,-75 424.52,-74.15"/>
</g>
<!-- Node8&#45;&gt;Node7 -->
<g id="edge14" class="edge">
<title>Node8&#45;&gt;Node7</title>
<path fill="none" stroke="#63b8ff" d="M613.32,-90.68C624.89,-79.68 637.2,-67.98 647.71,-57.98"/>
<polygon fill="#63b8ff" stroke="#63b8ff" points="610.99,-88.07 606.15,-97.5 615.81,-93.14 610.99,-88.07"/>
</g>
<!-- Node9&#45;&gt;Node7 -->
<g id="edge16" class="edge">
<title>Node9&#45;&gt;Node7</title>
<path fill="none" stroke="#63b8ff" d="M724.92,-90.04C715.44,-79.22 705.42,-67.78 696.82,-57.98"/>
<polygon fill="#63b8ff" stroke="#63b8ff" points="722.15,-92.19 731.37,-97.4 727.42,-87.58 722.15,-92.19"/>
</g>
<!-- Node10&#45;&gt;Node2 -->
<g id="edge18" class="edge">
<title>Node10&#45;&gt;Node2</title>
<path fill="none" stroke="#63b8ff" d="M586.84,-266.82C568.43,-276.76 548.42,-287.32 530.53,-296.51"/>
<polygon fill="#63b8ff" stroke="#63b8ff" points="588.42,-269.95 595.54,-262.1 585.09,-263.79 588.42,-269.95"/>
</g>
<!-- Node10&#45;&gt;Node8 -->
<g id="edge19" class="edge">
<title>Node10&#45;&gt;Node8</title>
<path fill="none" stroke="#63b8ff" d="M617.27,-188.64C610.44,-179.92 603.3,-170.81 596.79,-162.5"/>
<polygon fill="#63b8ff" stroke="#63b8ff" points="614.39,-190.64 623.31,-196.35 619.9,-186.32 614.39,-190.64"/>
</g>
<!-- Node10&#45;&gt;Node9 -->
<g id="edge20" class="edge">
<title>Node10&#45;&gt;Node9</title>
<path fill="none" stroke="#63b8ff" d="M692.54,-190.02C702.99,-180.88 714.01,-171.25 724.03,-162.5"/>
<polygon fill="#63b8ff" stroke="#63b8ff" points="690.29,-187.33 685.07,-196.55 694.9,-192.6 690.29,-187.33"/>
</g>
<!-- Node10&#45;&gt;Node11 -->
<g id="edge21" class="edge">
<title>Node10&#45;&gt;Node11</title>
<path fill="none" stroke="#63b8ff" d="M744.01,-197.41C781.83,-185.1 824.95,-171.07 861.65,-159.12"/>
<polygon fill="#63b8ff" stroke="#63b8ff" points="743.36,-193.94 734.94,-200.37 745.53,-200.6 743.36,-193.94"/>
</g>
<!-- Node11&#45;&gt;Node7 -->
<g id="edge22" class="edge">
<title>Node11&#45;&gt;Node7</title>
<path fill="none" stroke="#63b8ff" d="M850.98,-95.43C816.46,-83.12 778.11,-69.45 746,-58"/>
<polygon fill="#63b8ff" stroke="#63b8ff" points="849.54,-98.64 860.13,-98.7 851.89,-92.04 849.54,-98.64"/>
</g>
<!-- Node12&#45;&gt;Node2 -->
<g id="edge25" class="edge">
<title>Node12&#45;&gt;Node2</title>
<path fill="none" stroke="#63b8ff" d="M597.76,-379.76C576.17,-369.84 552.42,-358.92 531.71,-349.39"/>
<polygon fill="#63b8ff" stroke="#63b8ff" points="596.23,-382.92 606.78,-383.91 599.15,-376.56 596.23,-382.92"/>
</g>
</g>
</svg>
