<?xml version="1.0" encoding="UTF-8" standalone="no"?>
<!DOCTYPE svg PUBLIC "-//W3C//DTD SVG 1.1//EN"
 "http://www.w3.org/Graphics/SVG/1.1/DTD/svg11.dtd">
<!-- Generated by graphviz version 7.0.2 (20221119.0110)
 -->
<!-- Title: C:/Users/juanh/OneDrive/Escritorio/Sistemas Embebidos/Proyecto final/LAL Control MbedOS/include/user_messages.h Pages: 1 -->
<svg width="1476pt" height="654pt"
 viewBox="0.00 0.00 1475.50 654.00" xmlns="http://www.w3.org/2000/svg" xmlns:xlink="http://www.w3.org/1999/xlink">
<g id="graph0" class="graph" transform="scale(1 1) rotate(0) translate(4 650)">
<title>C:/Users/juanh/OneDrive/Escritorio/Sistemas Embebidos/Proyecto final/LAL Control MbedOS/include/user_messages.h</title>
<!-- Node1 -->
<g id="node1" class="node">
<title>Node1</title>
<g id="a_node1"><a xlink:title="Archivo para la configuración de interfaz con el usuario.">
<polygon fill="#999999" stroke="#666666" points="920.5,-646 748.5,-646 748.5,-594 920.5,-594 920.5,-646"/>
<text text-anchor="start" x="756.5" y="-634" font-family="Helvetica,sans-Serif" font-size="10.00">C:/Users/juanh/OneDrive</text>
<text text-anchor="start" x="756.5" y="-623" font-family="Helvetica,sans-Serif" font-size="10.00">/Escritorio/Sistemas Embebidos</text>
<text text-anchor="start" x="756.5" y="-612" font-family="Helvetica,sans-Serif" font-size="10.00">/Proyecto final/LAL Control</text>
<text text-anchor="middle" x="834.5" y="-601" font-family="Helvetica,sans-Serif" font-size="10.00"> MbedOS/include/user_messages.h</text>
</a>
</g>
</g>
<!-- Node2 -->
<g id="node2" class="node">
<title>Node2</title>
<g id="a_node2"><a xlink:href="_control__system_8h_source.html" target="_top" xlink:title=" ">
<polygon fill="white" stroke="#666666" points="920,-558 749,-558 749,-506 920,-506 920,-558"/>
<text text-anchor="start" x="757" y="-546" font-family="Helvetica,sans-Serif" font-size="10.00">C:/Users/juanh/OneDrive</text>
<text text-anchor="start" x="757" y="-535" font-family="Helvetica,sans-Serif" font-size="10.00">/Escritorio/Sistemas Embebidos</text>
<text text-anchor="start" x="757" y="-524" font-family="Helvetica,sans-Serif" font-size="10.00">/Proyecto final/LAL Control</text>
<text text-anchor="middle" x="834.5" y="-513" font-family="Helvetica,sans-Serif" font-size="10.00"> MbedOS/include/Control_system.h</text>
</a>
</g>
</g>
<!-- Node1&#45;&gt;Node2 -->
<g id="edge1" class="edge">
<title>Node1&#45;&gt;Node2</title>
<path fill="none" stroke="#63b8ff" d="M834.5,-582.26C834.5,-574.24 834.5,-565.92 834.5,-558.45"/>
<polygon fill="#63b8ff" stroke="#63b8ff" points="831,-582.15 834.5,-592.15 838,-582.15 831,-582.15"/>
</g>
<!-- Node3 -->
<g id="node3" class="node">
<title>Node3</title>
<g id="a_node3"><a xlink:href="_alarm__state_8h.html" target="_top" xlink:title="Clase de estado de control del motor.">
<polygon fill="white" stroke="#666666" points="513.5,-470 325.5,-470 325.5,-407 513.5,-407 513.5,-470"/>
<text text-anchor="start" x="333.5" y="-458" font-family="Helvetica,sans-Serif" font-size="10.00">C:/Users/juanh/OneDrive</text>
<text text-anchor="start" x="333.5" y="-447" font-family="Helvetica,sans-Serif" font-size="10.00">/Escritorio/Sistemas Embebidos</text>
<text text-anchor="start" x="333.5" y="-436" font-family="Helvetica,sans-Serif" font-size="10.00">/Proyecto final/LAL Control</text>
<text text-anchor="start" x="333.5" y="-425" font-family="Helvetica,sans-Serif" font-size="10.00"> MbedOS/include/machine_state</text>
<text text-anchor="middle" x="419.5" y="-414" font-family="Helvetica,sans-Serif" font-size="10.00">_pattern/machine_states/Alarm_state.h</text>
</a>
</g>
</g>
<!-- Node2&#45;&gt;Node3 -->
<g id="edge2" class="edge">
<title>Node2&#45;&gt;Node3</title>
<path fill="none" stroke="#63b8ff" d="M737.46,-509.6C669.99,-494.73 580.53,-475 513.69,-460.27"/>
<polygon fill="#63b8ff" stroke="#63b8ff" points="736.51,-512.98 747.03,-511.72 738.02,-506.14 736.51,-512.98"/>
</g>
<!-- Node4 -->
<g id="node4" class="node">
<title>Node4</title>
<g id="a_node4"><a xlink:href="_check__instruction__state_8h_source.html" target="_top" xlink:title=" ">
<polygon fill="white" stroke="#666666" points="587.5,-371 429.5,-371 429.5,-297 587.5,-297 587.5,-371"/>
<text text-anchor="start" x="437.5" y="-359" font-family="Helvetica,sans-Serif" font-size="10.00">C:/Users/juanh/OneDrive</text>
<text text-anchor="start" x="437.5" y="-348" font-family="Helvetica,sans-Serif" font-size="10.00">/Escritorio/Sistemas Embebidos</text>
<text text-anchor="start" x="437.5" y="-337" font-family="Helvetica,sans-Serif" font-size="10.00">/Proyecto final/LAL Control</text>
<text text-anchor="start" x="437.5" y="-326" font-family="Helvetica,sans-Serif" font-size="10.00"> MbedOS/include/machine_state</text>
<text text-anchor="start" x="437.5" y="-315" font-family="Helvetica,sans-Serif" font-size="10.00">_pattern/machine_states/Check</text>
<text text-anchor="middle" x="508.5" y="-304" font-family="Helvetica,sans-Serif" font-size="10.00">_instruction_state.h</text>
</a>
</g>
</g>
<!-- Node2&#45;&gt;Node4 -->
<g id="edge14" class="edge">
<title>Node2&#45;&gt;Node4</title>
<path fill="none" stroke="#63b8ff" d="M782.5,-499.74C724.38,-464.79 630.39,-408.28 569.01,-371.38"/>
<polygon fill="#63b8ff" stroke="#63b8ff" points="780.54,-502.64 790.92,-504.8 784.15,-496.65 780.54,-502.64"/>
</g>
<!-- Node5 -->
<g id="node5" class="node">
<title>Node5</title>
<g id="a_node5"><a xlink:href="_idle__state_8h.html" target="_top" xlink:title="Clase de estado de reposo.">
<polygon fill="white" stroke="#666666" points="317,-261 140,-261 140,-198 317,-198 317,-261"/>
<text text-anchor="start" x="148" y="-249" font-family="Helvetica,sans-Serif" font-size="10.00">C:/Users/juanh/OneDrive</text>
<text text-anchor="start" x="148" y="-238" font-family="Helvetica,sans-Serif" font-size="10.00">/Escritorio/Sistemas Embebidos</text>
<text text-anchor="start" x="148" y="-227" font-family="Helvetica,sans-Serif" font-size="10.00">/Proyecto final/LAL Control</text>
<text text-anchor="start" x="148" y="-216" font-family="Helvetica,sans-Serif" font-size="10.00"> MbedOS/include/machine_state</text>
<text text-anchor="middle" x="228.5" y="-205" font-family="Helvetica,sans-Serif" font-size="10.00">_pattern/machine_states/Idle_state.h</text>
</a>
</g>
</g>
<!-- Node2&#45;&gt;Node5 -->
<g id="edge15" class="edge">
<title>Node2&#45;&gt;Node5</title>
<path fill="none" stroke="#63b8ff" d="M737.12,-527.07C608.16,-520.58 388.62,-504.73 316.5,-470 260.15,-442.86 240.58,-428.72 216.5,-371 201.7,-335.53 209.57,-290.72 217.87,-261.37"/>
<polygon fill="#63b8ff" stroke="#63b8ff" points="736.88,-530.56 747.04,-527.56 737.22,-523.57 736.88,-530.56"/>
</g>
<!-- Node6 -->
<g id="node6" class="node">
<title>Node6</title>
<g id="a_node6"><a xlink:href="_shutdown__state_8h.html" target="_top" xlink:title="Clase de estado de apagado del sistema.">
<polygon fill="white" stroke="#666666" points="205,-162 0,-162 0,-99 205,-99 205,-162"/>
<text text-anchor="start" x="8" y="-150" font-family="Helvetica,sans-Serif" font-size="10.00">C:/Users/juanh/OneDrive</text>
<text text-anchor="start" x="8" y="-139" font-family="Helvetica,sans-Serif" font-size="10.00">/Escritorio/Sistemas Embebidos</text>
<text text-anchor="start" x="8" y="-128" font-family="Helvetica,sans-Serif" font-size="10.00">/Proyecto final/LAL Control</text>
<text text-anchor="start" x="8" y="-117" font-family="Helvetica,sans-Serif" font-size="10.00"> MbedOS/include/machine_state</text>
<text text-anchor="middle" x="102.5" y="-106" font-family="Helvetica,sans-Serif" font-size="10.00">_pattern/machine_states/Shutdown_state.h</text>
</a>
</g>
</g>
<!-- Node2&#45;&gt;Node6 -->
<g id="edge16" class="edge">
<title>Node2&#45;&gt;Node6</title>
<path fill="none" stroke="#63b8ff" d="M737.31,-526.62C575.18,-518.34 263.41,-498.63 222.5,-470 119.33,-397.78 98.63,-231.42 98.82,-162.39"/>
<polygon fill="#63b8ff" stroke="#63b8ff" points="737.04,-530.11 747.21,-527.12 737.4,-523.12 737.04,-530.11"/>
</g>
<!-- Node11 -->
<g id="node11" class="node">
<title>Node11</title>
<g id="a_node11"><a xlink:href="main_8h.html" target="_top" xlink:title="Archivo principal del programa.">
<polygon fill="white" stroke="#666666" points="1091,-255.5 934,-255.5 934,-203.5 1091,-203.5 1091,-255.5"/>
<text text-anchor="start" x="942" y="-243.5" font-family="Helvetica,sans-Serif" font-size="10.00">C:/Users/juanh/OneDrive</text>
<text text-anchor="start" x="942" y="-232.5" font-family="Helvetica,sans-Serif" font-size="10.00">/Escritorio/Sistemas Embebidos</text>
<text text-anchor="start" x="942" y="-221.5" font-family="Helvetica,sans-Serif" font-size="10.00">/Proyecto final/LAL Control</text>
<text text-anchor="middle" x="1012.5" y="-210.5" font-family="Helvetica,sans-Serif" font-size="10.00"> MbedOS/include/main.h</text>
</a>
</g>
</g>
<!-- Node2&#45;&gt;Node11 -->
<g id="edge17" class="edge">
<title>Node2&#45;&gt;Node11</title>
<path fill="none" stroke="#63b8ff" d="M849.58,-495.03C864.12,-460.89 884.87,-413.82 891.5,-407 916.73,-381.07 940.62,-398.17 964.5,-371 993.59,-337.89 1005.24,-286.32 1009.76,-255.73"/>
<polygon fill="#63b8ff" stroke="#63b8ff" points="846.37,-493.62 845.69,-504.19 852.82,-496.35 846.37,-493.62"/>
</g>
<!-- Node12 -->
<g id="node12" class="node">
<title>Node12</title>
<g id="a_node12"><a xlink:href="_cooler__observer_8h_source.html" target="_top" xlink:title=" ">
<polygon fill="white" stroke="#666666" points="771.5,-365.5 605.5,-365.5 605.5,-302.5 771.5,-302.5 771.5,-365.5"/>
<text text-anchor="start" x="613.5" y="-353.5" font-family="Helvetica,sans-Serif" font-size="10.00">C:/Users/juanh/OneDrive</text>
<text text-anchor="start" x="613.5" y="-342.5" font-family="Helvetica,sans-Serif" font-size="10.00">/Escritorio/Sistemas Embebidos</text>
<text text-anchor="start" x="613.5" y="-331.5" font-family="Helvetica,sans-Serif" font-size="10.00">/Proyecto final/LAL Control</text>
<text text-anchor="start" x="613.5" y="-320.5" font-family="Helvetica,sans-Serif" font-size="10.00"> MbedOS/include/observer_pattern</text>
<text text-anchor="middle" x="688.5" y="-309.5" font-family="Helvetica,sans-Serif" font-size="10.00">/observers/Cooler_observer.h</text>
</a>
</g>
</g>
<!-- Node2&#45;&gt;Node12 -->
<g id="edge18" class="edge">
<title>Node2&#45;&gt;Node12</title>
<path fill="none" stroke="#63b8ff" d="M809.08,-496.88C781.57,-459.95 738.09,-401.57 711.54,-365.93"/>
<polygon fill="#63b8ff" stroke="#63b8ff" points="806.03,-498.64 814.81,-504.56 811.64,-494.45 806.03,-498.64"/>
</g>
<!-- Node14 -->
<g id="node14" class="node">
<title>Node14</title>
<g id="a_node14"><a xlink:href="_instruction__observer_8h.html" target="_top" xlink:title="Observador de instrucciones.">
<polygon fill="white" stroke="#666666" points="955.5,-365.5 789.5,-365.5 789.5,-302.5 955.5,-302.5 955.5,-365.5"/>
<text text-anchor="start" x="797.5" y="-353.5" font-family="Helvetica,sans-Serif" font-size="10.00">C:/Users/juanh/OneDrive</text>
<text text-anchor="start" x="797.5" y="-342.5" font-family="Helvetica,sans-Serif" font-size="10.00">/Escritorio/Sistemas Embebidos</text>
<text text-anchor="start" x="797.5" y="-331.5" font-family="Helvetica,sans-Serif" font-size="10.00">/Proyecto final/LAL Control</text>
<text text-anchor="start" x="797.5" y="-320.5" font-family="Helvetica,sans-Serif" font-size="10.00"> MbedOS/include/observer_pattern</text>
<text text-anchor="middle" x="872.5" y="-309.5" font-family="Helvetica,sans-Serif" font-size="10.00">/observers/Instruction_observer.h</text>
</a>
</g>
</g>
<!-- Node2&#45;&gt;Node14 -->
<g id="edge21" class="edge">
<title>Node2&#45;&gt;Node14</title>
<path fill="none" stroke="#63b8ff" d="M841.5,-494.79C846.28,-470.06 852.77,-436.55 858.5,-407 861.12,-393.5 864.02,-378.57 866.5,-365.83"/>
<polygon fill="#63b8ff" stroke="#63b8ff" points="838.12,-493.86 839.65,-504.34 844.99,-495.19 838.12,-493.86"/>
</g>
<!-- Node16 -->
<g id="node16" class="node">
<title>Node16</title>
<g id="a_node16"><a xlink:href="_moisture__observer_8h.html" target="_top" xlink:title="Observador del sensor de temperatura.">
<polygon fill="white" stroke="#666666" points="1177.5,-365.5 1011.5,-365.5 1011.5,-302.5 1177.5,-302.5 1177.5,-365.5"/>
<text text-anchor="start" x="1019.5" y="-353.5" font-family="Helvetica,sans-Serif" font-size="10.00">C:/Users/juanh/OneDrive</text>
<text text-anchor="start" x="1019.5" y="-342.5" font-family="Helvetica,sans-Serif" font-size="10.00">/Escritorio/Sistemas Embebidos</text>
<text text-anchor="start" x="1019.5" y="-331.5" font-family="Helvetica,sans-Serif" font-size="10.00">/Proyecto final/LAL Control</text>
<text text-anchor="start" x="1019.5" y="-320.5" font-family="Helvetica,sans-Serif" font-size="10.00"> MbedOS/include/observer_pattern</text>
<text text-anchor="middle" x="1094.5" y="-309.5" font-family="Helvetica,sans-Serif" font-size="10.00">/observers/Moisture_observer.h</text>
</a>
</g>
</g>
<!-- Node2&#45;&gt;Node16 -->
<g id="edge24" class="edge">
<title>Node2&#45;&gt;Node16</title>
<path fill="none" stroke="#63b8ff" d="M931.42,-517.65C989.58,-507.58 1055.97,-491.77 1075.5,-470 1100.79,-441.81 1101.89,-396.13 1099.16,-365.82"/>
<polygon fill="#63b8ff" stroke="#63b8ff" points="931.06,-514.16 921.78,-519.27 932.23,-521.06 931.06,-514.16"/>
</g>
<!-- Node18 -->
<g id="node18" class="node">
<title>Node18</title>
<g id="a_node18"><a xlink:href="_system__observer_8h.html" target="_top" xlink:title="Clase observador del sistema de control.">
<polygon fill="white" stroke="#666666" points="1066.5,-470 900.5,-470 900.5,-407 1066.5,-407 1066.5,-470"/>
<text text-anchor="start" x="908.5" y="-458" font-family="Helvetica,sans-Serif" font-size="10.00">C:/Users/juanh/OneDrive</text>
<text text-anchor="start" x="908.5" y="-447" font-family="Helvetica,sans-Serif" font-size="10.00">/Escritorio/Sistemas Embebidos</text>
<text text-anchor="start" x="908.5" y="-436" font-family="Helvetica,sans-Serif" font-size="10.00">/Proyecto final/LAL Control</text>
<text text-anchor="start" x="908.5" y="-425" font-family="Helvetica,sans-Serif" font-size="10.00"> MbedOS/include/observer_pattern</text>
<text text-anchor="middle" x="983.5" y="-414" font-family="Helvetica,sans-Serif" font-size="10.00">/observers/System_observer.h</text>
</a>
</g>
</g>
<!-- Node2&#45;&gt;Node18 -->
<g id="edge27" class="edge">
<title>Node2&#45;&gt;Node18</title>
<path fill="none" stroke="#63b8ff" d="M879.39,-499.47C894.31,-490.06 911.1,-479.75 926.79,-470.38"/>
<polygon fill="#63b8ff" stroke="#63b8ff" points="877.72,-496.38 871.16,-504.7 881.48,-502.29 877.72,-496.38"/>
</g>
<!-- Node19 -->
<g id="node19" class="node">
<title>Node19</title>
<g id="a_node19"><a xlink:href="_temperature__observer_8h.html" target="_top" xlink:title="Observador del sensor de temperatura.">
<polygon fill="white" stroke="#666666" points="1363,-365.5 1196,-365.5 1196,-302.5 1363,-302.5 1363,-365.5"/>
<text text-anchor="start" x="1204" y="-353.5" font-family="Helvetica,sans-Serif" font-size="10.00">C:/Users/juanh/OneDrive</text>
<text text-anchor="start" x="1204" y="-342.5" font-family="Helvetica,sans-Serif" font-size="10.00">/Escritorio/Sistemas Embebidos</text>
<text text-anchor="start" x="1204" y="-331.5" font-family="Helvetica,sans-Serif" font-size="10.00">/Proyecto final/LAL Control</text>
<text text-anchor="start" x="1204" y="-320.5" font-family="Helvetica,sans-Serif" font-size="10.00"> MbedOS/include/observer_pattern</text>
<text text-anchor="middle" x="1279.5" y="-309.5" font-family="Helvetica,sans-Serif" font-size="10.00">/observers/Temperature_observer.h</text>
</a>
</g>
</g>
<!-- Node2&#45;&gt;Node19 -->
<g id="edge35" class="edge">
<title>Node2&#45;&gt;Node19</title>
<path fill="none" stroke="#63b8ff" d="M931.57,-524.54C985.06,-517.28 1050.7,-502.01 1101.5,-470 1131.74,-450.94 1124.3,-430.2 1151.5,-407 1169.93,-391.28 1192.31,-377.31 1213.17,-365.96"/>
<polygon fill="#63b8ff" stroke="#63b8ff" points="931.33,-521.04 921.86,-525.78 932.22,-527.99 931.33,-521.04"/>
</g>
<!-- Node21 -->
<g id="node21" class="node">
<title>Node21</title>
<g id="a_node21"><a xlink:href="_control__system_8cpp.html" target="_top" xlink:title="Implementación de Control_system.h.">
<polygon fill="white" stroke="#666666" points="1346,-464.5 1161,-464.5 1161,-412.5 1346,-412.5 1346,-464.5"/>
<text text-anchor="start" x="1169" y="-452.5" font-family="Helvetica,sans-Serif" font-size="10.00">C:/Users/juanh/OneDrive</text>
<text text-anchor="start" x="1169" y="-441.5" font-family="Helvetica,sans-Serif" font-size="10.00">/Escritorio/Sistemas Embebidos</text>
<text text-anchor="start" x="1169" y="-430.5" font-family="Helvetica,sans-Serif" font-size="10.00">/Proyecto final/LAL Control</text>
<text text-anchor="middle" x="1253.5" y="-419.5" font-family="Helvetica,sans-Serif" font-size="10.00"> MbedOS/src/Port/Control_system.cpp</text>
</a>
</g>
</g>
<!-- Node2&#45;&gt;Node21 -->
<g id="edge36" class="edge">
<title>Node2&#45;&gt;Node21</title>
<path fill="none" stroke="#63b8ff" d="M931.64,-514.19C993.44,-502.96 1075.01,-487.15 1146.5,-470 1152.98,-468.45 1159.66,-466.76 1166.36,-465"/>
<polygon fill="#63b8ff" stroke="#63b8ff" points="931.04,-510.75 921.82,-515.97 932.29,-517.63 931.04,-510.75"/>
</g>
<!-- Node3&#45;&gt;Node4 -->
<g id="edge3" class="edge">
<title>Node3&#45;&gt;Node4</title>
<path fill="none" stroke="#63b8ff" d="M447.13,-398.09C454.58,-389.23 462.74,-379.87 470.63,-371.14"/>
<polygon fill="#63b8ff" stroke="#63b8ff" points="444.61,-395.65 440.92,-405.58 450,-400.12 444.61,-395.65"/>
</g>
<!-- Node3&#45;&gt;Node5 -->
<g id="edge12" class="edge">
<title>Node3&#45;&gt;Node5</title>
<path fill="none" stroke="#63b8ff" d="M314.73,-422.83C283.1,-413.22 251.51,-397.32 231.5,-371 207.64,-339.63 209.05,-292.14 215.61,-261.22"/>
<polygon fill="#63b8ff" stroke="#63b8ff" points="313.41,-426.1 323.99,-425.45 315.32,-419.36 313.41,-426.1"/>
</g>
<!-- Node10 -->
<g id="node10" class="node">
<title>Node10</title>
<g id="a_node10"><a xlink:href="_alarm_8cpp.html" target="_top" xlink:title="Implementación de Alarm_state.h.">
<polygon fill="white" stroke="#666666" points="411.5,-365.5 249.5,-365.5 249.5,-302.5 411.5,-302.5 411.5,-365.5"/>
<text text-anchor="start" x="257.5" y="-353.5" font-family="Helvetica,sans-Serif" font-size="10.00">C:/Users/juanh/OneDrive</text>
<text text-anchor="start" x="257.5" y="-342.5" font-family="Helvetica,sans-Serif" font-size="10.00">/Escritorio/Sistemas Embebidos</text>
<text text-anchor="start" x="257.5" y="-331.5" font-family="Helvetica,sans-Serif" font-size="10.00">/Proyecto final/LAL Control</text>
<text text-anchor="start" x="257.5" y="-320.5" font-family="Helvetica,sans-Serif" font-size="10.00"> MbedOS/src/Port/machine_state</text>
<text text-anchor="middle" x="330.5" y="-309.5" font-family="Helvetica,sans-Serif" font-size="10.00">_pattern/Alarm.cpp</text>
</a>
</g>
</g>
<!-- Node3&#45;&gt;Node10 -->
<g id="edge13" class="edge">
<title>Node3&#45;&gt;Node10</title>
<path fill="none" stroke="#63b8ff" d="M385.46,-398.3C376.09,-387.51 366.07,-375.97 357.18,-365.73"/>
<polygon fill="#63b8ff" stroke="#63b8ff" points="382.61,-400.35 391.8,-405.6 387.89,-395.76 382.61,-400.35"/>
</g>
<!-- Node4&#45;&gt;Node3 -->
<g id="edge4" class="edge">
<title>Node4&#45;&gt;Node3</title>
<path fill="none" stroke="#63b8ff" d="M476.34,-379.76C468.57,-388.87 460.26,-398.26 452.45,-406.75"/>
<polygon fill="#63b8ff" stroke="#63b8ff" points="478.85,-382.2 482.62,-372.3 473.5,-377.69 478.85,-382.2"/>
</g>
<!-- Node4&#45;&gt;Node5 -->
<g id="edge5" class="edge">
<title>Node4&#45;&gt;Node5</title>
<path fill="none" stroke="#63b8ff" d="M419.09,-296.52C380.94,-282.23 347.21,-270.37 317.28,-260.11"/>
<polygon fill="#63b8ff" stroke="#63b8ff" points="417.42,-299.63 428.01,-299.88 419.89,-293.08 417.42,-299.63"/>
</g>
<!-- Node9 -->
<g id="node9" class="node">
<title>Node9</title>
<g id="a_node9"><a xlink:href="_check__instruction__state_8cpp.html" target="_top" xlink:title="Implementación de Check_instruction_state.h.">
<polygon fill="white" stroke="#666666" points="539,-261 360,-261 360,-198 539,-198 539,-261"/>
<text text-anchor="start" x="368" y="-249" font-family="Helvetica,sans-Serif" font-size="10.00">C:/Users/juanh/OneDrive</text>
<text text-anchor="start" x="368" y="-238" font-family="Helvetica,sans-Serif" font-size="10.00">/Escritorio/Sistemas Embebidos</text>
<text text-anchor="start" x="368" y="-227" font-family="Helvetica,sans-Serif" font-size="10.00">/Proyecto final/LAL Control</text>
<text text-anchor="start" x="368" y="-216" font-family="Helvetica,sans-Serif" font-size="10.00"> MbedOS/src/Port/machine_state</text>
<text text-anchor="middle" x="449.5" y="-205" font-family="Helvetica,sans-Serif" font-size="10.00">_pattern/Check_instruction_state.cpp</text>
</a>
</g>
</g>
<!-- Node4&#45;&gt;Node9 -->
<g id="edge11" class="edge">
<title>Node4&#45;&gt;Node9</title>
<path fill="none" stroke="#63b8ff" d="M481.83,-286.66C476.9,-278.1 471.86,-269.35 467.28,-261.38"/>
<polygon fill="#63b8ff" stroke="#63b8ff" points="478.76,-288.34 486.78,-295.26 484.82,-284.85 478.76,-288.34"/>
</g>
<!-- Node5&#45;&gt;Node3 -->
<g id="edge6" class="edge">
<title>Node5&#45;&gt;Node3</title>
<path fill="none" stroke="#63b8ff" d="M228.49,-272.32C227.05,-302.69 228.34,-343.18 249.5,-371 268.06,-395.41 296.58,-410.86 325.01,-420.64"/>
<polygon fill="#63b8ff" stroke="#63b8ff" points="231.96,-272.92 229.05,-262.73 224.97,-272.51 231.96,-272.92"/>
</g>
<!-- Node5&#45;&gt;Node6 -->
<g id="edge7" class="edge">
<title>Node5&#45;&gt;Node6</title>
<path fill="none" stroke="#63b8ff" d="M179.22,-190.56C167.14,-181.27 154.36,-171.42 142.76,-162.5"/>
<polygon fill="#63b8ff" stroke="#63b8ff" points="177.03,-193.29 187.09,-196.62 181.3,-187.75 177.03,-193.29"/>
</g>
<!-- Node8 -->
<g id="node8" class="node">
<title>Node8</title>
<g id="a_node8"><a xlink:href="_idle__state_8cpp.html" target="_top" xlink:title="Implementación de Idle_state.h.">
<polygon fill="white" stroke="#666666" points="385.5,-162 223.5,-162 223.5,-99 385.5,-99 385.5,-162"/>
<text text-anchor="start" x="231.5" y="-150" font-family="Helvetica,sans-Serif" font-size="10.00">C:/Users/juanh/OneDrive</text>
<text text-anchor="start" x="231.5" y="-139" font-family="Helvetica,sans-Serif" font-size="10.00">/Escritorio/Sistemas Embebidos</text>
<text text-anchor="start" x="231.5" y="-128" font-family="Helvetica,sans-Serif" font-size="10.00">/Proyecto final/LAL Control</text>
<text text-anchor="start" x="231.5" y="-117" font-family="Helvetica,sans-Serif" font-size="10.00"> MbedOS/src/Port/machine_state</text>
<text text-anchor="middle" x="304.5" y="-106" font-family="Helvetica,sans-Serif" font-size="10.00">_pattern/Idle_state.cpp</text>
</a>
</g>
</g>
<!-- Node5&#45;&gt;Node8 -->
<g id="edge10" class="edge">
<title>Node5&#45;&gt;Node8</title>
<path fill="none" stroke="#63b8ff" d="M259.73,-188.64C266.56,-179.92 273.7,-170.81 280.21,-162.5"/>
<polygon fill="#63b8ff" stroke="#63b8ff" points="257.1,-186.32 253.69,-196.35 262.61,-190.64 257.1,-186.32"/>
</g>
<!-- Node6&#45;&gt;Node2 -->
<g id="edge8" class="edge">
<title>Node6&#45;&gt;Node2</title>
<path fill="none" stroke="#63b8ff" d="M109.59,-173.64C118.95,-248.08 142.57,-401.45 240.5,-470 281.47,-498.68 594.18,-518.41 748.72,-526.66"/>
<polygon fill="#63b8ff" stroke="#63b8ff" points="113.09,-173.39 108.39,-163.9 106.14,-174.25 113.09,-173.39"/>
</g>
<!-- Node7 -->
<g id="node7" class="node">
<title>Node7</title>
<g id="a_node7"><a xlink:href="_shutdown__state_8cpp.html" target="_top" xlink:title="Implementación de Shutdown_state.h.">
<polygon fill="white" stroke="#666666" points="183.5,-63 21.5,-63 21.5,0 183.5,0 183.5,-63"/>
<text text-anchor="start" x="29.5" y="-51" font-family="Helvetica,sans-Serif" font-size="10.00">C:/Users/juanh/OneDrive</text>
<text text-anchor="start" x="29.5" y="-40" font-family="Helvetica,sans-Serif" font-size="10.00">/Escritorio/Sistemas Embebidos</text>
<text text-anchor="start" x="29.5" y="-29" font-family="Helvetica,sans-Serif" font-size="10.00">/Proyecto final/LAL Control</text>
<text text-anchor="start" x="29.5" y="-18" font-family="Helvetica,sans-Serif" font-size="10.00"> MbedOS/src/Port/machine_state</text>
<text text-anchor="middle" x="102.5" y="-7" font-family="Helvetica,sans-Serif" font-size="10.00">_pattern/Shutdown_state.cpp</text>
</a>
</g>
</g>
<!-- Node6&#45;&gt;Node7 -->
<g id="edge9" class="edge">
<title>Node6&#45;&gt;Node7</title>
<path fill="none" stroke="#63b8ff" d="M102.5,-87.15C102.5,-79.2 102.5,-71.02 102.5,-63.5"/>
<polygon fill="#63b8ff" stroke="#63b8ff" points="99,-87.03 102.5,-97.03 106,-87.03 99,-87.03"/>
</g>
<!-- Node12&#45;&gt;Node11 -->
<g id="edge19" class="edge">
<title>Node12&#45;&gt;Node11</title>
<path fill="none" stroke="#63b8ff" d="M776.34,-298.35C777.73,-297.89 779.12,-297.44 780.5,-297 843.35,-276.94 861.27,-279.82 924.5,-261 929.77,-259.43 935.19,-257.74 940.63,-255.99"/>
<polygon fill="#63b8ff" stroke="#63b8ff" points="775.32,-295 766.98,-301.54 777.57,-301.63 775.32,-295"/>
</g>
<!-- Node13 -->
<g id="node13" class="node">
<title>Node13</title>
<g id="a_node13"><a xlink:href="_cooler__observer_8cpp.html" target="_top" xlink:title="Implementación de Cooler_observer.h.">
<polygon fill="white" stroke="#666666" points="727.5,-261 557.5,-261 557.5,-198 727.5,-198 727.5,-261"/>
<text text-anchor="start" x="565.5" y="-249" font-family="Helvetica,sans-Serif" font-size="10.00">C:/Users/juanh/OneDrive</text>
<text text-anchor="start" x="565.5" y="-238" font-family="Helvetica,sans-Serif" font-size="10.00">/Escritorio/Sistemas Embebidos</text>
<text text-anchor="start" x="565.5" y="-227" font-family="Helvetica,sans-Serif" font-size="10.00">/Proyecto final/LAL Control</text>
<text text-anchor="start" x="565.5" y="-216" font-family="Helvetica,sans-Serif" font-size="10.00"> MbedOS/src/Port/observer_pattern</text>
<text text-anchor="middle" x="642.5" y="-205" font-family="Helvetica,sans-Serif" font-size="10.00">/Cooler_observer.cpp</text>
</a>
</g>
</g>
<!-- Node12&#45;&gt;Node13 -->
<g id="edge20" class="edge">
<title>Node12&#45;&gt;Node13</title>
<path fill="none" stroke="#63b8ff" d="M670.04,-291.87C665.45,-281.64 660.61,-270.86 656.29,-261.23"/>
<polygon fill="#63b8ff" stroke="#63b8ff" points="666.79,-293.18 674.08,-300.87 673.18,-290.31 666.79,-293.18"/>
</g>
<!-- Node14&#45;&gt;Node11 -->
<g id="edge22" class="edge">
<title>Node14&#45;&gt;Node11</title>
<path fill="none" stroke="#63b8ff" d="M923.76,-295.47C941.84,-282.24 961.71,-267.69 978.06,-255.72"/>
<polygon fill="#63b8ff" stroke="#63b8ff" points="921.73,-292.62 915.73,-301.35 925.86,-298.27 921.73,-292.62"/>
</g>
<!-- Node15 -->
<g id="node15" class="node">
<title>Node15</title>
<g id="a_node15"><a xlink:href="_instruction__observer_8cpp.html" target="_top" xlink:title="Implementación de Instruction_observer.h.">
<polygon fill="white" stroke="#666666" points="915.5,-261 745.5,-261 745.5,-198 915.5,-198 915.5,-261"/>
<text text-anchor="start" x="753.5" y="-249" font-family="Helvetica,sans-Serif" font-size="10.00">C:/Users/juanh/OneDrive</text>
<text text-anchor="start" x="753.5" y="-238" font-family="Helvetica,sans-Serif" font-size="10.00">/Escritorio/Sistemas Embebidos</text>
<text text-anchor="start" x="753.5" y="-227" font-family="Helvetica,sans-Serif" font-size="10.00">/Proyecto final/LAL Control</text>
<text text-anchor="start" x="753.5" y="-216" font-family="Helvetica,sans-Serif" font-size="10.00"> MbedOS/src/Port/observer_pattern</text>
<text text-anchor="middle" x="830.5" y="-205" font-family="Helvetica,sans-Serif" font-size="10.00">/Instruction_observer.cpp</text>
</a>
</g>
</g>
<!-- Node14&#45;&gt;Node15 -->
<g id="edge23" class="edge">
<title>Node14&#45;&gt;Node15</title>
<path fill="none" stroke="#63b8ff" d="M855.65,-291.87C851.46,-281.64 847.04,-270.86 843.09,-261.23"/>
<polygon fill="#63b8ff" stroke="#63b8ff" points="852.29,-292.92 859.32,-300.85 858.77,-290.27 852.29,-292.92"/>
</g>
<!-- Node16&#45;&gt;Node11 -->
<g id="edge25" class="edge">
<title>Node16&#45;&gt;Node11</title>
<path fill="none" stroke="#63b8ff" d="M1062.72,-293.27C1052.61,-280.64 1041.72,-267.03 1032.67,-255.72"/>
<polygon fill="#63b8ff" stroke="#63b8ff" points="1059.97,-295.44 1068.95,-301.06 1065.44,-291.07 1059.97,-295.44"/>
</g>
<!-- Node17 -->
<g id="node17" class="node">
<title>Node17</title>
<g id="a_node17"><a xlink:href="_moisture__observer_8cpp.html" target="_top" xlink:title="Implementación de Moisture_observer.h.">
<polygon fill="white" stroke="#666666" points="1279.5,-261 1109.5,-261 1109.5,-198 1279.5,-198 1279.5,-261"/>
<text text-anchor="start" x="1117.5" y="-249" font-family="Helvetica,sans-Serif" font-size="10.00">C:/Users/juanh/OneDrive</text>
<text text-anchor="start" x="1117.5" y="-238" font-family="Helvetica,sans-Serif" font-size="10.00">/Escritorio/Sistemas Embebidos</text>
<text text-anchor="start" x="1117.5" y="-227" font-family="Helvetica,sans-Serif" font-size="10.00">/Proyecto final/LAL Control</text>
<text text-anchor="start" x="1117.5" y="-216" font-family="Helvetica,sans-Serif" font-size="10.00"> MbedOS/src/Port/observer_pattern</text>
<text text-anchor="middle" x="1194.5" y="-205" font-family="Helvetica,sans-Serif" font-size="10.00">/Moisture_observer.cpp</text>
</a>
</g>
</g>
<!-- Node16&#45;&gt;Node17 -->
<g id="edge26" class="edge">
<title>Node16&#45;&gt;Node17</title>
<path fill="none" stroke="#63b8ff" d="M1132.43,-294.12C1143.05,-283.24 1154.43,-271.57 1164.52,-261.23"/>
<polygon fill="#63b8ff" stroke="#63b8ff" points="1130.04,-291.56 1125.56,-301.16 1135.05,-296.45 1130.04,-291.56"/>
</g>
<!-- Node18&#45;&gt;Node2 -->
<g id="edge28" class="edge">
<title>Node18&#45;&gt;Node2</title>
<path fill="none" stroke="#63b8ff" d="M930.08,-476.38C914.42,-486.15 897.41,-496.49 882.13,-505.51"/>
<polygon fill="#63b8ff" stroke="#63b8ff" points="931.75,-479.47 938.36,-471.18 928.02,-473.54 931.75,-479.47"/>
</g>
<!-- Node18&#45;&gt;Node12 -->
<g id="edge29" class="edge">
<title>Node18&#45;&gt;Node12</title>
<path fill="none" stroke="#63b8ff" d="M889.64,-407.97C855.17,-396.81 815.93,-383.72 780.5,-371 775.98,-369.38 771.35,-367.68 766.68,-365.94"/>
<polygon fill="#63b8ff" stroke="#63b8ff" points="888.14,-411.17 898.73,-410.91 890.29,-404.51 888.14,-411.17"/>
</g>
<!-- Node18&#45;&gt;Node14 -->
<g id="edge30" class="edge">
<title>Node18&#45;&gt;Node14</title>
<path fill="none" stroke="#63b8ff" d="M941.74,-398.94C929.86,-387.97 917.08,-376.17 905.78,-365.73"/>
<polygon fill="#63b8ff" stroke="#63b8ff" points="939.36,-401.51 949.08,-405.72 944.11,-396.36 939.36,-401.51"/>
</g>
<!-- Node18&#45;&gt;Node16 -->
<g id="edge31" class="edge">
<title>Node18&#45;&gt;Node16</title>
<path fill="none" stroke="#63b8ff" d="M1025.26,-398.94C1037.14,-387.97 1049.92,-376.17 1061.22,-365.73"/>
<polygon fill="#63b8ff" stroke="#63b8ff" points="1022.89,-396.36 1017.92,-405.72 1027.64,-401.51 1022.89,-396.36"/>
</g>
<!-- Node18&#45;&gt;Node19 -->
<g id="edge32" class="edge">
<title>Node18&#45;&gt;Node19</title>
<path fill="none" stroke="#63b8ff" d="M1077.33,-407.9C1111.8,-396.73 1151.05,-383.66 1186.5,-371 1191.07,-369.37 1195.74,-367.67 1200.46,-365.92"/>
<polygon fill="#63b8ff" stroke="#63b8ff" points="1076.68,-404.44 1068.24,-410.84 1078.83,-411.1 1076.68,-404.44"/>
</g>
<!-- Node19&#45;&gt;Node11 -->
<g id="edge33" class="edge">
<title>Node19&#45;&gt;Node11</title>
<path fill="none" stroke="#63b8ff" d="M1188.92,-297.93C1188.11,-297.62 1187.3,-297.31 1186.5,-297 1151.03,-283.36 1111.47,-268.23 1079.04,-255.85"/>
<polygon fill="#63b8ff" stroke="#63b8ff" points="1187.61,-301.18 1198.2,-301.5 1190.12,-294.64 1187.61,-301.18"/>
</g>
<!-- Node20 -->
<g id="node20" class="node">
<title>Node20</title>
<g id="a_node20"><a xlink:href="_temperature__observer_8cpp.html" target="_top" xlink:title="Implementación de Temperature_observer.h.">
<polygon fill="white" stroke="#666666" points="1467.5,-261 1297.5,-261 1297.5,-198 1467.5,-198 1467.5,-261"/>
<text text-anchor="start" x="1305.5" y="-249" font-family="Helvetica,sans-Serif" font-size="10.00">C:/Users/juanh/OneDrive</text>
<text text-anchor="start" x="1305.5" y="-238" font-family="Helvetica,sans-Serif" font-size="10.00">/Escritorio/Sistemas Embebidos</text>
<text text-anchor="start" x="1305.5" y="-227" font-family="Helvetica,sans-Serif" font-size="10.00">/Proyecto final/LAL Control</text>
<text text-anchor="start" x="1305.5" y="-216" font-family="Helvetica,sans-Serif" font-size="10.00"> MbedOS/src/Port/observer_pattern</text>
<text text-anchor="middle" x="1382.5" y="-205" font-family="Helvetica,sans-Serif" font-size="10.00">/Temperature_observer.cpp</text>
</a>
</g>
</g>
<!-- Node19&#45;&gt;Node20 -->
<g id="edge34" class="edge">
<title>Node19&#45;&gt;Node20</title>
<path fill="none" stroke="#63b8ff" d="M1318.25,-294.44C1329.28,-283.47 1341.13,-271.67 1351.62,-261.23"/>
<polygon fill="#63b8ff" stroke="#63b8ff" points="1316.1,-291.64 1311.48,-301.18 1321.03,-296.61 1316.1,-291.64"/>
</g>
</g>
</svg>
