<?xml version="1.0" encoding="UTF-8" standalone="no"?>
<!DOCTYPE svg PUBLIC "-//W3C//DTD SVG 1.1//EN"
 "http://www.w3.org/Graphics/SVG/1.1/DTD/svg11.dtd">
<!-- Generated by graphviz version 7.0.2 (20221119.0110)
 -->
<!-- Title: C:/Users/juanh/OneDrive/Escritorio/Sistemas Embebidos/Proyecto final/LAL Control MbedOS/src/Port/utils.cpp Pages: 1 -->
<svg width="253pt" height="170pt"
 viewBox="0.00 0.00 253.00 170.00" xmlns="http://www.w3.org/2000/svg" xmlns:xlink="http://www.w3.org/1999/xlink">
<g id="graph0" class="graph" transform="scale(1 1) rotate(0) translate(4 166)">
<title>C:/Users/juanh/OneDrive/Escritorio/Sistemas Embebidos/Proyecto final/LAL Control MbedOS/src/Port/utils.cpp</title>
<!-- Node1 -->
<g id="node1" class="node">
<title>Node1</title>
<g id="a_node1"><a xlink:title="Implementación de utils.h.">
<polygon fill="#999999" stroke="#666666" points="199,-162 42,-162 42,-110 199,-110 199,-162"/>
<text text-anchor="start" x="50" y="-150" font-family="Helvetica,sans-Serif" font-size="10.00">C:/Users/juanh/OneDrive</text>
<text text-anchor="start" x="50" y="-139" font-family="Helvetica,sans-Serif" font-size="10.00">/Escritorio/Sistemas Embebidos</text>
<text text-anchor="start" x="50" y="-128" font-family="Helvetica,sans-Serif" font-size="10.00">/Proyecto final/LAL Control</text>
<text text-anchor="middle" x="120.5" y="-117" font-family="Helvetica,sans-Serif" font-size="10.00"> MbedOS/src/Port/utils.cpp</text>
</a>
</g>
</g>
<!-- Node2 -->
<g id="node2" class="node">
<title>Node2</title>
<g id="a_node2"><a xlink:href="utils_8h_source.html" target="_top" xlink:title=" ">
<polygon fill="white" stroke="#666666" points="142,-74 99,-74 99,-55 142,-55 142,-74"/>
<text text-anchor="middle" x="120.5" y="-62" font-family="Helvetica,sans-Serif" font-size="10.00">utils.h</text>
</a>
</g>
</g>
<!-- Node1&#45;&gt;Node2 -->
<g id="edge1" class="edge">
<title>Node1&#45;&gt;Node2</title>
<path fill="none" stroke="#63b8ff" d="M120.5,-109.52C120.5,-101.67 120.5,-93.15 120.5,-85.71"/>
<polygon fill="#63b8ff" stroke="#63b8ff" points="124,-85.71 120.5,-75.71 117,-85.71 124,-85.71"/>
</g>
<!-- Node3 -->
<g id="node3" class="node">
<title>Node3</title>
<g id="a_node3"><a xlink:title=" ">
<polygon fill="#e0e0e0" stroke="#999999" points="47,-19 0,-19 0,0 47,0 47,-19"/>
<text text-anchor="middle" x="23.5" y="-7" font-family="Helvetica,sans-Serif" font-size="10.00">math.h</text>
</a>
</g>
</g>
<!-- Node2&#45;&gt;Node3 -->
<g id="edge2" class="edge">
<title>Node2&#45;&gt;Node3</title>
<path fill="none" stroke="#63b8ff" d="M104.05,-54.51C89.18,-46.39 67.06,-34.3 49.75,-24.85"/>
<polygon fill="#63b8ff" stroke="#63b8ff" points="51.49,-21.81 41.04,-20.08 48.14,-27.95 51.49,-21.81"/>
</g>
<!-- Node4 -->
<g id="node4" class="node">
<title>Node4</title>
<g id="a_node4"><a xlink:title=" ">
<polygon fill="#e0e0e0" stroke="#999999" points="111.5,-19 65.5,-19 65.5,0 111.5,0 111.5,-19"/>
<text text-anchor="middle" x="88.5" y="-7" font-family="Helvetica,sans-Serif" font-size="10.00">stdio.h</text>
</a>
</g>
</g>
<!-- Node2&#45;&gt;Node4 -->
<g id="edge3" class="edge">
<title>Node2&#45;&gt;Node4</title>
<path fill="none" stroke="#63b8ff" d="M115.22,-54.75C111.03,-47.81 105.02,-37.86 99.77,-29.16"/>
<polygon fill="#63b8ff" stroke="#63b8ff" points="102.85,-27.49 94.68,-20.74 96.85,-31.11 102.85,-27.49"/>
</g>
<!-- Node5 -->
<g id="node5" class="node">
<title>Node5</title>
<g id="a_node5"><a xlink:title=" ">
<polygon fill="#e0e0e0" stroke="#999999" points="177.5,-19 129.5,-19 129.5,0 177.5,0 177.5,-19"/>
<text text-anchor="middle" x="153.5" y="-7" font-family="Helvetica,sans-Serif" font-size="10.00">stdlib.h</text>
</a>
</g>
</g>
<!-- Node2&#45;&gt;Node5 -->
<g id="edge4" class="edge">
<title>Node2&#45;&gt;Node5</title>
<path fill="none" stroke="#63b8ff" d="M125.95,-54.75C130.27,-47.81 136.46,-37.86 141.88,-29.16"/>
<polygon fill="#63b8ff" stroke="#63b8ff" points="144.82,-31.07 147.13,-20.73 138.88,-27.37 144.82,-31.07"/>
</g>
<!-- Node6 -->
<g id="node6" class="node">
<title>Node6</title>
<g id="a_node6"><a xlink:title=" ">
<polygon fill="#e0e0e0" stroke="#999999" points="245,-19 196,-19 196,0 245,0 245,-19"/>
<text text-anchor="middle" x="220.5" y="-7" font-family="Helvetica,sans-Serif" font-size="10.00">string.h</text>
</a>
</g>
</g>
<!-- Node2&#45;&gt;Node6 -->
<g id="edge5" class="edge">
<title>Node2&#45;&gt;Node6</title>
<path fill="none" stroke="#63b8ff" d="M137.46,-54.51C152.86,-46.35 175.81,-34.19 193.69,-24.71"/>
<polygon fill="#63b8ff" stroke="#63b8ff" points="195.25,-27.84 202.45,-20.07 191.97,-21.66 195.25,-27.84"/>
</g>
</g>
</svg>
